<?xml version="1.0" encoding="utf-8"?>
<!-- Generator: Adobe Illustrator 27.2.0, SVG Export Plug-In . SVG Version: 6.00 Build 0)  -->
<svg version="1.1" id="Layer_1" xmlns="http://www.w3.org/2000/svg" xmlns:xlink="http://www.w3.org/1999/xlink" x="0px" y="0px"
	 viewBox="0 0 800 600" style="enable-background:new 0 0 800 600;" xml:space="preserve">
<g>
	<g>
		<rect x="119.21" y="528.89" width="7.04" height="7.04"/>
		<rect x="126.24" y="521.86" width="6.95" height="7.04"/>
		<rect x="119.21" y="542.96" width="7.04" height="7.04"/>
		<rect x="112.17" y="535.93" width="7.04" height="7.04"/>
		<rect x="105.14" y="542.96" width="7.04" height="7.04"/>
		<rect x="140.23" y="535.93" width="7.04" height="7.04"/>
		<rect x="133.19" y="528.89" width="7.04" height="7.04"/>
		<rect x="133.19" y="542.96" width="7.04" height="7.04"/>
		<rect x="126.24" y="535.93" width="6.95" height="7.04"/>
		<rect x="147.26" y="542.96" width="7.04" height="7.04"/>
		<rect x="126.24" y="507.79" width="6.95" height="7.04"/>
		<rect x="147.26" y="528.89" width="7.04" height="7.04"/>
		<rect x="98.1" y="535.93" width="7.04" height="7.04"/>
		<rect x="161.33" y="542.96" width="7.04" height="7.04"/>
		<rect x="112.17" y="521.86" width="7.04" height="7.04"/>
		<rect x="105.14" y="528.89" width="7.04" height="7.04"/>
		<rect x="133.19" y="514.82" width="7.04" height="7.04"/>
		<rect x="119.21" y="514.82" width="7.04" height="7.04"/>
		<rect x="140.23" y="521.86" width="7.04" height="7.04"/>
		<rect x="154.3" y="535.93" width="7.04" height="7.04"/>
		<rect x="91.07" y="542.96" width="7.04" height="7.04"/>
	</g>
	<polygon points="209.43,550 209.43,505.81 207.87,505.81 207.87,511.08 202.6,511.08 202.6,514.2 207.87,514.2 207.87,521.26 
		200.82,521.26 200.82,515.99 197.7,515.99 197.7,521.26 192.43,521.26 192.43,524.38 197.7,524.38 197.7,529.65 200.82,529.65 
		200.82,524.38 207.87,524.38 207.87,531.43 202.6,531.43 202.6,534.55 207.87,534.55 207.87,541.61 200.82,541.61 200.82,536.34 
		197.7,536.34 197.7,541.61 190.64,541.61 190.64,534.55 195.91,534.55 195.91,531.43 190.64,531.43 190.64,526.16 187.52,526.16 
		187.52,531.43 182.25,531.43 182.25,534.55 187.52,534.55 187.52,541.61 180.46,541.61 180.46,536.34 177.34,536.34 177.34,541.61 
		172.07,541.61 172.07,544.73 177.34,544.73 177.34,550 180.46,550 180.46,544.73 187.52,544.73 187.52,550 190.64,550 
		190.64,544.73 197.7,544.73 197.7,550 200.82,550 200.82,544.73 207.87,544.73 207.87,550 	"/>
	<polygon points="50,550 50,505.81 51.57,505.81 51.57,511.08 56.84,511.08 56.84,514.2 51.57,514.2 51.57,521.26 58.61,521.26 
		58.61,515.99 61.73,515.99 61.73,521.26 67.01,521.26 67.01,524.38 61.73,524.38 61.73,529.65 58.61,529.65 58.61,524.38 
		51.57,524.38 51.57,531.43 56.84,531.43 56.84,534.55 51.57,534.55 51.57,541.61 58.61,541.61 58.61,536.34 61.73,536.34 
		61.73,541.61 68.8,541.61 68.8,534.55 63.53,534.55 63.53,531.43 68.8,531.43 68.8,526.16 71.92,526.16 71.92,531.43 77.18,531.43 
		77.18,534.55 71.92,534.55 71.92,541.61 78.98,541.61 78.98,536.34 82.1,536.34 82.1,541.61 87.36,541.61 87.36,544.73 
		82.1,544.73 82.1,550 78.98,550 78.98,544.73 71.92,544.73 71.92,550 68.8,550 68.8,544.73 61.73,544.73 61.73,550 58.61,550 
		58.61,544.73 51.57,544.73 51.57,550 	"/>
</g>
<g>
</g>
<g>
</g>
<g>
</g>
<g>
</g>
<g>
</g>
<g>
</g>
<g>
</g>
<g>
</g>
<g>
</g>
<g>
</g>
<g>
</g>
<g>
</g>
<g>
</g>
<g>
</g>
<g>
</g>
</svg>
