<?xml version="1.0" encoding="utf-8"?>
<!-- Generator: Adobe Illustrator 27.2.0, SVG Export Plug-In . SVG Version: 6.00 Build 0)  -->
<svg version="1.1" id="Layer_1" xmlns="http://www.w3.org/2000/svg" xmlns:xlink="http://www.w3.org/1999/xlink" x="0px" y="0px"
	 viewBox="0 0 800 600" style="enable-background:new 0 0 800 600;" xml:space="preserve">
<g>
	<g>
		<g>
			<g>
				<path d="M122.03,527.28c0-8.18-6.65-14.83-14.83-14.83s-14.83,6.65-14.83,14.83s6.65,14.83,14.83,14.83
					S122.03,535.46,122.03,527.28z M94.33,527.28c0-7.1,5.78-12.87,12.87-12.87c7.1,0,12.87,5.78,12.87,12.87
					c0,7.1-5.78,12.87-12.87,12.87C100.1,540.16,94.33,534.38,94.33,527.28z"/>
				<g>
					
						<rect x="89.18" y="485.47" transform="matrix(0.7071 0.7071 -0.7071 0.7071 373.8991 77.2686)" style="fill:none;stroke:#000000;stroke-width:2;stroke-miterlimit:10;" width="9" height="9"/>
					
						<rect x="102.7" y="485.47" transform="matrix(0.7071 0.7071 -0.7071 0.7071 377.8599 67.7064)" style="fill:none;stroke:#000000;stroke-width:2;stroke-miterlimit:10;" width="9" height="9"/>
					
						<rect x="102.7" y="471.95" transform="matrix(0.7071 0.7071 -0.7071 0.7071 368.2977 63.7456)" style="fill:none;stroke:#000000;stroke-width:2;stroke-miterlimit:10;" width="9" height="9"/>
					
						<rect x="102.7" y="498.99" transform="matrix(0.7071 0.7071 -0.7071 0.7071 387.4221 71.6672)" style="fill:none;stroke:#000000;stroke-width:2;stroke-miterlimit:10;" width="9" height="9"/>
					
						<rect x="116.22" y="485.47" transform="matrix(0.7071 0.7071 -0.7071 0.7071 381.8207 58.1442)" style="fill:none;stroke:#000000;stroke-width:2;stroke-miterlimit:10;" width="9" height="9"/>
				</g>
				<g>
					
						<rect x="65.39" y="536.31" transform="matrix(0.7071 -0.7071 0.7071 0.7071 -361.9393 207.8164)" style="fill:none;stroke:#000000;stroke-width:2;stroke-miterlimit:10;" width="9" height="9"/>
					
						<rect x="65.39" y="522.78" transform="matrix(0.7071 -0.7071 0.7071 0.7071 -352.3771 203.8556)" style="fill:none;stroke:#000000;stroke-width:2;stroke-miterlimit:10;" width="9" height="9"/>
					
						<rect x="51.86" y="522.78" transform="matrix(0.7071 -0.7071 0.7071 0.7071 -356.3379 194.2934)" style="fill:none;stroke:#000000;stroke-width:2;stroke-miterlimit:10;" width="9" height="9"/>
					
						<rect x="78.91" y="522.78" transform="matrix(0.7071 -0.7071 0.7071 0.7071 -348.4163 213.4178)" style="fill:none;stroke:#000000;stroke-width:2;stroke-miterlimit:10;" width="9" height="9"/>
					
						<rect x="65.39" y="509.26" transform="matrix(0.7071 -0.7071 0.7071 0.7071 -342.8149 199.8948)" style="fill:none;stroke:#000000;stroke-width:2;stroke-miterlimit:10;" width="9" height="9"/>
				</g>
				<g>
					
						<rect x="140.02" y="509.26" transform="matrix(-0.7071 0.7071 -0.7071 -0.7071 609.9874 774.8582)" style="fill:none;stroke:#000000;stroke-width:2;stroke-miterlimit:10;" width="9" height="9"/>
					
						<rect x="140.02" y="522.78" transform="matrix(-0.7071 0.7071 -0.7071 -0.7071 619.5496 797.9434)" style="fill:none;stroke:#000000;stroke-width:2;stroke-miterlimit:10;" width="9" height="9"/>
					
						<rect x="153.54" y="522.78" transform="matrix(-0.7071 0.7071 -0.7071 -0.7071 642.6348 788.3812)" style="fill:none;stroke:#000000;stroke-width:2;stroke-miterlimit:10;" width="9" height="9"/>
					
						<rect x="126.49" y="522.78" transform="matrix(-0.7071 0.7071 -0.7071 -0.7071 596.4644 807.5056)" style="fill:none;stroke:#000000;stroke-width:2;stroke-miterlimit:10;" width="9" height="9"/>
					
						<rect x="140.02" y="536.31" transform="matrix(-0.7071 0.7071 -0.7071 -0.7071 629.1118 821.0286)" style="fill:none;stroke:#000000;stroke-width:2;stroke-miterlimit:10;" width="9" height="9"/>
				</g>
			</g>
			<g>
				
					<rect x="120.1" y="506.12" transform="matrix(-3.500152e-11 1 -1 -3.500152e-11 634.4857 386.0247)" style="fill:none;stroke:#000000;stroke-width:2;stroke-miterlimit:10;" width="8.26" height="8.26"/>
				
					<rect x="129.32" y="496.9" transform="matrix(-4.831887e-11 1 -1 -4.831887e-11 634.4857 367.5823)" style="fill:none;stroke:#000000;stroke-width:2;stroke-miterlimit:10;" width="8.26" height="8.26"/>
			</g>
			<g>
				
					<rect x="86.04" y="506.12" style="fill:none;stroke:#000000;stroke-width:2;stroke-miterlimit:10;" width="8.26" height="8.26"/>
				<rect x="76.82" y="496.9" style="fill:none;stroke:#000000;stroke-width:2;stroke-miterlimit:10;" width="8.26" height="8.26"/>
			</g>
		</g>
		<g>
			<g>
				<path d="M238.62,527.28c0-8.18-6.65-14.83-14.83-14.83c-8.18,0-14.83,6.65-14.83,14.83s6.65,14.83,14.83,14.83
					C231.97,542.11,238.62,535.46,238.62,527.28z M210.91,527.28c0-7.1,5.78-12.87,12.87-12.87c7.1,0,12.87,5.78,12.87,12.87
					c0,7.1-5.78,12.87-12.87,12.87C216.69,540.16,210.91,534.38,210.91,527.28z"/>
				<g>
					
						<rect x="205.77" y="485.47" transform="matrix(0.7071 0.7071 -0.7071 0.7071 408.0471 -5.1721)" style="fill:none;stroke:#000000;stroke-width:2;stroke-miterlimit:10;" width="9" height="9"/>
					
						<rect x="219.29" y="485.47" transform="matrix(0.7071 0.7071 -0.7071 0.7071 412.0079 -14.7343)" style="fill:none;stroke:#000000;stroke-width:2;stroke-miterlimit:10;" width="9" height="9"/>
					
						<rect x="219.29" y="471.95" transform="matrix(0.7071 0.7071 -0.7071 0.7071 402.4457 -18.6951)" style="fill:none;stroke:#000000;stroke-width:2;stroke-miterlimit:10;" width="9" height="9"/>
					
						<rect x="219.29" y="498.99" transform="matrix(0.7071 0.7071 -0.7071 0.7071 421.5701 -10.7735)" style="fill:none;stroke:#000000;stroke-width:2;stroke-miterlimit:10;" width="9" height="9"/>
					
						<rect x="232.81" y="485.47" transform="matrix(0.7071 0.7071 -0.7071 0.7071 415.9687 -24.2965)" style="fill:none;stroke:#000000;stroke-width:2;stroke-miterlimit:10;" width="9" height="9"/>
				</g>
				<g>
					
						<rect x="181.98" y="536.31" transform="matrix(0.7071 -0.7071 0.7071 0.7071 -327.7913 290.257)" style="fill:none;stroke:#000000;stroke-width:2;stroke-miterlimit:10;" width="9" height="9"/>
					
						<rect x="181.98" y="522.78" transform="matrix(0.7071 -0.7071 0.7071 0.7071 -318.2291 286.2963)" style="fill:none;stroke:#000000;stroke-width:2;stroke-miterlimit:10;" width="9" height="9"/>
					
						<rect x="168.45" y="522.78" transform="matrix(0.7071 -0.7071 0.7071 0.7071 -322.1899 276.734)" style="fill:none;stroke:#000000;stroke-width:2;stroke-miterlimit:10;" width="9" height="9"/>
					
						<rect x="195.5" y="522.78" transform="matrix(0.7071 -0.7071 0.7071 0.7071 -314.2683 295.8585)" style="fill:none;stroke:#000000;stroke-width:2;stroke-miterlimit:10;" width="9" height="9"/>
					
						<rect x="181.98" y="509.26" transform="matrix(0.7071 -0.7071 0.7071 0.7071 -308.6669 282.3354)" style="fill:none;stroke:#000000;stroke-width:2;stroke-miterlimit:10;" width="9" height="9"/>
				</g>
				<g>
					
						<rect x="256.6" y="509.26" transform="matrix(-0.7071 0.7071 -0.7071 -0.7071 809.0167 692.4175)" style="fill:none;stroke:#000000;stroke-width:2;stroke-miterlimit:10;" width="9" height="9"/>
					
						<rect x="256.6" y="522.78" transform="matrix(-0.7071 0.7071 -0.7071 -0.7071 818.5789 715.5027)" style="fill:none;stroke:#000000;stroke-width:2;stroke-miterlimit:10;" width="9" height="9"/>
					
						<rect x="270.13" y="522.78" transform="matrix(-0.7071 0.7071 -0.7071 -0.7071 841.6641 705.9406)" style="fill:none;stroke:#000000;stroke-width:2;stroke-miterlimit:10;" width="9" height="9"/>
					
						<rect x="243.08" y="522.78" transform="matrix(-0.7071 0.7071 -0.7071 -0.7071 795.4937 725.0649)" style="fill:none;stroke:#000000;stroke-width:2;stroke-miterlimit:10;" width="9" height="9"/>
					
						<rect x="256.6" y="536.31" transform="matrix(-0.7071 0.7071 -0.7071 -0.7071 828.1411 738.588)" style="fill:none;stroke:#000000;stroke-width:2;stroke-miterlimit:10;" width="9" height="9"/>
				</g>
			</g>
			<g>
				
					<rect x="236.69" y="506.12" transform="matrix(-4.842900e-11 1 -1 -4.842900e-11 751.0744 269.436)" style="fill:none;stroke:#000000;stroke-width:2;stroke-miterlimit:10;" width="8.26" height="8.26"/>
				
					<rect x="245.91" y="496.9" transform="matrix(-4.710828e-11 1 -1 -4.710828e-11 751.0744 250.9936)" style="fill:none;stroke:#000000;stroke-width:2;stroke-miterlimit:10;" width="8.26" height="8.26"/>
			</g>
			<g>
				
					<rect x="202.63" y="506.12" style="fill:none;stroke:#000000;stroke-width:2;stroke-miterlimit:10;" width="8.26" height="8.26"/>
				
					<rect x="193.41" y="496.9" style="fill:none;stroke:#000000;stroke-width:2;stroke-miterlimit:10;" width="8.26" height="8.26"/>
			</g>
		</g>
	</g>
	<g>
		<g>
			<path d="M180.33,432.28c0-8.18-6.65-14.83-14.83-14.83c-8.18,0-14.83,6.65-14.83,14.83s6.65,14.83,14.83,14.83
				C173.67,447.11,180.33,440.46,180.33,432.28z M152.62,432.28c0-7.1,5.78-12.87,12.87-12.87c7.1,0,12.87,5.78,12.87,12.87
				c0,7.1-5.78,12.87-12.87,12.87C158.4,445.16,152.62,439.38,152.62,432.28z"/>
			<g>
				
					<rect x="147.47" y="390.47" transform="matrix(0.7071 0.7071 -0.7071 0.7071 323.7968 8.2229)" style="fill:none;stroke:#000000;stroke-width:2;stroke-miterlimit:10;" width="9" height="9"/>
				
					<rect x="161" y="390.47" transform="matrix(0.7071 0.7071 -0.7071 0.7071 327.7576 -1.3393)" style="fill:none;stroke:#000000;stroke-width:2;stroke-miterlimit:10;" width="9" height="9"/>
				
					<rect x="161" y="376.95" transform="matrix(0.7071 0.7071 -0.7071 0.7071 318.1954 -5.3001)" style="fill:none;stroke:#000000;stroke-width:2;stroke-miterlimit:10;" width="9" height="9"/>
				
					<rect x="161" y="403.99" transform="matrix(0.7071 0.7071 -0.7071 0.7071 337.3198 2.6215)" style="fill:none;stroke:#000000;stroke-width:2;stroke-miterlimit:10;" width="9" height="9"/>
				
					<rect x="174.52" y="390.47" transform="matrix(0.7071 0.7071 -0.7071 0.7071 331.7184 -10.9015)" style="fill:none;stroke:#000000;stroke-width:2;stroke-miterlimit:10;" width="9" height="9"/>
			</g>
			<g>
				
					<rect x="123.68" y="441.31" transform="matrix(0.7071 -0.7071 0.7071 0.7071 -277.689 221.2114)" style="fill:none;stroke:#000000;stroke-width:2;stroke-miterlimit:10;" width="9" height="9"/>
				
					<rect x="123.68" y="427.78" transform="matrix(0.7071 -0.7071 0.7071 0.7071 -268.1268 217.2506)" style="fill:none;stroke:#000000;stroke-width:2;stroke-miterlimit:10;" width="9" height="9"/>
				
					<rect x="110.16" y="427.78" transform="matrix(0.7071 -0.7071 0.7071 0.7071 -272.0876 207.6884)" style="fill:none;stroke:#000000;stroke-width:2;stroke-miterlimit:10;" width="9" height="9"/>
				
					<rect x="137.2" y="427.78" transform="matrix(0.7071 -0.7071 0.7071 0.7071 -264.166 226.8128)" style="fill:none;stroke:#000000;stroke-width:2;stroke-miterlimit:10;" width="9" height="9"/>
				
					<rect x="123.68" y="414.26" transform="matrix(0.7071 -0.7071 0.7071 0.7071 -258.5646 213.2898)" style="fill:none;stroke:#000000;stroke-width:2;stroke-miterlimit:10;" width="9" height="9"/>
			</g>
			<g>
				
					<rect x="174.52" y="465.1" transform="matrix(-0.7071 -0.7071 0.7071 -0.7071 -26.4517 928.2376)" style="fill:none;stroke:#000000;stroke-width:2;stroke-miterlimit:10;" width="9" height="9"/>
				
					<rect x="161" y="465.1" transform="matrix(-0.7071 -0.7071 0.7071 -0.7071 -49.5369 918.6754)" style="fill:none;stroke:#000000;stroke-width:2;stroke-miterlimit:10;" width="9" height="9"/>
				
					<rect x="161" y="478.62" transform="matrix(-0.7071 -0.7071 0.7071 -0.7071 -59.0991 941.7606)" style="fill:none;stroke:#000000;stroke-width:2;stroke-miterlimit:10;" width="9" height="9"/>
				
					<rect x="161" y="451.57" transform="matrix(-0.7071 -0.7071 0.7071 -0.7071 -39.9747 895.5902)" style="fill:none;stroke:#000000;stroke-width:2;stroke-miterlimit:10;" width="9" height="9"/>
				
					<rect x="147.47" y="465.1" transform="matrix(-0.7071 -0.7071 0.7071 -0.7071 -72.6221 909.1132)" style="fill:none;stroke:#000000;stroke-width:2;stroke-miterlimit:10;" width="9" height="9"/>
			</g>
			<g>
				
					<rect x="198.31" y="414.26" transform="matrix(-0.7071 0.7071 -0.7071 -0.7071 642.3257 571.4599)" style="fill:none;stroke:#000000;stroke-width:2;stroke-miterlimit:10;" width="9" height="9"/>
				
					<rect x="198.31" y="427.78" transform="matrix(-0.7071 0.7071 -0.7071 -0.7071 651.8879 594.5451)" style="fill:none;stroke:#000000;stroke-width:2;stroke-miterlimit:10;" width="9" height="9"/>
				
					<rect x="211.83" y="427.78" transform="matrix(-0.7071 0.7071 -0.7071 -0.7071 674.9731 584.9829)" style="fill:none;stroke:#000000;stroke-width:2;stroke-miterlimit:10;" width="9" height="9"/>
				
					<rect x="184.79" y="427.78" transform="matrix(-0.7071 0.7071 -0.7071 -0.7071 628.8027 604.1073)" style="fill:none;stroke:#000000;stroke-width:2;stroke-miterlimit:10;" width="9" height="9"/>
				
					<rect x="198.31" y="441.31" transform="matrix(-0.7071 0.7071 -0.7071 -0.7071 661.4501 617.6303)" style="fill:none;stroke:#000000;stroke-width:2;stroke-miterlimit:10;" width="9" height="9"/>
			</g>
		</g>
		<g>
			
				<rect x="178.39" y="445.18" transform="matrix(-1 -1.224647e-16 1.224647e-16 -1 365.0497 898.6247)" style="fill:none;stroke:#000000;stroke-width:2;stroke-miterlimit:10;" width="8.26" height="8.26"/>
			
				<rect x="187.61" y="454.4" transform="matrix(-1 -1.224647e-16 1.224647e-16 -1 383.4921 917.0671)" style="fill:none;stroke:#000000;stroke-width:2;stroke-miterlimit:10;" width="8.26" height="8.26"/>
		</g>
		<g>
			
				<rect x="178.39" y="411.12" transform="matrix(-4.600783e-11 1 -1 -4.600783e-11 597.7784 232.7287)" style="fill:none;stroke:#000000;stroke-width:2;stroke-miterlimit:10;" width="8.26" height="8.26"/>
			
				<rect x="187.61" y="401.9" transform="matrix(-3.742269e-11 1 -1 -3.742269e-11 597.7784 214.2863)" style="fill:none;stroke:#000000;stroke-width:2;stroke-miterlimit:10;" width="8.26" height="8.26"/>
		</g>
		<g>
			
				<rect x="144.33" y="411.12" style="fill:none;stroke:#000000;stroke-width:2;stroke-miterlimit:10;" width="8.26" height="8.26"/>
			<rect x="135.11" y="401.9" style="fill:none;stroke:#000000;stroke-width:2;stroke-miterlimit:10;" width="8.26" height="8.26"/>
		</g>
		<g>
			
				<rect x="144.33" y="445.18" transform="matrix(1.342802e-10 -1 1 1.342802e-10 -300.8463 597.7784)" style="fill:none;stroke:#000000;stroke-width:2;stroke-miterlimit:10;" width="8.26" height="8.26"/>
			
				<rect x="135.11" y="454.4" transform="matrix(1.464971e-10 -1 1 1.464971e-10 -319.2887 597.7784)" style="fill:none;stroke:#000000;stroke-width:2;stroke-miterlimit:10;" width="8.26" height="8.26"/>
		</g>
	</g>
</g>
<g>
</g>
<g>
</g>
<g>
</g>
<g>
</g>
<g>
</g>
<g>
</g>
<g>
</g>
<g>
</g>
<g>
</g>
<g>
</g>
<g>
</g>
<g>
</g>
<g>
</g>
<g>
</g>
<g>
</g>
</svg>
