<?xml version="1.0" encoding="utf-8"?>
<!-- Generator: Adobe Illustrator 27.2.0, SVG Export Plug-In . SVG Version: 6.00 Build 0)  -->
<svg version="1.1" id="Layer_1" xmlns="http://www.w3.org/2000/svg" xmlns:xlink="http://www.w3.org/1999/xlink" x="0px" y="0px"
	 viewBox="0 0 800 600" style="enable-background:new 0 0 800 600;" xml:space="preserve">
<g>
	<g>
		<g>
			<circle style="fill:none;stroke:#000000;stroke-width:2;stroke-miterlimit:10;" cx="151.62" cy="421.71" r="8.65"/>
			<circle cx="151.62" cy="421.71" r="2.96"/>
			
				<rect x="135.38" y="405.48" transform="matrix(0.7071 -0.7071 0.7071 0.7071 -253.7872 230.7259)" style="fill:none;stroke:#000000;stroke-width:2;stroke-miterlimit:10;" width="32.46" height="32.46"/>
		</g>
		<g>
			<polygon points="171.55,408.18 164.06,409.27 165.15,401.78 			"/>
			<polygon points="175.84,403.89 168.35,404.98 169.44,397.48 			"/>
			<polygon points="180.14,399.6 172.64,400.69 173.73,393.19 			"/>
		</g>
		<g>
			<g>
				<polygon points="156.14,391.14 151.59,397.19 147.08,391.1 				"/>
				<polygon points="165.2,391.18 160.64,397.23 156.14,391.14 				"/>
				<polygon points="138.03,391.06 142.53,397.15 147.08,391.1 				"/>
			</g>
			<g>
				<polygon points="160.71,385.01 156.15,391.06 151.65,384.97 				"/>
				<polygon points="142.59,384.93 147.09,391.02 151.65,384.97 				"/>
			</g>
			<g>
				<polygon points="147.09,378.64 151.59,384.74 156.15,378.68 				"/>
			</g>
		</g>
		<g>
			<g>
				<polygon points="121.05,417.19 127.1,421.74 121.01,426.24 				"/>
				<polygon points="121.09,408.13 127.14,412.69 121.05,417.19 				"/>
				<polygon points="120.97,435.3 127.06,430.8 121.01,426.24 				"/>
			</g>
			<g>
				<polygon points="114.91,412.62 120.97,417.18 114.87,421.68 				"/>
				<polygon points="114.83,430.74 120.92,426.24 114.87,421.68 				"/>
			</g>
			<g>
				<polygon points="108.55,426.24 114.64,421.74 108.59,417.18 				"/>
			</g>
		</g>
		<g>
			<g>
				<polygon points="147.09,452.28 151.65,446.23 156.15,452.32 				"/>
				<polygon points="138.04,452.24 142.59,446.19 147.09,452.28 				"/>
				<polygon points="165.21,452.36 160.71,446.27 156.15,452.32 				"/>
			</g>
			<g>
				<polygon points="142.53,458.41 147.08,452.36 151.59,458.45 				"/>
				<polygon points="160.64,458.5 156.14,452.4 151.59,458.45 				"/>
			</g>
			<g>
				<polygon points="156.15,464.78 151.64,458.69 147.09,464.74 				"/>
			</g>
		</g>
		<g>
			<g>
				<polygon points="182.19,426.24 176.14,421.68 182.23,417.18 				"/>
				<polygon points="182.15,435.29 176.1,430.74 182.19,426.24 				"/>
				<polygon points="182.27,408.12 176.18,412.62 182.23,417.18 				"/>
			</g>
			<g>
				<polygon points="188.32,430.8 182.27,426.24 188.36,421.74 				"/>
				<polygon points="188.4,412.69 182.31,417.19 188.36,421.74 				"/>
			</g>
			<g>
				<polygon points="194.68,417.18 188.59,421.68 194.64,426.24 				"/>
			</g>
		</g>
		<g>
			<polygon points="138.09,401.78 139.18,409.27 131.68,408.18 			"/>
			<polygon points="133.79,397.48 134.89,404.98 127.39,403.89 			"/>
			<polygon points="129.5,393.19 130.59,400.69 123.1,399.6 			"/>
		</g>
		<g>
			<polygon points="131.68,435.24 139.18,434.15 138.09,441.64 			"/>
			<polygon points="127.39,439.53 134.89,438.44 133.79,445.94 			"/>
			<polygon points="123.1,443.83 130.59,442.74 129.5,450.23 			"/>
		</g>
		<g>
			<polygon points="165.15,441.64 164.06,434.15 171.55,435.24 			"/>
			<polygon points="169.44,445.94 168.35,438.44 175.84,439.53 			"/>
			<polygon points="173.73,450.23 172.64,442.74 180.14,443.83 			"/>
		</g>
	</g>
	<g>
		<polygon points="175.42,543.79 179.97,537.74 170.91,537.7 		"/>
		<polygon points="133.9,496.21 127.81,500.71 133.86,505.27 		"/>
		<polygon points="140.18,500.71 134.09,505.21 140.14,509.76 		"/>
		<polygon points="120.2,543.79 124.76,537.74 115.7,537.7 		"/>
		<polygon points="133.82,537.78 124.76,537.74 129.26,543.83 		"/>
		<polygon points="120.2,531.41 124.7,537.5 129.25,531.45 		"/>
		<polygon points="161.42,537.78 152.36,537.74 156.87,543.83 		"/>
		<polygon points="176.89,509.77 170.8,505.27 170.84,514.32 		"/>
		<polygon points="170.56,505.21 164.47,500.71 164.51,509.76 		"/>
		<polygon points="176.85,500.71 170.76,496.21 170.8,505.27 		"/>
		<polygon points="156.86,531.45 147.8,531.41 152.31,537.5 		"/>
		<polygon points="127.65,518.81 127.69,509.76 121.59,514.26 		"/>
		<polygon points="152.36,537.74 143.31,537.7 147.81,543.79 		"/>
		<polygon points="133.82,514.32 133.86,505.27 127.77,509.77 		"/>
		<path d="M100.07,505.23c0-1.63-1.32-2.96-2.96-2.96c0,0,0,0,0,0v5.92c0,0,0,0,0,0C98.75,508.19,100.07,506.87,100.07,505.23z"/>
		<polygon points="97.11,474.64 97.11,480.68 101.64,474.66 		"/>
		<polygon points="110.7,474.7 101.64,474.66 106.14,480.75 		"/>
		<path d="M106.76,505.23c0-5.32-4.33-9.65-9.65-9.65c0,0,0,0,0,0v2c0,0,0,0,0,0c4.22,0,7.65,3.43,7.65,7.65
			c0,4.22-3.43,7.65-7.65,7.65c0,0,0,0,0,0v2c0,0,0,0,0,0C102.44,514.88,106.76,510.55,106.76,505.23z"/>
		<polygon points="121.49,505.23 97.12,480.86 97.11,480.87 97.11,483.7 97.12,483.69 118.66,505.23 97.12,526.78 97.11,526.77 
			97.11,529.6 97.12,529.6 		"/>
		<polygon points="127.69,509.76 127.73,500.7 121.64,505.2 		"/>
		<polygon points="97.11,531.43 97.11,537.48 101.65,531.45 		"/>
		<polygon points="97.11,537.74 97.11,537.79 97.15,537.74 		"/>
		<polygon points="106.2,468.53 97.15,468.49 101.65,474.58 		"/>
		<polygon points="118.14,484.21 125.64,483.12 119.23,476.71 118.14,484.21 114.94,481.01 113.85,488.5 121.34,487.41 		"/>
		<polygon points="127.73,500.7 127.77,491.64 121.68,496.14 		"/>
		<polygon points="109.55,492.8 117.05,491.7 113.85,488.5 110.64,485.3 		"/>
		<polygon points="97.11,462.19 97.11,468.23 101.64,462.21 		"/>
		<polygon points="97.11,468.49 97.11,468.54 97.15,468.49 		"/>
		<polygon points="216.64,468.53 207.58,468.49 212.08,474.58 		"/>
		<polygon points="238.16,500.7 238.2,491.64 232.11,496.14 		"/>
		<polygon points="106.21,537.78 97.15,537.74 101.65,543.83 		"/>
		<polygon points="238.12,509.76 238.16,500.7 232.07,505.2 		"/>
		<polygon points="207.55,462.19 207.55,468.23 212.08,462.21 		"/>
		<polygon points="207.55,468.49 207.55,468.54 207.58,468.49 		"/>
		<polygon points="219.99,492.8 227.48,491.7 224.28,488.5 221.08,485.3 		"/>
		<polygon points="238.08,518.81 238.12,509.76 232.03,514.26 		"/>
		<polygon points="228.57,484.21 236.07,483.12 229.67,476.71 228.57,484.21 225.37,481.01 224.28,488.5 231.78,487.41 		"/>
		<polygon points="244.33,496.21 238.24,500.71 244.29,505.27 		"/>
		<polygon points="230.63,531.41 235.13,537.5 239.69,531.45 		"/>
		<polygon points="244.25,514.32 244.29,505.27 238.2,509.77 		"/>
		<polygon points="250.62,500.71 244.53,505.21 250.58,509.76 		"/>
		<polygon points="189.03,537.78 179.97,537.74 184.47,543.83 		"/>
		<polygon points="244.25,537.78 235.19,537.74 239.69,543.83 		"/>
		<polygon points="230.64,543.79 235.19,537.74 226.14,537.7 		"/>
		<polygon points="216.64,537.78 207.59,537.74 212.09,543.83 		"/>
		<polygon points="183.31,487.41 190.81,488.5 189.72,481.01 186.52,484.21 185.43,476.71 179.02,483.12 186.52,484.21 		"/>
		<polygon points="195.1,492.8 194.01,485.3 190.81,488.5 187.61,491.7 		"/>
		<polygon points="182.98,496.14 176.89,491.64 176.93,500.7 		"/>
		<polygon points="183.02,505.2 176.93,500.7 176.97,509.76 		"/>
		<polygon points="207.55,474.64 207.55,480.68 212.07,474.66 		"/>
		<polygon points="183.06,514.26 176.97,509.76 177.01,518.81 		"/>
		<polygon points="179.91,537.5 184.47,531.45 175.41,531.41 		"/>
		<polygon points="207.55,537.74 207.55,537.79 207.59,537.74 		"/>
		<polygon points="221.13,474.7 212.07,474.66 216.58,480.75 		"/>
		<path d="M217.2,505.23c0-5.32-4.33-9.65-9.65-9.65c0,0,0,0,0,0v2c0,0,0,0,0,0c4.22,0,7.65,3.43,7.65,7.65
			c0,4.22-3.43,7.65-7.65,7.65c0,0,0,0,0,0v2c0,0,0,0,0,0C212.87,514.88,217.2,510.55,217.2,505.23z"/>
		<path d="M210.51,505.23c0-1.63-1.32-2.96-2.96-2.96c0,0,0,0,0,0v5.92c0,0,0,0,0,0C209.18,508.19,210.51,506.87,210.51,505.23z"/>
		<polygon points="231.92,505.23 207.55,480.86 207.55,480.87 207.55,483.7 207.55,483.69 229.09,505.23 207.55,526.78 
			207.55,526.77 207.55,529.6 207.55,529.6 		"/>
		<polygon points="207.55,531.43 207.55,537.48 212.08,531.45 		"/>
		<path d="M87.46,505.23c0,5.32,4.33,9.65,9.65,9.65c0,0,0,0,0,0v-2c0,0,0,0,0,0c-4.22,0-7.65-3.43-7.65-7.65
			c0-4.22,3.43-7.65,7.65-7.65c0,0,0,0,0,0v-2c0,0,0,0,0,0C91.79,495.59,87.46,499.91,87.46,505.23z"/>
		<polygon points="188.96,550 193.52,543.95 184.46,543.91 		"/>
		<polygon points="179.91,549.96 184.46,543.91 175.41,543.87 		"/>
		<polygon points="207.55,549.93 207.55,543.89 203.01,543.91 		"/>
		<polygon points="170.85,549.92 175.41,543.87 166.35,543.83 		"/>
		<polygon points="203,543.83 207.5,537.74 198.45,537.78 		"/>
		<polygon points="198.51,550 203.01,543.91 193.95,543.95 		"/>
		<polygon points="207.55,537.79 207.55,537.74 207.5,537.74 		"/>
		<polygon points="124.69,549.96 129.25,543.91 120.19,543.87 		"/>
		<polygon points="115.64,549.92 120.19,543.87 111.14,543.83 		"/>
		<polygon points="207.55,537.48 207.55,531.43 203.01,531.45 		"/>
		<polygon points="133.75,550 138.31,543.95 129.25,543.91 		"/>
		<polygon points="143.24,549.92 147.8,543.87 138.74,543.83 		"/>
		<polygon points="152.3,549.96 156.86,543.91 147.8,543.87 		"/>
		<polygon points="161.36,550 165.91,543.95 156.86,543.91 		"/>
		<polygon points="207.55,480.68 207.55,474.64 203.02,474.66 		"/>
		<polygon points="207.55,549.93 212.08,543.91 207.55,543.89 		"/>
		<polygon points="207.55,468.23 207.55,462.19 203.01,462.21 		"/>
		<polygon points="244.19,550 248.74,543.95 239.69,543.91 		"/>
		<polygon points="216.58,550 221.14,543.95 212.08,543.91 		"/>
		<polygon points="235.13,549.96 239.69,543.91 230.63,543.87 		"/>
		<polygon points="253.23,543.85 249.18,543.83 253.23,549.32 		"/>
		<polygon points="226.07,549.92 230.63,543.87 221.57,543.83 		"/>
		<polygon points="97.11,549.93 101.64,543.91 97.11,543.89 		"/>
		<path d="M204.58,505.23c0,1.63,1.32,2.96,2.96,2.96c0,0,0,0,0,0v-5.92c0,0,0,0,0,0C205.91,502.27,204.58,503.6,204.58,505.23z"/>
		<polygon points="183.17,505.23 207.54,529.6 207.55,529.6 207.55,526.77 207.54,526.78 186,505.23 207.54,483.69 207.55,483.7 
			207.55,480.87 207.54,480.86 		"/>
		<path d="M197.89,505.23c0,5.32,4.33,9.65,9.65,9.65c0,0,0,0,0,0v-2c0,0,0,0,0,0c-4.22,0-7.65-3.43-7.65-7.65
			c0-4.22,3.43-7.65,7.65-7.65c0,0,0,0,0,0v-2c0,0,0,0,0,0C202.22,495.59,197.89,499.91,197.89,505.23z"/>
		<polygon points="203.01,474.58 207.51,468.49 198.45,468.53 		"/>
		<polygon points="198.52,480.75 203.02,474.66 193.96,474.7 		"/>
		<polygon points="207.55,468.54 207.55,468.49 207.51,468.49 		"/>
		<polygon points="78.53,550 83.09,543.95 74.03,543.91 		"/>
		<polygon points="64.98,543.79 69.54,537.74 60.48,537.7 		"/>
		<polygon points="66.41,500.71 60.32,496.21 60.36,505.27 		"/>
		<polygon points="106.15,550 110.7,543.95 101.64,543.91 		"/>
		<polygon points="66.45,509.77 60.36,505.27 60.4,514.32 		"/>
		<polygon points="84.67,492.8 83.58,485.3 80.37,488.5 77.17,491.7 		"/>
		<polygon points="50,548.75 50.92,550 55.48,543.95 50,543.92 		"/>
		<polygon points="50,537.77 50,539.09 50.99,537.78 		"/>
		<polygon points="72.63,514.26 66.53,509.76 66.58,518.81 		"/>
		<polygon points="72.55,496.14 66.45,491.64 66.49,500.7 		"/>
		<polygon points="78.59,537.78 69.54,537.74 74.04,543.83 		"/>
		<polygon points="72.88,487.41 80.37,488.5 79.28,481.01 76.08,484.21 74.99,476.71 68.59,483.12 76.08,484.21 		"/>
		<polygon points="72.59,505.2 66.49,500.7 66.53,509.76 		"/>
		<polygon points="69.48,537.5 74.03,531.45 64.98,531.41 		"/>
		<polygon points="69.47,549.96 74.03,543.91 64.97,543.87 		"/>
		<polygon points="60.13,505.21 54.04,500.71 54.08,509.76 		"/>
		<polygon points="88.08,480.75 92.58,474.66 83.52,474.7 		"/>
		<polygon points="60.42,549.92 64.97,543.87 55.91,543.83 		"/>
		<polygon points="97.11,468.54 97.11,468.49 97.07,468.49 		"/>
		<polygon points="72.74,505.23 97.11,529.6 97.11,529.6 97.11,526.77 97.11,526.78 75.56,505.23 97.11,483.69 97.11,483.7 
			97.11,480.87 97.11,480.86 		"/>
		<polygon points="92.57,474.58 97.07,468.49 88.02,468.53 		"/>
		<polygon points="97.11,468.23 97.11,462.19 92.58,462.21 		"/>
		<polygon points="97.11,480.68 97.11,474.64 92.58,474.66 		"/>
		<polygon points="88.08,550 92.58,543.91 83.52,543.95 		"/>
		<polygon points="97.11,537.79 97.11,537.74 97.07,537.74 		"/>
		<path d="M94.15,505.23c0,1.63,1.32,2.96,2.96,2.96c0,0,0,0,0,0v-5.92c0,0,0,0,0,0C95.47,502.27,94.15,503.6,94.15,505.23z"/>
		<polygon points="97.11,549.93 97.11,543.89 92.58,543.91 		"/>
		<polygon points="97.11,537.48 97.11,531.43 92.57,531.45 		"/>
		<polygon points="92.57,543.83 97.07,537.74 88.01,537.78 		"/>
	</g>
</g>
<g>
</g>
<g>
</g>
<g>
</g>
<g>
</g>
<g>
</g>
<g>
</g>
<g>
</g>
<g>
</g>
<g>
</g>
<g>
</g>
<g>
</g>
<g>
</g>
<g>
</g>
<g>
</g>
<g>
</g>
</svg>
