<?xml version="1.0" encoding="utf-8"?>
<!-- Generator: Adobe Illustrator 27.2.0, SVG Export Plug-In . SVG Version: 6.00 Build 0)  -->
<svg version="1.1" id="Layer_1" xmlns="http://www.w3.org/2000/svg" xmlns:xlink="http://www.w3.org/1999/xlink" x="0px" y="0px"
	 viewBox="0 0 800 600" style="enable-background:new 0 0 800 600;" xml:space="preserve">
<g>
	<g>
		
			<rect x="130.76" y="413.88" transform="matrix(0.7071 -0.7071 0.7071 0.7071 -261.077 229.8971)" style="fill:none;stroke:#000000;stroke-width:2.7;stroke-miterlimit:10;" width="32.43" height="32.43"/>
		
			<rect x="153.69" y="390.95" transform="matrix(0.7071 -0.7071 0.7071 0.7071 -238.1453 239.3958)" style="fill:none;stroke:#000000;stroke-width:2.7;stroke-miterlimit:10;" width="32.43" height="32.43"/>
		
			<rect x="153.69" y="436.81" transform="matrix(0.7071 -0.7071 0.7071 0.7071 -270.5757 252.8289)" style="fill:none;stroke:#000000;stroke-width:2.7;stroke-miterlimit:10;" width="32.43" height="32.43"/>
		
			<rect x="176.62" y="413.88" transform="matrix(0.7071 -0.7071 0.7071 0.7071 -247.6439 262.3275)" style="fill:none;stroke:#000000;stroke-width:2.7;stroke-miterlimit:10;" width="32.43" height="32.43"/>
		
			<rect x="137.09" y="420.21" transform="matrix(0.7071 -0.7071 0.7071 0.7071 -261.077 229.8971)" style="fill:none;stroke:#000000;stroke-width:2.7;stroke-miterlimit:10;" width="19.77" height="19.77"/>
		
			<rect x="160.02" y="397.28" transform="matrix(0.7071 -0.7071 0.7071 0.7071 -238.1453 239.3958)" style="fill:none;stroke:#000000;stroke-width:2.7;stroke-miterlimit:10;" width="19.77" height="19.77"/>
		
			<rect x="182.95" y="420.21" transform="matrix(0.7071 -0.7071 0.7071 0.7071 -247.6439 262.3275)" style="fill:none;stroke:#000000;stroke-width:2.7;stroke-miterlimit:10;" width="19.77" height="19.77"/>
		
			<rect x="160.02" y="443.14" transform="matrix(0.7071 -0.7071 0.7071 0.7071 -270.5757 252.8289)" style="fill:none;stroke:#000000;stroke-width:2.7;stroke-miterlimit:10;" width="19.77" height="19.77"/>
		
			<rect x="131.38" y="391.57" transform="matrix(0.7071 -0.7071 0.7071 0.7071 -254.3605 246.1123)" style="fill:none;stroke:#000000;stroke-width:1.8;stroke-miterlimit:10;" width="77.05" height="77.05"/>
		<g>
			<g>
				<polygon points="113.66,430.09 113.66,415.42 128.32,415.42 				"/>
				<polygon points="127.51,416.23 127.51,401.57 142.18,401.57 				"/>
				<polygon points="141.37,402.37 141.37,387.71 156.03,387.71 				"/>
				<polygon points="155.23,388.51 155.23,373.85 169.89,373.85 				"/>
			</g>
			<g>
				<polygon points="169.89,486.34 155.23,486.34 155.23,471.68 				"/>
				<polygon points="156.03,472.49 141.37,472.49 141.37,457.82 				"/>
				<polygon points="142.18,458.63 127.51,458.63 127.51,443.97 				"/>
				<polygon points="128.32,444.77 113.66,444.77 113.66,430.11 				"/>
			</g>
			<g>
				<polygon points="226.15,430.11 226.15,444.77 211.49,444.77 				"/>
				<polygon points="212.29,443.97 212.29,458.63 197.63,458.63 				"/>
				<polygon points="198.43,457.82 198.43,472.49 183.77,472.49 				"/>
				<polygon points="184.58,471.68 184.58,486.34 169.91,486.34 				"/>
			</g>
			<g>
				<polygon points="169.91,373.85 184.58,373.85 184.58,388.51 				"/>
				<polygon points="183.77,387.71 198.43,387.71 198.43,402.37 				"/>
				<polygon points="197.63,401.57 212.29,401.57 212.29,416.23 				"/>
				<polygon points="211.49,415.42 226.15,415.42 226.15,430.09 				"/>
			</g>
		</g>
		<g>
			<g>
				<polygon points="96.65,430.08 96.65,410.99 115.75,410.99 				"/>
				<polygon points="114.7,412.04 114.7,392.94 133.8,392.94 				"/>
				<polygon points="132.75,393.99 132.75,374.89 151.84,374.89 				"/>
				<polygon points="150.8,375.94 150.8,356.85 169.89,356.85 				"/>
			</g>
			<g>
				<polygon points="169.89,503.35 150.8,503.35 150.8,484.25 				"/>
				<polygon points="151.84,485.3 132.75,485.3 132.75,466.2 				"/>
				<polygon points="133.8,467.25 114.7,467.25 114.7,448.16 				"/>
				<polygon points="115.75,449.2 96.65,449.2 96.65,430.11 				"/>
			</g>
			<g>
				<polygon points="243.15,430.11 243.15,449.2 224.06,449.2 				"/>
				<polygon points="225.11,448.16 225.11,467.25 206.01,467.25 				"/>
				<polygon points="207.06,466.2 207.06,485.3 187.96,485.3 				"/>
				<polygon points="189.01,484.25 189.01,503.35 169.92,503.35 				"/>
			</g>
			<g>
				<polygon points="169.92,356.85 189.01,356.85 189.01,375.94 				"/>
				<polygon points="187.96,374.89 207.06,374.89 207.06,393.99 				"/>
				<polygon points="206.01,392.94 225.11,392.94 225.11,412.04 				"/>
				<polygon points="224.06,410.99 243.15,410.99 243.15,430.08 				"/>
			</g>
		</g>
		<g>
			<g>
				
					<line style="fill:none;stroke:#000000;stroke-width:2;stroke-miterlimit:10;" x1="205.33" y1="376.62" x2="215.06" y2="366.89"/>
				<circle cx="216.31" cy="365.64" r="2.63"/>
			</g>
			<g>
				
					<line style="fill:none;stroke:#000000;stroke-width:2;stroke-miterlimit:10;" x1="206.09" y1="375.55" x2="216.28" y2="375.55"/>
				<circle cx="218.04" cy="375.55" r="2.63"/>
			</g>
			<g>
				<line style="fill:none;stroke:#000000;stroke-width:2;stroke-miterlimit:10;" x1="206.4" y1="375.86" x2="206.4" y2="365.68"/>
				<circle cx="206.4" cy="363.91" r="2.63"/>
			</g>
		</g>
		<g>
			<g>
				
					<line style="fill:none;stroke:#000000;stroke-width:2;stroke-miterlimit:10;" x1="187.29" y1="358.58" x2="197.02" y2="348.85"/>
				<circle cx="198.27" cy="347.6" r="2.63"/>
			</g>
			<g>
				
					<line style="fill:none;stroke:#000000;stroke-width:2;stroke-miterlimit:10;" x1="188.05" y1="357.51" x2="198.23" y2="357.51"/>
				<circle cx="200" cy="357.51" r="2.63"/>
			</g>
			<g>
				
					<line style="fill:none;stroke:#000000;stroke-width:2;stroke-miterlimit:10;" x1="188.36" y1="357.82" x2="188.36" y2="347.64"/>
				<circle cx="188.36" cy="345.87" r="2.63"/>
			</g>
		</g>
		<g>
			
				<rect x="160.02" y="330.73" transform="matrix(0.7071 -0.7071 0.7071 0.7071 -191.0868 219.9035)" style="fill:none;stroke:#000000;stroke-width:2.7;stroke-miterlimit:10;" width="19.77" height="19.77"/>
			<g>
				<g>
					<line style="fill:none;stroke:#000000;stroke-width:2;stroke-miterlimit:10;" x1="169.9" y1="328.35" x2="169.9" y2="314.59"/>
					<circle cx="169.9" cy="312.82" r="2.63"/>
				</g>
				<g>
					
						<line style="fill:none;stroke:#000000;stroke-width:2;stroke-miterlimit:10;" x1="169.68" y1="327.06" x2="176.89" y2="319.86"/>
					<circle cx="178.14" cy="318.61" r="2.63"/>
				</g>
				<g>
					
						<line style="fill:none;stroke:#000000;stroke-width:2;stroke-miterlimit:10;" x1="170.12" y1="327.06" x2="162.92" y2="319.86"/>
					<circle cx="161.67" cy="318.61" r="2.63"/>
				</g>
			</g>
		</g>
		<g>
			
				<rect x="70.54" y="420.21" transform="matrix(-0.7071 -0.7071 0.7071 -0.7071 -166.8366 791.0869)" style="fill:none;stroke:#000000;stroke-width:2.7;stroke-miterlimit:10;" width="19.77" height="19.77"/>
			<g>
				<g>
					<line style="fill:none;stroke:#000000;stroke-width:2;stroke-miterlimit:10;" x1="68.16" y1="430.1" x2="54.4" y2="430.1"/>
					<circle cx="52.63" cy="430.1" r="2.63"/>
				</g>
				<g>
					<line style="fill:none;stroke:#000000;stroke-width:2;stroke-miterlimit:10;" x1="66.87" y1="430.32" x2="59.67" y2="423.11"/>
					<circle cx="58.42" cy="421.86" r="2.63"/>
				</g>
				<g>
					<line style="fill:none;stroke:#000000;stroke-width:2;stroke-miterlimit:10;" x1="66.87" y1="429.88" x2="59.67" y2="437.08"/>
					<circle cx="58.42" cy="438.33" r="2.63"/>
				</g>
			</g>
		</g>
		<g>
			
				<rect x="160.02" y="509.69" transform="matrix(-0.7071 0.7071 -0.7071 -0.7071 657.4413 766.8365)" style="fill:none;stroke:#000000;stroke-width:2.7;stroke-miterlimit:10;" width="19.77" height="19.77"/>
			<g>
				<g>
					<line style="fill:none;stroke:#000000;stroke-width:2;stroke-miterlimit:10;" x1="169.9" y1="531.84" x2="169.9" y2="545.6"/>
					<circle cx="169.9" cy="547.37" r="2.63"/>
				</g>
				<g>
					
						<line style="fill:none;stroke:#000000;stroke-width:2;stroke-miterlimit:10;" x1="170.12" y1="533.13" x2="162.92" y2="540.33"/>
					<circle cx="161.67" cy="541.58" r="2.63"/>
				</g>
				<g>
					
						<line style="fill:none;stroke:#000000;stroke-width:2;stroke-miterlimit:10;" x1="169.68" y1="533.13" x2="176.89" y2="540.33"/>
					<circle cx="178.14" cy="541.58" r="2.63"/>
				</g>
			</g>
		</g>
		<g>
			
				<rect x="249.5" y="420.21" transform="matrix(0.7071 0.7071 -0.7071 0.7071 380.0965 -57.4413)" style="fill:none;stroke:#000000;stroke-width:2.7;stroke-miterlimit:10;" width="19.77" height="19.77"/>
			<g>
				<g>
					<line style="fill:none;stroke:#000000;stroke-width:2;stroke-miterlimit:10;" x1="271.65" y1="430.1" x2="285.41" y2="430.1"/>
					<circle cx="287.18" cy="430.1" r="2.63"/>
				</g>
				<g>
					
						<line style="fill:none;stroke:#000000;stroke-width:2;stroke-miterlimit:10;" x1="272.94" y1="429.88" x2="280.14" y2="437.08"/>
					<circle cx="281.39" cy="438.33" r="2.63"/>
				</g>
				<g>
					
						<line style="fill:none;stroke:#000000;stroke-width:2;stroke-miterlimit:10;" x1="272.94" y1="430.32" x2="280.14" y2="423.11"/>
					<circle cx="281.39" cy="421.86" r="2.63"/>
				</g>
			</g>
		</g>
		<g>
			<g>
				
					<line style="fill:none;stroke:#000000;stroke-width:2;stroke-miterlimit:10;" x1="223.33" y1="394.62" x2="233.06" y2="384.89"/>
				<circle cx="234.31" cy="383.64" r="2.63"/>
			</g>
			<g>
				
					<line style="fill:none;stroke:#000000;stroke-width:2;stroke-miterlimit:10;" x1="224.09" y1="393.55" x2="234.27" y2="393.55"/>
				<circle cx="236.04" cy="393.55" r="2.63"/>
			</g>
			<g>
				<line style="fill:none;stroke:#000000;stroke-width:2;stroke-miterlimit:10;" x1="224.4" y1="393.86" x2="224.4" y2="383.67"/>
				<circle cx="224.4" cy="381.91" r="2.63"/>
			</g>
		</g>
		<g>
			<g>
				
					<line style="fill:none;stroke:#000000;stroke-width:2;stroke-miterlimit:10;" x1="241.33" y1="412.62" x2="251.06" y2="402.88"/>
				<circle cx="252.31" cy="401.63" r="2.63"/>
			</g>
			<g>
				
					<line style="fill:none;stroke:#000000;stroke-width:2;stroke-miterlimit:10;" x1="242.08" y1="411.55" x2="252.27" y2="411.55"/>
				<circle cx="254.04" cy="411.55" r="2.63"/>
			</g>
			<g>
				
					<line style="fill:none;stroke:#000000;stroke-width:2;stroke-miterlimit:10;" x1="242.39" y1="411.86" x2="242.39" y2="401.67"/>
				<circle cx="242.39" cy="399.9" r="2.63"/>
			</g>
		</g>
		<g>
			<g>
				<g>
					
						<line style="fill:none;stroke:#000000;stroke-width:2;stroke-miterlimit:10;" x1="116.43" y1="394.67" x2="106.7" y2="384.94"/>
					<circle cx="105.45" cy="383.69" r="2.63"/>
				</g>
				<g>
					
						<line style="fill:none;stroke:#000000;stroke-width:2;stroke-miterlimit:10;" x1="115.36" y1="393.91" x2="115.36" y2="383.72"/>
					<circle cx="115.36" cy="381.96" r="2.63"/>
				</g>
				<g>
					<line style="fill:none;stroke:#000000;stroke-width:2;stroke-miterlimit:10;" x1="115.67" y1="393.6" x2="105.48" y2="393.6"/>
					<circle cx="103.72" cy="393.6" r="2.63"/>
				</g>
			</g>
			<g>
				<g>
					<line style="fill:none;stroke:#000000;stroke-width:2;stroke-miterlimit:10;" x1="98.39" y1="412.71" x2="88.65" y2="402.98"/>
					<circle cx="87.41" cy="401.73" r="2.63"/>
				</g>
				<g>
					<line style="fill:none;stroke:#000000;stroke-width:2;stroke-miterlimit:10;" x1="97.32" y1="411.95" x2="97.32" y2="401.77"/>
					<circle cx="97.32" cy="400" r="2.63"/>
				</g>
				<g>
					<line style="fill:none;stroke:#000000;stroke-width:2;stroke-miterlimit:10;" x1="97.63" y1="411.64" x2="87.44" y2="411.64"/>
					<circle cx="85.68" cy="411.64" r="2.63"/>
				</g>
			</g>
			<g>
				<g>
					
						<line style="fill:none;stroke:#000000;stroke-width:2;stroke-miterlimit:10;" x1="134.43" y1="376.67" x2="124.69" y2="366.94"/>
					<circle cx="123.44" cy="365.69" r="2.63"/>
				</g>
				<g>
					
						<line style="fill:none;stroke:#000000;stroke-width:2;stroke-miterlimit:10;" x1="133.36" y1="375.91" x2="133.36" y2="365.73"/>
					<circle cx="133.36" cy="363.96" r="2.63"/>
				</g>
				<g>
					<line style="fill:none;stroke:#000000;stroke-width:2;stroke-miterlimit:10;" x1="133.67" y1="375.6" x2="123.48" y2="375.6"/>
					<circle cx="121.71" cy="375.6" r="2.63"/>
				</g>
			</g>
			<g>
				<g>
					
						<line style="fill:none;stroke:#000000;stroke-width:2;stroke-miterlimit:10;" x1="152.42" y1="358.67" x2="142.69" y2="348.94"/>
					<circle cx="141.44" cy="347.69" r="2.63"/>
				</g>
				<g>
					
						<line style="fill:none;stroke:#000000;stroke-width:2;stroke-miterlimit:10;" x1="151.35" y1="357.92" x2="151.35" y2="347.73"/>
					<circle cx="151.35" cy="345.96" r="2.63"/>
				</g>
				<g>
					
						<line style="fill:none;stroke:#000000;stroke-width:2;stroke-miterlimit:10;" x1="151.67" y1="357.61" x2="141.48" y2="357.61"/>
					<circle cx="139.71" cy="357.61" r="2.63"/>
				</g>
			</g>
		</g>
		<g>
			<g>
				<g>
					
						<line style="fill:none;stroke:#000000;stroke-width:2;stroke-miterlimit:10;" x1="134.48" y1="483.57" x2="124.74" y2="493.3"/>
					<circle cx="123.49" cy="494.55" r="2.63"/>
				</g>
				<g>
					
						<line style="fill:none;stroke:#000000;stroke-width:2;stroke-miterlimit:10;" x1="133.72" y1="484.64" x2="123.53" y2="484.64"/>
					<circle cx="121.77" cy="484.64" r="2.63"/>
				</g>
				<g>
					
						<line style="fill:none;stroke:#000000;stroke-width:2;stroke-miterlimit:10;" x1="133.41" y1="484.33" x2="133.41" y2="494.52"/>
					<circle cx="133.41" cy="496.28" r="2.63"/>
				</g>
			</g>
			<g>
				<g>
					
						<line style="fill:none;stroke:#000000;stroke-width:2;stroke-miterlimit:10;" x1="152.52" y1="501.61" x2="142.79" y2="511.35"/>
					<circle cx="141.54" cy="512.59" r="2.63"/>
				</g>
				<g>
					
						<line style="fill:none;stroke:#000000;stroke-width:2;stroke-miterlimit:10;" x1="151.76" y1="502.68" x2="141.57" y2="502.68"/>
					<circle cx="139.81" cy="502.68" r="2.63"/>
				</g>
				<g>
					
						<line style="fill:none;stroke:#000000;stroke-width:2;stroke-miterlimit:10;" x1="151.45" y1="502.37" x2="151.45" y2="512.56"/>
					<circle cx="151.45" cy="514.32" r="2.63"/>
				</g>
			</g>
			<g>
				<g>
					
						<line style="fill:none;stroke:#000000;stroke-width:2;stroke-miterlimit:10;" x1="116.48" y1="465.57" x2="106.75" y2="475.31"/>
					<circle cx="105.5" cy="476.56" r="2.63"/>
				</g>
				<g>
					
						<line style="fill:none;stroke:#000000;stroke-width:2;stroke-miterlimit:10;" x1="115.72" y1="466.64" x2="105.53" y2="466.64"/>
					<circle cx="103.77" cy="466.64" r="2.63"/>
				</g>
				<g>
					
						<line style="fill:none;stroke:#000000;stroke-width:2;stroke-miterlimit:10;" x1="115.41" y1="466.33" x2="115.41" y2="476.52"/>
					<circle cx="115.41" cy="478.29" r="2.63"/>
				</g>
			</g>
			<g>
				<g>
					<line style="fill:none;stroke:#000000;stroke-width:2;stroke-miterlimit:10;" x1="98.48" y1="447.58" x2="88.75" y2="457.31"/>
					<circle cx="87.5" cy="458.56" r="2.63"/>
				</g>
				<g>
					<line style="fill:none;stroke:#000000;stroke-width:2;stroke-miterlimit:10;" x1="97.72" y1="448.65" x2="87.54" y2="448.65"/>
					<circle cx="85.77" cy="448.65" r="2.63"/>
				</g>
				<g>
					<line style="fill:none;stroke:#000000;stroke-width:2;stroke-miterlimit:10;" x1="97.41" y1="448.33" x2="97.41" y2="458.52"/>
					<circle cx="97.41" cy="460.29" r="2.63"/>
				</g>
			</g>
		</g>
		<g>
			<g>
				<g>
					
						<line style="fill:none;stroke:#000000;stroke-width:2;stroke-miterlimit:10;" x1="223.38" y1="465.52" x2="233.11" y2="475.26"/>
					<circle cx="234.36" cy="476.51" r="2.63"/>
				</g>
				<g>
					
						<line style="fill:none;stroke:#000000;stroke-width:2;stroke-miterlimit:10;" x1="224.45" y1="466.28" x2="224.45" y2="476.47"/>
					<circle cx="224.45" cy="478.23" r="2.63"/>
				</g>
				<g>
					
						<line style="fill:none;stroke:#000000;stroke-width:2;stroke-miterlimit:10;" x1="224.14" y1="466.59" x2="234.32" y2="466.59"/>
					<circle cx="236.09" cy="466.59" r="2.63"/>
				</g>
			</g>
			<g>
				<g>
					
						<line style="fill:none;stroke:#000000;stroke-width:2;stroke-miterlimit:10;" x1="241.42" y1="447.48" x2="251.15" y2="457.21"/>
					<circle cx="252.4" cy="458.46" r="2.63"/>
				</g>
				<g>
					
						<line style="fill:none;stroke:#000000;stroke-width:2;stroke-miterlimit:10;" x1="242.49" y1="448.24" x2="242.49" y2="458.43"/>
					<circle cx="242.49" cy="460.19" r="2.63"/>
				</g>
				<g>
					
						<line style="fill:none;stroke:#000000;stroke-width:2;stroke-miterlimit:10;" x1="242.18" y1="448.55" x2="252.36" y2="448.55"/>
					<circle cx="254.13" cy="448.55" r="2.63"/>
				</g>
			</g>
			<g>
				<g>
					
						<line style="fill:none;stroke:#000000;stroke-width:2;stroke-miterlimit:10;" x1="205.38" y1="483.52" x2="215.11" y2="493.25"/>
					<circle cx="216.36" cy="494.5" r="2.63"/>
				</g>
				<g>
					
						<line style="fill:none;stroke:#000000;stroke-width:2;stroke-miterlimit:10;" x1="206.45" y1="484.28" x2="206.45" y2="494.47"/>
					<circle cx="206.45" cy="496.23" r="2.63"/>
				</g>
				<g>
					
						<line style="fill:none;stroke:#000000;stroke-width:2;stroke-miterlimit:10;" x1="206.14" y1="484.59" x2="216.33" y2="484.59"/>
					<circle cx="218.09" cy="484.59" r="2.63"/>
				</g>
			</g>
			<g>
				<g>
					
						<line style="fill:none;stroke:#000000;stroke-width:2;stroke-miterlimit:10;" x1="187.38" y1="501.52" x2="197.12" y2="511.25"/>
					<circle cx="198.37" cy="512.5" r="2.63"/>
				</g>
				<g>
					
						<line style="fill:none;stroke:#000000;stroke-width:2;stroke-miterlimit:10;" x1="188.45" y1="502.28" x2="188.45" y2="512.46"/>
					<circle cx="188.45" cy="514.23" r="2.63"/>
				</g>
				<g>
					
						<line style="fill:none;stroke:#000000;stroke-width:2;stroke-miterlimit:10;" x1="188.14" y1="502.59" x2="198.33" y2="502.59"/>
					<circle cx="200.1" cy="502.59" r="2.63"/>
				</g>
			</g>
		</g>
	</g>
</g>
<g>
</g>
<g>
</g>
<g>
</g>
<g>
</g>
<g>
</g>
<g>
</g>
<g>
</g>
<g>
</g>
<g>
</g>
<g>
</g>
<g>
</g>
<g>
</g>
<g>
</g>
<g>
</g>
<g>
</g>
</svg>
