<?xml version="1.0" encoding="utf-8"?>
<!-- Generator: Adobe Illustrator 27.2.0, SVG Export Plug-In . SVG Version: 6.00 Build 0)  -->
<svg version="1.1" id="Layer_1" xmlns="http://www.w3.org/2000/svg" xmlns:xlink="http://www.w3.org/1999/xlink" x="0px" y="0px"
	 viewBox="0 0 800 600" style="enable-background:new 0 0 800 600;" xml:space="preserve">
<g>
	<g>
		<g>
			<polygon points="139.99,478.66 121.36,460.03 102.73,478.66 99.9,478.66 121.36,457.2 142.82,478.66 			"/>
			<polygon points="139.99,478.66 121.36,497.29 102.73,478.66 99.9,478.66 121.36,500.12 142.82,478.66 			"/>
		</g>
		<polygon points="109.57,459.76 110.57,467.87 102.46,466.87 		"/>
		<polygon points="102.46,490.43 110.57,489.43 109.57,497.54 		"/>
		<polygon points="133.12,497.54 132.13,489.43 140.24,490.43 		"/>
		<polygon points="140.24,466.87 132.13,467.87 133.12,459.76 		"/>
		<g>
			<g>
				<polygon points="78.05,460.03 59.42,478.66 78.05,497.29 78.05,500.12 56.59,478.66 78.05,457.21 				"/>
				<polygon points="78.05,460.03 96.68,478.66 78.05,497.29 78.05,500.12 99.51,478.66 78.05,457.21 				"/>
			</g>
			<polygon points="59.15,490.45 67.26,489.45 66.27,497.56 			"/>
			<polygon points="66.27,459.79 67.26,467.9 59.15,466.9 			"/>
			<polygon points="50,473.64 56.44,478.66 50,483.69 			"/>
			<polygon points="73.02,450.61 78.05,457.05 83.08,450.61 			"/>
			<polygon points="73.02,506.72 78.05,500.28 83.08,506.72 			"/>
		</g>
		<g>
			<g>
				<polygon points="102.73,521.95 121.36,540.58 139.99,521.95 142.82,521.95 121.36,543.41 99.9,521.95 				"/>
				<polygon points="102.73,521.95 121.36,503.32 139.99,521.95 142.82,521.95 121.36,500.49 99.9,521.95 				"/>
			</g>
			<polygon points="133.15,540.85 132.15,532.74 140.26,533.73 			"/>
			<polygon points="102.48,533.73 110.59,532.74 109.6,540.85 			"/>
			<polygon points="116.33,550 121.36,543.56 126.39,550 			"/>
			<polygon points="93.31,526.98 99.75,521.95 93.31,516.92 			"/>
			<polygon points="149.41,526.98 142.97,521.95 149.41,516.92 			"/>
		</g>
		<g>
			<g>
				<polygon points="164.65,497.27 183.28,478.64 164.65,460.01 164.65,457.18 186.1,478.64 164.65,500.1 				"/>
				<polygon points="164.65,497.27 146.02,478.64 164.65,460.01 164.65,457.18 143.19,478.64 164.65,500.1 				"/>
			</g>
			<polygon points="183.54,466.85 175.43,467.85 176.43,459.74 			"/>
			<polygon points="176.43,497.52 175.43,489.41 183.54,490.4 			"/>
			<polygon points="192.7,483.67 186.26,478.64 192.7,473.61 			"/>
			<polygon points="169.68,506.69 164.65,500.25 159.62,506.69 			"/>
			<polygon points="169.68,450.59 164.65,457.03 159.62,450.59 			"/>
		</g>
		<g>
			<g>
				<polygon points="139.97,435.35 121.34,416.72 102.71,435.35 99.88,435.35 121.34,413.9 142.79,435.35 				"/>
				<polygon points="139.97,435.35 121.34,453.98 102.71,435.35 99.88,435.35 121.34,456.81 142.79,435.35 				"/>
			</g>
			<polygon points="109.55,416.46 110.55,424.57 102.44,423.57 			"/>
			<polygon points="140.21,423.57 132.1,424.57 133.1,416.46 			"/>
			<polygon points="126.36,407.3 121.34,413.74 116.31,407.3 			"/>
			<polygon points="149.39,430.32 142.95,435.35 149.39,440.38 			"/>
			<polygon points="93.28,430.32 99.72,435.35 93.28,440.38 			"/>
		</g>
	</g>
</g>
<g>
</g>
<g>
</g>
<g>
</g>
<g>
</g>
<g>
</g>
<g>
</g>
<g>
</g>
<g>
</g>
<g>
</g>
<g>
</g>
<g>
</g>
<g>
</g>
<g>
</g>
<g>
</g>
<g>
</g>
</svg>
