<?xml version="1.0" encoding="utf-8"?>
<!-- Generator: Adobe Illustrator 27.2.0, SVG Export Plug-In . SVG Version: 6.00 Build 0)  -->
<svg version="1.1" id="Layer_1" xmlns="http://www.w3.org/2000/svg" xmlns:xlink="http://www.w3.org/1999/xlink" x="0px" y="0px"
	 viewBox="0 0 800 600" style="enable-background:new 0 0 800 600;" xml:space="preserve">
<g>
	<g>
		<g>
			<g>
				
					<rect x="138.11" y="486.76" transform="matrix(0.7071 0.7071 -0.7071 0.7071 400.265 38.4412)" style="fill:none;stroke:#000000;stroke-width:2;stroke-miterlimit:10;" width="31.25" height="31.25"/>
				<circle style="fill:none;stroke:#000000;stroke-width:2;stroke-miterlimit:10;" cx="153.73" cy="502.38" r="10.67"/>
			</g>
			<g>
				
					<rect x="159.75" y="463.64" transform="matrix(0.7071 -0.7071 0.7071 0.7071 -287.1518 265.3999)" style="fill:none;stroke:#000000;stroke-width:2;stroke-miterlimit:10;" width="34.08" height="31.37"/>
				<rect x="171.3" y="463.05" transform="matrix(0.7071 0.7071 -0.7071 0.7071 390.6961 15.3399)" width="11.07" height="32.46"/>
				<g>
					
						<rect x="189.47" y="459.37" transform="matrix(-1.836970e-16 1 -1 -1.836970e-16 656.113 269.9057)" width="7.27" height="7.27"/>
					
						<rect x="196.66" y="455.5" transform="matrix(-1.836970e-16 1 -1 -1.836970e-16 656.113 258.8385)" width="3.96" height="3.96"/>
				</g>
			</g>
			<g>
				
					<rect x="113.63" y="463.64" transform="matrix(-0.7071 -0.7071 0.7071 -0.7071 -115.8656 910.6526)" style="fill:none;stroke:#000000;stroke-width:2;stroke-miterlimit:10;" width="34.08" height="31.37"/>
				<rect x="125.6" y="463.05" transform="matrix(0.7071 -0.7071 0.7071 0.7071 -300.4952 233.104)" width="11.07" height="32.46"/>
				<g>
					<rect x="110.72" y="459.37" width="7.27" height="7.27"/>
					<rect x="106.84" y="455.5" width="3.96" height="3.96"/>
				</g>
			</g>
			<g>
				
					<rect x="113.63" y="509.76" transform="matrix(-0.7071 0.7071 -0.7071 -0.7071 594.6115 804.5907)" style="fill:none;stroke:#000000;stroke-width:2;stroke-miterlimit:10;" width="34.08" height="31.37"/>
				
					<rect x="124.96" y="509.39" transform="matrix(-0.7071 -0.7071 0.7071 -0.7071 -148.9055 989.5625)" width="11.07" height="32.46"/>
				<g>
					
						<rect x="110.72" y="538.12" transform="matrix(9.065732e-11 -1 1 9.065732e-11 -427.4009 656.113)" width="7.27" height="7.27"/>
					
						<rect x="106.84" y="545.31" transform="matrix(9.097707e-11 -1 1 9.097707e-11 -438.4681 656.113)" width="3.96" height="3.96"/>
				</g>
			</g>
			<g>
				
					<rect x="159.75" y="509.76" transform="matrix(0.7071 0.7071 -0.7071 0.7071 423.3252 28.8893)" style="fill:none;stroke:#000000;stroke-width:2;stroke-miterlimit:10;" width="34.08" height="31.37"/>
				
					<rect x="171.41" y="508.7" transform="matrix(0.7071 -0.7071 0.7071 0.7071 -319.4707 278.9147)" width="11.07" height="32.78"/>
				<g>
					
						<rect x="189.47" y="538.12" transform="matrix(-1 -1.375488e-10 1.375488e-10 -1 386.2073 1083.5139)" width="7.27" height="7.27"/>
					
						<rect x="196.66" y="545.31" transform="matrix(-1 -1.369248e-10 1.369248e-10 -1 397.2745 1094.5811)" width="3.96" height="3.96"/>
				</g>
			</g>
		</g>
		<g>
			<rect x="247.79" y="498.3" transform="matrix(0.7071 0.7071 -0.7071 0.7071 429.012 -30.9602)" width="8.17" height="8.17"/>
			<g>
				<rect x="231.67" y="483.13" transform="matrix(0.7071 0.7071 -0.7071 0.7071 413.0369 -23.782)" width="7.12" height="7.12"/>
				<rect x="241.59" y="483.73" transform="matrix(0.7071 0.7071 -0.7071 0.7071 415.7665 -30.3719)" width="5.91" height="5.91"/>
				<rect x="249.84" y="484.13" transform="matrix(0.7071 0.7071 -0.7071 0.7071 418.0678 -35.9277)" width="5.12" height="5.12"/>
			</g>
			<g>
				<rect x="231.67" y="514.52" transform="matrix(0.7071 -0.7071 0.7071 0.7071 -297.4402 318.0712)" width="7.12" height="7.12"/>
				<rect x="241.59" y="515.12" transform="matrix(0.7071 -0.7071 0.7071 0.7071 -294.7105 324.6611)" width="5.91" height="5.91"/>
				<rect x="249.84" y="515.52" transform="matrix(0.7071 -0.7071 0.7071 0.7071 -292.4092 330.2169)" width="5.12" height="5.12"/>
			</g>
		</g>
		<g>
			<rect x="149.65" y="398.84" transform="matrix(0.7071 -0.7071 0.7071 0.7071 -239.8812 226.716)" width="8.17" height="8.17"/>
			<g>
				<rect x="134.47" y="416.01" transform="matrix(0.7071 -0.7071 0.7071 0.7071 -256.2531 220.4957)" width="7.12" height="7.12"/>
				<rect x="135.08" y="407.3" transform="matrix(0.7071 -0.7071 0.7071 0.7071 -249.6632 217.7661)" width="5.91" height="5.91"/>
				<rect x="135.47" y="399.84" transform="matrix(0.7071 -0.7071 0.7071 0.7071 -244.1073 215.4648)" width="5.12" height="5.12"/>
			</g>
			<g>
				<rect x="165.86" y="416.01" transform="matrix(-0.7071 -0.7071 0.7071 -0.7071 -7.4572 836.0563)" width="7.12" height="7.12"/>
				<rect x="166.47" y="407.3" transform="matrix(-0.7071 -0.7071 0.7071 -0.7071 -0.8674 820.147)" width="5.91" height="5.91"/>
				<rect x="166.86" y="399.84" transform="matrix(-0.7071 -0.7071 0.7071 -0.7071 4.6885 806.734)" width="5.12" height="5.12"/>
			</g>
		</g>
		<rect x="51.69" y="498.3" transform="matrix(-0.7071 0.7071 -0.7071 -0.7071 450.4519 818.183)" width="8.17" height="8.17"/>
		<g>
			<rect x="68.87" y="483.13" transform="matrix(-0.7071 0.7071 -0.7071 -0.7071 467.7816 779.6158)" width="7.12" height="7.12"/>
			<rect x="60.15" y="483.73" transform="matrix(-0.7071 0.7071 -0.7071 -0.7071 451.8723 786.2057)" width="5.91" height="5.91"/>
			<rect x="52.69" y="484.13" transform="matrix(-0.7071 0.7071 -0.7071 -0.7071 438.4593 791.7615)" width="5.12" height="5.12"/>
		</g>
		<g>
			<rect x="68.87" y="514.52" transform="matrix(-0.7071 -0.7071 0.7071 -0.7071 -242.6954 935.6275)" width="7.12" height="7.12"/>
			<rect x="60.15" y="515.12" transform="matrix(-0.7071 -0.7071 0.7071 -0.7071 -258.6048 929.0377)" width="5.91" height="5.91"/>
			<rect x="52.69" y="515.52" transform="matrix(-0.7071 -0.7071 0.7071 -0.7071 -272.0178 923.4818)" width="5.12" height="5.12"/>
		</g>
		<g>
			
				<rect x="69.8" y="486.24" transform="matrix(-0.7071 -0.7071 0.7071 -0.7071 -208.5262 918.3919)" style="fill:none;stroke:#000000;stroke-width:2;stroke-miterlimit:10;" width="32.29" height="32.29"/>
			<polygon points="83.84,481.65 104.41,502.23 84.03,522.6 80.54,519.11 97.34,502.31 80.61,485.58 			"/>
			<rect x="64.45" y="498.96" transform="matrix(0.7071 -0.7071 0.7071 0.7071 -335.2885 195.1384)" width="6.91" height="6.67"/>
			<g>
				<polyline style="fill:none;stroke:#000000;stroke-width:2;stroke-miterlimit:10;" points="77.46,488.03 91.72,502.29 
					77.69,516.32 				"/>
				<polyline style="fill:none;stroke:#000000;stroke-width:2;stroke-miterlimit:10;" points="73.24,492.25 83.39,502.39 
					73.25,512.53 				"/>
				<g>
					<line style="fill:none;stroke:#000000;stroke-miterlimit:10;" x1="79.02" y1="490.4" x2="75.21" y2="494.21"/>
					<line style="fill:none;stroke:#000000;stroke-miterlimit:10;" x1="80.36" y1="491.73" x2="76.54" y2="495.55"/>
					<line style="fill:none;stroke:#000000;stroke-miterlimit:10;" x1="81.69" y1="493.07" x2="77.88" y2="496.88"/>
					<line style="fill:none;stroke:#000000;stroke-miterlimit:10;" x1="83.02" y1="494.4" x2="79.21" y2="498.21"/>
					<line style="fill:none;stroke:#000000;stroke-miterlimit:10;" x1="84.36" y1="495.73" x2="80.54" y2="499.55"/>
					<line style="fill:none;stroke:#000000;stroke-miterlimit:10;" x1="85.69" y1="497.07" x2="81.88" y2="500.88"/>
					<line style="fill:none;stroke:#000000;stroke-miterlimit:10;" x1="87.02" y1="498.4" x2="83.21" y2="502.21"/>
					<g>
						<polygon points="85.08,502.3 88,499.38 88.71,500.09 86.5,502.3 						"/>
						<polygon points="87.75,502.3 89.34,500.71 90.04,501.42 89.17,502.3 						"/>
					</g>
				</g>
				<g>
					<line style="fill:none;stroke:#000000;stroke-miterlimit:10;" x1="79.02" y1="514.2" x2="75.21" y2="510.38"/>
					<line style="fill:none;stroke:#000000;stroke-miterlimit:10;" x1="80.36" y1="512.86" x2="76.54" y2="509.05"/>
					<line style="fill:none;stroke:#000000;stroke-miterlimit:10;" x1="81.69" y1="511.53" x2="77.88" y2="507.72"/>
					<line style="fill:none;stroke:#000000;stroke-miterlimit:10;" x1="83.02" y1="510.2" x2="79.21" y2="506.38"/>
					<line style="fill:none;stroke:#000000;stroke-miterlimit:10;" x1="84.36" y1="508.86" x2="80.54" y2="505.05"/>
					<line style="fill:none;stroke:#000000;stroke-miterlimit:10;" x1="85.69" y1="507.53" x2="81.88" y2="503.72"/>
					<line style="fill:none;stroke:#000000;stroke-miterlimit:10;" x1="87.02" y1="506.2" x2="83.21" y2="502.38"/>
					<g>
						<polygon points="85.08,502.3 88,505.22 88.71,504.51 86.5,502.3 						"/>
						<polygon points="87.75,502.3 89.34,503.88 90.04,503.18 89.17,502.3 						"/>
					</g>
				</g>
				<line style="fill:none;stroke:#000000;stroke-miterlimit:10;" x1="77.71" y1="489.57" x2="74.64" y2="492.64"/>
				<line style="fill:none;stroke:#000000;stroke-miterlimit:10;" x1="77.74" y1="515.31" x2="74.65" y2="512.22"/>
			</g>
			<g>
				<polyline style="fill:none;stroke:#000000;stroke-width:2;stroke-miterlimit:10;" points="107.72,478.36 86.62,457.27 
					86.62,480.15 109.09,502.62 131.82,502.62 				"/>
				<polyline style="fill:none;stroke:#000000;stroke-width:2;stroke-miterlimit:10;" points="107.72,526.4 86.62,547.5 
					86.62,524.62 109.09,502.15 131.82,502.15 				"/>
				<g>
					<line style="fill:none;stroke:#000000;stroke-miterlimit:10;" x1="87.02" y1="463.53" x2="89.95" y2="460.6"/>
					<line style="fill:none;stroke:#000000;stroke-miterlimit:10;" x1="86.79" y1="467.46" x2="91.85" y2="462.4"/>
					<line style="fill:none;stroke:#000000;stroke-miterlimit:10;" x1="87.08" y1="470.58" x2="93.56" y2="464.11"/>
					<line style="fill:none;stroke:#000000;stroke-miterlimit:10;" x1="86.97" y1="474.11" x2="95.26" y2="465.81"/>
					<line style="fill:none;stroke:#000000;stroke-miterlimit:10;" x1="87.21" y1="477.28" x2="96.97" y2="467.52"/>
					<line style="fill:none;stroke:#000000;stroke-miterlimit:10;" x1="87.69" y1="480.22" x2="98.68" y2="469.23"/>
					<line style="fill:none;stroke:#000000;stroke-miterlimit:10;" x1="89.59" y1="481.73" x2="100.38" y2="470.93"/>
					<line style="fill:none;stroke:#000000;stroke-miterlimit:10;" x1="90.87" y1="483.87" x2="102.09" y2="472.64"/>
					<line style="fill:none;stroke:#000000;stroke-miterlimit:10;" x1="92.97" y1="485.18" x2="103.8" y2="474.35"/>
					<line style="fill:none;stroke:#000000;stroke-miterlimit:10;" x1="94.44" y1="487.12" x2="105.51" y2="476.06"/>
					<line style="fill:none;stroke:#000000;stroke-miterlimit:10;" x1="96.37" y1="488.61" x2="107.21" y2="477.76"/>
					<line style="fill:none;stroke:#000000;stroke-miterlimit:10;" x1="98.14" y1="490.25" x2="108.92" y2="479.47"/>
					<line style="fill:none;stroke:#000000;stroke-miterlimit:10;" x1="99.74" y1="492.07" x2="110.63" y2="481.18"/>
					<line style="fill:none;stroke:#000000;stroke-miterlimit:10;" x1="101.47" y1="493.75" x2="112.33" y2="482.88"/>
					<line style="fill:none;stroke:#000000;stroke-miterlimit:10;" x1="103.11" y1="495.52" x2="114.04" y2="484.59"/>
					<line style="fill:none;stroke:#000000;stroke-miterlimit:10;" x1="104.7" y1="497.35" x2="115.75" y2="486.3"/>
					<line style="fill:none;stroke:#000000;stroke-miterlimit:10;" x1="106.4" y1="499.06" x2="117.46" y2="488.01"/>
					<line style="fill:none;stroke:#000000;stroke-miterlimit:10;" x1="108.3" y1="500.58" x2="119.16" y2="489.71"/>
					<line style="fill:none;stroke:#000000;stroke-miterlimit:10;" x1="110.78" y1="501.51" x2="120.87" y2="491.42"/>
					<line style="fill:none;stroke:#000000;stroke-miterlimit:10;" x1="114.04" y1="501.66" x2="122.58" y2="493.13"/>
					<line style="fill:none;stroke:#000000;stroke-miterlimit:10;" x1="116.81" y1="502.31" x2="124.28" y2="494.83"/>
					<line style="fill:none;stroke:#000000;stroke-miterlimit:10;" x1="120.93" y1="501.6" x2="125.99" y2="496.54"/>
					<line style="fill:none;stroke:#000000;stroke-miterlimit:10;" x1="124.04" y1="501.91" x2="127.7" y2="498.25"/>
				</g>
				<g>
					<line style="fill:none;stroke:#000000;stroke-miterlimit:10;" x1="87.02" y1="541.08" x2="89.95" y2="544.01"/>
					<line style="fill:none;stroke:#000000;stroke-miterlimit:10;" x1="86.79" y1="537.16" x2="91.85" y2="542.21"/>
					<line style="fill:none;stroke:#000000;stroke-miterlimit:10;" x1="87.08" y1="534.03" x2="93.56" y2="540.5"/>
					<line style="fill:none;stroke:#000000;stroke-miterlimit:10;" x1="86.97" y1="530.5" x2="95.26" y2="538.8"/>
					<line style="fill:none;stroke:#000000;stroke-miterlimit:10;" x1="87.21" y1="527.33" x2="96.97" y2="537.09"/>
					<line style="fill:none;stroke:#000000;stroke-miterlimit:10;" x1="87.69" y1="524.39" x2="98.68" y2="535.38"/>
					<line style="fill:none;stroke:#000000;stroke-miterlimit:10;" x1="89.59" y1="522.88" x2="100.38" y2="533.68"/>
					<line style="fill:none;stroke:#000000;stroke-miterlimit:10;" x1="90.87" y1="520.74" x2="102.09" y2="531.97"/>
					<line style="fill:none;stroke:#000000;stroke-miterlimit:10;" x1="92.97" y1="519.43" x2="103.8" y2="530.26"/>
					<line style="fill:none;stroke:#000000;stroke-miterlimit:10;" x1="94.44" y1="517.49" x2="105.51" y2="528.55"/>
					<line style="fill:none;stroke:#000000;stroke-miterlimit:10;" x1="96.37" y1="516" x2="107.21" y2="526.85"/>
					<line style="fill:none;stroke:#000000;stroke-miterlimit:10;" x1="98.14" y1="514.37" x2="108.92" y2="525.14"/>
					<line style="fill:none;stroke:#000000;stroke-miterlimit:10;" x1="99.74" y1="512.54" x2="110.63" y2="523.43"/>
					<line style="fill:none;stroke:#000000;stroke-miterlimit:10;" x1="101.47" y1="510.86" x2="112.33" y2="521.73"/>
					<line style="fill:none;stroke:#000000;stroke-miterlimit:10;" x1="103.11" y1="509.09" x2="114.04" y2="520.02"/>
					<line style="fill:none;stroke:#000000;stroke-miterlimit:10;" x1="104.7" y1="507.26" x2="115.75" y2="518.31"/>
					<line style="fill:none;stroke:#000000;stroke-miterlimit:10;" x1="106.4" y1="505.55" x2="117.46" y2="516.6"/>
					<line style="fill:none;stroke:#000000;stroke-miterlimit:10;" x1="108.3" y1="504.03" x2="119.16" y2="514.9"/>
					<line style="fill:none;stroke:#000000;stroke-miterlimit:10;" x1="110.78" y1="503.11" x2="120.87" y2="513.19"/>
					<line style="fill:none;stroke:#000000;stroke-miterlimit:10;" x1="114.04" y1="502.95" x2="122.58" y2="511.48"/>
					<line style="fill:none;stroke:#000000;stroke-miterlimit:10;" x1="116.81" y1="502.31" x2="124.28" y2="509.78"/>
					<line style="fill:none;stroke:#000000;stroke-miterlimit:10;" x1="120.93" y1="503.01" x2="125.99" y2="508.07"/>
					<line style="fill:none;stroke:#000000;stroke-miterlimit:10;" x1="124.04" y1="502.7" x2="127.7" y2="506.36"/>
				</g>
			</g>
		</g>
		<g>
			
				<rect x="205.37" y="486.24" transform="matrix(0.7071 -0.7071 0.7071 0.7071 -290.3575 303.7812)" style="fill:none;stroke:#000000;stroke-width:2;stroke-miterlimit:10;" width="32.29" height="32.29"/>
			<polygon points="223.62,481.65 203.05,502.23 223.43,522.6 226.92,519.11 210.12,502.31 226.85,485.58 			"/>
			<rect x="236.22" y="498.84" transform="matrix(0.7071 -0.7071 0.7071 0.7071 -285.0156 316.5079)" width="6.67" height="6.91"/>
			<g>
				<polyline style="fill:none;stroke:#000000;stroke-width:2;stroke-miterlimit:10;" points="230,488.03 215.74,502.29 
					229.77,516.32 				"/>
				<polyline style="fill:none;stroke:#000000;stroke-width:2;stroke-miterlimit:10;" points="234.22,492.25 224.07,502.39 
					234.21,512.53 				"/>
				<g>
					<line style="fill:none;stroke:#000000;stroke-miterlimit:10;" x1="228.44" y1="490.4" x2="232.25" y2="494.21"/>
					<line style="fill:none;stroke:#000000;stroke-miterlimit:10;" x1="227.1" y1="491.73" x2="230.92" y2="495.55"/>
					<line style="fill:none;stroke:#000000;stroke-miterlimit:10;" x1="225.77" y1="493.07" x2="229.58" y2="496.88"/>
					<line style="fill:none;stroke:#000000;stroke-miterlimit:10;" x1="224.44" y1="494.4" x2="228.25" y2="498.21"/>
					<line style="fill:none;stroke:#000000;stroke-miterlimit:10;" x1="223.1" y1="495.73" x2="226.92" y2="499.55"/>
					<line style="fill:none;stroke:#000000;stroke-miterlimit:10;" x1="221.77" y1="497.07" x2="225.58" y2="500.88"/>
					<line style="fill:none;stroke:#000000;stroke-miterlimit:10;" x1="220.44" y1="498.4" x2="224.25" y2="502.21"/>
					<g>
						<polygon points="222.38,502.3 219.46,499.38 218.75,500.09 220.96,502.3 						"/>
						<polygon points="219.71,502.3 218.12,500.71 217.42,501.42 218.29,502.3 						"/>
					</g>
				</g>
				<g>
					<line style="fill:none;stroke:#000000;stroke-miterlimit:10;" x1="228.44" y1="514.2" x2="232.25" y2="510.38"/>
					<line style="fill:none;stroke:#000000;stroke-miterlimit:10;" x1="227.1" y1="512.86" x2="230.92" y2="509.05"/>
					<line style="fill:none;stroke:#000000;stroke-miterlimit:10;" x1="225.77" y1="511.53" x2="229.58" y2="507.72"/>
					<line style="fill:none;stroke:#000000;stroke-miterlimit:10;" x1="224.44" y1="510.2" x2="228.25" y2="506.38"/>
					<line style="fill:none;stroke:#000000;stroke-miterlimit:10;" x1="223.1" y1="508.86" x2="226.92" y2="505.05"/>
					<line style="fill:none;stroke:#000000;stroke-miterlimit:10;" x1="221.77" y1="507.53" x2="225.58" y2="503.72"/>
					<line style="fill:none;stroke:#000000;stroke-miterlimit:10;" x1="220.44" y1="506.2" x2="224.25" y2="502.38"/>
					<g>
						<polygon points="222.38,502.3 219.46,505.22 218.75,504.51 220.96,502.3 						"/>
						<polygon points="219.71,502.3 218.12,503.88 217.42,503.18 218.29,502.3 						"/>
					</g>
				</g>
				<line style="fill:none;stroke:#000000;stroke-miterlimit:10;" x1="229.75" y1="489.57" x2="232.82" y2="492.64"/>
				<line style="fill:none;stroke:#000000;stroke-miterlimit:10;" x1="229.72" y1="515.31" x2="232.81" y2="512.22"/>
			</g>
			<g>
				<polyline style="fill:none;stroke:#000000;stroke-width:2;stroke-miterlimit:10;" points="199.74,478.36 220.84,457.27 
					220.84,480.15 198.37,502.62 175.64,502.62 				"/>
				<polyline style="fill:none;stroke:#000000;stroke-width:2;stroke-miterlimit:10;" points="199.74,526.4 220.84,547.5 
					220.84,524.62 198.37,502.15 175.64,502.15 				"/>
				<g>
					<line style="fill:none;stroke:#000000;stroke-miterlimit:10;" x1="220.44" y1="463.53" x2="217.51" y2="460.6"/>
					<line style="fill:none;stroke:#000000;stroke-miterlimit:10;" x1="220.67" y1="467.46" x2="215.61" y2="462.4"/>
					<line style="fill:none;stroke:#000000;stroke-miterlimit:10;" x1="220.38" y1="470.58" x2="213.9" y2="464.11"/>
					<line style="fill:none;stroke:#000000;stroke-miterlimit:10;" x1="220.49" y1="474.11" x2="212.2" y2="465.81"/>
					<line style="fill:none;stroke:#000000;stroke-miterlimit:10;" x1="220.25" y1="477.28" x2="210.49" y2="467.52"/>
					<line style="fill:none;stroke:#000000;stroke-miterlimit:10;" x1="219.77" y1="480.22" x2="208.78" y2="469.23"/>
					<line style="fill:none;stroke:#000000;stroke-miterlimit:10;" x1="217.87" y1="481.73" x2="207.08" y2="470.93"/>
					<line style="fill:none;stroke:#000000;stroke-miterlimit:10;" x1="216.59" y1="483.87" x2="205.37" y2="472.64"/>
					<line style="fill:none;stroke:#000000;stroke-miterlimit:10;" x1="214.49" y1="485.18" x2="203.66" y2="474.35"/>
					<line style="fill:none;stroke:#000000;stroke-miterlimit:10;" x1="213.02" y1="487.12" x2="201.95" y2="476.06"/>
					<line style="fill:none;stroke:#000000;stroke-miterlimit:10;" x1="211.09" y1="488.61" x2="200.25" y2="477.76"/>
					<line style="fill:none;stroke:#000000;stroke-miterlimit:10;" x1="209.32" y1="490.25" x2="198.54" y2="479.47"/>
					<line style="fill:none;stroke:#000000;stroke-miterlimit:10;" x1="207.72" y1="492.07" x2="196.83" y2="481.18"/>
					<line style="fill:none;stroke:#000000;stroke-miterlimit:10;" x1="205.99" y1="493.75" x2="195.13" y2="482.88"/>
					<line style="fill:none;stroke:#000000;stroke-miterlimit:10;" x1="204.35" y1="495.52" x2="193.42" y2="484.59"/>
					<line style="fill:none;stroke:#000000;stroke-miterlimit:10;" x1="202.76" y1="497.35" x2="191.71" y2="486.3"/>
					<line style="fill:none;stroke:#000000;stroke-miterlimit:10;" x1="201.06" y1="499.06" x2="190" y2="488.01"/>
					<line style="fill:none;stroke:#000000;stroke-miterlimit:10;" x1="199.16" y1="500.58" x2="188.3" y2="489.71"/>
					<line style="fill:none;stroke:#000000;stroke-miterlimit:10;" x1="196.68" y1="501.51" x2="186.59" y2="491.42"/>
					<line style="fill:none;stroke:#000000;stroke-miterlimit:10;" x1="193.42" y1="501.66" x2="184.88" y2="493.13"/>
					<line style="fill:none;stroke:#000000;stroke-miterlimit:10;" x1="190.65" y1="502.31" x2="183.18" y2="494.83"/>
					<line style="fill:none;stroke:#000000;stroke-miterlimit:10;" x1="186.52" y1="501.6" x2="181.47" y2="496.54"/>
					<line style="fill:none;stroke:#000000;stroke-miterlimit:10;" x1="183.42" y1="501.91" x2="179.76" y2="498.25"/>
				</g>
				<g>
					<line style="fill:none;stroke:#000000;stroke-miterlimit:10;" x1="220.44" y1="541.08" x2="217.51" y2="544.01"/>
					<line style="fill:none;stroke:#000000;stroke-miterlimit:10;" x1="220.67" y1="537.16" x2="215.61" y2="542.21"/>
					<line style="fill:none;stroke:#000000;stroke-miterlimit:10;" x1="220.38" y1="534.03" x2="213.9" y2="540.5"/>
					<line style="fill:none;stroke:#000000;stroke-miterlimit:10;" x1="220.49" y1="530.5" x2="212.2" y2="538.8"/>
					<line style="fill:none;stroke:#000000;stroke-miterlimit:10;" x1="220.25" y1="527.33" x2="210.49" y2="537.09"/>
					<line style="fill:none;stroke:#000000;stroke-miterlimit:10;" x1="219.77" y1="524.39" x2="208.78" y2="535.38"/>
					<line style="fill:none;stroke:#000000;stroke-miterlimit:10;" x1="217.87" y1="522.88" x2="207.08" y2="533.68"/>
					<line style="fill:none;stroke:#000000;stroke-miterlimit:10;" x1="216.59" y1="520.74" x2="205.37" y2="531.97"/>
					<line style="fill:none;stroke:#000000;stroke-miterlimit:10;" x1="214.49" y1="519.43" x2="203.66" y2="530.26"/>
					<line style="fill:none;stroke:#000000;stroke-miterlimit:10;" x1="213.02" y1="517.49" x2="201.95" y2="528.55"/>
					<line style="fill:none;stroke:#000000;stroke-miterlimit:10;" x1="211.09" y1="516" x2="200.25" y2="526.85"/>
					<line style="fill:none;stroke:#000000;stroke-miterlimit:10;" x1="209.32" y1="514.37" x2="198.54" y2="525.14"/>
					<line style="fill:none;stroke:#000000;stroke-miterlimit:10;" x1="207.72" y1="512.54" x2="196.83" y2="523.43"/>
					<line style="fill:none;stroke:#000000;stroke-miterlimit:10;" x1="205.99" y1="510.86" x2="195.13" y2="521.73"/>
					<line style="fill:none;stroke:#000000;stroke-miterlimit:10;" x1="204.35" y1="509.09" x2="193.42" y2="520.02"/>
					<line style="fill:none;stroke:#000000;stroke-miterlimit:10;" x1="202.76" y1="507.26" x2="191.71" y2="518.31"/>
					<line style="fill:none;stroke:#000000;stroke-miterlimit:10;" x1="201.06" y1="505.55" x2="190" y2="516.6"/>
					<line style="fill:none;stroke:#000000;stroke-miterlimit:10;" x1="199.16" y1="504.03" x2="188.3" y2="514.9"/>
					<line style="fill:none;stroke:#000000;stroke-miterlimit:10;" x1="196.68" y1="503.11" x2="186.59" y2="513.19"/>
					<line style="fill:none;stroke:#000000;stroke-miterlimit:10;" x1="193.42" y1="502.95" x2="184.88" y2="511.48"/>
					<line style="fill:none;stroke:#000000;stroke-miterlimit:10;" x1="190.65" y1="502.31" x2="183.18" y2="509.78"/>
					<line style="fill:none;stroke:#000000;stroke-miterlimit:10;" x1="186.52" y1="503.01" x2="181.47" y2="508.07"/>
					<line style="fill:none;stroke:#000000;stroke-miterlimit:10;" x1="183.42" y1="502.7" x2="179.76" y2="506.36"/>
				</g>
			</g>
		</g>
		<g>
			
				<rect x="137.58" y="417.56" transform="matrix(0.7071 -0.7071 0.7071 0.7071 -261.6537 235.7344)" style="fill:none;stroke:#000000;stroke-width:2;stroke-miterlimit:10;" width="32.29" height="32.29"/>
			<polygon points="174.46,431.61 153.89,452.18 133.51,431.8 137,428.31 153.8,445.11 170.53,428.38 			"/>
			<rect x="150.48" y="412.22" transform="matrix(0.7071 -0.7071 0.7071 0.7071 -248.8772 230.5126)" width="6.67" height="6.91"/>
			<g>
				<polyline style="fill:none;stroke:#000000;stroke-width:2;stroke-miterlimit:10;" points="168.08,425.23 153.83,439.49 
					139.8,425.46 				"/>
				<polyline style="fill:none;stroke:#000000;stroke-width:2;stroke-miterlimit:10;" points="163.87,421.01 153.72,431.16 
					143.59,421.02 				"/>
				<g>
					<line style="fill:none;stroke:#000000;stroke-miterlimit:10;" x1="165.71" y1="426.79" x2="161.9" y2="422.98"/>
					<line style="fill:none;stroke:#000000;stroke-miterlimit:10;" x1="164.38" y1="428.12" x2="160.57" y2="424.31"/>
					<line style="fill:none;stroke:#000000;stroke-miterlimit:10;" x1="163.05" y1="429.46" x2="159.23" y2="425.65"/>
					<line style="fill:none;stroke:#000000;stroke-miterlimit:10;" x1="161.71" y1="430.79" x2="157.9" y2="426.98"/>
					<line style="fill:none;stroke:#000000;stroke-miterlimit:10;" x1="160.38" y1="432.12" x2="156.57" y2="428.31"/>
					<line style="fill:none;stroke:#000000;stroke-miterlimit:10;" x1="159.05" y1="433.46" x2="155.23" y2="429.65"/>
					<line style="fill:none;stroke:#000000;stroke-miterlimit:10;" x1="157.71" y1="434.79" x2="153.9" y2="430.98"/>
					<g>
						<polygon points="153.81,432.85 156.73,435.77 156.03,436.48 153.81,434.27 						"/>
						<polygon points="153.81,435.52 155.4,437.1 154.69,437.81 153.81,436.93 						"/>
					</g>
				</g>
				<g>
					<line style="fill:none;stroke:#000000;stroke-miterlimit:10;" x1="141.92" y1="426.79" x2="145.73" y2="422.98"/>
					<line style="fill:none;stroke:#000000;stroke-miterlimit:10;" x1="143.25" y1="428.12" x2="147.06" y2="424.31"/>
					<line style="fill:none;stroke:#000000;stroke-miterlimit:10;" x1="144.58" y1="429.46" x2="148.4" y2="425.65"/>
					<line style="fill:none;stroke:#000000;stroke-miterlimit:10;" x1="145.92" y1="430.79" x2="149.73" y2="426.98"/>
					<line style="fill:none;stroke:#000000;stroke-miterlimit:10;" x1="147.25" y1="432.12" x2="151.06" y2="428.31"/>
					<line style="fill:none;stroke:#000000;stroke-miterlimit:10;" x1="148.58" y1="433.46" x2="152.4" y2="429.65"/>
					<line style="fill:none;stroke:#000000;stroke-miterlimit:10;" x1="149.92" y1="434.79" x2="153.73" y2="430.98"/>
					<g>
						<polygon points="153.81,432.85 150.9,435.77 151.6,436.48 153.81,434.27 						"/>
						<polygon points="153.81,435.52 152.23,437.1 152.94,437.81 153.81,436.93 						"/>
					</g>
				</g>
				<line style="fill:none;stroke:#000000;stroke-miterlimit:10;" x1="166.55" y1="425.48" x2="163.47" y2="422.41"/>
				<line style="fill:none;stroke:#000000;stroke-miterlimit:10;" x1="140.81" y1="425.51" x2="143.89" y2="422.42"/>
			</g>
			<g>
				<polyline style="fill:none;stroke:#000000;stroke-width:2;stroke-miterlimit:10;" points="153.5,479.74 198.84,434.39 
					175.96,434.39 153.5,456.86 153.5,479.59 				"/>
				<polyline style="fill:none;stroke:#000000;stroke-width:2;stroke-miterlimit:10;" points="154.44,480.22 108.62,434.39 
					131.5,434.39 153.96,456.86 153.96,479.59 				"/>
				<g>
					<line style="fill:none;stroke:#000000;stroke-miterlimit:10;" x1="192.58" y1="434.79" x2="195.52" y2="437.72"/>
					<line style="fill:none;stroke:#000000;stroke-miterlimit:10;" x1="188.66" y1="434.56" x2="193.71" y2="439.62"/>
					<line style="fill:none;stroke:#000000;stroke-miterlimit:10;" x1="185.53" y1="434.85" x2="192.01" y2="441.32"/>
					<line style="fill:none;stroke:#000000;stroke-miterlimit:10;" x1="182" y1="434.74" x2="190.3" y2="443.03"/>
					<line style="fill:none;stroke:#000000;stroke-miterlimit:10;" x1="178.83" y1="434.98" x2="188.59" y2="444.74"/>
					<line style="fill:none;stroke:#000000;stroke-miterlimit:10;" x1="175.9" y1="435.46" x2="186.89" y2="446.45"/>
					<line style="fill:none;stroke:#000000;stroke-miterlimit:10;" x1="174.38" y1="437.36" x2="185.18" y2="448.15"/>
					<line style="fill:none;stroke:#000000;stroke-miterlimit:10;" x1="172.25" y1="438.63" x2="183.47" y2="449.86"/>
					<line style="fill:none;stroke:#000000;stroke-miterlimit:10;" x1="170.93" y1="440.73" x2="181.76" y2="451.57"/>
					<line style="fill:none;stroke:#000000;stroke-miterlimit:10;" x1="168.99" y1="442.21" x2="180.06" y2="453.27"/>
					<line style="fill:none;stroke:#000000;stroke-miterlimit:10;" x1="167.5" y1="444.14" x2="178.35" y2="454.98"/>
					<line style="fill:none;stroke:#000000;stroke-miterlimit:10;" x1="165.87" y1="445.91" x2="176.64" y2="456.69"/>
					<line style="fill:none;stroke:#000000;stroke-miterlimit:10;" x1="164.05" y1="447.51" x2="174.94" y2="458.4"/>
					<line style="fill:none;stroke:#000000;stroke-miterlimit:10;" x1="162.36" y1="449.24" x2="173.23" y2="460.1"/>
					<line style="fill:none;stroke:#000000;stroke-miterlimit:10;" x1="160.59" y1="450.88" x2="171.52" y2="461.81"/>
					<line style="fill:none;stroke:#000000;stroke-miterlimit:10;" x1="158.76" y1="452.47" x2="169.81" y2="463.52"/>
					<line style="fill:none;stroke:#000000;stroke-miterlimit:10;" x1="157.06" y1="454.17" x2="168.11" y2="465.22"/>
					<line style="fill:none;stroke:#000000;stroke-miterlimit:10;" x1="155.54" y1="456.07" x2="166.4" y2="466.93"/>
					<line style="fill:none;stroke:#000000;stroke-miterlimit:10;" x1="154.61" y1="458.55" x2="164.69" y2="468.64"/>
					<line style="fill:none;stroke:#000000;stroke-miterlimit:10;" x1="154.45" y1="461.81" x2="162.99" y2="470.35"/>
					<line style="fill:none;stroke:#000000;stroke-miterlimit:10;" x1="153.81" y1="464.58" x2="161.28" y2="472.05"/>
					<line style="fill:none;stroke:#000000;stroke-miterlimit:10;" x1="154.51" y1="468.7" x2="159.57" y2="473.76"/>
					<line style="fill:none;stroke:#000000;stroke-miterlimit:10;" x1="154.21" y1="471.81" x2="157.86" y2="475.47"/>
				</g>
				<g>
					<line style="fill:none;stroke:#000000;stroke-miterlimit:10;" x1="115.03" y1="434.79" x2="112.1" y2="437.72"/>
					<line style="fill:none;stroke:#000000;stroke-miterlimit:10;" x1="118.96" y1="434.56" x2="113.9" y2="439.62"/>
					<line style="fill:none;stroke:#000000;stroke-miterlimit:10;" x1="122.08" y1="434.85" x2="115.61" y2="441.32"/>
					<line style="fill:none;stroke:#000000;stroke-miterlimit:10;" x1="125.61" y1="434.74" x2="117.32" y2="443.03"/>
					<line style="fill:none;stroke:#000000;stroke-miterlimit:10;" x1="128.78" y1="434.98" x2="119.02" y2="444.74"/>
					<line style="fill:none;stroke:#000000;stroke-miterlimit:10;" x1="131.72" y1="435.46" x2="120.73" y2="446.45"/>
					<line style="fill:none;stroke:#000000;stroke-miterlimit:10;" x1="133.23" y1="437.36" x2="122.44" y2="448.15"/>
					<line style="fill:none;stroke:#000000;stroke-miterlimit:10;" x1="135.37" y1="438.63" x2="124.14" y2="449.86"/>
					<line style="fill:none;stroke:#000000;stroke-miterlimit:10;" x1="136.68" y1="440.73" x2="125.85" y2="451.57"/>
					<line style="fill:none;stroke:#000000;stroke-miterlimit:10;" x1="138.62" y1="442.21" x2="127.56" y2="453.27"/>
					<line style="fill:none;stroke:#000000;stroke-miterlimit:10;" x1="140.11" y1="444.14" x2="129.27" y2="454.98"/>
					<line style="fill:none;stroke:#000000;stroke-miterlimit:10;" x1="141.75" y1="445.91" x2="130.97" y2="456.69"/>
					<line style="fill:none;stroke:#000000;stroke-miterlimit:10;" x1="143.57" y1="447.51" x2="132.68" y2="458.4"/>
					<line style="fill:none;stroke:#000000;stroke-miterlimit:10;" x1="145.25" y1="449.24" x2="134.39" y2="460.1"/>
					<line style="fill:none;stroke:#000000;stroke-miterlimit:10;" x1="147.02" y1="450.88" x2="136.09" y2="461.81"/>
					<line style="fill:none;stroke:#000000;stroke-miterlimit:10;" x1="148.85" y1="452.47" x2="137.8" y2="463.52"/>
					<line style="fill:none;stroke:#000000;stroke-miterlimit:10;" x1="150.56" y1="454.17" x2="139.51" y2="465.22"/>
					<line style="fill:none;stroke:#000000;stroke-miterlimit:10;" x1="152.08" y1="456.07" x2="141.22" y2="466.93"/>
					<line style="fill:none;stroke:#000000;stroke-miterlimit:10;" x1="153.01" y1="458.55" x2="142.92" y2="468.64"/>
					<line style="fill:none;stroke:#000000;stroke-miterlimit:10;" x1="153.17" y1="461.81" x2="144.63" y2="470.35"/>
					<line style="fill:none;stroke:#000000;stroke-miterlimit:10;" x1="153.81" y1="464.58" x2="146.34" y2="472.05"/>
					<line style="fill:none;stroke:#000000;stroke-miterlimit:10;" x1="153.1" y1="468.7" x2="148.04" y2="473.76"/>
					<line style="fill:none;stroke:#000000;stroke-miterlimit:10;" x1="153.41" y1="471.81" x2="149.75" y2="475.47"/>
				</g>
			</g>
		</g>
	</g>
</g>
<g>
</g>
<g>
</g>
<g>
</g>
<g>
</g>
<g>
</g>
<g>
</g>
<g>
</g>
<g>
</g>
<g>
</g>
<g>
</g>
<g>
</g>
<g>
</g>
<g>
</g>
<g>
</g>
<g>
</g>
</svg>
