<?xml version="1.0" encoding="utf-8"?>
<!-- Generator: Adobe Illustrator 27.2.0, SVG Export Plug-In . SVG Version: 6.00 Build 0)  -->
<svg version="1.1" id="Layer_1" xmlns="http://www.w3.org/2000/svg" xmlns:xlink="http://www.w3.org/1999/xlink" x="0px" y="0px"
	 viewBox="0 0 800 600" style="enable-background:new 0 0 800 600;" xml:space="preserve">
<g>
	<g>
		<g>
			
				<rect x="216.7" y="313.97" style="fill:none;stroke:#000000;stroke-width:3;stroke-miterlimit:10;" width="69.33" height="69.33"/>
			<g>
				<rect x="237.89" y="300.8" width="5.39" height="5.39"/>
				<rect x="259.45" y="300.8" width="5.39" height="5.39"/>
				<rect x="254.06" y="295.41" width="5.39" height="5.39"/>
				<polygon points="293.83,306.19 297.18,302.84 297.18,300.8 291.79,300.8 291.79,306.19 				"/>
				<rect x="286.4" y="295.41" width="5.39" height="5.39"/>
				<polygon points="205.55,302.84 208.89,306.19 210.94,306.19 210.94,300.8 205.55,300.8 				"/>
				<rect x="210.94" y="295.41" width="5.39" height="5.39"/>
				<rect x="275.62" y="295.41" width="5.39" height="5.39"/>
				<rect x="270.23" y="300.8" width="5.39" height="5.39"/>
				<polygon points="192.76,290.05 216.33,290.05 216.33,295.41 221.72,295.41 221.72,290.05 248.67,290.05 248.67,295.41 
					254.06,295.41 254.06,290.05 281.01,290.05 281.01,295.41 286.4,295.41 286.4,290.05 309.97,290.05 313.97,286.05 
					188.76,286.05 				"/>
				<polygon points="264.84,311.49 237.89,311.49 237.89,306.19 232.5,306.19 232.5,311.49 214.19,311.49 218.19,315.49 
					284.53,315.49 288.53,311.49 270.23,311.49 270.23,306.19 264.84,306.19 				"/>
				<rect x="227.11" y="300.8" width="5.39" height="5.39"/>
				<rect x="221.72" y="295.41" width="5.39" height="5.39"/>
				<rect x="243.28" y="295.41" width="5.39" height="5.39"/>
			</g>
			<g>
				<rect x="203.53" y="356.72" width="5.39" height="5.39"/>
				<rect x="203.53" y="335.16" width="5.39" height="5.39"/>
				<rect x="198.14" y="340.55" width="5.39" height="5.39"/>
				<polygon points="208.92,306.17 205.57,302.82 203.53,302.82 203.53,308.21 208.92,308.21 				"/>
				<rect x="198.14" y="308.21" width="5.39" height="5.39"/>
				<polygon points="205.58,394.45 208.92,391.11 208.92,389.06 203.53,389.06 203.53,394.45 				"/>
				<rect x="198.14" y="383.67" width="5.39" height="5.39"/>
				<rect x="198.14" y="318.99" width="5.39" height="5.39"/>
				<rect x="203.53" y="324.38" width="5.39" height="5.39"/>
				<polygon points="192.79,407.24 192.79,383.67 198.14,383.67 198.14,378.28 192.79,378.28 192.79,351.33 198.14,351.33 
					198.14,345.94 192.79,345.94 192.79,318.99 198.14,318.99 198.14,313.6 192.79,313.6 192.79,290.03 188.79,286.03 
					188.79,411.24 				"/>
				<polygon points="214.22,335.16 214.22,362.11 208.92,362.11 208.92,367.5 214.22,367.5 214.22,385.81 218.22,381.81 
					218.22,315.47 214.22,311.47 214.22,329.77 208.92,329.77 208.92,335.16 				"/>
				<rect x="203.53" y="367.5" width="5.39" height="5.39"/>
				<rect x="198.14" y="372.89" width="5.39" height="5.39"/>
				<rect x="198.14" y="351.33" width="5.39" height="5.39"/>
			</g>
			<g>
				<rect x="259.45" y="391.08" width="5.39" height="5.39"/>
				<rect x="237.89" y="391.08" width="5.39" height="5.39"/>
				<rect x="243.28" y="396.47" width="5.39" height="5.39"/>
				<polygon points="208.9,391.08 205.55,394.43 205.55,396.47 210.94,396.47 210.94,391.08 				"/>
				<rect x="210.94" y="396.47" width="5.39" height="5.39"/>
				<polygon points="297.18,394.42 293.84,391.08 291.79,391.08 291.79,396.47 297.18,396.47 				"/>
				<rect x="286.4" y="396.47" width="5.39" height="5.39"/>
				<rect x="221.72" y="396.47" width="5.39" height="5.39"/>
				<rect x="227.11" y="391.08" width="5.39" height="5.39"/>
				<polygon points="309.97,407.21 286.4,407.21 286.4,401.86 281.01,401.86 281.01,407.21 254.06,407.21 254.06,401.86 
					248.67,401.86 248.67,407.21 221.72,407.21 221.72,401.86 216.33,401.86 216.33,407.21 192.77,407.21 188.77,411.21 
					313.97,411.21 				"/>
				<polygon points="237.89,385.78 264.84,385.78 264.84,391.08 270.23,391.08 270.23,385.78 288.54,385.78 284.54,381.78 
					218.2,381.78 214.2,385.78 232.5,385.78 232.5,391.08 237.89,391.08 				"/>
				<rect x="270.23" y="391.08" width="5.39" height="5.39"/>
				<rect x="275.62" y="396.47" width="5.39" height="5.39"/>
				<rect x="254.06" y="396.47" width="5.39" height="5.39"/>
			</g>
			<g>
				<rect x="293.81" y="335.16" width="5.39" height="5.39"/>
				<rect x="293.81" y="356.72" width="5.39" height="5.39"/>
				<rect x="299.2" y="351.33" width="5.39" height="5.39"/>
				<polygon points="293.81,391.1 297.16,394.45 299.2,394.45 299.2,389.06 293.81,389.06 				"/>
				<rect x="299.2" y="383.67" width="5.39" height="5.39"/>
				<polygon points="297.16,302.82 293.81,306.16 293.81,308.21 299.2,308.21 299.2,302.82 				"/>
				<rect x="299.2" y="308.21" width="5.39" height="5.39"/>
				<rect x="299.2" y="372.89" width="5.39" height="5.39"/>
				<rect x="293.81" y="367.5" width="5.39" height="5.39"/>
				<polygon points="309.95,290.03 309.95,313.6 304.59,313.6 304.59,318.99 309.95,318.99 309.95,345.94 304.59,345.94 
					304.59,351.33 309.95,351.33 309.95,378.28 304.59,378.28 304.59,383.67 309.95,383.67 309.95,407.23 313.95,411.23 
					313.95,286.03 				"/>
				<polygon points="288.51,362.11 288.51,335.16 293.81,335.16 293.81,329.77 288.51,329.77 288.51,311.46 284.51,315.46 
					284.51,381.8 288.51,385.8 288.51,367.5 293.81,367.5 293.81,362.11 				"/>
				<rect x="293.81" y="324.38" width="5.39" height="5.39"/>
				<rect x="299.2" y="318.99" width="5.39" height="5.39"/>
				<rect x="299.2" y="340.55" width="5.39" height="5.39"/>
			</g>
		</g>
		<g>
			<g>
				<g>
					<g>
						
							<line style="fill:none;stroke:#000000;stroke-width:4;stroke-miterlimit:10;" x1="182.14" y1="404.63" x2="182.14" y2="385.97"/>
						
							<line style="fill:none;stroke:#000000;stroke-width:4;stroke-miterlimit:10;" x1="190.65" y1="404.63" x2="190.65" y2="385.97"/>
					</g>
					<g>
						
							<line style="fill:none;stroke:#000000;stroke-width:4;stroke-miterlimit:10;" x1="182.14" y1="385.97" x2="182.14" y2="367.3"/>
						
							<line style="fill:none;stroke:#000000;stroke-width:4;stroke-miterlimit:10;" x1="190.65" y1="385.97" x2="190.65" y2="367.3"/>
					</g>
					<g>
						
							<line style="fill:none;stroke:#000000;stroke-width:4;stroke-miterlimit:10;" x1="182.14" y1="367.3" x2="182.14" y2="348.63"/>
						
							<line style="fill:none;stroke:#000000;stroke-width:4;stroke-miterlimit:10;" x1="190.65" y1="367.3" x2="190.65" y2="348.63"/>
					</g>
					<g>
						
							<line style="fill:none;stroke:#000000;stroke-width:4;stroke-miterlimit:10;" x1="182.14" y1="348.63" x2="182.14" y2="329.97"/>
						
							<line style="fill:none;stroke:#000000;stroke-width:4;stroke-miterlimit:10;" x1="190.65" y1="348.63" x2="190.65" y2="329.97"/>
					</g>
					<g>
						
							<line style="fill:none;stroke:#000000;stroke-width:4;stroke-miterlimit:10;" x1="182.14" y1="329.97" x2="182.14" y2="311.3"/>
						
							<line style="fill:none;stroke:#000000;stroke-width:4;stroke-miterlimit:10;" x1="190.65" y1="329.97" x2="190.65" y2="311.3"/>
					</g>
					<g>
						
							<line style="fill:none;stroke:#000000;stroke-width:4;stroke-miterlimit:10;" x1="182.14" y1="311.3" x2="182.14" y2="292.63"/>
						
							<line style="fill:none;stroke:#000000;stroke-width:4;stroke-miterlimit:10;" x1="190.65" y1="311.3" x2="190.65" y2="292.63"/>
					</g>
					<g>
						<polyline style="fill:none;stroke:#000000;stroke-width:4;stroke-miterlimit:10;" points="182.14,292.63 182.14,279.41 
							195.37,279.41 						"/>
						<polyline style="fill:none;stroke:#000000;stroke-width:4;stroke-miterlimit:10;" points="190.65,292.63 190.65,287.91 
							195.37,287.91 						"/>
					</g>
					<g>
						
							<line style="fill:none;stroke:#000000;stroke-width:4;stroke-miterlimit:10;" x1="195.37" y1="279.41" x2="214.03" y2="279.41"/>
						
							<line style="fill:none;stroke:#000000;stroke-width:4;stroke-miterlimit:10;" x1="195.37" y1="287.91" x2="214.03" y2="287.91"/>
					</g>
					<g>
						
							<line style="fill:none;stroke:#000000;stroke-width:4;stroke-miterlimit:10;" x1="214.03" y1="279.41" x2="232.7" y2="279.41"/>
						
							<line style="fill:none;stroke:#000000;stroke-width:4;stroke-miterlimit:10;" x1="214.03" y1="287.91" x2="232.7" y2="287.91"/>
					</g>
					<g>
						
							<line style="fill:none;stroke:#000000;stroke-width:4;stroke-miterlimit:10;" x1="232.7" y1="279.41" x2="251.37" y2="279.41"/>
						
							<line style="fill:none;stroke:#000000;stroke-width:4;stroke-miterlimit:10;" x1="232.7" y1="287.91" x2="251.37" y2="287.91"/>
					</g>
					<g>
						
							<line style="fill:none;stroke:#000000;stroke-width:4;stroke-miterlimit:10;" x1="251.37" y1="279.41" x2="270.03" y2="279.41"/>
						
							<line style="fill:none;stroke:#000000;stroke-width:4;stroke-miterlimit:10;" x1="251.37" y1="287.91" x2="270.03" y2="287.91"/>
					</g>
					<g>
						
							<line style="fill:none;stroke:#000000;stroke-width:4;stroke-miterlimit:10;" x1="270.03" y1="279.41" x2="288.7" y2="279.41"/>
						
							<line style="fill:none;stroke:#000000;stroke-width:4;stroke-miterlimit:10;" x1="270.03" y1="287.91" x2="288.7" y2="287.91"/>
					</g>
					<g>
						
							<line style="fill:none;stroke:#000000;stroke-width:4;stroke-miterlimit:10;" x1="288.7" y1="279.41" x2="307.37" y2="279.41"/>
						
							<line style="fill:none;stroke:#000000;stroke-width:4;stroke-miterlimit:10;" x1="288.7" y1="287.91" x2="307.37" y2="287.91"/>
					</g>
					<g>
						<polyline style="fill:none;stroke:#000000;stroke-width:4;stroke-miterlimit:10;" points="307.37,279.41 320.59,279.41 
							320.59,292.63 						"/>
						<polyline style="fill:none;stroke:#000000;stroke-width:4;stroke-miterlimit:10;" points="307.37,287.91 312.09,287.91 
							312.09,292.63 						"/>
					</g>
					<g>
						
							<line style="fill:none;stroke:#000000;stroke-width:4;stroke-miterlimit:10;" x1="320.59" y1="292.63" x2="320.59" y2="311.3"/>
						
							<line style="fill:none;stroke:#000000;stroke-width:4;stroke-miterlimit:10;" x1="312.09" y1="292.63" x2="312.09" y2="311.3"/>
					</g>
					<g>
						
							<line style="fill:none;stroke:#000000;stroke-width:4;stroke-miterlimit:10;" x1="320.59" y1="311.3" x2="320.59" y2="329.97"/>
						
							<line style="fill:none;stroke:#000000;stroke-width:4;stroke-miterlimit:10;" x1="312.09" y1="311.3" x2="312.09" y2="329.97"/>
					</g>
					<g>
						
							<line style="fill:none;stroke:#000000;stroke-width:4;stroke-miterlimit:10;" x1="320.59" y1="329.97" x2="320.59" y2="348.63"/>
						
							<line style="fill:none;stroke:#000000;stroke-width:4;stroke-miterlimit:10;" x1="312.09" y1="329.97" x2="312.09" y2="348.63"/>
					</g>
					<g>
						
							<line style="fill:none;stroke:#000000;stroke-width:4;stroke-miterlimit:10;" x1="320.59" y1="348.63" x2="320.59" y2="367.3"/>
						
							<line style="fill:none;stroke:#000000;stroke-width:4;stroke-miterlimit:10;" x1="312.09" y1="348.63" x2="312.09" y2="367.3"/>
					</g>
					<g>
						
							<line style="fill:none;stroke:#000000;stroke-width:4;stroke-miterlimit:10;" x1="320.59" y1="367.3" x2="320.59" y2="385.97"/>
						
							<line style="fill:none;stroke:#000000;stroke-width:4;stroke-miterlimit:10;" x1="312.09" y1="367.3" x2="312.09" y2="385.97"/>
					</g>
					<g>
						
							<line style="fill:none;stroke:#000000;stroke-width:4;stroke-miterlimit:10;" x1="320.59" y1="385.97" x2="320.59" y2="404.63"/>
						
							<line style="fill:none;stroke:#000000;stroke-width:4;stroke-miterlimit:10;" x1="312.09" y1="385.97" x2="312.09" y2="404.63"/>
					</g>
					<g>
						<polyline style="fill:none;stroke:#000000;stroke-width:4;stroke-miterlimit:10;" points="320.59,404.63 320.59,417.86 
							307.37,417.86 						"/>
						<polyline style="fill:none;stroke:#000000;stroke-width:4;stroke-miterlimit:10;" points="312.09,404.63 312.09,409.35 
							307.37,409.35 						"/>
					</g>
					<g>
						
							<line style="fill:none;stroke:#000000;stroke-width:4;stroke-miterlimit:10;" x1="307.37" y1="417.86" x2="288.7" y2="417.86"/>
						
							<line style="fill:none;stroke:#000000;stroke-width:4;stroke-miterlimit:10;" x1="307.37" y1="409.35" x2="288.7" y2="409.35"/>
					</g>
					<g>
						
							<line style="fill:none;stroke:#000000;stroke-width:4;stroke-miterlimit:10;" x1="288.7" y1="417.86" x2="270.03" y2="417.86"/>
						
							<line style="fill:none;stroke:#000000;stroke-width:4;stroke-miterlimit:10;" x1="288.7" y1="409.35" x2="270.03" y2="409.35"/>
					</g>
					<g>
						
							<line style="fill:none;stroke:#000000;stroke-width:4;stroke-miterlimit:10;" x1="270.03" y1="417.86" x2="251.37" y2="417.86"/>
						
							<line style="fill:none;stroke:#000000;stroke-width:4;stroke-miterlimit:10;" x1="270.03" y1="409.35" x2="251.37" y2="409.35"/>
					</g>
					<g>
						
							<line style="fill:none;stroke:#000000;stroke-width:4;stroke-miterlimit:10;" x1="251.37" y1="417.86" x2="232.7" y2="417.86"/>
						
							<line style="fill:none;stroke:#000000;stroke-width:4;stroke-miterlimit:10;" x1="251.37" y1="409.35" x2="232.7" y2="409.35"/>
					</g>
					<g>
						
							<line style="fill:none;stroke:#000000;stroke-width:4;stroke-miterlimit:10;" x1="232.7" y1="417.86" x2="214.03" y2="417.86"/>
						
							<line style="fill:none;stroke:#000000;stroke-width:4;stroke-miterlimit:10;" x1="232.7" y1="409.35" x2="214.03" y2="409.35"/>
					</g>
					<g>
						
							<line style="fill:none;stroke:#000000;stroke-width:4;stroke-miterlimit:10;" x1="214.03" y1="417.86" x2="195.37" y2="417.86"/>
						
							<line style="fill:none;stroke:#000000;stroke-width:4;stroke-miterlimit:10;" x1="214.03" y1="409.35" x2="195.37" y2="409.35"/>
					</g>
					<g>
						<polyline style="fill:none;stroke:#000000;stroke-width:4;stroke-miterlimit:10;" points="195.37,417.86 182.14,417.86 
							182.14,404.63 						"/>
						<polyline style="fill:none;stroke:#000000;stroke-width:4;stroke-miterlimit:10;" points="195.37,409.35 190.65,409.35 
							190.65,404.63 						"/>
					</g>
				</g>
			</g>
		</g>
		<g>
			<g>
				<g>
					<g>
						<g>
							<polygon points="251.37,239.42 251.37,225.36 232.9,210.96 225.73,220.15 251.02,239.86 							"/>
							<polygon points="251.37,187.27 244.77,195.73 251.37,200.88 							"/>
							
								<rect x="226.62" y="221.59" transform="matrix(0.6148 -0.7887 0.7887 0.6148 -97.8714 274.8367)" width="11.65" height="32.07"/>
							<polygon points="251.37,205.73 242.42,198.75 235.25,207.94 251.37,220.5 							"/>
							
								<rect x="217.1" y="233.79" transform="matrix(0.6148 -0.7887 0.7887 0.6148 -111.1653 272.0327)" width="11.65" height="32.07"/>
							<polygon points="192.45,277.57 185.31,272 180.97,277.57 							"/>
							<polygon points="217.63,277.57 194.83,259.79 187.66,268.98 198.68,277.57 							"/>
							
								<rect x="207.58" y="246" transform="matrix(0.6148 -0.7887 0.7887 0.6148 -124.4592 269.2287)" width="11.65" height="32.07"/>
						</g>
						<g>
							<polygon points="251.37,239.42 251.37,225.36 269.83,210.96 277,220.15 251.71,239.86 							"/>
							<polygon points="251.37,187.27 257.96,195.73 251.37,200.88 							"/>
							
								<rect x="254.26" y="231.79" transform="matrix(0.7887 -0.6148 0.6148 0.7887 -88.9724 216.4062)" width="32.07" height="11.65"/>
							<polygon points="251.37,205.73 260.32,198.75 267.48,207.94 251.37,220.5 							"/>
							<rect x="263.77" y="244" transform="matrix(0.7887 -0.6148 0.6148 0.7887 -94.467 224.8382)" width="32.07" height="11.65"/>
							<polygon points="310.28,277.57 317.42,272 321.76,277.57 							"/>
							<polygon points="285.1,277.57 307.91,259.79 315.07,268.98 304.06,277.57 							"/>
							
								<rect x="273.29" y="256.21" transform="matrix(0.7887 -0.6148 0.6148 0.7887 -99.9616 233.2703)" width="32.07" height="11.65"/>
						</g>
					</g>
					<g>
						<polygon points="233.93,277.57 251.37,255.47 251.37,250.62 230.11,277.57 						"/>
						<polygon points="224.82,277.57 251.37,243.93 251.37,239.08 221,277.57 						"/>
					</g>
					<g>
						<polygon points="268.81,277.57 251.37,255.47 251.37,250.62 272.63,277.57 						"/>
						<polygon points="277.91,277.57 251.37,243.93 251.37,239.08 281.73,277.57 						"/>
					</g>
				</g>
				<g>
					<polygon points="175.19,272.45 181.87,263.93 193.47,249.14 205.07,234.34 216.67,219.55 239.87,189.96 251.36,175.3 
						251.36,168.82 248.32,172.7 236.72,187.49 213.52,217.08 201.92,231.87 190.32,246.67 178.72,261.46 172.34,269.61 					"/>
					<polygon points="251.36,182.6 243.41,192.74 231.81,207.53 220.21,222.33 208.61,237.12 197.01,251.92 185.42,266.71 
						178.4,275.66 181.25,278.51 188.56,269.18 200.16,254.38 211.76,239.59 223.36,224.79 234.96,210 246.56,195.21 251.36,189.08 
											"/>
				</g>
				<g>
					<polygon points="327.54,272.45 320.86,263.93 309.26,249.14 297.66,234.34 286.06,219.55 262.86,189.96 251.36,175.3 
						251.36,168.82 254.4,172.7 266,187.49 289.2,217.08 300.8,231.87 312.4,246.67 324,261.46 330.39,269.61 					"/>
					<polygon points="251.36,182.6 259.31,192.74 270.91,207.53 282.51,222.33 294.11,237.12 305.71,251.92 317.31,266.71 
						324.33,275.66 321.48,278.51 314.16,269.18 302.56,254.38 290.96,239.59 279.36,224.79 267.76,210 256.16,195.21 
						251.36,189.08 					"/>
				</g>
				<circle cx="251.37" cy="270.59" r="3.69"/>
			</g>
			<g>
				<g>
					<g>
						<g>
							<polygon points="142.16,348.63 128.09,348.63 113.69,367.1 122.88,374.27 142.6,348.98 							"/>
							<polygon points="90,348.63 98.47,355.23 103.61,348.63 							"/>
							
								<rect x="124.32" y="361.73" transform="matrix(0.6148 -0.7887 0.7887 0.6148 -235.8166 252.2581)" width="32.07" height="11.65"/>
							<polygon points="108.46,348.63 101.48,357.58 110.67,364.75 123.24,348.63 							"/>
							
								<rect x="136.53" y="371.25" transform="matrix(0.6148 -0.7887 0.7887 0.6148 -238.6206 265.552)" width="32.07" height="11.65"/>
							<polygon points="180.3,407.55 174.73,414.69 180.3,419.03 							"/>
							<polygon points="180.3,382.37 162.53,405.17 171.72,412.34 180.3,401.33 							"/>
							
								<rect x="148.74" y="380.77" transform="matrix(0.6148 -0.7887 0.7887 0.6148 -241.4247 278.8459)" width="32.07" height="11.65"/>
						</g>
						<g>
							<polygon points="142.16,348.63 128.09,348.63 113.69,330.17 122.88,323 142.6,348.29 							"/>
							<polygon points="90,348.63 98.47,342.04 103.61,348.63 							"/>
							
								<rect x="134.53" y="313.68" transform="matrix(0.7887 -0.6148 0.6148 0.7887 -173.0555 155.9789)" width="11.65" height="32.07"/>
							<polygon points="108.46,348.63 101.48,339.68 110.67,332.52 123.24,348.63 							"/>
							
								<rect x="146.74" y="304.16" transform="matrix(0.7887 -0.6148 0.6148 0.7887 -164.6234 161.4735)" width="11.65" height="32.07"/>
							<polygon points="180.3,289.72 174.73,282.58 180.3,278.24 							"/>
							<polygon points="180.3,314.9 162.53,292.09 171.72,284.93 180.3,295.94 							"/>
							
								<rect x="158.94" y="294.64" transform="matrix(0.7887 -0.6148 0.6148 0.7887 -156.1913 166.9681)" width="11.65" height="32.07"/>
						</g>
					</g>
					<g>
						<polygon points="180.3,366.07 158.2,348.63 153.36,348.63 180.3,369.89 						"/>
						<polygon points="180.3,375.18 146.66,348.63 141.82,348.63 180.3,379 						"/>
					</g>
					<g>
						<polygon points="180.3,331.19 158.2,348.63 153.36,348.63 180.3,327.37 						"/>
						<polygon points="180.3,322.09 146.66,348.63 141.82,348.63 180.3,318.27 						"/>
					</g>
				</g>
				<g>
					<polygon points="175.19,424.81 166.67,418.13 151.87,406.53 137.08,394.93 122.28,383.33 92.69,360.13 78.03,348.64 
						71.55,348.64 75.43,351.68 90.23,363.28 119.81,386.48 134.61,398.08 149.4,409.68 164.2,421.28 172.34,427.66 					"/>
					<polygon points="85.33,348.64 95.47,356.59 110.27,368.19 125.06,379.79 139.86,391.39 154.65,402.99 169.45,414.58 
						178.4,421.6 181.25,418.75 171.91,411.44 157.12,399.84 142.32,388.24 127.53,376.64 112.73,365.04 97.94,353.44 91.82,348.64 
											"/>
				</g>
				<g>
					<polygon points="175.19,272.46 166.67,279.14 151.87,290.74 137.08,302.34 122.28,313.94 92.69,337.14 78.03,348.64 
						71.55,348.64 75.43,345.6 90.23,334 119.81,310.8 134.61,299.2 149.4,287.6 164.2,276 172.34,269.61 					"/>
					<polygon points="85.33,348.64 95.47,340.69 110.27,329.09 125.06,317.49 139.86,305.89 154.65,294.29 169.45,282.69 
						178.4,275.67 181.25,278.52 171.91,285.84 157.12,297.44 142.32,309.04 127.53,320.64 112.73,332.24 97.94,343.84 
						91.82,348.64 					"/>
				</g>
				<circle cx="173.33" cy="348.63" r="3.69"/>
			</g>
			<g>
				<g>
					<g>
						<g>
							<polygon points="251.37,457.84 251.37,471.91 269.84,486.31 277,477.12 251.71,457.4 							"/>
							<polygon points="251.37,510 257.97,501.53 251.37,496.39 							"/>
							
								<rect x="264.47" y="443.61" transform="matrix(0.6148 -0.7887 0.7887 0.6148 -258.3952 390.2033)" width="11.65" height="32.07"/>
							<polygon points="251.37,491.54 260.32,498.52 267.48,489.33 251.37,476.76 							"/>
							
								<rect x="273.98" y="431.4" transform="matrix(0.6148 -0.7887 0.7887 0.6148 -245.1013 393.0073)" width="11.65" height="32.07"/>
							<polygon points="310.28,419.7 317.43,425.27 321.77,419.7 							"/>
							<polygon points="285.11,419.7 307.91,437.47 315.07,428.28 304.06,419.7 							"/>
							
								<rect x="283.5" y="419.2" transform="matrix(0.6148 -0.7887 0.7887 0.6148 -231.8074 395.8113)" width="11.65" height="32.07"/>
						</g>
						<g>
							<polygon points="251.37,457.84 251.37,471.91 232.9,486.31 225.73,477.12 251.02,457.4 							"/>
							<polygon points="251.37,510 244.77,501.53 251.37,496.39 							"/>
							
								<rect x="216.41" y="453.82" transform="matrix(0.7887 -0.6148 0.6148 0.7887 -233.4828 240.062)" width="32.07" height="11.65"/>
							<polygon points="251.37,491.54 242.42,498.52 235.25,489.33 251.37,476.76 							"/>
							
								<rect x="206.89" y="441.61" transform="matrix(0.7887 -0.6148 0.6148 0.7887 -227.9882 231.6299)" width="32.07" height="11.65"/>
							<polygon points="192.45,419.7 185.31,425.27 180.97,419.7 							"/>
							<polygon points="217.63,419.7 194.83,437.47 187.66,428.28 198.68,419.7 							"/>
							
								<rect x="197.38" y="429.4" transform="matrix(0.7887 -0.6148 0.6148 0.7887 -222.4936 223.1978)" width="32.07" height="11.65"/>
						</g>
					</g>
					<g>
						<polygon points="268.8,419.7 251.37,441.8 251.37,446.64 272.63,419.7 						"/>
						<polygon points="277.91,419.7 251.37,453.34 251.37,458.18 281.73,419.7 						"/>
					</g>
					<g>
						<polygon points="233.93,419.7 251.37,441.8 251.37,446.64 230.11,419.7 						"/>
						<polygon points="224.82,419.7 251.37,453.34 251.37,458.18 221,419.7 						"/>
					</g>
				</g>
				<g>
					<polygon points="327.55,424.81 320.86,433.33 309.26,448.13 297.66,462.92 286.06,477.72 262.86,507.31 251.37,521.97 
						251.37,528.45 254.41,524.57 266.01,509.77 289.21,480.19 300.81,465.39 312.41,450.6 324.01,435.8 330.39,427.66 					"/>
					<polygon points="251.37,514.67 259.32,504.53 270.92,489.73 282.52,474.94 294.12,460.14 305.72,445.35 317.32,430.55 
						324.34,421.6 321.49,418.75 314.17,428.09 302.57,442.88 290.97,457.68 279.37,472.47 267.77,487.27 256.17,502.06 
						251.37,508.18 					"/>
				</g>
				<g>
					<polygon points="175.2,424.81 181.88,433.33 193.48,448.13 205.08,462.92 216.68,477.72 239.88,507.31 251.37,521.97 
						251.37,528.45 248.33,524.57 236.73,509.77 213.53,480.19 201.93,465.39 190.33,450.6 178.73,435.8 172.35,427.66 					"/>
					<polygon points="251.37,514.67 243.42,504.53 231.82,489.73 220.22,474.94 208.62,460.14 197.02,445.35 185.42,430.55 
						178.41,421.6 181.25,418.75 188.57,428.09 200.17,442.88 211.77,457.68 223.37,472.47 234.97,487.27 246.57,502.06 
						251.37,508.18 					"/>
				</g>
				<circle cx="251.37" cy="426.67" r="3.69"/>
			</g>
			<g>
				<g>
					<g>
						<g>
							<polygon points="360.58,348.63 374.64,348.63 389.04,330.16 379.85,323 360.14,348.29 							"/>
							<polygon points="412.73,348.63 404.27,342.03 399.12,348.63 							"/>
							
								<rect x="346.35" y="323.88" transform="matrix(0.6148 -0.7887 0.7887 0.6148 -120.45 412.7819)" width="32.07" height="11.65"/>
							<polygon points="394.27,348.63 401.25,339.68 392.06,332.52 379.5,348.63 							"/>
							
								<rect x="334.14" y="314.36" transform="matrix(0.6148 -0.7887 0.7887 0.6148 -117.646 399.488)" width="32.07" height="11.65"/>
							<polygon points="322.43,289.72 328,282.57 322.43,278.23 							"/>
							<polygon points="322.43,314.89 340.21,292.09 331.02,284.93 322.43,295.94 							"/>
							
								<rect x="321.93" y="304.85" transform="matrix(0.6148 -0.7887 0.7887 0.6148 -114.842 386.1941)" width="32.07" height="11.65"/>
						</g>
						<g>
							<polygon points="360.58,348.63 374.64,348.63 389.04,367.1 379.85,374.27 360.14,348.98 							"/>
							<polygon points="412.73,348.63 404.27,355.23 399.12,348.63 							"/>
							
								<rect x="356.55" y="351.52" transform="matrix(0.7887 -0.6148 0.6148 0.7887 -149.3997 300.4893)" width="11.65" height="32.07"/>
							<polygon points="394.27,348.63 401.25,357.58 392.06,364.75 379.5,348.63 							"/>
							
								<rect x="344.35" y="361.04" transform="matrix(0.7887 -0.6148 0.6148 0.7887 -157.8317 294.9947)" width="11.65" height="32.07"/>
							<polygon points="322.43,407.55 328,414.69 322.43,419.03 							"/>
							<polygon points="322.43,382.37 340.21,405.17 331.02,412.34 322.43,401.32 							"/>
							
								<rect x="332.14" y="370.56" transform="matrix(0.7887 -0.6148 0.6148 0.7887 -166.2638 289.5001)" width="11.65" height="32.07"/>
						</g>
					</g>
					<g>
						<polygon points="322.43,331.2 344.53,348.63 349.38,348.63 322.43,327.37 						"/>
						<polygon points="322.43,322.09 356.07,348.63 360.92,348.63 322.43,318.27 						"/>
					</g>
					<g>
						<polygon points="322.43,366.07 344.53,348.63 349.38,348.63 322.43,369.89 						"/>
						<polygon points="322.43,375.18 356.07,348.63 360.92,348.63 322.43,379 						"/>
					</g>
				</g>
				<g>
					<polygon points="327.55,272.45 336.07,279.14 350.86,290.74 365.66,302.34 380.45,313.94 410.04,337.14 424.7,348.63 
						431.18,348.63 427.3,345.59 412.51,333.99 382.92,310.79 368.13,299.19 353.33,287.59 338.54,275.99 330.39,269.61 					"/>
					<polygon points="417.4,348.63 407.26,340.68 392.47,329.08 377.67,317.48 362.88,305.88 348.08,294.28 333.29,282.68 
						324.34,275.66 321.49,278.51 330.82,285.83 345.62,297.43 360.41,309.03 375.21,320.63 390,332.23 404.79,343.83 
						410.92,348.63 					"/>
				</g>
				<g>
					<polygon points="327.55,424.8 336.07,418.12 350.86,406.52 365.66,394.92 380.45,383.32 410.04,360.12 424.7,348.63 
						431.18,348.63 427.3,351.67 412.51,363.27 382.92,386.47 368.13,398.07 353.33,409.67 338.54,421.27 330.39,427.65 					"/>
					<polygon points="417.4,348.63 407.26,356.58 392.47,368.18 377.67,379.78 362.88,391.38 348.08,402.98 333.29,414.58 
						324.34,421.59 321.49,418.75 330.82,411.43 345.62,399.83 360.41,388.23 375.21,376.63 390,365.03 404.79,353.43 
						410.92,348.63 					"/>
				</g>
				<circle cx="329.41" cy="348.63" r="3.69"/>
			</g>
		</g>
		<g>
			<g>
				<rect x="341.9" y="253.13" transform="matrix(0.7072 -0.707 0.707 0.7072 -79.9145 318.3926)" width="5.1" height="5.1"/>
				<path d="M333.12,267.03c-1.33-1.33-3.67-1.02-5,0.31l4.82,4.82C334.37,270.84,334.45,268.36,333.12,267.03z"/>
				<polygon points="336.67,263.47 336.67,275.03 339.38,277.75 339.38,260.75 322.39,260.75 325.1,263.47 				"/>
				<rect x="334.69" y="253.13" transform="matrix(0.7072 -0.707 0.707 0.7072 -82.0265 313.2906)" width="5.1" height="5.1"/>
				<rect x="341.9" y="260.35" transform="matrix(0.7072 -0.707 0.707 0.7072 -85.0164 320.5046)" width="5.1" height="5.1"/>
			</g>
			<g>
				<rect x="266.99" y="158.96" transform="matrix(0.7879 -0.6158 0.6158 0.7879 -42.2923 200.2266)" width="5.1" height="5.1"/>
				<rect x="259.83" y="158.08" transform="matrix(0.7879 -0.6158 0.6158 0.7879 -43.2702 195.6301)" width="5.1" height="5.1"/>
				<rect x="281.31" y="185.57" transform="matrix(0.7879 -0.6158 0.6158 0.7879 -55.6413 214.685)" width="5.1" height="5.1"/>
				<rect x="275.03" y="177.53" transform="matrix(0.7879 -0.6158 0.6158 0.7879 -52.0225 209.1131)" width="5.1" height="5.1"/>
				<rect x="266.11" y="166.12" transform="matrix(0.7879 -0.6158 0.6158 0.7879 -46.8887 201.2045)" width="5.1" height="5.1"/>
				<rect x="282.19" y="178.41" transform="matrix(0.7879 -0.6158 0.6158 0.7879 -51.0449 213.7064)" width="5.1" height="5.1"/>
				<rect x="296.51" y="205.02" transform="matrix(0.7879 -0.6158 0.6158 0.7879 -64.3936 228.1678)" width="5.1" height="5.1"/>
				<rect x="311.71" y="224.47" transform="matrix(0.7879 -0.6158 0.6158 0.7879 -73.1459 241.6505)" width="5.1" height="5.1"/>
				<rect x="290.23" y="196.98" transform="matrix(0.7879 -0.6158 0.6158 0.7879 -60.7748 222.5968)" width="5.1" height="5.1"/>
				<rect x="312.59" y="217.31" transform="matrix(0.7879 -0.6158 0.6158 0.7879 -68.5494 240.6727)" width="5.1" height="5.1"/>
				<rect x="297.39" y="197.86" transform="matrix(0.7879 -0.6158 0.6158 0.7879 -59.7972 227.1891)" width="5.1" height="5.1"/>
				<path d="M252.32,170.64l4.2,5.37c1.48-1.16,1.75-3.3,0.59-4.78C255.95,169.75,253.81,169.49,252.32,170.64z"/>
				<rect x="305.43" y="216.43" transform="matrix(0.7879 -0.6158 0.6158 0.7879 -69.5272 236.079)" width="5.1" height="5.1"/>
				<polygon points="251.36,164.39 251.36,167.13 260.87,168.29 259.46,179.77 261.82,182.8 263.89,165.93 				"/>
				<path d="M313.12,248.44l4.2,5.37c1.48-1.16,1.75-3.3,0.59-4.78S314.6,247.28,313.12,248.44z"/>
				<rect x="326.91" y="243.92" transform="matrix(0.7879 -0.6158 0.6158 0.7879 -81.8981 255.1364)" width="5.1" height="5.1"/>
				<rect x="320.62" y="235.88" transform="matrix(0.7879 -0.6158 0.6158 0.7879 -78.2796 249.5582)" width="5.1" height="5.1"/>
				<rect x="327.79" y="236.75" transform="matrix(0.7879 -0.6158 0.6158 0.7879 -77.3016 254.1584)" width="5.1" height="5.1"/>
				<polygon points="292.62,222.21 294.98,225.23 306.46,226.64 305.05,238.12 307.42,241.14 309.49,224.28 				"/>
				<polygon points="310.18,244.68 321.66,246.09 320.25,257.57 322.62,260.59 324.68,243.72 307.82,241.66 				"/>
				<path d="M297.92,228.99l4.2,5.37c1.48-1.16,1.75-3.3,0.59-4.78S299.4,227.83,297.92,228.99z"/>
				<polygon points="262.22,183.31 264.58,186.33 276.07,187.74 274.66,199.22 277.02,202.25 279.09,185.38 				"/>
				<path d="M267.52,190.09l4.2,5.37c1.48-1.16,1.75-3.3,0.59-4.78S269.01,188.93,267.52,190.09z"/>
				<path d="M282.72,209.54l4.2,5.37c1.48-1.16,1.75-3.3,0.59-4.78S284.2,208.38,282.72,209.54z"/>
				<polygon points="277.42,202.76 279.78,205.78 291.26,207.19 289.86,218.67 292.22,221.7 294.29,204.83 				"/>
			</g>
			<g>
				<rect x="230.59" y="158.96" transform="matrix(0.6158 -0.7879 0.7879 0.6158 -37.6794 245.7602)" width="5.1" height="5.1"/>
				<rect x="237.75" y="158.08" transform="matrix(0.6158 -0.7879 0.7879 0.6158 -34.2352 251.066)" width="5.1" height="5.1"/>
				<rect x="216.27" y="185.57" transform="matrix(0.6158 -0.7879 0.7879 0.6158 -64.1484 244.7039)" width="5.1" height="5.1"/>
				<rect x="222.56" y="177.53" transform="matrix(0.6158 -0.7879 0.7879 0.6158 -55.3989 246.5633)" width="5.1" height="5.1"/>
				<rect x="231.47" y="166.12" transform="matrix(0.6158 -0.7879 0.7879 0.6158 -42.9851 249.2044)" width="5.1" height="5.1"/>
				<rect x="215.39" y="178.41" transform="matrix(0.6158 -0.7879 0.7879 0.6158 -58.8425 241.2602)" width="5.1" height="5.1"/>
				<rect x="201.07" y="205.02" transform="matrix(0.6158 -0.7879 0.7879 0.6158 -85.3122 240.2013)" width="5.1" height="5.1"/>
				<rect x="185.87" y="224.47" transform="matrix(0.6158 -0.7879 0.7879 0.6158 -106.4761 235.6987)" width="5.1" height="5.1"/>
				<rect x="207.36" y="196.98" transform="matrix(0.6158 -0.7879 0.7879 0.6158 -76.5627 242.0601)" width="5.1" height="5.1"/>
				<rect x="185" y="217.31" transform="matrix(0.6158 -0.7879 0.7879 0.6158 -101.1703 232.2544)" width="5.1" height="5.1"/>
				<rect x="200.19" y="197.86" transform="matrix(0.6158 -0.7879 0.7879 0.6158 -80.0064 236.7576)" width="5.1" height="5.1"/>
				<path d="M250.36,170.64l-4.2,5.37c-1.48-1.16-1.75-3.3-0.59-4.78S248.88,169.49,250.36,170.64z"/>
				<rect x="192.16" y="216.43" transform="matrix(0.6158 -0.7879 0.7879 0.6158 -97.7262 237.5581)" width="5.1" height="5.1"/>
				<polygon points="251.32,164.39 251.32,167.13 241.82,168.29 243.23,179.77 240.86,182.8 238.8,165.93 				"/>
				<path d="M189.57,248.44l-4.2,5.37c-1.48-1.16-1.75-3.3-0.59-4.78S188.09,247.28,189.57,248.44z"/>
				<rect x="170.68" y="243.92" transform="matrix(0.6158 -0.7879 0.7879 0.6158 -127.6399 231.1939)" width="5.1" height="5.1"/>
				<rect x="176.96" y="235.88" transform="matrix(0.6158 -0.7879 0.7879 0.6158 -118.8899 233.0582)" width="5.1" height="5.1"/>
				<rect x="169.8" y="236.75" transform="matrix(0.6158 -0.7879 0.7879 0.6158 -122.3341 227.7497)" width="5.1" height="5.1"/>
				<polygon points="210.07,222.21 207.7,225.23 196.22,226.64 197.63,238.12 195.27,241.14 193.2,224.28 				"/>
				<polygon points="192.51,244.68 181.03,246.09 182.43,257.57 180.07,260.59 178,243.72 194.87,241.66 				"/>
				<path d="M204.77,228.99l-4.2,5.37c-1.48-1.16-1.75-3.3-0.59-4.78S203.28,227.83,204.77,228.99z"/>
				<polygon points="240.46,183.31 238.1,186.33 226.62,187.74 228.03,199.22 225.67,202.25 223.6,185.38 				"/>
				<path d="M235.16,190.09l-4.2,5.37c-1.48-1.16-1.75-3.3-0.59-4.78S233.68,188.93,235.16,190.09z"/>
				<path d="M219.97,209.54l-4.2,5.37c-1.48-1.16-1.75-3.3-0.59-4.78S218.48,208.38,219.97,209.54z"/>
				<polygon points="225.27,202.76 222.9,205.78 211.42,207.19 212.83,218.67 210.47,221.7 208.4,204.83 				"/>
			</g>
			<g>
				<rect x="253.61" y="151.75" width="4.48" height="4.48"/>
				<rect x="249.13" y="147.27" width="4.48" height="4.48"/>
				<path d="M251.37,163.38c-1.65,0-3,1.34-3,3h5.99C254.36,164.72,253.02,163.38,251.37,163.38z"/>
				<rect x="244.64" y="151.75" width="4.48" height="4.48"/>
				<polygon points="251.37,159.18 258.55,166.37 261.93,166.37 251.37,155.81 240.81,166.37 244.18,166.37 				"/>
			</g>
		</g>
		<g>
			<g>
				<rect x="155.86" y="252.99" transform="matrix(0.7072 -0.707 0.707 0.7072 -134.289 186.8221)" width="5.1" height="5.1"/>
				<path d="M169.76,266.88c-1.33,1.33-1.02,3.67,0.31,5l4.82-4.82C173.57,265.63,171.1,265.55,169.76,266.88z"/>
				<polygon points="166.2,263.33 177.77,263.33 180.48,260.62 163.49,260.62 163.49,277.61 166.2,274.9 				"/>
				<rect x="155.86" y="260.21" transform="matrix(0.7072 -0.707 0.707 0.7072 -139.3909 188.9341)" width="5.1" height="5.1"/>
				<rect x="163.08" y="252.99" transform="matrix(0.7072 -0.707 0.707 0.7072 -132.177 191.924)" width="5.1" height="5.1"/>
			</g>
			<g>
				<rect x="61.7" y="327.9" transform="matrix(0.7879 -0.6158 0.6158 0.7879 -189.8573 109.6404)" width="5.1" height="5.1"/>
				<rect x="60.82" y="335.07" transform="matrix(0.7879 -0.6158 0.6158 0.7879 -194.4538 110.6183)" width="5.1" height="5.1"/>
				<rect x="88.31" y="313.58" transform="matrix(0.7879 -0.6158 0.6158 0.7879 -175.395 122.9872)" width="5.1" height="5.1"/>
				<rect x="80.27" y="319.87" transform="matrix(0.7879 -0.6158 0.6158 0.7879 -180.9709 119.3706)" width="5.1" height="5.1"/>
				<rect x="68.86" y="328.78" transform="matrix(0.7879 -0.6158 0.6158 0.7879 -188.8794 114.2368)" width="5.1" height="5.1"/>
				<rect x="81.14" y="312.71" transform="matrix(0.7879 -0.6158 0.6158 0.7879 -176.3725 118.3902)" width="5.1" height="5.1"/>
				<rect x="107.76" y="298.39" transform="matrix(0.7879 -0.6158 0.6158 0.7879 -161.9122 131.7395)" width="5.1" height="5.1"/>
				<rect x="127.2" y="283.19" transform="matrix(0.7879 -0.6158 0.6158 0.7879 -148.4294 140.4918)" width="5.1" height="5.1"/>
				<rect x="99.71" y="304.67" transform="matrix(0.7879 -0.6158 0.6158 0.7879 -167.4883 128.1235)" width="5.1" height="5.1"/>
				<rect x="120.04" y="282.31" transform="matrix(0.7879 -0.6158 0.6158 0.7879 -149.4073 135.8954)" width="5.1" height="5.1"/>
				<rect x="100.59" y="297.51" transform="matrix(0.7879 -0.6158 0.6158 0.7879 -162.8898 127.1425)" width="5.1" height="5.1"/>
				<path d="M73.38,347.68l5.37-4.2c-1.16-1.48-3.3-1.75-4.78-0.59S72.22,346.19,73.38,347.68z"/>
				<rect x="119.16" y="289.47" transform="matrix(0.7879 -0.6158 0.6158 0.7879 -154.0049 136.8753)" width="5.1" height="5.1"/>
				<polygon points="67.13,348.64 69.86,348.64 71.03,339.13 82.51,340.54 85.53,338.18 68.67,336.11 				"/>
				<path d="M151.17,286.88l5.37-4.2c-1.16-1.48-3.3-1.75-4.78-0.59S150.01,285.4,151.17,286.88z"/>
				<rect x="146.65" y="267.99" transform="matrix(0.7879 -0.6158 0.6158 0.7879 -134.9476 149.2462)" width="5.1" height="5.1"/>
				<rect x="138.61" y="274.27" transform="matrix(0.7879 -0.6158 0.6158 0.7879 -140.5207 145.625)" width="5.1" height="5.1"/>
				<rect x="139.49" y="267.11" transform="matrix(0.7879 -0.6158 0.6158 0.7879 -135.9255 144.6497)" width="5.1" height="5.1"/>
				<polygon points="124.94,307.38 127.97,305.02 129.37,293.54 140.85,294.95 143.88,292.58 127.01,290.51 				"/>
				<polygon points="147.41,289.82 148.82,278.34 160.3,279.75 163.33,277.38 146.46,275.32 144.39,292.18 				"/>
				<path d="M131.72,302.08l5.37-4.2c-1.16-1.48-3.3-1.75-4.78-0.59S130.56,300.6,131.72,302.08z"/>
				<polygon points="86.04,337.78 89.07,335.42 90.48,323.93 101.96,325.34 104.98,322.98 88.11,320.91 				"/>
				<path d="M92.83,332.48l5.37-4.2c-1.16-1.48-3.3-1.75-4.78-0.59S91.67,330.99,92.83,332.48z"/>
				<path d="M112.28,317.28l5.37-4.2c-1.16-1.48-3.3-1.75-4.78-0.59S111.12,315.8,112.28,317.28z"/>
				<polygon points="105.49,322.58 108.52,320.22 109.93,308.74 121.41,310.14 124.43,307.78 107.56,305.71 				"/>
			</g>
			<g>
				<rect x="61.7" y="364.31" transform="matrix(0.6158 -0.7879 0.7879 0.6158 -264.3724 191.5836)" width="5.1" height="5.1"/>
				<rect x="60.82" y="357.14" transform="matrix(0.6158 -0.7879 0.7879 0.6158 -259.0667 188.1394)" width="5.1" height="5.1"/>
				<rect x="88.31" y="378.63" transform="matrix(0.6158 -0.7879 0.7879 0.6158 -265.4321 218.0556)" width="5.1" height="5.1"/>
				<rect x="80.27" y="372.34" transform="matrix(0.6158 -0.7879 0.7879 0.6158 -263.5693 209.3031)" width="5.1" height="5.1"/>
				<rect x="68.86" y="363.43" transform="matrix(0.6158 -0.7879 0.7879 0.6158 -260.9282 196.8893)" width="5.1" height="5.1"/>
				<rect x="81.14" y="379.5" transform="matrix(0.6158 -0.7879 0.7879 0.6158 -268.8766 212.7506)" width="5.1" height="5.1"/>
				<rect x="107.76" y="393.82" transform="matrix(0.6158 -0.7879 0.7879 0.6158 -269.9347 239.2195)" width="5.1" height="5.1"/>
				<rect x="127.2" y="409.02" transform="matrix(0.6158 -0.7879 0.7879 0.6158 -274.4373 260.3834)" width="5.1" height="5.1"/>
				<rect x="99.71" y="387.54" transform="matrix(0.6158 -0.7879 0.7879 0.6158 -268.0716 230.466)" width="5.1" height="5.1"/>
				<rect x="120.04" y="409.9" transform="matrix(0.6158 -0.7879 0.7879 0.6158 -277.8815 255.0776)" width="5.1" height="5.1"/>
				<rect x="100.59" y="394.7" transform="matrix(0.6158 -0.7879 0.7879 0.6158 -273.3792 233.9145)" width="5.1" height="5.1"/>
				<path d="M73.38,349.64l5.37,4.2c-1.16,1.48-3.3,1.75-4.78,0.59S72.22,351.12,73.38,349.64z"/>
				<rect x="119.16" y="402.74" transform="matrix(0.6158 -0.7879 0.7879 0.6158 -272.5746 251.6304)" width="5.1" height="5.1"/>
				<polygon points="67.13,348.68 69.86,348.68 71.03,358.18 82.51,356.77 85.53,359.14 68.67,361.2 				"/>
				<path d="M151.17,410.43l5.37,4.2c-1.16,1.48-3.3,1.75-4.78,0.59S150.01,411.91,151.17,410.43z"/>
				<rect x="146.65" y="424.22" transform="matrix(0.6158 -0.7879 0.7879 0.6158 -278.9388 281.5441)" width="5.1" height="5.1"/>
				<rect x="138.61" y="417.94" transform="matrix(0.6158 -0.7879 0.7879 0.6158 -277.0786 272.7981)" width="5.1" height="5.1"/>
				<rect x="139.49" y="425.1" transform="matrix(0.6158 -0.7879 0.7879 0.6158 -282.383 276.2383)" width="5.1" height="5.1"/>
				<polygon points="124.94,389.93 127.97,392.3 129.37,403.78 140.85,402.37 143.88,404.73 127.01,406.8 				"/>
				<polygon points="147.41,407.49 148.82,418.97 160.3,417.57 163.33,419.93 146.46,422 144.39,405.13 				"/>
				<path d="M131.72,395.23l5.37,4.2c-1.16,1.48-3.3,1.75-4.78,0.59S130.56,396.72,131.72,395.23z"/>
				<polygon points="86.04,359.54 89.07,361.9 90.48,373.38 101.96,371.97 104.98,374.33 88.11,376.4 				"/>
				<path d="M92.83,364.84l5.37,4.2c-1.16,1.48-3.3,1.75-4.78,0.59S91.67,366.32,92.83,364.84z"/>
				<path d="M112.28,380.03l5.37,4.2c-1.16,1.48-3.3,1.75-4.78,0.59S111.12,381.52,112.28,380.03z"/>
				<polygon points="105.49,374.73 108.52,377.1 109.93,388.58 121.41,387.17 124.43,389.53 107.56,391.6 				"/>
			</g>
			<g>
				<rect x="54.48" y="341.91" width="4.48" height="4.48"/>
				<rect x="50" y="346.39" width="4.48" height="4.48"/>
				<path d="M66.11,348.63c0,1.65,1.34,3,3,3v-5.99C67.45,345.64,66.11,346.98,66.11,348.63z"/>
				<rect x="54.48" y="350.87" width="4.48" height="4.48"/>
				<polygon points="61.92,348.63 69.1,341.45 69.1,338.07 58.55,348.63 69.1,359.19 69.1,355.82 				"/>
			</g>
		</g>
		<g>
			<g>
				<rect x="155.73" y="439.03" transform="matrix(0.7072 -0.707 0.707 0.7072 -265.8595 241.1966)" width="5.1" height="5.1"/>
				<path d="M169.62,430.24c1.33,1.33,3.67,1.02,5-0.31l-4.82-4.82C168.36,426.43,168.29,428.9,169.62,430.24z"/>
				<polygon points="166.07,433.8 166.07,422.23 163.36,419.52 163.35,436.51 180.35,436.51 177.63,433.8 				"/>
				<rect x="162.94" y="439.03" transform="matrix(0.7072 -0.707 0.707 0.7072 -263.7475 246.2985)" width="5.1" height="5.1"/>
				<rect x="155.73" y="431.82" transform="matrix(0.7072 -0.707 0.707 0.7072 -260.7575 239.0845)" width="5.1" height="5.1"/>
			</g>
			<g>
				<rect x="230.64" y="533.2" transform="matrix(0.7879 -0.6158 0.6158 0.7879 -280.4436 257.2054)" width="5.1" height="5.1"/>
				<rect x="237.8" y="534.08" transform="matrix(0.7879 -0.6158 0.6158 0.7879 -279.4656 261.8019)" width="5.1" height="5.1"/>
				<rect x="216.32" y="506.59" transform="matrix(0.7879 -0.6158 0.6158 0.7879 -267.0928 242.741)" width="5.1" height="5.1"/>
				<rect x="222.6" y="514.63" transform="matrix(0.7879 -0.6158 0.6158 0.7879 -270.7133 248.319)" width="5.1" height="5.1"/>
				<rect x="231.52" y="526.04" transform="matrix(0.7879 -0.6158 0.6158 0.7879 -275.8471 256.2275)" width="5.1" height="5.1"/>
				<rect x="215.44" y="513.75" transform="matrix(0.7879 -0.6158 0.6158 0.7879 -271.6887 243.7178)" width="5.1" height="5.1"/>
				<rect x="201.12" y="487.14" transform="matrix(0.7879 -0.6158 0.6158 0.7879 -258.3405 229.2582)" width="5.1" height="5.1"/>
				<rect x="185.92" y="467.69" transform="matrix(0.7879 -0.6158 0.6158 0.7879 -249.5882 215.7754)" width="5.1" height="5.1"/>
				<rect x="207.4" y="495.18" transform="matrix(0.7879 -0.6158 0.6158 0.7879 -261.9615 234.837)" width="5.1" height="5.1"/>
				<rect x="185.04" y="474.86" transform="matrix(0.7879 -0.6158 0.6158 0.7879 -254.1846 216.7533)" width="5.1" height="5.1"/>
				<rect x="200.24" y="494.3" transform="matrix(0.7879 -0.6158 0.6158 0.7879 -262.9364 230.2351)" width="5.1" height="5.1"/>
				<path d="M250.41,526.62l-4.2-5.37c-1.48,1.16-1.75,3.3-0.59,4.78S248.93,527.78,250.41,526.62z"/>
				<rect x="192.21" y="475.74" transform="matrix(0.7879 -0.6158 0.6158 0.7879 -253.2086 221.353)" width="5.1" height="5.1"/>
				<polygon points="251.37,532.87 251.37,530.14 241.87,528.97 243.28,517.49 240.91,514.47 238.84,531.33 				"/>
				<path d="M189.62,448.83l-4.2-5.37c-1.48,1.16-1.75,3.3-0.59,4.78S188.13,449.99,189.62,448.83z"/>
				<rect x="170.72" y="448.25" transform="matrix(0.7879 -0.6158 0.6158 0.7879 -240.8377 202.2957)" width="5.1" height="5.1"/>
				<rect x="177.01" y="456.29" transform="matrix(0.7879 -0.6158 0.6158 0.7879 -244.4539 207.8661)" width="5.1" height="5.1"/>
				<rect x="169.85" y="455.41" transform="matrix(0.7879 -0.6158 0.6158 0.7879 -245.4342 203.2736)" width="5.1" height="5.1"/>
				<polygon points="210.12,475.06 207.75,472.03 196.27,470.63 197.68,459.15 195.32,456.12 193.25,472.99 				"/>
				<polygon points="192.55,452.59 181.07,451.18 182.48,439.7 180.12,436.67 178.05,453.54 194.92,455.61 				"/>
				<path d="M204.82,468.28l-4.2-5.37c-1.48,1.16-1.75,3.3-0.59,4.78S203.33,469.44,204.82,468.28z"/>
				<polygon points="240.51,513.96 238.15,510.93 226.67,509.52 228.08,498.04 225.71,495.02 223.65,511.89 				"/>
				<path d="M235.21,507.17l-4.2-5.37c-1.48,1.16-1.75,3.3-0.59,4.78S233.73,508.33,235.21,507.17z"/>
				<path d="M220.01,487.72l-4.2-5.37c-1.48,1.16-1.75,3.3-0.59,4.78S218.53,488.88,220.01,487.72z"/>
				<polygon points="225.31,494.51 222.95,491.48 211.47,490.07 212.88,478.59 210.52,475.57 208.45,492.44 				"/>
			</g>
			<g>
				<rect x="267.04" y="533.2" transform="matrix(0.6158 -0.7879 0.7879 0.6158 -318.549 418.2766)" width="5.1" height="5.1"/>
				<rect x="259.88" y="534.08" transform="matrix(0.6158 -0.7879 0.7879 0.6158 -321.9932 412.9709)" width="5.1" height="5.1"/>
				<rect x="281.36" y="506.59" transform="matrix(0.6158 -0.7879 0.7879 0.6158 -292.0803 419.3393)" width="5.1" height="5.1"/>
				<rect x="275.08" y="514.63" transform="matrix(0.6158 -0.7879 0.7879 0.6158 -300.8295 417.4735)" width="5.1" height="5.1"/>
				<rect x="266.16" y="526.04" transform="matrix(0.6158 -0.7879 0.7879 0.6158 -313.2433 414.8325)" width="5.1" height="5.1"/>
				<rect x="282.24" y="513.75" transform="matrix(0.6158 -0.7879 0.7879 0.6158 -297.3862 422.7848)" width="5.1" height="5.1"/>
				<rect x="296.56" y="487.14" transform="matrix(0.6158 -0.7879 0.7879 0.6158 -270.9164 423.8419)" width="5.1" height="5.1"/>
				<rect x="311.76" y="467.69" transform="matrix(0.6158 -0.7879 0.7879 0.6158 -249.7525 428.3445)" width="5.1" height="5.1"/>
				<rect x="290.28" y="495.18" transform="matrix(0.6158 -0.7879 0.7879 0.6158 -279.6657 421.975)" width="5.1" height="5.1"/>
				<rect x="312.64" y="474.86" transform="matrix(0.6158 -0.7879 0.7879 0.6158 -255.0583 431.7888)" width="5.1" height="5.1"/>
				<rect x="297.44" y="494.3" transform="matrix(0.6158 -0.7879 0.7879 0.6158 -276.2223 427.2874)" width="5.1" height="5.1"/>
				<path d="M252.37,526.62l4.2-5.37c1.48,1.16,1.75,3.3,0.59,4.78S253.85,527.78,252.37,526.62z"/>
				<rect x="305.47" y="475.74" transform="matrix(0.6158 -0.7879 0.7879 0.6158 -258.5022 426.4788)" width="5.1" height="5.1"/>
				<polygon points="251.41,532.87 251.41,530.14 260.91,528.97 259.51,517.49 261.87,514.47 263.94,531.33 				"/>
				<path d="M313.17,448.83l4.2-5.37c1.48,1.16,1.75,3.3,0.59,4.78S314.65,449.99,313.17,448.83z"/>
				<rect x="326.96" y="448.25" transform="matrix(0.6158 -0.7879 0.7879 0.6158 -228.5885 432.843)" width="5.1" height="5.1"/>
				<rect x="320.67" y="456.29" transform="matrix(0.6158 -0.7879 0.7879 0.6158 -237.3388 430.9867)" width="5.1" height="5.1"/>
				<rect x="327.83" y="455.41" transform="matrix(0.6158 -0.7879 0.7879 0.6158 -233.8943 436.2872)" width="5.1" height="5.1"/>
				<polygon points="292.67,475.06 295.03,472.03 306.51,470.63 305.1,459.15 307.47,456.12 309.53,472.99 				"/>
				<polygon points="310.23,452.59 321.71,451.18 320.3,439.7 322.66,436.67 324.73,453.54 307.87,455.61 				"/>
				<path d="M297.97,468.28l4.2-5.37c1.48,1.16,1.75,3.3,0.59,4.78S299.45,469.44,297.97,468.28z"/>
				<polygon points="262.27,513.96 264.63,510.93 276.11,509.52 274.7,498.04 277.07,495.02 279.14,511.89 				"/>
				<path d="M267.57,507.17l4.2-5.37c1.48,1.16,1.75,3.3,0.59,4.78S269.05,508.33,267.57,507.17z"/>
				<path d="M282.77,487.72l4.2-5.37c1.48,1.16,1.75,3.3,0.59,4.78S284.25,488.88,282.77,487.72z"/>
				<polygon points="277.47,494.51 279.83,491.48 291.31,490.07 289.9,478.59 292.27,475.57 294.34,492.44 				"/>
			</g>
			<g>
				<rect x="244.64" y="541.03" width="4.48" height="4.48"/>
				<rect x="249.13" y="545.52" width="4.48" height="4.48"/>
				<path d="M251.37,533.89c1.65,0,3-1.34,3-3h-5.99C248.37,532.55,249.71,533.89,251.37,533.89z"/>
				<rect x="253.61" y="541.03" width="4.48" height="4.48"/>
				<polygon points="251.37,538.08 244.18,530.9 240.81,530.9 251.37,541.45 261.93,530.9 258.55,530.9 				"/>
			</g>
		</g>
		<g>
			<g>
				<rect x="341.77" y="439.17" transform="matrix(0.7072 -0.707 0.707 0.7072 -211.485 372.7671)" width="5.1" height="5.1"/>
				<path d="M332.97,430.38c1.33-1.33,1.02-3.67-0.31-5l-4.82,4.82C329.16,431.64,331.64,431.71,332.97,430.38z"/>
				<polygon points="336.53,433.93 324.97,433.93 322.25,436.64 339.25,436.65 339.25,419.65 336.53,422.37 				"/>
				<rect x="341.77" y="431.95" transform="matrix(0.7072 -0.707 0.707 0.7072 -206.383 370.655)" width="5.1" height="5.1"/>
				<rect x="334.55" y="439.17" transform="matrix(0.7072 -0.707 0.707 0.7072 -213.597 367.6651)" width="5.1" height="5.1"/>
			</g>
			<g>
				<rect x="435.94" y="364.26" transform="matrix(0.7879 -0.6158 0.6158 0.7879 -132.8785 347.7917)" width="5.1" height="5.1"/>
				<rect x="436.81" y="357.1" transform="matrix(0.7879 -0.6158 0.6158 0.7879 -128.282 346.8138)" width="5.1" height="5.1"/>
				<rect x="409.33" y="378.58" transform="matrix(0.7879 -0.6158 0.6158 0.7879 -147.339 334.4387)" width="5.1" height="5.1"/>
				<rect x="417.37" y="372.29" transform="matrix(0.7879 -0.6158 0.6158 0.7879 -141.765 338.0614)" width="5.1" height="5.1"/>
				<rect x="428.77" y="363.38" transform="matrix(0.7879 -0.6158 0.6158 0.7879 -133.8564 343.1952)" width="5.1" height="5.1"/>
				<rect x="416.49" y="379.46" transform="matrix(0.7879 -0.6158 0.6158 0.7879 -146.3611 339.034)" width="5.1" height="5.1"/>
				<rect x="389.88" y="393.78" transform="matrix(0.7879 -0.6158 0.6158 0.7879 -160.8218 325.6864)" width="5.1" height="5.1"/>
				<rect x="370.43" y="408.98" transform="matrix(0.7879 -0.6158 0.6158 0.7879 -174.3046 316.9341)" width="5.1" height="5.1"/>
				<rect x="397.92" y="387.49" transform="matrix(0.7879 -0.6158 0.6158 0.7879 -155.248 329.3102)" width="5.1" height="5.1"/>
				<rect x="377.59" y="409.85" transform="matrix(0.7879 -0.6158 0.6158 0.7879 -173.3267 321.5306)" width="5.1" height="5.1"/>
				<rect x="397.04" y="394.66" transform="matrix(0.7879 -0.6158 0.6158 0.7879 -159.8438 330.2817)" width="5.1" height="5.1"/>
				<path d="M429.36,349.59l-5.37,4.2c1.16,1.48,3.3,1.75,4.78,0.59S430.51,351.07,429.36,349.59z"/>
				<rect x="378.47" y="402.69" transform="matrix(0.7879 -0.6158 0.6158 0.7879 -168.7309 320.5567)" width="5.1" height="5.1"/>
				<polygon points="435.61,348.63 432.87,348.63 431.71,358.13 420.23,356.72 417.2,359.09 434.07,361.16 				"/>
				<path d="M351.56,410.38l-5.37,4.2c1.16,1.48,3.3,1.75,4.78,0.59S352.72,411.87,351.56,410.38z"/>
				<rect x="350.98" y="424.17" transform="matrix(0.7879 -0.6158 0.6158 0.7879 -187.7883 308.1858)" width="5.1" height="5.1"/>
				<rect x="359.02" y="417.89" transform="matrix(0.7879 -0.6158 0.6158 0.7879 -182.2128 311.7993)" width="5.1" height="5.1"/>
				<rect x="358.14" y="425.05" transform="matrix(0.7879 -0.6158 0.6158 0.7879 -186.8103 312.7823)" width="5.1" height="5.1"/>
				<polygon points="377.79,389.88 374.77,392.25 373.36,403.73 361.88,402.32 358.86,404.68 375.72,406.75 				"/>
				<polygon points="355.32,407.45 353.91,418.93 342.43,417.52 339.41,419.88 356.28,421.95 358.34,405.08 				"/>
				<path d="M371.01,395.18l-5.37,4.2c1.16,1.48,3.3,1.75,4.78,0.59S372.17,396.67,371.01,395.18z"/>
				<polygon points="416.69,359.49 413.67,361.85 412.26,373.33 400.78,371.92 397.75,374.29 414.62,376.35 				"/>
				<path d="M409.91,364.79l-5.37,4.2c1.16,1.48,3.3,1.75,4.78,0.59S411.07,366.27,409.91,364.79z"/>
				<path d="M390.46,379.99l-5.37,4.2c1.16,1.48,3.3,1.75,4.78,0.59S391.62,381.47,390.46,379.99z"/>
				<polygon points="397.24,374.69 394.22,377.05 392.81,388.53 381.33,387.12 378.3,389.48 395.17,391.55 				"/>
			</g>
			<g>
				<rect x="435.94" y="327.86" transform="matrix(0.6158 -0.7879 0.7879 0.6158 -91.856 472.4532)" width="5.1" height="5.1"/>
				<rect x="436.81" y="335.02" transform="matrix(0.6158 -0.7879 0.7879 0.6158 -97.1618 475.8974)" width="5.1" height="5.1"/>
				<rect x="409.33" y="313.54" transform="matrix(0.6158 -0.7879 0.7879 0.6158 -90.7966 445.9875)" width="5.1" height="5.1"/>
				<rect x="417.37" y="319.82" transform="matrix(0.6158 -0.7879 0.7879 0.6158 -92.6591 454.7337)" width="5.1" height="5.1"/>
				<rect x="428.77" y="328.74" transform="matrix(0.6158 -0.7879 0.7879 0.6158 -95.3002 467.1475)" width="5.1" height="5.1"/>
				<rect x="416.49" y="312.66" transform="matrix(0.6158 -0.7879 0.7879 0.6158 -87.3521 451.2943)" width="5.1" height="5.1"/>
				<rect x="389.88" y="298.34" transform="matrix(0.6158 -0.7879 0.7879 0.6158 -86.294 424.8237)" width="5.1" height="5.1"/>
				<rect x="370.43" y="283.14" transform="matrix(0.6158 -0.7879 0.7879 0.6158 -81.7914 403.6598)" width="5.1" height="5.1"/>
				<rect x="397.92" y="304.62" transform="matrix(0.6158 -0.7879 0.7879 0.6158 -88.1567 433.5691)" width="5.1" height="5.1"/>
				<rect x="377.59" y="282.26" transform="matrix(0.6158 -0.7879 0.7879 0.6158 -78.3472 408.9656)" width="5.1" height="5.1"/>
				<rect x="397.04" y="297.46" transform="matrix(0.6158 -0.7879 0.7879 0.6158 -82.8495 430.1304)" width="5.1" height="5.1"/>
				<path d="M429.36,347.63l-5.37-4.2c1.16-1.48,3.3-1.75,4.78-0.59S430.51,346.15,429.36,347.63z"/>
				<rect x="378.47" y="289.42" transform="matrix(0.6158 -0.7879 0.7879 0.6158 -83.6538 412.4064)" width="5.1" height="5.1"/>
				<polygon points="435.61,348.59 432.87,348.59 431.71,339.09 420.23,340.49 417.2,338.13 434.07,336.06 				"/>
				<path d="M351.56,286.83l-5.37-4.2c1.16-1.48,3.3-1.75,4.78-0.59S352.72,285.35,351.56,286.83z"/>
				<rect x="350.98" y="267.94" transform="matrix(0.6158 -0.7879 0.7879 0.6158 -77.2896 382.4928)" width="5.1" height="5.1"/>
				<rect x="359.02" y="274.23" transform="matrix(0.6158 -0.7879 0.7879 0.6158 -79.1501 391.2469)" width="5.1" height="5.1"/>
				<rect x="358.14" y="267.06" transform="matrix(0.6158 -0.7879 0.7879 0.6158 -73.8454 387.7985)" width="5.1" height="5.1"/>
				<polygon points="377.79,307.33 374.77,304.97 373.36,293.49 361.88,294.9 358.86,292.53 375.72,290.47 				"/>
				<polygon points="355.32,289.77 353.91,278.29 342.43,279.7 339.41,277.34 356.28,275.27 358.34,292.13 				"/>
				<path d="M371.01,302.03l-5.37-4.2c1.16-1.48,3.3-1.75,4.78-0.59S372.17,300.55,371.01,302.03z"/>
				<polygon points="416.69,337.73 413.67,335.37 412.26,323.89 400.78,325.3 397.75,322.93 414.62,320.86 				"/>
				<path d="M409.91,332.43l-5.37-4.2c1.16-1.48,3.3-1.75,4.78-0.59S411.07,330.95,409.91,332.43z"/>
				<path d="M390.46,317.23l-5.37-4.2c1.16-1.48,3.3-1.75,4.78-0.59S391.62,315.75,390.46,317.23z"/>
				<polygon points="397.24,322.53 394.22,320.17 392.81,308.69 381.33,310.1 378.3,307.73 395.17,305.66 				"/>
			</g>
			<g>
				<rect x="443.77" y="350.87" width="4.48" height="4.48"/>
				<rect x="448.25" y="346.39" width="4.48" height="4.48"/>
				<path d="M436.62,348.63c0-1.65-1.34-3-3-3v5.99C435.28,351.63,436.62,350.29,436.62,348.63z"/>
				<rect x="443.77" y="341.91" width="4.48" height="4.48"/>
				<polygon points="440.82,348.63 433.63,355.82 433.63,359.19 444.19,348.63 433.63,338.07 433.63,341.45 				"/>
			</g>
		</g>
		<g>
			<g>
				<g>
					<g>
						
							<line style="fill:none;stroke:#000000;stroke-width:4;stroke-miterlimit:10;" x1="216.18" y1="370.59" x2="216.18" y2="348.63"/>
						
							<line style="fill:none;stroke:#000000;stroke-width:4;stroke-miterlimit:10;" x1="224.69" y1="370.59" x2="224.69" y2="348.63"/>
					</g>
					<g>
						
							<line style="fill:none;stroke:#000000;stroke-width:4;stroke-miterlimit:10;" x1="216.18" y1="348.63" x2="216.18" y2="326.67"/>
						
							<line style="fill:none;stroke:#000000;stroke-width:4;stroke-miterlimit:10;" x1="224.69" y1="348.63" x2="224.69" y2="326.67"/>
					</g>
					<g>
						<polyline style="fill:none;stroke:#000000;stroke-width:4;stroke-miterlimit:10;" points="216.18,326.67 216.18,313.45 
							229.41,313.45 						"/>
						<polyline style="fill:none;stroke:#000000;stroke-width:4;stroke-miterlimit:10;" points="224.69,326.67 224.69,321.95 
							229.41,321.95 						"/>
					</g>
					<g>
						
							<line style="fill:none;stroke:#000000;stroke-width:4;stroke-miterlimit:10;" x1="229.41" y1="313.45" x2="251.37" y2="313.45"/>
						
							<line style="fill:none;stroke:#000000;stroke-width:4;stroke-miterlimit:10;" x1="229.41" y1="321.95" x2="251.37" y2="321.95"/>
					</g>
					<g>
						
							<line style="fill:none;stroke:#000000;stroke-width:4;stroke-miterlimit:10;" x1="251.37" y1="313.45" x2="273.33" y2="313.45"/>
						
							<line style="fill:none;stroke:#000000;stroke-width:4;stroke-miterlimit:10;" x1="251.37" y1="321.95" x2="273.33" y2="321.95"/>
					</g>
					<g>
						<polyline style="fill:none;stroke:#000000;stroke-width:4;stroke-miterlimit:10;" points="273.33,313.45 286.55,313.45 
							286.55,326.67 						"/>
						<polyline style="fill:none;stroke:#000000;stroke-width:4;stroke-miterlimit:10;" points="273.33,321.95 278.05,321.95 
							278.05,326.67 						"/>
					</g>
					<g>
						
							<line style="fill:none;stroke:#000000;stroke-width:4;stroke-miterlimit:10;" x1="286.55" y1="326.67" x2="286.55" y2="348.63"/>
						
							<line style="fill:none;stroke:#000000;stroke-width:4;stroke-miterlimit:10;" x1="278.05" y1="326.67" x2="278.05" y2="348.63"/>
					</g>
					<g>
						
							<line style="fill:none;stroke:#000000;stroke-width:4;stroke-miterlimit:10;" x1="286.55" y1="348.63" x2="286.55" y2="370.59"/>
						
							<line style="fill:none;stroke:#000000;stroke-width:4;stroke-miterlimit:10;" x1="278.05" y1="348.63" x2="278.05" y2="370.59"/>
					</g>
					<g>
						<polyline style="fill:none;stroke:#000000;stroke-width:4;stroke-miterlimit:10;" points="286.55,370.59 286.55,383.82 
							273.33,383.82 						"/>
						<polyline style="fill:none;stroke:#000000;stroke-width:4;stroke-miterlimit:10;" points="278.05,370.59 278.05,375.31 
							273.33,375.31 						"/>
					</g>
					<g>
						
							<line style="fill:none;stroke:#000000;stroke-width:4;stroke-miterlimit:10;" x1="273.33" y1="383.82" x2="251.37" y2="383.82"/>
						
							<line style="fill:none;stroke:#000000;stroke-width:4;stroke-miterlimit:10;" x1="273.33" y1="375.31" x2="251.37" y2="375.31"/>
					</g>
					<g>
						
							<line style="fill:none;stroke:#000000;stroke-width:4;stroke-miterlimit:10;" x1="251.37" y1="383.82" x2="229.41" y2="383.82"/>
						
							<line style="fill:none;stroke:#000000;stroke-width:4;stroke-miterlimit:10;" x1="251.37" y1="375.31" x2="229.41" y2="375.31"/>
					</g>
					<g>
						<polyline style="fill:none;stroke:#000000;stroke-width:4;stroke-miterlimit:10;" points="229.41,383.82 216.18,383.82 
							216.18,370.59 						"/>
						<polyline style="fill:none;stroke:#000000;stroke-width:4;stroke-miterlimit:10;" points="229.41,375.31 224.69,375.31 
							224.69,370.59 						"/>
					</g>
				</g>
			</g>
		</g>
		<line style="fill:none;stroke:#000000;stroke-width:3;stroke-miterlimit:10;" x1="278.32" y1="321.68" x2="224.42" y2="375.58"/>
		<line style="fill:none;stroke:#000000;stroke-width:3;stroke-miterlimit:10;" x1="278.32" y1="375.58" x2="224.42" y2="321.68"/>
		<circle cx="251.37" cy="332.66" r="3.32"/>
		<circle cx="235.4" cy="348.63" r="3.32"/>
		<circle cx="251.37" cy="364.6" r="3.32"/>
		<circle cx="267.34" cy="348.63" r="3.32"/>
	</g>
</g>
<g>
</g>
<g>
</g>
<g>
</g>
<g>
</g>
<g>
</g>
<g>
</g>
<g>
</g>
<g>
</g>
<g>
</g>
<g>
</g>
<g>
</g>
<g>
</g>
<g>
</g>
<g>
</g>
<g>
</g>
</svg>
