<?xml version="1.0" encoding="utf-8"?>
<!-- Generator: Adobe Illustrator 27.2.0, SVG Export Plug-In . SVG Version: 6.00 Build 0)  -->
<svg version="1.1" id="Layer_1" xmlns="http://www.w3.org/2000/svg" xmlns:xlink="http://www.w3.org/1999/xlink" x="0px" y="0px"
	 viewBox="0 0 800 600" style="enable-background:new 0 0 800 600;" xml:space="preserve">
<g>
	<g>
		
			<rect x="178.01" y="391.08" transform="matrix(-0.7071 -0.7071 0.7071 -0.7071 42.8002 830.7997)" style="fill:none;stroke:#000000;stroke-width:3;stroke-miterlimit:10;" width="30.92" height="30.92"/>
		
			<rect x="171.39" y="384.46" transform="matrix(-0.7071 -0.7071 0.7071 -0.7071 42.8002 830.7997)" style="fill:none;stroke:#000000;stroke-width:2;stroke-miterlimit:10;" width="44.15" height="44.15"/>
		<path d="M140.03,428.57L140.03,428.57l31.41,31.41l0,0L193.46,482v0.01l0,0l0,0V482l22.03-22.03l0,0l31.41-31.41l0,0l22.03-22.03
			h0.01l0,0l0,0h-0.01l-22.03-22.03l0,0L215.5,353.1l0,0l-22.03-22.03v-0.01l0,0l0,0v0.01l-22.03,22.03l0,0l-31.41,31.41l0,0
			L118,406.53h-0.01l0,0l0,0H118L140.03,428.57z M196.51,472.95l-3.04,3.04l-3.04-3.04l3.04-3.04L196.51,472.95z M193.46,466.92
			l-4.54,4.54l0,0L193.46,466.92L193.46,466.92z M198,471.45L198,471.45l-4.54-4.54v0L198,471.45z M193.46,466.91L193.46,466.91
			L193.46,466.91L193.46,466.91L193.46,466.91z M202.99,466.46l-3.49,3.49l-6.03-6.03v-0.01l0,0l0,0v0.01l-6.03,6.03l-3.49-3.49
			l9.53-9.53L202.99,466.46z M193.46,453.94l-11.02,11.02l0,0L193.46,453.94L193.46,453.94z M204.49,464.96L204.49,464.96
			l-11.02-11.02v0L204.49,464.96z M193.46,453.94L193.46,453.94L193.46,453.94L193.46,453.94L193.46,453.94z M210.08,459.37
			l-4.1,4.1l-12.52-12.52v-0.01l0,0l0,0v0.01l-12.52,12.52l-4.1-4.1l16.62-16.62L210.08,459.37z M190.46,440.95l0.01,0.01
			l-16.02,16.02l-0.01-0.01L190.46,440.95L190.46,440.95L190.46,440.95z M191.97,442.46L191.97,442.46l-16.02,16.02l0,0
			L191.97,442.46z M217.32,452.14l-3.38,3.38l-16.02-16.02l3.38-3.38L217.32,452.14z M218.77,450.69L218.77,450.69l-16.02-16.02l0,0
			L218.77,450.69z M223.6,445.86l-3.38,3.38l-16.02-16.02l3.38-3.38L223.6,445.86z M225.05,444.41L225.05,444.41l-16.02-16.02l0,0
			L225.05,444.41z M229.89,439.57l-3.38,3.38l-16.02-16.02l3.38-3.38L229.89,439.57z M231.33,438.12L231.33,438.12l-16.02-16.02l0,0
			L231.33,438.12z M236.17,433.29l-3.38,3.38l-16.02-16.02l3.38-3.38L236.17,433.29z M237.62,431.84L237.62,431.84l-16.02-16.02l0,0
			L237.62,431.84z M242.45,427.01l-3.38,3.38l-16.02-16.02l3.38-3.38L242.45,427.01z M243.91,425.55l-0.01,0.01l-16.02-16.02l0,0
			l0,0l0.01-0.01L243.91,425.55z M251.89,417.56L251.89,417.56l-11.02-11.02h0L251.89,417.56z M240.87,406.54L240.87,406.54
			L240.87,406.54L240.87,406.54L240.87,406.54z M258.38,411.07L258.38,411.07l-4.54-4.54h0L258.38,411.07z M253.84,406.54
			L253.84,406.54L253.84,406.54L253.84,406.54L253.84,406.54z M262.92,406.54l-3.04,3.04l-3.04-3.04l3.04-3.04L262.92,406.54z
			 M258.38,402l-4.54,4.54h0L258.38,402L258.38,402z M256.88,400.5l-6.03,6.03h-0.01l0,0l0,0h0.01l6.03,6.03l-3.49,3.49l-9.53-9.53
			l9.53-9.53L256.88,400.5z M251.89,395.51l-11.02,11.02h0L251.89,395.51L251.89,395.51z M245.41,389.02l-16.02,16.02l0,0
			L245.41,389.02L245.41,389.02z M243.91,387.52l-16.02,16.02l-0.01-0.01l16.02-16.02L243.91,387.52z M212.48,356.09l0.01,0.01
			l-16.02,16.02l0,0l0,0l-0.01-0.01L212.48,356.09z M194.96,370.61L194.96,370.61l16.02-16.02l0,0L194.96,370.61z M242.45,386.06
			l-16.02,16.02l-3.38-3.38l16.02-16.02L242.45,386.06z M237.62,381.23l-16.02,16.02l0,0L237.62,381.23L237.62,381.23z
			 M236.17,379.78l-16.02,16.02l-3.38-3.38l16.02-16.02L236.17,379.78z M231.34,374.95l-16.02,16.02l0,0L231.34,374.95
			L231.34,374.95z M229.89,373.5l-16.02,16.02l-3.38-3.38l16.02-16.02L229.89,373.5z M225.05,368.67l-16.02,16.02l0,0L225.05,368.67
			L225.05,368.67z M223.6,367.22l-16.02,16.02l-3.38-3.38l16.02-16.02L223.6,367.22z M218.77,362.38l-16.02,16.02l0,0L218.77,362.38
			L218.77,362.38z M217.32,360.93l-16.02,16.02l-3.38-3.38l16.02-16.02L217.32,360.93z M190.42,340.12l3.04-3.04l3.04,3.04
			l-3.04,3.04L190.42,340.12z M193.47,346.15l4.54-4.54l0,0L193.47,346.15L193.47,346.15z M188.93,341.62L188.93,341.62l4.54,4.54v0
			L188.93,341.62z M193.46,346.16L193.46,346.16L193.46,346.16L193.46,346.16L193.46,346.16z M183.93,346.61l3.49-3.49l6.03,6.03
			v0.01l0,0l0,0v-0.01l6.03-6.03l3.49,3.49l-9.53,9.53L183.93,346.61z M193.47,359.13l11.02-11.02l0,0L193.47,359.13L193.47,359.13z
			 M182.44,348.11L182.44,348.11l11.02,11.02v0L182.44,348.11z M193.46,359.13L193.46,359.13L193.46,359.13L193.46,359.13
			L193.46,359.13z M176.84,353.7l4.1-4.1l12.52,12.52v0.01l0,0l0,0v-0.01l12.52-12.52l4.1,4.1l-16.62,16.62L176.84,353.7z
			 M229.68,406.54l16.62-16.62l4.1,4.1l-12.52,12.52h-0.01l0,0l0,0h0.01l12.52,12.52l-4.1,4.1L229.68,406.54z M175.95,354.6
			L175.95,354.6l16.02,16.02l0,0L175.95,354.6z M229.39,408.03L229.39,408.03l16.02,16.02l0,0L229.39,408.03z M174.44,356.1
			l0.01-0.01l16.02,16.02l-0.01,0.01L174.44,356.1z M169.61,360.93l3.38-3.38l16.02,16.02l-3.38,3.38L169.61,360.93z M168.16,362.38
			L168.16,362.38l16.02,16.02l0,0L168.16,362.38z M163.32,367.22l3.38-3.38l16.02,16.02l-3.38,3.38L163.32,367.22z M161.88,368.67
			L161.88,368.67l16.02,16.02l0,0L161.88,368.67z M157.04,373.5l3.38-3.38l16.02,16.02l-3.38,3.38L157.04,373.5z M155.59,374.95
			L155.59,374.95l16.02,16.02l0,0L155.59,374.95z M150.76,379.78l3.38-3.38l16.02,16.02l-3.38,3.38L150.76,379.78z M149.31,381.23
			L149.31,381.23l16.02,16.02l0,0L149.31,381.23z M144.48,386.06l3.38-3.38l16.02,16.02l-3.38,3.38L144.48,386.06z M162.06,406.53
			l31.41-31.41l0,0l0,0l31.41,31.41l0,0l0,0l-31.41,31.41l0,0l0,0L162.06,406.53L162.06,406.53L162.06,406.53z M143.02,387.52
			l0.01-0.01l16.02,16.02l0,0l0,0l-0.01,0.01L143.02,387.52z M196.46,440.96l0.01-0.01l16.02,16.02l-0.01,0.01L196.46,440.96z
			 M141.52,389.02L141.52,389.02l16.02,16.02l0,0L141.52,389.02z M194.96,442.46L194.96,442.46l16.02,16.02l0,0L194.96,442.46z
			 M135.04,395.51L135.04,395.51l11.02,11.02h0L135.04,395.51z M146.06,406.54L146.06,406.54L146.06,406.54L146.06,406.54
			L146.06,406.54z M128.55,402L128.55,402l4.54,4.54h0L128.55,402z M133.09,406.54L133.09,406.54L133.09,406.54L133.09,406.54
			L133.09,406.54z M124.01,406.54l3.04-3.04l3.04,3.04l-3.04,3.04L124.01,406.54z M128.55,411.07l4.54-4.54h0L128.55,411.07
			L128.55,411.07z M130.04,412.57l6.03-6.03h0.01l0,0l0,0h-0.01l-6.03-6.03l3.49-3.49l9.53,9.53l-9.53,9.53L130.04,412.57z
			 M135.04,417.56l11.02-11.02h0L135.04,417.56L135.04,417.56z M136.53,419.06l12.52-12.52h0.01l0,0l0,0h-0.01l-12.52-12.52l4.1-4.1
			l16.62,16.62l-16.62,16.62L136.53,419.06z M141.52,424.05l16.02-16.02l0,0L141.52,424.05L141.52,424.05z M143.02,425.55
			l16.02-16.02l0.01,0.01l-16.02,16.02L143.02,425.55z M144.48,427.01l16.02-16.02l3.38,3.38l-16.02,16.02L144.48,427.01z
			 M149.31,431.84l16.02-16.02l0,0L149.31,431.84L149.31,431.84z M150.76,433.29l16.02-16.02l3.38,3.38l-16.02,16.02L150.76,433.29z
			 M155.59,438.12l16.02-16.02l0,0L155.59,438.12L155.59,438.12z M157.04,439.57l16.02-16.02l3.38,3.38l-16.02,16.02L157.04,439.57z
			 M161.88,444.41l16.02-16.02l0,0L161.88,444.41L161.88,444.41z M163.32,445.86l16.02-16.02l3.38,3.38l-16.02,16.02L163.32,445.86z
			 M168.16,450.69l16.02-16.02l0,0L168.16,450.69L168.16,450.69z M169.61,452.14l16.02-16.02l3.38,3.38l-16.02,16.02L169.61,452.14z
			"/>
		<circle cx="193.46" cy="406.54" r="5.56"/>
		<g>
			<circle style="fill:none;stroke:#000000;stroke-width:3;stroke-miterlimit:10;" cx="193.46" cy="303.17" r="15.56"/>
			<circle cx="193.46" cy="303.17" r="3.93"/>
		</g>
		<g>
			<path d="M189.86,272.12c0,3.51,1.37,6.68,3.6,9.05c2.23-2.36,3.6-5.54,3.6-9.05s-1.37-6.68-3.6-9.05
				C191.24,265.44,189.86,268.61,189.86,272.12z"/>
			<path d="M197.85,275.97c-2.48,2.48-3.75,5.7-3.85,8.94c3.25-0.1,6.47-1.37,8.94-3.85s3.75-5.7,3.85-8.94
				C203.54,272.22,200.32,273.49,197.85,275.97z"/>
			<path d="M189.08,275.97c2.48,2.48,3.75,5.7,3.85,8.94c-3.25-0.1-6.47-1.37-8.94-3.85c-2.48-2.48-3.75-5.7-3.85-8.94
				C183.39,272.22,186.6,273.49,189.08,275.97z"/>
		</g>
		<g>
			<g>
				<path d="M154.27,312.47c2.07,2.07,4.76,3.14,7.47,3.22c-0.08-2.71-1.15-5.4-3.22-7.47c-2.07-2.07-4.76-3.14-7.47-3.22
					C151.13,307.71,152.2,310.4,154.27,312.47z"/>
				<path d="M161.26,310.03c0,2.93,1.15,5.58,3.01,7.56c1.86-1.98,3.01-4.63,3.01-7.56s-1.15-5.58-3.01-7.56
					C162.41,304.45,161.26,307.1,161.26,310.03z"/>
				<path d="M156.08,315.21c2.93,0,5.58,1.15,7.56,3.01c-1.98,1.86-4.63,3.01-7.56,3.01c-2.93,0-5.58-1.15-7.56-3.01
					C150.5,316.36,153.15,315.21,156.08,315.21z"/>
			</g>
			<g>
				<path d="M134.64,332.1c2.07,2.07,4.76,3.14,7.47,3.22c-0.08-2.71-1.15-5.4-3.22-7.47c-2.07-2.07-4.76-3.14-7.47-3.22
					C131.51,327.34,132.57,330.03,134.64,332.1z"/>
				<path d="M141.63,329.66c0,2.93,1.15,5.58,3.01,7.56c1.86-1.98,3.01-4.63,3.01-7.56c0-2.93-1.15-5.58-3.01-7.56
					C142.78,324.07,141.63,326.73,141.63,329.66z"/>
				<path d="M136.46,334.83c2.93,0,5.58,1.15,7.56,3.01c-1.98,1.86-4.63,3.01-7.56,3.01s-5.58-1.15-7.56-3.01
					C130.87,335.98,133.53,334.83,136.46,334.83z"/>
			</g>
			<g>
				<path d="M115.02,351.72c2.07,2.07,4.76,3.14,7.47,3.22c-0.08-2.71-1.15-5.4-3.22-7.47c-2.07-2.07-4.76-3.14-7.47-3.22
					C111.88,346.96,112.95,349.65,115.02,351.72z"/>
				<path d="M122.01,349.28c0,2.93,1.15,5.58,3.01,7.56c1.86-1.98,3.01-4.63,3.01-7.56c0-2.93-1.15-5.58-3.01-7.56
					C123.16,343.7,122.01,346.35,122.01,349.28z"/>
				<path d="M116.83,354.46c2.93,0,5.58,1.15,7.56,3.01c-1.98,1.86-4.63,3.01-7.56,3.01c-2.93,0-5.58-1.15-7.56-3.01
					C111.25,355.61,113.9,354.46,116.83,354.46z"/>
			</g>
			<g>
				<path d="M95.39,371.35c2.07,2.07,4.76,3.14,7.47,3.22c-0.08-2.71-1.15-5.4-3.22-7.47c-2.07-2.07-4.76-3.14-7.47-3.22
					C92.25,366.59,93.32,369.28,95.39,371.35z"/>
				<path d="M102.38,368.91c0,2.93,1.15,5.58,3.01,7.56c1.86-1.98,3.01-4.63,3.01-7.56c0-2.93-1.15-5.58-3.01-7.56
					C103.53,363.33,102.38,365.98,102.38,368.91z"/>
				<path d="M97.2,374.09c2.93,0,5.58,1.15,7.56,3.01c-1.98,1.86-4.63,3.01-7.56,3.01c-2.93,0-5.58-1.15-7.56-3.01
					C91.62,375.23,94.28,374.09,97.2,374.09z"/>
			</g>
			
				<rect x="165.71" y="319.65" transform="matrix(-8.953301e-11 1 -1 -8.953301e-11 503.3375 153.9474)" style="fill:none;stroke:#000000;stroke-width:3;stroke-miterlimit:10;" width="17.98" height="17.98"/>
			
				<rect x="146.08" y="339.28" transform="matrix(-8.958363e-11 1 -1 -8.958363e-11 503.3375 193.1997)" style="fill:none;stroke:#000000;stroke-width:3;stroke-miterlimit:10;" width="17.98" height="17.98"/>
			
				<rect x="126.45" y="358.9" transform="matrix(-9.064589e-11 1 -1 -9.064589e-11 503.3375 232.452)" style="fill:none;stroke:#000000;stroke-width:3;stroke-miterlimit:10;" width="17.98" height="17.98"/>
			
				<rect x="106.83" y="378.53" transform="matrix(-8.842012e-11 1 -1 -8.842012e-11 503.3375 271.7043)" style="fill:none;stroke:#000000;stroke-width:3;stroke-miterlimit:10;" width="17.98" height="17.98"/>
		</g>
		<g>
			<circle style="fill:none;stroke:#000000;stroke-width:3;stroke-miterlimit:10;" cx="90.1" cy="406.54" r="15.56"/>
			<circle cx="90.1" cy="406.54" r="3.93"/>
		</g>
		<g>
			<path d="M59.05,410.14c3.51,0,6.68-1.37,9.05-3.6c-2.36-2.23-5.54-3.6-9.05-3.6s-6.68,1.37-9.05,3.6
				C52.36,408.76,55.54,410.14,59.05,410.14z"/>
			<path d="M62.9,402.15c2.48,2.48,5.7,3.75,8.94,3.85c-0.1-3.25-1.37-6.47-3.85-8.94c-2.48-2.48-5.7-3.75-8.94-3.85
				C59.14,396.46,60.42,399.68,62.9,402.15z"/>
			<path d="M62.9,410.92c2.48-2.48,5.7-3.75,8.94-3.85c-0.1,3.25-1.37,6.47-3.85,8.94c-2.48,2.48-5.7,3.75-8.94,3.85
				C59.14,416.61,60.42,413.4,62.9,410.92z"/>
		</g>
		<g>
			<g>
				<path d="M99.6,445.93c2.07-2.07,3.14-4.76,3.22-7.47c-2.71,0.08-5.4,1.15-7.47,3.22c-2.07,2.07-3.14,4.76-3.22,7.47
					C94.84,449.07,97.53,448,99.6,445.93z"/>
				<path d="M97.16,438.94c2.93,0,5.58-1.15,7.56-3.01c-1.98-1.86-4.63-3.01-7.56-3.01c-2.93,0-5.58,1.15-7.56,3.01
					C91.58,437.79,94.23,438.94,97.16,438.94z"/>
				<path d="M102.34,444.12c0-2.93,1.15-5.58,3.01-7.56c1.86,1.98,3.01,4.63,3.01,7.56c0,2.93-1.15,5.58-3.01,7.56
					C103.49,449.7,102.34,447.05,102.34,444.12z"/>
			</g>
			<g>
				<path d="M119.23,465.56c2.07-2.07,3.14-4.76,3.22-7.47c-2.71,0.08-5.4,1.15-7.47,3.22c-2.07,2.07-3.14,4.76-3.22,7.47
					C114.47,468.69,117.16,467.63,119.23,465.56z"/>
				<path d="M116.79,458.57c2.93,0,5.58-1.15,7.56-3.01c-1.98-1.86-4.63-3.01-7.56-3.01s-5.58,1.15-7.56,3.01
					C111.2,457.42,113.86,458.57,116.79,458.57z"/>
				<path d="M121.96,463.74c0-2.93,1.15-5.58,3.01-7.56c1.86,1.98,3.01,4.63,3.01,7.56s-1.15,5.58-3.01,7.56
					C123.11,469.33,121.96,466.67,121.96,463.74z"/>
			</g>
			<g>
				<path d="M138.85,485.18c2.07-2.07,3.14-4.76,3.22-7.47c-2.71,0.08-5.4,1.15-7.47,3.22c-2.07,2.07-3.14,4.76-3.22,7.47
					C134.09,488.32,136.78,487.25,138.85,485.18z"/>
				<path d="M136.41,478.19c2.93,0,5.58-1.15,7.56-3.01c-1.98-1.86-4.63-3.01-7.56-3.01c-2.93,0-5.58,1.15-7.56,3.01
					C130.83,477.04,133.48,478.19,136.41,478.19z"/>
				<path d="M141.59,483.37c0-2.93,1.15-5.58,3.01-7.56c1.86,1.98,3.01,4.63,3.01,7.56c0,2.93-1.15,5.58-3.01,7.56
					C142.74,488.95,141.59,486.3,141.59,483.37z"/>
			</g>
			<g>
				<path d="M158.48,504.81c2.07-2.07,3.14-4.76,3.22-7.47c-2.71,0.08-5.4,1.15-7.47,3.22s-3.14,4.76-3.22,7.47
					C153.72,507.95,156.41,506.88,158.48,504.81z"/>
				<path d="M156.04,497.82c2.93,0,5.58-1.15,7.56-3.01c-1.98-1.86-4.63-3.01-7.56-3.01c-2.93,0-5.58,1.15-7.56,3.01
					C150.45,496.67,153.11,497.82,156.04,497.82z"/>
				<path d="M161.21,503c0-2.93,1.15-5.58,3.01-7.56c1.86,1.98,3.01,4.63,3.01,7.56c0,2.93-1.15,5.58-3.01,7.56
					C162.36,508.58,161.21,505.92,161.21,503z"/>
			</g>
			
				<rect x="106.78" y="416.52" style="fill:none;stroke:#000000;stroke-width:3;stroke-miterlimit:10;" width="17.98" height="17.98"/>
			
				<rect x="126.41" y="436.14" style="fill:none;stroke:#000000;stroke-width:3;stroke-miterlimit:10;" width="17.98" height="17.98"/>
			
				<rect x="146.03" y="455.77" style="fill:none;stroke:#000000;stroke-width:3;stroke-miterlimit:10;" width="17.98" height="17.98"/>
			
				<rect x="165.66" y="475.39" style="fill:none;stroke:#000000;stroke-width:3;stroke-miterlimit:10;" width="17.98" height="17.98"/>
		</g>
		<g>
			<circle style="fill:none;stroke:#000000;stroke-width:3;stroke-miterlimit:10;" cx="193.46" cy="509.9" r="15.56"/>
			<circle cx="193.46" cy="509.9" r="3.93"/>
		</g>
		<g>
			<path d="M197.07,540.95c0-3.51-1.37-6.68-3.6-9.05c-2.23,2.36-3.6,5.54-3.6,9.05c0,3.51,1.37,6.68,3.6,9.05
				C195.69,547.64,197.07,544.46,197.07,540.95z"/>
			<path d="M189.08,537.1c2.48-2.48,3.75-5.7,3.85-8.94c-3.25,0.1-6.47,1.37-8.94,3.85c-2.48,2.48-3.75,5.7-3.85,8.94
				C183.39,540.86,186.6,539.58,189.08,537.1z"/>
			<path d="M197.85,537.1c-2.48-2.48-3.75-5.7-3.85-8.94c3.25,0.1,6.47,1.37,8.94,3.85s3.75,5.7,3.85,8.94
				C203.54,540.86,200.32,539.58,197.85,537.1z"/>
		</g>
		<g>
			<g>
				<path d="M232.66,500.6c-2.07-2.07-4.76-3.14-7.47-3.22c0.08,2.71,1.15,5.4,3.22,7.47c2.07,2.07,4.76,3.14,7.47,3.22
					C235.8,505.36,234.73,502.67,232.66,500.6z"/>
				<path d="M225.67,503.04c0-2.93-1.15-5.58-3.01-7.56c-1.86,1.98-3.01,4.63-3.01,7.56s1.15,5.58,3.01,7.56
					C224.52,508.62,225.67,505.97,225.67,503.04z"/>
				<path d="M230.85,497.86c-2.93,0-5.58-1.15-7.56-3.01c1.98-1.86,4.63-3.01,7.56-3.01c2.93,0,5.58,1.15,7.56,3.01
					C236.43,496.72,233.77,497.86,230.85,497.86z"/>
			</g>
			<g>
				<path d="M252.29,480.97c-2.07-2.07-4.76-3.14-7.47-3.22c0.08,2.71,1.15,5.4,3.22,7.47c2.07,2.07,4.76,3.14,7.47,3.22
					C255.42,485.73,254.36,483.04,252.29,480.97z"/>
				<path d="M245.29,483.41c0-2.93-1.15-5.58-3.01-7.56c-1.86,1.98-3.01,4.63-3.01,7.56c0,2.93,1.15,5.58,3.01,7.56
					C244.15,489,245.29,486.34,245.29,483.41z"/>
				<path d="M250.47,478.24c-2.93,0-5.58-1.15-7.56-3.01c1.98-1.86,4.63-3.01,7.56-3.01s5.58,1.15,7.56,3.01
					C256.06,477.09,253.4,478.24,250.47,478.24z"/>
			</g>
			<g>
				<path d="M271.91,461.35c-2.07-2.07-4.76-3.14-7.47-3.22c0.08,2.71,1.15,5.4,3.22,7.47c2.07,2.07,4.76,3.14,7.47,3.22
					C275.05,466.11,273.98,463.42,271.91,461.35z"/>
				<path d="M264.92,463.79c0-2.93-1.15-5.58-3.01-7.56c-1.86,1.98-3.01,4.63-3.01,7.56c0,2.93,1.15,5.58,3.01,7.56
					C263.77,469.37,264.92,466.72,264.92,463.79z"/>
				<path d="M270.1,458.61c-2.93,0-5.58-1.15-7.56-3.01c1.98-1.86,4.63-3.01,7.56-3.01c2.93,0,5.58,1.15,7.56,3.01
					C275.68,457.46,273.03,458.61,270.1,458.61z"/>
			</g>
			<g>
				<path d="M291.54,441.72c-2.07-2.07-4.76-3.14-7.47-3.22c0.08,2.71,1.15,5.4,3.22,7.47c2.07,2.07,4.76,3.14,7.47,3.22
					C294.67,446.48,293.61,443.79,291.54,441.72z"/>
				<path d="M284.55,444.16c0-2.93-1.15-5.58-3.01-7.56c-1.86,1.98-3.01,4.63-3.01,7.56c0,2.93,1.15,5.58,3.01,7.56
					C283.4,449.75,284.55,447.09,284.55,444.16z"/>
				<path d="M289.72,438.99c-2.93,0-5.58-1.15-7.56-3.01c1.98-1.86,4.63-3.01,7.56-3.01c2.93,0,5.58,1.15,7.56,3.01
					C295.31,437.84,292.65,438.99,289.72,438.99z"/>
			</g>
			
				<rect x="203.24" y="475.44" transform="matrix(1.796732e-10 -1 1 1.796732e-10 -272.1952 696.6625)" style="fill:none;stroke:#000000;stroke-width:3;stroke-miterlimit:10;" width="17.98" height="17.98"/>
			
				<rect x="222.87" y="455.81" transform="matrix(1.790662e-10 -1 1 1.790662e-10 -232.9429 696.6625)" style="fill:none;stroke:#000000;stroke-width:3;stroke-miterlimit:10;" width="17.98" height="17.98"/>
			
				<rect x="242.5" y="436.19" transform="matrix(1.790662e-10 -1 1 1.790662e-10 -193.6906 696.6625)" style="fill:none;stroke:#000000;stroke-width:3;stroke-miterlimit:10;" width="17.98" height="17.98"/>
			
				<rect x="262.12" y="416.56" transform="matrix(1.796226e-10 -1 1 1.796226e-10 -154.4383 696.6625)" style="fill:none;stroke:#000000;stroke-width:3;stroke-miterlimit:10;" width="17.98" height="17.98"/>
		</g>
		<g>
			<circle style="fill:none;stroke:#000000;stroke-width:3;stroke-miterlimit:10;" cx="296.83" cy="406.54" r="15.56"/>
			<circle cx="296.83" cy="406.54" r="3.93"/>
		</g>
		<g>
			<path d="M327.88,402.93c-3.51,0-6.68,1.37-9.05,3.6c2.36,2.23,5.54,3.6,9.05,3.6s6.68-1.37,9.05-3.6
				C334.56,404.31,331.39,402.93,327.88,402.93z"/>
			<path d="M324.03,410.92c-2.48-2.48-5.7-3.75-8.94-3.85c0.1,3.25,1.37,6.47,3.85,8.94s5.7,3.75,8.94,3.85
				C327.78,416.61,326.51,413.4,324.03,410.92z"/>
			<path d="M324.03,402.15c-2.48,2.48-5.7,3.75-8.94,3.85c0.1-3.25,1.37-6.47,3.85-8.94s5.7-3.75,8.94-3.85
				C327.78,396.46,326.51,399.68,324.03,402.15z"/>
		</g>
		<g>
			<g>
				<path d="M287.33,367.14c-2.07,2.07-3.14,4.76-3.22,7.47c2.71-0.08,5.4-1.15,7.47-3.22c2.07-2.07,3.14-4.76,3.22-7.47
					C292.09,364,289.4,365.07,287.33,367.14z"/>
				<path d="M289.77,374.13c-2.93,0-5.58,1.15-7.56,3.01c1.98,1.86,4.63,3.01,7.56,3.01s5.58-1.15,7.56-3.01
					C295.35,375.28,292.7,374.13,289.77,374.13z"/>
				<path d="M284.59,368.95c0,2.93-1.15,5.58-3.01,7.56c-1.86-1.98-3.01-4.63-3.01-7.56c0-2.93,1.15-5.58,3.01-7.56
					C283.44,363.37,284.59,366.03,284.59,368.95z"/>
			</g>
			<g>
				<path d="M267.7,347.51c-2.07,2.07-3.14,4.76-3.22,7.47c2.71-0.08,5.4-1.15,7.47-3.22c2.07-2.07,3.14-4.76,3.22-7.47
					C272.46,344.38,269.77,345.44,267.7,347.51z"/>
				<path d="M270.14,354.5c-2.93,0-5.58,1.15-7.56,3.01c1.98,1.86,4.63,3.01,7.56,3.01c2.93,0,5.58-1.15,7.56-3.01
					C275.73,355.65,273.07,354.5,270.14,354.5z"/>
				<path d="M264.97,349.33c0,2.93-1.15,5.58-3.01,7.56c-1.86-1.98-3.01-4.63-3.01-7.56s1.15-5.58,3.01-7.56
					C263.82,343.74,264.97,346.4,264.97,349.33z"/>
			</g>
			<g>
				<path d="M248.07,327.89c-2.07,2.07-3.14,4.76-3.22,7.47c2.71-0.08,5.4-1.15,7.47-3.22c2.07-2.07,3.14-4.76,3.22-7.47
					C252.83,324.75,250.15,325.82,248.07,327.89z"/>
				<path d="M250.52,334.88c-2.93,0-5.58,1.15-7.56,3.01c1.98,1.86,4.63,3.01,7.56,3.01c2.93,0,5.58-1.15,7.56-3.01
					C256.1,336.03,253.45,334.88,250.52,334.88z"/>
				<path d="M245.34,329.7c0,2.93-1.15,5.58-3.01,7.56c-1.86-1.98-3.01-4.63-3.01-7.56c0-2.93,1.15-5.58,3.01-7.56
					C244.19,324.12,245.34,326.77,245.34,329.7z"/>
			</g>
			<g>
				<path d="M228.45,308.26c-2.07,2.07-3.14,4.76-3.22,7.47c2.71-0.08,5.4-1.15,7.47-3.22c2.07-2.07,3.14-4.76,3.22-7.47
					C233.21,305.13,230.52,306.19,228.45,308.26z"/>
				<path d="M230.89,315.25c-2.93,0-5.58,1.15-7.56,3.01c1.98,1.86,4.63,3.01,7.56,3.01c2.93,0,5.58-1.15,7.56-3.01
					C236.47,316.4,233.82,315.25,230.89,315.25z"/>
				<path d="M225.71,310.08c0,2.93-1.15,5.58-3.01,7.56c-1.86-1.98-3.01-4.63-3.01-7.56c0-2.93,1.15-5.58,3.01-7.56
					C224.57,304.49,225.71,307.15,225.71,310.08z"/>
			</g>
			
				<rect x="262.17" y="378.58" transform="matrix(-1 -2.247936e-10 2.247936e-10 -1 542.3142 775.1318)" style="fill:none;stroke:#000000;stroke-width:3;stroke-miterlimit:10;" width="17.98" height="17.98"/>
			
				<rect x="242.54" y="358.95" transform="matrix(-1 -2.245916e-10 2.245916e-10 -1 503.062 735.8795)" style="fill:none;stroke:#000000;stroke-width:3;stroke-miterlimit:10;" width="17.98" height="17.98"/>
			
				<rect x="222.91" y="339.32" transform="matrix(-1 -2.247936e-10 2.247936e-10 -1 463.8097 696.6272)" style="fill:none;stroke:#000000;stroke-width:3;stroke-miterlimit:10;" width="17.98" height="17.98"/>
			
				<rect x="203.29" y="319.7" transform="matrix(-1 -2.245916e-10 2.245916e-10 -1 424.5574 657.3749)" style="fill:none;stroke:#000000;stroke-width:3;stroke-miterlimit:10;" width="17.98" height="17.98"/>
		</g>
	</g>
</g>
<g>
</g>
<g>
</g>
<g>
</g>
<g>
</g>
<g>
</g>
<g>
</g>
<g>
</g>
<g>
</g>
<g>
</g>
<g>
</g>
<g>
</g>
<g>
</g>
<g>
</g>
<g>
</g>
<g>
</g>
</svg>
