<?xml version="1.0" encoding="utf-8"?>
<!-- Generator: Adobe Illustrator 27.2.0, SVG Export Plug-In . SVG Version: 6.00 Build 0)  -->
<svg version="1.1" id="Layer_1" xmlns="http://www.w3.org/2000/svg" xmlns:xlink="http://www.w3.org/1999/xlink" x="0px" y="0px"
	 viewBox="0 0 800 600" style="enable-background:new 0 0 800 600;" xml:space="preserve">
<g>
	<g>
		<g>
			<g>
				<g>
					<polygon points="214.35,-74.73 214.35,-71.73 209.88,-71.73 209.88,-60.72 197.99,-60.72 197.99,-53.29 209.48,-53.29 
						209.48,-25.3 187.44,-47.33 181.92,-41.81 206.74,-16.99 206.74,2.54 172.15,-32.04 166.94,-26.82 210.63,16.87 187.29,40.2 
						170.5,23.41 179.16,14.75 185.79,21.37 190.56,16.6 179.16,5.2 166.08,18.28 151.23,3.43 159.19,-4.52 164.77,1.07 
						169.9,-4.06 157.95,-16.01 139.22,2.71 214.35,77.84 214.35,82.09 134.98,2.71 157.95,-20.26 174.14,-4.06 164.77,5.31 
						159.19,-0.28 155.47,3.43 166.08,14.04 179.16,0.96 194.81,16.6 185.79,25.62 179.16,18.99 174.74,23.41 187.29,35.96 
						206.38,16.87 162.69,-26.82 172.15,-36.28 203.74,-4.7 203.74,-15.75 177.68,-41.81 187.44,-51.57 206.48,-32.54 
						206.48,-50.29 194.99,-50.29 194.99,-63.72 206.88,-63.72 206.88,-74.73 					"/>
					<polygon points="214.35,-74.73 214.35,-71.73 218.83,-71.73 218.83,-60.72 230.72,-60.72 230.72,-53.29 219.23,-53.29 
						219.23,-25.3 241.27,-47.33 246.79,-41.81 221.97,-16.99 221.97,2.54 256.56,-32.04 261.77,-26.82 218.08,16.87 241.42,40.2 
						258.21,23.41 249.55,14.75 242.92,21.37 238.15,16.6 249.55,5.2 262.63,18.28 277.48,3.43 269.52,-4.52 263.94,1.07 
						258.81,-4.06 270.76,-16.01 289.49,2.71 214.35,77.84 214.35,82.09 293.73,2.71 270.76,-20.26 254.57,-4.06 263.94,5.31 
						269.52,-0.28 273.24,3.43 262.63,14.04 249.55,0.96 233.9,16.6 242.92,25.62 249.55,18.99 253.97,23.41 241.42,35.96 
						222.32,16.87 266.02,-26.82 256.56,-36.28 224.97,-4.7 224.97,-15.75 251.03,-41.81 241.27,-51.57 222.23,-32.54 
						222.23,-50.29 233.72,-50.29 233.72,-63.72 221.83,-63.72 221.83,-74.73 					"/>
					
						<rect x="202.35" y="33.74" transform="matrix(-0.7071 0.7071 -0.7071 -0.7071 398.2704 -73.4846)" style="fill:none;stroke:#000000;stroke-width:3;stroke-miterlimit:10;" width="24" height="24"/>
				</g>
			</g>
		</g>
		<g>
			<g>
				<g>
					<polygon points="214.35,244.21 214.35,241.21 209.88,241.21 209.88,230.19 197.99,230.19 197.99,222.76 209.48,222.76 
						209.48,194.77 187.44,216.81 181.92,211.29 206.74,186.47 206.74,166.93 172.15,201.52 166.94,196.3 210.63,152.61 
						187.29,129.28 170.5,146.07 179.16,154.73 185.79,148.1 190.56,152.88 179.16,164.28 166.08,151.2 151.23,166.05 159.19,174 
						164.77,168.41 169.9,173.54 157.95,185.49 139.22,166.77 214.35,91.63 214.35,87.39 134.98,166.77 157.95,189.73 
						174.14,173.54 164.77,164.17 159.19,169.76 155.47,166.05 166.08,155.44 179.16,168.52 194.81,152.88 185.79,143.86 
						179.16,150.49 174.74,146.07 187.29,133.52 206.38,152.61 162.69,196.3 172.15,205.76 203.74,174.18 203.74,185.22 
						177.68,211.29 187.44,221.05 206.48,202.02 206.48,219.76 194.99,219.76 194.99,233.19 206.88,233.19 206.88,244.21 					"/>
					<polygon points="214.35,244.21 214.35,241.21 218.83,241.21 218.83,230.19 230.72,230.19 230.72,222.76 219.23,222.76 
						219.23,194.77 241.27,216.81 246.79,211.29 221.97,186.47 221.97,166.93 256.56,201.52 261.77,196.3 218.08,152.61 
						241.42,129.28 258.21,146.07 249.55,154.73 242.92,148.1 238.15,152.88 249.55,164.28 262.63,151.2 277.48,166.05 269.52,174 
						263.94,168.41 258.81,173.54 270.76,185.49 289.49,166.77 214.35,91.63 214.35,87.39 293.73,166.77 270.76,189.73 
						254.57,173.54 263.94,164.17 269.52,169.76 273.24,166.05 262.63,155.44 249.55,168.52 233.9,152.88 242.92,143.86 
						249.55,150.49 253.97,146.07 241.42,133.52 222.32,152.61 266.02,196.3 256.56,205.76 224.97,174.18 224.97,185.22 
						251.03,211.29 241.27,221.05 222.23,202.02 222.23,219.76 233.72,219.76 233.72,233.19 221.83,233.19 221.83,244.21 					"/>
					
						<rect x="202.35" y="111.74" transform="matrix(-0.7071 -0.7071 0.7071 -0.7071 278.4318 362.8005)" style="fill:none;stroke:#000000;stroke-width:3;stroke-miterlimit:10;" width="24" height="24"/>
				</g>
			</g>
		</g>
		<g>
			<g>
				<g>
					<polygon points="378.99,85.04 375.99,85.04 375.99,89.52 364.98,89.52 364.98,101.41 357.55,101.41 357.55,89.92 329.56,89.92 
						351.59,111.95 346.07,117.47 321.25,92.65 301.72,92.65 336.3,127.24 331.08,132.46 287.39,88.76 264.06,112.1 280.85,128.89 
						289.51,120.23 282.89,113.6 287.66,108.83 299.06,120.23 285.98,133.31 300.83,148.16 308.78,140.21 303.19,134.62 
						308.32,129.49 320.27,141.44 301.55,160.17 226.42,85.04 222.17,85.04 301.55,164.41 324.52,141.44 308.32,125.25 
						298.95,134.62 304.54,140.21 300.83,143.92 290.22,133.31 303.3,120.23 287.66,104.59 278.64,113.6 285.27,120.23 
						280.85,124.65 268.3,112.1 287.39,93.01 331.08,136.7 340.54,127.24 308.96,95.65 320.01,95.65 346.07,121.72 355.83,111.95 
						336.8,92.92 354.55,92.92 354.55,104.41 367.98,104.41 367.98,92.52 378.99,92.52 					"/>
					<polygon points="378.99,85.04 375.99,85.04 375.99,80.56 364.98,80.56 364.98,68.67 357.55,68.67 357.55,80.16 329.56,80.16 
						351.59,58.12 346.07,52.6 321.25,77.42 301.72,77.42 336.3,42.83 331.08,37.62 287.39,81.31 264.06,57.98 280.85,41.18 
						289.51,49.84 282.89,56.47 287.66,61.25 299.06,49.84 285.98,36.76 300.83,21.91 308.78,29.87 303.19,35.46 308.32,40.58 
						320.27,28.63 301.55,9.9 226.42,85.04 222.17,85.04 301.55,5.66 324.52,28.63 308.32,44.82 298.95,35.46 304.54,29.87 
						300.83,26.15 290.22,36.76 303.3,49.84 287.66,65.49 278.64,56.47 285.27,49.84 280.85,45.42 268.3,57.98 287.39,77.07 
						331.08,33.38 340.54,42.83 308.96,74.42 320.01,74.42 346.07,48.36 355.83,58.12 336.8,77.16 354.55,77.16 354.55,65.67 
						367.98,65.67 367.98,77.56 378.99,77.56 					"/>
					
						<rect x="246.52" y="73.04" transform="matrix(-0.7071 0.7071 -0.7071 -0.7071 501.4474 -37.633)" style="fill:none;stroke:#000000;stroke-width:3;stroke-miterlimit:10;" width="24" height="24"/>
				</g>
			</g>
		</g>
		<g>
			<g>
				<g>
					<polygon points="50,85.04 53,85.04 53,89.52 64.02,89.52 64.02,101.41 71.45,101.41 71.45,89.92 99.44,89.92 77.4,111.95 
						82.92,117.47 107.74,92.65 127.28,92.65 92.69,127.24 97.91,132.46 141.6,88.76 164.93,112.1 148.14,128.89 139.48,120.23 
						146.11,113.6 141.33,108.83 129.93,120.23 143.01,133.31 128.16,148.16 120.21,140.21 125.8,134.62 120.67,129.49 
						108.72,141.44 127.44,160.17 202.58,85.04 206.82,85.04 127.44,164.41 104.48,141.44 120.67,125.25 130.04,134.62 
						124.45,140.21 128.16,143.92 138.77,133.31 125.69,120.23 141.33,104.59 150.35,113.6 143.72,120.23 148.14,124.65 
						160.69,112.1 141.6,93.01 97.91,136.7 88.45,127.24 120.03,95.65 108.99,95.65 82.92,121.72 73.16,111.95 92.19,92.92 
						74.45,92.92 74.45,104.41 61.02,104.41 61.02,92.52 50,92.52 					"/>
					<polygon points="50,85.04 53,85.04 53,80.56 64.02,80.56 64.02,68.67 71.45,68.67 71.45,80.16 99.44,80.16 77.4,58.12 
						82.92,52.6 107.74,77.42 127.28,77.42 92.69,42.83 97.91,37.62 141.6,81.31 164.93,57.98 148.14,41.18 139.48,49.84 
						146.11,56.47 141.33,61.25 129.93,49.84 143.01,36.76 128.16,21.91 120.21,29.87 125.8,35.46 120.67,40.58 108.72,28.63 
						127.44,9.9 202.58,85.04 206.82,85.04 127.44,5.66 104.48,28.63 120.67,44.82 130.04,35.46 124.45,29.87 128.16,26.15 
						138.77,36.76 125.69,49.84 141.33,65.49 150.35,56.47 143.72,49.84 148.14,45.42 160.69,57.98 141.6,77.07 97.91,33.38 
						88.45,42.83 120.03,74.42 108.99,74.42 82.92,48.36 73.16,58.12 92.19,77.16 74.45,77.16 74.45,65.67 61.02,65.67 61.02,77.56 
						50,77.56 					"/>
					
						<rect x="158.47" y="73.04" transform="matrix(0.7071 0.7071 -0.7071 0.7071 110.0608 -95.6369)" style="fill:none;stroke:#000000;stroke-width:3;stroke-miterlimit:10;" width="24" height="24"/>
				</g>
			</g>
		</g>
	</g>
	<g>
		<g>
			<g>
				<g>
					<polygon points="294.61,393.18 294.61,396.18 299.08,396.18 299.08,407.2 310.98,407.2 310.98,414.63 299.48,414.63 
						299.48,442.62 321.52,420.58 327.04,426.11 302.22,450.93 302.22,470.46 336.81,435.87 342.02,441.09 298.33,484.78 
						321.67,508.11 338.46,491.32 329.8,482.66 323.17,489.29 318.4,484.51 329.8,473.11 342.88,486.19 357.73,471.35 
						349.77,463.39 344.19,468.98 339.06,463.85 351.01,451.9 369.74,470.63 294.61,545.76 294.61,550 373.98,470.63 351.01,447.66 
						334.82,463.85 344.19,473.22 349.77,467.63 353.49,471.35 342.88,481.95 329.8,468.87 314.15,484.51 323.17,493.53 
						329.8,486.9 334.22,491.32 321.67,503.87 302.58,484.78 346.27,441.09 336.81,431.63 305.22,463.21 305.22,452.17 
						331.28,426.11 321.52,416.34 302.48,435.37 302.48,417.63 313.98,417.63 313.98,404.2 302.08,404.2 302.08,393.18 					"/>
					<polygon points="294.61,393.18 294.61,396.18 290.13,396.18 290.13,407.2 278.24,407.2 278.24,414.63 289.73,414.63 
						289.73,442.62 267.69,420.58 262.17,426.11 286.99,450.93 286.99,470.46 252.4,435.87 247.19,441.09 290.88,484.78 
						267.54,508.11 250.75,491.32 259.41,482.66 266.04,489.29 270.81,484.51 259.41,473.11 246.33,486.19 231.48,471.35 
						239.44,463.39 245.02,468.98 250.15,463.85 238.2,451.9 219.47,470.63 294.61,545.76 294.61,550 215.23,470.63 238.2,447.66 
						254.39,463.85 245.02,473.22 239.44,467.63 235.72,471.35 246.33,481.95 259.41,468.87 275.06,484.51 266.04,493.53 
						259.41,486.9 254.99,491.32 267.54,503.87 286.64,484.78 242.94,441.09 252.4,431.63 283.99,463.21 283.99,452.17 
						257.93,426.11 267.69,416.34 286.73,435.37 286.73,417.63 275.24,417.63 275.24,404.2 287.13,404.2 287.13,393.18 					"/>
					
						<rect x="282.61" y="501.66" transform="matrix(0.7071 0.7071 -0.7071 0.7071 449.4972 -57.8715)" style="fill:none;stroke:#000000;stroke-width:3;stroke-miterlimit:10;" width="24" height="24"/>
				</g>
				<g>
					<g>
						<path d="M309.87,280.48V268.6h-8.86v-8.88h-1.33v-0.02h-5.08v3h3.41v8.04h-3.41v7.42H298v8.19h0v3h0.02v6.6h-3.41v7.42H298
							v8.1h0v3h0.02v6.69h-3.41v7.42H298v8.02h0v3h0.02v6.78h-3.41v7.42H298v7.93h0v3h0.02v6.87H298v0.01h-3.39v7.42H298v7.84h-3.39
							v3H301v-8.88h8.88V369.1h-8.86v-10.75H301v-2.5h8.88v-11.88h-8.86v-10.75H301v-2.5h8.88v-11.88h-8.86V308.1H301v-2.5h8.88
							v-11.88h-8.86v-10.75H301v-2.5H309.87z M306.87,372.1v5.88h-8.5v-5.88H306.87z M306.87,346.98v5.88h-8.5v-5.88H306.87z
							 M306.87,321.85v5.88h-8.5v-5.88H306.87z M306.87,296.73v5.88h-8.5v-5.88H306.87z M298.37,277.48v-5.88h8.5v5.88H298.37z"/>
						<path d="M288.21,280.48v2.5h-0.02v10.75h-8.86v11.88h8.88v2.5h-0.02v10.75h-8.86v11.88h8.88v2.5h-0.02v10.75h-8.86v11.88h8.88
							v2.5h-0.02v10.75h-8.86v11.88h8.88v8.88h6.39v-3h-3.39v-7.84h3.39v-7.42h-3.39v-0.01h-0.02v-6.87h0.02v-3h0v-7.93h3.39v-7.42
							h-3.41v-6.78h0.02v-3h0v-8.02h3.39v-7.42h-3.41v-6.69h0.02v-3h0v-8.1h3.39v-7.42h-3.41v-6.6h0.02v-3h0v-8.19h3.39v-7.42h-3.41
							v-8.04h3.41v-3h-5.08v0.02h-1.33v8.88h-8.86v11.88H288.21z M290.84,372.1v5.88h-8.5v-5.88H290.84z M290.84,346.98v5.88h-8.5
							v-5.88H290.84z M290.84,321.85v5.88h-8.5v-5.88H290.84z M290.84,296.73v5.88h-8.5v-5.88H290.84z M282.34,277.48v-5.88h8.5
							v5.88H282.34z"/>
					</g>
					<g>
						<g>
							<line style="stroke:#000000;stroke-width:3;stroke-miterlimit:10;" x1="323.39" y1="419.77" x2="323.39" y2="280.91"/>
							<circle style="stroke:#000000;stroke-width:3;stroke-miterlimit:10;" cx="323.39" cy="279.64" r="2.88"/>
						</g>
						<g>
							<line style="stroke:#000000;stroke-width:3;stroke-miterlimit:10;" x1="308.29" y1="270.91" x2="308.29" y2="235.2"/>
							<path style="stroke:#000000;stroke-width:3;stroke-miterlimit:10;" d="M311.16,233.93c0,1.59-1.29,2.88-2.88,2.88
								c-1.59,0-2.88-1.29-2.88-2.88s1.29-2.88,2.88-2.88C309.87,231.05,311.16,232.34,311.16,233.93z"/>
						</g>
					</g>
					<g>
						<g>
							<line style="stroke:#000000;stroke-width:3;stroke-miterlimit:10;" x1="265.82" y1="419.77" x2="265.82" y2="280.91"/>
							<circle style="stroke:#000000;stroke-width:3;stroke-miterlimit:10;" cx="265.82" cy="279.64" r="2.88"/>
						</g>
						<g>
							<line style="stroke:#000000;stroke-width:3;stroke-miterlimit:10;" x1="280.92" y1="270.91" x2="280.92" y2="235.2"/>
							<circle style="stroke:#000000;stroke-width:3;stroke-miterlimit:10;" cx="280.92" cy="233.93" r="2.88"/>
						</g>
					</g>
					<g>
						<line style="stroke:#000000;stroke-width:3;stroke-miterlimit:10;" x1="294.61" y1="261.5" x2="294.61" y2="225.78"/>
						<circle style="stroke:#000000;stroke-width:3;stroke-miterlimit:10;" cx="294.61" cy="224.51" r="2.88"/>
					</g>
				</g>
			</g>
			<g>
				<line style="stroke:#000000;stroke-width:3;stroke-miterlimit:10;" x1="238.24" y1="449.91" x2="238.24" y2="300.87"/>
				<circle style="stroke:#000000;stroke-width:3;stroke-miterlimit:10;" cx="238.24" cy="299.6" r="2.88"/>
			</g>
			<g>
				<line style="stroke:#000000;stroke-width:3;stroke-miterlimit:10;" x1="351.06" y1="449.91" x2="351.06" y2="300.87"/>
				<circle style="stroke:#000000;stroke-width:3;stroke-miterlimit:10;" cx="351.06" cy="299.6" r="2.88"/>
			</g>
			<g>
				<g>
					<polygon points="237.55,519.21 253.74,535.41 244.38,544.78 238.79,539.19 235.07,542.9 242.17,550 237.93,550 230.83,542.9 
						238.79,534.95 244.38,540.54 249.5,535.41 237.55,523.46 218.82,542.18 226.64,550 222.4,550 214.58,542.18 					"/>
					<polygon points="268.34,550 264.09,550 258.76,544.67 253.43,550 249.19,550 258.76,540.43 					"/>
					<polygon points="280.7,550 214.5,483.79 214.5,479.55 284.95,550 					"/>
					<polygon points="214.5,534.38 214.5,530.14 229.34,515.29 214.5,500.44 214.5,496.2 233.59,515.29 					"/>
				</g>
				<path d="M220.89,468.1v-8.88h8.88v-11.88h-8.86V436.6h-0.02v-2.5h8.88v-11.88h-8.86v-10.75h-0.02v-2.5h8.88V397.1h-8.86v-10.75
					h-0.02v-2.5h8.88v-11.88h-8.86v-10.75h-0.02v-2.5h8.88v-11.88h-0.09v-30.58c1.67-0.62,2.88-2.21,2.88-4.09
					c0-2.41-1.96-4.38-4.38-4.38s-4.38,1.96-4.38,4.38c0,1.88,1.2,3.48,2.88,4.09v30.58h-5.77v-8.88h-1.33v-0.02h-3.58v-31.1
					c1.67-0.62,2.88-2.21,2.88-4.09c0-2.41-1.96-4.37-4.37-4.37v42.57h3.41v8.04h-3.41v7.42h3.39v8.19h0v3h0.02v6.6h-3.41v7.42h3.39
					v8.1h0v3h0.02v6.69h-3.41v7.42h3.39v8.02h0v3h0.02v6.78h-3.41v7.42h3.39v7.93h0v3h0.02v6.87h-0.02v0.01h-3.39v7.42h3.39v7.84
					h-3.39v3H220.89z M218.26,355.72v-5.88h8.5v5.88H218.26z M218.26,380.85v-5.88h8.5v5.88H218.26z M218.26,405.97v-5.88h8.5v5.88
					H218.26z M218.26,431.1v-5.88h8.5v5.88H218.26z M218.26,456.22v-5.88h8.5v5.88H218.26z"/>
			</g>
			<g>
				<g>
					<polygon points="351.66,519.21 335.47,535.41 344.84,544.78 350.42,539.19 354.14,542.9 347.04,550 351.28,550 358.38,542.9 
						350.42,534.95 344.84,540.54 339.71,535.41 351.66,523.46 370.39,542.18 362.57,550 366.81,550 374.63,542.18 					"/>
					<polygon points="320.88,550 325.12,550 330.45,544.67 335.78,550 340.02,550 330.45,540.43 					"/>
					<polygon points="308.51,550 374.71,483.79 374.71,479.55 304.27,550 					"/>
					<polygon points="374.71,534.38 374.71,530.14 359.87,515.29 374.71,500.44 374.71,496.2 355.62,515.29 					"/>
				</g>
				<path d="M374.72,468.1v-3h-3.39v-7.84h3.39v-7.42h-3.39v-0.01h-0.02v-6.87h0.02v-3h0v-7.93h3.39v-7.42h-3.41v-6.78h0.02v-3h0
					v-8.02h3.39v-7.42h-3.41v-6.69h0.02v-3h0v-8.1h3.39v-7.42h-3.41v-6.6h0.02v-3h0v-8.19h3.39v-7.42h-3.41v-8.04h3.41v-42.57
					c-2.41,0-4.37,1.96-4.37,4.37c0,1.88,1.2,3.48,2.88,4.09v31.1h-3.58v0.02h-1.33v8.88h-5.77v-30.58
					c1.67-0.62,2.88-2.21,2.88-4.09c0-2.41-1.96-4.38-4.38-4.38s-4.38,1.96-4.38,4.38c0,1.88,1.2,3.48,2.88,4.09v30.58h-0.09v11.88
					h8.88v2.5h-0.02v10.75h-8.86v11.88h8.88v2.5h-0.02v10.75h-8.86v11.88h8.88v2.5h-0.02v10.75h-8.86v11.88h8.88v2.5h-0.02v10.75
					h-8.86v11.88h8.88v8.88H374.72z M362.45,355.72v-5.88h8.5v5.88H362.45z M362.45,380.85v-5.88h8.5v5.88H362.45z M362.45,405.97
					v-5.88h8.5v5.88H362.45z M362.45,431.1v-5.88h8.5v5.88H362.45z M362.45,456.22v-5.88h8.5v5.88H362.45z"/>
			</g>
		</g>
		<g>
			<g>
				<g>
					<polygon points="134.39,393.18 134.39,396.18 138.87,396.18 138.87,407.2 150.76,407.2 150.76,414.63 139.27,414.63 
						139.27,442.62 161.3,420.58 166.82,426.11 142,450.93 142,470.46 176.59,435.87 181.81,441.09 138.11,484.78 161.45,508.11 
						178.24,491.32 169.58,482.66 162.95,489.29 158.18,484.51 169.58,473.11 182.66,486.19 197.51,471.35 189.56,463.39 
						183.97,468.98 178.84,463.85 190.79,451.9 209.52,470.63 134.39,545.76 134.39,550 213.76,470.63 190.79,447.66 174.6,463.85 
						183.97,473.22 189.56,467.63 193.27,471.35 182.66,481.95 169.58,468.87 153.94,484.51 162.95,493.53 169.58,486.9 174,491.32 
						161.45,503.87 142.36,484.78 186.05,441.09 176.59,431.63 145,463.21 145,452.17 171.07,426.11 161.3,416.34 142.27,435.37 
						142.27,417.63 153.76,417.63 153.76,404.2 141.87,404.2 141.87,393.18 					"/>
					<polygon points="134.39,393.18 134.39,396.18 129.91,396.18 129.91,407.2 118.02,407.2 118.02,414.63 129.51,414.63 
						129.51,442.62 107.47,420.58 101.95,426.11 126.77,450.93 126.77,470.46 92.18,435.87 86.97,441.09 130.66,484.78 
						107.32,508.11 90.53,491.32 99.19,482.66 105.82,489.29 110.6,484.51 99.19,473.11 86.11,486.19 71.26,471.35 79.22,463.39 
						84.81,468.98 89.93,463.85 77.98,451.9 59.25,470.63 134.39,545.76 134.39,550 55.01,470.63 77.98,447.66 94.17,463.85 
						84.81,473.22 79.22,467.63 75.5,471.35 86.11,481.95 99.19,468.87 114.84,484.51 105.82,493.53 99.19,486.9 94.77,491.32 
						107.32,503.87 126.42,484.78 82.73,441.09 92.18,431.63 123.77,463.21 123.77,452.17 97.71,426.11 107.47,416.34 
						126.51,435.37 126.51,417.63 115.02,417.63 115.02,404.2 126.91,404.2 126.91,393.18 					"/>
					
						<rect x="122.39" y="501.66" transform="matrix(0.7071 0.7071 -0.7071 0.7071 402.57 55.4207)" style="fill:none;stroke:#000000;stroke-width:3;stroke-miterlimit:10;" width="24" height="24"/>
				</g>
				<g>
					<g>
						<path d="M149.65,280.48V268.6h-8.86v-8.88h-1.33v-0.02h-5.08v3h3.41v8.04h-3.41v7.42h3.39v8.19h0v3h0.02v6.6h-3.41v7.42h3.39
							v8.1h0v3h0.02v6.69h-3.41v7.42h3.39v8.02h0v3h0.02v6.78h-3.41v7.42h3.39v7.93h0v3h0.02v6.87h-0.02v0.01h-3.39v7.42h3.39v7.84
							h-3.39v3h6.39v-8.88h8.88V369.1h-8.86v-10.75h-0.02v-2.5h8.88v-11.88h-8.86v-10.75h-0.02v-2.5h8.88v-11.88h-8.86V308.1h-0.02
							v-2.5h8.88v-11.88h-8.86v-10.75h-0.02v-2.5H149.65z M146.65,372.1v5.88h-8.5v-5.88H146.65z M146.65,346.98v5.88h-8.5v-5.88
							H146.65z M146.65,321.85v5.88h-8.5v-5.88H146.65z M146.65,296.73v5.88h-8.5v-5.88H146.65z M138.15,277.48v-5.88h8.5v5.88
							H138.15z"/>
						<path d="M127.99,280.48v2.5h-0.02v10.75h-8.86v11.88h8.88v2.5h-0.02v10.75h-8.86v11.88h8.88v2.5h-0.02v10.75h-8.86v11.88h8.88
							v2.5h-0.02v10.75h-8.86v11.88h8.88v8.88h6.39v-3h-3.39v-7.84h3.39v-7.42H131v-0.01h-0.02v-6.87H131v-3h0v-7.93h3.39v-7.42
							h-3.41v-6.78H131v-3h0v-8.02h3.39v-7.42h-3.41v-6.69H131v-3h0v-8.1h3.39v-7.42h-3.41v-6.6H131v-3h0v-8.19h3.39v-7.42h-3.41
							v-8.04h3.41v-3h-5.08v0.02h-1.33v8.88h-8.86v11.88H127.99z M130.62,372.1v5.88h-8.5v-5.88H130.62z M130.62,346.98v5.88h-8.5
							v-5.88H130.62z M130.62,321.85v5.88h-8.5v-5.88H130.62z M130.62,296.73v5.88h-8.5v-5.88H130.62z M122.12,277.48v-5.88h8.5
							v5.88H122.12z"/>
					</g>
					<g>
						<g>
							<line style="stroke:#000000;stroke-width:3;stroke-miterlimit:10;" x1="163.17" y1="419.77" x2="163.17" y2="280.91"/>
							<circle style="stroke:#000000;stroke-width:3;stroke-miterlimit:10;" cx="163.17" cy="279.64" r="2.88"/>
						</g>
						<g>
							<line style="stroke:#000000;stroke-width:3;stroke-miterlimit:10;" x1="148.07" y1="270.91" x2="148.07" y2="235.2"/>
							<circle style="stroke:#000000;stroke-width:3;stroke-miterlimit:10;" cx="148.07" cy="233.93" r="2.88"/>
						</g>
					</g>
					<g>
						<g>
							<line style="stroke:#000000;stroke-width:3;stroke-miterlimit:10;" x1="105.6" y1="419.77" x2="105.6" y2="280.91"/>
							<circle style="stroke:#000000;stroke-width:3;stroke-miterlimit:10;" cx="105.6" cy="279.64" r="2.88"/>
						</g>
						<g>
							<line style="stroke:#000000;stroke-width:3;stroke-miterlimit:10;" x1="120.71" y1="270.91" x2="120.71" y2="235.2"/>
							<circle style="stroke:#000000;stroke-width:3;stroke-miterlimit:10;" cx="120.71" cy="233.93" r="2.88"/>
						</g>
					</g>
					<g>
						<line style="stroke:#000000;stroke-width:3;stroke-miterlimit:10;" x1="134.39" y1="261.5" x2="134.39" y2="225.78"/>
						<circle style="stroke:#000000;stroke-width:3;stroke-miterlimit:10;" cx="134.39" cy="224.51" r="2.88"/>
					</g>
				</g>
			</g>
			<g>
				<line style="stroke:#000000;stroke-width:3;stroke-miterlimit:10;" x1="78.02" y1="449.91" x2="78.02" y2="300.87"/>
				<circle style="stroke:#000000;stroke-width:3;stroke-miterlimit:10;" cx="78.02" cy="299.6" r="2.88"/>
			</g>
			<g>
				<line style="stroke:#000000;stroke-width:3;stroke-miterlimit:10;" x1="190.84" y1="449.91" x2="190.84" y2="300.87"/>
				<circle style="stroke:#000000;stroke-width:3;stroke-miterlimit:10;" cx="190.84" cy="299.6" r="2.88"/>
			</g>
			<g>
				<g>
					<polygon points="77.33,519.21 93.53,535.41 84.16,544.78 78.57,539.19 74.86,542.9 81.95,550 77.71,550 70.61,542.9 
						78.57,534.95 84.16,540.54 89.28,535.41 77.33,523.46 58.6,542.18 66.42,550 62.18,550 54.36,542.18 					"/>
					<polygon points="108.12,550 103.87,550 98.54,544.67 93.21,550 88.97,550 98.54,540.43 					"/>
					<polygon points="120.48,550 54.28,483.79 54.28,479.55 124.73,550 					"/>
					<polygon points="54.28,534.38 54.28,530.14 69.13,515.29 54.28,500.44 54.28,496.2 73.37,515.29 					"/>
				</g>
				<path d="M60.67,468.1v-8.88h8.88v-11.88h-8.86V436.6h-0.02v-2.5h8.88v-11.88h-8.86v-10.75h-0.02v-2.5h8.88V397.1h-8.86v-10.75
					h-0.02v-2.5h8.88v-11.88h-8.86v-10.75h-0.02v-2.5h8.88v-11.88h-0.09v-30.58c1.67-0.62,2.88-2.21,2.88-4.09
					c0-2.41-1.96-4.38-4.38-4.38s-4.38,1.96-4.38,4.38c0,1.88,1.2,3.48,2.88,4.09v30.58h-5.77v-8.88h-1.33v-0.02h-3.58v-31.1
					c1.67-0.62,2.88-2.21,2.88-4.09c0-2.41-1.96-4.37-4.37-4.37v42.57h3.41v8.04h-3.41v7.42h3.39v8.19h0v3h0.02v6.6h-3.41v7.42h3.39
					v8.1h0v3h0.02v6.69h-3.41v7.42h3.39v8.02h0v3h0.02v6.78h-3.41v7.42h3.39v7.93h0v3h0.02v6.87h-0.02v0.01h-3.39v7.42h3.39v7.84
					h-3.39v3H60.67z M58.04,355.72v-5.88h8.5v5.88H58.04z M58.04,380.85v-5.88h8.5v5.88H58.04z M58.04,405.97v-5.88h8.5v5.88H58.04z
					 M58.04,431.1v-5.88h8.5v5.88H58.04z M58.04,456.22v-5.88h8.5v5.88H58.04z"/>
			</g>
			<g>
				<g>
					<polygon points="191.44,519.21 175.25,535.41 184.62,544.78 190.2,539.19 193.92,542.9 186.82,550 191.06,550 198.16,542.9 
						190.2,534.95 184.62,540.54 179.49,535.41 191.44,523.46 210.17,542.18 202.35,550 206.59,550 214.41,542.18 					"/>
					<polygon points="160.66,550 164.9,550 170.23,544.67 175.56,550 179.8,550 170.23,540.43 					"/>
					<polygon points="148.29,550 214.49,483.79 214.49,479.55 144.05,550 					"/>
					<polygon points="214.49,534.38 214.49,530.14 199.65,515.29 214.49,500.44 214.49,496.2 195.41,515.29 					"/>
				</g>
				<path d="M214.5,468.1v-3h-3.39v-7.84h3.39v-7.42h-3.39v-0.01h-0.02v-6.87h0.02v-3h0v-7.93h3.39v-7.42h-3.41v-6.78h0.02v-3h0
					v-8.02h3.39v-7.42h-3.41v-6.69h0.02v-3h0v-8.1h3.39v-7.42h-3.41v-6.6h0.02v-3h0v-8.19h3.39v-7.42h-3.41v-8.04h3.41v-42.57
					c-2.41,0-4.37,1.96-4.37,4.37c0,1.88,1.2,3.48,2.88,4.09v31.1h-3.58v0.02h-1.33v8.88h-5.77v-30.58
					c1.67-0.62,2.88-2.21,2.88-4.09c0-2.41-1.96-4.38-4.38-4.38s-4.38,1.96-4.38,4.38c0,1.88,1.2,3.48,2.88,4.09v30.58h-0.09v11.88
					h8.88v2.5h-0.02v10.75h-8.86v11.88h8.88v2.5h-0.02v10.75h-8.86v11.88h8.88v2.5h-0.02v10.75h-8.86v11.88h8.88v2.5h-0.02v10.75
					h-8.86v11.88h8.88v8.88H214.5z M202.23,355.72v-5.88h8.5v5.88H202.23z M202.23,380.85v-5.88h8.5v5.88H202.23z M202.23,405.97
					v-5.88h8.5v5.88H202.23z M202.23,431.1v-5.88h8.5v5.88H202.23z M202.23,456.22v-5.88h8.5v5.88H202.23z"/>
			</g>
		</g>
	</g>
</g>
<g>
</g>
<g>
</g>
<g>
</g>
<g>
</g>
<g>
</g>
<g>
</g>
<g>
</g>
<g>
</g>
<g>
</g>
<g>
</g>
<g>
</g>
<g>
</g>
<g>
</g>
<g>
</g>
<g>
</g>
</svg>
