<?xml version="1.0" encoding="utf-8"?>
<!-- Generator: Adobe Illustrator 27.2.0, SVG Export Plug-In . SVG Version: 6.00 Build 0)  -->
<svg version="1.1" id="Layer_1" xmlns="http://www.w3.org/2000/svg" xmlns:xlink="http://www.w3.org/1999/xlink" x="0px" y="0px"
	 viewBox="0 0 800 600" style="enable-background:new 0 0 800 600;" xml:space="preserve">
<g>
	<g>
		<rect x="109.46" y="528.39" width="4.25" height="4.25"/>
		<rect x="96.7" y="524.14" width="4.25" height="4.25"/>
		<rect x="105.21" y="515.63" width="4.25" height="4.25"/>
		<rect x="105.21" y="532.64" width="4.25" height="4.25"/>
		<rect x="113.71" y="524.14" width="4.25" height="4.25"/>
		<rect x="88.2" y="545.75" width="4.25" height="4.25"/>
		<rect x="109.46" y="519.88" width="4.25" height="4.25"/>
		<rect x="117.96" y="541.5" width="4.25" height="4.25"/>
		<rect x="126.47" y="532.99" width="4.25" height="4.25"/>
		<rect x="126.47" y="541.5" width="4.25" height="4.25"/>
		<rect x="117.96" y="532.99" width="4.25" height="4.25"/>
		<rect x="104.5" y="500.82" transform="matrix(0.7071 -0.7071 0.7071 0.7071 -324.6988 223.4101)" width="5.67" height="5.67"/>
		<polygon points="131.34,520.67 117.34,520.67 124.34,527.67 		"/>
		<rect x="121.51" y="513.33" transform="matrix(0.7071 -0.7071 0.7071 0.7071 -328.5659 239.1041)" width="5.67" height="5.67"/>
		<rect x="130.72" y="537.24" width="4.25" height="4.25"/>
		<rect x="100.96" y="528.39" width="4.25" height="4.25"/>
		<rect x="100.96" y="519.88" width="4.25" height="4.25"/>
		<rect x="122.22" y="528.74" width="4.25" height="4.25"/>
		<rect x="122.22" y="545.75" width="4.25" height="4.25"/>
		<rect x="113.71" y="537.24" width="4.25" height="4.25"/>
		<rect x="92.45" y="532.99" width="4.25" height="4.25"/>
		<polygon points="114.33,508.15 100.33,508.15 107.33,515.16 		"/>
		<rect x="83.95" y="532.99" width="4.25" height="4.25"/>
		<rect x="79.7" y="537.24" width="4.25" height="4.25"/>
		<polygon points="97.33,520.67 83.33,520.67 90.33,527.67 		"/>
		<rect x="92.45" y="541.5" width="4.25" height="4.25"/>
		<rect x="88.2" y="528.74" width="4.25" height="4.25"/>
		<rect x="87.49" y="513.33" transform="matrix(0.7071 -0.7071 0.7071 0.7071 -338.5312 215.0546)" width="5.67" height="5.67"/>
		<rect x="83.95" y="541.5" width="4.25" height="4.25"/>
		<rect x="96.7" y="537.24" width="4.25" height="4.25"/>
	</g>
	<g>
		<rect x="145.53" y="528.74" width="4.25" height="4.25"/>
		<rect x="145.53" y="545.75" width="4.25" height="4.25"/>
		<rect x="137.03" y="537.24" width="4.25" height="4.25"/>
		<polygon points="154.66,520.67 140.66,520.67 147.66,527.67 		"/>
		<polygon points="164.67,499.65 160.66,503.66 164.67,507.66 		"/>
		<polygon points="164.67,508.15 157.67,508.15 164.67,515.15 		"/>
		<rect x="144.82" y="513.33" transform="matrix(0.7071 -0.7071 0.7071 0.7071 -321.7383 255.5957)" width="5.67" height="5.67"/>
		<rect x="149.78" y="532.99" width="4.25" height="4.25"/>
		<rect x="158.29" y="519.88" width="4.25" height="4.25"/>
		<rect x="158.29" y="528.39" width="4.25" height="4.25"/>
		<rect x="141.28" y="532.99" width="4.25" height="4.25"/>
		<rect x="162.54" y="515.63" width="2.13" height="4.25"/>
		<rect x="162.54" y="532.64" width="2.13" height="4.25"/>
		<rect x="154.04" y="524.14" width="4.25" height="4.25"/>
		<rect x="141.28" y="541.5" width="4.25" height="4.25"/>
		<rect x="154.04" y="537.24" width="4.25" height="4.25"/>
		<rect x="149.78" y="541.5" width="4.25" height="4.25"/>
	</g>
	<g>
		<rect x="64.88" y="528.74" width="4.25" height="4.25"/>
		<rect x="64.88" y="545.75" width="4.25" height="4.25"/>
		<rect x="73.39" y="537.24" width="4.25" height="4.25"/>
		<polygon points="60.01,520.67 74.01,520.67 67.01,527.67 		"/>
		<polygon points="50,499.65 54.01,503.66 50,507.66 		"/>
		<polygon points="50,508.15 57,508.15 50,515.15 		"/>
		<rect x="64.17" y="513.33" transform="matrix(0.7071 -0.7071 0.7071 0.7071 -345.356 198.5601)" width="5.67" height="5.67"/>
		<rect x="60.63" y="532.99" width="4.25" height="4.25"/>
		<rect x="52.13" y="519.88" width="4.25" height="4.25"/>
		<rect x="52.13" y="528.39" width="4.25" height="4.25"/>
		<rect x="69.13" y="532.99" width="4.25" height="4.25"/>
		<rect x="50" y="515.63" width="2.13" height="4.25"/>
		<rect x="50" y="532.64" width="2.13" height="4.25"/>
		<rect x="56.38" y="524.14" width="4.25" height="4.25"/>
		<rect x="69.13" y="541.5" width="4.25" height="4.25"/>
		<rect x="56.38" y="537.24" width="4.25" height="4.25"/>
		<rect x="60.63" y="541.5" width="4.25" height="4.25"/>
	</g>
</g>
<g>
</g>
<g>
</g>
<g>
</g>
<g>
</g>
<g>
</g>
<g>
</g>
<g>
</g>
<g>
</g>
<g>
</g>
<g>
</g>
<g>
</g>
<g>
</g>
<g>
</g>
<g>
</g>
<g>
</g>
</svg>
