<?xml version="1.0" encoding="utf-8"?>
<!-- Generator: Adobe Illustrator 27.2.0, SVG Export Plug-In . SVG Version: 6.00 Build 0)  -->
<svg version="1.1" id="Layer_1" xmlns="http://www.w3.org/2000/svg" xmlns:xlink="http://www.w3.org/1999/xlink" x="0px" y="0px"
	 viewBox="0 0 800 600" style="enable-background:new 0 0 800 600;" xml:space="preserve">
<g>
	<polygon points="296.76,412.65 300.48,416.38 302.69,414.17 298.96,410.45 301.46,407.95 299.25,405.75 296.76,408.24 
		293.03,404.51 290.82,406.72 294.55,410.45 292.06,412.94 294.26,415.15 296.76,412.65 	"/>
	<polygon points="298.02,399.53 301.75,403.25 301.75,403.25 299.25,405.75 301.46,407.95 303.95,405.46 307.68,409.19 
		309.88,406.98 306.16,403.25 306.16,403.25 308.65,400.76 306.45,398.55 303.95,401.05 303.95,401.05 300.22,397.32 	"/>
	<polygon points="296.49,482.78 294.29,480.58 290.56,484.3 288.06,481.81 285.86,484.01 288.35,486.51 284.62,490.24 
		286.83,492.44 290.56,488.71 293.05,491.21 295.26,489 292.76,486.51 292.76,486.51 	"/>
	<polygon points="287.07,422.34 289.56,419.85 289.56,419.85 293.29,423.58 295.5,421.37 291.77,417.64 291.77,417.64 
		294.26,415.15 292.06,412.94 289.57,415.44 289.56,415.44 285.84,411.71 283.63,413.92 287.36,417.64 287.36,417.64 284.87,420.14 
			"/>
	<polygon points="279.64,485.25 283.36,481.52 283.37,481.52 285.86,484.01 288.06,481.81 285.57,479.32 285.57,479.32 
		289.3,475.59 287.09,473.38 283.36,477.11 283.36,477.11 280.87,474.62 278.67,476.82 281.16,479.31 277.43,483.04 	"/>
	<polygon points="300.23,472.75 302.43,470.55 299.94,468.05 303.67,464.32 301.46,462.12 297.73,465.84 297.73,465.85 
		295.24,463.35 293.03,465.56 295.53,468.05 291.8,471.78 294.01,473.98 297.73,470.26 	"/>
	<polygon points="290.78,369.48 294.51,373.21 292.02,375.7 294.22,377.91 296.72,375.41 296.72,375.42 300.44,379.14 
		302.65,376.94 298.92,373.21 301.42,370.71 299.21,368.51 296.72,371 292.99,367.27 	"/>
	<polygon points="279.79,392.34 283.52,388.61 287.25,392.34 289.45,390.13 285.73,386.4 289.45,382.68 289.45,382.68 
		289.52,382.61 289.52,382.61 293.25,386.34 295.46,384.13 291.73,380.4 291.73,380.4 294.22,377.91 292.02,375.7 289.52,378.2 
		285.8,374.47 283.59,376.68 287.32,380.4 287.32,380.4 287.25,380.47 287.25,380.47 283.52,384.2 279.79,380.47 277.59,382.68 
		281.31,386.4 277.59,390.13 	"/>
	<polygon points="275.29,369.41 270.02,369.41 270.02,362.35 277.08,362.35 277.08,367.62 280.2,367.62 280.2,362.35 285.47,362.35 
		285.47,359.23 280.2,359.23 280.2,353.96 277.08,353.96 277.08,359.23 271.81,359.23 271.81,359.23 270.02,359.23 270.02,352.18 
		275.29,352.18 275.29,349.05 270.02,349.05 270.02,343.78 268.46,343.78 268.46,372.53 270.02,372.53 270.02,372.53 275.29,372.53 
			"/>
	<rect x="268.46" y="372.53" width="1.56" height="5.27"/>
	<path d="M274.23,401.48c0-3.19-2.58-5.77-5.76-5.78v11.56C271.65,407.25,274.23,404.66,274.23,401.48z"/>
	<polygon points="127.23,458.48 123.5,462.2 119.77,458.48 117.57,460.68 121.29,464.41 118.28,467.43 118.27,467.42 115.78,469.92 
		112.05,466.19 109.84,468.4 113.57,472.12 113.57,472.12 111.08,474.62 113.28,476.82 115.78,474.33 115.78,474.33 119.5,478.06 
		121.71,475.85 117.98,472.12 117.98,472.12 119.77,470.34 119.77,470.34 123.5,466.62 125.71,464.41 129.43,460.68 	"/>
	<polygon points="270.02,334.43 275.29,334.43 275.29,331.3 270.02,331.3 270.02,326.03 268.46,326.03 268.46,339.7 270.02,339.7 	
		"/>
	<polygon points="287.26,339.7 290.38,339.7 290.38,334.43 295.65,334.43 295.65,331.3 290.38,331.3 290.38,326.03 287.26,326.03 
		287.26,331.3 281.99,331.3 281.99,334.43 287.26,334.43 	"/>
	<polygon points="342.71,377.69 344.92,379.9 348.64,376.17 348.64,376.17 351.14,378.67 353.34,376.46 350.85,373.97 
		354.58,370.24 352.37,368.03 348.64,371.76 346.15,369.27 343.94,371.47 346.44,373.97 346.44,373.97 	"/>
	<polygon points="372.7,374.6 375.19,377.09 375.19,377.09 371.47,380.82 373.67,383.02 377.4,379.3 377.4,379.3 379.89,381.79 
		382.1,379.58 379.61,377.09 379.61,377.09 383.33,373.36 381.13,371.16 377.4,374.88 374.91,372.39 	"/>
	<polygon points="365.51,367.4 368,369.9 368,369.9 364.27,373.62 366.48,375.83 370.21,372.1 370.21,372.1 372.7,374.6 
		374.91,372.39 372.41,369.9 372.41,369.9 376.14,366.17 373.93,363.96 370.21,367.69 370.21,367.69 367.71,365.2 	"/>
	<polygon points="349.9,359.25 352.1,361.45 355.83,357.73 355.83,357.73 360.81,362.7 360.81,362.7 357.08,366.43 359.29,368.64 
		363.01,364.91 365.51,367.4 367.71,365.2 365.22,362.7 368.95,358.98 366.74,356.77 363.01,360.5 360.53,358.01 358.04,355.52 
		361.76,351.79 359.56,349.59 355.83,353.31 353.34,350.82 351.13,353.03 353.62,355.52 353.62,355.52 	"/>
	<polygon points="379.89,381.79 382.39,384.28 382.39,384.28 378.66,388.01 380.87,390.22 384.59,386.49 384.59,386.49 
		387.09,388.98 389.29,386.78 386.8,384.28 390.53,380.56 388.32,378.35 384.59,382.08 384.59,382.08 382.1,379.58 	"/>
	<polygon points="391.46,354.71 394.58,354.71 394.58,349.44 399.85,349.44 399.85,346.31 394.58,346.31 394.58,341.04 
		391.46,341.04 391.46,346.31 386.19,346.31 386.19,349.44 391.46,349.44 	"/>
	<polygon points="268.46,381.04 268.46,385.28 284.66,401.48 268.46,417.67 268.46,421.92 288.9,401.48 	"/>
	<polygon points="391.46,369.71 394.58,369.71 394.58,364.44 399.85,364.44 399.85,361.31 394.58,361.31 394.58,356.04 
		391.46,356.04 391.46,361.31 386.19,361.31 386.19,364.44 391.46,364.44 	"/>
	<polygon points="339.38,452.86 342.5,452.86 342.5,447.59 347.77,447.59 347.77,444.47 342.5,444.47 342.5,439.2 339.38,439.2 
		339.38,444.47 334.11,444.47 334.11,447.59 339.38,447.59 	"/>
	<polygon points="318.99,452.86 322.11,452.86 322.11,447.59 327.38,447.59 327.38,444.47 322.11,444.47 322.11,439.2 318.99,439.2 
		318.99,444.47 313.72,444.47 313.72,447.59 318.99,447.59 	"/>
	<polygon points="307.42,479.94 309.92,482.44 306.19,486.17 308.39,488.37 312.12,484.64 314.62,487.14 316.82,484.93 
		314.33,482.44 314.33,482.44 318.05,478.71 315.85,476.5 312.12,480.23 309.63,477.74 	"/>
	<polygon points="318.99,467.86 322.11,467.86 322.11,462.59 327.38,462.59 327.38,459.47 322.11,459.47 322.11,454.2 318.99,454.2 
		318.99,459.47 313.72,459.47 313.72,462.59 318.99,462.59 	"/>
	<polygon points="323.93,472.77 329.2,472.77 329.2,478.04 332.32,478.04 332.32,472.77 339.38,472.77 339.38,479.82 334.11,479.82 
		334.11,482.94 342.5,482.94 342.5,482.95 347.77,482.95 347.77,479.82 342.5,479.82 342.5,472.77 349.55,472.77 349.55,478.04 
		352.67,478.04 352.67,472.77 357.94,472.77 357.94,469.65 352.67,469.65 352.67,464.38 349.55,464.38 349.55,469.65 344.28,469.65 
		344.28,469.65 342.5,469.65 342.5,462.59 347.77,462.59 347.77,459.47 342.5,459.47 342.5,454.2 339.38,454.2 339.38,459.47 
		334.11,459.47 334.11,462.59 339.38,462.59 339.38,469.65 337.59,469.65 337.59,469.65 332.32,469.65 332.32,464.38 329.2,464.38 
		329.2,469.65 323.93,469.65 	"/>
	<rect x="339.38" y="482.95" width="3.12" height="5.27"/>
	<polygon points="304.93,473.04 304.93,473.04 302.43,470.55 300.23,472.75 302.72,475.24 298.99,478.97 301.2,481.18 
		304.93,477.45 307.42,479.94 309.63,477.74 307.13,475.25 307.13,475.24 310.86,471.52 308.65,469.31 	"/>
	<polygon points="246.51,339.7 249.64,339.7 249.64,334.43 254.91,334.43 254.91,331.3 249.64,331.3 249.64,326.03 246.51,326.03 
		246.51,331.3 241.24,331.3 241.24,334.43 246.51,334.43 	"/>
	<polygon points="236.41,416.38 240.13,412.65 240.14,412.65 242.63,415.15 244.83,412.94 242.34,410.45 246.07,406.72 
		243.86,404.51 240.13,408.24 237.64,405.75 235.44,407.95 237.93,410.45 234.2,414.17 	"/>
	<polygon points="268.43,436.53 267.18,435.28 263.46,431.56 267.18,427.83 264.98,425.62 261.25,429.35 257.52,425.62 
		257.52,425.63 256.73,424.84 256.73,424.84 260.46,421.11 258.25,418.9 254.52,422.63 252.03,420.14 249.82,422.34 252.32,424.83 
		252.32,424.84 248.59,428.56 250.8,430.77 254.52,427.04 254.52,427.04 257.02,429.53 257.02,429.53 259.04,431.56 259.04,431.56 
		255.32,435.28 257.52,437.49 261.25,433.76 264.98,437.49 264.98,437.49 266.24,438.75 264.98,440.02 261.25,443.74 257.52,440.02 
		255.32,442.22 259.04,445.95 255.32,449.68 255.32,449.68 253.54,451.47 253.53,451.47 249.81,447.74 247.6,449.95 251.33,453.68 
		251.33,453.68 248.83,456.17 248.83,456.17 246.35,458.65 246.35,458.65 242.63,454.92 240.42,457.13 244.15,460.86 244.15,460.86 
		241.65,463.35 243.86,465.56 246.35,463.06 246.35,463.06 250.08,466.79 252.29,464.58 248.56,460.86 248.56,460.86 253.53,455.88 
		253.53,455.88 257.26,459.61 259.47,457.4 255.74,453.68 255.74,453.67 258.23,451.18 258.23,451.18 261.25,448.16 264.98,451.88 
		267.18,449.68 263.46,445.95 267.18,442.22 268.43,440.98 	"/>
	<polygon points="246.51,357.45 249.64,357.45 249.64,352.18 254.91,352.18 254.91,349.05 249.64,349.05 249.64,343.78 
		246.51,343.78 246.51,349.05 241.24,349.05 241.24,352.18 246.51,352.18 	"/>
	<polygon points="241.44,384.13 243.64,386.34 247.37,382.61 247.37,382.61 247.44,382.68 247.44,382.68 251.17,386.4 
		247.44,390.13 249.65,392.34 253.37,388.61 257.1,392.34 259.31,390.13 255.58,386.4 259.31,382.68 257.1,380.47 253.37,384.2 
		249.65,380.47 249.64,380.47 249.58,380.4 249.58,380.4 253.3,376.68 251.1,374.47 247.37,378.2 244.88,375.7 242.67,377.91 
		245.16,380.4 245.16,380.4 	"/>
	<polygon points="259.46,483.04 255.74,479.32 255.73,479.31 258.23,476.82 256.02,474.62 253.53,477.11 253.53,477.11 
		249.8,473.38 247.59,475.59 251.32,479.32 248.83,481.81 251.03,484.01 253.53,481.52 253.53,481.52 257.25,485.25 	"/>
	<polygon points="253.26,413.92 251.06,411.71 247.33,415.44 247.33,415.44 244.83,412.94 242.63,415.15 245.12,417.64 
		245.12,417.64 241.4,421.37 243.6,423.58 247.33,419.85 247.33,419.85 249.82,422.34 252.03,420.14 249.53,417.64 249.54,417.64 	
		"/>
	<polygon points="236.45,379.14 240.18,375.42 240.18,375.41 242.67,377.91 244.88,375.7 242.38,373.21 246.11,369.48 243.9,367.27 
		240.18,371 237.68,368.51 235.48,370.71 237.97,373.21 234.24,376.94 	"/>
	<polygon points="151.55,482.78 149.34,480.58 145.61,484.3 145.61,484.3 143.12,481.81 140.91,484.01 143.41,486.51 143.41,486.51 
		139.68,490.24 141.89,492.44 145.61,488.72 145.61,488.71 148.11,491.21 150.31,489 147.82,486.51 147.82,486.51 	"/>
	<polygon points="125.08,514.65 125.08,509.38 130.35,509.38 130.35,506.25 125.08,506.25 125.08,500.98 121.96,500.98 
		121.96,506.25 116.69,506.25 116.69,509.38 121.96,509.38 121.96,514.65 	"/>
	<polygon points="227.01,406.98 229.21,409.19 232.94,405.46 235.44,407.95 237.64,405.75 235.15,403.25 235.15,403.25 
		238.88,399.53 236.67,397.32 232.94,401.05 232.94,401.05 230.45,398.55 228.24,400.76 230.74,403.25 230.73,403.25 	"/>
	<polygon points="200.7,508.72 203.19,506.23 203.19,506.23 206.92,509.95 209.12,507.75 205.4,504.02 205.4,504.02 207.89,501.53 
		205.68,499.32 203.19,501.81 199.46,498.09 197.26,500.29 200.98,504.02 199.7,505.3 199.68,505.29 195.96,509.01 193.46,506.51 
		193.46,506.51 190.96,504.02 194.69,500.29 192.48,498.09 188.76,501.81 186.26,499.32 184.06,501.53 186.55,504.02 186.55,504.02 
		182.82,507.75 185.03,509.95 188.76,506.23 190.02,507.49 190.02,507.49 193.75,511.22 190.02,514.95 192.23,517.15 195.96,513.43 
		199.68,517.15 201.89,514.95 198.16,511.22 200.68,508.7 	"/>
	<polygon points="229.76,475.25 227.27,477.74 229.47,479.94 231.96,477.45 235.69,481.18 237.9,478.97 234.17,475.24 
		236.66,472.75 234.46,470.55 231.97,473.04 228.24,469.31 226.03,471.52 229.76,475.24 	"/>
	<polygon points="218.84,478.71 222.56,482.44 222.57,482.44 220.07,484.93 222.28,487.14 224.77,484.64 224.77,484.65 
		228.5,488.37 230.71,486.17 226.98,482.44 226.98,482.44 229.47,479.94 227.27,477.74 224.77,480.23 224.77,480.23 221.04,476.5 	
		"/>
	<polygon points="272.18,470.34 273.96,472.12 273.96,472.12 270.24,475.85 272.44,478.06 276.17,474.33 278.67,476.82 
		280.87,474.62 278.38,472.12 278.38,472.12 282.1,468.4 279.9,466.19 276.17,469.92 276.17,469.92 273.68,467.42 273.67,467.43 
		270.65,464.41 268.46,466.6 268.46,466.63 272.17,470.34 	"/>
	<polygon points="269.99,509.38 275.26,509.38 275.26,506.25 269.99,506.25 269.99,500.98 268.45,500.98 268.45,514.65 
		269.99,514.65 	"/>
	<polygon points="266.87,339.7 268.43,339.7 268.43,326.03 266.87,326.03 266.87,331.3 261.6,331.3 261.6,334.43 266.87,334.43 	"/>
	<polygon points="251.42,362.35 256.69,362.35 256.69,367.62 259.81,367.62 259.81,362.35 266.87,362.35 266.87,369.41 
		261.6,369.41 261.6,372.53 266.87,372.53 266.87,372.53 268.43,372.53 268.43,343.78 266.87,343.78 266.87,349.05 261.6,349.05 
		261.6,352.18 266.87,352.18 266.87,359.23 265.08,359.23 265.08,359.23 259.81,359.23 259.81,353.96 256.69,353.96 256.69,359.23 
		251.42,359.23 	"/>
	<rect x="266.87" y="372.53" width="1.56" height="5.27"/>
	<polygon points="236.66,472.75 239.16,470.26 239.16,470.26 242.89,473.98 245.09,471.78 241.37,468.05 241.36,468.05 
		243.86,465.56 241.65,463.35 239.16,465.85 235.43,462.12 233.23,464.32 236.95,468.05 236.95,468.05 234.46,470.55 	"/>
	<polygon points="273.44,445.95 269.71,449.68 271.92,451.88 275.64,448.16 278.66,451.18 278.66,451.18 281.15,453.67 
		277.42,457.4 279.63,459.61 283.36,455.88 285.85,458.38 285.85,458.37 288.33,460.86 284.61,464.58 286.81,466.79 290.54,463.06 
		293.03,465.56 295.24,463.35 292.75,460.86 292.75,460.86 296.47,457.13 294.27,454.92 290.54,458.65 288.06,456.17 285.56,453.68 
		285.57,453.68 289.29,449.95 287.08,447.74 283.36,451.47 283.36,451.47 281.57,449.68 281.58,449.68 277.85,445.95 281.58,442.22 
		279.37,440.02 275.64,443.74 271.92,440.02 270.65,438.75 271.92,437.49 271.92,437.49 275.64,433.76 279.37,437.49 281.58,435.28 
		277.85,431.56 277.85,431.56 279.87,429.53 279.88,429.53 282.37,427.04 282.37,427.04 286.1,430.77 288.3,428.56 284.58,424.84 
		284.58,424.83 287.07,422.34 284.86,420.14 282.37,422.63 278.64,418.9 276.44,421.11 280.16,424.84 280.16,424.84 279.37,425.63 
		279.37,425.62 275.64,429.35 271.92,425.62 269.71,427.83 273.44,431.56 269.71,435.28 268.46,436.53 268.46,440.98 269.71,442.22 
			"/>
	<polygon points="272.17,458.48 268.46,462.19 268.46,466.6 270.65,464.41 274.38,460.68 	"/>
	<polygon points="249.64,514.65 249.64,509.38 254.91,509.38 254.91,506.25 249.64,506.25 249.64,500.98 246.51,500.98 
		246.51,506.25 241.24,506.25 241.24,509.38 246.51,509.38 246.51,514.65 	"/>
	<polygon points="268.43,462.19 264.72,458.48 262.51,460.68 266.24,464.41 268.43,466.6 	"/>
	<polygon points="243.84,491.21 246.33,488.71 246.33,488.72 250.06,492.44 252.27,490.24 248.54,486.51 248.54,486.51 
		251.03,484.01 248.83,481.81 246.33,484.3 246.33,484.3 242.61,480.58 240.4,482.78 244.13,486.51 244.13,486.51 241.64,489 	"/>
	<polygon points="263.22,467.42 260.72,469.92 260.72,469.92 257,466.19 254.79,468.4 258.52,472.12 258.52,472.12 256.02,474.62 
		258.23,476.82 260.72,474.33 264.45,478.06 266.66,475.85 262.93,472.12 264.71,470.34 264.72,470.34 268.43,466.63 268.43,466.6 
		266.24,464.41 263.22,467.43 	"/>
	<polygon points="268.43,381.04 247.99,401.48 268.43,421.92 268.43,417.67 252.23,401.48 268.43,385.28 	"/>
	<path d="M268.43,407.26V395.7c-3.18,0.01-5.76,2.59-5.76,5.78S265.24,407.25,268.43,407.26z"/>
	<polygon points="287.26,357.45 290.38,357.45 290.38,352.18 295.65,352.18 295.65,349.05 290.38,349.05 290.38,343.78 
		287.26,343.78 287.26,349.05 281.99,349.05 281.99,352.18 287.26,352.18 	"/>
	<polygon points="467.05,467.86 467.05,462.59 472.32,462.59 472.32,459.47 467.05,459.47 467.05,454.2 463.93,454.2 463.93,459.47 
		458.66,459.47 458.66,462.59 463.93,462.59 463.93,467.86 	"/>
	<polygon points="463.93,439.2 463.93,444.47 458.66,444.47 458.66,447.59 463.93,447.59 463.93,452.86 467.05,452.86 
		467.05,447.59 472.32,447.59 472.32,444.47 467.05,444.47 467.05,439.2 	"/>
	<polygon points="474.11,464.38 474.11,469.65 468.84,469.65 468.84,472.77 474.11,472.77 474.11,478.04 477.23,478.04 
		477.23,472.77 484.29,472.77 484.29,479.82 479.02,479.82 479.02,482.95 484.29,482.95 484.29,482.94 485.85,482.94 485.85,454.2 
		484.29,454.2 484.29,459.47 479.02,459.47 479.02,462.59 484.29,462.59 484.29,469.65 482.5,469.65 482.5,469.65 477.23,469.65 
		477.23,464.38 	"/>
	<polygon points="409.9,399.93 406.17,403.66 403.68,401.17 401.48,403.37 403.97,405.86 400.24,409.59 402.45,411.8 406.18,408.07 
		407.44,409.34 407.44,409.34 411.17,413.07 407.44,416.79 409.65,419 413.37,415.27 417.1,419 419.31,416.79 415.58,413.07 
		418.1,410.55 418.11,410.56 420.61,408.07 420.61,408.07 424.33,411.8 426.54,409.59 422.81,405.86 425.31,403.37 423.1,401.17 
		420.61,403.66 420.61,403.66 416.88,399.93 414.67,402.14 418.4,405.86 418.4,405.87 417.12,407.15 417.1,407.13 413.37,410.86 
		410.87,408.36 410.88,408.36 408.38,405.87 412.11,402.14 	"/>
	<polygon points="460.03,382.42 457.82,384.63 461.55,388.35 461.55,388.35 459.05,390.85 461.26,393.05 463.75,390.56 
		467.48,394.29 469.69,392.08 465.96,388.35 468.45,385.86 466.25,383.65 463.75,386.15 	"/>
	<rect x="484.29" y="482.95" width="1.56" height="5.27"/>
	<polygon points="473.44,376.46 470.95,378.95 470.95,378.95 467.22,375.23 465.01,377.43 468.74,381.16 468.74,381.16 
		466.25,383.65 468.45,385.86 470.95,383.37 474.67,387.09 476.88,384.89 473.15,381.16 475.65,378.67 	"/>
	<polygon points="437.49,386.78 435,389.27 435,389.27 431.27,385.54 429.06,387.75 432.79,391.48 432.79,391.48 430.3,393.97 
		432.5,396.18 435,393.68 438.72,397.41 440.93,395.2 437.2,391.48 439.7,388.98 	"/>
	<polygon points="400.29,449.66 398.48,451.47 394.75,447.74 392.55,449.95 396.27,453.68 393.78,456.17 393.78,456.17 
		391.3,458.65 387.57,454.92 385.36,457.13 389.09,460.86 386.6,463.35 388.8,465.56 391.3,463.06 395.03,466.79 397.23,464.58 
		393.5,460.86 393.5,460.86 398.48,455.88 402.21,459.61 404.41,457.4 400.69,453.68 400.69,453.67 403.18,451.18 403.16,451.16 
		406.2,448.12 403.99,445.91 400.26,449.64 	"/>
	<polygon points="456.56,393.34 452.83,389.61 450.62,391.82 454.35,395.55 454.35,395.55 451.86,398.04 454.06,400.25 
		456.56,397.75 460.29,401.48 462.49,399.27 458.76,395.55 461.26,393.05 459.05,390.85 456.56,393.34 	"/>
	<polygon points="385.87,420.86 388.08,423.06 391.81,419.34 391.81,419.33 394.3,421.83 396.5,419.62 394.01,417.13 394.01,417.13 
		397.74,413.4 395.53,411.2 391.81,414.92 391.8,414.92 389.31,412.43 387.11,414.63 389.6,417.13 389.6,417.13 	"/>
	<polygon points="441.42,457.13 439.21,454.92 435.49,458.65 435.48,458.65 430.51,453.68 430.51,453.68 434.24,449.95 
		432.03,447.74 428.3,451.47 428.3,451.47 426.5,449.66 426.52,449.64 422.79,445.91 422.79,445.91 426.52,442.18 424.31,439.98 
		420.59,443.7 416.86,439.98 416.86,439.98 415.6,438.71 416.86,437.45 420.59,433.73 424.31,437.45 426.52,435.25 422.79,431.52 
		426.52,427.79 426.52,427.79 427.78,426.53 427.78,426.53 431.51,430.26 433.72,428.05 429.99,424.32 432.48,421.83 430.28,419.62 
		427.78,422.12 424.06,418.39 421.85,420.6 425.58,424.32 424.32,425.59 424.31,425.59 420.59,429.31 416.86,425.59 414.65,427.79 
		418.38,431.52 414.65,435.25 413.39,436.51 412.13,435.25 412.13,435.25 408.4,431.52 412.13,427.79 409.92,425.59 406.2,429.31 
		402.47,425.59 402.47,425.59 401.21,424.32 401.21,424.32 404.93,420.6 402.73,418.39 399,422.12 399,422.12 396.5,419.62 
		394.3,421.83 396.79,424.32 396.79,424.32 393.07,428.05 395.27,430.26 399,426.53 400.26,427.79 400.26,427.79 403.99,431.52 
		400.26,435.25 402.47,437.45 406.2,433.73 409.92,437.45 411.18,438.71 406.2,443.7 402.47,439.98 400.26,442.18 403.99,445.91 
		403.99,445.91 406.2,448.12 409.92,451.84 412.13,449.64 408.4,445.91 412.13,442.18 413.39,440.92 414.65,442.18 418.38,445.91 
		414.65,449.64 416.86,451.84 420.59,448.12 423.63,451.16 423.6,451.18 426.1,453.67 426.1,453.68 422.37,457.4 424.58,459.61 
		428.3,455.88 428.3,455.88 433.28,460.86 433.28,460.86 429.55,464.58 431.76,466.79 435.49,463.06 435.49,463.06 437.98,465.56 
		440.18,463.35 437.69,460.86 437.69,460.86 	"/>
	<polygon points="449.37,400.54 445.64,396.81 443.43,399.01 447.16,402.74 447.16,402.74 444.67,405.24 446.87,407.44 
		449.36,404.95 453.09,408.68 455.3,406.47 451.57,402.74 451.57,402.74 454.06,400.25 451.86,398.04 449.37,400.54 	"/>
	<polygon points="442.17,407.73 438.44,404 436.24,406.21 439.96,409.94 439.97,409.94 437.47,412.43 439.68,414.63 442.17,412.14 
		442.17,412.14 445.9,415.87 448.1,413.66 444.38,409.93 446.87,407.44 444.67,405.24 442.17,407.73 	"/>
	<polygon points="315.59,495.57 319.32,491.84 319.32,491.84 321.81,494.33 324.01,492.13 321.52,489.63 321.52,489.63 
		325.25,485.91 323.04,483.7 319.32,487.43 319.31,487.43 316.82,484.93 314.62,487.14 317.11,489.63 313.38,493.36 	"/>
	<polygon points="417.12,458.48 413.39,462.2 409.67,458.48 407.46,460.68 411.18,464.41 408.17,467.43 408.16,467.42 
		405.67,469.92 401.94,466.19 399.73,468.4 403.46,472.12 403.46,472.12 400.97,474.62 403.17,476.82 405.67,474.33 405.67,474.33 
		409.39,478.06 411.6,475.85 407.87,472.12 407.87,472.12 409.66,470.34 409.67,470.34 413.39,466.62 415.6,464.41 419.33,460.68 	
		"/>
	<polygon points="388.06,397.41 391.79,393.68 394.28,396.18 396.49,393.97 393.99,391.48 397.72,387.75 395.51,385.54 
		391.79,389.27 389.29,386.78 387.09,388.98 389.58,391.48 385.85,395.2 	"/>
	<polygon points="394.58,514.65 394.58,509.38 399.85,509.38 399.85,506.25 394.58,506.25 394.58,500.98 391.46,500.98 
		391.46,506.25 386.19,506.25 386.19,509.38 391.46,509.38 391.46,514.65 	"/>
	<polygon points="482.12,517.15 485.85,513.43 485.85,509.01 483.35,506.51 483.35,506.51 480.85,504.02 484.58,500.29 
		482.38,498.09 478.65,501.81 476.15,499.32 473.95,501.53 476.44,504.02 476.44,504.02 472.71,507.75 474.92,509.95 478.65,506.23 
		479.92,507.49 479.91,507.49 483.64,511.22 479.91,514.95 	"/>
	<polygon points="388.79,491.21 391.28,488.71 391.28,488.72 395.01,492.44 397.21,490.24 393.49,486.51 393.49,486.51 
		395.98,484.01 393.77,481.81 391.28,484.3 387.55,480.58 385.35,482.78 389.07,486.51 386.58,489 	"/>
	<polygon points="414.97,514.65 414.97,509.38 420.24,509.38 420.24,506.25 414.97,506.25 414.97,500.98 411.85,500.98 
		411.85,506.25 406.58,506.25 406.58,509.38 411.85,509.38 411.85,514.65 	"/>
	<polygon points="441.44,482.78 439.23,480.58 435.5,484.3 435.5,484.3 433.01,481.81 430.8,484.01 433.3,486.51 433.3,486.51 
		429.57,490.24 431.78,492.44 435.5,488.72 435.5,488.71 438,491.21 440.2,489 437.71,486.51 437.71,486.51 	"/>
	<polygon points="423.61,476.82 425.82,474.62 423.32,472.12 427.05,468.4 424.84,466.19 421.12,469.92 421.12,469.92 
		418.62,467.42 418.62,467.43 415.6,464.41 413.39,466.62 417.12,470.34 417.12,470.34 418.91,472.12 415.18,475.85 417.39,478.06 
		421.12,474.33 	"/>
	<polygon points="348.14,506.23 351.86,509.95 354.07,507.75 350.34,504.02 350.34,504.02 352.83,501.53 350.63,499.32 
		348.14,501.81 344.41,498.09 342.2,500.29 345.93,504.02 343.44,506.51 343.44,506.51 340.94,509.01 337.21,505.29 337.19,505.3 
		335.91,504.02 335.91,504.02 339.64,500.29 337.43,498.09 333.7,501.81 333.7,501.81 331.21,499.32 329,501.53 331.5,504.02 
		331.5,504.02 327.77,507.75 329.98,509.95 333.7,506.23 336.2,508.72 336.21,508.7 338.73,511.22 335,514.95 337.21,517.15 
		340.94,513.43 344.66,517.15 346.87,514.95 343.14,511.22 346.87,507.49 346.87,507.49 348.13,506.23 	"/>
	<polygon points="359.06,502.76 361.26,500.55 357.54,496.83 357.54,496.83 360.03,494.33 357.82,492.13 355.33,494.62 
		351.6,490.89 349.4,493.1 353.12,496.83 350.63,499.32 352.83,501.53 355.33,499.03 	"/>
	<polygon points="349.9,384.89 352.11,387.09 355.84,383.37 358.33,385.86 360.54,383.65 358.04,381.16 361.77,377.43 
		359.56,375.23 355.84,378.95 353.34,376.46 351.14,378.67 353.63,381.16 353.63,381.16 	"/>
	<polygon points="362.52,491.84 366.25,495.57 368.46,493.36 364.73,489.63 367.22,487.14 365.02,484.93 362.52,487.43 358.8,483.7 
		356.59,485.91 360.32,489.63 357.82,492.13 360.03,494.33 362.52,491.84 	"/>
	<polygon points="437.47,412.43 434.98,414.92 434.98,414.92 431.25,411.2 429.04,413.4 432.77,417.13 432.77,417.13 430.28,419.62 
		432.48,421.83 434.98,419.33 438.7,423.06 440.91,420.86 437.18,417.13 439.68,414.63 	"/>
	<polygon points="326.51,499.03 329,501.53 331.21,499.32 328.71,496.83 328.72,496.83 332.44,493.1 330.24,490.89 326.51,494.62 
		326.51,494.62 324.01,492.13 321.81,494.33 324.3,496.83 320.58,500.55 322.78,502.76 	"/>
	<polygon points="464.26,491.84 464.26,491.84 466.75,494.33 468.96,492.13 466.47,489.63 470.19,485.91 467.99,483.7 
		464.26,487.43 464.26,487.43 461.77,484.93 459.56,487.14 462.05,489.63 462.05,489.63 458.33,493.36 460.53,495.57 	"/>
	<polygon points="451.88,372.39 454.08,374.6 456.58,372.1 460.3,375.83 462.51,373.62 458.78,369.9 461.28,367.4 459.07,365.2 
		456.58,367.69 456.58,367.69 452.85,363.96 450.64,366.17 454.37,369.9 	"/>
	<polygon points="424.08,392.74 421.87,394.94 425.6,398.67 423.1,401.17 425.31,403.37 427.8,400.88 431.53,404.6 433.74,402.4 
		430.01,398.67 430.01,398.67 432.5,396.18 430.3,393.97 427.8,396.46 	"/>
	<polygon points="461.57,362.7 459.07,365.2 461.28,367.4 463.77,364.91 467.5,368.64 469.7,366.43 465.98,362.7 468.46,360.22 
		470.95,357.73 474.68,361.45 476.89,359.25 473.16,355.52 475.65,353.03 473.45,350.82 470.95,353.31 470.95,353.31 467.23,349.59 
		465.02,351.79 468.75,355.52 468.75,355.52 463.77,360.5 463.77,360.5 460.04,356.77 457.84,358.98 461.56,362.7 	"/>
	<polygon points="479.02,447.59 484.29,447.59 484.29,452.86 485.85,452.86 485.85,439.2 484.29,439.2 484.29,444.47 479.02,444.47 
			"/>
	<polygon points="449.87,477.45 452.37,479.94 454.57,477.74 452.08,475.25 452.08,475.24 455.81,471.52 453.6,469.31 
		449.87,473.04 449.87,473.04 447.38,470.55 445.17,472.75 447.67,475.24 443.94,478.97 446.15,481.18 	"/>
	<polygon points="396.37,374.61 401.64,374.61 401.64,379.88 404.76,379.88 404.76,374.61 411.81,374.61 411.81,381.67 
		406.54,381.67 406.54,384.79 411.81,384.79 411.81,384.79 420.21,384.79 420.21,381.67 414.93,381.67 414.93,374.61 421.99,374.61 
		421.99,379.88 425.11,379.88 425.11,374.61 430.38,374.61 430.38,371.49 425.11,371.49 425.11,366.22 421.99,366.22 421.99,371.49 
		416.72,371.49 416.72,371.49 414.93,371.49 414.93,364.44 420.21,364.44 420.21,361.31 414.93,361.31 414.93,356.04 411.81,356.04 
		411.81,361.31 406.54,361.31 406.54,364.44 411.81,364.44 411.81,371.49 410.03,371.49 410.03,371.49 404.76,371.49 404.76,366.22 
		401.64,366.22 401.64,371.49 396.37,371.49 	"/>
	<polygon points="471.45,499.03 471.46,499.03 473.95,501.53 476.15,499.32 473.66,496.83 473.66,496.83 477.39,493.1 
		475.18,490.89 471.45,494.62 471.45,494.62 468.96,492.13 466.75,494.33 469.25,496.83 469.25,496.83 465.52,500.55 467.73,502.76 
			"/>
	<polygon points="457.07,484.65 457.07,484.64 459.56,487.14 461.77,484.93 459.27,482.44 459.27,482.44 463,478.71 460.79,476.5 
		457.07,480.23 457.07,480.23 454.57,477.74 452.37,479.94 454.86,482.44 454.86,482.44 451.13,486.17 453.34,488.37 	"/>
	<polygon points="432.2,369.71 435.32,369.71 435.32,364.44 440.59,364.44 440.59,361.31 435.32,361.31 435.32,356.04 432.2,356.04 
		432.2,361.31 426.93,361.31 426.93,364.44 432.2,364.44 	"/>
	<polygon points="411.81,354.71 414.93,354.71 414.93,349.44 420.21,349.44 420.21,346.31 414.93,346.31 414.93,341.04 
		411.81,341.04 411.81,346.31 406.54,346.31 406.54,349.44 411.81,349.44 	"/>
	<rect x="411.81" y="384.79" width="3.12" height="5.27"/>
	<polygon points="447.18,377.09 444.68,379.58 446.89,381.79 449.38,379.3 453.11,383.02 455.32,380.82 451.59,377.09 454.08,374.6 
		451.88,372.39 449.38,374.88 449.38,374.88 445.66,371.16 443.45,373.36 447.18,377.09 	"/>
	<polygon points="436.26,380.56 439.98,384.28 439.98,384.28 437.49,386.78 439.7,388.98 442.19,386.49 445.92,390.22 
		448.12,388.01 444.4,384.28 446.89,381.79 444.68,379.58 442.19,382.08 438.46,378.35 	"/>
	<polygon points="432.2,354.71 435.32,354.71 435.32,349.44 440.59,349.44 440.59,346.31 435.32,346.31 435.32,341.04 432.2,341.04 
		432.2,346.31 426.93,346.31 426.93,349.44 432.2,349.44 	"/>
	<polygon points="472.21,370.24 475.93,373.97 475.93,373.97 473.44,376.46 475.65,378.67 478.14,376.17 481.87,379.9 
		484.07,377.69 480.35,373.97 480.35,373.97 482.84,371.47 480.63,369.27 478.14,371.76 478.14,371.76 474.41,368.03 	"/>
	<polygon points="370.22,393.34 367.73,390.85 365.53,393.05 368.02,395.55 364.29,399.27 366.5,401.48 370.23,397.75 
		372.72,400.25 374.92,398.04 372.43,395.55 376.16,391.82 373.95,389.61 	"/>
	<polygon points="363.03,386.15 363.03,386.15 360.54,383.65 358.33,385.86 360.83,388.35 360.82,388.35 357.1,392.08 359.3,394.29 
		363.03,390.56 363.03,390.56 365.53,393.05 367.73,390.85 365.24,388.35 368.96,384.63 366.76,382.42 	"/>
	<polygon points="377.42,400.54 374.92,398.04 372.72,400.25 375.21,402.74 371.48,406.47 373.69,408.68 377.42,404.95 
		377.42,404.95 379.91,407.44 382.12,405.24 379.62,402.74 379.62,402.74 383.35,399.01 381.15,396.81 	"/>
	<polygon points="362.85,452.86 362.85,447.59 368.12,447.59 368.12,444.47 362.85,444.47 362.85,439.2 359.73,439.2 359.73,444.47 
		354.46,444.47 354.46,447.59 359.73,447.59 359.73,452.86 	"/>
	<polygon points="382.12,405.24 379.91,407.44 382.41,409.93 378.68,413.66 380.89,415.87 384.61,412.14 387.11,414.63 
		389.31,412.43 386.82,409.94 390.55,406.21 388.34,404 384.61,407.73 	"/>
	<polygon points="398.98,396.46 398.98,396.46 396.49,393.97 394.28,396.18 396.78,398.67 393.05,402.4 395.25,404.6 398.98,400.88 
		398.98,400.88 401.48,403.37 403.68,401.17 401.19,398.67 401.19,398.67 404.92,394.94 402.71,392.74 	"/>
	<polygon points="384.1,470.26 387.83,473.98 390.04,471.78 386.31,468.05 386.31,468.05 388.8,465.56 386.6,463.35 384.11,465.85 
		384.1,465.84 380.38,462.12 378.17,464.32 381.9,468.05 379.41,470.55 381.61,472.75 384.1,470.26 	"/>
	<polygon points="359.73,467.86 362.85,467.86 362.85,462.59 368.12,462.59 368.12,459.47 362.85,459.47 362.85,454.2 359.73,454.2 
		359.73,459.47 354.46,459.47 354.46,462.59 359.73,462.59 	"/>
	<polygon points="404.41,483.04 400.68,479.31 403.17,476.82 400.97,474.62 398.47,477.11 394.75,473.38 392.54,475.59 
		396.27,479.32 393.77,481.81 395.98,484.01 398.47,481.52 398.47,481.52 402.2,485.25 	"/>
	<polygon points="428.31,481.52 428.31,481.52 430.8,484.01 433.01,481.81 430.52,479.32 430.52,479.32 434.24,475.59 
		432.04,473.38 428.31,477.11 428.31,477.11 425.82,474.62 423.61,476.82 426.1,479.31 426.1,479.32 422.38,483.04 424.58,485.25 	
		"/>
	<polygon points="442.68,470.26 445.17,472.75 447.38,470.55 444.88,468.05 444.89,468.05 448.61,464.32 446.41,462.12 
		442.68,465.85 440.18,463.35 437.98,465.56 440.47,468.05 440.47,468.05 436.75,471.78 438.95,473.98 442.68,470.26 	"/>
	<polygon points="376.91,477.45 380.64,481.18 382.84,478.97 379.12,475.24 379.12,475.24 381.61,472.75 379.41,470.55 
		376.91,473.04 373.18,469.31 370.98,471.52 374.7,475.24 374.71,475.25 372.21,477.74 374.42,479.94 376.91,477.45 	"/>
	<polygon points="369.72,484.65 373.44,488.37 375.65,486.17 371.92,482.44 371.92,482.44 374.42,479.94 372.21,477.74 
		369.72,480.23 365.99,476.5 363.78,478.71 367.51,482.44 365.02,484.93 367.22,487.14 369.72,484.64 	"/>
	<polygon points="146.37,380.56 150.09,384.28 150.09,384.28 147.6,386.78 149.8,388.98 152.3,386.49 156.03,390.22 158.23,388.01 
		154.5,384.28 157,381.79 154.79,379.58 152.3,382.08 148.57,378.35 	"/>
	<polygon points="164.7,503.39 162.21,500.9 162.21,500.9 165.93,497.17 163.73,494.96 160,498.69 160,498.69 157.51,496.2 
		155.3,498.4 157.79,500.9 154.07,504.62 156.27,506.83 160,503.1 162.5,505.6 	"/>
	<polygon points="171.89,510.58 169.4,508.09 173.13,504.36 170.92,502.16 167.19,505.88 164.7,503.39 162.5,505.6 164.99,508.09 
		161.26,511.82 163.47,514.02 167.2,510.3 169.69,512.79 	"/>
	<polygon points="157.51,496.2 155.01,493.7 158.74,489.98 156.53,487.77 152.81,491.5 152.81,491.5 150.31,489 148.11,491.21 
		150.6,493.7 150.6,493.7 146.87,497.43 149.08,499.64 152.81,495.91 155.3,498.4 	"/>
	<polygon points="135.26,526.16 132.13,526.16 132.13,531.43 126.86,531.43 126.86,531.43 125.08,531.43 125.08,524.38 
		130.35,524.38 130.35,521.25 125.08,521.25 125.08,515.98 121.96,515.98 121.96,521.25 116.69,521.25 116.69,524.38 121.96,524.38 
		121.96,531.43 120.17,531.43 120.17,531.43 114.9,531.43 114.9,526.16 111.78,526.16 111.78,531.43 106.51,531.43 106.51,534.55 
		111.78,534.55 111.78,539.82 114.9,539.82 114.9,534.55 121.96,534.55 121.96,541.61 116.69,541.61 116.69,544.73 125.08,544.73 
		125.08,544.73 130.35,544.73 130.35,541.61 125.08,541.61 125.08,534.55 132.13,534.55 132.13,539.82 135.26,539.82 135.26,534.55 
		140.53,534.55 140.53,531.43 135.26,531.43 	"/>
	<polygon points="145.43,500.98 142.31,500.98 142.31,506.25 137.04,506.25 137.04,509.38 142.31,509.38 142.31,514.65 
		145.43,514.65 145.43,509.38 150.7,509.38 150.7,506.25 145.43,506.25 	"/>
	<polygon points="179.09,517.78 176.59,515.29 176.59,515.28 180.32,511.56 178.11,509.35 174.39,513.08 174.39,513.08 
		171.89,510.58 169.69,512.79 172.18,515.28 168.45,519.01 170.66,521.22 174.39,517.49 176.88,519.98 	"/>
	<polygon points="145.43,515.98 142.31,515.98 142.31,521.25 137.04,521.25 137.04,524.38 142.31,524.38 142.31,529.65 
		145.43,529.65 145.43,524.38 150.7,524.38 150.7,521.25 145.43,521.25 	"/>
	<polygon points="229.45,505.6 227.25,503.39 224.75,505.88 221.03,502.16 218.82,504.36 222.55,508.09 220.05,510.58 
		222.26,512.79 224.75,510.3 224.75,510.3 228.48,514.02 230.69,511.82 226.96,508.09 	"/>
	<rect x="183.18" y="545.47" transform="matrix(0.7071 -0.7071 0.7071 0.7071 -332.3882 291.6102)" width="5.27" height="3.12"/>
	<polygon points="236.65,498.4 234.44,496.2 231.95,498.69 231.95,498.69 228.22,494.96 226.01,497.17 229.74,500.9 229.74,500.9 
		227.25,503.39 229.45,505.6 231.95,503.1 235.67,506.83 237.88,504.62 234.15,500.9 	"/>
	<polygon points="245.07,497.43 241.35,493.7 241.35,493.7 243.84,491.21 241.63,489 239.14,491.5 235.41,487.77 233.21,489.98 
		236.93,493.7 234.44,496.2 236.65,498.4 239.14,495.91 242.87,499.64 	"/>
	<rect x="121.96" y="544.73" width="3.12" height="5.27"/>
	<polygon points="222.26,512.79 220.05,510.58 217.56,513.08 217.56,513.08 213.83,509.35 211.63,511.56 215.35,515.28 
		215.35,515.29 212.86,517.78 215.07,519.98 217.56,517.49 217.56,517.49 221.29,521.22 223.49,519.01 219.77,515.28 	"/>
	<polygon points="215.06,519.98 212.86,517.78 210.37,520.27 210.37,520.27 206.64,516.54 204.43,518.75 208.16,522.48 
		208.16,522.48 206.9,523.74 206.9,523.74 203.17,527.47 199.44,523.74 197.24,525.95 200.96,529.67 197.24,533.4 195.97,534.66 
		194.71,533.4 194.71,533.4 190.98,529.67 194.71,525.95 192.5,523.74 188.78,527.47 188.78,527.47 185.05,523.74 185.05,523.74 
		183.79,522.48 183.79,522.48 187.51,518.75 185.31,516.54 181.58,520.27 181.58,520.27 179.09,517.78 176.88,519.98 179.38,522.48 
		175.65,526.21 177.85,528.41 181.58,524.68 182.84,525.95 182.84,525.95 186.57,529.67 182.84,533.4 185.05,535.61 188.78,531.88 
		192.5,535.61 193.77,536.87 188.78,541.86 185.05,538.13 182.84,540.34 186.57,544.07 186.57,544.07 188.78,546.27 192.5,550 
		194.71,547.79 190.98,544.07 194.71,540.34 195.97,539.08 197.24,540.34 200.96,544.07 197.24,547.79 199.44,550 203.17,546.27 
		206.9,550 209.1,547.79 205.38,544.07 205.38,544.07 209.1,540.34 206.9,538.13 203.17,541.86 203.17,541.86 199.44,538.13 
		199.44,538.13 198.18,536.87 199.44,535.61 203.17,531.88 206.9,535.61 209.1,533.4 205.38,529.67 209.1,525.95 209.1,525.95 
		210.36,524.68 214.09,528.41 216.3,526.21 212.57,522.48 	"/>
	<polygon points="74.82,515.28 77.31,512.79 75.11,510.58 72.62,513.08 68.89,509.35 66.68,511.56 70.41,515.29 67.92,517.78 
		70.12,519.98 72.61,517.49 72.61,517.49 76.34,521.22 78.55,519.01 74.82,515.28 	"/>
	<polygon points="60.01,359.25 62.21,361.45 65.94,357.73 65.94,357.73 70.92,362.7 70.92,362.7 67.19,366.43 69.4,368.64 
		73.12,364.91 75.62,367.4 77.82,365.2 75.33,362.7 79.06,358.98 76.85,356.77 73.12,360.5 70.64,358.01 68.15,355.52 71.87,351.79 
		69.67,349.59 65.94,353.31 63.45,350.82 61.24,353.03 63.73,355.52 63.73,355.52 	"/>
	<polygon points="75.62,367.4 78.11,369.9 78.11,369.9 74.38,373.62 76.59,375.83 80.32,372.1 80.32,372.1 82.81,374.6 
		85.01,372.39 82.52,369.9 82.52,369.9 86.25,366.17 84.04,363.96 80.32,367.69 80.31,367.69 77.82,365.2 	"/>
	<polygon points="52.82,377.69 55.03,379.9 58.75,376.17 58.75,376.17 61.25,378.67 63.45,376.46 60.96,373.97 64.69,370.24 
		62.48,368.03 58.75,371.76 56.26,369.27 54.05,371.47 56.55,373.97 56.55,373.97 	"/>
	<polygon points="90,381.79 92.5,384.28 92.5,384.28 88.77,388.01 90.98,390.22 94.7,386.49 94.7,386.49 97.2,388.98 99.4,386.78 
		96.91,384.28 100.64,380.56 98.43,378.35 94.7,382.08 94.7,382.08 92.21,379.58 	"/>
	<polygon points="109.96,521.25 104.69,521.25 104.69,515.98 101.57,515.98 101.57,521.25 96.3,521.25 96.3,524.38 101.57,524.38 
		101.57,529.65 104.69,529.65 104.69,524.38 109.96,524.38 	"/>
	<polygon points="82.81,374.6 85.3,377.09 85.3,377.09 81.58,380.82 83.78,383.02 87.51,379.3 87.51,379.3 90,381.79 92.21,379.58 
		89.71,377.09 89.72,377.09 93.44,373.36 91.24,371.16 87.51,374.88 85.01,372.39 	"/>
	<polygon points="50,439.2 50,452.86 52.61,452.86 52.61,447.59 57.88,447.59 57.88,444.47 52.61,444.47 52.61,439.2 	"/>
	<polygon points="82.01,508.09 84.51,505.6 82.3,503.39 79.81,505.88 76.08,502.16 73.87,504.36 77.6,508.09 75.11,510.58 
		77.31,512.79 79.81,510.3 79.81,510.3 83.53,514.02 85.74,511.82 82.01,508.09 	"/>
	<polygon points="89.21,500.9 91.7,498.4 89.5,496.2 87,498.69 83.27,494.96 81.07,497.17 84.8,500.9 82.3,503.39 84.51,505.6 
		87,503.1 87,503.1 90.73,506.83 92.94,504.62 89.21,500.9 	"/>
	<polygon points="100.13,497.43 96.4,493.7 96.4,493.7 98.89,491.21 96.69,489 94.2,491.5 90.47,487.77 88.26,489.98 91.99,493.7 
		89.5,496.2 91.7,498.4 94.19,495.91 94.2,495.91 97.92,499.64 	"/>
	<polygon points="254.91,521.25 249.64,521.25 249.64,515.98 246.51,515.98 246.51,521.25 241.24,521.25 241.24,524.38 
		246.51,524.38 246.51,529.65 249.64,529.65 249.64,524.38 254.91,524.38 	"/>
	<polygon points="101.57,369.71 104.69,369.71 104.69,364.44 109.96,364.44 109.96,361.31 104.69,361.31 104.69,356.04 
		101.57,356.04 101.57,361.31 96.3,361.31 96.3,364.44 101.57,364.44 	"/>
	<polygon points="70.12,519.98 67.92,517.78 65.42,520.27 61.69,516.54 59.49,518.75 63.21,522.48 61.95,523.74 61.95,523.74 
		58.22,527.47 54.5,523.74 52.29,525.95 56.02,529.67 52.29,533.4 52.29,533.4 51.03,534.66 50,533.64 50,540.1 51.03,539.08 
		52.29,540.34 56.02,544.07 52.29,547.79 54.5,550 60.43,544.07 60.43,544.07 64.16,540.34 61.95,538.13 58.22,541.86 54.5,538.13 
		53.24,536.87 58.22,531.88 61.95,535.61 64.16,533.4 60.43,529.67 64.16,525.95 64.16,525.95 65.42,524.68 65.42,524.69 
		69.15,528.41 71.35,526.21 67.63,522.48 	"/>
	<rect x="59.63" y="544.4" transform="matrix(0.7071 -0.7071 0.7071 0.7071 -368.8883 203.4912)" width="3.12" height="5.27"/>
	<polygon points="425.15,526.16 422.03,526.16 422.03,531.43 416.75,531.43 416.75,531.43 414.97,531.43 414.97,524.38 
		420.24,524.38 420.24,521.25 414.97,521.25 414.97,515.98 411.85,515.98 411.85,521.25 406.58,521.25 406.58,524.38 411.85,524.38 
		411.85,531.43 410.06,531.43 410.06,531.43 404.79,531.43 404.79,526.16 401.67,526.16 401.67,531.43 396.4,531.43 396.4,534.55 
		401.67,534.55 401.67,539.82 404.79,539.82 404.79,534.55 411.85,534.55 411.85,541.61 406.58,541.61 406.58,544.73 414.97,544.73 
		414.97,544.73 420.24,544.73 420.24,541.61 414.97,541.61 414.97,534.55 422.03,534.55 422.03,539.82 425.15,539.82 425.15,534.55 
		430.42,534.55 430.42,531.43 425.15,531.43 	"/>
	<rect x="411.85" y="544.73" width="3.12" height="5.27"/>
	<polygon points="371.9,508.09 374.4,505.6 372.19,503.39 369.7,505.88 365.97,502.16 363.76,504.36 367.49,508.09 365,510.58 
		367.2,512.79 369.7,510.3 369.7,510.3 373.43,514.02 375.63,511.82 371.91,508.09 	"/>
	<polygon points="435.32,500.98 432.2,500.98 432.2,506.25 426.93,506.25 426.93,509.38 432.2,509.38 432.2,514.65 435.32,514.65 
		435.32,509.38 440.59,509.38 440.59,506.25 435.32,506.25 	"/>
	<polygon points="399.85,521.25 394.58,521.25 394.58,515.98 391.46,515.98 391.46,521.25 386.19,521.25 386.19,524.38 
		391.46,524.38 391.46,529.65 394.58,529.65 394.58,524.38 399.85,524.38 	"/>
	<polygon points="379.1,500.9 381.59,498.4 379.39,496.2 376.89,498.69 373.17,494.96 370.96,497.17 374.69,500.9 372.19,503.39 
		374.4,505.6 376.89,503.1 376.89,503.1 380.62,506.83 382.83,504.62 379.1,500.9 	"/>
	<polygon points="390.02,497.43 386.29,493.7 386.29,493.7 388.79,491.21 386.58,489 384.09,491.5 380.36,487.77 378.15,489.98 
		381.88,493.7 379.39,496.2 381.59,498.4 384.08,495.91 384.09,495.91 387.81,499.64 	"/>
	<polygon points="435.32,515.98 432.2,515.98 432.2,521.25 426.93,521.25 426.93,524.38 432.2,524.38 432.2,529.65 435.32,529.65 
		435.32,524.38 440.59,524.38 440.59,521.25 435.32,521.25 	"/>
	<rect x="473.07" y="545.47" transform="matrix(0.7071 -0.7071 0.7071 0.7071 -247.4812 496.5938)" width="5.27" height="3.12"/>
	<polygon points="468.98,517.78 466.48,515.29 466.49,515.28 470.21,511.56 468,509.35 464.28,513.08 464.28,513.08 461.78,510.58 
		459.58,512.79 462.07,515.28 458.34,519.01 460.55,521.22 464.28,517.49 466.77,519.98 	"/>
	<polygon points="447.4,496.2 444.9,493.7 448.63,489.98 446.42,487.77 442.7,491.5 442.7,491.5 440.2,489 438,491.21 440.49,493.7 
		440.49,493.7 436.76,497.43 438.97,499.64 442.7,495.91 445.19,498.4 	"/>
	<polygon points="485.85,539.09 485.85,534.65 484.6,533.4 484.6,533.4 480.88,529.67 484.6,525.95 482.39,523.74 478.67,527.47 
		478.67,527.47 474.94,523.74 474.94,523.74 473.68,522.48 473.68,522.48 477.41,518.75 475.2,516.54 471.47,520.27 471.47,520.27 
		468.98,517.78 466.77,519.98 469.27,522.48 465.54,526.21 467.75,528.41 471.47,524.68 472.74,525.95 472.73,525.95 476.46,529.67 
		472.73,533.4 474.94,535.61 478.67,531.88 482.39,535.61 483.66,536.87 478.67,541.86 474.94,538.13 472.73,540.34 476.46,544.07 
		476.46,544.07 478.67,546.27 482.39,550 484.6,547.79 480.88,544.07 484.6,540.34 	"/>
	<polygon points="454.59,503.39 452.1,500.9 452.1,500.9 455.82,497.17 453.62,494.96 449.89,498.69 449.89,498.69 447.4,496.2 
		445.19,498.4 447.69,500.9 443.96,504.62 446.16,506.83 449.89,503.1 452.39,505.6 	"/>
	<polygon points="461.78,510.58 459.29,508.09 463.02,504.36 460.81,502.16 457.08,505.88 454.59,503.39 452.39,505.6 
		454.88,508.09 451.15,511.82 453.36,514.02 457.09,510.3 459.58,512.79 	"/>
	<polygon points="324.03,517.78 321.54,515.29 325.27,511.56 323.06,509.35 319.33,513.08 316.84,510.58 314.63,512.79 
		317.13,515.28 313.4,519.01 315.61,521.22 319.33,517.49 321.83,519.98 	"/>
	<polygon points="280.17,526.16 277.05,526.16 277.05,531.43 271.78,531.43 271.78,531.43 269.99,531.43 269.99,524.38 
		275.26,524.38 275.26,521.25 269.99,521.25 269.99,515.98 268.45,515.98 268.45,544.73 275.26,544.73 275.26,541.61 269.99,541.61 
		269.99,534.55 277.05,534.55 277.05,539.82 280.17,539.82 280.17,534.55 285.44,534.55 285.44,531.43 280.17,531.43 	"/>
	<polygon points="290.38,515.98 287.26,515.98 287.26,521.25 281.99,521.25 281.99,524.38 287.26,524.38 287.26,529.65 
		290.38,529.65 290.38,524.38 295.65,524.38 295.65,521.25 290.38,521.25 	"/>
	<rect x="268.45" y="544.73" width="1.54" height="5.27"/>
	<polygon points="266.9,521.25 261.63,521.25 261.63,524.38 266.9,524.38 266.9,531.43 265.12,531.43 265.12,531.43 259.85,531.43 
		259.85,526.16 256.73,526.16 256.73,531.43 251.46,531.43 251.46,534.55 256.73,534.55 256.73,539.82 259.85,539.82 259.85,534.55 
		266.9,534.55 266.9,541.61 261.63,541.61 261.63,544.73 268.45,544.73 268.45,515.98 266.9,515.98 	"/>
	<polygon points="290.38,500.98 287.26,500.98 287.26,506.25 281.99,506.25 281.99,509.38 287.26,509.38 287.26,514.65 
		290.38,514.65 290.38,509.38 295.65,509.38 295.65,506.25 290.38,506.25 	"/>
	<polygon points="266.9,506.25 261.63,506.25 261.63,509.38 266.9,509.38 266.9,514.65 268.45,514.65 268.45,500.98 266.9,500.98 	
		"/>
	<rect x="266.9" y="544.73" width="1.54" height="5.27"/>
	<rect x="349.52" y="544.4" transform="matrix(0.7071 -0.7071 0.7071 0.7071 -283.9814 408.4748)" width="3.12" height="5.27"/>
	<polygon points="364.71,515.28 367.2,512.79 365,510.58 362.51,513.08 358.78,509.35 356.57,511.56 360.3,515.29 357.81,517.78 
		360.01,519.98 362.5,517.49 362.5,517.49 366.23,521.22 368.44,519.01 364.71,515.28 	"/>
	<polygon points="360.01,519.98 357.81,517.78 355.31,520.27 351.58,516.54 349.38,518.75 353.11,522.48 351.84,523.74 
		351.84,523.74 348.12,527.47 344.39,523.74 342.18,525.95 345.91,529.67 342.18,533.4 342.18,533.4 340.92,534.66 339.66,533.4 
		335.93,529.67 339.66,525.95 337.45,523.74 333.72,527.47 330,523.74 330,523.74 328.73,522.48 328.73,522.48 332.46,518.75 
		330.25,516.54 326.53,520.27 326.53,520.27 324.03,517.78 321.83,519.98 324.32,522.48 324.32,522.48 320.59,526.21 322.8,528.41 
		326.53,524.69 326.53,524.68 327.79,525.95 327.79,525.95 331.52,529.67 327.79,533.4 330,535.61 333.72,531.88 338.71,536.87 
		337.45,538.13 337.45,538.13 333.72,541.86 330,538.13 327.79,540.34 331.52,544.07 327.79,547.79 330,550 333.72,546.27 
		337.45,550 339.66,547.79 335.93,544.07 340.92,539.08 342.18,540.34 345.91,544.07 342.18,547.79 344.39,550 350.32,544.07 
		350.32,544.07 354.05,540.34 351.84,538.13 348.12,541.86 344.39,538.13 343.13,536.87 348.12,531.88 351.84,535.61 354.05,533.4 
		350.32,529.67 354.05,525.95 354.05,525.95 355.31,524.68 355.31,524.69 359.04,528.41 361.25,526.21 357.52,522.48 	"/>
	<polygon points="316.84,510.58 314.35,508.09 314.35,508.09 318.07,504.36 315.87,502.16 312.14,505.88 312.14,505.88 
		309.65,503.39 307.44,505.6 309.93,508.09 309.93,508.09 306.21,511.82 308.41,514.02 312.14,510.3 312.14,510.3 314.63,512.79 	
		"/>
	<polygon points="309.64,503.39 307.15,500.9 310.88,497.17 308.67,494.96 304.94,498.69 302.45,496.2 300.25,498.4 302.74,500.9 
		299.01,504.62 301.22,506.83 304.95,503.1 307.44,505.6 	"/>
	<polygon points="302.45,496.2 299.96,493.7 299.96,493.7 303.69,489.98 301.48,487.77 297.75,491.5 297.75,491.5 295.26,489 
		293.05,491.21 295.55,493.7 295.54,493.7 291.82,497.43 294.03,499.64 297.75,495.91 297.75,495.91 300.25,498.4 	"/>
	<polygon points="60.01,384.89 62.22,387.09 65.95,383.37 68.44,385.86 70.65,383.65 68.15,381.16 71.88,377.43 69.67,375.23 
		65.95,378.95 63.45,376.46 61.25,378.67 63.74,381.16 63.74,381.16 	"/>
	<polygon points="95.98,420.86 98.19,423.06 101.92,419.34 101.92,419.33 104.41,421.83 106.61,419.62 104.12,417.13 104.12,417.13 
		107.85,413.4 105.64,411.2 101.92,414.92 101.91,414.92 99.42,412.43 97.22,414.63 99.71,417.13 99.71,417.13 	"/>
	<polygon points="134.18,392.74 131.98,394.94 135.71,398.67 133.21,401.17 135.42,403.37 137.91,400.88 141.64,404.6 143.84,402.4 
		140.12,398.67 140.12,398.67 142.61,396.18 140.41,393.97 137.91,396.46 	"/>
	<polygon points="147.58,412.43 145.09,414.92 145.09,414.92 141.36,411.2 139.15,413.4 142.88,417.13 142.88,417.13 140.39,419.62 
		142.59,421.83 145.09,419.33 148.81,423.06 151.02,420.86 147.29,417.13 149.79,414.63 	"/>
	<polygon points="151.53,457.13 149.32,454.92 145.59,458.65 145.59,458.65 140.62,453.68 140.62,453.68 144.35,449.95 
		142.14,447.74 138.41,451.47 138.41,451.47 136.61,449.66 136.63,449.64 132.9,445.91 132.9,445.91 136.63,442.18 134.42,439.98 
		130.7,443.7 126.97,439.98 126.97,439.98 125.71,438.71 126.97,437.45 130.7,433.73 134.42,437.45 136.63,435.25 132.9,431.52 
		136.63,427.79 136.63,427.79 137.89,426.53 137.89,426.53 141.62,430.26 143.83,428.05 140.1,424.32 142.59,421.83 140.39,419.62 
		137.89,422.12 134.17,418.39 131.96,420.6 135.69,424.32 134.42,425.59 134.42,425.59 130.7,429.31 126.97,425.59 124.76,427.79 
		128.49,431.52 124.76,435.25 123.5,436.51 122.24,435.25 122.24,435.25 118.51,431.52 122.24,427.79 120.03,425.59 116.3,429.31 
		112.58,425.59 112.58,425.59 111.31,424.32 111.32,424.32 115.04,420.6 112.84,418.39 109.11,422.12 109.11,422.12 106.61,419.62 
		104.41,421.83 106.9,424.32 106.9,424.32 103.18,428.05 105.38,430.26 109.11,426.53 110.37,427.79 110.37,427.79 114.1,431.52 
		110.37,435.25 112.58,437.45 116.3,433.73 120.03,437.45 121.29,438.71 116.3,443.7 112.58,439.98 110.37,442.18 114.1,445.91 
		114.1,445.91 116.3,448.12 120.03,451.84 122.24,449.64 118.51,445.91 122.24,442.18 123.5,440.92 124.76,442.18 128.49,445.91 
		124.76,449.64 126.97,451.84 130.7,448.12 133.74,451.16 133.71,451.18 136.21,453.67 136.21,453.68 132.48,457.4 134.69,459.61 
		138.41,455.88 138.41,455.88 143.39,460.86 143.39,460.86 139.66,464.58 141.87,466.79 145.59,463.06 145.6,463.06 148.09,465.56 
		150.29,463.35 147.8,460.86 147.8,460.86 	"/>
	<polygon points="159.47,400.54 155.75,396.81 153.54,399.01 157.27,402.74 157.27,402.74 154.78,405.24 156.98,407.44 
		159.47,404.95 163.2,408.68 165.41,406.47 161.68,402.74 161.68,402.74 164.17,400.25 161.97,398.04 159.48,400.54 	"/>
	<polygon points="110.4,449.66 108.59,451.47 104.86,447.74 102.66,449.95 106.38,453.68 103.89,456.17 103.89,456.17 
		101.41,458.65 97.68,454.92 95.47,457.13 99.2,460.86 96.71,463.35 98.91,465.56 101.41,463.06 105.13,466.79 107.34,464.58 
		103.61,460.86 103.61,460.86 108.59,455.88 112.32,459.61 114.52,457.4 110.8,453.68 110.79,453.67 113.29,451.18 113.26,451.16 
		116.3,448.12 114.1,445.91 110.37,449.64 	"/>
	<polygon points="152.28,407.73 148.55,404 146.35,406.21 150.07,409.94 150.08,409.94 147.58,412.43 149.79,414.63 152.28,412.14 
		152.28,412.14 156.01,415.87 158.21,413.66 154.49,409.93 156.98,407.44 154.77,405.24 152.28,407.73 	"/>
	<polygon points="87.53,400.54 85.03,398.04 82.83,400.25 85.32,402.74 81.59,406.47 83.8,408.68 87.53,404.95 87.53,404.95 
		90.02,407.44 92.23,405.24 89.73,402.74 89.73,402.74 93.46,399.01 91.25,396.81 	"/>
	<polygon points="109.09,396.46 109.09,396.46 106.6,393.97 104.39,396.18 106.88,398.67 103.16,402.4 105.36,404.6 109.09,400.88 
		109.09,400.88 111.58,403.37 113.79,401.17 111.3,398.67 111.3,398.67 115.02,394.94 112.82,392.74 	"/>
	<polygon points="80.33,393.34 77.84,390.85 75.63,393.05 78.13,395.55 74.4,399.27 76.61,401.48 80.33,397.75 82.83,400.25 
		85.03,398.04 82.54,395.55 86.27,391.82 84.06,389.61 	"/>
	<polygon points="78.23,444.47 72.96,444.47 72.96,439.2 69.84,439.2 69.84,444.47 64.57,444.47 64.57,447.59 69.84,447.59 
		69.84,452.86 72.96,452.86 72.96,447.59 78.23,447.59 	"/>
	<polygon points="72.96,467.86 72.96,462.59 78.23,462.59 78.23,459.47 72.96,459.47 72.96,454.2 69.84,454.2 69.84,459.47 
		64.57,459.47 64.57,462.59 69.84,462.59 69.84,467.86 	"/>
	<polygon points="73.14,386.15 73.14,386.15 70.65,383.65 68.44,385.86 70.93,388.35 70.93,388.35 67.21,392.08 69.41,394.29 
		73.14,390.56 73.14,390.56 75.63,393.05 77.84,390.85 75.35,388.35 79.07,384.63 76.87,382.42 	"/>
	<polygon points="92.23,405.24 90.02,407.44 92.52,409.93 88.79,413.66 91,415.87 94.72,412.14 97.22,414.63 99.42,412.43 
		96.93,409.94 100.66,406.21 98.45,404 94.72,407.73 	"/>
	<polygon points="166.67,393.34 162.94,389.61 160.73,391.82 164.46,395.55 164.46,395.55 161.97,398.04 164.17,400.25 
		166.67,397.75 170.39,401.48 172.6,399.27 168.87,395.55 171.37,393.05 169.16,390.85 166.67,393.34 	"/>
	<rect x="50" y="482.95" width="2.61" height="5.27"/>
	<polygon points="50,454.2 50,482.94 52.61,482.94 52.61,482.95 57.88,482.95 57.88,479.82 52.61,479.82 52.61,472.77 59.66,472.77 
		59.66,478.04 62.78,478.04 62.78,472.77 68.05,472.77 68.05,469.65 62.78,469.65 62.78,464.38 59.66,464.38 59.66,469.65 
		54.39,469.65 54.39,469.65 52.61,469.65 52.61,462.59 57.88,462.59 57.88,459.47 52.61,459.47 52.61,454.2 	"/>
	<polygon points="133.72,476.82 135.92,474.62 133.43,472.12 137.16,468.4 134.95,466.19 131.23,469.92 131.22,469.92 
		128.73,467.42 128.73,467.43 125.71,464.41 123.5,466.62 127.23,470.34 127.23,470.34 129.02,472.12 125.29,475.85 127.5,478.06 
		131.23,474.33 	"/>
	<polygon points="58.25,506.23 61.97,509.95 64.18,507.75 60.45,504.02 60.45,504.02 62.94,501.53 60.74,499.32 58.25,501.81 
		54.52,498.09 52.31,500.29 56.04,504.02 53.55,506.51 53.55,506.51 51.05,509.01 50,507.97 50,514.47 51.05,513.43 54.77,517.15 
		56.98,514.95 53.25,511.22 56.98,507.49 56.98,507.49 58.24,506.23 	"/>
	<polygon points="98.89,491.21 101.39,488.71 101.39,488.72 105.12,492.44 107.32,490.24 103.6,486.51 103.59,486.51 106.09,484.01 
		103.88,481.81 101.39,484.3 97.66,480.58 95.46,482.78 99.18,486.51 96.69,489 	"/>
	<polygon points="104.69,514.65 104.69,509.38 109.96,509.38 109.96,506.25 104.69,506.25 104.69,500.98 101.57,500.98 
		101.57,506.25 96.3,506.25 96.3,509.38 101.57,509.38 101.57,514.65 	"/>
	<polygon points="183.55,376.46 181.06,378.95 181.06,378.95 177.33,375.23 175.12,377.43 178.85,381.16 178.85,381.16 
		176.36,383.65 178.56,385.86 181.05,383.37 184.78,387.09 186.99,384.89 183.26,381.16 185.75,378.67 	"/>
	<polygon points="177.16,467.86 177.16,462.59 182.43,462.59 182.43,459.47 177.16,459.47 177.16,454.2 174.04,454.2 174.04,459.47 
		168.77,459.47 168.77,462.59 174.04,462.59 174.04,467.86 	"/>
	<polygon points="182.43,444.47 177.16,444.47 177.16,439.2 174.04,439.2 174.04,444.47 168.77,444.47 168.77,447.59 174.04,447.59 
		174.04,452.86 177.16,452.86 177.16,447.59 182.43,447.59 	"/>
	<polygon points="98.17,397.41 101.9,393.68 104.39,396.18 106.6,393.97 104.1,391.48 107.83,387.75 105.62,385.54 101.9,389.27 
		99.4,386.78 97.2,388.98 99.69,391.48 95.96,395.2 	"/>
	<polygon points="170.13,382.42 167.93,384.63 171.66,388.35 171.66,388.35 169.16,390.85 171.37,393.05 173.86,390.56 
		177.59,394.29 179.8,392.08 176.07,388.35 178.56,385.86 176.36,383.65 173.86,386.15 	"/>
	<polygon points="147.6,386.78 145.11,389.27 145.1,389.27 141.38,385.54 139.17,387.75 142.9,391.48 142.9,391.48 140.41,393.97 
		142.61,396.18 145.1,393.68 148.83,397.41 151.04,395.2 147.31,391.48 149.8,388.98 	"/>
	<polygon points="120.01,399.93 116.28,403.66 113.79,401.17 111.58,403.37 114.08,405.86 110.35,409.59 112.56,411.8 
		116.29,408.07 117.55,409.34 117.55,409.34 121.28,413.07 117.55,416.79 119.76,419 123.48,415.27 127.21,419 129.42,416.79 
		125.69,413.07 128.21,410.55 128.22,410.56 130.72,408.07 130.72,408.07 134.44,411.8 136.65,409.59 132.92,405.86 135.42,403.37 
		133.21,401.17 130.72,403.66 130.72,403.66 126.99,399.93 124.78,402.14 128.51,405.86 128.51,405.87 127.23,407.15 127.21,407.13 
		123.48,410.86 120.98,408.36 120.98,408.36 118.49,405.87 122.22,402.14 	"/>
	<polygon points="182.32,370.24 186.04,373.97 186.04,373.97 183.55,376.46 185.75,378.67 188.25,376.17 191.98,379.9 
		194.18,377.69 190.46,373.97 190.46,373.97 192.95,371.47 190.74,369.27 188.25,371.76 188.25,371.76 184.52,368.03 	"/>
	<polygon points="101.57,354.71 104.69,354.71 104.69,349.44 109.96,349.44 109.96,346.31 104.69,346.31 104.69,341.04 
		101.57,341.04 101.57,346.31 96.3,346.31 96.3,349.44 101.57,349.44 	"/>
	<polygon points="189.13,447.59 194.4,447.59 194.4,452.86 197.52,452.86 197.52,447.59 202.79,447.59 202.79,444.47 197.52,444.47 
		197.52,439.2 194.4,439.2 194.4,444.47 189.13,444.47 	"/>
	<polygon points="161.99,372.39 164.19,374.6 166.69,372.1 170.41,375.83 172.62,373.62 168.89,369.9 171.39,367.4 169.18,365.2 
		166.69,367.69 166.69,367.69 162.96,363.96 160.75,366.17 164.48,369.9 	"/>
	<polygon points="171.67,362.7 169.18,365.2 171.39,367.4 173.88,364.91 177.61,368.64 179.81,366.43 176.09,362.7 178.57,360.22 
		181.06,357.73 184.79,361.45 187,359.25 183.27,355.52 185.76,353.03 183.56,350.82 181.06,353.31 181.06,353.31 177.33,349.59 
		175.13,351.79 178.85,355.52 178.86,355.52 173.88,360.5 173.88,360.5 170.15,356.77 167.95,358.98 171.67,362.7 	"/>
	<polygon points="199.3,469.65 197.52,469.65 197.52,462.59 202.79,462.59 202.79,459.47 197.52,459.47 197.52,454.2 194.4,454.2 
		194.4,459.47 189.13,459.47 189.13,462.59 194.4,462.59 194.4,469.65 192.61,469.65 192.61,469.65 187.34,469.65 187.34,464.38 
		184.22,464.38 184.22,469.65 178.95,469.65 178.95,472.77 184.22,472.77 184.22,478.04 187.34,478.04 187.34,472.77 194.4,472.77 
		194.4,479.82 189.13,479.82 189.13,482.95 194.4,482.95 194.4,482.94 202.79,482.94 202.79,479.82 197.52,479.82 197.52,472.77 
		204.57,472.77 204.57,478.04 207.69,478.04 207.69,472.77 212.96,472.77 212.96,469.65 207.69,469.65 207.69,464.38 204.57,464.38 
		204.57,469.65 199.3,469.65 	"/>
	<polygon points="214.78,467.86 217.91,467.86 217.91,462.59 223.18,462.59 223.18,459.47 217.91,459.47 217.91,454.2 214.78,454.2 
		214.78,459.47 209.51,459.47 209.51,462.59 214.78,462.59 	"/>
	<rect x="194.4" y="482.95" width="3.12" height="5.27"/>
	<polygon points="157.29,377.09 154.79,379.58 157,381.79 159.49,379.3 163.22,383.02 165.43,380.82 161.7,377.09 164.19,374.6 
		161.99,372.39 159.49,374.88 159.49,374.88 155.77,371.16 153.56,373.36 157.29,377.09 	"/>
	<rect x="121.92" y="384.79" width="3.12" height="5.27"/>
	<polygon points="214.78,452.86 217.91,452.86 217.91,447.59 223.18,447.59 223.18,444.47 217.91,444.47 217.91,439.2 214.78,439.2 
		214.78,444.47 209.51,444.47 209.51,447.59 214.78,447.59 	"/>
	<polygon points="106.48,374.61 111.75,374.61 111.75,379.88 114.87,379.88 114.87,374.61 121.92,374.61 121.92,381.67 
		116.65,381.67 116.65,384.79 121.92,384.79 121.92,384.79 130.31,384.79 130.31,381.67 125.04,381.67 125.04,374.61 132.1,374.61 
		132.1,379.88 135.22,379.88 135.22,374.61 140.49,374.61 140.49,371.49 135.22,371.49 135.22,366.22 132.1,366.22 132.1,371.49 
		126.83,371.49 126.83,371.49 125.04,371.49 125.04,364.44 130.31,364.44 130.31,361.31 125.04,361.31 125.04,356.04 121.92,356.04 
		121.92,361.31 116.65,361.31 116.65,364.44 121.92,364.44 121.92,371.49 120.14,371.49 120.14,371.49 114.87,371.49 114.87,366.22 
		111.75,366.22 111.75,371.49 106.48,371.49 	"/>
	<polygon points="121.92,354.71 125.04,354.71 125.04,349.44 130.31,349.44 130.31,346.31 125.04,346.31 125.04,341.04 
		121.92,341.04 121.92,346.31 116.65,346.31 116.65,349.44 121.92,349.44 	"/>
	<polygon points="142.31,369.71 145.43,369.71 145.43,364.44 150.7,364.44 150.7,361.31 145.43,361.31 145.43,356.04 142.31,356.04 
		142.31,361.31 137.04,361.31 137.04,364.44 142.31,364.44 	"/>
	<polygon points="142.31,354.71 145.43,354.71 145.43,349.44 150.7,349.44 150.7,346.31 145.43,346.31 145.43,341.04 142.31,341.04 
		142.31,346.31 137.04,346.31 137.04,349.44 142.31,349.44 	"/>
	<polygon points="159.98,477.45 162.48,479.94 164.68,477.74 162.19,475.25 162.19,475.24 165.92,471.52 163.71,469.31 
		159.98,473.04 159.98,473.04 157.49,470.55 155.28,472.75 157.78,475.24 154.05,478.97 156.25,481.18 	"/>
	<polygon points="217.58,491.84 221.3,495.57 223.51,493.36 219.78,489.63 219.78,489.63 222.28,487.14 220.07,484.93 
		217.58,487.43 213.85,483.7 211.64,485.91 215.37,489.63 212.88,492.13 215.08,494.33 217.58,491.84 	"/>
	<polygon points="138.42,481.52 138.42,481.52 140.91,484.01 143.12,481.81 140.62,479.32 140.63,479.32 144.35,475.59 
		142.15,473.38 138.42,477.11 138.42,477.11 135.92,474.62 133.72,476.82 136.21,479.31 136.21,479.32 132.49,483.04 134.69,485.25 
			"/>
	<polygon points="114.52,483.04 110.79,479.31 113.28,476.82 111.08,474.62 108.58,477.11 104.86,473.38 102.65,475.59 
		106.38,479.32 103.88,481.81 106.09,484.01 108.58,481.52 108.58,481.52 112.31,485.25 	"/>
	<polygon points="94.21,470.26 97.94,473.98 100.15,471.78 96.42,468.05 96.42,468.05 98.91,465.56 96.71,463.35 94.21,465.85 
		94.21,465.84 90.49,462.12 88.28,464.32 92.01,468.05 89.51,470.55 91.72,472.75 94.21,470.26 	"/>
	<polygon points="72.63,491.84 76.36,495.57 78.57,493.36 74.84,489.63 77.33,487.14 75.13,484.93 72.63,487.43 68.91,483.7 
		66.7,485.91 70.43,489.63 67.93,492.13 70.14,494.33 72.63,491.84 	"/>
	<polygon points="79.83,484.65 83.55,488.37 85.76,486.17 82.03,482.44 82.03,482.44 84.53,479.94 82.32,477.74 79.83,480.23 
		76.1,476.5 73.89,478.71 77.62,482.44 75.13,484.93 77.33,487.14 79.83,484.64 	"/>
	<polygon points="87.02,477.45 90.75,481.18 92.95,478.97 89.23,475.24 89.23,475.24 91.72,472.75 89.51,470.55 87.02,473.04 
		83.29,469.31 81.09,471.52 84.81,475.24 84.81,475.25 82.32,477.74 84.53,479.94 87.02,477.45 	"/>
	<polygon points="181.56,499.03 181.56,499.03 184.06,501.53 186.26,499.32 183.77,496.83 183.77,496.83 187.5,493.1 185.29,490.89 
		181.56,494.62 181.56,494.62 179.07,492.13 176.86,494.33 179.36,496.83 179.36,496.83 175.63,500.55 177.84,502.76 	"/>
	<polygon points="174.37,491.84 174.37,491.84 176.86,494.33 179.07,492.13 176.58,489.63 180.3,485.91 178.1,483.7 174.37,487.43 
		174.37,487.43 171.88,484.93 169.67,487.14 172.16,489.63 172.16,489.63 168.44,493.36 170.64,495.57 	"/>
	<polygon points="152.79,470.26 155.28,472.75 157.49,470.55 154.99,468.05 155,468.05 158.72,464.32 156.51,462.12 152.79,465.85 
		150.29,463.35 148.09,465.56 150.58,468.05 150.58,468.05 146.85,471.78 149.06,473.98 152.79,470.26 	"/>
	<polygon points="210.38,499.03 214.11,502.76 216.32,500.55 212.59,496.83 212.59,496.83 215.08,494.33 212.88,492.13 
		210.38,494.62 210.38,494.62 206.66,490.89 204.45,493.1 208.18,496.83 208.18,496.83 205.68,499.32 207.89,501.53 210.38,499.03 	
		"/>
	<polygon points="69.17,502.76 71.37,500.55 67.65,496.83 67.64,496.83 70.14,494.33 67.93,492.13 65.44,494.62 61.71,490.89 
		59.5,493.1 63.23,496.83 60.74,499.32 62.94,501.53 65.44,499.03 	"/>
	<polygon points="167.18,484.65 167.18,484.64 169.67,487.14 171.88,484.93 169.38,482.44 169.38,482.44 173.11,478.71 170.9,476.5 
		167.18,480.23 167.17,480.23 164.68,477.74 162.48,479.94 164.97,482.44 164.97,482.44 161.24,486.17 163.45,488.37 	"/>
</g>
<g>
</g>
<g>
</g>
<g>
</g>
<g>
</g>
<g>
</g>
<g>
</g>
<g>
</g>
<g>
</g>
<g>
</g>
<g>
</g>
<g>
</g>
<g>
</g>
<g>
</g>
<g>
</g>
<g>
</g>
</svg>
