<?xml version="1.0" encoding="utf-8"?>
<!-- Generator: Adobe Illustrator 27.2.0, SVG Export Plug-In . SVG Version: 6.00 Build 0)  -->
<svg version="1.1" id="Layer_1" xmlns="http://www.w3.org/2000/svg" xmlns:xlink="http://www.w3.org/1999/xlink" x="0px" y="0px"
	 viewBox="0 0 800 600" style="enable-background:new 0 0 800 600;" xml:space="preserve">
<g>
	<path d="M269.37,485.85c4.01-1.05,6.58-2.88,7.95-4.1c3.68-3.29,5.37-7.87,4.43-11.94c-0.94-4.08-4.48-7.44-9.22-8.79
		c-1.76-0.5-4.88-1.01-8.94-0.19c2.84-3.02,4.06-5.93,4.57-7.69c1.37-4.74,0.39-9.52-2.57-12.48c-2.96-2.96-7.74-3.94-12.48-2.56
		c-1.76,0.51-4.67,1.73-7.68,4.58c0.81-4.07,0.3-7.18-0.2-8.94c-1.21-4.28-4.08-7.57-7.62-8.86c0.03-1.62,0.06-3.2,0.08-4.75
		c1.8,0.19,3.51,0.28,5.12,0.28c11.93,0,18.51-4.91,20.77-10.08c1.77-4.06,0.88-8.37-2.27-10.98c-1.16-0.96-4.24-2.89-9.63-2.33
		c5.18-3.43,7.71-7.57,8.25-11.21c0.57-3.83-1.04-7.25-4.21-8.93c-2.03-1.07-4.41-1.35-7.02-0.9c6.98-4.99,9.53-11.03,9.31-15.95
		c-0.21-4.95-3.22-8.94-7.48-9.92c-4.46-1.02-9.23,1.32-13.39,6.39c8.09-21.99-1.3-28.9-4.54-30.55c-6-3.04-13.85-0.89-17.14,4.69
		c-1.88,3.19-6.12,14.79,17.25,30.93c0.15,1.16,0.33,2.64,0.51,4.47c-8.16-11.33-16.87-13.38-22.7-11.19
		c-5.42,2.03-8.55,7.58-7.46,13.2c0.42,2.13,2.13,7.11,9.1,10.64c-0.83,0.27-1.47,0.58-1.89,0.84c-3.58,2.15-5.02,6.55-3.59,10.94
		c1.16,3.57,4.36,7.29,9.94,9.7c-2.87,0.16-4.68,1.14-5.53,1.73c-3.12,2.18-4.22,5.99-2.88,9.93c1.93,5.7,9.48,12.07,24.43,12.07
		c0.65,0,1.32-0.02,1.99-0.04c0,0.14,0,0.28-0.01,0.42c-3.57-0.15-7.32,1.54-10.12,4.68c-1.22,1.36-3.04,3.94-4.09,7.95
		c-1.47-3.88-3.55-6.25-4.91-7.48c-3.66-3.31-8.38-4.52-12.34-3.16v0c-1.56,0.54-2.96,1.47-4.15,2.69
		c-0.06-0.89-0.22-1.78-0.51-2.66c-0.79-2.46-2.36-4.61-4.58-6.38c0.6,0.07,1.2,0.11,1.79,0.11c2.14,0,4.16-0.46,5.96-1.38
		c3.5-1.79,5.77-5.24,5.77-8.79c0-3.55-2.26-7-5.77-8.79c-2.3-1.18-4.93-1.59-7.74-1.28c2.21-1.77,3.78-3.92,4.57-6.37
		c1.21-3.75,0.37-7.79-2.14-10.29c-2.51-2.51-6.55-3.35-10.29-2.14c-2.46,0.79-4.61,2.36-6.38,4.57c0.31-2.81-0.1-5.44-1.27-7.74
		c-1.79-3.5-5.24-5.77-8.79-5.77c-0.16,0-0.32,0.03-0.49,0.04c-13.11-27.06-34.24-43.44-56.56-43.82
		c-15.2-0.29-28.69,7.27-35.17,19.64c-7.91,15.09-4.49,34.83,9.37,54.15l0.88,1.22l1.22-0.88c28.98-20.82,29.01-42.06,26.64-52.52
		c7.54,6.36,11.42,13.27,11.25,20.16c-0.2,7.99-5.74,15.93-15.61,22.35c-17.97,11.7-39.37,33.72-40.53,57.31
		c-0.65,13.2,5.1,24.75,17.08,34.35c1.95,1.56,3.95,2.95,5.98,4.16c-7.75-1.37-13.94-0.83-18.66,0.4
		c-8.41,2.2-14.83,7.36-18.09,14.53c-5.96,13.1-0.72,24.3,5.57,29.9c4.11,3.66,9.05,5.54,13.96,5.54c3.41,0,6.81-0.91,9.9-2.77
		c4.8-2.89,7.48-7.12,7.34-11.6c-0.12-3.91-2.44-7.5-6.05-9.38c-4.02-2.09-8.96-1.87-13.88,0.56c0.95-6.09,4.52-10.04,10.63-11.77
		c9.43-2.66,22.34,0.8,29.78,5.36c-8.08,1.11-14.92,7.54-15.9,15.79c-0.96,8.05,4.8,15.38,12.84,16.34
		c0.49,0.06,0.97,0.09,1.44,0.09c6.01,0,11.23-4.51,11.96-10.62c0.32-2.64-0.41-5.24-2.06-7.33c-1.64-2.09-4-3.41-6.64-3.73
		c-2.19-0.26-4.35,0.34-6.09,1.71c-1.73,1.36-2.83,3.32-3.1,5.51c-0.22,1.83,0.29,3.64,1.43,5.09c1.14,1.45,2.78,2.37,4.61,2.59
		l0.36-2.98c-1.04-0.12-1.96-0.64-2.61-1.46c-0.65-0.82-0.93-1.84-0.81-2.88c0.17-1.39,0.87-2.64,1.97-3.51
		c1.11-0.87,2.49-1.25,3.88-1.09c1.84,0.22,3.49,1.15,4.64,2.61s1.66,3.28,1.44,5.12c-0.29,2.4-1.5,4.55-3.4,6.04
		c-1.9,1.5-4.28,2.16-6.68,1.87c-6.4-0.77-10.99-6.6-10.22-13.01c0.96-8.01,8.55-13.96,16.71-13.26c0.53,0.52,0.97,1.05,1.31,1.57
		c8.61,13.15,15.78,19.73,30.46,18.85c4.66,2.38,10.11,3.65,16.25,3.65c0.03,0,0.05,0,0.08,0c19.53-0.03,40.27-12.82,45.11-27.33
		c2.37,1.1,4.9,1.88,7.54,2.28c-6.47,15.06-2.13,23.76,0.12,26.87c2.61,3.61,6.43,5.73,10.2,5.73c0.4,0,0.81-0.02,1.21-0.07
		c4.15-0.51,7.87-3.67,9.7-8.26c0.68-1.7,1.51-4.74,1.12-8.87c2.71,3.14,5.47,4.66,7.17,5.35c1.85,0.75,3.74,1.12,5.55,1.12
		c2.68,0,5.19-0.8,7.12-2.38c3.25-2.63,4.73-7.29,3.85-12.14c-0.32-1.8-1.24-4.83-3.75-8.13c2.36,0.74,4.44,0.98,6.12,0.98
		c1.13,0,2.08-0.1,2.8-0.23c4.86-0.84,8.73-3.82,10.09-7.78l-1.42-0.49l1.42,0.49c1.36-3.96,0.15-8.69-3.17-12.34
		C275.61,489.4,273.24,487.32,269.37,485.85z M245.71,499.19c0.17,0.2,0.35,0.41,0.52,0.61c-0.25-0.1-0.49-0.19-0.74-0.29
		C245.57,499.4,245.64,499.29,245.71,499.19z M225.88,508.03c-13.55,1.67-25.96-8.01-27.63-21.57c-0.81-6.57,0.99-13.06,5.06-18.28
		c4.07-5.22,9.94-8.54,16.51-9.35c1.03-0.13,2.06-0.19,3.08-0.19c5.49,0,10.8,1.82,15.2,5.25c5.22,4.07,8.54,9.94,9.35,16.51
		C249.12,493.97,239.44,506.36,225.88,508.03z M155.94,505.81c3.64,3.03,9.78,3.11,14.28,0.17c4.43-2.89,6.13-7.92,4.55-13.47
		c-0.25-0.88-0.59-1.7-0.97-2.48c1.87,0.57,4.11,0.98,6.81,0.98c3.98,0,8.9-0.9,14.77-3.42c0.75,4.93,2.75,9.38,5.67,13.05
		l-1.74-1.32c-16.24,21.37-29.33,20.9-35.69,18.72c-8.24-2.83-13.09-10.92-13.02-17.12c0.02-1.68,0.43-4.31,2.54-6.2
		C151.66,500.98,154.12,504.3,155.94,505.81z M143.6,427.24c1.46-4.51,6.43-7.8,13.68-9.06c1.07,1.59,2.45,2.96,4.04,4.04
		c-1.26,7.24-4.55,12.22-9.06,13.68c-2.68,0.87-5.53,0.32-7.25-1.41C143.28,432.77,142.73,429.93,143.6,427.24z M145,385.26
		c1.72-1.72,4.56-2.27,7.25-1.41c4.51,1.46,7.79,6.43,9.06,13.68c-1.59,1.07-2.96,2.45-4.04,4.04c-7.24-1.26-12.22-4.55-13.68-9.06
		C142.73,389.83,143.28,386.98,145,385.26z M181.5,409.88c0,6.55-5.33,11.88-11.88,11.88c-6.55,0-11.88-5.33-11.88-11.88
		S163.07,398,169.62,398C176.17,398,181.5,403.33,181.5,409.88z M155.02,412.73c-6.01,4.23-11.85,5.42-16.07,3.27
		c-2.51-1.29-4.13-3.69-4.13-6.12c0-2.43,1.62-4.84,4.13-6.12c4.22-2.16,10.06-0.96,16.07,3.27c-0.18,0.92-0.28,1.88-0.28,2.85
		S154.83,411.81,155.02,412.73z M166.76,424.48c0.92,0.18,1.88,0.28,2.85,0.28s1.93-0.1,2.85-0.28c4.23,6.01,5.43,11.86,3.27,16.07
		c-1.29,2.51-3.69,4.13-6.12,4.13s-4.83-1.62-6.12-4.13C161.34,436.34,162.53,430.49,166.76,424.48z M169.62,447.69
		c3.55,0,7-2.26,8.79-5.77c1.18-2.3,1.59-4.93,1.27-7.74c1.77,2.21,3.92,3.78,6.38,4.57c1.14,0.37,2.3,0.55,3.44,0.55
		c2.09,0,4.1-0.61,5.72-1.75c-0.17,1.86-0.1,4.53,0.9,7.74c-3.3-2.51-6.32-3.42-8.12-3.74c-4.86-0.87-9.51,0.61-12.14,3.86
		c-2.63,3.25-3.11,8.11-1.24,12.68c0.69,1.69,2.21,4.46,5.35,7.16c-4.13-0.38-7.17,0.45-8.87,1.13c-4.58,1.83-7.74,5.55-8.25,9.71
		c-0.22,1.81,0.07,3.66,0.79,5.4c-2.54-0.85-5.28-1.26-8.04-1.22c5.33-6.03,16.39-20.32,13.81-32.59
		C169.48,447.67,169.55,447.69,169.62,447.69z M170.26,485.06c-3.11-2.25-4.82-5.55-4.44-8.61c0.38-3.07,2.82-5.86,6.39-7.29
		c3.15-1.26,11.7-3.08,23.93,6.57c-0.81,2.81-1.17,5.74-1.05,8.71C180.88,490.88,173.02,487.05,170.26,485.06z M197.19,472.76
		c-0.21-0.16-0.42-0.31-0.62-0.47c0.25,0.04,0.51,0.08,0.76,0.12C197.29,472.53,197.24,472.64,197.19,472.76z M198.76,469.59
		c-15.45-2.08-20.09-9.49-21.37-12.63c-1.45-3.55-1.14-7.25,0.8-9.66c1.94-2.4,5.5-3.48,9.28-2.79c3.34,0.6,11.56,3.59,16.81,18.26
		c-1.2,1.08-2.32,2.27-3.33,3.57C200.14,467.37,199.41,468.46,198.76,469.59z M206.75,460.78c-0.09-0.24-0.18-0.48-0.28-0.72
		c0.19,0.17,0.38,0.34,0.58,0.51C206.95,460.64,206.85,460.71,206.75,460.78z M221.2,455.7c0.05-0.26,0.1-0.52,0.15-0.77
		c0.07,0.25,0.15,0.5,0.23,0.75C221.45,455.69,221.32,455.7,221.2,455.7z M250.6,484.69c0.26,0.08,0.51,0.15,0.76,0.22
		c-0.26,0.05-0.52,0.1-0.79,0.15C250.58,484.94,250.59,484.82,250.6,484.69z M271.7,463.91c3.69,1.05,6.42,3.56,7.12,6.58
		c0.7,3.01-0.65,6.47-3.51,9.03c-2.53,2.26-9.94,6.9-24.75,2c-0.03-0.5-0.08-0.99-0.14-1.49c-0.3-2.46-0.93-4.83-1.83-7.06
		C259.74,462.08,268.43,462.99,271.7,463.91z M247.24,470.11c-0.06-0.11-0.11-0.22-0.17-0.33c0.25-0.07,0.5-0.13,0.74-0.2
		C247.62,469.76,247.43,469.93,247.24,470.11z M253.94,440.99c3.68-1.07,7.33-0.38,9.52,1.8c2.19,2.18,2.88,5.83,1.81,9.52
		c-0.94,3.26-4.78,11.12-19.92,14.81c-1.51-2.08-3.32-3.97-5.41-5.59c-0.27-0.21-0.54-0.4-0.81-0.6
		C242.81,445.78,250.67,441.94,253.94,440.99z M236.47,459.21c-0.11-0.06-0.22-0.12-0.33-0.18c0.18-0.19,0.36-0.38,0.53-0.57
		C236.61,458.71,236.54,458.96,236.47,459.21z M259.38,401.68c2.13,1.76,2.68,4.62,1.44,7.46c-2.05,4.69-9.33,9.48-23.1,7.97
		c0.05-3.94,0.06-7.63,0.06-11.11C248.7,398.72,256.09,398.95,259.38,401.68z M254.31,379.55c2.04,1.08,3.03,3.26,2.64,5.83
		c-0.71,4.73-6.2,11.09-19.21,14.06c-0.05-5.2-0.16-9.83-0.3-13.92C245.14,378.66,251.18,377.9,254.31,379.55z M237.3,381.72
		c0-0.04,0-0.08,0-0.12c0.09-0.03,0.17-0.06,0.25-0.09C237.46,381.58,237.38,381.65,237.3,381.72z M249.86,353.05
		c2.93,0.67,5,3.54,5.15,7.12c0.25,5.8-4.37,13.54-17.87,18.29c-0.34-6.68-0.77-11.5-1.15-14.83
		C240.17,355.97,245.36,352.01,249.86,353.05z M218.05,332.18c1.73-2.94,5.13-4.62,8.59-4.62c1.57,0,3.16,0.35,4.6,1.08
		c5.69,2.89,9.13,12.07,2.16,29.22l-0.59,0.13C217.38,346.83,214.97,337.41,218.05,332.18z M206,367.49
		c-0.81-4.17,1.53-8.3,5.57-9.82c5.41-2.03,14.06,0.73,22.09,14.59l0.08-0.04c0.15,2.16,0.3,4.58,0.44,7.32
		C215.21,379.91,207.19,373.59,206,367.49z M232.44,382.56c0.61,0,1.24-0.01,1.87-0.02c0.07,1.72,0.14,3.54,0.2,5.48
		c-2.5-2.37-4.83-4.21-6.96-5.62C229.09,382.5,230.71,382.56,232.44,382.56z M209.52,389.55c-1-3.08-0.11-6,2.28-7.44
		c3.95-2.37,12.01-0.94,22.82,10.23c0.05,2.29,0.09,4.71,0.12,7.27C218.96,400.77,211.29,394.97,209.52,389.55z M230.85,402.77
		c1.25,0,2.56-0.06,3.91-0.15c0.01,1.54,0.02,3.11,0.01,4.75c-2.88-2.12-5.48-3.67-7.82-4.77
		C228.2,402.7,229.49,402.77,230.85,402.77z M211.03,410.88c-0.89-2.63-0.22-5.13,1.76-6.51c3.46-2.42,11.03-1.88,21.97,6.77
		c-0.01,3.09-0.05,6.32-0.1,9.73C219.95,421.46,212.73,415.86,211.03,410.88z M226.72,430.97c2.56-2.86,6.02-4.21,9.03-3.51
		c3.01,0.69,5.53,3.42,6.58,7.11c0.93,3.27,1.84,11.96-9.04,23.11c-2.72-1.11-5.61-1.78-8.56-1.97
		C219.83,440.92,224.46,433.5,226.72,430.97z M204.12,429.12l-0.49-1.42L204.12,429.12c2.92-1.01,6.51-0.03,9.35,2.54
		c2.52,2.28,7.88,9.18,4.57,24.4c-2.93,0.51-5.72,1.48-8.29,2.85c-12-9.95-12-18.69-11.42-22.04
		C198.98,433.1,201.2,430.13,204.12,429.12z M195.64,427.24c0.87,2.69,0.32,5.53-1.4,7.25c-1.72,1.72-4.57,2.27-7.25,1.41
		c-4.51-1.46-7.79-6.43-9.06-13.68c1.59-1.07,2.96-2.45,4.04-4.04C189.2,419.45,194.18,422.73,195.64,427.24z M200.29,403.76
		c2.51,1.29,4.13,3.69,4.13,6.12s-1.62,4.83-4.13,6.12c-4.22,2.16-10.06,0.96-16.07-3.27c0.18-0.92,0.28-1.88,0.28-2.85
		c0-0.98-0.1-1.93-0.28-2.85C190.23,402.8,196.07,401.6,200.29,403.76z M186.98,383.86c2.68-0.87,5.53-0.31,7.25,1.41
		c1.72,1.72,2.27,4.57,1.4,7.25c-1.46,4.51-6.43,7.79-13.68,9.06c-1.07-1.59-2.45-2.96-4.04-4.04
		C179.19,390.29,182.47,385.32,186.98,383.86z M175.74,379.2c2.16,4.22,0.96,10.06-3.27,16.07c-0.92-0.18-1.88-0.28-2.85-0.28
		s-1.93,0.1-2.85,0.28c-4.23-6.01-5.43-11.86-3.27-16.08c1.29-2.51,3.69-4.13,6.12-4.13S174.45,376.69,175.74,379.2z M73.61,449.87
		c1.11-22.46,21.79-43.63,39.17-54.94c10.72-6.98,16.75-15.78,16.97-24.79c0.22-8.82-5.2-17.51-15.68-25.16
		c-0.29-0.44-1.02-1.45-2.17-0.86c-0.46,0.23-1.14,0.83-0.6,2.22c2.55,6.57,8.3,29.61-22.96,52.76
		c-12.45-17.96-15.48-36.04-8.28-49.77c5.95-11.36,18.41-18.26,32.46-18.03c21.01,0.36,40.99,15.87,53.62,41.53
		c-2.19,0.93-4.12,2.69-5.31,5.02c-0.55,1.07-0.92,2.22-1.15,3.42c-2.31-5.93-7.89-16.34-20.71-25.73l-3.96-2.9l1.66,4.62
		c6.7,18.63-3.02,40-25.36,55.75c-35.81,25.25-28.5,46.23-23.7,54.07c8.26,13.49,27.5,20.24,39.61,13.87
		c8.11-4.27,12.31-12.2,11.23-21.21c-1.08-8.96-6.94-16.5-14.27-18.34c-4.14-1.04-12.33-1.02-20.58,10.77l-2.13,3.04l3.64-0.71
		c8.03-1.57,14.85-0.14,17.81,3.71c1.99,2.58,2.02,6.03,0.1,9.98c-1.06,2.19-3.62,2.74-5.59,2.83c-0.18,0.01-0.37,0.01-0.56,0.01
		c-5.97,0-14.25-3.87-18.27-10.62c-3.41-5.72-3.04-12.38,1.07-19.26c4.77-7.97,13.5-11.98,23.32-10.72
		c11.9,1.53,21.75,9.97,25.1,21.5c3.48,11.97-2.27,25.81-13.99,33.64c-13.58,9.08-30.24,7.65-44.55-3.82
		C78.38,472.76,73.01,462.04,73.61,449.87z M115.04,494.5c7.22,0,14.3-2.14,20.76-6.45c12.79-8.55,19.05-23.76,15.2-36.97
		c-3.69-12.68-14.52-21.95-27.6-23.64c-11.06-1.42-20.88,3.12-26.27,12.15c-5.95,9.96-3.87,17.64-1.08,22.33
		c4.9,8.22,14.73,12.38,21.53,12.07c3.92-0.17,6.82-1.77,8.16-4.51c2.42-4.96,2.27-9.62-0.42-13.12c-3.2-4.17-9.41-6.09-17.03-5.37
		c4.8-5.61,10.11-7.97,15.18-6.71c6.05,1.51,11.1,8.15,12.02,15.79c0.94,7.84-2.58,14.48-9.65,18.2
		c-10.62,5.59-28.28-0.74-35.65-12.78c-4.36-7.12-10.87-26.26,22.87-50.05c21.71-15.31,32.02-35.86,27.78-54.64
		c10.15,8.57,14.57,17.59,16.34,22.37c-1.21-0.97-2.55-1.7-3.99-2.17c-3.75-1.21-7.79-0.37-10.29,2.14
		c-2.51,2.51-3.35,6.55-2.14,10.29c0.79,2.46,2.36,4.61,4.57,6.37c-2.81-0.31-5.44,0.1-7.74,1.28c-3.5,1.79-5.77,5.24-5.77,8.79
		s2.26,7,5.77,8.79c1.81,0.92,3.82,1.38,5.96,1.38c0.58,0,1.18-0.04,1.79-0.11c-2.21,1.77-3.78,3.92-4.58,6.38
		c-1.21,3.75-0.37,7.79,2.14,10.29c1.75,1.75,4.24,2.68,6.85,2.68c1.14,0,2.3-0.18,3.44-0.55c2.46-0.79,4.61-2.36,6.38-4.57
		c-0.31,2.81,0.1,5.44,1.27,7.74c1.19,2.32,3.11,4.08,5.29,5.01c4.23,13.23-12.55,31.22-15.03,33.78c-0.55,0.1-1.09,0.22-1.63,0.35
		c-9.14,2.36-18.48,10.36-16.63,25.29c-7.42-5.21-14.2-9.1-20.35-11.96C113.33,494.46,114.19,494.5,115.04,494.5z M121.77,511.81
		c-5.16-7.88-25-14.79-38.2-11.06c-5.77,1.63-12.73,5.96-13.06,17.34l-0.08,2.87l2.41-1.58c4.79-3.14,9.68-3.82,13.42-1.88
		c2.65,1.38,4.35,3.99,4.43,6.81c0.11,3.42-1.99,6.59-5.89,8.94c-6.46,3.89-14.25,2.96-20.31-2.44c-5.53-4.93-10.11-14.8-4.83-26.42
		c2.88-6.33,8.6-10.9,16.12-12.87c15.04-3.93,35.57,2.85,57.87,19.09c1.97,8.04,5.88,14.37,11.38,18.68
		C134.69,528.58,128.93,522.75,121.77,511.81z M166.04,532.95c-0.02,0-0.05,0-0.07,0c-4.3,0-10.13-0.7-15.57-3.64l0-0.04
		c-0.02,0-0.04,0-0.06,0c-5.97-3.25-11.45-9.19-13.92-19.89c-3.51-15.2,4.83-23.09,13.8-25.4c8.69-2.24,19.18,0.64,21.67,9.37
		c1.67,5.86-1.35,8.86-3.3,10.13c-3.39,2.21-8.09,2.22-10.72,0.04c-2.61-2.18-2.87-6.2-0.72-11.34l1.25-2.99l-3.09,0.98
		c-4.83,1.54-7.64,5.45-7.7,10.73c-0.08,7.16,5.16,16.6,15.04,19.99c7.11,2.44,21.61,3.12,38.93-19.59c1.97,2.33,4.3,4.33,6.9,5.91
		C204.38,520.8,184.64,532.92,166.04,532.95z M237.15,534.06c-1.43,3.56-4.22,6.01-7.28,6.39c-3.06,0.37-6.37-1.32-8.62-4.43
		c-1.99-2.75-5.82-10.61,0.59-24.82c0.33,0.01,0.65,0.02,0.98,0.02c1.13,0,2.27-0.07,3.42-0.21c1.48-0.18,2.92-0.48,4.31-0.88
		C240.23,522.35,238.41,530.9,237.15,534.06z M233.54,509.07c0.12-0.05,0.23-0.1,0.35-0.15c0.04,0.26,0.08,0.52,0.12,0.78
		C233.85,509.49,233.7,509.28,233.54,509.07z M259.02,528.07c-2.4,1.95-6.1,2.26-9.66,0.8c-3.14-1.28-10.56-5.91-12.65-21.36
		c2.56-1.48,4.85-3.36,6.8-5.53c14.7,5.24,17.7,13.47,18.3,16.81C262.49,522.56,261.42,526.12,259.02,528.07z M277.17,502.12
		L277.17,502.12c-1,2.92-3.98,5.14-7.76,5.8c-3.35,0.58-12.1,0.58-22.06-11.43c1.37-2.56,2.35-5.35,2.86-8.27
		c15.21-3.33,22.12,2.03,24.41,4.55C277.2,495.61,278.18,499.19,277.17,502.12z"/>
	<path d="M99.83,345.45c-4.84,0.09-7.8,2.29-9.54,5.52c-5.82,9.59,0.51,28.16,0.51,28.16S115.17,358.73,99.83,345.45z"/>
	<path d="M196.59,531.88c3.05,15.48,11.83,17.55,14.69,14.69S212.07,534.93,196.59,531.88z"/>
	<path d="M193.93,550c4.04,0,8.79-7.67,0-20.78C185.14,542.33,189.88,550,193.93,550z"/>
	<path d="M193.93,529.22c13.11,8.79,20.78,4.04,20.78,0C214.71,525.18,207.03,520.43,193.93,529.22z"/>
	<path d="M174.73,334.83c-2.86-2.86-11.64-0.79-14.69,14.69C175.52,346.47,177.59,337.69,174.73,334.83z"/>
	<path d="M178.15,352.19c0-4.04-7.67-8.79-20.78,0C170.48,360.98,178.15,356.23,178.15,352.19z"/>
	<path d="M157.37,331.4c-4.04,0-8.79,7.67,0,20.78C166.16,339.08,161.42,331.4,157.37,331.4z"/>
	<path d="M68.12,486.76c-3.05-15.48-11.83-17.55-14.69-14.69C50.57,474.92,52.63,483.71,68.12,486.76z"/>
	<path d="M70.78,468.64c-4.04,0-8.79,7.67,0,20.78C79.57,476.31,74.82,468.64,70.78,468.64z"/>
	<path d="M70.78,489.42c-13.11-8.79-20.78-4.04-20.78,0S57.67,498.21,70.78,489.42z"/>
	<path d="M222.85,471.88c-6.38,0-11.55,5.17-11.55,11.55c0,6.38,5.17,11.55,11.55,11.55s11.55-5.17,11.55-11.55
		C234.4,477.05,229.23,471.88,222.85,471.88z"/>
</g>
<g>
</g>
<g>
</g>
<g>
</g>
<g>
</g>
<g>
</g>
<g>
</g>
<g>
</g>
<g>
</g>
<g>
</g>
<g>
</g>
<g>
</g>
<g>
</g>
<g>
</g>
<g>
</g>
<g>
</g>
</svg>
