<?xml version="1.0" encoding="utf-8"?>
<!-- Generator: Adobe Illustrator 27.2.0, SVG Export Plug-In . SVG Version: 6.00 Build 0)  -->
<svg version="1.1" id="Layer_1" xmlns="http://www.w3.org/2000/svg" xmlns:xlink="http://www.w3.org/1999/xlink" x="0px" y="0px"
	 viewBox="0 0 800 600" style="enable-background:new 0 0 800 600;" xml:space="preserve">
<g>
	<polygon points="123.53,440.87 125.79,440.87 125.79,436.36 130.31,436.36 130.31,434.1 125.79,434.1 125.79,429.59 123.53,429.59 
		123.53,434.1 119.02,434.1 119.02,436.36 123.53,436.36 	"/>
	<polygon points="106.6,427.29 108.86,427.29 108.86,422.77 113.38,422.77 113.38,420.51 108.86,420.51 108.86,416 106.6,416 
		106.6,420.51 102.09,420.51 102.09,422.77 106.6,422.77 	"/>
	<polygon points="93.06,445.39 97.57,445.39 97.57,449.9 99.83,449.9 99.83,445.39 106.6,445.39 106.6,452.16 102.09,452.16 
		102.09,454.42 106.6,454.42 106.6,458.93 108.86,458.93 108.86,454.42 113.38,454.42 113.38,452.16 108.86,452.16 108.86,445.39 
		115.63,445.39 115.63,449.9 117.89,449.9 117.89,445.39 122.4,445.39 122.4,443.13 117.89,443.13 117.89,438.61 115.63,438.61 
		115.63,443.13 108.86,443.13 108.86,436.36 113.38,436.36 113.38,434.1 108.86,434.1 108.86,429.59 106.6,429.59 106.6,434.1 
		102.09,434.1 102.09,436.36 106.6,436.36 106.6,443.13 99.83,443.13 99.83,438.61 97.57,438.61 97.57,443.13 93.06,443.13 	"/>
	<path d="M64.51,520.53L64.51,520.53l10.62,10.62l9.03-9.03l7.82-7.82c1.11,7.71,7.74,13.65,15.75,13.65
		c8.01,0,14.64-5.95,15.75-13.66l7.29,7.29l9.56,9.56l8.5-8.5l10.62-10.62l-8.5-8.5l-10.62-10.62l-10.62,10.62l-6.23,6.23
		c-0.41-2.88-1.59-5.52-3.34-7.69c8.01,1.04,8.35-8.33,12.02-11.64c-8.04-3.11-14.09,4.45-14.26,9.35c-2.21-1.84-4.92-3.07-7.9-3.5
		l6.23-6.23l0,0l10.62-10.62l-8.5-8.5l0,0l-10.62-10.62l-10.62,10.62l0,0l-8.5,8.5l8.5,8.5l0,0l1.41,1.41l0.71,0.71l0,0l6.23,6.23
		c-2.88,0.41-5.52,1.59-7.69,3.34c1.04-8.01-8.33-8.35-11.64-12.02c-3.11,8.04,4.45,14.09,9.35,14.26c-1.84,2.21-3.07,4.92-3.5,7.9
		l-6.94-6.94l-9.92-9.92l-10.62,10.62l0,0l-8.5,8.5L64.51,520.53z M140.33,526.92l-6.38-6.38l6.38-6.38l3.19,3.19l3.19,3.19
		L140.33,526.92z M155.22,512.03l-6.38,6.38l-3.19-3.19l-3.19-3.19l6.38-6.38L155.22,512.03z M140.33,497.15l6.38,6.38l-6.38,6.38
		l-3.19-3.19l-3.19-3.19L140.33,497.15z M131.83,505.65l3.19,3.19l3.19,3.19l-6.38,6.38l-6.38-6.38L131.83,505.65z M122.62,479.43
		l-6.38,6.38l-6.38-6.38l3.19-3.19l3.19-3.19L122.62,479.43z M107.73,464.55l6.38,6.38l-6.38,6.38l-6.38-6.38L107.73,464.55z
		 M99.23,485.81l-6.38-6.38l6.38-6.38l3.19,3.19l3.19,3.19L99.23,485.81z M101.35,487.93l3.19-3.19l3.19-3.19l6.38,6.38l-6.38,6.38
		L101.35,487.93z M107.73,499.1c7.13,0,12.93,5.8,12.93,12.93c0,7.13-5.8,12.93-12.93,12.93c-7.13,0-12.93-5.8-12.93-12.93
		C94.8,504.9,100.6,499.1,107.73,499.1z M75.13,526.92l-6.38-6.38l3.19-3.19l3.19-3.19l3.19,3.19l3.19,3.19L75.13,526.92z
		 M90.02,512.03l-6.38,6.38l-3.19-3.19l-3.19-3.19l0,0l0,0l3.19-3.19l3.19-3.19L90.02,512.03z M75.13,497.15l6.38,6.38l-3.19,3.19
		l-3.19,3.19l-6.38-6.38L75.13,497.15z M66.63,505.65l6.38,6.38l-3.19,3.19l-3.19,3.19l-6.38-6.38L66.63,505.65z"/>
	<g>
		<polygon points="188.45,504.1 183.93,504.1 183.93,499.59 181.67,499.59 181.67,504.1 177.16,504.1 177.16,506.36 181.67,506.36 
			181.67,510.87 183.93,510.87 183.93,506.36 188.45,506.36 		"/>
		<polygon points="198.6,497.29 200,497.29 201.4,497.29 201.4,492.77 205.91,492.77 205.91,490.51 201.4,490.51 201.4,486 200,486 
			198.6,486 198.6,490.51 194.09,490.51 194.09,492.77 198.6,492.77 		"/>
		<polygon points="218.33,504.1 218.33,499.59 216.07,499.59 216.07,504.1 211.55,504.1 211.55,506.36 216.07,506.36 216.07,510.87 
			218.33,510.87 218.33,506.36 222.84,506.36 222.84,504.1 		"/>
		<polygon points="210.43,508.61 208.17,508.61 208.17,513.13 201.4,513.13 201.4,506.36 205.91,506.36 205.91,504.1 201.4,504.1 
			201.4,499.59 200,499.59 198.6,499.59 198.6,504.1 194.09,504.1 194.09,506.36 198.6,506.36 198.6,513.13 191.83,513.13 
			191.83,508.61 189.57,508.61 189.57,513.13 185.06,513.13 185.06,515.39 189.57,515.39 189.57,519.9 191.83,519.9 191.83,515.39 
			198.6,515.39 198.6,522.16 194.09,522.16 194.09,524.42 198.6,524.42 198.6,528.93 200,528.93 201.4,528.93 201.4,524.42 
			205.91,524.42 205.91,522.16 201.4,522.16 201.4,515.39 208.17,515.39 208.17,519.9 210.43,519.9 210.43,515.39 214.94,515.39 
			214.94,513.13 210.43,513.13 		"/>
	</g>
	<polygon points="89.67,440.87 91.93,440.87 91.93,436.36 96.45,436.36 96.45,434.1 91.93,434.1 91.93,429.59 89.67,429.59 
		89.67,434.1 85.16,434.1 85.16,436.36 89.67,436.36 	"/>
	<path d="M194.14,542.59L194.14,542.59l-0.62,0.62l-1.23,1.23l0,0l-4.06,4.06l-4.06-4.06l0,0l-0.92-0.92l-0.92-0.92l0,0l-5.59-5.59
		l-5.59,5.59l0,0l-0.62,0.62l-1.23,1.23l0,0l-4.06,4.06l-4.06-4.06l0,0l-0.92-0.92l-0.92-0.92l0,0l-5.59-5.59l-5.59,5.59l0,0
		l-0.62,0.62l-1.23,1.23l0,0l-4.06,4.06l-4.06-4.06l0,0l-0.92-0.92l-0.92-0.92l0,0l-5.59-5.59l-5.59,5.59l0,0l-0.62,0.62l-1.23,1.23
		l0,0l-4.06,4.06l-4.06-4.06l0,0l-0.92-0.92l-0.92-0.92l0,0l-5.59-5.59l-5.59,5.59l0,0l-0.62,0.62l-1.23,1.23l0,0l-4.06,4.06
		l-4.06-4.06l0,0l-0.92-0.92l-0.92-0.92l0,0L84.73,537l-5.59,5.59l0,0l-0.62,0.62l-1.23,1.23l0,0l-4.06,4.06l-4.06-4.06l0,0
		l-0.92-0.92l-0.92-0.92l0,0L61.73,537l-5.59,5.59l0,0l-0.62,0.62l-1.23,1.23l0,0l-4.06,4.06L50,548.27V550h2.42l3.72-3.72
		l1.87,1.87l1.84,1.84h3.75l1.84-1.84l1.87-1.87l3.72,3.72h4.38l3.72-3.72l1.87,1.87l1.84,1.84h3.75l1.84-1.84l1.87-1.87l3.72,3.72
		h4.38l3.72-3.72l1.87,1.87l1.84,1.84h3.75l1.84-1.84l1.87-1.87l3.72,3.72h4.38l3.72-3.72l1.87,1.87l1.84,1.84h3.75l1.84-1.84
		l1.87-1.87l3.72,3.72h4.38l3.72-3.72l1.87,1.87l1.84,1.84h3.75l1.84-1.84l1.87-1.87l3.72,3.72h4.38l3.72-3.72l1.87,1.87l1.84,1.84
		h3.75l1.84-1.84l1.87-1.87l3.72,3.72h4.38l3.72-3.72l1.87,1.87l1.84,1.84H200v-2.08l-0.27,0.27l-1.87-1.87l-1.87-1.87l3.75-3.75
		l0.27,0.27v-3.69l-0.27-0.27L194.14,542.59z M63.61,546.31l-1.87,1.87l-1.87-1.87l-1.87-1.87l3.75-3.75l3.75,3.75L63.61,546.31z
		 M86.61,546.31l-1.87,1.87l-1.87-1.87l-1.87-1.87l3.75-3.75l3.75,3.75L86.61,546.31z M109.61,546.31l-1.87,1.87l-1.87-1.87
		l-1.87-1.87l3.75-3.75l3.75,3.75L109.61,546.31z M132.61,546.31l-1.87,1.87l-1.87-1.87l-1.87-1.87l3.75-3.75l3.75,3.75
		L132.61,546.31z M155.61,546.31l-1.87,1.87l-1.87-1.87l-1.87-1.87l3.75-3.75l3.75,3.75L155.61,546.31z M178.61,546.31l-1.87,1.87
		l-1.87-1.87l-1.87-1.87l3.75-3.75l3.75,3.75L178.61,546.31z"/>
</g>
<g>
</g>
<g>
</g>
<g>
</g>
<g>
</g>
<g>
</g>
<g>
</g>
<g>
</g>
<g>
</g>
<g>
</g>
<g>
</g>
<g>
</g>
<g>
</g>
<g>
</g>
<g>
</g>
<g>
</g>
</svg>
