<?xml version="1.0" encoding="utf-8"?>
<!-- Generator: Adobe Illustrator 27.2.0, SVG Export Plug-In . SVG Version: 6.00 Build 0)  -->
<svg version="1.1" id="Layer_1" xmlns="http://www.w3.org/2000/svg" xmlns:xlink="http://www.w3.org/1999/xlink" x="0px" y="0px"
	 viewBox="0 0 800 600" style="enable-background:new 0 0 800 600;" xml:space="preserve">
<g>
	<g>
		<rect x="226.25" y="377.42" transform="matrix(0.7071 -0.7071 0.7071 0.7071 -200.894 271.2048)" width="1.36" height="1.36"/>
		<rect x="225.28" y="376.46" transform="matrix(0.7071 -0.7071 0.7071 0.7071 -200.4954 270.2426)" width="1.36" height="1.36"/>
		<rect x="224.32" y="375.5" transform="matrix(0.7071 -0.7071 0.7071 0.7071 -200.0968 269.2805)" width="1.36" height="1.36"/>
		<rect x="223.36" y="374.54" transform="matrix(0.7071 -0.7071 0.7071 0.7071 -199.6983 268.3182)" width="1.36" height="1.36"/>
		<rect x="222.4" y="373.57" transform="matrix(0.7071 -0.7071 0.7071 0.7071 -199.2997 267.356)" width="1.36" height="1.36"/>
		<rect x="221.43" y="372.61" transform="matrix(0.7071 -0.7071 0.7071 0.7071 -198.9012 266.3939)" width="1.36" height="1.36"/>
		<rect x="222.4" y="371.65" transform="matrix(0.7071 -0.7071 0.7071 0.7071 -197.9388 266.7925)" width="1.36" height="1.36"/>
		<rect x="223.36" y="370.69" transform="matrix(0.7071 -0.7071 0.7071 0.7071 -196.9763 267.1912)" width="1.36" height="1.36"/>
		<rect x="224.32" y="369.72" transform="matrix(0.7071 -0.7071 0.7071 0.7071 -196.0139 267.5898)" width="1.36" height="1.36"/>
		<rect x="220.47" y="373.57" transform="matrix(0.7071 -0.7071 0.7071 0.7071 -199.8636 265.9952)" width="1.36" height="1.36"/>
		<rect x="219.51" y="374.54" transform="matrix(0.7071 -0.7071 0.7071 0.7071 -200.826 265.5966)" width="1.36" height="1.36"/>
		<rect x="218.55" y="375.5" transform="matrix(0.7071 -0.7071 0.7071 0.7071 -201.7885 265.1979)" width="1.36" height="1.36"/>
		<rect x="220.47" y="371.65" transform="matrix(0.7071 -0.7071 0.7071 0.7071 -198.5026 265.4317)" width="1.36" height="1.36"/>
		<rect x="219.51" y="370.69" transform="matrix(0.7071 -0.7071 0.7071 0.7071 -198.1041 264.4695)" width="1.36" height="1.36"/>
		<rect x="218.55" y="369.72" transform="matrix(0.7071 -0.7071 0.7071 0.7071 -197.7055 263.5073)" width="1.36" height="1.36"/>
		<rect x="225.28" y="378.38" transform="matrix(0.7071 -0.7071 0.7071 0.7071 -201.8564 270.8062)" width="1.36" height="1.36"/>
		<rect x="224.32" y="379.35" transform="matrix(0.7071 -0.7071 0.7071 0.7071 -202.8188 270.4075)" width="1.36" height="1.36"/>
		<rect x="223.36" y="380.31" transform="matrix(0.7071 -0.7071 0.7071 0.7071 -203.7812 270.0089)" width="1.36" height="1.36"/>
		<rect x="222.4" y="381.27" transform="matrix(0.7071 -0.7071 0.7071 0.7071 -204.7437 269.6102)" width="1.36" height="1.36"/>
		<rect x="221.43" y="382.23" transform="matrix(0.7071 -0.7071 0.7071 0.7071 -205.7061 269.2116)" width="1.36" height="1.36"/>
		<rect x="220.47" y="381.27" transform="matrix(0.7071 -0.7071 0.7071 0.7071 -205.3075 268.2494)" width="1.36" height="1.36"/>
		<rect x="219.51" y="380.31" transform="matrix(0.7071 -0.7071 0.7071 0.7071 -204.909 267.2872)" width="1.36" height="1.36"/>
		<rect x="218.55" y="379.35" transform="matrix(0.7071 -0.7071 0.7071 0.7071 -204.5104 266.325)" width="1.36" height="1.36"/>
		<rect x="222.4" y="383.2" transform="matrix(0.7071 -0.7071 0.7071 0.7071 -206.1046 270.1738)" width="1.36" height="1.36"/>
		<rect x="223.36" y="384.16" transform="matrix(0.7071 -0.7071 0.7071 0.7071 -206.5032 271.136)" width="1.36" height="1.36"/>
		<rect x="224.32" y="385.12" transform="matrix(0.7071 -0.7071 0.7071 0.7071 -206.9017 272.0982)" width="1.36" height="1.36"/>
		<rect x="220.47" y="383.2" transform="matrix(0.7071 -0.7071 0.7071 0.7071 -206.6685 268.8129)" width="1.36" height="1.36"/>
		<rect x="219.51" y="384.16" transform="matrix(0.7071 -0.7071 0.7071 0.7071 -207.6309 268.4143)" width="1.36" height="1.36"/>
		<rect x="218.55" y="385.12" transform="matrix(0.7071 -0.7071 0.7071 0.7071 -208.5934 268.0157)" width="1.36" height="1.36"/>
		<rect x="227.21" y="376.46" transform="matrix(0.7071 -0.7071 0.7071 0.7071 -199.9315 271.6035)" width="1.36" height="1.36"/>
		<rect x="228.17" y="375.5" transform="matrix(0.7071 -0.7071 0.7071 0.7071 -198.9691 272.0021)" width="1.36" height="1.36"/>
		<rect x="229.13" y="374.54" transform="matrix(0.7071 -0.7071 0.7071 0.7071 -198.0067 272.4008)" width="1.36" height="1.36"/>
		<rect x="230.1" y="373.57" transform="matrix(0.7071 -0.7071 0.7071 0.7071 -197.0443 272.7994)" width="1.36" height="1.36"/>
		<rect x="231.06" y="372.61" transform="matrix(0.7071 -0.7071 0.7071 0.7071 -196.0818 273.1981)" width="1.36" height="1.36"/>
		<rect x="230.1" y="371.65" transform="matrix(0.7071 -0.7071 0.7071 0.7071 -195.6833 272.2359)" width="1.36" height="1.36"/>
		<rect x="229.13" y="370.69" transform="matrix(0.7071 -0.7071 0.7071 0.7071 -195.2847 271.2737)" width="1.36" height="1.36"/>
		<rect x="228.17" y="369.72" transform="matrix(0.7071 -0.7071 0.7071 0.7071 -194.8862 270.3115)" width="1.36" height="1.36"/>
		<rect x="232.02" y="373.57" transform="matrix(0.7071 -0.7071 0.7071 0.7071 -196.4804 274.1603)" width="1.36" height="1.36"/>
		<rect x="232.98" y="374.53" transform="matrix(0.7071 -0.7071 0.7071 0.7071 -196.8789 275.1225)" width="1.36" height="1.36"/>
		<rect x="233.94" y="375.5" transform="matrix(0.7071 -0.7071 0.7071 0.7071 -197.2775 276.0847)" width="1.36" height="1.36"/>
		<rect x="232.02" y="371.65" transform="matrix(0.7071 -0.7071 0.7071 0.7071 -195.1194 273.5967)" width="1.36" height="1.36"/>
		<rect x="232.98" y="370.69" transform="matrix(0.7071 -0.7071 0.7071 0.7071 -194.157 273.9954)" width="1.36" height="1.36"/>
		<rect x="233.95" y="369.72" transform="matrix(0.7071 -0.7071 0.7071 0.7071 -193.1946 274.394)" width="1.36" height="1.36"/>
		<rect x="227.21" y="378.38" transform="matrix(0.7071 -0.7071 0.7071 0.7071 -201.2925 272.167)" width="1.36" height="1.36"/>
		<rect x="228.17" y="379.35" transform="matrix(0.7071 -0.7071 0.7071 0.7071 -201.6911 273.1292)" width="1.36" height="1.36"/>
		<rect x="229.13" y="380.31" transform="matrix(0.7071 -0.7071 0.7071 0.7071 -202.0896 274.0914)" width="1.36" height="1.36"/>
		<rect x="230.09" y="381.27" transform="matrix(0.7071 -0.7071 0.7071 0.7071 -202.4882 275.0536)" width="1.36" height="1.36"/>
		<rect x="231.06" y="382.23" transform="matrix(0.7071 -0.7071 0.7071 0.7071 -202.8867 276.0158)" width="1.36" height="1.36"/>
		<rect x="232.02" y="381.27" transform="matrix(0.7071 -0.7071 0.7071 0.7071 -201.9243 276.4145)" width="1.36" height="1.36"/>
		<rect x="232.98" y="380.31" transform="matrix(0.7071 -0.7071 0.7071 0.7071 -200.9619 276.8131)" width="1.36" height="1.36"/>
		<rect x="233.94" y="379.35" transform="matrix(0.7071 -0.7071 0.7071 0.7071 -199.9995 277.2118)" width="1.36" height="1.36"/>
		<rect x="230.09" y="383.2" transform="matrix(0.7071 -0.7071 0.7071 0.7071 -203.8492 275.6172)" width="1.36" height="1.36"/>
		<rect x="229.13" y="384.16" transform="matrix(0.7071 -0.7071 0.7071 0.7071 -204.8116 275.2185)" width="1.36" height="1.36"/>
		<rect x="228.17" y="385.12" transform="matrix(0.7071 -0.7071 0.7071 0.7071 -205.774 274.8199)" width="1.36" height="1.36"/>
		<rect x="232.02" y="383.2" transform="matrix(0.7071 -0.7071 0.7071 0.7071 -203.2853 276.978)" width="1.36" height="1.36"/>
		<rect x="232.98" y="384.16" transform="matrix(0.7071 -0.7071 0.7071 0.7071 -203.6838 277.9402)" width="1.36" height="1.36"/>
		<rect x="233.94" y="385.12" transform="matrix(0.7071 -0.7071 0.7071 0.7071 -204.0824 278.9024)" width="1.36" height="1.36"/>
	</g>
	<g>
		<rect x="158.46" y="441.32" transform="matrix(-0.7071 0.7071 -0.7071 -0.7071 584.2116 642.0107)" width="1.36" height="1.36"/>
		<rect x="157.5" y="440.36" transform="matrix(-0.7071 0.7071 -0.7071 -0.7071 581.8887 641.0485)" width="1.36" height="1.36"/>
		<rect x="156.54" y="439.39" transform="matrix(-0.7071 0.7071 -0.7071 -0.7071 579.5657 640.0863)" width="1.36" height="1.36"/>
		<rect x="155.57" y="438.43" transform="matrix(-0.7071 0.7071 -0.7071 -0.7071 577.2427 639.1241)" width="1.36" height="1.36"/>
		<rect x="154.61" y="437.47" transform="matrix(-0.7071 0.7071 -0.7071 -0.7071 574.9198 638.1619)" width="1.36" height="1.36"/>
		<rect x="153.65" y="436.51" transform="matrix(-0.7071 0.7071 -0.7071 -0.7071 572.5969 637.1997)" width="1.36" height="1.36"/>
		<rect x="152.69" y="437.47" transform="matrix(-0.7071 0.7071 -0.7071 -0.7071 571.6345 639.5232)" width="1.36" height="1.36"/>
		<rect x="151.72" y="438.43" transform="matrix(-0.7071 0.7071 -0.7071 -0.7071 570.672 641.8467)" width="1.36" height="1.36"/>
		<rect x="150.76" y="439.4" transform="matrix(-0.7071 0.7071 -0.7071 -0.7071 569.7096 644.1702)" width="1.36" height="1.36"/>
		<rect x="154.61" y="435.55" transform="matrix(-0.7071 0.7071 -0.7071 -0.7071 573.5593 634.8762)" width="1.36" height="1.36"/>
		<rect x="155.57" y="434.58" transform="matrix(-0.7071 0.7071 -0.7071 -0.7071 574.5217 632.5527)" width="1.36" height="1.36"/>
		<rect x="156.54" y="433.62" transform="matrix(-0.7071 0.7071 -0.7071 -0.7071 575.4841 630.2292)" width="1.36" height="1.36"/>
		<rect x="152.69" y="435.55" transform="matrix(-0.7071 0.7071 -0.7071 -0.7071 570.2739 636.2375)" width="1.36" height="1.36"/>
		<rect x="151.73" y="434.58" transform="matrix(-0.7071 0.7071 -0.7071 -0.7071 567.951 635.2753)" width="1.36" height="1.36"/>
		<rect x="150.76" y="433.62" transform="matrix(-0.7071 0.7071 -0.7071 -0.7071 565.6281 634.3131)" width="1.36" height="1.36"/>
		<rect x="159.42" y="440.36" transform="matrix(-0.7071 0.7071 -0.7071 -0.7071 585.174 639.6872)" width="1.36" height="1.36"/>
		<rect x="160.39" y="439.39" transform="matrix(-0.7071 0.7071 -0.7071 -0.7071 586.1365 637.3637)" width="1.36" height="1.36"/>
		<rect x="161.35" y="438.43" transform="matrix(-0.7071 0.7071 -0.7071 -0.7071 587.0989 635.0402)" width="1.36" height="1.36"/>
		<rect x="162.31" y="437.47" transform="matrix(-0.7071 0.7071 -0.7071 -0.7071 588.0613 632.7167)" width="1.36" height="1.36"/>
		<rect x="163.27" y="436.51" transform="matrix(-0.7071 0.7071 -0.7071 -0.7071 589.0237 630.3932)" width="1.36" height="1.36"/>
		<rect x="162.31" y="435.54" transform="matrix(-0.7071 0.7071 -0.7071 -0.7071 586.7008 629.431)" width="1.36" height="1.36"/>
		<rect x="161.35" y="434.58" transform="matrix(-0.7071 0.7071 -0.7071 -0.7071 584.3778 628.4688)" width="1.36" height="1.36"/>
		<rect x="160.39" y="433.62" transform="matrix(-0.7071 0.7071 -0.7071 -0.7071 582.0549 627.5066)" width="1.36" height="1.36"/>
		<rect x="164.23" y="437.47" transform="matrix(-0.7071 0.7071 -0.7071 -0.7071 591.3467 631.3554)" width="1.36" height="1.36"/>
		<rect x="165.2" y="438.43" transform="matrix(-0.7071 0.7071 -0.7071 -0.7071 593.6696 632.3176)" width="1.36" height="1.36"/>
		<rect x="166.16" y="439.39" transform="matrix(-0.7071 0.7071 -0.7071 -0.7071 595.9926 633.2798)" width="1.36" height="1.36"/>
		<rect x="164.24" y="435.54" transform="matrix(-0.7071 0.7071 -0.7071 -0.7071 589.9861 628.0697)" width="1.36" height="1.36"/>
		<rect x="165.2" y="434.58" transform="matrix(-0.7071 0.7071 -0.7071 -0.7071 590.9485 625.7462)" width="1.36" height="1.36"/>
		<rect x="166.16" y="433.62" transform="matrix(-0.7071 0.7071 -0.7071 -0.7071 591.911 623.4227)" width="1.36" height="1.36"/>
		<rect x="157.5" y="442.28" transform="matrix(-0.7071 0.7071 -0.7071 -0.7071 583.2492 644.3342)" width="1.36" height="1.36"/>
		<rect x="156.54" y="443.24" transform="matrix(-0.7071 0.7071 -0.7071 -0.7071 582.2867 646.6577)" width="1.36" height="1.36"/>
		<rect x="155.57" y="444.21" transform="matrix(-0.7071 0.7071 -0.7071 -0.7071 581.3243 648.9812)" width="1.36" height="1.36"/>
		<rect x="154.61" y="445.17" transform="matrix(-0.7071 0.7071 -0.7071 -0.7071 580.3619 651.3047)" width="1.36" height="1.36"/>
		<rect x="153.65" y="446.13" transform="matrix(-0.7071 0.7071 -0.7071 -0.7071 579.3995 653.6282)" width="1.36" height="1.36"/>
		<rect x="152.69" y="445.17" transform="matrix(-0.7071 0.7071 -0.7071 -0.7071 577.0765 652.666)" width="1.36" height="1.36"/>
		<rect x="151.72" y="444.21" transform="matrix(-0.7071 0.7071 -0.7071 -0.7071 574.7536 651.7038)" width="1.36" height="1.36"/>
		<rect x="150.76" y="443.24" transform="matrix(-0.7071 0.7071 -0.7071 -0.7071 572.4307 650.7416)" width="1.36" height="1.36"/>
		<rect x="154.61" y="447.09" transform="matrix(-0.7071 0.7071 -0.7071 -0.7071 581.7224 654.5904)" width="1.36" height="1.36"/>
		<rect x="155.57" y="448.06" transform="matrix(-0.7071 0.7071 -0.7071 -0.7071 584.0453 655.5526)" width="1.36" height="1.36"/>
		<rect x="156.53" y="449.02" transform="matrix(-0.7071 0.7071 -0.7071 -0.7071 586.3683 656.5148)" width="1.36" height="1.36"/>
		<rect x="152.69" y="447.09" transform="matrix(-0.7071 0.7071 -0.7071 -0.7071 578.4371 655.9517)" width="1.36" height="1.36"/>
		<rect x="151.72" y="448.06" transform="matrix(-0.7071 0.7071 -0.7071 -0.7071 577.4746 658.2751)" width="1.36" height="1.36"/>
		<rect x="150.76" y="449.02" transform="matrix(-0.7071 0.7071 -0.7071 -0.7071 576.5122 660.5986)" width="1.36" height="1.36"/>
		<rect x="159.42" y="442.28" transform="matrix(-0.7071 0.7071 -0.7071 -0.7071 586.5345 642.9729)" width="1.36" height="1.36"/>
		<rect x="160.38" y="443.24" transform="matrix(-0.7071 0.7071 -0.7071 -0.7071 588.8575 643.9351)" width="1.36" height="1.36"/>
		<rect x="161.35" y="444.21" transform="matrix(-0.7071 0.7071 -0.7071 -0.7071 591.1804 644.8973)" width="1.36" height="1.36"/>
		<rect x="162.31" y="445.17" transform="matrix(-0.7071 0.7071 -0.7071 -0.7071 593.5034 645.8595)" width="1.36" height="1.36"/>
		<rect x="163.27" y="446.13" transform="matrix(-0.7071 0.7071 -0.7071 -0.7071 595.8264 646.8217)" width="1.36" height="1.36"/>
		<rect x="162.31" y="447.09" transform="matrix(-0.7071 0.7071 -0.7071 -0.7071 594.8639 649.1451)" width="1.36" height="1.36"/>
		<rect x="161.35" y="448.05" transform="matrix(-0.7071 0.7071 -0.7071 -0.7071 593.9015 651.4686)" width="1.36" height="1.36"/>
		<rect x="160.38" y="449.02" transform="matrix(-0.7071 0.7071 -0.7071 -0.7071 592.9391 653.7922)" width="1.36" height="1.36"/>
		<rect x="164.23" y="445.17" transform="matrix(-0.7071 0.7071 -0.7071 -0.7071 596.7888 644.4982)" width="1.36" height="1.36"/>
		<rect x="165.2" y="444.21" transform="matrix(-0.7071 0.7071 -0.7071 -0.7071 597.7512 642.1747)" width="1.36" height="1.36"/>
		<rect x="166.16" y="443.24" transform="matrix(-0.7071 0.7071 -0.7071 -0.7071 598.7136 639.8512)" width="1.36" height="1.36"/>
		<rect x="164.23" y="447.09" transform="matrix(-0.7071 0.7071 -0.7071 -0.7071 598.1493 647.7839)" width="1.36" height="1.36"/>
		<rect x="165.2" y="448.05" transform="matrix(-0.7071 0.7071 -0.7071 -0.7071 600.4722 648.746)" width="1.36" height="1.36"/>
		<rect x="166.16" y="449.02" transform="matrix(-0.7071 0.7071 -0.7071 -0.7071 602.7952 649.7083)" width="1.36" height="1.36"/>
	</g>
	<g>
		<rect x="226.52" y="441.32" transform="matrix(-0.7071 0.7071 -0.7071 -0.7071 700.3895 593.8882)" width="1.36" height="1.36"/>
		<rect x="225.55" y="440.36" transform="matrix(-0.7071 0.7071 -0.7071 -0.7071 698.0665 592.926)" width="1.36" height="1.36"/>
		<rect x="224.59" y="439.39" transform="matrix(-0.7071 0.7071 -0.7071 -0.7071 695.7436 591.9638)" width="1.36" height="1.36"/>
		<rect x="223.63" y="438.43" transform="matrix(-0.7071 0.7071 -0.7071 -0.7071 693.4207 591.0016)" width="1.36" height="1.36"/>
		<rect x="222.67" y="437.47" transform="matrix(-0.7071 0.7071 -0.7071 -0.7071 691.0977 590.0394)" width="1.36" height="1.36"/>
		<rect x="221.7" y="436.51" transform="matrix(-0.7071 0.7071 -0.7071 -0.7071 688.7748 589.0773)" width="1.36" height="1.36"/>
		<rect x="220.74" y="437.47" transform="matrix(-0.7071 0.7071 -0.7071 -0.7071 687.8123 591.4008)" width="1.36" height="1.36"/>
		<rect x="219.78" y="438.43" transform="matrix(-0.7071 0.7071 -0.7071 -0.7071 686.8499 593.7242)" width="1.36" height="1.36"/>
		<rect x="218.82" y="439.4" transform="matrix(-0.7071 0.7071 -0.7071 -0.7071 685.8875 596.0477)" width="1.36" height="1.36"/>
		<rect x="222.67" y="435.55" transform="matrix(-0.7071 0.7071 -0.7071 -0.7071 689.7372 586.7537)" width="1.36" height="1.36"/>
		<rect x="223.63" y="434.58" transform="matrix(-0.7071 0.7071 -0.7071 -0.7071 690.6996 584.4302)" width="1.36" height="1.36"/>
		<rect x="224.59" y="433.62" transform="matrix(-0.7071 0.7071 -0.7071 -0.7071 691.662 582.1068)" width="1.36" height="1.36"/>
		<rect x="220.74" y="435.55" transform="matrix(-0.7071 0.7071 -0.7071 -0.7071 686.4518 588.1151)" width="1.36" height="1.36"/>
		<rect x="219.78" y="434.58" transform="matrix(-0.7071 0.7071 -0.7071 -0.7071 684.1288 587.1528)" width="1.36" height="1.36"/>
		<rect x="218.82" y="433.62" transform="matrix(-0.7071 0.7071 -0.7071 -0.7071 681.8059 586.1907)" width="1.36" height="1.36"/>
		<rect x="227.48" y="440.36" transform="matrix(-0.7071 0.7071 -0.7071 -0.7071 701.3519 591.5647)" width="1.36" height="1.36"/>
		<rect x="228.44" y="439.39" transform="matrix(-0.7071 0.7071 -0.7071 -0.7071 702.3143 589.2412)" width="1.36" height="1.36"/>
		<rect x="229.4" y="438.43" transform="matrix(-0.7071 0.7071 -0.7071 -0.7071 703.2768 586.9177)" width="1.36" height="1.36"/>
		<rect x="230.37" y="437.47" transform="matrix(-0.7071 0.7071 -0.7071 -0.7071 704.2392 584.5942)" width="1.36" height="1.36"/>
		<rect x="231.33" y="436.51" transform="matrix(-0.7071 0.7071 -0.7071 -0.7071 705.2016 582.2708)" width="1.36" height="1.36"/>
		<rect x="230.37" y="435.54" transform="matrix(-0.7071 0.7071 -0.7071 -0.7071 702.8787 581.3085)" width="1.36" height="1.36"/>
		<rect x="229.4" y="434.58" transform="matrix(-0.7071 0.7071 -0.7071 -0.7071 700.5557 580.3463)" width="1.36" height="1.36"/>
		<rect x="228.44" y="433.62" transform="matrix(-0.7071 0.7071 -0.7071 -0.7071 698.2328 579.3842)" width="1.36" height="1.36"/>
		<rect x="232.29" y="437.47" transform="matrix(-0.7071 0.7071 -0.7071 -0.7071 707.5246 583.2329)" width="1.36" height="1.36"/>
		<rect x="233.25" y="438.43" transform="matrix(-0.7071 0.7071 -0.7071 -0.7071 709.8475 584.1951)" width="1.36" height="1.36"/>
		<rect x="234.21" y="439.39" transform="matrix(-0.7071 0.7071 -0.7071 -0.7071 712.1705 585.1573)" width="1.36" height="1.36"/>
		<rect x="232.29" y="435.54" transform="matrix(-0.7071 0.7071 -0.7071 -0.7071 706.1641 579.9473)" width="1.36" height="1.36"/>
		<rect x="233.25" y="434.58" transform="matrix(-0.7071 0.7071 -0.7071 -0.7071 707.1265 577.6237)" width="1.36" height="1.36"/>
		<rect x="234.22" y="433.62" transform="matrix(-0.7071 0.7071 -0.7071 -0.7071 708.0889 575.3002)" width="1.36" height="1.36"/>
		<rect x="225.55" y="442.28" transform="matrix(-0.7071 0.7071 -0.7071 -0.7071 699.4271 596.2117)" width="1.36" height="1.36"/>
		<rect x="224.59" y="443.24" transform="matrix(-0.7071 0.7071 -0.7071 -0.7071 698.4647 598.5352)" width="1.36" height="1.36"/>
		<rect x="223.63" y="444.21" transform="matrix(-0.7071 0.7071 -0.7071 -0.7071 697.5023 600.8587)" width="1.36" height="1.36"/>
		<rect x="222.67" y="445.17" transform="matrix(-0.7071 0.7071 -0.7071 -0.7071 696.5398 603.1822)" width="1.36" height="1.36"/>
		<rect x="221.7" y="446.13" transform="matrix(-0.7071 0.7071 -0.7071 -0.7071 695.5774 605.5057)" width="1.36" height="1.36"/>
		<rect x="220.74" y="445.17" transform="matrix(-0.7071 0.7071 -0.7071 -0.7071 693.2545 604.5435)" width="1.36" height="1.36"/>
		<rect x="219.78" y="444.21" transform="matrix(-0.7071 0.7071 -0.7071 -0.7071 690.9315 603.5813)" width="1.36" height="1.36"/>
		<rect x="218.82" y="443.24" transform="matrix(-0.7071 0.7071 -0.7071 -0.7071 688.6085 602.6191)" width="1.36" height="1.36"/>
		<rect x="222.67" y="447.09" transform="matrix(-0.7071 0.7071 -0.7071 -0.7071 697.9003 606.4679)" width="1.36" height="1.36"/>
		<rect x="223.63" y="448.06" transform="matrix(-0.7071 0.7071 -0.7071 -0.7071 700.2233 607.4301)" width="1.36" height="1.36"/>
		<rect x="224.59" y="449.02" transform="matrix(-0.7071 0.7071 -0.7071 -0.7071 702.5462 608.3923)" width="1.36" height="1.36"/>
		<rect x="220.74" y="447.09" transform="matrix(-0.7071 0.7071 -0.7071 -0.7071 694.6149 607.8292)" width="1.36" height="1.36"/>
		<rect x="219.78" y="448.06" transform="matrix(-0.7071 0.7071 -0.7071 -0.7071 693.6525 610.1527)" width="1.36" height="1.36"/>
		<rect x="218.82" y="449.02" transform="matrix(-0.7071 0.7071 -0.7071 -0.7071 692.6901 612.4762)" width="1.36" height="1.36"/>
		<rect x="227.48" y="442.28" transform="matrix(-0.7071 0.7071 -0.7071 -0.7071 702.7125 594.8504)" width="1.36" height="1.36"/>
		<rect x="228.44" y="443.24" transform="matrix(-0.7071 0.7071 -0.7071 -0.7071 705.0354 595.8126)" width="1.36" height="1.36"/>
		<rect x="229.4" y="444.21" transform="matrix(-0.7071 0.7071 -0.7071 -0.7071 707.3583 596.7748)" width="1.36" height="1.36"/>
		<rect x="230.36" y="445.17" transform="matrix(-0.7071 0.7071 -0.7071 -0.7071 709.6813 597.737)" width="1.36" height="1.36"/>
		<rect x="231.33" y="446.13" transform="matrix(-0.7071 0.7071 -0.7071 -0.7071 712.0042 598.6992)" width="1.36" height="1.36"/>
		<rect x="230.36" y="447.09" transform="matrix(-0.7071 0.7071 -0.7071 -0.7071 711.0418 601.0227)" width="1.36" height="1.36"/>
		<rect x="229.4" y="448.05" transform="matrix(-0.7071 0.7071 -0.7071 -0.7071 710.0794 603.3462)" width="1.36" height="1.36"/>
		<rect x="228.44" y="449.02" transform="matrix(-0.7071 0.7071 -0.7071 -0.7071 709.1169 605.6697)" width="1.36" height="1.36"/>
		<rect x="232.29" y="445.17" transform="matrix(-0.7071 0.7071 -0.7071 -0.7071 712.9667 596.3757)" width="1.36" height="1.36"/>
		<rect x="233.25" y="444.21" transform="matrix(-0.7071 0.7071 -0.7071 -0.7071 713.9291 594.0522)" width="1.36" height="1.36"/>
		<rect x="234.21" y="443.24" transform="matrix(-0.7071 0.7071 -0.7071 -0.7071 714.8915 591.7287)" width="1.36" height="1.36"/>
		<rect x="232.29" y="447.09" transform="matrix(-0.7071 0.7071 -0.7071 -0.7071 714.3272 599.6614)" width="1.36" height="1.36"/>
		<rect x="233.25" y="448.05" transform="matrix(-0.7071 0.7071 -0.7071 -0.7071 716.6501 600.6236)" width="1.36" height="1.36"/>
		<rect x="234.21" y="449.02" transform="matrix(-0.7071 0.7071 -0.7071 -0.7071 718.9731 601.5858)" width="1.36" height="1.36"/>
	</g>
	<g>
		<rect x="157.73" y="376.83" transform="matrix(-0.7071 0.7071 -0.7071 -0.7071 537.3651 532.4441)" width="1.36" height="1.36"/>
		<rect x="156.77" y="375.87" transform="matrix(-0.7071 0.7071 -0.7071 -0.7071 535.0422 531.4819)" width="1.36" height="1.36"/>
		<rect x="155.8" y="374.91" transform="matrix(-0.7071 0.7071 -0.7071 -0.7071 532.7192 530.5197)" width="1.36" height="1.36"/>
		<rect x="154.84" y="373.95" transform="matrix(-0.7071 0.7071 -0.7071 -0.7071 530.3963 529.5575)" width="1.36" height="1.36"/>
		<rect x="153.88" y="372.98" transform="matrix(-0.7071 0.7071 -0.7071 -0.7071 528.0733 528.5953)" width="1.36" height="1.36"/>
		<rect x="152.92" y="372.02" transform="matrix(-0.7071 0.7071 -0.7071 -0.7071 525.7504 527.6331)" width="1.36" height="1.36"/>
		<rect x="151.96" y="372.99" transform="matrix(-0.7071 0.7071 -0.7071 -0.7071 524.788 529.9566)" width="1.36" height="1.36"/>
		<rect x="150.99" y="373.95" transform="matrix(-0.7071 0.7071 -0.7071 -0.7071 523.8256 532.2802)" width="1.36" height="1.36"/>
		<rect x="150.03" y="374.91" transform="matrix(-0.7071 0.7071 -0.7071 -0.7071 522.8631 534.6036)" width="1.36" height="1.36"/>
		<rect x="153.88" y="371.06" transform="matrix(-0.7071 0.7071 -0.7071 -0.7071 526.7128 525.3096)" width="1.36" height="1.36"/>
		<rect x="154.84" y="370.1" transform="matrix(-0.7071 0.7071 -0.7071 -0.7071 527.6752 522.9861)" width="1.36" height="1.36"/>
		<rect x="155.81" y="369.14" transform="matrix(-0.7071 0.7071 -0.7071 -0.7071 528.6376 520.6627)" width="1.36" height="1.36"/>
		<rect x="151.96" y="371.06" transform="matrix(-0.7071 0.7071 -0.7071 -0.7071 523.4274 526.671)" width="1.36" height="1.36"/>
		<rect x="150.99" y="370.1" transform="matrix(-0.7071 0.7071 -0.7071 -0.7071 521.1045 525.7087)" width="1.36" height="1.36"/>
		<rect x="150.03" y="369.14" transform="matrix(-0.7071 0.7071 -0.7071 -0.7071 518.7816 524.7465)" width="1.36" height="1.36"/>
		<rect x="158.69" y="375.87" transform="matrix(-0.7071 0.7071 -0.7071 -0.7071 538.3275 530.1206)" width="1.36" height="1.36"/>
		<rect x="159.65" y="374.91" transform="matrix(-0.7071 0.7071 -0.7071 -0.7071 539.29 527.7971)" width="1.36" height="1.36"/>
		<rect x="160.62" y="373.95" transform="matrix(-0.7071 0.7071 -0.7071 -0.7071 540.2524 525.4736)" width="1.36" height="1.36"/>
		<rect x="161.58" y="372.98" transform="matrix(-0.7071 0.7071 -0.7071 -0.7071 541.2148 523.1501)" width="1.36" height="1.36"/>
		<rect x="162.54" y="372.02" transform="matrix(-0.7071 0.7071 -0.7071 -0.7071 542.1772 520.8266)" width="1.36" height="1.36"/>
		<rect x="161.58" y="371.06" transform="matrix(-0.7071 0.7071 -0.7071 -0.7071 539.8543 519.8644)" width="1.36" height="1.36"/>
		<rect x="160.62" y="370.1" transform="matrix(-0.7071 0.7071 -0.7071 -0.7071 537.5314 518.9022)" width="1.36" height="1.36"/>
		<rect x="159.65" y="369.13" transform="matrix(-0.7071 0.7071 -0.7071 -0.7071 535.2084 517.94)" width="1.36" height="1.36"/>
		<rect x="163.5" y="372.98" transform="matrix(-0.7071 0.7071 -0.7071 -0.7071 544.5002 521.7888)" width="1.36" height="1.36"/>
		<rect x="164.47" y="373.95" transform="matrix(-0.7071 0.7071 -0.7071 -0.7071 546.8231 522.751)" width="1.36" height="1.36"/>
		<rect x="165.43" y="374.91" transform="matrix(-0.7071 0.7071 -0.7071 -0.7071 549.1461 523.7132)" width="1.36" height="1.36"/>
		<rect x="163.5" y="371.06" transform="matrix(-0.7071 0.7071 -0.7071 -0.7071 543.1396 518.5031)" width="1.36" height="1.36"/>
		<rect x="164.47" y="370.1" transform="matrix(-0.7071 0.7071 -0.7071 -0.7071 544.1021 516.1796)" width="1.36" height="1.36"/>
		<rect x="165.43" y="369.13" transform="matrix(-0.7071 0.7071 -0.7071 -0.7071 545.0645 513.8561)" width="1.36" height="1.36"/>
		<rect x="156.77" y="377.8" transform="matrix(-0.7071 0.7071 -0.7071 -0.7071 536.4027 534.7676)" width="1.36" height="1.36"/>
		<rect x="155.8" y="378.76" transform="matrix(-0.7071 0.7071 -0.7071 -0.7071 535.4402 537.0911)" width="1.36" height="1.36"/>
		<rect x="154.84" y="379.72" transform="matrix(-0.7071 0.7071 -0.7071 -0.7071 534.4778 539.4146)" width="1.36" height="1.36"/>
		<rect x="153.88" y="380.68" transform="matrix(-0.7071 0.7071 -0.7071 -0.7071 533.5154 541.7381)" width="1.36" height="1.36"/>
		<rect x="152.92" y="381.65" transform="matrix(-0.7071 0.7071 -0.7071 -0.7071 532.553 544.0616)" width="1.36" height="1.36"/>
		<rect x="151.95" y="380.68" transform="matrix(-0.7071 0.7071 -0.7071 -0.7071 530.23 543.0994)" width="1.36" height="1.36"/>
		<rect x="150.99" y="379.72" transform="matrix(-0.7071 0.7071 -0.7071 -0.7071 527.9071 542.1372)" width="1.36" height="1.36"/>
		<rect x="150.03" y="378.76" transform="matrix(-0.7071 0.7071 -0.7071 -0.7071 525.5842 541.175)" width="1.36" height="1.36"/>
		<rect x="153.88" y="382.61" transform="matrix(-0.7071 0.7071 -0.7071 -0.7071 534.8759 545.0238)" width="1.36" height="1.36"/>
		<rect x="154.84" y="383.57" transform="matrix(-0.7071 0.7071 -0.7071 -0.7071 537.1989 545.986)" width="1.36" height="1.36"/>
		<rect x="155.8" y="384.53" transform="matrix(-0.7071 0.7071 -0.7071 -0.7071 539.5219 546.9482)" width="1.36" height="1.36"/>
		<rect x="151.95" y="382.61" transform="matrix(-0.7071 0.7071 -0.7071 -0.7071 531.5906 546.3851)" width="1.36" height="1.36"/>
		<rect x="150.99" y="383.57" transform="matrix(-0.7071 0.7071 -0.7071 -0.7071 530.6282 548.7086)" width="1.36" height="1.36"/>
		<rect x="150.03" y="384.53" transform="matrix(-0.7071 0.7071 -0.7071 -0.7071 529.6657 551.0321)" width="1.36" height="1.36"/>
		<rect x="158.69" y="377.8" transform="matrix(-0.7071 0.7071 -0.7071 -0.7071 539.688 533.4063)" width="1.36" height="1.36"/>
		<rect x="159.65" y="378.76" transform="matrix(-0.7071 0.7071 -0.7071 -0.7071 542.011 534.3685)" width="1.36" height="1.36"/>
		<rect x="160.62" y="379.72" transform="matrix(-0.7071 0.7071 -0.7071 -0.7071 544.334 535.3307)" width="1.36" height="1.36"/>
		<rect x="161.58" y="380.68" transform="matrix(-0.7071 0.7071 -0.7071 -0.7071 546.6569 536.2929)" width="1.36" height="1.36"/>
		<rect x="162.54" y="381.64" transform="matrix(-0.7071 0.7071 -0.7071 -0.7071 548.9799 537.2551)" width="1.36" height="1.36"/>
		<rect x="161.58" y="382.61" transform="matrix(-0.7071 0.7071 -0.7071 -0.7071 548.0174 539.5786)" width="1.36" height="1.36"/>
		<rect x="160.62" y="383.57" transform="matrix(-0.7071 0.7071 -0.7071 -0.7071 547.055 541.9021)" width="1.36" height="1.36"/>
		<rect x="159.65" y="384.53" transform="matrix(-0.7071 0.7071 -0.7071 -0.7071 546.0926 544.2256)" width="1.36" height="1.36"/>
		<rect x="163.5" y="380.68" transform="matrix(-0.7071 0.7071 -0.7071 -0.7071 549.9423 534.9316)" width="1.36" height="1.36"/>
		<rect x="164.47" y="379.72" transform="matrix(-0.7071 0.7071 -0.7071 -0.7071 550.9047 532.6081)" width="1.36" height="1.36"/>
		<rect x="165.43" y="378.76" transform="matrix(-0.7071 0.7071 -0.7071 -0.7071 551.8671 530.2846)" width="1.36" height="1.36"/>
		<rect x="163.5" y="382.61" transform="matrix(-0.7071 0.7071 -0.7071 -0.7071 551.3028 538.2173)" width="1.36" height="1.36"/>
		<rect x="164.46" y="383.57" transform="matrix(-0.7071 0.7071 -0.7071 -0.7071 553.6257 539.1795)" width="1.36" height="1.36"/>
		<rect x="165.43" y="384.53" transform="matrix(-0.7071 0.7071 -0.7071 -0.7071 555.9487 540.1417)" width="1.36" height="1.36"/>
	</g>
	<g>
		<g>
			<g>
				<g>
					<g>
						
							<line style="fill:none;stroke:#000000;stroke-width:4;stroke-miterlimit:10;" x1="167.39" y1="390.37" x2="173.35" y2="384.4"/>
						
							<line style="fill:none;stroke:#000000;stroke-width:4;stroke-miterlimit:10;" x1="173.4" y1="396.38" x2="179.36" y2="390.42"/>
						
							<line style="fill:none;stroke:#000000;stroke-width:4;stroke-miterlimit:10;" x1="179.41" y1="402.39" x2="185.38" y2="396.43"/>
						
							<line style="fill:none;stroke:#000000;stroke-width:4;stroke-miterlimit:10;" x1="185.42" y1="408.41" x2="191.39" y2="402.44"/>
					</g>
					<g>
						<polyline style="fill:none;stroke:#000000;stroke-width:4;stroke-miterlimit:10;" points="173.35,384.4 192.8,364.95 
							212.26,384.4 						"/>
						<polyline style="fill:none;stroke:#000000;stroke-width:4;stroke-miterlimit:10;" points="179.36,390.42 192.8,376.98 
							206.24,390.42 						"/>
						<polyline style="fill:none;stroke:#000000;stroke-width:4;stroke-miterlimit:10;" points="185.38,396.43 192.8,389 
							200.23,396.43 						"/>
						<polyline style="fill:none;stroke:#000000;stroke-width:4;stroke-miterlimit:10;" points="191.39,402.44 192.8,401.03 
							194.22,402.44 						"/>
					</g>
					<g>
						
							<line style="fill:none;stroke:#000000;stroke-width:4;stroke-miterlimit:10;" x1="212.26" y1="384.4" x2="218.22" y2="390.37"/>
						
							<line style="fill:none;stroke:#000000;stroke-width:4;stroke-miterlimit:10;" x1="206.24" y1="390.42" x2="212.21" y2="396.38"/>
						
							<line style="fill:none;stroke:#000000;stroke-width:4;stroke-miterlimit:10;" x1="200.23" y1="396.43" x2="206.19" y2="402.39"/>
						
							<line style="fill:none;stroke:#000000;stroke-width:4;stroke-miterlimit:10;" x1="194.22" y1="402.44" x2="200.18" y2="408.41"/>
					</g>
					<g>
						<polyline style="fill:none;stroke:#000000;stroke-width:4;stroke-miterlimit:10;" points="218.22,390.37 237.67,409.82 
							218.22,429.27 						"/>
						<polyline style="fill:none;stroke:#000000;stroke-width:4;stroke-miterlimit:10;" points="212.21,396.38 225.65,409.82 
							212.21,423.26 						"/>
						<polyline style="fill:none;stroke:#000000;stroke-width:4;stroke-miterlimit:10;" points="206.19,402.39 213.62,409.82 
							206.19,417.25 						"/>
						<polyline style="fill:none;stroke:#000000;stroke-width:4;stroke-miterlimit:10;" points="200.18,408.41 201.6,409.82 
							200.18,411.23 						"/>
					</g>
					<g>
						
							<line style="fill:none;stroke:#000000;stroke-width:4;stroke-miterlimit:10;" x1="218.22" y1="429.27" x2="212.26" y2="435.24"/>
						
							<line style="fill:none;stroke:#000000;stroke-width:4;stroke-miterlimit:10;" x1="212.21" y1="423.26" x2="206.24" y2="429.23"/>
						
							<line style="fill:none;stroke:#000000;stroke-width:4;stroke-miterlimit:10;" x1="206.19" y1="417.25" x2="200.23" y2="423.21"/>
						
							<line style="fill:none;stroke:#000000;stroke-width:4;stroke-miterlimit:10;" x1="200.18" y1="411.23" x2="194.22" y2="417.2"/>
					</g>
					<g>
						<polyline style="fill:none;stroke:#000000;stroke-width:4;stroke-miterlimit:10;" points="212.26,435.24 192.8,454.69 
							173.35,435.24 						"/>
						<polyline style="fill:none;stroke:#000000;stroke-width:4;stroke-miterlimit:10;" points="206.24,429.23 192.8,442.67 
							179.36,429.23 						"/>
						<polyline style="fill:none;stroke:#000000;stroke-width:4;stroke-miterlimit:10;" points="200.23,423.21 192.8,430.64 
							185.38,423.21 						"/>
						<polyline style="fill:none;stroke:#000000;stroke-width:4;stroke-miterlimit:10;" points="194.22,417.2 192.8,418.61 
							191.39,417.2 						"/>
					</g>
					<g>
						
							<line style="fill:none;stroke:#000000;stroke-width:4;stroke-miterlimit:10;" x1="173.35" y1="435.24" x2="167.39" y2="429.27"/>
						
							<line style="fill:none;stroke:#000000;stroke-width:4;stroke-miterlimit:10;" x1="179.36" y1="429.23" x2="173.4" y2="423.26"/>
						
							<line style="fill:none;stroke:#000000;stroke-width:4;stroke-miterlimit:10;" x1="185.38" y1="423.21" x2="179.41" y2="417.25"/>
						
							<line style="fill:none;stroke:#000000;stroke-width:4;stroke-miterlimit:10;" x1="191.39" y1="417.2" x2="185.42" y2="411.23"/>
					</g>
					<g>
						<polyline style="fill:none;stroke:#000000;stroke-width:4;stroke-miterlimit:10;" points="167.39,429.27 147.93,409.82 
							167.39,390.37 						"/>
						<polyline style="fill:none;stroke:#000000;stroke-width:4;stroke-miterlimit:10;" points="173.4,423.26 159.96,409.82 
							173.4,396.38 						"/>
						<polyline style="fill:none;stroke:#000000;stroke-width:4;stroke-miterlimit:10;" points="179.41,417.25 171.98,409.82 
							179.41,402.39 						"/>
						<polyline style="fill:none;stroke:#000000;stroke-width:4;stroke-miterlimit:10;" points="185.42,411.23 184.01,409.82 
							185.42,408.41 						"/>
					</g>
				</g>
			</g>
		</g>
		<g>
			<g>
				<g>
					
						<rect x="244.33" y="400.44" transform="matrix(-0.7071 -0.7071 0.7071 -0.7071 143.3286 879.01)" style="fill:none;stroke:#000000;stroke-width:2.3395;stroke-miterlimit:10;" width="18.76" height="18.76"/>
					<circle cx="253.71" cy="409.82" r="4.09"/>
				</g>
				<g>
					<path style="fill:none;stroke:#000000;stroke-width:2.3395;stroke-miterlimit:10;" d="M274.23,409.23
						c-13.91,18.85-16.01,28.83-34.4,26.18c14.3,19.37,35.96-4.35,45.84-26.18"/>
					<path style="fill:none;stroke:#000000;stroke-width:2.3395;stroke-miterlimit:10;" d="M274.23,410.42
						c-13.91-18.85-16.01-28.83-34.4-26.18c14.3-19.37,35.96,4.35,45.84,26.18"/>
				</g>
				<g>
					<g>
						<path style="fill:none;stroke:#000000;stroke-width:2.3395;stroke-miterlimit:10;" d="M297.6,410
							c-16.58,11.1-22.63,61.98-56.71,37.16c36.43,76.88,58.46-32.76,94.72-37.16C314.55,409.6,297.6,410,297.6,410z"/>
						<g>
							<polygon points="249.92,464.85 252.92,453.47 260.68,453.14 266.55,474.2 258.24,472.37 							"/>
							<polygon points="266.55,452.84 275.66,471.44 285.91,462.14 271.97,447.21 							"/>
							<polygon points="277.44,439.09 292.39,454.06 298.17,445.82 282.02,433.37 							"/>
							<polygon points="285.51,425.02 303.96,437.9 310.39,430.02 290.64,418.58 							"/>
							<polygon points="315.61,422.63 295.4,411.75 303.93,409.82 322.34,416.24 							"/>
						</g>
					</g>
					<g>
						<path style="fill:none;stroke:#000000;stroke-width:2.3395;stroke-miterlimit:10;" d="M297.6,409.64
							c-16.58-11.1-22.63-61.98-56.71-37.16c36.43-76.88,58.46,32.76,94.72,37.16C314.55,410.05,297.6,409.64,297.6,409.64z"/>
						<g>
							<polygon points="249.92,354.79 252.92,366.17 260.68,366.51 266.55,345.44 258.24,347.27 							"/>
							<polygon points="266.55,366.8 275.66,348.2 285.91,357.5 271.97,372.43 							"/>
							<polygon points="277.44,380.55 292.39,365.58 298.17,373.82 282.02,386.27 							"/>
							<polygon points="285.51,394.62 303.96,381.74 310.39,389.62 290.64,401.06 							"/>
							<polygon points="315.61,397.01 295.4,407.89 303.93,409.82 322.34,403.4 							"/>
						</g>
					</g>
				</g>
			</g>
			<g>
				<g>
					
						<rect x="122.51" y="400.44" transform="matrix(0.7071 -0.7071 0.7071 0.7071 -251.1564 213.2962)" style="fill:none;stroke:#000000;stroke-width:2.3395;stroke-miterlimit:10;" width="18.76" height="18.76"/>
					<circle cx="131.89" cy="409.82" r="4.09"/>
				</g>
				<g>
					<path style="fill:none;stroke:#000000;stroke-width:2.3395;stroke-miterlimit:10;" d="M111.37,409.23
						c13.91,18.85,16.01,28.83,34.4,26.18c-14.3,19.37-35.96-4.35-45.84-26.18"/>
					<path style="fill:none;stroke:#000000;stroke-width:2.3395;stroke-miterlimit:10;" d="M111.37,410.42
						c13.91-18.85,16.01-28.83,34.4-26.18c-14.3-19.37-35.96,4.35-45.84,26.18"/>
				</g>
				<g>
					<g>
						<path style="fill:none;stroke:#000000;stroke-width:2.3395;stroke-miterlimit:10;" d="M88,410
							c16.58,11.1,22.63,61.98,56.71,37.16C108.29,524.04,86.26,414.4,50,410C71.06,409.6,88,410,88,410z"/>
						<g>
							<polygon points="135.69,464.85 132.68,453.47 124.93,453.14 119.05,474.2 127.37,472.37 							"/>
							<polygon points="119.05,452.84 109.95,471.44 99.7,462.14 113.63,447.21 							"/>
							<polygon points="108.17,439.09 93.22,454.06 87.43,445.82 103.59,433.37 							"/>
							<polygon points="100.1,425.02 81.64,437.9 75.21,430.02 94.97,418.58 							"/>
							<polygon points="69.99,422.63 90.21,411.75 81.68,409.82 63.27,416.24 							"/>
						</g>
					</g>
					<g>
						<path style="fill:none;stroke:#000000;stroke-width:2.3395;stroke-miterlimit:10;" d="M88,409.64
							c16.58-11.1,22.63-61.98,56.71-37.16c-36.43-76.88-58.46,32.76-94.72,37.16C71.06,410.05,88,409.64,88,409.64z"/>
						<g>
							<polygon points="135.69,354.79 132.68,366.17 124.93,366.51 119.05,345.44 127.37,347.27 							"/>
							<polygon points="119.05,366.8 109.95,348.2 99.7,357.5 113.63,372.43 							"/>
							<polygon points="108.17,380.55 93.22,365.58 87.43,373.82 103.59,386.27 							"/>
							<polygon points="100.1,394.62 81.64,381.74 75.21,389.62 94.97,401.06 							"/>
							<polygon points="69.99,397.01 90.21,407.89 81.68,409.82 63.27,403.4 							"/>
						</g>
					</g>
				</g>
			</g>
			<g>
				<g>
					
						<rect x="183.42" y="342.44" transform="matrix(-0.7071 0.7071 -0.7071 -0.7071 577.907 464.2551)" style="fill:none;stroke:#000000;stroke-width:2.3395;stroke-miterlimit:10;" width="18.76" height="18.76"/>
					<circle cx="192.8" cy="351.82" r="4.09"/>
				</g>
				<g>
					<path style="fill:none;stroke:#000000;stroke-width:2.3395;stroke-miterlimit:10;" d="M192.21,331.29
						c18.85,13.91,28.83,16.01,26.18,34.4c19.37-14.3-4.35-35.96-26.18-45.84"/>
					<path style="fill:none;stroke:#000000;stroke-width:2.3395;stroke-miterlimit:10;" d="M193.4,331.29
						c-18.85,13.91-28.83,16.01-26.18,34.4c-19.37-14.3,4.35-35.96,26.18-45.84"/>
				</g>
				<g>
					<g>
						<path style="fill:none;stroke:#000000;stroke-width:2.3395;stroke-miterlimit:10;" d="M192.98,307.93
							c11.1,16.58,61.98,22.63,37.16,56.71c76.88-36.43-32.76-58.46-37.16-94.72C192.58,290.98,192.98,307.93,192.98,307.93z"/>
						<g>
							<polygon points="247.83,355.61 236.45,352.61 236.12,344.85 257.18,338.98 255.36,347.29 							"/>
							<polygon points="235.82,338.98 254.42,329.87 245.12,319.62 230.19,333.56 							"/>
							<polygon points="222.08,328.09 237.04,313.14 228.8,307.36 216.36,323.51 							"/>
							<polygon points="208,320.02 220.88,301.56 213.01,295.14 201.56,314.89 							"/>
							<polygon points="205.61,289.92 194.74,310.13 192.8,301.6 199.22,283.19 							"/>
						</g>
					</g>
					<g>
						<path style="fill:none;stroke:#000000;stroke-width:2.3395;stroke-miterlimit:10;" d="M192.62,307.93
							c-11.1,16.58-61.98,22.63-37.16,56.71c-76.88-36.43,32.76-58.46,37.16-94.72C193.03,290.98,192.62,307.93,192.62,307.93z"/>
						<g>
							<polygon points="137.77,355.61 149.15,352.61 149.49,344.85 128.42,338.98 130.25,347.29 							"/>
							<polygon points="149.78,338.98 131.19,329.87 140.48,319.62 155.42,333.56 							"/>
							<polygon points="163.53,328.09 148.57,313.14 156.8,307.36 169.25,323.51 							"/>
							<polygon points="177.61,320.02 164.73,301.56 172.6,295.14 184.04,314.89 							"/>
							<polygon points="179.99,289.92 190.87,310.13 192.8,301.6 186.39,283.19 							"/>
						</g>
					</g>
				</g>
			</g>
			<g>
				<g>
					
						<rect x="183.42" y="458.45" transform="matrix(-0.7071 -0.7071 0.7071 -0.7071 -1.667 934.9603)" style="fill:none;stroke:#000000;stroke-width:2.3395;stroke-miterlimit:10;" width="18.76" height="18.76"/>
					<circle cx="192.8" cy="467.83" r="4.09"/>
				</g>
				<g>
					<path style="fill:none;stroke:#000000;stroke-width:2.3395;stroke-miterlimit:10;" d="M192.21,488.35
						c18.85-13.91,28.83-16.01,26.18-34.4c19.37,14.3-4.35,35.96-26.18,45.84"/>
					<path style="fill:none;stroke:#000000;stroke-width:2.3395;stroke-miterlimit:10;" d="M193.4,488.35
						c-18.85-13.91-28.83-16.01-26.18-34.4c-19.37,14.3,4.35,35.96,26.18,45.84"/>
				</g>
				<g>
					<g>
						<path style="fill:none;stroke:#000000;stroke-width:2.3395;stroke-miterlimit:10;" d="M192.98,511.72
							c11.1-16.58,61.98-22.63,37.16-56.71c76.88,36.43-32.76,58.46-37.16,94.72C192.58,528.66,192.98,511.72,192.98,511.72z"/>
						<g>
							<polygon points="247.83,464.03 236.45,467.04 236.12,474.79 257.18,480.67 255.36,472.35 							"/>
							<polygon points="235.82,480.67 254.42,489.77 245.12,500.02 230.19,486.08 							"/>
							<polygon points="222.08,491.55 237.04,506.5 228.8,512.28 216.36,496.13 							"/>
							<polygon points="208,499.62 220.88,518.08 213.01,524.51 201.56,504.75 							"/>
							<polygon points="205.61,529.72 194.74,509.51 192.8,518.04 199.22,536.45 							"/>
						</g>
					</g>
					<g>
						<path style="fill:none;stroke:#000000;stroke-width:2.3395;stroke-miterlimit:10;" d="M192.62,511.72
							c-11.1-16.58-61.98-22.63-37.16-56.71c-76.88,36.43,32.76,58.46,37.16,94.72C193.03,528.66,192.62,511.72,192.62,511.72z"/>
						<g>
							<polygon points="137.77,464.03 149.15,467.04 149.49,474.79 128.42,480.67 130.25,472.35 							"/>
							<polygon points="149.78,480.67 131.19,489.77 140.48,500.02 155.42,486.08 							"/>
							<polygon points="163.53,491.55 148.57,506.5 156.8,512.28 169.25,496.13 							"/>
							<polygon points="177.61,499.62 164.73,518.08 172.6,524.51 184.04,504.75 							"/>
							<polygon points="179.99,529.72 190.87,509.51 192.8,518.04 186.39,536.45 							"/>
						</g>
					</g>
				</g>
			</g>
		</g>
	</g>
</g>
<g>
</g>
<g>
</g>
<g>
</g>
<g>
</g>
<g>
</g>
<g>
</g>
<g>
</g>
<g>
</g>
<g>
</g>
<g>
</g>
<g>
</g>
<g>
</g>
<g>
</g>
<g>
</g>
<g>
</g>
</svg>
