<?xml version="1.0" encoding="utf-8"?>
<!-- Generator: Adobe Illustrator 27.2.0, SVG Export Plug-In . SVG Version: 6.00 Build 0)  -->
<svg version="1.1" id="Layer_1" xmlns="http://www.w3.org/2000/svg" xmlns:xlink="http://www.w3.org/1999/xlink" x="0px" y="0px"
	 viewBox="0 0 800 600" style="enable-background:new 0 0 800 600;" xml:space="preserve">
<g>
	<g>
		<g>
			<path d="M260.43,337.52c-3.49-3.52-11.79,0.15-13.41,13.54C260.28,349.43,263.91,341.04,260.43,337.52z"/>
			<path d="M271.2,348.39c-3.49-3.52-11.79,0.15-13.41,13.54C271.05,360.3,274.68,351.91,271.2,348.39z"/>
			<path d="M281.96,359.27c-3.49-3.52-11.79,0.15-13.41,13.54C281.81,371.17,285.45,362.79,281.96,359.27z"/>
			<path d="M249.66,326.65c3.49,3.52-0.15,11.91-13.41,13.54C237.87,326.8,246.18,323.13,249.66,326.65z"/>
			<path d="M238.89,315.78c3.49,3.52-0.15,11.91-13.41,13.54C227.1,315.93,235.41,312.26,238.89,315.78z"/>
		</g>
		<g>
			<path d="M166.22,337.52c-3.49,3.52,0.15,11.91,13.41,13.54C178.01,337.67,169.71,334,166.22,337.52z"/>
			<path d="M176.99,326.65c-3.49,3.52,0.15,11.91,13.41,13.54C188.78,326.8,180.47,323.13,176.99,326.65z"/>
			<path d="M187.75,315.78c-3.49,3.52,0.15,11.91,13.41,13.54C199.55,315.93,191.24,312.26,187.75,315.78z"/>
			<path d="M155.45,348.39c3.49-3.52,11.79,0.15,13.41,13.54C155.6,360.3,151.97,351.91,155.45,348.39z"/>
			<path d="M144.69,359.27c3.49-3.52,11.79,0.15,13.41,13.54C144.84,371.17,141.2,362.79,144.69,359.27z"/>
		</g>
		<g>
			<path d="M166.22,432.65c3.49,3.52,11.79-0.15,13.41-13.54C166.37,420.74,162.74,429.13,166.22,432.65z"/>
			<path d="M155.45,421.78c3.49,3.52,11.79-0.15,13.41-13.54C155.6,409.87,151.97,418.26,155.45,421.78z"/>
			<path d="M144.69,410.9c3.49,3.52,11.79-0.15,13.41-13.54C144.84,399,141.2,407.39,144.69,410.9z"/>
			<path d="M176.99,443.52c-3.49-3.52,0.15-11.91,13.41-13.54C188.78,443.37,180.47,447.04,176.99,443.52z"/>
			<path d="M187.75,454.39c-3.49-3.52,0.15-11.91,13.41-13.54C199.55,454.24,191.24,457.91,187.75,454.39z"/>
		</g>
		<g>
			<path d="M260.43,432.65c3.49-3.52-0.15-11.91-13.41-13.54C248.64,432.5,256.94,436.17,260.43,432.65z"/>
			<path d="M249.66,443.52c3.49-3.52-0.15-11.91-13.41-13.54C237.87,443.37,246.18,447.04,249.66,443.52z"/>
			<path d="M238.89,454.39c3.49-3.52-0.15-11.91-13.41-13.54C227.1,454.24,235.41,457.91,238.89,454.39z"/>
			<path d="M271.2,421.78c-3.49,3.52-11.79-0.15-13.41-13.54C271.05,409.87,274.68,418.26,271.2,421.78z"/>
			<path d="M281.96,410.9c-3.49,3.52-11.79-0.15-13.41-13.54C281.81,399,285.45,407.39,281.96,410.9z"/>
		</g>
		<g>
			<g>
				<line style="fill:none;stroke:#000000;stroke-miterlimit:10;" x1="213.32" y1="439.61" x2="213.32" y2="427.28"/>
				<ellipse cx="213.32" cy="441.46" rx="3.15" ry="3.18"/>
			</g>
			<g>
				<line style="fill:none;stroke:#000000;stroke-miterlimit:10;" x1="220.31" y1="434.71" x2="213.37" y2="427.7"/>
				<ellipse cx="221.6" cy="436.01" rx="3.15" ry="3.18"/>
			</g>
			<g>
				<line style="fill:none;stroke:#000000;stroke-miterlimit:10;" x1="206.34" y1="434.71" x2="213.28" y2="427.7"/>
				<ellipse cx="205.05" cy="436.01" rx="3.15" ry="3.18"/>
			</g>
		</g>
		<g>
			<g>
				<line style="fill:none;stroke:#000000;stroke-miterlimit:10;" x1="295.18" y1="467.73" x2="286.54" y2="459.02"/>
				<ellipse cx="296.47" cy="469.04" rx="3.15" ry="3.18"/>
			</g>
			<g>
				<line style="fill:none;stroke:#000000;stroke-miterlimit:10;" x1="296.68" y1="459.28" x2="286.87" y2="459.28"/>
				<ellipse cx="298.51" cy="459.28" rx="3.15" ry="3.18"/>
			</g>
			<g>
				<line style="fill:none;stroke:#000000;stroke-miterlimit:10;" x1="286.8" y1="469.25" x2="286.8" y2="459.34"/>
				<ellipse cx="286.8" cy="471.1" rx="3.15" ry="3.18"/>
			</g>
		</g>
		<g>
			<g>
				<line style="fill:none;stroke:#000000;stroke-miterlimit:10;" x1="275.16" y1="487.94" x2="266.53" y2="479.23"/>
				<ellipse cx="276.46" cy="489.25" rx="3.15" ry="3.18"/>
			</g>
			<g>
				<line style="fill:none;stroke:#000000;stroke-miterlimit:10;" x1="276.66" y1="479.49" x2="266.85" y2="479.49"/>
				<ellipse cx="278.5" cy="479.49" rx="3.15" ry="3.18"/>
			</g>
			<g>
				<line style="fill:none;stroke:#000000;stroke-miterlimit:10;" x1="266.79" y1="489.46" x2="266.79" y2="479.55"/>
				<ellipse cx="266.79" cy="491.31" rx="3.15" ry="3.18"/>
			</g>
		</g>
		<g>
			<g>
				<line style="fill:none;stroke:#000000;stroke-miterlimit:10;" x1="255.15" y1="508.15" x2="246.51" y2="499.44"/>
				<ellipse cx="256.44" cy="509.46" rx="3.15" ry="3.18"/>
			</g>
			<g>
				<line style="fill:none;stroke:#000000;stroke-miterlimit:10;" x1="256.65" y1="499.7" x2="246.83" y2="499.7"/>
				<ellipse cx="258.48" cy="499.7" rx="3.15" ry="3.18"/>
			</g>
			<g>
				<line style="fill:none;stroke:#000000;stroke-miterlimit:10;" x1="246.77" y1="509.67" x2="246.77" y2="499.76"/>
				<ellipse cx="246.77" cy="511.52" rx="3.15" ry="3.18"/>
			</g>
		</g>
		<g>
			<g>
				<line style="fill:none;stroke:#000000;stroke-miterlimit:10;" x1="235.13" y1="528.36" x2="226.5" y2="519.65"/>
				<ellipse cx="236.43" cy="529.67" rx="3.15" ry="3.18"/>
			</g>
			<g>
				<line style="fill:none;stroke:#000000;stroke-miterlimit:10;" x1="236.63" y1="519.91" x2="226.82" y2="519.91"/>
				<ellipse cx="238.47" cy="519.91" rx="3.15" ry="3.18"/>
			</g>
			<g>
				<line style="fill:none;stroke:#000000;stroke-miterlimit:10;" x1="226.76" y1="529.88" x2="226.76" y2="519.97"/>
				<ellipse cx="226.76" cy="531.73" rx="3.15" ry="3.18"/>
			</g>
		</g>
		<g>
			<g>
				<line style="fill:none;stroke:#000000;stroke-miterlimit:10;" x1="355.22" y1="407.1" x2="346.59" y2="398.39"/>
				<ellipse cx="356.52" cy="408.41" rx="3.15" ry="3.18"/>
			</g>
			<g>
				<line style="fill:none;stroke:#000000;stroke-miterlimit:10;" x1="346.85" y1="408.62" x2="346.85" y2="398.71"/>
				<ellipse cx="346.85" cy="410.47" rx="3.15" ry="3.18"/>
			</g>
			<g>
				<line style="fill:none;stroke:#000000;stroke-miterlimit:10;" x1="356.73" y1="398.65" x2="346.91" y2="398.65"/>
				<ellipse cx="358.56" cy="398.65" rx="3.15" ry="3.18"/>
			</g>
		</g>
		<g>
			<g>
				<line style="fill:none;stroke:#000000;stroke-miterlimit:10;" x1="315.19" y1="447.52" x2="306.56" y2="438.81"/>
				<ellipse cx="316.49" cy="448.83" rx="3.15" ry="3.18"/>
			</g>
			<g>
				<line style="fill:none;stroke:#000000;stroke-miterlimit:10;" x1="306.82" y1="449.04" x2="306.82" y2="439.13"/>
				<ellipse cx="306.82" cy="450.89" rx="3.15" ry="3.18"/>
			</g>
			<g>
				<line style="fill:none;stroke:#000000;stroke-miterlimit:10;" x1="316.7" y1="439.07" x2="306.88" y2="439.07"/>
				<ellipse cx="318.53" cy="439.07" rx="3.15" ry="3.18"/>
			</g>
		</g>
		<g>
			<g>
				<line style="fill:none;stroke:#000000;stroke-miterlimit:10;" x1="335.21" y1="427.31" x2="326.57" y2="418.6"/>
				<ellipse cx="336.5" cy="428.62" rx="3.15" ry="3.18"/>
			</g>
			<g>
				<line style="fill:none;stroke:#000000;stroke-miterlimit:10;" x1="326.84" y1="428.83" x2="326.84" y2="418.92"/>
				<ellipse cx="326.84" cy="430.68" rx="3.15" ry="3.18"/>
			</g>
			<g>
				<line style="fill:none;stroke:#000000;stroke-miterlimit:10;" x1="336.71" y1="418.86" x2="326.9" y2="418.86"/>
				<ellipse cx="338.54" cy="418.86" rx="3.15" ry="3.18"/>
			</g>
		</g>
		<g>
			<g>
				<line style="fill:none;stroke:#000000;stroke-miterlimit:10;" x1="295.18" y1="302.44" x2="286.54" y2="311.15"/>
				<ellipse cx="296.47" cy="301.13" rx="3.15" ry="3.18"/>
			</g>
			<g>
				<line style="fill:none;stroke:#000000;stroke-miterlimit:10;" x1="286.8" y1="300.92" x2="286.8" y2="310.83"/>
				<ellipse cx="286.8" cy="299.07" rx="3.15" ry="3.18"/>
			</g>
			<g>
				<line style="fill:none;stroke:#000000;stroke-miterlimit:10;" x1="296.68" y1="310.89" x2="286.87" y2="310.89"/>
				<ellipse cx="298.51" cy="310.89" rx="3.15" ry="3.18"/>
			</g>
		</g>
		<g>
			<g>
				<line style="fill:none;stroke:#000000;stroke-miterlimit:10;" x1="315.19" y1="322.65" x2="306.56" y2="331.36"/>
				<ellipse cx="316.49" cy="321.34" rx="3.15" ry="3.18"/>
			</g>
			<g>
				<line style="fill:none;stroke:#000000;stroke-miterlimit:10;" x1="306.82" y1="321.13" x2="306.82" y2="331.04"/>
				<ellipse cx="306.82" cy="319.28" rx="3.15" ry="3.18"/>
			</g>
			<g>
				<line style="fill:none;stroke:#000000;stroke-miterlimit:10;" x1="316.7" y1="331.1" x2="306.88" y2="331.1"/>
				<ellipse cx="318.53" cy="331.1" rx="3.15" ry="3.18"/>
			</g>
		</g>
		<g>
			<g>
				<line style="fill:none;stroke:#000000;stroke-miterlimit:10;" x1="335.21" y1="342.86" x2="326.57" y2="351.57"/>
				<ellipse cx="336.5" cy="341.55" rx="3.15" ry="3.18"/>
			</g>
			<g>
				<line style="fill:none;stroke:#000000;stroke-miterlimit:10;" x1="326.84" y1="341.34" x2="326.84" y2="351.25"/>
				<ellipse cx="326.84" cy="339.49" rx="3.15" ry="3.18"/>
			</g>
			<g>
				<line style="fill:none;stroke:#000000;stroke-miterlimit:10;" x1="336.71" y1="351.31" x2="326.9" y2="351.31"/>
				<ellipse cx="338.54" cy="351.31" rx="3.15" ry="3.18"/>
			</g>
		</g>
		<g>
			<g>
				<line style="fill:none;stroke:#000000;stroke-miterlimit:10;" x1="355.22" y1="363.07" x2="346.59" y2="371.78"/>
				<ellipse cx="356.52" cy="361.76" rx="3.15" ry="3.18"/>
			</g>
			<g>
				<line style="fill:none;stroke:#000000;stroke-miterlimit:10;" x1="346.85" y1="361.55" x2="346.85" y2="371.46"/>
				<ellipse cx="346.85" cy="359.7" rx="3.15" ry="3.18"/>
			</g>
			<g>
				<line style="fill:none;stroke:#000000;stroke-miterlimit:10;" x1="356.73" y1="371.52" x2="346.91" y2="371.52"/>
				<ellipse cx="358.56" cy="371.52" rx="3.15" ry="3.18"/>
			</g>
		</g>
		<g>
			<g>
				<line style="fill:none;stroke:#000000;stroke-miterlimit:10;" x1="235.13" y1="241.81" x2="226.5" y2="250.52"/>
				<ellipse cx="236.43" cy="240.5" rx="3.15" ry="3.18"/>
			</g>
			<g>
				<line style="fill:none;stroke:#000000;stroke-miterlimit:10;" x1="236.63" y1="250.26" x2="226.82" y2="250.26"/>
				<ellipse cx="238.47" cy="250.26" rx="3.15" ry="3.18"/>
			</g>
			<g>
				<line style="fill:none;stroke:#000000;stroke-miterlimit:10;" x1="226.76" y1="240.29" x2="226.76" y2="250.2"/>
				<ellipse cx="226.76" cy="238.44" rx="3.15" ry="3.18"/>
			</g>
		</g>
		<g>
			<g>
				<line style="fill:none;stroke:#000000;stroke-miterlimit:10;" x1="275.16" y1="282.23" x2="266.53" y2="290.94"/>
				<ellipse cx="276.46" cy="280.92" rx="3.15" ry="3.18"/>
			</g>
			<g>
				<line style="fill:none;stroke:#000000;stroke-miterlimit:10;" x1="276.66" y1="290.68" x2="266.85" y2="290.68"/>
				<ellipse cx="278.5" cy="290.68" rx="3.15" ry="3.18"/>
			</g>
			<g>
				<line style="fill:none;stroke:#000000;stroke-miterlimit:10;" x1="266.79" y1="280.71" x2="266.79" y2="290.62"/>
				<ellipse cx="266.79" cy="278.86" rx="3.15" ry="3.18"/>
			</g>
		</g>
		<g>
			<g>
				<line style="fill:none;stroke:#000000;stroke-miterlimit:10;" x1="255.15" y1="262.02" x2="246.51" y2="270.73"/>
				<ellipse cx="256.44" cy="260.71" rx="3.15" ry="3.18"/>
			</g>
			<g>
				<line style="fill:none;stroke:#000000;stroke-miterlimit:10;" x1="256.65" y1="270.47" x2="246.83" y2="270.47"/>
				<ellipse cx="258.48" cy="270.47" rx="3.15" ry="3.18"/>
			</g>
			<g>
				<line style="fill:none;stroke:#000000;stroke-miterlimit:10;" x1="246.77" y1="260.5" x2="246.77" y2="270.41"/>
				<ellipse cx="246.77" cy="258.65" rx="3.15" ry="3.18"/>
			</g>
		</g>
		<g>
			<g>
				<line style="fill:none;stroke:#000000;stroke-miterlimit:10;" x1="131.47" y1="302.44" x2="140.1" y2="311.15"/>
				<ellipse cx="130.18" cy="301.13" rx="3.15" ry="3.18"/>
			</g>
			<g>
				<line style="fill:none;stroke:#000000;stroke-miterlimit:10;" x1="129.97" y1="310.89" x2="139.78" y2="310.89"/>
				<ellipse cx="128.14" cy="310.89" rx="3.15" ry="3.18"/>
			</g>
			<g>
				<line style="fill:none;stroke:#000000;stroke-miterlimit:10;" x1="139.84" y1="300.92" x2="139.84" y2="310.83"/>
				<ellipse cx="139.84" cy="299.07" rx="3.15" ry="3.18"/>
			</g>
		</g>
		<g>
			<g>
				<line style="fill:none;stroke:#000000;stroke-miterlimit:10;" x1="151.49" y1="282.23" x2="160.12" y2="290.94"/>
				<ellipse cx="150.19" cy="280.92" rx="3.15" ry="3.18"/>
			</g>
			<g>
				<line style="fill:none;stroke:#000000;stroke-miterlimit:10;" x1="149.98" y1="290.68" x2="159.8" y2="290.68"/>
				<ellipse cx="148.15" cy="290.68" rx="3.15" ry="3.18"/>
			</g>
			<g>
				<line style="fill:none;stroke:#000000;stroke-miterlimit:10;" x1="159.86" y1="280.71" x2="159.86" y2="290.62"/>
				<ellipse cx="159.86" cy="278.86" rx="3.15" ry="3.18"/>
			</g>
		</g>
		<g>
			<g>
				<line style="fill:none;stroke:#000000;stroke-miterlimit:10;" x1="171.5" y1="262.02" x2="180.14" y2="270.73"/>
				<ellipse cx="170.21" cy="260.71" rx="3.15" ry="3.18"/>
			</g>
			<g>
				<line style="fill:none;stroke:#000000;stroke-miterlimit:10;" x1="170" y1="270.47" x2="179.81" y2="270.47"/>
				<ellipse cx="168.17" cy="270.47" rx="3.15" ry="3.18"/>
			</g>
			<g>
				<line style="fill:none;stroke:#000000;stroke-miterlimit:10;" x1="179.87" y1="260.5" x2="179.87" y2="270.41"/>
				<path d="M183.02,258.65c0,1.76-1.41,3.18-3.15,3.18s-3.15-1.42-3.15-3.18c0-1.76,1.41-3.18,3.15-3.18
					S183.02,256.89,183.02,258.65z"/>
			</g>
		</g>
		<g>
			<g>
				<line style="fill:none;stroke:#000000;stroke-miterlimit:10;" x1="191.52" y1="241.81" x2="200.15" y2="250.52"/>
				<ellipse cx="190.22" cy="240.5" rx="3.15" ry="3.18"/>
			</g>
			<g>
				<line style="fill:none;stroke:#000000;stroke-miterlimit:10;" x1="190.01" y1="250.26" x2="199.83" y2="250.26"/>
				<ellipse cx="188.18" cy="250.26" rx="3.15" ry="3.18"/>
			</g>
			<g>
				<line style="fill:none;stroke:#000000;stroke-miterlimit:10;" x1="199.89" y1="240.29" x2="199.89" y2="250.2"/>
				<ellipse cx="199.89" cy="238.44" rx="3.15" ry="3.18"/>
			</g>
		</g>
		<g>
			<g>
				<line style="fill:none;stroke:#000000;stroke-miterlimit:10;" x1="71.43" y1="363.07" x2="80.06" y2="371.78"/>
				<ellipse cx="70.13" cy="361.76" rx="3.15" ry="3.18"/>
			</g>
			<g>
				<line style="fill:none;stroke:#000000;stroke-miterlimit:10;" x1="79.8" y1="361.55" x2="79.8" y2="371.46"/>
				<ellipse cx="79.8" cy="359.7" rx="3.15" ry="3.18"/>
			</g>
			<g>
				<line style="fill:none;stroke:#000000;stroke-miterlimit:10;" x1="69.92" y1="371.52" x2="79.74" y2="371.52"/>
				<ellipse cx="68.09" cy="371.52" rx="3.15" ry="3.18"/>
			</g>
		</g>
		<g>
			<g>
				<line style="fill:none;stroke:#000000;stroke-miterlimit:10;" x1="111.46" y1="322.65" x2="120.09" y2="331.36"/>
				<ellipse cx="110.16" cy="321.34" rx="3.15" ry="3.18"/>
			</g>
			<g>
				<line style="fill:none;stroke:#000000;stroke-miterlimit:10;" x1="119.83" y1="321.13" x2="119.83" y2="331.04"/>
				<ellipse cx="119.83" cy="319.28" rx="3.15" ry="3.18"/>
			</g>
			<g>
				<line style="fill:none;stroke:#000000;stroke-miterlimit:10;" x1="109.95" y1="331.1" x2="119.77" y2="331.1"/>
				<ellipse cx="108.12" cy="331.1" rx="3.15" ry="3.18"/>
			</g>
		</g>
		<g>
			<g>
				<line style="fill:none;stroke:#000000;stroke-miterlimit:10;" x1="91.44" y1="342.86" x2="100.07" y2="351.57"/>
				<ellipse cx="90.15" cy="341.55" rx="3.15" ry="3.18"/>
			</g>
			<g>
				<line style="fill:none;stroke:#000000;stroke-miterlimit:10;" x1="99.81" y1="341.34" x2="99.81" y2="351.25"/>
				<ellipse cx="99.81" cy="339.49" rx="3.15" ry="3.18"/>
			</g>
			<g>
				<line style="fill:none;stroke:#000000;stroke-miterlimit:10;" x1="89.94" y1="351.31" x2="99.75" y2="351.31"/>
				<ellipse cx="88.11" cy="351.31" rx="3.15" ry="3.18"/>
			</g>
		</g>
		<g>
			<g>
				<line style="fill:none;stroke:#000000;stroke-miterlimit:10;" x1="131.47" y1="467.73" x2="140.1" y2="459.02"/>
				<ellipse cx="130.18" cy="469.04" rx="3.15" ry="3.18"/>
			</g>
			<g>
				<line style="fill:none;stroke:#000000;stroke-miterlimit:10;" x1="139.84" y1="469.25" x2="139.84" y2="459.34"/>
				<ellipse cx="139.84" cy="471.1" rx="3.15" ry="3.18"/>
			</g>
			<g>
				<line style="fill:none;stroke:#000000;stroke-miterlimit:10;" x1="129.97" y1="459.28" x2="139.78" y2="459.28"/>
				<ellipse cx="128.14" cy="459.28" rx="3.15" ry="3.18"/>
			</g>
		</g>
		<g>
			<g>
				<line style="fill:none;stroke:#000000;stroke-miterlimit:10;" x1="111.46" y1="447.52" x2="120.09" y2="438.81"/>
				<ellipse cx="110.16" cy="448.83" rx="3.15" ry="3.18"/>
			</g>
			<g>
				<line style="fill:none;stroke:#000000;stroke-miterlimit:10;" x1="119.83" y1="449.04" x2="119.83" y2="439.13"/>
				<ellipse cx="119.83" cy="450.89" rx="3.15" ry="3.18"/>
			</g>
			<g>
				<line style="fill:none;stroke:#000000;stroke-miterlimit:10;" x1="109.95" y1="439.07" x2="119.77" y2="439.07"/>
				<ellipse cx="108.12" cy="439.07" rx="3.15" ry="3.18"/>
			</g>
		</g>
		<g>
			<g>
				<line style="fill:none;stroke:#000000;stroke-miterlimit:10;" x1="91.44" y1="427.31" x2="100.07" y2="418.6"/>
				<ellipse cx="90.15" cy="428.62" rx="3.15" ry="3.18"/>
			</g>
			<g>
				<line style="fill:none;stroke:#000000;stroke-miterlimit:10;" x1="99.81" y1="428.83" x2="99.81" y2="418.92"/>
				<ellipse cx="99.81" cy="430.68" rx="3.15" ry="3.18"/>
			</g>
			<g>
				<line style="fill:none;stroke:#000000;stroke-miterlimit:10;" x1="89.94" y1="418.86" x2="99.75" y2="418.86"/>
				<ellipse cx="88.11" cy="418.86" rx="3.15" ry="3.18"/>
			</g>
		</g>
		<g>
			<g>
				<line style="fill:none;stroke:#000000;stroke-miterlimit:10;" x1="71.43" y1="407.1" x2="80.06" y2="398.39"/>
				<ellipse cx="70.13" cy="408.41" rx="3.15" ry="3.18"/>
			</g>
			<g>
				<line style="fill:none;stroke:#000000;stroke-miterlimit:10;" x1="79.8" y1="408.62" x2="79.8" y2="398.71"/>
				<ellipse cx="79.8" cy="410.47" rx="3.15" ry="3.18"/>
			</g>
			<g>
				<line style="fill:none;stroke:#000000;stroke-miterlimit:10;" x1="69.92" y1="398.65" x2="79.74" y2="398.65"/>
				<ellipse cx="68.09" cy="398.65" rx="3.15" ry="3.18"/>
			</g>
		</g>
		<g>
			<g>
				<line style="fill:none;stroke:#000000;stroke-miterlimit:10;" x1="191.52" y1="528.36" x2="200.15" y2="519.65"/>
				<ellipse cx="190.22" cy="529.67" rx="3.15" ry="3.18"/>
			</g>
			<g>
				<line style="fill:none;stroke:#000000;stroke-miterlimit:10;" x1="190.01" y1="519.91" x2="199.83" y2="519.91"/>
				<ellipse cx="188.18" cy="519.91" rx="3.15" ry="3.18"/>
			</g>
			<g>
				<line style="fill:none;stroke:#000000;stroke-miterlimit:10;" x1="199.89" y1="529.88" x2="199.89" y2="519.97"/>
				<ellipse cx="199.89" cy="531.73" rx="3.15" ry="3.18"/>
			</g>
		</g>
		<g>
			<g>
				<line style="fill:none;stroke:#000000;stroke-miterlimit:10;" x1="151.49" y1="487.94" x2="160.12" y2="479.23"/>
				<ellipse cx="150.19" cy="489.25" rx="3.15" ry="3.18"/>
			</g>
			<g>
				<line style="fill:none;stroke:#000000;stroke-miterlimit:10;" x1="149.98" y1="479.49" x2="159.8" y2="479.49"/>
				<ellipse cx="148.15" cy="479.49" rx="3.15" ry="3.18"/>
			</g>
			<g>
				<line style="fill:none;stroke:#000000;stroke-miterlimit:10;" x1="159.86" y1="489.46" x2="159.86" y2="479.55"/>
				<ellipse cx="159.86" cy="491.31" rx="3.15" ry="3.18"/>
			</g>
		</g>
		<g>
			<g>
				<line style="fill:none;stroke:#000000;stroke-miterlimit:10;" x1="171.5" y1="508.15" x2="180.14" y2="499.44"/>
				<ellipse cx="170.21" cy="509.46" rx="3.15" ry="3.18"/>
			</g>
			<g>
				<line style="fill:none;stroke:#000000;stroke-miterlimit:10;" x1="170" y1="499.7" x2="179.81" y2="499.7"/>
				<ellipse cx="168.17" cy="499.7" rx="3.15" ry="3.18"/>
			</g>
			<g>
				<line style="fill:none;stroke:#000000;stroke-miterlimit:10;" x1="179.87" y1="509.67" x2="179.87" y2="499.76"/>
				<ellipse cx="179.87" cy="511.52" rx="3.15" ry="3.18"/>
			</g>
		</g>
		<g>
			<g>
				<line style="fill:none;stroke:#000000;stroke-miterlimit:10;" x1="213.32" y1="225.2" x2="213.32" y2="237.53"/>
				<ellipse cx="213.32" cy="223.35" rx="3.15" ry="3.18"/>
			</g>
			<g>
				<line style="fill:none;stroke:#000000;stroke-miterlimit:10;" x1="206.34" y1="230.1" x2="213.28" y2="237.11"/>
				<ellipse cx="205.05" cy="228.8" rx="3.15" ry="3.18"/>
			</g>
			<g>
				<line style="fill:none;stroke:#000000;stroke-miterlimit:10;" x1="220.31" y1="230.1" x2="213.37" y2="237.11"/>
				<ellipse cx="221.6" cy="228.8" rx="3.15" ry="3.18"/>
			</g>
		</g>
		<g>
			<g>
				<line style="fill:none;stroke:#000000;stroke-miterlimit:10;" x1="54.98" y1="385.09" x2="67.19" y2="385.09"/>
				<ellipse cx="53.15" cy="385.09" rx="3.15" ry="3.18"/>
			</g>
			<g>
				<line style="fill:none;stroke:#000000;stroke-miterlimit:10;" x1="59.84" y1="392.14" x2="66.78" y2="385.13"/>
				<ellipse cx="58.54" cy="393.44" rx="3.15" ry="3.18"/>
			</g>
			<g>
				<line style="fill:none;stroke:#000000;stroke-miterlimit:10;" x1="59.84" y1="378.03" x2="66.78" y2="385.04"/>
				<ellipse cx="58.54" cy="376.73" rx="3.15" ry="3.18"/>
			</g>
		</g>
		<g>
			<g>
				<line style="fill:none;stroke:#000000;stroke-miterlimit:10;" x1="213.32" y1="544.97" x2="213.32" y2="532.64"/>
				<ellipse cx="213.32" cy="546.82" rx="3.15" ry="3.18"/>
			</g>
			<g>
				<line style="fill:none;stroke:#000000;stroke-miterlimit:10;" x1="220.31" y1="540.07" x2="213.37" y2="533.06"/>
				<ellipse cx="221.6" cy="541.38" rx="3.15" ry="3.18"/>
			</g>
			<g>
				<line style="fill:none;stroke:#000000;stroke-miterlimit:10;" x1="206.34" y1="540.07" x2="213.28" y2="533.06"/>
				<ellipse cx="205.05" cy="541.38" rx="3.15" ry="3.18"/>
			</g>
		</g>
		<g>
			<g>
				<line style="fill:none;stroke:#000000;stroke-miterlimit:10;" x1="371.67" y1="385.09" x2="359.46" y2="385.09"/>
				<ellipse cx="373.5" cy="385.09" rx="3.15" ry="3.18"/>
			</g>
			<g>
				<line style="fill:none;stroke:#000000;stroke-miterlimit:10;" x1="366.81" y1="378.03" x2="359.87" y2="385.04"/>
				<ellipse cx="368.11" cy="376.73" rx="3.15" ry="3.18"/>
			</g>
			<g>
				<line style="fill:none;stroke:#000000;stroke-miterlimit:10;" x1="366.81" y1="392.14" x2="359.87" y2="385.13"/>
				<ellipse cx="368.11" cy="393.44" rx="3.15" ry="3.18"/>
			</g>
		</g>
		<g>
			<g>
				<line style="fill:none;stroke:#000000;stroke-miterlimit:10;" x1="267.32" y1="385.09" x2="255.11" y2="385.09"/>
				<path d="M269.15,381.91c-1.74,0-3.15,1.42-3.15,3.18c0,1.76,1.41,3.18,3.15,3.18c1.74,0,3.15-1.42,3.15-3.18
					C272.3,383.33,270.89,381.91,269.15,381.91z"/>
			</g>
			<g>
				<line style="fill:none;stroke:#000000;stroke-miterlimit:10;" x1="262.47" y1="378.03" x2="255.53" y2="385.04"/>
				<ellipse cx="263.76" cy="376.73" rx="3.15" ry="3.18"/>
			</g>
			<g>
				<line style="fill:none;stroke:#000000;stroke-miterlimit:10;" x1="262.47" y1="392.14" x2="255.53" y2="385.13"/>
				<ellipse cx="263.76" cy="393.44" rx="3.15" ry="3.18"/>
			</g>
		</g>
		<g>
			<g>
				<line style="fill:none;stroke:#000000;stroke-miterlimit:10;" x1="213.32" y1="330.56" x2="213.32" y2="342.89"/>
				<ellipse cx="213.32" cy="328.71" rx="3.15" ry="3.18"/>
			</g>
			<g>
				<line style="fill:none;stroke:#000000;stroke-miterlimit:10;" x1="206.34" y1="335.46" x2="213.28" y2="342.47"/>
				<ellipse cx="205.05" cy="334.16" rx="3.15" ry="3.18"/>
			</g>
			<g>
				<line style="fill:none;stroke:#000000;stroke-miterlimit:10;" x1="220.31" y1="335.46" x2="213.37" y2="342.47"/>
				<ellipse cx="221.6" cy="334.16" rx="3.15" ry="3.18"/>
			</g>
		</g>
		<g>
			<g>
				<line style="fill:none;stroke:#000000;stroke-miterlimit:10;" x1="159.33" y1="385.09" x2="171.53" y2="385.09"/>
				<ellipse cx="157.5" cy="385.09" rx="3.15" ry="3.18"/>
			</g>
			<g>
				<line style="fill:none;stroke:#000000;stroke-miterlimit:10;" x1="164.18" y1="392.14" x2="171.12" y2="385.13"/>
				<ellipse cx="162.89" cy="393.44" rx="3.15" ry="3.18"/>
			</g>
			<g>
				<line style="fill:none;stroke:#000000;stroke-miterlimit:10;" x1="164.18" y1="378.03" x2="171.12" y2="385.04"/>
				<ellipse cx="162.89" cy="376.73" rx="3.15" ry="3.18"/>
			</g>
		</g>
		<g>
			
				<ellipse style="fill:none;stroke:#000000;stroke-width:3;stroke-miterlimit:10;" cx="291.32" cy="385.09" rx="12.16" ry="12.28"/>
			<ellipse style="fill:none;stroke:#000000;stroke-width:3;stroke-miterlimit:10;" cx="291.32" cy="385.09" rx="2.55" ry="2.57"/>
		</g>
		<g>
			
				<ellipse style="fill:none;stroke:#000000;stroke-width:3;stroke-miterlimit:10;" cx="213.32" cy="306.33" rx="12.16" ry="12.28"/>
			<ellipse style="fill:none;stroke:#000000;stroke-width:3;stroke-miterlimit:10;" cx="213.32" cy="306.33" rx="2.55" ry="2.57"/>
		</g>
		<g>
			
				<ellipse style="fill:none;stroke:#000000;stroke-width:3;stroke-miterlimit:10;" cx="135.33" cy="385.09" rx="12.16" ry="12.28"/>
			<ellipse style="fill:none;stroke:#000000;stroke-width:3;stroke-miterlimit:10;" cx="135.33" cy="385.09" rx="2.55" ry="2.57"/>
		</g>
		<g>
			
				<ellipse style="fill:none;stroke:#000000;stroke-width:3;stroke-miterlimit:10;" cx="213.32" cy="463.84" rx="12.16" ry="12.28"/>
			<ellipse style="fill:none;stroke:#000000;stroke-width:3;stroke-miterlimit:10;" cx="213.32" cy="463.84" rx="2.55" ry="2.57"/>
		</g>
		<g>
			
				<ellipse style="fill:none;stroke:#000000;stroke-width:3;stroke-miterlimit:10;" cx="336.17" cy="385.09" rx="12.16" ry="12.28"/>
			<ellipse style="fill:none;stroke:#000000;stroke-width:3;stroke-miterlimit:10;" cx="336.17" cy="385.09" rx="2.55" ry="2.57"/>
		</g>
		<g>
			<ellipse style="fill:none;stroke:#000000;stroke-width:3;stroke-miterlimit:10;" cx="90.48" cy="385.09" rx="12.16" ry="12.28"/>
			<ellipse style="fill:none;stroke:#000000;stroke-width:3;stroke-miterlimit:10;" cx="90.48" cy="385.09" rx="2.55" ry="2.57"/>
		</g>
		<g>
			<polyline points="309.16,402.22 324.85,406.27 320.85,390.42 			"/>
			<polyline points="230.3,481.86 234.3,497.7 218.61,493.66 			"/>
			<polyline points="296.23,415.28 311.92,419.33 307.91,403.49 			"/>
			<polyline points="283.29,428.35 298.98,432.39 294.98,416.55 			"/>
			<polyline points="270.36,441.41 286.05,445.45 282.04,429.61 			"/>
			<polyline points="257.42,454.47 273.11,458.52 269.1,442.67 			"/>
			<polyline points="244.48,467.53 260.17,471.58 256.17,455.73 			"/>
			<polyline points="231.55,480.6 247.24,484.64 243.23,468.8 			"/>
		</g>
		<g>
			<polyline points="221.59,259.47 213.32,245.41 205.06,259.47 			"/>
			<polyline points="221.59,259.47 213.32,273.53 205.06,259.47 			"/>
		</g>
		<g>
			<polyline points="221.59,510.7 213.32,524.76 205.06,510.7 			"/>
			<polyline points="221.59,510.7 213.32,496.64 205.06,510.7 			"/>
		</g>
		<g>
			<polyline points="230.3,288.31 234.3,272.47 218.61,276.51 			"/>
			<polyline points="309.16,367.95 324.85,363.9 320.85,379.75 			"/>
			<polyline points="243.23,301.37 247.24,285.53 231.55,289.58 			"/>
			<polyline points="256.17,314.44 260.17,298.59 244.48,302.64 			"/>
			<polyline points="269.1,327.5 273.11,311.66 257.42,315.7 			"/>
			<polyline points="282.04,340.56 286.05,324.72 270.36,328.76 			"/>
			<polyline points="294.98,353.62 298.98,337.78 283.29,341.82 			"/>
			<polyline points="307.91,366.68 311.92,350.84 296.23,354.89 			"/>
		</g>
		<g>
			<polyline points="117.48,367.95 101.79,363.9 105.8,379.75 			"/>
			<polyline points="196.35,288.31 192.35,272.47 208.04,276.51 			"/>
			<polyline points="130.42,354.89 114.73,350.84 118.74,366.68 			"/>
			<polyline points="143.36,341.82 127.67,337.78 131.67,353.62 			"/>
			<polyline points="156.29,328.76 140.6,324.72 144.61,340.56 			"/>
			<polyline points="169.23,315.7 153.54,311.66 157.54,327.5 			"/>
			<polyline points="182.16,302.64 166.48,298.59 170.48,314.44 			"/>
			<polyline points="195.1,289.58 179.41,285.53 183.42,301.37 			"/>
		</g>
		<g>
			<polyline points="196.35,481.86 192.35,497.7 208.04,493.66 			"/>
			<polyline points="117.48,402.22 101.79,406.27 105.8,390.42 			"/>
			<polyline points="183.42,468.8 179.41,484.64 195.1,480.6 			"/>
			<polyline points="170.48,455.73 166.48,471.58 182.16,467.53 			"/>
			<polyline points="157.54,442.67 153.54,458.52 169.23,454.47 			"/>
			<polyline points="144.61,429.61 140.6,445.45 156.29,441.41 			"/>
			<polyline points="131.67,416.55 127.67,432.39 143.36,428.35 			"/>
			<polyline points="118.74,403.49 114.73,419.33 130.42,415.28 			"/>
		</g>
		<polygon style="fill:none;stroke:#000000;stroke-width:3;stroke-miterlimit:10;" points="213.32,319.1 147.98,385.09 
			213.32,451.07 278.67,385.09 		"/>
		<polygon style="fill:none;stroke:#000000;stroke-width:3;stroke-miterlimit:10;" points="213.32,284.11 113.32,385.09 
			213.32,486.06 313.32,385.09 		"/>
		<polygon style="fill:none;stroke:#000000;stroke-width:3;stroke-miterlimit:10;" points="213.32,284.11 113.32,385.09 
			213.32,486.06 313.32,385.09 		"/>
		<polygon style="fill:none;stroke:#000000;stroke-width:3;stroke-miterlimit:10;" points="213.32,273.8 103.11,385.09 
			213.32,496.37 323.54,385.09 		"/>
		<polygon style="fill:none;stroke:#000000;stroke-width:3;stroke-miterlimit:10;" points="213.32,239.09 68.74,385.09 
			213.32,531.08 357.91,385.09 		"/>
	</g>
	<g>
		<path d="M213.32,388.17c1.69,0,3.06-1.38,3.06-3.09h-6.11C210.27,386.79,211.64,388.17,213.32,388.17z"/>
		<path d="M213.32,407.44c12.21,0,22.14-10.03,22.14-22.36v0l-2.97,0v0c0,10.67-8.6,19.36-19.17,19.36s-19.17-8.68-19.17-19.36v0
			l-2.97,0v0C191.18,397.41,201.11,407.44,213.32,407.44z"/>
		<polygon points="230.11,425.99 231.86,413.69 222,406.23 220.25,418.54 		"/>
		<path d="M213.32,396.32c6.13,0,11.12-5.04,11.12-11.23v0l-2.97,0v0c0,4.54-3.66,8.23-8.15,8.23c-4.5,0-8.15-3.69-8.15-8.23v0
			l-2.97,0v0C202.2,391.28,207.19,396.32,213.32,396.32z"/>
		<polygon points="232.4,413.32 244.33,416.4 241.29,404.35 229.35,401.27 		"/>
		<polygon points="213.32,407.97 207.04,418.67 213.32,429.37 219.61,418.67 		"/>
		<polygon points="180.19,392.08 172.81,402.03 185,403.8 192.38,393.84 		"/>
		<polygon points="169.47,385.09 180.06,391.43 190.66,385.09 		"/>
		<polygon points="204.65,406.23 194.79,413.69 196.54,425.99 206.4,418.54 		"/>
		<polygon points="235.99,385.09 246.59,391.43 257.18,385.09 		"/>
		<polygon points="197.3,401.27 185.36,404.35 182.32,416.4 194.25,413.32 		"/>
		<polygon points="241.65,403.8 253.84,402.03 246.46,392.08 234.27,393.84 		"/>
		<path d="M213.32,382c1.69,0,3.06,1.38,3.06,3.09h-6.11C210.27,383.38,211.64,382,213.32,382z"/>
		<path d="M213.32,362.73c12.21,0,22.14,10.03,22.14,22.36c0,0,0,0,0,0h-2.97c0,0,0,0,0,0c0-10.67-8.6-19.36-19.17-19.36
			s-19.17,8.68-19.17,19.36c0,0,0,0,0,0h-2.97c0,0,0,0,0,0C191.18,372.76,201.11,362.73,213.32,362.73z"/>
		<polygon points="230.11,344.18 231.86,356.49 222,363.94 220.25,351.63 		"/>
		<path d="M213.32,373.85c6.13,0,11.12,5.04,11.12,11.23c0,0,0,0,0,0h-2.97c0,0,0,0,0,0c0-4.54-3.66-8.23-8.15-8.23
			c-4.5,0-8.15,3.69-8.15,8.23c0,0,0,0,0,0h-2.97c0,0,0,0,0,0C202.2,378.89,207.19,373.85,213.32,373.85z"/>
		<polygon points="232.4,356.85 244.33,353.77 241.29,365.82 229.35,368.9 		"/>
		<polygon points="213.32,362.2 207.04,351.5 213.32,340.81 219.61,351.5 		"/>
		<polygon points="180.19,378.1 172.81,368.14 185,366.37 192.38,376.33 		"/>
		<polygon points="169.47,385.09 180.06,378.74 190.66,385.09 		"/>
		<polygon points="204.65,363.94 194.79,356.49 196.54,344.18 206.4,351.63 		"/>
		<polygon points="235.99,385.09 246.59,378.74 257.18,385.09 		"/>
		<polygon points="197.3,368.9 185.36,365.82 182.32,353.77 194.25,356.85 		"/>
		<polygon points="241.65,366.37 253.84,368.14 246.46,378.1 234.27,376.33 		"/>
	</g>
</g>
<g>
</g>
<g>
</g>
<g>
</g>
<g>
</g>
<g>
</g>
<g>
</g>
<g>
</g>
<g>
</g>
<g>
</g>
<g>
</g>
<g>
</g>
<g>
</g>
<g>
</g>
<g>
</g>
<g>
</g>
</svg>
