<?xml version="1.0" encoding="utf-8"?>
<!-- Generator: Adobe Illustrator 27.2.0, SVG Export Plug-In . SVG Version: 6.00 Build 0)  -->
<svg version="1.1" id="Layer_1" xmlns="http://www.w3.org/2000/svg" xmlns:xlink="http://www.w3.org/1999/xlink" x="0px" y="0px"
	 viewBox="0 0 800 600" style="enable-background:new 0 0 800 600;" xml:space="preserve">
<g>
	<polygon points="128.16,469.38 128.16,469.38 128.16,467.41 128.16,467.41 128.16,467.41 132.8,467.41 132.8,464.28 128.16,464.28 
		128.16,464.28 128.16,464.28 128.16,459.64 128.16,459.64 128.16,457.67 130.13,457.67 130.13,457.66 134.77,457.66 134.77,457.67 
		134.77,457.67 134.77,462.31 137.9,462.31 137.9,457.67 137.9,457.67 137.9,457.66 142.54,457.66 142.54,454.54 137.9,454.54 
		137.9,454.54 137.9,454.54 137.9,449.9 134.77,449.9 134.77,454.54 134.77,454.54 134.77,454.54 130.13,454.54 130.13,454.54 
		128.16,454.54 128.16,452.56 128.16,452.56 128.16,447.92 128.16,447.92 128.16,447.92 132.8,447.92 132.8,444.8 128.16,444.8 
		128.16,444.79 128.16,444.79 128.16,440.15 125.03,440.15 125.03,444.79 125.03,444.79 125.03,444.8 120.39,444.8 120.39,447.92 
		125.03,447.92 125.03,447.92 125.03,447.92 125.03,452.56 125.03,452.56 125.03,454.54 123.06,454.54 123.06,454.54 118.41,454.54 
		118.41,454.54 118.41,454.54 118.41,449.9 115.29,449.9 115.29,454.54 115.29,454.54 115.29,454.54 110.65,454.54 110.65,457.66 
		115.29,457.66 115.29,457.67 115.29,457.67 115.29,462.31 118.41,462.31 118.41,457.67 118.41,457.67 118.41,457.66 123.06,457.66 
		123.06,457.67 125.03,457.67 125.03,459.64 125.03,459.64 125.03,464.28 125.03,464.28 125.03,464.28 120.39,464.28 120.39,467.41 
		125.03,467.41 125.03,467.41 125.03,467.41 125.03,472.05 125.03,472.05 125.03,474.02 121.55,474.02 121.55,477.15 125.04,477.15 
		125.04,481.79 128.16,481.79 128.16,477.15 131.64,477.15 131.64,474.02 128.16,474.02 	"/>
	<g>
		<polygon points="57.45,537.59 54.32,537.59 54.32,542.23 50,542.23 50,545.36 54.32,545.36 54.32,550 57.45,550 57.45,545.36 
			60.93,545.36 60.93,542.23 57.45,542.23 		"/>
		<polygon points="77.64,537.59 74.51,537.59 74.51,542.23 71.02,542.23 71.02,545.36 74.51,545.36 74.51,550 77.64,550 
			77.64,545.36 81.12,545.36 81.12,542.23 77.64,542.23 		"/>
		<polygon points="107.92,535.62 107.92,535.62 107.92,535.62 112.56,535.62 112.56,532.49 107.92,532.49 107.92,532.49 
			107.92,532.49 107.92,527.85 104.79,527.85 104.79,532.49 104.79,532.49 104.79,532.49 100.15,532.49 100.15,535.62 
			104.79,535.62 104.79,535.62 104.79,535.62 104.79,542.23 101.31,542.23 101.31,545.36 104.79,545.36 104.79,550 107.92,550 
			107.92,545.36 111.4,545.36 111.4,542.23 107.92,542.23 		"/>
		<polygon points="97.82,537.59 94.7,537.59 94.7,542.23 91.21,542.23 91.21,545.36 94.7,545.36 94.7,550 97.82,550 97.82,545.36 
			101.31,545.36 101.31,542.23 97.82,542.23 		"/>
		<polygon points="118.01,537.59 114.88,537.59 114.88,542.23 111.4,542.23 111.4,545.36 114.88,545.36 114.88,550 118.01,550 
			118.01,545.36 121.49,545.36 121.49,542.23 118.01,542.23 		"/>
		<polygon points="124.98,481.8 124.98,481.8 124.98,483.77 123,483.77 123,483.78 118.36,483.78 118.36,483.77 118.36,483.77 
			118.36,479.13 115.24,479.13 115.24,483.77 115.24,483.77 115.24,483.78 110.59,483.78 110.59,486.9 115.24,486.9 115.24,486.9 
			115.24,486.9 115.24,491.54 118.36,491.54 118.36,486.9 118.36,486.9 118.36,486.9 123,486.9 123,486.9 124.98,486.9 
			124.98,488.88 124.98,488.88 124.98,493.52 124.98,493.52 124.98,493.52 120.34,493.52 120.34,496.64 124.98,496.64 
			124.98,496.64 124.98,496.64 124.98,501.29 124.98,501.29 124.98,503.26 123,503.26 123,503.26 118.36,503.26 118.36,503.26 
			118.36,503.26 118.36,498.62 115.24,498.62 115.24,503.26 115.24,503.26 115.24,503.26 110.59,503.26 110.59,503.26 
			108.62,503.26 108.62,501.29 108.62,501.29 108.62,496.64 108.62,496.64 108.62,496.64 113.26,496.64 113.26,493.52 
			108.62,493.52 108.62,493.52 108.62,493.52 108.62,488.88 105.49,488.88 105.49,493.52 105.49,493.52 105.49,493.52 
			100.85,493.52 100.85,496.64 105.49,496.64 105.49,496.64 105.49,496.64 105.49,501.29 105.49,501.29 105.49,503.26 
			103.52,503.26 103.52,503.26 98.88,503.26 98.88,503.26 98.88,503.26 98.88,498.62 95.75,498.62 95.75,503.26 95.75,503.26 
			95.75,503.26 91.11,503.26 91.11,506.39 95.75,506.39 95.75,506.39 95.75,506.39 95.75,511.03 98.88,511.03 98.88,506.39 
			98.88,506.39 98.88,506.39 103.52,506.39 103.52,506.39 105.49,506.39 105.49,508.36 105.49,508.36 105.49,513 105.49,513 
			105.49,513 100.85,513 100.85,516.13 105.49,516.13 105.49,516.13 105.49,516.13 105.49,520.77 108.62,520.77 108.62,516.13 
			108.62,516.13 108.62,516.13 113.26,516.13 113.26,513 108.62,513 108.62,513 108.62,513 108.62,508.36 108.62,508.36 
			108.62,506.39 110.59,506.39 110.59,506.39 115.24,506.39 115.24,506.39 115.24,506.39 115.24,511.03 118.36,511.03 
			118.36,506.39 118.36,506.39 118.36,506.39 123,506.39 123,506.39 124.98,506.39 124.98,508.36 124.98,508.36 124.98,513 
			124.98,513 124.98,513 120.34,513 120.34,516.13 124.98,516.13 124.98,516.13 124.98,516.13 124.98,520.77 124.98,520.77 
			124.98,522.75 123,522.75 123,522.75 118.36,522.75 118.36,522.75 118.36,522.75 118.36,518.11 115.24,518.11 115.24,522.75 
			115.24,522.75 115.24,522.75 110.59,522.75 110.59,525.87 115.24,525.87 115.24,525.87 115.24,525.87 115.24,530.51 
			118.36,530.51 118.36,525.87 118.36,525.87 118.36,525.87 123,525.87 123,525.87 124.98,525.87 124.98,527.85 124.98,527.85 
			124.98,532.49 124.98,532.49 124.98,532.49 120.34,532.49 120.34,535.62 124.98,535.62 124.98,535.62 124.98,535.62 
			124.98,540.26 124.98,540.26 124.98,542.23 121.49,542.23 121.49,545.36 124.98,545.36 124.98,550 126.54,550 126.54,477.16 
			124.98,477.16 		"/>
		<polygon points="124.97,474.03 120.34,474.03 120.34,477.16 124.98,477.16 124.98,477.16 126.54,477.16 126.54,469.33 
			124.97,469.33 		"/>
		<polygon points="87.73,537.59 87.72,537.59 87.72,535.62 87.72,535.62 87.72,535.62 92.36,535.62 92.36,532.49 87.72,532.49 
			87.72,532.49 87.72,532.49 87.72,527.85 87.72,527.85 87.72,525.87 89.7,525.87 89.7,525.87 94.34,525.87 94.34,525.87 
			94.34,525.87 94.34,530.51 97.47,530.51 97.47,525.87 97.47,525.87 97.47,525.87 102.11,525.87 102.11,522.75 97.47,522.75 
			97.47,522.75 97.47,522.75 97.47,518.11 94.34,518.11 94.34,522.75 94.34,522.75 94.34,522.75 89.7,522.75 89.7,522.75 
			87.72,522.75 87.72,520.77 87.72,520.77 87.72,516.13 87.72,516.13 87.72,516.13 92.36,516.13 92.36,513 87.72,513 87.72,513 
			87.72,513 87.72,508.36 84.6,508.36 84.6,513 84.6,513 84.6,513 79.96,513 79.96,516.13 84.6,516.13 84.6,516.13 84.6,516.13 
			84.6,520.77 84.6,520.77 84.6,522.75 82.62,522.75 82.62,522.75 77.98,522.75 77.98,522.75 77.98,522.75 77.98,518.11 
			74.85,518.11 74.85,522.75 74.85,522.75 74.85,522.75 70.21,522.75 70.21,525.87 74.85,525.87 74.85,525.87 74.85,525.87 
			74.85,530.51 77.98,530.51 77.98,525.87 77.98,525.87 77.98,525.87 82.62,525.87 82.62,525.87 84.6,525.87 84.6,527.85 
			84.6,527.85 84.6,532.49 84.6,532.49 84.6,532.49 79.96,532.49 79.96,535.62 84.6,535.62 84.6,535.62 84.6,535.62 84.6,540.26 
			84.6,540.26 84.6,542.23 81.12,542.23 81.12,545.36 84.6,545.36 84.6,550 87.73,550 87.73,545.36 91.21,545.36 91.21,542.23 
			87.73,542.23 		"/>
		<polygon points="67.54,540.26 67.54,540.26 67.54,535.62 67.54,535.62 67.54,535.62 72.18,535.62 72.18,532.49 67.54,532.49 
			67.54,532.49 67.54,532.49 67.54,527.85 64.42,527.85 64.42,532.49 64.42,532.49 64.42,532.49 59.78,532.49 59.78,535.62 
			64.42,535.62 64.42,535.62 64.42,535.62 64.42,540.26 64.42,540.26 64.42,542.23 60.93,542.23 60.93,545.36 64.42,545.36 
			64.42,550 67.54,550 67.54,545.36 71.02,545.36 71.02,542.23 67.54,542.23 		"/>
	</g>
	<polygon points="195.55,537.59 198.68,537.59 198.68,542.23 203,542.23 203,545.36 198.68,545.36 198.68,550 195.55,550 
		195.55,545.36 192.07,545.36 192.07,542.23 195.55,542.23 	"/>
	<polygon points="175.36,537.59 178.49,537.59 178.49,542.23 181.98,542.23 181.98,545.36 178.49,545.36 178.49,550 175.36,550 
		175.36,545.36 171.88,545.36 171.88,542.23 175.36,542.23 	"/>
	<polygon points="145.08,535.62 145.08,535.62 145.08,535.62 140.44,535.62 140.44,532.49 145.08,532.49 145.08,532.49 
		145.08,532.49 145.08,527.85 148.21,527.85 148.21,532.49 148.21,532.49 148.21,532.49 152.85,532.49 152.85,535.62 148.21,535.62 
		148.21,535.62 148.21,535.62 148.21,542.23 151.69,542.23 151.69,545.36 148.21,545.36 148.21,550 145.08,550 145.08,545.36 
		141.6,545.36 141.6,542.23 145.08,542.23 	"/>
	<polygon points="155.18,537.59 158.3,537.59 158.3,542.23 161.79,542.23 161.79,545.36 158.3,545.36 158.3,550 155.18,550 
		155.18,545.36 151.69,545.36 151.69,542.23 155.18,542.23 	"/>
	<polygon points="134.99,537.59 138.12,537.59 138.12,542.23 141.6,542.23 141.6,545.36 138.12,545.36 138.12,550 134.99,550 
		134.99,545.36 131.51,545.36 131.51,542.23 134.99,542.23 	"/>
	<polygon points="143.49,440.15 146.62,440.15 146.62,444.79 151.04,444.79 151.04,447.92 146.62,447.92 146.62,452.56 
		143.49,452.56 143.49,447.92 139.1,447.92 139.1,444.79 143.49,444.79 	"/>
	<polygon points="109.59,440.15 106.47,440.15 106.47,444.79 102.04,444.79 102.04,447.92 106.47,447.92 106.47,452.56 
		109.59,452.56 109.59,447.92 113.98,447.92 113.98,444.79 109.59,444.79 	"/>
	<polygon points="125.01,425.03 128.14,425.03 128.14,429.67 132.56,429.67 132.56,432.8 128.14,432.8 128.14,437.44 125.01,437.44 
		125.01,432.8 120.62,432.8 120.62,429.67 125.01,429.67 	"/>
	<polygon points="128.02,481.8 128.02,481.8 128.02,483.77 130,483.77 130,483.78 134.64,483.78 134.64,483.77 134.64,483.77 
		134.64,479.13 137.76,479.13 137.76,483.77 137.76,483.77 137.76,483.78 142.41,483.78 142.41,486.9 137.76,486.9 137.76,486.9 
		137.76,486.9 137.76,491.54 134.64,491.54 134.64,486.9 134.64,486.9 134.64,486.9 130,486.9 130,486.9 128.02,486.9 
		128.02,488.88 128.02,488.88 128.02,493.52 128.02,493.52 128.02,493.52 132.66,493.52 132.66,496.64 128.02,496.64 128.02,496.64 
		128.02,496.64 128.02,501.29 128.02,501.29 128.02,503.26 130,503.26 130,503.26 134.64,503.26 134.64,503.26 134.64,503.26 
		134.64,498.62 137.76,498.62 137.76,503.26 137.76,503.26 137.76,503.26 142.41,503.26 142.41,503.26 144.38,503.26 144.38,501.29 
		144.38,501.29 144.38,496.64 144.38,496.64 144.38,496.64 139.74,496.64 139.74,493.52 144.38,493.52 144.38,493.52 144.38,493.52 
		144.38,488.88 147.51,488.88 147.51,493.52 147.51,493.52 147.51,493.52 152.15,493.52 152.15,496.64 147.51,496.64 147.51,496.64 
		147.51,496.64 147.51,501.29 147.51,501.29 147.51,503.26 149.48,503.26 149.48,503.26 154.12,503.26 154.12,503.26 154.12,503.26 
		154.12,498.62 157.25,498.62 157.25,503.26 157.25,503.26 157.25,503.26 161.89,503.26 161.89,506.39 157.25,506.39 157.25,506.39 
		157.25,506.39 157.25,511.03 154.12,511.03 154.12,506.39 154.12,506.39 154.12,506.39 149.48,506.39 149.48,506.39 147.51,506.39 
		147.51,508.36 147.51,508.36 147.51,513 147.51,513 147.51,513 152.15,513 152.15,516.13 147.51,516.13 147.51,516.13 
		147.51,516.13 147.51,520.77 144.38,520.77 144.38,516.13 144.38,516.13 144.38,516.13 139.74,516.13 139.74,513 144.38,513 
		144.38,513 144.38,513 144.38,508.36 144.38,508.36 144.38,506.39 142.41,506.39 142.41,506.39 137.76,506.39 137.76,506.39 
		137.76,506.39 137.76,511.03 134.64,511.03 134.64,506.39 134.64,506.39 134.64,506.39 130,506.39 130,506.39 128.02,506.39 
		128.02,508.36 128.02,508.36 128.02,513 128.02,513 128.02,513 132.66,513 132.66,516.13 128.02,516.13 128.02,516.13 
		128.02,516.13 128.02,520.77 128.02,520.77 128.02,522.75 130,522.75 130,522.75 134.64,522.75 134.64,522.75 134.64,522.75 
		134.64,518.11 137.76,518.11 137.76,522.75 137.76,522.75 137.76,522.75 142.41,522.75 142.41,525.87 137.76,525.87 137.76,525.87 
		137.76,525.87 137.76,530.51 134.64,530.51 134.64,525.87 134.64,525.87 134.64,525.87 130,525.87 130,525.87 128.02,525.87 
		128.02,527.85 128.02,527.85 128.02,532.49 128.02,532.49 128.02,532.49 132.66,532.49 132.66,535.62 128.02,535.62 128.02,535.62 
		128.02,535.62 128.02,540.26 128.02,540.26 128.02,542.23 131.51,542.23 131.51,545.36 128.02,545.36 128.02,550 126.46,550 
		126.46,477.16 128.02,477.16 	"/>
	<polygon points="128.03,474.03 132.66,474.03 132.66,477.16 128.02,477.16 128.02,477.16 126.46,477.16 126.46,469.33 
		128.03,469.33 	"/>
	<polygon points="165.27,537.59 165.28,537.59 165.28,535.62 165.28,535.62 165.28,535.62 160.64,535.62 160.64,532.49 
		165.28,532.49 165.28,532.49 165.28,532.49 165.28,527.85 165.28,527.85 165.28,525.87 163.3,525.87 163.3,525.87 158.66,525.87 
		158.66,525.87 158.66,525.87 158.66,530.51 155.53,530.51 155.53,525.87 155.53,525.87 155.53,525.87 150.89,525.87 150.89,522.75 
		155.53,522.75 155.53,522.75 155.53,522.75 155.53,518.11 158.66,518.11 158.66,522.75 158.66,522.75 158.66,522.75 163.3,522.75 
		163.3,522.75 165.28,522.75 165.28,520.77 165.28,520.77 165.28,516.13 165.28,516.13 165.28,516.13 160.64,516.13 160.64,513 
		165.28,513 165.28,513 165.28,513 165.28,508.36 168.4,508.36 168.4,513 168.4,513 168.4,513 173.04,513 173.04,516.13 
		168.4,516.13 168.4,516.13 168.4,516.13 168.4,520.77 168.4,520.77 168.4,522.75 170.38,522.75 170.38,522.75 175.02,522.75 
		175.02,522.75 175.02,522.75 175.02,518.11 178.15,518.11 178.15,522.75 178.15,522.75 178.15,522.75 182.79,522.75 182.79,525.87 
		178.15,525.87 178.15,525.87 178.15,525.87 178.15,530.51 175.02,530.51 175.02,525.87 175.02,525.87 175.02,525.87 170.38,525.87 
		170.38,525.87 168.4,525.87 168.4,527.85 168.4,527.85 168.4,532.49 168.4,532.49 168.4,532.49 173.04,532.49 173.04,535.62 
		168.4,535.62 168.4,535.62 168.4,535.62 168.4,540.26 168.4,540.26 168.4,542.23 171.88,542.23 171.88,545.36 168.4,545.36 
		168.4,550 165.27,550 165.27,545.36 161.79,545.36 161.79,542.23 165.27,542.23 	"/>
	<polygon points="185.46,540.26 185.46,540.26 185.46,535.62 185.46,535.62 185.46,535.62 180.82,535.62 180.82,532.49 
		185.46,532.49 185.46,532.49 185.46,532.49 185.46,527.85 188.58,527.85 188.58,532.49 188.58,532.49 188.58,532.49 193.22,532.49 
		193.22,535.62 188.58,535.62 188.58,535.62 188.58,535.62 188.58,540.26 188.58,540.26 188.58,542.23 192.07,542.23 192.07,545.36 
		188.58,545.36 188.58,550 185.46,550 185.46,545.36 181.98,545.36 181.98,542.23 185.46,542.23 	"/>
</g>
<g>
</g>
<g>
</g>
<g>
</g>
<g>
</g>
<g>
</g>
<g>
</g>
<g>
</g>
<g>
</g>
<g>
</g>
<g>
</g>
<g>
</g>
<g>
</g>
<g>
</g>
<g>
</g>
<g>
</g>
</svg>
