<?xml version="1.0" encoding="utf-8"?>
<!-- Generator: Adobe Illustrator 27.2.0, SVG Export Plug-In . SVG Version: 6.00 Build 0)  -->
<svg version="1.1" id="Layer_1" xmlns="http://www.w3.org/2000/svg" xmlns:xlink="http://www.w3.org/1999/xlink" x="0px" y="0px"
	 viewBox="0 0 800 600" style="enable-background:new 0 0 800 600;" xml:space="preserve">
<g>
	<g>
		<g>
			<polygon points="165.23,471.83 165.23,471.82 167.2,471.82 167.2,471.82 167.2,471.82 167.2,476.47 170.33,476.47 170.33,471.82 
				170.33,471.82 170.33,471.82 174.97,471.82 174.97,471.82 176.95,471.82 176.95,473.8 176.95,473.8 176.95,478.44 176.95,478.44 
				176.95,478.44 172.3,478.44 172.3,481.57 176.95,481.57 176.95,481.57 176.95,481.57 176.95,486.21 180.07,486.21 180.07,481.57 
				180.07,481.57 180.07,481.57 184.71,481.57 184.71,478.44 180.07,478.44 180.07,478.44 180.07,478.44 180.07,473.8 180.07,473.8 
				180.07,471.82 182.05,471.82 182.05,471.82 186.69,471.82 186.69,471.82 186.69,471.82 186.69,476.47 189.82,476.47 
				189.82,471.82 189.82,471.82 189.82,471.82 194.46,471.82 194.46,468.7 189.82,468.7 189.82,468.7 189.82,468.7 189.82,464.06 
				186.69,464.06 186.69,468.7 186.69,468.7 186.69,468.7 182.05,468.7 182.05,468.7 180.07,468.7 180.07,466.72 180.07,466.72 
				180.07,462.08 180.07,462.08 180.07,462.08 184.71,462.08 184.71,458.96 180.07,458.96 180.07,458.95 180.07,458.95 
				180.07,454.31 176.95,454.31 176.95,458.95 176.95,458.95 176.95,458.96 172.3,458.96 172.3,462.08 176.95,462.08 176.95,462.08 
				176.95,462.08 176.95,466.72 176.95,466.72 176.95,468.7 174.97,468.7 174.97,468.7 170.33,468.7 170.33,468.7 170.33,468.7 
				170.33,464.06 167.2,464.06 167.2,468.7 167.2,468.7 167.2,468.7 162.56,468.7 162.56,468.7 160.59,468.7 160.59,465.22 
				157.46,465.22 157.46,468.7 152.82,468.7 152.82,471.83 157.46,471.83 157.46,476.06 160.59,476.06 160.59,471.83 			"/>
			<polygon points="194.46,487.16 194.46,490.28 189.82,490.28 189.82,494.71 186.69,494.71 186.69,490.28 182.05,490.28 
				182.05,487.16 186.69,487.16 186.69,482.77 189.82,482.77 189.82,487.16 			"/>
			<polygon points="194.46,453.26 194.46,450.14 189.82,450.14 189.82,445.71 186.69,445.71 186.69,450.14 182.05,450.14 
				182.05,453.26 186.69,453.26 186.69,457.65 189.82,457.65 189.82,453.26 			"/>
			<polygon points="209.58,468.68 209.58,471.81 204.94,471.81 204.94,476.23 201.81,476.23 201.81,471.81 197.17,471.81 
				197.17,468.68 201.81,468.68 201.81,464.29 204.94,464.29 204.94,468.68 			"/>
		</g>
		<g>
			<polygon points="94.35,471.83 94.35,471.82 92.38,471.82 92.38,471.82 92.38,471.82 92.38,476.47 89.25,476.47 89.25,471.82 
				89.25,471.82 89.25,471.82 84.61,471.82 84.61,471.82 82.64,471.82 82.64,473.8 82.64,473.8 82.64,478.44 82.64,478.44 
				82.64,478.44 87.28,478.44 87.28,481.57 82.64,481.57 82.64,481.57 82.64,481.57 82.64,486.21 79.51,486.21 79.51,481.57 
				79.51,481.57 79.51,481.57 74.87,481.57 74.87,478.44 79.51,478.44 79.51,478.44 79.51,478.44 79.51,473.8 79.51,473.8 
				79.51,471.82 77.53,471.82 77.53,471.82 72.89,471.82 72.89,471.82 72.89,471.82 72.89,476.47 69.77,476.47 69.77,471.82 
				69.77,471.82 69.77,471.82 65.12,471.82 65.12,468.7 69.77,468.7 69.77,468.7 69.77,468.7 69.77,464.06 72.89,464.06 
				72.89,468.7 72.89,468.7 72.89,468.7 77.53,468.7 77.53,468.7 79.51,468.7 79.51,466.72 79.51,466.72 79.51,462.08 79.51,462.08 
				79.51,462.08 74.87,462.08 74.87,458.96 79.51,458.96 79.51,458.95 79.51,458.95 79.51,454.31 82.64,454.31 82.64,458.95 
				82.64,458.95 82.64,458.96 87.28,458.96 87.28,462.08 82.64,462.08 82.64,462.08 82.64,462.08 82.64,466.72 82.64,466.72 
				82.64,468.7 84.61,468.7 84.61,468.7 89.25,468.7 89.25,468.7 89.25,468.7 89.25,464.06 92.38,464.06 92.38,468.7 92.38,468.7 
				92.38,468.7 97.02,468.7 97.02,468.7 98.99,468.7 98.99,465.22 102.12,465.22 102.12,468.7 106.76,468.7 106.76,471.83 
				102.12,471.83 102.12,476.06 98.99,476.06 98.99,471.83 			"/>
			<polygon points="65.12,487.16 65.12,490.28 69.76,490.28 69.76,494.71 72.89,494.71 72.89,490.28 77.53,490.28 77.53,487.16 
				72.89,487.16 72.89,482.77 69.76,482.77 69.76,487.16 			"/>
			<polygon points="65.12,453.26 65.12,450.14 69.76,450.14 69.76,445.71 72.89,445.71 72.89,450.14 77.53,450.14 77.53,453.26 
				72.89,453.26 72.89,457.65 69.76,457.65 69.76,453.26 			"/>
			<polygon points="50,468.68 50,471.81 54.64,471.81 54.64,476.23 57.77,476.23 57.77,471.81 62.41,471.81 62.41,468.68 
				57.77,468.68 57.77,464.29 54.64,464.29 54.64,468.68 			"/>
		</g>
	</g>
	<g>
		<g>
			<polygon points="131.41,434.77 131.41,434.77 131.41,432.8 131.41,432.8 131.41,432.8 136.05,432.8 136.05,429.67 131.41,429.67 
				131.41,429.67 131.41,429.67 131.41,425.03 131.41,425.03 131.41,423.05 133.38,423.05 133.38,423.05 138.02,423.05 
				138.02,423.05 138.02,423.05 138.02,427.7 141.15,427.7 141.15,423.05 141.15,423.05 141.15,423.05 145.79,423.05 145.79,419.93 
				141.15,419.93 141.15,419.93 141.15,419.93 141.15,415.29 138.02,415.29 138.02,419.93 138.02,419.93 138.02,419.93 
				133.38,419.93 133.38,419.93 131.41,419.93 131.41,417.95 131.41,417.95 131.41,413.31 131.41,413.31 131.41,413.31 
				136.05,413.31 136.05,410.18 131.41,410.18 131.41,410.18 131.41,410.18 131.41,405.54 128.28,405.54 128.28,410.18 
				128.28,410.18 128.28,410.18 123.64,410.18 123.64,413.31 128.28,413.31 128.28,413.31 128.28,413.31 128.28,417.95 
				128.28,417.95 128.28,419.93 126.3,419.93 126.3,419.93 121.66,419.93 121.66,419.93 121.66,419.93 121.66,415.29 118.54,415.29 
				118.54,419.93 118.54,419.93 118.54,419.93 113.9,419.93 113.9,423.05 118.54,423.05 118.54,423.05 118.54,423.05 118.54,427.7 
				121.66,427.7 121.66,423.05 121.66,423.05 121.66,423.05 126.3,423.05 126.3,423.05 128.28,423.05 128.28,425.03 128.28,425.03 
				128.28,429.67 128.28,429.67 128.28,429.67 123.64,429.67 123.64,432.8 128.28,432.8 128.28,432.8 128.28,432.8 128.28,437.44 
				128.28,437.44 128.28,439.41 124.8,439.41 124.8,442.54 128.29,442.54 128.29,447.18 131.41,447.18 131.41,442.54 135.65,442.54 
				135.65,439.41 131.41,439.41 			"/>
			<polygon points="146.74,405.54 149.86,405.54 149.86,410.18 154.29,410.18 154.29,413.31 149.86,413.31 149.86,417.95 
				146.74,417.95 146.74,413.31 142.35,413.31 142.35,410.18 146.74,410.18 			"/>
			<polygon points="112.84,405.54 109.72,405.54 109.72,410.18 105.29,410.18 105.29,413.31 109.72,413.31 109.72,417.95 
				112.84,417.95 112.84,413.31 117.23,413.31 117.23,410.18 112.84,410.18 			"/>
			<polygon points="128.26,390.42 131.39,390.42 131.39,395.06 135.81,395.06 135.81,398.19 131.39,398.19 131.39,402.83 
				128.26,402.83 128.26,398.19 123.87,398.19 123.87,395.06 128.26,395.06 			"/>
		</g>
		<g>
			<polygon points="131.41,505.65 131.41,505.65 131.41,507.62 131.41,507.62 131.41,507.62 136.05,507.62 136.05,510.75 
				131.41,510.75 131.41,510.75 131.41,510.75 131.41,515.39 131.41,515.39 131.41,517.36 133.38,517.36 133.38,517.36 
				138.02,517.36 138.02,517.36 138.02,517.36 138.02,512.72 141.15,512.72 141.15,517.36 141.15,517.36 141.15,517.36 
				145.79,517.36 145.79,520.49 141.15,520.49 141.15,520.49 141.15,520.49 141.15,525.13 138.02,525.13 138.02,520.49 
				138.02,520.49 138.02,520.49 133.38,520.49 133.38,520.49 131.41,520.49 131.41,522.47 131.41,522.47 131.41,527.11 
				131.41,527.11 131.41,527.11 136.05,527.11 136.05,530.23 131.41,530.23 131.41,530.23 131.41,530.23 131.41,534.88 
				128.28,534.88 128.28,530.23 128.28,530.23 128.28,530.23 123.64,530.23 123.64,527.11 128.28,527.11 128.28,527.11 
				128.28,527.11 128.28,522.47 128.28,522.47 128.28,520.49 126.3,520.49 126.3,520.49 121.66,520.49 121.66,520.49 121.66,520.49 
				121.66,525.13 118.54,525.13 118.54,520.49 118.54,520.49 118.54,520.49 113.9,520.49 113.9,517.36 118.54,517.36 118.54,517.36 
				118.54,517.36 118.54,512.72 121.66,512.72 121.66,517.36 121.66,517.36 121.66,517.36 126.3,517.36 126.3,517.36 128.28,517.36 
				128.28,515.39 128.28,515.39 128.28,510.75 128.28,510.75 128.28,510.75 123.64,510.75 123.64,507.62 128.28,507.62 
				128.28,507.62 128.28,507.62 128.28,502.98 128.28,502.98 128.28,501.01 124.8,501.01 124.8,497.88 128.29,497.88 128.29,493.24 
				131.41,493.24 131.41,497.88 135.65,497.88 135.65,501.01 131.41,501.01 			"/>
			<polygon points="146.74,534.88 149.86,534.88 149.86,530.24 154.29,530.24 154.29,527.11 149.86,527.11 149.86,522.47 
				146.74,522.47 146.74,527.11 142.35,527.11 142.35,530.24 146.74,530.24 			"/>
			<polygon points="112.84,534.88 109.72,534.88 109.72,530.24 105.29,530.24 105.29,527.11 109.72,527.11 109.72,522.47 
				112.84,522.47 112.84,527.11 117.23,527.11 117.23,530.24 112.84,530.24 			"/>
			<polygon points="128.26,550 131.39,550 131.39,545.36 135.81,545.36 135.81,542.23 131.39,542.23 131.39,537.59 128.26,537.59 
				128.26,542.23 123.87,542.23 123.87,545.36 128.26,545.36 			"/>
		</g>
	</g>
	<g>
		<polygon points="128.27,447.19 128.27,447.19 128.27,449.16 126.29,449.16 126.29,449.16 121.65,449.16 121.65,449.16 
			121.65,449.16 121.65,444.52 118.53,444.52 118.53,449.16 118.53,449.16 118.53,449.16 113.89,449.16 113.89,452.29 
			118.53,452.29 118.53,452.29 118.53,452.29 118.53,456.93 121.65,456.93 121.65,452.29 121.65,452.29 121.65,452.29 
			126.29,452.29 126.29,452.29 128.27,452.29 128.27,454.27 128.27,454.27 128.27,458.91 128.27,458.91 128.27,458.91 
			123.63,458.91 123.63,462.03 128.27,462.03 128.27,462.03 128.27,462.03 128.27,466.67 128.27,466.67 128.27,468.65 
			126.29,468.65 126.29,468.65 121.65,468.65 121.65,468.65 121.65,468.65 121.65,464.01 118.53,464.01 118.53,468.65 
			118.53,468.65 118.53,468.65 113.89,468.65 113.89,468.65 111.91,468.65 111.91,466.67 111.91,466.67 111.91,462.03 
			111.91,462.03 111.91,462.03 116.55,462.03 116.55,458.91 111.91,458.91 111.91,458.91 111.91,458.91 111.91,454.27 
			108.78,454.27 108.78,458.91 108.78,458.91 108.78,458.91 104.14,458.91 104.14,462.03 108.78,462.03 108.78,462.03 
			108.78,462.03 108.78,466.67 108.78,466.67 108.78,468.65 106.81,468.65 106.81,468.65 102.17,468.65 102.17,468.65 
			102.17,468.65 102.17,464.01 99.04,464.01 99.04,468.65 99.04,468.65 99.04,468.65 94.4,468.65 94.4,471.78 99.04,471.78 
			99.04,471.78 99.04,471.78 99.04,476.42 102.17,476.42 102.17,471.78 102.17,471.78 102.17,471.78 106.81,471.78 106.81,471.78 
			108.78,471.78 108.78,473.75 108.78,473.75 108.78,478.39 108.78,478.39 108.78,478.39 104.14,478.39 104.14,481.52 
			108.78,481.52 108.78,481.52 108.78,481.52 108.78,486.16 111.91,486.16 111.91,481.52 111.91,481.52 111.91,481.52 
			116.55,481.52 116.55,478.39 111.91,478.39 111.91,478.39 111.91,478.39 111.91,473.75 111.91,473.75 111.91,471.78 
			113.89,471.78 113.89,471.78 118.53,471.78 118.53,471.78 118.53,471.78 118.53,476.42 121.65,476.42 121.65,471.78 
			121.65,471.78 121.65,471.78 126.29,471.78 126.29,471.78 128.27,471.78 128.27,473.75 128.27,473.75 128.27,478.39 
			128.27,478.39 128.27,478.39 123.63,478.39 123.63,481.52 128.27,481.52 128.27,481.52 128.27,481.52 128.27,486.16 
			128.27,486.16 128.27,488.14 126.29,488.14 126.29,488.14 121.65,488.14 121.65,488.14 121.65,488.14 121.65,483.49 
			118.53,483.49 118.53,488.14 118.53,488.14 118.53,488.14 113.89,488.14 113.89,491.26 118.53,491.26 118.53,491.26 
			118.53,491.26 118.53,495.9 121.65,495.9 121.65,491.26 121.65,491.26 121.65,491.26 126.29,491.26 126.29,491.26 128.27,491.26 
			128.27,493.24 128.27,493.24 128.27,497.88 128.27,497.88 128.27,497.88 123.63,497.88 123.63,501.01 128.27,501.01 
			128.27,501.01 128.27,501.01 128.27,505.65 128.27,505.65 128.27,507.62 124.78,507.62 124.78,510.75 128.27,510.75 
			128.27,515.39 129.83,515.39 129.83,442.55 128.27,442.55 		"/>
		<polygon points="131.31,447.19 131.31,447.19 131.31,449.16 133.29,449.16 133.29,449.16 137.93,449.16 137.93,449.16 
			137.93,449.16 137.93,444.52 141.06,444.52 141.06,449.16 141.06,449.16 141.06,449.16 145.7,449.16 145.7,452.29 141.06,452.29 
			141.06,452.29 141.06,452.29 141.06,456.93 137.93,456.93 137.93,452.29 137.93,452.29 137.93,452.29 133.29,452.29 
			133.29,452.29 131.31,452.29 131.31,454.27 131.31,454.27 131.31,458.91 131.31,458.91 131.31,458.91 135.95,458.91 
			135.95,462.03 131.31,462.03 131.31,462.03 131.31,462.03 131.31,466.67 131.31,466.67 131.31,468.65 133.29,468.65 
			133.29,468.65 137.93,468.65 137.93,468.65 137.93,468.65 137.93,464.01 141.06,464.01 141.06,468.65 141.06,468.65 
			141.06,468.65 145.7,468.65 145.7,468.65 147.67,468.65 147.67,466.67 147.67,466.67 147.67,462.03 147.67,462.03 147.67,462.03 
			143.03,462.03 143.03,458.91 147.67,458.91 147.67,458.91 147.67,458.91 147.67,454.27 150.8,454.27 150.8,458.91 150.8,458.91 
			150.8,458.91 155.44,458.91 155.44,462.03 150.8,462.03 150.8,462.03 150.8,462.03 150.8,466.67 150.8,466.67 150.8,468.65 
			152.77,468.65 152.77,468.65 157.41,468.65 157.41,468.65 157.41,468.65 157.41,464.01 160.54,464.01 160.54,468.65 
			160.54,468.65 160.54,468.65 165.18,468.65 165.18,471.78 160.54,471.78 160.54,471.78 160.54,471.78 160.54,476.42 
			157.41,476.42 157.41,471.78 157.41,471.78 157.41,471.78 152.77,471.78 152.77,471.78 150.8,471.78 150.8,473.75 150.8,473.75 
			150.8,478.39 150.8,478.39 150.8,478.39 155.44,478.39 155.44,481.52 150.8,481.52 150.8,481.52 150.8,481.52 150.8,486.16 
			147.67,486.16 147.67,481.52 147.67,481.52 147.67,481.52 143.03,481.52 143.03,478.39 147.67,478.39 147.67,478.39 
			147.67,478.39 147.67,473.75 147.67,473.75 147.67,471.78 145.7,471.78 145.7,471.78 141.06,471.78 141.06,471.78 141.06,471.78 
			141.06,476.42 137.93,476.42 137.93,471.78 137.93,471.78 137.93,471.78 133.29,471.78 133.29,471.78 131.31,471.78 
			131.31,473.75 131.31,473.75 131.31,478.39 131.31,478.39 131.31,478.39 135.95,478.39 135.95,481.52 131.31,481.52 
			131.31,481.52 131.31,481.52 131.31,486.16 131.31,486.16 131.31,488.14 133.29,488.14 133.29,488.14 137.93,488.14 
			137.93,488.14 137.93,488.14 137.93,483.49 141.06,483.49 141.06,488.14 141.06,488.14 141.06,488.14 145.7,488.14 145.7,491.26 
			141.06,491.26 141.06,491.26 141.06,491.26 141.06,495.9 137.93,495.9 137.93,491.26 137.93,491.26 137.93,491.26 133.29,491.26 
			133.29,491.26 131.31,491.26 131.31,493.24 131.31,493.24 131.31,497.88 131.31,497.88 131.31,497.88 135.95,497.88 
			135.95,501.01 131.31,501.01 131.31,501.01 131.31,501.01 131.31,505.65 131.31,505.65 131.31,507.62 134.8,507.62 134.8,510.75 
			131.31,510.75 131.31,515.39 129.75,515.39 129.75,442.55 131.31,442.55 		"/>
	</g>
</g>
<g>
</g>
<g>
</g>
<g>
</g>
<g>
</g>
<g>
</g>
<g>
</g>
<g>
</g>
<g>
</g>
<g>
</g>
<g>
</g>
<g>
</g>
<g>
</g>
<g>
</g>
<g>
</g>
<g>
</g>
</svg>
