<?xml version="1.0" encoding="utf-8"?>
<!-- Generator: Adobe Illustrator 27.2.0, SVG Export Plug-In . SVG Version: 6.00 Build 0)  -->
<svg version="1.1" id="Layer_1" xmlns="http://www.w3.org/2000/svg" xmlns:xlink="http://www.w3.org/1999/xlink" x="0px" y="0px"
	 viewBox="0 0 800 600" style="enable-background:new 0 0 800 600;" xml:space="preserve">
<g>
	<g>
		<g>
			<path style="fill:none;stroke:#000000;stroke-width:3;stroke-miterlimit:10;" d="M190.02,484.53
				C213.96,412.85,268.6,470.95,190.02,484.53"/>
			<path style="fill:none;stroke:#000000;stroke-width:3;stroke-miterlimit:10;" d="M190.74,482.32c0,0,16.53-5.94,20.88-16.87"/>
		</g>
		<g>
			<path style="fill:none;stroke:#000000;stroke-width:3;stroke-miterlimit:10;" d="M148.72,549.94"/>
			<g>
				<path style="stroke:#000000;stroke-width:0.25;stroke-miterlimit:10;" d="M149.36,474.12v2.58
					c11.73,13.1,17.25,28.54,14.08,39.76c-1.87,6.65-6.74,11.33-14.08,13.6v1.82c8.22-2.39,13.67-7.54,15.76-14.95
					C168.56,504.73,162.37,487.94,149.36,474.12z"/>
				<path style="stroke:#000000;stroke-width:0.25;stroke-miterlimit:10;" d="M149.36,474.12v2.58
					c-11.73,13.1-17.25,28.54-14.08,39.76c1.87,6.65,6.74,11.33,14.08,13.6v1.82c-8.22-2.39-13.67-7.54-15.76-14.95
					C130.16,504.73,136.35,487.94,149.36,474.12z"/>
			</g>
			<g>
				<path d="M149.59,446.86l-0.23,0.24v3.06c25.38,25.68,36.03,52.14,29.22,72.81c-4.31,13.11-15.21,22.21-29.22,24.52V550
					c15.14-2.35,26.93-12.13,31.58-26.26C188.19,501.72,176.76,473.7,149.59,446.86z"/>
				<path d="M149.13,446.86l0.23,0.24v3.06c-25.38,25.68-36.03,52.14-29.22,72.81c4.31,13.11,15.21,22.21,29.22,24.52V550
					c-15.14-2.35-26.93-12.13-31.58-26.26C110.53,501.72,121.96,473.7,149.13,446.86z"/>
			</g>
		</g>
		<path style="fill:none;stroke:#000000;stroke-width:3;stroke-miterlimit:10;" d="M151.65,548.28
			c77.04-1.79,66.89-37.52,88.63-60.92c-49.08-8.49-59.33,31.22-59.33,31.22"/>
		<g>
			<path style="fill:none;stroke:#000000;stroke-width:3;stroke-miterlimit:10;" d="M180.61,497.07
				c5.13-34.13-44.3-61.84-7.25-99.76C167.32,431.81,218.05,453.85,180.61,497.07"/>
			<path style="fill:none;stroke:#000000;stroke-width:3;stroke-miterlimit:10;" d="M172.99,398.16
				c5.04-8.81,16.27-11.87,25.09-6.83c7.05,4.03,9.5,13.02,5.46,20.07c-3.23,5.64-10.42,7.6-16.06,4.37
				c-4.51-2.58-6.08-8.33-3.5-12.85c2.07-3.61,6.67-4.86,10.28-2.8c2.89,1.65,3.89,5.33,2.24,8.22c-1.32,2.31-4.27,3.11-6.58,1.79
				c-1.85-1.06-2.49-3.41-1.43-5.26"/>
		</g>
		<g>
			<path style="fill:none;stroke:#000000;stroke-width:3;stroke-miterlimit:10;" d="M108.7,484.53
				C84.77,412.85,30.12,470.95,108.7,484.53"/>
			<path style="fill:none;stroke:#000000;stroke-width:3;stroke-miterlimit:10;" d="M107.98,482.32c0,0-16.53-5.94-20.88-16.87"/>
		</g>
		<g>
			<path style="fill:none;stroke:#000000;stroke-width:3;stroke-miterlimit:10;" d="M118.12,497.07
				c-5.13-34.13,44.3-61.84,7.25-99.76C131.4,431.81,80.67,453.85,118.12,497.07"/>
			<path style="fill:none;stroke:#000000;stroke-width:3;stroke-miterlimit:10;" d="M125.73,398.16
				c-5.04-8.81-16.27-11.87-25.09-6.83c-7.05,4.03-9.5,13.02-5.46,20.07c3.23,5.64,10.42,7.6,16.06,4.37
				c4.51-2.58,6.08-8.33,3.5-12.85c-2.07-3.61-6.67-4.86-10.28-2.8c-2.89,1.65-3.89,5.33-2.24,8.22c1.32,2.31,4.27,3.11,6.58,1.79
				c1.85-1.06,2.49-3.41,1.43-5.26"/>
		</g>
		<path style="fill:none;stroke:#000000;stroke-width:3;stroke-miterlimit:10;" d="M217.05,525.44c6.05-8.16,17.57-9.86,25.72-3.81
			c6.52,4.84,7.89,14.05,3.05,20.58c-3.87,5.22-11.24,6.31-16.46,2.44c-4.18-3.1-5.05-8.99-1.95-13.17
			c2.48-3.34,7.19-4.04,10.54-1.56c2.67,1.98,3.23,5.76,1.25,8.43c-1.59,2.14-4.6,2.59-6.74,1c-1.71-1.27-2.07-3.68-0.8-5.39"/>
		<path style="fill:none;stroke:#000000;stroke-width:3;stroke-miterlimit:10;" d="M147.07,548.28
			c-77.04-1.79-66.89-37.52-88.63-60.92c49.08-8.49,59.33,31.22,59.33,31.22"/>
		<path style="fill:none;stroke:#000000;stroke-width:3;stroke-miterlimit:10;" d="M81.67,525.44c-6.05-8.16-17.57-9.86-25.72-3.81
			c-6.52,4.84-7.89,14.05-3.05,20.58c3.87,5.22,11.24,6.31,16.46,2.44c4.18-3.1,5.05-8.99,1.95-13.17
			c-2.48-3.34-7.19-4.04-10.54-1.56c-2.67,1.98-3.23,5.76-1.25,8.43c1.59,2.14,4.6,2.59,6.74,1c1.71-1.27,2.07-3.68,0.8-5.39"/>
		<g>
			<circle style="fill:none;stroke:#000000;stroke-width:3;stroke-miterlimit:10;" cx="149.36" cy="401.28" r="12.25"/>
			<path style="fill:none;stroke:#000000;stroke-width:3;stroke-miterlimit:10;" d="M147.44,389.03
				c-10.71-16.71-8.91-29.7,1.93-31.81c10.83,2.11,12.64,15.09,1.93,31.81"/>
			<path style="fill:none;stroke:#000000;stroke-width:3;stroke-miterlimit:10;" d="M140.01,393.13
				c-18.95-5.92-25.91-17.02-18.97-25.6c9.65-5.35,19.38,3.44,21.92,23.13"/>
			<path style="fill:none;stroke:#000000;stroke-width:3;stroke-miterlimit:10;" d="M158.71,393.13
				c18.95-5.92,25.91-17.02,18.97-25.6c-9.65-5.35-19.38,3.44-21.92,23.13"/>
		</g>
	</g>
	<g>
		<path d="M305.21,477.23c0-8.18,6.65-14.83,14.83-14.83c0.05,0,0.09,0.01,0.13,0.01v2.49c-0.05,0-0.09-0.01-0.13-0.01
			c-6.81,0-12.34,5.54-12.34,12.34c0,6.81,5.54,12.34,12.34,12.34c0.05,0,0.09-0.01,0.13-0.01v2.49c-0.05,0-0.09,0.01-0.13,0.01
			C311.86,492.06,305.21,485.41,305.21,477.23z"/>
		<path d="M317.33,336.44c-2.69-0.72-4.95-2.45-6.34-4.87c-2.88-4.99-1.16-11.39,3.82-14.27v0c1.69-0.97,3.54-1.41,5.36-1.38v2.48
			c-0.05,0-0.1-0.01-0.15-0.01c-1.35,0-2.72,0.34-3.97,1.06c-3.8,2.19-5.11,7.07-2.91,10.87c1.06,1.84,2.78,3.16,4.83,3.71
			c0.73,0.19,1.46,0.28,2.2,0.27v2.48c-0.04,0-0.08,0.01-0.12,0.01C319.14,336.8,318.23,336.68,317.33,336.44z"/>
		<path d="M305.21,281.59c0-8.18,6.65-14.83,14.83-14.83c0.05,0,0.09,0.01,0.13,0.01v2.49c-0.05,0-0.09-0.01-0.13-0.01
			c-6.81,0-12.34,5.54-12.34,12.34c0,6.81,5.54,12.34,12.34,12.34c0.05,0,0.09-0.01,0.13-0.01v2.49c-0.05,0-0.09,0.01-0.13,0.01
			C311.86,296.42,305.21,289.77,305.21,281.59z"/>
		<path d="M283.98,314.06c2.69-0.72,4.95-2.45,6.34-4.87c2.88-4.99,1.16-11.39-3.82-14.27v0c-4.99-2.88-11.39-1.16-14.27,3.82
			c-1.4,2.42-1.77,5.23-1.04,7.93c0.72,2.69,2.45,4.95,4.87,6.34c1.61,0.93,3.4,1.4,5.21,1.4
			C282.16,314.42,283.08,314.3,283.98,314.06z M283.33,311.66c-2.05,0.55-4.2,0.27-6.04-0.8s-3.16-2.78-3.71-4.83
			c-0.55-2.05-0.27-4.2,0.79-6.04c2.2-3.8,7.07-5.11,10.87-2.91v0c3.8,2.2,5.11,7.07,2.91,10.87
			C287.1,309.79,285.39,311.11,283.33,311.66z"/>
		<path d="M287.26,281.59c0-18.07,14.7-32.77,32.77-32.77c0.05,0,0.09,0,0.13,0v2.49c-0.05,0-0.09,0-0.13,0
			c-16.7,0-30.29,13.59-30.29,30.29s13.59,30.29,30.29,30.29c0.05,0,0.09,0,0.13,0v2.49c-0.05,0-0.09,0-0.13,0
			C301.96,314.37,287.26,299.66,287.26,281.59z"/>
		<path d="M287.26,477.23c0-18.07,14.7-32.77,32.77-32.77c0.05,0,0.09,0,0.13,0v2.49c-0.05,0-0.09,0-0.13,0
			c-16.7,0-30.29,13.59-30.29,30.29s13.59,30.29,30.29,30.29c0.05,0,0.09,0,0.13,0V510c-0.05,0-0.09,0-0.13,0
			C301.96,510.01,287.26,495.3,287.26,477.23z"/>
		<path d="M308.1,320.35c0-5.76-4.69-10.44-10.44-10.44s-10.44,4.69-10.44,10.44s4.69,10.44,10.44,10.44S308.1,326.11,308.1,320.35z
			 M305.61,320.35c0,4.39-3.57,7.96-7.96,7.96c-4.39,0-7.96-3.57-7.96-7.96c0-4.39,3.57-7.96,7.96-7.96
			C302.04,312.39,305.61,315.96,305.61,320.35z"/>
		<path d="M270.06,272.55c-2.42,1.39-4.14,3.65-4.87,6.34c-0.72,2.69-0.35,5.51,1.04,7.93c1.93,3.35,5.45,5.22,9.06,5.22
			c1.77,0,3.56-0.45,5.2-1.4c2.42-1.39,4.14-3.65,4.87-6.34c0.72-2.69,0.35-5.51-1.04-7.93c-1.39-2.42-3.65-4.14-6.34-4.87
			C275.29,270.78,272.47,271.15,270.06,272.55z M271.3,274.7c1.23-0.71,2.59-1.07,3.97-1.07c0.69,0,1.39,0.09,2.07,0.27
			c2.05,0.55,3.77,1.87,4.83,3.71s1.35,3.99,0.8,6.04c-0.55,2.05-1.87,3.77-3.71,4.83c-3.8,2.19-8.68,0.89-10.87-2.91
			c-1.06-1.84-1.35-3.99-0.79-6.04C268.14,277.48,269.46,275.76,271.3,274.7z"/>
		<path d="M254.8,491.35c-3.7,4.41-3.12,11.01,1.29,14.71c1.95,1.64,4.34,2.44,6.71,2.44c2.98,0,5.95-1.27,8.01-3.73
			c3.7-4.41,3.12-11.01-1.29-14.71C265.1,486.36,258.5,486.94,254.8,491.35z M256.7,492.95c2.82-3.36,7.85-3.8,11.21-0.98
			c3.36,2.82,3.8,7.85,0.98,11.21c-2.82,3.36-7.85,3.8-11.21,0.98C254.32,501.34,253.88,496.31,256.7,492.95z"/>
		<path d="M263.56,512.81c-1.97,5.41,0.83,11.42,6.24,13.39c1.17,0.43,2.38,0.63,3.56,0.63c4.27,0,8.28-2.64,9.83-6.87
			c1.97-5.41-0.83-11.42-6.24-13.39C271.53,504.6,265.53,507.4,263.56,512.81z M265.9,513.66c1.5-4.12,6.08-6.26,10.2-4.76
			c4.12,1.5,6.26,6.08,4.76,10.2c-1.5,4.12-6.08,6.26-10.2,4.76C266.53,522.36,264.39,517.78,265.9,513.66z"/>
		<path d="M279.13,529.98c0,5.76,4.69,10.44,10.44,10.44s10.44-4.69,10.44-10.44s-4.69-10.44-10.44-10.44
			S279.13,524.22,279.13,529.98z M281.62,529.98c0-4.39,3.57-7.96,7.96-7.96c4.39,0,7.96,3.57,7.96,7.96c0,4.39-3.57,7.96-7.96,7.96
			C285.19,537.94,281.62,534.37,281.62,529.98z"/>
		<path d="M299.64,540.79c1.54,4.24,5.56,6.87,9.83,6.87c1.18,0,2.39-0.2,3.56-0.63c2.62-0.95,4.71-2.87,5.89-5.4
			c1.18-2.53,1.3-5.36,0.35-7.99c-0.95-2.62-2.87-4.71-5.4-5.89c-2.53-1.18-5.36-1.3-7.99-0.35
			C300.47,529.37,297.67,535.37,299.64,540.79z M306.73,529.73c0.89-0.32,1.81-0.48,2.73-0.48c1.15,0,2.29,0.25,3.36,0.75
			c1.93,0.9,3.39,2.49,4.12,4.49c0.73,2,0.63,4.16-0.27,6.09c-0.9,1.93-2.49,3.39-4.49,4.12c-4.12,1.5-8.7-0.63-10.2-4.76
			C300.47,535.81,302.61,531.23,306.73,529.73z"/>
		<path d="M250.08,482.45c1.93,3.35,5.45,5.22,9.06,5.22c1.77,0,3.56-0.45,5.2-1.4v0c4.99-2.88,6.7-9.28,3.82-14.27
			c-1.39-2.42-3.65-4.14-6.34-4.87c-2.69-0.72-5.51-0.35-7.93,1.04C248.92,471.06,247.2,477.47,250.08,482.45z M255.15,470.34
			c1.84-1.06,3.99-1.35,6.04-0.79c2.05,0.55,3.77,1.87,4.83,3.71c2.19,3.8,0.89,8.68-2.91,10.87v0c-3.8,2.2-8.68,0.89-10.87-2.91
			C250.04,477.41,251.35,472.53,255.15,470.34z"/>
		<path d="M205.27,360.34c1.67,2.12,5.92,0.84,13.64-1.49c19.69-5.94,57.93-17.49,83.22,21.88c-15.58-14.87-28.36-16.13-35.64-11.73
			c-5.44,3.29-7.57,9.79-5.17,15.81c2.92,7.32,12.08,13.69,29.28,13.69c5.65,0,12.17-0.7,19.62-2.26c0.59,1.38,1.16,2.81,1.72,4.27
			c-4.04,2.65-6.72,7.22-6.72,12.4c0,8.18,6.65,14.83,14.83,14.83c0.05,0,0.09-0.01,0.13-0.01v-2.49c-0.05,0-0.09,0.01-0.13,0.01
			c-6.81,0-12.34-5.54-12.34-12.34c0-6.81,5.54-12.34,12.34-12.34c0.05,0,0.09,0.01,0.13,0.01v-2.48c-0.05,0-0.09-0.01-0.13-0.01
			c-2.1,0-4.09,0.44-5.9,1.23c-10.63-27.51-26.92-43.67-48.45-48.02c-18.16-3.67-35.81,1.66-47.49,5.19
			c-4.51,1.36-10.14,3.06-10.97,2.33c0-0.02-0.36-0.81,1.84-4.55c13.9-23.66,42.53-29.61,64.73-25.02
			c19.55,4.05,41.64,18.06,45.01,45.25l1.23,9.96l0.13-1.09v-16.27c-0.04,0.17-0.09,0.33-0.13,0.49
			c-5.19-20.56-22.17-35.91-45.74-40.78c-23.07-4.77-52.85,1.47-67.38,26.2C204.66,356.83,204.18,358.96,205.27,360.34z
			 M307.22,389.73c0.31,0.62,0.62,1.26,0.93,1.9c-4.11-0.53-16.2-2.62-22.57-9.26l-1.79,1.72c7.12,7.43,20.12,9.54,24.28,10.04
			c-27.56,5.39-41.16-2.04-44.44-10.26c-1.97-4.94-0.3-10.07,4.15-12.76C274.9,366.8,289.5,369.11,307.22,389.73z"/>
		<path d="M271.73,432.23c-3.43-1.98-7.43-2.51-11.25-1.48c-3.83,1.02-7.02,3.48-9,6.91c-4.09,7.08-1.65,16.17,5.43,20.25
			c2.33,1.34,4.87,1.98,7.39,1.98c5.13,0,10.12-2.66,12.86-7.41c1.98-3.43,2.51-7.43,1.48-11.25
			C277.62,437.4,275.16,434.21,271.73,432.23z M276.24,441.87c0.85,3.18,0.42,6.51-1.23,9.36c-3.4,5.89-10.97,7.92-16.86,4.52
			c-5.89-3.4-7.92-10.97-4.52-16.86c1.65-2.86,4.31-4.9,7.49-5.75c1.06-0.29,2.14-0.43,3.21-0.43c2.14,0,4.25,0.56,6.15,1.66
			C273.34,436.03,275.39,438.69,276.24,441.87z"/>
		<path d="M281.27,248.77c-5.76,0-10.44,4.69-10.44,10.44c0,5.76,4.69,10.44,10.44,10.44s10.44-4.69,10.44-10.44
			C291.72,253.46,287.03,248.77,281.27,248.77z M289.23,259.22c0,4.39-3.57,7.96-7.96,7.96c-4.39,0-7.96-3.57-7.96-7.96
			c0-4.39,3.57-7.96,7.96-7.96C285.66,251.26,289.23,254.83,289.23,259.22z"/>
		<path d="M320.17,228.89c-1.4-0.03-2.82,0.31-4.11,1.05c-3.8,2.19-5.11,7.07-2.91,10.87c1.06,1.84,2.78,3.16,4.83,3.71
			c0.73,0.19,1.46,0.28,2.2,0.27v2.48c-0.04,0-0.08,0.01-0.12,0.01c-0.91,0-1.82-0.12-2.72-0.36c-2.69-0.72-4.95-2.45-6.34-4.87
			c-1.39-2.42-1.77-5.23-1.04-7.93c0.72-2.69,2.45-4.95,4.87-6.34c1.69-0.97,3.54-1.41,5.36-1.38V228.89z"/>
		<path d="M306.7,248.06c2.88-4.99,1.16-11.39-3.82-14.27c-4.99-2.88-11.39-1.16-14.27,3.82c-2.88,4.99-1.16,11.39,3.82,14.27
			c1.61,0.93,3.4,1.4,5.21,1.4c0.91,0,1.82-0.12,2.72-0.36C303.05,252.2,305.31,250.47,306.7,248.06L306.7,248.06z M304.55,246.81
			L304.55,246.81c-2.19,3.8-7.07,5.11-10.87,2.91c-1.84-1.06-3.16-2.78-3.71-4.83c-0.55-2.05-0.27-4.2,0.8-6.04
			c2.19-3.8,7.07-5.11,10.87-2.91C305.44,238.13,306.74,243.01,304.55,246.81z"/>
		<path d="M275.03,428.93c1.98,3.43,5.18,5.88,9,6.91c1.28,0.34,2.57,0.51,3.86,0.51c2.57,0,5.1-0.67,7.39-1.99
			c3.43-1.98,5.88-5.18,6.91-9c1.02-3.83,0.5-7.82-1.48-11.25c-4.09-7.08-13.17-9.52-20.25-5.43
			C273.37,412.77,270.94,421.85,275.03,428.93z M281.7,410.83c1.94-1.12,4.06-1.65,6.15-1.65c4.27,0,8.43,2.21,10.71,6.17
			c1.65,2.86,2.09,6.18,1.23,9.36c-0.85,3.18-2.9,5.85-5.75,7.49c-2.85,1.65-6.18,2.09-9.36,1.23c-3.18-0.85-5.85-2.9-7.49-5.75
			C273.78,421.8,275.8,414.23,281.7,410.83z"/>
		<path d="M272.49,477.23c0-26.22,21.33-47.55,47.55-47.55c0.05,0,0.09,0,0.13,0v2.49c-0.05,0-0.09,0-0.13,0
			c-24.85,0-45.06,20.21-45.06,45.06c0,24.85,20.21,45.06,45.06,45.06c0.05,0,0.09,0,0.13,0v2.48c-0.05,0-0.09,0-0.13,0
			C293.82,524.78,272.49,503.45,272.49,477.23z"/>
	</g>
	<g>
		<path d="M335.13,477.23c0-8.18-6.65-14.83-14.83-14.83c-0.05,0-0.09,0.01-0.13,0.01v2.49c0.05,0,0.09-0.01,0.13-0.01
			c6.81,0,12.34,5.54,12.34,12.34c0,6.81-5.54,12.34-12.34,12.34c-0.05,0-0.09-0.01-0.13-0.01v2.49c0.05,0,0.09,0.01,0.13,0.01
			C328.48,492.06,335.13,485.41,335.13,477.23z"/>
		<path d="M323.01,336.44c2.69-0.72,4.95-2.45,6.34-4.87c2.88-4.99,1.16-11.39-3.82-14.27v0c-1.69-0.97-3.54-1.41-5.36-1.38v2.48
			c0.05,0,0.1-0.01,0.15-0.01c1.35,0,2.72,0.34,3.97,1.06c3.8,2.19,5.11,7.07,2.91,10.87c-1.06,1.84-2.78,3.16-4.83,3.71
			c-0.73,0.19-1.46,0.28-2.2,0.27v2.48c0.04,0,0.08,0.01,0.12,0.01C321.19,336.8,322.11,336.68,323.01,336.44z"/>
		<path d="M335.13,281.59c0-8.18-6.65-14.83-14.83-14.83c-0.05,0-0.09,0.01-0.13,0.01v2.49c0.05,0,0.09-0.01,0.13-0.01
			c6.81,0,12.34,5.54,12.34,12.34c0,6.81-5.54,12.34-12.34,12.34c-0.05,0-0.09-0.01-0.13-0.01v2.49c0.05,0,0.09,0.01,0.13,0.01
			C328.48,296.42,335.13,289.77,335.13,281.59z"/>
		<path d="M359.08,314.42c1.81,0,3.6-0.47,5.21-1.4c2.42-1.4,4.14-3.65,4.87-6.34c0.72-2.69,0.35-5.51-1.04-7.93
			c-2.88-4.99-9.28-6.7-14.27-3.82v0c-4.99,2.88-6.7,9.28-3.82,14.27c1.39,2.42,3.65,4.14,6.34,4.87
			C357.26,314.3,358.17,314.42,359.08,314.42z M352.17,307.95c-2.19-3.8-0.89-8.68,2.91-10.87v0c3.8-2.2,8.68-0.89,10.87,2.91
			c1.06,1.84,1.35,3.99,0.79,6.04c-0.55,2.05-1.87,3.77-3.71,4.83c-1.84,1.06-3.99,1.34-6.04,0.8
			C354.95,311.11,353.23,309.79,352.17,307.95z"/>
		<path d="M353.08,281.59c0-18.07-14.7-32.77-32.77-32.77c-0.05,0-0.09,0-0.13,0v2.49c0.05,0,0.09,0,0.13,0
			c16.7,0,30.29,13.59,30.29,30.29S337,311.88,320.3,311.88c-0.05,0-0.09,0-0.13,0v2.49c0.05,0,0.09,0,0.13,0
			C338.37,314.37,353.08,299.66,353.08,281.59z"/>
		<path d="M353.08,477.23c0-18.07-14.7-32.77-32.77-32.77c-0.05,0-0.09,0-0.13,0v2.49c0.05,0,0.09,0,0.13,0
			c16.7,0,30.29,13.59,30.29,30.29S337,507.52,320.3,507.52c-0.05,0-0.09,0-0.13,0V510c0.05,0,0.09,0,0.13,0
			C338.37,510.01,353.08,495.3,353.08,477.23z"/>
		<path d="M342.68,330.8c5.76,0,10.44-4.69,10.44-10.44s-4.69-10.44-10.44-10.44s-10.44,4.69-10.44,10.44S336.92,330.8,342.68,330.8
			z M342.68,312.39c4.39,0,7.96,3.57,7.96,7.96c0,4.39-3.57,7.96-7.96,7.96c-4.39,0-7.96-3.57-7.96-7.96
			C334.72,315.96,338.29,312.39,342.68,312.39z"/>
		<path d="M362.36,271.5c-2.69,0.72-4.95,2.45-6.34,4.87c-1.39,2.42-1.77,5.23-1.04,7.93c0.72,2.69,2.45,4.95,4.87,6.34
			c1.64,0.95,3.43,1.4,5.2,1.4c3.61,0,7.13-1.87,9.06-5.22c1.39-2.42,1.77-5.23,1.04-7.93c-0.72-2.69-2.45-4.95-4.87-6.34
			C367.86,271.15,365.05,270.78,362.36,271.5z M372.75,279.53c0.55,2.05,0.27,4.2-0.79,6.04c-2.2,3.8-7.07,5.11-10.87,2.91
			c-1.84-1.06-3.16-2.78-3.71-4.83c-0.55-2.05-0.27-4.2,0.8-6.04s2.78-3.16,4.83-3.71c0.69-0.18,1.38-0.27,2.07-0.27
			c1.38,0,2.74,0.36,3.97,1.07C370.88,275.76,372.2,277.48,372.75,279.53z"/>
		<path d="M370.82,490.06c-4.41,3.7-4.99,10.3-1.29,14.71c2.06,2.46,5.03,3.73,8.01,3.73c2.37,0,4.75-0.8,6.71-2.44
			c4.41-3.7,4.99-10.3,1.29-14.71C381.84,486.94,375.23,486.36,370.82,490.06z M382.65,504.16c-3.36,2.82-8.39,2.38-11.21-0.98
			c-2.82-3.36-2.38-8.39,0.98-11.21c3.36-2.82,8.39-2.38,11.21,0.98C386.46,496.31,386.02,501.34,382.65,504.16z"/>
		<path d="M363.39,506.57c-5.41,1.97-8.21,7.98-6.24,13.39c1.54,4.24,5.56,6.87,9.83,6.87c1.18,0,2.39-0.2,3.56-0.63
			c5.41-1.97,8.21-7.98,6.24-13.39C374.81,507.4,368.8,504.6,363.39,506.57z M369.68,523.86c-4.12,1.5-8.7-0.63-10.2-4.76
			c-1.5-4.12,0.63-8.7,4.76-10.2c4.12-1.5,8.7,0.63,10.2,4.76C375.94,517.78,373.81,522.36,369.68,523.86z"/>
		<path d="M350.76,519.53c-5.76,0-10.44,4.69-10.44,10.44s4.69,10.44,10.44,10.44s10.44-4.69,10.44-10.44
			S356.52,519.53,350.76,519.53z M350.76,537.94c-4.39,0-7.96-3.57-7.96-7.96c0-4.39,3.57-7.96,7.96-7.96
			c4.39,0,7.96,3.57,7.96,7.96C358.72,534.37,355.15,537.94,350.76,537.94z"/>
		<path d="M334.45,527.4c-2.62-0.95-5.46-0.83-7.99,0.35c-2.53,1.18-4.45,3.27-5.4,5.89c-0.95,2.62-0.83,5.46,0.35,7.99
			c1.18,2.53,3.27,4.45,5.89,5.4c1.18,0.43,2.38,0.63,3.56,0.63c4.27,0,8.28-2.64,9.83-6.87
			C342.66,535.37,339.86,529.37,334.45,527.4z M338.36,539.94c-1.5,4.12-6.08,6.26-10.2,4.76c-2-0.73-3.59-2.19-4.49-4.12
			c-0.9-1.93-0.99-4.09-0.27-6.09c0.73-2,2.19-3.59,4.12-4.49c1.07-0.5,2.21-0.75,3.36-0.75c0.92,0,1.84,0.16,2.73,0.48
			C337.73,531.23,339.86,535.81,338.36,539.94z"/>
		<path d="M386.43,468.19c-2.42-1.39-5.23-1.77-7.93-1.04c-2.69,0.72-4.95,2.45-6.34,4.87c-2.88,4.99-1.16,11.39,3.82,14.27v0
			c1.64,0.95,3.43,1.4,5.2,1.4c3.61,0,7.13-1.87,9.06-5.22C393.13,477.47,391.42,471.06,386.43,468.19z M388.1,481.21
			c-2.19,3.8-7.07,5.11-10.87,2.91v0c-3.8-2.19-5.11-7.07-2.91-10.87c1.06-1.84,2.78-3.16,4.83-3.71c2.05-0.55,4.2-0.27,6.04,0.79
			C388.99,472.53,390.3,477.41,388.1,481.21z"/>
		<path d="M433.42,352.99c-14.53-24.72-44.31-30.97-67.38-26.2c-23.56,4.88-40.55,20.22-45.74,40.78c-0.04-0.17-0.09-0.33-0.13-0.49
			v16.27l0.13,1.09l1.23-9.96c3.37-27.19,25.46-41.21,45.01-45.25c22.2-4.59,50.83,1.36,64.73,25.02c2.2,3.74,1.84,4.53,1.84,4.55
			c-0.84,0.73-6.46-0.97-10.97-2.33c-11.68-3.53-29.34-8.86-47.49-5.19c-21.53,4.36-37.82,20.52-48.45,48.02
			c-1.81-0.79-3.8-1.23-5.9-1.23c-0.05,0-0.09,0.01-0.13,0.01v2.48c0.05,0,0.09-0.01,0.13-0.01c6.81,0,12.34,5.54,12.34,12.34
			c0,6.81-5.54,12.34-12.34,12.34c-0.05,0-0.09-0.01-0.13-0.01v2.49c0.05,0,0.09,0.01,0.13,0.01c8.18,0,14.83-6.65,14.83-14.83
			c0-5.19-2.68-9.75-6.72-12.4c0.56-1.46,1.13-2.89,1.72-4.27c7.45,1.56,13.97,2.26,19.62,2.26c17.21,0,26.36-6.37,29.28-13.69
			c2.4-6.02,0.27-12.52-5.17-15.81c-7.28-4.4-20.07-3.14-35.64,11.73c25.29-39.36,63.53-27.82,83.22-21.88
			c7.72,2.33,11.97,3.61,13.64,1.49C436.15,358.96,435.68,356.83,433.42,352.99z M372.57,371.12c4.45,2.69,6.12,7.82,4.15,12.76
			c-3.28,8.22-16.87,15.65-44.44,10.26c4.16-0.5,17.16-2.62,24.28-10.04l-1.79-1.72c-6.38,6.65-18.47,8.73-22.57,9.26
			c0.31-0.64,0.61-1.28,0.93-1.9C350.84,369.11,365.44,366.8,372.57,371.12z"/>
		<path d="M361.7,441.23c-1.02,3.83-0.5,7.82,1.48,11.25c2.74,4.75,7.74,7.41,12.86,7.41c2.51,0,5.06-0.64,7.39-1.98
			c7.08-4.09,9.51-13.17,5.43-20.25c-1.98-3.43-5.18-5.88-9-6.91c-3.82-1.02-7.82-0.5-11.25,1.48
			C365.17,434.21,362.72,437.4,361.7,441.23z M369.85,434.38c1.9-1.1,4.01-1.66,6.15-1.66c1.07,0,2.15,0.14,3.21,0.43
			c3.18,0.85,5.85,2.9,7.49,5.75c3.4,5.89,1.38,13.46-4.52,16.86c-5.89,3.4-13.46,1.38-16.86-4.52c-1.65-2.86-2.09-6.18-1.23-9.36
			C364.95,438.69,366.99,436.03,369.85,434.38z"/>
		<path d="M348.62,259.22c0,5.76,4.69,10.44,10.44,10.44s10.44-4.69,10.44-10.44c0-5.76-4.69-10.44-10.44-10.44
			S348.62,253.46,348.62,259.22z M359.06,251.26c4.39,0,7.96,3.57,7.96,7.96c0,4.39-3.57,7.96-7.96,7.96s-7.96-3.57-7.96-7.96
			C351.1,254.83,354.67,251.26,359.06,251.26z"/>
		<path d="M320.17,228.89c1.4-0.03,2.82,0.31,4.11,1.05c3.8,2.19,5.11,7.07,2.91,10.87c-1.06,1.84-2.78,3.16-4.83,3.71
			c-0.73,0.19-1.46,0.28-2.2,0.27v2.48c0.04,0,0.08,0.01,0.12,0.01c0.91,0,1.82-0.12,2.72-0.36c2.69-0.72,4.95-2.45,6.34-4.87
			c1.39-2.42,1.77-5.23,1.04-7.93c-0.72-2.69-2.45-4.95-4.87-6.34c-1.69-0.97-3.54-1.41-5.36-1.38V228.89z"/>
		<path d="M333.64,248.06c1.39,2.42,3.65,4.14,6.34,4.87c0.9,0.24,1.81,0.36,2.72,0.36c1.81,0,3.6-0.47,5.21-1.4
			c4.99-2.88,6.7-9.28,3.82-14.27c-2.88-4.99-9.28-6.7-14.27-3.82C332.47,236.67,330.76,243.07,333.64,248.06L333.64,248.06z
			 M338.7,235.94c3.8-2.2,8.68-0.89,10.87,2.91c1.06,1.84,1.35,3.99,0.8,6.04c-0.55,2.05-1.87,3.77-3.71,4.83
			c-3.8,2.19-8.68,0.89-10.87-2.91h0C333.59,243.01,334.9,238.13,338.7,235.94z"/>
		<path d="M359.88,408.68c-7.08-4.09-16.17-1.65-20.25,5.43c-1.98,3.43-2.51,7.43-1.48,11.25c1.02,3.83,3.48,7.02,6.91,9
			c2.28,1.32,4.82,1.99,7.39,1.99c1.29,0,2.58-0.17,3.86-0.51c3.83-1.02,7.02-3.48,9-6.91C369.4,421.85,366.96,412.77,359.88,408.68
			z M363.16,427.69c-1.65,2.86-4.31,4.9-7.49,5.75c-3.18,0.85-6.51,0.42-9.36-1.23c-2.86-1.65-4.9-4.31-5.75-7.49
			c-0.85-3.18-0.42-6.51,1.23-9.36c2.28-3.95,6.44-6.17,10.71-6.17c2.09,0,4.21,0.53,6.15,1.65
			C364.53,414.23,366.56,421.8,363.16,427.69z"/>
		<path d="M367.85,477.23c0-26.22-21.33-47.55-47.55-47.55c-0.05,0-0.09,0-0.13,0v2.49c0.05,0,0.09,0,0.13,0
			c24.85,0,45.06,20.21,45.06,45.06c0,24.85-20.21,45.06-45.06,45.06c-0.05,0-0.09,0-0.13,0v2.48c0.05,0,0.09,0,0.13,0
			C346.52,524.78,367.85,503.45,367.85,477.23z"/>
	</g>
</g>
<g>
</g>
<g>
</g>
<g>
</g>
<g>
</g>
<g>
</g>
<g>
</g>
<g>
</g>
<g>
</g>
<g>
</g>
<g>
</g>
<g>
</g>
<g>
</g>
<g>
</g>
<g>
</g>
<g>
</g>
</svg>
