<?xml version="1.0" encoding="utf-8"?>
<!-- Generator: Adobe Illustrator 27.2.0, SVG Export Plug-In . SVG Version: 6.00 Build 0)  -->
<svg version="1.1" id="Layer_1" xmlns="http://www.w3.org/2000/svg" xmlns:xlink="http://www.w3.org/1999/xlink" x="0px" y="0px"
	 viewBox="0 0 800 600" style="enable-background:new 0 0 800 600;" xml:space="preserve">
<g>
	<polygon points="182.22,394.7 185.63,391.3 189.99,395.66 186.23,399.41 182.83,396.01 181.7,397.13 190.77,406.2 191.89,405.07 
		188.49,401.67 192.24,397.91 195.65,401.32 197.91,399.06 194.5,395.66 198.26,391.9 201.66,395.31 202.79,394.18 193.72,385.11 
		192.6,386.24 196,389.64 192.24,393.4 187.89,389.04 191.29,385.64 189.04,383.38 185.63,386.79 182.22,383.38 179.97,385.64 
		183.38,389.04 179.97,392.45 	"/>
	<polygon points="194.25,382.68 197.66,379.27 202.02,383.63 198.26,387.39 194.85,383.98 193.72,385.11 202.79,394.18 
		203.92,393.05 200.51,389.64 204.27,385.88 207.68,389.29 209.93,387.04 206.53,383.63 210.28,379.87 213.69,383.28 214.82,382.15 
		205.75,373.08 204.62,374.21 208.03,377.62 204.27,381.37 199.91,377.02 203.32,373.61 201.06,371.35 197.66,374.76 194.25,371.35 
		192,373.61 195.4,377.02 192,380.42 	"/>
	<polygon points="146.15,430.78 149.55,427.38 153.91,431.73 150.15,435.49 146.75,432.09 145.62,433.21 154.69,442.28 
		155.82,441.15 152.41,437.75 156.17,433.99 159.57,437.4 161.83,435.14 158.42,431.73 162.18,427.98 165.58,431.38 166.71,430.26 
		157.64,421.19 156.52,422.32 159.92,425.72 156.17,429.48 151.81,425.12 155.21,421.71 152.96,419.46 149.55,422.87 146.15,419.46 
		143.89,421.71 147.3,425.12 143.89,428.53 	"/>
	<polygon points="206.28,370.65 209.68,367.24 214.04,371.6 210.29,375.36 206.88,371.95 205.75,373.08 214.82,382.15 
		215.95,381.02 212.54,377.62 216.3,373.86 219.7,377.26 221.96,375.01 218.55,371.6 222.31,367.85 225.72,371.25 226.84,370.13 
		217.78,361.06 216.65,362.18 220.06,365.59 216.3,369.35 211.94,364.99 215.35,361.58 213.09,359.33 209.68,362.73 206.28,359.33 
		204.02,361.58 207.43,364.99 204.02,368.4 	"/>
	<polygon points="158.17,418.76 161.58,415.35 165.94,419.71 162.18,423.47 158.77,420.06 157.65,421.19 166.71,430.26 
		167.84,429.13 164.43,425.72 168.19,421.96 171.6,425.37 173.85,423.12 170.45,419.71 174.2,415.95 177.61,419.36 178.74,418.23 
		169.67,409.16 168.54,410.29 171.95,413.7 168.19,417.45 163.83,413.1 167.24,409.69 164.99,407.43 161.58,410.84 158.17,407.43 
		155.92,409.69 159.32,413.1 155.92,416.5 	"/>
	<polygon points="170.2,406.73 173.6,403.32 177.96,407.68 174.21,411.44 170.8,408.03 169.67,409.16 178.74,418.23 179.87,417.1 
		176.46,413.69 180.22,409.94 183.63,413.34 185.88,411.09 182.47,407.68 186.23,403.92 189.64,407.33 190.76,406.2 181.7,397.14 
		180.57,398.26 183.98,401.67 180.22,405.43 175.86,401.07 179.27,397.66 177.01,395.41 173.6,398.81 170.2,395.41 167.94,397.66 
		171.35,401.07 167.94,404.48 	"/>
	<rect x="259.58" y="501.79" width="5.67" height="5.67"/>
	<polygon points="296.15,341.54 299.56,338.13 298.43,337 289.36,346.07 290.49,347.2 293.9,343.79 297.65,347.55 294.25,350.96 
		296.5,353.21 299.91,349.8 303.67,353.56 300.26,356.97 301.39,358.1 310.45,349.03 309.33,347.9 305.92,351.31 302.16,347.55 
		306.52,343.19 309.93,346.6 312.18,344.34 308.78,340.94 312.18,337.53 309.93,335.28 306.52,338.68 303.11,335.28 300.86,337.53 
		304.27,340.94 299.91,345.3 	"/>
	<rect x="248.24" y="490.45" width="5.67" height="5.67"/>
	<path d="M254.38,322.55l3.41-3.41l4.36,4.36l-3.76,3.76l-3.41-3.41l-1.13,1.13l9.07,9.07l1.13-1.13l-3.41-3.41l3.76-3.76l3.41,3.41
		l2.25-2.25l-3.41-3.41l3.47-3.47l3.47,3.47l-3.41,3.41l2.25,2.25l3.41-3.41l3.76,3.76l-3.41,3.41l1.13,1.13l9.07-9.07l-1.13-1.13
		l-3.41,3.41l-3.76-3.76l4.36-4.36l3.41,3.41l2.25-2.25l-3.41-3.41l3.41-3.41l-2.25-2.25l-3.41,3.41l-3.41-3.41l-2.25,2.25
		l3.41,3.41l-4.36,4.36l-3.76-3.76l3.41-3.41l-1.13-1.13l-4.25,4.25v0l4.24-4.24l-1.13-1.13l-3.12,3.12l-3.12-3.12l-1.13,1.13
		l4.24,4.24v0l-4.25-4.25l-1.13,1.13l3.41,3.41l-3.76,3.76l-4.36-4.36l3.41-3.41l-2.25-2.25l-3.41,3.41l-3.41-3.41l-2.25,2.25
		l3.41,3.41l-3.41,3.41L254.38,322.55z M270.13,317.2L270.13,317.2L270.13,317.2L270.13,317.2L270.13,317.2z"/>
	<polygon points="218.3,358.62 221.71,355.22 226.07,359.58 222.31,363.33 218.9,359.93 217.78,361.05 226.85,370.12 227.97,369 
		224.57,365.59 228.32,361.83 231.73,365.24 233.99,362.98 230.58,359.58 234.34,355.82 237.74,359.23 238.87,358.1 229.8,349.03 
		228.67,350.16 232.08,353.56 228.32,357.32 223.97,352.96 227.37,349.56 225.12,347.3 221.71,350.71 218.3,347.3 216.05,349.56 
		219.46,352.96 216.05,356.37 	"/>
	<polygon points="284.12,329.51 287.53,326.1 286.4,324.98 277.33,334.05 278.46,335.17 281.87,331.77 285.63,335.52 282.22,338.93 
		284.47,341.19 287.88,337.78 291.64,341.54 288.23,344.94 289.36,346.07 298.43,337 297.3,335.87 293.89,339.28 290.14,335.52 
		294.49,331.16 297.9,334.57 300.16,332.32 296.75,328.91 300.16,325.5 297.9,323.25 294.49,326.66 291.09,323.25 288.83,325.5 
		292.24,328.91 287.88,333.27 	"/>
	<polygon points="134.12,442.81 137.53,439.4 141.88,443.76 138.13,447.52 134.72,444.11 133.59,445.24 142.66,454.31 
		143.79,453.18 140.38,449.77 144.14,446.02 147.55,449.42 149.8,447.17 146.39,443.76 150.15,440 153.56,443.41 154.69,442.28 
		145.62,433.21 144.49,434.34 147.9,437.75 144.14,441.51 139.78,437.15 143.19,433.74 140.93,431.49 137.53,434.89 134.12,431.49 
		131.86,433.74 135.27,437.15 131.86,440.55 	"/>
	<polygon points="230.33,346.6 233.74,343.19 238.1,347.55 234.34,351.31 230.93,347.9 229.8,349.03 238.87,358.1 240,356.97 
		236.59,353.56 240.35,349.8 243.76,353.21 246.01,350.96 242.6,347.55 246.36,343.79 249.77,347.2 250.9,346.07 241.83,337 
		240.7,338.13 244.11,341.54 240.35,345.3 235.99,340.94 239.4,337.53 237.14,335.28 233.74,338.68 230.33,335.28 228.08,337.53 
		231.48,340.94 228.08,344.34 	"/>
	<polygon points="242.36,334.57 245.76,331.16 250.12,335.52 246.36,339.28 242.96,335.87 241.83,337 250.9,346.07 252.03,344.94 
		248.62,341.54 252.38,337.78 255.78,341.19 258.04,338.93 254.63,335.52 258.39,331.77 261.8,335.17 262.92,334.05 253.85,324.98 
		252.73,326.1 256.13,329.51 252.38,333.27 248.02,328.91 251.42,325.5 249.17,323.25 245.76,326.66 242.36,323.25 240.1,325.5 
		243.51,328.91 240.1,332.32 	"/>
	<rect x="292.02" y="496.12" width="5.67" height="5.67"/>
	<polygon points="94.75,516.63 96.34,518.22 93.25,521.31 93.25,539.01 105.19,527.07 106.78,528.66 108.62,514.79 	"/>
	<polygon points="93.25,550 106.31,550 117.21,539.09 118.8,540.68 120.64,526.82 106.78,528.66 108.36,530.24 93.25,545.36 	"/>
	<rect x="297.69" y="501.79" width="5.67" height="5.67"/>
	<rect x="286.35" y="490.45" width="5.67" height="5.67"/>
	<rect x="292.02" y="507.45" width="5.67" height="5.67"/>
	<rect x="280.68" y="496.12" width="5.67" height="5.67"/>
	<rect x="275.01" y="501.79" width="5.67" height="5.67"/>
	<polygon points="122.09,454.84 125.5,451.43 129.86,455.79 126.1,459.55 122.69,456.14 121.57,457.27 130.63,466.33 131.76,465.21 
		128.36,461.8 132.11,458.04 135.52,461.45 137.77,459.19 134.37,455.79 138.13,452.03 141.53,455.44 142.66,454.31 133.59,445.24 
		132.46,446.37 135.87,449.78 132.11,453.53 127.75,449.17 131.16,445.77 128.91,443.51 125.5,446.92 122.09,443.51 119.84,445.77 
		123.24,449.17 119.84,452.58 	"/>
	<rect x="280.68" y="507.45" width="5.67" height="5.67"/>
	<rect x="242.57" y="496.12" width="5.67" height="5.67"/>
	<rect x="242.57" y="507.45" width="5.67" height="5.67"/>
	<rect x="253.91" y="496.12" width="5.67" height="5.67"/>
	<polygon points="110.07,466.86 113.47,463.46 117.83,467.81 114.07,471.57 110.67,468.16 109.54,469.29 118.61,478.36 
		119.74,477.23 116.33,473.83 120.09,470.07 123.49,473.48 125.75,471.22 122.34,467.81 126.1,464.06 129.51,467.46 130.63,466.34 
		121.56,457.27 120.44,458.39 123.84,461.8 120.09,465.56 115.73,461.2 119.13,457.79 116.88,455.54 113.47,458.95 110.07,455.54 
		107.81,457.79 111.22,461.2 107.81,464.61 	"/>
	<polygon points="280.79,517.22 277.96,517.22 277.96,522 271.55,522 271.55,515.59 276.33,515.59 276.33,512.76 271.55,512.76 
		271.55,507.97 268.71,507.97 268.71,512.76 263.92,512.76 263.92,515.59 268.71,515.59 268.71,522 262.3,522 262.3,517.22 
		259.47,517.22 259.47,522 254.68,522 254.68,524.84 259.47,524.84 259.47,529.63 262.3,529.63 262.3,524.84 268.71,524.84 
		268.71,531.25 263.92,531.25 263.92,534.08 268.71,534.08 268.71,538.87 271.55,538.87 271.55,534.08 276.33,534.08 276.33,531.25 
		271.55,531.25 271.55,524.84 277.96,524.84 277.96,529.63 280.79,529.63 280.79,524.84 285.58,524.84 285.58,522 280.79,522 	"/>
	<rect x="253.91" y="507.45" width="5.67" height="5.67"/>
	<rect x="286.35" y="513.12" width="5.67" height="5.67"/>
	<path d="M98.04,492.24l-2.25,2.25l3.41,3.41l-3.41,3.41l2.25,2.25l3.41-3.41l3.41,3.41l2.25-2.25l-3.41-3.41l4.36-4.36l3.76,3.76
		l-3.41,3.41l1.13,1.13l9.07-9.07l-1.13-1.13l-3.41,3.41l-3.76-3.76l3.41-3.41l-2.25-2.25l-3.41,3.41l-3.47-3.47l3.47-3.47
		l3.41,3.41l2.25-2.25l-3.41-3.41l3.76-3.76l3.41,3.41l1.13-1.13l-9.07-9.07l-1.13,1.13l3.41,3.41l-3.76,3.76l-4.36-4.36l3.41-3.41
		l-2.25-2.25l-3.41,3.41l-3.41-3.41l-2.25,2.25l3.41,3.41l-3.41,3.41l2.25,2.25l3.41-3.41l4.36,4.36l-3.76,3.76l-3.41-3.41
		l-1.13,1.13l4.25,4.25h0l-4.24-4.24l-1.13,1.13l3.12,3.12l-3.12,3.12l1.13,1.13l4.24-4.24h0l-4.25,4.25l1.13,1.13l3.41-3.41
		l3.76,3.76l-4.36,4.36L98.04,492.24z M101.76,485.57L101.76,485.57L101.76,485.57L101.76,485.57L101.76,485.57z"/>
	<polygon points="405.54,527.02 406.67,525.89 397.6,516.83 396.47,517.95 399.88,521.36 396.12,525.12 392.71,521.71 
		390.46,523.96 393.86,527.37 390.11,531.13 386.7,527.72 385.57,528.85 394.64,537.92 395.77,536.79 392.36,533.38 396.12,529.63 
		400.48,533.98 397.07,537.39 399.33,539.65 402.73,536.24 406.14,539.65 408.39,537.39 404.99,533.98 408.39,530.58 406.14,528.32 
		402.73,531.73 398.37,527.37 402.13,523.61 	"/>
	<polygon points="134.12,539.65 137.53,536.24 140.93,539.65 143.19,537.39 139.78,533.98 144.14,529.63 147.9,533.38 
		144.49,536.79 145.62,537.92 154.69,528.85 153.56,527.72 150.15,531.13 146.39,527.37 149.8,523.96 147.55,521.71 144.14,525.12 
		140.38,521.36 143.79,517.95 142.66,516.83 133.59,525.89 134.72,527.02 138.13,523.61 141.88,527.37 137.53,531.73 134.12,528.32 
		131.86,530.58 135.27,533.98 131.86,537.39 	"/>
	<polygon points="268.71,470.12 268.71,474.91 263.92,474.91 263.92,477.74 268.71,477.74 268.71,482.53 268.71,482.53 
		268.71,484.15 262.3,484.15 262.3,479.36 259.47,479.36 259.47,484.15 254.68,484.15 254.68,486.98 259.47,486.98 259.47,491.77 
		262.3,491.77 262.3,486.98 268.71,486.98 268.71,488.61 268.71,488.61 268.71,493.39 263.92,493.39 263.92,496.23 268.71,496.23 
		268.71,501.01 271.55,501.01 271.55,496.23 276.33,496.23 276.33,493.39 271.55,493.39 271.55,486.98 277.96,486.98 277.96,491.77 
		280.79,491.77 280.79,486.98 285.58,486.98 285.58,484.15 280.79,484.15 280.79,479.36 277.96,479.36 277.96,484.15 271.55,484.15 
		271.55,477.74 276.33,477.74 276.33,474.91 271.55,474.91 271.55,470.12 	"/>
	<polygon points="149.55,548.27 151.29,550 154.63,550 155.21,549.42 151.81,546.01 156.17,541.65 159.92,545.41 156.52,548.82 
		157.64,549.94 166.71,540.88 165.58,539.75 162.18,543.16 158.42,539.4 161.83,535.99 159.57,533.74 156.17,537.14 152.41,533.39 
		155.82,529.98 154.69,528.85 145.62,537.92 146.75,539.05 150.15,535.64 153.91,539.4 149.55,543.76 146.15,540.35 143.89,542.6 
		147.3,546.01 143.89,549.42 144.47,550 147.82,550 	"/>
	<polygon points="131.19,550 132.67,538.84 118.8,540.68 120.39,542.27 112.66,550 	"/>
	<polygon points="407.59,538.84 409.07,550 427.6,550 419.87,542.27 421.46,540.68 	"/>
	<polygon points="166.71,540.88 157.65,549.95 157.7,550 159.85,550 162.18,547.67 164.51,550 171.87,550 173.85,548.02 
		171.6,545.76 168.19,549.17 164.43,545.41 167.84,542.01 	"/>
	<polygon points="123.84,509.33 120.44,512.74 121.56,513.87 130.63,504.8 129.51,503.67 126.1,507.08 122.34,503.32 125.75,499.91 
		123.49,497.66 120.09,501.06 116.33,497.31 119.74,493.9 118.61,492.77 109.54,501.84 110.67,502.97 114.07,499.56 117.83,503.32 
		113.47,507.68 110.07,504.27 107.81,506.53 111.22,509.93 107.81,513.34 110.07,515.59 113.47,512.19 116.88,515.59 119.13,513.34 
		115.73,509.93 120.09,505.57 	"/>
	<rect x="236.9" y="463.68" width="5.67" height="5.67"/>
	<polygon points="270.13,410.52 195.08,485.57 259.52,550 263.76,550 199.33,485.57 270.13,414.76 340.93,485.57 276.5,550 
		280.74,550 345.17,485.57 	"/>
	<rect x="242.57" y="469.35" width="5.67" height="5.67"/>
	<rect x="248.24" y="475.02" width="5.67" height="5.67"/>
	<polygon points="308.18,353.56 311.58,350.16 310.46,349.03 301.39,358.1 302.52,359.23 305.92,355.82 309.68,359.58 
		306.27,362.98 308.53,365.24 311.93,361.83 315.69,365.59 312.28,369 313.41,370.12 322.48,361.05 321.35,359.93 317.95,363.33 
		314.19,359.58 318.55,355.22 321.95,358.62 324.21,356.37 320.8,352.96 324.21,349.56 321.95,347.3 318.55,350.71 315.14,347.3 
		312.89,349.56 316.29,352.96 311.93,357.32 	"/>
	<rect x="259.58" y="463.68" width="5.67" height="5.67"/>
	<rect x="263.92" y="437.05" width="4.79" height="2.83"/>
	<rect x="253.91" y="458.01" width="5.67" height="5.67"/>
	<rect x="248.24" y="452.34" width="5.67" height="5.67"/>
	<rect x="253.91" y="469.35" width="5.67" height="5.67"/>
	<rect x="248.24" y="513.12" width="5.67" height="5.67"/>
	<polygon points="418.17,516.3 414.76,519.7 410.4,515.35 414.16,511.59 417.56,514.99 418.69,513.87 409.62,504.8 408.5,505.93 
		411.9,509.33 408.15,513.09 404.74,509.68 402.48,511.94 405.89,515.35 402.13,519.1 398.73,515.7 397.6,516.82 406.67,525.89 
		407.79,524.76 404.39,521.36 408.15,517.6 412.5,521.96 409.1,525.37 411.35,527.62 414.76,524.21 418.17,527.62 420.42,525.37 
		417.01,521.96 420.42,518.55 	"/>
	<polygon points="344.26,389.64 347.66,386.24 346.54,385.11 337.47,394.18 338.59,395.31 342,391.9 345.76,395.66 342.35,399.06 
		344.61,401.32 348.01,397.91 351.77,401.67 348.36,405.07 349.49,406.2 358.56,397.13 357.43,396.01 354.03,399.41 350.27,395.66 
		354.63,391.3 358.03,394.7 360.29,392.45 356.88,389.04 360.29,385.64 358.03,383.38 354.63,386.79 351.22,383.38 348.97,385.64 
		352.37,389.04 348.01,393.4 	"/>
	<polygon points="368.31,413.7 371.72,410.29 370.59,409.16 361.52,418.23 362.65,419.36 366.05,415.95 369.81,419.71 366.4,423.12 
		368.66,425.37 372.07,421.96 375.82,425.72 372.42,429.13 373.54,430.26 382.61,421.19 381.49,420.06 378.08,423.47 374.32,419.71 
		378.68,415.35 382.09,418.76 384.34,416.5 380.93,413.1 384.34,409.69 382.09,407.43 378.68,410.84 375.27,407.43 373.02,409.69 
		376.43,413.1 372.07,417.45 	"/>
	<polygon points="297.32,479.36 297.32,484.15 292.54,484.15 292.54,486.98 297.32,486.98 297.32,491.77 300.16,491.77 
		300.16,486.98 306.57,486.98 306.57,484.15 300.16,484.15 300.16,479.36 	"/>
	<polygon points="320.2,365.59 323.61,362.18 322.48,361.06 313.41,370.13 314.54,371.25 317.95,367.85 321.71,371.6 318.3,375.01 
		320.55,377.26 323.96,373.86 327.72,377.62 324.31,381.02 325.44,382.15 334.51,373.08 333.38,371.95 329.97,375.36 326.22,371.6 
		330.57,367.24 333.98,370.65 336.24,368.4 332.83,364.99 336.24,361.58 333.98,359.33 330.57,362.73 327.17,359.33 324.91,361.58 
		328.32,364.99 323.96,369.35 	"/>
	<rect x="236.9" y="501.79" width="5.67" height="5.67"/>
	<polygon points="332.23,377.62 335.64,374.21 334.51,373.08 325.44,382.15 326.57,383.28 329.97,379.87 333.73,383.63 
		330.33,387.04 332.58,389.29 335.99,385.88 339.74,389.64 336.34,393.05 337.46,394.18 346.53,385.11 345.41,383.98 342,387.39 
		338.24,383.63 342.6,379.27 346.01,382.68 348.26,380.42 344.85,377.02 348.26,373.61 346.01,371.35 342.6,374.76 339.19,371.35 
		336.94,373.61 340.35,377.02 335.99,381.37 	"/>
	<polygon points="356.28,401.67 359.69,398.26 358.56,397.14 349.49,406.2 350.62,407.33 354.03,403.92 357.79,407.68 
		354.38,411.09 356.63,413.34 360.04,409.94 363.8,413.69 360.39,417.1 361.52,418.23 370.59,409.16 369.46,408.03 366.05,411.44 
		362.29,407.68 366.65,403.32 370.06,406.73 372.31,404.48 368.91,401.07 372.31,397.66 370.06,395.41 366.65,398.81 363.25,395.41 
		360.99,397.66 364.4,401.07 360.04,405.43 	"/>
	<path d="M428.44,473.83l3.41-3.41l-1.13-1.13l-9.07,9.07l1.13,1.13l3.41-3.41l3.76,3.76l-3.41,3.41l2.25,2.25l3.41-3.41l3.47,3.47
		l-3.47,3.47l-3.41-3.41l-2.25,2.25l3.41,3.41l-3.76,3.76l-3.41-3.41l-1.13,1.13l9.07,9.07l1.13-1.13l-3.41-3.41l3.76-3.76
		l4.36,4.36l-3.41,3.41l2.25,2.25l3.41-3.41l3.41,3.41l2.25-2.25l-3.41-3.41l3.41-3.41l-2.25-2.25l-3.41,3.41l-4.36-4.36l3.76-3.76
		l3.41,3.41l1.13-1.13l-4.25-4.25h0l4.24,4.24l1.13-1.13l-3.12-3.12l3.12-3.12l-1.13-1.13l-4.24,4.24h0l4.25-4.25l-1.13-1.13
		l-3.41,3.41l-3.76-3.76l4.36-4.36l3.41,3.41l2.25-2.25l-3.41-3.41l3.41-3.41l-2.25-2.25l-3.41,3.41l-3.41-3.41l-2.25,2.25
		l3.41,3.41l-4.36,4.36L428.44,473.83z M438.5,485.56L438.5,485.56L438.5,485.56L438.5,485.56L438.5,485.56z"/>
	<rect x="263.92" y="455.54" width="4.79" height="2.83"/>
	<polygon points="416.41,461.8 419.82,458.39 418.69,457.27 409.63,466.34 410.75,467.46 414.16,464.06 417.92,467.81 
		414.51,471.22 416.76,473.48 420.17,470.07 423.93,473.83 420.52,477.23 421.65,478.36 430.72,469.29 429.59,468.16 426.18,471.57 
		422.43,467.81 426.79,463.46 430.19,466.86 432.45,464.61 429.04,461.2 432.45,457.79 430.19,455.54 426.79,458.95 423.38,455.54 
		421.12,457.79 424.53,461.2 420.17,465.56 	"/>
	<polygon points="430.19,504.27 426.79,507.68 422.43,503.32 426.18,499.56 429.59,502.97 430.72,501.84 421.65,492.77 
		420.52,493.9 423.93,497.31 420.17,501.06 416.76,497.66 414.51,499.91 417.92,503.32 414.16,507.08 410.75,503.67 409.63,504.8 
		418.69,513.87 419.82,512.74 416.41,509.33 420.17,505.57 424.53,509.93 421.12,513.34 423.38,515.59 426.79,512.19 430.19,515.59 
		432.45,513.34 429.04,509.93 432.45,506.53 	"/>
	<polygon points="392.36,437.75 395.77,434.34 394.64,433.21 385.57,442.28 386.7,443.41 390.11,440 393.86,443.76 390.46,447.17 
		392.71,449.42 396.12,446.02 399.88,449.77 396.47,453.18 397.6,454.31 406.67,445.24 405.54,444.11 402.13,447.52 398.37,443.76 
		402.73,439.4 406.14,442.81 408.39,440.55 404.99,437.15 408.39,433.74 406.14,431.49 402.73,434.89 399.33,431.49 397.07,433.74 
		400.48,437.15 396.12,441.51 	"/>
	<polygon points="380.33,425.72 383.74,422.32 382.61,421.19 373.55,430.26 374.67,431.38 378.08,427.98 381.84,431.73 
		378.43,435.14 380.69,437.4 384.09,433.99 387.85,437.75 384.44,441.15 385.57,442.28 394.64,433.21 393.51,432.09 390.1,435.49 
		386.35,431.73 390.71,427.38 394.11,430.78 396.37,428.53 392.96,425.12 396.37,421.71 394.11,419.46 390.71,422.87 387.3,419.46 
		385.04,421.71 388.45,425.12 384.09,429.48 	"/>
	<polygon points="238.48,493.39 233.69,493.39 233.69,486.98 240.1,486.98 240.1,491.77 242.94,491.77 242.94,486.98 247.72,486.98 
		247.72,484.15 242.94,484.15 242.94,479.36 240.1,479.36 240.1,484.15 233.69,484.15 233.69,477.74 238.48,477.74 238.48,474.91 
		233.69,474.91 233.69,470.12 230.86,470.12 230.86,474.91 226.07,474.91 226.07,477.74 230.86,477.74 230.86,482.53 230.86,482.53 
		230.86,484.15 224.45,484.15 224.45,479.36 221.61,479.36 221.61,484.15 216.83,484.15 216.83,486.98 221.61,486.98 221.61,491.77 
		224.45,491.77 224.45,486.98 230.86,486.98 230.86,488.61 230.86,488.61 230.86,493.39 226.07,493.39 226.07,496.23 230.86,496.23 
		230.86,501.01 233.69,501.01 233.69,496.23 238.48,496.23 	"/>
	<polygon points="404.39,449.78 407.79,446.37 406.67,445.24 397.6,454.31 398.73,455.44 402.13,452.03 405.89,455.79 
		402.48,459.19 404.74,461.45 408.15,458.04 411.9,461.8 408.5,465.21 409.62,466.33 418.69,457.27 417.56,456.14 414.16,459.55 
		410.4,455.79 414.76,451.43 418.17,454.84 420.42,452.58 417.01,449.17 420.42,445.77 418.17,443.51 414.76,446.92 411.35,443.51 
		409.1,445.77 412.5,449.17 408.15,453.53 	"/>
	<rect x="242.57" y="458.01" width="5.67" height="5.67"/>
	<polygon points="398.9,359.97 374.94,383.93 373.35,382.35 371.51,396.21 385.38,394.37 383.79,392.78 398.9,377.67 	"/>
	<polygon points="361.32,370.32 359.74,368.73 371.67,356.79 353.98,356.79 350.89,359.88 349.3,358.29 349.3,358.29 347.46,372.16 
			"/>
	<polygon points="421.46,430.45 419.87,428.86 443.83,404.9 426.13,404.9 411.02,420.01 409.43,418.42 407.59,432.29 	"/>
	<polygon points="397.4,406.4 395.56,420.26 409.43,418.42 407.84,416.84 419.78,404.9 402.08,404.9 398.99,407.99 397.4,406.4 
		395.81,404.81 398.9,401.72 398.9,384.02 386.97,395.96 385.38,394.37 383.54,408.24 	"/>
	<polygon points="373.35,382.35 371.76,380.76 395.73,356.79 378.03,356.79 362.91,371.91 361.32,370.32 359.48,384.19 	"/>
	<polygon points="301.19,310.19 299.35,324.05 313.22,322.21 311.63,320.62 323.57,308.69 305.87,308.69 302.78,311.78 	"/>
	<polygon points="349.3,358.29 347.71,356.7 350.8,353.61 350.8,335.92 338.86,347.85 337.27,346.27 335.43,360.13 	"/>
	<polygon points="325.24,334.24 323.66,332.65 347.62,308.69 329.92,308.69 314.81,323.8 313.22,322.21 311.38,336.08 	"/>
	<polygon points="350.8,311.86 326.83,335.83 325.24,334.24 323.4,348.11 337.27,346.27 335.68,344.68 350.8,329.56 	"/>
	<polygon points="447.01,539.01 447.01,521.31 443.92,518.22 445.51,516.63 431.64,514.79 433.48,528.66 435.07,527.07 	"/>
	<polygon points="456.37,502.57 456.37,500.33 477.74,500.33 490.26,487.81 456.37,487.81 456.37,485.57 445.26,494.07 	"/>
	<polygon points="421.46,430.45 419.62,444.32 433.48,442.48 431.89,440.89 447.01,425.77 447.01,408.07 423.04,432.04 	"/>
	<polygon points="431.89,530.24 433.48,528.66 419.62,526.82 421.46,540.68 423.04,539.09 433.95,550 447.01,550 447.01,545.36 	"/>
	<polygon points="304.14,299.33 301.9,299.33 301.9,294.96 289.38,282.45 289.38,299.33 287.14,299.33 295.64,310.44 	"/>
	<polygon points="456.37,519.58 456.37,517.34 460.74,517.34 473.25,504.82 456.37,504.82 456.37,502.57 445.26,511.08 	"/>
	<polygon points="445.51,454.5 443.92,452.92 447.01,449.83 447.01,432.13 435.07,444.07 433.48,442.48 431.64,456.34 	"/>
	<polygon points="456.37,485.57 456.37,483.32 490.26,483.32 477.74,470.8 456.37,470.8 456.37,468.56 445.26,477.06 	"/>
	<polygon points="445.26,460.05 456.37,468.56 456.37,466.31 473.25,466.31 460.74,453.8 456.37,453.8 456.37,451.55 	"/>
	<polygon points="215.01,334.24 228.88,336.08 227.04,322.21 225.45,323.8 210.34,308.69 192.64,308.69 216.6,332.65 	"/>
	<polygon points="118.8,430.45 132.67,432.29 130.83,418.42 129.24,420.01 114.12,404.9 96.43,404.9 120.39,428.86 	"/>
	<polygon points="166.91,382.35 165.32,383.93 141.35,359.97 141.35,377.67 156.47,392.78 154.88,394.37 168.75,396.21 	"/>
	<polygon points="118.8,430.45 117.21,432.04 93.25,408.07 93.25,425.77 108.36,440.89 106.78,442.48 120.64,444.32 	"/>
	<polygon points="142.86,406.4 156.72,408.24 154.88,394.37 153.29,395.96 141.35,384.02 141.35,401.72 144.44,404.81 142.86,406.4 
		141.27,407.99 138.18,404.9 120.48,404.9 132.42,416.84 130.83,418.42 144.7,420.26 	"/>
	<polygon points="94.75,454.5 108.62,456.34 106.78,442.48 105.19,444.07 93.25,432.13 93.25,449.83 96.34,452.92 	"/>
	<polygon points="83.89,500.33 83.89,502.57 95,494.07 83.89,485.57 83.89,487.81 50,487.81 62.52,500.33 	"/>
	<polygon points="67.01,504.82 79.52,517.34 83.89,517.34 83.89,519.58 95,511.08 83.89,502.57 83.89,504.82 	"/>
	<polygon points="287.14,299.33 284.89,299.33 284.89,277.95 272.38,265.44 272.38,299.33 270.13,299.33 278.63,310.44 	"/>
	<polygon points="83.89,485.57 95,477.06 83.89,468.56 83.89,470.8 62.52,470.8 50,483.32 83.89,483.32 	"/>
	<polygon points="83.89,451.55 83.89,453.8 79.52,453.8 67.01,466.31 83.89,466.31 83.89,468.56 95,460.05 	"/>
	<polygon points="122.09,527.62 125.5,524.21 128.91,527.62 131.16,525.37 127.75,521.96 132.11,517.6 135.87,521.36 132.46,524.76 
		133.59,525.89 142.66,516.82 141.53,515.7 138.13,519.1 134.37,515.35 137.77,511.94 135.52,509.68 132.11,513.09 128.36,509.33 
		131.76,505.93 130.63,504.8 121.57,513.87 122.69,514.99 126.1,511.59 129.86,515.35 125.5,519.7 122.09,516.3 119.84,518.55 
		123.24,521.96 119.84,525.37 	"/>
	<polygon points="239.07,310.19 237.48,311.78 234.39,308.69 216.69,308.69 228.63,320.62 227.04,322.21 240.91,324.05 	"/>
	<polygon points="253.12,299.33 250.87,299.33 250.87,282.45 238.36,294.96 238.36,299.33 236.11,299.33 244.62,310.44 	"/>
	<polygon points="270.13,299.33 267.88,299.33 267.88,265.44 255.37,277.95 255.37,299.33 253.12,299.33 261.63,310.44 	"/>
	<polygon points="215.01,334.24 213.42,335.83 189.46,311.86 189.46,329.56 204.58,344.68 202.99,346.27 216.85,348.11 	"/>
	<polygon points="166.91,382.35 180.77,384.19 178.93,370.32 177.35,371.91 162.23,356.79 144.53,356.79 168.5,380.76 	"/>
	<polygon points="190.96,358.29 190.96,358.29 189.37,359.88 186.28,356.79 168.58,356.79 180.52,368.73 178.93,370.32 
		192.8,372.16 	"/>
	<polygon points="202.99,346.27 201.4,347.85 189.46,335.92 189.46,353.61 192.55,356.7 190.96,358.29 204.83,360.13 	"/>
	<path d="M163.98,485.56l0-13.34l-14.56,0h0v0l0,13.34H163.98z M162.75,473.45v12.1h-12.1l0-12.1L162.75,473.45z"/>
	<polygon points="270.13,398.62 183.18,485.57 247.61,550 251.86,550 187.42,485.57 270.13,402.86 352.84,485.57 288.4,550 
		292.64,550 357.08,485.57 	"/>
	<polygon points="268.71,432.26 268.71,444.67 268.71,444.67 268.71,446.29 262.3,446.29 262.3,441.51 259.47,441.51 259.47,446.29 
		254.68,446.29 254.68,449.13 259.47,449.13 259.47,453.92 262.3,453.92 262.3,449.13 268.71,449.13 268.71,450.75 268.71,450.75 
		268.71,463.16 271.55,463.16 271.55,458.37 276.33,458.37 276.33,455.54 271.55,455.54 271.55,449.13 277.96,449.13 277.96,453.92 
		280.79,453.92 280.79,449.13 285.58,449.13 285.58,446.29 280.79,446.29 280.79,441.51 277.96,441.51 277.96,446.29 271.55,446.29 
		271.55,439.89 276.33,439.89 276.33,437.05 271.55,437.05 271.55,432.26 	"/>
	<path d="M206.17,485.57l63.96,63.96l63.96-63.96l-63.96-63.96L206.17,485.57z M270.13,545.28l-59.71-59.71l59.71-59.71l59.71,59.71
		L270.13,545.28z"/>
	<rect x="280.68" y="458.01" width="5.67" height="5.67"/>
	<rect x="292.02" y="458.01" width="5.67" height="5.67"/>
	<path d="M163.98,485.57h-14.56l0,13.34v0h0l14.56,0L163.98,485.57z M162.75,497.68l-12.1,0l0-12.1h12.1V497.68z"/>
	<polygon points="325.19,550 326.42,550 326.42,548.77 311.86,548.77 311.86,548.77 311.86,550 313.09,550 	"/>
	<rect x="301.78" y="493.39" width="4.79" height="2.83"/>
	<polygon points="213.84,550 215.06,550 227.17,550 228.39,550 228.39,548.77 228.39,548.77 213.84,548.77 	"/>
	<rect x="280.68" y="469.35" width="5.67" height="5.67"/>
	<rect x="297.69" y="463.68" width="5.67" height="5.67"/>
	<rect x="286.35" y="452.34" width="5.67" height="5.67"/>
	<rect x="301.78" y="474.91" width="4.79" height="2.83"/>
	<polygon points="306.57,477.74 306.57,477.74 306.57,482.53 306.57,482.53 306.57,488.61 306.57,488.61 306.57,493.39 
		306.57,493.39 306.57,496.23 306.57,496.23 306.57,501.01 309.4,501.01 309.4,496.23 314.19,496.23 314.19,493.39 309.4,493.39 
		309.4,486.98 315.81,486.98 315.81,491.77 318.64,491.77 318.64,486.98 323.43,486.98 323.43,484.15 318.64,484.15 318.64,479.36 
		315.81,479.36 315.81,484.15 309.4,484.15 309.4,477.74 314.19,477.74 314.19,474.91 309.4,474.91 309.4,470.12 306.57,470.12 
		306.57,474.91 306.57,474.91 	"/>
	<rect x="286.35" y="475.02" width="5.67" height="5.67"/>
	<rect x="292.02" y="469.35" width="5.67" height="5.67"/>
	<path d="M192.37,541.86L192.37,541.86L192.37,541.86l14.56,0V527.3h-14.56L192.37,541.86z M193.59,528.53l12.1,0v12.1l-12.1,0
		L193.59,528.53z"/>
	<rect x="275.01" y="463.68" width="5.67" height="5.67"/>
	<path d="M326.42,407.8L326.42,407.8L326.42,407.8l-14.56,0l0,14.56v0h14.56L326.42,407.8z M325.19,421.13h-12.1l0-12.1l12.1,0l0,0
		h0L325.19,421.13z"/>
	<path d="M354.81,505.83L354.81,505.83L354.81,505.83l0,14.56l14.56,0h0v0l0-14.56L354.81,505.83z M356.04,519.16v-12.1h12.1l0,12.1
		L356.04,519.16z"/>
	<path d="M333.34,527.3v14.56l14.56,0h0v0l0-14.56H333.34z M334.56,540.63v-12.1l12.1,0l0,12.1L334.56,540.63z"/>
	<path d="M376.28,485.57l0,13.34l14.56,0h0v0l0-13.34H376.28z M377.51,497.68v-12.1h12.1l0,12.1L377.51,497.68z"/>
	<path d="M369.37,450.75L369.37,450.75L369.37,450.75l-14.56,0l0,14.56v0h0l14.56,0L369.37,450.75z M368.14,464.08l-12.1,0v-12.1
		l12.1,0L368.14,464.08z"/>
	<polygon points="378.08,547.67 380.41,550 382.56,550 382.61,549.95 373.54,540.88 372.42,542.01 375.82,545.41 372.07,549.17 
		368.66,545.76 366.4,548.02 368.39,550 375.74,550 	"/>
	<polygon points="392.96,546.01 396.37,542.6 394.11,540.35 390.71,543.76 386.35,539.4 390.1,535.64 393.51,539.05 394.64,537.92 
		385.57,528.85 384.44,529.98 387.85,533.39 384.09,537.14 380.69,533.74 378.43,535.99 381.84,539.4 378.08,543.16 374.67,539.75 
		373.55,540.88 382.61,549.94 383.74,548.82 380.33,545.41 384.09,541.65 388.45,546.01 385.04,549.42 385.63,550 388.97,550 
		390.71,548.27 392.44,550 395.79,550 396.37,549.42 	"/>
	<path d="M376.28,472.22l0,13.34h14.56l0-13.34v0h0L376.28,472.22z M389.61,485.55h-12.1v-12.1l12.1,0L389.61,485.55z"/>
	<path d="M170.89,520.38L170.89,520.38L170.89,520.38l14.56,0l0-14.56v0h0l-14.56,0L170.89,520.38z M172.12,507.05h12.1v12.1
		l-12.1,0L172.12,507.05z"/>
	<path d="M270.13,341.17l-144.4,144.4L190.16,550h5.64l4.21-4.21l4.21,4.21h2.89l7.98-7.98l5.65,5.65l6.26-6.26l8.59,8.59h4.24
		l-64.43-64.43l94.73-94.73l94.73,94.73L300.42,550h4.24l8.59-8.59l6.26,6.26l5.65-5.65l7.98,7.98h2.89l4.21-4.21l4.21,4.21h5.64
		l64.43-64.43L270.13,341.17z M388.1,463.38l-4.91,4.91l-9.89-9.89l4.91-4.91L388.1,463.38z M366.63,441.91l-4.91,4.91l-9.89-9.89
		l4.91-4.91L366.63,441.91z M345.16,420.43l-4.91,4.91l-9.89-9.89l4.91-4.91L345.16,420.43z M323.68,398.96l-4.91,4.91l-9.89-9.89
		l4.91-4.91L323.68,398.96z M302.21,377.49l-4.91,4.91l-9.89-9.89l4.91-4.91L302.21,377.49z M247.94,367.59l4.91,4.91l-9.89,9.89
		l-4.91-4.91L247.94,367.59z M226.47,389.07l4.91,4.91l-9.89,9.89l-4.91-4.91L226.47,389.07z M205,410.54l4.91,4.91l-9.89,9.89
		l-4.91-4.91L205,410.54z M183.52,432.01l4.91,4.91l-9.89,9.89l-4.91-4.91L183.52,432.01z M162.05,453.49l4.91,4.91l-9.89,9.89
		l-4.91-4.91L162.05,453.49z M141.99,497.59l6.32-6.32l-5.65-5.65l0.04-0.04h-2.91l5.7,5.7l-4.91,4.91l-9.89-9.89l0.71-0.71h-1.42
		l0,0l0,0h1.42l-0.71-0.71l9.89-9.89l4.91,4.91l-5.7,5.7h2.91l-0.04-0.04l5.65-5.65l-6.32-6.32l8.75-8.75l6.32,6.32l5.65-5.65
		l8.01,8.01l-5.65,5.65l6.26,6.26l-0.18,0.18l0.18,0.18l-6.26,6.26l5.65,5.65l-8.01,8.01l-5.65-5.65l-6.32,6.32L141.99,497.59z
		 M152.16,507.75l4.91-4.91l9.89,9.89l-4.91,4.91L152.16,507.75z M173.63,529.23l4.91-4.91l9.89,9.89l-4.91,4.91L173.63,529.23z
		 M225.59,540l-4.84,4.84l-9.89-9.89l4.84-4.84L225.59,540z M214.28,528.69l-6.26,6.26l5.65,5.65l-8.01,8.01l-5.65-5.65l-6.32,6.32
		l-8.75-8.75l6.32-6.32l-5.65-5.65l8.01-8.01l5.65,5.65l6.26-6.26L214.28,528.69z M204.12,518.53l-4.84,4.84l-9.89-9.89l4.84-4.84
		L204.12,518.53z M192.81,507.22l-6.26,6.26l5.65,5.65l-8.01,8.01l-5.65-5.65l-6.32,6.32l-8.75-8.75l6.32-6.32l-5.65-5.65l8.01-8.01
		l5.65,5.65l6.26-6.26L192.81,507.22z M182.64,497.05l-4.84,4.84l-9.89-9.89l4.84-4.84L182.64,497.05z M172.75,483.98l-4.84-4.84
		l9.89-9.89l4.84,4.84L172.75,483.98z M184.06,472.67l-6.26-6.26l-5.65,5.65l-8.01-8.01l5.65-5.65l-6.32-6.32l8.75-8.75l6.32,6.32
		l5.65-5.65l8.01,8.01l-5.65,5.65l6.26,6.26L184.06,472.67z M194.22,462.5l-4.84-4.84l9.89-9.89l4.84,4.84L194.22,462.5z
		 M205.53,451.19l-6.26-6.26l-5.65,5.65l-8.01-8.01l5.65-5.65l-6.32-6.32l8.75-8.75l6.32,6.32l5.65-5.65l8.01,8.01l-5.65,5.65
		l6.26,6.26L205.53,451.19z M215.7,441.03l-4.84-4.84l9.89-9.89l4.84,4.84L215.7,441.03z M227.01,429.72l-6.26-6.26l-5.65,5.65
		l-8.01-8.01l5.65-5.65l-6.32-6.32l8.75-8.75l6.32,6.32l5.65-5.65l8.01,8.01l-5.65,5.65l6.26,6.26L227.01,429.72z M237.17,419.56
		l-4.84-4.84l9.89-9.89l4.84,4.84L237.17,419.56z M248.48,408.25l-6.26-6.26l-5.65,5.65l-8.01-8.01l5.65-5.65l-6.32-6.32l8.75-8.75
		l6.32,6.32l5.65-5.65l8.01,8.01l-5.65,5.65l6.26,6.26L248.48,408.25z M258.64,398.08l-4.84-4.84l9.89-9.89l4.84,4.84L258.64,398.08
		z M270.13,386.6l-0.18,0.18l-6.26-6.26l-5.65,5.65l-8.01-8.01l5.65-5.65l-6.32-6.32l8.75-8.75l6.32,6.32l5.65-5.65l0.04,0.04v-2.91
		l-5.7,5.7l-4.91-4.91l9.89-9.89l0.71,0.71v-1.42l0,0l0,0v1.42l0.71-0.71l9.89,9.89l-4.91,4.91l-5.7-5.7v2.91l0.04-0.04l5.65,5.65
		l6.32-6.32l8.75,8.75l-6.32,6.32l5.65,5.65l-8.01,8.01l-5.65-5.65l-6.26,6.26L270.13,386.6z M271.72,388.19l4.84-4.84l9.89,9.89
		l-4.84,4.84L271.72,388.19z M283.03,399.5l6.26-6.26l-5.65-5.65l8.01-8.01l5.65,5.65l6.32-6.32l8.75,8.75l-6.32,6.32l5.65,5.65
		l-8.01,8.01l-5.65-5.65l-6.26,6.26L283.03,399.5z M293.19,409.66l4.84-4.84l9.89,9.89l-4.84,4.84L293.19,409.66z M304.5,420.97
		l6.26-6.26l-5.65-5.65l8.01-8.01l5.65,5.65l6.32-6.32l8.75,8.75l-6.32,6.32l5.65,5.65l-8.01,8.01l-5.65-5.65l-6.26,6.26
		L304.5,420.97z M314.67,431.13l4.84-4.84l9.89,9.89l-4.84,4.84L314.67,431.13z M325.98,442.44l6.26-6.26l-5.65-5.65l8.01-8.01
		l5.65,5.65l6.32-6.32l8.75,8.75l-6.32,6.32l5.65,5.65l-8.01,8.01l-5.65-5.65l-6.26,6.26L325.98,442.44z M336.14,452.61l4.84-4.84
		l9.89,9.89l-4.84,4.84L336.14,452.61z M347.45,463.92l6.26-6.26l-5.65-5.65l8.01-8.01l5.65,5.65l6.32-6.32l8.75,8.75l-6.32,6.32
		l5.65,5.65l-8.01,8.01l-5.65-5.65l-6.26,6.26L347.45,463.92z M357.61,474.08l4.84-4.84l9.89,9.89l-4.84,4.84L357.61,474.08z
		 M367.51,487.16l4.84,4.84l-9.89,9.89l-4.84-4.84L367.51,487.16z M346.03,508.63l4.84,4.84l-9.89,9.89l-4.84-4.84L346.03,508.63z
		 M319.51,544.84l-4.84-4.84l9.89-9.89l4.84,4.84L319.51,544.84z M346.57,549.29l-6.32-6.32l-5.65,5.65l-8.01-8.01l5.65-5.65
		l-6.26-6.26l8.75-8.75l6.26,6.26l5.65-5.65l8.01,8.01l-5.65,5.65l6.32,6.32L346.57,549.29z M356.73,539.12l-4.91-4.91l9.89-9.89
		l4.91,4.91L356.73,539.12z M368.04,527.81l-6.32-6.32l-5.65,5.65l-8.01-8.01l5.65-5.65l-6.26-6.26l8.75-8.75l6.26,6.26l5.65-5.65
		l8.01,8.01l-5.65,5.65l6.32,6.32L368.04,527.81z M378.21,517.65l-4.91-4.91l9.89-9.89l4.91,4.91L378.21,517.65z M409.57,486.28
		l-9.89,9.89l-4.91-4.91l5.7-5.7h-2.91l0.04,0.04l-5.65,5.65l6.32,6.32l-8.75,8.75l-6.32-6.32l-5.65,5.65l-8.01-8.01l5.65-5.65
		l-6.26-6.26l0.18-0.18l-0.18-0.18l6.26-6.26l-5.65-5.65l8.01-8.01l5.65,5.65l6.32-6.32l8.75,8.75l-6.32,6.32l5.65,5.65l-0.04,0.04
		h2.91l-5.7-5.7l4.91-4.91l9.89,9.89l-0.71,0.71h1.42l0,0l0,0h-1.42L409.57,486.28z"/>
	<path d="M347.89,429.28L347.89,429.28L347.89,429.28l-14.56,0v14.56h0l14.56,0L347.89,429.28z M346.67,442.61h-12.1v-12.1l12.1,0
		L346.67,442.61z"/>
	<path d="M192.37,429.28L192.37,429.28l0,14.56l14.56,0h0v-14.56L192.37,429.28L192.37,429.28z M205.7,430.5v12.1h-12.1l0-12.1
		L205.7,430.5z"/>
	<path d="M235.31,386.33L235.31,386.33l0,14.56l14.56,0h0v-14.56L235.31,386.33L235.31,386.33z M248.64,387.56l0,12.1h-12.1l0-12.1
		L248.64,387.56z"/>
	<polygon points="270.13,327.91 112.47,485.57 176.9,550 181.15,550 116.71,485.57 270.13,332.15 423.55,485.57 359.11,550 
		363.36,550 427.79,485.57 	"/>
	<path d="M170.89,450.75L170.89,450.75L170.89,450.75l0,14.56l14.56,0h0v0l0-14.56L170.89,450.75z M184.22,464.08l-12.1,0l0-12.1
		l12.1,0V464.08z"/>
	<path d="M213.84,407.8L213.84,407.8L213.84,407.8l0,14.56h14.56v0l0-14.56L213.84,407.8z M215.06,421.13l0-12.1h0l0,0l12.1,0
		l0,12.1H215.06z"/>
	<path d="M256.78,364.86L256.78,364.86l0,14.56h13.34v-14.56L256.78,364.86L256.78,364.86z M270.11,366.08v12.1h-12.1l0-12.1
		L270.11,366.08z"/>
	<path d="M304.95,386.33L304.95,386.33L304.95,386.33l-14.56,0l0,14.56v0h0l14.56,0L304.95,386.33z M303.72,399.66h-12.1l0-12.1
		l12.1,0L303.72,399.66z"/>
	<path d="M283.47,364.86L283.47,364.86L283.47,364.86l-13.34,0v14.56h13.34L283.47,364.86z M282.25,378.19h-12.1v-12.1l12.1,0
		L282.25,378.19z"/>
</g>
<g>
</g>
<g>
</g>
<g>
</g>
<g>
</g>
<g>
</g>
<g>
</g>
<g>
</g>
<g>
</g>
<g>
</g>
<g>
</g>
<g>
</g>
<g>
</g>
<g>
</g>
<g>
</g>
<g>
</g>
</svg>
