<?xml version="1.0" encoding="utf-8"?>
<!-- Generator: Adobe Illustrator 27.2.0, SVG Export Plug-In . SVG Version: 6.00 Build 0)  -->
<svg version="1.1" id="Layer_1" xmlns="http://www.w3.org/2000/svg" xmlns:xlink="http://www.w3.org/1999/xlink" x="0px" y="0px"
	 viewBox="0 0 800 600" style="enable-background:new 0 0 800 600;" xml:space="preserve">
<g>
	<line style="fill:none;stroke:#000000;stroke-width:3;stroke-miterlimit:10;" x1="151.8" y1="506.38" x2="93.62" y2="448.2"/>
	<line style="fill:none;stroke:#000000;stroke-width:3;stroke-miterlimit:10;" x1="93.62" y1="506.38" x2="151.8" y2="448.2"/>
	<g>
		<g>
			<circle style="fill:none;stroke:#000000;stroke-width:3;stroke-miterlimit:10;" cx="150.31" cy="477.29" r="13.62"/>
			<circle cx="150.31" cy="477.29" r="6.08"/>
		</g>
		<g>
			
				<rect x="162.83" y="490.04" transform="matrix(-1.836970e-16 1 -1 -1.836970e-16 658.5374 327.2133)" width="5.67" height="5.67"/>
			<rect x="168.5" y="495.71" transform="matrix(-1.836970e-16 1 -1 -1.836970e-16 669.876 327.2133)" width="5.67" height="5.67"/>
		</g>
		<g>
			
				<rect x="162.83" y="458.87" transform="matrix(4.411677e-11 -1 1 4.411677e-11 -296.0414 627.3655)" width="5.67" height="5.67"/>
			<rect x="168.5" y="453.2" transform="matrix(4.588158e-11 -1 1 4.588158e-11 -284.7028 627.3655)" width="5.67" height="5.67"/>
		</g>
		<g>
			
				<rect x="167.07" y="474.45" transform="matrix(-1.836970e-16 1 -1 -1.836970e-16 647.1988 307.3799)" width="5.67" height="5.67"/>
			
				<rect x="172.74" y="468.79" transform="matrix(-1.836970e-16 1 -1 -1.836970e-16 647.1988 296.0414)" width="5.67" height="5.67"/>
			
				<rect x="178.41" y="463.12" transform="matrix(-1.836970e-16 1 -1 -1.836970e-16 647.1988 284.7028)" width="5.67" height="5.67"/>
			
				<rect x="172.74" y="480.12" transform="matrix(-1.836970e-16 1 -1 -1.836970e-16 658.5374 307.3799)" width="5.67" height="5.67"/>
			
				<rect x="178.41" y="474.45" transform="matrix(-1.836970e-16 1 -1 -1.836970e-16 658.5374 296.0414)" width="5.67" height="5.67"/>
			
				<rect x="184.08" y="468.79" transform="matrix(-1.764994e-12 1 -1 -1.764994e-12 658.5374 284.7028)" width="5.67" height="5.67"/>
			
				<rect x="178.41" y="485.79" transform="matrix(-1.836970e-16 1 -1 -1.836970e-16 669.876 307.3799)" width="5.67" height="5.67"/>
			
				<rect x="184.08" y="480.12" transform="matrix(-1.764994e-12 1 -1 -1.764994e-12 669.876 296.0414)" width="5.67" height="5.67"/>
			
				<rect x="189.75" y="474.45" transform="matrix(-1.836970e-16 1 -1 -1.836970e-16 669.876 284.7028)" width="5.67" height="5.67"/>
		</g>
	</g>
	<g>
		<g>
			<circle style="fill:none;stroke:#000000;stroke-width:3;stroke-miterlimit:10;" cx="122.71" cy="449.69" r="13.62"/>
			<circle cx="122.71" cy="449.69" r="6.08"/>
		</g>
		<g>
			<rect x="135.46" y="431.5" width="5.67" height="5.67"/>
			<rect x="141.13" y="425.83" width="5.67" height="5.67"/>
		</g>
		<g>
			
				<rect x="104.29" y="431.5" transform="matrix(-1 -9.336722e-11 9.336722e-11 -1 214.2493 868.6759)" width="5.67" height="5.67"/>
			
				<rect x="98.62" y="425.83" transform="matrix(-1 -9.176317e-11 9.176317e-11 -1 202.9108 857.3373)" width="5.67" height="5.67"/>
		</g>
		<g>
			<rect x="119.88" y="427.26" width="5.67" height="5.67"/>
			<rect x="114.21" y="421.59" width="5.67" height="5.67"/>
			<rect x="108.54" y="415.92" width="5.67" height="5.67"/>
			<rect x="125.55" y="421.59" width="5.67" height="5.67"/>
			<rect x="119.88" y="415.92" width="5.67" height="5.67"/>
			<rect x="114.21" y="410.25" width="5.67" height="5.67"/>
			<rect x="131.21" y="415.92" width="5.67" height="5.67"/>
			<rect x="125.55" y="410.25" width="5.67" height="5.67"/>
			<rect x="119.88" y="404.58" width="5.67" height="5.67"/>
		</g>
	</g>
	<g>
		<g>
			<circle style="fill:none;stroke:#000000;stroke-width:3;stroke-miterlimit:10;" cx="95.11" cy="477.29" r="13.62"/>
			<circle cx="95.11" cy="477.29" r="6.08"/>
		</g>
		<g>
			<rect x="76.92" y="458.87" transform="matrix(8.823348e-11 -1 1 8.823348e-11 -381.9442 541.4626)" width="5.67" height="5.67"/>
			<rect x="71.26" y="453.2" transform="matrix(8.999829e-11 -1 1 8.999829e-11 -381.9442 530.124)" width="5.67" height="5.67"/>
		</g>
		<g>
			
				<rect x="76.92" y="490.04" transform="matrix(-1.357192e-10 1 -1 -1.357192e-10 572.6345 413.1161)" width="5.67" height="5.67"/>
			
				<rect x="71.26" y="495.71" transform="matrix(-1.341151e-10 1 -1 -1.341151e-10 572.6345 424.4547)" width="5.67" height="5.67"/>
		</g>
		<g>
			<rect x="72.68" y="474.45" transform="matrix(8.999829e-11 -1 1 8.999829e-11 -401.7776 552.8012)" width="5.67" height="5.67"/>
			<rect x="67.01" y="480.12" transform="matrix(8.999829e-11 -1 1 8.999829e-11 -413.1161 552.8012)" width="5.67" height="5.67"/>
			<rect x="61.34" y="485.79" transform="matrix(8.983753e-11 -1 1 8.983753e-11 -424.4547 552.8012)" width="5.67" height="5.67"/>
			<rect x="67.01" y="468.79" transform="matrix(8.999829e-11 -1 1 8.999829e-11 -401.7776 541.4626)" width="5.67" height="5.67"/>
			<rect x="61.34" y="474.45" transform="matrix(8.999829e-11 -1 1 8.999829e-11 -413.1161 541.4626)" width="5.67" height="5.67"/>
			<rect x="55.67" y="480.12" transform="matrix(8.983753e-11 -1 1 8.983753e-11 -424.4547 541.4626)" width="5.67" height="5.67"/>
			<rect x="61.34" y="463.12" transform="matrix(8.999829e-11 -1 1 8.999829e-11 -401.7776 530.124)" width="5.67" height="5.67"/>
			<rect x="55.67" y="468.79" transform="matrix(9.176310e-11 -1 1 9.176310e-11 -413.1161 530.124)" width="5.67" height="5.67"/>
			<rect x="50" y="474.45" transform="matrix(8.999829e-11 -1 1 8.999829e-11 -424.4547 530.124)" width="5.67" height="5.67"/>
		</g>
	</g>
	<g>
		<g>
			<circle style="fill:none;stroke:#000000;stroke-width:3;stroke-miterlimit:10;" cx="122.71" cy="504.89" r="13.62"/>
			<circle cx="122.71" cy="504.89" r="6.08"/>
		</g>
		<g>
			
				<rect x="104.29" y="517.41" transform="matrix(-1 -1.341151e-10 1.341151e-10 -1 214.2493 1040.4816)" width="5.67" height="5.67"/>
			
				<rect x="98.62" y="523.08" transform="matrix(-1 -1.373236e-10 1.373236e-10 -1 202.9108 1051.8202)" width="5.67" height="5.67"/>
		</g>
		<g>
			<rect x="135.46" y="517.41" width="5.67" height="5.67"/>
			<rect x="141.13" y="523.08" width="5.67" height="5.67"/>
		</g>
		<g>
			
				<rect x="119.88" y="521.65" transform="matrix(-1 -1.337944e-10 1.337944e-10 -1 245.4212 1048.9763)" width="5.67" height="5.67"/>
			
				<rect x="125.55" y="527.32" transform="matrix(-1 -1.376447e-10 1.376447e-10 -1 256.7598 1060.3149)" width="5.67" height="5.67"/>
			
				<rect x="131.21" y="532.99" transform="matrix(-1 -1.341151e-10 1.341151e-10 -1 268.0984 1071.6536)" width="5.67" height="5.67"/>
			
				<rect x="114.21" y="527.32" transform="matrix(-1 -1.357196e-10 1.357196e-10 -1 234.0827 1060.3149)" width="5.67" height="5.67"/>
			
				<rect x="119.88" y="532.99" transform="matrix(-1 -1.337944e-10 1.337944e-10 -1 245.4212 1071.6536)" width="5.67" height="5.67"/>
			
				<rect x="125.55" y="538.66" transform="matrix(-1 -1.341151e-10 1.341151e-10 -1 256.7598 1082.9921)" width="5.67" height="5.67"/>
			
				<rect x="108.54" y="532.99" transform="matrix(-1 -1.321899e-10 1.321899e-10 -1 222.7441 1071.6536)" width="5.67" height="5.67"/>
			
				<rect x="114.21" y="538.66" transform="matrix(-1 -1.337944e-10 1.337944e-10 -1 234.0827 1082.9921)" width="5.67" height="5.67"/>
			
				<rect x="119.88" y="544.33" transform="matrix(-1 -1.305859e-10 1.305859e-10 -1 245.4212 1094.3307)" width="5.67" height="5.67"/>
		</g>
	</g>
	<g>
		<rect x="150.97" y="443.36" transform="matrix(0.7071 0.7071 -0.7071 0.7071 360.5567 21.9327)" width="5.67" height="5.67"/>
		<rect x="150.97" y="435.34" transform="matrix(0.7071 0.7071 -0.7071 0.7071 354.8874 19.5844)" width="5.67" height="5.67"/>
		<rect x="150.97" y="427.33" transform="matrix(0.7071 0.7071 -0.7071 0.7071 349.2181 17.2361)" width="5.67" height="5.67"/>
		<rect x="158.99" y="443.36" transform="matrix(0.7071 0.7071 -0.7071 0.7071 362.905 16.2634)" width="5.67" height="5.67"/>
		<rect x="158.99" y="435.34" transform="matrix(0.7071 0.7071 -0.7071 0.7071 357.2357 13.9151)" width="5.67" height="5.67"/>
		<rect x="158.99" y="427.33" transform="matrix(0.7071 0.7071 -0.7071 0.7071 351.5664 11.5668)" width="5.67" height="5.67"/>
		<rect x="167" y="443.36" transform="matrix(0.7071 0.7071 -0.7071 0.7071 365.2533 10.5941)" width="5.67" height="5.67"/>
		<rect x="167" y="435.34" transform="matrix(0.7071 0.7071 -0.7071 0.7071 359.584 8.2458)" width="5.67" height="5.67"/>
		<rect x="167" y="427.33" transform="matrix(0.7071 0.7071 -0.7071 0.7071 353.9147 5.8975)" width="5.67" height="5.67"/>
	</g>
	<g>
		<rect x="88.78" y="443.36" transform="matrix(0.7071 -0.7071 0.7071 0.7071 -288.6745 195.4717)" width="5.67" height="5.67"/>
		<rect x="80.77" y="443.36" transform="matrix(0.7071 -0.7071 0.7071 0.7071 -291.0228 189.8024)" width="5.67" height="5.67"/>
		<rect x="72.75" y="443.36" transform="matrix(0.7071 -0.7071 0.7071 0.7071 -293.3711 184.1331)" width="5.67" height="5.67"/>
		<rect x="88.78" y="435.34" transform="matrix(0.7071 -0.7071 0.7071 0.7071 -283.0052 193.1234)" width="5.67" height="5.67"/>
		<rect x="80.77" y="435.34" transform="matrix(0.7071 -0.7071 0.7071 0.7071 -285.3535 187.4541)" width="5.67" height="5.67"/>
		<rect x="72.75" y="435.34" transform="matrix(0.7071 -0.7071 0.7071 0.7071 -287.7018 181.7848)" width="5.67" height="5.67"/>
		<rect x="88.78" y="427.33" transform="matrix(0.7071 -0.7071 0.7071 0.7071 -277.3359 190.7751)" width="5.67" height="5.67"/>
		<rect x="80.77" y="427.33" transform="matrix(0.7071 -0.7071 0.7071 0.7071 -279.6842 185.1058)" width="5.67" height="5.67"/>
		<rect x="72.75" y="427.33" transform="matrix(0.7071 -0.7071 0.7071 0.7071 -282.0325 179.4365)" width="5.67" height="5.67"/>
	</g>
	<g>
		<rect x="88.78" y="505.55" transform="matrix(-0.7071 -0.7071 0.7071 -0.7071 -203.0787 932.6461)" width="5.67" height="5.67"/>
		<rect x="88.78" y="513.56" transform="matrix(-0.7071 -0.7071 0.7071 -0.7071 -208.748 946.3329)" width="5.67" height="5.67"/>
		<rect x="88.78" y="521.58" transform="matrix(-0.7071 -0.7071 0.7071 -0.7071 -214.4172 960.0198)" width="5.67" height="5.67"/>
		<rect x="80.77" y="505.55" transform="matrix(-0.7071 -0.7071 0.7071 -0.7071 -216.7655 926.9768)" width="5.67" height="5.67"/>
		<rect x="80.77" y="513.56" transform="matrix(-0.7071 -0.7071 0.7071 -0.7071 -222.4348 940.6636)" width="5.67" height="5.67"/>
		<rect x="80.77" y="521.58" transform="matrix(-0.7071 -0.7071 0.7071 -0.7071 -228.1041 954.3505)" width="5.67" height="5.67"/>
		<rect x="72.75" y="505.55" transform="matrix(-0.7071 -0.7071 0.7071 -0.7071 -230.4524 921.3075)" width="5.67" height="5.67"/>
		<rect x="72.75" y="513.56" transform="matrix(-0.7071 -0.7071 0.7071 -0.7071 -236.1217 934.9944)" width="5.67" height="5.67"/>
		<rect x="72.75" y="521.58" transform="matrix(-0.7071 -0.7071 0.7071 -0.7071 -241.791 948.6813)" width="5.67" height="5.67"/>
	</g>
	<g>
		<rect x="150.97" y="505.55" transform="matrix(-0.7071 0.7071 -0.7071 -0.7071 622.0389 759.1071)" width="5.67" height="5.67"/>
		<rect x="158.99" y="505.55" transform="matrix(-0.7071 0.7071 -0.7071 -0.7071 635.7258 753.4377)" width="5.67" height="5.67"/>
		<rect x="167" y="505.55" transform="matrix(-0.7071 0.7071 -0.7071 -0.7071 649.4127 747.7684)" width="5.67" height="5.67"/>
		<rect x="150.97" y="513.56" transform="matrix(-0.7071 0.7071 -0.7071 -0.7071 627.7083 772.7939)" width="5.67" height="5.67"/>
		<rect x="158.99" y="513.56" transform="matrix(-0.7071 0.7071 -0.7071 -0.7071 641.3951 767.1246)" width="5.67" height="5.67"/>
		<rect x="167" y="513.56" transform="matrix(-0.7071 0.7071 -0.7071 -0.7071 655.082 761.4553)" width="5.67" height="5.67"/>
		<rect x="150.97" y="521.58" transform="matrix(-0.7071 0.7071 -0.7071 -0.7071 633.3775 786.4808)" width="5.67" height="5.67"/>
		<rect x="158.99" y="521.58" transform="matrix(-0.7071 0.7071 -0.7071 -0.7071 647.0644 780.8115)" width="5.67" height="5.67"/>
		<rect x="167" y="521.58" transform="matrix(-0.7071 0.7071 -0.7071 -0.7071 660.7513 775.1422)" width="5.67" height="5.67"/>
	</g>
</g>
<g>
</g>
<g>
</g>
<g>
</g>
<g>
</g>
<g>
</g>
<g>
</g>
<g>
</g>
<g>
</g>
<g>
</g>
<g>
</g>
<g>
</g>
<g>
</g>
<g>
</g>
<g>
</g>
<g>
</g>
</svg>
