<?xml version="1.0" encoding="utf-8"?>
<!-- Generator: Adobe Illustrator 27.2.0, SVG Export Plug-In . SVG Version: 6.00 Build 0)  -->
<svg version="1.1" id="Layer_1" xmlns="http://www.w3.org/2000/svg" xmlns:xlink="http://www.w3.org/1999/xlink" x="0px" y="0px"
	 viewBox="0 0 800 600" style="enable-background:new 0 0 800 600;" xml:space="preserve">
<g>
	<g>
		<polygon points="440.37,424.6 438.52,437.33 451.25,435.47 		"/>
		<rect x="442.14" y="452.24" transform="matrix(0.7071 -0.7071 0.7071 0.7071 -191.4586 447.9362)" width="5.67" height="5.67"/>
		<rect x="442.14" y="444.23" transform="matrix(0.7071 -0.7071 0.7071 0.7071 -185.7893 445.5879)" width="5.67" height="5.67"/>
		<rect x="434.12" y="444.23" transform="matrix(0.7072 -0.707 0.707 0.7072 -188.1369 439.8422)" width="5.67" height="5.67"/>
		<polygon points="448.24,419.25 446.81,429.03 456.59,427.6 		"/>
		<polygon points="434.52,390.75 422.7,390.75 428.61,398.68 		"/>
		<polygon points="464.43,435.44 463.01,445.23 472.79,443.8 		"/>
		<rect x="411.6" y="400.26" width="5.67" height="5.67"/>
		<rect x="417.27" y="405.93" width="5.67" height="5.67"/>
		<rect x="422.94" y="411.6" width="5.67" height="5.67"/>
		<polygon points="479.21,461.43 488.99,460 480.63,451.64 		"/>
		<rect x="417.27" y="417.27" width="5.67" height="5.67"/>
		<rect x="408.77" y="394.59" width="2.83" height="5.67"/>
		<polygon points="436.3,400.09 420.92,400.09 428.61,410.41 		"/>
		<rect x="411.6" y="422.94" width="5.67" height="5.67"/>
		<rect x="408.77" y="428.61" width="2.83" height="5.67"/>
		<polygon points="488.67,500.56 472.47,500.56 472.47,484.36 456.27,484.36 456.27,468.16 440.07,468.16 440.07,451.96 
			423.88,451.96 423.88,435.77 408.77,435.77 408.77,439.46 488.67,519.36 		"/>
		<polygon points="408.77,404.3 408.77,408.54 414.67,414.44 408.77,420.33 408.77,424.58 418.91,414.44 		"/>
		<rect x="425.94" y="436.05" transform="matrix(0.7071 -0.7071 0.7071 0.7071 -184.7494 431.7381)" width="5.67" height="5.67"/>
		<rect x="425.94" y="428.03" transform="matrix(0.7071 -0.7071 0.7071 0.7071 -179.0801 429.3898)" width="5.67" height="5.67"/>
		<polygon points="408.77,410.43 408.77,418.44 412.78,414.44 		"/>
		<polygon points="408.77,373.48 408.77,381.41 414.68,373.48 		"/>
		<polygon points="408.77,382.82 408.77,393.14 416.46,382.82 		"/>
		<rect x="417.93" y="428.03" transform="matrix(0.7071 -0.7071 0.7071 0.7071 -181.4284 423.7206)" width="5.67" height="5.67"/>
		<rect x="474.54" y="476.62" transform="matrix(0.7071 -0.7071 0.7071 0.7071 -199.2079 477.9826)" width="5.67" height="5.67"/>
		<rect x="466.52" y="476.62" transform="matrix(0.7071 -0.7071 0.7071 0.7071 -201.5562 472.3133)" width="5.67" height="5.67"/>
		<rect x="458.34" y="468.44" transform="matrix(0.7071 -0.7071 0.7071 0.7071 -198.1677 464.1335)" width="5.67" height="5.67"/>
		<rect x="474.54" y="484.64" transform="matrix(0.7071 -0.7071 0.7071 0.7071 -204.8772 480.3309)" width="5.67" height="5.67"/>
		<polygon points="456.57,440.79 454.71,453.52 467.44,451.67 		"/>
		<rect x="450.32" y="460.42" transform="matrix(0.7071 -0.7071 0.7071 0.7071 -194.8468 456.1159)" width="5.67" height="5.67"/>
		<rect x="458.34" y="460.42" transform="matrix(0.7071 -0.7071 0.7071 0.7071 -192.4985 461.7852)" width="5.67" height="5.67"/>
		<rect x="502.71" y="511.98" width="3.48" height="5.67"/>
		<polygon points="472.77,456.99 470.91,469.72 483.64,467.87 		"/>
		<rect x="502.71" y="523.31" width="3.48" height="5.67"/>
		<rect x="490.74" y="500.84" transform="matrix(0.7071 -0.7071 0.7071 0.7071 -211.5864 496.529)" width="5.67" height="5.67"/>
		<rect x="482.72" y="492.82" transform="matrix(0.7071 -0.7071 0.7071 0.7071 -208.2654 488.5114)" width="5.67" height="5.67"/>
		<rect x="490.74" y="492.82" transform="matrix(0.7071 -0.7071 0.7071 0.7071 -205.9171 494.1807)" width="5.67" height="5.67"/>
		<rect x="497.04" y="517.65" width="5.67" height="5.67"/>
		<polygon points="506.2,476.06 505.82,476.44 506.2,476.49 		"/>
		<polygon points="496.83,467.84 495.4,477.62 505.19,476.2 		"/>
		<polygon points="487.11,485.92 499.84,484.06 488.96,473.19 		"/>
		<rect x="445.62" y="524.49" width="5.67" height="5.67"/>
		<rect x="418.61" y="491.81" transform="matrix(0.7071 -0.7071 0.7071 0.7071 -228.1224 447.2169)" width="14.34" height="14.34"/>
		<rect x="422.94" y="513.15" width="5.67" height="5.67"/>
		<rect x="417.27" y="507.48" width="5.67" height="5.67"/>
		<rect x="411.6" y="501.81" width="5.67" height="5.67"/>
		<rect x="411.6" y="535.83" width="5.67" height="5.67"/>
		<rect x="417.27" y="518.82" width="5.67" height="5.67"/>
		<rect x="411.6" y="524.49" width="5.67" height="5.67"/>
		<rect x="445.62" y="501.81" width="5.67" height="5.67"/>
		<rect x="439.95" y="496.14" width="5.67" height="5.67"/>
		<rect x="411.6" y="490.47" width="5.67" height="5.67"/>
		<rect x="434.28" y="490.47" width="5.67" height="5.67"/>
		<rect x="435.62" y="508.82" transform="matrix(0.7071 -0.7071 0.7071 0.7071 -235.1673 464.2247)" width="14.34" height="14.34"/>
		<rect x="417.27" y="484.8" width="5.67" height="5.67"/>
		<rect x="417.27" y="541.5" width="5.67" height="5.67"/>
		<rect x="428.61" y="484.8" width="5.67" height="5.67"/>
		<rect x="479.64" y="535.83" width="5.67" height="5.67"/>
		<rect x="473.97" y="530.16" width="5.67" height="5.67"/>
		<rect x="468.3" y="535.83" width="5.67" height="5.67"/>
		<rect x="428.61" y="541.5" width="5.67" height="5.67"/>
		<polygon points="408.77,456.95 501.82,550 501.82,550 506.06,550 506.06,550 408.77,452.71 		"/>
		<rect x="485.3" y="541.5" width="5.67" height="5.67"/>
		<rect x="452.62" y="525.82" transform="matrix(0.7071 -0.7071 0.7071 0.7071 -242.2125 481.2327)" width="14.34" height="14.34"/>
		<rect x="439.95" y="530.16" width="5.67" height="5.67"/>
		<rect x="418.61" y="525.82" transform="matrix(0.7071 -0.7071 0.7071 0.7071 -252.1754 457.18)" width="14.34" height="14.34"/>
		<rect x="434.28" y="535.83" width="5.67" height="5.67"/>
		<rect x="445.62" y="535.83" width="5.67" height="5.67"/>
		<rect x="462.63" y="541.5" width="5.67" height="5.67"/>
		<rect x="451.29" y="541.5" width="5.67" height="5.67"/>
		<rect x="490.97" y="547.17" width="5.67" height="2.83"/>
		<rect x="451.29" y="507.48" width="5.67" height="5.67"/>
		<polygon points="432.65,550 432.65,550 436.89,550 436.89,550 442.79,544.1 448.68,550 448.68,550 452.92,550 452.92,550 
			442.79,539.86 		"/>
		<polygon points="438.78,550 446.79,550 442.79,545.99 		"/>
		<polygon points="466.66,550 466.66,550 470.91,550 470.91,550 476.8,544.1 482.7,550 482.7,550 486.94,550 486.94,550 
			476.8,539.86 		"/>
		<rect x="422.94" y="547.17" width="5.67" height="2.83"/>
		<rect x="456.96" y="547.17" width="5.67" height="2.83"/>
		<polygon points="506.2,540.35 506.2,536.11 505.55,536.75 408.77,439.97 408.77,444.21 505.55,541 		"/>
		<polygon points="408.77,505.85 408.77,510.09 414.67,515.98 408.77,521.88 408.77,526.12 418.91,515.98 		"/>
		<polygon points="408.77,471.83 408.77,476.07 414.67,481.97 408.77,487.86 408.77,492.11 418.91,481.97 		"/>
		<polygon points="408.77,511.98 408.77,519.99 412.78,515.98 		"/>
		<polygon points="408.77,544.1 414.67,550 414.67,550 418.91,550 418.91,550 408.77,539.86 		"/>
		<polygon points="408.77,477.96 408.77,485.98 412.78,481.97 		"/>
		<polygon points="408.77,550 412.78,550 408.77,545.99 		"/>
		<rect x="408.77" y="530.16" width="2.83" height="5.67"/>
		<polygon points="472.79,550 480.81,550 476.8,545.99 		"/>
		<rect x="428.61" y="507.48" width="5.67" height="5.67"/>
		<rect x="456.96" y="513.15" width="5.67" height="5.67"/>
		<rect x="428.61" y="518.82" width="5.67" height="5.67"/>
		<rect x="434.28" y="501.81" width="5.67" height="5.67"/>
		<rect x="434.28" y="524.49" width="5.67" height="5.67"/>
		<rect x="451.29" y="518.82" width="5.67" height="5.67"/>
		<rect x="408.77" y="496.14" width="2.83" height="5.67"/>
		<rect x="411.6" y="467.8" width="5.67" height="5.67"/>
		<rect x="462.63" y="518.82" width="5.67" height="5.67"/>
		<rect x="417.27" y="473.46" width="5.67" height="5.67"/>
		<rect x="408.77" y="462.13" width="2.83" height="5.67"/>
		<rect x="422.94" y="479.13" width="5.67" height="5.67"/>
		<rect x="468.3" y="524.49" width="5.67" height="5.67"/>
	</g>
	<g>
		<polygon points="336.91,451.64 328.55,460 338.33,461.43 		"/>
		<rect x="292.15" y="440.49" width="5.67" height="5.67"/>
		<polygon points="285.74,461.67 295.53,460.24 287.17,451.88 		"/>
		<rect x="281.07" y="476.86" transform="matrix(0.7071 -0.7071 0.7071 0.7071 -256.0424 341.2535)" width="5.67" height="5.67"/>
		<rect x="309.16" y="423.48" width="5.67" height="5.67"/>
		<rect x="264.88" y="460.67" transform="matrix(0.7071 -0.7071 0.7071 0.7071 -249.3333 325.0562)" width="5.67" height="5.67"/>
		<rect x="314.83" y="429.15" width="5.67" height="5.67"/>
		<rect x="264.88" y="468.68" transform="matrix(0.7071 -0.7071 0.7071 0.7071 -255.0026 327.4045)" width="5.67" height="5.67"/>
		<rect x="273.06" y="476.86" transform="matrix(0.7071 -0.7071 0.7071 0.7071 -258.3907 335.5842)" width="5.67" height="5.67"/>
		<rect x="281.07" y="484.88" transform="matrix(0.7071 -0.7071 0.7071 0.7071 -261.7117 343.6018)" width="5.67" height="5.67"/>
		<polygon points="293.64,486.16 306.38,484.3 295.5,473.43 		"/>
		<polygon points="261.25,453.76 273.98,451.91 263.1,441.03 		"/>
		<rect x="303.49" y="451.83" width="5.67" height="5.67"/>
		<polygon points="328.58,473.19 317.7,484.06 330.43,485.92 		"/>
		<rect x="320.49" y="446.16" width="5.67" height="5.67"/>
		<rect x="297.82" y="446.16" width="5.67" height="5.67"/>
		<rect x="303.49" y="429.15" width="5.67" height="5.67"/>
		<rect x="297.82" y="434.82" width="5.67" height="5.67"/>
		<rect x="309.16" y="440.49" transform="matrix(0.7071 -0.7071 0.7071 0.7071 -222.0964 350.4565)" width="5.67" height="5.67"/>
		<rect x="320.49" y="434.82" width="5.67" height="5.67"/>
		<rect x="326.16" y="440.49" width="5.67" height="5.67"/>
		<rect x="309.16" y="457.5" width="5.67" height="5.67"/>
		<polygon points="320.71,467.84 312.35,476.2 322.14,477.62 		"/>
		<rect x="256.86" y="460.67" transform="matrix(0.7071 -0.7071 0.7071 0.7071 -251.6816 319.3869)" width="5.67" height="5.67"/>
		<path d="M311.99,433.18l-10.14,10.14l10.14,10.14l10.14-10.14L311.99,433.18z M306.09,443.32l5.9-5.9l5.9,5.9l-5.9,5.9
			L306.09,443.32z"/>
		<rect x="314.83" y="451.83" width="5.67" height="5.67"/>
		<path d="M322.13,364.32l-10.14-10.14l-10.14,10.14l10.14,10.14L322.13,364.32z M311.99,358.42l5.9,5.9l-5.9,5.9l-5.9-5.9
			L311.99,358.42z"/>
		<polygon points="254.77,419.49 253.35,429.27 263.13,427.85 		"/>
		<rect x="216.28" y="412.07" transform="matrix(0.7071 -0.7071 0.7071 0.7071 -229.2051 276.4633)" width="5.67" height="5.67"/>
		<polygon points="238.57,403.29 237.15,413.07 246.93,411.65 		"/>
		<polygon points="214.51,392.44 212.66,405.17 225.39,403.32 		"/>
		<polygon points="222.38,387.09 220.95,396.88 230.74,395.45 		"/>
		<polygon points="270.97,435.69 269.54,445.47 279.33,444.04 		"/>
		<rect x="282.85" y="369.63" transform="matrix(0.7071 -0.7071 0.7071 0.7071 -179.6962 311.1047)" width="5.67" height="5.67"/>
		<rect x="290.87" y="369.63" transform="matrix(0.7071 -0.7071 0.7071 0.7071 -177.3479 316.774)" width="5.67" height="5.67"/>
		<rect x="282.85" y="377.65" transform="matrix(0.7071 -0.7071 0.7071 0.7071 -185.3655 313.453)" width="5.67" height="5.67"/>
		<polygon points="187.09,342.04 175.27,342.04 181.18,349.96 		"/>
		<rect x="178.34" y="363.15" width="5.67" height="5.67"/>
		<rect x="216.28" y="420.09" transform="matrix(0.7071 -0.7071 0.7071 0.7071 -234.8744 278.8116)" width="5.67" height="5.67"/>
		<rect x="195.35" y="380.16" width="5.67" height="5.67"/>
		<polygon points="303.36,468.08 301.94,477.86 311.72,476.44 		"/>
		<polygon points="188.87,351.38 173.49,351.38 181.18,361.69 		"/>
		<rect x="208.27" y="412.07" transform="matrix(0.7071 -0.7071 0.7071 0.7071 -231.5534 270.794)" width="5.67" height="5.67"/>
		<polygon points="206.93,359.31 195.11,359.31 201.02,367.24 		"/>
		<polygon points="208.71,368.65 193.33,368.65 201.02,378.97 		"/>
		<rect x="248.68" y="452.49" transform="matrix(0.7071 -0.7071 0.7071 0.7071 -248.2931 311.2071)" width="5.67" height="5.67"/>
		<rect x="232.48" y="436.29" transform="matrix(0.7071 -0.7071 0.7071 0.7071 -241.5839 295.009)" width="5.67" height="5.67"/>
		<rect x="224.46" y="428.27" transform="matrix(0.7071 -0.7071 0.7071 0.7071 -238.2629 286.9914)" width="5.67" height="5.67"/>
		<polygon points="344.77,456.99 333.9,467.87 346.63,469.72 		"/>
		<rect x="232.48" y="428.27" transform="matrix(0.7071 -0.7071 0.7071 0.7071 -235.9146 292.6607)" width="5.67" height="5.67"/>
		<polygon points="245.05,437.57 257.78,435.71 246.91,424.84 		"/>
		<polygon points="360.97,440.79 350.1,451.67 362.83,453.52 		"/>
		<rect x="309.16" y="361.48" transform="matrix(0.7071 -0.7071 0.7071 0.7071 -166.2328 327.3171)" width="5.67" height="5.67"/>
		<polygon points="228.85,421.37 241.58,419.51 230.71,408.64 		"/>
		<rect x="240.66" y="444.47" transform="matrix(0.7071 -0.7071 0.7071 0.7071 -244.9721 303.1895)" width="5.67" height="5.67"/>
		<rect x="248.68" y="444.47" transform="matrix(0.7071 -0.7071 0.7071 0.7071 -242.6238 308.8588)" width="5.67" height="5.67"/>
		<rect x="314.83" y="348.7" width="5.67" height="5.67"/>
		<polygon points="369.3,419.25 360.94,427.6 370.73,429.03 		"/>
		<rect x="309.16" y="343.03" width="5.67" height="5.67"/>
		<rect x="303.49" y="348.7" width="5.67" height="5.67"/>
		<rect x="327.44" y="369.63" transform="matrix(0.7071 -0.7071 0.7071 0.7071 -166.6373 342.6317)" width="5.67" height="5.67"/>
		<polygon points="353.11,435.44 344.75,443.8 354.53,445.23 		"/>
		<rect x="335.46" y="377.65" transform="matrix(0.7071 -0.7071 0.7071 0.7071 -169.9583 350.6493)" width="5.67" height="5.67"/>
		<rect x="335.46" y="369.63" transform="matrix(0.7071 -0.7071 0.7071 0.7071 -164.289 348.301)" width="5.67" height="5.67"/>
		<rect x="178.34" y="397.17" width="5.67" height="5.67"/>
		<rect x="297.27" y="493.06" transform="matrix(0.7071 -0.7071 0.7071 0.7071 -262.7516 357.4516)" width="5.67" height="5.67"/>
		<rect x="297.27" y="501.08" transform="matrix(0.7071 -0.7071 0.7071 0.7071 -268.4209 359.7999)" width="5.67" height="5.67"/>
		<rect x="59.41" y="501.08" transform="matrix(0.7071 -0.7071 0.7071 0.7071 -338.0888 191.6065)" width="5.67" height="5.67"/>
		<rect x="67.43" y="493.06" transform="matrix(0.7071 -0.7071 0.7071 0.7071 -330.0713 194.9275)" width="5.67" height="5.67"/>
		<rect x="59.41" y="493.06" transform="matrix(0.7071 -0.7071 0.7071 0.7071 -332.4196 189.2582)" width="5.67" height="5.67"/>
		<rect x="314.83" y="517.65" width="5.67" height="5.67"/>
		<rect x="309.16" y="511.98" width="5.67" height="5.67"/>
		<rect x="309.16" y="523.31" width="5.67" height="5.67"/>
		<rect x="289.25" y="493.06" transform="matrix(0.7071 -0.7071 0.7071 0.7071 -265.0999 351.7823)" width="5.67" height="5.67"/>
		<rect x="124.2" y="436.29" transform="matrix(0.7071 -0.7071 0.7071 0.7071 -273.2982 218.444)" width="5.67" height="5.67"/>
		<polygon points="120.77,419.51 133.5,421.37 131.64,408.64 		"/>
		<rect x="108" y="452.49" transform="matrix(0.7071 -0.7071 0.7071 0.7071 -289.4961 211.7343)" width="5.67" height="5.67"/>
		<rect x="124.2" y="428.27" transform="matrix(0.7071 -0.7071 0.7071 0.7071 -267.6289 216.0957)" width="5.67" height="5.67"/>
		<rect x="132.22" y="428.27" transform="matrix(0.7071 -0.7071 0.7071 0.7071 -265.2806 221.765)" width="5.67" height="5.67"/>
		<rect x="108" y="444.47" transform="matrix(0.7071 -0.7071 0.7071 0.7071 -283.8268 209.386)" width="5.67" height="5.67"/>
		<rect x="303.49" y="517.65" width="5.67" height="5.67"/>
		<rect x="393.94" y="428.03" transform="matrix(0.7071 -0.7071 0.7071 0.7071 -188.4536 406.7603)" width="5.67" height="5.67"/>
		<rect x="369.73" y="452.24" transform="matrix(0.7071 -0.7071 0.7071 0.7071 -212.6688 396.7304)" width="5.67" height="5.67"/>
		<polygon points="379.02,437.33 377.17,424.6 366.29,435.47 		"/>
		<rect x="369.73" y="444.23" transform="matrix(0.7071 -0.7071 0.7071 0.7071 -206.9995 394.3821)" width="5.67" height="5.67"/>
		<rect x="377.74" y="444.23" transform="matrix(0.7071 -0.7071 0.7071 0.7071 -204.6512 400.0514)" width="5.67" height="5.67"/>
		<polygon points="396.62,400.09 381.24,400.09 388.93,410.41 		"/>
		<polygon points="394.84,390.75 383.02,390.75 388.93,398.68 		"/>
		<rect x="385.92" y="428.03" transform="matrix(0.7071 -0.7071 0.7071 0.7071 -190.8019 401.0911)" width="5.67" height="5.67"/>
		<rect x="385.92" y="436.05" transform="matrix(0.7071 -0.7071 0.7071 0.7071 -196.4712 403.4394)" width="5.67" height="5.67"/>
		<rect x="321.13" y="492.82" transform="matrix(0.7071 -0.7071 0.7071 0.7071 -255.5923 374.2543)" width="5.67" height="5.67"/>
		<rect x="321.13" y="500.84" transform="matrix(0.7071 -0.7071 0.7071 0.7071 -261.2615 376.6026)" width="5.67" height="5.67"/>
		<rect x="337.33" y="476.62" transform="matrix(0.7071 -0.7071 0.7071 0.7071 -239.3947 380.9633)" width="5.67" height="5.67"/>
		<rect x="345.35" y="476.62" transform="matrix(0.7071 -0.7071 0.7071 0.7071 -237.0464 386.6325)" width="5.67" height="5.67"/>
		<rect x="329.15" y="492.82" transform="matrix(0.7071 -0.7071 0.7071 0.7071 -253.244 379.9236)" width="5.67" height="5.67"/>
		<rect x="361.55" y="460.42" transform="matrix(0.7071 -0.7071 0.7071 0.7071 -220.8485 393.3422)" width="5.67" height="5.67"/>
		<rect x="353.53" y="460.42" transform="matrix(0.7071 -0.7071 0.7071 0.7071 -223.1968 387.6729)" width="5.67" height="5.67"/>
		<rect x="337.33" y="484.64" transform="matrix(0.7071 -0.7071 0.7071 0.7071 -245.0639 383.3116)" width="5.67" height="5.67"/>
		<rect x="353.53" y="468.44" transform="matrix(0.7071 -0.7071 0.7071 0.7071 -228.866 390.0212)" width="5.67" height="5.67"/>
		<polygon points="66.83,460.24 76.61,461.67 75.18,451.88 		"/>
		<rect x="50" y="523.31" width="3.2" height="5.67"/>
		<rect x="156.6" y="395.87" transform="matrix(0.7071 -0.7071 0.7071 0.7071 -235.234 229.5138)" width="5.67" height="5.67"/>
		<polygon points="164.33,422.42 165.64,421.11 166.94,419.81 181.18,405.57 198.02,422.42 212.81,437.21 227.81,452.21 
			246.61,471.01 262.81,487.21 276.4,500.8 295.2,519.6 295.2,500.8 279,500.8 279,484.6 262.81,484.6 262.81,468.4 246.61,468.4 
			246.61,452.21 230.41,452.21 230.41,436.01 214.21,436.01 214.21,419.81 198.02,419.81 198.02,403.61 164.33,403.61 
			164.33,419.81 148.14,419.81 148.14,436.01 131.94,436.01 131.94,452.21 115.74,452.21 115.74,468.4 99.54,468.4 99.54,484.6 
			83.35,484.6 83.35,500.8 67.15,500.8 67.15,519.6 148.14,438.61 		"/>
		<rect x="53.2" y="517.65" width="5.67" height="5.67"/>
		<polygon points="66.85,473.43 55.98,484.3 68.71,486.16 		"/>
		<polygon points="58.99,468.08 50.63,476.44 60.41,477.86 		"/>
		<rect x="50" y="511.98" width="3.2" height="5.67"/>
		<path d="M311.99,422.61l23.84-23.84l-23.84-23.84l-23.84,23.84L311.99,422.61z M331.59,398.77l-19.6,19.6l-19.6-19.6l19.6-19.6
			L331.59,398.77z"/>
		<path d="M305.33,405.42c1.84,1.84,4.25,2.75,6.66,2.75s4.82-0.92,6.66-2.75c1.78-1.78,2.76-4.14,2.76-6.66
			c0-2.52-0.98-4.88-2.76-6.66c-3.67-3.67-9.65-3.67-13.32,0c-1.78,1.78-2.76,4.14-2.76,6.66
			C302.57,401.28,303.55,403.65,305.33,405.42z M307.45,394.23c1.25-1.25,2.89-1.88,4.54-1.88c1.64,0,3.29,0.62,4.54,1.88
			c1.21,1.21,1.88,2.82,1.88,4.54s-0.67,3.33-1.88,4.54c-2.5,2.5-6.57,2.5-9.07,0c-1.21-1.21-1.88-2.82-1.88-4.54
			S306.24,395.44,307.45,394.23z"/>
		<polygon points="290.59,396.17 309.4,377.37 290.59,377.37 		"/>
		<rect x="200.09" y="395.87" transform="matrix(0.7071 -0.7071 0.7071 0.7071 -222.496 260.2661)" width="5.67" height="5.67"/>
		<rect x="156.6" y="403.89" transform="matrix(0.7071 -0.7071 0.7071 0.7071 -240.9033 231.8621)" width="5.67" height="5.67"/>
		<rect x="164.61" y="395.87" transform="matrix(0.7071 -0.7071 0.7071 0.7071 -232.8857 235.1831)" width="5.67" height="5.67"/>
		<rect x="192.07" y="395.87" transform="matrix(0.7071 -0.7071 0.7071 0.7071 -224.8443 254.5968)" width="5.67" height="5.67"/>
		<rect x="200.09" y="403.89" transform="matrix(0.7071 -0.7071 0.7071 0.7071 -228.1653 262.6143)" width="5.67" height="5.67"/>
		<rect x="91.81" y="460.67" transform="matrix(0.7071 -0.7071 0.7071 0.7071 -300.0244 202.677)" width="5.67" height="5.67"/>
		<rect x="83.63" y="476.86" transform="matrix(0.707 -0.7072 0.7072 0.707 -313.9074 201.6856)" width="5.67" height="5.67"/>
		<rect x="75.61" y="484.88" transform="matrix(0.7071 -0.7071 0.7071 0.7071 -321.8912 198.3155)" width="5.67" height="5.67"/>
		<polygon points="88.37,451.91 101.1,453.76 99.25,441.03 		"/>
		<rect x="75.61" y="476.86" transform="matrix(0.7071 -0.7071 0.7071 0.7071 -316.222 195.9672)" width="5.67" height="5.67"/>
		<rect x="99.82" y="460.67" transform="matrix(0.7071 -0.7071 0.7071 0.7071 -297.6761 208.3463)" width="5.67" height="5.67"/>
		<polygon points="104.57,435.71 117.3,437.57 115.45,424.84 		"/>
		<rect x="116.02" y="444.47" transform="matrix(0.7071 -0.7071 0.7071 0.7071 -281.4785 215.0553)" width="5.67" height="5.67"/>
		<rect x="91.81" y="468.68" transform="matrix(0.7071 -0.7071 0.7071 0.7071 -305.6937 205.0253)" width="5.67" height="5.67"/>
		<polygon points="72.17,468.11 84.9,469.96 83.05,457.23 		"/>
		<polygon points="314.58,377.37 333.39,396.17 333.39,377.37 		"/>
		<polygon points="277.45,469.96 290.18,468.11 279.3,457.23 		"/>
		<rect x="366.25" y="501.81" width="5.67" height="5.67"/>
		<polygon points="370.75,550 378.76,550 374.75,545.99 		"/>
		<rect x="360.58" y="507.48" width="5.67" height="5.67"/>
		<rect x="383.26" y="507.48" width="5.67" height="5.67"/>
		<rect x="371.92" y="513.15" transform="matrix(0.7071 -0.7071 0.7071 0.7071 -255.0932 416.1194)" width="5.67" height="5.67"/>
		<rect x="366.25" y="524.49" width="5.67" height="5.67"/>
		<rect x="354.91" y="530.16" transform="matrix(0.7071 -0.7071 0.7071 0.7071 -272.101 409.0745)" width="5.67" height="5.67"/>
		<rect x="360.58" y="518.82" width="5.67" height="5.67"/>
		<rect x="377.59" y="524.49" width="5.67" height="5.67"/>
		<rect x="349.24" y="541.5" width="5.67" height="5.67"/>
		<rect x="371.92" y="496.14" width="5.67" height="5.67"/>
		<rect x="343.57" y="535.83" width="5.67" height="5.67"/>
		<rect x="360.58" y="541.5" width="5.67" height="5.67"/>
		<rect x="366.25" y="535.83" width="5.67" height="5.67"/>
		<path d="M384.89,515.98l-10.14-10.14l-10.14,10.14l10.14,10.14L384.89,515.98z M374.75,510.09l5.9,5.9l-5.9,5.9l-5.9-5.9
			L374.75,510.09z"/>
		<rect x="343.57" y="524.49" width="5.67" height="5.67"/>
		<rect x="354.91" y="513.15" width="5.67" height="5.67"/>
		<rect x="349.24" y="518.82" width="5.67" height="5.67"/>
		<rect x="383.26" y="518.82" width="5.67" height="5.67"/>
		<polygon points="408.77,526.12 408.77,521.88 402.87,515.98 408.77,510.09 408.77,505.85 398.63,515.98 		"/>
		<polygon points="408.77,485.98 408.77,477.96 404.76,481.97 		"/>
		<polygon points="408.77,519.99 408.77,511.98 404.76,515.98 		"/>
		<polygon points="408.77,492.11 408.77,487.86 402.87,481.97 408.77,476.07 408.77,471.83 398.63,481.97 		"/>
		<rect x="377.59" y="490.47" width="5.67" height="5.67"/>
		<polygon points="364.62,550 368.86,550 374.75,544.1 380.65,550 384.89,550 374.75,539.86 		"/>
		<rect x="405.93" y="496.14" width="2.83" height="5.67"/>
		<polygon points="408.77,550 408.77,545.99 404.76,550 		"/>
		<polygon points="402.87,550 408.77,544.1 408.77,539.86 398.63,550 		"/>
		<rect x="405.93" y="530.16" width="2.83" height="5.67"/>
		<rect x="337.9" y="530.16" width="5.67" height="5.67"/>
		<rect x="383.26" y="484.8" width="5.67" height="5.67"/>
		<rect x="326.56" y="541.5" width="5.67" height="5.67"/>
		<rect x="332.23" y="535.83" width="5.67" height="5.67"/>
		<rect x="388.93" y="547.17" width="5.67" height="2.83"/>
		<rect x="320.9" y="547.17" width="5.67" height="2.83"/>
		<rect x="354.91" y="547.17" width="5.67" height="2.83"/>
		<rect x="377.59" y="501.81" width="5.67" height="5.67"/>
		<polygon points="393.66,451.96 377.46,451.96 377.46,468.16 361.27,468.16 361.27,484.36 345.07,484.36 345.07,500.56 
			328.87,500.56 328.87,519.36 408.77,439.46 408.77,435.77 393.66,435.77 		"/>
		<polygon points="408.77,418.44 408.77,410.43 404.76,414.44 		"/>
		<polygon points="408.77,424.58 408.77,420.33 402.87,414.44 408.77,408.54 408.77,404.3 398.63,414.44 		"/>
		<polygon points="181.18,405.94 50.36,536.75 50,536.39 50,540.63 50.36,541 181.18,410.19 311.99,541 408.77,444.21 
			408.77,439.97 311.99,536.75 		"/>
		<rect x="400.27" y="467.8" width="5.67" height="5.67"/>
		<polygon points="315.72,550 408.77,456.95 408.77,452.71 311.48,550 		"/>
		<rect x="405.93" y="428.61" width="2.83" height="5.67"/>
		<rect x="405.93" y="462.13" width="2.83" height="5.67"/>
		<polygon points="402.86,373.48 408.77,381.41 408.77,373.48 		"/>
		<rect x="405.93" y="394.59" width="2.83" height="5.67"/>
		<rect x="400.27" y="422.94" width="5.67" height="5.67"/>
		<polygon points="408.77,393.14 408.77,382.82 401.08,382.82 		"/>
		<rect x="394.6" y="473.46" width="5.67" height="5.67"/>
		<rect x="400.27" y="400.26" width="5.67" height="5.67"/>
		<rect x="394.6" y="417.27" width="5.67" height="5.67"/>
		<rect x="394.6" y="405.93" width="5.67" height="5.67"/>
		<rect x="388.93" y="411.6" width="5.67" height="5.67"/>
		<rect x="394.6" y="507.48" width="5.67" height="5.67"/>
		<rect x="400.27" y="535.83" width="5.67" height="5.67"/>
		<rect x="388.93" y="479.13" width="5.67" height="5.67"/>
		<rect x="394.6" y="518.82" width="5.67" height="5.67"/>
		<rect x="394.6" y="541.5" width="5.67" height="5.67"/>
		<rect x="400.27" y="524.49" width="5.67" height="5.67"/>
		<rect x="371.92" y="530.16" width="5.67" height="5.67"/>
		<rect x="383.26" y="541.5" width="5.67" height="5.67"/>
		<rect x="377.59" y="535.83" width="5.67" height="5.67"/>
		<rect x="388.93" y="530.16" transform="matrix(0.7071 -0.7071 0.7071 0.7071 -262.138 433.1272)" width="5.67" height="5.67"/>
		<path d="M391.76,543.13l10.14-10.14l-10.14-10.14l-10.14,10.14L391.76,543.13z M397.66,532.99l-5.9,5.9l-5.9-5.9l5.9-5.9
			L397.66,532.99z"/>
		<rect x="400.27" y="490.47" width="5.67" height="5.67"/>
		<rect x="388.93" y="496.14" transform="matrix(0.7071 -0.7071 0.7071 0.7071 -238.0854 423.1642)" width="5.67" height="5.67"/>
		<path d="M391.76,509.12l10.14-10.14l-10.14-10.14l-10.14,10.14L391.76,509.12z M397.66,498.98l-5.9,5.9l-5.9-5.9l5.9-5.9
			L397.66,498.98z"/>
		<rect x="394.6" y="484.8" width="5.67" height="5.67"/>
		<rect x="388.93" y="513.15" width="5.67" height="5.67"/>
		<rect x="400.27" y="501.81" width="5.67" height="5.67"/>
		<path d="M347.61,532.99l10.14,10.14l10.14-10.14l-10.14-10.14L347.61,532.99z M357.75,538.89l-5.9-5.9l5.9-5.9l5.9,5.9
			L357.75,538.89z"/>
		<path d="M300.91,549.5l-3.45-3.44l2.64-2.64l-2.07-2.07l-2.64,2.64l-3.44-3.44l2.64-2.64l-2.07-2.07l-2.64,2.64l-3.45-3.45
			l2.64-2.64l-2.07-2.07l-2.64,2.64l-3.45-3.45l2.64-2.64l-2.07-2.07l-2.64,2.64l-3.44-3.44l2.64-2.64l-2.07-2.07l-2.64,2.64
			l-3.45-3.44l2.64-2.64l-2.07-2.07l-2.64,2.64l-3.45-3.45l2.64-2.64l-2.07-2.07l-2.64,2.64l-3.45-3.45l2.64-2.64l-2.07-2.07
			l-2.64,2.64l-3.45-3.45l2.64-2.64l-2.07-2.07l-2.64,2.64l-3.44-3.44l2.64-2.64l-1.03-1.03l-1.03-1.03l-2.64,2.64l-3.45-3.44
			l2.64-2.64l-2.07-2.07l-2.64,2.64l-3.45-3.45l2.64-2.64l-1.03-1.03l-1.03-1.03l-2.64,2.64l-3.45-3.44l2.64-2.64l-2.07-2.07
			l-2.64,2.64l-3.45-3.44l2.64-2.64l-2.07-2.07l-2.64,2.64l-3.44-3.45l2.64-2.64l-2.07-2.07l-2.64,2.64l-3.45-3.45l2.64-2.64
			l-2.07-2.07l-2.64,2.64l-3.44-3.44l2.64-2.64l-2.07-2.07l-2.64,2.64l-3.45-3.44l2.64-2.64l-2.07-2.07l-2.64,2.64l-3.45-3.45
			l2.64-2.64l-2.07-2.07l-2.64,2.64l-3.44-3.45l2.64-2.64l-2.07-2.07l-2.64,2.64l-3.45-3.44l2.64-2.64l-2.07-2.07l-2.64,2.64
			l-3.44-3.44l2.64-2.64l-2.07-2.07l-1.11,1.11l-1.11-1.11l-2.07,2.07l2.64,2.64l-3.45,3.44l-2.64-2.64l-2.07,2.07l2.64,2.64
			l-3.45,3.44l-2.64-2.64l-2.07,2.07l2.64,2.64l-3.44,3.45l-2.64-2.64l-2.07,2.07l2.64,2.64l-3.45,3.45l-2.64-2.64l-2.07,2.07
			l2.64,2.64l-3.45,3.44l-2.64-2.64l-2.07,2.07l2.64,2.64l-3.45,3.44l-2.64-2.64l-2.07,2.07l2.64,2.64l-3.45,3.45l-2.64-2.64
			l-2.07,2.07l2.64,2.64l-3.44,3.45l-2.64-2.64l-2.07,2.07l2.64,2.64l-3.45,3.44l-2.64-2.64l-2.07,2.07l2.64,2.64l-3.45,3.44
			l-2.64-2.64l-2.07,2.07l2.64,2.64l-3.44,3.45l-2.64-2.64l-2.07,2.07l2.64,2.64l-3.45,3.45l-2.64-2.64l-2.07,2.07l2.64,2.64
			l-3.45,3.44l-2.64-2.64l-2.07,2.07l2.64,2.64l-3.45,3.45l-2.64-2.64l-2.07,2.07l2.64,2.64l-3.44,3.45l-2.64-2.64l-2.07,2.07
			l2.64,2.64l-3.45,3.45l-2.64-2.64l-2.07,2.07l2.64,2.64L89,521.94l-2.64-2.64l-2.07,2.07l2.64,2.64l-3.45,3.44l-2.64-2.64
			l-2.07,2.07l2.64,2.64l-3.45,3.45l-2.64-2.64l-2.07,2.07l2.64,2.64l-3.44,3.45l-2.64-2.64l-2.07,2.07l2.64,2.64l-3.45,3.44
			l-2.64-2.64l-2.07,2.07l2.64,2.64l-3.45,3.44l-2.64-2.64l-2.07,2.07l1.07,1.07h7.08l1.97-1.97l1.97,1.97h6.61l1.52-1.52
			l-1.98-1.98l-2.76,2.76l-3.3-3.3l3.45-3.44l2.64,2.64l2.07-2.07l-2.64-2.64l3.45-3.45l3.3,3.3l-2.76,2.76l1.98,1.98l2.76-2.76
			l2.64,2.64l2.07-2.07l-2.64-2.64l2.76-2.76l-1.98-1.98l-2.76,2.76l-3.3-3.3l3.44-3.45l2.64,2.64l2.07-2.07l-2.64-2.64l3.45-3.44
			l3.3,3.3l-2.76,2.76l1.98,1.98l2.76-2.76l2.64,2.64l2.07-2.07l-2.64-2.64l2.76-2.76l-1.98-1.98l-2.76,2.76l-3.3-3.3l3.45-3.44
			l2.64,2.64l2.07-2.07l-2.64-2.64l3.44-3.45l3.3,3.3l-2.76,2.76l1.98,1.98l2.76-2.76l2.64,2.64l2.07-2.07l-2.64-2.64l2.76-2.76
			l-1.98-1.98l-2.76,2.76l-3.3-3.3l3.45-3.45l2.64,2.64l2.07-2.07l-2.64-2.64l3.44-3.44l3.3,3.3l-2.76,2.76l1.98,1.98l2.76-2.76
			l2.64,2.64l2.07-2.07l-2.64-2.64l2.76-2.76l-1.98-1.98l-2.76,2.76l-3.3-3.3l3.45-3.44l2.64,2.64l1.03-1.03l1.03-1.03l-2.64-2.64
			l3.44-3.45l3.3,3.3l-2.76,2.76l1.98,1.98l2.76-2.76l2.64,2.64l1.03-1.03l1.03-1.03l-2.64-2.64l2.76-2.76l-1.98-1.98l-2.76,2.76
			l-3.3-3.3l3.45-3.45l2.64,2.64l1.03-1.03l1.03-1.03l-2.64-2.64l3.45-3.44l3.3,3.3l-2.76,2.76l1.98,1.98l2.76-2.76l2.64,2.64
			l2.07-2.07l-2.64-2.64l2.76-2.76l-1.98-1.98l-2.76,2.76l-3.3-3.3l3.45-3.44l2.64,2.64l2.07-2.07l-2.64-2.64l3.45-3.45l3.3,3.3
			l-2.76,2.76l1.98,1.98l2.76-2.76l2.64,2.64l2.07-2.07l-2.64-2.64l2.76-2.76l-1.98-1.98l-2.76,2.76l-3.3-3.3l3.44-3.45l2.64,2.64
			l2.07-2.07l-2.64-2.64l3.45-3.44l3.3,3.3l-2.76,2.76l1.98,1.98l2.76-2.76l2.64,2.64l2.07-2.07l-2.64-2.64l2.76-2.76l-1.98-1.98
			l-2.76,2.76l-3.3-3.3l3.45-3.44l2.64,2.64l2.07-2.07l-2.64-2.64l3.44-3.45l3.3,3.3l-2.76,2.76l1.98,1.98l2.76-2.76l2.64,2.64
			l2.07-2.07l-2.64-2.64l2.76-2.76l-1.98-1.98l-2.76,2.76l-3.3-3.3l3.45-3.45l2.64,2.64l2.07-2.07l-2.64-2.64l3.45-3.44l3.3,3.3
			l-2.76,2.76l1.98,1.98l1.55-1.55l1.55,1.55l1.98-1.98l-2.76-2.76l3.3-3.3l3.44,3.44l-2.64,2.64l2.07,2.07l2.64-2.64l3.45,3.45
			l-3.3,3.3l-2.76-2.76l-1.98,1.98l2.76,2.76l-2.64,2.64l2.07,2.07l2.64-2.64l2.76,2.76l1.98-1.98l-2.76-2.76l3.3-3.3l3.45,3.45
			l-2.64,2.64l2.07,2.07l2.64-2.64l3.44,3.44l-3.3,3.3l-2.76-2.76l-1.98,1.98l2.76,2.76l-2.64,2.64l2.07,2.07l2.64-2.64l2.76,2.76
			l1.98-1.98l-2.76-2.76l3.3-3.3l3.45,3.44l-2.64,2.64l2.07,2.07l2.64-2.64l3.44,3.45l-3.3,3.3l-2.76-2.76l-1.98,1.98l2.76,2.76
			l-2.64,2.64l2.07,2.07l2.64-2.64l2.76,2.76l1.98-1.98l-2.76-2.76l3.3-3.3l3.45,3.45l-2.64,2.64l2.07,2.07l2.64-2.64l3.45,3.44
			l-3.3,3.3l-2.76-2.76l-1.98,1.98l2.76,2.76l-2.64,2.64l2.07,2.07l2.64-2.64l2.76,2.76l1.98-1.98l-2.76-2.76l3.3-3.3l3.44,3.44
			l-2.64,2.64l1.03,1.03l1.03,1.03l2.64-2.64l3.45,3.45l-3.3,3.3l-2.76-2.76l-1.98,1.98l2.76,2.76l-2.64,2.64l1.03,1.03l1.03,1.03
			l2.64-2.64l2.76,2.76l1.98-1.98l-2.76-2.76l3.3-3.3l3.45,3.45l-2.64,2.64l1.03,1.03l1.03,1.03l2.64-2.64l3.45,3.44l-3.3,3.3
			l-2.76-2.76l-1.98,1.98l2.76,2.76l-2.64,2.64l2.07,2.07l2.64-2.64l2.76,2.76l1.98-1.98l-2.76-2.76l3.3-3.3l3.44,3.44l-2.64,2.64
			l2.07,2.07l2.64-2.64l3.45,3.45l-3.3,3.3l-2.76-2.76l-1.98,1.98l2.76,2.76l-2.64,2.64l2.07,2.07l2.64-2.64l2.76,2.76l1.98-1.98
			l-2.76-2.76l3.3-3.3l3.45,3.45l-2.64,2.64l2.07,2.07l2.64-2.64l3.44,3.44l-3.3,3.3l-2.76-2.76l-1.98,1.98l2.76,2.76l-2.64,2.64
			l2.07,2.07l2.64-2.64l2.76,2.76l1.98-1.98l-2.76-2.76l3.3-3.3l3.45,3.44l-2.64,2.64l2.07,2.07l2.64-2.64l3.45,3.45l-3.3,3.3
			l-2.76-2.76l-1.98,1.98l2.76,2.76l-2.64,2.64l2.07,2.07l2.64-2.64l2.76,2.76l1.98-1.98l-2.76-2.76l3.3-3.3l3.45,3.45l-2.64,2.64
			l2.07,2.07l2.64-2.64l3.45,3.44l-3.3,3.3l-2.76-2.76l-1.98,1.98l1.52,1.52h6.61l1.97-1.97l1.97,1.97h7.08l1.07-1.07l-2.07-2.07
			L300.91,549.5z M181.18,437.73l-2-2l2-2l2,2L181.18,437.73z"/>
		<polygon points="50,550 50.87,550 50,549.13 		"/>
		<polygon points="91.38,435.69 83.02,444.04 92.81,445.47 		"/>
		<polygon points="107.58,419.49 99.22,427.85 109,429.27 		"/>
		<rect x="149.99" y="541.53" width="5.67" height="5.67"/>
		<rect x="178.34" y="547.2" width="5.67" height="2.8"/>
		<rect x="144.33" y="547.2" width="5.67" height="2.8"/>
		<polygon points="123.78,403.29 115.42,411.65 125.2,413.07 		"/>
		<rect x="212.36" y="547.2" width="5.67" height="2.8"/>
		<polygon points="194.21,550 202.16,550 198.18,546.03 		"/>
		<polygon points="154.06,550 158.31,550 164.17,544.14 170.03,550 174.27,550 164.17,539.9 		"/>
		<polygon points="188.08,550 192.32,550 198.18,544.14 204.04,550 208.29,550 198.18,539.9 		"/>
		<polygon points="160.19,550 168.14,550 164.17,546.03 		"/>
		<polygon points="169.02,368.65 153.64,368.65 161.33,378.97 		"/>
		<rect x="189.68" y="385.83" width="5.67" height="5.67"/>
		<rect x="184.01" y="368.82" width="5.67" height="5.67"/>
		<rect x="189.68" y="374.49" width="5.67" height="5.67"/>
		<rect x="172.67" y="368.82" width="5.67" height="5.67"/>
		<rect x="172.67" y="391.5" width="5.67" height="5.67"/>
		<rect x="184.01" y="391.5" width="5.67" height="5.67"/>
		<rect x="167" y="385.83" width="5.67" height="5.67"/>
		<rect x="178.34" y="380.16" transform="matrix(0.7071 -0.7071 0.7071 0.7071 -217.7536 240.2874)" width="5.67" height="5.67"/>
		<rect x="155.66" y="535.86" width="5.67" height="5.67"/>
		<rect x="140.4" y="420.09" transform="matrix(0.7071 -0.7071 0.7071 0.7071 -257.1006 225.153)" width="5.67" height="5.67"/>
		<rect x="148.42" y="412.07" transform="matrix(0.7071 -0.7071 0.7071 0.7071 -249.083 228.474)" width="5.67" height="5.67"/>
		<rect x="140.4" y="412.07" transform="matrix(0.7071 -0.7071 0.7071 0.7071 -251.4313 222.8047)" width="5.67" height="5.67"/>
		<polygon points="149.69,405.17 147.84,392.44 136.96,403.32 		"/>
		<polygon points="167.24,359.31 155.42,359.31 161.33,367.24 		"/>
		<rect x="167" y="374.49" width="5.67" height="5.67"/>
		<polygon points="139.97,387.09 131.62,395.45 141.4,396.88 		"/>
		<path d="M181.18,393.13L191.31,383l-10.14-10.14L171.04,383L181.18,393.13z M187.07,383l-5.9,5.9l-5.9-5.9l5.9-5.9L187.07,383z"/>
		<polygon points="198.19,477.9 198.19,477.9 199.57,479.28 185.09,493.76 193.35,502.03 207.84,487.55 209.21,488.92 
			209.27,477.85 		"/>
		<polygon points="330.6,550 334.84,550 340.74,544.1 346.63,550 350.88,550 340.74,539.86 		"/>
		<polygon points="153.08,477.85 153.14,488.92 154.52,487.55 169,502.03 177.27,493.76 162.78,479.28 164.16,477.9 164.16,477.9 		
			"/>
		<polygon points="142.06,488.87 142.11,499.95 143.49,498.57 157.97,513.05 166.24,504.78 151.76,490.3 153.14,488.92 
			153.14,488.92 		"/>
		<path d="M187.17,466.88l0.05-11.08l-6.04,0.03l-6.04-0.03l0.05,11.08l-11.08-0.05l0.05,11.08l0,0v0l1.38-1.38L180.02,491
			l1.15-1.15l1.15,1.15l14.48-14.48l1.38,1.38l0.05-11.08L187.17,466.88z M181.18,475.62l-7.37-7.37l2.76-2.76l4.61,4.61l4.61-4.61
			l2.76,2.76L181.18,475.62z"/>
		<polygon points="131.04,499.89 131.09,510.97 132.47,509.59 146.95,524.08 155.22,515.81 140.74,501.33 142.11,499.95 
			142.11,499.95 		"/>
		<polygon points="120.06,522 120.06,522 121.44,520.62 135.92,535.1 144.19,526.83 129.71,512.35 131.09,510.97 120.01,510.92 		
			"/>
		<polygon points="98.02,544.04 98.02,544.04 99.39,542.67 106.73,550 121.02,550 122.14,548.88 107.66,534.4 109.04,533.02 
			97.96,532.97 		"/>
		<polygon points="109.04,533.02 109.04,533.02 110.42,531.64 124.9,546.12 133.17,537.86 118.69,523.38 120.06,522 108.99,521.94 
					"/>
		<polygon points="231.32,499.9 220.24,499.95 221.62,501.33 207.13,515.81 215.4,524.08 229.88,509.6 231.26,510.97 231.26,510.97 
					"/>
		<polygon points="264.34,544.04 264.39,532.97 253.31,533.02 254.69,534.4 240.21,548.88 241.33,550 255.62,550 262.96,542.67 
			265.71,545.42 261.14,550 275.38,550 275.41,543.99 264.33,544.04 		"/>
		<rect x="161.33" y="380.16" width="5.67" height="5.67"/>
		<polygon points="51.01,550 55.25,550 181.18,424.08 307.1,550 311.34,550 181.18,419.83 		"/>
		<polygon points="336.73,550 344.75,550 340.74,545.99 		"/>
		<polygon points="242.34,510.92 231.26,510.97 232.64,512.35 218.16,526.83 226.43,535.1 240.91,520.62 242.29,522 242.29,522 		
			"/>
		<polygon points="86.97,550 101.21,550 96.64,545.42 98.02,544.04 86.94,543.99 		"/>
		<polygon points="209.21,488.92 209.21,488.92 210.59,490.3 196.11,504.78 204.38,513.05 218.86,498.57 220.24,499.95 
			220.29,488.87 		"/>
		<polygon points="253.36,521.94 242.29,522 243.67,523.38 229.18,537.86 237.45,546.12 251.93,531.64 253.31,533.02 253.31,533.02 
					"/>
		<rect x="189.68" y="524.52" width="5.67" height="5.67"/>
		<rect x="172.67" y="518.85" width="5.67" height="5.67"/>
		<rect x="167" y="524.52" width="5.67" height="5.67"/>
		<rect x="184.01" y="541.53" width="5.67" height="5.67"/>
		<rect x="172.67" y="541.53" width="5.67" height="5.67"/>
		<rect x="167" y="535.86" width="5.67" height="5.67"/>
		<rect x="178.34" y="513.18" width="5.67" height="5.67"/>
		<rect x="184.01" y="518.85" width="5.67" height="5.67"/>
		<rect x="161.33" y="530.19" width="5.67" height="5.67"/>
		<path d="M171.04,533.03l10.14,10.14l10.14-10.14l-10.14-10.14L171.04,533.03z M181.18,538.92l-5.9-5.9l5.9-5.9l5.9,5.9
			L181.18,538.92z"/>
		<rect x="206.69" y="541.53" width="5.67" height="5.67"/>
		<polygon points="133.36,550 137.6,550 181.18,506.42 224.75,550 228.99,550 181.18,502.18 		"/>
		<rect x="189.68" y="535.86" width="5.67" height="5.67"/>
		<rect x="201.02" y="535.86" width="5.67" height="5.67"/>
		<polygon points="121.52,550 125.77,550 181.18,494.59 236.58,550 240.83,550 181.18,490.35 		"/>
		<rect x="178.34" y="530.19" transform="matrix(0.7071 -0.7071 0.7071 0.7071 -323.8421 284.2307)" width="5.67" height="5.67"/>
		<rect x="195.35" y="530.19" width="5.67" height="5.67"/>
		<polygon points="98.02,544.04 98.02,544.04 98.02,544.04 		"/>
	</g>
</g>
<g>
</g>
<g>
</g>
<g>
</g>
<g>
</g>
<g>
</g>
<g>
</g>
<g>
</g>
<g>
</g>
<g>
</g>
<g>
</g>
<g>
</g>
<g>
</g>
<g>
</g>
<g>
</g>
<g>
</g>
</svg>
