<?xml version="1.0" encoding="utf-8"?>
<!-- Generator: Adobe Illustrator 27.2.0, SVG Export Plug-In . SVG Version: 6.00 Build 0)  -->
<svg version="1.1" id="Layer_1" xmlns="http://www.w3.org/2000/svg" xmlns:xlink="http://www.w3.org/1999/xlink" x="0px" y="0px"
	 viewBox="0 0 800 600" style="enable-background:new 0 0 800 600;" xml:space="preserve">
<g>
	<g>
		<g>
			<g>
				<g>
					
						<rect x="149.46" y="399.45" transform="matrix(-1 -8.880553e-11 8.880553e-11 -1 307.6791 807.6664)" width="8.77" height="8.77"/>
					
						<rect x="163.36" y="413.35" transform="matrix(-1 -9.005076e-11 9.005076e-11 -1 335.4798 835.4671)" width="8.77" height="8.77"/>
					
						<rect x="177.26" y="427.25" transform="matrix(-1 -9.005076e-11 9.005076e-11 -1 363.2804 863.2678)" width="8.77" height="8.77"/>
					
						<rect x="135.37" y="401.6" transform="matrix(-1.836970e-16 1 -1 -1.836970e-16 543.7725 266.2307)" width="6.8" height="6.8"/>
					
						<rect x="177.07" y="443.3" transform="matrix(-1 -4.438417e-11 4.438417e-11 -1 360.9437 893.4052)" width="6.8" height="6.8"/>
					
						<rect x="142.32" y="408.55" transform="matrix(-1.836970e-16 1 -1 -1.836970e-16 557.6728 266.2307)" width="6.8" height="6.8"/>
					
						<rect x="149.27" y="415.5" transform="matrix(-1.836970e-16 1 -1 -1.836970e-16 571.5731 266.2307)" width="6.8" height="6.8"/>
					
						<rect x="156.22" y="422.45" transform="matrix(-1.836970e-16 1 -1 -1.836970e-16 585.4734 266.2307)" width="6.8" height="6.8"/>
					
						<rect x="163.17" y="429.4" transform="matrix(-1.836970e-16 1 -1 -1.836970e-16 599.3738 266.2307)" width="6.8" height="6.8"/>
					
						<rect x="170.12" y="436.35" transform="matrix(-1.836970e-16 1 -1 -1.836970e-16 613.274 266.2307)" width="6.8" height="6.8"/>
				</g>
				<g>
					
						<rect x="75.6" y="427.25" transform="matrix(-1.335200e-10 1 -1 -1.335200e-10 511.6142 351.6535)" width="8.77" height="8.77"/>
					
						<rect x="89.5" y="413.35" transform="matrix(-1.358027e-10 1 -1 -1.358027e-10 511.6142 323.8529)" width="8.77" height="8.77"/>
					
						<rect x="103.4" y="399.45" transform="matrix(-1.334161e-10 1 -1 -1.334161e-10 511.6142 296.0522)" width="8.77" height="8.77"/>
					<rect x="77.75" y="443.3" width="6.8" height="6.8"/>
					
						<rect x="119.45" y="401.6" transform="matrix(-8.970442e-11 1 -1 -8.970442e-11 527.8513 282.1519)" width="6.8" height="6.8"/>
					<rect x="84.7" y="436.35" width="6.8" height="6.8"/>
					<rect x="91.65" y="429.4" width="6.8" height="6.8"/>
					<rect x="98.6" y="422.45" width="6.8" height="6.8"/>
					<rect x="105.55" y="415.5" width="6.8" height="6.8"/>
					<rect x="112.5" y="408.55" width="6.8" height="6.8"/>
				</g>
				<g>
					<rect x="103.4" y="501.11" width="8.77" height="8.77"/>
					<rect x="89.5" y="487.21" width="8.77" height="8.77"/>
					<rect x="75.6" y="473.31" width="8.77" height="8.77"/>
					<rect x="119.45" y="500.92" transform="matrix(8.957108e-11 -1 1 8.957108e-11 -381.475 627.1744)" width="6.8" height="6.8"/>
					<rect x="77.75" y="459.22" width="6.8" height="6.8"/>
					<rect x="112.5" y="493.97" transform="matrix(8.983753e-11 -1 1 8.983753e-11 -381.475 613.274)" width="6.8" height="6.8"/>
					<rect x="105.55" y="487.02" transform="matrix(8.970431e-11 -1 1 8.970431e-11 -381.475 599.3738)" width="6.8" height="6.8"/>
					<rect x="98.6" y="480.07" transform="matrix(8.957108e-11 -1 1 8.957108e-11 -381.475 585.4734)" width="6.8" height="6.8"/>
					<rect x="91.65" y="473.12" transform="matrix(8.957108e-11 -1 1 8.957108e-11 -381.475 571.5731)" width="6.8" height="6.8"/>
					<rect x="84.7" y="466.17" transform="matrix(8.970431e-11 -1 1 8.970431e-11 -381.475 557.6728)" width="6.8" height="6.8"/>
				</g>
				<g>
					
						<rect x="177.26" y="473.31" transform="matrix(2.247116e-10 -1 1 2.247116e-10 -296.0522 659.3326)" width="8.77" height="8.77"/>
					
						<rect x="163.36" y="487.21" transform="matrix(2.247116e-10 -1 1 2.247116e-10 -323.8529 659.3326)" width="8.77" height="8.77"/>
					
						<rect x="149.46" y="501.11" transform="matrix(2.247116e-10 -1 1 2.247116e-10 -351.6535 659.3326)" width="8.77" height="8.77"/>
					
						<rect x="177.07" y="459.22" transform="matrix(-1 -1.336874e-10 1.336874e-10 -1 360.9437 925.2475)" width="6.8" height="6.8"/>
					
						<rect x="135.37" y="500.92" transform="matrix(1.794085e-10 -1 1 1.794085e-10 -365.5539 643.0956)" width="6.8" height="6.8"/>
					
						<rect x="170.12" y="466.17" transform="matrix(-1 -1.336874e-10 1.336874e-10 -1 347.0433 939.1478)" width="6.8" height="6.8"/>
					
						<rect x="163.17" y="473.12" transform="matrix(-1 -1.336874e-10 1.336874e-10 -1 333.143 953.0482)" width="6.8" height="6.8"/>
					
						<rect x="156.22" y="480.07" transform="matrix(-1 -1.352915e-10 1.352915e-10 -1 319.2427 966.9485)" width="6.8" height="6.8"/>
					
						<rect x="149.27" y="487.02" transform="matrix(-1 -1.352915e-10 1.352915e-10 -1 305.3423 980.8488)" width="6.8" height="6.8"/>
					
						<rect x="142.32" y="493.97" transform="matrix(-1 -1.352915e-10 1.352915e-10 -1 291.442 994.7491)" width="6.8" height="6.8"/>
				</g>
				<g>
					
						<rect x="118.59" y="442.45" transform="matrix(0.7071 0.7071 -0.7071 0.7071 359.8088 40.6709)" style="fill:none;stroke:#000000;stroke-width:3;stroke-miterlimit:10;" width="24.43" height="24.43"/>
					
						<rect x="110.12" y="433.98" transform="matrix(0.7071 0.7071 -0.7071 0.7071 359.8088 40.6709)" style="fill:none;stroke:#000000;stroke-width:3;stroke-miterlimit:10;" width="41.37" height="41.37"/>
					
						<rect x="96.4" y="420.25" transform="matrix(0.7071 0.7071 -0.7071 0.7071 359.8088 40.6709)" style="fill:none;stroke:#000000;stroke-width:3;stroke-miterlimit:10;" width="68.82" height="68.82"/>
					
						<rect x="84.63" y="447.52" transform="matrix(0.7071 -0.7071 0.7071 0.7071 -294.6163 198.0597)" width="14.28" height="14.28"/>
					<polygon points="102.58,454.4 102.58,441.85 115.12,441.85 118,438.97 118,426.43 130.54,426.43 133.37,423.61 115.18,423.61 
						115.18,439.03 99.75,439.03 99.75,457.22 					"/>
					
						<rect x="123.67" y="486.56" transform="matrix(-0.7071 -0.7071 0.7071 -0.7071 -125.7932 935.2994)" width="14.28" height="14.28"/>
					<polygon points="130.54,482.9 118,482.9 118,470.35 115.12,467.47 102.58,467.47 102.58,454.93 99.75,452.11 99.75,470.3 
						115.18,470.3 115.18,485.72 133.37,485.72 					"/>
					
						<rect x="162.71" y="447.52" transform="matrix(-0.7071 0.7071 -0.7071 -0.7071 611.4465 656.0569)" width="14.28" height="14.28"/>
					<polygon points="159.05,454.93 159.05,467.47 146.5,467.47 143.62,470.35 143.62,482.9 131.08,482.9 128.25,485.72 
						146.44,485.72 146.44,470.3 161.87,470.3 161.87,452.11 					"/>
					<rect x="123.67" y="408.48" transform="matrix(0.7071 0.7071 -0.7071 0.7071 332.204 29.2366)" width="14.28" height="14.28"/>
					<polygon points="131.08,426.43 143.62,426.43 143.62,438.97 146.5,441.85 159.05,441.85 159.05,454.4 161.87,457.22 
						161.87,439.03 146.44,439.03 146.44,423.61 128.25,423.61 					"/>
				</g>
				<g>
					
						<rect x="195.19" y="450.28" transform="matrix(-0.7071 0.7071 -0.7071 -0.7071 662.1871 635.0394)" width="8.77" height="8.77"/>
					<rect x="181.8" y="451.26" transform="matrix(-4.411689e-11 1 -1 -4.411689e-11 639.8653 269.461)" width="6.8" height="6.8"/>
					<rect x="188.6" y="458.06" transform="matrix(-4.398278e-11 1 -1 -4.398278e-11 653.4716 269.461)" width="6.8" height="6.8"/>
					<rect x="188.6" y="444.46" transform="matrix(8.970431e-11 -1 1 8.970431e-11 -255.8547 639.8653)" width="6.8" height="6.8"/>
				</g>
				<g>
					<rect x="126.43" y="381.52" transform="matrix(0.7071 0.7071 -0.7071 0.7071 311.1865 20.5309)" width="8.77" height="8.77"/>
					<rect x="127.41" y="396.87" width="6.8" height="6.8"/>
					<rect x="134.21" y="390.07" width="6.8" height="6.8"/>
					
						<rect x="120.61" y="390.07" transform="matrix(-1 -1.336874e-10 1.336874e-10 -1 248.0142 786.9363)" width="6.8" height="6.8"/>
				</g>
				<g>
					<rect x="57.66" y="450.28" transform="matrix(0.7071 -0.7071 0.7071 0.7071 -303.322 177.0423)" width="8.77" height="8.77"/>
					<rect x="73.02" y="451.26" transform="matrix(1.351577e-10 -1 1 1.351577e-10 -378.2448 531.0815)" width="6.8" height="6.8"/>
					<rect x="66.21" y="444.46" transform="matrix(1.336869e-10 -1 1 1.336869e-10 -378.2448 517.4753)" width="6.8" height="6.8"/>
					<rect x="66.21" y="458.06" transform="matrix(-1.808795e-10 1 -1 -1.808795e-10 531.0815 391.851)" width="6.8" height="6.8"/>
				</g>
				<g>
					
						<rect x="126.43" y="508.11" transform="matrix(-0.7071 -0.7071 0.7071 -0.7071 -139.0796 967.3757)" width="8.77" height="8.77"/>
				</g>
			</g>
			<circle cx="130.81" cy="454.66" r="5.1"/>
		</g>
		<g>
			
				<rect x="95.43" y="535.47" transform="matrix(0.7071 0.7071 -0.7071 0.7071 412.0161 87.1052)" style="fill:none;stroke:#000000;stroke-width:2;stroke-miterlimit:10;" width="10.87" height="10.87"/>
			
				<rect x="97.46" y="522.52" transform="matrix(0.7071 0.7071 -0.7071 0.7071 401.428 82.7195)" style="fill:none;stroke:#000000;stroke-width:2;stroke-miterlimit:10;" width="6.8" height="6.8"/>
			<polygon points="115.84,544.58 115.84,544.58 112.16,540.9 115.84,537.22 115.84,537.22 115.84,534.96 115.84,534.96 
				109.89,540.9 115.84,546.84 115.84,546.84 			"/>
			<polygon points="85.89,544.58 85.89,544.58 89.57,540.9 85.89,537.22 85.89,537.22 85.89,534.96 85.89,534.96 91.83,540.9 
				85.89,546.84 85.89,546.84 			"/>
		</g>
		<g>
			
				<rect x="125.38" y="535.47" transform="matrix(0.7071 0.7071 -0.7071 0.7071 420.7875 65.9291)" style="fill:none;stroke:#000000;stroke-width:2;stroke-miterlimit:10;" width="10.87" height="10.87"/>
			
				<rect x="127.41" y="522.52" transform="matrix(0.7071 0.7071 -0.7071 0.7071 410.1994 61.5434)" style="fill:none;stroke:#000000;stroke-width:2;stroke-miterlimit:10;" width="6.8" height="6.8"/>
			<polygon points="145.78,544.58 145.78,544.58 142.1,540.9 145.78,537.22 145.78,537.22 145.78,534.96 145.78,534.96 
				139.84,540.9 145.78,546.84 145.78,546.84 			"/>
			<polygon points="115.84,544.58 115.84,544.58 119.52,540.9 115.84,537.22 115.84,537.22 115.84,534.96 115.84,534.96 
				121.78,540.9 115.84,546.84 115.84,546.84 			"/>
		</g>
		<g>
			
				<rect x="155.32" y="535.47" transform="matrix(0.7071 0.7071 -0.7071 0.7071 429.5589 44.753)" style="fill:none;stroke:#000000;stroke-width:2;stroke-miterlimit:10;" width="10.87" height="10.87"/>
			
				<rect x="157.36" y="522.52" transform="matrix(0.7071 0.7071 -0.7071 0.7071 418.9709 40.3673)" style="fill:none;stroke:#000000;stroke-width:2;stroke-miterlimit:10;" width="6.8" height="6.8"/>
			<polygon points="175.73,544.58 175.73,544.58 172.05,540.9 175.73,537.22 175.73,537.22 175.73,534.96 175.73,534.96 
				169.79,540.9 175.73,546.84 175.73,546.84 			"/>
			<polygon points="145.78,544.58 145.78,544.58 149.46,540.9 145.78,537.22 145.78,537.22 145.78,534.96 145.78,534.96 
				151.73,540.9 145.78,546.84 145.78,546.84 			"/>
		</g>
		<g>
			
				<rect x="185.27" y="535.47" transform="matrix(0.7071 0.7071 -0.7071 0.7071 438.3303 23.577)" style="fill:none;stroke:#000000;stroke-width:2;stroke-miterlimit:10;" width="10.87" height="10.87"/>
			
				<rect x="187.3" y="522.52" transform="matrix(0.7071 0.7071 -0.7071 0.7071 427.7423 19.1913)" style="fill:none;stroke:#000000;stroke-width:2;stroke-miterlimit:10;" width="6.8" height="6.8"/>
			<polygon points="205.68,544.58 205.68,544.58 202,540.9 205.68,537.22 205.68,537.22 205.68,534.96 205.68,534.96 199.74,540.9 
				205.68,546.84 205.68,546.84 			"/>
			<polygon points="175.73,544.58 175.73,544.58 179.41,540.9 175.73,537.22 175.73,537.22 175.73,534.96 175.73,534.96 
				181.67,540.9 175.73,546.84 175.73,546.84 			"/>
		</g>
		<g>
			
				<rect x="65.48" y="535.47" transform="matrix(-0.7071 0.7071 -0.7071 -0.7071 503.5341 873.2292)" style="fill:none;stroke:#000000;stroke-width:2;stroke-miterlimit:10;" width="10.87" height="10.87"/>
			
				<rect x="67.51" y="522.52" transform="matrix(-0.7071 0.7071 -0.7071 -0.7071 492.9461 847.6675)" style="fill:none;stroke:#000000;stroke-width:2;stroke-miterlimit:10;" width="6.8" height="6.8"/>
			<polygon points="55.94,544.58 55.94,544.58 59.62,540.9 55.94,537.22 55.94,537.22 55.94,534.96 55.94,534.96 61.88,540.9 
				55.94,546.84 55.94,546.84 			"/>
			<polygon points="85.89,544.58 85.89,544.58 82.21,540.9 85.89,537.22 85.89,537.22 85.89,534.96 85.89,534.96 79.95,540.9 
				85.89,546.84 85.89,546.84 			"/>
		</g>
		<g>
			<polygon points="250.6,442.94 246.92,439.26 250.6,435.58 250.6,433.32 244.66,439.26 250.6,445.2 			"/>
			<polygon points="250.6,516.67 242.68,508.75 250.6,500.83 250.6,498.57 240.42,508.75 250.6,518.94 			"/>
			<polygon points="250.6,498.36 250.6,496.1 246.92,492.42 250.6,488.74 250.6,486.48 244.66,492.42 			"/>
			<polygon points="250.6,531.87 250.6,529.61 246.92,525.93 250.6,522.25 250.6,519.98 244.66,525.93 			"/>
			<polygon points="250.6,463.51 242.68,455.6 250.6,447.68 250.6,445.41 240.42,455.6 250.6,465.78 			"/>
			<polygon points="250.6,484 242.68,476.08 250.6,468.16 250.6,465.9 240.42,476.08 250.6,486.27 			"/>
			<path d="M240.21,455.6l-5.94-5.94l-5.94,5.94l5.94,5.94L240.21,455.6z M234.27,451.92l3.68,3.68l-3.68,3.68l-3.68-3.68
				L234.27,451.92z"/>
			<path d="M211.84,540.9l8.82,8.82l8.82-8.82l-8.82-8.82L211.84,540.9z M220.65,547.45l-6.55-6.55l6.55-6.55l6.55,6.55
				L220.65,547.45z"/>
			<polygon points="205.68,534.96 205.68,537.22 205.68,537.22 209.36,540.9 205.68,544.58 205.68,544.58 205.68,546.84 
				205.68,546.84 211.62,540.9 205.68,534.96 			"/>
			<path d="M235.63,534.96L235.63,534.96l-5.94,5.94l5.94,5.94l0,0l0,0l5.94-5.94L235.63,534.96L235.63,534.96z M235.63,544.58
				L235.63,544.58L235.63,544.58l-3.68-3.68l3.68-3.68l0,0l0,0l3.68,3.68L235.63,544.58z"/>
			<polygon points="250.6,547.45 244.05,540.9 250.6,534.35 250.6,532.08 241.78,540.9 250.6,549.72 			"/>
			<path d="M234.27,514.7l5.94-5.94l-5.94-5.94l-5.94,5.94L234.27,514.7z M237.94,508.75l-3.68,3.68l-3.68-3.68l3.68-3.68
				L237.94,508.75z"/>
			<path d="M219.72,476.08l-5.94-5.94l-5.94,5.94l5.94,5.94L219.72,476.08z M213.78,472.41l3.68,3.68l-3.68,3.68l-3.68-3.68
				L213.78,472.41z"/>
			<path d="M240.29,476.08l-10.18-10.18l-10.18,10.18l10.18,10.18L240.29,476.08z M230.11,468.16l7.92,7.92l-7.92,7.92l-7.92-7.92
				L230.11,468.16z"/>
			<path d="M220.65,531.87l5.94-5.94l-5.94-5.94l-5.94,5.94L220.65,531.87z M224.33,525.93l-3.68,3.68l-3.68-3.68l3.68-3.68
				L224.33,525.93z"/>
		</g>
		<g>
			<polygon points="55.94,534.96 55.94,537.22 55.94,537.22 52.26,540.9 55.94,544.58 55.94,544.58 55.94,546.84 55.94,546.84 
				50,540.9 55.94,534.96 			"/>
		</g>
	</g>
	<g>
		<g>
			<g>
				<g>
					
						<rect x="389.04" y="399.45" transform="matrix(-1 -8.880553e-11 8.880553e-11 -1 786.8386 807.6664)" width="8.77" height="8.77"/>
					
						<rect x="402.94" y="413.35" transform="matrix(-1 -9.005076e-11 9.005076e-11 -1 814.6392 835.4671)" width="8.77" height="8.77"/>
					
						<rect x="416.84" y="427.25" transform="matrix(-1 -9.005076e-11 9.005076e-11 -1 842.4398 863.2678)" width="8.77" height="8.77"/>
					<rect x="374.95" y="401.6" transform="matrix(-1.836970e-16 1 -1 -1.836970e-16 783.3522 26.651)" width="6.8" height="6.8"/>
					
						<rect x="416.65" y="443.3" transform="matrix(-1 -4.438417e-11 4.438417e-11 -1 840.1031 893.4052)" width="6.8" height="6.8"/>
					<rect x="381.9" y="408.55" transform="matrix(-1.836970e-16 1 -1 -1.836970e-16 797.2525 26.651)" width="6.8" height="6.8"/>
					<rect x="388.85" y="415.5" transform="matrix(-1.836970e-16 1 -1 -1.836970e-16 811.1528 26.651)" width="6.8" height="6.8"/>
					<rect x="395.8" y="422.45" transform="matrix(-1.836970e-16 1 -1 -1.836970e-16 825.0532 26.651)" width="6.8" height="6.8"/>
					<rect x="402.75" y="429.4" transform="matrix(-1.836970e-16 1 -1 -1.836970e-16 838.9535 26.651)" width="6.8" height="6.8"/>
					<rect x="409.7" y="436.35" transform="matrix(-1.836970e-16 1 -1 -1.836970e-16 852.8538 26.651)" width="6.8" height="6.8"/>
				</g>
				<g>
					
						<rect x="315.18" y="427.25" transform="matrix(-1.356987e-10 1 -1 -1.356987e-10 751.1939 112.0738)" width="8.77" height="8.77"/>
					
						<rect x="329.08" y="413.35" transform="matrix(-1.345574e-10 1 -1 -1.345574e-10 751.1939 84.2732)" width="8.77" height="8.77"/>
					
						<rect x="342.98" y="399.45" transform="matrix(-1.346614e-10 1 -1 -1.346614e-10 751.1939 56.4725)" width="8.77" height="8.77"/>
					<rect x="317.33" y="443.3" width="6.8" height="6.8"/>
					<rect x="359.03" y="401.6" transform="matrix(-8.970442e-11 1 -1 -8.970442e-11 767.431 42.5722)" width="6.8" height="6.8"/>
					<rect x="324.28" y="436.35" width="6.8" height="6.8"/>
					<rect x="331.23" y="429.4" width="6.8" height="6.8"/>
					<rect x="338.18" y="422.45" width="6.8" height="6.8"/>
					<rect x="345.13" y="415.5" width="6.8" height="6.8"/>
					<rect x="352.08" y="408.55" width="6.8" height="6.8"/>
				</g>
				<g>
					<rect x="342.98" y="501.11" width="8.77" height="8.77"/>
					<rect x="329.08" y="487.21" width="8.77" height="8.77"/>
					<rect x="315.18" y="473.31" width="8.77" height="8.77"/>
					
						<rect x="359.03" y="500.92" transform="matrix(8.970431e-11 -1 1 8.970431e-11 -141.8953 866.7541)" width="6.8" height="6.8"/>
					<rect x="317.33" y="459.22" width="6.8" height="6.8"/>
					
						<rect x="352.08" y="493.97" transform="matrix(8.970431e-11 -1 1 8.970431e-11 -141.8953 852.8538)" width="6.8" height="6.8"/>
					
						<rect x="345.13" y="487.02" transform="matrix(8.957108e-11 -1 1 8.957108e-11 -141.8953 838.9535)" width="6.8" height="6.8"/>
					
						<rect x="338.18" y="480.07" transform="matrix(8.983753e-11 -1 1 8.983753e-11 -141.8953 825.0532)" width="6.8" height="6.8"/>
					
						<rect x="331.23" y="473.12" transform="matrix(8.983753e-11 -1 1 8.983753e-11 -141.8953 811.1528)" width="6.8" height="6.8"/>
					
						<rect x="324.28" y="466.17" transform="matrix(8.957108e-11 -1 1 8.957108e-11 -141.8953 797.2525)" width="6.8" height="6.8"/>
				</g>
				<g>
					
						<rect x="416.84" y="473.31" transform="matrix(2.247116e-10 -1 1 2.247116e-10 -56.4725 898.9124)" width="8.77" height="8.77"/>
					
						<rect x="402.94" y="487.21" transform="matrix(2.249190e-10 -1 1 2.249190e-10 -84.2732 898.9124)" width="8.77" height="8.77"/>
					
						<rect x="389.04" y="501.11" transform="matrix(2.247116e-10 -1 1 2.247116e-10 -112.0738 898.9124)" width="8.77" height="8.77"/>
					
						<rect x="416.65" y="459.22" transform="matrix(-1 -1.336874e-10 1.336874e-10 -1 840.1031 925.2475)" width="6.8" height="6.8"/>
					
						<rect x="374.95" y="500.92" transform="matrix(1.792753e-10 -1 1 1.792753e-10 -125.9742 882.6753)" width="6.8" height="6.8"/>
					
						<rect x="409.7" y="466.17" transform="matrix(-1 -1.336874e-10 1.336874e-10 -1 826.2028 939.1478)" width="6.8" height="6.8"/>
					
						<rect x="402.75" y="473.12" transform="matrix(-1 -1.336874e-10 1.336874e-10 -1 812.3024 953.0482)" width="6.8" height="6.8"/>
					
						<rect x="395.8" y="480.07" transform="matrix(-1 -1.352915e-10 1.352915e-10 -1 798.4021 966.9485)" width="6.8" height="6.8"/>
					
						<rect x="388.85" y="487.02" transform="matrix(-1 -1.352915e-10 1.352915e-10 -1 784.5018 980.8488)" width="6.8" height="6.8"/>
					
						<rect x="381.9" y="493.97" transform="matrix(-1 -1.352915e-10 1.352915e-10 -1 770.6014 994.7491)" width="6.8" height="6.8"/>
				</g>
				<g>
					
						<rect x="358.17" y="442.45" transform="matrix(0.7071 0.7071 -0.7071 0.7071 429.9801 -128.7375)" style="fill:none;stroke:#000000;stroke-width:3;stroke-miterlimit:10;" width="24.43" height="24.43"/>
					
						<rect x="349.7" y="433.98" transform="matrix(0.7071 0.7071 -0.7071 0.7071 429.9801 -128.7375)" style="fill:none;stroke:#000000;stroke-width:3;stroke-miterlimit:10;" width="41.37" height="41.37"/>
					
						<rect x="335.98" y="420.25" transform="matrix(0.7071 0.7071 -0.7071 0.7071 429.9801 -128.7375)" style="fill:none;stroke:#000000;stroke-width:3;stroke-miterlimit:10;" width="68.82" height="68.82"/>
					
						<rect x="324.21" y="447.52" transform="matrix(0.7071 -0.7071 0.7071 0.7071 -224.445 367.4682)" width="14.28" height="14.28"/>
					<polygon points="342.15,454.4 342.15,441.85 354.7,441.85 357.58,438.97 357.58,426.43 370.12,426.43 372.95,423.61 
						354.76,423.61 354.76,439.03 339.33,439.03 339.33,457.22 					"/>
					
						<rect x="363.25" y="486.56" transform="matrix(-0.7071 -0.7071 0.7071 -0.7071 283.195 1104.7079)" width="14.28" height="14.28"/>
					<polygon points="370.12,482.9 357.58,482.9 357.58,470.35 354.7,467.47 342.15,467.47 342.15,454.93 339.33,452.11 
						339.33,470.3 354.76,470.3 354.76,485.72 372.95,485.72 					"/>
					
						<rect x="402.29" y="447.52" transform="matrix(-0.7071 0.7071 -0.7071 -0.7071 1020.4347 486.6484)" width="14.28" height="14.28"/>
					<polygon points="398.63,454.93 398.63,467.47 386.08,467.47 383.2,470.35 383.2,482.9 370.66,482.9 367.83,485.72 
						386.02,485.72 386.02,470.3 401.45,470.3 401.45,452.11 					"/>
					
						<rect x="363.25" y="408.48" transform="matrix(0.7071 0.7071 -0.7071 0.7071 402.3752 -140.1718)" width="14.28" height="14.28"/>
					<polygon points="370.66,426.43 383.2,426.43 383.2,438.97 386.08,441.85 398.62,441.85 398.63,454.4 401.45,457.22 
						401.45,439.03 386.02,439.03 386.02,423.61 367.83,423.61 					"/>
				</g>
				<g>
					
						<rect x="434.77" y="450.28" transform="matrix(-0.7071 0.7071 -0.7071 -0.7071 1071.1753 465.631)" width="8.77" height="8.77"/>
					<rect x="421.38" y="451.26" transform="matrix(-4.545360e-11 1 -1 -4.545360e-11 879.445 29.8813)" width="6.8" height="6.8"/>
					
						<rect x="428.18" y="458.06" transform="matrix(-4.411689e-11 1 -1 -4.411689e-11 893.0513 29.8813)" width="6.8" height="6.8"/>
					<rect x="428.18" y="444.46" transform="matrix(8.957108e-11 -1 1 8.957108e-11 -16.275 879.445)" width="6.8" height="6.8"/>
				</g>
				<g>
					
						<rect x="366.01" y="381.52" transform="matrix(0.7071 0.7071 -0.7071 0.7071 381.3578 -148.8775)" width="8.77" height="8.77"/>
					<rect x="366.99" y="396.87" width="6.8" height="6.8"/>
					<rect x="373.79" y="390.07" width="6.8" height="6.8"/>
					
						<rect x="360.19" y="390.07" transform="matrix(-1 -1.336874e-10 1.336874e-10 -1 727.1736 786.9363)" width="6.8" height="6.8"/>
				</g>
				<g>
					
						<rect x="297.24" y="450.28" transform="matrix(0.7071 -0.7071 0.7071 0.7071 -233.1507 346.4507)" width="8.77" height="8.77"/>
					<rect x="312.6" y="451.26" transform="matrix(1.351577e-10 -1 1 1.351577e-10 -138.665 770.6613)" width="6.8" height="6.8"/>
					<rect x="305.79" y="444.46" transform="matrix(1.352918e-10 -1 1 1.352918e-10 -138.665 757.055)" width="6.8" height="6.8"/>
					
						<rect x="305.79" y="458.06" transform="matrix(-1.794087e-10 1 -1 -1.794087e-10 770.6613 152.2713)" width="6.8" height="6.8"/>
				</g>
				<g>
					
						<rect x="366.01" y="508.11" transform="matrix(-0.7071 -0.7071 0.7071 -0.7071 269.9086 1136.7841)" width="8.77" height="8.77"/>
				</g>
			</g>
			<circle cx="370.39" cy="454.66" r="5.1"/>
		</g>
		<g>
			
				<rect x="335.01" y="535.47" transform="matrix(0.7071 0.7071 -0.7071 0.7071 482.1873 -82.3033)" style="fill:none;stroke:#000000;stroke-width:2;stroke-miterlimit:10;" width="10.87" height="10.87"/>
			
				<rect x="337.04" y="522.52" transform="matrix(0.7071 0.7071 -0.7071 0.7071 471.5993 -86.689)" style="fill:none;stroke:#000000;stroke-width:2;stroke-miterlimit:10;" width="6.8" height="6.8"/>
			<polygon points="355.42,544.58 355.42,544.58 351.74,540.9 355.42,537.22 355.42,537.22 355.42,534.96 355.42,534.96 
				349.47,540.9 355.42,546.84 355.42,546.84 			"/>
			<polygon points="325.47,544.58 325.47,544.58 329.15,540.9 325.47,537.22 325.47,537.22 325.47,534.96 325.47,534.96 
				331.41,540.9 325.47,546.84 325.47,546.84 			"/>
		</g>
		<g>
			
				<rect x="364.96" y="535.47" transform="matrix(0.7071 0.7071 -0.7071 0.7071 490.9587 -103.4793)" style="fill:none;stroke:#000000;stroke-width:2;stroke-miterlimit:10;" width="10.87" height="10.87"/>
			
				<rect x="366.99" y="522.52" transform="matrix(0.7071 0.7071 -0.7071 0.7071 480.3707 -107.865)" style="fill:none;stroke:#000000;stroke-width:2;stroke-miterlimit:10;" width="6.8" height="6.8"/>
			<polygon points="385.36,544.58 385.36,544.58 381.68,540.9 385.36,537.22 385.36,537.22 385.36,534.96 385.36,534.96 
				379.42,540.9 385.36,546.84 385.36,546.84 			"/>
			<polygon points="355.42,544.58 355.42,544.58 359.1,540.9 355.42,537.22 355.42,537.22 355.42,534.96 355.42,534.96 
				361.36,540.9 355.42,546.84 355.42,546.84 			"/>
		</g>
		<g>
			
				<rect x="394.9" y="535.47" transform="matrix(0.7071 0.7071 -0.7071 0.7071 499.7302 -124.6554)" style="fill:none;stroke:#000000;stroke-width:2;stroke-miterlimit:10;" width="10.87" height="10.87"/>
			
				<rect x="396.94" y="522.52" transform="matrix(0.7071 0.7071 -0.7071 0.7071 489.1421 -129.0411)" style="fill:none;stroke:#000000;stroke-width:2;stroke-miterlimit:10;" width="6.8" height="6.8"/>
			<polygon points="415.31,544.58 415.31,544.58 411.63,540.9 415.31,537.22 415.31,537.22 415.31,534.96 415.31,534.96 
				409.37,540.9 415.31,546.84 415.31,546.84 			"/>
			<polygon points="385.36,544.58 385.36,544.58 389.04,540.9 385.36,537.22 385.36,537.22 385.36,534.96 385.36,534.96 
				391.31,540.9 385.36,546.84 385.36,546.84 			"/>
		</g>
		<g>
			
				<rect x="424.85" y="535.47" transform="matrix(0.7071 0.7071 -0.7071 0.7071 508.5016 -145.8315)" style="fill:none;stroke:#000000;stroke-width:2;stroke-miterlimit:10;" width="10.87" height="10.87"/>
			
				<rect x="426.88" y="522.52" transform="matrix(0.7071 0.7071 -0.7071 0.7071 497.9135 -150.2171)" style="fill:none;stroke:#000000;stroke-width:2;stroke-miterlimit:10;" width="6.8" height="6.8"/>
			<polygon points="445.26,544.58 445.26,544.58 441.58,540.9 445.26,537.22 445.26,537.22 445.26,534.96 445.26,534.96 
				439.32,540.9 445.26,546.84 445.26,546.84 			"/>
			<polygon points="415.31,544.58 415.31,544.58 418.99,540.9 415.31,537.22 415.31,537.22 415.31,534.96 415.31,534.96 
				421.25,540.9 415.31,546.84 415.31,546.84 			"/>
		</g>
		<g>
			
				<rect x="305.06" y="535.47" transform="matrix(-0.7071 0.7071 -0.7071 -0.7071 912.5222 703.8208)" style="fill:none;stroke:#000000;stroke-width:2;stroke-miterlimit:10;" width="10.87" height="10.87"/>
			
				<rect x="307.09" y="522.52" transform="matrix(-0.7071 0.7071 -0.7071 -0.7071 901.9342 678.2591)" style="fill:none;stroke:#000000;stroke-width:2;stroke-miterlimit:10;" width="6.8" height="6.8"/>
			<polygon points="295.52,544.58 295.52,544.58 299.2,540.9 295.52,537.22 295.52,537.22 295.52,534.96 295.52,534.96 
				301.46,540.9 295.52,546.84 295.52,546.84 			"/>
			<polygon points="325.47,544.58 325.47,544.58 321.79,540.9 325.47,537.22 325.47,537.22 325.47,534.96 325.47,534.96 
				319.53,540.9 325.47,546.84 325.47,546.84 			"/>
		</g>
		<g>
			<polygon points="250.6,442.94 254.28,439.26 250.6,435.58 250.6,433.32 256.54,439.26 250.6,445.2 			"/>
			<polygon points="250.6,516.67 258.52,508.75 250.6,500.83 250.6,498.57 260.78,508.75 250.6,518.94 			"/>
			<polygon points="250.6,498.36 250.6,496.1 254.28,492.42 250.6,488.74 250.6,486.48 256.54,492.42 			"/>
			<polygon points="250.6,531.87 250.6,529.61 254.28,525.93 250.6,522.25 250.6,519.98 256.54,525.93 			"/>
			<polygon points="250.6,463.51 258.52,455.6 250.6,447.68 250.6,445.41 260.78,455.6 250.6,465.78 			"/>
			<polygon points="250.6,484 258.52,476.08 250.6,468.16 250.6,465.9 260.78,476.08 250.6,486.27 			"/>
			<path d="M266.93,461.54l5.94-5.94l-5.94-5.94l-5.94,5.94L266.93,461.54z M270.61,455.6l-3.68,3.68l-3.68-3.68l3.68-3.68
				L270.61,455.6z"/>
			<path d="M280.55,532.08l-8.82,8.82l8.82,8.82l8.82-8.82L280.55,532.08z M273.99,540.9l6.55-6.55l6.55,6.55l-6.55,6.55
				L273.99,540.9z"/>
			<polygon points="295.52,534.96 295.52,537.22 295.52,537.22 291.84,540.9 295.52,544.58 295.52,544.58 295.52,546.84 
				295.52,546.84 289.58,540.9 295.52,534.96 			"/>
			<path d="M265.57,534.96l-5.94,5.94l5.94,5.94l0,0l0,0l5.94-5.94L265.57,534.96L265.57,534.96L265.57,534.96z M261.89,540.9
				l3.68-3.68l0,0l0,0l3.68,3.68l-3.68,3.68l0,0l0,0L261.89,540.9z"/>
			<polygon points="250.6,547.45 257.15,540.9 250.6,534.35 250.6,532.08 259.42,540.9 250.6,549.72 			"/>
			<path d="M272.88,508.75l-5.94-5.94l-5.94,5.94l5.94,5.94L272.88,508.75z M266.93,505.07l3.68,3.68l-3.68,3.68l-3.68-3.68
				L266.93,505.07z"/>
			<path d="M287.42,482.03l5.94-5.94l-5.94-5.94l-5.94,5.94L287.42,482.03z M291.1,476.08l-3.68,3.68l-3.68-3.68l3.68-3.68
				L291.1,476.08z"/>
			<path d="M271.09,486.27l10.18-10.18l-10.18-10.18l-10.18,10.18L271.09,486.27z M279.01,476.08l-7.92,7.92l-7.92-7.92l7.92-7.92
				L279.01,476.08z"/>
			<path d="M286.49,525.93l-5.94-5.94l-5.94,5.94l5.94,5.94L286.49,525.93z M280.55,522.25l3.68,3.68l-3.68,3.68l-3.68-3.68
				L280.55,522.25z"/>
		</g>
	</g>
</g>
<g>
</g>
<g>
</g>
<g>
</g>
<g>
</g>
<g>
</g>
<g>
</g>
<g>
</g>
<g>
</g>
<g>
</g>
<g>
</g>
<g>
</g>
<g>
</g>
<g>
</g>
<g>
</g>
<g>
</g>
</svg>
