<?xml version="1.0" encoding="utf-8"?>
<!-- Generator: Adobe Illustrator 27.2.0, SVG Export Plug-In . SVG Version: 6.00 Build 0)  -->
<svg version="1.1" id="Layer_1" xmlns="http://www.w3.org/2000/svg" xmlns:xlink="http://www.w3.org/1999/xlink" x="0px" y="0px"
	 viewBox="0 0 800 600" style="enable-background:new 0 0 800 600;" xml:space="preserve">
<g>
	<g>
		<rect x="154.88" y="447.95" width="5.67" height="5.67"/>
		<rect x="154.88" y="459.29" width="5.67" height="5.67"/>
		<rect x="143.54" y="447.95" width="5.67" height="5.67"/>
		<rect x="143.54" y="459.29" width="5.67" height="5.67"/>
		<rect x="132.2" y="459.29" width="5.67" height="5.67"/>
		<rect x="200.24" y="481.97" width="5.67" height="5.67"/>
		<rect x="137.87" y="453.62" width="5.67" height="5.67"/>
		<rect x="120.87" y="425.28" width="5.67" height="5.67"/>
		<rect x="120.87" y="436.61" width="5.67" height="5.67"/>
		<rect x="132.2" y="425.28" width="5.67" height="5.67"/>
		<rect x="132.2" y="447.95" width="5.67" height="5.67"/>
		<rect x="149.21" y="442.28" width="5.67" height="5.67"/>
		<rect x="205.91" y="487.64" width="2.83" height="5.67"/>
		<rect x="160.55" y="453.62" width="5.67" height="5.67"/>
		<rect x="149.21" y="464.96" width="5.67" height="5.67"/>
		<rect x="205.91" y="442.28" width="2.83" height="5.67"/>
		<rect x="120.87" y="447.95" width="5.67" height="5.67"/>
		<rect x="177.56" y="470.63" width="5.67" height="5.67"/>
		<rect x="200.24" y="459.29" width="5.67" height="5.67"/>
		<rect x="188.9" y="481.97" width="5.67" height="5.67"/>
		<rect x="188.9" y="470.63" width="5.67" height="5.67"/>
		<rect x="194.57" y="453.62" width="5.67" height="5.67"/>
		<rect x="194.57" y="476.3" width="5.67" height="5.67"/>
		<rect x="200.24" y="447.95" width="5.67" height="5.67"/>
		<rect x="177.56" y="481.97" width="5.67" height="5.67"/>
		<rect x="200.24" y="470.63" width="5.67" height="5.67"/>
		<rect x="205.91" y="464.96" width="2.83" height="5.67"/>
		<rect x="120.87" y="459.29" width="5.67" height="5.67"/>
		<rect x="126.54" y="464.96" width="5.67" height="5.67"/>
		<rect x="183.23" y="464.96" width="5.67" height="5.67"/>
		<rect x="183.23" y="487.64" width="5.67" height="5.67"/>
		<rect x="171.89" y="476.3" width="5.67" height="5.67"/>
		<rect x="126.54" y="442.28" width="5.67" height="5.67"/>
		<rect x="132.2" y="436.61" width="5.67" height="5.67"/>
		<rect x="75.51" y="470.63" width="5.67" height="5.67"/>
		<rect x="75.51" y="481.97" width="5.67" height="5.67"/>
		<rect x="64.17" y="481.97" width="5.67" height="5.67"/>
		<rect x="52.83" y="481.97" width="5.67" height="5.67"/>
		<rect x="58.5" y="476.3" width="5.67" height="5.67"/>
		<rect x="50" y="487.64" width="2.83" height="5.67"/>
		<rect x="69.84" y="510.32" width="5.67" height="5.67"/>
		<rect x="69.84" y="487.64" width="5.67" height="5.67"/>
		<rect x="58.5" y="453.62" width="5.67" height="5.67"/>
		<rect x="52.83" y="447.95" width="5.67" height="5.67"/>
		<rect x="50" y="442.28" width="2.83" height="5.67"/>
		<rect x="50" y="464.96" width="2.83" height="5.67"/>
		<rect x="69.84" y="464.96" width="5.67" height="5.67"/>
		<rect x="52.83" y="459.29" width="5.67" height="5.67"/>
		<rect x="81.18" y="476.3" width="5.67" height="5.67"/>
		<rect x="52.83" y="470.63" width="5.67" height="5.67"/>
		<rect x="64.17" y="470.63" width="5.67" height="5.67"/>
		<rect x="115.2" y="453.62" width="5.67" height="5.67"/>
		<rect x="109.53" y="459.29" width="5.67" height="5.67"/>
		<rect x="98.19" y="459.29" width="5.67" height="5.67"/>
		<rect x="98.19" y="447.95" width="5.67" height="5.67"/>
		<rect x="126.54" y="419.61" width="5.67" height="5.67"/>
		<rect x="137.87" y="430.94" width="5.67" height="5.67"/>
		<rect x="115.2" y="430.94" width="5.67" height="5.67"/>
		<rect x="109.53" y="447.95" width="5.67" height="5.67"/>
		<rect x="58.5" y="521.65" width="5.67" height="5.67"/>
		<rect x="52.83" y="493.31" width="5.67" height="5.67"/>
		<rect x="50" y="510.32" width="2.83" height="5.67"/>
		<rect x="58.5" y="498.98" width="5.67" height="5.67"/>
		<rect x="64.17" y="504.65" width="5.67" height="5.67"/>
		<rect x="52.83" y="515.98" width="5.67" height="5.67"/>
		<rect x="92.52" y="453.62" width="5.67" height="5.67"/>
		<rect x="103.86" y="464.96" width="5.67" height="5.67"/>
		<rect x="103.86" y="442.28" width="5.67" height="5.67"/>
		<rect x="132.2" y="515.98" width="5.67" height="5.67"/>
		<rect x="171.89" y="532.99" width="5.67" height="5.67"/>
		<rect x="86.85" y="527.32" width="5.67" height="5.67"/>
		<rect x="75.51" y="538.66" width="5.67" height="5.67"/>
		<rect x="81.18" y="532.99" width="5.67" height="5.67"/>
		<rect x="92.52" y="521.65" width="5.67" height="5.67"/>
		<rect x="126.54" y="487.64" width="5.67" height="5.67"/>
		<rect x="103.86" y="510.32" width="5.67" height="5.67"/>
		<rect x="120.87" y="493.31" width="5.67" height="5.67"/>
		<rect x="109.53" y="504.65" width="5.67" height="5.67"/>
		<rect x="115.2" y="498.98" width="5.67" height="5.67"/>
		<rect x="149.21" y="510.32" width="5.67" height="5.67"/>
		<rect x="160.55" y="521.65" width="5.67" height="5.67"/>
		<rect x="69.84" y="544.33" width="5.67" height="5.67"/>
		<rect x="166.22" y="527.32" width="5.67" height="5.67"/>
		<rect x="154.88" y="515.98" width="5.67" height="5.67"/>
		<rect x="143.54" y="504.65" width="5.67" height="5.67"/>
		<rect x="132.2" y="493.31" width="5.67" height="5.67"/>
		<rect x="137.87" y="498.98" width="5.67" height="5.67"/>
		<rect x="98.19" y="515.98" width="5.67" height="5.67"/>
		<rect x="126.54" y="510.32" width="5.67" height="5.67"/>
		<rect x="137.87" y="544.33" width="5.67" height="5.67"/>
		<rect x="132.2" y="538.66" width="5.67" height="5.67"/>
		<rect x="120.87" y="515.98" width="5.67" height="5.67"/>
		<rect x="120.87" y="538.66" width="5.67" height="5.67"/>
		<rect x="160.55" y="544.33" width="5.67" height="5.67"/>
		<rect x="126.54" y="532.99" width="5.67" height="5.67"/>
		<rect x="115.2" y="521.65" width="5.67" height="5.67"/>
		<rect x="115.2" y="544.33" width="5.67" height="5.67"/>
		<rect x="149.21" y="532.99" width="5.67" height="5.67"/>
		<rect x="109.53" y="527.32" width="5.67" height="5.67"/>
		<rect x="137.87" y="521.65" width="5.67" height="5.67"/>
		<rect x="154.88" y="538.66" width="5.67" height="5.67"/>
		<rect x="143.54" y="527.32" width="5.67" height="5.67"/>
		<rect x="103.86" y="532.99" width="5.67" height="5.67"/>
		<rect x="92.52" y="544.33" width="5.67" height="5.67"/>
		<rect x="98.19" y="538.66" width="5.67" height="5.67"/>
		<rect x="166.22" y="504.65" width="5.67" height="5.67"/>
		<rect x="177.56" y="515.98" width="5.67" height="5.67"/>
		<rect x="183.23" y="521.65" width="5.67" height="5.67"/>
		<rect x="188.9" y="527.32" width="5.67" height="5.67"/>
		<rect x="171.89" y="510.32" width="5.67" height="5.67"/>
		<rect x="200.24" y="493.31" width="5.67" height="5.67"/>
		<rect x="177.56" y="538.66" width="5.67" height="5.67"/>
		<rect x="143.54" y="481.97" width="5.67" height="5.67"/>
		<rect x="154.88" y="493.31" width="5.67" height="5.67"/>
		<rect x="160.55" y="498.98" width="5.67" height="5.67"/>
		<rect x="194.57" y="532.99" width="5.67" height="5.67"/>
		<rect x="200.24" y="538.66" width="5.67" height="5.67"/>
		<rect x="183.23" y="510.32" width="5.67" height="5.67"/>
		<rect x="205.91" y="510.32" width="2.83" height="5.67"/>
		<rect x="194.57" y="498.98" width="5.67" height="5.67"/>
		<rect x="188.9" y="504.65" width="5.67" height="5.67"/>
		<rect x="205.91" y="544.33" width="2.83" height="5.67"/>
		<rect x="194.57" y="521.65" width="5.67" height="5.67"/>
		<rect x="200.24" y="515.98" width="5.67" height="5.67"/>
		<rect x="149.21" y="487.64" width="5.67" height="5.67"/>
		<rect x="64.17" y="527.32" width="5.67" height="5.67"/>
		<rect x="58.5" y="532.99" width="5.67" height="5.67"/>
		<rect x="69.84" y="521.65" width="5.67" height="5.67"/>
		<rect x="81.18" y="510.32" width="5.67" height="5.67"/>
		<rect x="75.51" y="515.98" width="5.67" height="5.67"/>
		<rect x="183.23" y="544.33" width="5.67" height="5.67"/>
		<rect x="52.83" y="538.66" width="5.67" height="5.67"/>
		<rect x="50" y="544.33" width="2.83" height="5.67"/>
		<rect x="103.86" y="487.64" width="5.67" height="5.67"/>
		<rect x="120.87" y="470.63" width="5.67" height="5.67"/>
		<rect x="109.53" y="481.97" width="5.67" height="5.67"/>
		<rect x="115.2" y="476.3" width="5.67" height="5.67"/>
		<rect x="132.2" y="470.63" width="5.67" height="5.67"/>
		<rect x="92.52" y="498.98" width="5.67" height="5.67"/>
		<rect x="137.87" y="476.3" width="5.67" height="5.67"/>
		<rect x="86.85" y="504.65" width="5.67" height="5.67"/>
		<rect x="98.19" y="493.31" width="5.67" height="5.67"/>
	</g>
	<g>
		<rect x="313.62" y="447.95" width="5.67" height="5.67"/>
		<rect x="313.62" y="459.29" width="5.67" height="5.67"/>
		<rect x="302.28" y="447.95" width="5.67" height="5.67"/>
		<rect x="302.28" y="459.29" width="5.67" height="5.67"/>
		<rect x="290.94" y="459.29" width="5.67" height="5.67"/>
		<rect x="358.98" y="481.97" width="5.67" height="5.67"/>
		<rect x="296.61" y="453.62" width="5.67" height="5.67"/>
		<rect x="279.61" y="425.28" width="5.67" height="5.67"/>
		<rect x="279.61" y="436.61" width="5.67" height="5.67"/>
		<rect x="290.94" y="425.28" width="5.67" height="5.67"/>
		<rect x="290.94" y="447.95" width="5.67" height="5.67"/>
		<rect x="307.95" y="442.28" width="5.67" height="5.67"/>
		<rect x="364.65" y="487.64" width="2.83" height="5.67"/>
		<rect x="319.29" y="453.62" width="5.67" height="5.67"/>
		<rect x="307.95" y="464.96" width="5.67" height="5.67"/>
		<rect x="364.65" y="442.28" width="2.83" height="5.67"/>
		<rect x="279.61" y="447.95" width="5.67" height="5.67"/>
		<rect x="336.3" y="470.63" width="5.67" height="5.67"/>
		<rect x="358.98" y="459.29" width="5.67" height="5.67"/>
		<rect x="347.64" y="481.97" width="5.67" height="5.67"/>
		<rect x="347.64" y="470.63" width="5.67" height="5.67"/>
		<rect x="353.31" y="453.62" width="5.67" height="5.67"/>
		<rect x="353.31" y="476.3" width="5.67" height="5.67"/>
		<rect x="358.98" y="447.95" width="5.67" height="5.67"/>
		<rect x="336.3" y="481.97" width="5.67" height="5.67"/>
		<rect x="358.98" y="470.63" width="5.67" height="5.67"/>
		<rect x="364.65" y="464.96" width="2.83" height="5.67"/>
		<rect x="279.61" y="459.29" width="5.67" height="5.67"/>
		<rect x="285.28" y="464.96" width="5.67" height="5.67"/>
		<rect x="341.97" y="464.96" width="5.67" height="5.67"/>
		<rect x="341.97" y="487.64" width="5.67" height="5.67"/>
		<rect x="330.63" y="476.3" width="5.67" height="5.67"/>
		<rect x="285.28" y="442.28" width="5.67" height="5.67"/>
		<rect x="290.94" y="436.61" width="5.67" height="5.67"/>
		<rect x="234.25" y="470.63" width="5.67" height="5.67"/>
		<rect x="234.25" y="481.97" width="5.67" height="5.67"/>
		<rect x="222.91" y="481.97" width="5.67" height="5.67"/>
		<rect x="211.57" y="481.97" width="5.67" height="5.67"/>
		<rect x="217.24" y="476.3" width="5.67" height="5.67"/>
		<rect x="208.74" y="487.64" width="2.83" height="5.67"/>
		<rect x="228.58" y="510.32" width="5.67" height="5.67"/>
		<rect x="228.58" y="487.64" width="5.67" height="5.67"/>
		<rect x="217.24" y="453.62" width="5.67" height="5.67"/>
		<rect x="211.57" y="447.95" width="5.67" height="5.67"/>
		<rect x="208.74" y="442.28" width="2.83" height="5.67"/>
		<rect x="208.74" y="464.96" width="2.83" height="5.67"/>
		<rect x="228.58" y="464.96" width="5.67" height="5.67"/>
		<rect x="211.57" y="459.29" width="5.67" height="5.67"/>
		<rect x="239.92" y="476.3" width="5.67" height="5.67"/>
		<rect x="211.57" y="470.63" width="5.67" height="5.67"/>
		<rect x="222.91" y="470.63" width="5.67" height="5.67"/>
		<rect x="273.94" y="453.62" width="5.67" height="5.67"/>
		<rect x="268.27" y="459.29" width="5.67" height="5.67"/>
		<rect x="256.93" y="459.29" width="5.67" height="5.67"/>
		<rect x="256.93" y="447.95" width="5.67" height="5.67"/>
		<rect x="285.28" y="419.61" width="5.67" height="5.67"/>
		<rect x="296.61" y="430.94" width="5.67" height="5.67"/>
		<rect x="273.94" y="430.94" width="5.67" height="5.67"/>
		<rect x="268.27" y="447.95" width="5.67" height="5.67"/>
		<rect x="217.24" y="521.65" width="5.67" height="5.67"/>
		<rect x="211.57" y="493.31" width="5.67" height="5.67"/>
		<rect x="208.74" y="510.32" width="2.83" height="5.67"/>
		<rect x="217.24" y="498.98" width="5.67" height="5.67"/>
		<rect x="222.91" y="504.65" width="5.67" height="5.67"/>
		<rect x="211.57" y="515.98" width="5.67" height="5.67"/>
		<rect x="251.26" y="453.62" width="5.67" height="5.67"/>
		<rect x="262.6" y="464.96" width="5.67" height="5.67"/>
		<rect x="262.6" y="442.28" width="5.67" height="5.67"/>
		<rect x="290.94" y="515.98" width="5.67" height="5.67"/>
		<rect x="330.63" y="532.99" width="5.67" height="5.67"/>
		<rect x="245.59" y="527.32" width="5.67" height="5.67"/>
		<rect x="234.25" y="538.66" width="5.67" height="5.67"/>
		<rect x="239.92" y="532.99" width="5.67" height="5.67"/>
		<rect x="251.26" y="521.65" width="5.67" height="5.67"/>
		<rect x="285.28" y="487.64" width="5.67" height="5.67"/>
		<rect x="262.6" y="510.32" width="5.67" height="5.67"/>
		<rect x="279.61" y="493.31" width="5.67" height="5.67"/>
		<rect x="268.27" y="504.65" width="5.67" height="5.67"/>
		<rect x="273.94" y="498.98" width="5.67" height="5.67"/>
		<rect x="307.95" y="510.32" width="5.67" height="5.67"/>
		<rect x="319.29" y="521.65" width="5.67" height="5.67"/>
		<rect x="228.58" y="544.33" width="5.67" height="5.67"/>
		<rect x="324.96" y="527.32" width="5.67" height="5.67"/>
		<rect x="313.62" y="515.98" width="5.67" height="5.67"/>
		<rect x="302.28" y="504.65" width="5.67" height="5.67"/>
		<rect x="290.94" y="493.31" width="5.67" height="5.67"/>
		<rect x="296.61" y="498.98" width="5.67" height="5.67"/>
		<rect x="256.93" y="515.98" width="5.67" height="5.67"/>
		<rect x="285.28" y="510.32" width="5.67" height="5.67"/>
		<rect x="296.61" y="544.33" width="5.67" height="5.67"/>
		<rect x="290.94" y="538.66" width="5.67" height="5.67"/>
		<rect x="279.61" y="515.98" width="5.67" height="5.67"/>
		<rect x="279.61" y="538.66" width="5.67" height="5.67"/>
		<rect x="319.29" y="544.33" width="5.67" height="5.67"/>
		<rect x="285.28" y="532.99" width="5.67" height="5.67"/>
		<rect x="273.94" y="521.65" width="5.67" height="5.67"/>
		<rect x="273.94" y="544.33" width="5.67" height="5.67"/>
		<rect x="307.95" y="532.99" width="5.67" height="5.67"/>
		<rect x="268.27" y="527.32" width="5.67" height="5.67"/>
		<rect x="296.61" y="521.65" width="5.67" height="5.67"/>
		<rect x="313.62" y="538.66" width="5.67" height="5.67"/>
		<rect x="302.28" y="527.32" width="5.67" height="5.67"/>
		<rect x="262.6" y="532.99" width="5.67" height="5.67"/>
		<rect x="251.26" y="544.33" width="5.67" height="5.67"/>
		<rect x="256.93" y="538.66" width="5.67" height="5.67"/>
		<rect x="324.96" y="504.65" width="5.67" height="5.67"/>
		<rect x="336.3" y="515.98" width="5.67" height="5.67"/>
		<rect x="341.97" y="521.65" width="5.67" height="5.67"/>
		<rect x="347.64" y="527.32" width="5.67" height="5.67"/>
		<rect x="330.63" y="510.32" width="5.67" height="5.67"/>
		<rect x="358.98" y="493.31" width="5.67" height="5.67"/>
		<rect x="336.3" y="538.66" width="5.67" height="5.67"/>
		<rect x="302.28" y="481.97" width="5.67" height="5.67"/>
		<rect x="313.62" y="493.31" width="5.67" height="5.67"/>
		<rect x="319.29" y="498.98" width="5.67" height="5.67"/>
		<rect x="353.31" y="532.99" width="5.67" height="5.67"/>
		<rect x="358.98" y="538.66" width="5.67" height="5.67"/>
		<rect x="341.97" y="510.32" width="5.67" height="5.67"/>
		<rect x="364.65" y="510.32" width="2.83" height="5.67"/>
		<rect x="353.31" y="498.98" width="5.67" height="5.67"/>
		<rect x="347.64" y="504.65" width="5.67" height="5.67"/>
		<rect x="364.65" y="544.33" width="2.83" height="5.67"/>
		<rect x="353.31" y="521.65" width="5.67" height="5.67"/>
		<rect x="358.98" y="515.98" width="5.67" height="5.67"/>
		<rect x="307.95" y="487.64" width="5.67" height="5.67"/>
		<rect x="222.91" y="527.32" width="5.67" height="5.67"/>
		<rect x="217.24" y="532.99" width="5.67" height="5.67"/>
		<rect x="228.58" y="521.65" width="5.67" height="5.67"/>
		<rect x="239.92" y="510.32" width="5.67" height="5.67"/>
		<rect x="234.25" y="515.98" width="5.67" height="5.67"/>
		<rect x="341.97" y="544.33" width="5.67" height="5.67"/>
		<rect x="211.57" y="538.66" width="5.67" height="5.67"/>
		<rect x="208.74" y="544.33" width="2.83" height="5.67"/>
		<rect x="262.6" y="487.64" width="5.67" height="5.67"/>
		<rect x="279.61" y="470.63" width="5.67" height="5.67"/>
		<rect x="268.27" y="481.97" width="5.67" height="5.67"/>
		<rect x="273.94" y="476.3" width="5.67" height="5.67"/>
		<rect x="290.94" y="470.63" width="5.67" height="5.67"/>
		<rect x="251.26" y="498.98" width="5.67" height="5.67"/>
		<rect x="296.61" y="476.3" width="5.67" height="5.67"/>
		<rect x="245.59" y="504.65" width="5.67" height="5.67"/>
		<rect x="256.93" y="493.31" width="5.67" height="5.67"/>
	</g>
</g>
<g>
</g>
<g>
</g>
<g>
</g>
<g>
</g>
<g>
</g>
<g>
</g>
<g>
</g>
<g>
</g>
<g>
</g>
<g>
</g>
<g>
</g>
<g>
</g>
<g>
</g>
<g>
</g>
<g>
</g>
</svg>
