<?xml version="1.0" encoding="utf-8"?>
<!-- Generator: Adobe Illustrator 27.2.0, SVG Export Plug-In . SVG Version: 6.00 Build 0)  -->
<svg version="1.1" id="Layer_1" xmlns="http://www.w3.org/2000/svg" xmlns:xlink="http://www.w3.org/1999/xlink" x="0px" y="0px"
	 viewBox="0 0 800 600" style="enable-background:new 0 0 800 600;" xml:space="preserve">
<g>
	<g>
		<g>
			<polygon points="166.79,501.1 166.79,504.22 161.52,504.22 161.52,509.49 158.39,509.49 158.39,504.22 151.34,504.22 
				151.34,511.28 156.61,511.28 156.61,514.4 151.34,514.4 151.34,519.67 148.22,519.67 148.22,514.4 142.95,514.4 142.95,511.28 
				148.22,511.28 148.22,504.22 141.16,504.22 141.16,509.49 138.04,509.49 138.04,504.22 130.98,504.22 130.98,511.28 
				136.25,511.28 136.25,514.4 130.98,514.4 130.98,521.45 138.04,521.45 138.04,516.18 141.16,516.18 141.16,521.45 146.43,521.45 
				146.43,524.57 141.16,524.57 141.16,529.84 138.04,529.84 138.04,524.57 130.98,524.57 130.98,531.63 136.25,531.63 
				136.25,534.75 130.98,534.75 130.98,540.02 127.86,540.02 127.86,534.75 122.59,534.75 122.59,531.63 127.86,531.63 
				127.86,524.57 120.81,524.57 120.81,529.84 117.69,529.84 117.69,524.57 112.42,524.57 112.42,521.45 117.69,521.45 
				117.69,516.18 120.81,516.18 120.81,521.45 127.86,521.45 127.86,514.4 122.59,514.4 122.59,511.28 127.86,511.28 127.86,504.22 
				120.81,504.22 120.81,509.49 117.69,509.49 117.69,504.22 110.63,504.22 110.63,511.28 115.9,511.28 115.9,514.4 110.63,514.4 
				110.63,519.67 107.51,519.67 107.51,514.4 102.24,514.4 102.24,511.28 107.51,511.28 107.51,504.22 100.45,504.22 100.45,509.49 
				97.33,509.49 97.33,504.22 92.06,504.22 92.06,501.1 97.33,501.1 97.33,495.83 100.45,495.83 100.45,501.1 107.51,501.1 
				107.51,494.04 102.24,494.04 102.24,490.92 107.51,490.92 107.51,485.65 110.63,485.65 110.63,490.92 115.9,490.92 115.9,494.04 
				110.63,494.04 110.63,501.1 117.69,501.1 117.69,495.83 120.81,495.83 120.81,501.1 127.86,501.1 127.86,494.04 122.59,494.04 
				122.59,490.92 127.86,490.92 127.86,483.87 120.81,483.87 120.81,489.14 117.69,489.14 117.69,483.87 112.42,483.87 
				112.42,480.75 117.69,480.75 117.69,475.48 120.81,475.48 120.81,480.75 127.86,480.75 127.86,473.69 122.59,473.69 
				122.59,470.57 127.86,470.57 127.86,465.3 130.98,465.3 130.98,470.57 136.25,470.57 136.25,473.69 130.98,473.69 130.98,480.75 
				138.04,480.75 138.04,475.48 141.16,475.48 141.16,480.75 146.43,480.75 146.43,483.87 141.16,483.87 141.16,489.14 
				138.04,489.14 138.04,483.87 130.98,483.87 130.98,490.92 136.25,490.92 136.25,494.04 130.98,494.04 130.98,501.1 138.04,501.1 
				138.04,495.83 141.16,495.83 141.16,501.1 148.22,501.1 148.22,494.04 142.95,494.04 142.95,490.92 148.22,490.92 148.22,485.65 
				151.34,485.65 151.34,490.92 156.61,490.92 156.61,494.04 151.34,494.04 151.34,501.1 158.39,501.1 158.39,495.83 161.52,495.83 
				161.52,501.1 			"/>
		</g>
		<polygon points="56.55,549.99 59.67,549.99 59.67,544.72 66.73,544.72 66.73,550 69.85,550 69.85,544.72 76.91,544.72 
			76.91,549.99 80.03,549.99 80.03,544.72 87.08,544.72 87.08,550 90.2,550 90.2,544.72 97.26,544.72 97.26,549.99 100.38,549.99 
			100.38,544.72 107.44,544.72 107.44,550 110.56,550 110.56,544.72 117.61,544.72 117.61,549.99 120.74,549.99 120.74,544.72 
			126.01,544.72 126.01,541.6 120.74,541.6 120.74,536.33 117.61,536.33 117.61,541.6 110.56,541.6 110.56,534.54 115.83,534.54 
			115.83,531.42 110.56,531.42 110.56,526.15 107.44,526.15 107.44,531.42 102.17,531.42 102.17,534.54 107.44,534.54 107.44,541.6 
			100.38,541.6 100.38,536.33 97.26,536.33 97.26,541.6 90.2,541.6 90.2,534.54 95.47,534.54 95.47,531.42 90.2,531.42 90.2,524.37 
			97.26,524.37 97.26,529.64 100.38,529.64 100.38,524.37 105.65,524.37 105.65,521.25 100.38,521.25 100.38,515.98 97.26,515.98 
			97.26,521.25 90.2,521.25 90.2,514.19 95.47,514.19 95.47,511.07 90.2,511.07 90.2,505.8 87.08,505.8 87.08,511.07 81.81,511.07 
			81.81,514.19 87.08,514.19 87.08,521.25 80.03,521.25 80.03,515.98 76.91,515.98 76.91,521.25 71.64,521.25 71.64,524.37 
			76.91,524.37 76.91,529.64 80.03,529.64 80.03,524.37 87.08,524.37 87.08,531.42 81.81,531.42 81.81,534.54 87.08,534.54 
			87.08,541.6 80.03,541.6 80.03,536.33 76.91,536.33 76.91,541.6 69.85,541.6 69.85,534.54 75.12,534.54 75.12,531.42 
			69.85,531.42 69.85,526.15 66.73,526.15 66.73,531.42 61.46,531.42 61.46,534.54 66.73,534.54 66.73,541.6 59.67,541.6 
			59.67,536.33 56.55,536.33 56.55,541.6 51.28,541.6 51.28,544.72 56.55,544.72 		"/>
		<polygon points="202.3,549.99 199.18,549.99 199.18,544.72 192.12,544.72 192.12,550 189,550 189,544.72 181.94,544.72 
			181.94,549.99 178.82,549.99 178.82,544.72 171.77,544.72 171.77,550 168.65,550 168.65,544.72 161.59,544.72 161.59,549.99 
			158.47,549.99 158.47,544.72 151.41,544.72 151.41,550 148.29,550 148.29,544.72 141.24,544.72 141.24,549.99 138.11,549.99 
			138.11,544.72 132.84,544.72 132.84,541.6 138.11,541.6 138.11,536.33 141.24,536.33 141.24,541.6 148.29,541.6 148.29,534.54 
			143.02,534.54 143.02,531.42 148.29,531.42 148.29,526.15 151.41,526.15 151.41,531.42 156.68,531.42 156.68,534.54 
			151.41,534.54 151.41,541.6 158.47,541.6 158.47,536.33 161.59,536.33 161.59,541.6 168.65,541.6 168.65,534.54 163.38,534.54 
			163.38,531.42 168.65,531.42 168.65,524.37 161.59,524.37 161.59,529.64 158.47,529.64 158.47,524.37 153.2,524.37 153.2,521.25 
			158.47,521.25 158.47,515.98 161.59,515.98 161.59,521.25 168.65,521.25 168.65,514.19 163.38,514.19 163.38,511.07 
			168.65,511.07 168.65,505.8 171.77,505.8 171.77,511.07 177.04,511.07 177.04,514.19 171.77,514.19 171.77,521.25 178.82,521.25 
			178.82,515.98 181.94,515.98 181.94,521.25 187.21,521.25 187.21,524.37 181.94,524.37 181.94,529.64 178.82,529.64 
			178.82,524.37 171.77,524.37 171.77,531.42 177.04,531.42 177.04,534.54 171.77,534.54 171.77,541.6 178.82,541.6 178.82,536.33 
			181.94,536.33 181.94,541.6 189,541.6 189,534.54 183.73,534.54 183.73,531.42 189,531.42 189,526.15 192.12,526.15 
			192.12,531.42 197.39,531.42 197.39,534.54 192.12,534.54 192.12,541.6 199.18,541.6 199.18,536.33 202.3,536.33 202.3,541.6 
			207.57,541.6 207.57,544.72 202.3,544.72 		"/>
	</g>
	<g>
		<g>
			<polygon points="325.64,501.1 325.64,504.22 320.37,504.22 320.37,509.49 317.24,509.49 317.24,504.22 310.19,504.22 
				310.19,511.28 315.46,511.28 315.46,514.4 310.19,514.4 310.19,519.67 307.07,519.67 307.07,514.4 301.8,514.4 301.8,511.28 
				307.07,511.28 307.07,504.22 300.01,504.22 300.01,509.49 296.89,509.49 296.89,504.22 289.83,504.22 289.83,511.28 
				295.1,511.28 295.1,514.4 289.83,514.4 289.83,521.45 296.89,521.45 296.89,516.18 300.01,516.18 300.01,521.45 305.28,521.45 
				305.28,524.57 300.01,524.57 300.01,529.84 296.89,529.84 296.89,524.57 289.83,524.57 289.83,531.63 295.1,531.63 295.1,534.75 
				289.83,534.75 289.83,540.02 286.71,540.02 286.71,534.75 281.44,534.75 281.44,531.63 286.71,531.63 286.71,524.57 
				279.66,524.57 279.66,529.84 276.54,529.84 276.54,524.57 271.27,524.57 271.27,521.45 276.54,521.45 276.54,516.18 
				279.66,516.18 279.66,521.45 286.71,521.45 286.71,514.4 281.44,514.4 281.44,511.28 286.71,511.28 286.71,504.22 279.66,504.22 
				279.66,509.49 276.54,509.49 276.54,504.22 269.48,504.22 269.48,511.28 274.75,511.28 274.75,514.4 269.48,514.4 269.48,519.67 
				266.36,519.67 266.36,514.4 261.09,514.4 261.09,511.28 266.36,511.28 266.36,504.22 259.3,504.22 259.3,509.49 256.18,509.49 
				256.18,504.22 250.91,504.22 250.91,501.1 256.18,501.1 256.18,495.83 259.3,495.83 259.3,501.1 266.36,501.1 266.36,494.04 
				261.09,494.04 261.09,490.92 266.36,490.92 266.36,485.65 269.48,485.65 269.48,490.92 274.75,490.92 274.75,494.04 
				269.48,494.04 269.48,501.1 276.54,501.1 276.54,495.83 279.66,495.83 279.66,501.1 286.71,501.1 286.71,494.04 281.44,494.04 
				281.44,490.92 286.71,490.92 286.71,483.87 279.66,483.87 279.66,489.14 276.54,489.14 276.54,483.87 271.27,483.87 
				271.27,480.75 276.54,480.75 276.54,475.48 279.66,475.48 279.66,480.75 286.71,480.75 286.71,473.69 281.44,473.69 
				281.44,470.57 286.71,470.57 286.71,465.3 289.83,465.3 289.83,470.57 295.1,470.57 295.1,473.69 289.83,473.69 289.83,480.75 
				296.89,480.75 296.89,475.48 300.01,475.48 300.01,480.75 305.28,480.75 305.28,483.87 300.01,483.87 300.01,489.14 
				296.89,489.14 296.89,483.87 289.83,483.87 289.83,490.92 295.1,490.92 295.1,494.04 289.83,494.04 289.83,501.1 296.89,501.1 
				296.89,495.83 300.01,495.83 300.01,501.1 307.07,501.1 307.07,494.04 301.8,494.04 301.8,490.92 307.07,490.92 307.07,485.65 
				310.19,485.65 310.19,490.92 315.46,490.92 315.46,494.04 310.19,494.04 310.19,501.1 317.24,501.1 317.24,495.83 320.37,495.83 
				320.37,501.1 			"/>
		</g>
		<polygon points="215.4,549.99 218.52,549.99 218.52,544.72 225.58,544.72 225.58,550 228.7,550 228.7,544.72 235.76,544.72 
			235.76,549.99 238.88,549.99 238.88,544.72 245.93,544.72 245.93,550 249.05,550 249.05,544.72 256.11,544.72 256.11,549.99 
			259.23,549.99 259.23,544.72 266.29,544.72 266.29,550 269.41,550 269.41,544.72 276.46,544.72 276.46,549.99 279.59,549.99 
			279.59,544.72 284.86,544.72 284.86,541.6 279.59,541.6 279.59,536.33 276.46,536.33 276.46,541.6 269.41,541.6 269.41,534.54 
			274.68,534.54 274.68,531.42 269.41,531.42 269.41,526.15 266.29,526.15 266.29,531.42 261.02,531.42 261.02,534.54 
			266.29,534.54 266.29,541.6 259.23,541.6 259.23,536.33 256.11,536.33 256.11,541.6 249.05,541.6 249.05,534.54 254.32,534.54 
			254.32,531.42 249.05,531.42 249.05,524.37 256.11,524.37 256.11,529.64 259.23,529.64 259.23,524.37 264.5,524.37 264.5,521.25 
			259.23,521.25 259.23,515.98 256.11,515.98 256.11,521.25 249.05,521.25 249.05,514.19 254.32,514.19 254.32,511.07 
			249.05,511.07 249.05,505.8 245.93,505.8 245.93,511.07 240.66,511.07 240.66,514.19 245.93,514.19 245.93,521.25 238.88,521.25 
			238.88,515.98 235.76,515.98 235.76,521.25 230.49,521.25 230.49,524.37 235.76,524.37 235.76,529.64 238.88,529.64 
			238.88,524.37 245.93,524.37 245.93,531.42 240.66,531.42 240.66,534.54 245.93,534.54 245.93,541.6 238.88,541.6 238.88,536.33 
			235.76,536.33 235.76,541.6 228.7,541.6 228.7,534.54 233.97,534.54 233.97,531.42 228.7,531.42 228.7,526.15 225.58,526.15 
			225.58,531.42 220.31,531.42 220.31,534.54 225.58,534.54 225.58,541.6 218.52,541.6 218.52,536.33 215.4,536.33 215.4,541.6 
			210.13,541.6 210.13,544.72 215.4,544.72 		"/>
		<polygon points="361.15,549.99 358.03,549.99 358.03,544.72 350.97,544.72 350.97,550 347.85,550 347.85,544.72 340.79,544.72 
			340.79,549.99 337.67,549.99 337.67,544.72 330.62,544.72 330.62,550 327.5,550 327.5,544.72 320.44,544.72 320.44,549.99 
			317.32,549.99 317.32,544.72 310.26,544.72 310.26,550 307.14,550 307.14,544.72 300.09,544.72 300.09,549.99 296.96,549.99 
			296.96,544.72 291.69,544.72 291.69,541.6 296.96,541.6 296.96,536.33 300.09,536.33 300.09,541.6 307.14,541.6 307.14,534.54 
			301.87,534.54 301.87,531.42 307.14,531.42 307.14,526.15 310.26,526.15 310.26,531.42 315.53,531.42 315.53,534.54 
			310.26,534.54 310.26,541.6 317.32,541.6 317.32,536.33 320.44,536.33 320.44,541.6 327.5,541.6 327.5,534.54 322.23,534.54 
			322.23,531.42 327.5,531.42 327.5,524.37 320.44,524.37 320.44,529.64 317.32,529.64 317.32,524.37 312.05,524.37 312.05,521.25 
			317.32,521.25 317.32,515.98 320.44,515.98 320.44,521.25 327.5,521.25 327.5,514.19 322.23,514.19 322.23,511.07 327.5,511.07 
			327.5,505.8 330.62,505.8 330.62,511.07 335.89,511.07 335.89,514.19 330.62,514.19 330.62,521.25 337.67,521.25 337.67,515.98 
			340.79,515.98 340.79,521.25 346.06,521.25 346.06,524.37 340.79,524.37 340.79,529.64 337.67,529.64 337.67,524.37 
			330.62,524.37 330.62,531.42 335.89,531.42 335.89,534.54 330.62,534.54 330.62,541.6 337.67,541.6 337.67,536.33 340.79,536.33 
			340.79,541.6 347.85,541.6 347.85,534.54 342.58,534.54 342.58,531.42 347.85,531.42 347.85,526.15 350.97,526.15 350.97,531.42 
			356.24,531.42 356.24,534.54 350.97,534.54 350.97,541.6 358.03,541.6 358.03,536.33 361.15,536.33 361.15,541.6 366.42,541.6 
			366.42,544.72 361.15,544.72 		"/>
	</g>
	<g>
		<g>
			<g>
				<polygon points="246.22,470.88 246.22,474 240.95,474 240.95,479.27 237.82,479.27 237.82,474 230.77,474 230.77,481.06 
					236.04,481.06 236.04,484.18 230.77,484.18 230.77,489.45 227.65,489.45 227.65,484.18 222.38,484.18 222.38,481.06 
					227.65,481.06 227.65,474 220.59,474 220.59,479.27 217.47,479.27 217.47,474 210.41,474 210.41,481.06 215.68,481.06 
					215.68,484.18 210.41,484.18 210.41,491.23 217.47,491.23 217.47,485.96 220.59,485.96 220.59,491.23 225.86,491.23 
					225.86,494.35 220.59,494.35 220.59,499.62 217.47,499.62 217.47,494.35 210.41,494.35 210.41,501.41 215.68,501.41 
					215.68,504.53 210.41,504.53 210.41,509.8 207.29,509.8 207.29,504.53 202.02,504.53 202.02,501.41 207.29,501.41 
					207.29,494.35 200.24,494.35 200.24,499.62 197.12,499.62 197.12,494.35 191.85,494.35 191.85,491.23 197.12,491.23 
					197.12,485.96 200.24,485.96 200.24,491.23 207.29,491.23 207.29,484.18 202.02,484.18 202.02,481.06 207.29,481.06 207.29,474 
					200.24,474 200.24,479.27 197.12,479.27 197.12,474 190.06,474 190.06,481.06 195.33,481.06 195.33,484.18 190.06,484.18 
					190.06,489.45 186.94,489.45 186.94,484.18 181.67,484.18 181.67,481.06 186.94,481.06 186.94,474 179.88,474 179.88,479.27 
					176.76,479.27 176.76,474 171.49,474 171.49,470.88 176.76,470.88 176.76,465.61 179.88,465.61 179.88,470.88 186.94,470.88 
					186.94,463.82 181.67,463.82 181.67,460.7 186.94,460.7 186.94,455.43 190.06,455.43 190.06,460.7 195.33,460.7 195.33,463.82 
					190.06,463.82 190.06,470.88 197.12,470.88 197.12,465.61 200.24,465.61 200.24,470.88 207.29,470.88 207.29,463.82 
					202.02,463.82 202.02,460.7 207.29,460.7 207.29,453.65 200.24,453.65 200.24,458.92 197.12,458.92 197.12,453.65 
					191.85,453.65 191.85,450.53 197.12,450.53 197.12,445.26 200.24,445.26 200.24,450.53 207.29,450.53 207.29,443.47 
					202.02,443.47 202.02,440.35 207.29,440.35 207.29,435.08 210.41,435.08 210.41,440.35 215.68,440.35 215.68,443.47 
					210.41,443.47 210.41,450.53 217.47,450.53 217.47,445.26 220.59,445.26 220.59,450.53 225.86,450.53 225.86,453.65 
					220.59,453.65 220.59,458.92 217.47,458.92 217.47,453.65 210.41,453.65 210.41,460.7 215.68,460.7 215.68,463.82 
					210.41,463.82 210.41,470.88 217.47,470.88 217.47,465.61 220.59,465.61 220.59,470.88 227.65,470.88 227.65,463.82 
					222.38,463.82 222.38,460.7 227.65,460.7 227.65,455.43 230.77,455.43 230.77,460.7 236.04,460.7 236.04,463.82 230.77,463.82 
					230.77,470.88 237.82,470.88 237.82,465.61 240.95,465.61 240.95,470.88 				"/>
			</g>
			<g>
				<g>
					<polygon points="251.05,450.59 251.05,448.8 247.93,448.8 247.93,450.59 246.15,450.59 246.15,453.71 247.93,453.71 
						247.93,455.49 251.05,455.49 251.05,453.71 252.84,453.71 252.84,450.59 					"/>
					<polygon points="251.05,440.41 251.05,435.14 247.93,435.14 247.93,440.41 242.66,440.41 242.66,443.53 247.93,443.53 
						247.93,448.8 251.05,448.8 251.05,443.53 256.32,443.53 256.32,440.41 					"/>
					<polygon points="240.88,450.59 240.88,450.59 240.88,445.32 237.75,445.32 237.75,450.59 237.75,450.59 232.48,450.59 
						232.48,453.71 237.75,453.71 237.75,458.98 240.88,458.98 240.88,453.71 246.15,453.71 246.15,450.59 					"/>
					<polygon points="261.23,450.59 261.23,450.59 261.23,445.32 258.11,445.32 258.11,450.59 258.11,450.59 252.84,450.59 
						252.84,453.71 258.11,453.71 258.11,458.98 261.23,458.98 261.23,453.71 266.5,453.71 266.5,450.59 					"/>
					<g>
						<rect x="247.93" y="463.89" width="3.12" height="5.27"/>
						<polygon points="251.05,460.76 251.05,455.49 247.93,455.49 247.93,460.76 242.66,460.76 242.66,463.88 247.93,463.88 
							251.05,463.88 251.05,463.89 256.32,463.89 256.32,460.76 						"/>
					</g>
				</g>
				<g>
					<g>
						<polygon points="271.41,430.23 271.41,428.45 268.29,428.45 268.29,430.23 266.5,430.23 266.5,433.35 268.29,433.35 
							268.29,435.14 271.41,435.14 271.41,433.35 273.19,433.35 273.19,430.23 						"/>
						<polygon points="271.41,420.06 271.41,414.79 268.29,414.79 268.29,420.06 263.01,420.06 263.01,423.18 268.29,423.18 
							268.29,428.45 271.41,428.45 271.41,423.18 276.68,423.18 276.68,420.06 						"/>
						<polygon points="261.23,430.23 261.23,430.23 261.23,424.96 258.11,424.96 258.11,430.23 258.11,430.23 252.84,430.23 
							252.84,433.35 258.11,433.35 258.11,438.62 261.23,438.62 261.23,433.35 266.5,433.35 266.5,430.23 						"/>
						<polygon points="281.58,430.23 281.58,430.23 281.58,424.96 278.46,424.96 278.46,430.23 278.46,430.23 273.19,430.23 
							273.19,433.35 278.46,433.35 278.46,438.62 281.58,438.62 281.58,433.35 286.85,433.35 286.85,430.23 						"/>
						<g>
							<rect x="268.29" y="443.53" width="3.12" height="5.27"/>
							<polygon points="271.41,440.41 271.41,435.14 268.29,435.14 268.29,440.41 263.01,440.41 263.01,443.53 268.29,443.53 
								271.41,443.53 271.41,443.53 276.68,443.53 276.68,440.41 							"/>
						</g>
					</g>
					<g>
						<rect x="288.14" y="421.44" width="3.12" height="3.12"/>
						<rect x="288.14" y="416.17" width="3.12" height="5.27"/>
						<rect x="288.14" y="424.56" width="3.12" height="5.27"/>
						<rect x="291.26" y="421.44" width="5.27" height="3.12"/>
						<rect x="282.87" y="421.44" width="5.27" height="3.12"/>
					</g>
					<g>
						
							<rect x="248.43" y="421.44" transform="matrix(-1 -4.488022e-11 4.488022e-11 -1 499.9805 846.003)" width="3.12" height="3.12"/>
						<rect x="248.43" y="416.17" width="3.12" height="5.27"/>
						<rect x="248.43" y="424.56" width="3.12" height="5.27"/>
						<rect x="243.16" y="421.44" width="5.27" height="3.12"/>
						<rect x="251.55" y="421.44" width="5.27" height="3.12"/>
					</g>
					<g>
						<rect x="268.29" y="404.05" width="3.12" height="3.12"/>
						<rect x="268.29" y="398.77" width="3.12" height="5.27"/>
						<rect x="268.29" y="407.17" width="3.12" height="5.27"/>
						<rect x="271.41" y="404.05" width="5.27" height="3.12"/>
						<rect x="263.01" y="404.05" width="5.27" height="3.12"/>
					</g>
				</g>
			</g>
			<g>
				<g>
					<polygon points="166.65,450.59 166.65,448.8 169.77,448.8 169.77,450.59 171.56,450.59 171.56,453.71 169.77,453.71 
						169.77,455.49 166.65,455.49 166.65,453.71 164.87,453.71 164.87,450.59 					"/>
					<polygon points="166.65,440.41 166.65,435.14 169.77,435.14 169.77,440.41 175.04,440.41 175.04,443.53 169.77,443.53 
						169.77,448.8 166.65,448.8 166.65,443.53 161.38,443.53 161.38,440.41 					"/>
					<polygon points="176.83,450.59 176.83,450.59 176.83,445.32 179.95,445.32 179.95,450.59 179.95,450.59 185.22,450.59 
						185.22,453.71 179.95,453.71 179.95,458.98 176.83,458.98 176.83,453.71 171.56,453.71 171.56,450.59 					"/>
					<polygon points="156.47,450.59 156.47,450.59 156.47,445.32 159.59,445.32 159.59,450.59 159.59,450.59 164.87,450.59 
						164.87,453.71 159.59,453.71 159.59,458.98 156.47,458.98 156.47,453.71 151.2,453.71 151.2,450.59 					"/>
					<g>
						<rect x="166.65" y="463.89" width="3.12" height="5.27"/>
						<polygon points="166.65,460.76 166.65,455.49 169.77,455.49 169.77,460.76 175.04,460.76 175.04,463.88 169.77,463.88 
							166.65,463.88 166.65,463.89 161.38,463.89 161.38,460.76 						"/>
					</g>
				</g>
				<g>
					<g>
						<polygon points="146.3,430.23 146.3,428.45 149.42,428.45 149.42,430.23 151.2,430.23 151.2,433.35 149.42,433.35 
							149.42,435.14 146.3,435.14 146.3,433.35 144.51,433.35 144.51,430.23 						"/>
						<polygon points="146.3,420.06 146.3,414.79 149.42,414.79 149.42,420.06 154.69,420.06 154.69,423.18 149.42,423.18 
							149.42,428.45 146.3,428.45 146.3,423.18 141.03,423.18 141.03,420.06 						"/>
						<polygon points="156.47,430.23 156.47,430.23 156.47,424.96 159.59,424.96 159.59,430.23 159.59,430.23 164.87,430.23 
							164.87,433.35 159.59,433.35 159.59,438.62 156.47,438.62 156.47,433.35 151.2,433.35 151.2,430.23 						"/>
						<polygon points="136.12,430.23 136.12,430.23 136.12,424.96 139.24,424.96 139.24,430.23 139.24,430.23 144.51,430.23 
							144.51,433.35 139.24,433.35 139.24,438.62 136.12,438.62 136.12,433.35 130.85,433.35 130.85,430.23 						"/>
						<g>
							<rect x="146.3" y="443.53" width="3.12" height="5.27"/>
							<polygon points="146.3,440.41 146.3,435.14 149.42,435.14 149.42,440.41 154.69,440.41 154.69,443.53 149.42,443.53 
								146.3,443.53 146.3,443.53 141.03,443.53 141.03,440.41 							"/>
						</g>
					</g>
					<g>
						
							<rect x="126.44" y="421.44" transform="matrix(-1 -4.196611e-11 4.196611e-11 -1 256.004 846.003)" width="3.12" height="3.12"/>
						<rect x="126.44" y="416.17" width="3.12" height="5.27"/>
						<rect x="126.44" y="424.56" width="3.12" height="5.27"/>
						<rect x="121.17" y="421.44" width="5.27" height="3.12"/>
						<rect x="129.56" y="421.44" width="5.27" height="3.12"/>
					</g>
					<g>
						<rect x="166.15" y="421.44" width="3.12" height="3.12"/>
						<rect x="166.15" y="416.17" width="3.12" height="5.27"/>
						<rect x="166.15" y="424.56" width="3.12" height="5.27"/>
						<rect x="169.27" y="421.44" width="5.27" height="3.12"/>
						<rect x="160.88" y="421.44" width="5.27" height="3.12"/>
					</g>
					<g>
						
							<rect x="146.3" y="404.05" transform="matrix(-1 -4.488022e-11 4.488022e-11 -1 295.7151 811.2114)" width="3.12" height="3.12"/>
						<rect x="146.3" y="398.77" width="3.12" height="5.27"/>
						<rect x="146.3" y="407.17" width="3.12" height="5.27"/>
						<rect x="141.03" y="404.05" width="5.27" height="3.12"/>
						<rect x="149.42" y="404.05" width="5.27" height="3.12"/>
					</g>
				</g>
			</g>
			<g>
				<g>
					<polygon points="210.41,413.96 210.41,412.17 207.29,412.17 207.29,413.96 205.51,413.96 205.51,417.08 207.29,417.08 
						207.29,418.86 210.41,418.86 210.41,417.08 212.2,417.08 212.2,413.96 					"/>
					<polygon points="210.41,403.78 210.41,398.51 207.29,398.51 207.29,403.78 202.02,403.78 202.02,406.9 207.29,406.9 
						207.29,412.17 210.41,412.17 210.41,406.9 215.68,406.9 215.68,403.78 					"/>
					<polygon points="200.24,413.96 200.24,413.96 200.24,408.69 197.11,408.69 197.11,413.96 197.11,413.96 191.84,413.96 
						191.84,417.08 197.11,417.08 197.11,422.35 200.24,422.35 200.24,417.08 205.51,417.08 205.51,413.96 					"/>
					<polygon points="220.59,413.96 220.59,413.96 220.59,408.69 217.47,408.69 217.47,413.96 217.47,413.96 212.2,413.96 
						212.2,417.08 217.47,417.08 217.47,422.35 220.59,422.35 220.59,417.08 225.86,417.08 225.86,413.96 					"/>
					<g>
						<rect x="207.29" y="427.25" width="3.12" height="5.27"/>
						<polygon points="210.41,424.13 210.41,418.86 207.29,418.86 207.29,424.13 202.02,424.13 202.02,427.25 207.29,427.25 
							210.41,427.25 210.41,427.25 215.68,427.25 215.68,424.13 						"/>
					</g>
				</g>
				<g>
					<rect x="227.15" y="405.16" width="3.12" height="3.12"/>
					<rect x="227.15" y="399.89" width="3.12" height="5.27"/>
					<rect x="227.15" y="408.29" width="3.12" height="5.27"/>
					<rect x="230.27" y="405.16" width="5.27" height="3.12"/>
					<rect x="221.88" y="405.16" width="5.27" height="3.12"/>
				</g>
				<g>
					
						<rect x="187.44" y="405.16" transform="matrix(-1 -4.196611e-11 4.196611e-11 -1 377.9922 813.4507)" width="3.12" height="3.12"/>
					<rect x="187.44" y="399.89" width="3.12" height="5.27"/>
					<rect x="187.44" y="408.29" width="3.12" height="5.27"/>
					<rect x="182.17" y="405.16" width="5.27" height="3.12"/>
					<rect x="190.56" y="405.16" width="5.27" height="3.12"/>
				</g>
				<g>
					<rect x="207.29" y="387.77" width="3.12" height="3.12"/>
					<rect x="207.29" y="382.5" width="3.12" height="5.27"/>
					<rect x="207.29" y="390.89" width="3.12" height="5.27"/>
					<rect x="210.41" y="387.77" width="5.27" height="3.12"/>
					<rect x="202.02" y="387.77" width="5.27" height="3.12"/>
				</g>
			</g>
		</g>
		<g>
			<polygon points="210.41,511.58 210.41,509.79 207.29,509.79 207.29,511.58 205.51,511.58 205.51,514.7 207.29,514.7 
				207.29,516.48 210.41,516.48 210.41,514.7 212.2,514.7 212.2,511.58 			"/>
			<polygon points="210.41,501.4 210.41,496.13 207.29,496.13 207.29,501.4 202.02,501.4 202.02,504.52 207.29,504.52 
				207.29,509.79 210.41,509.79 210.41,504.52 215.68,504.52 215.68,501.4 			"/>
			<polygon points="200.24,511.58 200.24,511.58 200.24,506.31 197.11,506.31 197.11,511.58 197.11,511.58 191.84,511.58 
				191.84,514.7 197.11,514.7 197.11,519.97 200.24,519.97 200.24,514.7 205.51,514.7 205.51,511.58 			"/>
			<polygon points="220.59,511.58 220.59,511.58 220.59,506.31 217.47,506.31 217.47,511.58 217.47,511.58 212.2,511.58 
				212.2,514.7 217.47,514.7 217.47,519.97 220.59,519.97 220.59,514.7 225.86,514.7 225.86,511.58 			"/>
			<g>
				<rect x="207.29" y="524.88" width="3.12" height="5.27"/>
				<polygon points="210.41,521.75 210.41,516.48 207.29,516.48 207.29,521.75 202.02,521.75 202.02,524.88 207.29,524.88 
					210.41,524.88 210.41,524.88 215.68,524.88 215.68,521.75 				"/>
			</g>
		</g>
	</g>
	<polygon points="367.7,524.83 367.7,480.63 366.14,480.63 366.14,485.91 359.09,485.91 359.09,485.88 359.11,485.88 359.11,480.61 
		364.38,480.61 364.38,477.49 359.11,477.49 359.11,472.22 364.38,472.22 364.38,469.1 359.11,469.1 359.11,463.83 364.38,463.83 
		364.38,460.71 359.11,460.71 359.11,455.44 364.38,455.44 364.38,452.32 359.11,452.32 359.11,447.05 364.38,447.05 364.38,443.93 
		359.11,443.93 359.11,438.66 364.38,438.66 364.38,435.54 359.11,435.54 359.11,430.27 364.38,430.27 364.38,427.15 359.11,427.15 
		359.11,421.88 364.38,421.88 364.38,418.75 359.11,418.75 359.11,413.48 355.99,413.48 355.99,418.75 350.72,418.75 350.72,421.88 
		355.99,421.88 355.99,427.15 350.72,427.15 350.72,430.27 355.99,430.27 355.99,435.54 350.72,435.54 350.72,438.66 355.99,438.66 
		355.99,443.93 350.72,443.93 350.72,447.05 355.99,447.05 355.99,452.32 350.72,452.32 350.72,455.44 355.99,455.44 355.99,460.71 
		350.72,460.71 350.72,463.83 355.99,463.83 355.99,469.1 350.72,469.1 350.72,472.22 355.99,472.22 355.99,477.49 350.72,477.49 
		350.72,480.61 355.99,480.61 355.99,480.64 355.97,480.64 355.97,485.91 348.91,485.91 348.91,480.63 345.79,480.63 345.79,485.91 
		338.73,485.91 338.73,485.88 338.73,485.88 338.73,480.61 344,480.61 344,477.49 338.73,477.49 338.73,472.22 344,472.22 
		344,469.1 338.73,469.1 338.73,463.83 344,463.83 344,460.71 338.73,460.71 338.73,455.44 344,455.44 344,452.32 338.73,452.32 
		338.73,447.05 344,447.05 344,443.93 338.73,443.93 338.73,438.66 344,438.66 344,435.54 338.73,435.54 338.73,430.27 344,430.27 
		344,427.15 338.73,427.15 338.73,421.88 344,421.88 344,418.75 338.73,418.75 338.73,413.48 335.61,413.48 335.61,418.75 
		330.34,418.75 330.34,421.88 335.61,421.88 335.61,427.15 330.34,427.15 330.34,430.27 335.61,430.27 335.61,435.54 330.34,435.54 
		330.34,438.66 335.61,438.66 335.61,443.93 330.34,443.93 330.34,447.05 335.61,447.05 335.61,452.32 330.34,452.32 330.34,455.44 
		335.61,455.44 335.61,460.71 330.34,460.71 330.34,463.83 335.61,463.83 335.61,469.1 330.34,469.1 330.34,472.22 335.61,472.22 
		335.61,477.49 330.34,477.49 330.34,480.61 335.61,480.61 335.61,480.64 335.61,480.64 335.61,485.91 330.34,485.91 330.34,489.03 
		335.61,489.03 335.61,494.3 338.73,494.3 338.73,489.03 345.79,489.03 345.79,496.09 340.52,496.09 340.52,499.21 345.79,499.21 
		345.79,504.48 348.91,504.48 348.91,499.21 354.18,499.21 354.18,496.09 348.91,496.09 348.91,489.03 355.97,489.03 355.97,494.3 
		359.09,494.3 359.09,489.03 366.14,489.03 366.14,496.09 360.87,496.09 360.87,499.21 366.14,499.21 366.14,506.26 359.09,506.26 
		359.09,500.99 355.97,500.99 355.97,506.26 350.7,506.26 350.7,509.38 355.97,509.38 355.97,514.65 359.09,514.65 359.09,509.38 
		366.14,509.38 366.14,516.44 360.87,516.44 360.87,519.56 366.14,519.56 366.14,524.83 	"/>
	<polygon points="50,524.83 50,480.63 51.57,480.63 51.57,485.91 58.61,485.91 58.61,485.88 58.59,485.88 58.59,480.61 
		53.32,480.61 53.32,477.49 58.59,477.49 58.59,472.22 53.32,472.22 53.32,469.1 58.59,469.1 58.59,463.83 53.32,463.83 
		53.32,460.71 58.59,460.71 58.59,455.44 53.32,455.44 53.32,452.32 58.59,452.32 58.59,447.05 53.32,447.05 53.32,443.93 
		58.59,443.93 58.59,438.66 53.32,438.66 53.32,435.54 58.59,435.54 58.59,430.27 53.32,430.27 53.32,427.15 58.59,427.15 
		58.59,421.88 53.32,421.88 53.32,418.75 58.59,418.75 58.59,413.48 61.72,413.48 61.72,418.75 66.99,418.75 66.99,421.88 
		61.72,421.88 61.72,427.15 66.99,427.15 66.99,430.27 61.72,430.27 61.72,435.54 66.99,435.54 66.99,438.66 61.72,438.66 
		61.72,443.93 66.99,443.93 66.99,447.05 61.72,447.05 61.72,452.32 66.99,452.32 66.99,455.44 61.72,455.44 61.72,460.71 
		66.99,460.71 66.99,463.83 61.72,463.83 61.72,469.1 66.99,469.1 66.99,472.22 61.72,472.22 61.72,477.49 66.99,477.49 
		66.99,480.61 61.72,480.61 61.72,480.64 61.73,480.64 61.73,485.91 68.8,485.91 68.8,480.63 71.92,480.63 71.92,485.91 
		78.98,485.91 78.98,485.88 78.97,485.88 78.97,480.61 73.7,480.61 73.7,477.49 78.97,477.49 78.97,472.22 73.7,472.22 73.7,469.1 
		78.97,469.1 78.97,463.83 73.7,463.83 73.7,460.71 78.97,460.71 78.97,455.44 73.7,455.44 73.7,452.32 78.97,452.32 78.97,447.05 
		73.7,447.05 73.7,443.93 78.97,443.93 78.97,438.66 73.7,438.66 73.7,435.54 78.97,435.54 78.97,430.27 73.7,430.27 73.7,427.15 
		78.97,427.15 78.97,421.88 73.7,421.88 73.7,418.75 78.97,418.75 78.97,413.48 82.09,413.48 82.09,418.75 87.36,418.75 
		87.36,421.88 82.09,421.88 82.09,427.15 87.36,427.15 87.36,430.27 82.09,430.27 82.09,435.54 87.36,435.54 87.36,438.66 
		82.09,438.66 82.09,443.93 87.36,443.93 87.36,447.05 82.09,447.05 82.09,452.32 87.36,452.32 87.36,455.44 82.09,455.44 
		82.09,460.71 87.36,460.71 87.36,463.83 82.09,463.83 82.09,469.1 87.36,469.1 87.36,472.22 82.09,472.22 82.09,477.49 
		87.36,477.49 87.36,480.61 82.09,480.61 82.09,480.64 82.1,480.64 82.1,485.91 87.36,485.91 87.36,489.03 82.1,489.03 82.1,494.3 
		78.98,494.3 78.98,489.03 71.92,489.03 71.92,496.09 77.18,496.09 77.18,499.21 71.92,499.21 71.92,504.48 68.8,504.48 
		68.8,499.21 63.53,499.21 63.53,496.09 68.8,496.09 68.8,489.03 61.73,489.03 61.73,494.3 58.61,494.3 58.61,489.03 51.57,489.03 
		51.57,496.09 56.84,496.09 56.84,499.21 51.57,499.21 51.57,506.26 58.61,506.26 58.61,500.99 61.73,500.99 61.73,506.26 
		67.01,506.26 67.01,509.38 61.73,509.38 61.73,514.65 58.61,514.65 58.61,509.38 51.57,509.38 51.57,516.44 56.84,516.44 
		56.84,519.56 51.57,519.56 51.57,524.83 	"/>
</g>
<g>
</g>
<g>
</g>
<g>
</g>
<g>
</g>
<g>
</g>
<g>
</g>
<g>
</g>
<g>
</g>
<g>
</g>
<g>
</g>
<g>
</g>
<g>
</g>
<g>
</g>
<g>
</g>
<g>
</g>
</svg>
