<?xml version="1.0" encoding="utf-8"?>
<!-- Generator: Adobe Illustrator 27.2.0, SVG Export Plug-In . SVG Version: 6.00 Build 0)  -->
<svg version="1.1" id="Layer_1" xmlns="http://www.w3.org/2000/svg" xmlns:xlink="http://www.w3.org/1999/xlink" x="0px" y="0px"
	 viewBox="0 0 800 600" style="enable-background:new 0 0 800 600;" xml:space="preserve">
<g>
	<g>
		<g>
			<g>
				
					<rect x="133.95" y="363.68" transform="matrix(0.7071 -0.7071 0.7071 0.7071 -223.4853 214.6588)" style="fill:none;stroke:#000000;stroke-width:3;stroke-miterlimit:10;" width="26.84" height="26.84"/>
				<circle cx="147.37" cy="377.1" r="5.76"/>
			</g>
			<g>
				<polyline points="119.98,371.25 129.64,372.6 128.28,362.94 				"/>
				<polyline points="138.31,352.91 139.67,362.57 130.01,361.22 				"/>
			</g>
			<g>
				<polyline points="174.77,371.25 165.11,372.6 166.46,362.94 				"/>
				<polyline points="156.43,352.91 155.08,362.57 164.74,361.22 				"/>
			</g>
			<g>
				<polyline points="138.45,343.67 147.37,355.5 156.29,343.67 				"/>
				<rect x="144.54" y="336.17" transform="matrix(0.7071 0.7071 -0.7071 0.7071 282.8741 -4.9178)" width="5.67" height="5.67"/>
				<rect x="153.41" y="336.17" transform="matrix(0.7071 0.7071 -0.7071 0.7071 285.4712 -11.1876)" width="5.67" height="5.67"/>
				
					<rect x="135.67" y="336.17" transform="matrix(-0.7071 0.7071 -0.7071 -0.7071 476.1551 480.7709)" width="5.67" height="5.67"/>
			</g>
		</g>
		<g>
			
				<rect x="135.51" y="456.53" transform="matrix(-0.7071 -0.7071 0.7071 -0.7071 -79.6248 903.8132)" style="fill:none;stroke:#000000;stroke-width:3;stroke-miterlimit:10;" width="23.73" height="23.73"/>
			<circle cx="147.37" cy="468.4" r="5.09"/>
		</g>
		<g>
			<polyline points="155.84,515.57 157.42,504.33 146.17,505.9 			"/>
			<polyline points="165.36,525.08 166.93,513.84 155.69,515.42 			"/>
			<polyline points="174.87,534.6 176.45,523.36 165.2,524.93 			"/>
			<polyline points="174.72,534.45 185.96,532.87 184.39,544.11 			"/>
		</g>
		<g>
			<polyline points="120.03,534.45 108.78,532.87 110.36,544.11 			"/>
			<polyline points="129.54,524.93 118.3,523.36 119.88,534.6 			"/>
			<polyline points="139.06,515.42 127.81,513.84 129.39,525.08 			"/>
			<polyline points="138.91,515.57 137.33,504.33 148.57,505.9 			"/>
		</g>
		<g>
			<rect x="178.55" y="544.33" width="5.67" height="5.67"/>
			
				<rect x="110.52" y="544.33" transform="matrix(-1 -4.395652e-11 4.395652e-11 -1 226.7154 1094.3307)" width="5.67" height="5.67"/>
			<rect x="116.19" y="538.66" width="5.67" height="5.67"/>
			<rect x="133.2" y="544.33" width="5.67" height="5.67"/>
			<rect x="127.53" y="538.66" width="5.67" height="5.67"/>
			<rect x="121.86" y="532.99" width="5.67" height="5.67"/>
			<rect x="138.87" y="538.66" width="5.67" height="5.67"/>
			<rect x="127.53" y="527.32" width="5.67" height="5.67"/>
			<rect x="155.88" y="544.33" width="5.67" height="5.67"/>
			<rect x="150.21" y="538.66" width="5.67" height="5.67"/>
			<rect x="144.54" y="532.99" width="5.67" height="5.67"/>
			<rect x="138.87" y="527.32" width="5.67" height="5.67"/>
			<rect x="133.2" y="521.65" width="5.67" height="5.67"/>
			<rect x="161.55" y="538.66" width="5.67" height="5.67"/>
			<rect x="150.21" y="527.32" width="5.67" height="5.67"/>
			<rect x="138.87" y="515.98" width="5.67" height="5.67"/>
			<rect x="172.89" y="538.66" width="5.67" height="5.67"/>
			<rect x="167.22" y="532.99" width="5.67" height="5.67"/>
			<rect x="161.55" y="527.32" width="5.67" height="5.67"/>
			<rect x="155.88" y="521.65" width="5.67" height="5.67"/>
			<rect x="150.21" y="515.98" width="5.67" height="5.67"/>
			<rect x="144.54" y="510.31" width="5.67" height="5.67"/>
		</g>
		<g>
			<rect x="103.57" y="527.65" transform="matrix(-0.7071 -0.7071 0.7071 -0.7071 -195.1122 976.876)" width="2.39" height="2.39"/>
			<rect x="105.02" y="525.38" transform="matrix(0.7071 -0.7071 0.7071 0.7071 -340.9929 229.9154)" width="4.04" height="2.39"/>
			<rect x="100.47" y="529.93" transform="matrix(0.7071 -0.7071 0.7071 0.7071 -345.5419 228.0312)" width="4.04" height="2.39"/>
			<rect x="101.29" y="524.55" transform="matrix(0.7071 -0.7071 0.7071 0.7071 -342.3253 226.6988)" width="2.39" height="4.04"/>
			<rect x="105.84" y="529.1" transform="matrix(0.7071 -0.7071 0.7071 0.7071 -344.2095 231.2478)" width="2.39" height="4.04"/>
		</g>
		<g>
			
				<rect x="113.08" y="518.14" transform="matrix(-0.7071 -0.7071 0.7071 -0.7071 -172.1408 967.3609)" width="2.39" height="2.39"/>
			<rect x="114.53" y="515.86" transform="matrix(0.7071 -0.7071 0.7071 0.7071 -331.4778 233.8567)" width="4.04" height="2.39"/>
			<rect x="109.98" y="520.41" transform="matrix(0.7071 -0.7071 0.7071 0.7071 -336.0268 231.9724)" width="4.04" height="2.39"/>
			<rect x="110.81" y="515.04" transform="matrix(0.7071 -0.7071 0.7071 0.7071 -332.8102 230.6401)" width="2.39" height="4.04"/>
			<rect x="115.35" y="519.59" transform="matrix(0.7071 -0.7071 0.7071 0.7071 -334.6945 235.1891)" width="2.39" height="4.04"/>
		</g>
		<g>
			<rect x="122.6" y="508.62" transform="matrix(-0.7071 -0.7071 0.7071 -0.7071 -149.1693 957.8458)" width="2.39" height="2.39"/>
			<rect x="124.05" y="506.35" transform="matrix(0.7071 -0.7071 0.7071 0.7071 -321.9627 237.798)" width="4.04" height="2.39"/>
			<rect x="119.5" y="510.9" transform="matrix(0.7071 -0.7071 0.7071 0.7071 -326.5117 235.9137)" width="4.04" height="2.39"/>
			<rect x="120.32" y="505.52" transform="matrix(0.7071 -0.7071 0.7071 0.7071 -323.2951 234.5813)" width="2.39" height="4.04"/>
			<rect x="124.87" y="510.07" transform="matrix(0.7071 -0.7071 0.7071 0.7071 -325.1794 239.1304)" width="2.39" height="4.04"/>
		</g>
		<g>
			
				<rect x="132.11" y="499.11" transform="matrix(-0.7071 -0.7071 0.7071 -0.7071 -126.1979 948.3307)" width="2.39" height="2.39"/>
			<rect x="133.56" y="496.83" transform="matrix(0.7071 -0.7071 0.7071 0.7071 -312.4476 241.7393)" width="4.04" height="2.39"/>
			<rect x="129.01" y="501.38" transform="matrix(0.7071 -0.7071 0.7071 0.7071 -316.9966 239.855)" width="4.04" height="2.39"/>
			<rect x="129.84" y="496.01" transform="matrix(0.7071 -0.7071 0.7071 0.7071 -313.78 238.5226)" width="2.39" height="4.04"/>
			<rect x="134.38" y="500.56" transform="matrix(0.7071 -0.7071 0.7071 0.7071 -315.6643 243.0717)" width="2.39" height="4.04"/>
		</g>
		<g>
			
				<rect x="141.61" y="489.61" transform="matrix(-0.7071 -0.7071 0.7071 -0.7071 -103.2628 938.8307)" width="2.39" height="2.39"/>
			<rect x="143.06" y="487.33" transform="matrix(0.7071 -0.7071 0.7071 0.7071 -302.9476 245.6743)" width="4.04" height="2.39"/>
			<rect x="138.51" y="491.88" transform="matrix(0.7071 -0.7071 0.7071 0.7071 -307.4966 243.79)" width="4.04" height="2.39"/>
			<rect x="139.34" y="486.51" transform="matrix(0.7071 -0.7071 0.7071 0.7071 -304.28 242.4577)" width="2.39" height="4.04"/>
			<rect x="143.88" y="491.06" transform="matrix(0.7071 -0.7071 0.7071 0.7071 -306.1643 247.0067)" width="2.39" height="4.04"/>
		</g>
		<g>
			<rect x="150.74" y="489.61" transform="matrix(0.7071 -0.7071 0.7071 0.7071 -302.5471 251.1904)" width="2.39" height="2.39"/>
			<rect x="148.47" y="486.51" transform="matrix(0.7071 -0.7071 0.7071 0.7071 -301.6049 248.9159)" width="2.39" height="4.04"/>
			<rect x="153.02" y="491.06" transform="matrix(0.7071 -0.7071 0.7071 0.7071 -303.4892 253.4649)" width="2.39" height="4.04"/>
			<rect x="152.19" y="487.33" transform="matrix(0.7071 -0.7071 0.7071 0.7071 -300.2726 252.1325)" width="4.04" height="2.39"/>
			<rect x="147.65" y="491.88" transform="matrix(0.7071 -0.7071 0.7071 0.7071 -304.8216 250.2482)" width="4.04" height="2.39"/>
		</g>
		<g>
			<rect x="146.18" y="498.7" transform="matrix(0.7071 -0.7071 0.7071 0.7071 -310.3179 250.626)" width="2.39" height="2.39"/>
			<rect x="143.9" y="495.6" transform="matrix(0.7071 -0.7071 0.7071 0.7071 -309.3758 248.3515)" width="2.39" height="4.04"/>
			<rect x="148.45" y="500.15" transform="matrix(0.7071 -0.7071 0.7071 0.7071 -311.26 252.9005)" width="2.39" height="4.04"/>
			<rect x="147.63" y="496.43" transform="matrix(0.7071 -0.7071 0.7071 0.7071 -308.0434 251.5682)" width="4.04" height="2.39"/>
			<rect x="143.08" y="500.98" transform="matrix(0.7071 -0.7071 0.7071 0.7071 -312.5924 249.6839)" width="4.04" height="2.39"/>
		</g>
		<g>
			<rect x="160.24" y="499.11" transform="matrix(0.7071 -0.7071 0.7071 0.7071 -306.4824 260.6896)" width="2.39" height="2.39"/>
			<rect x="162.52" y="500.56" transform="matrix(0.7071 -0.7071 0.7071 0.7071 -307.4245 262.9641)" width="2.39" height="4.04"/>
			<rect x="157.97" y="496.01" transform="matrix(0.7071 -0.7071 0.7071 0.7071 -305.5403 258.4151)" width="2.39" height="4.04"/>
			<rect x="161.69" y="496.83" transform="matrix(0.7071 -0.7071 0.7071 0.7071 -304.2079 261.6318)" width="4.04" height="2.39"/>
			<rect x="157.14" y="501.38" transform="matrix(0.7071 -0.7071 0.7071 0.7071 -308.7569 259.7475)" width="4.04" height="2.39"/>
		</g>
		<g>
			<rect x="169.76" y="508.62" transform="matrix(0.7071 -0.7071 0.7071 0.7071 -310.4237 270.2047)" width="2.39" height="2.39"/>
			<rect x="172.03" y="510.07" transform="matrix(0.7071 -0.7071 0.7071 0.7071 -311.3658 272.4792)" width="2.39" height="4.04"/>
			<rect x="167.48" y="505.52" transform="matrix(0.7071 -0.7071 0.7071 0.7071 -309.4815 267.9302)" width="2.39" height="4.04"/>
			<rect x="171.21" y="506.35" transform="matrix(0.7071 -0.7071 0.7071 0.7071 -308.1492 271.1469)" width="4.04" height="2.39"/>
			<rect x="166.66" y="510.9" transform="matrix(0.7071 -0.7071 0.7071 0.7071 -312.6982 269.2626)" width="4.04" height="2.39"/>
		</g>
		<g>
			<rect x="179.27" y="518.14" transform="matrix(0.7071 -0.7071 0.7071 0.7071 -314.365 279.7198)" width="2.39" height="2.39"/>
			<rect x="181.55" y="519.59" transform="matrix(0.7071 -0.7071 0.7071 0.7071 -315.3071 281.9943)" width="2.39" height="4.04"/>
			<rect x="177" y="515.04" transform="matrix(0.7071 -0.7071 0.7071 0.7071 -313.4228 277.4453)" width="2.39" height="4.04"/>
			<rect x="180.72" y="515.86" transform="matrix(0.7071 -0.7071 0.7071 0.7071 -312.0905 280.6619)" width="4.04" height="2.39"/>
			<rect x="176.17" y="520.41" transform="matrix(0.7071 -0.7071 0.7071 0.7071 -316.6395 278.7776)" width="4.04" height="2.39"/>
		</g>
		<g>
			<rect x="188.79" y="527.65" transform="matrix(0.7071 -0.7071 0.7071 0.7071 -318.3062 289.2349)" width="2.39" height="2.39"/>
			<rect x="191.06" y="529.1" transform="matrix(0.7071 -0.7071 0.7071 0.7071 -319.2484 291.5094)" width="2.39" height="4.04"/>
			<rect x="186.51" y="524.55" transform="matrix(0.7071 -0.7071 0.7071 0.7071 -317.3641 286.9604)" width="2.39" height="4.04"/>
			<rect x="190.24" y="525.38" transform="matrix(0.7071 -0.7071 0.7071 0.7071 -316.0317 290.177)" width="4.04" height="2.39"/>
			<rect x="185.69" y="529.93" transform="matrix(0.7071 -0.7071 0.7071 0.7071 -320.5807 288.2928)" width="4.04" height="2.39"/>
		</g>
		<g>
			<rect x="198.31" y="537.17" transform="matrix(0.7071 -0.7071 0.7071 0.7071 -322.2487 298.7529)" width="2.39" height="2.39"/>
			<rect x="200.58" y="538.62" transform="matrix(0.7071 -0.7071 0.7071 0.7071 -323.1909 301.0274)" width="2.39" height="4.04"/>
			<rect x="196.03" y="534.07" transform="matrix(0.7071 -0.7071 0.7071 0.7071 -321.3066 296.4784)" width="2.39" height="4.04"/>
			<rect x="199.76" y="534.89" transform="matrix(0.7071 -0.7071 0.7071 0.7071 -319.9742 299.6951)" width="4.04" height="2.39"/>
			<rect x="195.21" y="539.44" transform="matrix(0.7071 -0.7071 0.7071 0.7071 -324.5233 297.8108)" width="4.04" height="2.39"/>
		</g>
		<g>
			<rect x="94.05" y="537.17" transform="matrix(-0.7071 -0.7071 0.7071 -0.7071 -218.089 986.3948)" width="2.39" height="2.39"/>
			<rect x="90.95" y="539.44" transform="matrix(0.7071 -0.7071 0.7071 0.7071 -355.0597 224.0894)" width="4.04" height="2.39"/>
			<rect x="95.5" y="534.89" transform="matrix(0.7071 -0.7071 0.7071 0.7071 -350.5106 225.9737)" width="4.04" height="2.39"/>
			<rect x="91.77" y="534.07" transform="matrix(0.7071 -0.7071 0.7071 0.7071 -351.843 222.757)" width="2.39" height="4.04"/>
			<rect x="96.32" y="538.62" transform="matrix(0.7071 -0.7071 0.7071 0.7071 -353.7273 227.3061)" width="2.39" height="4.04"/>
		</g>
		<polygon points="166.22,486.36 166.22,486.36 167.37,487.5 177.84,477.03 184.71,483.9 174.24,494.37 175.38,495.52 165.24,496.5 
					"/>
		<polygon points="175.74,495.87 175.74,495.87 176.88,497.02 187.36,486.55 194.23,493.42 183.75,503.89 184.9,505.03 
			174.75,506.02 		"/>
		<polygon points="185.25,505.39 185.25,505.39 186.4,506.53 196.87,496.06 203.74,502.93 193.27,513.4 194.41,514.55 
			184.27,515.53 		"/>
		<polygon points="194.77,514.91 194.77,514.91 195.91,516.05 206.39,505.58 213.26,512.45 202.79,522.92 203.93,524.07 
			193.78,525.05 		"/>
		<polygon points="204.29,524.42 204.29,524.42 205.43,525.57 215.9,515.09 222.77,521.96 212.3,532.44 213.45,533.58 203.3,534.57 
					"/>
		<polygon points="165.86,486 165.87,486 164.72,484.86 175.19,474.38 168.32,467.51 157.85,477.99 156.71,476.84 155.72,486.99 		
			"/>
		<polygon points="128.52,486.36 128.52,486.36 127.38,487.5 116.91,477.03 110.04,483.9 120.51,494.37 119.36,495.52 129.51,496.5 
					"/>
		<polygon points="119.01,495.87 119.01,495.87 117.86,497.02 107.39,486.55 100.52,493.42 110.99,503.89 109.85,505.03 
			119.99,506.02 		"/>
		<polygon points="109.49,505.39 109.49,505.39 108.35,506.53 97.88,496.06 91,502.93 101.48,513.4 100.33,514.55 110.48,515.53 		
			"/>
		<polygon points="99.98,514.91 99.98,514.91 98.83,516.05 88.36,505.58 81.49,512.45 91.96,522.92 90.82,524.07 100.96,525.05 		
			"/>
		<polygon points="90.46,524.42 90.46,524.42 89.32,525.57 78.84,515.09 71.97,521.96 82.45,532.44 81.3,533.58 91.45,534.57 		"/>
		<polygon points="128.88,486 128.88,486 130.03,484.86 119.55,474.38 126.42,467.51 136.9,477.99 138.04,476.84 139.03,486.99 		
			"/>
		<g>
			<polygon points="210.9,539.35 210.9,534.02 214.05,534.02 214.05,539.35 221.19,539.35 221.19,532.21 215.86,532.21 
				215.86,529.05 221.19,529.05 221.19,529.05 224.35,529.05 224.35,529.05 229.69,529.05 229.69,532.21 224.35,532.21 
				224.35,539.35 231.49,539.35 231.49,534.02 234.65,534.02 234.65,539.35 239.99,539.35 239.99,542.51 234.65,542.51 
				234.65,547.84 231.49,547.84 231.49,542.51 224.35,542.51 224.35,547.93 221.19,547.93 221.19,542.51 214.05,542.51 
				214.05,547.84 210.9,547.84 210.9,542.51 205.56,542.51 205.56,539.35 			"/>
			<rect x="221.19" y="523.72" width="3.16" height="5.33"/>
		</g>
		<g>
			<polygon points="83.85,539.35 83.85,534.02 80.69,534.02 80.69,539.35 73.55,539.35 73.55,532.21 78.89,532.21 78.89,529.05 
				73.55,529.05 73.55,529.05 70.39,529.05 70.39,529.05 65.06,529.05 65.06,532.21 70.39,532.21 70.39,539.35 63.25,539.35 
				63.25,534.02 60.09,534.02 60.09,539.35 54.76,539.35 54.76,542.51 60.09,542.51 60.09,547.84 63.25,547.84 63.25,542.51 
				70.39,542.51 70.39,547.93 73.55,547.93 73.55,542.51 80.69,542.51 80.69,547.84 83.85,547.84 83.85,542.51 89.19,542.51 
				89.19,539.35 			"/>
			<rect x="70.39" y="523.72" width="3.16" height="5.33"/>
		</g>
		<g>
			<polyline points="139.48,399.81 147.37,410.27 155.26,399.81 			"/>
			<g>
				<rect x="144.54" y="433.39" width="5.67" height="5.67"/>
				<rect x="138.87" y="427.72" width="5.67" height="5.67"/>
				<rect x="133.2" y="422.05" width="5.67" height="5.67"/>
				<rect x="150.21" y="427.72" width="5.67" height="5.67"/>
				<rect x="138.87" y="416.38" width="5.67" height="5.67"/>
				<rect x="155.88" y="422.05" width="5.67" height="5.67"/>
				<rect x="150.21" y="416.38" width="5.67" height="5.67"/>
				<rect x="144.54" y="410.71" width="5.67" height="5.67"/>
			</g>
		</g>
		<g>
			<rect x="192.27" y="369.12" width="5.67" height="5.67"/>
			<rect x="219.24" y="372.03" width="5.67" height="5.67"/>
			<polygon points="225.66,353.33 217.35,361.63 227.01,362.99 			"/>
			<polygon points="210.98,362.68 198.37,375.29 213.04,377.35 			"/>
			<rect x="204.81" y="356.58" width="5.67" height="5.67"/>
			<rect x="198.54" y="362.85" width="5.67" height="5.67"/>
			<path d="M240.67,371.56c1.12,1.12,2.6,1.69,4.07,1.69v-11.52c-1.47,0-2.95,0.56-4.07,1.69
				C238.42,365.66,238.42,369.31,240.67,371.56z"/>
			<polygon points="200.47,378.97 192.17,387.28 201.83,388.63 			"/>
			<rect x="196.56" y="417.38" width="5.67" height="5.67"/>
			<rect x="202.23" y="400.37" width="5.67" height="5.67"/>
			<rect x="213.57" y="389.04" width="5.67" height="5.67"/>
			<rect x="241.91" y="394.7" width="2.83" height="5.67"/>
			<rect x="241.91" y="417.38" width="2.83" height="5.67"/>
			<rect x="219.24" y="440.06" width="5.67" height="5.67"/>
			<rect x="190.89" y="411.71" width="5.67" height="5.67"/>
			<path d="M163.54,445.66l18.9,18.9l18.9-18.9l-18.9-18.9L163.54,445.66z M182.45,460.32l-14.66-14.66L182.45,431l14.66,14.66
				L182.45,460.32z"/>
			<rect x="196.29" y="454.53" width="5.33" height="3.16"/>
			<polygon points="223.65,448 244.75,469.1 244.75,469.1 244.75,464.86 244.75,464.86 227.89,448 244.75,431.14 244.75,431.14 
				244.75,426.9 244.75,426.9 			"/>
			<path d="M227.55,483.56c-1.99-1.99-5.21-1.99-7.2,0c-1.99,1.99-1.99,5.21,0,7.2c1.99,1.99,5.21,1.99,7.2,0
				S229.54,485.55,227.55,483.56z"/>
			<rect x="196.29" y="475.13" width="5.33" height="3.16"/>
			<polygon points="204.78,483.62 204.78,478.29 210.11,478.29 210.11,475.13 204.78,475.13 204.78,467.99 211.92,467.99 
				211.92,473.33 215.08,473.33 215.08,467.99 220.41,467.99 220.41,464.83 215.08,464.83 215.08,459.5 211.92,459.5 211.92,464.83 
				206.58,464.83 206.58,464.83 204.78,464.83 204.78,457.69 210.11,457.69 210.11,454.53 204.78,454.53 204.78,449.2 201.62,449.2 
				201.62,463.03 201.62,463.03 201.62,464.83 199.81,464.83 199.81,464.83 194.48,464.83 194.48,459.5 191.32,459.5 191.32,464.83 
				185.99,464.83 185.99,467.99 191.32,467.99 191.32,473.33 194.48,473.33 194.48,467.99 201.62,467.99 201.62,469.8 201.62,469.8 
				201.62,483.62 			"/>
			<polygon points="244.75,524.43 244.75,490 242.51,490 242.51,495.34 237.17,495.34 237.17,498.49 242.51,498.49 242.51,505.64 
				235.36,505.64 235.36,500.3 232.21,500.3 232.21,505.64 226.87,505.64 226.87,508.79 232.21,508.79 232.21,514.13 235.36,514.13 
				235.36,508.79 242.51,508.79 242.51,515.93 237.17,515.93 237.17,519.09 242.51,519.09 242.51,524.43 			"/>
			<path d="M178.84,442.06c-1.99,1.99-1.99,5.21,0,7.2c1.99,1.99,5.21,1.99,7.2,0c1.99-1.99,1.99-5.21,0-7.2
				C184.06,440.07,180.83,440.07,178.84,442.06z"/>
			<polygon points="244.75,345.89 244.75,334.06 235.83,334.06 			"/>
			<rect x="233.05" y="326.55" transform="matrix(0.7071 -0.7071 0.7071 0.7071 -163.8244 263.2677)" width="5.67" height="5.67"/>
			<path d="M240.67,452.07c1.12,1.12,2.6,1.69,4.07,1.69v-11.52c-1.47,0-2.95,0.56-4.07,1.69
				C238.42,446.18,238.42,449.82,240.67,452.07z"/>
			<polygon points="244.75,325.38 240.74,329.39 244.75,333.4 			"/>
			<rect x="224.9" y="389.04" width="5.67" height="5.67"/>
			<path d="M242.85,487.17l-18.9-18.9l-18.9,18.9l18.9,18.9L242.85,487.17z M223.95,472.51l14.66,14.66l-14.66,14.66l-14.66-14.66
				L223.95,472.51z"/>
			<polygon points="244.75,388.59 244.75,388.59 244.75,384.34 244.75,384.34 227.89,367.49 244.75,350.63 244.75,350.63 
				244.75,346.39 244.75,346.39 223.65,367.49 			"/>
			<polygon points="182.1,420.51 157.29,445.31 244.75,532.77 244.75,532.77 244.75,528.52 244.75,528.52 161.53,445.31 
				182.1,424.75 244.75,487.4 244.75,487.4 244.75,483.16 244.75,483.16 			"/>
			<polygon points="235.69,343.3 227.38,351.61 237.04,352.96 			"/>
			<rect x="224.9" y="377.7" width="5.67" height="5.67"/>
			<rect x="196.56" y="394.7" width="5.67" height="5.67"/>
			<rect x="230.57" y="406.04" width="5.67" height="5.67"/>
			<rect x="202.23" y="389.04" width="5.67" height="5.67"/>
			<rect x="213.57" y="377.7" width="5.67" height="5.67"/>
			<rect x="236.24" y="400.37" width="5.67" height="5.67"/>
			<rect x="230.57" y="383.37" width="5.67" height="5.67"/>
			<rect x="236.24" y="389.04" width="5.67" height="5.67"/>
			<rect x="207.9" y="383.37" width="5.67" height="5.67"/>
			<rect x="219.24" y="394.7" width="5.67" height="5.67"/>
			<polygon points="244.75,539.55 244.75,539.55 150.51,445.31 182.1,413.72 244.75,476.37 244.75,476.37 244.75,472.13 
				244.75,472.13 182.1,409.48 146.27,445.31 244.75,543.79 244.75,543.79 			"/>
			<polygon points="188.28,385.37 175.67,397.99 190.34,400.05 			"/>
			<rect x="185.22" y="406.04" width="5.67" height="5.67"/>
			<rect x="190.89" y="400.37" width="5.67" height="5.67"/>
			<rect x="182.11" y="379.28" width="5.67" height="5.67"/>
			<rect x="175.84" y="385.55" width="5.67" height="5.67"/>
			<rect x="169.57" y="391.82" width="5.67" height="5.67"/>
			<rect x="207.9" y="406.04" width="5.67" height="5.67"/>
			<rect x="213.57" y="411.71" width="5.67" height="5.67"/>
			<rect x="224.9" y="400.37" width="5.67" height="5.67"/>
			<rect x="213.57" y="400.37" width="5.67" height="5.67"/>
			<rect x="224.9" y="411.71" width="5.67" height="5.67"/>
			<rect x="224.9" y="423.05" width="5.67" height="5.67"/>
			<rect x="213.57" y="423.05" width="5.67" height="5.67"/>
			<rect x="219.24" y="417.38" width="5.67" height="5.67"/>
			<rect x="236.24" y="411.71" width="5.67" height="5.67"/>
			<rect x="224.9" y="434.39" width="5.67" height="5.67"/>
			<rect x="230.57" y="428.72" width="5.67" height="5.67"/>
			<rect x="236.24" y="423.05" width="5.67" height="5.67"/>
			<rect x="207.9" y="428.72" width="5.67" height="5.67"/>
			<rect x="202.23" y="423.05" width="5.67" height="5.67"/>
			<rect x="202.23" y="411.71" width="5.67" height="5.67"/>
			<rect x="213.57" y="434.39" width="5.67" height="5.67"/>
		</g>
		<g>
			<rect x="96.81" y="369.12" width="5.67" height="5.67"/>
			<rect x="69.84" y="372.03" width="5.67" height="5.67"/>
			<polygon points="69.09,353.33 77.39,361.63 67.73,362.99 			"/>
			<polygon points="83.76,362.68 96.38,375.29 81.71,377.35 			"/>
			<rect x="84.27" y="356.58" width="5.67" height="5.67"/>
			<rect x="90.54" y="362.85" width="5.67" height="5.67"/>
			<path d="M54.07,371.56c-1.12,1.12-2.6,1.69-4.07,1.69v-11.52c1.47,0,2.95,0.56,4.07,1.69C56.32,365.66,56.32,369.31,54.07,371.56
				z"/>
			<polygon points="94.28,378.97 102.58,387.28 92.92,388.63 			"/>
			<rect x="92.52" y="417.38" width="5.67" height="5.67"/>
			<rect x="86.85" y="400.37" width="5.67" height="5.67"/>
			<rect x="75.51" y="389.04" width="5.67" height="5.67"/>
			<rect x="50" y="394.7" width="2.83" height="5.67"/>
			<rect x="50" y="417.38" width="2.83" height="5.67"/>
			<rect x="69.84" y="440.06" width="5.67" height="5.67"/>
			<rect x="98.19" y="411.71" width="5.67" height="5.67"/>
			<path d="M112.3,426.76l-18.9,18.9l18.9,18.9l18.9-18.9L112.3,426.76z M97.64,445.66L112.3,431l14.66,14.66l-14.66,14.66
				L97.64,445.66z"/>
			<rect x="93.13" y="454.53" width="5.33" height="3.16"/>
			<polygon points="71.1,448 50,469.1 50,469.1 50,464.86 50,464.86 66.86,448 50,431.14 50,431.14 50,426.9 50,426.9 			"/>
			<path d="M67.19,483.56c1.99-1.99,5.21-1.99,7.2,0c1.99,1.99,1.99,5.21,0,7.2c-1.99,1.99-5.21,1.99-7.2,0
				S65.2,485.55,67.19,483.56z"/>
			<rect x="93.13" y="475.13" width="5.33" height="3.16"/>
			<polygon points="89.97,483.62 89.97,478.29 84.64,478.29 84.64,475.13 89.97,475.13 89.97,467.99 82.83,467.99 82.83,473.33 
				79.67,473.33 79.67,467.99 74.34,467.99 74.34,464.83 79.67,464.83 79.67,459.5 82.83,459.5 82.83,464.83 88.16,464.83 
				88.16,464.83 89.97,464.83 89.97,457.69 84.64,457.69 84.64,454.53 89.97,454.53 89.97,449.2 93.13,449.2 93.13,463.03 
				93.13,463.03 93.13,464.83 94.93,464.83 94.93,464.83 100.27,464.83 100.27,459.5 103.43,459.5 103.43,464.83 108.76,464.83 
				108.76,467.99 103.43,467.99 103.43,473.33 100.27,473.33 100.27,467.99 93.13,467.99 93.13,469.8 93.13,469.8 93.13,483.62 			
				"/>
			<polygon points="50,524.43 50,490 52.24,490 52.24,495.34 57.57,495.34 57.57,498.49 52.24,498.49 52.24,505.64 59.38,505.64 
				59.38,500.3 62.54,500.3 62.54,505.64 67.87,505.64 67.87,508.79 62.54,508.79 62.54,514.13 59.38,514.13 59.38,508.79 
				52.24,508.79 52.24,515.93 57.57,515.93 57.57,519.09 52.24,519.09 52.24,524.43 			"/>
			<path d="M115.9,442.06c1.99,1.99,1.99,5.21,0,7.2c-1.99,1.99-5.21,1.99-7.2,0c-1.99-1.99-1.99-5.21,0-7.2
				C110.69,440.07,113.91,440.07,115.9,442.06z"/>
			<polygon points="50,345.89 50,334.06 58.92,334.06 			"/>
			<rect x="56.03" y="326.55" transform="matrix(0.7071 -0.7071 0.7071 0.7071 -215.6703 138.1004)" width="5.67" height="5.67"/>
			<path d="M54.07,452.07c-1.12,1.12-2.6,1.69-4.07,1.69v-11.52c1.47,0,2.95,0.56,4.07,1.69C56.32,446.18,56.32,449.82,54.07,452.07
				z"/>
			<polygon points="50,325.38 54.01,329.39 50,333.4 			"/>
			<rect x="64.17" y="389.04" width="5.67" height="5.67"/>
			<path d="M70.8,506.07l18.9-18.9l-18.9-18.9l-18.9,18.9L70.8,506.07z M85.46,487.17L70.8,501.83l-14.66-14.66l14.66-14.66
				L85.46,487.17z"/>
			<polygon points="50,388.59 50,388.59 50,384.34 50,384.34 66.86,367.49 50,350.63 50,350.63 50,346.39 50,346.39 71.1,367.49 			
				"/>
			<polygon points="112.65,420.51 137.46,445.31 50,532.77 50,532.77 50,528.52 50,528.52 133.21,445.31 112.65,424.75 50,487.4 
				50,487.4 50,483.16 50,483.16 			"/>
			<polygon points="59.06,343.3 67.37,351.61 57.71,352.96 			"/>
			<rect x="64.17" y="377.7" width="5.67" height="5.67"/>
			<rect x="92.52" y="394.7" width="5.67" height="5.67"/>
			<rect x="58.5" y="406.04" width="5.67" height="5.67"/>
			<rect x="86.85" y="389.04" width="5.67" height="5.67"/>
			<rect x="75.51" y="377.7" width="5.67" height="5.67"/>
			<rect x="52.83" y="400.37" width="5.67" height="5.67"/>
			<rect x="58.5" y="383.37" width="5.67" height="5.67"/>
			<rect x="52.83" y="389.04" width="5.67" height="5.67"/>
			<rect x="81.18" y="383.37" width="5.67" height="5.67"/>
			<rect x="69.84" y="394.7" width="5.67" height="5.67"/>
			<polygon points="50,539.55 50,539.55 144.24,445.31 112.65,413.72 50,476.37 50,476.37 50,472.13 50,472.13 112.65,409.48 
				148.48,445.31 50,543.79 50,543.79 			"/>
			<polygon points="106.46,385.37 119.08,397.99 104.41,400.05 			"/>
			<rect x="103.86" y="406.04" width="5.67" height="5.67"/>
			<rect x="98.19" y="400.37" width="5.67" height="5.67"/>
			<rect x="106.97" y="379.28" width="5.67" height="5.67"/>
			<rect x="113.24" y="385.55" width="5.67" height="5.67"/>
			<rect x="119.51" y="391.82" width="5.67" height="5.67"/>
			<rect x="81.18" y="406.04" width="5.67" height="5.67"/>
			<rect x="75.51" y="411.71" width="5.67" height="5.67"/>
			<rect x="64.17" y="400.37" width="5.67" height="5.67"/>
			<rect x="75.51" y="400.37" width="5.67" height="5.67"/>
			<rect x="64.17" y="411.71" width="5.67" height="5.67"/>
			<rect x="64.17" y="423.05" width="5.67" height="5.67"/>
			<rect x="75.51" y="423.05" width="5.67" height="5.67"/>
			<rect x="69.84" y="417.38" width="5.67" height="5.67"/>
			<rect x="52.83" y="411.71" width="5.67" height="5.67"/>
			<rect x="64.17" y="434.39" width="5.67" height="5.67"/>
			<rect x="58.5" y="428.72" width="5.67" height="5.67"/>
			<rect x="52.83" y="423.05" width="5.67" height="5.67"/>
			<rect x="81.18" y="428.72" width="5.67" height="5.67"/>
			<rect x="86.85" y="423.05" width="5.67" height="5.67"/>
			<rect x="86.85" y="411.71" width="5.67" height="5.67"/>
			<rect x="75.51" y="434.39" width="5.67" height="5.67"/>
		</g>
	</g>
	<g>
		<g>
			<g>
				
					<rect x="328.7" y="363.68" transform="matrix(0.7071 -0.7071 0.7071 0.7071 -166.4456 352.3649)" style="fill:none;stroke:#000000;stroke-width:3;stroke-miterlimit:10;" width="26.84" height="26.84"/>
				<circle cx="342.12" cy="377.1" r="5.76"/>
			</g>
			<g>
				<polyline points="314.73,371.25 324.38,372.6 323.03,362.94 				"/>
				<polyline points="333.06,352.91 334.41,362.57 324.75,361.22 				"/>
			</g>
			<g>
				<polyline points="369.51,371.25 359.85,372.6 361.21,362.94 				"/>
				<polyline points="351.18,352.91 349.83,362.57 359.49,361.22 				"/>
			</g>
			<g>
				<polyline points="333.2,343.67 342.12,355.5 351.04,343.67 				"/>
				<rect x="339.28" y="336.17" transform="matrix(0.7071 0.7071 -0.7071 0.7071 339.9139 -142.6239)" width="5.67" height="5.67"/>
				<rect x="348.15" y="336.17" transform="matrix(0.7071 0.7071 -0.7071 0.7071 342.5109 -148.8937)" width="5.67" height="5.67"/>
				<rect x="330.42" y="336.17" transform="matrix(-0.7071 0.7071 -0.7071 -0.7071 808.607 343.0648)" width="5.67" height="5.67"/>
			</g>
		</g>
		<g>
			
				<rect x="330.25" y="456.53" transform="matrix(-0.7071 -0.7071 0.7071 -0.7071 252.8271 1041.5193)" style="fill:none;stroke:#000000;stroke-width:3;stroke-miterlimit:10;" width="23.73" height="23.73"/>
			<circle cx="342.12" cy="468.4" r="5.09"/>
		</g>
		<g>
			<polyline points="350.59,515.57 352.16,504.33 340.92,505.9 			"/>
			<polyline points="360.1,525.08 361.68,513.84 350.44,515.42 			"/>
			<polyline points="369.62,534.6 371.19,523.36 359.95,524.93 			"/>
			<polyline points="369.47,534.45 380.71,532.87 379.13,544.11 			"/>
		</g>
		<g>
			<polyline points="314.77,534.45 303.53,532.87 305.11,544.11 			"/>
			<polyline points="324.29,524.93 313.05,523.36 314.62,534.6 			"/>
			<polyline points="333.8,515.42 322.56,513.84 324.14,525.08 			"/>
			<polyline points="333.65,515.57 332.08,504.33 343.32,505.9 			"/>
		</g>
		<g>
			<rect x="373.3" y="544.33" width="5.67" height="5.67"/>
			
				<rect x="305.27" y="544.33" transform="matrix(-1 -4.395652e-11 4.395652e-11 -1 616.207 1094.3307)" width="5.67" height="5.67"/>
			<rect x="310.94" y="538.66" width="5.67" height="5.67"/>
			<rect x="327.95" y="544.33" width="5.67" height="5.67"/>
			<rect x="322.28" y="538.66" width="5.67" height="5.67"/>
			<rect x="316.61" y="532.99" width="5.67" height="5.67"/>
			<rect x="333.62" y="538.66" width="5.67" height="5.67"/>
			<rect x="322.28" y="527.32" width="5.67" height="5.67"/>
			<rect x="350.62" y="544.33" width="5.67" height="5.67"/>
			<rect x="344.95" y="538.66" width="5.67" height="5.67"/>
			<rect x="339.28" y="532.99" width="5.67" height="5.67"/>
			<rect x="333.62" y="527.32" width="5.67" height="5.67"/>
			<rect x="327.95" y="521.65" width="5.67" height="5.67"/>
			<rect x="356.29" y="538.66" width="5.67" height="5.67"/>
			<rect x="344.95" y="527.32" width="5.67" height="5.67"/>
			<rect x="333.62" y="515.98" width="5.67" height="5.67"/>
			<rect x="367.63" y="538.66" width="5.67" height="5.67"/>
			<rect x="361.96" y="532.99" width="5.67" height="5.67"/>
			<rect x="356.29" y="527.32" width="5.67" height="5.67"/>
			<rect x="350.62" y="521.65" width="5.67" height="5.67"/>
			<rect x="344.95" y="515.98" width="5.67" height="5.67"/>
			<rect x="339.28" y="510.31" width="5.67" height="5.67"/>
		</g>
		<g>
			<rect x="298.31" y="527.65" transform="matrix(-0.7071 -0.7071 0.7071 -0.7071 137.3397 1114.582)" width="2.39" height="2.39"/>
			<rect x="299.76" y="525.38" transform="matrix(0.7071 -0.7071 0.7071 0.7071 -283.9532 367.6215)" width="4.04" height="2.39"/>
			<rect x="295.21" y="529.93" transform="matrix(0.7071 -0.7071 0.7071 0.7071 -288.5022 365.7373)" width="4.04" height="2.39"/>
			<rect x="296.04" y="524.55" transform="matrix(0.7071 -0.7071 0.7071 0.7071 -285.2855 364.4049)" width="2.39" height="4.04"/>
			<rect x="300.59" y="529.1" transform="matrix(0.7071 -0.7071 0.7071 0.7071 -287.1698 368.9539)" width="2.39" height="4.04"/>
		</g>
		<g>
			<rect x="307.83" y="518.14" transform="matrix(-0.7071 -0.7071 0.7071 -0.7071 160.3112 1105.067)" width="2.39" height="2.39"/>
			<rect x="309.28" y="515.86" transform="matrix(0.7071 -0.7071 0.7071 0.7071 -274.438 371.5628)" width="4.04" height="2.39"/>
			<rect x="304.73" y="520.41" transform="matrix(0.7071 -0.7071 0.7071 0.7071 -278.9871 369.6785)" width="4.04" height="2.39"/>
			<rect x="305.55" y="515.04" transform="matrix(0.7071 -0.7071 0.7071 0.7071 -275.7704 368.3462)" width="2.39" height="4.04"/>
			<rect x="310.1" y="519.59" transform="matrix(0.7071 -0.7071 0.7071 0.7071 -277.6547 372.8952)" width="2.39" height="4.04"/>
		</g>
		<g>
			
				<rect x="317.34" y="508.62" transform="matrix(-0.7071 -0.7071 0.7071 -0.7071 183.2826 1095.5519)" width="2.39" height="2.39"/>
			<rect x="318.79" y="506.35" transform="matrix(0.7071 -0.7071 0.7071 0.7071 -264.923 375.5041)" width="4.04" height="2.39"/>
			<rect x="314.24" y="510.9" transform="matrix(0.7071 -0.7071 0.7071 0.7071 -269.472 373.6198)" width="4.04" height="2.39"/>
			<rect x="315.07" y="505.52" transform="matrix(0.7071 -0.7071 0.7071 0.7071 -266.2554 372.2874)" width="2.39" height="4.04"/>
			<rect x="319.62" y="510.07" transform="matrix(0.7071 -0.7071 0.7071 0.7071 -268.1396 376.8365)" width="2.39" height="4.04"/>
		</g>
		<g>
			<rect x="326.86" y="499.11" transform="matrix(-0.7071 -0.7071 0.7071 -0.7071 206.254 1086.0369)" width="2.39" height="2.39"/>
			<rect x="328.31" y="496.83" transform="matrix(0.7071 -0.7071 0.7071 0.7071 -255.4079 379.4454)" width="4.04" height="2.39"/>
			<rect x="323.76" y="501.38" transform="matrix(0.7071 -0.7071 0.7071 0.7071 -259.9569 377.5611)" width="4.04" height="2.39"/>
			<rect x="324.58" y="496.01" transform="matrix(0.7071 -0.7071 0.7071 0.7071 -256.7403 376.2287)" width="2.39" height="4.04"/>
			<rect x="329.13" y="500.56" transform="matrix(0.7071 -0.7071 0.7071 0.7071 -258.6245 380.7777)" width="2.39" height="4.04"/>
		</g>
		<g>
			
				<rect x="336.36" y="489.61" transform="matrix(-0.7071 -0.7071 0.7071 -0.7071 229.1891 1076.5369)" width="2.39" height="2.39"/>
			<rect x="337.81" y="487.33" transform="matrix(0.7071 -0.7071 0.7071 0.7071 -245.9079 383.3804)" width="4.04" height="2.39"/>
			<rect x="333.26" y="491.88" transform="matrix(0.7071 -0.7071 0.7071 0.7071 -250.4569 381.4961)" width="4.04" height="2.39"/>
			<rect x="334.08" y="486.51" transform="matrix(0.7071 -0.7071 0.7071 0.7071 -247.2403 380.1638)" width="2.39" height="4.04"/>
			<rect x="338.63" y="491.06" transform="matrix(0.7071 -0.7071 0.7071 0.7071 -249.1246 384.7128)" width="2.39" height="4.04"/>
		</g>
		<g>
			<rect x="345.49" y="489.61" transform="matrix(0.7071 -0.7071 0.7071 0.7071 -245.5073 388.8965)" width="2.39" height="2.39"/>
			<rect x="343.22" y="486.51" transform="matrix(0.7071 -0.7071 0.7071 0.7071 -244.5652 386.6219)" width="2.39" height="4.04"/>
			<rect x="347.76" y="491.06" transform="matrix(0.7071 -0.7071 0.7071 0.7071 -246.4495 391.171)" width="2.39" height="4.04"/>
			<rect x="346.94" y="487.33" transform="matrix(0.7071 -0.7071 0.7071 0.7071 -243.2328 389.8386)" width="4.04" height="2.39"/>
			<rect x="342.39" y="491.88" transform="matrix(0.7071 -0.7071 0.7071 0.7071 -247.7818 387.9543)" width="4.04" height="2.39"/>
		</g>
		<g>
			<rect x="340.92" y="498.7" transform="matrix(0.7071 -0.7071 0.7071 0.7071 -253.2782 388.3321)" width="2.39" height="2.39"/>
			<rect x="338.65" y="495.6" transform="matrix(0.7071 -0.7071 0.7071 0.7071 -252.336 386.0576)" width="2.39" height="4.04"/>
			<rect x="343.2" y="500.15" transform="matrix(0.7071 -0.7071 0.7071 0.7071 -254.2203 390.6066)" width="2.39" height="4.04"/>
			<rect x="342.37" y="496.43" transform="matrix(0.7071 -0.7071 0.7071 0.7071 -251.0037 389.2743)" width="4.04" height="2.39"/>
			<rect x="337.82" y="500.98" transform="matrix(0.7071 -0.7071 0.7071 0.7071 -255.5527 387.39)" width="4.04" height="2.39"/>
		</g>
		<g>
			<rect x="354.99" y="499.11" transform="matrix(0.7071 -0.7071 0.7071 0.7071 -249.4427 398.3957)" width="2.39" height="2.39"/>
			<rect x="357.26" y="500.56" transform="matrix(0.7071 -0.7071 0.7071 0.7071 -250.3848 400.6703)" width="2.39" height="4.04"/>
			<rect x="352.71" y="496.01" transform="matrix(0.7071 -0.7071 0.7071 0.7071 -248.5005 396.1212)" width="2.39" height="4.04"/>
			<rect x="356.44" y="496.83" transform="matrix(0.7071 -0.7071 0.7071 0.7071 -247.1682 399.3379)" width="4.04" height="2.39"/>
			<rect x="351.89" y="501.38" transform="matrix(0.7071 -0.7071 0.7071 0.7071 -251.7172 397.4536)" width="4.04" height="2.39"/>
		</g>
		<g>
			<rect x="364.5" y="508.62" transform="matrix(0.7071 -0.7071 0.7071 0.7071 -253.3839 407.9108)" width="2.39" height="2.39"/>
			<rect x="366.78" y="510.07" transform="matrix(0.7071 -0.7071 0.7071 0.7071 -254.3261 410.1853)" width="2.39" height="4.04"/>
			<rect x="362.23" y="505.52" transform="matrix(0.7071 -0.7071 0.7071 0.7071 -252.4418 405.6363)" width="2.39" height="4.04"/>
			<rect x="365.95" y="506.35" transform="matrix(0.7071 -0.7071 0.7071 0.7071 -251.1094 408.8529)" width="4.04" height="2.39"/>
			<rect x="361.41" y="510.9" transform="matrix(0.7071 -0.7071 0.7071 0.7071 -255.6584 406.9687)" width="4.04" height="2.39"/>
		</g>
		<g>
			<rect x="374.02" y="518.14" transform="matrix(0.7071 -0.7071 0.7071 0.7071 -257.3252 417.4259)" width="2.39" height="2.39"/>
			<rect x="376.29" y="519.59" transform="matrix(0.7071 -0.7071 0.7071 0.7071 -258.2674 419.7004)" width="2.39" height="4.04"/>
			<rect x="371.74" y="515.04" transform="matrix(0.7071 -0.7071 0.7071 0.7071 -256.3831 415.1514)" width="2.39" height="4.04"/>
			<rect x="375.47" y="515.86" transform="matrix(0.7071 -0.7071 0.7071 0.7071 -255.0507 418.368)" width="4.04" height="2.39"/>
			<rect x="370.92" y="520.41" transform="matrix(0.7071 -0.7071 0.7071 0.7071 -259.5997 416.4838)" width="4.04" height="2.39"/>
		</g>
		<g>
			<rect x="383.53" y="527.65" transform="matrix(0.7071 -0.7071 0.7071 0.7071 -261.2665 426.941)" width="2.39" height="2.39"/>
			<rect x="385.81" y="529.1" transform="matrix(0.7071 -0.7071 0.7071 0.7071 -262.2086 429.2155)" width="2.39" height="4.04"/>
			<rect x="381.26" y="524.55" transform="matrix(0.7071 -0.7071 0.7071 0.7071 -260.3244 424.6665)" width="2.39" height="4.04"/>
			<rect x="384.98" y="525.38" transform="matrix(0.7071 -0.7071 0.7071 0.7071 -258.992 427.8831)" width="4.04" height="2.39"/>
			<rect x="380.44" y="529.93" transform="matrix(0.7071 -0.7071 0.7071 0.7071 -263.541 425.9988)" width="4.04" height="2.39"/>
		</g>
		<g>
			<rect x="393.05" y="537.17" transform="matrix(0.7071 -0.7071 0.7071 0.7071 -265.209 436.459)" width="2.39" height="2.39"/>
			<rect x="395.33" y="538.62" transform="matrix(0.7071 -0.7071 0.7071 0.7071 -266.1511 438.7336)" width="2.39" height="4.04"/>
			<rect x="390.78" y="534.07" transform="matrix(0.7071 -0.7071 0.7071 0.7071 -264.2669 434.1845)" width="2.39" height="4.04"/>
			<rect x="394.5" y="534.89" transform="matrix(0.7071 -0.7071 0.7071 0.7071 -262.9345 437.4012)" width="4.04" height="2.39"/>
			<rect x="389.95" y="539.44" transform="matrix(0.7071 -0.7071 0.7071 0.7071 -267.4835 435.5169)" width="4.04" height="2.39"/>
		</g>
		<g>
			
				<rect x="288.79" y="537.17" transform="matrix(-0.7071 -0.7071 0.7071 -0.7071 114.3629 1124.1008)" width="2.39" height="2.39"/>
			<rect x="285.7" y="539.44" transform="matrix(0.7071 -0.7071 0.7071 0.7071 -298.0199 361.7955)" width="4.04" height="2.39"/>
			<rect x="290.24" y="534.89" transform="matrix(0.7071 -0.7071 0.7071 0.7071 -293.4709 363.6798)" width="4.04" height="2.39"/>
			<rect x="286.52" y="534.07" transform="matrix(0.7071 -0.7071 0.7071 0.7071 -294.8033 360.4631)" width="2.39" height="4.04"/>
			<rect x="291.07" y="538.62" transform="matrix(0.7071 -0.7071 0.7071 0.7071 -296.6875 365.0121)" width="2.39" height="4.04"/>
		</g>
		<polygon points="360.97,486.36 360.97,486.36 362.11,487.5 372.59,477.03 379.46,483.9 368.98,494.37 370.13,495.52 359.98,496.5 
					"/>
		<polygon points="370.48,495.87 370.48,495.87 371.63,497.02 382.1,486.55 388.97,493.42 378.5,503.89 379.64,505.03 369.5,506.02 
					"/>
		<polygon points="380,505.39 380,505.39 381.14,506.53 391.62,496.06 398.49,502.93 388.02,513.4 389.16,514.55 379.01,515.53 		
			"/>
		<polygon points="389.52,514.91 389.52,514.91 390.66,516.05 401.13,505.58 408,512.45 397.53,522.92 398.68,524.07 388.53,525.05 
					"/>
		<polygon points="399.03,524.42 399.03,524.42 400.18,525.57 410.65,515.09 417.52,521.96 407.05,532.44 408.19,533.58 
			398.05,534.57 		"/>
		<polygon points="360.61,486 360.61,486 359.47,484.86 369.94,474.38 363.07,467.51 352.6,477.99 351.45,476.84 350.47,486.99 		
			"/>
		<polygon points="323.27,486.36 323.27,486.36 322.13,487.5 311.65,477.03 304.78,483.9 315.26,494.37 314.11,495.52 324.26,496.5 
					"/>
		<polygon points="313.75,495.87 313.75,495.87 312.61,497.02 302.14,486.55 295.27,493.42 305.74,503.89 304.59,505.03 
			314.74,506.02 		"/>
		<polygon points="304.24,505.39 304.24,505.39 303.09,506.53 292.62,496.06 285.75,502.93 296.22,513.4 295.08,514.55 
			305.22,515.53 		"/>
		<polygon points="294.72,514.91 294.72,514.91 293.58,516.05 283.11,505.58 276.23,512.45 286.71,522.92 285.56,524.07 
			295.71,525.05 		"/>
		<polygon points="285.21,524.42 285.21,524.42 284.06,525.57 273.59,515.09 266.72,521.96 277.19,532.44 276.05,533.58 
			286.19,534.57 		"/>
		<polygon points="323.63,486 323.63,486 324.77,484.86 314.3,474.38 321.17,467.51 331.64,477.99 332.79,476.84 333.77,486.99 		
			"/>
		<g>
			<polygon points="405.64,539.35 405.64,534.02 408.8,534.02 408.8,539.35 415.94,539.35 415.94,532.21 410.61,532.21 
				410.61,529.05 415.94,529.05 415.94,529.05 419.1,529.05 419.1,529.05 424.43,529.05 424.43,532.21 419.1,532.21 419.1,539.35 
				426.24,539.35 426.24,534.02 429.4,534.02 429.4,539.35 434.73,539.35 434.73,542.51 429.4,542.51 429.4,547.84 426.24,547.84 
				426.24,542.51 419.1,542.51 419.1,547.93 415.94,547.93 415.94,542.51 408.8,542.51 408.8,547.84 405.64,547.84 405.64,542.51 
				400.31,542.51 400.31,539.35 			"/>
			<rect x="415.94" y="523.72" width="3.16" height="5.33"/>
		</g>
		<g>
			<polygon points="278.6,539.35 278.6,534.02 275.44,534.02 275.44,539.35 268.3,539.35 268.3,532.21 273.63,532.21 273.63,529.05 
				268.3,529.05 268.3,529.05 265.14,529.05 265.14,529.05 259.81,529.05 259.81,532.21 265.14,532.21 265.14,539.35 258,539.35 
				258,534.02 254.84,534.02 254.84,539.35 249.51,539.35 249.51,542.51 254.84,542.51 254.84,547.84 258,547.84 258,542.51 
				265.14,542.51 265.14,547.93 268.3,547.93 268.3,542.51 275.44,542.51 275.44,547.84 278.6,547.84 278.6,542.51 283.93,542.51 
				283.93,539.35 			"/>
			<rect x="265.14" y="523.72" width="3.16" height="5.33"/>
		</g>
		<g>
			<polyline points="334.23,399.81 342.12,410.27 350.01,399.81 			"/>
			<g>
				<rect x="339.28" y="433.39" width="5.67" height="5.67"/>
				<rect x="333.62" y="427.72" width="5.67" height="5.67"/>
				<rect x="327.95" y="422.05" width="5.67" height="5.67"/>
				<rect x="344.95" y="427.72" width="5.67" height="5.67"/>
				<rect x="333.62" y="416.38" width="5.67" height="5.67"/>
				<rect x="350.62" y="422.05" width="5.67" height="5.67"/>
				<rect x="344.95" y="416.38" width="5.67" height="5.67"/>
				<rect x="339.28" y="410.71" width="5.67" height="5.67"/>
			</g>
		</g>
		<g>
			<rect x="387.01" y="369.12" width="5.67" height="5.67"/>
			<rect x="413.98" y="372.03" width="5.67" height="5.67"/>
			<polygon points="420.4,353.33 412.1,361.63 421.76,362.99 			"/>
			<polygon points="405.73,362.68 393.11,375.29 407.79,377.35 			"/>
			<rect x="399.55" y="356.58" width="5.67" height="5.67"/>
			<rect x="393.28" y="362.85" width="5.67" height="5.67"/>
			<path d="M435.42,371.56c1.12,1.12,2.6,1.69,4.07,1.69v-11.52c-1.47,0-2.95,0.56-4.07,1.69
				C433.17,365.66,433.17,369.31,435.42,371.56z"/>
			<polygon points="395.22,378.97 386.91,387.28 396.57,388.63 			"/>
			<rect x="391.3" y="417.38" width="5.67" height="5.67"/>
			<rect x="396.97" y="400.37" width="5.67" height="5.67"/>
			<rect x="408.31" y="389.04" width="5.67" height="5.67"/>
			<rect x="436.66" y="394.7" width="2.83" height="5.67"/>
			<rect x="436.66" y="417.38" width="2.83" height="5.67"/>
			<rect x="413.98" y="440.06" width="5.67" height="5.67"/>
			<rect x="385.63" y="411.71" width="5.67" height="5.67"/>
			<path d="M358.29,445.66l18.9,18.9l18.9-18.9l-18.9-18.9L358.29,445.66z M377.19,460.32l-14.66-14.66L377.19,431l14.66,14.66
				L377.19,460.32z"/>
			<rect x="391.03" y="454.53" width="5.33" height="3.16"/>
			<polygon points="418.39,448 439.49,469.1 439.49,469.1 439.49,464.86 439.49,464.86 422.64,448 439.49,431.14 439.49,431.14 
				439.49,426.9 439.49,426.9 			"/>
			<path d="M422.3,483.56c-1.99-1.99-5.21-1.99-7.2,0c-1.99,1.99-1.99,5.21,0,7.2c1.99,1.99,5.21,1.99,7.2,0
				S424.29,485.55,422.3,483.56z"/>
			<rect x="391.03" y="475.13" width="5.33" height="3.16"/>
			<polygon points="399.52,483.62 399.52,478.29 404.86,478.29 404.86,475.13 399.52,475.13 399.52,467.99 406.66,467.99 
				406.66,473.33 409.82,473.33 409.82,467.99 415.16,467.99 415.16,464.83 409.82,464.83 409.82,459.5 406.66,459.5 406.66,464.83 
				401.33,464.83 401.33,464.83 399.52,464.83 399.52,457.69 404.86,457.69 404.86,454.53 399.52,454.53 399.52,449.2 396.37,449.2 
				396.37,463.03 396.37,463.03 396.37,464.83 394.56,464.83 394.56,464.83 389.22,464.83 389.22,459.5 386.07,459.5 386.07,464.83 
				380.73,464.83 380.73,467.99 386.07,467.99 386.07,473.33 389.22,473.33 389.22,467.99 396.37,467.99 396.37,469.8 396.37,469.8 
				396.37,483.62 			"/>
			<polygon points="439.49,524.43 439.49,490 437.25,490 437.25,495.34 431.92,495.34 431.92,498.49 437.25,498.49 437.25,505.64 
				430.11,505.64 430.11,500.3 426.95,500.3 426.95,505.64 421.62,505.64 421.62,508.79 426.95,508.79 426.95,514.13 430.11,514.13 
				430.11,508.79 437.25,508.79 437.25,515.93 431.92,515.93 431.92,519.09 437.25,519.09 437.25,524.43 			"/>
			<path d="M373.59,442.06c-1.99,1.99-1.99,5.21,0,7.2c1.99,1.99,5.21,1.99,7.2,0c1.99-1.99,1.99-5.21,0-7.2
				C378.8,440.07,375.58,440.07,373.59,442.06z"/>
			<polygon points="439.49,345.89 439.49,334.06 430.57,334.06 			"/>
			<rect x="427.79" y="326.55" transform="matrix(0.7071 -0.7071 0.7071 0.7071 -106.7846 400.9738)" width="5.67" height="5.67"/>
			<path d="M435.42,452.07c1.12,1.12,2.6,1.69,4.07,1.69v-11.52c-1.47,0-2.95,0.56-4.07,1.69
				C433.17,446.18,433.17,449.82,435.42,452.07z"/>
			<polygon points="439.49,325.38 435.48,329.39 439.49,333.4 			"/>
			<rect x="419.65" y="389.04" width="5.67" height="5.67"/>
			<path d="M437.6,487.17l-18.9-18.9l-18.9,18.9l18.9,18.9L437.6,487.17z M418.7,472.51l14.66,14.66l-14.66,14.66l-14.66-14.66
				L418.7,472.51z"/>
			<polygon points="439.49,388.59 439.49,388.59 439.49,384.34 439.49,384.34 422.64,367.49 439.49,350.63 439.49,350.63 
				439.49,346.39 439.49,346.39 418.39,367.49 			"/>
			<polygon points="376.84,420.51 352.04,445.31 439.49,532.77 439.49,532.77 439.49,528.52 439.49,528.52 356.28,445.31 
				376.84,424.75 439.49,487.4 439.49,487.4 439.49,483.16 439.49,483.16 			"/>
			<polygon points="430.43,343.3 422.13,351.61 431.79,352.96 			"/>
			<rect x="419.65" y="377.7" width="5.67" height="5.67"/>
			<rect x="391.3" y="394.7" width="5.67" height="5.67"/>
			<rect x="425.32" y="406.04" width="5.67" height="5.67"/>
			<rect x="396.97" y="389.04" width="5.67" height="5.67"/>
			<rect x="408.31" y="377.7" width="5.67" height="5.67"/>
			<rect x="430.99" y="400.37" width="5.67" height="5.67"/>
			<rect x="425.32" y="383.37" width="5.67" height="5.67"/>
			<rect x="430.99" y="389.04" width="5.67" height="5.67"/>
			<rect x="402.64" y="383.37" width="5.67" height="5.67"/>
			<rect x="413.98" y="394.7" width="5.67" height="5.67"/>
			<polygon points="439.49,539.55 439.49,539.55 345.25,445.31 376.84,413.72 439.49,476.37 439.49,476.37 439.49,472.13 
				439.49,472.13 376.84,409.48 341.01,445.31 439.49,543.79 439.49,543.79 			"/>
			<polygon points="383.03,385.37 370.42,397.99 385.09,400.05 			"/>
			<rect x="379.97" y="406.04" width="5.67" height="5.67"/>
			<rect x="385.63" y="400.37" width="5.67" height="5.67"/>
			<rect x="376.86" y="379.28" width="5.67" height="5.67"/>
			<rect x="370.59" y="385.55" width="5.67" height="5.67"/>
			<rect x="364.32" y="391.82" width="5.67" height="5.67"/>
			<rect x="402.64" y="406.04" width="5.67" height="5.67"/>
			<rect x="408.31" y="411.71" width="5.67" height="5.67"/>
			<rect x="419.65" y="400.37" width="5.67" height="5.67"/>
			<rect x="408.31" y="400.37" width="5.67" height="5.67"/>
			<rect x="419.65" y="411.71" width="5.67" height="5.67"/>
			<rect x="419.65" y="423.05" width="5.67" height="5.67"/>
			<rect x="408.31" y="423.05" width="5.67" height="5.67"/>
			<rect x="413.98" y="417.38" width="5.67" height="5.67"/>
			<rect x="430.99" y="411.71" width="5.67" height="5.67"/>
			<rect x="419.65" y="434.39" width="5.67" height="5.67"/>
			<rect x="425.32" y="428.72" width="5.67" height="5.67"/>
			<rect x="430.99" y="423.05" width="5.67" height="5.67"/>
			<rect x="402.64" y="428.72" width="5.67" height="5.67"/>
			<rect x="396.97" y="423.05" width="5.67" height="5.67"/>
			<rect x="396.97" y="411.71" width="5.67" height="5.67"/>
			<rect x="408.31" y="434.39" width="5.67" height="5.67"/>
		</g>
		<g>
			<rect x="291.55" y="369.12" width="5.67" height="5.67"/>
			<rect x="264.59" y="372.03" width="5.67" height="5.67"/>
			<polygon points="263.83,353.33 272.14,361.63 262.48,362.99 			"/>
			<polygon points="278.51,362.68 291.12,375.29 276.45,377.35 			"/>
			<rect x="279.02" y="356.58" width="5.67" height="5.67"/>
			<rect x="285.29" y="362.85" width="5.67" height="5.67"/>
			<path d="M248.82,371.56c-1.12,1.12-2.6,1.69-4.07,1.69v-11.52c1.47,0,2.95,0.56,4.07,1.69
				C251.07,365.66,251.07,369.31,248.82,371.56z"/>
			<polygon points="289.02,378.97 297.33,387.28 287.67,388.63 			"/>
			<rect x="287.27" y="417.38" width="5.67" height="5.67"/>
			<rect x="281.6" y="400.37" width="5.67" height="5.67"/>
			<rect x="270.26" y="389.04" width="5.67" height="5.67"/>
			<rect x="244.75" y="394.7" width="2.83" height="5.67"/>
			<rect x="244.75" y="417.38" width="2.83" height="5.67"/>
			<rect x="264.59" y="440.06" width="5.67" height="5.67"/>
			<rect x="292.93" y="411.71" width="5.67" height="5.67"/>
			<path d="M307.05,426.76l-18.9,18.9l18.9,18.9l18.9-18.9L307.05,426.76z M292.39,445.66L307.05,431l14.66,14.66l-14.66,14.66
				L292.39,445.66z"/>
			<rect x="287.87" y="454.53" width="5.33" height="3.16"/>
			<polygon points="265.85,448 244.75,469.1 244.75,469.1 244.75,464.86 244.75,464.86 261.6,448 244.75,431.14 244.75,431.14 
				244.75,426.9 244.75,426.9 			"/>
			<path d="M261.94,483.56c1.99-1.99,5.21-1.99,7.2,0c1.99,1.99,1.99,5.21,0,7.2c-1.99,1.99-5.21,1.99-7.2,0
				S259.95,485.55,261.94,483.56z"/>
			<rect x="287.87" y="475.13" width="5.33" height="3.16"/>
			<polygon points="284.72,483.62 284.72,478.29 279.38,478.29 279.38,475.13 284.72,475.13 284.72,467.99 277.57,467.99 
				277.57,473.33 274.42,473.33 274.42,467.99 269.08,467.99 269.08,464.83 274.42,464.83 274.42,459.5 277.57,459.5 277.57,464.83 
				282.91,464.83 282.91,464.83 284.72,464.83 284.72,457.69 279.38,457.69 279.38,454.53 284.72,454.53 284.72,449.2 287.87,449.2 
				287.87,463.03 287.87,463.03 287.87,464.83 289.68,464.83 289.68,464.83 295.01,464.83 295.01,459.5 298.17,459.5 298.17,464.83 
				303.51,464.83 303.51,467.99 298.17,467.99 298.17,473.33 295.01,473.33 295.01,467.99 287.87,467.99 287.87,469.8 287.87,469.8 
				287.87,483.62 			"/>
			<polygon points="244.75,524.43 244.75,490 246.99,490 246.99,495.34 252.32,495.34 252.32,498.49 246.99,498.49 246.99,505.64 
				254.13,505.64 254.13,500.3 257.29,500.3 257.29,505.64 262.62,505.64 262.62,508.79 257.29,508.79 257.29,514.13 254.13,514.13 
				254.13,508.79 246.99,508.79 246.99,515.93 252.32,515.93 252.32,519.09 246.99,519.09 246.99,524.43 			"/>
			<path d="M310.65,442.06c1.99,1.99,1.99,5.21,0,7.2c-1.99,1.99-5.21,1.99-7.2,0c-1.99-1.99-1.99-5.21,0-7.2
				C305.43,440.07,308.66,440.07,310.65,442.06z"/>
			<polygon points="244.75,345.89 244.75,334.06 253.67,334.06 			"/>
			<rect x="250.78" y="326.55" transform="matrix(0.7071 -0.7071 0.7071 0.7071 -158.6306 275.8065)" width="5.67" height="5.67"/>
			<path d="M248.82,452.07c-1.12,1.12-2.6,1.69-4.07,1.69v-11.52c1.47,0,2.95,0.56,4.07,1.69
				C251.07,446.18,251.07,449.82,248.82,452.07z"/>
			<polygon points="244.75,325.38 248.75,329.39 244.75,333.4 			"/>
			<rect x="258.92" y="389.04" width="5.67" height="5.67"/>
			<path d="M265.54,506.07l18.9-18.9l-18.9-18.9l-18.9,18.9L265.54,506.07z M280.2,487.17l-14.66,14.66l-14.66-14.66l14.66-14.66
				L280.2,487.17z"/>
			<polygon points="244.75,388.59 244.75,388.59 244.75,384.34 244.75,384.34 261.6,367.49 244.75,350.63 244.75,350.63 
				244.75,346.39 244.75,346.39 265.85,367.49 			"/>
			<polygon points="307.4,420.51 332.2,445.31 244.75,532.77 244.75,532.77 244.75,528.52 244.75,528.52 327.96,445.31 
				307.4,424.75 244.75,487.4 244.75,487.4 244.75,483.16 244.75,483.16 			"/>
			<polygon points="253.81,343.3 262.11,351.61 252.45,352.96 			"/>
			<rect x="258.92" y="377.7" width="5.67" height="5.67"/>
			<rect x="287.27" y="394.7" width="5.67" height="5.67"/>
			<rect x="253.25" y="406.04" width="5.67" height="5.67"/>
			<rect x="281.6" y="389.04" width="5.67" height="5.67"/>
			<rect x="270.26" y="377.7" width="5.67" height="5.67"/>
			<rect x="247.58" y="400.37" width="5.67" height="5.67"/>
			<rect x="253.25" y="383.37" width="5.67" height="5.67"/>
			<rect x="247.58" y="389.04" width="5.67" height="5.67"/>
			<rect x="275.93" y="383.37" width="5.67" height="5.67"/>
			<rect x="264.59" y="394.7" width="5.67" height="5.67"/>
			<polygon points="244.75,539.55 244.75,539.55 338.98,445.31 307.4,413.72 244.75,476.37 244.75,476.37 244.75,472.13 
				244.75,472.13 307.4,409.48 343.23,445.31 244.75,543.79 244.75,543.79 			"/>
			<polygon points="301.21,385.37 313.82,397.99 299.15,400.05 			"/>
			<rect x="298.6" y="406.04" width="5.67" height="5.67"/>
			<rect x="292.93" y="400.37" width="5.67" height="5.67"/>
			<rect x="301.71" y="379.28" width="5.67" height="5.67"/>
			<rect x="307.98" y="385.55" width="5.67" height="5.67"/>
			<rect x="314.25" y="391.82" width="5.67" height="5.67"/>
			<rect x="275.93" y="406.04" width="5.67" height="5.67"/>
			<rect x="270.26" y="411.71" width="5.67" height="5.67"/>
			<rect x="258.92" y="400.37" width="5.67" height="5.67"/>
			<rect x="270.26" y="400.37" width="5.67" height="5.67"/>
			<rect x="258.92" y="411.71" width="5.67" height="5.67"/>
			<rect x="258.92" y="423.05" width="5.67" height="5.67"/>
			<rect x="270.26" y="423.05" width="5.67" height="5.67"/>
			<rect x="264.59" y="417.38" width="5.67" height="5.67"/>
			<rect x="247.58" y="411.71" width="5.67" height="5.67"/>
			<rect x="258.92" y="434.39" width="5.67" height="5.67"/>
			<rect x="253.25" y="428.72" width="5.67" height="5.67"/>
			<rect x="247.58" y="423.05" width="5.67" height="5.67"/>
			<rect x="275.93" y="428.72" width="5.67" height="5.67"/>
			<rect x="281.6" y="423.05" width="5.67" height="5.67"/>
			<rect x="281.6" y="411.71" width="5.67" height="5.67"/>
			<rect x="270.26" y="434.39" width="5.67" height="5.67"/>
		</g>
	</g>
</g>
<g>
</g>
<g>
</g>
<g>
</g>
<g>
</g>
<g>
</g>
<g>
</g>
<g>
</g>
<g>
</g>
<g>
</g>
<g>
</g>
<g>
</g>
<g>
</g>
<g>
</g>
<g>
</g>
<g>
</g>
</svg>
