<?xml version="1.0" encoding="utf-8"?>
<!-- Generator: Adobe Illustrator 27.2.0, SVG Export Plug-In . SVG Version: 6.00 Build 0)  -->
<svg version="1.1" id="Layer_1" xmlns="http://www.w3.org/2000/svg" xmlns:xlink="http://www.w3.org/1999/xlink" x="0px" y="0px"
	 viewBox="0 0 800 600" style="enable-background:new 0 0 800 600;" xml:space="preserve">
<g>
	
		<rect x="155.95" y="391.62" transform="matrix(-0.7071 -0.7071 0.7071 -0.7071 12.2109 834.0863)" style="fill:none;stroke:#000000;stroke-width:3;stroke-miterlimit:10;" width="45.8" height="45.8"/>
	
		<rect x="148.95" y="384.62" transform="matrix(-0.7071 -0.7071 0.7071 -0.7071 12.2109 834.0863)" style="fill:none;stroke:#000000;stroke-width:3;stroke-miterlimit:10;" width="59.8" height="59.8"/>
	
		<rect x="121.78" y="357.45" transform="matrix(-0.7071 -0.7071 0.7071 -0.7071 12.2109 834.0863)" style="fill:none;stroke:#000000;stroke-width:3;stroke-miterlimit:10;" width="114.13" height="114.13"/>
	
		<rect x="114.28" y="349.95" transform="matrix(-0.7071 -0.7071 0.7071 -0.7071 12.2109 834.0863)" style="fill:none;stroke:#000000;stroke-width:3;stroke-miterlimit:10;" width="129.13" height="129.13"/>
	
		<rect x="106.62" y="342.28" transform="matrix(-0.7071 -0.7071 0.7071 -0.7071 12.2109 834.0863)" style="fill:none;stroke:#000000;stroke-width:3;stroke-miterlimit:10;" width="144.46" height="144.46"/>
	
		<rect x="169.37" y="405.03" transform="matrix(-0.7071 -0.7071 0.7071 -0.7071 12.2109 834.0863)" style="fill:none;stroke:#000000;stroke-width:3;stroke-miterlimit:10;" width="18.96" height="18.96"/>
	<g>
		<rect x="176.02" y="389" transform="matrix(-1 -1.224647e-16 1.224647e-16 -1 357.7008 783.6741)" width="5.67" height="5.67"/>
		
			<rect x="170.35" y="394.67" transform="matrix(-1 -1.224647e-16 1.224647e-16 -1 346.3622 795.0126)" width="5.67" height="5.67"/>
		
			<rect x="164.68" y="400.34" transform="matrix(-1 -1.224647e-16 1.224647e-16 -1 335.0236 806.3513)" width="5.67" height="5.67"/>
		<rect x="159.01" y="406.01" transform="matrix(-1 -1.224647e-16 1.224647e-16 -1 323.685 817.6898)" width="5.67" height="5.67"/>
		
			<rect x="153.34" y="411.68" transform="matrix(-1 -1.224647e-16 1.224647e-16 -1 312.3465 829.0284)" width="5.67" height="5.67"/>
		<rect x="159.01" y="417.35" transform="matrix(-1 -1.224647e-16 1.224647e-16 -1 323.685 840.367)" width="5.67" height="5.67"/>
		
			<rect x="164.68" y="423.02" transform="matrix(-1 1.603928e-12 -1.603928e-12 -1 335.0236 851.7056)" width="5.67" height="5.67"/>
		
			<rect x="170.35" y="428.69" transform="matrix(-1 -1.224647e-16 1.224647e-16 -1 346.3622 863.0441)" width="5.67" height="5.67"/>
		
			<rect x="176.02" y="434.36" transform="matrix(-1 -1.224647e-16 1.224647e-16 -1 357.7008 874.3828)" width="5.67" height="5.67"/>
		
			<rect x="181.69" y="428.69" transform="matrix(-1 -1.224647e-16 1.224647e-16 -1 369.0394 863.0441)" width="5.67" height="5.67"/>
		<rect x="187.35" y="423.02" transform="matrix(-1 -1.224647e-16 1.224647e-16 -1 380.378 851.7056)" width="5.67" height="5.67"/>
		<rect x="193.02" y="417.35" transform="matrix(-1 -1.224647e-16 1.224647e-16 -1 391.7165 840.367)" width="5.67" height="5.67"/>
		
			<rect x="198.69" y="411.68" transform="matrix(-1 -1.224647e-16 1.224647e-16 -1 403.0551 829.0284)" width="5.67" height="5.67"/>
		
			<rect x="193.02" y="406.01" transform="matrix(-1 -1.224647e-16 1.224647e-16 -1 391.7165 817.6898)" width="5.67" height="5.67"/>
		<rect x="187.35" y="400.34" transform="matrix(-1 -1.224647e-16 1.224647e-16 -1 380.378 806.3513)" width="5.67" height="5.67"/>
		
			<rect x="181.69" y="394.67" transform="matrix(-1 -1.224647e-16 1.224647e-16 -1 369.0394 795.0126)" width="5.67" height="5.67"/>
	</g>
	
		<rect x="129.78" y="365.45" transform="matrix(-0.7071 -0.7071 0.7071 -0.7071 12.2109 834.0863)" style="fill:none;stroke:#000000;stroke-width:3;stroke-miterlimit:10;" width="98.13" height="98.13"/>
	<g>
		<rect x="245" y="453.35" transform="matrix(-1 -1.224647e-16 1.224647e-16 -1 495.6699 912.367)" width="5.67" height="5.67"/>
		
			<rect x="250.67" y="459.02" transform="matrix(-1 -1.224647e-16 1.224647e-16 -1 507.0068 923.7039)" width="5.67" height="5.67"/>
		
			<rect x="256.34" y="464.69" transform="matrix(-1 -1.224647e-16 1.224647e-16 -1 518.3436 935.0408)" width="5.67" height="5.67"/>
		
			<rect x="250.67" y="470.35" transform="matrix(-1 -1.925249e-12 1.925249e-12 -1 507.0068 946.3776)" width="5.67" height="5.67"/>
		<rect x="245" y="464.69" transform="matrix(-1 -1.283540e-12 1.283540e-12 -1 495.6699 935.0408)" width="5.67" height="5.67"/>
		<rect x="239.33" y="459.02" transform="matrix(-1 -1.925249e-12 1.925249e-12 -1 484.333 923.7039)" width="5.67" height="5.67"/>
		
			<rect x="233.66" y="464.69" transform="matrix(-1 -1.925249e-12 1.925249e-12 -1 472.9962 935.0408)" width="5.67" height="5.67"/>
		
			<rect x="227.99" y="470.35" transform="matrix(-1 -1.224647e-16 1.224647e-16 -1 461.6593 946.3776)" width="5.67" height="5.67"/>
		
			<rect x="233.66" y="476.02" transform="matrix(-1 -1.224647e-16 1.224647e-16 -1 472.9962 957.7145)" width="5.67" height="5.67"/>
		<rect x="239.33" y="481.69" transform="matrix(-1 -1.224647e-16 1.224647e-16 -1 484.333 969.0513)" width="5.67" height="5.67"/>
		
			<rect x="233.66" y="487.36" transform="matrix(-1 -1.224647e-16 1.224647e-16 -1 472.9962 980.3882)" width="5.67" height="5.67"/>
		
			<rect x="227.99" y="481.69" transform="matrix(-1 -1.224647e-16 1.224647e-16 -1 461.6593 969.0513)" width="5.67" height="5.67"/>
		
			<rect x="222.33" y="476.02" transform="matrix(-1 -1.224647e-16 1.224647e-16 -1 450.3224 957.7145)" width="5.67" height="5.67"/>
		
			<rect x="216.66" y="481.69" transform="matrix(-1 -1.224647e-16 1.224647e-16 -1 438.9856 969.0513)" width="5.67" height="5.67"/>
		
			<rect x="210.99" y="487.36" transform="matrix(-1 -1.224647e-16 1.224647e-16 -1 427.6487 980.3882)" width="5.67" height="5.67"/>
		
			<rect x="216.66" y="493.03" transform="matrix(-1 -1.224647e-16 1.224647e-16 -1 438.9856 991.7251)" width="5.67" height="5.67"/>
		<rect x="222.33" y="498.7" transform="matrix(-1 -1.224647e-16 1.224647e-16 -1 450.3224 1003.062)" width="5.67" height="5.67"/>
		
			<rect x="205.32" y="493.03" transform="matrix(-1 -1.224647e-16 1.224647e-16 -1 416.3118 991.7251)" width="5.67" height="5.67"/>
		<rect x="210.99" y="498.7" transform="matrix(-1 -1.224647e-16 1.224647e-16 -1 427.6487 1003.062)" width="5.67" height="5.67"/>
		
			<rect x="216.66" y="504.36" transform="matrix(-1 -1.224647e-16 1.224647e-16 -1 438.9856 1014.3989)" width="5.67" height="5.67"/>
		<rect x="199.65" y="498.7" transform="matrix(-1 -1.224647e-16 1.224647e-16 -1 404.9749 1003.062)" width="5.67" height="5.67"/>
		
			<rect x="193.98" y="504.36" transform="matrix(-1 -1.224647e-16 1.224647e-16 -1 393.6381 1014.3989)" width="5.67" height="5.67"/>
		
			<rect x="199.65" y="510.03" transform="matrix(-1 -1.224647e-16 1.224647e-16 -1 404.9749 1025.7357)" width="5.67" height="5.67"/>
		
			<rect x="205.32" y="515.7" transform="matrix(-1 -1.224647e-16 1.224647e-16 -1 416.3118 1037.0726)" width="5.67" height="5.67"/>
		
			<rect x="188.32" y="510.03" transform="matrix(-1 -1.224647e-16 1.224647e-16 -1 382.3012 1025.7357)" width="5.67" height="5.67"/>
		
			<rect x="182.65" y="515.7" transform="matrix(-1 -1.224647e-16 1.224647e-16 -1 370.9643 1037.0726)" width="5.67" height="5.67"/>
		
			<rect x="193.98" y="515.7" transform="matrix(-1 -1.224647e-16 1.224647e-16 -1 393.6381 1037.0726)" width="5.67" height="5.67"/>
		
			<rect x="199.65" y="521.37" transform="matrix(-1 -1.224647e-16 1.224647e-16 -1 404.9749 1048.4094)" width="5.67" height="5.67"/>
		<rect x="256.34" y="464.69" transform="matrix(4.411677e-11 -1 1 4.411677e-11 -208.3472 726.6922)" width="5.67" height="5.67"/>
		<rect x="250.67" y="459.02" transform="matrix(4.411677e-11 -1 1 4.411677e-11 -208.3472 715.3553)" width="5.67" height="5.67"/>
		<rect x="245" y="453.35" transform="matrix(4.411677e-11 -1 1 4.411677e-11 -208.3472 704.0184)" width="5.67" height="5.67"/>
		<rect x="250.67" y="447.68" transform="matrix(4.427753e-11 -1 1 4.427753e-11 -197.0103 704.0184)" width="5.67" height="5.67"/>
		<rect x="256.34" y="442.01" transform="matrix(4.588158e-11 -1 1 4.588158e-11 -185.6735 704.0184)" width="5.67" height="5.67"/>
		<rect x="262.01" y="447.68" transform="matrix(4.588158e-11 -1 1 4.588158e-11 -185.6735 715.3553)" width="5.67" height="5.67"/>
		<rect x="267.67" y="453.35" transform="matrix(4.411677e-11 -1 1 4.411677e-11 -185.6735 726.6922)" width="5.67" height="5.67"/>
		<rect x="273.34" y="447.68" transform="matrix(4.411677e-11 -1 1 4.411677e-11 -174.3366 726.6922)" width="5.67" height="5.67"/>
		<rect x="267.67" y="442.01" transform="matrix(4.411677e-11 -1 1 4.411677e-11 -174.3366 715.3553)" width="5.67" height="5.67"/>
		<rect x="262.01" y="436.34" transform="matrix(4.588158e-11 -1 1 4.588158e-11 -174.3366 704.0184)" width="5.67" height="5.67"/>
		<rect x="267.67" y="430.67" transform="matrix(4.395601e-11 -1 1 4.395601e-11 -162.9997 704.0184)" width="5.67" height="5.67"/>
		<rect x="273.34" y="425.01" transform="matrix(4.411677e-11 -1 1 4.411677e-11 -151.6629 704.0184)" width="5.67" height="5.67"/>
		<rect x="279.01" y="430.67" transform="matrix(4.588158e-11 -1 1 4.588158e-11 -151.6629 715.3553)" width="5.67" height="5.67"/>
		<rect x="284.68" y="436.34" transform="matrix(4.411677e-11 -1 1 4.411677e-11 -151.6629 726.6922)" width="5.67" height="5.67"/>
		<rect x="279.01" y="419.34" transform="matrix(4.588158e-11 -1 1 4.588158e-11 -140.326 704.0184)" width="5.67" height="5.67"/>
		<rect x="284.68" y="425.01" transform="matrix(4.572171e-11 -1 1 4.572171e-11 -140.326 715.3553)" width="5.67" height="5.67"/>
		<rect x="290.35" y="430.67" transform="matrix(4.411677e-11 -1 1 4.411677e-11 -140.326 726.6922)" width="5.67" height="5.67"/>
	</g>
	<g>
		<rect x="245" y="370.01" transform="matrix(-1 -4.588164e-11 4.588164e-11 -1 495.6699 745.6898)" width="5.67" height="5.67"/>
		<rect x="250.67" y="364.34" transform="matrix(-1 -4.395652e-11 4.395652e-11 -1 507.0068 734.353)" width="5.67" height="5.67"/>
		
			<rect x="256.34" y="358.67" transform="matrix(-1 -4.523993e-11 4.523993e-11 -1 518.3436 723.0161)" width="5.67" height="5.67"/>
		<rect x="250.67" y="353" transform="matrix(-1 -4.235247e-11 4.235247e-11 -1 507.0068 711.6792)" width="5.67" height="5.67"/>
		<rect x="245" y="358.67" transform="matrix(-1 -4.427715e-11 4.427715e-11 -1 495.6699 723.0161)" width="5.67" height="5.67"/>
		<rect x="239.33" y="364.34" transform="matrix(-1 -4.459822e-11 4.459822e-11 -1 484.333 734.353)" width="5.67" height="5.67"/>
		
			<rect x="233.66" y="358.67" transform="matrix(-1 -4.363544e-11 4.363544e-11 -1 472.9962 723.0161)" width="5.67" height="5.67"/>
		<rect x="227.99" y="353" transform="matrix(-1 -4.427715e-11 4.427715e-11 -1 461.6593 711.6792)" width="5.67" height="5.67"/>
		
			<rect x="233.66" y="347.34" transform="matrix(-1 -4.588164e-11 4.588164e-11 -1 472.9962 700.3423)" width="5.67" height="5.67"/>
		<rect x="239.33" y="341.67" transform="matrix(-1 -4.556057e-11 4.556057e-11 -1 484.333 689.0054)" width="5.67" height="5.67"/>
		<rect x="233.66" y="336" transform="matrix(-1 -4.363544e-11 4.363544e-11 -1 472.9962 677.6686)" width="5.67" height="5.67"/>
		
			<rect x="227.99" y="341.67" transform="matrix(-1 -4.556057e-11 4.556057e-11 -1 461.6593 689.0054)" width="5.67" height="5.67"/>
		
			<rect x="222.33" y="347.34" transform="matrix(-1 -4.588164e-11 4.588164e-11 -1 450.3224 700.3423)" width="5.67" height="5.67"/>
		
			<rect x="216.66" y="341.67" transform="matrix(-1 -4.588164e-11 4.588164e-11 -1 438.9856 689.0054)" width="5.67" height="5.67"/>
		<rect x="210.99" y="336" transform="matrix(-1 -4.427715e-11 4.427715e-11 -1 427.6487 677.6686)" width="5.67" height="5.67"/>
		
			<rect x="216.66" y="330.33" transform="matrix(-1 -4.459822e-11 4.459822e-11 -1 438.9856 666.3317)" width="5.67" height="5.67"/>
		
			<rect x="222.33" y="324.66" transform="matrix(-1 -4.620227e-11 4.620227e-11 -1 450.3224 654.9949)" width="5.67" height="5.67"/>
		
			<rect x="205.32" y="330.33" transform="matrix(-1 -4.395652e-11 4.395652e-11 -1 416.3118 666.3317)" width="5.67" height="5.67"/>
		
			<rect x="210.99" y="324.66" transform="matrix(-1 -4.556057e-11 4.556057e-11 -1 427.6487 654.9949)" width="5.67" height="5.67"/>
		<rect x="216.66" y="318.99" transform="matrix(-1 -4.588164e-11 4.588164e-11 -1 438.9856 643.658)" width="5.67" height="5.67"/>
		
			<rect x="199.65" y="324.66" transform="matrix(-1 -4.363544e-11 4.363544e-11 -1 404.9749 654.9949)" width="5.67" height="5.67"/>
		<rect x="193.98" y="318.99" transform="matrix(-1 -4.620227e-11 4.620227e-11 -1 393.6381 643.658)" width="5.67" height="5.67"/>
		
			<rect x="199.65" y="313.33" transform="matrix(-1 -4.427715e-11 4.427715e-11 -1 404.9749 632.3211)" width="5.67" height="5.67"/>
		
			<rect x="205.32" y="307.66" transform="matrix(-1 -4.427715e-11 4.427715e-11 -1 416.3118 620.9843)" width="5.67" height="5.67"/>
		
			<rect x="188.32" y="313.33" transform="matrix(-1 -4.556057e-11 4.556057e-11 -1 382.3012 632.3211)" width="5.67" height="5.67"/>
		
			<rect x="182.65" y="307.66" transform="matrix(-1 -4.427715e-11 4.427715e-11 -1 370.9643 620.9843)" width="5.67" height="5.67"/>
		
			<rect x="193.98" y="307.66" transform="matrix(-1 -4.427715e-11 4.427715e-11 -1 393.6381 620.9843)" width="5.67" height="5.67"/>
		
			<rect x="199.65" y="301.99" transform="matrix(-1 -4.620227e-11 4.620227e-11 -1 404.9749 609.6473)" width="5.67" height="5.67"/>
		
			<rect x="256.34" y="358.67" transform="matrix(-1.836970e-16 1 -1 -1.836970e-16 620.6812 102.3362)" width="5.67" height="5.67"/>
		
			<rect x="250.67" y="364.34" transform="matrix(-1.764994e-12 1 -1 -1.764994e-12 620.6812 113.6731)" width="5.67" height="5.67"/>
		<rect x="245" y="370.01" transform="matrix(-1.764994e-12 1 -1 -1.764994e-12 620.6812 125.0099)" width="5.67" height="5.67"/>
		
			<rect x="250.67" y="375.68" transform="matrix(-1.836970e-16 1 -1 -1.836970e-16 632.0181 125.0099)" width="5.67" height="5.67"/>
		
			<rect x="256.34" y="381.35" transform="matrix(-1.836970e-16 1 -1 -1.836970e-16 643.3549 125.0099)" width="5.67" height="5.67"/>
		
			<rect x="262.01" y="375.68" transform="matrix(-1.836970e-16 1 -1 -1.836970e-16 643.3549 113.6731)" width="5.67" height="5.67"/>
		
			<rect x="267.67" y="370.01" transform="matrix(-1.836970e-16 1 -1 -1.836970e-16 643.3549 102.3362)" width="5.67" height="5.67"/>
		
			<rect x="273.34" y="375.68" transform="matrix(-1.836970e-16 1 -1 -1.836970e-16 654.6918 102.3362)" width="5.67" height="5.67"/>
		
			<rect x="267.67" y="381.35" transform="matrix(-1.836970e-16 1 -1 -1.836970e-16 654.6918 113.6731)" width="5.67" height="5.67"/>
		
			<rect x="262.01" y="387.02" transform="matrix(-1.836970e-16 1 -1 -1.836970e-16 654.6918 125.0099)" width="5.67" height="5.67"/>
		
			<rect x="267.67" y="392.68" transform="matrix(-1.836970e-16 1 -1 -1.836970e-16 666.0287 125.0099)" width="5.67" height="5.67"/>
		
			<rect x="273.34" y="398.35" transform="matrix(-1.836970e-16 1 -1 -1.836970e-16 677.3655 125.0099)" width="5.67" height="5.67"/>
		
			<rect x="279.01" y="392.68" transform="matrix(-1.836970e-16 1 -1 -1.836970e-16 677.3655 113.6731)" width="5.67" height="5.67"/>
		
			<rect x="284.68" y="387.02" transform="matrix(-1.836970e-16 1 -1 -1.836970e-16 677.3655 102.3362)" width="5.67" height="5.67"/>
		
			<rect x="279.01" y="404.02" transform="matrix(-1.836970e-16 1 -1 -1.836970e-16 688.7024 125.0099)" width="5.67" height="5.67"/>
		
			<rect x="284.68" y="398.35" transform="matrix(-1.836970e-16 1 -1 -1.836970e-16 688.7024 113.6731)" width="5.67" height="5.67"/>
		
			<rect x="290.35" y="392.68" transform="matrix(-1.836970e-16 1 -1 -1.836970e-16 688.7024 102.3362)" width="5.67" height="5.67"/>
	</g>
	<g>
		<rect x="107.03" y="370.01" width="5.67" height="5.67"/>
		<rect x="101.36" y="364.34" width="5.67" height="5.67"/>
		<rect x="95.69" y="358.67" width="5.67" height="5.67"/>
		<rect x="101.36" y="353" width="5.67" height="5.67"/>
		<rect x="107.03" y="358.67" width="5.67" height="5.67"/>
		<rect x="112.7" y="364.34" width="5.67" height="5.67"/>
		<rect x="118.37" y="358.67" width="5.67" height="5.67"/>
		<rect x="124.04" y="353" width="5.67" height="5.67"/>
		<rect x="118.37" y="347.34" width="5.67" height="5.67"/>
		<rect x="112.7" y="341.67" width="5.67" height="5.67"/>
		<rect x="118.37" y="336" width="5.67" height="5.67"/>
		<rect x="124.04" y="341.67" width="5.67" height="5.67"/>
		<rect x="129.7" y="347.34" width="5.67" height="5.67"/>
		<rect x="135.37" y="341.67" width="5.67" height="5.67"/>
		<rect x="141.04" y="336" width="5.67" height="5.67"/>
		<rect x="135.37" y="330.33" width="5.67" height="5.67"/>
		<rect x="129.7" y="324.66" width="5.67" height="5.67"/>
		<rect x="146.71" y="330.33" width="5.67" height="5.67"/>
		<rect x="141.04" y="324.66" width="5.67" height="5.67"/>
		<rect x="135.37" y="318.99" width="5.67" height="5.67"/>
		<rect x="152.38" y="324.66" width="5.67" height="5.67"/>
		<rect x="158.05" y="318.99" width="5.67" height="5.67"/>
		<rect x="152.38" y="313.33" width="5.67" height="5.67"/>
		<rect x="146.71" y="307.66" width="5.67" height="5.67"/>
		<rect x="163.72" y="313.33" width="5.67" height="5.67"/>
		<rect x="169.38" y="307.66" width="5.67" height="5.67"/>
		<rect x="158.05" y="307.66" width="5.67" height="5.67"/>
		<rect x="152.38" y="301.99" width="5.67" height="5.67"/>
		<rect x="95.69" y="358.67" transform="matrix(-1.341151e-10 1 -1 -1.341151e-10 460.037 262.9804)" width="5.67" height="5.67"/>
		
			<rect x="101.36" y="364.34" transform="matrix(-1.339552e-10 1 -1 -1.339552e-10 471.3739 262.9804)" width="5.67" height="5.67"/>
		
			<rect x="107.03" y="370.01" transform="matrix(-1.341151e-10 1 -1 -1.341151e-10 482.7107 262.9804)" width="5.67" height="5.67"/>
		
			<rect x="101.36" y="375.68" transform="matrix(-1.341151e-10 1 -1 -1.341151e-10 482.7107 274.3173)" width="5.67" height="5.67"/>
		<rect x="95.69" y="381.35" transform="matrix(-1.358799e-10 1 -1 -1.358799e-10 482.7107 285.6541)" width="5.67" height="5.67"/>
		<rect x="90.03" y="375.68" transform="matrix(-1.339552e-10 1 -1 -1.339552e-10 471.3739 285.6541)" width="5.67" height="5.67"/>
		<rect x="84.36" y="370.01" transform="matrix(-1.357192e-10 1 -1 -1.357192e-10 460.037 285.6541)" width="5.67" height="5.67"/>
		<rect x="78.69" y="375.68" transform="matrix(-1.358799e-10 1 -1 -1.358799e-10 460.037 296.991)" width="5.67" height="5.67"/>
		<rect x="84.36" y="381.35" transform="matrix(-1.339552e-10 1 -1 -1.339552e-10 471.3739 296.991)" width="5.67" height="5.67"/>
		<rect x="90.03" y="387.02" transform="matrix(-1.341151e-10 1 -1 -1.341151e-10 482.7107 296.991)" width="5.67" height="5.67"/>
		<rect x="84.36" y="392.68" transform="matrix(-1.341151e-10 1 -1 -1.341151e-10 482.7107 308.3279)" width="5.67" height="5.67"/>
		<rect x="78.69" y="398.35" transform="matrix(-1.341151e-10 1 -1 -1.341151e-10 482.7107 319.6648)" width="5.67" height="5.67"/>
		<rect x="73.02" y="392.68" transform="matrix(-1.341151e-10 1 -1 -1.341151e-10 471.3739 319.6648)" width="5.67" height="5.67"/>
		<rect x="67.35" y="387.02" transform="matrix(-1.358799e-10 1 -1 -1.358799e-10 460.037 319.6648)" width="5.67" height="5.67"/>
		<rect x="73.02" y="404.02" transform="matrix(-1.341151e-10 1 -1 -1.341151e-10 482.7107 331.0016)" width="5.67" height="5.67"/>
		<rect x="67.35" y="398.35" transform="matrix(-1.358799e-10 1 -1 -1.358799e-10 471.3739 331.0016)" width="5.67" height="5.67"/>
		<rect x="61.68" y="392.68" transform="matrix(-1.341151e-10 1 -1 -1.341151e-10 460.037 331.0016)" width="5.67" height="5.67"/>
	</g>
	<g>
		<rect x="107.03" y="453.35" width="5.67" height="5.67"/>
		<rect x="101.36" y="459.02" width="5.67" height="5.67"/>
		<rect x="95.69" y="464.69" width="5.67" height="5.67"/>
		<rect x="101.36" y="470.35" width="5.67" height="5.67"/>
		<rect x="107.03" y="464.69" width="5.67" height="5.67"/>
		<rect x="112.7" y="459.02" width="5.67" height="5.67"/>
		<rect x="118.37" y="464.69" width="5.67" height="5.67"/>
		<rect x="124.04" y="470.35" width="5.67" height="5.67"/>
		<rect x="118.37" y="476.02" width="5.67" height="5.67"/>
		<rect x="112.7" y="481.69" width="5.67" height="5.67"/>
		<rect x="118.37" y="487.36" width="5.67" height="5.67"/>
		<rect x="124.04" y="481.69" width="5.67" height="5.67"/>
		<rect x="129.7" y="476.02" width="5.67" height="5.67"/>
		<rect x="135.37" y="481.69" width="5.67" height="5.67"/>
		<rect x="141.04" y="487.36" width="5.67" height="5.67"/>
		<rect x="135.37" y="493.03" width="5.67" height="5.67"/>
		<rect x="129.7" y="498.7" width="5.67" height="5.67"/>
		<rect x="146.71" y="493.03" width="5.67" height="5.67"/>
		<rect x="141.04" y="498.7" width="5.67" height="5.67"/>
		<rect x="135.37" y="504.36" width="5.67" height="5.67"/>
		<rect x="152.38" y="498.7" width="5.67" height="5.67"/>
		<rect x="158.05" y="504.36" width="5.67" height="5.67"/>
		<rect x="152.38" y="510.03" width="5.67" height="5.67"/>
		<rect x="146.71" y="515.7" width="5.67" height="5.67"/>
		<rect x="163.72" y="510.03" width="5.67" height="5.67"/>
		<rect x="169.38" y="515.7" width="5.67" height="5.67"/>
		<rect x="158.05" y="515.7" width="5.67" height="5.67"/>
		<rect x="152.38" y="521.37" width="5.67" height="5.67"/>
		<rect x="95.69" y="464.69" transform="matrix(-8.823336e-11 -1 1 -8.823336e-11 -368.9914 566.048)" width="5.67" height="5.67"/>
		
			<rect x="101.36" y="459.02" transform="matrix(-8.999817e-11 -1 1 -8.999817e-11 -357.6545 566.048)" width="5.67" height="5.67"/>
		
			<rect x="107.03" y="453.35" transform="matrix(-8.999817e-11 -1 1 -8.999817e-11 -346.3177 566.048)" width="5.67" height="5.67"/>
		
			<rect x="101.36" y="447.68" transform="matrix(-8.999817e-11 -1 1 -8.999817e-11 -346.3177 554.7111)" width="5.67" height="5.67"/>
		
			<rect x="95.69" y="442.01" transform="matrix(-8.999817e-11 -1 1 -8.999817e-11 -346.3177 543.3743)" width="5.67" height="5.67"/>
		
			<rect x="90.03" y="447.68" transform="matrix(-8.999817e-11 -1 1 -8.999817e-11 -357.6545 543.3743)" width="5.67" height="5.67"/>
		
			<rect x="84.36" y="453.35" transform="matrix(-8.983741e-11 -1 1 -8.983741e-11 -368.9914 543.3743)" width="5.67" height="5.67"/>
		
			<rect x="78.69" y="447.68" transform="matrix(-8.999817e-11 -1 1 -8.999817e-11 -368.9914 532.0374)" width="5.67" height="5.67"/>
		
			<rect x="84.36" y="442.01" transform="matrix(-8.999817e-11 -1 1 -8.999817e-11 -357.6545 532.0374)" width="5.67" height="5.67"/>
		
			<rect x="90.03" y="436.34" transform="matrix(-8.983741e-11 -1 1 -8.983741e-11 -346.3177 532.0374)" width="5.67" height="5.67"/>
		
			<rect x="84.36" y="430.67" transform="matrix(-8.999817e-11 -1 1 -8.999817e-11 -346.3177 520.7005)" width="5.67" height="5.67"/>
		
			<rect x="78.69" y="425.01" transform="matrix(-8.999817e-11 -1 1 -8.999817e-11 -346.3177 509.3636)" width="5.67" height="5.67"/>
		
			<rect x="73.02" y="430.67" transform="matrix(-8.999817e-11 -1 1 -8.999817e-11 -357.6545 509.3636)" width="5.67" height="5.67"/>
		
			<rect x="67.35" y="436.34" transform="matrix(-8.999817e-11 -1 1 -8.999817e-11 -368.9914 509.3636)" width="5.67" height="5.67"/>
		
			<rect x="73.02" y="419.34" transform="matrix(-8.999817e-11 -1 1 -8.999817e-11 -346.3177 498.0268)" width="5.67" height="5.67"/>
		
			<rect x="67.35" y="425.01" transform="matrix(-8.983741e-11 -1 1 -8.983741e-11 -357.6545 498.0268)" width="5.67" height="5.67"/>
		
			<rect x="61.68" y="430.67" transform="matrix(-8.983741e-11 -1 1 -8.983741e-11 -368.9914 498.0268)" width="5.67" height="5.67"/>
	</g>
	<g>
		<g>
			<g>
				<polygon points="178.85,476.24 182.68,480.07 188.51,474.24 178.85,464.58 				"/>
				<rect x="185.56" y="449.6" transform="matrix(0.7071 -0.7071 0.7071 0.7071 -269.2338 268.6588)" width="8.25" height="19.44"/>
				
					<rect x="196.52" y="438.64" transform="matrix(0.7071 -0.7071 0.7071 0.7071 -258.2737 273.1986)" width="8.25" height="19.44"/>
			</g>
			<g>
				<polygon points="240.58,414.52 244.41,418.34 238.58,424.18 228.92,414.52 				"/>
				
					<rect x="219.54" y="415.63" transform="matrix(0.7071 -0.7071 0.7071 0.7071 -235.2572 282.7324)" width="8.25" height="19.44"/>
				
					<rect x="208.58" y="426.59" transform="matrix(0.7071 -0.7071 0.7071 0.7071 -246.2174 278.1925)" width="8.25" height="19.44"/>
			</g>
		</g>
		<g>
			<g>
				<polygon points="240.58,414.51 244.41,410.68 238.58,404.85 228.92,414.51 				"/>
				
					<rect x="213.94" y="399.56" transform="matrix(0.7071 -0.7071 0.7071 0.7071 -219.9377 276.3868)" width="19.44" height="8.25"/>
				<rect x="202.98" y="388.6" transform="matrix(0.7071 -0.7071 0.7071 0.7071 -215.3978 265.4266)" width="19.44" height="8.25"/>
			</g>
			<g>
				<polygon points="178.85,352.78 182.68,348.95 188.51,354.79 178.85,364.45 				"/>
				
					<rect x="179.96" y="365.58" transform="matrix(0.7071 -0.7071 0.7071 0.7071 -205.8641 242.4102)" width="19.44" height="8.25"/>
				<rect x="190.92" y="376.54" transform="matrix(0.7071 -0.7071 0.7071 0.7071 -210.404 253.3704)" width="19.44" height="8.25"/>
			</g>
		</g>
		<g>
			<g>
				<polygon points="178.85,352.78 175.02,348.95 169.19,354.79 178.85,364.45 				"/>
				
					<rect x="163.89" y="359.98" transform="matrix(0.7071 -0.7071 0.7071 0.7071 -212.2097 227.0907)" width="8.25" height="19.44"/>
				
					<rect x="152.93" y="370.94" transform="matrix(0.7071 -0.7071 0.7071 0.7071 -223.1698 222.5508)" width="8.25" height="19.44"/>
			</g>
			<g>
				<polygon points="117.12,414.51 113.29,410.68 119.12,404.85 128.78,414.51 				"/>
				
					<rect x="129.92" y="393.96" transform="matrix(0.7071 -0.7071 0.7071 0.7071 -246.1862 213.0171)" width="8.25" height="19.44"/>
				<rect x="140.88" y="383" transform="matrix(0.7071 -0.7071 0.7071 0.7071 -235.2261 217.5569)" width="8.25" height="19.44"/>
			</g>
		</g>
		<g>
			<g>
				<polygon points="117.12,414.52 113.29,418.34 119.12,424.18 128.78,414.52 				"/>
				
					<rect x="124.32" y="421.22" transform="matrix(0.7071 -0.7071 0.7071 0.7071 -261.5058 219.3627)" width="19.44" height="8.25"/>
				
					<rect x="135.28" y="432.18" transform="matrix(0.7071 -0.7071 0.7071 0.7071 -266.0457 230.3228)" width="19.44" height="8.25"/>
			</g>
			<g>
				<polygon points="178.85,476.24 175.02,480.07 169.19,474.24 178.85,464.58 				"/>
				<rect x="158.3" y="455.2" transform="matrix(0.7071 -0.7071 0.7071 0.7071 -275.5794 253.3392)" width="19.44" height="8.25"/>
				
					<rect x="147.34" y="444.24" transform="matrix(0.7071 -0.7071 0.7071 0.7071 -271.0395 242.3791)" width="19.44" height="8.25"/>
			</g>
		</g>
	</g>
	<g>
		
			<rect x="296.36" y="411.68" transform="matrix(-1.836970e-16 1 -1 -1.836970e-16 713.7111 115.3174)" width="5.67" height="5.67"/>
		
			<rect x="290.69" y="411.68" transform="matrix(-1.836970e-16 1 -1 -1.836970e-16 708.0417 120.9866)" width="5.67" height="5.67"/>
		
			<rect x="302.03" y="411.68" transform="matrix(-1.836970e-16 1 -1 -1.836970e-16 719.3804 109.6481)" width="5.67" height="5.67"/>
		
			<rect x="296.36" y="406.01" transform="matrix(-1.836970e-16 1 -1 -1.836970e-16 708.0417 109.6481)" width="5.67" height="5.67"/>
		
			<rect x="296.36" y="417.35" transform="matrix(-1.836970e-16 1 -1 -1.836970e-16 719.3804 120.9866)" width="5.67" height="5.67"/>
	</g>
	<g>
		<rect x="55.67" y="411.68" transform="matrix(-4.411689e-11 1 -1 -4.411689e-11 473.0181 356.0103)" width="5.67" height="5.67"/>
		<rect x="61.34" y="411.68" transform="matrix(-4.588170e-11 1 -1 -4.588170e-11 478.6874 350.341)" width="5.67" height="5.67"/>
		<rect x="50" y="411.68" transform="matrix(-4.411689e-11 1 -1 -4.411689e-11 467.3488 361.6796)" width="5.67" height="5.67"/>
		<rect x="55.67" y="406.01" transform="matrix(-4.588170e-11 1 -1 -4.588170e-11 467.3488 350.341)" width="5.67" height="5.67"/>
		<rect x="55.67" y="417.35" transform="matrix(-4.588170e-11 1 -1 -4.588170e-11 478.6874 361.6796)" width="5.67" height="5.67"/>
	</g>
	<g>
		<rect x="176.02" y="301.71" width="5.67" height="5.67"/>
		<rect x="170.35" y="296.04" width="5.67" height="5.67"/>
		<rect x="164.68" y="290.37" width="5.67" height="5.67"/>
		<rect x="181.69" y="296.04" width="5.67" height="5.67"/>
		<rect x="176.02" y="290.37" width="5.67" height="5.67"/>
		<rect x="170.35" y="284.7" width="5.67" height="5.67"/>
		<rect x="187.35" y="290.37" width="5.67" height="5.67"/>
		<rect x="181.69" y="284.7" width="5.67" height="5.67"/>
		<rect x="176.02" y="279.03" width="5.67" height="5.67"/>
	</g>
	<g>
		<rect x="176.02" y="521.65" width="5.67" height="5.67"/>
		<rect x="170.35" y="527.32" width="5.67" height="5.67"/>
		<rect x="164.68" y="532.99" width="5.67" height="5.67"/>
		<rect x="181.69" y="527.32" width="5.67" height="5.67"/>
		<rect x="176.02" y="532.99" width="5.67" height="5.67"/>
		<rect x="170.35" y="538.66" width="5.67" height="5.67"/>
		<rect x="187.35" y="532.99" width="5.67" height="5.67"/>
		<rect x="181.69" y="538.66" width="5.67" height="5.67"/>
		<rect x="176.02" y="544.33" width="5.67" height="5.67"/>
	</g>
</g>
<g>
</g>
<g>
</g>
<g>
</g>
<g>
</g>
<g>
</g>
<g>
</g>
<g>
</g>
<g>
</g>
<g>
</g>
<g>
</g>
<g>
</g>
<g>
</g>
<g>
</g>
<g>
</g>
<g>
</g>
</svg>
