<?xml version="1.0" encoding="utf-8"?>
<!-- Generator: Adobe Illustrator 27.2.0, SVG Export Plug-In . SVG Version: 6.00 Build 0)  -->
<svg version="1.1" id="Layer_1" xmlns="http://www.w3.org/2000/svg" xmlns:xlink="http://www.w3.org/1999/xlink" x="0px" y="0px"
	 viewBox="0 0 800 600" style="enable-background:new 0 0 800 600;" xml:space="preserve">
<g>
	<polygon points="168.23,447.18 168.23,450.44 163.39,450.44 163.39,455.28 160.13,455.28 160.13,450.44 152.92,450.44 
		152.92,457.65 157.76,457.65 157.76,460.91 152.92,460.91 152.92,465.75 149.66,465.75 149.66,460.91 144.82,460.91 144.82,457.65 
		149.66,457.65 149.66,450.44 142.46,450.44 142.46,455.28 139.2,455.28 139.2,450.44 134.36,450.44 134.36,447.18 139.2,447.18 
		139.2,442.34 142.46,442.34 142.46,447.18 149.66,447.18 149.66,439.98 144.82,439.98 144.82,436.72 149.66,436.72 149.66,431.87 
		152.92,431.87 152.92,436.72 157.76,436.72 157.76,439.98 152.92,439.98 152.92,447.18 160.13,447.18 160.13,442.34 163.39,442.34 
		163.39,447.18 	"/>
	<g>
		<polygon points="168.23,362.72 168.23,365.98 163.39,365.98 163.39,370.82 160.13,370.82 160.13,365.98 152.92,365.98 
			152.92,373.18 157.76,373.18 157.76,376.44 152.92,376.44 152.92,381.28 149.66,381.28 149.66,376.44 144.82,376.44 
			144.82,373.18 149.66,373.18 149.66,365.98 142.46,365.98 142.46,370.82 139.2,370.82 139.2,365.98 134.36,365.98 134.36,362.72 
			139.2,362.72 139.2,357.87 142.46,357.87 142.46,362.72 149.66,362.72 149.66,355.51 144.82,355.51 144.82,352.25 149.66,352.25 
			149.66,347.41 152.92,347.41 152.92,352.25 157.76,352.25 157.76,355.51 152.92,355.51 152.92,362.71 155.29,362.71 
			155.29,362.72 160.13,362.72 160.13,357.87 163.39,357.87 163.39,362.72 		"/>
		<polygon points="122.97,365.78 124.6,368.6 120.41,371.02 122.83,375.21 120,376.84 117.58,372.65 111.34,376.25 114.94,382.49 
			119.13,380.07 120.76,382.89 116.57,385.31 118.99,389.5 116.17,391.13 113.75,386.94 109.55,389.36 107.92,386.54 112.12,384.12 
			108.52,377.88 102.28,381.48 104.7,385.68 101.88,387.31 99.46,383.11 95.27,385.53 93.64,382.71 97.83,380.29 95.4,376.09 
			98.23,374.46 100.65,378.66 106.89,375.06 103.28,368.82 99.09,371.24 97.46,368.41 101.65,365.99 99.23,361.8 102.05,360.17 
			104.47,364.36 108.67,361.94 110.3,364.77 106.1,367.19 109.7,373.42 111.76,372.24 111.76,372.25 115.95,369.83 113.53,365.63 
			116.35,364 118.78,368.2 		"/>
		<polygon points="85.3,391.05 88.12,392.68 85.7,396.87 89.89,399.29 88.26,402.11 84.07,399.69 80.47,405.94 86.7,409.54 
			89.12,405.35 91.94,406.98 89.52,411.17 93.72,413.59 92.09,416.41 87.89,413.99 85.47,418.18 82.65,416.55 85.07,412.36 
			78.84,408.76 75.24,415 79.43,417.42 77.8,420.24 73.61,417.82 71.19,422.01 68.36,420.38 70.78,416.19 66.58,413.77 
			68.21,410.94 72.41,413.37 76.01,407.13 69.77,403.53 67.35,407.72 64.52,406.09 66.94,401.9 62.75,399.48 64.38,396.65 
			68.57,399.07 70.99,394.88 73.82,396.51 71.4,400.7 77.63,404.3 78.82,402.25 78.83,402.26 81.25,398.06 77.05,395.64 
			78.68,392.82 82.88,395.24 		"/>
		<polygon points="65.31,431.77 68.57,431.77 68.57,436.61 73.41,436.61 73.41,439.87 68.57,439.87 68.57,447.08 75.77,447.08 
			75.77,442.24 79.03,442.24 79.03,447.08 83.87,447.08 83.87,450.34 79.03,450.34 79.03,455.18 75.77,455.18 75.77,450.34 
			68.57,450.34 68.57,457.54 73.41,457.54 73.41,460.8 68.57,460.8 68.57,465.64 65.31,465.64 65.31,460.8 60.46,460.8 
			60.46,457.54 65.31,457.54 65.31,450.34 58.1,450.34 58.1,455.18 54.84,455.18 54.84,450.34 50,450.34 50,447.08 54.84,447.08 
			54.84,442.24 58.1,442.24 58.1,447.08 65.3,447.08 65.3,444.71 65.31,444.71 65.31,439.87 60.46,439.87 60.46,436.61 
			65.31,436.61 		"/>
		<polygon points="68.36,477.03 71.19,475.4 73.61,479.59 77.8,477.17 79.43,480 75.24,482.42 78.84,488.66 85.08,485.06 
			82.66,480.87 85.48,479.24 87.9,483.43 92.09,481.01 93.72,483.83 89.53,486.25 91.95,490.45 89.13,492.08 86.71,487.88 
			80.47,491.48 84.07,497.72 88.26,495.3 89.89,498.12 85.7,500.54 88.12,504.73 85.3,506.36 82.88,502.17 78.68,504.6 
			77.05,501.77 81.25,499.35 77.65,493.11 71.4,496.72 73.82,500.91 71,502.54 68.58,498.35 64.39,500.77 62.76,497.95 
			66.95,495.53 64.53,491.33 67.35,489.7 69.77,493.9 76.01,490.3 74.82,488.24 74.83,488.24 72.41,484.05 68.21,486.47 
			66.58,483.65 70.78,481.22 		"/>
		<polygon points="93.64,514.7 95.27,511.88 99.46,514.3 101.88,510.11 104.7,511.74 102.28,515.93 108.52,519.53 112.12,513.3 
			107.93,510.88 109.56,508.06 113.75,510.48 116.17,506.28 119,507.91 116.58,512.11 120.77,514.53 119.14,517.35 114.95,514.93 
			111.35,521.16 117.58,524.76 120,520.57 122.83,522.2 120.41,526.39 124.6,528.81 122.97,531.64 118.78,529.22 116.35,533.42 
			113.53,531.79 115.95,527.59 109.72,523.99 106.11,530.23 110.3,532.65 108.67,535.48 104.48,533.06 102.06,537.25 99.24,535.62 
			101.66,531.43 97.47,529.01 99.1,526.18 103.29,528.6 106.89,522.37 104.84,521.18 104.84,521.17 100.65,518.75 98.23,522.95 
			95.4,521.32 97.83,517.12 		"/>
		<polygon points="134.36,534.69 134.36,531.43 139.2,531.43 139.2,526.59 142.46,526.59 142.46,531.43 149.67,531.43 
			149.67,524.23 144.83,524.23 144.83,520.97 149.67,520.97 149.67,516.13 152.93,516.13 152.93,520.97 157.77,520.97 
			157.77,524.23 152.93,524.23 152.93,531.43 160.13,531.43 160.13,526.59 163.39,526.59 163.39,531.43 168.23,531.43 
			168.23,534.69 163.39,534.69 163.39,539.54 160.13,539.54 160.13,534.69 152.93,534.69 152.93,541.9 157.77,541.9 157.77,545.16 
			152.93,545.16 152.93,550 149.67,550 149.67,545.16 144.83,545.16 144.83,541.9 149.67,541.9 149.67,534.7 147.3,534.7 
			147.3,534.69 142.46,534.69 142.46,539.54 139.2,539.54 139.2,534.69 		"/>
		<polygon points="179.62,531.64 177.99,528.81 182.18,526.39 179.76,522.2 182.58,520.57 185,524.76 191.25,521.16 187.65,514.92 
			183.46,517.34 181.83,514.52 186.02,512.1 183.6,507.91 186.42,506.28 188.84,510.47 193.03,508.05 194.66,510.87 190.47,513.29 
			194.07,519.53 200.31,515.93 197.89,511.74 200.71,510.11 203.13,514.3 207.32,511.88 208.95,514.7 204.76,517.12 207.18,521.32 
			204.36,522.95 201.94,518.75 195.7,522.35 199.31,528.6 203.5,526.18 205.13,529 200.94,531.42 203.36,535.61 200.53,537.24 
			198.11,533.05 193.92,535.47 192.29,532.65 196.48,530.23 192.88,523.99 190.83,525.18 190.82,525.17 186.63,527.59 
			189.06,531.79 186.23,533.42 183.81,529.22 		"/>
		<polygon points="217.29,506.36 214.47,504.73 216.89,500.54 212.69,498.12 214.32,495.3 218.52,497.72 222.12,491.48 
			215.89,487.88 213.46,492.07 210.64,490.44 213.06,486.25 208.87,483.83 210.5,481 214.69,483.42 217.11,479.23 219.93,480.86 
			217.52,485.05 223.75,488.65 227.35,482.42 223.16,480 224.79,477.17 228.98,479.59 231.4,475.4 234.22,477.03 231.8,481.22 
			236,483.65 234.37,486.47 230.17,484.05 226.57,490.28 232.82,493.89 235.24,489.7 238.06,491.33 235.64,495.52 239.83,497.94 
			238.2,500.76 234.01,498.34 231.59,502.53 228.77,500.9 231.19,496.71 224.95,493.11 223.77,495.16 223.76,495.16 221.34,499.35 
			225.54,501.77 223.91,504.6 219.71,502.17 		"/>
		<polygon points="237.28,465.64 234.02,465.64 234.02,460.8 229.18,460.8 229.18,457.54 234.02,457.54 234.02,450.33 
			226.82,450.33 226.82,455.17 223.56,455.17 223.56,450.33 218.72,450.33 218.72,447.07 223.56,447.07 223.56,442.23 
			226.82,442.23 226.82,447.07 234.02,447.07 234.02,439.87 229.18,439.87 229.18,436.61 234.02,436.61 234.02,431.77 
			237.28,431.77 237.28,436.61 242.13,436.61 242.13,439.87 237.28,439.87 237.28,447.07 244.49,447.07 244.49,442.23 
			247.75,442.23 247.75,447.07 252.59,447.07 252.59,450.33 247.75,450.33 247.75,455.17 244.49,455.17 244.49,450.33 
			237.29,450.33 237.29,452.7 237.28,452.7 237.28,457.54 242.13,457.54 242.13,460.8 237.28,460.8 		"/>
		<polygon points="234.22,420.38 231.4,422.01 228.98,417.82 224.79,420.24 223.16,417.42 227.35,415 223.75,408.75 217.51,412.35 
			219.93,416.54 217.11,418.17 214.69,413.98 210.5,416.4 208.87,413.58 213.06,411.16 210.64,406.97 213.46,405.34 215.88,409.53 
			222.12,405.93 218.52,399.69 214.32,402.11 212.69,399.29 216.89,396.87 214.47,392.68 217.29,391.05 219.71,395.24 
			223.91,392.82 225.54,395.64 221.34,398.06 224.94,404.3 231.18,400.69 228.76,396.5 231.59,394.87 234.01,399.06 238.2,396.64 
			239.83,399.47 235.64,401.89 238.06,406.08 235.23,407.71 232.81,403.52 226.58,407.12 227.76,409.17 227.75,409.18 
			230.17,413.37 234.37,410.94 236,413.77 231.8,416.19 		"/>
		<polygon points="208.95,382.71 207.32,385.53 203.13,383.11 200.71,387.31 197.89,385.68 200.31,381.48 194.06,377.88 
			190.46,384.11 194.65,386.54 193.02,389.36 188.83,386.94 186.41,391.13 183.59,389.5 186.01,385.31 181.82,382.89 183.45,380.07 
			187.64,382.48 191.24,376.25 185,372.65 182.58,376.84 179.76,375.21 182.18,371.02 177.99,368.6 179.62,365.78 183.81,368.2 
			186.23,364 189.06,365.63 186.63,369.83 192.87,373.43 196.47,367.18 192.28,364.76 193.91,361.94 198.1,364.36 200.52,360.17 
			203.35,361.8 200.93,365.99 205.12,368.41 203.49,371.23 199.3,368.81 195.7,375.05 197.75,376.23 197.74,376.24 201.94,378.66 
			204.36,374.46 207.18,376.09 204.76,380.29 		"/>
	</g>
	<g>
		<path d="M191.14,451.73c0.05-0.66,0.15-1.31,0.11-1.97c-0.04-1.31,0.04-2.63-0.1-3.93l5.06-0.39c-0.15-1.32-0.27-2.64-0.46-3.96
			l-5.01,0.83l-0.82-3.85l-1.21-3.74v-0.01l4.75-1.78c-0.5-1.23-1.05-2.44-1.58-3.66l-4.58,2.2c-0.53-1.2-1.25-2.31-1.88-3.46
			c-0.3-0.59-0.7-1.11-1.08-1.65l-1.13-1.61l4.05-3.06c-0.76-1.09-1.69-2.04-2.54-3.07l-3.77,3.41l-0.64-0.75l-0.72-0.68l-1.42-1.36
			c-0.24-0.22-0.47-0.46-0.72-0.67l-0.77-0.61l-1.3-1.02l-0.25-0.2l3.03-4.07c-0.52-0.43-1.07-0.8-1.63-1.15l-1.67-1.08l-2.66,4.33
			v0.01l-0.22-0.15l-0.09-0.06l-0.07-0.04l-0.45-0.29c-0.28-0.17-0.58-0.31-0.87-0.46l-1.75-0.91l-0.88-0.45l-0.91-0.36l-1.83-0.73
			l1.76-4.77l-0.92-0.36l-0.96-0.28l-1.91-0.56l-1.34,4.89c-1.24-0.42-2.56-0.58-3.84-0.84c-1.28-0.3-2.61-0.32-3.91-0.47l0.34-5.06
			c-1.32-0.17-2.65-0.08-3.98-0.09l0.1,5.08c-0.65,0.02-1.31-0.03-1.96,0.06l-1.96,0.22c-0.65,0.09-1.31,0.11-1.95,0.25l-1.93,0.41
			l-1.1-4.95l-1.94,0.42l-1.9,0.61l1.53,4.84l-1.87,0.6c-0.63,0.2-1.21,0.51-1.82,0.76l-1.8,0.79c-0.61,0.25-1.16,0.63-1.74,0.93
			l-2.45-4.45c-1.15,0.67-2.34,1.27-3.4,2.07l2.83,4.21c-1.06,0.78-2.2,1.46-3.16,2.36c-0.98,0.87-2.04,1.66-2.9,2.65v0.01
			l-3.61-3.58l-1.38,1.44l-0.68,0.73l-0.62,0.77l3.9,3.25l-1.21,1.54l-0.61,0.78l-0.54,0.83l-1.06,1.65
			c-0.17,0.28-0.36,0.55-0.52,0.84l-0.46,0.87l-4.46-2.42l-0.91,1.77c-0.31,0.59-0.6,1.19-0.84,1.81l4.66,2.02l-0.73,1.83
			l-0.36,0.91c-0.11,0.31-0.19,0.63-0.29,0.94l-0.55,1.89l-0.28,0.95l-0.18,0.97l-4.97-1.07c-0.22,1.31-0.55,2.61-0.67,3.93
			l5.04,0.62l-0.18,1.96c-0.05,0.66-0.14,1.31-0.11,1.97c0.04,1.31-0.03,2.63,0.11,3.94l-5.07,0.38c0.15,1.32,0.28,2.65,0.46,3.96
			l5.01-0.83l0.83,3.85l1.21,3.75l-4.75,1.78c0.49,1.23,1.04,2.45,1.58,3.66l4.57-2.2c0.54,1.2,1.26,2.31,1.88,3.46
			c0.3,0.59,0.71,1.11,1.08,1.65l1.13,1.61l-4.05,3.06c0.77,1.09,1.7,2.05,2.55,3.07l3.76-3.4l0.65,0.74l0.71,0.68l1.42,1.36
			c0.24,0.22,0.47,0.46,0.72,0.67l0.78,0.61l1.54,1.22l0.17-0.22l-0.16,0.22l-3.03,4.08c0.51,0.42,1.06,0.79,1.62,1.14l1.68,1.08
			l2.66-4.32l0.82,0.53c0.29,0.16,0.58,0.3,0.87,0.46l1.75,0.9l0.88,0.45l0.91,0.37l1.83,0.73v-0.01h0.01l-0.01,0.01l-1.76,4.76
			l0.93,0.36l0.95,0.29l1.92,0.56l1.33-4.9c1.25,0.42,2.56,0.58,3.85,0.85c1.28,0.3,2.6,0.32,3.91,0.46l-0.35,5.06
			c1.32,0.17,2.66,0.09,3.99,0.09l-0.11-5.08c0.66-0.02,1.32,0.03,1.97-0.06l1.96-0.22c0.65-0.08,1.31-0.11,1.95-0.25l1.92-0.41
			l1.1,4.95l1.95-0.42l1.89-0.6l-1.53-4.85l1.88-0.6c0.62-0.2,1.21-0.51,1.82-0.76l1.8-0.79c0.61-0.25,1.14-0.62,1.73-0.93
			l2.45,4.45c1.15-0.67,2.35-1.26,3.41-2.07l-2.83-4.21c1.06-0.78,2.19-1.45,3.15-2.36c0.98-0.87,2.04-1.66,2.91-2.65l3.6,3.57
			l1.38-1.44l0.69-0.72l0.62-0.78l-3.91-3.25l1.22-1.54l0.61-0.78l0.53-0.82l1.06-1.66c0.18-0.28,0.37-0.55,0.53-0.83l0.45-0.88
			l4.46,2.42l0.92-1.77c0.31-0.59,0.6-1.18,0.83-1.81l-4.66-2.02l0.73-1.82l0.37-0.92c0.11-0.31,0.19-0.63,0.28-0.94l0.56-1.89
			l0.27-0.95l0.19-0.96h-0.01v-0.01l4.97,1.07c0.23-1.31,0.55-2.6,0.67-3.93l-5.03-0.62L191.14,451.73z M187.72,451.48l-0.16,1.79
			l-5.04-0.62c-0.07,0.92-0.33,1.82-0.47,2.74l4.96,1.07l-0.16,0.88l-0.26,0.86l-0.5,1.73c-0.09,0.29-0.16,0.58-0.26,0.86
			l-0.34,0.84l-0.67,1.67l-4.65-2.01c-0.16,0.44-0.37,0.85-0.59,1.26l-0.64,1.24l4.46,2.42l-0.41,0.8c-0.14,0.26-0.32,0.5-0.48,0.76
			l-0.97,1.51l-0.49,0.76l-0.56,0.71l-1.11,1.41l0.15,0.13l-0.15-0.12l-3.91-3.25l-0.42,0.55l-0.49,0.5l-0.96,1.01l3.6,3.57
			c-0.79,0.91-1.76,1.63-2.65,2.43c-0.88,0.83-1.92,1.44-2.88,2.15l-2.84-4.21c-0.72,0.58-1.57,0.96-2.37,1.44l2.44,4.44
			c-0.53,0.28-1.02,0.63-1.58,0.85l-1.65,0.73c-0.56,0.22-1.09,0.51-1.66,0.69l-1.72,0.55l-1.52-4.84l-1.33,0.44l-1.37,0.28
			l1.1,4.96l-1.76,0.38c-0.59,0.13-1.19,0.15-1.78,0.23l-1.79,0.2c-0.6,0.08-1.2,0.03-1.8,0.05l-0.11-5.07
			c-0.93-0.01-1.86,0.08-2.78-0.06l-0.34,5.07c-1.19-0.14-2.4-0.14-3.57-0.43c-1.18-0.24-2.38-0.38-3.52-0.77l1.34-4.9l-1.34-0.39
			l-0.67-0.19l-0.64-0.26l-1.77,4.76l-1.67-0.67l-0.84-0.33l-0.8-0.42l-1.6-0.82c-0.26-0.14-0.53-0.27-0.79-0.42l-0.76-0.49
			l2.66-4.32l-1.18-0.76c-0.39-0.24-0.78-0.49-1.14-0.8l-3.02,4.08l-1.42-1.12l-0.7-0.55c-0.23-0.2-0.44-0.42-0.66-0.62l-1.3-1.24
			l-0.65-0.63l-0.59-0.68l3.76-3.4c-0.58-0.73-1.25-1.37-1.77-2.14l-4.06,3.06l-1.03-1.48c-0.34-0.49-0.72-0.96-0.99-1.5
			c-0.56-1.06-1.23-2.06-1.71-3.16l4.57-2.2l-1.11-2.55l-4.75,1.78l-1.11-3.43l-0.75-3.52l5-0.83l-0.31-2.77l-5.06,0.39
			c-0.13-1.2-0.06-2.4-0.1-3.6c-0.03-0.6,0.06-1.2,0.1-1.8l0.16-1.79l5.04,0.62c0.07-0.92,0.33-1.82,0.47-2.74l-4.96-1.06l0.17-0.89
			l0.25-0.86l0.51-1.73c0.08-0.29,0.16-0.58,0.26-0.86l0.33-0.84l0.67-1.67l4.66,2.02c0.15-0.44,0.36-0.86,0.58-1.27l0.64-1.23
			l-4.46-2.43l0.41-0.8c0.15-0.26,0.32-0.5,0.48-0.76l0.98-1.51l0.48-0.76l0.56-0.71l1.11-1.41l3.91,3.24l0.43-0.55l0.48-0.5
			l0.97-1.01l-3.61-3.57c0.79-0.91,1.76-1.63,2.66-2.43c0.87-0.83,1.92-1.44,2.88-2.15l2.83,4.22c0.73-0.58,1.58-0.97,2.38-1.44
			l-2.45-4.45c0.53-0.28,1.03-0.63,1.59-0.85l1.65-0.72c0.55-0.23,1.08-0.52,1.66-0.7l1.71-0.55l1.53,4.84l1.32-0.44l1.37-0.28
			l-1.1-4.96l1.76-0.38c0.59-0.13,1.2-0.14,1.79-0.23l1.79-0.19c0.59-0.09,1.2-0.04,1.8-0.06l0.1,5.07
			c0.93,0.01,1.86-0.08,2.78,0.06l0.35-5.06c1.19,0.13,2.4,0.14,3.57,0.42c1.17,0.24,2.37,0.38,3.51,0.77l-1.33,4.9l1.33,0.39
			l0.67,0.19l0.65,0.26l1.76-4.76l1.67,0.67l0.84,0.33l0.8,0.42l1.6,0.82c0.27,0.14,0.54,0.27,0.8,0.42l0.35,0.23l0.4,0.26h0.01
			l-2.66,4.33l1.17,0.75c0.4,0.24,0.79,0.5,1.14,0.8l3.03-4.07l1.41,1.11l0.71,0.56c0.23,0.19,0.44,0.41,0.66,0.61l1.3,1.25
			l0.65,0.62l0.59,0.68l-3.77,3.41c0.58,0.72,1.26,1.37,1.78,2.13l4.05-3.06l1.04,1.48c0.34,0.49,0.71,0.96,0.98,1.5
			c0.57,1.06,1.23,2.07,1.72,3.16l-4.58,2.2l1.11,2.55l4.76-1.78l1.1,3.43l0.76,3.52l-5.01,0.83l0.32,2.77l5.06-0.38
			c0.13,1.19,0.05,2.39,0.09,3.59C187.86,450.28,187.77,450.88,187.72,451.48z"/>
		<polygon points="172.2,414.77 172.2,414.78 171.98,414.63 		"/>
	</g>
	<path d="M164.47,425.99c-6.1-3.52-13.2-4.46-20-2.63c-6.8,1.82-12.49,6.18-16.01,12.28c-3.52,6.1-4.46,13.2-2.63,20
		c1.82,6.8,6.18,12.49,12.28,16.01c4.06,2.34,8.57,3.54,13.14,3.54c2.29,0,4.59-0.3,6.87-0.91c6.8-1.82,12.49-6.18,16.01-12.28
		c3.52-6.1,4.46-13.2,2.63-20C174.93,435.19,170.57,429.51,164.47,425.99z M157.09,470.47c-11.94,3.2-24.26-3.91-27.46-15.85
		s3.91-24.26,15.85-27.46c1.93-0.52,3.89-0.77,5.84-0.77c3.88,0,7.72,1.02,11.17,3.01c5.19,2.99,8.9,7.83,10.45,13.61
		C176.14,454.95,169.03,467.27,157.09,470.47z"/>
	<path d="M218.82,448.81c-3.23-1.07-6.18-2.91-8.55-5.37c-2.38-2.46-4.18-5.53-5.12-9.06c-1.89-7.06,0.09-14.25,4.62-19.33
		c-6.67,1.39-13.89-0.5-19.05-5.66c-5.17-5.17-7.05-12.39-5.66-19.06c-5.08,4.54-12.28,6.52-19.34,4.62
		c-7.05-1.89-12.3-7.2-14.43-13.67c-1.06,3.24-2.91,6.18-5.37,8.55c-2.45,2.37-5.53,4.17-9.06,5.12c-7.06,1.9-14.25-0.08-19.33-4.62
		c1.39,6.67-0.5,13.89-5.66,19.06c-5.17,5.16-12.39,7.05-19.06,5.66c3.38,3.78,5.34,8.74,5.34,13.94c0,1.78-0.23,3.59-0.71,5.39
		c-1.9,7.06-7.21,12.3-13.68,14.43c3.23,1.07,6.18,2.91,8.55,5.37c2.38,2.46,4.18,5.54,5.13,9.06c1.89,7.06-0.09,14.25-4.63,19.34
		c6.67-1.39,13.89,0.49,19.06,5.66c5.16,5.16,7.05,12.38,5.66,19.05c3.78-3.37,8.74-5.33,13.93-5.33c1.79,0,3.6,0.23,5.4,0.71
		c7.06,1.89,12.3,7.2,14.43,13.67c1.06-3.24,2.91-6.18,5.37-8.55c2.46-2.37,5.53-4.17,9.06-5.12c7.06-1.89,14.26,0.09,19.34,4.62
		c-1.39-6.67,0.49-13.89,5.66-19.05c5.16-5.17,12.38-7.05,19.05-5.66c-3.37-3.79-5.33-8.75-5.33-13.94c0-1.79,0.23-3.6,0.71-5.4
		C207.04,456.19,212.35,450.94,218.82,448.81z M201.34,462.22c-1.49,5.57-0.96,11.22,1.15,16.15c-2.66,0.32-5.28,1.07-7.75,2.25
		c-2.46,1.18-4.77,2.79-6.81,4.83c-4.08,4.08-6.44,9.23-7.08,14.56c-4.93-2.11-10.58-2.64-16.15-1.15s-10.19,4.78-13.41,9.07
		c-1.61-2.15-3.57-4.04-5.82-5.59c-2.26-1.54-4.8-2.74-7.59-3.48c-5.57-1.49-11.21-0.96-16.15,1.15c-0.32-2.67-1.07-5.29-2.25-7.75
		c-1.18-2.46-2.79-4.77-4.83-6.81c-4.07-4.08-9.23-6.44-14.55-7.08c2.1-4.93,2.64-10.58,1.14-16.15
		c-1.49-5.57-4.77-10.19-9.06-13.41c2.15-1.61,4.04-3.57,5.58-5.82c1.54-2.26,2.73-4.81,3.48-7.59c1.5-5.57,0.96-11.21-1.14-16.15
		c5.32-0.64,10.48-3,14.55-7.08c4.08-4.08,6.44-9.23,7.08-14.56c3.04,1.3,6.34,2,9.73,2c2.12,0,4.28-0.28,6.42-0.85
		c5.57-1.49,10.19-4.78,13.41-9.07c1.61,2.15,3.57,4.04,5.82,5.59c2.26,1.54,4.8,2.74,7.59,3.48c5.57,1.49,11.22,0.96,16.15-1.15
		c0.32,2.67,1.07,5.29,2.25,7.75s2.79,4.77,4.83,6.81c4.08,4.08,9.23,6.44,14.56,7.08c-1.3,3.04-2,6.34-2,9.73
		c0,2.12,0.28,4.28,0.85,6.42c1.49,5.57,4.78,10.19,9.07,13.41c-2.14,1.61-4.04,3.57-5.58,5.82
		C203.28,456.89,202.09,459.44,201.34,462.22z"/>
	<g>
		<path d="M136.14,392.29c2.21-2.52,3.16-6.05,2.22-9.53s-3.52-6.06-6.69-7.14c-2.21,2.52-3.16,6.05-2.22,9.53
			C130.39,388.63,132.98,391.21,136.14,392.29z"/>
		<path d="M97.71,395.24c-0.65,3.28,0.29,6.82,2.84,9.36c2.54,2.54,6.08,3.49,9.36,2.84c0.65-3.28-0.29-6.82-2.84-9.36
			C104.53,395.53,100.99,394.58,97.71,395.24z"/>
		<path d="M85.24,435.89c3.47,0.93,7.01-0.02,9.53-2.22c-1.08-3.17-3.66-5.76-7.14-6.69c-3.47-0.93-7.01,0.02-9.53,2.22
			C79.18,432.37,81.76,434.96,85.24,435.89z"/>
		<path d="M87.63,470.65c3.47-0.93,6.06-3.52,7.14-6.69c-2.52-2.21-6.05-3.16-9.53-2.22c-3.47,0.93-6.06,3.52-7.14,6.69
			C80.62,470.63,84.15,471.58,87.63,470.65z"/>
		<path d="M109.91,490.2c-3.28-0.65-6.82,0.29-9.36,2.84c-2.54,2.54-3.49,6.08-2.84,9.36c3.28,0.65,6.82-0.29,9.36-2.84
			C109.62,497.01,110.56,493.48,109.91,490.2z"/>
		<path d="M138.37,514.87c0.93-3.47-0.02-7.01-2.22-9.53c-3.17,1.08-5.76,3.66-6.69,7.14c-0.93,3.47,0.02,7.01,2.22,9.53
			C134.85,520.93,137.44,518.34,138.37,514.87z"/>
		<path d="M166.44,505.34c-2.21,2.52-3.16,6.05-2.22,9.53c0.93,3.47,3.52,6.06,6.69,7.14c2.21-2.52,3.16-6.05,2.22-9.53
			C172.19,509.01,169.6,506.42,166.44,505.34z"/>
		<path d="M204.87,502.39c0.65-3.28-0.29-6.82-2.84-9.36c-2.54-2.54-6.08-3.49-9.36-2.84c-0.65,3.28,0.29,6.82,2.84,9.36
			C198.05,502.1,201.59,503.05,204.87,502.39z"/>
		<path d="M217.34,461.74c-3.47-0.93-7.01,0.02-9.53,2.22c1.08,3.17,3.66,5.76,7.14,6.69s7.01-0.02,9.53-2.22
			C223.4,465.26,220.82,462.67,217.34,461.74z"/>
		<path d="M214.95,426.98c-3.47,0.93-6.06,3.52-7.14,6.69c2.52,2.21,6.05,3.16,9.53,2.22c3.47-0.93,6.06-3.52,7.14-6.69
			C221.96,427,218.43,426.05,214.95,426.98z"/>
		<path d="M195.51,398.07c-2.54,2.54-3.49,6.08-2.84,9.36c3.28,0.65,6.82-0.29,9.36-2.84c2.54-2.54,3.49-6.08,2.84-9.36
			C201.59,394.58,198.05,395.53,195.51,398.07z"/>
		<path d="M164.21,382.76c-0.93,3.47,0.02,7.01,2.22,9.53c3.17-1.08,5.76-3.66,6.69-7.14c0.93-3.47-0.02-7.01-2.22-9.53
			C167.73,376.7,165.14,379.29,164.21,382.76z"/>
	</g>
</g>
<g>
</g>
<g>
</g>
<g>
</g>
<g>
</g>
<g>
</g>
<g>
</g>
<g>
</g>
<g>
</g>
<g>
</g>
<g>
</g>
<g>
</g>
<g>
</g>
<g>
</g>
<g>
</g>
<g>
</g>
</svg>
