<?xml version="1.0" encoding="utf-8"?>
<!-- Generator: Adobe Illustrator 27.2.0, SVG Export Plug-In . SVG Version: 6.00 Build 0)  -->
<svg version="1.1" id="Layer_1" xmlns="http://www.w3.org/2000/svg" xmlns:xlink="http://www.w3.org/1999/xlink" x="0px" y="0px"
	 viewBox="0 0 800 600" style="enable-background:new 0 0 800 600;" xml:space="preserve">
<g>
	<rect x="200.88" y="544.79" width="5.67" height="5.21"/>
	<rect x="189.55" y="522.11" width="5.67" height="5.67"/>
	<rect x="200.88" y="499.44" width="5.67" height="5.67"/>
	<rect x="217.89" y="527.78" width="5.67" height="5.67"/>
	<rect x="217.89" y="516.44" width="5.67" height="5.67"/>
	<rect x="212.22" y="533.45" width="5.67" height="5.67"/>
	<rect x="200.88" y="510.77" width="5.67" height="5.67"/>
	<rect x="223.56" y="522.11" width="5.67" height="5.67"/>
	<rect x="200.88" y="533.45" width="5.67" height="5.67"/>
	<rect x="206.55" y="539.12" width="5.67" height="5.67"/>
	<rect x="206.55" y="516.44" width="5.67" height="5.67"/>
	<rect x="212.22" y="510.77" width="5.67" height="5.67"/>
	<rect x="195.21" y="516.44" width="5.67" height="5.67"/>
	<rect x="200.88" y="522.11" width="5.67" height="5.67"/>
	<rect x="195.21" y="527.78" width="5.67" height="5.67"/>
	<rect x="206.55" y="527.78" width="5.67" height="5.67"/>
	<rect x="206.55" y="505.1" width="5.67" height="5.67"/>
	<rect x="212.22" y="522.11" width="5.67" height="5.67"/>
	<path d="M343.38,507.98l-8-8.07l-8.07,8l8,8.07L343.38,507.98z M335.36,504.15l3.78,3.81l-3.81,3.78l-3.78-3.81L335.36,504.15z"/>
	<rect x="315.52" y="533.38" transform="matrix(4.371002e-03 -1 1 4.371002e-03 -219.2549 852.2224)" width="5.67" height="5.67"/>
	<rect x="315.61" y="510.71" transform="matrix(4.370955e-03 -1 1 4.370955e-03 -196.4794 829.7437)" width="5.67" height="5.67"/>
	<rect x="315.57" y="522.05" transform="matrix(4.370955e-03 -1 1 4.370955e-03 -207.8671 840.983)" width="5.67" height="5.67"/>
	<rect x="321.26" y="516.4" transform="matrix(4.370955e-03 -1 1 4.370955e-03 -196.5536 841.0573)" width="5.67" height="5.67"/>
	<rect x="326.9" y="522.1" transform="matrix(4.370955e-03 -1 1 4.370955e-03 -196.6278 852.3707)" width="5.67" height="5.67"/>
	<rect x="321.16" y="539.08" transform="matrix(4.370955e-03 -1 1 4.370955e-03 -219.3291 863.5359)" width="5.67" height="5.67"/>
	<rect x="321.21" y="527.74" transform="matrix(4.371002e-03 -1 1 4.371002e-03 -207.9413 852.2965)" width="5.67" height="5.67"/>
	<polygon points="309.88,527.78 309.86,533.35 315.53,533.37 315.55,527.7 309.9,527.68 309.9,522.11 304.23,522.11 304.23,527.78 	
		"/>
	<polygon points="281.61,550 287.27,550 287.3,544.75 281.63,544.73 	"/>
	<polygon points="298.61,550 298.64,544.8 292.97,544.78 292.94,550 	"/>
	<rect x="298.65" y="539.15" transform="matrix(4.381720e-03 -1 1 4.381720e-03 -241.8124 841.0856)" width="5.67" height="5.67"/>
	<polygon points="309.95,550 309.97,544.85 304.31,544.83 304.28,550 	"/>
	<path d="M303.79,479.52l-8-8.07l-8.07,8l8,8.07L303.79,479.52z M295.77,475.69l3.78,3.81l-3.81,3.78l-3.78-3.81L295.77,475.69z"/>
	<rect x="309.96" y="470.4" transform="matrix(0.7102 -0.704 0.704 0.7102 -242.5091 357.3549)" width="5.67" height="5.67"/>
	<path d="M320.78,485.51l-8-8.07l-8.07,8l8,8.07L320.78,485.51z M312.75,481.68l3.78,3.81l-3.81,3.78l-3.78-3.81L312.75,481.68z"/>
	<rect x="321.31" y="505.06" transform="matrix(4.370955e-03 -1 1 4.370955e-03 -185.1659 829.8179)" width="5.67" height="5.67"/>
	<rect x="195.21" y="505.1" width="5.67" height="5.67"/>
	<path d="M333.14,524.94l8,8.07l8.07-8l-8-8.07L333.14,524.94z M341.17,528.78l-3.78-3.81l3.81-3.78l3.78,3.81L341.17,528.78z"/>
	<rect x="344.75" y="505.17" transform="matrix(0.7102 -0.704 0.704 0.7102 -256.9026 391.929)" width="5.67" height="5.67"/>
	<rect x="292.97" y="464.41" transform="matrix(0.7102 -0.704 0.704 0.7102 -243.2141 343.6638)" width="5.67" height="5.67"/>
	<rect x="304.16" y="499.48" transform="matrix(4.370955e-03 -1 1 4.370955e-03 -196.6621 807.1152)" width="5.67" height="5.67"/>
	<rect x="309.92" y="516.35" transform="matrix(4.371002e-03 -1 1 4.371002e-03 -207.793 829.6695)" width="5.67" height="5.67"/>
	<rect x="292.87" y="488.1" transform="matrix(4.381767e-03 -1 1 4.381767e-03 -196.5169 784.4828)" width="5.67" height="5.67"/>
	<rect x="309.85" y="493.84" transform="matrix(4.381720e-03 -1 1 4.381720e-03 -185.3519 807.184)" width="5.67" height="5.67"/>
	<polygon points="292.89,539.11 287.32,539.08 287.3,544.75 292.97,544.78 292.99,539.12 298.56,539.12 298.56,533.45 
		292.89,533.45 	"/>
	<path d="M72.06,549.99l8.07-8l-8-8.07l-8.07,8L72.06,549.99z M75.89,541.96l-3.81,3.78l-3.78-3.81l3.81-3.78L75.89,541.96z"/>
	<polygon points="153.96,550 147.38,543.42 147.38,543.42 129.07,525.11 128.47,545.28 147.34,544.71 147.18,550 	"/>
	<path d="M58.22,524.88l8,8.07l8.07-8l-8-8.07L58.22,524.88z M66.24,528.71l-3.78-3.81l3.81-3.78l3.78,3.81L66.24,528.71z"/>
	<path d="M150.22,432.88l8,8.07l8.07-8l-8-8.07L150.22,432.88z M158.24,436.71l-3.78-3.81l3.81-3.78l3.78,3.81L158.24,436.71z"/>
	<rect x="178.21" y="522.11" width="5.67" height="5.67"/>
	<rect x="57.01" y="539.06" transform="matrix(0.7102 -0.704 0.704 0.7102 -364.1541 199.181)" width="5.67" height="5.67"/>
	<path d="M164.06,457.98l8.07-8l-8-8.07l-8.07,8L164.06,457.98z M167.89,449.96l-3.81,3.78l-3.78-3.81l3.81-3.78L167.89,449.96z"/>
	<polygon points="129.07,524.78 147.38,506.48 147.38,506.48 183.99,469.86 184.62,469.24 185.25,468.61 203.56,450.3 183.39,449.7 
		183.95,468.57 165.08,468.01 165.65,486.88 146.78,486.31 147.34,505.18 128.47,504.62 	"/>
	<rect x="252.6" y="447.18" transform="matrix(0.7102 -0.704 0.704 0.7102 -242.7859 310.2508)" width="5.67" height="5.67"/>
	<rect x="281.55" y="522.11" width="5.67" height="5.67"/>
	<rect x="149.02" y="447.06" transform="matrix(0.7102 -0.704 0.704 0.7102 -272.7172 237.2858)" width="5.67" height="5.67"/>
	<path d="M241.14,432.94l8,8.07l8.07-8l-8-8.07L241.14,432.94z M249.16,436.77l-3.78-3.81l3.81-3.78l3.78,3.81L249.16,436.77z"/>
	<polygon points="203.88,450.3 278.37,524.78 278.97,504.62 260.1,505.18 260.66,486.31 241.79,486.88 242.35,468.01 223.48,468.57 
		224.05,449.7 	"/>
	<path d="M243.15,458l8.07-8l-8-8.07l-8.07,8L243.15,458z M246.99,449.97l-3.81,3.78l-3.78-3.81l3.81-3.78L246.99,449.97z"/>
	<rect x="298.56" y="527.78" width="5.67" height="5.67"/>
	<rect x="287.22" y="527.78" width="5.67" height="5.67"/>
	<rect x="298.56" y="516.44" width="5.67" height="5.67"/>
	<polygon points="298.45,510.77 292.89,510.77 292.89,516.44 298.56,516.44 298.56,510.79 304.12,510.81 304.15,505.14 
		298.48,505.12 	"/>
	<rect x="292.89" y="522.11" width="5.67" height="5.67"/>
	<rect x="287.22" y="516.44" width="5.67" height="5.67"/>
	<rect x="287.18" y="493.74" transform="matrix(4.371002e-03 -1 1 4.371002e-03 -207.8273 784.4139)" width="5.67" height="5.67"/>
	<rect x="281.48" y="499.39" transform="matrix(4.371002e-03 -1 1 4.371002e-03 -219.1408 784.3397)" width="5.67" height="5.67"/>
	<rect x="287.13" y="505.08" transform="matrix(4.381720e-03 -1 1 4.381720e-03 -219.2181 795.6478)" width="5.67" height="5.67"/>
	<rect x="275.84" y="493.69" transform="matrix(4.370955e-03 -1 1 4.370955e-03 -219.0666 773.0262)" width="5.67" height="5.67"/>
	<rect x="298.52" y="493.79" transform="matrix(4.370955e-03 -1 1 4.370955e-03 -196.5879 795.8016)" width="5.67" height="5.67"/>
	<rect x="292.82" y="499.44" transform="matrix(4.370955e-03 -1 1 4.370955e-03 -207.9015 795.7274)" width="5.67" height="5.67"/>
	<rect x="178.16" y="441.51" transform="matrix(4.381720e-03 -1 1 4.381720e-03 -264.1454 623.3914)" width="5.67" height="5.67"/>
	<rect x="80.61" y="505.15" transform="matrix(4.370955e-03 -1 1 4.370955e-03 -424.8987 589.2028)" width="5.67" height="5.67"/>
	<rect x="91.83" y="493.69" transform="matrix(4.370955e-03 -1 1 4.370955e-03 -402.2702 589.0201)" width="5.67" height="5.67"/>
	<rect x="108.86" y="488.1" transform="matrix(4.381720e-03 -1 1 4.381720e-03 -379.7185 600.4767)" width="5.67" height="5.67"/>
	<rect x="86.25" y="510.84" transform="matrix(4.370955e-03 -1 1 4.370955e-03 -424.9729 600.5163)" width="5.67" height="5.67"/>
	<rect x="125.85" y="493.84" transform="matrix(4.381720e-03 -1 1 4.381720e-03 -368.5535 623.1779)" width="5.67" height="5.67"/>
	<rect x="103.12" y="505.08" transform="matrix(4.381720e-03 -1 1 4.381720e-03 -402.4197 611.6417)" width="5.67" height="5.67"/>
	<rect x="97.47" y="499.39" transform="matrix(4.370955e-03 -1 1 4.370955e-03 -402.3444 600.3336)" width="5.67" height="5.67"/>
	<polygon points="114.55,510.79 120.11,510.81 120.14,505.14 114.47,505.12 114.45,510.77 108.88,510.77 108.88,516.44 
		114.55,516.44 	"/>
	<rect x="172.51" y="435.82" transform="matrix(4.370955e-03 -1 1 4.370955e-03 -264.0693 612.0827)" width="5.67" height="5.67"/>
	<rect x="103.17" y="493.74" transform="matrix(4.371002e-03 -1 1 4.371002e-03 -391.0308 600.4078)" width="5.67" height="5.67"/>
	<rect x="120.15" y="499.48" transform="matrix(4.370955e-03 -1 1 4.370955e-03 -379.8657 623.1091)" width="5.67" height="5.67"/>
	<rect x="114.51" y="493.79" transform="matrix(4.370955e-03 -1 1 4.370955e-03 -379.7915 611.7955)" width="5.67" height="5.67"/>
	<rect x="120.22" y="522.11" width="5.67" height="5.67"/>
	<rect x="143.18" y="430.02" transform="matrix(0.7102 -0.704 0.704 0.7102 -262.4181 228.2376)" width="5.67" height="5.67"/>
	<path d="M172.29,415.96l-8-8.07l-8.07,8l8,8.07L172.29,415.96z M164.26,412.13l3.78,3.81l-3.81,3.78l-3.78-3.81L164.26,412.13z"/>
	<rect x="149.17" y="413.04" transform="matrix(0.7102 -0.704 0.704 0.7102 -248.727 227.5327)" width="5.67" height="5.67"/>
	<rect x="166.87" y="430.13" transform="matrix(4.371002e-03 -1 1 4.371002e-03 -263.9951 600.7692)" width="5.67" height="5.67"/>
	<rect x="172.56" y="424.48" transform="matrix(4.371002e-03 -1 1 4.371002e-03 -252.6815 600.8433)" width="5.67" height="5.67"/>
	<rect x="178.21" y="430.18" transform="matrix(4.370955e-03 -1 1 4.370955e-03 -252.7558 612.1569)" width="5.67" height="5.67"/>
	<rect x="125.95" y="470.4" transform="matrix(0.7102 -0.704 0.704 0.7102 -295.8364 227.8115)" width="5.67" height="5.67"/>
	<path d="M119.79,479.52l-8-8.07l-8.07,8l8,8.07L119.79,479.52z M111.76,475.69l3.78,3.81l-3.81,3.78l-3.78-3.81L111.76,475.69z"/>
	<path d="M102.75,485.36l-8-8.07l-8.07,8l8,8.07L102.75,485.36z M94.73,481.53l3.78,3.81l-3.81,3.78l-3.78-3.81L94.73,481.53z"/>
	<rect x="91.93" y="470.25" transform="matrix(0.7102 -0.704 0.704 0.7102 -305.5877 203.8182)" width="5.67" height="5.67"/>
	<path d="M136.77,485.51l-8-8.07l-8.07,8l8,8.07L136.77,485.51z M128.75,481.68l3.78,3.81l-3.81,3.78l-3.78-3.81L128.75,481.68z"/>
	<rect x="108.97" y="464.41" transform="matrix(0.7102 -0.704 0.704 0.7102 -296.5414 214.1203)" width="5.67" height="5.67"/>
	<rect x="108.81" y="499.44" transform="matrix(4.370955e-03 -1 1 4.370955e-03 -391.105 611.7213)" width="5.67" height="5.67"/>
	<rect x="80.56" y="516.49" transform="matrix(4.370955e-03 -1 1 4.370955e-03 -436.2864 600.4421)" width="5.67" height="5.67"/>
	<rect x="86.2" y="522.18" transform="matrix(4.370955e-03 -1 1 4.370955e-03 -436.3606 611.7556)" width="5.67" height="5.67"/>
	<rect x="74.86" y="522.13" transform="matrix(4.370955e-03 -1 1 4.370955e-03 -447.5999 600.3679)" width="5.67" height="5.67"/>
	<rect x="86.15" y="533.52" transform="matrix(4.371002e-03 -1 1 4.371002e-03 -447.7483 622.9949)" width="5.67" height="5.67"/>
	<path d="M80.28,507.97l-8-8.07l-8.07,8l8,8.07L80.28,507.97z M72.26,504.14l3.78,3.81l-3.81,3.78l-3.78-3.81L72.26,504.14z"/>
	<rect x="80.51" y="527.82" transform="matrix(4.370955e-03 -1 1 4.370955e-03 -447.6741 611.6815)" width="5.67" height="5.67"/>
	<rect x="350.59" y="522.2" transform="matrix(0.7102 -0.704 0.704 0.7102 -267.2008 400.9727)" width="5.67" height="5.67"/>
	<rect x="80.46" y="539.16" transform="matrix(4.371002e-03 -1 1 4.371002e-03 -459.0619 622.9208)" width="5.67" height="5.67"/>
	<rect x="344.6" y="539.18" transform="matrix(0.7102 -0.704 0.704 0.7102 -280.8929 401.6823)" width="5.67" height="5.67"/>
	<rect x="189.55" y="510.77" width="5.67" height="5.67"/>
	<path d="M327.16,541.93l8,8.07l8.07-8l-8-8.07L327.16,541.93z M335.18,545.76l-3.78-3.81l3.81-3.78l3.78,3.81L335.18,545.76z"/>
	<rect x="57.16" y="505.04" transform="matrix(0.7102 -0.704 0.704 0.7102 -340.1663 189.4307)" width="5.67" height="5.67"/>
	<rect x="108.88" y="522.11" width="5.67" height="5.67"/>
	<polygon points="108.88,539.11 103.31,539.08 103.29,544.75 108.96,544.78 108.98,539.12 114.55,539.12 114.55,533.45 
		108.88,533.45 	"/>
	<polygon points="97.6,550 103.27,550 103.29,544.75 97.62,544.73 	"/>
	<polygon points="114.61,550 114.63,544.8 108.96,544.78 108.94,550 	"/>
	<polygon points="125.94,550 125.97,544.85 120.3,544.83 120.28,550 	"/>
	<rect x="91.85" y="527.87" transform="matrix(4.371002e-03 -1 1 4.371002e-03 -436.4348 623.0691)" width="5.67" height="5.67"/>
	<rect x="103.21" y="527.78" width="5.67" height="5.67"/>
	<rect x="103.21" y="516.44" width="5.67" height="5.67"/>
	<rect x="114.64" y="539.15" transform="matrix(4.381720e-03 -1 1 4.381720e-03 -425.014 657.0795)" width="5.67" height="5.67"/>
	<polygon points="97.54,522.22 97.54,527.78 103.21,527.78 103.21,522.11 97.55,522.11 97.58,516.55 91.91,516.52 91.88,522.19 	"/>
	<rect x="114.55" y="527.78" width="5.67" height="5.67"/>
	<rect x="114.55" y="516.44" width="5.67" height="5.67"/>
	<rect x="51.17" y="522.03" transform="matrix(0.7102 -0.704 0.704 0.7102 -353.8576 190.1358)" width="5.67" height="5.67"/>
	<path d="M211.79,387.52l-8-8.07l-8.07,8l8,8.07L211.79,387.52z M203.77,383.69l3.78,3.81l-3.81,3.78l-3.78-3.81L203.77,383.69z"/>
	<rect x="183.94" y="378.24" transform="matrix(0.7102 -0.704 0.704 0.7102 -214.1544 241.9293)" width="5.67" height="5.67"/>
	<path d="M251.38,415.98l-8-8.07l-8.07,8l8,8.07L251.38,415.98z M243.35,412.15l3.78,3.81l-3.81,3.78l-3.78-3.81L243.35,412.15z"/>
	<path d="M194.76,393.36l-8-8.07l-8.07,8l8,8.07L194.76,393.36z M186.73,389.53l3.78,3.81l-3.81,3.78l-3.78-3.81L186.73,389.53z"/>
	<rect x="217.95" y="378.39" transform="matrix(0.7102 -0.704 0.704 0.7102 -204.4011 265.9195)" width="5.67" height="5.67"/>
	<path d="M228.77,393.51l-8-8.07l-8.07,8l8,8.07L228.77,393.51z M220.75,389.68l3.78,3.81l-3.81,3.78l-3.78-3.81L220.75,389.68z"/>
	<rect x="200.97" y="372.4" transform="matrix(0.7102 -0.704 0.704 0.7102 -205.106 252.2284)" width="5.67" height="5.67"/>
	<rect x="183.83" y="401.69" transform="matrix(4.381720e-03 -1 1 4.381720e-03 -218.6673 589.4169)" width="5.67" height="5.67"/>
	<rect x="189.48" y="407.38" transform="matrix(4.370955e-03 -1 1 4.370955e-03 -218.7395 600.7349)" width="5.67" height="5.67"/>
	<rect x="178.26" y="418.84" transform="matrix(4.370955e-03 -1 1 4.370955e-03 -241.368 600.9175)" width="5.67" height="5.67"/>
	<rect x="172.61" y="413.14" transform="matrix(4.371002e-03 -1 1 4.371002e-03 -241.2939 589.604)" width="5.67" height="5.67"/>
	<rect x="195.12" y="413.08" transform="matrix(4.370955e-03 -1 1 4.370955e-03 -218.8137 612.0484)" width="5.67" height="5.67"/>
	<polygon points="129.12,524.95 154.17,550 158.41,550 133.36,524.95 203.72,454.59 274.08,524.95 249.03,550 253.27,550 
		278.32,524.95 203.72,450.34 	"/>
	<rect x="189.55" y="533.45" width="5.67" height="5.67"/>
	<path d="M203.72,463.22l-61.73,61.73L167.04,550h19.58l2.34-2.34l2.34,2.34h4.24l-25.05-25.05l33.24-33.24l33.24,33.24L211.9,550
		h4.24l2.34-2.34l2.34,2.34h19.58l25.05-25.05L203.72,463.22z M156.24,514.94l8.29,8.29h-16.58L156.24,514.94z M147.95,526.66h16.58
		l-8.29,8.29L147.95,526.66z M174.2,532.9l6.81,6.81l-10,10l-6.81-6.81L174.2,532.9z M174.2,516.99l-10-10l6.81-6.81l10,10
		L174.2,516.99z M188.96,502.23l-10-10l6.81-6.81l10,10L188.96,502.23z M202,485.75l-8.29-8.29l8.29-8.29V485.75z M259.49,523.23
		h-16.58l8.29-8.29L259.49,523.23z M205.44,469.18l8.29,8.29l-8.29,8.29V469.18z M211.67,495.42l10-10l6.81,6.81l-10,10
		L211.67,495.42z M233.24,516.99l-6.81-6.81l10-10l6.81,6.81L233.24,516.99z M236.44,549.71l-10-10l6.81-6.81l10,10L236.44,549.71z
		 M242.91,526.66h16.58l-8.29,8.29L242.91,526.66z"/>
	<rect x="195.21" y="539.12" width="5.67" height="5.67"/>
	<rect x="183.88" y="516.44" width="5.67" height="5.67"/>
	<rect x="183.88" y="527.78" width="5.67" height="5.67"/>
	<rect x="258.59" y="430.19" transform="matrix(0.7102 -0.704 0.704 0.7102 -229.0937 309.542)" width="5.67" height="5.67"/>
	<path d="M286.76,485.36l-8-8.07l-8.07,8l8,8.07L286.76,485.36z M278.74,481.53l3.78,3.81l-3.81,3.78l-3.78-3.81L278.74,481.53z"/>
	<rect x="172.46" y="447.16" transform="matrix(4.370955e-03 -1 1 4.370955e-03 -275.457 623.322)" width="5.67" height="5.67"/>
	<rect x="252.75" y="413.16" transform="matrix(0.7102 -0.704 0.704 0.7102 -218.7937 300.4901)" width="5.67" height="5.67"/>
	<rect x="275.94" y="470.25" transform="matrix(0.7102 -0.704 0.704 0.7102 -252.2613 333.3606)" width="5.67" height="5.67"/>
	<rect x="200.87" y="396.09" transform="matrix(4.370955e-03 -1 1 4.370955e-03 -196.1125 600.8832)" width="5.67" height="5.67"/>
	<polygon points="278.97,545.28 278.37,525.11 253.48,550 260.26,550 260.1,544.71 	"/>
	<polygon points="217.88,435.78 217.85,441.34 223.52,441.37 223.55,435.7 217.89,435.67 217.89,430.11 212.22,430.11 
		212.22,435.78 	"/>
	<rect x="229.21" y="435.74" transform="matrix(4.370955e-03 -1 1 4.370955e-03 -207.5401 668.6917)" width="5.67" height="5.67"/>
	<rect x="217.85" y="401.84" transform="matrix(4.370955e-03 -1 1 4.370955e-03 -184.9473 623.5845)" width="5.67" height="5.67"/>
	<rect x="200.88" y="430.11" width="5.67" height="5.67"/>
	<rect x="229.26" y="424.4" transform="matrix(4.370955e-03 -1 1 4.370955e-03 -196.1523 657.4523)" width="5.67" height="5.67"/>
	<rect x="223.56" y="430.04" transform="matrix(4.370955e-03 -1 1 4.370955e-03 -207.4659 657.3782)" width="5.67" height="5.67"/>
	<rect x="200.88" y="441.45" width="5.67" height="5.67"/>
	<polygon points="189.55,430.21 189.55,435.78 195.21,435.78 195.21,430.11 189.56,430.11 189.58,424.54 183.91,424.52 
		183.89,430.19 	"/>
	<rect x="183.85" y="435.87" transform="matrix(4.370955e-03 -1 1 4.370955e-03 -252.8299 623.4705)" width="5.67" height="5.67"/>
	<rect x="206.55" y="424.44" width="5.67" height="5.67"/>
	<rect x="195.21" y="424.44" width="5.67" height="5.67"/>
	<rect x="206.55" y="435.78" width="5.67" height="5.67"/>
	<rect x="195.21" y="435.78" width="5.67" height="5.67"/>
	<polygon points="206.55,418.78 212.12,418.81 212.14,413.14 206.47,413.11 206.45,418.77 200.88,418.77 200.88,424.44 
		206.55,424.44 	"/>
	<rect x="200.82" y="407.43" transform="matrix(4.370955e-03 -1 1 4.370955e-03 -207.5001 612.1226)" width="5.67" height="5.67"/>
	<rect x="223.51" y="441.38" transform="matrix(4.370955e-03 -1 1 4.370955e-03 -218.8536 668.6175)" width="5.67" height="5.67"/>
	<rect x="212.16" y="407.48" transform="matrix(4.370955e-03 -1 1 4.370955e-03 -196.2608 623.5103)" width="5.67" height="5.67"/>
	<rect x="206.51" y="401.79" transform="matrix(4.370955e-03 -1 1 4.370955e-03 -196.1867 612.1968)" width="5.67" height="5.67"/>
	<rect x="195.17" y="401.74" transform="matrix(4.370955e-03 -1 1 4.370955e-03 -207.426 600.8091)" width="5.67" height="5.67"/>
	<rect x="229.16" y="447.07" transform="matrix(4.371002e-03 -1 1 4.371002e-03 -218.9278 679.931)" width="5.67" height="5.67"/>
	<rect x="234.9" y="430.09" transform="matrix(4.370955e-03 -1 1 4.370955e-03 -196.2265 668.7659)" width="5.67" height="5.67"/>
	<rect x="217.92" y="424.35" transform="matrix(4.370955e-03 -1 1 4.370955e-03 -207.3917 646.0646)" width="5.67" height="5.67"/>
	<rect x="229.3" y="413.06" transform="matrix(4.370955e-03 -1 1 4.370955e-03 -184.7647 646.213)" width="5.67" height="5.67"/>
	<rect x="223.61" y="418.7" transform="matrix(4.381767e-03 -1 1 4.381767e-03 -196.0806 646.1343)" width="5.67" height="5.67"/>
</g>
<g>
</g>
<g>
</g>
<g>
</g>
<g>
</g>
<g>
</g>
<g>
</g>
<g>
</g>
<g>
</g>
<g>
</g>
<g>
</g>
<g>
</g>
<g>
</g>
<g>
</g>
<g>
</g>
<g>
</g>
</svg>
