<?xml version="1.0" encoding="utf-8"?>
<!-- Generator: Adobe Illustrator 27.2.0, SVG Export Plug-In . SVG Version: 6.00 Build 0)  -->
<svg version="1.1" id="Layer_1" xmlns="http://www.w3.org/2000/svg" xmlns:xlink="http://www.w3.org/1999/xlink" x="0px" y="0px"
	 viewBox="0 0 800 600" style="enable-background:new 0 0 800 600;" xml:space="preserve">
<g>
	<rect x="273.34" y="524.3" transform="matrix(0.7071 -0.7071 0.7071 0.7071 -291.8497 349.6768)" width="5.67" height="5.67"/>
	<rect x="306.67" y="490.97" transform="matrix(0.7071 -0.7071 0.7071 0.7071 -258.519 363.4828)" width="5.67" height="5.67"/>
	<rect x="273.34" y="508.26" transform="matrix(0.7071 -0.7071 0.7071 0.7071 -280.5111 344.9802)" width="5.67" height="5.67"/>
	<rect x="297.39" y="524.3" transform="matrix(0.7071 -0.7071 0.7071 0.7071 -284.8036 366.6802)" width="5.67" height="5.67"/>
	<rect x="301.4" y="504.25" transform="matrix(0.7071 -0.7071 0.7071 0.7071 -269.4575 363.6486)" width="5.67" height="5.67"/>
	<rect x="305.41" y="524.3" transform="matrix(0.7071 -0.7071 0.7071 0.7071 -282.4554 372.3495)" width="5.67" height="5.67"/>
	<rect x="313.43" y="524.3" transform="matrix(0.7071 -0.7071 0.7071 0.7071 -280.1071 378.0187)" width="5.67" height="5.67"/>
	<rect x="289.37" y="524.3" transform="matrix(0.7071 -0.7071 0.7071 0.7071 -287.1531 361.0154)" width="5.67" height="5.67"/>
	<rect x="273.34" y="516.28" transform="matrix(0.7071 -0.7071 0.7071 0.7071 -286.1804 347.3285)" width="5.67" height="5.67"/>
	<rect x="314.69" y="490.97" transform="matrix(0.7071 -0.7071 0.7071 0.7071 -256.1716 369.1565)" width="5.67" height="5.67"/>
	<rect x="96.53" y="516.28" transform="matrix(0.7071 -0.7071 0.7071 0.7071 -337.9658 222.3074)" width="5.67" height="5.67"/>
	<rect x="104.55" y="516.28" transform="matrix(0.7071 -0.7071 0.7071 0.7071 -335.6175 227.9767)" width="5.67" height="5.67"/>
	<rect x="281.36" y="524.3" transform="matrix(0.7071 -0.7071 0.7071 0.7071 -289.5014 355.3461)" width="5.67" height="5.67"/>
	<rect x="289.37" y="516.28" transform="matrix(0.7071 -0.7071 0.7071 0.7071 -281.4838 358.6671)" width="5.67" height="5.67"/>
	<rect x="294.64" y="470.92" transform="matrix(0.7071 -0.7071 0.7071 0.7071 -247.8682 349.1082)" width="5.67" height="5.67"/>
	<rect x="286.62" y="470.92" transform="matrix(0.7071 -0.7071 0.7071 0.7071 -250.2165 343.4389)" width="5.67" height="5.67"/>
	<rect x="281.36" y="484.21" transform="matrix(0.7071 -0.7071 0.7071 0.7071 -261.155 343.6046)" width="5.67" height="5.67"/>
	<rect x="293.38" y="496.24" transform="matrix(0.7071 -0.7071 0.7071 0.7071 -266.1365 355.631)" width="5.67" height="5.67"/>
	<rect x="286.62" y="462.91" transform="matrix(0.7071 -0.7071 0.7071 0.7071 -244.5472 341.0906)" width="5.67" height="5.67"/>
	<rect x="301.4" y="496.24" transform="matrix(0.7071 -0.7071 0.7071 0.7071 -263.7882 361.3003)" width="5.67" height="5.67"/>
	<rect x="306.67" y="482.95" transform="matrix(0.7071 -0.7071 0.7071 0.7071 -252.8497 361.1345)" width="5.67" height="5.67"/>
	<rect x="321.44" y="524.3" transform="matrix(0.7071 -0.7071 0.7071 0.7071 -277.7599 383.6925)" width="5.67" height="5.67"/>
	<rect x="321.44" y="516.28" transform="matrix(0.7071 -0.7071 0.7071 0.7071 -272.0906 381.3442)" width="5.67" height="5.67"/>
	<rect x="313.43" y="516.28" transform="matrix(0.7071 -0.7071 0.7071 0.7071 -274.4389 375.675)" width="5.67" height="5.67"/>
	<rect x="281.36" y="500.24" transform="matrix(0.7071 -0.7071 0.7071 0.7071 -272.4936 348.3012)" width="5.67" height="5.67"/>
	<rect x="297.39" y="516.28" transform="matrix(0.7071 -0.7071 0.7071 0.7071 -279.1367 364.3408)" width="5.67" height="5.67"/>
	<rect x="293.38" y="504.25" transform="matrix(0.7071 -0.7071 0.7071 0.7071 -271.8058 357.9792)" width="5.67" height="5.67"/>
	<rect x="215.82" y="434.71" transform="matrix(0.7071 -0.7071 0.7071 0.7071 -245.3491 282.7694)" width="5.67" height="5.67"/>
	<rect x="215.82" y="442.73" transform="matrix(0.7071 -0.7071 0.7071 0.7071 -251.0172 285.1142)" width="5.67" height="5.67"/>
	<rect x="215.82" y="418.67" transform="matrix(0.7071 -0.7071 0.7071 0.7071 -234.0093 278.0693)" width="5.67" height="5.67"/>
	<rect x="239.87" y="458.76" transform="matrix(0.7071 -0.7071 0.7071 0.7071 -255.3109 306.8186)" width="5.67" height="5.67"/>
	<rect x="215.82" y="426.69" transform="matrix(0.7071 -0.7071 0.7071 0.7071 -239.6786 280.4176)" width="5.67" height="5.67"/>
	<rect x="223.84" y="418.67" transform="matrix(0.7071 -0.7071 0.7071 0.7071 -231.661 283.7386)" width="5.67" height="5.67"/>
	<rect x="223.84" y="426.69" transform="matrix(0.7071 -0.7071 0.7071 0.7071 -237.3303 286.0869)" width="5.67" height="5.67"/>
	<rect x="223.84" y="442.73" transform="matrix(0.7071 -0.7071 0.7071 0.7071 -248.6689 290.7835)" width="5.67" height="5.67"/>
	<rect x="215.82" y="450.74" transform="matrix(0.7071 -0.7071 0.7071 0.7071 -256.6865 287.4625)" width="5.67" height="5.67"/>
	<rect x="96.53" y="524.3" transform="matrix(0.7071 -0.7071 0.7071 0.7071 -343.6351 224.6557)" width="5.67" height="5.67"/>
	<rect x="215.82" y="458.76" transform="matrix(0.7071 -0.7071 0.7071 0.7071 -262.3558 289.8108)" width="5.67" height="5.67"/>
	<rect x="223.84" y="458.76" transform="matrix(0.7071 -0.7071 0.7071 0.7071 -260.0075 295.4801)" width="5.67" height="5.67"/>
	<rect x="104.55" y="524.3" transform="matrix(0.7071 -0.7071 0.7071 0.7071 -341.2868 230.325)" width="5.67" height="5.67"/>
	<rect x="231.86" y="458.76" transform="matrix(0.7071 -0.7071 0.7071 0.7071 -257.6592 301.1494)" width="5.67" height="5.67"/>
	<rect x="223.84" y="450.74" transform="matrix(0.7071 -0.7071 0.7071 0.7071 -254.3382 293.1318)" width="5.67" height="5.67"/>
	<rect x="112.57" y="508.26" transform="matrix(0.7071 -0.7071 0.7071 0.7071 -327.5978 231.2944)" width="5.67" height="5.67"/>
	<rect x="273.34" y="476.19" transform="matrix(0.7071 -0.7071 0.7071 0.7071 -257.834 335.587)" width="5.67" height="5.67"/>
	<rect x="273.34" y="484.21" transform="matrix(0.7071 -0.7071 0.7071 0.7071 -263.5033 337.9353)" width="5.67" height="5.67"/>
	<rect x="273.34" y="500.24" transform="matrix(0.7071 -0.7071 0.7071 0.7071 -274.8419 342.6319)" width="5.67" height="5.67"/>
	<rect x="273.34" y="492.23" transform="matrix(0.7071 -0.7071 0.7071 0.7071 -269.1726 340.2836)" width="5.67" height="5.67"/>
	<rect x="281.36" y="516.28" transform="matrix(0.7071 -0.7071 0.7071 0.7071 -283.8321 352.9978)" width="5.67" height="5.67"/>
	<rect x="281.36" y="508.26" transform="matrix(0.7071 -0.7071 0.7071 0.7071 -278.1628 350.6495)" width="5.67" height="5.67"/>
	<rect x="104.55" y="508.26" transform="matrix(0.7071 -0.7071 0.7071 0.7071 -329.9482 225.6284)" width="5.67" height="5.67"/>
	<rect x="263.93" y="466.78" transform="matrix(0.7071 -0.7071 0.7071 0.7071 -253.9353 326.1748)" width="5.67" height="5.67"/>
	<rect x="269.19" y="453.49" transform="matrix(0.7071 -0.7071 0.7071 0.7071 -242.9958 326.0052)" width="5.67" height="5.67"/>
	<rect x="112.57" y="516.28" transform="matrix(0.7071 -0.7071 0.7071 0.7071 -333.2671 233.6426)" width="5.67" height="5.67"/>
	<rect x="215.82" y="466.78" transform="matrix(0.7071 -0.7071 0.7071 0.7071 -268.0251 292.1591)" width="5.67" height="5.67"/>
	<rect x="277.21" y="453.49" transform="matrix(0.7071 -0.7071 0.7071 0.7071 -240.6485 331.6784)" width="5.67" height="5.67"/>
	<rect x="269.19" y="445.48" transform="matrix(0.7071 -0.7071 0.7071 0.7071 -237.3275 323.6608)" width="5.67" height="5.67"/>
	<rect x="281.36" y="476.19" transform="matrix(0.7071 -0.7071 0.7071 0.7071 -255.4867 341.2604)" width="5.67" height="5.67"/>
	<rect x="249.89" y="541.5" width="5.67" height="5.67"/>
	<rect x="187.28" y="530.16" width="5.67" height="5.67"/>
	<rect x="187.28" y="541.5" width="5.67" height="5.67"/>
	<rect x="198.62" y="541.5" width="5.67" height="5.67"/>
	<rect x="181.61" y="535.83" width="5.67" height="5.67"/>
	<rect x="192.95" y="547.17" width="5.67" height="2.83"/>
	<rect x="175.94" y="541.5" width="5.67" height="5.67"/>
	<rect x="170.27" y="547.17" width="5.67" height="2.83"/>
	<rect x="255.55" y="547.17" width="5.67" height="2.83"/>
	<rect x="198.62" y="530.16" width="5.67" height="5.67"/>
	<rect x="204.29" y="535.83" width="5.67" height="5.67"/>
	<rect x="272.56" y="541.5" width="5.67" height="5.67"/>
	<rect x="266.89" y="535.83" width="5.67" height="5.67"/>
	<rect x="51.17" y="511.01" transform="matrix(0.7071 -0.7071 0.7071 0.7071 -347.5247 188.6918)" width="5.67" height="5.67"/>
	<rect x="278.23" y="547.17" width="5.67" height="2.83"/>
	<rect x="192.95" y="524.49" width="5.67" height="5.67"/>
	<rect x="136.02" y="541.5" width="5.67" height="5.67"/>
	<rect x="107.67" y="547.17" width="5.67" height="2.83"/>
	<rect x="113.34" y="541.5" width="5.67" height="5.67"/>
	<rect x="130.35" y="547.17" width="5.67" height="2.83"/>
	<rect x="119.01" y="535.83" width="5.67" height="5.67"/>
	<rect x="141.69" y="535.83" width="5.67" height="5.67"/>
	<rect x="153.03" y="547.17" width="5.67" height="2.83"/>
	<rect x="147.36" y="541.5" width="5.67" height="5.67"/>
	<rect x="232.88" y="547.17" width="5.67" height="2.83"/>
	<rect x="130.35" y="524.49" width="5.67" height="5.67"/>
	<rect x="215.63" y="547.17" width="5.67" height="2.83"/>
	<rect x="136.02" y="530.16" width="5.67" height="5.67"/>
	<rect x="209.96" y="541.5" width="5.67" height="5.67"/>
	<rect x="124.68" y="530.16" width="5.67" height="5.67"/>
	<rect x="124.68" y="541.5" width="5.67" height="5.67"/>
	<rect x="59.19" y="511.01" transform="matrix(0.7071 -0.7071 0.7071 0.7071 -345.1765 194.3611)" width="5.67" height="5.67"/>
	<rect x="88.51" y="524.3" transform="matrix(0.7071 -0.7071 0.7071 0.7071 -345.9811 218.9831)" width="5.67" height="5.67"/>
	<rect x="137.37" y="491.58" width="4.42" height="4.42"/>
	<rect x="80.5" y="524.3" transform="matrix(0.7071 -0.7071 0.7071 0.7071 -348.3293 213.3139)" width="5.67" height="5.67"/>
	<rect x="127.11" y="500.59" width="5.67" height="5.67"/>
	<path d="M97.27,550h4.24l31.61-31.61l31.34,31.34l31.33-31.33l31.33,31.33l31.34-31.34L290.06,550h4.24l-98.52-98.52L97.27,550z
		 M164.45,545.49l-29.21-29.21l29.21-29.21l29.21,29.21L164.45,545.49z M256.33,516.28l-29.21,29.21l-29.21-29.21l29.21-29.21
		L256.33,516.28z M195.79,514.16l-29.21-29.21l29.21-29.21L225,484.94L195.79,514.16z"/>
	<rect x="146.38" y="481.32" width="5.67" height="5.67"/>
	<rect x="127.11" y="481.32" width="5.67" height="5.67"/>
	<path d="M132.94,487.16v13.27h13.27v-13.27H132.94z M143.21,497.43h-7.27v-7.27h7.27V497.43z"/>
	<rect x="326.71" y="502.99" transform="matrix(0.7071 -0.7071 0.7071 0.7071 -261.1521 381.1785)" width="5.67" height="5.67"/>
	<rect x="258.79" y="481.32" width="5.67" height="5.67"/>
	<rect x="239.53" y="481.32" width="5.67" height="5.67"/>
	<rect x="334.73" y="511.01" transform="matrix(0.7071 -0.7071 0.7071 0.7071 -264.4731 389.1961)" width="5.67" height="5.67"/>
	<rect x="249.79" y="491.58" width="4.42" height="4.42"/>
	<rect x="258.79" y="500.59" width="5.67" height="5.67"/>
	<path d="M245.36,487.16v13.27h13.27v-13.27H245.36z M255.63,497.43h-7.27v-7.27h7.27V497.43z"/>
	<rect x="64.46" y="524.3" transform="matrix(0.7071 -0.7071 0.7071 0.7071 -353.0283 201.9786)" width="5.67" height="5.67"/>
	<rect x="261.22" y="541.5" width="5.67" height="5.67"/>
	<rect x="261.22" y="530.16" width="5.67" height="5.67"/>
	<rect x="255.55" y="524.49" width="5.67" height="5.67"/>
	<rect x="326.71" y="511.01" transform="matrix(0.7071 -0.7071 0.7071 0.7071 -266.8214 383.5268)" width="5.67" height="5.67"/>
	<rect x="112.57" y="524.3" transform="matrix(0.7071 -0.7071 0.7071 0.7071 -338.9363 235.9909)" width="5.67" height="5.67"/>
	<rect x="244.22" y="535.83" width="5.67" height="5.67"/>
	<path d="M175.28,484.94l20.51,20.51l20.51-20.51l-20.51-20.51L175.28,484.94z M195.79,501.21l-16.26-16.26l16.26-16.26l16.26,16.26
		L195.79,501.21z"/>
	<rect x="249.89" y="530.16" width="5.67" height="5.67"/>
	<path d="M227.12,536.78l20.51-20.51l-20.51-20.51l-20.51,20.51L227.12,536.78z M243.38,516.28l-16.26,16.26l-16.26-16.26
		l16.26-16.26L243.38,516.28z"/>
	<rect x="238.55" y="541.5" width="5.67" height="5.67"/>
	<rect x="72.48" y="524.3" transform="matrix(0.7071 -0.7071 0.7071 0.7071 -350.68 207.6479)" width="5.67" height="5.67"/>
	<rect x="64.46" y="516.28" transform="matrix(0.7071 -0.7071 0.7071 0.7071 -347.3566 199.6271)" width="5.67" height="5.67"/>
	<rect x="59.19" y="502.99" transform="matrix(0.7071 -0.7071 0.7071 0.7071 -339.5071 192.0128)" width="5.67" height="5.67"/>
	<path d="M143.95,516.28l20.51,20.51l20.51-20.51l-20.51-20.51L143.95,516.28z M164.45,532.54l-16.26-16.26l16.26-16.26l16.26,16.26
		L164.45,532.54z"/>
	<rect x="198.62" y="387.6" width="5.67" height="5.67"/>
	<rect x="187.28" y="404.61" width="5.67" height="5.67"/>
	<rect x="91.26" y="470.92" transform="matrix(0.7071 -0.7071 0.7071 0.7071 -307.4389 205.2998)" width="5.67" height="5.67"/>
	<rect x="175.94" y="404.61" width="5.67" height="5.67"/>
	<rect x="99.28" y="470.92" transform="matrix(0.7071 -0.7071 0.7071 0.7071 -305.0885 210.9661)" width="5.67" height="5.67"/>
	<rect x="204.29" y="410.28" width="5.67" height="5.67"/>
	<rect x="92.52" y="496.24" transform="matrix(0.7071 -0.7071 0.7071 0.7071 -324.9668 213.6021)" width="5.67" height="5.67"/>
	<rect x="198.62" y="404.61" width="5.67" height="5.67"/>
	<rect x="92.52" y="504.25" transform="matrix(0.7071 -0.7071 0.7071 0.7071 -330.636 215.9504)" width="5.67" height="5.67"/>
	<rect x="156.8" y="413.41" transform="matrix(0.7071 -0.7071 0.7071 0.7071 -247.5708 234.7907)" width="5.67" height="5.67"/>
	<rect x="148.78" y="413.41" transform="matrix(0.7071 -0.7071 0.7071 0.7071 -249.9191 229.1214)" width="5.67" height="5.67"/>
	<rect x="150.04" y="438.72" transform="matrix(0.7071 -0.7071 0.7071 0.7071 -267.4491 237.4267)" width="5.67" height="5.67"/>
	<rect x="164.61" y="393.27" width="5.67" height="5.67"/>
	<rect x="158.94" y="387.6" width="5.67" height="5.67"/>
	<rect x="170.27" y="398.94" width="5.67" height="5.67"/>
	<rect x="99.28" y="462.91" transform="matrix(0.7071 -0.7071 0.7071 0.7071 -299.4192 208.6178)" width="5.67" height="5.67"/>
	<rect x="156.8" y="405.39" transform="matrix(0.7071 -0.7071 0.7071 0.7071 -241.9028 232.4454)" width="5.67" height="5.67"/>
	<rect x="198.62" y="438.62" width="5.67" height="5.67"/>
	<rect x="198.62" y="415.95" width="5.67" height="5.67"/>
	<rect x="198.62" y="427.29" width="5.67" height="5.67"/>
	<rect x="71.22" y="490.97" transform="matrix(0.7071 -0.7071 0.7071 0.7071 -327.4808 196.9943)" width="5.67" height="5.67"/>
	<rect x="223.84" y="466.78" transform="matrix(0.7071 -0.7071 0.7071 0.7071 -265.6768 297.8284)" width="5.67" height="5.67"/>
	<rect x="187.28" y="438.62" width="5.67" height="5.67"/>
	<rect x="72.48" y="516.28" transform="matrix(0.7071 -0.7071 0.7071 0.7071 -345.0107 205.2996)" width="5.67" height="5.67"/>
	<rect x="79.24" y="490.97" transform="matrix(0.7071 -0.7071 0.7071 0.7071 -325.1325 202.6636)" width="5.67" height="5.67"/>
	<rect x="84.5" y="496.24" transform="matrix(0.7071 -0.7071 0.7071 0.7071 -327.3151 207.9328)" width="5.67" height="5.67"/>
	<rect x="187.28" y="415.95" width="5.67" height="5.67"/>
	<rect x="84.5" y="504.25" transform="matrix(0.7071 -0.7071 0.7071 0.7071 -332.9843 210.2811)" width="5.67" height="5.67"/>
	<rect x="192.95" y="410.28" width="5.67" height="5.67"/>
	<rect x="192.95" y="421.62" width="5.67" height="5.67"/>
	<rect x="181.61" y="410.28" width="5.67" height="5.67"/>
	<rect x="79.24" y="482.95" transform="matrix(0.7071 -0.7071 0.7071 0.7071 -319.4632 200.3153)" width="5.67" height="5.67"/>
	<rect x="136.75" y="433.45" transform="matrix(0.7071 -0.7071 0.7071 0.7071 -267.6164 226.4913)" width="5.67" height="5.67"/>
	<rect x="116.71" y="445.48" transform="matrix(0.7071 -0.7071 0.7071 0.7071 -281.9894 215.8374)" width="5.67" height="5.67"/>
	<rect x="170.08" y="450.74" transform="matrix(0.7071 -0.7071 0.7071 0.7071 -270.0822 255.1224)" width="5.67" height="5.67"/>
	<rect x="170.08" y="458.76" transform="matrix(0.7071 -0.7071 0.7071 0.7071 -275.7515 257.4707)" width="5.67" height="5.67"/>
	<rect x="162.07" y="466.78" transform="matrix(0.7071 -0.7071 0.7071 0.7071 -283.7708 254.1531)" width="5.67" height="5.67"/>
	<rect x="170.08" y="442.73" transform="matrix(0.7071 -0.7071 0.7071 0.7071 -264.413 252.7741)" width="5.67" height="5.67"/>
	<rect x="170.08" y="466.78" transform="matrix(0.7071 -0.7071 0.7071 0.7071 -281.4208 259.819)" width="5.67" height="5.67"/>
	<rect x="154.05" y="466.78" transform="matrix(0.7071 -0.7071 0.7071 0.7071 -286.1174 248.4803)" width="5.67" height="5.67"/>
	<rect x="121.98" y="466.78" transform="matrix(0.7071 -0.7071 0.7071 0.7071 -295.5106 225.8032)" width="5.67" height="5.67"/>
	<rect x="150.04" y="446.74" transform="matrix(0.7071 -0.7071 0.7071 0.7071 -273.1183 239.775)" width="5.67" height="5.67"/>
	<rect x="130" y="466.78" transform="matrix(0.7071 -0.7071 0.7071 0.7071 -293.1623 231.4725)" width="5.67" height="5.67"/>
	<rect x="146.03" y="466.78" transform="matrix(0.7071 -0.7071 0.7071 0.7071 -288.4657 242.8111)" width="5.67" height="5.67"/>
	<rect x="170.08" y="434.71" transform="matrix(0.7071 -0.7071 0.7071 0.7071 -258.7451 250.4291)" width="5.67" height="5.67"/>
	<rect x="162.07" y="450.74" transform="matrix(0.7071 -0.7071 0.7071 0.7071 -272.429 249.4498)" width="5.67" height="5.67"/>
	<rect x="162.07" y="458.76" transform="matrix(0.7071 -0.7071 0.7071 0.7071 -278.0998 251.8014)" width="5.67" height="5.67"/>
	<rect x="121.98" y="458.76" transform="matrix(0.7071 -0.7071 0.7071 0.7071 -289.8413 223.4549)" width="5.67" height="5.67"/>
	<rect x="154.05" y="458.76" transform="matrix(0.7071 -0.7071 0.7071 0.7071 -280.4481 246.132)" width="5.67" height="5.67"/>
	<rect x="187.28" y="427.29" width="5.67" height="5.67"/>
	<rect x="170.08" y="426.69" transform="matrix(0.7071 -0.7071 0.7071 0.7071 -253.0743 248.0775)" width="5.67" height="5.67"/>
	<rect x="128.74" y="433.45" transform="matrix(0.7071 -0.7071 0.7071 0.7071 -269.9631 220.8189)" width="5.67" height="5.67"/>
	<rect x="108.69" y="453.49" transform="matrix(0.7071 -0.7071 0.7071 0.7071 -290.007 212.5164)" width="5.67" height="5.67"/>
	<rect x="142.02" y="446.74" transform="matrix(0.7071 -0.7071 0.7071 0.7071 -275.4666 234.1057)" width="5.67" height="5.67"/>
	<rect x="142.02" y="438.72" transform="matrix(0.7071 -0.7071 0.7071 0.7071 -269.7974 231.7574)" width="5.67" height="5.67"/>
	<rect x="130" y="458.76" transform="matrix(0.7071 -0.7071 0.7071 0.7071 -287.493 229.1242)" width="5.67" height="5.67"/>
	<rect x="136.75" y="425.43" transform="matrix(0.7071 -0.7071 0.7071 0.7071 -261.9455 224.1399)" width="5.67" height="5.67"/>
	<rect x="170.08" y="418.67" transform="matrix(0.7071 -0.7071 0.7071 0.7071 -247.4051 245.7292)" width="5.67" height="5.67"/>
	<rect x="116.71" y="453.49" transform="matrix(0.7071 -0.7071 0.7071 0.7071 -287.6587 218.1857)" width="5.67" height="5.67"/>
	<rect x="162.07" y="418.67" transform="matrix(0.7071 -0.7071 0.7071 0.7071 -249.752 240.0567)" width="5.67" height="5.67"/>
	<rect x="162.07" y="442.73" transform="matrix(0.7071 -0.7071 0.7071 0.7071 -266.7597 247.1015)" width="5.67" height="5.67"/>
	<rect x="146.03" y="458.76" transform="matrix(0.7071 -0.7071 0.7071 0.7071 -282.7964 240.4628)" width="5.67" height="5.67"/>
	<rect x="162.07" y="426.69" transform="matrix(0.7071 -0.7071 0.7071 0.7071 -255.4241 242.4114)" width="5.67" height="5.67"/>
	<rect x="192.95" y="432.95" width="5.67" height="5.67"/>
	<rect x="226.97" y="350.56" width="5.67" height="5.67"/>
	<rect x="243.88" y="438.72" transform="matrix(0.7071 -0.7071 0.7071 0.7071 -239.9636 303.7825)" width="5.67" height="5.67"/>
	<rect x="192.95" y="363.49" width="5.67" height="5.67"/>
	<rect x="237.12" y="413.41" transform="matrix(0.7071 -0.7071 0.7071 0.7071 -224.0435 291.5905)" width="5.67" height="5.67"/>
	<rect x="221.3" y="363.49" width="5.67" height="5.67"/>
	<rect x="229.11" y="405.39" transform="matrix(0.7071 -0.7071 0.7071 0.7071 -220.7226 283.5729)" width="5.67" height="5.67"/>
	<rect x="229.11" y="413.41" transform="matrix(0.7071 -0.7071 0.7071 0.7071 -226.3928 285.9247)" width="5.67" height="5.67"/>
	<rect x="221.3" y="356.23" width="5.67" height="5.67"/>
	<rect x="198.62" y="350.56" width="5.67" height="5.67"/>
	<rect x="192.95" y="356.23" width="5.67" height="5.67"/>
	<rect x="187.28" y="350.56" width="5.67" height="5.67"/>
	<rect x="215.63" y="369.16" width="5.67" height="5.67"/>
	<rect x="221.3" y="374.83" width="5.67" height="5.67"/>
	<rect x="226.97" y="369.16" width="5.67" height="5.67"/>
	<rect x="112.57" y="476.19" transform="matrix(0.7071 -0.7071 0.7071 0.7071 -304.9247 221.9077)" width="5.67" height="5.67"/>
	<rect x="215.63" y="350.56" width="5.67" height="5.67"/>
	<rect x="247.89" y="466.78" transform="matrix(0.7071 -0.7071 0.7071 0.7071 -258.6319 314.8362)" width="5.67" height="5.67"/>
	<rect x="255.91" y="466.78" transform="matrix(0.7071 -0.7071 0.7071 0.7071 -256.2847 320.5095)" width="5.67" height="5.67"/>
	<rect x="255.91" y="458.76" transform="matrix(0.7071 -0.7071 0.7071 0.7071 -250.6132 318.1534)" width="5.67" height="5.67"/>
	<rect x="239.87" y="466.78" transform="matrix(0.7071 -0.7071 0.7071 0.7071 -260.9802 309.1669)" width="5.67" height="5.67"/>
	<rect x="112.57" y="500.24" transform="matrix(0.7071 -0.7071 0.7071 0.7071 -321.9327 228.9528)" width="5.67" height="5.67"/>
	<rect x="112.57" y="492.23" transform="matrix(0.7071 -0.7071 0.7071 0.7071 -316.2614 226.6011)" width="5.67" height="5.67"/>
	<rect x="231.86" y="466.78" transform="matrix(0.7071 -0.7071 0.7071 0.7071 -263.3285 303.4977)" width="5.67" height="5.67"/>
	<rect x="235.86" y="446.74" transform="matrix(0.7071 -0.7071 0.7071 0.7071 -247.9811 300.4615)" width="5.67" height="5.67"/>
	<rect x="243.88" y="446.74" transform="matrix(0.7071 -0.7071 0.7071 0.7071 -245.6328 306.1308)" width="5.67" height="5.67"/>
	<rect x="249.15" y="433.45" transform="matrix(0.7071 -0.7071 0.7071 0.7071 -234.6943 305.9651)" width="5.67" height="5.67"/>
	<rect x="181.61" y="432.95" width="5.67" height="5.67"/>
	<rect x="257.17" y="433.45" transform="matrix(0.7071 -0.7071 0.7071 0.7071 -232.346 311.6344)" width="5.67" height="5.67"/>
	<rect x="263.93" y="458.76" transform="matrix(0.7071 -0.7071 0.7071 0.7071 -248.266 323.8265)" width="5.67" height="5.67"/>
	<rect x="112.57" y="484.21" transform="matrix(0.7071 -0.7071 0.7071 0.7071 -310.5921 224.2528)" width="5.67" height="5.67"/>
	<rect x="249.15" y="425.43" transform="matrix(0.7071 -0.7071 0.7071 0.7071 -229.0251 303.6168)" width="5.67" height="5.67"/>
	<rect x="235.86" y="438.72" transform="matrix(0.7071 -0.7071 0.7071 0.7071 -242.3119 298.1133)" width="5.67" height="5.67"/>
	<rect x="187.28" y="387.6" width="5.67" height="5.67"/>
	<rect x="192.95" y="393.27" width="5.67" height="11.34"/>
	<rect x="215.63" y="387.6" width="5.67" height="5.67"/>
	<rect x="204.29" y="398.94" width="5.67" height="5.67"/>
	<rect x="104.55" y="500.24" transform="matrix(0.7071 -0.7071 0.7071 0.7071 -324.279 223.2801)" width="5.67" height="5.67"/>
	<rect x="192.95" y="381.93" width="5.67" height="5.67"/>
	<rect x="138.01" y="466.78" transform="matrix(0.7071 -0.7071 0.7071 0.7071 -290.814 237.1418)" width="5.67" height="5.67"/>
	<rect x="221.3" y="381.93" width="5.67" height="5.67"/>
	<rect x="209.96" y="404.61" width="5.67" height="5.67"/>
	<rect x="226.97" y="387.6" width="5.67" height="5.67"/>
	<rect x="192.95" y="444.29" width="5.67" height="5.67"/>
	<rect x="204.29" y="432.95" width="5.67" height="5.67"/>
	<rect x="215.63" y="398.94" width="5.67" height="5.67"/>
	<rect x="88.51" y="516.28" transform="matrix(0.7071 -0.7071 0.7071 0.7071 -340.3141 216.6382)" width="5.67" height="5.67"/>
	<rect x="221.3" y="393.27" width="5.67" height="5.67"/>
	<rect x="198.62" y="369.16" width="5.67" height="5.67"/>
	<rect x="164.61" y="363.49" width="5.67" height="5.67"/>
	<rect x="170.27" y="350.56" width="5.67" height="5.67"/>
	<rect x="181.61" y="398.94" width="5.67" height="5.67"/>
	<rect x="158.94" y="350.56" width="5.67" height="5.67"/>
	<rect x="187.28" y="369.16" width="5.67" height="5.67"/>
	<rect x="192.95" y="374.83" width="5.67" height="5.67"/>
	<rect x="104.55" y="476.19" transform="matrix(0.7071 -0.7071 0.7071 0.7071 -307.2711 216.2352)" width="5.67" height="5.67"/>
	<rect x="164.61" y="356.23" width="5.67" height="5.67"/>
	<rect x="158.94" y="369.16" width="5.67" height="5.67"/>
	<rect x="164.61" y="381.93" width="5.67" height="5.67"/>
	<rect x="170.27" y="387.6" width="5.67" height="5.67"/>
	<rect x="164.61" y="374.83" width="5.67" height="5.67"/>
	<rect x="170.27" y="369.16" width="5.67" height="5.67"/>
	<rect x="104.55" y="484.21" transform="matrix(0.7071 -0.7071 0.7071 0.7071 -312.9404 218.5835)" width="5.67" height="5.67"/>
</g>
<g>
</g>
<g>
</g>
<g>
</g>
<g>
</g>
<g>
</g>
<g>
</g>
<g>
</g>
<g>
</g>
<g>
</g>
<g>
</g>
<g>
</g>
<g>
</g>
<g>
</g>
<g>
</g>
<g>
</g>
</svg>
