<?xml version="1.0" encoding="utf-8"?>
<!-- Generator: Adobe Illustrator 27.2.0, SVG Export Plug-In . SVG Version: 6.00 Build 0)  -->
<svg version="1.1" id="Layer_1" xmlns="http://www.w3.org/2000/svg" xmlns:xlink="http://www.w3.org/1999/xlink" x="0px" y="0px"
	 viewBox="0 0 800 600" style="enable-background:new 0 0 800 600;" xml:space="preserve">
<g>
	<g>
		<g>
			
				<rect x="269.04" y="423.18" transform="matrix(-1.836970e-16 1 -1 -1.836970e-16 697.8901 154.1471)" width="5.67" height="5.67"/>
			
				<rect x="274.71" y="417.51" transform="matrix(-1.836970e-16 1 -1 -1.836970e-16 697.8901 142.8085)" width="5.67" height="5.67"/>
			
				<rect x="274.71" y="428.85" transform="matrix(-1.836970e-16 1 -1 -1.836970e-16 709.2287 154.1471)" width="5.67" height="5.67"/>
			
				<rect x="280.38" y="423.18" transform="matrix(-1.836970e-16 1 -1 -1.836970e-16 709.2287 142.8085)" width="5.67" height="5.67"/>
		</g>
		<rect x="276.25" y="424.73" transform="matrix(-0.7071 0.7071 -0.7071 -0.7071 775.0324 531.0082)" width="2.58" height="2.58"/>
		<g>
			<polygon points="292.46,420.1 286.53,426.02 292.46,431.94 			"/>
			<line style="fill:none;stroke:#000000;stroke-width:2;stroke-miterlimit:10;" x1="297.96" y1="426.02" x2="292.46" y2="426.02"/>
			<line style="fill:none;stroke:#000000;stroke-width:2;stroke-miterlimit:10;" x1="297.96" y1="430.95" x2="292.46" y2="430.95"/>
			<line style="fill:none;stroke:#000000;stroke-width:2;stroke-miterlimit:10;" x1="297.96" y1="421.09" x2="292.46" y2="421.09"/>
		</g>
	</g>
	<g>
		<g>
			<rect x="171.15" y="325.29" width="5.67" height="5.67"/>
			<rect x="165.48" y="319.62" width="5.67" height="5.67"/>
			<rect x="176.82" y="319.62" width="5.67" height="5.67"/>
			<rect x="171.15" y="313.96" width="5.67" height="5.67"/>
		</g>
		<rect x="172.69" y="321.17" transform="matrix(0.7071 0.7071 -0.7071 0.7071 278.9711 -28.5773)" width="2.58" height="2.58"/>
		<g>
			<polygon points="168.06,307.54 173.98,313.47 179.9,307.54 			"/>
			<line style="fill:none;stroke:#000000;stroke-width:2;stroke-miterlimit:10;" x1="173.98" y1="302.04" x2="173.98" y2="307.54"/>
			<line style="fill:none;stroke:#000000;stroke-width:2;stroke-miterlimit:10;" x1="178.91" y1="302.04" x2="178.91" y2="307.54"/>
			<line style="fill:none;stroke:#000000;stroke-width:2;stroke-miterlimit:10;" x1="169.05" y1="302.04" x2="169.05" y2="307.54"/>
		</g>
	</g>
	<g>
		<g>
			<rect x="73.26" y="423.18" transform="matrix(8.999829e-11 -1 1 8.999829e-11 -349.9273 502.1099)" width="5.67" height="5.67"/>
			<rect x="67.59" y="428.85" transform="matrix(9.176310e-11 -1 1 9.176310e-11 -361.2659 502.1099)" width="5.67" height="5.67"/>
			<rect x="67.59" y="417.51" transform="matrix(9.176310e-11 -1 1 9.176310e-11 -349.9273 490.7713)" width="5.67" height="5.67"/>
			<rect x="61.92" y="423.18" transform="matrix(8.983753e-11 -1 1 8.983753e-11 -361.2659 490.7713)" width="5.67" height="5.67"/>
		</g>
		<rect x="69.13" y="424.73" transform="matrix(0.7071 -0.7071 0.7071 0.7071 -280.6145 174.5738)" width="2.58" height="2.58"/>
		<g>
			<polygon points="55.51,431.94 61.43,426.02 55.51,420.1 			"/>
			<line style="fill:none;stroke:#000000;stroke-width:2;stroke-miterlimit:10;" x1="50" y1="426.02" x2="55.5" y2="426.02"/>
			<line style="fill:none;stroke:#000000;stroke-width:2;stroke-miterlimit:10;" x1="50" y1="421.09" x2="55.5" y2="421.09"/>
			<line style="fill:none;stroke:#000000;stroke-width:2;stroke-miterlimit:10;" x1="50" y1="430.95" x2="55.5" y2="430.95"/>
		</g>
	</g>
	<g>
		<g>
			
				<rect x="171.15" y="521.07" transform="matrix(-1 -1.360402e-10 1.360402e-10 -1 347.9628 1047.8174)" width="5.67" height="5.67"/>
			
				<rect x="176.82" y="526.74" transform="matrix(-1 -1.341151e-10 1.341151e-10 -1 359.3014 1059.156)" width="5.67" height="5.67"/>
			
				<rect x="165.48" y="526.74" transform="matrix(-1 -1.357196e-10 1.357196e-10 -1 336.6242 1059.156)" width="5.67" height="5.67"/>
			
				<rect x="171.15" y="532.41" transform="matrix(-1 -1.376447e-10 1.376447e-10 -1 347.9628 1070.4946)" width="5.67" height="5.67"/>
		</g>
		<rect x="172.69" y="528.29" transform="matrix(-0.7071 -0.7071 0.7071 -0.7071 -77.4634 1027.0696)" width="2.58" height="2.58"/>
		<g>
			<polygon points="179.9,544.49 173.98,538.57 168.06,544.49 			"/>
			<line style="fill:none;stroke:#000000;stroke-width:2;stroke-miterlimit:10;" x1="173.98" y1="550" x2="173.98" y2="544.5"/>
			<line style="fill:none;stroke:#000000;stroke-width:2;stroke-miterlimit:10;" x1="169.05" y1="550" x2="169.05" y2="544.5"/>
			<line style="fill:none;stroke:#000000;stroke-width:2;stroke-miterlimit:10;" x1="178.91" y1="550" x2="178.91" y2="544.5"/>
		</g>
	</g>
	<g>
		<g>
			<polygon points="206.95,377.44 222.56,393.05 203.11,396.89 			"/>
			<rect x="194.28" y="397.08" width="8.64" height="8.64"/>
		</g>
		<rect x="214.96" y="379.37" transform="matrix(-1.836970e-16 1 -1 -1.836970e-16 600 164.419)" width="5.67" height="5.67"/>
		<rect x="222.76" y="387.18" transform="matrix(-1.836970e-16 1 -1 -1.836970e-16 615.6013 164.419)" width="5.67" height="5.67"/>
		
			<rect x="207.16" y="371.57" transform="matrix(-1 -4.620227e-11 4.620227e-11 -1 419.9798 748.8177)" width="5.67" height="5.67"/>
	</g>
	<g>
		<g>
			<polygon points="125.41,393.05 141.01,377.44 144.85,396.89 			"/>
			
				<rect x="145.04" y="397.08" transform="matrix(9.020835e-11 -1 1 9.020835e-11 -252.0372 550.7556)" width="8.64" height="8.64"/>
		</g>
		<rect x="127.34" y="379.37" width="5.67" height="5.67"/>
		<rect x="135.14" y="371.57" width="5.67" height="5.67"/>
		
			<rect x="119.54" y="387.18" transform="matrix(-8.983765e-11 1 -1 -8.983765e-11 512.3818 267.6385)" width="5.67" height="5.67"/>
	</g>
	<g>
		<g>
			<polygon points="141.01,474.59 125.41,458.99 144.85,455.15 			"/>
			
				<rect x="145.04" y="446.32" transform="matrix(-1 -1.330497e-10 1.330497e-10 -1 298.7184 901.2816)" width="8.64" height="8.64"/>
		</g>
		<rect x="127.34" y="466.99" transform="matrix(8.999829e-11 -1 1 8.999829e-11 -339.6555 600)" width="5.67" height="5.67"/>
		<rect x="119.54" y="459.19" transform="matrix(9.160234e-11 -1 1 9.160234e-11 -339.6555 584.3987)" width="5.67" height="5.67"/>
		<rect x="135.14" y="474.79" width="5.67" height="5.67"/>
	</g>
	<g>
		<g>
			<polygon points="222.56,458.99 206.95,474.59 203.11,455.15 			"/>
			
				<rect x="194.28" y="446.32" transform="matrix(-1.805224e-10 1 -1 -1.805224e-10 649.2444 252.0372)" width="8.64" height="8.64"/>
		</g>
		<rect x="214.96" y="466.99" transform="matrix(-1 -1.341151e-10 1.341151e-10 -1 435.581 939.6555)" width="5.67" height="5.67"/>
		
			<rect x="207.16" y="474.79" transform="matrix(-1 -1.360402e-10 1.360402e-10 -1 419.9798 955.2567)" width="5.67" height="5.67"/>
		<rect x="222.76" y="459.19" transform="matrix(1.799965e-10 -1 1 1.799965e-10 -236.4359 687.6182)" width="5.67" height="5.67"/>
	</g>
	<g>
		<g>
			
				<rect x="226.89" y="416.56" transform="matrix(-0.7071 0.7071 -0.7071 -0.7071 704.7044 560.1391)" style="fill:none;stroke:#000000;stroke-width:3;stroke-miterlimit:10;" width="18.91" height="18.91"/>
			<circle cx="236.34" cy="426.02" r="4.25"/>
		</g>
		<g>
			
				<rect x="205.16" y="423.18" transform="matrix(-1.836970e-16 1 -1 -1.836970e-16 634.0157 218.0215)" width="5.67" height="5.67"/>
			
				<rect x="210.83" y="428.85" transform="matrix(-1.836970e-16 1 -1 -1.836970e-16 645.3543 218.0215)" width="5.67" height="5.67"/>
			
				<rect x="216.5" y="434.52" transform="matrix(-1.836970e-16 1 -1 -1.836970e-16 656.6929 218.0215)" width="5.67" height="5.67"/>
			
				<rect x="222.17" y="440.19" transform="matrix(-1.836970e-16 1 -1 -1.836970e-16 668.0315 218.0215)" width="5.67" height="5.67"/>
			
				<rect x="227.84" y="445.86" transform="matrix(-1.836970e-16 1 -1 -1.836970e-16 679.3701 218.0215)" width="5.67" height="5.67"/>
			
				<rect x="233.51" y="451.53" transform="matrix(-1.836970e-16 1 -1 -1.836970e-16 690.7087 218.0215)" width="5.67" height="5.67"/>
			
				<rect x="239.18" y="445.86" transform="matrix(-1.836970e-16 1 -1 -1.836970e-16 690.7087 206.6829)" width="5.67" height="5.67"/>
			
				<rect x="244.85" y="440.19" transform="matrix(-1.836970e-16 1 -1 -1.836970e-16 690.7087 195.3443)" width="5.67" height="5.67"/>
			
				<rect x="250.52" y="434.52" transform="matrix(-1.836970e-16 1 -1 -1.836970e-16 690.7087 184.0057)" width="5.67" height="5.67"/>
			
				<rect x="256.19" y="428.85" transform="matrix(-1.836970e-16 1 -1 -1.836970e-16 690.7087 172.6671)" width="5.67" height="5.67"/>
			
				<rect x="261.86" y="423.18" transform="matrix(-1.836970e-16 1 -1 -1.836970e-16 690.7087 161.3285)" width="5.67" height="5.67"/>
			<rect x="256.19" y="417.51" transform="matrix(3.529437e-12 1 -1 3.529437e-12 679.3701 161.3285)" width="5.67" height="5.67"/>
			
				<rect x="250.52" y="411.85" transform="matrix(-1.836970e-16 1 -1 -1.836970e-16 668.0315 161.3285)" width="5.67" height="5.67"/>
			
				<rect x="244.85" y="406.18" transform="matrix(-1.836970e-16 1 -1 -1.836970e-16 656.6929 161.3285)" width="5.67" height="5.67"/>
			
				<rect x="239.18" y="400.51" transform="matrix(-1.836970e-16 1 -1 -1.836970e-16 645.3543 161.3285)" width="5.67" height="5.67"/>
			<rect x="233.51" y="394.84" transform="matrix(1.603867e-12 1 -1 1.603867e-12 634.0157 161.3285)" width="5.67" height="5.67"/>
			
				<rect x="227.84" y="400.51" transform="matrix(-1.836970e-16 1 -1 -1.836970e-16 634.0157 172.6671)" width="5.67" height="5.67"/>
			
				<rect x="222.17" y="406.18" transform="matrix(-1.836970e-16 1 -1 -1.836970e-16 634.0157 184.0057)" width="5.67" height="5.67"/>
			
				<rect x="216.5" y="411.85" transform="matrix(-1.836970e-16 1 -1 -1.836970e-16 634.0157 195.3443)" width="5.67" height="5.67"/>
			
				<rect x="210.83" y="417.51" transform="matrix(-1.836970e-16 1 -1 -1.836970e-16 634.0157 206.6829)" width="5.67" height="5.67"/>
		</g>
	</g>
	<g>
		<g>
			
				<rect x="164.53" y="354.2" transform="matrix(0.7071 0.7071 -0.7071 0.7071 308.1019 -16.5109)" style="fill:none;stroke:#000000;stroke-width:3;stroke-miterlimit:10;" width="18.91" height="18.91"/>
			<circle cx="173.98" cy="363.66" r="4.25"/>
		</g>
		<g>
			<rect x="171.15" y="389.17" width="5.67" height="5.67"/>
			<rect x="176.82" y="383.5" width="5.67" height="5.67"/>
			<rect x="182.49" y="377.83" width="5.67" height="5.67"/>
			<rect x="188.15" y="372.16" width="5.67" height="5.67"/>
			<rect x="193.82" y="366.49" width="5.67" height="5.67"/>
			<rect x="199.49" y="360.82" width="5.67" height="5.67"/>
			<rect x="193.82" y="355.15" width="5.67" height="5.67"/>
			<rect x="188.15" y="349.48" width="5.67" height="5.67"/>
			<rect x="182.49" y="343.81" width="5.67" height="5.67"/>
			<rect x="176.82" y="338.14" width="5.67" height="5.67"/>
			<rect x="171.15" y="332.48" width="5.67" height="5.67"/>
			<rect x="165.48" y="338.14" width="5.67" height="5.67"/>
			<rect x="159.81" y="343.81" width="5.67" height="5.67"/>
			<rect x="154.14" y="349.48" width="5.67" height="5.67"/>
			<rect x="148.47" y="355.15" width="5.67" height="5.67"/>
			<rect x="142.8" y="360.82" width="5.67" height="5.67"/>
			<rect x="148.47" y="366.49" width="5.67" height="5.67"/>
			<rect x="154.14" y="372.16" width="5.67" height="5.67"/>
			<rect x="159.81" y="377.83" width="5.67" height="5.67"/>
			<rect x="165.48" y="383.5" width="5.67" height="5.67"/>
		</g>
	</g>
	<g>
		<g>
			
				<rect x="102.16" y="416.56" transform="matrix(0.7071 -0.7071 0.7071 0.7071 -268.5481 203.7047)" style="fill:none;stroke:#000000;stroke-width:3;stroke-miterlimit:10;" width="18.91" height="18.91"/>
			<circle cx="111.62" cy="426.02" r="4.25"/>
		</g>
		<g>
			
				<rect x="137.13" y="423.18" transform="matrix(8.983753e-11 -1 1 8.983753e-11 -286.0529 565.9843)" width="5.67" height="5.67"/>
			
				<rect x="131.46" y="417.51" transform="matrix(8.823348e-11 -1 1 8.823348e-11 -286.0529 554.6457)" width="5.67" height="5.67"/>
			
				<rect x="125.79" y="411.85" transform="matrix(8.999829e-11 -1 1 8.999829e-11 -286.0529 543.3071)" width="5.67" height="5.67"/>
			
				<rect x="120.12" y="406.18" transform="matrix(9.176310e-11 -1 1 9.176310e-11 -286.0529 531.9685)" width="5.67" height="5.67"/>
			
				<rect x="114.45" y="400.51" transform="matrix(8.807361e-11 -1 1 8.807361e-11 -286.0529 520.6299)" width="5.67" height="5.67"/>
			
				<rect x="108.78" y="394.84" transform="matrix(9.015905e-11 -1 1 9.015905e-11 -286.0529 509.2914)" width="5.67" height="5.67"/>
			
				<rect x="103.12" y="400.51" transform="matrix(8.983753e-11 -1 1 8.983753e-11 -297.3915 509.2914)" width="5.67" height="5.67"/>
			<rect x="97.45" y="406.18" transform="matrix(8.999829e-11 -1 1 8.999829e-11 -308.7301 509.2914)" width="5.67" height="5.67"/>
			<rect x="91.78" y="411.85" transform="matrix(8.999829e-11 -1 1 8.999829e-11 -320.0687 509.2914)" width="5.67" height="5.67"/>
			<rect x="86.11" y="417.51" transform="matrix(8.823348e-11 -1 1 8.823348e-11 -331.4073 509.2914)" width="5.67" height="5.67"/>
			<rect x="80.44" y="423.18" transform="matrix(9.176310e-11 -1 1 9.176310e-11 -342.7459 509.2914)" width="5.67" height="5.67"/>
			<rect x="86.11" y="428.85" transform="matrix(8.999829e-11 -1 1 8.999829e-11 -342.7459 520.6299)" width="5.67" height="5.67"/>
			<rect x="91.78" y="434.52" transform="matrix(8.983753e-11 -1 1 8.983753e-11 -342.7459 531.9685)" width="5.67" height="5.67"/>
			<rect x="97.45" y="440.19" transform="matrix(9.015905e-11 -1 1 9.015905e-11 -342.7459 543.3071)" width="5.67" height="5.67"/>
			
				<rect x="103.12" y="445.86" transform="matrix(9.160234e-11 -1 1 9.160234e-11 -342.7459 554.6457)" width="5.67" height="5.67"/>
			
				<rect x="108.78" y="451.53" transform="matrix(8.999829e-11 -1 1 8.999829e-11 -342.7459 565.9843)" width="5.67" height="5.67"/>
			
				<rect x="114.45" y="445.86" transform="matrix(8.983753e-11 -1 1 8.983753e-11 -331.4073 565.9843)" width="5.67" height="5.67"/>
			
				<rect x="120.12" y="440.19" transform="matrix(8.823348e-11 -1 1 8.823348e-11 -320.0687 565.9843)" width="5.67" height="5.67"/>
			
				<rect x="125.79" y="434.52" transform="matrix(8.646956e-11 -1 1 8.646956e-11 -308.7301 565.9843)" width="5.67" height="5.67"/>
			
				<rect x="131.46" y="428.85" transform="matrix(8.999829e-11 -1 1 8.999829e-11 -297.3915 565.9843)" width="5.67" height="5.67"/>
		</g>
	</g>
	<g>
		<g>
			
				<rect x="164.53" y="478.92" transform="matrix(-0.7071 -0.7071 0.7071 -0.7071 -48.3326 956.7416)" style="fill:none;stroke:#000000;stroke-width:3;stroke-miterlimit:10;" width="18.91" height="18.91"/>
			<circle cx="173.98" cy="488.38" r="4.25"/>
		</g>
		<g>
			
				<rect x="171.15" y="457.2" transform="matrix(-1 -1.360402e-10 1.360402e-10 -1 347.9628 920.0687)" width="5.67" height="5.67"/>
			
				<rect x="165.48" y="462.87" transform="matrix(-1 -1.360402e-10 1.360402e-10 -1 336.6242 931.4073)" width="5.67" height="5.67"/>
			
				<rect x="159.81" y="468.54" transform="matrix(-1 -1.341151e-10 1.341151e-10 -1 325.2856 942.7458)" width="5.67" height="5.67"/>
			
				<rect x="154.14" y="474.21" transform="matrix(-1 -1.341151e-10 1.341151e-10 -1 313.9471 954.0845)" width="5.67" height="5.67"/>
			
				<rect x="148.47" y="479.88" transform="matrix(-1 -1.341151e-10 1.341151e-10 -1 302.6085 965.423)" width="5.67" height="5.67"/>
			
				<rect x="142.8" y="485.55" transform="matrix(-1 -1.341151e-10 1.341151e-10 -1 291.2699 976.7616)" width="5.67" height="5.67"/>
			
				<rect x="148.47" y="491.22" transform="matrix(-1 -1.305859e-10 1.305859e-10 -1 302.6085 988.1002)" width="5.67" height="5.67"/>
			
				<rect x="154.14" y="496.88" transform="matrix(-1 -1.321899e-10 1.321899e-10 -1 313.9471 999.4388)" width="5.67" height="5.67"/>
			
				<rect x="159.81" y="502.55" transform="matrix(-1 -1.357196e-10 1.357196e-10 -1 325.2856 1010.7773)" width="5.67" height="5.67"/>
			
				<rect x="165.48" y="508.22" transform="matrix(-1 -1.341151e-10 1.341151e-10 -1 336.6242 1022.116)" width="5.67" height="5.67"/>
			
				<rect x="171.15" y="513.89" transform="matrix(-1 -1.360402e-10 1.360402e-10 -1 347.9628 1033.4545)" width="5.67" height="5.67"/>
			
				<rect x="176.82" y="508.22" transform="matrix(-1 -1.357196e-10 1.357196e-10 -1 359.3014 1022.116)" width="5.67" height="5.67"/>
			
				<rect x="182.49" y="502.55" transform="matrix(-1 -1.360402e-10 1.360402e-10 -1 370.64 1010.7773)" width="5.67" height="5.67"/>
			
				<rect x="188.15" y="496.88" transform="matrix(-1 -1.341151e-10 1.341151e-10 -1 381.9785 999.4388)" width="5.67" height="5.67"/>
			
				<rect x="193.82" y="491.22" transform="matrix(-1 -1.321899e-10 1.321899e-10 -1 393.3171 988.1002)" width="5.67" height="5.67"/>
			
				<rect x="199.49" y="485.55" transform="matrix(-1 -1.357196e-10 1.357196e-10 -1 404.6557 976.7616)" width="5.67" height="5.67"/>
			
				<rect x="193.82" y="479.88" transform="matrix(-1 -1.321899e-10 1.321899e-10 -1 393.3171 965.423)" width="5.67" height="5.67"/>
			
				<rect x="188.15" y="474.21" transform="matrix(-1 -1.305859e-10 1.305859e-10 -1 381.9785 954.0845)" width="5.67" height="5.67"/>
			<rect x="182.49" y="468.54" transform="matrix(-1 -1.341151e-10 1.341151e-10 -1 370.64 942.7458)" width="5.67" height="5.67"/>
			
				<rect x="176.82" y="462.87" transform="matrix(-1 -1.341151e-10 1.341151e-10 -1 359.3014 931.4073)" width="5.67" height="5.67"/>
		</g>
	</g>
	<g>
		<rect x="142.8" y="428.85" transform="matrix(-1.836970e-16 1 -1 -1.836970e-16 577.3228 286.0529)" width="5.67" height="5.67"/>
		
			<rect x="148.47" y="434.52" transform="matrix(-1.836970e-16 1 -1 -1.836970e-16 588.6614 286.0529)" width="5.67" height="5.67"/>
		<rect x="154.14" y="440.19" transform="matrix(-1.836970e-16 1 -1 -1.836970e-16 600 286.0529)" width="5.67" height="5.67"/>
		
			<rect x="159.81" y="445.86" transform="matrix(-1.836970e-16 1 -1 -1.836970e-16 611.3386 286.0529)" width="5.67" height="5.67"/>
		
			<rect x="165.48" y="451.53" transform="matrix(-1.836970e-16 1 -1 -1.836970e-16 622.6772 286.0529)" width="5.67" height="5.67"/>
		
			<rect x="176.82" y="451.53" transform="matrix(-1.836970e-16 1 -1 -1.836970e-16 634.0157 274.7144)" width="5.67" height="5.67"/>
		
			<rect x="182.49" y="445.86" transform="matrix(-1.836970e-16 1 -1 -1.836970e-16 634.0157 263.3758)" width="5.67" height="5.67"/>
		<rect x="188.15" y="440.19" transform="matrix(1.764627e-12 1 -1 1.764627e-12 634.0157 252.0372)" width="5.67" height="5.67"/>
		
			<rect x="193.82" y="434.52" transform="matrix(-1.836970e-16 1 -1 -1.836970e-16 634.0157 240.6986)" width="5.67" height="5.67"/>
		<rect x="199.49" y="428.85" transform="matrix(-1.836970e-16 1 -1 -1.836970e-16 634.0157 229.36)" width="5.67" height="5.67"/>
		
			<rect x="199.49" y="417.51" transform="matrix(-1.836970e-16 1 -1 -1.836970e-16 622.6772 218.0215)" width="5.67" height="5.67"/>
		
			<rect x="193.82" y="411.85" transform="matrix(-1.836970e-16 1 -1 -1.836970e-16 611.3386 218.0215)" width="5.67" height="5.67"/>
		<rect x="188.15" y="406.18" transform="matrix(-1.764994e-12 1 -1 -1.764994e-12 600 218.0215)" width="5.67" height="5.67"/>
		
			<rect x="182.49" y="400.51" transform="matrix(-1.836970e-16 1 -1 -1.836970e-16 588.6614 218.0215)" width="5.67" height="5.67"/>
		
			<rect x="176.82" y="394.84" transform="matrix(-1.836970e-16 1 -1 -1.836970e-16 577.3228 218.0215)" width="5.67" height="5.67"/>
		<rect x="165.48" y="394.84" transform="matrix(-1.836970e-16 1 -1 -1.836970e-16 565.9843 229.36)" width="5.67" height="5.67"/>
		
			<rect x="159.81" y="400.51" transform="matrix(-1.836970e-16 1 -1 -1.836970e-16 565.9843 240.6986)" width="5.67" height="5.67"/>
		
			<rect x="154.14" y="406.18" transform="matrix(-1.836970e-16 1 -1 -1.836970e-16 565.9843 252.0372)" width="5.67" height="5.67"/>
		
			<rect x="148.47" y="411.85" transform="matrix(-1.836970e-16 1 -1 -1.836970e-16 565.9843 263.3758)" width="5.67" height="5.67"/>
		<rect x="142.8" y="417.51" transform="matrix(-1.836970e-16 1 -1 -1.836970e-16 565.9843 274.7144)" width="5.67" height="5.67"/>
		<g>
			
				<rect x="159.81" y="423.18" transform="matrix(-1.836970e-16 1 -1 -1.836970e-16 588.6614 263.3758)" width="5.67" height="5.67"/>
			
				<rect x="165.48" y="417.51" transform="matrix(-1.836970e-16 1 -1 -1.836970e-16 588.6614 252.0372)" width="5.67" height="5.67"/>
			
				<rect x="171.15" y="411.85" transform="matrix(-1.836970e-16 1 -1 -1.836970e-16 588.6614 240.6986)" width="5.67" height="5.67"/>
			<rect x="165.48" y="428.85" transform="matrix(-1.836970e-16 1 -1 -1.836970e-16 600 263.3758)" width="5.67" height="5.67"/>
			<rect x="171.15" y="423.18" transform="matrix(-1.836970e-16 1 -1 -1.836970e-16 600 252.0372)" width="5.67" height="5.67"/>
			<rect x="176.82" y="417.51" transform="matrix(-1.836970e-16 1 -1 -1.836970e-16 600 240.6986)" width="5.67" height="5.67"/>
			
				<rect x="171.15" y="434.52" transform="matrix(-1.836970e-16 1 -1 -1.836970e-16 611.3386 263.3758)" width="5.67" height="5.67"/>
			
				<rect x="176.82" y="428.85" transform="matrix(-1.836970e-16 1 -1 -1.836970e-16 611.3386 252.0372)" width="5.67" height="5.67"/>
			
				<rect x="182.49" y="423.18" transform="matrix(-1.836970e-16 1 -1 -1.836970e-16 611.3386 240.6986)" width="5.67" height="5.67"/>
		</g>
		
			<rect x="157.95" y="409.98" transform="matrix(-0.7071 0.7071 -0.7071 -0.7071 598.2455 604.2358)" style="fill:none;stroke:#000000;stroke-width:3;stroke-miterlimit:10;" width="32.07" height="32.07"/>
	</g>
</g>
<g>
</g>
<g>
</g>
<g>
</g>
<g>
</g>
<g>
</g>
<g>
</g>
<g>
</g>
<g>
</g>
<g>
</g>
<g>
</g>
<g>
</g>
<g>
</g>
<g>
</g>
<g>
</g>
<g>
</g>
</svg>
