<?xml version="1.0" encoding="utf-8"?>
<!-- Generator: Adobe Illustrator 27.2.0, SVG Export Plug-In . SVG Version: 6.00 Build 0)  -->
<svg version="1.1" id="Layer_1" xmlns="http://www.w3.org/2000/svg" xmlns:xlink="http://www.w3.org/1999/xlink" x="0px" y="0px"
	 viewBox="0 0 800 600" style="enable-background:new 0 0 800 600;" xml:space="preserve">
<g>
	<g>
		<rect x="137.08" y="418.53" width="1" height="5.5"/>
		<rect x="132.15" y="418.53" width="2" height="5.5"/>
		<polygon points="138.08,521.05 131.97,527.16 138.08,533.27 		"/>
		<polygon points="138.08,429.96 138.08,424.04 132.16,424.04 		"/>
		<rect x="123.68" y="530.72" transform="matrix(0.7071 -0.7071 0.7071 0.7071 -340.522 246.4448)" width="7.1" height="7.1"/>
		<rect x="135.25" y="430.45" width="2.83" height="5.67"/>
		<polygon points="138.08,440.78 138.08,437.13 136.26,438.96 		"/>
		<polygon points="138.08,487.46 138.08,479.44 134.08,483.45 		"/>
		<polygon points="138.08,504.21 138.08,487.74 127.05,487.74 		"/>
		<rect x="135.25" y="441.79" width="2.83" height="5.67"/>
		<polygon points="94.04,406.02 99.96,400.1 88.12,400.1 		"/>
		<rect x="91.21" y="406.51" width="5.67" height="5.67"/>
		<rect x="129.58" y="436.12" width="5.67" height="5.67"/>
		<rect x="88.11" y="394.59" width="2" height="5.5"/>
		<rect x="97.97" y="394.59" width="2" height="5.5"/>
		<polygon points="138.08,516.7 138.08,504.48 131.97,510.59 		"/>
		<rect x="93.04" y="394.59" width="2" height="5.5"/>
		<rect x="96.88" y="412.18" width="5.67" height="5.67"/>
		<rect x="124.22" y="480.62" transform="matrix(0.7071 -0.7071 0.7071 0.7071 -304.6394 231.4398)" width="5.67" height="5.67"/>
		<polygon points="50,521.05 50,533.27 56.11,527.16 		"/>
		<rect x="85.54" y="509.41" width="5.67" height="5.67"/>
		<rect x="96.88" y="509.41" width="5.67" height="5.67"/>
		<rect x="85.54" y="520.75" width="5.67" height="5.67"/>
		<rect x="91.21" y="515.08" width="5.67" height="5.67"/>
		<rect x="91.21" y="526.42" width="5.67" height="5.67"/>
		<rect x="102.55" y="515.08" width="5.67" height="5.67"/>
		<rect x="96.88" y="520.75" width="5.67" height="5.67"/>
		<rect x="91.21" y="503.74" width="5.67" height="5.67"/>
		<rect x="79.87" y="515.08" width="5.67" height="5.67"/>
		<rect x="79.55" y="530.72" transform="matrix(0.7071 -0.7071 0.7071 0.7071 -353.447 215.2413)" width="7.1" height="7.1"/>
		<rect x="67.74" y="522.84" transform="matrix(0.7071 -0.7071 0.7071 0.7071 -351.6497 205.3584)" width="8.64" height="8.64"/>
		<rect x="91.21" y="417.85" width="5.67" height="5.67"/>
		<polygon points="50,437.13 50,440.78 51.82,438.96 		"/>
		<polygon points="50,424.04 50,429.96 55.92,424.04 		"/>
		<polygon points="50,487.74 50,504.21 61.03,487.74 		"/>
		<polygon points="50,487.46 54.01,483.45 50,479.44 		"/>
		<rect x="111.7" y="522.84" transform="matrix(0.7071 -0.7071 0.7071 0.7071 -338.7755 236.4393)" width="8.64" height="8.64"/>
		<rect x="101.61" y="530.72" transform="matrix(0.7071 -0.7071 0.7071 0.7071 -346.9845 230.843)" width="7.1" height="7.1"/>
		<polygon points="50,504.48 50,516.7 56.11,510.59 		"/>
		<polygon points="138.08,517.39 118.32,517.39 94.04,493.11 69.76,517.39 50,517.39 50,520.39 71.01,520.39 94.04,497.36 
			117.08,520.39 138.08,520.39 		"/>
		<rect x="50" y="418.53" width="1" height="5.5"/>
		<rect x="68.53" y="448.46" width="5.67" height="5.67"/>
		<rect x="79.87" y="437.12" width="5.67" height="5.67"/>
		<rect x="62.86" y="454.13" width="5.67" height="5.67"/>
		<path d="M109.54,456.97l-15.49-15.49l-15.49,15.49l15.49,15.49L109.54,456.97z M94.04,445.72l11.25,11.25l-11.25,11.25
			l-11.25-11.25L94.04,445.72z"/>
		<circle cx="94.04" cy="456.97" r="4.25"/>
		<rect x="74.2" y="442.79" width="5.67" height="5.67"/>
		<rect x="113.88" y="459.8" width="5.67" height="5.67"/>
		<rect x="113.88" y="448.46" width="5.67" height="5.67"/>
		<rect x="102.55" y="437.12" width="5.67" height="5.67"/>
		<rect x="96.88" y="431.46" width="5.67" height="5.67"/>
		<rect x="85.54" y="431.46" width="5.67" height="5.67"/>
		<rect x="108.22" y="442.79" width="5.67" height="5.67"/>
		<polygon points="61.03,550 83.1,550 72.06,533.53 		"/>
		<rect x="57.48" y="530.72" transform="matrix(0.7071 -0.7071 0.7071 0.7071 -359.9074 199.637)" width="7.1" height="7.1"/>
		<polygon points="50,550 61.03,550 50,533.54 		"/>
		<polygon points="105.07,549.87 94.13,533.53 83.1,550 127.05,550 116.02,533.53 		"/>
		<polygon points="138.08,533.54 127.05,550 138.08,550 		"/>
		<rect x="50" y="441.79" width="2.83" height="5.67"/>
		<rect x="58.2" y="480.62" transform="matrix(0.7071 -0.7071 0.7071 0.7071 -323.9766 184.7557)" width="5.67" height="5.67"/>
		<rect x="52.83" y="436.12" width="5.67" height="5.67"/>
		<rect x="50" y="430.45" width="2.83" height="5.67"/>
		<rect x="53.93" y="418.53" width="2" height="5.5"/>
		<rect x="74.2" y="465.47" width="5.67" height="5.67"/>
		<rect x="68.53" y="505.16" width="5.67" height="5.67"/>
		<rect x="108.22" y="499.49" width="5.67" height="5.67"/>
		<rect x="113.88" y="505.16" width="5.67" height="5.67"/>
		<rect x="96.88" y="488.15" width="5.67" height="5.67"/>
		<rect x="62.86" y="510.83" width="5.67" height="5.67"/>
		<rect x="102.55" y="493.82" width="5.67" height="5.67"/>
		<rect x="85.54" y="412.18" width="5.67" height="5.67"/>
		<rect x="119.55" y="510.83" width="5.67" height="5.67"/>
		<rect x="91.21" y="425.79" width="5.67" height="5.67"/>
		<rect x="119.55" y="454.13" width="5.67" height="5.67"/>
		<rect x="85.54" y="488.15" width="5.67" height="5.67"/>
		<rect x="74.2" y="499.49" width="5.67" height="5.67"/>
		<rect x="92.75" y="413.72" transform="matrix(0.7071 -0.7071 0.7071 0.7071 -265.9126 188.0517)" width="2.58" height="2.58"/>
		<rect x="79.87" y="471.14" width="5.67" height="5.67"/>
		<rect x="102.55" y="471.14" width="5.67" height="5.67"/>
		<rect x="96.88" y="476.81" width="5.67" height="5.67"/>
		<rect x="85.54" y="476.81" width="5.67" height="5.67"/>
		<rect x="79.87" y="493.82" width="5.67" height="5.67"/>
		<rect x="68.53" y="459.8" width="5.67" height="5.67"/>
		<rect x="108.22" y="465.47" width="5.67" height="5.67"/>
		<rect x="91.21" y="482.48" width="5.67" height="5.67"/>
	</g>
	<g>
		<rect x="225.17" y="418.53" width="1" height="5.5"/>
		<rect x="220.24" y="418.53" width="2" height="5.5"/>
		<polygon points="226.17,521.05 220.06,527.16 226.17,533.27 		"/>
		<polygon points="226.17,429.96 226.17,424.04 220.25,424.04 		"/>
		<rect x="211.76" y="530.72" transform="matrix(0.7071 -0.7071 0.7071 0.7071 -314.7229 308.7294)" width="7.1" height="7.1"/>
		<rect x="223.33" y="430.45" width="2.83" height="5.67"/>
		<polygon points="226.17,440.78 226.17,437.13 224.35,438.96 		"/>
		<polygon points="226.17,487.46 226.17,479.44 222.16,483.45 		"/>
		<polygon points="226.17,504.21 226.17,487.74 215.14,487.74 		"/>
		<rect x="223.33" y="441.79" width="2.83" height="5.67"/>
		<polygon points="182.13,406.02 188.05,400.1 176.2,400.1 		"/>
		<rect x="179.29" y="406.51" width="5.67" height="5.67"/>
		<rect x="217.66" y="436.12" width="5.67" height="5.67"/>
		<rect x="176.19" y="394.59" width="2" height="5.5"/>
		<rect x="186.06" y="394.59" width="2" height="5.5"/>
		<polygon points="226.17,516.7 226.17,504.48 220.06,510.59 		"/>
		<rect x="181.13" y="394.59" width="2" height="5.5"/>
		<rect x="184.96" y="412.18" width="5.67" height="5.67"/>
		<rect x="212.3" y="480.62" transform="matrix(0.7071 -0.7071 0.7071 0.7071 -278.8403 293.7244)" width="5.67" height="5.67"/>
		<polygon points="138.08,521.05 138.08,533.27 144.19,527.16 		"/>
		<rect x="173.62" y="509.41" width="5.67" height="5.67"/>
		<rect x="184.96" y="509.41" width="5.67" height="5.67"/>
		<rect x="173.62" y="520.75" width="5.67" height="5.67"/>
		<rect x="179.29" y="515.08" width="5.67" height="5.67"/>
		<rect x="179.29" y="526.42" width="5.67" height="5.67"/>
		<rect x="190.63" y="515.08" width="5.67" height="5.67"/>
		<rect x="184.96" y="520.75" width="5.67" height="5.67"/>
		<rect x="179.29" y="503.74" width="5.67" height="5.67"/>
		<rect x="167.95" y="515.08" width="5.67" height="5.67"/>
		<rect x="167.63" y="530.72" transform="matrix(0.7071 -0.7071 0.7071 0.7071 -327.6478 277.5259)" width="7.1" height="7.1"/>
		<rect x="155.83" y="522.84" transform="matrix(0.7071 -0.7071 0.7071 0.7071 -325.8505 267.643)" width="8.64" height="8.64"/>
		<rect x="179.29" y="417.85" width="5.67" height="5.67"/>
		<polygon points="138.08,437.13 138.08,440.78 139.9,438.96 		"/>
		<polygon points="138.08,424.04 138.08,429.96 144.01,424.04 		"/>
		<polygon points="138.08,487.74 138.08,504.21 149.12,487.74 		"/>
		<polygon points="138.08,487.46 142.09,483.45 138.08,479.44 		"/>
		<rect x="199.78" y="522.84" transform="matrix(0.7071 -0.7071 0.7071 0.7071 -312.9764 298.7239)" width="8.64" height="8.64"/>
		<rect x="189.7" y="530.72" transform="matrix(0.7071 -0.7071 0.7071 0.7071 -321.1854 293.1277)" width="7.1" height="7.1"/>
		<polygon points="138.08,504.48 138.08,516.7 144.19,510.59 		"/>
		<polygon points="226.17,517.39 206.4,517.39 182.13,493.11 157.85,517.39 138.08,517.39 138.08,520.39 159.09,520.39 
			182.13,497.36 205.16,520.39 226.17,520.39 		"/>
		<rect x="138.08" y="418.53" width="1" height="5.5"/>
		<rect x="156.61" y="448.46" width="5.67" height="5.67"/>
		<rect x="167.95" y="437.12" width="5.67" height="5.67"/>
		<rect x="150.94" y="454.13" width="5.67" height="5.67"/>
		<path d="M197.62,456.97l-15.49-15.49l-15.49,15.49l15.49,15.49L197.62,456.97z M182.13,445.72l11.25,11.25l-11.25,11.25
			l-11.25-11.25L182.13,445.72z"/>
		<circle cx="182.13" cy="456.97" r="4.25"/>
		<rect x="162.28" y="442.79" width="5.67" height="5.67"/>
		<rect x="201.97" y="459.8" width="5.67" height="5.67"/>
		<rect x="201.97" y="448.46" width="5.67" height="5.67"/>
		<rect x="190.63" y="437.12" width="5.67" height="5.67"/>
		<rect x="184.96" y="431.46" width="5.67" height="5.67"/>
		<rect x="173.62" y="431.46" width="5.67" height="5.67"/>
		<rect x="196.3" y="442.79" width="5.67" height="5.67"/>
		<polygon points="149.12,550 171.18,550 160.15,533.53 		"/>
		<rect x="145.57" y="530.72" transform="matrix(0.7071 -0.7071 0.7071 0.7071 -334.1086 261.9212)" width="7.1" height="7.1"/>
		<polygon points="138.08,550 149.12,550 138.08,533.54 		"/>
		<polygon points="193.16,549.87 182.21,533.53 171.18,550 215.14,550 204.1,533.53 		"/>
		<polygon points="226.17,533.54 215.14,550 226.17,550 		"/>
		<rect x="138.08" y="441.79" width="2.83" height="5.67"/>
		<rect x="146.28" y="480.62" transform="matrix(0.7071 -0.7071 0.7071 0.7071 -298.1775 247.0403)" width="5.67" height="5.67"/>
		<rect x="140.92" y="436.12" width="5.67" height="5.67"/>
		<rect x="138.08" y="430.45" width="2.83" height="5.67"/>
		<rect x="142.02" y="418.53" width="2" height="5.5"/>
		<rect x="162.28" y="465.47" width="5.67" height="5.67"/>
		<rect x="156.61" y="505.16" width="5.67" height="5.67"/>
		<rect x="196.3" y="499.49" width="5.67" height="5.67"/>
		<rect x="201.97" y="505.16" width="5.67" height="5.67"/>
		<rect x="184.96" y="488.15" width="5.67" height="5.67"/>
		<rect x="150.94" y="510.83" width="5.67" height="5.67"/>
		<rect x="190.63" y="493.82" width="5.67" height="5.67"/>
		<rect x="173.62" y="412.18" width="5.67" height="5.67"/>
		<rect x="207.64" y="510.83" width="5.67" height="5.67"/>
		<rect x="179.29" y="425.79" width="5.67" height="5.67"/>
		<rect x="207.64" y="454.13" width="5.67" height="5.67"/>
		<rect x="173.62" y="488.15" width="5.67" height="5.67"/>
		<rect x="162.28" y="499.49" width="5.67" height="5.67"/>
		<rect x="180.84" y="413.72" transform="matrix(0.7071 -0.7071 0.7071 0.7071 -240.1135 250.3363)" width="2.58" height="2.58"/>
		<rect x="167.95" y="471.14" width="5.67" height="5.67"/>
		<rect x="190.63" y="471.14" width="5.67" height="5.67"/>
		<rect x="184.96" y="476.81" width="5.67" height="5.67"/>
		<rect x="173.62" y="476.81" width="5.67" height="5.67"/>
		<rect x="167.95" y="493.82" width="5.67" height="5.67"/>
		<rect x="156.61" y="459.8" width="5.67" height="5.67"/>
		<rect x="196.3" y="465.47" width="5.67" height="5.67"/>
		<rect x="179.29" y="482.48" width="5.67" height="5.67"/>
	</g>
</g>
<g>
</g>
<g>
</g>
<g>
</g>
<g>
</g>
<g>
</g>
<g>
</g>
<g>
</g>
<g>
</g>
<g>
</g>
<g>
</g>
<g>
</g>
<g>
</g>
<g>
</g>
<g>
</g>
<g>
</g>
</svg>
