<?xml version="1.0" encoding="utf-8"?>
<!-- Generator: Adobe Illustrator 27.2.0, SVG Export Plug-In . SVG Version: 6.00 Build 0)  -->
<svg version="1.1" id="Layer_1" xmlns="http://www.w3.org/2000/svg" xmlns:xlink="http://www.w3.org/1999/xlink" x="0px" y="0px"
	 viewBox="0 0 800 600" style="enable-background:new 0 0 800 600;" xml:space="preserve">
<g>
	<g>
		<path d="M129.4,447.26c0,0-10.59,13.53,0.65,22.15C140.77,460.15,129.4,447.26,129.4,447.26z"/>
		<path d="M185.07,522.85c0,1.43,1.16,2.59,2.59,2.59v-21.27l-22.6-22.6l22.6-22.6V437.7c-1.43,0-2.59,1.16-2.59,2.59
			c0,1.08,0.66,2,1.59,2.39v8.95l-5.67-5.67c0.39-0.94,0.2-2.06-0.56-2.82c-1.01-1.01-2.66-1.01-3.67,0s-1.01,2.66,0,3.67
			c0.76,0.76,1.88,0.95,2.82,0.57l6.67,6.67l-0.02,0.02l1.05,1.05l-3.47,3.47l-7.93-7.93c0.38-0.94,0.2-2.06-0.57-2.82
			c-1.01-1.01-2.66-1.01-3.67,0c-1.01,1.01-1.01,2.66,0,3.67c0.76,0.76,1.88,0.95,2.82,0.56l7.93,7.93l-4.5,4.5l-7.93-7.93
			c0.38-0.94,0.2-2.06-0.57-2.82c-1.01-1.01-2.66-1.01-3.67,0s-1.01,2.66,0,3.67c0.76,0.76,1.88,0.95,2.82,0.56l7.93,7.93l-4.5,4.49
			l-7.93-7.93c0.38-0.94,0.2-2.06-0.57-2.82c-1.01-1.01-2.66-1.01-3.67,0s-1.01,2.66,0,3.67c0.76,0.76,1.88,0.95,2.82,0.56
			l7.93,7.93l-4.5,4.5l-7.93-7.93c0.38-0.94,0.2-2.06-0.57-2.82c-1.01-1.01-2.66-1.01-3.67,0s-1.01,2.66,0,3.67
			c0.76,0.76,1.88,0.95,2.82,0.57l7.93,7.93l-3.47,3.47l-1.05-1.05l-0.02,0.02l-6.67-6.67c0.39-0.94,0.2-2.06-0.56-2.82
			c-1.01-1.01-2.66-1.01-3.67,0s-1.01,2.66,0,3.67c0.76,0.76,1.88,0.95,2.82,0.57l5.67,5.67h-8.94c-0.39-0.94-1.32-1.59-2.39-1.59
			c-1.43,0-2.59,1.16-2.59,2.59c0,1.43,1.16,2.59,2.59,2.59c1.08,0,2-0.66,2.39-1.59h8.94l-5.67,5.67c-0.94-0.39-2.06-0.2-2.82,0.57
			c-1.01,1.01-1.01,2.66,0,3.67s2.66,1.01,3.67,0c0.76-0.76,0.95-1.88,0.57-2.82l6.67-6.67l0.02,0.02l1.05-1.05l3.47,3.47
			l-7.93,7.93c-0.94-0.39-2.06-0.2-2.82,0.56c-1.01,1.01-1.01,2.66,0,3.67s2.66,1.01,3.67,0c0.76-0.76,0.95-1.88,0.57-2.82
			l7.93-7.93l4.5,4.5l-7.93,7.93c-0.94-0.39-2.06-0.2-2.82,0.56c-1.01,1.01-1.01,2.66,0,3.67s2.66,1.01,3.67,0
			c0.76-0.76,0.95-1.88,0.57-2.82l7.93-7.93l4.5,4.49l-7.93,7.93c-0.94-0.39-2.06-0.2-2.82,0.56c-1.01,1.01-1.01,2.66,0,3.67
			s2.66,1.01,3.67,0c0.76-0.76,0.95-1.88,0.57-2.82l7.93-7.93l4.5,4.49l-7.93,7.93c-0.94-0.38-2.06-0.2-2.82,0.57
			c-1.01,1.01-1.01,2.66,0,3.67c1.01,1.01,2.66,1.01,3.67,0c0.76-0.76,0.95-1.88,0.56-2.82l7.93-7.93l3.47,3.47l-1.05,1.05
			l0.02,0.02l-6.67,6.67c-0.94-0.38-2.06-0.2-2.82,0.57c-1.01,1.01-1.01,2.66,0,3.67s2.66,1.01,3.67,0
			c0.76-0.76,0.95-1.88,0.56-2.82l5.67-5.67v8.95C185.73,520.85,185.07,521.78,185.07,522.85z"/>
		<path d="M183.11,395.55c0,2.51,2.04,4.56,4.56,4.56v-2c-1.41,0-2.56-1.15-2.56-2.56s1.15-2.56,2.56-2.56v-2
			C185.15,390.99,183.11,393.03,183.11,395.55z"/>
		<path d="M183.11,481.57c0,2.51,2.04,4.56,4.56,4.56v-2c-1.41,0-2.56-1.15-2.56-2.56s1.15-2.56,2.56-2.56v-2
			C185.15,477.02,183.11,479.06,183.11,481.57z"/>
		<polygon points="187.67,540.93 187.67,536.69 132.55,481.57 187.67,426.46 187.67,422.22 128.31,481.57 		"/>
		<polygon points="187.67,498.64 187.67,494.4 174.84,481.57 187.67,468.75 187.67,464.51 170.6,481.57 		"/>
		<path d="M183.81,335.67c0,2.13,1.73,3.86,3.86,3.86v-2c-1.02,0-1.86-0.83-1.86-1.86c0-1.02,0.83-1.86,1.86-1.86v-2
			C185.54,331.82,183.81,333.55,183.81,335.67z"/>
		<polygon points="50,464.51 50,468.75 62.82,481.57 50,494.4 50,498.64 67.06,481.57 		"/>
		<path d="M54.56,395.55c0-2.51-2.04-4.56-4.56-4.56v2c1.41,0,2.56,1.15,2.56,2.56s-1.15,2.56-2.56,2.56v2
			C52.51,400.1,54.56,398.06,54.56,395.55z"/>
		<polygon points="50,422.22 50,426.46 105.11,481.57 50,536.69 50,540.93 109.35,481.57 		"/>
		<polygon points="187.67,545.76 123.48,481.57 187.67,417.39 187.67,413.15 119.24,481.57 187.67,550 		"/>
		<path d="M54.56,481.57c0-2.51-2.04-4.56-4.56-4.56v2c1.41,0,2.56,1.15,2.56,2.56s-1.15,2.56-2.56,2.56v2
			C52.51,486.13,54.56,484.09,54.56,481.57z"/>
		<path d="M108.26,447.26c0,0-11.36,12.89-0.65,22.15C118.86,460.79,108.26,447.26,108.26,447.26z"/>
		<path d="M53.86,335.67c0-2.13-1.73-3.86-3.86-3.86v2c1.02,0,1.86,0.83,1.86,1.86c0,1.02-0.83,1.86-1.86,1.86v2
			C52.13,339.53,53.86,337.8,53.86,335.67z"/>
		<path d="M119.19,457.58c0,0-11.36,12.89-0.65,22.15C129.79,471.11,119.19,457.58,119.19,457.58z"/>
		<polygon points="50,413.15 50,417.39 114.18,481.57 50,545.76 50,550 118.43,481.57 		"/>
		<path d="M52.59,440.29c0-1.43-1.16-2.59-2.59-2.59v21.27l22.6,22.6L50,504.18v21.27c1.43,0,2.59-1.16,2.59-2.59
			c0-1.08-0.66-2-1.59-2.39v-8.94l5.67,5.67c-0.39,0.94-0.2,2.06,0.56,2.82c1.01,1.01,2.66,1.01,3.67,0c1.01-1.01,1.01-2.66,0-3.67
			c-0.76-0.76-1.88-0.95-2.82-0.57l-6.67-6.67l0.02-0.02l-1.05-1.05l3.47-3.47l7.93,7.93c-0.39,0.94-0.2,2.06,0.56,2.82
			c1.01,1.01,2.66,1.01,3.67,0s1.01-2.66,0-3.67c-0.76-0.76-1.88-0.95-2.82-0.57l-7.93-7.93l4.5-4.5l7.93,7.93
			c-0.38,0.94-0.2,2.06,0.57,2.82c1.01,1.01,2.66,1.01,3.67,0c1.01-1.01,1.01-2.66,0-3.67c-0.76-0.76-1.88-0.95-2.82-0.56
			l-7.93-7.93l4.5-4.5l7.93,7.93c-0.38,0.94-0.2,2.06,0.57,2.82c1.01,1.01,2.66,1.01,3.67,0c1.01-1.01,1.01-2.66,0-3.67
			c-0.76-0.76-1.88-0.95-2.82-0.56l-7.93-7.93l4.5-4.5l7.93,7.93c-0.38,0.94-0.2,2.06,0.57,2.82c1.01,1.01,2.66,1.01,3.67,0
			c1.01-1.01,1.01-2.66,0-3.67c-0.76-0.76-1.88-0.95-2.82-0.56l-7.93-7.93l3.47-3.47l1.05,1.05l0.02-0.02l6.67,6.67
			c-0.39,0.94-0.2,2.06,0.57,2.82c1.01,1.01,2.66,1.01,3.67,0c1.01-1.01,1.01-2.66,0-3.67c-0.76-0.76-1.88-0.95-2.82-0.57
			l-5.67-5.67h8.94c0.39,0.94,1.32,1.59,2.39,1.59c1.43,0,2.59-1.16,2.59-2.59c0-1.43-1.16-2.59-2.59-2.59c-1.08,0-2,0.66-2.39,1.59
			h-8.94l5.67-5.67c0.94,0.38,2.06,0.2,2.82-0.57c1.01-1.01,1.01-2.66,0-3.67c-1.01-1.01-2.66-1.01-3.67,0
			c-0.76,0.76-0.95,1.88-0.56,2.82l-6.67,6.67l-0.02-0.02l-1.05,1.05l-3.47-3.47l7.93-7.93c0.94,0.38,2.06,0.2,2.82-0.57
			c1.01-1.01,1.01-2.66,0-3.67c-1.01-1.01-2.66-1.01-3.67,0c-0.76,0.76-0.95,1.88-0.56,2.82l-7.93,7.93l-4.5-4.5l7.93-7.93
			c0.94,0.38,2.06,0.2,2.82-0.57c1.01-1.01,1.01-2.66,0-3.67c-1.01-1.01-2.66-1.01-3.67,0c-0.76,0.76-0.95,1.88-0.57,2.82
			l-7.93,7.93l-4.5-4.5l7.93-7.93c0.94,0.38,2.06,0.2,2.82-0.57c1.01-1.01,1.01-2.66,0-3.67c-1.01-1.01-2.66-1.01-3.67,0
			c-0.76,0.76-0.95,1.88-0.57,2.82l-7.93,7.93l-4.5-4.5l7.93-7.93c0.94,0.39,2.06,0.2,2.82-0.56c1.01-1.01,1.01-2.66,0-3.67
			s-2.66-1.01-3.67,0c-0.76,0.76-0.95,1.88-0.57,2.82l-7.93,7.93l-3.47-3.47l1.05-1.05l-0.02-0.02l6.67-6.67
			c0.94,0.39,2.06,0.2,2.82-0.56c1.01-1.01,1.01-2.66,0-3.67c-1.01-1.01-2.66-1.01-3.67,0c-0.76,0.76-0.95,1.88-0.57,2.82L51,451.63
			v-8.94C51.94,442.3,52.59,441.37,52.59,440.29z"/>
		<path d="M63.91,425.7c11.24-8.62,0.65-22.15,0.65-22.15S53.19,416.44,63.91,425.7z"/>
		<path d="M89.79,537.24c-0.76,0.76-0.95,1.88-0.56,2.82l-5.67,5.67v-8.94c0.94-0.39,1.59-1.32,1.59-2.39
			c0-1.43-1.16-2.59-2.59-2.59s-2.59,1.16-2.59,2.59c0,1.08,0.66,2,1.59,2.39v8.95l-5.67-5.67c0.39-0.94,0.2-2.06-0.56-2.82
			c-1.01-1.01-2.66-1.01-3.67,0c-1.01,1.01-1.01,2.66,0,3.67c0.76,0.76,1.88,0.95,2.82,0.57l6.67,6.67l-0.02,0.02l1.41,1.41
			l0.02-0.02l0.02,0.02l1.41-1.41l-0.02-0.02l6.67-6.67c0.94,0.38,2.06,0.2,2.82-0.57c1.01-1.01,1.01-2.66,0-3.67
			C92.45,536.23,90.8,536.23,89.79,537.24z"/>
		<path d="M50,325.79l9.89,9.89L50,345.56v37.17l12.82,12.82L50,408.37v4.24l17.06-17.06l-16.79-16.79l1.16-1.16l-0.02-0.02
			l6.67-6.67c0.94,0.38,2.06,0.2,2.82-0.57c1.01-1.01,1.01-2.66,0-3.67c-1.01-1.01-2.66-1.01-3.67,0c-0.76,0.76-0.95,1.88-0.57,2.82
			L51,375.17v-9.52l0.43-0.43l-0.02-0.02l6.67-6.67c0.94,0.38,2.06,0.2,2.82-0.57c1.01-1.01,1.01-2.66,0-3.67
			c-1.01-1.01-2.66-1.01-3.67,0c-0.76,0.76-0.95,1.88-0.57,2.82L51,362.78v-13.93h-0.04l13.17-13.17L50.7,322.25l0.73-0.73
			l-0.02-0.02l6.67-6.67c0.94,0.39,2.06,0.2,2.82-0.56c1.01-1.01,1.01-2.66,0-3.67c-1.01-1.01-2.66-1.01-3.67,0
			c-0.76,0.76-0.95,1.88-0.57,2.82L51,319.09v-8.94c0.94-0.39,1.59-1.32,1.59-2.39c0-1.43-1.16-2.59-2.59-2.59V325.79z"/>
		<path d="M74.84,436.63c11.24-8.62,0.65-22.15,0.65-22.15S64.12,427.37,74.84,436.63z"/>
		<path d="M85.76,447.56c11.24-8.62,0.65-22.15,0.65-22.15S75.05,438.3,85.76,447.56z"/>
		<path d="M114.28,532.29c0,2.51,2.04,4.56,4.56,4.56c2.51,0,4.56-2.04,4.56-4.56s-2.04-4.56-4.56-4.56
			C116.32,527.74,114.28,529.78,114.28,532.29z M121.39,532.29c0,1.41-1.15,2.56-2.56,2.56s-2.56-1.15-2.56-2.56
			s1.15-2.56,2.56-2.56S121.39,530.88,121.39,532.29z"/>
		<path d="M162.35,537.24c-0.76,0.76-0.95,1.88-0.56,2.82l-5.67,5.67v-8.95c0.94-0.39,1.59-1.31,1.59-2.39
			c0-1.43-1.16-2.59-2.59-2.59s-2.59,1.16-2.59,2.59c0,1.08,0.66,2,1.59,2.39v8.94l-5.67-5.67c0.39-0.94,0.2-2.06-0.56-2.82
			c-1.01-1.01-2.66-1.01-3.67,0c-1.01,1.01-1.01,2.66,0,3.67c0.76,0.76,1.88,0.95,2.82,0.57l6.67,6.67l-0.02,0.02l1.41,1.41
			l0.02-0.02l0.02,0.02l1.41-1.41l-0.02-0.02l6.67-6.67c0.94,0.38,2.06,0.2,2.82-0.57c1.01-1.01,1.01-2.66,0-3.67
			C165,536.23,163.36,536.23,162.35,537.24z"/>
		<path d="M146.15,524.13c1.01-1.01,1.01-2.66,0-3.67c-1.01-1.01-2.66-1.01-3.67,0c-0.76,0.76-0.95,1.88-0.57,2.82l-7.52,7.52
			l-4.5-4.49l7.52-7.52c0.94,0.39,2.06,0.2,2.82-0.56c1.01-1.01,1.01-2.66,0-3.67s-2.66-1.01-3.67,0c-0.76,0.76-0.95,1.88-0.57,2.82
			l-7.52,7.52l-4.5-4.49l7.52-7.52c0.94,0.38,2.06,0.2,2.82-0.57c1.01-1.01,1.01-2.66,0-3.67s-2.66-1.01-3.67,0
			c-0.76,0.76-0.95,1.88-0.56,2.82l-7.52,7.52l-3.2-3.2l0.89-0.89l-0.02-0.02l6.67-6.67c0.94,0.39,2.06,0.2,2.82-0.56
			c1.01-1.01,1.01-2.66,0-3.67c-1.01-1.01-2.66-1.01-3.67,0c-0.76,0.76-0.95,1.88-0.57,2.82l-5.67,5.67v-8.94
			c0.94-0.39,1.59-1.31,1.59-2.39c0-1.43-1.16-2.59-2.59-2.59s-2.59,1.16-2.59,2.59c0,1.08,0.66,2,1.59,2.39v8.94l-5.67-5.67
			c0.38-0.94,0.2-2.06-0.57-2.82c-1.01-1.01-2.66-1.01-3.67,0s-1.01,2.66,0,3.67c0.76,0.76,1.88,0.95,2.82,0.56l6.67,6.67
			l-0.02,0.02l0.89,0.89l-3.2,3.2l-7.52-7.52c0.39-0.94,0.2-2.06-0.56-2.82c-1.01-1.01-2.66-1.01-3.67,0
			c-1.01,1.01-1.01,2.66,0,3.67c0.76,0.76,1.88,0.95,2.82,0.57l7.52,7.52l-4.5,4.49l-7.52-7.52c0.38-0.94,0.2-2.06-0.57-2.82
			c-1.01-1.01-2.66-1.01-3.67,0c-1.01,1.01-1.01,2.66,0,3.67c0.76,0.76,1.88,0.95,2.82,0.56l7.52,7.52l-4.5,4.49l-7.52-7.52
			c0.38-0.94,0.2-2.06-0.57-2.82c-1.01-1.01-2.66-1.01-3.67,0c-1.01,1.01-1.01,2.66,0,3.67c0.76,0.76,1.88,0.95,2.82,0.56l7.52,7.52
			l-0.08,0.08l17.06,17.06l17.06-17.06l-0.08-0.08l7.52-7.52C144.27,525.08,145.39,524.89,146.15,524.13z M118.83,545.11
			l-12.82-12.82l12.82-12.82l12.82,12.82L118.83,545.11z"/>
		<path d="M151.9,447.56c10.72-9.26-0.65-22.15-0.65-22.15S140.66,438.94,151.9,447.56z"/>
		<path d="M162.83,436.63c10.72-9.26-0.65-22.15-0.65-22.15S151.59,428.01,162.83,436.63z"/>
		<path d="M140.97,458.48c10.72-9.26-0.65-22.15-0.65-22.15S129.74,449.86,140.97,458.48z"/>
		<path d="M187.67,412.61v-4.24l-12.82-12.82l12.82-12.82v-37.17l-9.89-9.89l9.89-9.89v-20.64c-1.43,0-2.59,1.16-2.59,2.59
			c0,1.08,0.66,2,1.59,2.39v8.95l-5.67-5.67c0.39-0.94,0.2-2.06-0.56-2.82c-1.01-1.01-2.66-1.01-3.67,0c-1.01,1.01-1.01,2.66,0,3.67
			c0.76,0.76,1.88,0.95,2.82,0.57l6.67,6.67l-0.02,0.02l0.73,0.73l-13.43,13.43l13.17,13.17h-0.04v13.93l-5.67-5.67
			c0.39-0.94,0.2-2.06-0.56-2.82c-1.01-1.01-2.66-1.01-3.67,0s-1.01,2.66,0,3.67c0.76,0.76,1.88,0.95,2.82,0.57l6.67,6.67
			l-0.02,0.02l0.43,0.43v9.52l-5.67-5.67c0.39-0.94,0.2-2.06-0.56-2.82c-1.01-1.01-2.66-1.01-3.67,0c-1.01,1.01-1.01,2.66,0,3.67
			c0.76,0.76,1.88,0.95,2.82,0.57l6.67,6.67l-0.02,0.02l1.16,1.16l-16.79,16.79L187.67,412.61z"/>
		<path d="M173.76,425.7c10.72-9.26-0.65-22.15-0.65-22.15S162.52,417.08,173.76,425.7z"/>
		<path d="M122.69,374.34c0-2.13-1.73-3.86-3.86-3.86s-3.86,1.73-3.86,3.86s1.73,3.86,3.86,3.86S122.69,376.47,122.69,374.34z
			 M116.98,374.34c0-1.02,0.83-1.86,1.86-1.86s1.86,0.83,1.86,1.86c0,1.02-0.83,1.86-1.86,1.86S116.98,375.37,116.98,374.34z"/>
		<path d="M118.83,451.28l17.06-17.06l-16.79-16.79l1.16-1.16l-0.02-0.02l6.67-6.67c0.94,0.38,2.06,0.2,2.82-0.57
			c1.01-1.01,1.01-2.66,0-3.67c-1.01-1.01-2.66-1.01-3.67,0c-0.76,0.76-0.95,1.88-0.56,2.82l-5.67,5.67v-9.52l0.43-0.43l-0.02-0.02
			l6.67-6.67c0.94,0.38,2.06,0.2,2.82-0.57c1.01-1.01,1.01-2.66,0-3.67c-1.01-1.01-2.66-1.01-3.67,0c-0.76,0.76-0.95,1.88-0.56,2.82
			l-5.67,5.67v-13.93h-0.04l13.17-13.17l-13.43-13.43l0.73-0.73l-0.02-0.02l6.67-6.67c0.94,0.38,2.06,0.2,2.82-0.57
			c1.01-1.01,1.01-2.66,0-3.67c-1.01-1.01-2.66-1.01-3.67,0c-0.76,0.76-0.95,1.88-0.57,2.82l-5.67,5.67v-8.94
			c0.94-0.39,1.59-1.31,1.59-2.39c0-1.43-1.16-2.59-2.59-2.59s-2.59,1.16-2.59,2.59c0,1.08,0.66,2,1.59,2.39v8.94l-5.67-5.67
			c0.38-0.94,0.2-2.06-0.57-2.82c-1.01-1.01-2.66-1.01-3.67,0s-1.01,2.66,0,3.67c0.76,0.76,1.88,0.95,2.82,0.56l6.67,6.67
			l-0.02,0.02l0.73,0.73l-13.43,13.43l13.17,13.17h-0.04v13.93l-5.67-5.67c0.38-0.94,0.2-2.06-0.57-2.82
			c-1.01-1.01-2.66-1.01-3.67,0c-1.01,1.01-1.01,2.66,0,3.67c0.76,0.76,1.88,0.95,2.82,0.57l6.67,6.67l-0.02,0.02l0.43,0.43v9.52
			l-5.67-5.67c0.38-0.94,0.2-2.06-0.57-2.82c-1.01-1.01-2.66-1.01-3.67,0c-1.01,1.01-1.01,2.66,0,3.67
			c0.76,0.76,1.88,0.95,2.82,0.57l6.67,6.67l-0.02,0.02l1.16,1.16l-16.79,16.79L118.83,451.28z M108.95,374.34l9.89-9.89l9.89,9.89
			l-9.89,9.89L108.95,374.34z M118.83,421.4l12.82,12.82l-12.82,12.82l-12.82-12.82L118.83,421.4z"/>
		<path d="M118.83,438.77c2.51,0,4.56-2.04,4.56-4.56s-2.04-4.56-4.56-4.56c-2.51,0-4.56,2.04-4.56,4.56
			S116.32,438.77,118.83,438.77z M118.83,431.66c1.41,0,2.56,1.15,2.56,2.56s-1.15,2.56-2.56,2.56s-2.56-1.15-2.56-2.56
			S117.42,431.66,118.83,431.66z"/>
		<path d="M96.69,458.48c11.24-8.62,0.65-22.15,0.65-22.15S85.97,449.22,96.69,458.48z"/>
	</g>
	<g>
		<path d="M267.07,447.26c0,0-10.59,13.53,0.65,22.15C278.43,460.15,267.07,447.26,267.07,447.26z"/>
		<path d="M322.74,522.85c0,1.43,1.16,2.59,2.59,2.59v-21.27l-22.6-22.6l22.6-22.6V437.7c-1.43,0-2.59,1.16-2.59,2.59
			c0,1.08,0.66,2,1.59,2.39v8.95l-5.67-5.67c0.39-0.94,0.2-2.06-0.56-2.82c-1.01-1.01-2.66-1.01-3.67,0s-1.01,2.66,0,3.67
			c0.76,0.76,1.88,0.95,2.82,0.57l6.67,6.67l-0.02,0.02l1.05,1.05l-3.47,3.47l-7.93-7.93c0.38-0.94,0.2-2.06-0.57-2.82
			c-1.01-1.01-2.66-1.01-3.67,0c-1.01,1.01-1.01,2.66,0,3.67c0.76,0.76,1.88,0.95,2.82,0.56l7.93,7.93l-4.5,4.5l-7.93-7.93
			c0.38-0.94,0.2-2.06-0.57-2.82c-1.01-1.01-2.66-1.01-3.67,0s-1.01,2.66,0,3.67c0.76,0.76,1.88,0.95,2.82,0.56l7.93,7.93l-4.5,4.49
			l-7.93-7.93c0.38-0.94,0.2-2.06-0.57-2.82c-1.01-1.01-2.66-1.01-3.67,0s-1.01,2.66,0,3.67c0.76,0.76,1.88,0.95,2.82,0.56
			l7.93,7.93l-4.5,4.5l-7.93-7.93c0.38-0.94,0.2-2.06-0.57-2.82c-1.01-1.01-2.66-1.01-3.67,0s-1.01,2.66,0,3.67
			c0.76,0.76,1.88,0.95,2.82,0.57l7.93,7.93l-3.47,3.47l-1.05-1.05l-0.02,0.02l-6.67-6.67c0.39-0.94,0.2-2.06-0.56-2.82
			c-1.01-1.01-2.66-1.01-3.67,0s-1.01,2.66,0,3.67c0.76,0.76,1.88,0.95,2.82,0.57l5.67,5.67h-8.94c-0.39-0.94-1.32-1.59-2.39-1.59
			c-1.43,0-2.59,1.16-2.59,2.59c0,1.43,1.16,2.59,2.59,2.59c1.08,0,2-0.66,2.39-1.59h8.94l-5.67,5.67c-0.94-0.39-2.06-0.2-2.82,0.57
			c-1.01,1.01-1.01,2.66,0,3.67s2.66,1.01,3.67,0c0.76-0.76,0.95-1.88,0.57-2.82l6.67-6.67l0.02,0.02l1.05-1.05l3.47,3.47
			l-7.93,7.93c-0.94-0.39-2.06-0.2-2.82,0.56c-1.01,1.01-1.01,2.66,0,3.67s2.66,1.01,3.67,0c0.76-0.76,0.95-1.88,0.57-2.82
			l7.93-7.93l4.5,4.5l-7.93,7.93c-0.94-0.39-2.06-0.2-2.82,0.56c-1.01,1.01-1.01,2.66,0,3.67s2.66,1.01,3.67,0
			c0.76-0.76,0.95-1.88,0.57-2.82l7.93-7.93l4.5,4.49l-7.93,7.93c-0.94-0.39-2.06-0.2-2.82,0.56c-1.01,1.01-1.01,2.66,0,3.67
			s2.66,1.01,3.67,0c0.76-0.76,0.95-1.88,0.57-2.82l7.93-7.93l4.5,4.49l-7.93,7.93c-0.94-0.38-2.06-0.2-2.82,0.57
			c-1.01,1.01-1.01,2.66,0,3.67c1.01,1.01,2.66,1.01,3.67,0c0.76-0.76,0.95-1.88,0.56-2.82l7.93-7.93l3.47,3.47l-1.05,1.05
			l0.02,0.02l-6.67,6.67c-0.94-0.38-2.06-0.2-2.82,0.57c-1.01,1.01-1.01,2.66,0,3.67s2.66,1.01,3.67,0
			c0.76-0.76,0.95-1.88,0.56-2.82l5.67-5.67v8.95C323.39,520.85,322.74,521.78,322.74,522.85z"/>
		<path d="M320.77,395.55c0,2.51,2.04,4.56,4.56,4.56v-2c-1.41,0-2.56-1.15-2.56-2.56s1.15-2.56,2.56-2.56v-2
			C322.82,390.99,320.77,393.03,320.77,395.55z"/>
		<path d="M320.77,481.57c0,2.51,2.04,4.56,4.56,4.56v-2c-1.41,0-2.56-1.15-2.56-2.56s1.15-2.56,2.56-2.56v-2
			C322.82,477.02,320.77,479.06,320.77,481.57z"/>
		<polygon points="325.33,540.93 325.33,536.69 270.22,481.57 325.33,426.46 325.33,422.22 265.98,481.57 		"/>
		<polygon points="325.33,498.64 325.33,494.4 312.51,481.57 325.33,468.75 325.33,464.51 308.27,481.57 		"/>
		<path d="M321.47,335.67c0,2.13,1.73,3.86,3.86,3.86v-2c-1.02,0-1.86-0.83-1.86-1.86c0-1.02,0.83-1.86,1.86-1.86v-2
			C323.2,331.82,321.47,333.55,321.47,335.67z"/>
		<polygon points="187.66,464.51 187.66,468.75 200.49,481.57 187.66,494.4 187.66,498.64 204.73,481.57 		"/>
		<path d="M192.22,395.55c0-2.51-2.04-4.56-4.56-4.56v2c1.41,0,2.56,1.15,2.56,2.56s-1.15,2.56-2.56,2.56v2
			C190.18,400.1,192.22,398.06,192.22,395.55z"/>
		<polygon points="187.66,422.22 187.66,426.46 242.78,481.57 187.66,536.69 187.66,540.93 247.02,481.57 		"/>
		<polygon points="325.33,545.76 261.15,481.57 325.33,417.39 325.33,413.15 256.9,481.57 325.33,550 		"/>
		<path d="M192.22,481.57c0-2.51-2.04-4.56-4.56-4.56v2c1.41,0,2.56,1.15,2.56,2.56s-1.15,2.56-2.56,2.56v2
			C190.18,486.13,192.22,484.09,192.22,481.57z"/>
		<path d="M245.93,447.26c0,0-11.36,12.89-0.65,22.15C256.52,460.79,245.93,447.26,245.93,447.26z"/>
		<path d="M191.52,335.67c0-2.13-1.73-3.86-3.86-3.86v2c1.02,0,1.86,0.83,1.86,1.86c0,1.02-0.83,1.86-1.86,1.86v2
			C189.79,339.53,191.52,337.8,191.52,335.67z"/>
		<path d="M256.86,457.58c0,0-11.36,12.89-0.65,22.15C267.45,471.11,256.86,457.58,256.86,457.58z"/>
		<polygon points="187.66,413.15 187.66,417.39 251.85,481.57 187.66,545.76 187.66,550 256.09,481.57 		"/>
		<path d="M190.26,440.29c0-1.43-1.16-2.59-2.59-2.59v21.27l22.6,22.6l-22.6,22.6v21.27c1.43,0,2.59-1.16,2.59-2.59
			c0-1.08-0.66-2-1.59-2.39v-8.94l5.67,5.67c-0.39,0.94-0.2,2.06,0.56,2.82c1.01,1.01,2.66,1.01,3.67,0c1.01-1.01,1.01-2.66,0-3.67
			c-0.76-0.76-1.88-0.95-2.82-0.57l-6.67-6.67l0.02-0.02l-1.05-1.05l3.47-3.47l7.93,7.93c-0.39,0.94-0.2,2.06,0.56,2.82
			c1.01,1.01,2.66,1.01,3.67,0s1.01-2.66,0-3.67c-0.76-0.76-1.88-0.95-2.82-0.57l-7.93-7.93l4.5-4.5l7.93,7.93
			c-0.38,0.94-0.2,2.06,0.57,2.82c1.01,1.01,2.66,1.01,3.67,0c1.01-1.01,1.01-2.66,0-3.67c-0.76-0.76-1.88-0.95-2.82-0.56
			l-7.93-7.93l4.5-4.5l7.93,7.93c-0.38,0.94-0.2,2.06,0.57,2.82c1.01,1.01,2.66,1.01,3.67,0c1.01-1.01,1.01-2.66,0-3.67
			c-0.76-0.76-1.88-0.95-2.82-0.56l-7.93-7.93l4.5-4.5l7.93,7.93c-0.38,0.94-0.2,2.06,0.57,2.82c1.01,1.01,2.66,1.01,3.67,0
			c1.01-1.01,1.01-2.66,0-3.67c-0.76-0.76-1.88-0.95-2.82-0.56l-7.93-7.93l3.47-3.47l1.05,1.05l0.02-0.02l6.67,6.67
			c-0.39,0.94-0.2,2.06,0.57,2.82c1.01,1.01,2.66,1.01,3.67,0c1.01-1.01,1.01-2.66,0-3.67c-0.76-0.76-1.88-0.95-2.82-0.57
			l-5.67-5.67h8.94c0.39,0.94,1.32,1.59,2.39,1.59c1.43,0,2.59-1.16,2.59-2.59c0-1.43-1.16-2.59-2.59-2.59c-1.08,0-2,0.66-2.39,1.59
			h-8.94l5.67-5.67c0.94,0.38,2.06,0.2,2.82-0.57c1.01-1.01,1.01-2.66,0-3.67c-1.01-1.01-2.66-1.01-3.67,0
			c-0.76,0.76-0.95,1.88-0.56,2.82l-6.67,6.67l-0.02-0.02l-1.05,1.05l-3.47-3.47l7.93-7.93c0.94,0.38,2.06,0.2,2.82-0.57
			c1.01-1.01,1.01-2.66,0-3.67c-1.01-1.01-2.66-1.01-3.67,0c-0.76,0.76-0.95,1.88-0.56,2.82l-7.93,7.93l-4.5-4.5l7.93-7.93
			c0.94,0.38,2.06,0.2,2.82-0.57c1.01-1.01,1.01-2.66,0-3.67c-1.01-1.01-2.66-1.01-3.67,0c-0.76,0.76-0.95,1.88-0.57,2.82
			l-7.93,7.93l-4.5-4.5l7.93-7.93c0.94,0.38,2.06,0.2,2.82-0.57c1.01-1.01,1.01-2.66,0-3.67c-1.01-1.01-2.66-1.01-3.67,0
			c-0.76,0.76-0.95,1.88-0.57,2.82l-7.93,7.93l-4.5-4.5l7.93-7.93c0.94,0.39,2.06,0.2,2.82-0.56c1.01-1.01,1.01-2.66,0-3.67
			s-2.66-1.01-3.67,0c-0.76,0.76-0.95,1.88-0.57,2.82l-7.93,7.93l-3.47-3.47l1.05-1.05l-0.02-0.02l6.67-6.67
			c0.94,0.39,2.06,0.2,2.82-0.56c1.01-1.01,1.01-2.66,0-3.67c-1.01-1.01-2.66-1.01-3.67,0c-0.76,0.76-0.95,1.88-0.57,2.82
			l-5.67,5.67v-8.94C189.6,442.3,190.26,441.37,190.26,440.29z"/>
		<path d="M201.57,425.7c11.24-8.62,0.65-22.15,0.65-22.15S190.86,416.44,201.57,425.7z"/>
		<path d="M227.46,537.24c-0.76,0.76-0.95,1.88-0.56,2.82l-5.67,5.67v-8.94c0.94-0.39,1.59-1.32,1.59-2.39
			c0-1.43-1.16-2.59-2.59-2.59s-2.59,1.16-2.59,2.59c0,1.08,0.66,2,1.59,2.39v8.95l-5.67-5.67c0.39-0.94,0.2-2.06-0.56-2.82
			c-1.01-1.01-2.66-1.01-3.67,0c-1.01,1.01-1.01,2.66,0,3.67c0.76,0.76,1.88,0.95,2.82,0.57l6.67,6.67l-0.02,0.02l1.41,1.41
			l0.02-0.02l0.02,0.02l1.41-1.41l-0.02-0.02l6.67-6.67c0.94,0.38,2.06,0.2,2.82-0.57c1.01-1.01,1.01-2.66,0-3.67
			C230.11,536.23,228.47,536.23,227.46,537.24z"/>
		<path d="M187.66,325.79l9.89,9.89l-9.89,9.89v37.17l12.82,12.82l-12.82,12.82v4.24l17.06-17.06l-16.79-16.79l1.16-1.16l-0.02-0.02
			l6.67-6.67c0.94,0.38,2.06,0.2,2.82-0.57c1.01-1.01,1.01-2.66,0-3.67c-1.01-1.01-2.66-1.01-3.67,0c-0.76,0.76-0.95,1.88-0.57,2.82
			l-5.67,5.67v-9.52l0.43-0.43l-0.02-0.02l6.67-6.67c0.94,0.38,2.06,0.2,2.82-0.57c1.01-1.01,1.01-2.66,0-3.67
			c-1.01-1.01-2.66-1.01-3.67,0c-0.76,0.76-0.95,1.88-0.57,2.82l-5.67,5.67v-13.93h-0.04l13.17-13.17l-13.43-13.43l0.73-0.73
			l-0.02-0.02l6.67-6.67c0.94,0.39,2.06,0.2,2.82-0.56c1.01-1.01,1.01-2.66,0-3.67c-1.01-1.01-2.66-1.01-3.67,0
			c-0.76,0.76-0.95,1.88-0.57,2.82l-5.67,5.67v-8.94c0.94-0.39,1.59-1.32,1.59-2.39c0-1.43-1.16-2.59-2.59-2.59V325.79z"/>
		<path d="M212.5,436.63c11.24-8.62,0.65-22.15,0.65-22.15S201.78,427.37,212.5,436.63z"/>
		<path d="M223.43,447.56c11.24-8.62,0.65-22.15,0.65-22.15S212.71,438.3,223.43,447.56z"/>
		<path d="M251.94,532.29c0,2.51,2.04,4.56,4.56,4.56c2.51,0,4.56-2.04,4.56-4.56s-2.04-4.56-4.56-4.56
			C253.99,527.74,251.94,529.78,251.94,532.29z M259.05,532.29c0,1.41-1.15,2.56-2.56,2.56c-1.41,0-2.56-1.15-2.56-2.56
			s1.15-2.56,2.56-2.56C257.91,529.74,259.05,530.88,259.05,532.29z"/>
		<path d="M300.01,537.24c-0.76,0.76-0.95,1.88-0.56,2.82l-5.67,5.67v-8.95c0.94-0.39,1.59-1.31,1.59-2.39
			c0-1.43-1.16-2.59-2.59-2.59s-2.59,1.16-2.59,2.59c0,1.08,0.66,2,1.59,2.39v8.94l-5.67-5.67c0.39-0.94,0.2-2.06-0.56-2.82
			c-1.01-1.01-2.66-1.01-3.67,0c-1.01,1.01-1.01,2.66,0,3.67c0.76,0.76,1.88,0.95,2.82,0.57l6.67,6.67l-0.02,0.02l1.41,1.41
			l0.02-0.02l0.02,0.02l1.41-1.41l-0.02-0.02l6.67-6.67c0.94,0.38,2.06,0.2,2.82-0.57c1.01-1.01,1.01-2.66,0-3.67
			C302.67,536.23,301.02,536.23,300.01,537.24z"/>
		<path d="M283.82,524.13c1.01-1.01,1.01-2.66,0-3.67c-1.01-1.01-2.66-1.01-3.67,0c-0.76,0.76-0.95,1.88-0.57,2.82l-7.52,7.52
			l-4.5-4.49l7.52-7.52c0.94,0.39,2.06,0.2,2.82-0.56c1.01-1.01,1.01-2.66,0-3.67s-2.66-1.01-3.67,0c-0.76,0.76-0.95,1.88-0.57,2.82
			l-7.52,7.52l-4.5-4.49l7.52-7.52c0.94,0.38,2.06,0.2,2.82-0.57c1.01-1.01,1.01-2.66,0-3.67s-2.66-1.01-3.67,0
			c-0.76,0.76-0.95,1.88-0.56,2.82l-7.52,7.52l-3.2-3.2l0.89-0.89l-0.02-0.02l6.67-6.67c0.94,0.39,2.06,0.2,2.82-0.56
			c1.01-1.01,1.01-2.66,0-3.67c-1.01-1.01-2.66-1.01-3.67,0c-0.76,0.76-0.95,1.88-0.57,2.82l-5.67,5.67v-8.94
			c0.94-0.39,1.59-1.31,1.59-2.39c0-1.43-1.16-2.59-2.59-2.59c-1.43,0-2.59,1.16-2.59,2.59c0,1.08,0.66,2,1.59,2.39v8.94l-5.67-5.67
			c0.38-0.94,0.2-2.06-0.57-2.82c-1.01-1.01-2.66-1.01-3.67,0s-1.01,2.66,0,3.67c0.76,0.76,1.88,0.95,2.82,0.56l6.67,6.67
			l-0.02,0.02l0.89,0.89l-3.2,3.2l-7.52-7.52c0.39-0.94,0.2-2.06-0.56-2.82c-1.01-1.01-2.66-1.01-3.67,0
			c-1.01,1.01-1.01,2.66,0,3.67c0.76,0.76,1.88,0.95,2.82,0.57l7.52,7.52l-4.5,4.49l-7.52-7.52c0.38-0.94,0.2-2.06-0.57-2.82
			c-1.01-1.01-2.66-1.01-3.67,0c-1.01,1.01-1.01,2.66,0,3.67c0.76,0.76,1.88,0.95,2.82,0.56l7.52,7.52l-4.5,4.49l-7.52-7.52
			c0.38-0.94,0.2-2.06-0.57-2.82c-1.01-1.01-2.66-1.01-3.67,0c-1.01,1.01-1.01,2.66,0,3.67c0.76,0.76,1.88,0.95,2.82,0.56l7.52,7.52
			l-0.08,0.08l17.06,17.06l17.06-17.06l-0.08-0.08l7.52-7.52C281.94,525.08,283.06,524.89,283.82,524.13z M256.5,545.11
			l-12.82-12.82l12.82-12.82l12.82,12.82L256.5,545.11z"/>
		<path d="M289.57,447.56c10.72-9.26-0.65-22.15-0.65-22.15S278.33,438.94,289.57,447.56z"/>
		<path d="M300.49,436.63c10.72-9.26-0.65-22.15-0.65-22.15S289.25,428.01,300.49,436.63z"/>
		<path d="M278.64,458.48c10.72-9.26-0.65-22.15-0.65-22.15S267.4,449.86,278.64,458.48z"/>
		<path d="M325.33,412.61v-4.24l-12.82-12.82l12.82-12.82v-37.17l-9.89-9.89l9.89-9.89v-20.64c-1.43,0-2.59,1.16-2.59,2.59
			c0,1.08,0.66,2,1.59,2.39v8.95l-5.67-5.67c0.39-0.94,0.2-2.06-0.56-2.82c-1.01-1.01-2.66-1.01-3.67,0c-1.01,1.01-1.01,2.66,0,3.67
			c0.76,0.76,1.88,0.95,2.82,0.57l6.67,6.67l-0.02,0.02l0.73,0.73l-13.43,13.43l13.17,13.17h-0.04v13.93l-5.67-5.67
			c0.39-0.94,0.2-2.06-0.56-2.82c-1.01-1.01-2.66-1.01-3.67,0s-1.01,2.66,0,3.67c0.76,0.76,1.88,0.95,2.82,0.57l6.67,6.67
			l-0.02,0.02l0.43,0.43v9.52l-5.67-5.67c0.39-0.94,0.2-2.06-0.56-2.82c-1.01-1.01-2.66-1.01-3.67,0c-1.01,1.01-1.01,2.66,0,3.67
			c0.76,0.76,1.88,0.95,2.82,0.57l6.67,6.67l-0.02,0.02l1.16,1.16l-16.79,16.79L325.33,412.61z"/>
		<path d="M311.42,425.7c10.72-9.26-0.65-22.15-0.65-22.15S300.18,417.08,311.42,425.7z"/>
		<path d="M260.35,374.34c0-2.13-1.73-3.86-3.86-3.86c-2.13,0-3.86,1.73-3.86,3.86s1.73,3.86,3.86,3.86
			C258.62,378.2,260.35,376.47,260.35,374.34z M254.64,374.34c0-1.02,0.83-1.86,1.86-1.86c1.02,0,1.86,0.83,1.86,1.86
			c0,1.02-0.83,1.86-1.86,1.86C255.47,376.2,254.64,375.37,254.64,374.34z"/>
		<path d="M256.5,451.28l17.06-17.06l-16.79-16.79l1.16-1.16l-0.02-0.02l6.67-6.67c0.94,0.38,2.06,0.2,2.82-0.57
			c1.01-1.01,1.01-2.66,0-3.67c-1.01-1.01-2.66-1.01-3.67,0c-0.76,0.76-0.95,1.88-0.56,2.82l-5.67,5.67v-9.52l0.43-0.43l-0.02-0.02
			l6.67-6.67c0.94,0.38,2.06,0.2,2.82-0.57c1.01-1.01,1.01-2.66,0-3.67c-1.01-1.01-2.66-1.01-3.67,0c-0.76,0.76-0.95,1.88-0.56,2.82
			l-5.67,5.67v-13.93h-0.04l13.17-13.17l-13.43-13.43l0.73-0.73l-0.02-0.02l6.67-6.67c0.94,0.38,2.06,0.2,2.82-0.57
			c1.01-1.01,1.01-2.66,0-3.67c-1.01-1.01-2.66-1.01-3.67,0c-0.76,0.76-0.95,1.88-0.57,2.82l-5.67,5.67v-8.94
			c0.94-0.39,1.59-1.31,1.59-2.39c0-1.43-1.16-2.59-2.59-2.59c-1.43,0-2.59,1.16-2.59,2.59c0,1.08,0.66,2,1.59,2.39v8.94l-5.67-5.67
			c0.38-0.94,0.2-2.06-0.57-2.82c-1.01-1.01-2.66-1.01-3.67,0s-1.01,2.66,0,3.67c0.76,0.76,1.88,0.95,2.82,0.56l6.67,6.67
			l-0.02,0.02l0.73,0.73l-13.43,13.43l13.17,13.17h-0.04v13.93l-5.67-5.67c0.38-0.94,0.2-2.06-0.57-2.82
			c-1.01-1.01-2.66-1.01-3.67,0c-1.01,1.01-1.01,2.66,0,3.67c0.76,0.76,1.88,0.95,2.82,0.57l6.67,6.67l-0.02,0.02l0.43,0.43v9.52
			l-5.67-5.67c0.38-0.94,0.2-2.06-0.57-2.82c-1.01-1.01-2.66-1.01-3.67,0c-1.01,1.01-1.01,2.66,0,3.67
			c0.76,0.76,1.88,0.95,2.82,0.57l6.67,6.67l-0.02,0.02l1.16,1.16l-16.79,16.79L256.5,451.28z M246.61,374.34l9.89-9.89l9.89,9.89
			l-9.89,9.89L246.61,374.34z M256.5,421.4l12.82,12.82l-12.82,12.82l-12.82-12.82L256.5,421.4z"/>
		<path d="M256.5,438.77c2.51,0,4.56-2.04,4.56-4.56s-2.04-4.56-4.56-4.56c-2.51,0-4.56,2.04-4.56,4.56S253.99,438.77,256.5,438.77z
			 M256.5,431.66c1.41,0,2.56,1.15,2.56,2.56s-1.15,2.56-2.56,2.56c-1.41,0-2.56-1.15-2.56-2.56S255.09,431.66,256.5,431.66z"/>
		<path d="M234.36,458.48c11.24-8.62,0.65-22.15,0.65-22.15S223.64,449.22,234.36,458.48z"/>
	</g>
</g>
<g>
</g>
<g>
</g>
<g>
</g>
<g>
</g>
<g>
</g>
<g>
</g>
<g>
</g>
<g>
</g>
<g>
</g>
<g>
</g>
<g>
</g>
<g>
</g>
<g>
</g>
<g>
</g>
<g>
</g>
</svg>
