<?xml version="1.0" encoding="utf-8"?>
<!-- Generator: Adobe Illustrator 27.2.0, SVG Export Plug-In . SVG Version: 6.00 Build 0)  -->
<svg version="1.1" id="Layer_1" xmlns="http://www.w3.org/2000/svg" xmlns:xlink="http://www.w3.org/1999/xlink" x="0px" y="0px"
	 viewBox="0 0 800 600" style="enable-background:new 0 0 800 600;" xml:space="preserve">
<g>
	<polygon points="161.01,489.27 166.14,489.27 166.14,489.27 170.18,489.27 170.18,489.27 172.58,489.27 172.58,489.27 
		176.62,489.27 176.62,486.88 172.58,486.88 172.58,482.84 170.18,482.84 170.18,486.88 164.77,486.88 164.77,485.51 164.77,485.51 
		164.77,475.04 162.38,475.04 162.38,479.08 158.34,479.08 158.34,481.47 162.38,481.47 162.38,486.88 156.97,486.88 156.97,482.84 
		154.58,482.84 154.58,486.88 150.54,486.88 150.54,489.27 154.58,489.27 154.58,493.31 156.97,493.31 156.97,489.27 154.58,489.27 
		154.58,489.27 156.97,489.27 156.97,489.27 161.01,489.27 	"/>
	<polygon points="162.38,501.11 164.77,501.11 164.77,490.64 164.77,490.64 164.77,489.27 162.38,489.27 162.38,494.68 
		158.34,494.68 158.34,497.07 162.38,497.07 	"/>
	<rect x="164.77" y="479.08" width="4.04" height="2.39"/>
	<rect x="170.18" y="489.27" width="2.39" height="4.04"/>
	<rect x="179.18" y="459.43" width="4.04" height="2.39"/>
	<polygon points="175.42,473.67 177.81,473.67 177.81,469.63 183.22,469.63 183.22,470.99 183.22,470.99 183.22,481.47 
		185.61,481.47 185.61,477.43 189.66,477.43 189.66,475.04 185.61,475.04 185.61,469.63 191.02,469.63 191.02,473.67 193.42,473.67 
		193.42,469.63 197.46,469.63 197.46,467.23 193.42,467.23 193.42,463.19 191.02,463.19 191.02,467.23 186.98,467.23 186.98,467.23 
		185.61,467.23 185.61,461.82 189.66,461.82 189.66,459.43 185.61,459.43 185.61,455.39 183.22,455.39 183.22,465.86 183.22,465.86 
		183.22,467.23 181.85,467.23 181.85,467.23 177.81,467.23 177.81,463.19 175.42,463.19 175.42,467.23 171.38,467.23 171.38,469.63 
		175.42,469.63 	"/>
	<path d="M187.63,430.55c0-1.78-1.44-3.22-3.22-3.22c-1.78,0-3.22,1.44-3.22,3.22s1.44,3.22,3.22,3.22
		C186.19,433.76,187.63,432.32,187.63,430.55z"/>
	<circle cx="286.2" cy="509.89" r="4.29"/>
	<path d="M118.23,531.62l-10.02-10.02l11.71-11.71l-11.71-11.71l10.02-10.02l-14.05-14.05L68.4,509.89l8.74,8.74l27.04,27.04
		L118.23,531.62z M115.68,509.89l-9.55,9.55l-9.55-9.55l9.55-9.55L115.68,509.89z M100.84,481.69l9.81,9.81l-3.91,3.91l-9.81-9.81
		L100.84,481.69z M91.66,490.87l9.81,9.81l-3.91,3.91l-9.81-9.81L91.66,490.87z M73.09,509.89l9.55-9.55l9.55,9.55l-9.55,9.55
		L73.09,509.89z M87.76,525l9.81-9.81l3.91,3.91l-9.81,9.81L87.76,525z M96.93,534.18l9.81-9.81l3.91,3.91l-9.81,9.81L96.93,534.18z
		"/>
	<polygon points="165.92,429.35 161.88,429.35 161.88,425.31 159.48,425.31 159.48,429.35 155.44,429.35 155.44,431.74 
		159.48,431.74 159.48,435.78 161.88,435.78 161.88,431.74 165.92,431.74 	"/>
	<path d="M184.42,504.88c-1.78,0-3.22,1.44-3.22,3.22s1.44,3.22,3.22,3.22c1.78,0,3.22-1.44,3.22-3.22S186.19,504.88,184.42,504.88z
		"/>
	<path d="M184.42,492.28l-15.82,15.82l15.82,15.82l15.82-15.82L184.42,492.28z M172.84,508.1l11.58-11.58L196,508.1l-11.58,11.58
		L172.84,508.1z"/>
	<circle cx="262.7" cy="509.89" r="4.29"/>
	<polygon points="196.26,482.84 196.26,486.88 192.22,486.88 192.22,489.27 196.26,489.27 196.26,489.27 198.65,489.27 
		198.65,489.27 202.69,489.27 202.69,489.27 207.83,489.27 207.83,489.27 211.87,489.27 211.87,489.27 214.26,489.27 214.26,489.27 
		218.3,489.27 218.3,486.88 214.26,486.88 214.26,482.84 211.87,482.84 211.87,486.88 206.46,486.88 206.46,481.47 210.5,481.47 
		210.5,479.08 206.46,479.08 206.46,475.04 204.06,475.04 204.06,479.08 200.02,479.08 200.02,481.47 204.06,481.47 204.06,486.88 
		198.65,486.88 198.65,482.84 	"/>
	<polygon points="167.94,437.8 163.9,437.8 163.9,440.2 167.94,440.2 167.94,444.24 170.33,444.24 170.33,440.2 174.37,440.2 
		174.37,437.8 170.33,437.8 170.33,433.76 167.94,433.76 	"/>
	<rect x="211.87" y="489.27" width="2.39" height="4.04"/>
	<polygon points="206.46,489.27 204.06,489.27 204.06,494.68 200.02,494.68 200.02,497.07 204.06,497.07 204.06,501.11 
		206.46,501.11 206.46,497.07 210.5,497.07 210.5,494.68 206.46,494.68 	"/>
	<rect x="196.26" y="489.27" width="2.39" height="4.04"/>
	<rect x="179.18" y="475.04" width="4.04" height="2.39"/>
	<polyline points="131.6,548.17 131.6,543.89 137.01,543.89 137.01,547.93 139.4,547.93 139.4,543.89 143.44,543.89 143.44,541.5 
		139.4,541.5 139.4,537.46 137.01,537.46 137.01,541.5 132.97,541.5 132.97,541.5 131.6,541.5 131.6,536.09 135.64,536.09 
		135.64,533.7 131.6,533.7 131.6,529.65 129.21,529.65 129.21,533.7 125.17,533.7 125.17,536.09 129.21,536.09 129.21,541.5 
		127.84,541.5 127.84,541.5 123.8,541.5 123.8,537.46 121.4,537.46 121.4,541.5 117.36,541.5 117.36,543.89 121.4,543.89 
		121.4,547.93 123.8,547.93 123.8,543.89 129.21,543.89 129.21,548.17 	"/>
	<polyline points="239.63,548.17 239.63,545.26 239.63,545.26 239.63,543.89 245.04,543.89 245.04,547.93 247.43,547.93 
		247.43,543.89 251.47,543.89 251.47,541.5 247.43,541.5 247.43,537.46 245.04,537.46 245.04,541.5 241,541.5 241,541.5 
		239.63,541.5 239.63,540.13 239.63,540.13 239.63,536.09 243.67,536.09 243.67,533.7 239.63,533.7 239.63,529.65 237.24,529.65 
		237.24,533.7 233.2,533.7 233.2,536.09 237.24,536.09 237.24,541.5 235.87,541.5 235.87,541.5 231.83,541.5 231.83,537.46 
		229.43,537.46 229.43,547.93 231.83,547.93 231.83,543.89 237.24,543.89 237.24,548.17 	"/>
	<rect x="164.77" y="494.68" width="4.04" height="2.39"/>
	<g>
		<rect x="282.02" y="479.12" width="2.39" height="4.04"/>
		<g>
			<polygon points="308.36,483.16 308.36,485.55 312.4,485.55 312.4,489.59 314.8,489.59 314.8,485.55 318.84,485.55 318.84,483.16 
							"/>
			<polygon points="297.21,472.61 297.21,472.61 297.21,476.65 299.6,476.65 299.6,472.61 303.64,472.61 303.64,470.22 
				299.6,470.22 299.6,466.17 297.21,466.17 297.21,470.22 297.21,470.22 			"/>
			<rect x="312.4" y="479.12" width="2.39" height="4.04"/>
			<polygon points="282.02,489.59 284.41,489.59 284.41,485.55 288.45,485.55 288.45,483.16 277.97,483.16 277.97,485.55 
				282.02,485.55 			"/>
			<rect x="293.17" y="470.22" width="4.04" height="2.39"/>
			<polygon points="307.4,485.72 305.01,485.72 305.01,489.76 300.97,489.76 300.97,489.76 299.6,489.76 299.6,484.35 
				303.64,484.35 303.64,481.96 299.6,481.96 299.6,477.92 297.21,477.92 297.21,481.96 293.17,481.96 293.17,484.35 297.21,484.35 
				297.21,489.76 295.84,489.76 295.84,489.76 291.8,489.76 291.8,485.72 289.41,485.72 289.41,489.76 285.37,489.76 285.37,492.16 
				289.41,492.16 289.41,496.2 291.8,496.2 291.8,492.16 297.21,492.16 297.21,497.57 293.17,497.57 293.17,499.96 297.21,499.96 
				297.21,504 299.6,504 299.6,499.96 303.64,499.96 303.64,497.57 299.6,497.57 299.6,492.16 305.01,492.16 305.01,496.2 
				307.4,496.2 307.4,492.16 311.44,492.16 311.44,489.76 307.4,489.76 			"/>
		</g>
	</g>
	<g>
		<rect x="84.43" y="479.12" width="2.39" height="4.04"/>
		<g>
			<polygon points="60.47,483.16 60.47,485.55 56.43,485.55 56.43,489.59 54.04,489.59 54.04,485.55 50,485.55 50,483.16 			"/>
			<polygon points="71.63,472.61 71.63,472.61 71.63,476.65 69.23,476.65 69.23,472.61 65.19,472.61 65.19,470.22 69.23,470.22 
				69.23,466.17 71.63,466.17 71.63,470.22 71.63,470.22 			"/>
			<rect x="54.04" y="479.12" width="2.39" height="4.04"/>
			<polygon points="86.82,489.59 84.43,489.59 84.43,485.55 80.39,485.55 80.39,483.16 90.86,483.16 90.86,485.55 86.82,485.55 			
				"/>
			<rect x="71.63" y="470.22" width="4.04" height="2.39"/>
			<polygon points="61.43,485.72 63.82,485.72 63.82,489.76 67.87,489.76 67.87,489.76 69.23,489.76 69.23,484.35 65.19,484.35 
				65.19,481.96 69.23,481.96 69.23,477.92 71.63,477.92 71.63,481.96 75.67,481.96 75.67,484.35 71.63,484.35 71.63,489.76 
				73,489.76 73,489.76 77.04,489.76 77.04,485.72 79.43,485.72 79.43,489.76 83.47,489.76 83.47,492.16 79.43,492.16 79.43,496.2 
				77.04,496.2 77.04,492.16 71.63,492.16 71.63,497.57 75.67,497.57 75.67,499.96 71.63,499.96 71.63,504 69.23,504 69.23,499.96 
				65.19,499.96 65.19,497.57 69.23,497.57 69.23,492.16 63.82,492.16 63.82,496.2 61.43,496.2 61.43,492.16 57.39,492.16 
				57.39,489.76 61.43,489.76 			"/>
		</g>
	</g>
	<path d="M250.61,488.16l10.02,10.02l-11.71,11.71l11.71,11.71l-10.02,10.02l14.05,14.05l35.78-35.78l-35.78-35.78L250.61,488.16z
		 M253.15,509.89l9.55-9.55l9.55,9.55l-9.55,9.55L253.15,509.89z M268,538.09l-9.81-9.81l3.91-3.91l9.81,9.81L268,538.09z
		 M277.17,528.91l-9.81-9.81l3.91-3.91l9.81,9.81L277.17,528.91z M295.75,509.89l-9.55,9.55l-9.55-9.55l9.55-9.55L295.75,509.89z
		 M281.08,494.78l-9.81,9.81l-3.91-3.91l9.81-9.81L281.08,494.78z M271.9,485.6l-9.81,9.81l-3.91-3.91l9.81-9.81L271.9,485.6z"/>
	<g>
		<rect x="235.08" y="382.43" width="4.04" height="2.39"/>
		<polygon points="254.31,401.8 256.7,401.8 256.7,397.76 260.74,397.76 260.74,395.37 250.27,395.37 250.27,397.76 254.31,397.76 
					"/>
		<rect x="254.31" y="391.33" width="2.39" height="4.04"/>
		<polygon points="239.12,384.82 239.12,384.82 239.12,388.86 241.51,388.86 241.51,384.82 245.55,384.82 245.55,382.43 
			241.51,382.43 241.51,378.39 239.12,378.39 239.12,382.43 239.12,382.43 		"/>
		<polygon points="227.27,404.37 231.32,404.37 231.32,408.41 233.71,408.41 233.71,404.37 239.12,404.37 239.12,409.78 
			235.08,409.78 235.08,412.17 239.12,412.17 239.12,416.21 241.51,416.21 241.51,412.17 245.55,412.17 245.55,409.78 
			241.51,409.78 241.51,404.37 246.92,404.37 246.92,408.41 249.31,408.41 249.31,404.37 253.35,404.37 253.35,401.98 
			249.31,401.98 249.31,397.94 246.92,397.94 246.92,401.98 241.51,401.98 241.51,396.57 245.55,396.57 245.55,394.17 
			241.51,394.17 241.51,390.13 239.12,390.13 239.12,394.17 235.08,394.17 235.08,396.57 239.12,396.57 239.12,401.98 
			233.71,401.98 233.71,397.94 231.32,397.94 231.32,401.98 227.27,401.98 		"/>
		<rect x="223.92" y="391.33" width="2.39" height="4.04"/>
		<polygon points="223.92,401.8 226.32,401.8 226.32,397.76 230.36,397.76 230.36,395.37 219.88,395.37 219.88,397.76 
			223.92,397.76 		"/>
	</g>
	<rect x="225.39" y="541.5" width="4.04" height="2.39"/>
	<polygon points="185.61,550 185.61,545.96 189.66,545.96 189.66,543.57 185.61,543.57 185.61,539.53 183.22,539.53 183.22,543.57 
		179.18,543.57 179.18,545.96 183.22,545.96 183.22,550 	"/>
	<g>
		<polygon points="120.77,470.68 123.62,467.83 126.48,470.68 128.17,468.99 125.32,466.13 128.17,463.28 126.48,461.58 
			123.62,464.44 120.77,461.58 119.07,463.28 121.93,466.13 119.07,468.99 		"/>
		<polygon points="122.36,450.79 125.22,447.93 128.07,450.79 129.76,449.1 126.91,446.24 129.76,443.38 128.07,441.69 
			125.22,444.55 122.36,441.69 120.67,443.38 123.52,446.24 120.67,449.1 		"/>
		<rect x="144.81" y="462.11" transform="matrix(0.7071 -0.7071 0.7071 0.7071 -284.5998 239.5233)" width="4.04" height="2.39"/>
		<polygon points="128.97,451.69 131.83,454.54 128.97,457.4 130.66,459.09 133.52,456.24 137.35,460.06 136.38,461.03 
			133.52,463.89 130.66,461.03 128.97,462.72 131.83,465.58 128.97,468.44 130.66,470.13 133.52,467.27 136.38,470.13 
			138.07,468.44 135.21,465.58 138.07,462.72 139.04,461.75 142.86,465.58 140.01,468.44 141.7,470.13 144.56,467.27 147.41,470.13 
			149.1,468.44 146.25,465.58 140.73,460.06 141.7,459.09 144.56,456.24 147.41,459.09 149.1,457.4 146.25,454.54 149.1,451.69 
			147.41,450 144.56,452.85 141.7,450 140.01,451.69 142.86,454.54 140.01,457.4 139.04,458.37 135.21,454.54 138.07,451.69 
			136.38,450 133.52,452.85 130.66,450 		"/>
		<rect x="140.82" y="445.72" transform="matrix(0.7071 -0.7071 0.7071 0.7071 -274.1849 231.901)" width="4.04" height="2.39"/>
		<polygon points="147.97,449.2 149.66,447.5 146.8,444.65 149.66,441.79 147.97,440.1 145.11,442.95 142.25,440.1 140.56,441.79 
			145.11,446.34 		"/>
	</g>
	<g>
		<rect x="112.13" y="391.33" width="2.39" height="4.04"/>
		<polygon points="115.48,404.37 119.52,404.37 119.52,408.41 121.92,408.41 121.92,404.37 127.33,404.37 127.33,409.78 
			123.29,409.78 123.29,412.17 127.33,412.17 127.33,416.21 129.72,416.21 129.72,412.17 133.76,412.17 133.76,409.78 
			129.72,409.78 129.72,404.37 135.13,404.37 135.13,408.41 137.52,408.41 137.52,404.37 141.56,404.37 141.56,401.98 
			137.52,401.98 137.52,397.94 135.13,397.94 135.13,401.98 129.72,401.98 129.72,396.57 133.76,396.57 133.76,394.17 
			129.72,394.17 129.72,390.13 127.33,390.13 127.33,394.17 123.29,394.17 123.29,396.57 127.33,396.57 127.33,401.98 
			121.92,401.98 121.92,397.94 119.52,397.94 119.52,401.98 115.48,401.98 		"/>
		<polygon points="127.33,388.86 129.72,388.86 129.72,384.82 133.76,384.82 133.76,382.43 129.72,382.43 129.72,378.39 
			127.33,378.39 127.33,382.43 123.29,382.43 123.29,384.82 127.33,384.82 		"/>
		<polygon points="112.13,401.8 114.52,401.8 114.52,397.76 118.57,397.76 118.57,395.37 108.09,395.37 108.09,397.76 
			112.13,397.76 		"/>
		<polygon points="142.52,401.8 144.91,401.8 144.91,397.76 148.95,397.76 148.95,395.37 138.48,395.37 138.48,397.76 
			142.52,397.76 		"/>
		<rect x="142.52" y="391.33" width="2.39" height="4.04"/>
	</g>
	<rect x="187.09" y="413.52" width="4.04" height="2.39"/>
	<rect x="195.01" y="421.44" width="4.04" height="2.39"/>
	<circle cx="82.64" cy="509.89" r="4.29"/>
	<polygon points="193.53,415.92 197.57,415.92 197.57,413.52 193.53,413.52 193.53,409.48 191.13,409.48 191.13,419.96 
		193.53,419.96 	"/>
	<polygon points="169.79,417.4 167.4,417.4 167.4,421.44 163.36,421.44 163.36,423.83 167.4,423.83 167.4,427.87 169.79,427.87 
		169.79,423.83 173.83,423.83 173.83,421.44 169.79,421.44 	"/>
	<polygon points="183.22,401.57 183.22,412.04 185.61,412.04 185.61,408 189.66,408 189.66,405.61 185.61,405.61 185.61,401.57 	"/>
	<polygon points="177.7,409.48 175.31,409.48 175.31,413.52 171.27,413.52 171.27,415.92 175.31,415.92 175.31,419.96 177.7,419.96 
		177.7,415.92 181.74,415.92 181.74,413.52 177.7,413.52 	"/>
	<path d="M218.97,419.55c1.78,0,3.22-1.44,3.22-3.22s-1.44-3.22-3.22-3.22s-3.22,1.44-3.22,3.22S217.19,419.55,218.97,419.55z"/>
	<rect x="179.18" y="405.61" width="4.04" height="2.39"/>
	<polygon points="199.05,423.83 199.05,423.83 199.05,427.87 201.44,427.87 201.44,423.83 205.48,423.83 205.48,421.44 
		201.44,421.44 201.44,417.4 199.05,417.4 199.05,421.44 199.05,421.44 	"/>
	<polygon points="200.9,433.76 198.51,433.76 198.51,437.8 194.47,437.8 194.47,440.2 198.51,440.2 198.51,444.24 200.9,444.24 
		200.9,440.2 204.94,440.2 204.94,437.8 200.9,437.8 	"/>
	<polygon points="202.92,431.74 206.96,431.74 206.96,435.78 209.35,435.78 209.35,431.74 213.39,431.74 213.39,429.35 
		209.35,429.35 209.35,425.31 206.96,425.31 206.96,429.35 206.96,429.35 206.96,431.74 206.96,431.74 206.96,429.35 202.92,429.35 
			"/>
	<path d="M168.03,451.15l-32.86,32.86l5.75,5.75l-20.11,20.11L160.95,550h7.96l15.52-15.52L199.93,550h7.96l40.14-40.14
		l-20.11-20.11l5.9-5.9l-32.86-32.86l34.8-34.8l-51.35-51.35l-51.35,51.35L168.03,451.15z M131.81,516.62l17.56-17.56l8.88,8.88
		l-17.56,17.56L131.81,516.62z M146.08,490.37l38.34-38.34l38.34,38.34l-15.21,15.21l-23.13-23.13l-23.13,23.13L146.08,490.37z
		 M158.12,542.93l-8.88-8.88l17.56-17.56l8.88,8.88L158.12,542.93z M163.41,507.7l21.01-21.01l21.01,21.01l-21.01,21.01
		L163.41,507.7z M210.71,542.93l-17.56-17.56l8.88-8.88l17.56,17.56L210.71,542.93z M237.03,516.62l-8.88,8.88l-17.56-17.56
		l8.88-8.88L237.03,516.62z M229.58,483.85l-4.55,4.55l-40.61-40.61l-40.61,40.61l-4.39-4.39l41.32-41.32l3.68,3.68l3.84-3.84
		L229.58,483.85z M172.84,430.55l11.58-11.58L196,430.55l-11.58,11.58L172.84,430.55z M198.84,448.87l-8.46-8.46l9.86-9.86
		l-15.82-15.82l-15.82,15.82l10.02,10.02l-8.46,8.46l-18.38-18.38L184.42,398l32.65,32.65L198.84,448.87z M230.55,416.33
		l-11.58,11.58l-11.58-11.58l11.58-11.58L230.55,416.33z M213.96,398.62l-12.34,12.34l-3.62-3.62L210.34,395L213.96,398.62z
		 M204.9,389.56l-12.34,12.34l-3.62-3.62l12.34-12.34L204.9,389.56z M184.42,370.06l10.93,10.93l-11.28,11.28l-10.93-10.93
		L184.42,370.06z M167.2,386.29l12.34,12.34l-3.62,3.62l-12.34-12.34L167.2,386.29z M158.14,395.35l12.34,12.34l-3.62,3.62
		l-12.34-12.34L158.14,395.35z M161.23,416.56l-11.36,11.36l-11.58-11.58l11.36-11.36L161.23,416.56z"/>
	<g>
		<polygon points="198.42,348.19 200.81,348.19 200.81,344.15 204.85,344.15 204.85,341.76 200.81,341.76 200.81,337.72 
			198.42,337.72 198.42,341.76 194.38,341.76 194.38,344.15 198.42,344.15 		"/>
		<polygon points="183.22,335.25 185.61,335.25 185.61,331.21 189.66,331.21 189.66,328.82 185.61,328.82 185.61,324.78 
			183.22,324.78 183.22,328.82 179.18,328.82 179.18,331.21 183.22,331.21 		"/>
		<polygon points="171.38,350.76 175.42,350.76 175.42,354.8 177.81,354.8 177.81,350.76 183.22,350.76 183.22,352.13 
			183.22,352.13 183.22,362.6 185.61,362.6 185.61,358.56 189.66,358.56 189.66,356.17 185.61,356.17 185.61,350.76 191.02,350.76 
			191.02,354.8 193.42,354.8 193.42,350.76 197.46,350.76 197.46,348.36 193.42,348.36 193.42,344.32 191.02,344.32 191.02,348.36 
			185.61,348.36 185.61,342.95 189.66,342.95 189.66,340.56 185.61,340.56 185.61,336.52 183.22,336.52 183.22,347 183.22,347 
			183.22,348.36 177.81,348.36 177.81,344.32 175.42,344.32 175.42,348.36 171.38,348.36 		"/>
		<rect x="179.18" y="340.56" width="4.04" height="2.39"/>
		<polygon points="168.03,348.19 170.42,348.19 170.42,344.15 174.46,344.15 174.46,341.76 170.42,341.76 170.42,344.15 
			170.42,344.15 170.42,341.76 170.42,341.76 170.42,337.72 168.03,337.72 168.03,341.76 163.99,341.76 163.99,344.15 
			168.03,344.15 		"/>
		<rect x="179.18" y="356.17" width="4.04" height="2.39"/>
	</g>
	<path d="M187.63,381.64c0-1.78-1.44-3.22-3.22-3.22c-1.78,0-3.22,1.44-3.22,3.22c0,1.78,1.44,3.22,3.22,3.22
		C186.19,384.86,187.63,383.42,187.63,381.64z"/>
	<circle cx="106.13" cy="509.89" r="4.29"/>
	<path d="M149.87,419.55c1.78,0,3.22-1.44,3.22-3.22s-1.44-3.22-3.22-3.22c-1.78,0-3.22,1.44-3.22,3.22S148.09,419.55,149.87,419.55
		z"/>
	<g>
		<polygon points="248.07,461.58 245.21,464.44 242.36,461.58 240.66,463.28 243.52,466.13 240.66,468.99 242.36,470.68 
			245.21,467.83 248.07,470.68 249.76,468.99 246.9,466.13 249.76,463.28 		"/>
		<rect x="224.8" y="444.9" transform="matrix(0.7071 -0.7071 0.7071 0.7071 -249.8271 290.7059)" width="2.39" height="4.04"/>
		<rect x="223.98" y="441.18" transform="matrix(0.7071 -0.7071 0.7071 0.7071 -246.6104 289.3735)" width="4.04" height="2.39"/>
		<polygon points="240.76,450.79 243.62,447.93 246.48,450.79 248.17,449.1 245.31,446.24 248.17,443.38 246.48,441.69 
			243.62,444.55 240.76,441.69 239.07,443.38 241.93,446.24 239.07,449.1 		"/>
		<polygon points="235.31,452.85 232.46,450 230.77,451.69 233.62,454.54 230.77,457.4 229.8,458.37 225.97,454.54 228.83,451.69 
			227.14,450 224.28,452.85 221.42,450 219.73,451.69 222.59,454.54 219.73,457.4 221.42,459.09 224.28,456.24 228.11,460.06 
			227.14,461.03 224.28,463.89 221.42,461.03 219.73,462.72 222.59,465.58 219.73,468.44 221.42,470.13 224.28,467.27 
			227.14,470.13 228.83,468.44 225.97,465.58 228.83,462.72 229.8,461.75 233.62,465.58 230.77,468.44 232.46,470.13 235.31,467.27 
			238.17,470.13 239.86,468.44 237.01,465.58 239.86,462.72 238.17,461.03 235.31,463.89 231.49,460.06 232.46,459.09 
			235.31,456.24 238.17,459.09 239.86,457.4 237.01,454.54 239.86,451.69 238.17,450 		"/>
		<polygon points="220.87,449.2 223.73,446.34 223.73,446.34 225.42,444.65 220.87,440.1 219.18,441.79 222.03,444.65 
			222.03,444.65 219.18,447.5 		"/>
	</g>
</g>
<g>
</g>
<g>
</g>
<g>
</g>
<g>
</g>
<g>
</g>
<g>
</g>
<g>
</g>
<g>
</g>
<g>
</g>
<g>
</g>
<g>
</g>
<g>
</g>
<g>
</g>
<g>
</g>
<g>
</g>
</svg>
