<?xml version="1.0" encoding="utf-8"?>
<!-- Generator: Adobe Illustrator 27.2.0, SVG Export Plug-In . SVG Version: 6.00 Build 0)  -->
<svg version="1.1" id="Layer_1" xmlns="http://www.w3.org/2000/svg" xmlns:xlink="http://www.w3.org/1999/xlink" x="0px" y="0px"
	 viewBox="0 0 800 600" style="enable-background:new 0 0 800 600;" xml:space="preserve">
<g>
	<g>
		<rect x="156.85" y="414.8" transform="matrix(-1.836970e-16 1 -1 -1.836970e-16 577.3228 257.9528)" width="5.67" height="5.67"/>
		
			<rect x="162.52" y="409.13" transform="matrix(-1.836970e-16 1 -1 -1.836970e-16 577.3228 246.6142)" width="5.67" height="5.67"/>
		
			<rect x="168.19" y="403.46" transform="matrix(-1.836970e-16 1 -1 -1.836970e-16 577.3228 235.2756)" width="5.67" height="5.67"/>
		<rect x="173.86" y="397.8" transform="matrix(-1.836970e-16 1 -1 -1.836970e-16 577.3228 223.937)" width="5.67" height="5.67"/>
		
			<rect x="179.53" y="392.13" transform="matrix(-1.836970e-16 1 -1 -1.836970e-16 577.3228 212.5984)" width="5.67" height="5.67"/>
		
			<rect x="162.52" y="420.47" transform="matrix(-1.836970e-16 1 -1 -1.836970e-16 588.6614 257.9528)" width="5.67" height="5.67"/>
		<rect x="168.19" y="414.8" transform="matrix(-1.836970e-16 1 -1 -1.836970e-16 588.6614 246.6142)" width="5.67" height="5.67"/>
		
			<rect x="173.86" y="409.13" transform="matrix(-1.836970e-16 1 -1 -1.836970e-16 588.6614 235.2756)" width="5.67" height="5.67"/>
		<rect x="179.53" y="403.46" transform="matrix(-1.836970e-16 1 -1 -1.836970e-16 588.6614 223.937)" width="5.67" height="5.67"/>
		<rect x="185.2" y="397.8" transform="matrix(-1.836970e-16 1 -1 -1.836970e-16 588.6614 212.5984)" width="5.67" height="5.67"/>
		<rect x="168.19" y="426.14" transform="matrix(-1.836970e-16 1 -1 -1.836970e-16 600 257.9528)" width="5.67" height="5.67"/>
		<rect x="173.86" y="420.47" transform="matrix(-1.836970e-16 1 -1 -1.836970e-16 600 246.6142)" width="5.67" height="5.67"/>
		<rect x="179.53" y="414.8" transform="matrix(-1.836970e-16 1 -1 -1.836970e-16 600 235.2756)" width="5.67" height="5.67"/>
		<rect x="185.2" y="409.13" transform="matrix(-1.836970e-16 1 -1 -1.836970e-16 600 223.937)" width="5.67" height="5.67"/>
		<rect x="190.87" y="403.46" transform="matrix(-1.836970e-16 1 -1 -1.836970e-16 600 212.5984)" width="5.67" height="5.67"/>
		
			<rect x="173.86" y="431.81" transform="matrix(-1.836970e-16 1 -1 -1.836970e-16 611.3386 257.9528)" width="5.67" height="5.67"/>
		
			<rect x="179.53" y="426.14" transform="matrix(-1.836970e-16 1 -1 -1.836970e-16 611.3386 246.6142)" width="5.67" height="5.67"/>
		<rect x="185.2" y="420.47" transform="matrix(-1.836970e-16 1 -1 -1.836970e-16 611.3386 235.2756)" width="5.67" height="5.67"/>
		<rect x="190.87" y="414.8" transform="matrix(-1.836970e-16 1 -1 -1.836970e-16 611.3386 223.937)" width="5.67" height="5.67"/>
		
			<rect x="196.54" y="409.13" transform="matrix(-1.836970e-16 1 -1 -1.836970e-16 611.3386 212.5984)" width="5.67" height="5.67"/>
		
			<rect x="179.53" y="437.48" transform="matrix(-1.836970e-16 1 -1 -1.836970e-16 622.6772 257.9528)" width="5.67" height="5.67"/>
		<rect x="185.2" y="431.81" transform="matrix(-1.836970e-16 1 -1 -1.836970e-16 622.6772 246.6142)" width="5.67" height="5.67"/>
		
			<rect x="190.87" y="426.14" transform="matrix(-1.836970e-16 1 -1 -1.836970e-16 622.6772 235.2756)" width="5.67" height="5.67"/>
		<rect x="196.54" y="420.47" transform="matrix(-1.836970e-16 1 -1 -1.836970e-16 622.6772 223.937)" width="5.67" height="5.67"/>
		<rect x="202.2" y="414.8" transform="matrix(-1.836970e-16 1 -1 -1.836970e-16 622.6772 212.5984)" width="5.67" height="5.67"/>
	</g>
	
		<rect x="157.45" y="392.72" transform="matrix(-0.7071 0.7071 -0.7071 -0.7071 606.6263 584.0027)" style="fill:none;stroke:#000000;stroke-width:3;stroke-miterlimit:10;" width="49.83" height="49.83"/>
	
		<rect x="147.43" y="382.71" transform="matrix(-0.7071 0.7071 -0.7071 -0.7071 606.6263 584.0027)" style="fill:none;stroke:#000000;stroke-width:3;stroke-miterlimit:10;" width="69.86" height="69.86"/>
	<g>
		<g>
			<g>
				
					<rect x="237.15" y="413.39" transform="matrix(-1.836970e-16 1 -1 -1.836970e-16 654.7859 177.655)" width="2.83" height="5.67"/>
				
					<rect x="241.4" y="409.13" transform="matrix(-1.836970e-16 1 -1 -1.836970e-16 656.2032 167.7338)" width="5.67" height="5.67"/>
				
					<rect x="247.07" y="403.46" transform="matrix(-1.836970e-16 1 -1 -1.836970e-16 656.2032 156.3952)" width="5.67" height="5.67"/>
				
					<rect x="252.74" y="397.8" transform="matrix(-1.836970e-16 1 -1 -1.836970e-16 656.2032 145.0566)" width="5.67" height="5.67"/>
				
					<rect x="258.41" y="392.13" transform="matrix(-1.836970e-16 1 -1 -1.836970e-16 656.2032 133.718)" width="5.67" height="5.67"/>
				
					<rect x="264.08" y="397.8" transform="matrix(-1.836970e-16 1 -1 -1.836970e-16 667.5418 133.718)" width="5.67" height="5.67"/>
				
					<rect x="258.41" y="403.46" transform="matrix(-1.836970e-16 1 -1 -1.836970e-16 667.5418 145.0566)" width="5.67" height="5.67"/>
				
					<rect x="283.64" y="403.46" transform="matrix(-1.836970e-16 1 -1 -1.836970e-16 692.7701 119.8283)" width="5.67" height="5.67"/>
				
					<rect x="289.31" y="409.13" transform="matrix(-1.836970e-16 1 -1 -1.836970e-16 704.1088 119.8283)" width="5.67" height="5.67"/>
				
					<rect x="285.05" y="413.39" transform="matrix(-1.836970e-16 1 -1 -1.836970e-16 702.6914 129.7495)" width="2.83" height="5.67"/>
				
					<rect x="296.39" y="413.39" transform="matrix(-1.836970e-16 1 -1 -1.836970e-16 714.03 118.4109)" width="2.83" height="5.67"/>
				
					<rect x="265.35" y="396.52" transform="matrix(-1.836970e-16 1 -1 -1.836970e-16 680.156 143.781)" width="5.67" height="30.9"/>
			</g>
			<g>
				
					<rect x="237.15" y="416.22" transform="matrix(-1.836970e-16 1 -1 -1.836970e-16 657.6205 180.4897)" width="2.83" height="5.67"/>
				
					<rect x="241.4" y="420.47" transform="matrix(-1.836970e-16 1 -1 -1.836970e-16 667.5418 179.0724)" width="5.67" height="5.67"/>
				
					<rect x="247.07" y="426.14" transform="matrix(-1.836970e-16 1 -1 -1.836970e-16 678.8804 179.0724)" width="5.67" height="5.67"/>
				
					<rect x="252.74" y="431.81" transform="matrix(-1.836970e-16 1 -1 -1.836970e-16 690.219 179.0724)" width="5.67" height="5.67"/>
				
					<rect x="258.41" y="437.48" transform="matrix(-1.836970e-16 1 -1 -1.836970e-16 701.5576 179.0724)" width="5.67" height="5.67"/>
				
					<rect x="264.08" y="431.81" transform="matrix(-1.836970e-16 1 -1 -1.836970e-16 701.5576 167.7338)" width="5.67" height="5.67"/>
				
					<rect x="258.41" y="426.14" transform="matrix(-1.836970e-16 1 -1 -1.836970e-16 690.219 167.7338)" width="5.67" height="5.67"/>
				
					<rect x="285.05" y="416.22" transform="matrix(-1.836970e-16 1 -1 -1.836970e-16 705.5261 132.5842)" width="2.83" height="5.67"/>
				
					<rect x="296.39" y="416.22" transform="matrix(-1.836970e-16 1 -1 -1.836970e-16 716.8646 121.2456)" width="2.83" height="5.67"/>
				
					<rect x="289.31" y="420.47" transform="matrix(-1.836970e-16 1 -1 -1.836970e-16 715.4473 131.1669)" width="5.67" height="5.67"/>
				
					<rect x="283.64" y="426.14" transform="matrix(-1.836970e-16 1 -1 -1.836970e-16 715.4473 142.5054)" width="5.67" height="5.67"/>
				
					<rect x="265.35" y="407.86" transform="matrix(-1.836970e-16 1 -1 -1.836970e-16 691.4946 155.1196)" width="5.67" height="30.9"/>
			</g>
		</g>
		<g>
			
				<rect x="301.97" y="415.51" transform="matrix(-1.836970e-16 1 -1 -1.836970e-16 721.7323 113.5433)" width="4.25" height="4.25"/>
			
				<rect x="306.22" y="411.26" transform="matrix(-1.836970e-16 1 -1 -1.836970e-16 721.7323 105.0394)" width="4.25" height="4.25"/>
			
				<rect x="306.22" y="419.76" transform="matrix(-1.836970e-16 1 -1 -1.836970e-16 730.2362 113.5433)" width="4.25" height="4.25"/>
			
				<rect x="310.47" y="415.51" transform="matrix(-1.836970e-16 1 -1 -1.836970e-16 730.2362 105.0394)" width="4.25" height="4.25"/>
		</g>
		<g>
			
				<rect x="289.31" y="432.89" transform="matrix(-1.836970e-16 1 -1 -1.836970e-16 726.4454 143.5822)" width="4.25" height="4.25"/>
			
				<rect x="293.56" y="428.64" transform="matrix(-1.836970e-16 1 -1 -1.836970e-16 726.4454 135.0783)" width="4.25" height="4.25"/>
			
				<rect x="293.56" y="437.14" transform="matrix(-1.836970e-16 1 -1 -1.836970e-16 734.9493 143.5822)" width="4.25" height="4.25"/>
			
				<rect x="297.81" y="432.89" transform="matrix(-1.836970e-16 1 -1 -1.836970e-16 734.9493 135.0783)" width="4.25" height="4.25"/>
		</g>
		<g>
			
				<rect x="270.31" y="432.24" transform="matrix(-1.836970e-16 1 -1 -1.836970e-16 706.8016 161.9228)" width="4.25" height="4.25"/>
			
				<rect x="274.57" y="427.98" transform="matrix(-1.836970e-16 1 -1 -1.836970e-16 706.8016 153.4188)" width="4.25" height="4.25"/>
			
				<rect x="274.57" y="436.49" transform="matrix(-1.836970e-16 1 -1 -1.836970e-16 715.3056 161.9228)" width="4.25" height="4.25"/>
			
				<rect x="278.82" y="432.24" transform="matrix(-1.836970e-16 1 -1 -1.836970e-16 715.3056 153.4188)" width="4.25" height="4.25"/>
		</g>
		<g>
			
				<rect x="254.86" y="448.49" transform="matrix(-1.836970e-16 1 -1 -1.836970e-16 707.6088 193.6275)" width="4.25" height="4.25"/>
			
				<rect x="259.12" y="444.24" transform="matrix(-1.836970e-16 1 -1 -1.836970e-16 707.6088 185.1235)" width="4.25" height="4.25"/>
			
				<rect x="259.12" y="452.74" transform="matrix(-1.836970e-16 1 -1 -1.836970e-16 716.1127 193.6275)" width="4.25" height="4.25"/>
			
				<rect x="263.37" y="448.49" transform="matrix(-1.836970e-16 1 -1 -1.836970e-16 716.1127 185.1235)" width="4.25" height="4.25"/>
		</g>
		<g>
			
				<rect x="289.31" y="398.14" transform="matrix(4.449158e-11 -1 1 4.449158e-11 -108.8302 691.6934)" width="4.25" height="4.25"/>
			
				<rect x="293.56" y="402.39" transform="matrix(4.941120e-11 -1 1 4.941120e-11 -108.8302 700.1973)" width="4.25" height="4.25"/>
			
				<rect x="293.56" y="393.88" transform="matrix(4.449158e-11 -1 1 4.449158e-11 -100.3263 691.6934)" width="4.25" height="4.25"/>
			
				<rect x="297.81" y="398.14" transform="matrix(4.684437e-11 -1 1 4.684437e-11 -100.3263 700.1973)" width="4.25" height="4.25"/>
		</g>
		<g>
			
				<rect x="270.31" y="398.79" transform="matrix(4.705753e-11 -1 1 4.705753e-11 -128.4739 673.3528)" width="4.25" height="4.25"/>
			
				<rect x="274.57" y="403.04" transform="matrix(4.470564e-11 -1 1 4.470564e-11 -128.4739 681.8568)" width="4.25" height="4.25"/>
			<rect x="274.57" y="394.54" transform="matrix(4.470564e-11 -1 1 4.470564e-11 -119.97 673.3528)" width="4.25" height="4.25"/>
			<rect x="278.82" y="398.79" transform="matrix(4.705753e-11 -1 1 4.705753e-11 -119.97 681.8568)" width="4.25" height="4.25"/>
		</g>
		<g>
			
				<rect x="254.86" y="382.53" transform="matrix(4.470564e-11 -1 1 4.470564e-11 -127.6668 641.6481)" width="4.25" height="4.25"/>
			<rect x="259.12" y="386.78" transform="matrix(4.705753e-11 -1 1 4.705753e-11 -127.6668 650.152)" width="4.25" height="4.25"/>
			
				<rect x="259.12" y="378.28" transform="matrix(4.705753e-11 -1 1 4.705753e-11 -119.1629 641.6481)" width="4.25" height="4.25"/>
			<rect x="263.37" y="382.53" transform="matrix(4.470564e-11 -1 1 4.470564e-11 -119.1629 650.152)" width="4.25" height="4.25"/>
		</g>
	</g>
	<g>
		<g>
			<g>
				<rect x="179.53" y="358.6" width="2.83" height="5.67"/>
				<rect x="173.86" y="352.93" width="5.67" height="5.67"/>
				<rect x="168.19" y="347.26" width="5.67" height="5.67"/>
				<rect x="162.52" y="341.59" width="5.67" height="5.67"/>
				<rect x="156.85" y="335.92" width="5.67" height="5.67"/>
				<rect x="162.52" y="330.25" width="5.67" height="5.67"/>
				<rect x="168.19" y="335.92" width="5.67" height="5.67"/>
				<rect x="168.19" y="310.69" width="5.67" height="5.67"/>
				<rect x="173.86" y="305.03" width="5.67" height="5.67"/>
				<rect x="179.53" y="310.69" width="2.83" height="5.67"/>
				<rect x="179.53" y="299.36" width="2.83" height="5.67"/>
				<rect x="173.86" y="316.36" width="5.67" height="30.9"/>
			</g>
			<g>
				<rect x="182.36" y="358.6" width="2.83" height="5.67"/>
				<rect x="185.2" y="352.93" width="5.67" height="5.67"/>
				<rect x="190.87" y="347.26" width="5.67" height="5.67"/>
				<rect x="196.54" y="341.59" width="5.67" height="5.67"/>
				<rect x="202.2" y="335.92" width="5.67" height="5.67"/>
				<rect x="196.54" y="330.25" width="5.67" height="5.67"/>
				<rect x="190.87" y="335.92" width="5.67" height="5.67"/>
				<rect x="182.36" y="310.69" width="2.83" height="5.67"/>
				<rect x="182.36" y="299.36" width="2.83" height="5.67"/>
				<rect x="185.2" y="305.03" width="5.67" height="5.67"/>
				<rect x="190.87" y="310.69" width="5.67" height="5.67"/>
				<rect x="185.2" y="316.36" width="5.67" height="30.9"/>
			</g>
		</g>
		<g>
			<rect x="180.24" y="293.78" width="4.25" height="4.25"/>
			<rect x="175.98" y="289.53" width="4.25" height="4.25"/>
			<rect x="184.49" y="289.53" width="4.25" height="4.25"/>
			<rect x="180.24" y="285.28" width="4.25" height="4.25"/>
		</g>
		<g>
			<rect x="197.61" y="306.44" width="4.25" height="4.25"/>
			<rect x="193.36" y="302.19" width="4.25" height="4.25"/>
			<rect x="201.86" y="302.19" width="4.25" height="4.25"/>
			<rect x="197.61" y="297.94" width="4.25" height="4.25"/>
		</g>
		<g>
			<rect x="196.96" y="325.43" width="4.25" height="4.25"/>
			<rect x="192.71" y="321.18" width="4.25" height="4.25"/>
			<rect x="201.21" y="321.18" width="4.25" height="4.25"/>
			<rect x="196.96" y="316.93" width="4.25" height="4.25"/>
		</g>
		<g>
			<rect x="213.22" y="340.88" width="4.25" height="4.25"/>
			<rect x="208.96" y="336.63" width="4.25" height="4.25"/>
			<rect x="217.47" y="336.63" width="4.25" height="4.25"/>
			<rect x="213.22" y="332.38" width="4.25" height="4.25"/>
		</g>
		<g>
			
				<rect x="162.86" y="306.44" transform="matrix(-1 -9.197677e-11 9.197677e-11 -1 329.9724 617.1368)" width="4.25" height="4.25"/>
			
				<rect x="167.11" y="302.19" transform="matrix(-1 -8.898228e-11 8.898228e-11 -1 338.4764 608.6329)" width="4.25" height="4.25"/>
			
				<rect x="158.61" y="302.19" transform="matrix(-1 -9.154912e-11 9.154912e-11 -1 321.4685 608.6329)" width="4.25" height="4.25"/>
			
				<rect x="162.86" y="297.94" transform="matrix(-1 -8.941038e-11 8.941038e-11 -1 329.9724 600.129)" width="4.25" height="4.25"/>
		</g>
		<g>
			
				<rect x="163.51" y="325.43" transform="matrix(-1 -8.898228e-11 8.898228e-11 -1 331.2756 655.1211)" width="4.25" height="4.25"/>
			
				<rect x="167.76" y="321.18" transform="matrix(-1 -8.941038e-11 8.941038e-11 -1 339.7795 646.6172)" width="4.25" height="4.25"/>
			
				<rect x="159.26" y="321.18" transform="matrix(-1 -8.727120e-11 8.727120e-11 -1 322.7717 646.6172)" width="4.25" height="4.25"/>
			
				<rect x="163.51" y="316.93" transform="matrix(-1 -8.941038e-11 8.941038e-11 -1 331.2756 638.1132)" width="4.25" height="4.25"/>
		</g>
		<g>
			
				<rect x="147.26" y="340.88" transform="matrix(-1 -8.941038e-11 8.941038e-11 -1 298.7638 686.0187)" width="4.25" height="4.25"/>
			
				<rect x="151.51" y="336.63" transform="matrix(-1 -8.941038e-11 8.941038e-11 -1 307.2677 677.5148)" width="4.25" height="4.25"/>
			<rect x="143" y="336.63" transform="matrix(-1 -8.983804e-11 8.983804e-11 -1 290.2599 677.5148)" width="4.25" height="4.25"/>
			
				<rect x="147.26" y="332.38" transform="matrix(-1 -8.898228e-11 8.898228e-11 -1 298.7638 669.0109)" width="4.25" height="4.25"/>
		</g>
	</g>
	<g>
		<g>
			<g>
				
					<rect x="124.74" y="416.22" transform="matrix(8.855500e-11 -1 1 8.855500e-11 -292.8961 545.2141)" width="2.83" height="5.67"/>
				
					<rect x="117.66" y="420.47" transform="matrix(8.983753e-11 -1 1 8.983753e-11 -302.8174 543.7968)" width="5.67" height="5.67"/>
				
					<rect x="111.99" y="426.14" transform="matrix(9.015905e-11 -1 1 9.015905e-11 -314.156 543.7968)" width="5.67" height="5.67"/>
				
					<rect x="106.32" y="431.81" transform="matrix(9.176310e-11 -1 1 9.176310e-11 -325.4946 543.7968)" width="5.67" height="5.67"/>
				
					<rect x="100.65" y="437.48" transform="matrix(8.983753e-11 -1 1 8.983753e-11 -336.8332 543.7968)" width="5.67" height="5.67"/>
				
					<rect x="94.98" y="431.81" transform="matrix(8.999829e-11 -1 1 8.999829e-11 -336.8332 532.4582)" width="5.67" height="5.67"/>
				
					<rect x="100.65" y="426.14" transform="matrix(8.999829e-11 -1 1 8.999829e-11 -325.4946 532.4582)" width="5.67" height="5.67"/>
				
					<rect x="75.42" y="426.14" transform="matrix(8.999829e-11 -1 1 8.999829e-11 -350.7229 507.2298)" width="5.67" height="5.67"/>
				
					<rect x="69.75" y="420.47" transform="matrix(8.999829e-11 -1 1 8.999829e-11 -350.7229 495.8913)" width="5.67" height="5.67"/>
				
					<rect x="76.84" y="416.22" transform="matrix(9.176310e-11 -1 1 9.176310e-11 -340.8017 497.3086)" width="2.83" height="5.67"/>
				<rect x="65.5" y="416.22" transform="matrix(8.470386e-11 -1 1 8.470386e-11 -352.1402 485.97)" width="2.83" height="5.67"/>
				<rect x="93.7" y="407.86" transform="matrix(9.176310e-11 -1 1 9.176310e-11 -326.7702 519.844)" width="5.67" height="30.9"/>
			</g>
			<g>
				
					<rect x="124.74" y="413.39" transform="matrix(9.176310e-11 -1 1 9.176310e-11 -290.0615 542.3795)" width="2.83" height="5.67"/>
				
					<rect x="117.66" y="409.13" transform="matrix(8.983753e-11 -1 1 8.983753e-11 -291.4788 532.4582)" width="5.67" height="5.67"/>
				
					<rect x="111.99" y="403.46" transform="matrix(8.999829e-11 -1 1 8.999829e-11 -291.4788 521.1196)" width="5.67" height="5.67"/>
				<rect x="106.32" y="397.8" transform="matrix(8.807361e-11 -1 1 8.807361e-11 -291.4788 509.781)" width="5.67" height="5.67"/>
				
					<rect x="100.65" y="392.13" transform="matrix(8.823348e-11 -1 1 8.823348e-11 -291.4788 498.4424)" width="5.67" height="5.67"/>
				<rect x="94.98" y="397.8" transform="matrix(8.999829e-11 -1 1 8.999829e-11 -302.8174 498.4424)" width="5.67" height="5.67"/>
				
					<rect x="100.65" y="403.46" transform="matrix(9.015905e-11 -1 1 9.015905e-11 -302.8174 509.781)" width="5.67" height="5.67"/>
				<rect x="76.84" y="413.39" transform="matrix(8.855500e-11 -1 1 8.855500e-11 -337.967 494.4739)" width="2.83" height="5.67"/>
				<rect x="65.5" y="413.39" transform="matrix(9.561336e-11 -1 1 9.561336e-11 -349.3056 483.1353)" width="2.83" height="5.67"/>
				
					<rect x="69.75" y="409.13" transform="matrix(8.983753e-11 -1 1 8.983753e-11 -339.3843 484.5527)" width="5.67" height="5.67"/>
				
					<rect x="75.42" y="403.46" transform="matrix(8.999829e-11 -1 1 8.999829e-11 -328.0457 484.5527)" width="5.67" height="5.67"/>
				<rect x="93.7" y="396.52" transform="matrix(8.807361e-11 -1 1 8.807361e-11 -315.4316 508.5054)" width="5.67" height="30.9"/>
			</g>
		</g>
		<g>
			<rect x="58.5" y="415.51" transform="matrix(9.154905e-11 -1 1 9.154905e-11 -357.0079 478.2677)" width="4.25" height="4.25"/>
			<rect x="54.25" y="419.76" transform="matrix(8.705753e-11 -1 1 8.705753e-11 -365.5118 478.2677)" width="4.25" height="4.25"/>
			<rect x="54.25" y="411.26" transform="matrix(8.919627e-11 -1 1 8.919627e-11 -357.0079 469.7638)" width="4.25" height="4.25"/>
			<rect x="50" y="415.51" transform="matrix(8.941032e-11 -1 1 8.941032e-11 -365.5118 469.7638)" width="4.25" height="4.25"/>
		</g>
		<g>
			<rect x="71.17" y="398.14" transform="matrix(8.919627e-11 -1 1 8.919627e-11 -326.969 473.5547)" width="4.25" height="4.25"/>
			<rect x="66.91" y="402.39" transform="matrix(8.941032e-11 -1 1 8.941032e-11 -335.4729 473.5547)" width="4.25" height="4.25"/>
			<rect x="66.91" y="393.88" transform="matrix(8.941032e-11 -1 1 8.941032e-11 -326.969 465.0507)" width="4.25" height="4.25"/>
			<rect x="62.66" y="398.14" transform="matrix(9.197716e-11 -1 1 9.197716e-11 -335.4729 465.0507)" width="4.25" height="4.25"/>
		</g>
		<g>
			<rect x="90.16" y="398.79" transform="matrix(8.941032e-11 -1 1 8.941032e-11 -308.6284 493.1983)" width="4.25" height="4.25"/>
			<rect x="85.91" y="403.04" transform="matrix(8.919627e-11 -1 1 8.919627e-11 -317.1324 493.1983)" width="4.25" height="4.25"/>
			<rect x="85.91" y="394.54" transform="matrix(9.154905e-11 -1 1 9.154905e-11 -308.6284 484.6944)" width="4.25" height="4.25"/>
			<rect x="81.66" y="398.79" transform="matrix(9.154905e-11 -1 1 9.154905e-11 -317.1324 484.6944)" width="4.25" height="4.25"/>
		</g>
		<g>
			
				<rect x="105.61" y="382.53" transform="matrix(8.941032e-11 -1 1 8.941032e-11 -276.9237 492.3913)" width="4.25" height="4.25"/>
			
				<rect x="101.36" y="386.78" transform="matrix(8.941032e-11 -1 1 8.941032e-11 -285.4276 492.3913)" width="4.25" height="4.25"/>
			
				<rect x="101.36" y="378.28" transform="matrix(9.176310e-11 -1 1 9.176310e-11 -276.9237 483.8873)" width="4.25" height="4.25"/>
			<rect x="97.1" y="382.53" transform="matrix(8.941032e-11 -1 1 8.941032e-11 -285.4276 483.8873)" width="4.25" height="4.25"/>
		</g>
		<g>
			
				<rect x="71.17" y="432.89" transform="matrix(-1.339011e-10 1 -1 -1.339011e-10 508.3066 361.7209)" width="4.25" height="4.25"/>
			
				<rect x="66.91" y="428.64" transform="matrix(-1.339011e-10 1 -1 -1.339011e-10 499.8027 361.7209)" width="4.25" height="4.25"/>
			
				<rect x="66.91" y="437.14" transform="matrix(-1.341151e-10 1 -1 -1.341151e-10 508.3066 370.2249)" width="4.25" height="4.25"/>
			
				<rect x="62.66" y="432.89" transform="matrix(-1.339011e-10 1 -1 -1.339011e-10 499.8027 370.2249)" width="4.25" height="4.25"/>
		</g>
		<g>
			
				<rect x="90.16" y="432.24" transform="matrix(-1.341151e-10 1 -1 -1.341151e-10 526.6472 342.0772)" width="4.25" height="4.25"/>
			
				<rect x="85.91" y="427.98" transform="matrix(-1.317623e-10 1 -1 -1.317623e-10 518.1432 342.0772)" width="4.25" height="4.25"/>
			
				<rect x="85.91" y="436.49" transform="matrix(-1.341151e-10 1 -1 -1.341151e-10 526.6472 350.5812)" width="4.25" height="4.25"/>
			
				<rect x="81.66" y="432.24" transform="matrix(-1.364679e-10 1 -1 -1.364679e-10 518.1432 350.5812)" width="4.25" height="4.25"/>
		</g>
		<g>
			
				<rect x="105.61" y="448.49" transform="matrix(-1.341151e-10 1 -1 -1.341151e-10 558.3519 342.8843)" width="4.25" height="4.25"/>
			
				<rect x="101.36" y="444.24" transform="matrix(-1.339011e-10 1 -1 -1.339011e-10 549.848 342.8843)" width="4.25" height="4.25"/>
			
				<rect x="101.36" y="452.74" transform="matrix(-1.364679e-10 1 -1 -1.364679e-10 558.3519 351.3883)" width="4.25" height="4.25"/>
			<rect x="97.1" y="448.49" transform="matrix(-1.364679e-10 1 -1 -1.364679e-10 549.848 351.3883)" width="4.25" height="4.25"/>
		</g>
	</g>
	<g>
		<g>
			<g>
				
					<rect x="182.36" y="471.01" transform="matrix(-1 -1.341151e-10 1.341151e-10 -1 367.5591 947.6821)" width="2.83" height="5.67"/>
				
					<rect x="185.2" y="476.68" transform="matrix(-1 -1.353985e-10 1.353985e-10 -1 376.063 959.0206)" width="5.67" height="5.67"/>
				
					<rect x="190.87" y="482.34" transform="matrix(-1 -1.341151e-10 1.341151e-10 -1 387.4016 970.3592)" width="5.67" height="5.67"/>
				
					<rect x="196.54" y="488.01" transform="matrix(-1 -1.341151e-10 1.341151e-10 -1 398.7401 981.6978)" width="5.67" height="5.67"/>
				
					<rect x="202.2" y="493.68" transform="matrix(-1 -1.337944e-10 1.337944e-10 -1 410.0787 993.0364)" width="5.67" height="5.67"/>
				
					<rect x="196.54" y="499.35" transform="matrix(-1 -1.341151e-10 1.341151e-10 -1 398.7401 1004.3749)" width="5.67" height="5.67"/>
				
					<rect x="190.87" y="493.68" transform="matrix(-1 -1.341151e-10 1.341151e-10 -1 387.4016 993.0364)" width="5.67" height="5.67"/>
				
					<rect x="190.87" y="518.91" transform="matrix(-1 -1.360402e-10 1.360402e-10 -1 387.4016 1043.493)" width="5.67" height="5.67"/>
				
					<rect x="185.2" y="524.58" transform="matrix(-1 -1.360402e-10 1.360402e-10 -1 376.063 1054.8317)" width="5.67" height="5.67"/>
				
					<rect x="182.36" y="518.91" transform="matrix(-1 -1.341151e-10 1.341151e-10 -1 367.5591 1043.493)" width="2.83" height="5.67"/>
				
					<rect x="182.36" y="530.25" transform="matrix(-1 -1.334734e-10 1.334734e-10 -1 367.5591 1066.1703)" width="2.83" height="5.67"/>
				
					<rect x="185.2" y="488.01" transform="matrix(-1 -1.341151e-10 1.341151e-10 -1 376.063 1006.9261)" width="5.67" height="30.9"/>
			</g>
			<g>
				
					<rect x="179.53" y="471.01" transform="matrix(-1 -1.373236e-10 1.373236e-10 -1 361.8898 947.6821)" width="2.83" height="5.67"/>
				
					<rect x="173.86" y="476.68" transform="matrix(-1 -1.337944e-10 1.337944e-10 -1 353.3858 959.0206)" width="5.67" height="5.67"/>
				
					<rect x="168.19" y="482.34" transform="matrix(-1 -1.357196e-10 1.357196e-10 -1 342.0472 970.3592)" width="5.67" height="5.67"/>
				
					<rect x="162.52" y="488.01" transform="matrix(-1 -1.353985e-10 1.353985e-10 -1 330.7086 981.6978)" width="5.67" height="5.67"/>
				
					<rect x="156.85" y="493.68" transform="matrix(-1 -1.337944e-10 1.337944e-10 -1 319.3701 993.0364)" width="5.67" height="5.67"/>
				
					<rect x="162.52" y="499.35" transform="matrix(-1 -1.341151e-10 1.341151e-10 -1 330.7086 1004.3749)" width="5.67" height="5.67"/>
				
					<rect x="168.19" y="493.68" transform="matrix(-1 -1.341151e-10 1.341151e-10 -1 342.0472 993.0364)" width="5.67" height="5.67"/>
				
					<rect x="179.53" y="518.91" transform="matrix(-1 -1.373236e-10 1.373236e-10 -1 361.8898 1043.493)" width="2.83" height="5.67"/>
				
					<rect x="179.53" y="530.25" transform="matrix(-1 -1.347568e-10 1.347568e-10 -1 361.8898 1066.1703)" width="2.83" height="5.67"/>
				
					<rect x="173.86" y="524.58" transform="matrix(-1 -1.357196e-10 1.357196e-10 -1 353.3858 1054.8317)" width="5.67" height="5.67"/>
				
					<rect x="168.19" y="518.91" transform="matrix(-1 -1.341151e-10 1.341151e-10 -1 342.0472 1043.493)" width="5.67" height="5.67"/>
				
					<rect x="173.86" y="488.01" transform="matrix(-1 -1.337944e-10 1.337944e-10 -1 353.3858 1006.9261)" width="5.67" height="30.9"/>
			</g>
		</g>
		<g>
			
				<rect x="180.24" y="537.24" transform="matrix(-1 -1.339015e-10 1.339015e-10 -1 364.7244 1078.7401)" width="4.25" height="4.25"/>
			
				<rect x="184.49" y="541.5" transform="matrix(-1 -1.343291e-10 1.343291e-10 -1 373.2283 1087.2441)" width="4.25" height="4.25"/>
			
				<rect x="175.98" y="541.5" transform="matrix(-1 -1.364683e-10 1.364683e-10 -1 356.2205 1087.2441)" width="4.25" height="4.25"/>
			
				<rect x="180.24" y="545.75" transform="matrix(-1 -1.364683e-10 1.364683e-10 -1 364.7244 1095.748)" width="4.25" height="4.25"/>
		</g>
		<g>
			
				<rect x="162.86" y="524.58" transform="matrix(-1 -1.339015e-10 1.339015e-10 -1 329.9724 1053.4143)" width="4.25" height="4.25"/>
			
				<rect x="167.11" y="528.83" transform="matrix(-1 -1.334734e-10 1.334734e-10 -1 338.4764 1061.9182)" width="4.25" height="4.25"/>
			
				<rect x="158.61" y="528.83" transform="matrix(-1 -1.343291e-10 1.343291e-10 -1 321.4685 1061.9182)" width="4.25" height="4.25"/>
			
				<rect x="162.86" y="533.09" transform="matrix(-1 -1.339015e-10 1.339015e-10 -1 329.9724 1070.4222)" width="4.25" height="4.25"/>
		</g>
		<g>
			
				<rect x="163.51" y="505.59" transform="matrix(-1 -1.343291e-10 1.343291e-10 -1 331.2756 1015.4301)" width="4.25" height="4.25"/>
			
				<rect x="167.76" y="509.84" transform="matrix(-1 -1.343291e-10 1.343291e-10 -1 339.7795 1023.934)" width="4.25" height="4.25"/>
			
				<rect x="159.26" y="509.84" transform="matrix(-1 -1.339015e-10 1.339015e-10 -1 322.7717 1023.934)" width="4.25" height="4.25"/>
			
				<rect x="163.51" y="514.09" transform="matrix(-1 -1.339015e-10 1.339015e-10 -1 331.2756 1032.438)" width="4.25" height="4.25"/>
		</g>
		<g>
			
				<rect x="147.26" y="490.14" transform="matrix(-1 -1.360402e-10 1.360402e-10 -1 298.7638 984.5325)" width="4.25" height="4.25"/>
			
				<rect x="151.51" y="494.39" transform="matrix(-1 -1.343291e-10 1.343291e-10 -1 307.2677 993.0364)" width="4.25" height="4.25"/>
			<rect x="143" y="494.39" transform="matrix(-1 -1.339015e-10 1.339015e-10 -1 290.2599 993.0364)" width="4.25" height="4.25"/>
			
				<rect x="147.26" y="498.64" transform="matrix(-1 -1.339015e-10 1.339015e-10 -1 298.7638 1001.5403)" width="4.25" height="4.25"/>
		</g>
		<g>
			<rect x="197.61" y="524.58" width="4.25" height="4.25"/>
			<rect x="193.36" y="528.83" width="4.25" height="4.25"/>
			<rect x="201.86" y="528.83" width="4.25" height="4.25"/>
			<rect x="197.61" y="533.09" width="4.25" height="4.25"/>
		</g>
		<g>
			<rect x="196.96" y="505.59" width="4.25" height="4.25"/>
			<rect x="192.71" y="509.84" width="4.25" height="4.25"/>
			<rect x="201.21" y="509.84" width="4.25" height="4.25"/>
			<rect x="196.96" y="514.09" width="4.25" height="4.25"/>
		</g>
		<g>
			<rect x="213.22" y="490.14" width="4.25" height="4.25"/>
			<rect x="208.96" y="494.39" width="4.25" height="4.25"/>
			<rect x="217.47" y="494.39" width="4.25" height="4.25"/>
			<rect x="213.22" y="498.64" width="4.25" height="4.25"/>
		</g>
	</g>
	<g>
		<g>
			<rect x="220.69" y="375.05" transform="matrix(0.7071 0.7071 -0.7071 0.7071 331.9692 -47.0836)" width="4.25" height="4.25"/>
			<rect x="220.69" y="369.04" transform="matrix(0.7071 0.7071 -0.7071 0.7071 327.7172 -48.8449)" width="4.25" height="4.25"/>
			<rect x="226.71" y="375.05" transform="matrix(0.7071 0.7071 -0.7071 0.7071 333.7304 -51.3356)" width="4.25" height="4.25"/>
			<rect x="226.71" y="369.04" transform="matrix(0.7071 0.7071 -0.7071 0.7071 329.4784 -53.0968)" width="4.25" height="4.25"/>
		</g>
		<g>
			<rect x="223.72" y="395.23" transform="matrix(0.7071 0.7071 -0.7071 0.7071 347.1245 -43.3165)" width="4.25" height="4.25"/>
			<rect x="223.72" y="389.22" transform="matrix(0.7071 0.7071 -0.7071 0.7071 342.8725 -45.0777)" width="4.25" height="4.25"/>
			<rect x="229.74" y="395.23" transform="matrix(0.7071 0.7071 -0.7071 0.7071 348.8857 -47.5685)" width="4.25" height="4.25"/>
			<rect x="229.74" y="389.22" transform="matrix(0.7071 0.7071 -0.7071 0.7071 344.6338 -49.3297)" width="4.25" height="4.25"/>
		</g>
		<g>
			<rect x="200.52" y="372.02" transform="matrix(-0.7071 -0.7071 0.7071 -0.7071 81.3673 782.0037)" width="4.25" height="4.25"/>
			<rect x="206.53" y="372.02" transform="matrix(-0.7071 -0.7071 0.7071 -0.7071 91.6325 786.2557)" width="4.25" height="4.25"/>
			<rect x="200.52" y="366.01" transform="matrix(-0.7071 -0.7071 0.7071 -0.7071 85.6193 771.7385)" width="4.25" height="4.25"/>
			<rect x="206.53" y="366.01" transform="matrix(-0.7071 -0.7071 0.7071 -0.7071 95.8844 775.9905)" width="4.25" height="4.25"/>
		</g>
		<g>
			<rect x="215.67" y="394.7" transform="matrix(0.7071 0.7071 -0.7071 0.7071 345.0956 -38.0708)" width="5.67" height="5.67"/>
			<rect x="215.67" y="386.68" transform="matrix(0.7071 0.7071 -0.7071 0.7071 339.4263 -40.4191)" width="5.67" height="5.67"/>
			<rect x="215.67" y="378.66" transform="matrix(0.7071 0.7071 -0.7071 0.7071 333.757 -42.7674)" width="5.67" height="5.67"/>
			<rect x="207.65" y="378.66" transform="matrix(0.7071 0.7071 -0.7071 0.7071 331.4088 -37.0981)" width="5.67" height="5.67"/>
			<rect x="199.63" y="378.66" transform="matrix(0.7071 0.7071 -0.7071 0.7071 329.0605 -31.4288)" width="5.67" height="5.67"/>
		</g>
	</g>
	<g>
		<g>
			<rect x="139.78" y="375.05" transform="matrix(0.7071 -0.7071 0.7071 0.7071 -225.1439 210.8155)" width="4.25" height="4.25"/>
			<rect x="133.77" y="375.05" transform="matrix(0.7071 -0.7071 0.7071 0.7071 -226.9051 206.5635)" width="4.25" height="4.25"/>
			<rect x="139.78" y="369.04" transform="matrix(0.7071 -0.7071 0.7071 0.7071 -220.8919 209.0542)" width="4.25" height="4.25"/>
			<rect x="133.77" y="369.04" transform="matrix(0.7071 -0.7071 0.7071 0.7071 -222.6531 204.8023)" width="4.25" height="4.25"/>
		</g>
		<g>
			<rect x="159.96" y="372.02" transform="matrix(0.7071 -0.7071 0.7071 0.7071 -217.0912 224.1957)" width="4.25" height="4.25"/>
			<rect x="153.94" y="372.02" transform="matrix(0.7071 -0.7071 0.7071 0.7071 -218.8524 219.9437)" width="4.25" height="4.25"/>
			<rect x="159.96" y="366.01" transform="matrix(0.7071 -0.7071 0.7071 0.7071 -212.8392 222.4344)" width="4.25" height="4.25"/>
			<rect x="153.94" y="366.01" transform="matrix(0.7071 -0.7071 0.7071 0.7071 -214.6005 218.1825)" width="4.25" height="4.25"/>
		</g>
		<g>
			<rect x="136.75" y="395.23" transform="matrix(-0.7071 0.7071 -0.7071 -0.7071 518.0483 580.1335)" width="4.25" height="4.25"/>
			<rect x="136.75" y="389.22" transform="matrix(-0.7071 0.7071 -0.7071 -0.7071 513.7963 569.8684)" width="4.25" height="4.25"/>
			<rect x="130.74" y="395.23" transform="matrix(-0.7071 0.7071 -0.7071 -0.7071 507.7831 584.3856)" width="4.25" height="4.25"/>
			<rect x="130.74" y="389.22" transform="matrix(-0.7071 0.7071 -0.7071 -0.7071 503.5311 574.1204)" width="4.25" height="4.25"/>
		</g>
		<g>
			<rect x="159.42" y="378.66" transform="matrix(0.7071 -0.7071 0.7071 0.7071 -222.2351 226.4703)" width="5.67" height="5.67"/>
			<rect x="151.4" y="378.66" transform="matrix(0.7071 -0.7071 0.7071 0.7071 -224.5834 220.801)" width="5.67" height="5.67"/>
			<rect x="143.39" y="378.66" transform="matrix(0.7071 -0.7071 0.7071 0.7071 -226.9317 215.1317)" width="5.67" height="5.67"/>
			<rect x="143.39" y="386.68" transform="matrix(0.7071 -0.7071 0.7071 0.7071 -232.601 217.48)" width="5.67" height="5.67"/>
			<rect x="143.39" y="394.7" transform="matrix(0.7071 -0.7071 0.7071 0.7071 -238.2703 219.8283)" width="5.67" height="5.67"/>
		</g>
	</g>
	<g>
		<g>
			<rect x="139.78" y="455.97" transform="matrix(-0.7071 -0.7071 0.7071 -0.7071 -81.6755 882.3593)" width="4.25" height="4.25"/>
			<rect x="139.78" y="461.98" transform="matrix(-0.7071 -0.7071 0.7071 -0.7071 -85.9274 892.6244)" width="4.25" height="4.25"/>
			<rect x="133.77" y="455.97" transform="matrix(-0.7071 -0.7071 0.7071 -0.7071 -91.9406 878.1072)" width="4.25" height="4.25"/>
			<rect x="133.77" y="461.98" transform="matrix(-0.7071 -0.7071 0.7071 -0.7071 -96.1926 888.3724)" width="4.25" height="4.25"/>
		</g>
		<g>
			<rect x="136.75" y="435.79" transform="matrix(-0.7071 -0.7071 0.7071 -0.7071 -72.5808 845.7711)" width="4.25" height="4.25"/>
			<rect x="136.75" y="441.8" transform="matrix(-0.7071 -0.7071 0.7071 -0.7071 -76.8327 856.0362)" width="4.25" height="4.25"/>
			<rect x="130.74" y="435.79" transform="matrix(-0.7071 -0.7071 0.7071 -0.7071 -82.8459 841.5191)" width="4.25" height="4.25"/>
			<rect x="130.74" y="441.8" transform="matrix(-0.7071 -0.7071 0.7071 -0.7071 -87.0979 851.7842)" width="4.25" height="4.25"/>
		</g>
		<g>
			<rect x="159.96" y="459" transform="matrix(0.7071 0.7071 -0.7071 0.7071 373.5378 20.4509)" width="4.25" height="4.25"/>
			<rect x="153.94" y="459" transform="matrix(0.7071 0.7071 -0.7071 0.7071 371.7766 24.7029)" width="4.25" height="4.25"/>
			<rect x="159.96" y="465.01" transform="matrix(0.7071 0.7071 -0.7071 0.7071 377.7898 22.2121)" width="4.25" height="4.25"/>
			<rect x="153.94" y="465.01" transform="matrix(0.7071 0.7071 -0.7071 0.7071 376.0286 26.4641)" width="4.25" height="4.25"/>
		</g>
		<g>
			<rect x="143.39" y="434.91" transform="matrix(-0.7071 -0.7071 0.7071 -0.7071 -59.9165 850.6692)" width="5.67" height="5.67"/>
			<rect x="143.39" y="442.93" transform="matrix(-0.7071 -0.7071 0.7071 -0.7071 -65.5858 864.3561)" width="5.67" height="5.67"/>
			<rect x="143.39" y="450.94" transform="matrix(-0.7071 -0.7071 0.7071 -0.7071 -71.2551 878.043)" width="5.67" height="5.67"/>
			<rect x="151.4" y="450.94" transform="matrix(-0.7071 -0.7071 0.7071 -0.7071 -57.5682 883.7122)" width="5.67" height="5.67"/>
			<rect x="159.42" y="450.94" transform="matrix(-0.7071 -0.7071 0.7071 -0.7071 -43.8813 889.3815)" width="5.67" height="5.67"/>
		</g>
	</g>
	<g>
		<g>
			<rect x="220.69" y="455.97" transform="matrix(-0.7071 0.7071 -0.7071 -0.7071 704.299 624.4601)" width="4.25" height="4.25"/>
			<rect x="226.71" y="455.97" transform="matrix(-0.7071 0.7071 -0.7071 -0.7071 714.5641 620.2081)" width="4.25" height="4.25"/>
			<rect x="220.69" y="461.98" transform="matrix(-0.7071 0.7071 -0.7071 -0.7071 708.551 634.7253)" width="4.25" height="4.25"/>
			<rect x="226.71" y="461.98" transform="matrix(-0.7071 0.7071 -0.7071 -0.7071 718.8161 630.4733)" width="4.25" height="4.25"/>
		</g>
		<g>
			<rect x="200.52" y="459" transform="matrix(-0.7071 0.7071 -0.7071 -0.7071 671.9963 643.9009)" width="4.25" height="4.25"/>
			<rect x="206.53" y="459" transform="matrix(-0.7071 0.7071 -0.7071 -0.7071 682.2615 639.649)" width="4.25" height="4.25"/>
			<rect x="200.52" y="465.01" transform="matrix(-0.7071 0.7071 -0.7071 -0.7071 676.2483 654.1661)" width="4.25" height="4.25"/>
			<rect x="206.53" y="465.01" transform="matrix(-0.7071 0.7071 -0.7071 -0.7071 686.5134 649.9141)" width="4.25" height="4.25"/>
		</g>
		<g>
			<rect x="223.72" y="435.79" transform="matrix(0.7071 -0.7071 0.7071 0.7071 -243.5045 287.963)" width="4.25" height="4.25"/>
			<rect x="223.72" y="441.8" transform="matrix(0.7071 -0.7071 0.7071 0.7071 -247.7565 289.7243)" width="4.25" height="4.25"/>
			<rect x="229.74" y="435.79" transform="matrix(0.7071 -0.7071 0.7071 0.7071 -241.7433 292.215)" width="4.25" height="4.25"/>
			<rect x="229.74" y="441.8" transform="matrix(0.7071 -0.7071 0.7071 0.7071 -245.9953 293.9762)" width="4.25" height="4.25"/>
		</g>
		<g>
			<rect x="199.63" y="450.94" transform="matrix(-0.7071 0.7071 -0.7071 -0.7071 666.5048 631.4824)" width="5.67" height="5.67"/>
			<rect x="207.65" y="450.94" transform="matrix(-0.7071 0.7071 -0.7071 -0.7071 680.1917 625.8132)" width="5.67" height="5.67"/>
			<rect x="215.67" y="450.94" transform="matrix(-0.7071 0.7071 -0.7071 -0.7071 693.8786 620.1439)" width="5.67" height="5.67"/>
			<rect x="215.67" y="442.93" transform="matrix(-0.7071 0.7071 -0.7071 -0.7071 688.2093 606.457)" width="5.67" height="5.67"/>
			<rect x="215.67" y="434.91" transform="matrix(-0.7071 0.7071 -0.7071 -0.7071 682.54 592.7701)" width="5.67" height="5.67"/>
		</g>
	</g>
</g>
<g>
</g>
<g>
</g>
<g>
</g>
<g>
</g>
<g>
</g>
<g>
</g>
<g>
</g>
<g>
</g>
<g>
</g>
<g>
</g>
<g>
</g>
<g>
</g>
<g>
</g>
<g>
</g>
<g>
</g>
</svg>
