<?xml version="1.0" encoding="utf-8"?>
<!-- Generator: Adobe Illustrator 27.2.0, SVG Export Plug-In . SVG Version: 6.00 Build 0)  -->
<svg version="1.1" id="Layer_1" xmlns="http://www.w3.org/2000/svg" xmlns:xlink="http://www.w3.org/1999/xlink" x="0px" y="0px"
	 viewBox="0 0 800 600" style="enable-background:new 0 0 800 600;" xml:space="preserve">
<g>
	<rect x="106.69" y="453.62" width="5.67" height="5.67"/>
	<g>
		<rect x="101.02" y="447.95" width="5.67" height="5.67"/>
		<rect x="95.35" y="442.28" width="5.67" height="5.67"/>
		<rect x="101.02" y="436.61" width="5.67" height="5.67"/>
		
			<rect x="112.36" y="447.95" transform="matrix(-1 -4.427715e-11 4.427715e-11 -1 230.3937 901.5748)" width="5.67" height="5.67"/>
		
			<rect x="118.03" y="442.28" transform="matrix(-1 -4.363544e-11 4.363544e-11 -1 241.7323 890.2362)" width="5.67" height="5.67"/>
		
			<rect x="112.36" y="436.61" transform="matrix(-1 -4.556057e-11 4.556057e-11 -1 230.3937 878.8976)" width="5.67" height="5.67"/>
		<rect x="106.69" y="430.94" width="5.67" height="5.67"/>
	</g>
	<g>
		<rect x="67.01" y="493.31" transform="matrix(4.588158e-11 -1 1 4.588158e-11 -426.2992 565.9843)" width="5.67" height="5.67"/>
		<rect x="61.34" y="498.98" transform="matrix(4.748563e-11 -1 1 4.748563e-11 -437.6378 565.9843)" width="5.67" height="5.67"/>
		<rect x="55.67" y="493.31" transform="matrix(4.588158e-11 -1 1 4.588158e-11 -437.6378 554.6457)" width="5.67" height="5.67"/>
		<rect x="67.01" y="481.97" transform="matrix(-8.983765e-11 1 -1 -8.983765e-11 554.6457 414.9606)" width="5.67" height="5.67"/>
		<rect x="61.34" y="476.3" transform="matrix(-8.823360e-11 1 -1 -8.823360e-11 543.3071 414.9606)" width="5.67" height="5.67"/>
		<rect x="55.67" y="481.97" transform="matrix(-9.160246e-11 1 -1 -9.160246e-11 543.3071 426.2992)" width="5.67" height="5.67"/>
		<rect x="50" y="487.64" transform="matrix(4.411677e-11 -1 1 4.411677e-11 -437.6378 543.3071)" width="5.67" height="5.67"/>
	</g>
	<g>
		
			<rect x="112.36" y="527.32" transform="matrix(-1 -8.983804e-11 8.983804e-11 -1 230.3937 1060.3149)" width="5.67" height="5.67"/>
		
			<rect x="118.03" y="532.99" transform="matrix(-1 -9.047975e-11 9.047975e-11 -1 241.7323 1071.6536)" width="5.67" height="5.67"/>
		
			<rect x="112.36" y="538.66" transform="matrix(-1 -8.983804e-11 8.983804e-11 -1 230.3937 1082.9921)" width="5.67" height="5.67"/>
		<rect x="101.02" y="527.32" width="5.67" height="5.67"/>
		<rect x="95.35" y="532.99" width="5.67" height="5.67"/>
		<rect x="101.02" y="538.66" width="5.67" height="5.67"/>
		
			<rect x="106.69" y="544.33" transform="matrix(-1 -8.983804e-11 8.983804e-11 -1 219.0551 1094.3307)" width="5.67" height="5.67"/>
	</g>
	<g>
		
			<rect x="146.38" y="481.97" transform="matrix(-1.357192e-10 1 -1 -1.357192e-10 634.0157 335.5905)" width="5.67" height="5.67"/>
		<rect x="152.05" y="476.3" transform="matrix(-1.374840e-10 1 -1 -1.374840e-10 634.0157 324.252)" width="5.67" height="5.67"/>
		<rect x="157.72" y="481.97" transform="matrix(-1.376447e-10 1 -1 -1.376447e-10 645.3543 324.252)" width="5.67" height="5.67"/>
		<rect x="146.38" y="493.31" transform="matrix(1.780718e-10 -1 1 1.780718e-10 -346.9291 645.3543)" width="5.67" height="5.67"/>
		<rect x="152.05" y="498.98" transform="matrix(1.780718e-10 -1 1 1.780718e-10 -346.9291 656.6929)" width="5.67" height="5.67"/>
		<rect x="157.72" y="493.31" transform="matrix(1.780718e-10 -1 1 1.780718e-10 -335.5905 656.6929)" width="5.67" height="5.67"/>
		<rect x="163.39" y="487.64" transform="matrix(-1.341151e-10 1 -1 -1.341151e-10 656.6929 324.252)" width="5.67" height="5.67"/>
	</g>
	<rect x="106.69" y="469.41" width="5.67" height="5.67"/>
	<rect x="88.46" y="487.64" transform="matrix(4.588158e-11 -1 1 4.588158e-11 -399.1732 581.7717)" width="5.67" height="5.67"/>
	
		<rect x="106.69" y="505.87" transform="matrix(-1 -9.080038e-11 9.080038e-11 -1 219.0551 1017.4016)" width="5.67" height="5.67"/>
	<rect x="124.92" y="487.64" transform="matrix(-1.339552e-10 1 -1 -1.339552e-10 618.2283 362.7165)" width="5.67" height="5.67"/>
	<rect x="112.36" y="459.29" width="5.67" height="5.67"/>
	<rect x="118.03" y="464.96" width="5.67" height="5.67"/>
	<rect x="123.7" y="470.63" width="5.67" height="5.67"/>
	<rect x="129.37" y="476.3" width="5.67" height="5.67"/>
	<rect x="135.04" y="481.97" width="5.67" height="5.67"/>
	<rect x="140.71" y="487.64" width="5.67" height="5.67"/>
	<rect x="101.02" y="459.29" width="5.67" height="5.67"/>
	<rect x="95.35" y="464.96" width="5.67" height="5.67"/>
	<rect x="89.69" y="470.63" width="5.67" height="5.67"/>
	<g>
		<rect x="84.02" y="464.96" width="5.67" height="5.67"/>
		<rect x="78.35" y="459.29" width="5.67" height="5.67"/>
		<rect x="72.68" y="453.62" width="5.67" height="5.67"/>
		<rect x="67.01" y="459.29" width="5.67" height="5.67"/>
		<rect x="78.35" y="447.95" width="5.67" height="5.67"/>
		<rect x="67.01" y="447.95" width="5.67" height="5.67"/>
	</g>
	<g>
		<rect x="84.02" y="510.31" transform="matrix(4.588158e-11 -1 1 4.588158e-11 -426.2992 600)" width="5.67" height="5.67"/>
		<rect x="78.35" y="515.98" transform="matrix(4.411677e-11 -1 1 4.411677e-11 -437.6378 600)" width="5.67" height="5.67"/>
		<rect x="72.68" y="521.65" transform="matrix(4.588158e-11 -1 1 4.588158e-11 -448.9764 600)" width="5.67" height="5.67"/>
		<rect x="78.35" y="527.32" transform="matrix(4.395601e-11 -1 1 4.395601e-11 -448.9764 611.3386)" width="5.67" height="5.67"/>
		<rect x="67.01" y="515.98" transform="matrix(4.588158e-11 -1 1 4.588158e-11 -448.9764 588.6614)" width="5.67" height="5.67"/>
		<rect x="67.01" y="527.32" transform="matrix(4.572171e-11 -1 1 4.572171e-11 -460.315 600)" width="5.67" height="5.67"/>
	</g>
	<g>
		
			<rect x="129.37" y="510.31" transform="matrix(-1 -9.015867e-11 9.015867e-11 -1 264.4095 1026.2992)" width="5.67" height="5.67"/>
		
			<rect x="135.04" y="515.98" transform="matrix(-1 -9.047975e-11 9.047975e-11 -1 275.748 1037.6378)" width="5.67" height="5.67"/>
		
			<rect x="140.71" y="521.65" transform="matrix(-1 -8.791291e-11 8.791291e-11 -1 287.0866 1048.9763)" width="5.67" height="5.67"/>
		
			<rect x="146.38" y="515.98" transform="matrix(-1 -8.983804e-11 8.983804e-11 -1 298.4252 1037.6378)" width="5.67" height="5.67"/>
		
			<rect x="135.04" y="527.32" transform="matrix(-1 -8.983804e-11 8.983804e-11 -1 275.748 1060.3149)" width="5.67" height="5.67"/>
		
			<rect x="146.38" y="527.32" transform="matrix(-1 -8.983804e-11 8.983804e-11 -1 298.4252 1060.3149)" width="5.67" height="5.67"/>
	</g>
	<g>
		<rect x="129.37" y="464.96" transform="matrix(-1.341151e-10 1 -1 -1.341151e-10 600 335.5905)" width="5.67" height="5.67"/>
		<rect x="135.04" y="459.29" transform="matrix(-1.323503e-10 1 -1 -1.323503e-10 600 324.252)" width="5.67" height="5.67"/>
		<rect x="140.71" y="453.62" transform="matrix(-1.323503e-10 1 -1 -1.323503e-10 600 312.9134)" width="5.67" height="5.67"/>
		
			<rect x="135.04" y="447.95" transform="matrix(-1.358799e-10 1 -1 -1.358799e-10 588.6614 312.9134)" width="5.67" height="5.67"/>
		
			<rect x="146.38" y="459.29" transform="matrix(-1.341151e-10 1 -1 -1.341151e-10 611.3386 312.9134)" width="5.67" height="5.67"/>
		<rect x="146.38" y="447.95" transform="matrix(-1.341151e-10 1 -1 -1.341151e-10 600 301.5748)" width="5.67" height="5.67"/>
	</g>
	<rect x="84.02" y="476.3" width="5.67" height="5.67"/>
	<rect x="78.35" y="481.97" width="5.67" height="5.67"/>
	<rect x="72.68" y="487.64" width="5.67" height="5.67"/>
	<rect x="78.35" y="493.31" width="5.67" height="5.67"/>
	<rect x="84.02" y="498.98" width="5.67" height="5.67"/>
	<rect x="89.69" y="504.65" width="5.67" height="5.67"/>
	<rect x="95.35" y="510.31" width="5.67" height="5.67"/>
	<rect x="101.02" y="515.98" width="5.67" height="5.67"/>
	<rect x="106.69" y="521.65" width="5.67" height="5.67"/>
	<rect x="112.36" y="515.98" width="5.67" height="5.67"/>
	<rect x="118.03" y="510.31" width="5.67" height="5.67"/>
	<rect x="123.7" y="504.65" width="5.67" height="5.67"/>
	<g>
		<rect x="118.03" y="476.3" width="5.67" height="5.67"/>
		<rect x="95.35" y="476.3" width="5.67" height="5.67"/>
		<rect x="95.35" y="498.98" width="5.67" height="5.67"/>
		<rect x="118.03" y="498.98" width="5.67" height="5.67"/>
	</g>
	<rect x="129.37" y="498.98" width="5.67" height="5.67"/>
	<rect x="135.04" y="493.31" width="5.67" height="5.67"/>
	
		<rect x="101.84" y="482.79" style="fill:none;stroke:#000000;stroke-width:2;stroke-miterlimit:10;" width="15.37" height="15.37"/>
</g>
<g>
</g>
<g>
</g>
<g>
</g>
<g>
</g>
<g>
</g>
<g>
</g>
<g>
</g>
<g>
</g>
<g>
</g>
<g>
</g>
<g>
</g>
<g>
</g>
<g>
</g>
<g>
</g>
<g>
</g>
</svg>
