<?xml version="1.0" encoding="utf-8"?>
<!-- Generator: Adobe Illustrator 27.2.0, SVG Export Plug-In . SVG Version: 6.00 Build 0)  -->
<svg version="1.1" id="Layer_1" xmlns="http://www.w3.org/2000/svg" xmlns:xlink="http://www.w3.org/1999/xlink" x="0px" y="0px"
	 viewBox="0 0 800 600" style="enable-background:new 0 0 800 600;" xml:space="preserve">
<g>
	<rect x="147.34" y="464" width="5.67" height="5.67"/>
	<rect x="153.01" y="458.33" width="5.67" height="5.67"/>
	<rect x="158.67" y="452.66" width="5.67" height="5.67"/>
	<rect x="164.34" y="446.99" width="5.67" height="5.67"/>
	<rect x="158.67" y="441.33" width="5.67" height="5.67"/>
	<rect x="153.01" y="435.66" width="5.67" height="5.67"/>
	<rect x="141.67" y="458.33" transform="matrix(-1 -4.427715e-11 4.427715e-11 -1 289.0031 922.3355)" width="5.67" height="5.67"/>
	<rect x="136" y="452.66" transform="matrix(-1 -4.427715e-11 4.427715e-11 -1 277.6645 910.9969)" width="5.67" height="5.67"/>
	<rect x="130.33" y="446.99" transform="matrix(-1 -4.588164e-11 4.588164e-11 -1 266.3259 899.6583)" width="5.67" height="5.67"/>
	<rect x="136" y="441.33" transform="matrix(-1 -4.395652e-11 4.395652e-11 -1 277.6645 888.3198)" width="5.67" height="5.67"/>
	<rect x="141.67" y="435.66" transform="matrix(-1 -4.427715e-11 4.427715e-11 -1 289.0031 876.9812)" width="5.67" height="5.67"/>
	<rect x="147.34" y="429.99" width="5.67" height="5.67"/>
	<rect x="147.34" y="446.99" width="5.67" height="5.67"/>
	<g>
		<g>
			<rect x="147.34" y="412.98" width="5.67" height="5.67"/>
			<rect x="153.01" y="407.31" width="5.67" height="5.67"/>
			
				<rect x="141.67" y="407.31" transform="matrix(-1 -4.588164e-11 4.588164e-11 -1 289.0031 820.2883)" width="5.67" height="5.67"/>
		</g>
		<g>
			
				<rect x="147.34" y="401.07" transform="matrix(-1 -4.652335e-11 4.652335e-11 -1 300.3416 807.8159)" width="5.67" height="5.67"/>
			
				<rect x="153.01" y="395.4" transform="matrix(-1 -4.395652e-11 4.395652e-11 -1 311.6802 796.4772)" width="5.67" height="5.67"/>
			
				<rect x="158.67" y="389.73" transform="matrix(-1 -4.427715e-11 4.427715e-11 -1 323.0188 785.1387)" width="5.67" height="5.67"/>
			
				<rect x="153.01" y="384.07" transform="matrix(-1 -4.395652e-11 4.395652e-11 -1 311.6802 773.8001)" width="5.67" height="5.67"/>
			<rect x="141.67" y="395.4" width="5.67" height="5.67"/>
			<rect x="136" y="389.73" width="5.67" height="5.67"/>
			<rect x="141.67" y="384.07" width="5.67" height="5.67"/>
			
				<rect x="147.34" y="378.4" transform="matrix(-1 -4.588164e-11 4.588164e-11 -1 300.3416 762.4615)" width="5.67" height="5.67"/>
		</g>
		<g>
			<rect x="153.01" y="424.32" width="5.67" height="5.67"/>
			<rect x="158.67" y="418.65" width="5.67" height="5.67"/>
			<rect x="164.34" y="412.98" width="5.67" height="5.67"/>
			<rect x="170.01" y="407.31" width="5.67" height="5.67"/>
			
				<rect x="141.67" y="424.32" transform="matrix(-1 -4.588164e-11 4.588164e-11 -1 289.0031 854.304)" width="5.67" height="5.67"/>
			<rect x="136" y="418.65" transform="matrix(-1 -4.427715e-11 4.427715e-11 -1 277.6645 842.9655)" width="5.67" height="5.67"/>
			
				<rect x="130.33" y="412.98" transform="matrix(-1 -4.395652e-11 4.395652e-11 -1 266.3259 831.6268)" width="5.67" height="5.67"/>
			
				<rect x="124.66" y="407.31" transform="matrix(-1 -4.588164e-11 4.588164e-11 -1 254.9873 820.2883)" width="5.67" height="5.67"/>
		</g>
		<g>
			<polygon points="144,349.66 150.17,355.83 156.34,349.66 			"/>
			<polygon points="167.48,360.66 161.31,366.83 167.48,373 			"/>
			<polygon points="132.86,360.66 139.03,366.83 132.86,373 			"/>
			<g>
				<rect x="148.04" y="373.21" width="4.25" height="4.25"/>
				<rect x="152.3" y="368.96" width="4.25" height="4.25"/>
				<rect x="156.55" y="364.7" width="4.25" height="4.25"/>
				<rect x="152.3" y="360.45" width="4.25" height="4.25"/>
				<rect x="148.04" y="356.2" width="4.25" height="4.25"/>
				<rect x="143.79" y="360.45" width="4.25" height="4.25"/>
				<rect x="139.54" y="364.7" width="4.25" height="4.25"/>
				<rect x="143.79" y="368.96" width="4.25" height="4.25"/>
			</g>
		</g>
		<g>
			<polygon points="169.66,379.24 175.83,385.4 181.99,379.24 			"/>
			<polygon points="193.14,390.24 186.97,396.41 193.14,402.57 			"/>
			<g>
				<rect x="173.7" y="402.78" width="4.25" height="4.25"/>
				<rect x="177.95" y="398.53" width="4.25" height="4.25"/>
				<rect x="182.21" y="394.28" width="4.25" height="4.25"/>
				<rect x="177.95" y="390.03" width="4.25" height="4.25"/>
				<rect x="173.7" y="385.78" width="4.25" height="4.25"/>
				<rect x="169.45" y="390.03" width="4.25" height="4.25"/>
				<rect x="165.2" y="394.28" width="4.25" height="4.25"/>
				<rect x="169.45" y="398.53" width="4.25" height="4.25"/>
			</g>
		</g>
		<g>
			<polygon points="130.68,379.24 124.51,385.4 118.35,379.24 			"/>
			<polygon points="107.2,390.24 113.37,396.41 107.2,402.57 			"/>
			<g>
				
					<rect x="122.39" y="402.78" transform="matrix(-1 -4.449120e-11 4.449120e-11 -1 249.0273 809.8214)" width="4.25" height="4.25"/>
				
					<rect x="118.14" y="398.53" transform="matrix(-1 -4.491886e-11 4.491886e-11 -1 240.5234 801.3175)" width="4.25" height="4.25"/>
				
					<rect x="113.88" y="394.28" transform="matrix(-1 -4.235247e-11 4.235247e-11 -1 232.0195 792.8135)" width="4.25" height="4.25"/>
				
					<rect x="118.14" y="390.03" transform="matrix(-1 -4.449120e-11 4.449120e-11 -1 240.5234 784.3096)" width="4.25" height="4.25"/>
				
					<rect x="122.39" y="385.78" transform="matrix(-1 -4.491886e-11 4.491886e-11 -1 249.0273 775.8057)" width="4.25" height="4.25"/>
				
					<rect x="126.64" y="390.03" transform="matrix(-1 -4.406354e-11 4.406354e-11 -1 257.5313 784.3096)" width="4.25" height="4.25"/>
				
					<rect x="130.89" y="394.28" transform="matrix(-1 -4.449120e-11 4.449120e-11 -1 266.0352 792.8135)" width="4.25" height="4.25"/>
				
					<rect x="126.64" y="398.53" transform="matrix(-1 -4.491886e-11 4.491886e-11 -1 257.5313 801.3175)" width="4.25" height="4.25"/>
			</g>
		</g>
	</g>
	<g>
		<g>
			
				<rect x="113.32" y="446.99" transform="matrix(4.411677e-11 -1 1 4.411677e-11 -333.6741 565.9843)" width="5.67" height="5.67"/>
			
				<rect x="107.65" y="441.33" transform="matrix(4.427753e-11 -1 1 4.427753e-11 -333.6741 554.6457)" width="5.67" height="5.67"/>
			
				<rect x="107.65" y="452.66" transform="matrix(-8.983765e-11 1 -1 -8.983765e-11 565.9843 345.0127)" width="5.67" height="5.67"/>
		</g>
		<g>
			
				<rect x="101.41" y="446.99" transform="matrix(-8.999841e-11 1 -1 -8.999841e-11 554.0787 345.5796)" width="5.67" height="5.67"/>
			
				<rect x="95.75" y="441.33" transform="matrix(-9.015917e-11 1 -1 -9.015917e-11 542.7402 345.5796)" width="5.67" height="5.67"/>
			
				<rect x="90.08" y="435.66" transform="matrix(-8.999841e-11 1 -1 -8.999841e-11 531.4016 345.5796)" width="5.67" height="5.67"/>
			
				<rect x="84.41" y="441.33" transform="matrix(-8.983765e-11 1 -1 -8.983765e-11 531.4016 356.9182)" width="5.67" height="5.67"/>
			<rect x="95.75" y="452.66" transform="matrix(4.411677e-11 -1 1 4.411677e-11 -356.9182 554.0787)" width="5.67" height="5.67"/>
			<rect x="90.08" y="458.33" transform="matrix(4.588158e-11 -1 1 4.588158e-11 -368.2568 554.0787)" width="5.67" height="5.67"/>
			<rect x="84.41" y="452.66" transform="matrix(4.411677e-11 -1 1 4.411677e-11 -368.2568 542.7402)" width="5.67" height="5.67"/>
			
				<rect x="78.74" y="446.99" transform="matrix(-8.983765e-11 1 -1 -8.983765e-11 531.4016 368.2568)" width="5.67" height="5.67"/>
		</g>
		<g>
			
				<rect x="124.66" y="441.33" transform="matrix(4.588158e-11 -1 1 4.588158e-11 -316.6662 571.6536)" width="5.67" height="5.67"/>
			
				<rect x="118.99" y="435.66" transform="matrix(4.395601e-11 -1 1 4.395601e-11 -316.6662 560.3149)" width="5.67" height="5.67"/>
			
				<rect x="113.32" y="429.99" transform="matrix(4.395601e-11 -1 1 4.395601e-11 -316.6662 548.9764)" width="5.67" height="5.67"/>
			
				<rect x="107.65" y="424.32" transform="matrix(4.411677e-11 -1 1 4.411677e-11 -316.6662 537.6378)" width="5.67" height="5.67"/>
			
				<rect x="124.66" y="452.66" transform="matrix(-8.983765e-11 1 -1 -8.983765e-11 582.9921 328.0048)" width="5.67" height="5.67"/>
			
				<rect x="118.99" y="458.33" transform="matrix(-8.999841e-11 1 -1 -8.999841e-11 582.9921 339.3434)" width="5.67" height="5.67"/>
			<rect x="113.32" y="464" transform="matrix(-8.999841e-11 1 -1 -8.999841e-11 582.9921 350.682)" width="5.67" height="5.67"/>
			
				<rect x="107.65" y="469.67" transform="matrix(-8.983765e-11 1 -1 -8.983765e-11 582.9921 362.0206)" width="5.67" height="5.67"/>
		</g>
		<g>
			<polygon points="50,456 56.17,449.83 50,443.66 			"/>
			<polygon points="61,432.52 67.17,438.69 73.34,432.52 			"/>
			<polygon points="61,467.14 67.17,460.97 73.34,467.14 			"/>
			<g>
				<rect x="73.55" y="447.7" transform="matrix(4.470564e-11 -1 1 4.470564e-11 -374.1543 525.5041)" width="4.25" height="4.25"/>
				<rect x="69.3" y="443.45" transform="matrix(4.449158e-11 -1 1 4.449158e-11 -374.1543 517.0001)" width="4.25" height="4.25"/>
				<rect x="65.04" y="439.2" transform="matrix(4.705753e-11 -1 1 4.705753e-11 -374.1543 508.4962)" width="4.25" height="4.25"/>
				
					<rect x="60.79" y="443.45" transform="matrix(4.449158e-11 -1 1 4.449158e-11 -382.6582 508.4962)" width="4.25" height="4.25"/>
				<rect x="56.54" y="447.7" transform="matrix(4.449158e-11 -1 1 4.449158e-11 -391.1621 508.4962)" width="4.25" height="4.25"/>
				
					<rect x="60.79" y="451.96" transform="matrix(4.470564e-11 -1 1 4.470564e-11 -391.1621 517.0001)" width="4.25" height="4.25"/>
				
					<rect x="65.04" y="456.21" transform="matrix(4.449158e-11 -1 1 4.449158e-11 -391.1621 525.5041)" width="4.25" height="4.25"/>
				<rect x="69.3" y="451.96" transform="matrix(4.449158e-11 -1 1 4.449158e-11 -382.6582 525.5041)" width="4.25" height="4.25"/>
			</g>
		</g>
		<g>
			<polygon points="79.58,430.34 85.74,424.17 79.58,418.01 			"/>
			<polygon points="90.58,406.86 96.75,413.03 102.92,406.86 			"/>
			<g>
				
					<rect x="103.13" y="422.05" transform="matrix(4.470564e-11 -1 1 4.470564e-11 -318.9196 529.4244)" width="4.25" height="4.25"/>
				
					<rect x="98.87" y="417.79" transform="matrix(4.449158e-11 -1 1 4.449158e-11 -318.9196 520.9205)" width="4.25" height="4.25"/>
				
					<rect x="94.62" y="413.54" transform="matrix(4.705753e-11 -1 1 4.705753e-11 -318.9196 512.4165)" width="4.25" height="4.25"/>
				
					<rect x="90.37" y="417.79" transform="matrix(4.470564e-11 -1 1 4.470564e-11 -327.4236 512.4165)" width="4.25" height="4.25"/>
				
					<rect x="86.12" y="422.05" transform="matrix(4.449158e-11 -1 1 4.449158e-11 -335.9275 512.4165)" width="4.25" height="4.25"/>
				<rect x="90.37" y="426.3" transform="matrix(4.470564e-11 -1 1 4.470564e-11 -335.9275 520.9205)" width="4.25" height="4.25"/>
				
					<rect x="94.62" y="430.55" transform="matrix(4.449158e-11 -1 1 4.449158e-11 -335.9275 529.4244)" width="4.25" height="4.25"/>
				<rect x="98.87" y="426.3" transform="matrix(4.449158e-11 -1 1 4.449158e-11 -327.4236 529.4244)" width="4.25" height="4.25"/>
			</g>
		</g>
		<g>
			<polygon points="79.58,469.32 85.74,475.49 79.58,481.65 			"/>
			<polygon points="90.58,492.8 96.75,486.63 102.92,492.8 			"/>
			<g>
				
					<rect x="103.13" y="473.36" transform="matrix(-8.919639e-11 1 -1 -8.919639e-11 580.7387 370.2339)" width="4.25" height="4.25"/>
				
					<rect x="98.87" y="477.61" transform="matrix(-8.941044e-11 1 -1 -8.941044e-11 580.7387 378.7379)" width="4.25" height="4.25"/>
				
					<rect x="94.62" y="481.86" transform="matrix(-8.941044e-11 1 -1 -8.941044e-11 580.7387 387.2418)" width="4.25" height="4.25"/>
				
					<rect x="90.37" y="477.61" transform="matrix(-8.919639e-11 1 -1 -8.919639e-11 572.2347 387.2418)" width="4.25" height="4.25"/>
				
					<rect x="86.12" y="473.36" transform="matrix(-8.941044e-11 1 -1 -8.941044e-11 563.7308 387.2418)" width="4.25" height="4.25"/>
				
					<rect x="90.37" y="469.11" transform="matrix(-8.941044e-11 1 -1 -8.941044e-11 563.7308 378.7379)" width="4.25" height="4.25"/>
				
					<rect x="94.62" y="464.86" transform="matrix(-8.941044e-11 1 -1 -8.941044e-11 563.7308 370.2339)" width="4.25" height="4.25"/>
				
					<rect x="98.87" y="469.11" transform="matrix(-8.919639e-11 1 -1 -8.919639e-11 572.2347 370.2339)" width="4.25" height="4.25"/>
			</g>
		</g>
	</g>
	<g>
		<g>
			
				<rect x="147.34" y="481.01" transform="matrix(-1 -8.983804e-11 8.983804e-11 -1 300.3416 967.6898)" width="5.67" height="5.67"/>
			
				<rect x="141.67" y="486.68" transform="matrix(-1 -9.015867e-11 9.015867e-11 -1 289.0031 979.0284)" width="5.67" height="5.67"/>
			<rect x="153.01" y="486.68" width="5.67" height="5.67"/>
		</g>
		<g>
			<rect x="147.34" y="492.92" width="5.67" height="5.67"/>
			<rect x="141.67" y="498.59" width="5.67" height="5.67"/>
			<rect x="136" y="504.25" width="5.67" height="5.67"/>
			<rect x="141.67" y="509.92" width="5.67" height="5.67"/>
			
				<rect x="153.01" y="498.59" transform="matrix(-1 -9.047975e-11 9.047975e-11 -1 311.6802 1002.8395)" width="5.67" height="5.67"/>
			
				<rect x="158.67" y="504.25" transform="matrix(-1 -9.015867e-11 9.015867e-11 -1 323.0188 1014.178)" width="5.67" height="5.67"/>
			
				<rect x="153.01" y="509.92" transform="matrix(-1 -9.015867e-11 9.015867e-11 -1 311.6802 1025.5166)" width="5.67" height="5.67"/>
			<rect x="147.34" y="515.59" width="5.67" height="5.67"/>
		</g>
		<g>
			
				<rect x="141.67" y="469.67" transform="matrix(-1 -8.983804e-11 8.983804e-11 -1 289.0031 945.0127)" width="5.67" height="5.67"/>
			<rect x="136" y="475.34" transform="matrix(-1 -8.983804e-11 8.983804e-11 -1 277.6645 956.3513)" width="5.67" height="5.67"/>
			
				<rect x="130.33" y="481.01" transform="matrix(-1 -9.015867e-11 9.015867e-11 -1 266.3259 967.6898)" width="5.67" height="5.67"/>
			
				<rect x="124.66" y="486.68" transform="matrix(-1 -8.823355e-11 8.823355e-11 -1 254.9873 979.0284)" width="5.67" height="5.67"/>
			<rect x="153.01" y="469.67" width="5.67" height="5.67"/>
			<rect x="158.67" y="475.34" width="5.67" height="5.67"/>
			<rect x="164.34" y="481.01" width="5.67" height="5.67"/>
			<rect x="170.01" y="486.68" width="5.67" height="5.67"/>
		</g>
		<g>
			<polygon points="156.34,550 150.17,543.83 144,550 			"/>
			<polygon points="132.86,539 139.03,532.83 132.86,526.66 			"/>
			<polygon points="167.48,539 161.31,532.83 167.48,526.66 			"/>
			<g>
				
					<rect x="148.04" y="522.2" transform="matrix(-1 -9.197677e-11 9.197677e-11 -1 300.3416 1048.6503)" width="4.25" height="4.25"/>
				
					<rect x="143.79" y="526.45" transform="matrix(-1 -8.941038e-11 8.941038e-11 -1 291.8377 1057.1542)" width="4.25" height="4.25"/>
				
					<rect x="139.54" y="530.7" transform="matrix(-1 -9.197677e-11 9.197677e-11 -1 283.3338 1065.6581)" width="4.25" height="4.25"/>
				
					<rect x="143.79" y="534.96" transform="matrix(-1 -8.898228e-11 8.898228e-11 -1 291.8377 1074.162)" width="4.25" height="4.25"/>
				
					<rect x="148.04" y="539.21" transform="matrix(-1 -8.941038e-11 8.941038e-11 -1 300.3416 1082.666)" width="4.25" height="4.25"/>
				
					<rect x="152.3" y="534.96" transform="matrix(-1 -8.941038e-11 8.941038e-11 -1 308.8456 1074.162)" width="4.25" height="4.25"/>
				
					<rect x="156.55" y="530.7" transform="matrix(-1 -8.941038e-11 8.941038e-11 -1 317.3495 1065.6581)" width="4.25" height="4.25"/>
				
					<rect x="152.3" y="526.45" transform="matrix(-1 -9.154912e-11 9.154912e-11 -1 308.8456 1057.1542)" width="4.25" height="4.25"/>
			</g>
		</g>
		<g>
			<polygon points="130.68,520.42 124.51,514.26 118.35,520.42 			"/>
			<polygon points="107.2,509.42 113.37,503.25 107.2,497.08 			"/>
			<g>
				
					<rect x="122.39" y="492.62" transform="matrix(-1 -8.941038e-11 8.941038e-11 -1 249.0273 989.4952)" width="4.25" height="4.25"/>
				
					<rect x="118.14" y="496.87" transform="matrix(-1 -8.898228e-11 8.898228e-11 -1 240.5234 997.9992)" width="4.25" height="4.25"/>
				
					<rect x="113.88" y="501.13" transform="matrix(-1 -8.941038e-11 8.941038e-11 -1 232.0195 1006.5031)" width="4.25" height="4.25"/>
				
					<rect x="118.14" y="505.38" transform="matrix(-1 -8.855462e-11 8.855462e-11 -1 240.5234 1015.0071)" width="4.25" height="4.25"/>
				
					<rect x="122.39" y="509.63" transform="matrix(-1 -8.941038e-11 8.941038e-11 -1 249.0273 1023.511)" width="4.25" height="4.25"/>
				
					<rect x="126.64" y="505.38" transform="matrix(-1 -9.197677e-11 9.197677e-11 -1 257.5313 1015.0071)" width="4.25" height="4.25"/>
				
					<rect x="130.89" y="501.13" transform="matrix(-1 -8.941038e-11 8.941038e-11 -1 266.0352 1006.5031)" width="4.25" height="4.25"/>
				
					<rect x="126.64" y="496.87" transform="matrix(-1 -8.898228e-11 8.898228e-11 -1 257.5313 997.9992)" width="4.25" height="4.25"/>
			</g>
		</g>
		<g>
			<polygon points="169.66,520.42 175.83,514.26 181.99,520.42 			"/>
			<polygon points="193.14,509.42 186.97,503.25 193.14,497.08 			"/>
			<g>
				<rect x="173.7" y="492.62" width="4.25" height="4.25"/>
				<rect x="177.95" y="496.87" width="4.25" height="4.25"/>
				<rect x="182.21" y="501.13" width="4.25" height="4.25"/>
				<rect x="177.95" y="505.38" width="4.25" height="4.25"/>
				<rect x="173.7" y="509.63" width="4.25" height="4.25"/>
				<rect x="169.45" y="505.38" width="4.25" height="4.25"/>
				<rect x="165.2" y="501.13" width="4.25" height="4.25"/>
				<rect x="169.45" y="496.87" width="4.25" height="4.25"/>
			</g>
		</g>
	</g>
	<g>
		<g>
			
				<rect x="181.35" y="446.99" transform="matrix(-1.357192e-10 1 -1 -1.357192e-10 634.0157 265.6426)" width="5.67" height="5.67"/>
			
				<rect x="187.02" y="452.66" transform="matrix(-1.358799e-10 1 -1 -1.358799e-10 645.3543 265.6426)" width="5.67" height="5.67"/>
			<rect x="187.02" y="441.33" transform="matrix(1.798366e-10 -1 1 1.798366e-10 -254.304 634.0157)" width="5.67" height="5.67"/>
		</g>
		<g>
			
				<rect x="193.26" y="446.99" transform="matrix(1.782317e-10 -1 1 1.782317e-10 -253.7371 645.9213)" width="5.67" height="5.67"/>
			
				<rect x="198.93" y="452.66" transform="matrix(1.799965e-10 -1 1 1.799965e-10 -253.7371 657.2598)" width="5.67" height="5.67"/>
			<rect x="204.6" y="458.33" transform="matrix(1.798366e-10 -1 1 1.798366e-10 -253.7371 668.5984)" width="5.67" height="5.67"/>
			
				<rect x="210.27" y="452.66" transform="matrix(1.799965e-10 -1 1 1.799965e-10 -242.3985 668.5984)" width="5.67" height="5.67"/>
			
				<rect x="198.93" y="441.33" transform="matrix(-1.358799e-10 1 -1 -1.358799e-10 645.9213 242.3985)" width="5.67" height="5.67"/>
			
				<rect x="204.6" y="435.66" transform="matrix(-1.341151e-10 1 -1 -1.341151e-10 645.9213 231.0599)" width="5.67" height="5.67"/>
			
				<rect x="210.27" y="441.33" transform="matrix(-1.341151e-10 1 -1 -1.341151e-10 657.2598 231.0599)" width="5.67" height="5.67"/>
			
				<rect x="215.93" y="446.99" transform="matrix(1.782317e-10 -1 1 1.782317e-10 -231.0599 668.5984)" width="5.67" height="5.67"/>
		</g>
		<g>
			
				<rect x="170.01" y="452.66" transform="matrix(-1.339552e-10 1 -1 -1.339552e-10 628.3464 282.6505)" width="5.67" height="5.67"/>
			
				<rect x="175.68" y="458.33" transform="matrix(-1.360407e-10 1 -1 -1.360407e-10 639.6851 282.6505)" width="5.67" height="5.67"/>
			<rect x="181.35" y="464" transform="matrix(-1.357192e-10 1 -1 -1.357192e-10 651.0236 282.6505)" width="5.67" height="5.67"/>
			
				<rect x="187.02" y="469.67" transform="matrix(-1.358799e-10 1 -1 -1.358799e-10 662.3622 282.6505)" width="5.67" height="5.67"/>
			
				<rect x="170.01" y="441.33" transform="matrix(1.798366e-10 -1 1 1.798366e-10 -271.3119 617.0079)" width="5.67" height="5.67"/>
			
				<rect x="175.68" y="435.66" transform="matrix(1.798366e-10 -1 1 1.798366e-10 -259.9733 617.0079)" width="5.67" height="5.67"/>
			
				<rect x="181.35" y="429.99" transform="matrix(1.798366e-10 -1 1 1.798366e-10 -248.6347 617.0079)" width="5.67" height="5.67"/>
			
				<rect x="187.02" y="424.32" transform="matrix(1.798366e-10 -1 1 1.798366e-10 -237.2961 617.0079)" width="5.67" height="5.67"/>
		</g>
		<g>
			<polygon points="250.34,443.66 244.17,449.83 250.34,456 			"/>
			<polygon points="239.34,467.14 233.17,460.97 227,467.14 			"/>
			<polygon points="239.34,432.52 233.17,438.69 227,432.52 			"/>
			<g>
				
					<rect x="222.54" y="447.7" transform="matrix(-1.341151e-10 1 -1 -1.341151e-10 674.4959 225.1624)" width="4.25" height="4.25"/>
				
					<rect x="226.79" y="451.96" transform="matrix(-1.341151e-10 1 -1 -1.341151e-10 682.9999 225.1624)" width="4.25" height="4.25"/>
				
					<rect x="231.04" y="456.21" transform="matrix(-1.343292e-10 1 -1 -1.343292e-10 691.5038 225.1624)" width="4.25" height="4.25"/>
				
					<rect x="235.3" y="451.96" transform="matrix(-1.341151e-10 1 -1 -1.341151e-10 691.5038 216.6585)" width="4.25" height="4.25"/>
				
					<rect x="239.55" y="447.7" transform="matrix(-1.341151e-10 1 -1 -1.341151e-10 691.5038 208.1546)" width="4.25" height="4.25"/>
				
					<rect x="235.3" y="443.45" transform="matrix(-1.364679e-10 1 -1 -1.364679e-10 682.9999 208.1546)" width="4.25" height="4.25"/>
				
					<rect x="231.04" y="439.2" transform="matrix(-1.343292e-10 1 -1 -1.343292e-10 674.4959 208.1546)" width="4.25" height="4.25"/>
				
					<rect x="226.79" y="443.45" transform="matrix(-1.341151e-10 1 -1 -1.341151e-10 674.4959 216.6585)" width="4.25" height="4.25"/>
			</g>
		</g>
		<g>
			<polygon points="220.76,469.32 214.6,475.49 220.76,481.65 			"/>
			<polygon points="209.76,492.8 203.59,486.63 197.43,492.8 			"/>
			<g>
				
					<rect x="192.96" y="473.36" transform="matrix(-1.364679e-10 1 -1 -1.364679e-10 670.5756 280.397)" width="4.25" height="4.25"/>
				
					<rect x="197.22" y="477.61" transform="matrix(-1.341151e-10 1 -1 -1.341151e-10 679.0795 280.397)" width="4.25" height="4.25"/>
				
					<rect x="201.47" y="481.86" transform="matrix(-1.339011e-10 1 -1 -1.339011e-10 687.5835 280.397)" width="4.25" height="4.25"/>
				
					<rect x="205.72" y="477.61" transform="matrix(-1.364679e-10 1 -1 -1.364679e-10 687.5835 271.8931)" width="4.25" height="4.25"/>
				
					<rect x="209.97" y="473.36" transform="matrix(-1.362539e-10 1 -1 -1.362539e-10 687.5835 263.3892)" width="4.25" height="4.25"/>
				
					<rect x="205.72" y="469.11" transform="matrix(-1.341151e-10 1 -1 -1.341151e-10 679.0795 263.3892)" width="4.25" height="4.25"/>
				
					<rect x="201.47" y="464.86" transform="matrix(-1.364679e-10 1 -1 -1.364679e-10 670.5756 263.3892)" width="4.25" height="4.25"/>
				
					<rect x="197.22" y="469.11" transform="matrix(-1.339011e-10 1 -1 -1.339011e-10 670.5756 271.8931)" width="4.25" height="4.25"/>
			</g>
		</g>
		<g>
			<polygon points="220.76,430.34 214.6,424.17 220.76,418.01 			"/>
			<polygon points="209.76,406.86 203.59,413.03 197.43,406.86 			"/>
			<g>
				
					<rect x="192.96" y="422.05" transform="matrix(1.788206e-10 -1 1 1.788206e-10 -229.0827 619.2613)" width="4.25" height="4.25"/>
				
					<rect x="197.22" y="417.79" transform="matrix(1.786065e-10 -1 1 1.786065e-10 -220.5788 619.2613)" width="4.25" height="4.25"/>
				
					<rect x="201.47" y="413.54" transform="matrix(1.788206e-10 -1 1 1.788206e-10 -212.0749 619.2613)" width="4.25" height="4.25"/>
				
					<rect x="205.72" y="417.79" transform="matrix(1.788206e-10 -1 1 1.788206e-10 -212.0749 627.7653)" width="4.25" height="4.25"/>
				
					<rect x="209.97" y="422.05" transform="matrix(1.809593e-10 -1 1 1.809593e-10 -212.0749 636.2692)" width="4.25" height="4.25"/>
				
					<rect x="205.72" y="426.3" transform="matrix(1.811734e-10 -1 1 1.811734e-10 -220.5788 636.2692)" width="4.25" height="4.25"/>
				
					<rect x="201.47" y="430.55" transform="matrix(1.809593e-10 -1 1 1.809593e-10 -229.0827 636.2692)" width="4.25" height="4.25"/>
				
					<rect x="197.22" y="426.3" transform="matrix(1.788206e-10 -1 1 1.788206e-10 -229.0827 627.7653)" width="4.25" height="4.25"/>
			</g>
		</g>
	</g>
</g>
<g>
</g>
<g>
</g>
<g>
</g>
<g>
</g>
<g>
</g>
<g>
</g>
<g>
</g>
<g>
</g>
<g>
</g>
<g>
</g>
<g>
</g>
<g>
</g>
<g>
</g>
<g>
</g>
<g>
</g>
</svg>
