<?xml version="1.0" encoding="utf-8"?>
<!-- Generator: Adobe Illustrator 27.2.0, SVG Export Plug-In . SVG Version: 6.00 Build 0)  -->
<svg version="1.1" id="Layer_1" xmlns="http://www.w3.org/2000/svg" xmlns:xlink="http://www.w3.org/1999/xlink" x="0px" y="0px"
	 viewBox="0 0 800 600" style="enable-background:new 0 0 800 600;" xml:space="preserve">
<g>
	<g>
		<g>
			<g>
				<rect x="94.36" y="547.15" width="5.65" height="2.85"/>
			</g>
			<g>
				<g>
					<rect x="122.69" y="515.92" width="5.67" height="5.67"/>
				</g>
				<g>
					<rect x="100.01" y="538.59" width="5.67" height="5.67"/>
				</g>
				<g>
					<rect x="114.32" y="493.19" transform="matrix(0.7071 -0.7071 0.7071 0.7071 -316.426 228.1246)" width="5.67" height="5.67"/>
				</g>
				<g>
					<rect x="117.02" y="510.25" width="5.67" height="5.67"/>
				</g>
				<g>
					<rect x="117.02" y="521.59" width="5.67" height="5.67"/>
				</g>
				<g>
					<rect x="125.51" y="493.17" transform="matrix(0.7071 -0.7071 0.7071 0.7071 -313.1461 236.0429)" width="5.7" height="5.7"/>
				</g>
				<g>
					<rect x="111.35" y="504.58" width="5.67" height="5.67"/>
				</g>
				<g>
					<rect x="111.35" y="527.26" width="5.67" height="5.67"/>
				</g>
				<g>
					<rect x="105.68" y="532.92" width="5.67" height="5.67"/>
				</g>
				<g>
					<rect x="74.38" y="493.19" transform="matrix(0.7071 -0.7071 0.7071 0.7071 -328.1251 199.8804)" width="5.67" height="5.67"/>
				</g>
				<g>
					
						<rect x="136.72" y="493.19" transform="matrix(0.7071 -0.7071 0.7071 0.7071 -309.8662 243.9612)" width="5.67" height="5.67"/>
				</g>
				<g>
					<rect x="51.98" y="493.19" transform="matrix(0.7071 -0.7071 0.7071 0.7071 -334.6848 184.0438)" width="5.67" height="5.67"/>
				</g>
				<g>
					<rect x="63.17" y="493.17" transform="matrix(0.7071 -0.7071 0.7071 0.7071 -331.4073 191.9651)" width="5.7" height="5.7"/>
				</g>
				<g>
					<polygon points="128.35,514.68 128.35,514.69 128.36,514.68 128.36,514.69 128.36,514.68 141.25,500.43 128.36,500.44 
						115.46,500.43 					"/>
				</g>
				<g>
					<rect x="94.36" y="544.29" width="5.65" height="2.85"/>
				</g>
				<g>
					<polygon points="66.02,514.68 78.91,500.43 66.02,500.44 53.12,500.43 66.01,514.68 66.01,514.69 66.02,514.68 66.02,514.69 
											"/>
				</g>
				<g>
					<rect x="88.69" y="493.24" width="5.67" height="5.67"/>
				</g>
				<g>
					<rect x="83.02" y="498.91" width="5.67" height="5.67"/>
				</g>
				<g>
					<rect x="88.68" y="515.89" width="5.67" height="5.67"/>
				</g>
				<g>
					<rect x="100.02" y="515.89" width="5.67" height="5.67"/>
				</g>
				<g>
					<rect x="94.35" y="510.23" width="5.67" height="5.67"/>
				</g>
				<g>
					<rect x="105.68" y="498.91" width="5.67" height="5.67"/>
				</g>
				<g>
					<g>
						
							<rect x="83.15" y="420.87" transform="matrix(0.7071 -0.7071 0.7071 0.7071 -274.4198 184.9031)" width="5.67" height="5.67"/>
					</g>
					<g>
						<rect x="105.55" y="420.87" transform="matrix(0.7071 -0.7071 0.7071 0.7071 -267.86 200.7397)" width="5.67" height="5.67"/>
					</g>
					<g>
						<polygon points="97.19,442.36 110.08,428.11 97.19,428.12 84.29,428.11 97.18,442.36 97.18,442.37 97.19,442.37 97.19,442.37 
													"/>
					</g>
					<g>
						<rect x="94.34" y="420.86" transform="matrix(0.7071 -0.7071 0.7071 0.7071 -271.1382 192.8186)" width="5.7" height="5.7"/>
					</g>
				</g>
				<g>
					<rect x="94.35" y="521.56" width="5.67" height="5.67"/>
				</g>
				<g>
					<rect x="77.35" y="527.26" width="5.67" height="5.67"/>
				</g>
				<g>
					<rect x="88.69" y="538.59" width="5.67" height="5.67"/>
				</g>
				<g>
					<rect x="77.35" y="504.58" width="5.67" height="5.67"/>
				</g>
				<g>
					<polygon points="100.01,493.24 100.01,487.57 94.36,487.57 94.36,493.24 100.01,493.24 100.01,498.91 105.68,498.91 
						105.68,493.24 					"/>
				</g>
				<g>
					<rect x="83.02" y="532.92" width="5.67" height="5.67"/>
				</g>
				<g>
					<rect x="71.69" y="521.59" width="5.67" height="5.67"/>
				</g>
				<g>
					<rect x="71.69" y="510.25" width="5.67" height="5.67"/>
				</g>
				<g>
					<rect x="66.02" y="515.92" width="5.67" height="5.67"/>
				</g>
				<g>
					<g>
						<path d="M97.19,473.57c-4.74,0-8.6-3.86-8.6-8.6s3.86-8.6,8.6-8.6c4.74,0,8.6,3.86,8.6,8.6S101.93,473.57,97.19,473.57z
							 M97.19,458.37c-3.64,0-6.6,2.96-6.6,6.6s2.96,6.6,6.6,6.6s6.6-2.96,6.6-6.6S100.83,458.37,97.19,458.37z"/>
					</g>
					<g>
						<circle cx="97.19" cy="464.97" r="2.6"/>
					</g>
					<g>
						<path d="M97.19,486.56l-21.59-21.59l21.59-21.59l21.59,21.59L97.19,486.56z M78.42,464.97l18.76,18.76l18.76-18.76
							l-18.76-18.76L78.42,464.97z"/>
					</g>
				</g>
			</g>
		</g>
		<g>
			<g>
				<polygon points="144.37,527.25 140.34,531.27 144.37,535.3 				"/>
			</g>
			<g>
				<polygon points="144.37,535.69 144.37,535.69 131.48,535.68 144.37,549.93 144.37,549.94 144.37,549.94 144.37,549.94 				"/>
			</g>
			<g>
				<rect x="130.34" y="528.44" transform="matrix(0.7071 -0.7071 0.7071 0.7071 -336.6615 249.7748)" width="5.67" height="5.67"/>
			</g>
		</g>
		<g>
			<g>
				<polygon points="50,527.25 54.03,531.27 50,535.3 				"/>
			</g>
			<g>
				<polygon points="50,535.69 50,535.69 62.9,535.68 50,549.93 50.01,549.94 50,549.94 50,549.94 				"/>
			</g>
			<g>
				<rect x="58.36" y="528.44" transform="matrix(0.7071 -0.7071 0.7071 0.7071 -357.7428 198.8801)" width="5.67" height="5.67"/>
			</g>
		</g>
	</g>
	<g>
		<g>
			<g>
				<rect x="188.73" y="547.15" width="5.65" height="2.85"/>
			</g>
			<g>
				<g>
					<rect x="217.06" y="515.92" width="5.67" height="5.67"/>
				</g>
				<g>
					<rect x="194.38" y="538.59" width="5.67" height="5.67"/>
				</g>
				<g>
					<rect x="208.69" y="493.19" transform="matrix(0.7071 -0.7071 0.7071 0.7071 -288.7853 294.855)" width="5.67" height="5.67"/>
				</g>
				<g>
					<rect x="211.39" y="510.25" width="5.67" height="5.67"/>
				</g>
				<g>
					<rect x="211.39" y="521.59" width="5.67" height="5.67"/>
				</g>
				<g>
					<rect x="219.88" y="493.17" transform="matrix(0.7071 -0.7071 0.7071 0.7071 -285.5055 302.7733)" width="5.7" height="5.7"/>
				</g>
				<g>
					<rect x="205.72" y="504.58" width="5.67" height="5.67"/>
				</g>
				<g>
					<rect x="205.72" y="527.26" width="5.67" height="5.67"/>
				</g>
				<g>
					<rect x="200.05" y="532.92" width="5.67" height="5.67"/>
				</g>
				<g>
					
						<rect x="168.75" y="493.19" transform="matrix(0.7071 -0.7071 0.7071 0.7071 -300.4844 266.6108)" width="5.67" height="5.67"/>
				</g>
				<g>
					
						<rect x="231.09" y="493.19" transform="matrix(0.7071 -0.7071 0.7071 0.7071 -282.2256 310.6916)" width="5.67" height="5.67"/>
				</g>
				<g>
					
						<rect x="146.35" y="493.19" transform="matrix(0.7071 -0.7071 0.7071 0.7071 -307.0442 250.7742)" width="5.67" height="5.67"/>
				</g>
				<g>
					<rect x="157.54" y="493.17" transform="matrix(0.7071 -0.7071 0.7071 0.7071 -303.7661 258.696)" width="5.7" height="5.7"/>
				</g>
				<g>
					<polygon points="222.72,514.68 222.72,514.69 222.73,514.68 222.73,514.69 222.73,514.68 235.62,500.43 222.73,500.44 
						209.83,500.43 					"/>
				</g>
				<g>
					<rect x="188.73" y="544.29" width="5.65" height="2.85"/>
				</g>
				<g>
					<polygon points="160.39,514.68 173.28,500.43 160.39,500.44 147.49,500.43 160.38,514.68 160.38,514.69 160.39,514.68 
						160.39,514.69 					"/>
				</g>
				<g>
					<rect x="183.06" y="493.24" width="5.67" height="5.67"/>
				</g>
				<g>
					<rect x="177.4" y="498.91" width="5.67" height="5.67"/>
				</g>
				<g>
					<rect x="183.05" y="515.89" width="5.67" height="5.67"/>
				</g>
				<g>
					<rect x="194.39" y="515.89" width="5.67" height="5.67"/>
				</g>
				<g>
					<rect x="188.72" y="510.23" width="5.67" height="5.67"/>
				</g>
				<g>
					<rect x="200.05" y="498.91" width="5.67" height="5.67"/>
				</g>
				<g>
					<g>
						
							<rect x="177.52" y="420.87" transform="matrix(0.7071 -0.7071 0.7071 0.7071 -246.7791 251.6335)" width="5.67" height="5.67"/>
					</g>
					<g>
						
							<rect x="199.92" y="420.87" transform="matrix(0.7071 -0.7071 0.7071 0.7071 -240.2194 267.4701)" width="5.67" height="5.67"/>
					</g>
					<g>
						<polygon points="191.56,442.36 204.45,428.11 191.56,428.12 178.66,428.11 191.55,442.36 191.55,442.37 191.56,442.37 
							191.56,442.37 						"/>
					</g>
					<g>
						<rect x="188.71" y="420.86" transform="matrix(0.7071 -0.7071 0.7071 0.7071 -243.498 259.5485)" width="5.7" height="5.7"/>
					</g>
				</g>
				<g>
					<rect x="188.72" y="521.56" width="5.67" height="5.67"/>
				</g>
				<g>
					<rect x="171.73" y="527.26" width="5.67" height="5.67"/>
				</g>
				<g>
					<rect x="183.06" y="538.59" width="5.67" height="5.67"/>
				</g>
				<g>
					<rect x="171.73" y="504.58" width="5.67" height="5.67"/>
				</g>
				<g>
					<polygon points="194.38,493.24 194.38,487.57 188.73,487.57 188.73,493.24 194.38,493.24 194.38,498.91 200.05,498.91 
						200.05,493.24 					"/>
				</g>
				<g>
					<rect x="177.4" y="532.92" width="5.67" height="5.67"/>
				</g>
				<g>
					<rect x="166.06" y="521.59" width="5.67" height="5.67"/>
				</g>
				<g>
					<rect x="166.06" y="510.25" width="5.67" height="5.67"/>
				</g>
				<g>
					<rect x="160.39" y="515.92" width="5.67" height="5.67"/>
				</g>
				<g>
					<g>
						<path d="M191.56,473.57c-4.74,0-8.6-3.86-8.6-8.6s3.86-8.6,8.6-8.6c4.74,0,8.6,3.86,8.6,8.6S196.3,473.57,191.56,473.57z
							 M191.56,458.37c-3.64,0-6.6,2.96-6.6,6.6s2.96,6.6,6.6,6.6s6.6-2.96,6.6-6.6S195.2,458.37,191.56,458.37z"/>
					</g>
					<g>
						<circle cx="191.56" cy="464.97" r="2.6"/>
					</g>
					<g>
						<path d="M191.56,486.56l-21.59-21.59l21.59-21.59l21.59,21.59L191.56,486.56z M172.79,464.97l18.76,18.76l18.76-18.76
							l-18.76-18.76L172.79,464.97z"/>
					</g>
				</g>
			</g>
		</g>
		<g>
			<g>
				<polygon points="238.74,527.25 234.72,531.27 238.74,535.3 				"/>
			</g>
			<g>
				<polygon points="238.74,535.69 238.74,535.69 225.85,535.68 238.74,549.93 238.74,549.94 238.74,549.94 238.74,549.94 				"/>
			</g>
			<g>
				<rect x="224.71" y="528.44" transform="matrix(0.7071 -0.7071 0.7071 0.7071 -309.0209 316.5052)" width="5.67" height="5.67"/>
			</g>
		</g>
		<g>
			<g>
				<polygon points="144.37,527.25 148.4,531.27 144.37,535.3 				"/>
			</g>
			<g>
				<polygon points="144.37,535.69 144.37,535.69 157.27,535.68 144.38,549.93 144.38,549.94 144.37,549.94 144.37,549.94 				"/>
			</g>
			<g>
				<rect x="152.73" y="528.44" transform="matrix(0.7071 -0.7071 0.7071 0.7071 -330.1021 265.6105)" width="5.67" height="5.67"/>
			</g>
		</g>
	</g>
</g>
<g>
</g>
<g>
</g>
<g>
</g>
<g>
</g>
<g>
</g>
<g>
</g>
<g>
</g>
<g>
</g>
<g>
</g>
<g>
</g>
<g>
</g>
<g>
</g>
<g>
</g>
<g>
</g>
<g>
</g>
</svg>
