<?xml version="1.0" encoding="utf-8"?>
<!-- Generator: Adobe Illustrator 27.2.0, SVG Export Plug-In . SVG Version: 6.00 Build 0)  -->
<svg version="1.1" id="Layer_1" xmlns="http://www.w3.org/2000/svg" xmlns:xlink="http://www.w3.org/1999/xlink" x="0px" y="0px"
	 viewBox="0 0 800 600" style="enable-background:new 0 0 800 600;" xml:space="preserve">
<g>
	<g>
		<rect x="165.45" y="433.53" transform="matrix(0.5003 -0.8658 0.8658 0.5003 -293.7339 363.7438)" width="5.67" height="5.67"/>
		<rect x="157.7" y="435.6" transform="matrix(0.5003 -0.8658 0.8658 0.5003 -299.3982 358.0732)" width="5.67" height="5.67"/>
		<rect x="152.08" y="436.45" transform="matrix(0.5003 -0.8658 0.8658 0.5003 -303.6455 352.4034)" width="2.83" height="5.67"/>
		<rect x="163.37" y="425.78" transform="matrix(0.5003 -0.8658 0.8658 0.5003 -288.0633 358.0796)" width="5.67" height="5.67"/>
		<rect x="155.63" y="427.86" transform="matrix(0.5003 -0.8658 0.8658 0.5003 -293.7275 352.4089)" width="5.67" height="5.67"/>
		<rect x="147.88" y="429.93" transform="matrix(0.5003 -0.8658 0.8658 0.5003 -299.3918 346.7383)" width="5.67" height="5.67"/>
		<rect x="162.01" y="419.27" transform="matrix(0.5003 -0.8658 0.8658 0.5003 -283.8095 352.4145)" width="2.83" height="5.67"/>
		<g>
			<rect x="163.43" y="416.81" transform="matrix(0.5003 -0.8658 0.8658 0.5003 -280.9758 352.4161)" width="2.83" height="5.67"/>
			<rect x="169.76" y="417.19" transform="matrix(0.5003 -0.8658 0.8658 0.5003 -278.1452 358.0851)" width="2.83" height="5.67"/>
			<rect x="171.17" y="414.74" transform="matrix(0.5003 -0.8658 0.8658 0.5003 -275.3115 358.0867)" width="2.83" height="5.67"/>
			<rect x="159.94" y="411.52" transform="matrix(0.5003 -0.8658 0.8658 0.5003 -278.1389 346.7502)" width="2.83" height="5.67"/>
			<rect x="161.36" y="409.07" transform="matrix(0.5003 -0.8658 0.8658 0.5003 -275.3051 346.7518)" width="2.83" height="5.67"/>
			<rect x="167.68" y="409.45" transform="matrix(0.5003 -0.8658 0.8658 0.5003 -272.4746 352.4209)" width="2.83" height="5.67"/>
			<rect x="169.1" y="406.99" transform="matrix(0.5003 -0.8658 0.8658 0.5003 -269.6409 352.4225)" width="2.83" height="5.67"/>
		</g>
		<g>
			<rect x="150.66" y="438.9" transform="matrix(-0.5003 0.8658 -0.8658 -0.5003 610.6422 531.0676)" width="2.83" height="5.67"/>
			<rect x="154.15" y="444.19" transform="matrix(0.5003 -0.8658 0.8658 0.5003 -309.3162 358.0676)" width="2.83" height="5.67"/>
			<rect x="152.74" y="446.65" transform="matrix(-0.5003 0.8658 -0.8658 -0.5003 620.4572 540.8937)" width="2.83" height="5.67"/>
			<rect x="156.23" y="451.94" transform="matrix(0.5003 -0.8658 0.8658 0.5003 -314.9868 363.7319)" width="2.83" height="5.67"/>
			<rect x="154.81" y="454.39" transform="matrix(-0.5003 0.8658 -0.8658 -0.5003 630.2722 550.7198)" width="2.83" height="5.67"/>
			<rect x="148.48" y="454.01" transform="matrix(0.5003 -0.8658 0.8658 0.5003 -320.6511 358.0612)" width="2.83" height="5.67"/>
			<rect x="147.06" y="456.46" transform="matrix(-0.5003 0.8658 -0.8658 -0.5003 620.4461 560.5349)" width="2.83" height="5.67"/>
			<rect x="140.74" y="456.08" transform="matrix(0.5003 -0.8658 0.8658 0.5003 -326.3153 352.3906)" width="2.83" height="5.67"/>
			<rect x="139.32" y="458.53" transform="matrix(-0.5003 0.8658 -0.8658 -0.5003 610.6201 570.3499)" width="2.83" height="5.67"/>
			<rect x="144.34" y="438.52" transform="matrix(-0.5003 0.8658 -0.8658 -0.5003 600.8188 535.9724)" width="2.83" height="5.67"/>
			<rect x="142.92" y="440.97" transform="matrix(-0.5003 0.8658 -0.8658 -0.5003 600.816 540.8826)" width="2.83" height="5.67"/>
			<rect x="136.59" y="440.59" transform="matrix(-0.5003 0.8658 -0.8658 -0.5003 590.9927 545.7874)" width="2.83" height="5.67"/>
			<rect x="135.17" y="443.04" transform="matrix(-0.5003 0.8658 -0.8658 -0.5003 590.9899 550.6977)" width="2.83" height="5.67"/>
			<rect x="138.66" y="448.34" transform="matrix(-0.5003 0.8658 -0.8658 -0.5003 600.8077 555.6135)" width="2.83" height="5.67"/>
			<rect x="137.25" y="450.79" transform="matrix(-0.5003 0.8658 -0.8658 -0.5003 600.805 560.5238)" width="2.83" height="5.67"/>
		</g>
		<rect x="153.56" y="420.11" transform="matrix(0.5003 -0.8658 0.8658 0.5003 -288.0569 346.7447)" width="5.67" height="5.67"/>
		<rect x="145.81" y="422.18" transform="matrix(0.5003 -0.8658 0.8658 0.5003 -293.7211 341.074)" width="5.67" height="5.67"/>
		<rect x="143.74" y="414.44" transform="matrix(0.5003 -0.8658 0.8658 0.5003 -288.0505 335.4098)" width="5.67" height="5.67"/>
		<rect x="138.07" y="424.25" transform="matrix(0.5003 -0.8658 0.8658 0.5003 -299.3854 335.4034)" width="5.67" height="5.67"/>
		<rect x="135.99" y="416.51" transform="matrix(0.5003 -0.8658 0.8658 0.5003 -293.7148 329.7391)" width="5.67" height="5.67"/>
		<rect x="173.19" y="431.46" transform="matrix(0.5003 -0.8658 0.8658 0.5003 -288.0696 369.4145)" width="5.67" height="5.67"/>
		<rect x="167.52" y="441.27" transform="matrix(0.5003 -0.8658 0.8658 0.5003 -299.4045 369.4081)" width="5.67" height="5.67"/>
		<rect x="175.26" y="439.2" transform="matrix(0.5003 -0.8658 0.8658 0.5003 -293.7403 375.0787)" width="5.67" height="5.67"/>
	</g>
	<g>
		<rect x="110.14" y="422.2" transform="matrix(-0.4997 -0.8662 0.8662 -0.4997 -198.7381 735.2772)" width="5.67" height="5.67"/>
		<rect x="108.07" y="429.94" transform="matrix(-0.4997 -0.8662 0.8662 -0.4997 -208.5621 745.0901)" width="5.67" height="5.67"/>
		<rect x="106.7" y="436.46" transform="matrix(-0.4997 -0.8662 0.8662 -0.4997 -218.3846 752.4484)" width="2.83" height="5.67"/>
		<rect x="102.4" y="420.12" transform="matrix(-0.4997 -0.8662 0.8662 -0.4997 -208.551 725.4533)" width="5.67" height="5.67"/>
		<rect x="100.32" y="427.87" transform="matrix(-0.4997 -0.8662 0.8662 -0.4997 -218.375 735.2662)" width="5.67" height="5.67"/>
		<rect x="98.24" y="435.61" transform="matrix(-0.4997 -0.8662 0.8662 -0.4997 -228.1989 745.0791)" width="5.67" height="5.67"/>
		<rect x="96.78" y="419.27" transform="matrix(-0.4997 -0.8662 0.8662 -0.4997 -218.3653 718.0839)" width="2.83" height="5.67"/>
		<g>
			<rect x="95.37" y="416.82" transform="matrix(-0.4997 -0.8662 0.8662 -0.4997 -218.3625 713.1747)" width="2.83" height="5.67"/>
			<rect x="98.86" y="411.53" transform="matrix(-0.4997 -0.8662 0.8662 -0.4997 -208.5414 708.271)" width="2.83" height="5.67"/>
			<rect x="97.44" y="409.07" transform="matrix(-0.4997 -0.8662 0.8662 -0.4997 -208.5386 703.3618)" width="2.83" height="5.67"/>
			<rect x="89.04" y="417.19" transform="matrix(-0.4997 -0.8662 0.8662 -0.4997 -228.1782 708.2599)" width="2.83" height="5.67"/>
			<rect x="87.62" y="414.74" transform="matrix(-0.4997 -0.8662 0.8662 -0.4997 -228.1755 703.3508)" width="2.83" height="5.67"/>
			<rect x="91.12" y="409.45" transform="matrix(-0.4997 -0.8662 0.8662 -0.4997 -218.3543 698.4471)" width="2.83" height="5.67"/>
			<rect x="89.7" y="406.99" transform="matrix(-0.4997 -0.8662 0.8662 -0.4997 -218.3515 693.5378)" width="2.83" height="5.67"/>
		</g>
		<g>
			<rect x="108.11" y="438.91" transform="matrix(0.4997 0.8662 -0.8662 0.4997 437.45 126.1406)" width="2.83" height="5.67"/>
			
				<rect x="114.44" y="438.54" transform="matrix(-0.4997 -0.8662 0.8662 -0.4997 -208.5717 762.2724)" width="2.83" height="5.67"/>
			<rect x="115.86" y="440.99" transform="matrix(0.4997 0.8662 -0.8662 0.4997 443.1243 120.4727)" width="2.83" height="5.67"/>
			
				<rect x="122.18" y="440.62" transform="matrix(-0.4997 -0.8662 0.8662 -0.4997 -198.7588 772.0964)" width="2.83" height="5.67"/>
			<rect x="123.6" y="443.07" transform="matrix(0.4997 0.8662 -0.8662 0.4997 448.7987 114.8047)" width="2.83" height="5.67"/>
			
				<rect x="120.11" y="448.36" transform="matrix(-0.4997 -0.8662 0.8662 -0.4997 -208.5828 781.9093)" width="2.83" height="5.67"/>
			<rect x="121.52" y="450.81" transform="matrix(0.4997 0.8662 -0.8662 0.4997 454.4666 120.4791)" width="2.83" height="5.67"/>
			<rect x="118.03" y="456.1" transform="matrix(-0.4997 -0.8662 0.8662 -0.4997 -218.4067 791.7222)" width="2.83" height="5.67"/>
			<rect x="119.45" y="458.56" transform="matrix(0.4997 0.8662 -0.8662 0.4997 460.1346 126.1534)" width="2.83" height="5.67"/>
			<rect x="104.62" y="444.2" transform="matrix(0.4997 0.8662 -0.8662 0.4997 440.2824 131.8134)" width="2.83" height="5.67"/>
			<rect x="106.04" y="446.66" transform="matrix(0.4997 0.8662 -0.8662 0.4997 443.118 131.815)" width="2.83" height="5.67"/>
			<rect x="102.54" y="451.95" transform="matrix(0.4997 0.8662 -0.8662 0.4997 445.9503 137.4877)" width="2.83" height="5.67"/>
			<rect x="103.96" y="454.4" transform="matrix(0.4997 0.8662 -0.8662 0.4997 448.7859 137.4893)" width="2.83" height="5.67"/>
			<rect x="110.29" y="454.02" transform="matrix(0.4997 0.8662 -0.8662 0.4997 451.6247 131.8197)" width="2.83" height="5.67"/>
			<rect x="111.7" y="456.48" transform="matrix(0.4997 0.8662 -0.8662 0.4997 454.4602 131.8213)" width="2.83" height="5.67"/>
		</g>
		<rect x="92.58" y="425.79" transform="matrix(-0.4997 -0.8662 0.8662 -0.4997 -228.1879 725.4423)" width="5.67" height="5.67"/>
		<rect x="90.5" y="433.53" transform="matrix(-0.4997 -0.8662 0.8662 -0.4997 -238.0119 735.2551)" width="5.67" height="5.67"/>
		<rect x="82.76" y="431.45" transform="matrix(-0.4997 -0.8662 0.8662 -0.4997 -247.8248 725.4312)" width="5.67" height="5.67"/>
		<rect x="88.42" y="441.27" transform="matrix(-0.4997 -0.8662 0.8662 -0.4997 -247.8358 745.0681)" width="5.67" height="5.67"/>
		<rect x="80.68" y="439.2" transform="matrix(-0.4997 -0.8662 0.8662 -0.4997 -257.6487 735.2441)" width="5.67" height="5.67"/>
		<rect x="112.22" y="414.46" transform="matrix(-0.4997 -0.8662 0.8662 -0.4997 -188.9142 725.4644)" width="5.67" height="5.67"/>
		<rect x="117.89" y="424.28" transform="matrix(-0.4997 -0.8662 0.8662 -0.4997 -188.9252 745.1012)" width="5.67" height="5.67"/>
		<rect x="119.97" y="416.53" transform="matrix(-0.4997 -0.8662 0.8662 -0.4997 -179.1012 735.2883)" width="5.67" height="5.67"/>
	</g>
	<g>
		<rect x="72.68" y="464.43" transform="matrix(-1 -3.750044e-04 3.750044e-04 -1 150.859 934.5533)" width="5.67" height="5.67"/>
		<rect x="78.35" y="470.1" transform="matrix(-1 -3.750044e-04 3.750044e-04 -1 162.1912 945.8983)" width="5.67" height="5.67"/>
		<rect x="84.02" y="475.77" transform="matrix(-1 -3.750044e-04 3.750044e-04 -1 170.6888 957.2416)" width="2.83" height="5.67"/>
		<rect x="67.01" y="470.1" transform="matrix(-1 -3.750044e-04 3.750044e-04 -1 139.5141 945.8855)" width="5.67" height="5.67"/>
		<rect x="72.68" y="475.77" transform="matrix(-1 -3.750044e-04 3.750044e-04 -1 150.8463 957.2305)" width="5.67" height="5.67"/>
		<rect x="78.35" y="481.44" transform="matrix(-1 -3.750044e-04 3.750044e-04 -1 162.1785 968.5754)" width="5.67" height="5.67"/>
		<rect x="64.17" y="475.76" transform="matrix(-1 -3.750044e-04 3.750044e-04 -1 131.0037 957.2193)" width="2.83" height="5.67"/>
		<g>
			
				<rect x="61.34" y="475.76" transform="matrix(-1 -3.750044e-04 3.750044e-04 -1 125.3345 957.2161)" width="2.83" height="5.67"/>
			
				<rect x="58.51" y="470.09" transform="matrix(-1 -3.750044e-04 3.750044e-04 -1 119.6715 945.8743)" width="2.83" height="5.67"/>
			
				<rect x="55.67" y="470.09" transform="matrix(-1 -3.750044e-04 3.750044e-04 -1 114.0023 945.8712)" width="2.83" height="5.67"/>
			<rect x="58.5" y="481.43" transform="matrix(-1 -3.750044e-04 3.750044e-04 -1 119.6588 968.5515)" width="2.83" height="5.67"/>
			
				<rect x="55.67" y="481.43" transform="matrix(-1 -3.750044e-04 3.750044e-04 -1 113.9895 968.5483)" width="2.83" height="5.67"/>
			
				<rect x="52.84" y="475.76" transform="matrix(-1 -3.750044e-04 3.750044e-04 -1 108.3266 957.2065)" width="2.83" height="5.67"/>
			<rect x="50" y="475.76" transform="matrix(-1 -3.750044e-04 3.750044e-04 -1 102.6573 957.2034)" width="2.83" height="5.67"/>
		</g>
		<g>
			<rect x="86.85" y="475.77" width="2.83" height="5.67"/>
			<rect x="89.69" y="470.1" transform="matrix(-1 -3.750044e-04 3.750044e-04 -1 182.0337 945.9094)" width="2.83" height="5.67"/>
			<rect x="92.52" y="470.1" width="2.83" height="5.67"/>
			
				<rect x="95.36" y="464.44" transform="matrix(-1 -3.750044e-04 3.750044e-04 -1 193.3787 934.5772)" width="2.83" height="5.67"/>
			<rect x="98.19" y="464.44" width="2.83" height="5.67"/>
			
				<rect x="101.03" y="470.11" transform="matrix(-1 -3.750044e-04 3.750044e-04 -1 204.7109 945.9222)" width="2.83" height="5.67"/>
			<rect x="103.86" y="470.11" width="2.83" height="5.67"/>
			
				<rect x="106.69" y="475.78" transform="matrix(-1 -3.750044e-04 3.750044e-04 -1 216.0431 957.2672)" width="2.83" height="5.67"/>
			<rect x="109.53" y="475.78" width="2.83" height="5.67"/>
			<rect x="89.68" y="481.44" width="2.83" height="5.67"/>
			<rect x="92.52" y="481.44" width="2.83" height="5.67"/>
			<rect x="95.35" y="487.11" width="2.83" height="5.67"/>
			<rect x="98.19" y="487.11" width="2.83" height="5.67"/>
			<rect x="101.02" y="481.45" width="2.83" height="5.67"/>
			<rect x="103.86" y="481.45" width="2.83" height="5.67"/>
		</g>
		<rect x="67.01" y="481.43" transform="matrix(-1 -3.750044e-04 3.750044e-04 -1 139.5013 968.5627)" width="5.67" height="5.67"/>
		<rect x="72.67" y="487.11" transform="matrix(-1 -3.750044e-04 3.750044e-04 -1 150.8335 979.9076)" width="5.67" height="5.67"/>
		<rect x="67" y="492.77" transform="matrix(-1 -3.750044e-04 3.750044e-04 -1 139.4885 991.2398)" width="5.67" height="5.67"/>
		<rect x="78.34" y="492.78" transform="matrix(-1 -3.750044e-04 3.750044e-04 -1 162.1657 991.2526)" width="5.67" height="5.67"/>
		
			<rect x="72.67" y="498.44" transform="matrix(-1 -3.750044e-04 3.750044e-04 -1 150.8208 1002.5848)" width="5.67" height="5.67"/>
		<rect x="67.02" y="458.76" transform="matrix(-1 -3.750044e-04 3.750044e-04 -1 139.5268 923.2083)" width="5.67" height="5.67"/>
		<rect x="78.35" y="458.76" transform="matrix(-1 -3.750044e-04 3.750044e-04 -1 162.204 923.2211)" width="5.67" height="5.67"/>
		<rect x="72.69" y="453.09" transform="matrix(-1 -3.750044e-04 3.750044e-04 -1 150.8718 911.8762)" width="5.67" height="5.67"/>
	</g>
	<g>
		<rect x="90.52" y="517.99" transform="matrix(-0.5003 0.8658 -0.8658 -0.5003 591.011 700.5667)" width="5.67" height="5.67"/>
		<rect x="98.27" y="515.91" transform="matrix(-0.5003 0.8658 -0.8658 -0.5003 600.8372 690.7517)" width="5.67" height="5.67"/>
		<rect x="106.72" y="515.07" transform="matrix(-0.5003 0.8658 -0.8658 -0.5003 610.6619 683.3918)" width="2.83" height="5.67"/>
		<rect x="92.59" y="525.73" transform="matrix(-0.5003 0.8658 -0.8658 -0.5003 600.8261 710.3928)" width="5.67" height="5.67"/>
		<rect x="100.34" y="523.66" transform="matrix(-0.5003 0.8658 -0.8658 -0.5003 610.6522 700.5778)" width="5.67" height="5.67"/>
		<rect x="108.08" y="521.59" transform="matrix(-0.5003 0.8658 -0.8658 -0.5003 620.4783 690.7628)" width="5.67" height="5.67"/>
		<rect x="96.79" y="532.25" transform="matrix(-0.5003 0.8658 -0.8658 -0.5003 610.6425 717.7637)" width="2.83" height="5.67"/>
		<g>
			<rect x="95.37" y="534.7" transform="matrix(-0.5003 0.8658 -0.8658 -0.5003 610.6398 722.674)" width="2.83" height="5.67"/>
			<rect x="89.05" y="534.32" transform="matrix(-0.5003 0.8658 -0.8658 -0.5003 600.8164 727.5788)" width="2.83" height="5.67"/>
			<rect x="87.63" y="536.77" transform="matrix(-0.5003 0.8658 -0.8658 -0.5003 600.8137 732.4891)" width="2.83" height="5.67"/>
			<rect x="98.87" y="539.99" transform="matrix(-0.5003 0.8658 -0.8658 -0.5003 620.4576 727.5898)" width="2.83" height="5.67"/>
			<rect x="97.45" y="542.45" transform="matrix(-0.5003 0.8658 -0.8658 -0.5003 620.4548 732.5001)" width="2.83" height="5.67"/>
			<rect x="91.12" y="542.07" transform="matrix(-0.5003 0.8658 -0.8658 -0.5003 610.6315 737.4049)" width="2.83" height="5.67"/>
			<rect x="89.7" y="544.52" transform="matrix(-0.5003 0.8658 -0.8658 -0.5003 610.6287 742.3152)" width="2.83" height="5.67"/>
		</g>
		<g>
			<rect x="108.14" y="512.61" transform="matrix(0.5003 -0.8658 0.8658 0.5003 -391.5519 352.4147)" width="2.83" height="5.67"/>
			<rect x="104.65" y="507.32" transform="matrix(-0.5003 0.8658 -0.8658 -0.5003 600.8468 673.5657)" width="2.83" height="5.67"/>
			<rect x="106.07" y="504.87" transform="matrix(0.5003 -0.8658 0.8658 0.5003 -385.8813 346.7505)" width="2.83" height="5.67"/>
			<rect x="102.58" y="499.58" transform="matrix(-0.5003 0.8658 -0.8658 -0.5003 591.0318 663.7396)" width="2.83" height="5.67"/>
			<rect x="103.99" y="497.12" transform="matrix(0.5003 -0.8658 0.8658 0.5003 -380.2106 341.0862)" width="2.83" height="5.67"/>
			<rect x="110.32" y="497.51" transform="matrix(-0.5003 0.8658 -0.8658 -0.5003 600.8578 653.9246)" width="2.83" height="5.67"/>
			<rect x="111.74" y="495.05" transform="matrix(0.5003 -0.8658 0.8658 0.5003 -374.5464 346.7568)" width="2.83" height="5.67"/>
			<rect x="118.07" y="495.43" transform="matrix(-0.5003 0.8658 -0.8658 -0.5003 610.684 644.1096)" width="2.83" height="5.67"/>
			<rect x="119.48" y="492.98" transform="matrix(0.5003 -0.8658 0.8658 0.5003 -368.8821 352.4275)" width="2.83" height="5.67"/>
			<rect x="114.47" y="513" transform="matrix(0.5003 -0.8658 0.8658 0.5003 -388.7213 358.0838)" width="2.83" height="5.67"/>
			<rect x="115.88" y="510.54" transform="matrix(0.5003 -0.8658 0.8658 0.5003 -385.8876 358.0854)" width="2.83" height="5.67"/>
			<rect x="122.21" y="510.92" transform="matrix(0.5003 -0.8658 0.8658 0.5003 -383.0571 363.7544)" width="2.83" height="5.67"/>
			<rect x="123.63" y="508.47" transform="matrix(0.5003 -0.8658 0.8658 0.5003 -380.2234 363.756)" width="2.83" height="5.67"/>
			<rect x="120.14" y="503.18" transform="matrix(0.5003 -0.8658 0.8658 0.5003 -377.3864 358.0901)" width="2.83" height="5.67"/>
			<rect x="121.56" y="500.72" transform="matrix(0.5003 -0.8658 0.8658 0.5003 -374.5527 358.0917)" width="2.83" height="5.67"/>
		</g>
		<rect x="102.41" y="531.4" transform="matrix(-0.5003 0.8658 -0.8658 -0.5003 620.4672 710.4039)" width="5.67" height="5.67"/>
		<rect x="110.16" y="529.33" transform="matrix(-0.5003 0.8658 -0.8658 -0.5003 630.2933 700.5888)" width="5.67" height="5.67"/>
		<rect x="112.23" y="537.08" transform="matrix(-0.5003 0.8658 -0.8658 -0.5003 640.1083 710.4149)" width="5.67" height="5.67"/>
		<rect x="117.9" y="527.26" transform="matrix(-0.5003 0.8658 -0.8658 -0.5003 640.1194 690.7738)" width="5.67" height="5.67"/>
		<rect x="119.97" y="535" transform="matrix(-0.5003 0.8658 -0.8658 -0.5003 649.9344 700.5999)" width="5.67" height="5.67"/>
		<rect x="82.78" y="520.06" transform="matrix(-0.5003 0.8658 -0.8658 -0.5003 581.185 710.3818)" width="5.67" height="5.67"/>
		<rect x="88.45" y="510.24" transform="matrix(-0.5003 0.8658 -0.8658 -0.5003 581.196 690.7407)" width="5.67" height="5.67"/>
		<rect x="80.7" y="512.31" transform="matrix(-0.5003 0.8658 -0.8658 -0.5003 571.3699 700.5557)" width="5.67" height="5.67"/>
	</g>
	<g>
		<rect x="145.82" y="529.31" transform="matrix(0.4997 0.8662 -0.8662 0.4997 535.3315 137.4771)" width="5.67" height="5.67"/>
		<rect x="147.9" y="521.57" transform="matrix(0.4997 0.8662 -0.8662 0.4997 529.6636 131.8028)" width="5.67" height="5.67"/>
		<rect x="152.11" y="515.05" transform="matrix(0.4997 0.8662 -0.8662 0.4997 525.4135 126.1292)" width="2.83" height="5.67"/>
		<rect x="153.57" y="531.39" transform="matrix(0.4997 0.8662 -0.8662 0.4997 541.0059 131.8091)" width="5.67" height="5.67"/>
		<rect x="155.65" y="523.65" transform="matrix(0.4997 0.8662 -0.8662 0.4997 535.338 126.1348)" width="5.67" height="5.67"/>
		<rect x="157.72" y="515.9" transform="matrix(0.4997 0.8662 -0.8662 0.4997 529.67 120.4605)" width="5.67" height="5.67"/>
		<rect x="162.02" y="532.24" transform="matrix(0.4997 0.8662 -0.8662 0.4997 545.2625 126.1404)" width="2.83" height="5.67"/>
		<g>
			<rect x="163.44" y="534.7" transform="matrix(0.4997 0.8662 -0.8662 0.4997 548.098 126.142)" width="2.83" height="5.67"/>
			<rect x="159.94" y="539.99" transform="matrix(0.4997 0.8662 -0.8662 0.4997 550.9304 131.8147)" width="2.83" height="5.67"/>
			<rect x="161.36" y="542.44" transform="matrix(0.4997 0.8662 -0.8662 0.4997 553.7659 131.8163)" width="2.83" height="5.67"/>
			<rect x="169.76" y="534.32" transform="matrix(0.4997 0.8662 -0.8662 0.4997 550.9368 120.4725)" width="2.83" height="5.67"/>
			<rect x="171.18" y="536.78" transform="matrix(0.4997 0.8662 -0.8662 0.4997 553.7723 120.4741)" width="2.83" height="5.67"/>
			<rect x="167.69" y="542.06" transform="matrix(0.4997 0.8662 -0.8662 0.4997 556.6047 126.1468)" width="2.83" height="5.67"/>
			<rect x="169.1" y="544.52" transform="matrix(0.4997 0.8662 -0.8662 0.4997 559.4402 126.1484)" width="2.83" height="5.67"/>
		</g>
		<g>
			<rect x="150.69" y="512.6" transform="matrix(-0.4997 -0.8662 0.8662 -0.4997 -218.3649 904.7397)" width="2.83" height="5.67"/>
			<rect x="144.36" y="512.98" transform="matrix(0.4997 0.8662 -0.8662 0.4997 519.7391 131.7972)" width="2.83" height="5.67"/>
			
				<rect x="142.95" y="510.52" transform="matrix(-0.4997 -0.8662 0.8662 -0.4997 -228.1778 894.9157)" width="2.83" height="5.67"/>
			<rect x="136.62" y="510.9" transform="matrix(0.4997 0.8662 -0.8662 0.4997 514.0648 137.4651)" width="2.83" height="5.67"/>
			<rect x="135.2" y="508.44" transform="matrix(-0.4997 -0.8662 0.8662 -0.4997 -237.9908 885.0917)" width="2.83" height="5.67"/>
			<rect x="138.7" y="503.15" transform="matrix(0.4997 0.8662 -0.8662 0.4997 508.3969 131.7908)" width="2.83" height="5.67"/>
			<rect x="137.28" y="500.7" transform="matrix(-0.4997 -0.8662 0.8662 -0.4997 -228.1668 875.2788)" width="2.83" height="5.67"/>
			<rect x="140.77" y="495.41" transform="matrix(0.4997 0.8662 -0.8662 0.4997 502.7289 126.1165)" width="2.83" height="5.67"/>
			
				<rect x="139.36" y="492.96" transform="matrix(-0.4997 -0.8662 0.8662 -0.4997 -218.3428 865.4659)" width="2.83" height="5.67"/>
			
				<rect x="154.18" y="507.31" transform="matrix(-0.4997 -0.8662 0.8662 -0.4997 -208.5437 899.8359)" width="2.83" height="5.67"/>
			<rect x="152.77" y="504.86" transform="matrix(-0.4997 -0.8662 0.8662 -0.4997 -208.541 894.9268)" width="2.83" height="5.67"/>
			
				<rect x="156.26" y="499.57" transform="matrix(-0.4997 -0.8662 0.8662 -0.4997 -198.7198 890.0231)" width="2.83" height="5.67"/>
			<rect x="154.85" y="497.11" transform="matrix(-0.4997 -0.8662 0.8662 -0.4997 -198.717 885.1138)" width="2.83" height="5.67"/>
			
				<rect x="148.52" y="497.49" transform="matrix(-0.4997 -0.8662 0.8662 -0.4997 -208.5327 880.1991)" width="2.83" height="5.67"/>
			<rect x="147.1" y="495.03" transform="matrix(-0.4997 -0.8662 0.8662 -0.4997 -208.5299 875.2899)" width="2.83" height="5.67"/>
		</g>
		<rect x="163.39" y="525.73" transform="matrix(0.4997 0.8662 -0.8662 0.4997 541.0123 120.4669)" width="5.67" height="5.67"/>
		<rect x="165.47" y="517.98" transform="matrix(0.4997 0.8662 -0.8662 0.4997 535.3443 114.7926)" width="5.67" height="5.67"/>
		<rect x="173.21" y="520.06" transform="matrix(0.4997 0.8662 -0.8662 0.4997 541.0186 109.1246)" width="5.67" height="5.67"/>
		<rect x="167.55" y="510.24" transform="matrix(0.4997 0.8662 -0.8662 0.4997 529.6764 109.1182)" width="5.67" height="5.67"/>
		<rect x="175.29" y="512.32" transform="matrix(0.4997 0.8662 -0.8662 0.4997 535.3507 103.4503)" width="5.67" height="5.67"/>
		<rect x="143.75" y="537.06" transform="matrix(0.4997 0.8662 -0.8662 0.4997 540.9995 143.1514)" width="5.67" height="5.67"/>
		<rect x="138.08" y="527.24" transform="matrix(0.4997 0.8662 -0.8662 0.4997 529.6572 143.145)" width="5.67" height="5.67"/>
		<rect x="136" y="534.98" transform="matrix(0.4997 0.8662 -0.8662 0.4997 535.3252 148.8194)" width="5.67" height="5.67"/>
	</g>
	<g>
		<rect x="183.29" y="487.09" width="5.67" height="5.67"/>
		<rect x="177.62" y="481.41" width="5.67" height="5.67"/>
		<rect x="174.79" y="475.74" width="2.83" height="5.67"/>
		<rect x="188.96" y="481.42" width="5.67" height="5.67"/>
		<rect x="183.29" y="475.75" width="5.67" height="5.67"/>
		<rect x="177.62" y="470.08" width="5.67" height="5.67"/>
		<rect x="194.63" y="475.75" width="2.83" height="5.67"/>
		<g>
			<rect x="197.46" y="475.75" width="2.83" height="5.67"/>
			<rect x="200.3" y="481.42" width="2.83" height="5.67"/>
			<rect x="203.13" y="481.42" width="2.83" height="5.67"/>
			<rect x="200.3" y="470.08" width="2.83" height="5.67"/>
			<rect x="203.13" y="470.08" width="2.83" height="5.67"/>
			<rect x="205.97" y="475.76" width="2.83" height="5.67"/>
			<rect x="208.8" y="475.76" width="2.83" height="5.67"/>
		</g>
		<g>
			
				<rect x="171.95" y="475.74" transform="matrix(-1 -3.750045e-04 3.750045e-04 -1 346.5585 957.2189)" width="2.83" height="5.67"/>
			<rect x="169.11" y="481.41" width="2.83" height="5.67"/>
			
				<rect x="166.28" y="481.41" transform="matrix(-1 -3.750045e-04 3.750045e-04 -1 335.2136 968.551)" width="2.83" height="5.67"/>
			<rect x="163.44" y="487.08" width="2.83" height="5.67"/>
			
				<rect x="160.61" y="487.08" transform="matrix(-1 -3.750045e-04 3.750045e-04 -1 323.8686 979.8832)" width="2.83" height="5.67"/>
			<rect x="157.78" y="481.41" width="2.83" height="5.67"/>
			
				<rect x="154.94" y="481.41" transform="matrix(-1 -3.750045e-04 3.750045e-04 -1 312.5364 968.5383)" width="2.83" height="5.67"/>
			<rect x="152.11" y="475.73" width="2.83" height="5.67"/>
			
				<rect x="149.27" y="475.73" transform="matrix(-1 -3.750045e-04 3.750045e-04 -1 301.2042 957.1934)" width="2.83" height="5.67"/>
			
				<rect x="169.12" y="470.07" transform="matrix(-1 -3.750045e-04 3.750045e-04 -1 340.8956 945.8771)" width="2.83" height="5.67"/>
			
				<rect x="166.28" y="470.07" transform="matrix(-1 -3.750045e-04 3.750045e-04 -1 335.2263 945.8739)" width="2.83" height="5.67"/>
			
				<rect x="163.45" y="464.4" transform="matrix(-1 -3.750045e-04 3.750045e-04 -1 329.5634 934.5321)" width="2.83" height="5.67"/>
			
				<rect x="160.62" y="464.4" transform="matrix(-1 -3.750045e-04 3.750045e-04 -1 323.8941 934.5289)" width="2.83" height="5.67"/>
			
				<rect x="157.78" y="470.07" transform="matrix(-1 -3.750045e-04 3.750045e-04 -1 318.2185 945.8643)" width="2.83" height="5.67"/>
			
				<rect x="154.95" y="470.07" transform="matrix(-1 -3.750045e-04 3.750045e-04 -1 312.5492 945.8611)" width="2.83" height="5.67"/>
		</g>
		<rect x="188.96" y="470.08" width="5.67" height="5.67"/>
		<rect x="183.29" y="464.41" width="5.67" height="5.67"/>
		<rect x="188.97" y="458.74" width="5.67" height="5.67"/>
		<rect x="177.63" y="458.74" width="5.67" height="5.67"/>
		<rect x="183.3" y="453.07" width="5.67" height="5.67"/>
		<rect x="188.95" y="492.76" width="5.67" height="5.67"/>
		<rect x="177.61" y="492.75" width="5.67" height="5.67"/>
		<rect x="183.28" y="498.42" width="5.67" height="5.67"/>
	</g>
	<circle style="fill:none;stroke:#000000;stroke-width:3;stroke-miterlimit:10;" cx="130.82" cy="478.59" r="16.98"/>
</g>
<g>
</g>
<g>
</g>
<g>
</g>
<g>
</g>
<g>
</g>
<g>
</g>
<g>
</g>
<g>
</g>
<g>
</g>
<g>
</g>
<g>
</g>
<g>
</g>
<g>
</g>
<g>
</g>
<g>
</g>
</svg>
