<?xml version="1.0" encoding="utf-8"?>
<!-- Generator: Adobe Illustrator 27.2.0, SVG Export Plug-In . SVG Version: 6.00 Build 0)  -->
<svg version="1.1" id="Layer_1" xmlns="http://www.w3.org/2000/svg" xmlns:xlink="http://www.w3.org/1999/xlink" x="0px" y="0px"
	 viewBox="0 0 800 600" style="enable-background:new 0 0 800 600;" xml:space="preserve">
<g>
	<polygon points="248.68,424.2 234.44,438.44 248.68,452.68 	"/>
	<polygon points="263.87,424.2 249.63,438.44 263.87,452.68 	"/>
	<rect x="266.27" y="435.61" transform="matrix(0.7071 -0.7071 0.7071 0.7071 -231.2061 318.7038)" width="5.67" height="5.67"/>
	<polygon points="175.8,351.32 147.32,351.32 161.56,365.56 	"/>
	<polygon points="175.8,336.13 147.32,336.13 161.56,350.37 	"/>
	<rect x="158.72" y="328.06" transform="matrix(0.7071 -0.7071 0.7071 0.7071 -186.6579 211.155)" width="5.67" height="5.67"/>
	<polygon points="74.44,452.68 88.68,438.44 74.44,424.2 	"/>
	<polygon points="59.25,452.68 73.49,438.44 59.25,424.2 	"/>
	<rect x="51.17" y="435.61" transform="matrix(0.7071 -0.7071 0.7071 0.7071 -294.2068 166.6068)" width="5.67" height="5.67"/>
	<polygon points="161.56,511.32 147.32,525.56 175.8,525.56 	"/>
	<polygon points="147.32,540.75 175.8,540.75 161.56,526.51 	"/>
	<rect x="158.72" y="543.16" transform="matrix(0.7071 -0.7071 0.7071 0.7071 -338.7549 274.1556)" width="5.67" height="5.67"/>
	<path d="M161.56,415.7l-22.74,22.74l22.74,22.74l22.74-22.74L161.56,415.7z M161.56,456.94l-18.5-18.5l18.5-18.5l18.5,18.5
		L161.56,456.94z"/>
	<path d="M159.4,440.6c1.19,1.19,3.13,1.19,4.32,0c1.19-1.19,1.19-3.13,0-4.32c-1.19-1.19-3.13-1.19-4.32,0
		C158.2,437.47,158.2,439.41,159.4,440.6z"/>
	<polygon points="217.56,474.31 197.42,474.31 197.42,494.45 	"/>
	<polygon points="228.3,485.05 208.16,485.05 208.16,505.19 	"/>
	<rect x="219.1" y="495.99" width="5.67" height="5.67"/>
	<polygon points="241.06,450.81 220.91,450.81 220.91,470.95 	"/>
	<rect x="231.86" y="461.75" width="5.67" height="5.67"/>
	<polygon points="194.06,497.8 173.92,497.8 173.92,517.95 	"/>
	<rect x="184.86" y="508.75" width="5.67" height="5.67"/>
	<polygon points="217.56,402.58 197.42,382.44 197.42,402.58 	"/>
	<polygon points="228.3,391.84 208.16,371.7 208.16,391.84 	"/>
	<rect x="219.1" y="375.23" width="5.67" height="5.67"/>
	<polygon points="194.06,379.09 173.92,358.94 173.92,379.09 	"/>
	<rect x="184.86" y="362.48" width="5.67" height="5.67"/>
	<polygon points="241.06,426.08 220.92,405.94 220.92,426.08 	"/>
	<rect x="231.86" y="409.47" width="5.67" height="5.67"/>
	<polygon points="105.56,402.58 125.7,402.58 125.7,382.44 	"/>
	<polygon points="114.96,371.7 94.82,391.84 114.96,391.84 	"/>
	<rect x="98.35" y="375.23" width="5.67" height="5.67"/>
	<polygon points="82.06,426.08 102.2,426.08 102.2,405.94 	"/>
	<rect x="85.59" y="409.47" width="5.67" height="5.67"/>
	<polygon points="129.06,379.08 149.2,379.08 149.2,358.94 	"/>
	<rect x="132.59" y="362.47" width="5.67" height="5.67"/>
	<polygon points="105.55,474.3 125.69,494.44 125.69,474.3 	"/>
	<polygon points="94.81,485.04 114.95,505.18 114.95,485.04 	"/>
	<rect x="98.34" y="495.98" width="5.67" height="5.67"/>
	<polygon points="129.05,497.8 149.19,517.94 149.19,497.8 	"/>
	<rect x="132.58" y="508.74" width="5.67" height="5.67"/>
	<polygon points="82.05,450.8 102.2,470.94 102.2,450.8 	"/>
	<rect x="85.59" y="461.74" width="5.67" height="5.67"/>
	<path d="M161.56,376.4L161.56,376.4l0.76-0.75l3.5,3.5l-4.26,4.26l0.01,6l7.25-7.25l3.5,3.5l-10.76,10.76l-10.77-10.77l3.5-3.5
		l7.26,7.26v-6.01l-4.26-4.26l3.5-3.5L161.56,376.4v-7.68l-69.71,69.71l7.67,0.01l-0.76-0.76l3.51-3.51l4.26,4.26l6,0.01l-7.26-7.26
		l3.51-3.51l10.76,10.76l6,0.01l-13.77-13.77l3.5-3.5l16.43,16.43l-0.83,0.83l6.17,0l24.53-24.53v-6.17l-0.84,0.84l-16.43-16.43
		l3.51-3.51l13.77,13.77l13.76-13.76l3.51,3.51l-16.43,16.43l-0.84-0.84l-0.01,6.16l24.54,24.54h6.17l-0.83-0.83l16.43-16.43
		l3.5,3.5l-13.76,13.76h6l10.76-10.76l3.51,3.51l-7.25,7.25l5.99,0.01l4.26-4.26l3.51,3.51l-0.76,0.76l0.76,0.76l-3.5,3.5
		l-4.26-4.26h-6l7.26,7.26l-3.51,3.51l-10.76-10.76l-6-0.01l13.77,13.77l-3.51,3.51l-16.43-16.43l0.84-0.84h-6.17l-24.53,24.53
		l-0.01,6.16l0.01,0.01l0.84-0.84l16.43,16.43l-3.51,3.51l-13.77-13.77l-13.76,13.76l-3.51-3.51l16.43-16.43l0.84,0.84v-6.17
		l-24.53-24.53l-6.17,0l0.83,0.83l-16.43,16.43l-3.5-3.5l13.76-13.76l-6-0.01l-10.76,10.76l-3.5-3.5l7.25-7.25h-6l-4.26,4.26
		l-3.51-3.51l0.75-0.75h-7.67l69.71,69.71l-0.01-7.67l-0.75,0.75l-3.5-3.5l4.26-4.26l4.26,4.26l-3.5,3.5l-0.76-0.76l-0.01,7.67
		l69.72-69.72l-69.71-69.71L161.56,376.4z M134.7,434.59l-16.43-16.43l3.5-3.5l16.43,16.43L134.7,434.59z M141.2,428.09
		l-16.43-16.43l3.51-3.51l16.43,16.43L141.2,428.09z M147.7,421.59l-16.43-16.43l3.51-3.51l16.43,16.43L147.7,421.59z
		 M157.72,411.58l-3.51,3.51l-16.43-16.43l3.51-3.51L157.72,411.58z M121.77,462.21l-3.5-3.5l16.43-16.43l3.5,3.5L121.77,462.21z
		 M128.28,468.72l-3.51-3.51l16.43-16.43l3.51,3.51L128.28,468.72z M134.78,475.22l-3.51-3.51l16.43-16.43l3.51,3.51L134.78,475.22z
		 M141.29,481.73l-3.51-3.51l16.43-16.43l3.51,3.51L141.29,481.73z M168.82,494.74l-7.27-7.27l-7.25,7.25l-3.5-3.5l10.76-10.76
		l10.77,10.77L168.82,494.74z M181.83,481.73l-16.43-16.43l3.5-3.5l16.43,16.43L181.83,481.73z M188.33,475.23l-16.43-16.43l3.5-3.5
		l16.43,16.43L188.33,475.23z M193.33,470.23l-16.43-16.43l0.01-0.01L193.33,470.23L193.33,470.23z M194.84,468.72l-16.43-16.43
		l3.5-3.5l16.43,16.43L194.84,468.72z M201.34,462.22l-16.43-16.43l3.5-3.5l16.43,16.43L201.34,462.22z M201.34,414.67l3.5,3.5
		l-16.43,16.43l-3.5-3.5L201.34,414.67z M194.84,408.17l3.51,3.51l-16.43,16.43l-3.51-3.51L194.84,408.17z M188.33,401.66l3.51,3.51
		l-16.43,16.43l-3.51-3.51L188.33,401.66z M181.83,395.16l3.51,3.51l-16.43,16.43l-3.51-3.51L181.83,395.16z"/>
</g>
<g>
</g>
<g>
</g>
<g>
</g>
<g>
</g>
<g>
</g>
<g>
</g>
<g>
</g>
<g>
</g>
<g>
</g>
<g>
</g>
<g>
</g>
<g>
</g>
<g>
</g>
<g>
</g>
<g>
</g>
</svg>
