<?xml version="1.0" encoding="utf-8"?>
<!-- Generator: Adobe Illustrator 27.2.0, SVG Export Plug-In . SVG Version: 6.00 Build 0)  -->
<svg version="1.1" id="Layer_1" xmlns="http://www.w3.org/2000/svg" xmlns:xlink="http://www.w3.org/1999/xlink" x="0px" y="0px"
	 viewBox="0 0 800 600" style="enable-background:new 0 0 800 600;" xml:space="preserve">
<g>
	<rect x="228.6" y="380.87" width="5.67" height="5.67"/>
	<rect x="222.93" y="386.54" width="5.67" height="5.67"/>
	<path d="M206.01,351.87c-1.01,0-1.82,0.82-1.82,1.82s0.82,1.82,1.82,1.82s1.82-0.82,1.82-1.82S207.02,351.87,206.01,351.87z"/>
	<circle cx="362.97" cy="489.96" r="1.82"/>
	<path d="M204.19,372.52c0,1.01,0.82,1.82,1.82,1.82s1.82-0.82,1.82-1.82s-0.82-1.82-1.82-1.82S204.19,371.51,204.19,372.52z"/>
	<path d="M383.62,509.72c0-1.01-0.82-1.82-1.82-1.82s-1.82,0.82-1.82,1.82c0,1.01,0.82,1.82,1.82,1.82S383.62,510.73,383.62,509.72z
		"/>
	<rect x="348.95" y="501.22" width="5.67" height="5.67"/>
	<rect x="348.95" y="512.55" width="5.67" height="5.67"/>
	<path d="M206.01,343.96l-9.73,9.73l9.41,9.41l-9.41,9.41l9.73,9.73l9.73-9.73l-9.41-9.41l9.41-9.41L206.01,343.96z M210.45,372.52
		l-4.44,4.44l-4.44-4.44l4.44-4.44L210.45,372.52z M206.01,358.13l-4.44-4.44l4.44-4.44l4.44,4.44L206.01,358.13z"/>
	<rect x="217.26" y="339.62" width="5.67" height="5.67"/>
	<rect x="228.6" y="339.62" width="5.67" height="5.67"/>
	<rect x="217.26" y="380.87" width="5.67" height="5.67"/>
	<path d="M225.77,382.25l9.73-9.73l-9.41-9.41l9.41-9.41l-9.73-9.73l-9.73,9.73l9.41,9.41l-9.41,9.41L225.77,382.25z M221.33,353.69
		l4.44-4.44l4.44,4.44l-4.44,4.44L221.33,353.69z M225.77,368.08l4.44,4.44l-4.44,4.44l-4.44-4.44L225.77,368.08z"/>
	<path d="M353.24,489.96l9.73,9.73l9.41-9.41l9.41,9.41l9.73-9.73l-9.73-9.73l-9.41,9.41l-9.41-9.41L353.24,489.96z M381.8,485.53
		l4.44,4.44l-4.44,4.44l-4.44-4.44L381.8,485.53z M362.97,494.4l-4.44-4.44l4.44-4.44l4.44,4.44L362.97,494.4z"/>
	<path d="M225.77,374.34c1.01,0,1.82-0.82,1.82-1.82s-0.82-1.82-1.82-1.82s-1.82,0.82-1.82,1.82S224.76,374.34,225.77,374.34z"/>
	<rect x="343.28" y="506.88" width="5.67" height="5.67"/>
	<rect x="171.84" y="419.77" width="5.67" height="5.67"/>
	<path d="M180.34,454.49c1.01,0,1.82-0.82,1.82-1.82c0-1.01-0.82-1.82-1.82-1.82s-1.82,0.82-1.82,1.82
		C178.52,453.67,179.33,454.49,180.34,454.49z"/>
	<rect x="384.63" y="475.11" width="5.67" height="5.67"/>
	<rect x="203.18" y="333.95" width="5.67" height="5.67"/>
	<rect x="373.29" y="475.11" width="5.67" height="5.67"/>
	<path d="M182.16,433.84c0-1.01-0.82-1.82-1.82-1.82s-1.82,0.82-1.82,1.82s0.82,1.82,1.82,1.82S182.16,434.85,182.16,433.84z"/>
	<rect x="189.53" y="436.68" width="5.67" height="5.67"/>
	<rect x="189.53" y="425.34" width="5.67" height="5.67"/>
	<rect x="195.2" y="431.01" width="5.67" height="5.67"/>
	<rect x="378.96" y="469.44" width="5.67" height="5.67"/>
	<path d="M180.34,462.4l9.73-9.73l-9.41-9.41l9.41-9.41l-9.73-9.73l-9.73,9.73l9.41,9.41l-9.41,9.41L180.34,462.4z M175.9,433.84
		l4.44-4.44l4.44,4.44l-4.44,4.44L175.9,433.84z M180.34,448.23l4.44,4.44l-4.44,4.44l-4.44-4.44L180.34,448.23z"/>
	<rect x="197.51" y="339.62" width="5.67" height="5.67"/>
	<rect x="185.49" y="350.86" width="5.67" height="5.67"/>
	<rect x="222.93" y="333.95" width="5.67" height="5.67"/>
	<rect x="208.85" y="339.62" width="5.67" height="5.67"/>
	<rect x="191.16" y="345.19" width="5.67" height="5.67"/>
	<path d="M383.62,489.96c0-1.01-0.82-1.82-1.82-1.82s-1.82,0.82-1.82,1.82s0.82,1.82,1.82,1.82S383.62,490.97,383.62,489.96z"/>
	<rect x="191.16" y="356.53" width="5.67" height="5.67"/>
	<rect x="183.18" y="419.77" width="5.67" height="5.67"/>
	<rect x="177.51" y="414.1" width="5.67" height="5.67"/>
	<path d="M245.52,374.34c1.01,0,1.82-0.82,1.82-1.82s-0.82-1.82-1.82-1.82s-1.82,0.82-1.82,1.82S244.52,374.34,245.52,374.34z"/>
	<rect x="282.45" y="419.77" width="5.67" height="5.67"/>
	<polygon points="298.59,490.71 330.14,459.16 322.57,451.59 291.02,483.14 293.14,485.26 322.57,455.83 325.89,459.16 
		296.46,488.59 	"/>
	<rect x="293.79" y="419.77" width="5.67" height="5.67"/>
	<path d="M292.77,433.84c0-1.01-0.82-1.82-1.82-1.82c-1.01,0-1.82,0.82-1.82,1.82s0.82,1.82,1.82,1.82
		C291.96,435.66,292.77,434.85,292.77,433.84z"/>
	<rect x="319.89" y="436.68" width="5.67" height="5.67"/>
	<path d="M290.95,462.4l9.73-9.73l-9.41-9.41l9.41-9.41l-9.73-9.73l-9.73,9.73l9.41,9.41l-9.41,9.41L290.95,462.4z M286.51,433.84
		l4.44-4.44l4.44,4.44l-4.44,4.44L286.51,433.84z M290.95,448.23l4.44,4.44l-4.44,4.44l-4.44-4.44L290.95,448.23z"/>
	<path d="M290.95,454.49c1.01,0,1.82-0.82,1.82-1.82c0-1.01-0.82-1.82-1.82-1.82c-1.01,0-1.82,0.82-1.82,1.82
		C289.13,453.67,289.95,454.49,290.95,454.49z"/>
	<rect x="325.56" y="431.01" width="5.67" height="5.67"/>
	<rect x="319.89" y="425.34" width="5.67" height="5.67"/>
	<rect x="282.45" y="461.02" width="5.67" height="5.67"/>
	<rect x="302.2" y="419.77" width="5.67" height="5.67"/>
	<rect x="313.54" y="419.77" width="5.67" height="5.67"/>
	<rect x="288.12" y="414.1" width="5.67" height="5.67"/>
	<path d="M312.53,433.84c0-1.01-0.82-1.82-1.82-1.82s-1.82,0.82-1.82,1.82s0.82,1.82,1.82,1.82S312.53,434.85,312.53,433.84z"/>
	<rect x="307.87" y="414.1" width="5.67" height="5.67"/>
	<path d="M310.71,462.4l9.73-9.73l-9.41-9.41l9.41-9.41l-9.73-9.73l-9.73,9.73l9.41,9.41l-9.41,9.41L310.71,462.4z M306.27,433.84
		l4.44-4.44l4.44,4.44l-4.44,4.44L306.27,433.84z M310.71,448.23l4.44,4.44l-4.44,4.44l-4.44-4.44L310.71,448.23z"/>
	<path d="M372.38,510.04l9.41,9.41l9.73-9.73l-9.73-9.73l-9.41,9.41l-9.41-9.41l-9.73,9.73l9.73,9.73L372.38,510.04z M381.8,505.28
		l4.44,4.44l-4.44,4.44l-4.44-4.44L381.8,505.28z M362.97,505.28l4.44,4.44l-4.44,4.44l-4.44-4.44L362.97,505.28z"/>
	<path d="M310.71,454.49c1.01,0,1.82-0.82,1.82-1.82c0-1.01-0.82-1.82-1.82-1.82s-1.82,0.82-1.82,1.82
		C308.89,453.67,309.7,454.49,310.71,454.49z"/>
	<rect x="293.79" y="461.02" width="5.67" height="5.67"/>
	<rect x="288.12" y="466.69" width="5.67" height="5.67"/>
	<rect x="254.71" y="356.53" width="5.67" height="5.67"/>
	<rect x="242.69" y="333.95" width="5.67" height="5.67"/>
	<rect x="248.36" y="339.62" width="5.67" height="5.67"/>
	<rect x="254.71" y="345.19" width="5.67" height="5.67"/>
	<rect x="260.38" y="350.86" width="5.67" height="5.67"/>
	<rect x="237.02" y="339.62" width="5.67" height="5.67"/>
	<path d="M364.79,509.72c0-1.01-0.82-1.82-1.82-1.82s-1.82,0.82-1.82,1.82c0,1.01,0.82,1.82,1.82,1.82S364.79,510.73,364.79,509.72z
		"/>
	<path d="M245.52,382.25l9.73-9.73l-9.41-9.41l9.41-9.41l-9.73-9.73l-9.73,9.73l9.41,9.41l-9.41,9.41L245.52,382.25z M241.09,353.69
		l4.44-4.44l4.44,4.44l-4.44,4.44L241.09,353.69z M245.52,368.08l4.44,4.44l-4.44,4.44l-4.44-4.44L245.52,368.08z"/>
	<path d="M247.35,353.69c0-1.01-0.82-1.82-1.82-1.82s-1.82,0.82-1.82,1.82s0.82,1.82,1.82,1.82S247.35,354.7,247.35,353.69z"/>
	<rect x="274.03" y="419.77" width="5.67" height="5.67"/>
	<rect x="250.67" y="431.01" width="5.67" height="5.67"/>
	<rect x="157.75" y="414.1" width="5.67" height="5.67"/>
	<path d="M271.19,424.11l-9.73,9.73l9.41,9.41l-9.41,9.41l9.73,9.73l9.73-9.73l-9.41-9.41l9.41-9.41L271.19,424.11z M275.63,452.67
		l-4.44,4.44l-4.44-4.44l4.44-4.44L275.63,452.67z M271.19,438.28l-4.44-4.44l4.44-4.44l4.44,4.44L271.19,438.28z"/>
	<rect x="262.69" y="419.77" width="5.67" height="5.67"/>
	<path d="M271.2,432.02c-1.01,0-1.82,0.82-1.82,1.82s0.82,1.82,1.82,1.82s1.82-0.82,1.82-1.82S272.2,432.02,271.2,432.02z"/>
	<rect x="256.34" y="425.34" width="5.67" height="5.67"/>
	<rect x="268.36" y="414.1" width="5.67" height="5.67"/>
	<path d="M269.37,452.67c0,1.01,0.82,1.82,1.82,1.82s1.82-0.82,1.82-1.82c0-1.01-0.82-1.82-1.82-1.82S269.37,451.66,269.37,452.67z"
		/>
	<rect x="256.34" y="436.68" width="5.67" height="5.67"/>
	<path d="M227.59,353.69c0-1.01-0.82-1.82-1.82-1.82s-1.82,0.82-1.82,1.82s0.82,1.82,1.82,1.82S227.59,354.7,227.59,353.69z"/>
	<path d="M79.15,489.64l-9.41-9.41l-9.73,9.73l9.73,9.73l9.41-9.41l9.41,9.41l9.73-9.73l-9.73-9.73L79.15,489.64z M69.74,494.4
		l-4.44-4.44l4.44-4.44l4.44,4.44L69.74,494.4z M88.57,494.4l-4.44-4.44l4.44-4.44l4.44,4.44L88.57,494.4z"/>
	<rect x="72.57" y="475.11" width="5.67" height="5.67"/>
	<rect x="66.9" y="469.44" width="5.67" height="5.67"/>
	<path d="M86.74,489.96c0,1.01,0.82,1.82,1.82,1.82c1.01,0,1.82-0.82,1.82-1.82s-0.82-1.82-1.82-1.82
		C87.56,488.14,86.74,488.96,86.74,489.96z"/>
	<circle cx="69.74" cy="489.96" r="1.82"/>
	<path d="M88.57,519.45l9.73-9.73l-9.73-9.73l-9.41,9.41l-9.41-9.41l-9.73,9.73l9.73,9.73l9.41-9.41L88.57,519.45z M88.57,505.28
		l4.44,4.44l-4.44,4.44l-4.44-4.44L88.57,505.28z M69.74,514.16l-4.44-4.44l4.44-4.44l4.44,4.44L69.74,514.16z"/>
	<rect x="55.67" y="492.8" width="5.67" height="5.67"/>
	<rect x="61.24" y="475.11" width="5.67" height="5.67"/>
	<rect x="55.67" y="501.22" width="5.67" height="5.67"/>
	<rect x="50" y="487.13" width="5.67" height="5.67"/>
	<rect x="55.67" y="481.46" width="5.67" height="5.67"/>
	<rect x="159.72" y="487.12" transform="matrix(0.7071 -0.7071 0.7071 0.7071 -303.1964 262.7541)" width="11.69" height="20.48"/>
	<rect x="50" y="506.88" width="5.67" height="5.67"/>
	<rect x="155.33" y="516.23" transform="matrix(0.7071 -0.7071 0.7071 0.7071 -320.6703 269.9895)" width="20.48" height="11.69"/>
	<rect x="167.29" y="528.19" transform="matrix(0.7071 -0.7071 0.7071 0.7071 -325.6234 281.948)" width="20.48" height="11.69"/>
	<polygon points="193.84,549.91 200.87,542.89 192.6,534.62 178.11,549.1 178.92,549.91 	"/>
	<path d="M98.3,529.48l-9.73-9.73l-9.41,9.41l-9.41-9.41l-9.73,9.73l9.73,9.73l9.41-9.41l9.41,9.41L98.3,529.48z M69.74,533.91
		l-4.44-4.44l4.44-4.44l4.44,4.44L69.74,533.91z M88.57,525.04l4.44,4.44l-4.44,4.44l-4.44-4.44L88.57,525.04z"/>
	<path d="M90.39,509.72c0-1.01-0.82-1.82-1.82-1.82c-1.01,0-1.82,0.82-1.82,1.82c0,1.01,0.82,1.82,1.82,1.82
		C89.57,511.54,90.39,510.73,90.39,509.72z"/>
	<path d="M90.39,529.48c0-1.01-0.82-1.82-1.82-1.82c-1.01,0-1.82,0.82-1.82,1.82s0.82,1.82,1.82,1.82
		C89.57,531.3,90.39,530.48,90.39,529.48z"/>
	<circle cx="69.74" cy="529.48" r="1.82"/>
	<path d="M67.92,509.72c0,1.01,0.82,1.82,1.82,1.82s1.82-0.82,1.82-1.82c0-1.01-0.82-1.82-1.82-1.82S67.92,508.71,67.92,509.72z"/>
	<rect x="390.2" y="512.55" width="5.67" height="5.67"/>
	<rect x="395.87" y="526.64" width="5.67" height="5.67"/>
	<rect x="390.2" y="520.97" width="5.67" height="5.67"/>
	<rect x="390.2" y="532.31" width="5.67" height="5.67"/>
	<rect x="384.63" y="538.66" width="5.67" height="5.67"/>
	<rect x="395.87" y="506.88" width="5.67" height="5.67"/>
	<rect x="390.2" y="481.46" width="5.67" height="5.67"/>
	<rect x="373.29" y="538.66" width="5.67" height="5.67"/>
	<rect x="395.87" y="487.13" width="5.67" height="5.67"/>
	<rect x="390.2" y="501.22" width="5.67" height="5.67"/>
	<rect x="163.42" y="419.77" width="5.67" height="5.67"/>
	<path d="M383.62,529.48c0-1.01-0.82-1.82-1.82-1.82s-1.82,0.82-1.82,1.82s0.82,1.82,1.82,1.82S383.62,530.48,383.62,529.48z"/>
	<rect x="61.24" y="538.66" width="5.67" height="5.67"/>
	<rect x="66.9" y="544.33" width="5.67" height="5.67"/>
	<rect x="55.67" y="532.31" width="5.67" height="5.67"/>
	<rect x="378.96" y="544.33" width="5.67" height="5.67"/>
	<rect x="50" y="526.64" width="5.67" height="5.67"/>
	<rect x="55.67" y="520.97" width="5.67" height="5.67"/>
	<rect x="55.67" y="512.55" width="5.67" height="5.67"/>
	<path d="M391.53,529.48l-9.73-9.73l-9.41,9.41l-9.41-9.41l-9.73,9.73l9.73,9.73l9.41-9.41l9.41,9.41L391.53,529.48z M362.97,533.91
		l-4.44-4.44l4.44-4.44l4.44,4.44L362.97,533.91z M381.8,525.04l4.44,4.44l-4.44,4.44l-4.44-4.44L381.8,525.04z"/>
	<circle cx="362.97" cy="529.48" r="1.82"/>
	<rect x="72.57" y="538.66" width="5.67" height="5.67"/>
	<path d="M364.05,478.1l-7.57-7.57l-39.17,39.17l-91.53-91.53l39.17-39.17l-7.57-7.57l-31.62,31.62l-31.62-31.62l-7.57,7.57
		l39.17,39.17l-91.53,91.53l-39.17-39.17l-7.57,7.57l31.62,31.62l-31.62,31.62l7.57,7.57l39.17-39.17l40.18,40.18h4.24l-40.19-40.19
		l87.3-87.3l87.3,87.3l-40.19,40.19h4.24l40.18-40.18l39.17,39.17l7.57-7.57l-31.62-31.62L364.05,478.1z M95.06,544.66l-3.33-3.33
		l31.61-31.62L91.73,478.1l3.33-3.33L130,509.72L95.06,544.66z M190.83,379.01l3.33-3.33l31.62,31.61l31.62-31.61l3.33,3.33
		l-34.94,34.94L190.83,379.01z M359.8,541.33l-3.33,3.33l-34.94-34.94l34.94-34.94l3.33,3.33l-31.62,31.62L359.8,541.33z"/>
	<rect x="390.2" y="492.8" width="5.67" height="5.67"/>
	<rect x="125.97" y="425.34" width="5.67" height="5.67"/>
	<rect x="120.3" y="431.01" width="5.67" height="5.67"/>
	<rect x="143.66" y="419.77" width="5.67" height="5.67"/>
	<rect x="125.97" y="436.68" width="5.67" height="5.67"/>
	<rect x="132.32" y="419.77" width="5.67" height="5.67"/>
	<rect x="137.99" y="414.1" width="5.67" height="5.67"/>
	<polygon points="150.5,521.49 162.27,509.72 162.28,509.72 162.27,509.72 162.28,509.72 162.27,509.72 150.5,497.95 142.23,506.22 
		145.74,509.72 142.23,513.22 	"/>
	<rect x="102.59" y="506.88" width="5.67" height="5.67"/>
	<rect x="96.92" y="501.22" width="5.67" height="5.67"/>
	<rect x="96.92" y="512.55" width="5.67" height="5.67"/>
	<rect x="171.68" y="475.16" transform="matrix(0.7071 -0.7071 0.7071 0.7071 -291.2363 267.7092)" width="11.69" height="20.48"/>
	<path d="M160.58,454.49c1.01,0,1.82-0.82,1.82-1.82c0-1.01-0.82-1.82-1.82-1.82c-1.01,0-1.82,0.82-1.82,1.82
		C158.76,453.67,159.58,454.49,160.58,454.49z"/>
	<path d="M160.58,462.4l9.73-9.73l-9.41-9.41l9.41-9.41l-9.73-9.73l-9.73,9.73l9.41,9.41l-9.41,9.41L160.58,462.4z M156.15,433.84
		l4.44-4.44l4.44,4.44l-4.44,4.44L156.15,433.84z M160.58,448.23l4.44,4.44l-4.44,4.44l-4.44-4.44L160.58,448.23z"/>
	<polygon points="158.4,485.26 160.52,483.14 128.97,451.59 121.4,459.16 152.95,490.71 155.07,488.59 125.64,459.16 128.97,455.83 
			"/>
	<rect x="152.08" y="419.77" width="5.67" height="5.67"/>
	<path d="M162.41,433.84c0-1.01-0.82-1.82-1.82-1.82c-1.01,0-1.82,0.82-1.82,1.82s0.82,1.82,1.82,1.82
		C161.59,435.66,162.41,434.85,162.41,433.84z"/>
	<rect x="163.42" y="461.02" width="5.67" height="5.67"/>
	<rect x="152.08" y="461.02" width="5.67" height="5.67"/>
	<path d="M140.83,432.02c-1.01,0-1.82,0.82-1.82,1.82s0.82,1.82,1.82,1.82s1.82-0.82,1.82-1.82S141.83,432.02,140.83,432.02z"/>
	<path d="M139.01,452.67c0,1.01,0.82,1.82,1.82,1.82s1.82-0.82,1.82-1.82c0-1.01-0.82-1.82-1.82-1.82S139.01,451.66,139.01,452.67z"
		/>
	<rect x="157.75" y="466.69" width="5.67" height="5.67"/>
	<path d="M140.83,424.11l-9.73,9.73l9.41,9.41l-9.41,9.41l9.73,9.73l9.73-9.73l-9.41-9.41l9.41-9.41L140.83,424.11z M145.26,452.67
		l-4.44,4.44l-4.44-4.44l4.44-4.44L145.26,452.67z M140.83,438.28l-4.44-4.44l4.44-4.44l4.44,4.44L140.83,438.28z"/>
	<polygon points="301.03,497.95 289.26,509.72 289.26,509.72 289.26,509.72 289.26,509.72 289.26,509.72 301.03,521.49 
		309.3,513.22 305.8,509.72 309.3,506.22 	"/>
	<rect x="263.77" y="479.55" transform="matrix(0.7071 -0.7071 0.7071 0.7071 -262.9764 335.9221)" width="20.48" height="11.69"/>
	<rect x="239.85" y="455.63" transform="matrix(0.7071 -0.7071 0.7071 0.7071 -253.0681 312.0014)" width="20.48" height="11.69"/>
	<rect x="251.81" y="467.59" transform="matrix(0.7071 -0.7071 0.7071 0.7071 -258.0228 323.9637)" width="20.48" height="11.69"/>
	<rect x="275.73" y="491.52" transform="matrix(0.7071 -0.7071 0.7071 0.7071 -267.9305 347.8824)" width="20.48" height="11.69"/>
	<rect x="280.12" y="511.84" transform="matrix(0.7071 -0.7071 0.7071 0.7071 -285.4077 355.127)" width="11.69" height="20.48"/>
	<rect x="195.6" y="451.24" transform="matrix(0.7071 -0.7071 0.7071 0.7071 -267.3105 277.6056)" width="11.69" height="20.48"/>
	<rect x="227.88" y="443.67" transform="matrix(0.7071 -0.7071 0.7071 0.7071 -248.114 300.0411)" width="20.48" height="11.69"/>
	<rect x="183.64" y="463.2" transform="matrix(0.7071 -0.7071 0.7071 0.7071 -279.2707 272.6515)" width="11.69" height="20.48"/>
	<rect x="268.16" y="523.8" transform="matrix(0.7071 -0.7071 0.7071 0.7071 -297.369 350.1754)" width="11.69" height="20.48"/>
	<polygon points="225.77,429.69 222.26,426.19 214,434.45 225.77,446.22 225.77,446.23 225.77,446.23 225.77,446.23 225.77,446.22 
		237.54,434.45 229.27,426.19 	"/>
	<rect x="207.56" y="439.28" transform="matrix(0.7071 -0.7071 0.7071 0.7071 -255.3504 282.5598)" width="11.69" height="20.48"/>
	<rect x="191.83" y="508.3" width="4.79" height="2.83"/>
	<polygon points="217.94,534.41 217.94,529.62 224.35,529.62 224.35,536.03 227.18,536.03 227.18,529.62 233.59,529.62 
		233.59,534.41 236.43,534.41 236.43,529.62 241.22,529.62 241.22,526.79 236.43,526.79 236.43,522 233.59,522 233.59,526.79 
		227.18,526.79 227.18,520.38 231.97,520.38 231.97,517.55 227.18,517.55 227.18,511.14 233.59,511.14 233.59,515.92 236.43,515.92 
		236.43,511.14 242.84,511.14 242.84,508.3 236.43,508.3 236.43,503.51 233.59,503.51 233.59,508.3 227.18,508.3 227.18,501.89 
		231.97,501.89 231.97,499.06 227.18,499.06 227.18,492.65 233.59,492.65 233.59,497.44 236.43,497.44 236.43,492.65 241.22,492.65 
		241.22,489.81 236.43,489.81 236.43,485.03 233.59,485.03 233.59,489.81 227.18,489.81 227.18,483.4 231.97,483.4 231.97,480.57 
		227.18,480.57 227.18,475.78 224.35,475.78 224.35,480.57 219.56,480.57 219.56,483.4 224.35,483.4 224.35,489.81 217.94,489.81 
		217.94,485.03 215.11,485.03 215.11,489.81 210.32,489.81 210.32,492.65 215.11,492.65 215.11,497.44 217.94,497.44 217.94,492.65 
		224.35,492.65 224.35,499.06 219.56,499.06 219.56,501.89 224.35,501.89 224.35,508.3 217.94,508.3 217.94,503.51 215.11,503.51 
		215.11,508.3 208.7,508.3 208.7,501.89 213.48,501.89 213.48,499.06 208.7,499.06 208.7,494.27 205.86,494.27 205.86,499.06 
		201.08,499.06 201.08,501.89 205.86,501.89 205.86,508.3 199.45,508.3 199.45,503.51 196.62,503.51 196.62,508.3 196.62,508.3 
		196.62,511.14 196.62,511.14 196.62,515.92 199.45,515.92 199.45,511.14 205.86,511.14 205.86,517.55 201.08,517.55 201.08,520.38 
		205.86,520.38 205.86,525.17 208.7,525.17 208.7,520.38 213.48,520.38 213.48,517.55 208.7,517.55 208.7,511.14 215.11,511.14 
		215.11,515.92 217.94,515.92 217.94,511.14 224.35,511.14 224.35,517.55 219.56,517.55 219.56,520.38 224.35,520.38 224.35,526.79 
		217.94,526.79 217.94,522 215.11,522 215.11,526.79 210.32,526.79 210.32,529.62 215.11,529.62 215.11,534.41 	"/>
	<polygon points="227.18,543.66 227.18,538.87 231.97,538.87 231.97,536.03 219.56,536.03 219.56,538.87 224.35,538.87 
		224.35,543.66 	"/>
	<polygon points="225.77,464.53 180.58,509.72 220.77,549.91 225.02,549.91 184.82,509.72 225.77,468.77 266.71,509.72 
		226.52,549.91 230.76,549.91 270.95,509.72 	"/>
	<rect x="238.05" y="517.55" width="4.79" height="2.83"/>
	<polygon points="225.77,451.99 168.04,509.72 208.23,549.91 212.47,549.91 172.28,509.72 225.77,456.23 279.25,509.72 
		239.06,549.91 243.3,549.91 283.5,509.72 	"/>
	<polygon points="207.89,549.91 204.56,546.58 201.23,549.91 	"/>
	<polygon points="243.65,549.91 250.31,549.91 246.98,546.58 	"/>
	<polygon points="258.94,534.62 250.67,542.89 257.69,549.91 272.61,549.91 273.42,549.1 	"/>
	<polygon points="242.84,494.27 242.84,499.06 242.84,499.06 242.84,501.89 242.84,501.89 242.84,499.06 238.05,499.06 
		238.05,501.89 242.84,501.89 242.84,506.68 242.84,506.68 242.84,512.76 242.84,512.76 242.84,517.55 242.84,517.55 242.84,520.38 
		242.84,520.38 242.84,525.17 245.67,525.17 245.67,520.38 250.46,520.38 250.46,517.55 245.67,517.55 245.67,511.14 252.08,511.14 
		252.08,515.92 254.92,515.92 254.92,511.14 259.7,511.14 259.7,508.3 254.92,508.3 254.92,503.51 252.08,503.51 252.08,508.3 
		245.67,508.3 245.67,501.89 250.46,501.89 250.46,499.06 245.67,499.06 245.67,494.27 	"/>
</g>
<g>
</g>
<g>
</g>
<g>
</g>
<g>
</g>
<g>
</g>
<g>
</g>
<g>
</g>
<g>
</g>
<g>
</g>
<g>
</g>
<g>
</g>
<g>
</g>
<g>
</g>
<g>
</g>
<g>
</g>
</svg>
