<?xml version="1.0" encoding="utf-8"?>
<!-- Generator: Adobe Illustrator 27.2.0, SVG Export Plug-In . SVG Version: 6.00 Build 0)  -->
<svg version="1.1" id="Layer_1" xmlns="http://www.w3.org/2000/svg" xmlns:xlink="http://www.w3.org/1999/xlink" x="0px" y="0px"
	 viewBox="0 0 800 600" style="enable-background:new 0 0 800 600;" xml:space="preserve">
<g>
	<rect x="163.24" y="518" width="4.82" height="4.82"/>
	<rect x="158.43" y="513.19" width="4.82" height="4.82"/>
	<rect x="153.61" y="508.37" width="4.82" height="4.82"/>
	<rect x="148.79" y="503.55" width="4.82" height="4.82"/>
	<rect x="143.97" y="498.73" width="4.82" height="4.82"/>
	<rect x="139.15" y="493.91" width="4.82" height="4.82"/>
	<rect x="134.33" y="489.09" width="4.82" height="4.82"/>
	<rect x="129.51" y="484.27" width="4.82" height="4.82"/>
	<rect x="168.06" y="513.19" width="4.82" height="4.82"/>
	<rect x="148.79" y="493.91" width="4.82" height="4.82"/>
	<rect x="129.51" y="474.63" width="4.82" height="4.82"/>
	<rect x="172.88" y="508.37" width="4.82" height="4.82"/>
	<rect x="153.61" y="489.09" width="4.82" height="4.82"/>
	<rect x="134.33" y="469.82" width="4.82" height="4.82"/>
	<rect x="177.7" y="503.55" width="4.82" height="4.82"/>
	<polygon points="168.06,503.55 163.24,503.55 163.24,498.73 158.43,498.73 158.43,503.55 163.24,503.55 163.24,508.37 
		168.06,508.37 168.06,503.55 172.88,503.55 172.88,498.73 168.06,498.73 	"/>
	<rect x="163.24" y="493.91" width="4.82" height="4.82"/>
	<rect x="158.43" y="484.27" width="4.82" height="4.82"/>
	<rect x="143.97" y="484.27" width="4.82" height="4.82"/>
	<rect x="139.15" y="479.45" width="4.82" height="4.82"/>
	<rect x="148.79" y="479.45" width="4.82" height="4.82"/>
	<rect x="143.97" y="474.63" width="4.82" height="4.82"/>
	<rect x="139.15" y="465" width="4.82" height="4.82"/>
	<rect x="182.52" y="498.73" width="4.82" height="4.82"/>
	<rect x="177.7" y="493.91" width="4.82" height="4.82"/>
	<rect x="172.88" y="489.09" width="4.82" height="4.82"/>
	<rect x="168.06" y="484.27" width="4.82" height="4.82"/>
	<rect x="163.24" y="479.45" width="4.82" height="4.82"/>
	<rect x="158.43" y="474.63" width="4.82" height="4.82"/>
	<rect x="153.61" y="469.82" width="4.82" height="4.82"/>
	<rect x="148.79" y="465" width="4.82" height="4.82"/>
	<rect x="143.97" y="460.18" width="4.82" height="4.82"/>
	<rect x="187.34" y="493.91" width="4.82" height="4.82"/>
	<rect x="168.06" y="474.63" width="4.82" height="4.82"/>
	<rect x="148.79" y="455.36" width="4.82" height="4.82"/>
	<rect x="192.16" y="489.09" width="4.82" height="4.82"/>
	<rect x="172.88" y="469.82" width="4.82" height="4.82"/>
	<rect x="153.61" y="450.54" width="4.82" height="4.82"/>
	<rect x="196.98" y="484.27" width="4.82" height="4.82"/>
	<rect x="182.52" y="484.27" width="4.82" height="4.82"/>
	<rect x="177.7" y="479.45" width="4.82" height="4.82"/>
	<rect x="187.34" y="479.45" width="4.82" height="4.82"/>
	<rect x="182.52" y="474.63" width="4.82" height="4.82"/>
	<rect x="177.7" y="465" width="4.82" height="4.82"/>
	<rect x="163.24" y="465" width="4.82" height="4.82"/>
	<rect x="158.43" y="460.18" width="4.82" height="4.82"/>
	<rect x="168.06" y="460.18" width="4.82" height="4.82"/>
	<rect x="163.24" y="455.36" width="4.82" height="4.82"/>
	<rect x="158.43" y="445.72" width="4.82" height="4.82"/>
	<rect x="196.98" y="474.63" width="4.82" height="4.82"/>
	<rect x="192.16" y="469.82" width="4.82" height="4.82"/>
	<rect x="187.34" y="465" width="4.82" height="4.82"/>
	<rect x="182.52" y="460.18" width="4.82" height="4.82"/>
	<rect x="177.7" y="455.36" width="4.82" height="4.82"/>
	<rect x="172.88" y="450.54" width="4.82" height="4.82"/>
	<rect x="168.06" y="445.72" width="4.82" height="4.82"/>
	<rect x="163.24" y="440.9" width="4.82" height="4.82"/>
	<rect x="158.43" y="436.08" width="4.82" height="4.82"/>
	<rect x="153.61" y="431.26" width="4.82" height="4.82"/>
	<rect x="168.06" y="436.08" width="4.82" height="4.82"/>
	<rect x="158.43" y="426.45" width="4.82" height="4.82"/>
	<rect x="172.88" y="431.26" width="4.82" height="4.82"/>
	<rect x="168.06" y="426.45" width="4.82" height="4.82"/>
	<rect x="163.24" y="421.63" width="4.82" height="4.82"/>
	<rect x="158.43" y="416.81" width="4.82" height="4.82"/>
	<rect x="153.61" y="411.99" width="4.82" height="4.82"/>
	<rect x="168.06" y="416.81" width="4.82" height="4.82"/>
	<rect x="163.24" y="395.54" transform="matrix(0.7071 -0.7071 0.7071 0.7071 -232.8734 233.6913)" width="4.82" height="4.82"/>
	<rect x="172.88" y="411.99" width="4.82" height="4.82"/>
	<polygon points="171.56,406.16 159.74,406.16 165.65,412.07 	"/>
	<polygon points="170.23,401.5 161.08,401.5 165.65,406.07 	"/>
	<rect x="148.79" y="436.08" width="4.82" height="4.82"/>
	<rect x="143.97" y="440.9" width="4.82" height="4.82"/>
	<rect x="148.79" y="426.45" width="4.82" height="4.82"/>
	<rect x="127.52" y="431.26" transform="matrix(0.7071 -0.7071 0.7071 0.7071 -268.5989 218.8933)" width="4.82" height="4.82"/>
	<rect x="143.97" y="421.63" width="4.82" height="4.82"/>
	<polygon points="138.14,427.76 138.14,439.58 144.05,433.67 	"/>
	<polygon points="133.48,429.1 133.48,438.25 138.05,433.67 	"/>
	<rect x="177.7" y="426.45" width="4.82" height="4.82"/>
	<rect x="182.52" y="421.63" width="4.82" height="4.82"/>
	<rect x="177.7" y="436.08" width="4.82" height="4.82"/>
	<rect x="198.97" y="431.26" transform="matrix(0.7071 -0.7071 0.7071 0.7071 -247.6714 269.4167)" width="4.82" height="4.82"/>
	<rect x="182.52" y="440.9" width="4.82" height="4.82"/>
	<polygon points="193.17,439.58 193.17,427.76 187.26,433.67 	"/>
	<polygon points="197.83,429.1 193.26,433.67 197.83,438.25 	"/>
	<rect x="124.69" y="479.45" width="4.82" height="4.82"/>
	<rect x="119.87" y="484.27" width="4.82" height="4.82"/>
	<rect x="115.06" y="489.09" width="4.82" height="4.82"/>
	<rect x="119.87" y="474.63" width="4.82" height="4.82"/>
	<rect x="110.24" y="484.27" width="4.82" height="4.82"/>
	<rect x="115.06" y="469.82" width="4.82" height="4.82"/>
	<rect x="110.24" y="474.63" width="4.82" height="4.82"/>
	<rect x="105.42" y="479.45" width="4.82" height="4.82"/>
	<rect x="100.6" y="484.27" width="4.82" height="4.82"/>
	<rect x="95.78" y="489.09" width="4.82" height="4.82"/>
	<rect x="100.6" y="474.63" width="4.82" height="4.82"/>
	<rect x="79.33" y="479.45" transform="matrix(0.7071 -0.7071 0.7071 0.7071 -316.7878 198.9328)" width="4.82" height="4.82"/>
	<rect x="95.78" y="469.82" width="4.82" height="4.82"/>
	<polygon points="89.95,475.95 89.95,487.77 95.86,481.86 	"/>
	<polygon points="85.29,477.29 85.29,486.44 89.86,481.86 	"/>
	<rect x="119.87" y="493.91" width="4.82" height="4.82"/>
	<rect x="124.69" y="498.73" width="4.82" height="4.82"/>
	<rect x="110.24" y="493.91" width="4.82" height="4.82"/>
	<rect x="115.06" y="515.18" transform="matrix(0.7071 -0.7071 0.7071 0.7071 -331.5858 234.6582)" width="4.82" height="4.82"/>
	<rect x="105.42" y="498.73" width="4.82" height="4.82"/>
	<polygon points="117.46,503.47 111.55,509.38 123.37,509.38 	"/>
	<polygon points="117.46,509.47 112.89,514.04 122.04,514.04 	"/>
	<rect x="110.24" y="465" width="4.82" height="4.82"/>
	<rect x="105.42" y="460.18" width="4.82" height="4.82"/>
	<rect x="119.87" y="465" width="4.82" height="4.82"/>
	<rect x="115.06" y="443.73" transform="matrix(0.7071 -0.7071 0.7071 0.7071 -281.0624 213.7307)" width="4.82" height="4.82"/>
	<rect x="124.69" y="460.18" width="4.82" height="4.82"/>
	<polygon points="123.37,454.35 111.55,454.35 117.46,460.26 	"/>
	<polygon points="122.04,449.69 112.89,449.69 117.46,454.26 	"/>
	<rect x="201.8" y="479.45" width="4.82" height="4.82"/>
	<rect x="206.61" y="474.63" width="4.82" height="4.82"/>
	<rect x="211.43" y="469.82" width="4.82" height="4.82"/>
	<rect x="206.61" y="484.27" width="4.82" height="4.82"/>
	<rect x="216.25" y="474.63" width="4.82" height="4.82"/>
	<rect x="211.43" y="489.09" width="4.82" height="4.82"/>
	<rect x="216.25" y="484.27" width="4.82" height="4.82"/>
	<rect x="221.07" y="479.45" width="4.82" height="4.82"/>
	<rect x="225.89" y="474.63" width="4.82" height="4.82"/>
	<rect x="230.71" y="469.82" width="4.82" height="4.82"/>
	<rect x="225.89" y="484.27" width="4.82" height="4.82"/>
	<rect x="247.16" y="479.45" transform="matrix(0.7071 -0.7071 0.7071 0.7071 -267.6319 317.6057)" width="4.82" height="4.82"/>
	<rect x="230.71" y="489.09" width="4.82" height="4.82"/>
	<polygon points="241.36,487.77 241.36,475.95 235.45,481.86 	"/>
	<polygon points="246.02,477.29 241.45,481.86 246.02,486.44 	"/>
	<rect x="206.61" y="465" width="4.82" height="4.82"/>
	<rect x="201.8" y="460.18" width="4.82" height="4.82"/>
	<rect x="216.25" y="465" width="4.82" height="4.82"/>
	<rect x="211.43" y="443.73" transform="matrix(0.7071 -0.7071 0.7071 0.7071 -252.8352 281.8838)" width="4.82" height="4.82"/>
	<rect x="221.07" y="460.18" width="4.82" height="4.82"/>
	<polygon points="219.75,454.35 207.93,454.35 213.84,460.26 	"/>
	<polygon points="218.42,449.69 209.27,449.69 213.84,454.26 	"/>
	<rect x="216.25" y="493.91" width="4.82" height="4.82"/>
	<rect x="221.07" y="498.73" width="4.82" height="4.82"/>
	<rect x="206.61" y="493.91" width="4.82" height="4.82"/>
	<rect x="211.43" y="515.18" transform="matrix(0.7071 -0.7071 0.7071 0.7071 -303.3557 302.8038)" width="4.82" height="4.82"/>
	<rect x="201.8" y="498.73" width="4.82" height="4.82"/>
	<polygon points="213.84,503.47 207.93,509.38 219.75,509.38 	"/>
	<polygon points="213.84,509.47 209.27,514.04 218.42,514.04 	"/>
	<polygon points="78.91,530.47 84.82,524.56 73,524.56 	"/>
	<rect x="66.87" y="540.36" width="4.82" height="4.82"/>
	<rect x="64.46" y="545.18" width="2.41" height="4.82"/>
	<rect x="71.69" y="535.54" width="4.82" height="4.82"/>
	<rect x="76.5" y="530.72" width="4.82" height="4.82"/>
	<rect x="81.32" y="535.54" width="4.82" height="4.82"/>
	<rect x="86.14" y="540.36" width="4.82" height="4.82"/>
	<polygon points="90.96,545.18 90.96,550 93.37,550 95.78,550 95.78,545.18 93.37,545.18 	"/>
	<polygon points="107.83,530.47 113.74,524.56 101.92,524.56 	"/>
	<rect x="95.78" y="540.36" width="4.82" height="4.82"/>
	<rect x="100.6" y="535.54" width="4.82" height="4.82"/>
	<rect x="105.42" y="530.72" width="4.82" height="4.82"/>
	<rect x="110.24" y="535.54" width="4.82" height="4.82"/>
	<rect x="115.06" y="540.36" width="4.82" height="4.82"/>
	<polygon points="119.87,545.18 119.87,550 122.28,550 124.69,550 124.69,545.18 122.28,545.18 	"/>
	<polygon points="136.74,530.47 142.65,524.56 130.83,524.56 	"/>
	<rect x="124.69" y="540.36" width="4.82" height="4.82"/>
	<rect x="129.51" y="535.54" width="4.82" height="4.82"/>
	<rect x="134.33" y="530.72" width="4.82" height="4.82"/>
	<rect x="139.15" y="535.54" width="4.82" height="4.82"/>
	<rect x="143.97" y="540.36" width="4.82" height="4.82"/>
	<polygon points="148.79,545.18 148.79,550 151.2,550 153.61,550 153.61,545.18 151.2,545.18 	"/>
	<polygon points="165.65,530.47 171.56,524.56 159.74,524.56 	"/>
	<rect x="153.61" y="540.36" width="4.82" height="4.82"/>
	<rect x="158.43" y="535.54" width="4.82" height="4.82"/>
	<rect x="163.24" y="530.72" width="4.82" height="4.82"/>
	<rect x="168.06" y="535.54" width="4.82" height="4.82"/>
	<rect x="172.88" y="540.36" width="4.82" height="4.82"/>
	<polygon points="177.7,545.18 177.7,550 180.11,550 182.52,550 182.52,545.18 180.11,545.18 	"/>
	<polygon points="194.57,530.47 200.48,524.56 188.66,524.56 	"/>
	<rect x="182.52" y="540.36" width="4.82" height="4.82"/>
	<rect x="187.34" y="535.54" width="4.82" height="4.82"/>
	<rect x="192.16" y="530.72" width="4.82" height="4.82"/>
	<rect x="196.98" y="535.54" width="4.82" height="4.82"/>
	<rect x="201.8" y="540.36" width="4.82" height="4.82"/>
	<polygon points="206.61,545.18 206.61,550 209.02,550 211.43,550 211.43,545.18 209.02,545.18 	"/>
	<polygon points="229.39,524.56 217.57,524.56 223.48,530.47 	"/>
	<rect x="211.43" y="540.36" width="4.82" height="4.82"/>
	<rect x="216.25" y="535.54" width="4.82" height="4.82"/>
	<rect x="221.07" y="530.72" width="4.82" height="4.82"/>
	<rect x="225.89" y="535.54" width="4.82" height="4.82"/>
	<rect x="230.71" y="540.36" width="4.82" height="4.82"/>
	<polygon points="235.53,545.18 235.53,550 237.94,550 240.35,550 240.35,545.18 237.94,545.18 	"/>
	<polygon points="258.3,524.56 246.48,524.56 252.39,530.47 	"/>
	<rect x="240.35" y="540.36" width="4.82" height="4.82"/>
	<rect x="245.17" y="535.54" width="4.82" height="4.82"/>
	<rect x="249.98" y="530.72" width="4.82" height="4.82"/>
	<rect x="254.8" y="535.54" width="4.82" height="4.82"/>
	<rect x="259.62" y="540.36" width="4.82" height="4.82"/>
	<polygon points="264.44,545.18 264.44,550 266.85,550 269.26,550 269.26,545.18 266.85,545.18 	"/>
	<polygon points="249.13,514.44 253.7,509.86 249.13,505.29 	"/>
	<rect x="259.62" y="517.09" width="4.82" height="4.82"/>
	<polygon points="253.79,503.95 253.79,515.77 259.7,509.86 	"/>
	<rect x="259.62" y="497.82" width="4.82" height="4.82"/>
	<rect x="264.44" y="502.63" width="4.82" height="4.82"/>
	<rect x="243.17" y="507.45" transform="matrix(0.7071 -0.7071 0.7071 0.7071 -288.5982 322.9878)" width="4.82" height="4.82"/>
	<polygon points="277.9,474.14 281.31,477.54 281.31,470.73 	"/>
	<polygon points="281.31,530.47 281.31,524.56 275.4,524.56 	"/>
	<polygon points="281.31,488.26 281.31,482.34 275.4,482.34 	"/>
	<rect x="269.26" y="488.18" width="4.82" height="4.82"/>
	<polygon points="281.31,482.26 281.31,477.68 276.73,477.68 	"/>
	<rect x="274.08" y="493" width="4.82" height="4.82"/>
	<rect x="269.26" y="540.36" width="4.82" height="4.82"/>
	<rect x="264.44" y="512.27" width="4.82" height="4.82"/>
	<rect x="274.08" y="535.54" width="4.82" height="4.82"/>
	<rect x="278.9" y="530.72" width="2.41" height="4.82"/>
	<rect x="274.08" y="512.27" width="4.82" height="4.82"/>
	<rect x="278.9" y="517.09" width="2.41" height="4.82"/>
	<rect x="278.9" y="497.82" width="2.41" height="4.82"/>
	<rect x="274.08" y="502.63" width="4.82" height="4.82"/>
	<rect x="269.26" y="507.45" width="4.82" height="4.82"/>
	<polygon points="82.18,505.29 77.6,509.86 82.18,514.44 	"/>
	<rect x="66.87" y="517.09" width="4.82" height="4.82"/>
	<polygon points="77.52,515.77 77.52,503.95 71.61,509.86 	"/>
	<rect x="66.87" y="497.82" width="4.82" height="4.82"/>
	<rect x="62.05" y="502.63" width="4.82" height="4.82"/>
	<rect x="83.32" y="507.45" transform="matrix(0.7071 -0.7071 0.7071 0.7071 -335.419 209.9524)" width="4.82" height="4.82"/>
	<polygon points="50,470.73 50,477.54 53.41,474.14 	"/>
	<polygon points="50,524.56 50,530.47 55.91,524.56 	"/>
	<polygon points="50,482.34 50,488.26 55.91,482.34 	"/>
	<rect x="57.23" y="488.18" width="4.82" height="4.82"/>
	<polygon points="50,477.68 50,482.26 54.57,477.68 	"/>
	<rect x="62.05" y="545.18" width="2.41" height="4.82"/>
	<rect x="52.41" y="493" width="4.82" height="4.82"/>
	<rect x="57.23" y="540.36" width="4.82" height="4.82"/>
	<rect x="62.05" y="512.27" width="4.82" height="4.82"/>
	<rect x="52.41" y="535.54" width="4.82" height="4.82"/>
	<rect x="50" y="530.72" width="2.41" height="4.82"/>
	<rect x="52.41" y="512.27" width="4.82" height="4.82"/>
	<rect x="50" y="517.09" width="2.41" height="4.82"/>
	<rect x="50" y="497.82" width="2.41" height="4.82"/>
	<rect x="52.41" y="502.63" width="4.82" height="4.82"/>
	<rect x="57.23" y="507.45" width="4.82" height="4.82"/>
</g>
<g>
</g>
<g>
</g>
<g>
</g>
<g>
</g>
<g>
</g>
<g>
</g>
<g>
</g>
<g>
</g>
<g>
</g>
<g>
</g>
<g>
</g>
<g>
</g>
<g>
</g>
<g>
</g>
<g>
</g>
</svg>
