<?xml version="1.0" encoding="utf-8"?>
<!-- Generator: Adobe Illustrator 27.2.0, SVG Export Plug-In . SVG Version: 6.00 Build 0)  -->
<svg version="1.1" id="Layer_1" xmlns="http://www.w3.org/2000/svg" xmlns:xlink="http://www.w3.org/1999/xlink" x="0px" y="0px"
	 viewBox="0 0 800 600" style="enable-background:new 0 0 800 600;" xml:space="preserve">
<g>
	<path d="M128.16,424.11c1.02,1.05,2.7,1.07,3.75,0.05c1.05-1.02,1.07-2.7,0.05-3.75c-1.02-1.05-2.7-1.07-3.75-0.05
		S127.13,423.06,128.16,424.11z"/>
	<path d="M139.56,409.29c1.05-1.02,1.07-2.7,0.05-3.75s-2.7-1.07-3.75-0.05c-1.05,1.02-1.07,2.7-0.05,3.75
		S138.51,410.31,139.56,409.29z"/>
	<path d="M146.99,398.33l-18.34-0.23l-0.23,18.34l18.34,0.23L146.99,398.33z M143.06,412.88l-10.85-0.14l0.14-10.85l10.85,0.14
		L143.06,412.88z"/>
	<path d="M188.35,411.9l-6.49-6.49l-6.49-6.49l-5.05-5.05l-18.03,18.03l18.03,18.03L188.35,411.9z M170.32,399.88l0.9,0.9l-0.9,0.9
		l-0.9-0.9L170.32,399.88z M167.13,403.07l3.19,3.19l3.19-3.19l4.2,4.2l-7.39,7.39l-7.39-7.39L167.13,403.07z M156.44,413.77
		l4.2-4.2l9.68,9.68l9.68-9.68l4.2,4.2l-12.02,12.02l-1.86-1.86l-1.86,1.86L156.44,413.77z"/>
	<path d="M128.49,397.93c1.05-1.02,1.07-2.7,0.05-3.75c-1.02-1.05-2.7-1.07-3.75-0.05c-1.05,1.02-1.07,2.7-0.05,3.75
		S127.44,398.96,128.49,397.93z"/>
	<path d="M124.55,412.8c-1.02-1.05-2.7-1.07-3.75-0.05s-1.07,2.7-0.05,3.75c1.02,1.05,2.7,1.07,3.75,0.05
		C125.55,415.53,125.57,413.85,124.55,412.8z"/>
	<circle cx="122.84" cy="399.74" r="2.65"/>
	<polygon points="140.62,402.83 140.44,403.01 140.62,403.19 	"/>
	<path d="M109.02,461.18l6.61-6.61l6.61-6.61l6.61-6.61l-1.16,1.16l12.02,12.02l-4.28,4.28l-12.02-12.02l-1.16,1.16l-1.16,1.16
		l12.02,12.02l-4.28,4.28l-12.02-12.02l-1.16,1.16l-1.16,1.16l12.02,12.02l-4.28,4.28l-12.02-12.02L109.02,461.18l12.02,12.02
		l3.01,3.01l19.83-19.83l6.61-6.61l6.61-6.61l13.22-13.22l-15.02-15.02l-1.16,1.16l12.02,12.02l-4.28,4.28l-12.02-12.02l-1.16,1.16
		l-1.16,1.16l12.02,12.02l-4.28,4.28l-12.02-12.02l-1.16,1.16l6.61-6.61l6.61-6.61l-3.01-3.01l-6.61,6.61l-6.61,6.61l-33.05,33.05
		L109.02,461.18z M140.91,429.29l12.02,12.02l-4.28,4.28l-12.02-12.02L140.91,429.29z M134.3,435.9l12.02,12.02l-4.28,4.28
		l-12.02-12.02L134.3,435.9z"/>
	<path d="M118.59,430.19c1.05-1.02,1.07-2.7,0.05-3.75c-1.02-1.05-2.7-1.07-3.75-0.05c-1.05,1.02-1.07,2.7-0.05,3.75
		C115.86,431.19,117.54,431.21,118.59,430.19z"/>
	<path d="M111.04,433.84c1.02,1.05,2.7,1.07,3.75,0.05c1.05-1.02,1.07-2.7,0.05-3.75c-1.02-1.05-2.7-1.07-3.75-0.05
		C110.03,431.11,110.01,432.79,111.04,433.84z"/>
	<path d="M114.74,437.64c1.02,1.05,2.7,1.07,3.75,0.05s1.07-2.7,0.05-3.75c-1.02-1.05-2.7-1.07-3.75-0.05
		C113.74,434.91,113.72,436.59,114.74,437.64z"/>
	<path d="M120.7,420.26c-1.05,1.02-1.07,2.7-0.05,3.75s2.7,1.07,3.75,0.05c1.05-1.02,1.07-2.7,0.05-3.75S121.75,419.23,120.7,420.26
		z"/>
	<path d="M128.21,420.35c1.05-1.02,1.07-2.7,0.05-3.75c-1.02-1.05-2.7-1.07-3.75-0.05c-1.05,1.02-1.07,2.7-0.05,3.75
		S127.16,421.38,128.21,420.35z"/>
	<path d="M216.59,476.21l18.03,18.03l12.98-12.98l5.05-5.05l-5.05-5.05l-6.49-6.49l-6.49-6.49L216.59,476.21z M245.74,475.3l0.9,0.9
		l-0.9,0.9l-0.9-0.9L245.74,475.3z M243.45,473.02l-3.19,3.19l3.19,3.19l-4.2,4.2l-7.39-7.39l7.39-7.39L243.45,473.02z
		 M227.28,476.21l9.68,9.68l-4.2,4.2l-12.02-12.02l1.86-1.86l-1.86-1.86l12.02-12.02l4.2,4.2L227.28,476.21z"/>
	<path d="M111.08,430.09c1.05-1.02,1.07-2.7,0.05-3.75s-2.7-1.07-3.75-0.05c-1.05,1.02-1.07,2.7-0.05,3.75
		S110.03,431.11,111.08,430.09z"/>
	<circle cx="154.48" cy="379.04" r="2.65"/>
	<path d="M154.71,394.51c1.05-1.02,1.07-2.7,0.05-3.75c-1.02-1.05-2.7-1.07-3.75-0.05c-1.05,1.02-1.07,2.7-0.05,3.75
		C151.98,395.52,153.66,395.54,154.71,394.51z"/>
	<polygon points="114.61,550 159.3,505.32 130.18,476.21 170.32,436.07 210.46,476.21 181.35,505.32 226.03,550 230.27,550 
		185.59,505.32 214.7,476.21 170.32,431.83 125.94,476.21 155.05,505.32 110.37,550 	"/>
	<path d="M147.21,394.42c1.05-1.02,1.07-2.7,0.05-3.75c-1.02-1.05-2.7-1.07-3.75-0.05c-1.05,1.02-1.07,2.7-0.05,3.75
		S146.16,395.44,147.21,394.42z"/>
	<path d="M150.87,401.97c1.02,1.05,2.7,1.07,3.75,0.05c1.05-1.02,1.07-2.7,0.05-3.75c-1.02-1.05-2.7-1.07-3.75-0.05
		S149.84,400.92,150.87,401.97z"/>
	<path d="M132.29,394.23c1.05-1.02,1.07-2.7,0.05-3.75c-1.02-1.05-2.7-1.07-3.75-0.05c-1.05,1.02-1.07,2.7-0.05,3.75
		C129.56,395.23,131.24,395.25,132.29,394.23z"/>
	<path d="M248.11,433.77L229.77,434l0.23,18.34l18.34-0.23L248.11,433.77z M233.7,448.55l-0.14-10.85l10.85-0.14l0.14,10.85
		L233.7,448.55z"/>
	<path d="M201.03,405.53c-1.02,1.05-1,2.73,0.05,3.75c1.05,1.02,2.73,1,3.75-0.05s1-2.73-0.05-3.75S202.06,404.48,201.03,405.53z"/>
	<path d="M211.99,398.1l-18.34,0.23l0.23,18.34l18.34-0.23L211.99,398.1z M197.58,412.88l-0.14-10.85l10.85-0.14l0.14,10.85
		L197.58,412.88z"/>
	<circle cx="149.17" cy="379.04" r="2.65"/>
	<path d="M237.16,441.2c-1.02,1.05-1,2.73,0.05,3.75s2.73,1,3.75-0.05c1.02-1.05,1-2.73-0.05-3.75
		C239.86,440.13,238.18,440.15,237.16,441.2z"/>
	<path d="M124.84,390.38c-1.02-1.05-2.7-1.07-3.75-0.05c-1.05,1.02-1.07,2.7-0.05,3.75c1.02,1.05,2.7,1.07,3.75,0.05
		C125.84,393.11,125.86,391.43,124.84,390.38z"/>
	<path d="M147.16,398.17c1.02,1.05,2.7,1.07,3.75,0.05s1.07-2.7,0.05-3.75c-1.02-1.05-2.7-1.07-3.75-0.05
		S146.14,397.12,147.16,398.17z"/>
	<path d="M205.51,523.35L232.17,550h0.03l2.99-2.99l15.02-15.02l-6.67-6.67l-6.67-6.67l-13.33-13.33l-15.02,15.02L205.51,523.35z
		 M246.03,533.82l-12.02,12.02l-4.32-4.32l12.02-12.02L246.03,533.82z M239.37,527.15l-12.02,12.02l-4.32-4.32l12.02-12.02
		L239.37,527.15z M232.7,520.48l-12.02,12.02l-4.32-4.32l12.02-12.02L232.7,520.48z M221.71,509.5l4.32,4.32l-12.02,12.02
		l-4.32-4.32L221.71,509.5z"/>
	<path d="M60.61,470.95c0-1.47-1.19-2.65-2.65-2.65c-1.47,0-2.65,1.19-2.65,2.65c0,1.47,1.19,2.65,2.65,2.65
		C59.43,473.61,60.61,472.42,60.61,470.95z"/>
	<path d="M55.31,481.57c0,1.47,1.19,2.65,2.65,2.65c1.47,0,2.65-1.19,2.65-2.65c0-1.47-1.19-2.65-2.65-2.65
		C56.5,478.92,55.31,480.1,55.31,481.57z"/>
	<circle cx="68.51" cy="460.41" r="2.65"/>
	<path d="M57.96,478.92c1.47,0,2.65-1.19,2.65-2.65c0-1.47-1.19-2.65-2.65-2.65c-1.47,0-2.65,1.19-2.65,2.65
		C55.31,477.73,56.5,478.92,57.96,478.92z"/>
	<path d="M205.51,487.29l3,3l12.03,12.03l3.01,3.01l5.54-5.54l5.54-5.54l-3.01-3.01l-4.56,4.56l-12.02-12.02l3.59-3.59l12.02,12.02
		l0.98-0.98l-12.03-12.03l0,0l-3-3l-5.54,5.54L205.51,487.29z M225.1,497.75l-3.59,3.59l-12.02-12.02l3.59-3.59L225.1,497.75z"/>
	<path d="M86.78,476.26l-12.97-12.97l-12.97,12.97l12.97,12.97L86.78,476.26z M73.82,468.59l7.67,7.67l-7.67,7.67l-7.67-7.67
		L73.82,468.59z"/>
	<path d="M76.47,476.26c0-1.47-1.19-2.65-2.65-2.65c-1.47,0-2.65,1.19-2.65,2.65c0,1.47,1.19,2.65,2.65,2.65
		C75.28,478.92,76.47,477.73,76.47,476.26z"/>
	<circle cx="68.51" cy="492.12" r="2.65"/>
	<circle cx="73.82" cy="497.42" r="2.65"/>
	<path d="M79.12,494.77c1.47,0,2.65-1.19,2.65-2.65s-1.19-2.65-2.65-2.65c-1.47,0-2.65,1.19-2.65,2.65S77.66,494.77,79.12,494.77z"
		/>
	<polygon points="79.31,549.11 80.2,550 84.78,550 81.6,546.83 85.8,542.62 93.18,550 97.75,550 88.09,540.34 92.29,536.14 
		104.31,548.15 102.46,550 108.44,550 90.43,531.99 83.94,538.47 77.45,544.96 72.41,550 78.43,550 	"/>
	<path d="M52.65,478.92c1.47,0,2.65-1.19,2.65-2.65c0-1.47-1.19-2.65-2.65-2.65c-1.47,0-2.65,1.19-2.65,2.65
		C50,477.73,51.19,478.92,52.65,478.92z"/>
	<circle cx="73.82" cy="492.12" r="2.65"/>
	<path d="M84.58,455.93c-1.05,1.02-1.07,2.7-0.05,3.75c1.02,1.05,2.7,1.07,3.75,0.05s1.07-2.7,0.05-3.75
		C87.31,454.93,85.63,454.9,84.58,455.93z"/>
	<path d="M103.76,518.65l-13.33,13.33l3.01,3.01l5.49-5.49l12.02,12.02l-4.32,4.32l-12.02-12.02l-1.17,1.17l12.03,12.03l2.98,2.98
		h0.03l13.32-13.32l6.67-6.67l6.67-6.67l-3-3l-12.03-12.03l-3.01-3.01l-6.67,6.67L103.76,518.65z M113.29,539.17l-12.02-12.02
		l-1.17,1.17l5.49-5.49l12.02,12.02L113.29,539.17z M118.93,509.5l12.02,12.02l-4.32,4.32l-12.02-12.02l-1.17,1.17L118.93,509.5z
		 M124.28,528.18l-4.32,4.32l-12.02-12.02l4.32-4.32L124.28,528.18z"/>
	<path d="M84.86,433.51c-1.05,1.02-1.07,2.7-0.05,3.75c1.02,1.05,2.7,1.07,3.75,0.05c1.05-1.02,1.07-2.7,0.05-3.75
		S85.91,432.48,84.86,433.51z"/>
	<circle cx="73.82" cy="460.41" r="2.65"/>
	<path d="M88.42,448.47c-1.02-1.05-2.7-1.07-3.75-0.05c-1.05,1.02-1.07,2.7-0.05,3.75c1.02,1.05,2.7,1.07,3.75,0.05
		C89.43,451.2,89.45,449.52,88.42,448.47z"/>
	<path d="M96.17,429.9c1.05-1.02,1.07-2.7,0.05-3.75c-1.02-1.05-2.7-1.07-3.75-0.05c-1.05,1.02-1.07,2.7-0.05,3.75
		S95.12,430.92,96.17,429.9z"/>
	<path d="M117.09,505.32l15.02-15.02v0l3.01-3.01l-5.54-5.54l-5.54-5.54l-18.03,18.03L117.09,505.32z M131.14,489.32l-12.02,12.02
		l-3.59-3.59l12.02-12.02L131.14,489.32z M125.6,483.78l-12.02,12.02l-3.59-3.59l12.02-12.02L125.6,483.78z"/>
	<path d="M92.37,433.6c1.05-1.02,1.07-2.7,0.05-3.75s-2.7-1.07-3.75-0.05c-1.05,1.02-1.07,2.7-0.05,3.75S91.32,434.63,92.37,433.6z"
		/>
	<circle cx="93.93" cy="457.92" r="2.65"/>
	<path d="M76.47,455.1c0-1.47-1.19-2.65-2.65-2.65c-1.47,0-2.65,1.19-2.65,2.65c0,1.47,1.19,2.65,2.65,2.65
		C75.28,457.75,76.47,456.57,76.47,455.1z"/>
	<path d="M79.12,463.06c1.47,0,2.65-1.19,2.65-2.65s-1.19-2.65-2.65-2.65c-1.47,0-2.65,1.19-2.65,2.65S77.66,463.06,79.12,463.06z"
		/>
	<path d="M88.71,426.05c-1.02-1.05-2.7-1.07-3.75-0.05s-1.07,2.7-0.05,3.75c1.02,1.05,2.7,1.07,3.75,0.05
		C89.71,428.78,89.73,427.1,88.71,426.05z"/>
	<path d="M190.15,449.76l13.22,13.22l6.61,6.61l6.61,6.61l3-3l12.03-12.03l-1.16-1.16l-12.02,12.02l-4.28-4.28l12.02-12.02
		l-1.16-1.16l-1.16-1.16l-12.02,12.02l-4.28-4.28l12.02-12.02l-1.16-1.16l-1.16-1.16l-12.02,12.02l-4.28-4.28l12.02-12.02l5.45,5.45
		l6.61,6.61l6.61,6.61l3.01-3.01l-6.61-6.61l-13.22-13.22l-6.61-6.61l-13.22-13.22l-6.61-6.61l-3.01,3.01l6.61,6.61l-1.16-1.16
		l-12.02,12.02l-4.28-4.28l12.02-12.02l-1.16-1.16l-12.03,12.03l-3,3l13.22,13.22L190.15,449.76z M193.12,422.68l5.45,5.45
		l6.61,6.61l6.61,6.61l-1.16-1.16L198.6,452.2l-4.28-4.28l12.02-12.02l-1.16-1.16l-1.16-1.16l-12.02,12.02l-4.28-4.28l12.02-12.02
		l-1.16-1.16l-1.16-1.16l-12.02,12.02l-4.28-4.28L193.12,422.68z"/>
	<path d="M92.08,456.02c1.05-1.02,1.07-2.7,0.05-3.75s-2.7-1.07-3.75-0.05c-1.05,1.02-1.07,2.7-0.05,3.75
		C89.35,457.03,91.03,457.05,92.08,456.02z"/>
	<path d="M187.48,505.32l5.05,5.05l6.49,6.49l6.49,6.49l18.03-18.03l-18.03-18.03l-6.49,6.49l-6.49,6.49L187.48,505.32z
		 M207.38,491.44l12.02,12.02l-1.86,1.86l1.86,1.86l-12.02,12.02l-4.2-4.2l9.68-9.68l-9.68-9.68L207.38,491.44z M200.89,497.92
		l7.39,7.39l-7.39,7.39l-4.2-4.2l3.19-3.19l-3.19-3.19L200.89,497.92z M194.4,504.41l0.9,0.9l-0.9,0.9l-0.9-0.9L194.4,504.41z"/>
	<path d="M255.73,429.75c1.02-1.05,1-2.73-0.05-3.75c-1.05-1.02-2.73-1-3.75,0.05c-1.02,1.05-1,2.73,0.05,3.75
		S254.71,430.8,255.73,429.75z"/>
	<path d="M252.07,437.31c1.05,1.02,2.73,1,3.75-0.05c1.02-1.05,1-2.73-0.05-3.75s-2.73-1-3.75,0.05S251.02,436.28,252.07,437.31z"/>
	<path d="M225.8,430.14c1.02-1.05,1-2.73-0.05-3.75c-1.05-1.02-2.73-1-3.75,0.05c-1.02,1.05-1,2.73,0.05,3.75
		S224.78,431.19,225.8,430.14z"/>
	<circle cx="250.13" cy="431.7" r="2.65"/>
	<path d="M225.85,433.89c1.05,1.02,2.73,1,3.75-0.05c1.02-1.05,1-2.73-0.05-3.75s-2.73-1-3.75,0.05
		C224.78,431.19,224.8,432.87,225.85,433.89z"/>
	<path d="M222.1,433.94c-1.02,1.05-1,2.73,0.05,3.75c1.05,1.02,2.73,1,3.75-0.05c1.02-1.05,1-2.73-0.05-3.75
		C224.8,432.87,223.12,432.89,222.1,433.94z"/>
	<circle cx="231.41" cy="428.19" r="2.65"/>
	<path d="M248.23,429.85c1.02-1.05,1-2.73-0.05-3.75c-1.05-1.02-2.73-1-3.75,0.05c-1.02,1.05-1,2.73,0.05,3.75
		C245.52,430.92,247.2,430.9,248.23,429.85z"/>
	<circle cx="261.52" cy="460.41" r="2.65"/>
	<circle cx="266.82" cy="460.41" r="2.65"/>
	<path d="M252.36,459.73c1.05,1.02,2.73,1,3.75-0.05c1.02-1.05,1-2.73-0.05-3.75c-1.05-1.02-2.73-1-3.75,0.05
		C251.29,457.03,251.31,458.71,252.36,459.73z"/>
	<path d="M256.02,452.18c1.02-1.05,1-2.73-0.05-3.75s-2.73-1-3.75,0.05c-1.02,1.05-1,2.73,0.05,3.75
		C253.31,453.25,254.99,453.22,256.02,452.18z"/>
	<path d="M244.81,456.07c-1.02,1.05-1,2.73,0.05,3.75c1.05,1.02,2.73,1,3.75-0.05s1-2.73-0.05-3.75
		C247.51,455,245.83,455.02,244.81,456.07z"/>
	<path d="M248.51,452.27c-1.02,1.05-1,2.73,0.05,3.75c1.05,1.02,2.73,1,3.75-0.05c1.02-1.05,1-2.73-0.05-3.75
		C251.22,451.2,249.53,451.22,248.51,452.27z"/>
	<circle cx="186.19" cy="373.73" r="2.65"/>
	<path d="M189.63,390.71c-1.05-1.02-2.73-1-3.75,0.05c-1.02,1.05-1,2.73,0.05,3.75c1.05,1.02,2.73,1,3.75-0.05
		C190.7,393.42,190.68,391.74,189.63,390.71z"/>
	<path d="M189.68,394.47c-1.02,1.05-1,2.73,0.05,3.75c1.05,1.02,2.73,1,3.75-0.05c1.02-1.05,1-2.73-0.05-3.75
		C192.38,393.4,190.7,393.42,189.68,394.47z"/>
	<path d="M185.98,398.27c-1.02,1.05-1,2.73,0.05,3.75c1.05,1.02,2.73,1,3.75-0.05c1.02-1.05,1-2.73-0.05-3.75
		C188.68,397.2,187,397.22,185.98,398.27z"/>
	<path d="M191.5,381.69c1.47,0,2.65-1.19,2.65-2.65c0-1.47-1.19-2.65-2.65-2.65c-1.47,0-2.65,1.19-2.65,2.65
		C188.84,380.51,190.03,381.69,191.5,381.69z"/>
	<circle cx="218.09" cy="422.16" r="2.65"/>
	<path d="M193.43,394.42c1.05,1.02,2.73,1,3.75-0.05s1-2.73-0.05-3.75c-1.05-1.02-2.73-1-3.75,0.05
		C192.36,391.72,192.38,393.4,193.43,394.42z"/>
	<path d="M272.13,463.06c1.47,0,2.65-1.19,2.65-2.65s-1.19-2.65-2.65-2.65c-1.47,0-2.65,1.19-2.65,2.65S270.67,463.06,272.13,463.06
		z"/>
	<path d="M212.1,394.18c1.02-1.05,1-2.73-0.05-3.75s-2.73-1-3.75,0.05c-1.02,1.05-1,2.73,0.05,3.75S211.08,395.23,212.1,394.18z"/>
	<path d="M212.39,416.6c-1.02,1.05-1,2.73,0.05,3.75c1.05,1.02,2.73,1,3.75-0.05s1-2.73-0.05-3.75
		C215.09,415.53,213.41,415.55,212.39,416.6z"/>
	<path d="M219.89,416.5c1.02-1.05,1-2.73-0.05-3.75c-1.05-1.02-2.73-1-3.75,0.05s-1,2.73,0.05,3.75
		C217.19,417.58,218.87,417.55,219.89,416.5z"/>
	<path d="M208.68,420.4c-1.02,1.05-1,2.73,0.05,3.75s2.73,1,3.75-0.05c1.02-1.05,1-2.73-0.05-3.75
		C211.39,419.33,209.71,419.35,208.68,420.4z"/>
	<path d="M215.95,401.64c1.05,1.02,2.73,1,3.75-0.05s1-2.73-0.05-3.75c-1.05-1.02-2.73-1-3.75,0.05S214.9,400.61,215.95,401.64z"/>
	<path d="M212.15,397.93c1.05,1.02,2.73,1,3.75-0.05s1-2.73-0.05-3.75c-1.05-1.02-2.73-1-3.75,0.05
		C211.08,395.23,211.1,396.91,212.15,397.93z"/>
	<path d="M219.61,394.08c1.02-1.05,1-2.73-0.05-3.75s-2.73-1-3.75,0.05s-1,2.73,0.05,3.75C216.9,395.15,218.58,395.13,219.61,394.08
		z"/>
	<circle cx="282.68" cy="470.95" r="2.65"/>
	<path d="M201.73,476.21l-31.41-31.41l-31.41,31.41l29.26,29.26L123.65,550h4.24l42.41-42.41l0.02,0.02l0.02-0.02L212.75,550h4.24
		l-44.53-44.53L201.73,476.21z M170.32,503.33l-0.02,0.02l-27.14-27.14l27.17-27.17l27.17,27.17l-27.14,27.14L170.32,503.33z"/>
	<path d="M99.73,441.16c-1.05,1.02-1.07,2.7-0.05,3.75c1.02,1.05,2.7,1.07,3.75,0.05c1.05-1.02,1.07-2.7,0.05-3.75
		C102.46,440.15,100.78,440.13,99.73,441.16z"/>
	<circle cx="170.33" cy="379.04" r="2.65"/>
	<path d="M170.32,464.01c-6.73,0-12.2,5.47-12.2,12.2s5.47,12.2,12.2,12.2c6.73,0,12.2-5.47,12.2-12.2S177.05,464.01,170.32,464.01z
		 M170.32,485.4c-5.07,0-9.2-4.13-9.2-9.2s4.13-9.2,9.2-9.2c5.07,0,9.2,4.13,9.2,9.2S175.39,485.4,170.32,485.4z"/>
	<path d="M165.03,365.84c1.47,0,2.65-1.19,2.65-2.65c0-1.47-1.19-2.65-2.65-2.65c-1.47,0-2.65,1.19-2.65,2.65
		C162.37,364.65,163.56,365.84,165.03,365.84z"/>
	<circle cx="170.33" cy="363.18" r="2.65"/>
	<path d="M92.3,452.11l18.34,0.23l0.23-18.34l-18.34-0.23L92.3,452.11z M96.23,437.56l10.85,0.14l-0.14,10.85l-10.85-0.14
		L96.23,437.56z"/>
	<path d="M151.82,384.35c0,1.47,1.19,2.65,2.65,2.65s2.65-1.19,2.65-2.65c0-1.47-1.19-2.65-2.65-2.65S151.82,382.88,151.82,384.35z"
		/>
	<path d="M170.32,473.12c-1.7,0-3.08,1.38-3.08,3.08c0,1.7,1.38,3.08,3.08,3.08c1.7,0,3.08-1.38,3.08-3.08
		C173.4,474.5,172.02,473.12,170.32,473.12z"/>
	<path d="M183.3,379.04l-12.97-12.97l-12.97,12.97l12.97,12.97L183.3,379.04z M170.33,371.37l7.67,7.67l-7.67,7.67l-7.67-7.67
		L170.33,371.37z"/>
	<circle cx="175.64" cy="363.18" r="2.65"/>
	<circle cx="154.48" cy="373.73" r="2.65"/>
	<circle cx="186.19" cy="379.04" r="2.65"/>
	<polygon points="155.05,550 155.05,545.14 160.91,545.14 160.91,549.83 163.29,549.83 163.29,545.14 169.15,545.14 169.15,550 
		171.49,550 171.49,545.14 177.35,545.14 177.35,549.83 179.73,549.83 179.73,545.14 185.59,545.14 185.59,550 187.93,550 
		187.93,545.14 193.8,545.14 193.8,549.83 196.14,549.83 196.14,545.14 200.83,545.14 200.83,542.69 196.14,542.69 196.14,538 
		193.8,538 193.8,542.69 187.93,542.69 187.93,536.83 192.63,536.83 192.63,534.49 187.93,534.49 187.93,529.8 185.59,529.8 
		185.59,534.49 180.9,534.49 180.9,536.83 185.59,536.83 185.59,542.69 179.73,542.69 179.73,538 177.35,538 177.35,542.69 
		171.49,542.69 171.49,536.83 176.18,536.83 176.18,534.46 171.49,534.46 171.49,528.6 177.35,528.6 177.35,533.29 179.7,533.29 
		179.7,528.6 184.39,528.6 184.39,526.25 179.7,526.25 179.7,521.56 177.35,521.56 177.35,526.25 171.49,526.25 171.49,520.39 
		176.18,520.39 176.18,518.04 171.49,518.04 171.49,513.35 169.15,513.35 169.15,518.04 164.46,518.04 164.46,520.39 169.15,520.39 
		169.15,526.25 163.29,526.25 163.29,521.56 160.94,521.56 160.94,526.25 156.25,526.25 156.25,528.6 160.94,528.6 160.94,533.29 
		163.29,533.29 163.29,528.6 169.15,528.6 169.15,534.46 164.46,534.46 164.46,536.83 169.15,536.83 169.15,542.69 163.29,542.69 
		163.29,538 160.91,538 160.91,542.69 155.05,542.69 155.05,536.83 159.74,536.83 159.74,534.49 155.05,534.49 155.05,529.8 
		152.71,529.8 152.71,534.49 148.02,534.49 148.02,536.83 152.71,536.83 152.71,542.69 146.84,542.69 146.84,538 144.5,538 
		144.5,542.69 139.81,542.69 139.81,545.14 144.5,545.14 144.5,549.83 146.84,549.83 146.84,545.14 152.71,545.14 152.71,550 	"/>
	<path d="M253.86,476.26l12.97,12.97l12.97-12.97l-12.97-12.97L253.86,476.26z M266.82,483.93l-7.67-7.67l7.67-7.67l7.67,7.67
		L266.82,483.93z"/>
	<path d="M285.33,476.26c0-1.47-1.19-2.65-2.65-2.65s-2.65,1.19-2.65,2.65c0,1.47,1.19,2.65,2.65,2.65S285.33,477.73,285.33,476.26z
		"/>
	<circle cx="282.68" cy="481.57" r="2.65"/>
	<path d="M135.13,487.29l-18.03,18.03l18.03,18.03l12.98-12.98l5.05-5.05L135.13,487.29z M133.26,519.2l-12.02-12.02l1.86-1.86
		l-1.86-1.86l12.02-12.02l4.2,4.2l-9.68,9.68l9.68,9.68L133.26,519.2z M143.95,508.51l-4.2,4.2l-7.39-7.39l7.39-7.39l4.2,4.2
		l-3.19,3.19L143.95,508.51z M146.24,506.22l-0.9-0.9l0.9-0.9l0.9,0.9L146.24,506.22z"/>
	<path d="M287.99,478.92c1.47,0,2.65-1.19,2.65-2.65c0-1.47-1.19-2.65-2.65-2.65s-2.65,1.19-2.65,2.65
		C285.33,477.73,286.52,478.92,287.99,478.92z"/>
	<path d="M269.48,455.1c0-1.47-1.19-2.65-2.65-2.65c-1.47,0-2.65,1.19-2.65,2.65c0,1.47,1.19,2.65,2.65,2.65
		C268.29,457.75,269.48,456.57,269.48,455.1z"/>
	<path d="M264.17,476.26c0,1.47,1.19,2.65,2.65,2.65c1.47,0,2.65-1.19,2.65-2.65c0-1.47-1.19-2.65-2.65-2.65
		C265.36,473.61,264.17,474.8,264.17,476.26z"/>
	<path d="M183.53,384.35c0,1.47,1.19,2.65,2.65,2.65c1.47,0,2.65-1.19,2.65-2.65c0-1.47-1.19-2.65-2.65-2.65
		C184.72,381.69,183.53,382.88,183.53,384.35z"/>
	<polygon points="232.2,550 238.18,550 236.33,548.15 248.35,536.13 252.55,540.34 242.89,550 247.46,550 254.84,542.62 
		259.04,546.83 255.87,550 260.44,550 261.33,549.11 262.22,550 268.23,550 250.21,531.99 	"/>
	<circle cx="266.82" cy="492.12" r="2.65"/>
	<circle cx="266.82" cy="497.42" r="2.65"/>
	<path d="M87.99,476.21l5.05,5.05l6.49,6.49l6.49,6.49l18.03-18.03l-18.03-18.03l-6.49,6.49l-6.49,6.49L87.99,476.21z
		 M107.88,462.33l12.02,12.02l-1.86,1.86l1.86,1.86l-12.02,12.02l-4.2-4.2l9.68-9.68l-9.68-9.68L107.88,462.33z M97.19,473.02
		l4.2-4.2l7.39,7.39l-7.39,7.39l-4.2-4.2l3.19-3.19L97.19,473.02z M94.9,475.3l0.9,0.9l-0.9,0.9l-0.9-0.9L94.9,475.3z"/>
	<path d="M172.99,357.88c0-1.47-1.19-2.65-2.65-2.65c-1.47,0-2.65,1.19-2.65,2.65c0,1.47,1.19,2.65,2.65,2.65
		C171.8,360.53,172.99,359.34,172.99,357.88z"/>
	<circle cx="261.52" cy="492.12" r="2.65"/>
	<path d="M272.13,494.77c1.47,0,2.65-1.19,2.65-2.65s-1.19-2.65-2.65-2.65c-1.47,0-2.65,1.19-2.65,2.65S270.67,494.77,272.13,494.77
		z"/>
</g>
<g>
</g>
<g>
</g>
<g>
</g>
<g>
</g>
<g>
</g>
<g>
</g>
<g>
</g>
<g>
</g>
<g>
</g>
<g>
</g>
<g>
</g>
<g>
</g>
<g>
</g>
<g>
</g>
<g>
</g>
</svg>
