<?xml version="1.0" encoding="utf-8"?>
<!-- Generator: Adobe Illustrator 27.2.0, SVG Export Plug-In . SVG Version: 6.00 Build 0)  -->
<svg version="1.1" id="Layer_1" xmlns="http://www.w3.org/2000/svg" xmlns:xlink="http://www.w3.org/1999/xlink" x="0px" y="0px"
	 viewBox="0 0 800 600" style="enable-background:new 0 0 800 600;" xml:space="preserve">
<g>
	<rect x="187.23" y="527.24" width="5.67" height="5.67"/>
	<rect x="187.23" y="515.9" width="5.67" height="5.67"/>
	<rect x="231.15" y="492.71" transform="matrix(0.7071 -0.7071 0.7071 0.7071 -281.8717 310.593)" width="5.67" height="5.67"/>
	<rect x="223.13" y="492.71" transform="matrix(0.7071 -0.7071 0.7071 0.7071 -284.22 304.9237)" width="5.67" height="5.67"/>
	<rect x="199.08" y="492.71" transform="matrix(0.7071 -0.7071 0.7071 0.7071 -291.2649 287.9158)" width="5.67" height="5.67"/>
	<rect x="175.89" y="527.24" width="5.67" height="5.67"/>
	<rect x="215.11" y="476.68" transform="matrix(0.7071 -0.7071 0.7071 0.7071 -275.2297 294.5579)" width="5.67" height="5.67"/>
	<rect x="228.17" y="471.63" transform="matrix(0.7071 -0.7071 0.7071 0.7071 -267.8379 302.3162)" width="5.67" height="5.67"/>
	<rect x="220.16" y="463.61" transform="matrix(0.7071 -0.7071 0.7071 0.7071 -264.5169 294.2986)" width="5.67" height="5.67"/>
	<rect x="236.19" y="463.61" transform="matrix(0.7071 -0.7071 0.7071 0.7071 -259.8203 305.6372)" width="5.67" height="5.67"/>
	<rect x="181.56" y="510.23" width="5.67" height="5.67"/>
	<rect x="212.14" y="455.6" transform="matrix(0.7071 -0.7071 0.7071 0.7071 -261.1959 286.281)" width="5.67" height="5.67"/>
	<rect x="175.89" y="515.9" width="5.67" height="5.67"/>
	<rect x="220.16" y="455.6" transform="matrix(0.7071 -0.7071 0.7071 0.7071 -258.8476 291.9503)" width="5.67" height="5.67"/>
	<rect x="207.1" y="468.66" transform="matrix(0.7071 -0.7071 0.7071 0.7071 -271.9101 286.5439)" width="5.67" height="5.67"/>
	<rect x="223.13" y="484.69" transform="matrix(0.7071 -0.7071 0.7071 0.7071 -278.5507 302.5754)" width="5.67" height="5.67"/>
	<rect x="228.17" y="455.6" transform="matrix(0.7071 -0.7071 0.7071 0.7071 -256.4993 297.6196)" width="5.67" height="5.67"/>
	<rect x="199.08" y="460.64" transform="matrix(0.7071 -0.7071 0.7071 0.7071 -268.5877 278.5226)" width="5.67" height="5.67"/>
	<rect x="199.08" y="468.66" transform="matrix(0.7071 -0.7071 0.7071 0.7071 -274.2584 280.8746)" width="5.67" height="5.67"/>
	<rect x="170.22" y="498.89" width="5.67" height="5.67"/>
	<rect x="192.9" y="521.57" width="5.67" height="5.67"/>
	<rect x="207.1" y="476.68" transform="matrix(0.7071 -0.7071 0.7071 0.7071 -277.5765 288.8848)" width="5.67" height="5.67"/>
	<rect x="175.89" y="407.01" width="5.67" height="5.67"/>
	<rect x="164.55" y="407.01" width="5.67" height="5.67"/>
	<rect x="147.55" y="521.57" width="5.67" height="5.67"/>
	<rect x="170.22" y="412.68" width="5.67" height="5.67"/>
	<rect x="187.23" y="418.35" width="5.67" height="5.67"/>
	<rect x="170.22" y="401.34" width="5.67" height="5.67"/>
	<rect x="207.1" y="492.71" transform="matrix(0.7071 -0.7071 0.7071 0.7071 -288.9166 293.5851)" width="5.67" height="5.67"/>
	<rect x="164.55" y="515.9" width="5.67" height="5.67"/>
	<rect x="199.08" y="484.69" transform="matrix(0.7071 -0.7071 0.7071 0.7071 -285.5956 285.5675)" width="5.67" height="5.67"/>
	<rect x="170.22" y="521.57" width="5.67" height="5.67"/>
	<rect x="207.1" y="484.69" transform="matrix(0.7071 -0.7071 0.7071 0.7071 -283.2458 291.2331)" width="5.67" height="5.67"/>
	<rect x="164.55" y="527.24" width="5.67" height="5.67"/>
	<rect x="175.89" y="538.57" width="5.67" height="5.67"/>
	<rect x="215.11" y="492.71" transform="matrix(0.7071 -0.7071 0.7071 0.7071 -286.5683 299.2545)" width="5.67" height="5.67"/>
	<rect x="215.11" y="484.69" transform="matrix(0.7071 -0.7071 0.7071 0.7071 -280.899 296.9062)" width="5.67" height="5.67"/>
	<rect x="199.08" y="476.68" transform="matrix(0.7071 -0.7071 0.7071 0.7071 -279.9263 283.2192)" width="5.67" height="5.67"/>
	<rect x="181.56" y="532.9" width="5.67" height="5.67"/>
	<rect x="153.22" y="527.24" width="5.67" height="5.67"/>
	<rect x="237.96" y="510.23" width="5.67" height="5.67"/>
	<rect x="226.62" y="521.57" width="5.67" height="5.67"/>
	<rect x="237.96" y="521.57" width="5.67" height="5.67"/>
	<rect x="243.63" y="538.57" width="5.67" height="5.67"/>
	<rect x="232.29" y="527.24" width="5.67" height="5.67"/>
	<polygon points="173.06,486.55 135.2,524.4 160.8,550 165.05,550 139.45,524.4 173.06,490.79 206.67,524.4 181.07,550 185.31,550 
		210.91,524.4 	"/>
	<rect x="249.3" y="544.24" width="5.67" height="5.67"/>
	<rect x="232.29" y="515.9" width="5.67" height="5.67"/>
	<polygon points="121.37,524.4 146.97,550 151.21,550 125.61,524.4 173.06,476.96 220.5,524.4 194.9,550 199.15,550 224.74,524.4 
		173.06,472.71 	"/>
	<rect x="249.3" y="532.9" width="5.67" height="5.67"/>
	<rect x="249.3" y="510.23" width="5.67" height="5.67"/>
	<rect x="249.3" y="521.57" width="5.67" height="5.67"/>
	<rect x="237.96" y="532.9" width="5.67" height="5.67"/>
	<rect x="243.63" y="527.24" width="5.67" height="5.67"/>
	<rect x="244.21" y="471.63" transform="matrix(0.7071 -0.7071 0.7071 0.7071 -263.1425 313.6587)" width="5.67" height="5.67"/>
	<rect x="244.21" y="455.6" transform="matrix(0.7071 -0.7071 0.7071 0.7071 -251.8016 308.9544)" width="5.67" height="5.67"/>
	<rect x="170.22" y="544.24" width="5.67" height="5.67"/>
	<rect x="153.22" y="515.9" width="5.67" height="5.67"/>
	<rect x="236.19" y="455.6" transform="matrix(0.7071 -0.7071 0.7071 0.7071 -254.151 303.2889)" width="5.67" height="5.67"/>
	<rect x="244.21" y="479.65" transform="matrix(0.7071 -0.7071 0.7071 0.7071 -268.8094 315.9991)" width="5.67" height="5.67"/>
	<rect x="220.16" y="471.63" transform="matrix(0.7071 -0.7071 0.7071 0.7071 -270.1862 296.6469)" width="5.67" height="5.67"/>
	<rect x="236.19" y="479.65" transform="matrix(0.7071 -0.7071 0.7071 0.7071 -271.1589 310.3338)" width="5.67" height="5.67"/>
	<rect x="164.55" y="504.56" width="5.67" height="5.67"/>
	<rect x="236.19" y="471.63" transform="matrix(0.7071 -0.7071 0.7071 0.7071 -265.4896 307.9855)" width="5.67" height="5.67"/>
	<rect x="158.88" y="510.23" width="5.67" height="5.67"/>
	<rect x="158.88" y="532.9" width="5.67" height="5.67"/>
	<rect x="243.63" y="515.9" width="5.67" height="5.67"/>
	<rect x="243.63" y="504.56" width="5.67" height="5.67"/>
	<rect x="175.89" y="504.56" width="5.67" height="5.67"/>
	<rect x="164.55" y="538.57" width="5.67" height="5.67"/>
	<rect x="212.14" y="447.58" transform="matrix(0.7071 -0.7071 0.7071 0.7071 -255.5266 283.9327)" width="5.67" height="5.67"/>
	<rect x="220.16" y="447.58" transform="matrix(0.7071 -0.7071 0.7071 0.7071 -253.1783 289.602)" width="5.67" height="5.67"/>
	<rect x="236.19" y="447.58" transform="matrix(0.7071 -0.7071 0.7071 0.7071 -248.4818 300.9406)" width="5.67" height="5.67"/>
	<rect x="244.21" y="447.58" transform="matrix(0.7071 -0.7071 0.7071 0.7071 -246.1346 306.6136)" width="5.67" height="5.67"/>
	<rect x="249.3" y="498.89" width="5.67" height="5.67"/>
	<rect x="153.22" y="418.35" width="5.67" height="5.67"/>
	<rect x="55.67" y="515.9" width="5.67" height="5.67"/>
	<rect x="96.82" y="538.57" width="5.67" height="5.67"/>
	<rect x="91.15" y="544.24" width="5.67" height="5.67"/>
	<rect x="96.82" y="527.24" width="5.67" height="5.67"/>
	<rect x="96.82" y="515.9" width="5.67" height="5.67"/>
	<rect x="102.49" y="510.23" width="5.67" height="5.67"/>
	<rect x="67.01" y="504.56" width="5.67" height="5.67"/>
	<rect x="72.68" y="510.23" width="5.67" height="5.67"/>
	<rect x="72.68" y="544.24" width="5.67" height="5.67"/>
	<rect x="108.16" y="515.9" width="5.67" height="5.67"/>
	<rect x="78.35" y="538.57" width="5.67" height="5.67"/>
	<rect x="72.68" y="498.89" width="5.67" height="5.67"/>
	<rect x="78.35" y="504.56" width="5.67" height="5.67"/>
	<rect x="84.02" y="521.57" width="5.67" height="5.67"/>
	<rect x="91.15" y="532.9" width="5.67" height="5.67"/>
	<rect x="96.24" y="479.65" transform="matrix(0.7071 -0.7071 0.7071 0.7071 -312.1508 211.3706)" width="5.67" height="5.67"/>
	<rect x="91.15" y="521.57" width="5.67" height="5.67"/>
	<rect x="104.25" y="471.63" transform="matrix(0.7071 -0.7071 0.7071 0.7071 -304.1332 214.6915)" width="5.67" height="5.67"/>
	<rect x="104.25" y="479.65" transform="matrix(0.7071 -0.7071 0.7071 0.7071 -309.8026 217.0398)" width="5.67" height="5.67"/>
	<rect x="91.15" y="510.23" width="5.67" height="5.67"/>
	<rect x="108.16" y="527.24" width="5.67" height="5.67"/>
	<rect x="102.49" y="532.9" width="5.67" height="5.67"/>
	<rect x="102.49" y="521.57" width="5.67" height="5.67"/>
	<rect x="91.15" y="498.89" width="5.67" height="5.67"/>
	<rect x="113.83" y="521.57" width="5.67" height="5.67"/>
	<rect x="96.82" y="504.56" width="5.67" height="5.67"/>
	<rect x="78.35" y="515.9" width="5.67" height="5.67"/>
	<rect x="273.44" y="504.56" width="5.67" height="5.67"/>
	<rect x="273.44" y="515.9" width="5.67" height="5.67"/>
	<rect x="267.77" y="498.89" width="5.67" height="5.67"/>
	<rect x="267.77" y="510.23" width="5.67" height="5.67"/>
	<rect x="262.1" y="504.56" width="5.67" height="5.67"/>
	<rect x="256.43" y="521.57" width="5.67" height="5.67"/>
	<rect x="279.11" y="521.57" width="5.67" height="5.67"/>
	<rect x="284.78" y="515.9" width="5.67" height="5.67"/>
	<rect x="262.1" y="515.9" width="5.67" height="5.67"/>
	<rect x="290.45" y="521.57" width="5.67" height="5.67"/>
	<rect x="267.77" y="532.9" width="5.67" height="5.67"/>
	<rect x="262.1" y="527.24" width="5.67" height="5.67"/>
	<rect x="273.44" y="527.24" width="5.67" height="5.67"/>
	<rect x="67.01" y="538.57" width="5.67" height="5.67"/>
	<rect x="104.25" y="463.61" transform="matrix(0.7071 -0.7071 0.7071 0.7071 -298.4639 212.3432)" width="5.67" height="5.67"/>
	<rect x="78.35" y="527.24" width="5.67" height="5.67"/>
	<rect x="67.01" y="515.9" width="5.67" height="5.67"/>
	<rect x="67.01" y="527.24" width="5.67" height="5.67"/>
	<rect x="72.68" y="532.9" width="5.67" height="5.67"/>
	<rect x="61.34" y="521.57" width="5.67" height="5.67"/>
	<rect x="273.44" y="538.57" width="5.67" height="5.67"/>
	<rect x="262.1" y="538.57" width="5.67" height="5.67"/>
	<rect x="267.77" y="544.24" width="5.67" height="5.67"/>
	<rect x="55.67" y="527.24" width="5.67" height="5.67"/>
	<rect x="284.78" y="527.24" width="5.67" height="5.67"/>
	<rect x="50" y="521.57" width="5.67" height="5.67"/>
	<rect x="153.22" y="429.69" width="5.67" height="5.67"/>
	<rect x="170.22" y="453.83" width="5.67" height="5.67"/>
	<rect x="187.23" y="448.16" width="5.67" height="5.67"/>
	<rect x="158.88" y="453.83" width="5.67" height="5.67"/>
	<rect x="170.22" y="465.17" width="5.67" height="5.67"/>
	<rect x="192.9" y="442.49" width="5.67" height="5.67"/>
	<rect x="181.56" y="442.49" width="5.67" height="5.67"/>
	<rect x="153.22" y="448.16" width="5.67" height="5.67"/>
	<rect x="175.89" y="448.16" width="5.67" height="5.67"/>
	<rect x="164.55" y="448.16" width="5.67" height="5.67"/>
	<rect x="170.22" y="442.49" width="5.67" height="5.67"/>
	<rect x="181.56" y="453.83" width="5.67" height="5.67"/>
	<rect x="164.55" y="459.5" width="5.67" height="5.67"/>
	<rect x="175.89" y="459.5" width="5.67" height="5.67"/>
	<rect x="158.88" y="424.02" width="5.67" height="5.67"/>
	<rect x="170.22" y="435.36" width="5.67" height="5.67"/>
	<rect x="164.55" y="429.69" width="5.67" height="5.67"/>
	<rect x="175.89" y="429.69" width="5.67" height="5.67"/>
	<rect x="175.89" y="418.35" width="5.67" height="5.67"/>
	<rect x="181.56" y="424.02" width="5.67" height="5.67"/>
	<rect x="187.23" y="429.69" width="5.67" height="5.67"/>
	<rect x="147.55" y="442.49" width="5.67" height="5.67"/>
	<rect x="112.27" y="455.6" transform="matrix(0.7071 -0.7071 0.7071 0.7071 -290.4464 215.6642)" width="5.67" height="5.67"/>
	<rect x="147.55" y="424.02" width="5.67" height="5.67"/>
	<rect x="158.88" y="442.49" width="5.67" height="5.67"/>
	<rect x="141.37" y="460.64" transform="matrix(0.7071 -0.7071 0.7071 0.7071 -285.4905 237.7156)" width="5.67" height="5.67"/>
	<rect x="192.9" y="424.02" width="5.67" height="5.67"/>
	<rect x="164.55" y="418.35" width="5.67" height="5.67"/>
	<rect x="96.24" y="447.58" transform="matrix(0.7071 -0.7071 0.7071 0.7071 -289.4737 201.9774)" width="5.67" height="5.67"/>
	<rect x="120.29" y="447.58" transform="matrix(0.7071 -0.7071 0.7071 0.7071 -282.4288 218.9852)" width="5.67" height="5.67"/>
	<rect x="104.25" y="455.6" transform="matrix(0.7071 -0.7071 0.7071 0.7071 -292.7946 209.9949)" width="5.67" height="5.67"/>
	<rect x="104.25" y="447.58" transform="matrix(0.7071 -0.7071 0.7071 0.7071 -287.1254 207.6467)" width="5.67" height="5.67"/>
	<rect x="96.24" y="455.6" transform="matrix(0.7071 -0.7071 0.7071 0.7071 -295.1429 204.3257)" width="5.67" height="5.67"/>
	<rect x="96.24" y="471.63" transform="matrix(0.7071 -0.7071 0.7071 0.7071 -306.4815 209.0222)" width="5.67" height="5.67"/>
	<rect x="133.35" y="468.66" transform="matrix(0.7071 -0.7071 0.7071 0.7071 -293.5099 234.3979)" width="5.67" height="5.67"/>
	<rect x="128.31" y="447.58" transform="matrix(0.7071 -0.7071 0.7071 0.7071 -280.0805 224.6545)" width="5.67" height="5.67"/>
	<rect x="120.29" y="471.63" transform="matrix(0.7071 -0.7071 0.7071 0.7071 -299.4366 226.0301)" width="5.67" height="5.67"/>
	<rect x="120.29" y="463.61" transform="matrix(0.7071 -0.7071 0.7071 0.7071 -293.7674 223.6818)" width="5.67" height="5.67"/>
	<rect x="112.27" y="471.63" transform="matrix(0.7071 -0.7071 0.7071 0.7071 -301.7849 220.3608)" width="5.67" height="5.67"/>
	<rect x="120.29" y="455.6" transform="matrix(0.7071 -0.7071 0.7071 0.7071 -288.0981 221.3335)" width="5.67" height="5.67"/>
	<rect x="141.37" y="468.66" transform="matrix(0.7071 -0.7071 0.7071 0.7071 -291.1598 240.0639)" width="5.67" height="5.67"/>
	<rect x="128.31" y="455.6" transform="matrix(0.7071 -0.7071 0.7071 0.7071 -285.7498 227.0028)" width="5.67" height="5.67"/>
	<rect x="117.32" y="484.69" transform="matrix(0.7071 -0.7071 0.7071 0.7071 -309.5433 227.7526)" width="5.67" height="5.67"/>
	<rect x="117.32" y="492.71" transform="matrix(0.7071 -0.7071 0.7071 0.7071 -315.2126 230.1009)" width="5.67" height="5.67"/>
	<rect x="125.33" y="476.68" transform="matrix(0.7071 -0.7071 0.7071 0.7071 -301.5258 231.0736)" width="5.67" height="5.67"/>
	<rect x="141.37" y="476.68" transform="matrix(0.7071 -0.7071 0.7071 0.7071 -296.8291 242.4122)" width="5.67" height="5.67"/>
	<rect x="133.35" y="476.68" transform="matrix(0.7071 -0.7071 0.7071 0.7071 -299.1774 236.7429)" width="5.67" height="5.67"/>
	<rect x="109.3" y="492.71" transform="matrix(0.7071 -0.7071 0.7071 0.7071 -317.5609 224.4316)" width="5.67" height="5.67"/>
	<rect x="141.37" y="492.71" transform="matrix(0.7071 -0.7071 0.7071 0.7071 -308.1677 247.1088)" width="5.67" height="5.67"/>
	<rect x="141.37" y="484.69" transform="matrix(0.7071 -0.7071 0.7071 0.7071 -302.4984 244.7605)" width="5.67" height="5.67"/>
	<rect x="133.35" y="484.69" transform="matrix(0.7071 -0.7071 0.7071 0.7071 -304.8467 239.0912)" width="5.67" height="5.67"/>
	<rect x="133.35" y="492.71" transform="matrix(0.7071 -0.7071 0.7071 0.7071 -310.5179 241.4429)" width="5.67" height="5.67"/>
	<rect x="125.33" y="484.69" transform="matrix(0.7071 -0.7071 0.7071 0.7071 -307.195 233.4219)" width="5.67" height="5.67"/>
	<rect x="125.33" y="492.71" transform="matrix(0.7071 -0.7071 0.7071 0.7071 -312.8643 235.7702)" width="5.67" height="5.67"/>
</g>
<g>
</g>
<g>
</g>
<g>
</g>
<g>
</g>
<g>
</g>
<g>
</g>
<g>
</g>
<g>
</g>
<g>
</g>
<g>
</g>
<g>
</g>
<g>
</g>
<g>
</g>
<g>
</g>
<g>
</g>
</svg>
