<?xml version="1.0" encoding="utf-8"?>
<!-- Generator: Adobe Illustrator 27.2.0, SVG Export Plug-In . SVG Version: 6.00 Build 0)  -->
<svg version="1.1" id="Layer_1" xmlns="http://www.w3.org/2000/svg" xmlns:xlink="http://www.w3.org/1999/xlink" x="0px" y="0px"
	 viewBox="0 0 800 600" style="enable-background:new 0 0 800 600;" xml:space="preserve">
<g>
	<g>
		<g>
			<g>
				<path d="M371.88,514.06v-4.88l-5.54-5.52l4.13-4.11l-2.45-2.44l-4.12,4.11l-2.77-2.76l-2.77-2.76l4.12-4.11l-2.44-2.44
					l-4.13,4.12l-2.76-2.76l-2.77-2.76l4.12-4.12l-2.44-2.43l-4.13,4.11l-2.76-2.76l-2.77-2.76l4.12-4.11l-2.44-2.44l-4.13,4.12
					l-4.13-4.12l-2.44,2.44l4.12,4.11l-2.76,2.76l-2.77,2.76l-4.13-4.11l-2.44,2.43l4.12,4.12l-2.76,2.76l-2.77,2.76l-4.13-4.12
					l-2.44,2.44l4.12,4.11l-2.76,2.76l-2.77,2.76l-4.13-4.11l-2.44,2.44l4.12,4.11l-2.76,2.76h-0.01l-2.76,2.76l-0.17-0.17v5.22
					l0.17-0.17l2.76,2.76h0.01l2.76,2.76l-4.12,4.11l2.44,2.44l4.13-4.11l2.77,2.76l2.76,2.76l-4.12,4.11l2.44,2.44l4.13-4.12
					l2.77,2.76l2.76,2.76l-4.12,4.12l2.44,2.43l4.13-4.11l2.77,2.76l2.76,2.76l-4.12,4.11l2.44,2.44l4.13-4.12l4.13,4.12l2.44-2.44
					l-4.12-4.11l2.77-2.76l2.76-2.76l4.13,4.11l2.44-2.43l-4.12-4.12l2.77-2.76l2.76-2.76l4.13,4.12l2.44-2.44l-4.12-4.11l2.77-2.76
					l2.77-2.76l4.12,4.11l2.45-2.44l-4.13-4.11l2.77-2.76L371.88,514.06z M363.89,517.14l-4.12-4.12l-2.45,2.44l4.13,4.11
					l-5.54,5.52l-4.13-4.11l-2.44,2.44l4.13,4.11l-2.77,2.76l-2.77,2.76l-4.13-4.11l-2.44,2.43l4.13,4.12l-2.77,2.76l-2.77,2.76
					l-2.76-2.76l-2.77-2.76l4.12-4.12l-2.44-2.43l-4.13,4.11l-2.76-2.76h-0.01l-2.76-2.76l4.12-4.11l-2.44-2.44l-4.13,4.11
					l-2.77-2.76l-2.76-2.76l4.12-4.11l-2.44-2.44l-4.13,4.12l-2.77-2.76l-2.76-2.76l2.76-2.76l2.77-2.76l4.13,4.12l2.44-2.44
					l-4.12-4.11l2.76-2.76l2.77-2.76v-0.01l4.13,4.12l2.44-2.44l-4.12-4.11l2.76-2.76h0.01l2.76-2.76l4.13,4.11l2.44-2.43
					l-4.12-4.12l2.77-2.76l2.76-2.76l2.77,2.76l2.77,2.76l-4.13,4.12l2.44,2.43l4.13-4.11l2.77,2.76l2.77,2.76l-4.13,4.11l2.44,2.44
					l4.13-4.12v0.01l5.54,5.52l-4.13,4.11l2.45,2.44l4.12-4.12l2.77,2.76l2.76,2.76l-2.76,2.76L363.89,517.14z"/>
			</g>
			<g>
				<path d="M330.99,511.62c0-4.9,3.98-8.88,8.88-8.88s8.88,3.98,8.88,8.88c0,4.9-3.98,8.88-8.88,8.88S330.99,516.52,330.99,511.62z
					 M332.99,511.62c0,3.79,3.09,6.88,6.88,6.88s6.88-3.09,6.88-6.88c0-3.79-3.09-6.88-6.88-6.88S332.99,507.83,332.99,511.62z"/>
			</g>
		</g>
		<g>
			<path d="M235.3,479.43c0,4.9,3.98,8.88,8.88,8.88s8.88-3.98,8.88-8.88c0-4.9-3.98-8.88-8.88-8.88S235.3,474.53,235.3,479.43z
				 M244.18,472.55c3.79,0,6.88,3.09,6.88,6.88c0,3.79-3.09,6.88-6.88,6.88s-6.88-3.09-6.88-6.88
				C237.3,475.63,240.38,472.55,244.18,472.55z"/>
			<path d="M308.02,509.18l-2.76-2.76l-2.76-2.75l4.07-4.07v-0.01l0.04-0.04l-2.44-2.44l-4.13,4.11l-2.76-2.76l-0.05,0.05l0.04-0.05
				l-2.75-2.74l1.36-1.36l4.12-4.13l4.13,4.13l2.44-2.45l-4.12-4.12l4.12-4.13l-2.44-2.45l-4.13,4.13l-4.12-4.13l-2.45,2.45
				l4.13,4.13l-1.37,1.37v-0.01l-4.13,4.12l-2.77-2.76l-2.75-2.75l4.1-4.1l-0.01-0.01l0.02-0.02l-2.44-2.43l-4.13,4.11l-2.77-2.76
				l-2.76-2.75l2.75-2.75l2.77-2.76l4.12,4.12l2.45-2.44l-4.13-4.13l4.13-4.12l1.4-1.4l1.39,1.4l4.13,4.12l-4.13,4.13l2.45,2.44
				l4.12-4.12l4.13,4.12l2.45-2.44l-4.13-4.13l4.13-4.12l-2.45-2.45L300,469.4l-4.12-4.13l-1.4-1.4l1.4-1.39l4.12-4.13l4.13,4.13
				l2.45-2.45l-4.13-4.13l4.13-4.12l-2.45-2.45l-4.13,4.13l-4.12-4.13l-2.45,2.45l4.13,4.12l-4.13,4.13l-1.39,1.4l-1.4-1.4
				l-4.13-4.13l4.13-4.12l-2.45-2.45l-4.12,4.13l-4.13-4.13l-2.45,2.45l4.13,4.12l-4.13,4.13l2.45,2.45l4.13-4.13l4.12,4.13
				l1.4,1.39l-1.4,1.4l-4.12,4.13l-4.13-4.13l-2.45,2.45l4.13,4.12v0.01l-1.39,1.39l-4.13,4.12l-4.13-4.12l-0.01,0.01l-1.39-1.4
				v-0.01l4.12-4.12l-2.44-2.45l-4.13,4.13l-4.12-4.13l-1.4-1.39l1.4-1.4l4.12-4.13l4.13,4.13l2.44-2.45l-4.12-4.12l4.12-4.13
				l-2.44-2.45l-4.13,4.13l-4.12-4.13l-2.45,2.45l4.13,4.13l-4.13,4.12l-1.4,1.4l-1.39-1.4l-4.13-4.12l4.13-4.13l-2.45-2.45
				l-4.13,4.13l-4.12-4.13l-2.45,2.45l4.13,4.13l-4.13,4.12l2.45,2.45l4.12-4.13l5.53,5.53l-1.4,1.39l-2.73,2.73l2.45,2.45
				l2.73-2.73l1.39-1.4l1.4,1.4l4.13,4.12l-4.13,4.13l2.45,2.45l4.12-4.13l2.76,2.77l2.75,2.76l-2.75,2.73l-2.76,2.76l-4.13-4.11
				l-2.44,2.43l4.12,4.12l-2.77,2.76l-2.76,2.76l-4.13-4.12l-2.44,2.44l4.12,4.11l-5.54,5.52l-4.12-4.11l-2.44,2.44l4.12,4.11
				l-2.77,2.76l-2.76,2.76l-2.77-2.76l-2.77-2.76l4.13-4.11l-2.45-2.44l-4.12,4.11l-5.54-5.52l4.12-4.11l-2.44-2.44l-4.13,4.12
				l-2.76-2.76l-2.77-2.76l4.12-4.12l-2.44-2.43l-4.13,4.11l-2.76-2.76l-2.75-2.73l2.75-2.76l2.76-2.77l4.12,4.13l2.45-2.45
				l-4.13-4.13l4.13-4.12l1.4-1.4l1.39,1.4l2.73,2.73l2.45-2.45l-4.13-4.12l5.53-5.53l4.12,4.13l2.45-2.45l-4.13-4.12l4.13-4.13
				l-2.45-2.45l-4.12,4.13l-4.13-4.13l-2.45,2.45l4.13,4.13l-4.13,4.12l-1.39,1.4l-1.4-1.4l-4.13-4.12l4.13-4.13l-2.45-2.45
				l-4.12,4.13l-4.13-4.13l-2.44,2.45l4.12,4.13l-4.12,4.12l2.44,2.45l4.13-4.13l4.12,4.13l1.4,1.4l-1.4,1.39l-4.12,4.13l-4.13-4.13
				l-2.44,2.45l4.12,4.12v0.01l-1.39,1.4l-0.01-0.01l-4.13,4.12l-4.13-4.12l-1.39-1.39v-0.01l4.13-4.12l-2.45-2.45l-4.13,4.13
				l-4.12-4.13l-1.4-1.4l1.4-1.39l4.12-4.13l4.13,4.13l2.45-2.45l-4.13-4.13l4.13-4.12l-2.45-2.45l-4.13,4.13l-4.12-4.13l-2.45,2.45
				l4.13,4.12l-4.13,4.13l-1.39,1.4l-5.53-5.53l4.13-4.12l-2.45-2.45l-4.12,4.13l-4.13-4.13l-2.45,2.45l4.13,4.12l-4.13,4.13
				l2.45,2.45l4.13-4.13l4.12,4.13l1.4,1.39l-1.4,1.4l-4.12,4.13l-4.13-4.13l-2.45,2.45l4.13,4.12l-4.13,4.13l2.45,2.44l4.13-4.12
				l4.12,4.12l2.45-2.44l-4.13-4.13l4.13-4.12l1.4-1.4l1.39,1.4l4.13,4.12l-4.13,4.13l2.45,2.44l4.12-4.12l2.77,2.76l2.75,2.75
				l-2.76,2.75l-2.77,2.76l-4.13-4.11l-2.44,2.43l0.02,0.02l-0.01,0.01l4.1,4.1l-2.75,2.75l-2.77,2.76l-4.13-4.12v0.01l-1.37-1.37
				l4.13-4.13l-2.45-2.45l-4.12,4.13l-4.13-4.13l-2.44,2.45l4.12,4.13l-4.12,4.12l2.44,2.45l4.13-4.13l4.12,4.13l1.36,1.36
				l-2.75,2.74l-2.77,2.76l-4.13-4.11l-2.44,2.44l0.04,0.04v0.01l4.07,4.07l-2.75,2.75l0.05,0.06l-0.06-0.06l-2.76,2.76l-0.17-0.17
				v5.22l0.17-0.17l2.76,2.76h0.01l2.76,2.76l-4.12,4.11l2.44,2.44l4.13-4.11l2.77,2.76l2.76,2.76l-4.12,4.11l2.44,2.44l4.13-4.12
				l2.77,2.76l2.76,2.76l-4.12,4.12l2.44,2.43l4.13-4.11l2.77,2.76l2.76,2.76l-4.12,4.11l2.44,2.44l4.13-4.12l4.13,4.12l2.44-2.44
				l-4.12-4.11l2.77-2.76l2.76-2.76l4.13,4.11l2.44-2.43l-4.12-4.12l2.77-2.76l2.76-2.76l4.13,4.12l2.44-2.44l-4.12-4.11l5.54-5.52
				l4.12,4.11l2.45-2.44l-4.13-4.11l2.77-2.76l2.77-2.76l2.76,2.76l2.77,2.76l-4.12,4.11l2.44,2.44l4.12-4.11l5.54,5.52l-4.12,4.11
				l2.44,2.44l4.13-4.12l2.76,2.76l2.77,2.76l-4.12,4.12l2.44,2.43l4.13-4.11l2.76,2.76l2.77,2.76l-4.12,4.11l2.44,2.44l4.13-4.12
				l4.13,4.12l2.44-2.44l-4.12-4.11l2.76-2.76l2.77-2.76l4.13,4.11l2.44-2.43l-4.12-4.12l2.76-2.76l2.77-2.76l4.13,4.12l2.44-2.44
				l-4.12-4.11l2.76-2.76h0.01l2.76-2.76l4.13,4.11l2.44-2.44l-4.12-4.11l2.77-2.76l2.76-2.76l0.17,0.17v-5.22L308.02,509.18z
				 M238.96,514.38l-2.77,2.76l-4.12-4.12l-2.45,2.44l4.13,4.11l-5.54,5.52l-4.13-4.11l-2.44,2.44l4.13,4.11l-2.77,2.76l-2.77,2.76
				l-4.13-4.11l-2.44,2.43l4.13,4.12l-2.77,2.76l-2.77,2.76l-2.76-2.76l-2.77-2.76l4.12-4.12l-2.44-2.43l-4.13,4.11l-2.76-2.76
				h-0.01l-2.76-2.76l4.12-4.11l-2.44-2.44l-4.13,4.11l-2.77-2.76l-2.76-2.76l4.12-4.11l-2.44-2.44l-4.13,4.12l-2.77-2.76
				l-2.76-2.76l1.38-1.38l0.06,0.06l4.13-4.13l4.12,4.13l2.45-2.45l-0.06-0.05l0.02-0.02l-4.08-4.07l4.12-4.11l1.4-1.4l4.12,4.13
				l2.45-2.45l-0.05-0.04l0.02-0.02l-4.09-4.08l1.39-1.38l4.13-4.13l4.12,4.13l2.45-2.45l-0.03-0.03l0.01-0.01l-4.12-4.12l2.77-2.76
				l2.76-2.76l2.77,2.76l2.77,2.76l-4.13,4.12l2.44,2.43l4.13-4.11l2.77,2.76l2.77,2.76l-4.13,4.11l2.44,2.44l4.13-4.12v0.01
				l5.54,5.52l-4.13,4.11l2.45,2.44l4.12-4.12l2.77,2.76l2.76,2.76L238.96,514.38z M302.81,514.38l-2.77,2.76l-4.13-4.12l-2.44,2.44
				l4.12,4.11l-2.76,2.76l-2.77,2.76l-4.13-4.11l-2.44,2.44l4.12,4.11l-2.76,2.76l-2.77,2.76l-4.13-4.11l-2.44,2.43l4.12,4.12
				l-2.76,2.76h-0.01l-2.76,2.76l-2.77-2.76l-2.77-2.76l4.13-4.12l-2.44-2.43l-4.13,4.11l-5.54-5.52l4.13-4.11l-2.44-2.44
				l-4.13,4.11l-5.54-5.52l4.13-4.11l-2.44-2.44l-4.13,4.12l-2.77-2.76l-2.76-2.76l2.76-2.76l2.77-2.76l4.13,4.12l2.44-2.44
				l-4.13-4.11l5.54-5.52v-0.01l4.13,4.12l2.44-2.44l-4.13-4.11l2.77-2.76l2.77-2.76l4.13,4.11l2.44-2.43l-4.13-4.12l2.77-2.76
				l2.77-2.76l2.76,2.76h0.01l2.76,2.76l-4.12,4.12l0.01,0.01l-0.03,0.03l2.45,2.45l4.12-4.13l4.13,4.13l1.39,1.38l-4.09,4.08
				l0.02,0.02l-0.05,0.04l2.45,2.45l4.12-4.13l1.4,1.4l4.12,4.11l-4.08,4.07l0.02,0.02l-0.06,0.05l2.45,2.45l4.12-4.13l4.13,4.13
				l0.06-0.06l1.38,1.38L302.81,514.38z"/>
			<path d="M212.17,502.74c-4.9,0-8.88,3.98-8.88,8.88c0,4.9,3.98,8.88,8.88,8.88s8.88-3.98,8.88-8.88
				C221.05,506.72,217.07,502.74,212.17,502.74z M212.17,518.5c-3.79,0-6.88-3.09-6.88-6.88c0-3.79,3.09-6.88,6.88-6.88
				s6.88,3.09,6.88,6.88C219.05,515.41,215.97,518.5,212.17,518.5z"/>
			<path d="M276.18,520.5c4.9,0,8.88-3.98,8.88-8.88c0-4.9-3.98-8.88-8.88-8.88s-8.88,3.98-8.88,8.88
				C267.3,516.52,271.28,520.5,276.18,520.5z M276.18,504.74c3.79,0,6.88,3.09,6.88,6.88c0,3.79-3.09,6.88-6.88,6.88
				s-6.88-3.09-6.88-6.88C269.3,507.83,272.39,504.74,276.18,504.74z"/>
		</g>
	</g>
	<g>
		<g>
			<path d="M194.68,411.36l-1.17-1.17l0,0l-2.38-2.38l2.38-2.38l0,0l2.37-2.37l3.55,3.55h0l0,0l1.05-1.05l1.05-1.05l0,0v0
				l-3.55-3.55l3.55-3.55l-2.1-2.1l0,0h0l-3.55,3.55l-3.55-3.55h0l0,0l-1.05,1.05l-1.05,1.05l0,0v0l3.55,3.55l-1.2,1.2l-1.17,1.17
				l0,0l-2.38,2.38l-2.38-2.38l0,0l0,0l0,0l-2.37-2.37l3.55-3.55l-2.1-2.1l0,0l0,0l-0.01-0.01l-3.55,3.55l-2.38-2.38l0,0l0,0l0,0
				l-2.38-2.38l0,0v0l0,0l3.55-3.55l-0.01-0.01l-2.1-2.1l-0.01-0.01l-3.55,3.55l-2.37-2.37l0,0l0,0l0,0l-2.38-2.38l0,0l0,0l1.2-1.2
				l1.17-1.17l1.17-1.17l0,0l1.2-1.2l-2.1-2.1l-1.2,1.2l0,0l-3.55,3.55l-2.38-2.38l0,0l0,0l0,0l-2.37-2.37l3.55-3.55l-0.01-0.01
				l-2.1-2.1l-0.01-0.01l-3.55,3.55l0,0h0l0,0l-2.38-2.38l0,0l0,0l0,0l-2.38-2.38l3.55-3.55l-0.01-0.01l0,0l-2.1-2.1l-3.55,3.55
				l-2.37-2.37l0,0l0,0l0,0l-2.38-2.38l2.38-2.38l0,0l0,0l0,0l2.37-2.37l3.55,3.55l2.1-2.1l0,0l0.01-0.01l-3.55-3.55l2.38-2.38l0,0
				l1.16-1.16l-2.1-2.1l-1.16,1.16l0,0l-2.38,2.38l-3.55-3.55l-0.01,0.01l0,0l-2.1,2.1l3.55,3.55l-2.37,2.37l0,0l0,0l0,0l-2.38,2.38
				l-2.38-2.38l0,0l0,0l0,0l-2.37-2.37l3.55-3.55l-2.1-2.1l0,0l-0.01-0.01l-3.55,3.55l-2.38-2.38l0,0l-1.16-1.16l-2.1,2.1l1.16,1.16
				l0,0l2.38,2.38l-3.55,3.55l0.01,0.01l0,0l2.1,2.1l3.55-3.55l2.37,2.37l0,0l0,0l0,0l2.38,2.38l-2.38,2.38l0,0l0,0l0,0l-2.37,2.37
				l-3.55-3.55l-2.1,2.1l0,0l-0.01,0.01l3.55,3.55l-2.38,2.38l0,0l0,0l0,0l-2.38,2.38l0,0h0l0,0l-3.55-3.55l-0.01,0.01l-2.1,2.1
				l-0.01,0.01l3.55,3.55l-2.37,2.37l0,0l0,0l0,0l-2.38,2.38l-3.55-3.55l0,0l-1.2-1.2l-2.1,2.1l1.2,1.2l0,0l1.17,1.17l1.17,1.17
				l1.2,1.2v0l0,0l-2.38,2.38l0,0l0,0l0,0l-2.37,2.37l-3.55-3.55l-0.01,0.01l-2.1,2.1l-0.01,0.01l3.55,3.55l0,0v0l0,0l-2.38,2.38
				l0,0l0,0l0,0l-2.38,2.38l-3.55-3.55l-0.01,0.01l0,0l0,0l-2.1,2.1l3.55,3.55l-2.37,2.37l0,0l0,0l0,0l-2.38,2.38l-2.38-2.38l0,0
				l-1.17-1.17l-1.2-1.2l3.55-3.55v0l0,0l-1.05-1.05l-1.05-1.05l0,0h0l-3.55,3.55l-3.55-3.55h0l0,0l-2.1,2.1l3.55,3.55l-3.55,3.55v0
				l0,0l1.05,1.05l1.05,1.05l0,0h0l3.55-3.55l2.37,2.37l0,0l2.38,2.38l-2.38,2.38l0,0l-1.17,1.17l-1.2,1.2l-3.55-3.55h0l0,0
				l-2.1,2.1l3.55,3.55l-3.55,3.55l2.1,2.1h0l0,0l3.55-3.55l3.55,3.55l0,0h0l2.1-2.1l-3.55-3.55l1.2-1.2l1.17-1.17l0,0l2.38-2.38
				l2.38,2.38l0,0l0,0l0,0l2.37,2.37l-3.55,3.55v0l0,0l1.05,1.05l1.05,1.05l0,0l0.01,0.01l3.55-3.55l2.38,2.38l0,0l0,0l0,0
				l2.38,2.38l0,0v0l0,0l-3.55,3.55l0.01,0.01l2.1,2.1l0.01,0.01l3.55-3.55l2.37,2.37l0,0l0,0l0,0l2.38,2.38l-1.2,1.2l-2.35,2.35
				l-1.2,1.2l2.1,2.1l1.2-1.2l0,0l3.55-3.55l2.38,2.38l0,0l0,0l0,0l2.37,2.37l-3.55,3.55l0.01,0.01l2.1,2.1l0.01,0.01l3.55-3.55l0,0
				h0l0,0l2.38,2.38l0,0l0,0l0,0l2.38,2.38l-3.55,3.55l0.01,0.01l0,0l2.1,2.1l3.55-3.55l2.37,2.37l0,0l0,0l0,0l2.38,2.38l-2.38,2.38
				l0,0l0,0l0,0l-2.37,2.37l-3.55-3.55l-0.01,0.01l0,0l-2.1,2.1l3.55,3.55l-2.38,2.38l0,0l-1.16,1.16l2.1,2.1l1.16-1.16l0,0
				l2.38-2.38l3.55,3.55l0.01-0.01l0,0l2.1-2.1l-3.55-3.55l2.37-2.37l0,0l0,0l0,0l2.38-2.38l2.38,2.38l0,0l0,0l0,0l2.37,2.37
				l-3.55,3.55l2.1,2.1l0,0l0.01,0.01l3.55-3.55l2.38,2.38l0,0l1.16,1.16l2.1-2.1l-1.16-1.16l0,0l-2.38-2.38l3.55-3.55l-2.1-2.1l0,0
				l-0.01-0.01l-3.55,3.55l-2.37-2.37l0,0l0,0l0,0l-2.38-2.38l2.38-2.38l0,0l0,0l0,0l2.37-2.37l3.55,3.55l2.1-2.1l0,0l0.01-0.01
				l-3.55-3.55l2.38-2.38l0,0l0,0l0,0l2.38-2.38l0,0h0l0,0l3.55,3.55l0.01-0.01l2.1-2.1l0.01-0.01l-3.55-3.55l2.37-2.37l0,0l0,0l0,0
				l2.38-2.38l3.55,3.55l0,0l1.2,1.2l2.1-2.1l-1.2-1.2l-2.35-2.35l-1.2-1.2l2.38-2.38l0,0l0,0l0,0l2.37-2.37l3.55,3.55l0.01-0.01
				l2.1-2.1l0.01-0.01l-3.55-3.55l0,0v0l0,0l2.38-2.38l0,0l0,0l0,0l2.38-2.38l3.55,3.55l0.01-0.01l0,0l1.05-1.05l1.05-1.05l0,0v0
				l-3.55-3.55l2.37-2.37l0,0l0,0l0,0l2.38-2.38l2.38,2.38l0,0l1.17,1.17l1.2,1.2l-3.55,3.55l2.1,2.1h0l0,0l3.55-3.55l3.55,3.55l0,0
				h0l2.1-2.1l-3.55-3.55l3.55-3.55l-2.1-2.1l0,0h0l-3.55,3.55L194.68,411.36z M168.42,426.31L168.42,426.31L168.42,426.31
				L168.42,426.31L168.42,426.31L168.42,426.31z M127.22,426.31L127.22,426.31L127.22,426.31L127.22,426.31L127.22,426.31
				L127.22,426.31z M175.29,396.18L175.29,396.18l2.38,2.38l0,0l0,0l0,0l2.38,2.38l-3.55,3.55l0.01,0.01l0,0l2.1,2.1h0l0,0
				l3.55-3.55l2.37,2.37l0,0l0,0l0,0l2.38,2.38l-2.38,2.38l0,0l0,0l0,0l-2.37,2.37l-3.55-3.55h0l0,0l-0.01,0.01l-2.1,2.1l-0.01,0.01
				l3.55,3.55l-2.38,2.38l0,0l0,0l0,0l-2.38,2.38l0,0h0l-0.01,0.01l-2.09,2.1l0,0l1.05-1.05l1.06-1.06l-3.55-3.55l-0.01,0.01
				l-2.1,2.1l-0.01,0.01l3.55,3.55l-2.37,2.37l0,0l0,0l0,0l-2.38,2.38l-1.2-1.2l-2.35-2.35l-1.2-1.2l3.55-3.55l-2.1-2.1l-3.55,3.55
				l-3.55-3.55l-2.1,2.1l3.55,3.55l2.1,2.1l3.55,3.55l1.2,1.2v0l0,0l-2.38,2.38l0,0l0,0l0,0l-2.37,2.37l-3.55-3.55l-0.01,0.01
				l-2.1,2.1l-0.01,0.01l3.55,3.55l0.01-0.01l0,0l2.09-2.1l0,0l-2.1,2.09l-0.01,0.01v0l0,0l-2.38,2.38l0,0l0,0l0,0l-2.38,2.38
				l-3.55-3.55l-0.01,0.01l0,0l-2.1,2.1l3.55,3.55l-2.37,2.37l0,0l0,0l0,0l-2.38,2.38l-2.38-2.38l0,0l0,0l0,0l-2.37-2.37l3.55-3.55
				l-2.1-2.1l0,0l-0.01-0.01l-3.55,3.55l-2.38-2.38l0,0l0,0l0,0l-2.38-2.38l0,0l0,0l-0.01-0.01l-2.09-2.09v0l2.09,2.1l0,0l0.01,0.01
				l3.55-3.55l-0.01-0.01l-2.1-2.1l-0.01-0.01l-3.55,3.55l-2.37-2.37l0,0l0,0l0,0l-2.38-2.38l0,0l0,0l1.2-1.2l3.55-3.55l2.1-2.1
				l3.55-3.55l-2.1-2.1l-3.55,3.55l-3.55-3.55l-2.1,2.1l3.55,3.55l-1.2,1.2l-2.35,2.35l-1.2,1.2l-2.38-2.38l0,0l0,0l0,0l-2.37-2.37
				l3.55-3.55l-0.01-0.01l-2.1-2.1l-0.01-0.01l-3.55,3.55l1.06,1.06l1.05,1.05v0l-2.1-2.1l-0.01-0.01l0,0l0,0l-2.38-2.38l0,0l0,0
				l0,0l-2.38-2.38l3.55-3.55l-0.01-0.01l-2.1-2.1l-0.01-0.01l0,0h0l-3.55,3.55l-2.37-2.37l0,0l0,0l0,0l-2.38-2.38l2.38-2.38l0,0
				l0,0l0,0l2.37-2.37l3.55,3.55l0,0h0l2.1-2.1l0,0l0.01-0.01l-3.55-3.55l2.38-2.38l0,0l0,0l0,0l2.38-2.38l0,0v0l3.55,3.55
				l0.01-0.01l2.1-2.1l0.01-0.01l-3.55-3.55l2.37-2.37l0,0l0,0l0,0l2.38-2.38l0,0h0l0,0l2.1-2.1l0,0l2.38-2.38l0,0l0,0l0,0
				l2.37-2.37l3.55,3.55l0.01-0.01l2.1-2.1l0.01-0.01l-3.55-3.55l-0.01,0.01l0,0l-2.09,2.1l0,0l2.1-2.09l0,0l0,0l0,0l0.01-0.01h0
				l0,0l2.38-2.38l0,0l0,0l0,0l2.38-2.38l3.55,3.55l0.01-0.01l0,0l2.1-2.1l-3.55-3.55l2.37-2.37l0,0l0,0l0,0l2.38-2.38l2.38,2.38
				l0,0l0,0l0,0l2.37,2.37l-3.55,3.55l2.1,2.1l0,0l0.01,0.01l3.55-3.55l2.38,2.38l0,0l0,0l0,0l2.38,2.38l0,0l0,0l0.01,0.01l0,0l0,0
				l0,0l2.1,2.09v0l-2.1-2.1l0,0l-0.01-0.01l-3.55,3.55l0.01,0.01l2.1,2.1l0.01,0.01l3.55-3.55l2.37,2.37l0,0l0,0l0,0l2.38,2.38l0,0
				l2.1,2.1h0l0,0l0,0l2.38,2.38l0,0l0,0l0,0l2.37,2.37l-3.55,3.55l0.01,0.01l2.1,2.1l0.01,0.01L175.29,396.18L175.29,396.18z"/>
			<polygon points="175.28,433.17 178.83,429.61 180.94,431.72 177.38,435.27 180.94,438.82 178.83,440.93 175.28,437.37 
				173.18,435.27 175.28,433.17 			"/>
			<rect x="169.94" y="436.61" transform="matrix(0.7071 -0.7071 0.7071 0.7071 -259.2714 250.2581)" width="5.02" height="2.97"/>
			<rect x="156.22" y="422.89" transform="matrix(0.7071 -0.7071 0.7071 0.7071 -253.5907 236.5432)" width="5.02" height="2.97"/>
			<polygon points="116.8,440.93 114.7,438.82 118.25,435.27 114.7,431.72 116.8,429.61 120.36,433.17 120.36,433.17 122.46,435.27 
				120.36,437.37 			"/>
			<rect x="121.7" y="435.59" transform="matrix(0.7071 -0.7071 0.7071 0.7071 -273.6998 215.4169)" width="2.97" height="5.02"/>
			<rect x="135.42" y="421.87" transform="matrix(0.7071 -0.7071 0.7071 0.7071 -259.9803 221.0969)" width="2.97" height="5.02"/>
			<polygon points="173.18,380.35 175.28,378.24 178.83,374.69 180.94,376.79 177.38,380.35 180.94,383.9 178.83,386 175.28,382.45 
				175.28,382.45 			"/>
			<rect x="170.97" y="375.01" transform="matrix(0.7071 -0.7071 0.7071 0.7071 -216.4342 232.5115)" width="2.97" height="5.02"/>
			<polygon points="163.67,394.06 161.56,396.17 159.46,394.06 161.56,391.96 165.11,388.41 166.32,387.21 168.42,389.31 
				167.22,390.51 			"/>
			<rect x="156.22" y="395.4" transform="matrix(0.7071 -0.7071 0.7071 0.7071 -234.153 228.489)" width="5.02" height="2.97"/>
			<rect x="162.9" y="394.38" transform="matrix(0.7071 -0.7071 0.7071 0.7071 -232.4965 232.4881)" width="2.97" height="5.02"/>
			<rect x="157.25" y="388.72" transform="matrix(0.7071 -0.7071 0.7071 0.7071 -230.1538 226.8325)" width="2.97" height="5.02"/>
			<polygon points="130.52,388.41 134.08,391.96 136.18,394.06 134.08,396.17 131.97,394.06 128.42,390.51 127.22,389.31 
				129.32,387.21 			"/>
			<polygon points="120.36,382.45 116.8,386 114.7,383.9 118.25,380.35 114.7,376.79 116.8,374.69 120.36,378.24 122.46,380.35 
				120.36,382.45 			"/>
			<rect x="120.67" y="376.03" transform="matrix(0.7071 -0.7071 0.7071 0.7071 -230.8657 197.6771)" width="5.02" height="2.97"/>
			<rect x="135.42" y="394.38" transform="matrix(0.7071 -0.7071 0.7071 0.7071 -240.5472 213.052)" width="2.97" height="5.02"/>
			<rect x="128.74" y="395.4" transform="matrix(0.7071 -0.7071 0.7071 0.7071 -242.2037 209.0528)" width="5.02" height="2.97"/>
			<rect x="134.39" y="389.75" transform="matrix(0.7071 -0.7071 0.7071 0.7071 -236.5496 211.3987)" width="5.02" height="2.97"/>
			<path d="M156.7,407.81c0-4.9-3.98-8.88-8.88-8.88s-8.88,3.98-8.88,8.88c0,4.9,3.98,8.88,8.88,8.88S156.7,412.7,156.7,407.81z
				 M154.7,407.81c0,3.79-3.09,6.88-6.88,6.88s-6.88-3.09-6.88-6.88c0-3.79,3.09-6.88,6.88-6.88S154.7,404.01,154.7,407.81z"/>
		</g>
		<g>
			<polygon points="59.01,419.65 53.7,419.65 53.7,426.76 60.81,426.76 60.81,421.45 63.96,421.45 63.96,426.76 69.28,426.76 
				69.28,429.91 63.96,429.91 63.96,435.23 60.81,435.23 60.81,429.91 53.7,429.91 53.7,437.03 59.01,437.03 59.01,440.18 
				53.7,440.18 53.7,445.49 52.12,445.49 52.12,416.5 53.7,416.5 53.7,416.5 59.01,416.5 			"/>
			<rect x="60.81" y="380.39" width="3.15" height="5.32"/>
			<polygon points="53.7,385.7 52.12,385.7 52.12,370.12 53.7,370.12 53.7,375.44 59.01,375.44 59.01,378.59 53.7,378.59 			"/>
			<polygon points="84.49,409.38 84.49,414.7 81.34,414.7 81.34,409.38 74.23,409.38 74.23,416.5 71.08,416.5 71.08,409.38 
				63.96,409.38 63.96,414.7 60.81,414.7 60.81,409.38 53.7,409.38 53.7,416.5 52.12,416.5 52.12,385.7 55.5,385.7 55.5,385.7 
				60.81,385.7 60.81,385.7 63.96,385.7 63.96,385.7 69.28,385.7 69.28,388.85 63.96,388.85 63.96,394.17 60.81,394.17 
				60.81,388.85 53.7,388.85 53.7,395.97 59.01,395.97 59.01,399.12 53.7,399.12 53.7,406.23 60.81,406.23 60.81,400.92 
				63.96,400.92 63.96,406.23 71.08,406.23 71.08,399.12 65.76,399.12 65.76,395.97 71.08,395.97 71.08,390.65 74.23,390.65 
				74.23,395.97 79.54,395.97 79.54,399.12 74.23,399.12 74.23,406.23 81.34,406.23 81.34,400.92 84.49,400.92 84.49,406.23 
				89.81,406.23 89.81,409.38 			"/>
			<polygon points="74.23,416.5 74.23,416.5 79.54,416.5 79.54,419.65 74.23,419.65 74.23,424.96 71.08,424.96 71.08,419.65 
				65.76,419.65 65.76,416.5 71.08,416.5 71.08,416.5 			"/>
		</g>
		<g>
			<polygon points="236.62,419.65 241.94,419.65 241.94,426.76 234.82,426.76 234.82,421.45 231.67,421.45 231.67,426.76 
				226.36,426.76 226.36,429.91 231.67,429.91 231.67,435.23 234.82,435.23 234.82,429.91 241.94,429.91 241.94,437.03 
				236.62,437.03 236.62,440.18 241.94,440.18 241.94,445.49 243.51,445.49 243.51,416.5 241.94,416.5 241.94,416.5 236.62,416.5 
							"/>
			<rect x="231.67" y="380.39" width="3.15" height="5.32"/>
			<polygon points="241.94,385.7 243.51,385.7 243.51,370.12 241.94,370.12 241.94,375.44 236.62,375.44 236.62,378.59 
				241.94,378.59 			"/>
			<polygon points="211.14,409.38 211.14,414.7 214.29,414.7 214.29,409.38 221.41,409.38 221.41,416.5 224.56,416.5 224.56,409.38 
				231.67,409.38 231.67,414.7 234.82,414.7 234.82,409.38 241.94,409.38 241.94,416.5 243.51,416.5 243.51,385.7 240.14,385.7 
				240.14,385.7 234.82,385.7 234.82,385.7 231.67,385.7 231.67,385.7 226.36,385.7 226.36,388.85 231.67,388.85 231.67,394.17 
				234.82,394.17 234.82,388.85 241.94,388.85 241.94,395.97 236.62,395.97 236.62,399.12 241.94,399.12 241.94,406.23 
				234.82,406.23 234.82,400.92 231.67,400.92 231.67,406.23 224.56,406.23 224.56,399.12 229.87,399.12 229.87,395.97 
				224.56,395.97 224.56,390.65 221.41,390.65 221.41,395.97 216.09,395.97 216.09,399.12 221.41,399.12 221.41,406.23 
				214.29,406.23 214.29,400.92 211.14,400.92 211.14,406.23 205.83,406.23 205.83,409.38 			"/>
			<polygon points="221.41,416.5 221.41,416.5 216.09,416.5 216.09,419.65 221.41,419.65 221.41,424.96 224.56,424.96 
				224.56,419.65 229.87,419.65 229.87,416.5 224.56,416.5 224.56,416.5 			"/>
		</g>
	</g>
	<g>
		<path d="M386.07,411.36l-1.17-1.17l0,0l-2.38-2.38l2.38-2.38l0,0l2.37-2.37l3.55,3.55h0l0,0l1.05-1.05l1.05-1.05l0,0v0l-3.55-3.55
			l3.55-3.55l-2.1-2.1l0,0h0l-3.55,3.55l-3.55-3.55h0l0,0l-1.05,1.05l-1.05,1.05l0,0v0l3.55,3.55l-1.2,1.2l-1.17,1.17l0,0
			l-2.38,2.38l-2.38-2.38l0,0l0,0l0,0l-2.37-2.37l3.55-3.55l-2.1-2.1l0,0l0,0l-0.01-0.01l-3.55,3.55l-2.38-2.38l0,0l0,0l0,0
			l-2.38-2.38l0,0v0l0,0l3.55-3.55l-0.01-0.01l-2.1-2.1l-0.01-0.01l-3.55,3.55l-2.37-2.37l0,0l0,0l0,0l-2.38-2.38l0,0l0,0l1.2-1.2
			l1.17-1.17l1.17-1.17l0,0l1.2-1.2l-2.1-2.1l-1.2,1.2l0,0l-3.55,3.55l-2.38-2.38l0,0l0,0l0,0l-2.37-2.37l3.55-3.55l-0.01-0.01
			l-2.1-2.1l-0.01-0.01l-3.55,3.55l0,0h0l0,0l-2.38-2.38l0,0l0,0l0,0l-2.38-2.38l3.55-3.55l-0.01-0.01l0,0l-2.1-2.1l-3.55,3.55
			l-2.37-2.37l0,0l0,0l0,0l-2.38-2.38l2.38-2.38l0,0l0,0l0,0l2.37-2.37l3.55,3.55l2.1-2.1l0,0l0.01-0.01l-3.55-3.55l2.38-2.38l0,0
			l1.16-1.16l-2.1-2.1l-1.16,1.16l0,0l-2.38,2.38l-3.55-3.55l-0.01,0.01l0,0l-2.1,2.1l3.55,3.55l-2.37,2.37l0,0l0,0l0,0l-2.38,2.38
			l-2.38-2.38l0,0l0,0l0,0l-2.37-2.37l3.55-3.55l-2.1-2.1l0,0l-0.01-0.01l-3.55,3.55l-2.38-2.38l0,0l-1.16-1.16l-2.1,2.1l1.16,1.16
			l0,0l2.38,2.38l-3.55,3.55l0.01,0.01l0,0l2.1,2.1l3.55-3.55l2.37,2.37l0,0l0,0l0,0l2.38,2.38l-2.38,2.38l0,0l0,0l0,0l-2.37,2.37
			l-3.55-3.55l-2.1,2.1l0,0l-0.01,0.01l3.55,3.55l-2.38,2.38l0,0l0,0l0,0l-2.38,2.38l0,0h0l0,0l-3.55-3.55l-0.01,0.01l-2.1,2.1
			l-0.01,0.01l3.55,3.55l-2.37,2.37l0,0l0,0l0,0l-2.38,2.38l-3.55-3.55l0,0l-1.2-1.2l-2.1,2.1l1.2,1.2l0,0l1.17,1.17l1.17,1.17
			l1.2,1.2v0l0,0l-2.38,2.38l0,0l0,0l0,0l-2.37,2.37l-3.55-3.55l-0.01,0.01l-2.1,2.1l-0.01,0.01l3.55,3.55l0,0v0l0,0l-2.38,2.38l0,0
			l0,0l0,0l-2.38,2.38l-3.55-3.55l-0.01,0.01l0,0l0,0l-2.1,2.1l3.55,3.55l-2.37,2.37l0,0l0,0l0,0L298,405.7l-2.38-2.38l0,0
			l-1.17-1.17l-1.2-1.2l3.55-3.55v0l0,0l-1.05-1.05l-1.05-1.05l0,0h0l-3.55,3.55l-3.55-3.55h0l0,0l-2.1,2.1l3.55,3.55l-3.55,3.55v0
			l0,0l1.05,1.05l1.05,1.05l0,0h0l3.55-3.55l2.37,2.37l0,0l2.38,2.38l-2.38,2.38l0,0l-1.17,1.17l-1.2,1.2l-3.55-3.55h0l0,0l-2.1,2.1
			l3.55,3.55l-3.55,3.55l2.1,2.1h0l0,0l3.55-3.55l3.55,3.55l0,0h0l2.1-2.1l-3.55-3.55l1.2-1.2l1.17-1.17l0,0l2.38-2.38l2.38,2.38
			l0,0l0,0l0,0l2.37,2.37l-3.55,3.55v0l0,0l1.05,1.05l1.05,1.05l0,0l0.01,0.01l3.55-3.55l2.38,2.38l0,0l0,0l0,0l2.38,2.38l0,0v0l0,0
			l-3.55,3.55l0.01,0.01l2.1,2.1l0.01,0.01l3.55-3.55l2.37,2.37l0,0l0,0l0,0l2.38,2.38l-1.2,1.2l-2.35,2.35l-1.2,1.2l2.1,2.1
			l1.2-1.2l0,0l3.55-3.55l2.38,2.38l0,0l0,0l0,0l2.37,2.37l-3.55,3.55l0.01,0.01l2.1,2.1l0.01,0.01l3.55-3.55l0,0h0l0,0l2.38,2.38
			l0,0l0,0l0,0l2.38,2.38l-3.55,3.55l0.01,0.01l0,0l2.1,2.1l3.55-3.55l2.37,2.37l0,0l0,0l0,0l2.38,2.38l-2.38,2.38l0,0l0,0l0,0
			l-2.37,2.37l-3.55-3.55l-0.01,0.01l0,0l-2.1,2.1l3.55,3.55l-2.38,2.38l0,0l-1.16,1.16l2.1,2.1l1.16-1.16l0,0l2.38-2.38l3.55,3.55
			l0.01-0.01l0,0l2.1-2.1l-3.55-3.55l2.37-2.37l0,0l0,0l0,0l2.38-2.38l2.38,2.38l0,0l0,0l0,0l2.37,2.37l-3.55,3.55l2.1,2.1l0,0
			l0.01,0.01l3.55-3.55l2.38,2.38l0,0l1.16,1.16l2.1-2.1l-1.16-1.16l0,0l-2.38-2.38l3.55-3.55l-2.1-2.1l0,0l-0.01-0.01l-3.55,3.55
			l-2.37-2.37l0,0l0,0l0,0l-2.38-2.38l2.38-2.38l0,0l0,0l0,0l2.37-2.37l3.55,3.55l2.1-2.1l0,0l0.01-0.01l-3.55-3.55l2.38-2.38l0,0
			l0,0l0,0l2.38-2.38l0,0h0l0,0l3.55,3.55l0.01-0.01l2.1-2.1l0.01-0.01l-3.55-3.55l2.37-2.37l0,0l0,0l0,0l2.38-2.38l3.55,3.55l0,0
			l1.2,1.2l2.1-2.1l-1.2-1.2l-2.35-2.35l-1.2-1.2l2.38-2.38l0,0l0,0l0,0l2.37-2.37l3.55,3.55l0.01-0.01l2.1-2.1l0.01-0.01
			l-3.55-3.55l0,0v0l0,0l2.38-2.38l0,0l0,0l0,0l2.38-2.38l3.55,3.55l0.01-0.01l0,0l1.05-1.05l1.05-1.05l0,0v0l-3.55-3.55l2.37-2.37
			l0,0l0,0l0,0l2.38-2.38l2.38,2.38l0,0l1.17,1.17l1.2,1.2l-3.55,3.55l2.1,2.1h0l0,0l3.55-3.55l3.55,3.55l0,0h0l2.1-2.1l-3.55-3.55
			l3.55-3.55l-2.1-2.1l0,0h0l-3.55,3.55L386.07,411.36z M359.81,426.31L359.81,426.31L359.81,426.31L359.81,426.31L359.81,426.31
			L359.81,426.31z M318.61,426.31L318.61,426.31L318.61,426.31L318.61,426.31L318.61,426.31L318.61,426.31z M366.68,396.18
			L366.68,396.18l2.38,2.38l0,0l0,0l0,0l2.38,2.38l-3.55,3.55l0.01,0.01l0,0l2.1,2.1h0l0,0l3.55-3.55l2.37,2.37l0,0l0,0l0,0
			l2.38,2.38l-2.38,2.38l0,0l0,0l0,0l-2.37,2.37l-3.55-3.55h0l0,0l-0.01,0.01l-2.1,2.1l-0.01,0.01l3.55,3.55l-2.38,2.38l0,0l0,0l0,0
			l-2.38,2.38l0,0h0l-0.01,0.01l-2.09,2.1l0,0l1.05-1.05l1.06-1.06l-3.55-3.55l-0.01,0.01l-2.1,2.1l-0.01,0.01l3.55,3.55l-2.37,2.37
			l0,0l0,0l0,0l-2.38,2.38l-1.2-1.2l-2.35-2.35l-1.2-1.2l3.55-3.55l-2.1-2.1l-3.55,3.55l-3.55-3.55l-2.1,2.1l3.55,3.55l2.1,2.1
			l3.55,3.55l1.2,1.2v0l0,0l-2.38,2.38l0,0l0,0l0,0l-2.37,2.37l-3.55-3.55l-0.01,0.01l-2.1,2.1l-0.01,0.01l3.55,3.55l0.01-0.01l0,0
			l2.09-2.1l0,0l-2.1,2.09l-0.01,0.01v0l0,0l-2.38,2.38l0,0l0,0l0,0l-2.38,2.38l-3.55-3.55l-0.01,0.01l0,0l-2.1,2.1l3.55,3.55
			l-2.37,2.37l0,0l0,0l0,0l-2.38,2.38l-2.38-2.38l0,0l0,0l0,0l-2.37-2.37l3.55-3.55l-2.1-2.1l0,0l-0.01-0.01l-3.55,3.55l-2.38-2.38
			l0,0l0,0l0,0l-2.38-2.38l0,0l0,0l-0.01-0.01l-2.09-2.09v0l2.09,2.1l0,0l0.01,0.01l3.55-3.55l-0.01-0.01l-2.1-2.1l-0.01-0.01
			l-3.55,3.55l-2.37-2.37l0,0l0,0l0,0l-2.38-2.38l0,0l0,0l1.2-1.2l3.55-3.55l2.1-2.1l3.55-3.55l-2.1-2.1l-3.55,3.55l-3.55-3.55
			l-2.1,2.1l3.55,3.55l-1.2,1.2l-2.35,2.35l-1.2,1.2l-2.38-2.38l0,0l0,0l0,0l-2.37-2.37l3.55-3.55l-0.01-0.01l-2.1-2.1l-0.01-0.01
			l-3.55,3.55l1.06,1.06l1.05,1.05v0l-2.1-2.1l-0.01-0.01l0,0l0,0l-2.38-2.38l0,0l0,0l0,0l-2.38-2.38l3.55-3.55l-0.01-0.01l-2.1-2.1
			l-0.01-0.01l0,0h0l-3.55,3.55l-2.37-2.37l0,0l0,0l0,0l-2.38-2.38l2.38-2.38l0,0l0,0l0,0l2.37-2.37l3.55,3.55l0,0h0l2.1-2.1l0,0
			l0.01-0.01l-3.55-3.55l2.38-2.38l0,0l0,0l0,0l2.38-2.38l0,0v0l3.55,3.55l0.01-0.01l2.1-2.1l0.01-0.01l-3.55-3.55l2.37-2.37l0,0
			l0,0l0,0l2.38-2.38l0,0h0l0,0l2.1-2.1l0,0l2.38-2.38l0,0l0,0l0,0l2.37-2.37l3.55,3.55l0.01-0.01l2.1-2.1l0.01-0.01l-3.55-3.55
			l-0.01,0.01l0,0l-2.09,2.1l0,0l2.1-2.09l0,0l0,0l0,0l0.01-0.01h0l0,0l2.38-2.38l0,0l0,0l0,0l2.38-2.38l3.55,3.55l0.01-0.01l0,0
			l2.1-2.1l-3.55-3.55l2.37-2.37l0,0l0,0l0,0l2.38-2.38l2.38,2.38l0,0l0,0l0,0l2.37,2.37l-3.55,3.55l2.1,2.1l0,0l0.01,0.01
			l3.55-3.55l2.38,2.38l0,0l0,0l0,0l2.38,2.38l0,0l0,0l0.01,0.01l0,0l0,0l0,0l2.1,2.09v0l-2.1-2.1l0,0l-0.01-0.01l-3.55,3.55
			l0.01,0.01l2.1,2.1l0.01,0.01l3.55-3.55l2.37,2.37l0,0l0,0l0,0l2.38,2.38l0,0l2.1,2.1h0l0,0l0,0l2.38,2.38l0,0l0,0l0,0l2.37,2.37
			l-3.55,3.55l0.01,0.01l2.1,2.1l0.01,0.01L366.68,396.18L366.68,396.18z"/>
		<polygon points="366.67,433.17 370.22,429.61 372.33,431.72 368.77,435.27 372.33,438.82 370.22,440.93 366.67,437.37 
			364.57,435.27 366.67,433.17 		"/>
		<rect x="361.33" y="436.61" transform="matrix(0.7071 -0.7071 0.7071 0.7071 -203.2147 385.591)" width="5.02" height="2.97"/>
		<rect x="347.61" y="422.89" transform="matrix(0.7071 -0.7071 0.7071 0.7071 -197.5328 371.8773)" width="5.02" height="2.97"/>
		<polygon points="308.19,440.93 306.09,438.82 309.64,435.27 306.09,431.72 308.19,429.61 311.75,433.17 311.75,433.17 
			313.85,435.27 311.75,437.37 		"/>
		<rect x="313.09" y="435.59" transform="matrix(0.7071 -0.7071 0.7071 0.7071 -217.6442 350.7486)" width="2.97" height="5.02"/>
		<rect x="326.81" y="421.87" transform="matrix(0.7071 -0.7071 0.7071 0.7071 -203.9256 356.4278)" width="2.97" height="5.02"/>
		<polygon points="364.57,380.35 366.67,378.24 370.22,374.69 372.33,376.79 368.77,380.35 372.33,383.9 370.22,386 366.67,382.45 
			366.67,382.45 		"/>
		<rect x="362.35" y="375.01" transform="matrix(0.7071 -0.7071 0.7071 0.7071 -160.3786 367.8432)" width="2.97" height="5.02"/>
		<polygon points="355.05,394.06 352.95,396.17 350.85,394.06 352.95,391.96 356.5,388.41 357.71,387.21 359.81,389.31 
			358.61,390.51 		"/>
		<rect x="347.61" y="395.4" transform="matrix(0.7071 -0.7071 0.7071 0.7071 -178.0962 363.8219)" width="5.02" height="2.97"/>
		<rect x="354.29" y="394.38" transform="matrix(0.7071 -0.7071 0.7071 0.7071 -176.4397 367.821)" width="2.97" height="5.02"/>
		<rect x="348.64" y="388.72" transform="matrix(0.7071 -0.7071 0.7071 0.7071 -174.0971 362.1654)" width="2.97" height="5.02"/>
		<polygon points="321.91,388.41 325.46,391.96 327.57,394.06 325.46,396.17 323.36,394.06 319.81,390.51 318.61,389.31 
			320.71,387.21 		"/>
		<polygon points="311.75,382.45 308.19,386 306.09,383.9 309.64,380.35 306.09,376.79 308.19,374.69 311.75,378.24 313.85,380.35 
			311.75,382.45 		"/>
		<rect x="312.06" y="376.03" transform="matrix(0.7071 -0.7071 0.7071 0.7071 -174.809 333.01)" width="5.02" height="2.97"/>
		<rect x="326.81" y="394.38" transform="matrix(0.7071 -0.7071 0.7071 0.7071 -184.4905 348.3848)" width="2.97" height="5.02"/>
		<rect x="320.13" y="395.4" transform="matrix(0.7071 -0.7071 0.7071 0.7071 -186.1469 344.3857)" width="5.02" height="2.97"/>
		<rect x="325.78" y="389.75" transform="matrix(0.7071 -0.7071 0.7071 0.7071 -180.4917 346.7327)" width="5.02" height="2.97"/>
		<path d="M348.09,407.81c0-4.9-3.98-8.88-8.88-8.88s-8.88,3.98-8.88,8.88c0,4.9,3.98,8.88,8.88,8.88S348.09,412.7,348.09,407.81z
			 M346.09,407.81c0,3.79-3.09,6.88-6.88,6.88s-6.88-3.09-6.88-6.88c0-3.79,3.09-6.88,6.88-6.88S346.09,404.01,346.09,407.81z"/>
	</g>
	<g>
		<polygon points="250.4,419.65 245.09,419.65 245.09,426.76 252.2,426.76 252.2,421.45 255.35,421.45 255.35,426.76 260.67,426.76 
			260.67,429.91 255.35,429.91 255.35,435.23 252.2,435.23 252.2,429.91 245.09,429.91 245.09,437.03 250.4,437.03 250.4,440.18 
			245.09,440.18 245.09,445.49 243.51,445.49 243.51,416.5 245.09,416.5 245.09,416.5 250.4,416.5 		"/>
		<rect x="252.2" y="380.39" width="3.15" height="5.32"/>
		<polygon points="245.09,385.7 243.51,385.7 243.51,370.12 245.09,370.12 245.09,375.44 250.4,375.44 250.4,378.59 245.09,378.59 
					"/>
		<polygon points="275.88,409.38 275.88,414.7 272.73,414.7 272.73,409.38 265.62,409.38 265.62,416.5 262.47,416.5 262.47,409.38 
			255.35,409.38 255.35,414.7 252.2,414.7 252.2,409.38 245.09,409.38 245.09,416.5 243.51,416.5 243.51,385.7 246.89,385.7 
			246.89,385.7 252.2,385.7 252.2,385.7 255.35,385.7 255.35,385.7 260.67,385.7 260.67,388.85 255.35,388.85 255.35,394.17 
			252.2,394.17 252.2,388.85 245.09,388.85 245.09,395.97 250.4,395.97 250.4,399.12 245.09,399.12 245.09,406.23 252.2,406.23 
			252.2,400.92 255.35,400.92 255.35,406.23 262.47,406.23 262.47,399.12 257.15,399.12 257.15,395.97 262.47,395.97 262.47,390.65 
			265.62,390.65 265.62,395.97 270.93,395.97 270.93,399.12 265.62,399.12 265.62,406.23 272.73,406.23 272.73,400.92 
			275.88,400.92 275.88,406.23 281.2,406.23 281.2,409.38 		"/>
		<polygon points="265.62,416.5 265.62,416.5 270.93,416.5 270.93,419.65 265.62,419.65 265.62,424.96 262.47,424.96 262.47,419.65 
			257.15,419.65 257.15,416.5 262.47,416.5 262.47,416.5 		"/>
	</g>
	<g>
		<polygon points="50,452.8 51.02,451.78 50,450.76 		"/>
		<polygon points="50,459.01 50,461.05 51.02,460.03 		"/>
		<polygon points="50,498.5 50,500.59 51.05,499.55 		"/>
		<path d="M61.34,479.43c0-4.9-3.98-8.88-8.88-8.88c-0.85,0-1.67,0.13-2.46,0.35v2.11c0.76-0.29,1.59-0.46,2.46-0.46
			c3.79,0,6.88,3.09,6.88,6.88c0,3.79-3.09,6.88-6.88,6.88c-0.87,0-1.69-0.17-2.46-0.46v2.11c0.78,0.23,1.6,0.35,2.46,0.35
			C57.35,488.31,61.34,484.32,61.34,479.43z"/>
		<polygon points="50,524.74 51.05,523.69 50,522.64 		"/>
		<path d="M180.16,514.06v-4.88l-5.54-5.52l4.13-4.11l-2.45-2.44l-4.12,4.11l-2.77-2.76l-2.77-2.76l4.12-4.11l-2.44-2.44l-4.13,4.12
			l-2.76-2.76l-2.77-2.76l4.12-4.12l-2.44-2.43l-4.13,4.11l-2.76-2.76l-2.77-2.76l4.12-4.11l-2.44-2.44l-4.13,4.12l-4.13-4.12
			l-2.44,2.44l4.12,4.11l-2.76,2.76l-2.77,2.76l-4.13-4.11l-2.44,2.43l4.12,4.12l-2.76,2.76l-2.77,2.76l-4.13-4.12l-2.44,2.44
			l4.12,4.11l-2.76,2.76l-2.77,2.76l-4.13-4.11l-2.44,2.44l4.12,4.11l-2.76,2.76h-0.01l-2.6,2.6v-0.01l-0.17,0.17l-0.16-0.17v0.01
			l-2.6-2.6l-2.76-2.75l4.07-4.07v-0.01l0.04-0.04l-2.44-2.44l-4.13,4.11l-2.76-2.76l-0.05,0.05l0.04-0.05l-2.75-2.74l1.36-1.36
			l4.12-4.13l4.13,4.13l2.44-2.45l-4.12-4.12l4.12-4.13l-2.44-2.45l-4.13,4.13l-4.12-4.13l-2.45,2.45l4.13,4.13l-1.37,1.37v-0.01
			l-4.13,4.12l-2.77-2.76l-2.75-2.75l4.1-4.1l-0.01-0.01l0.02-0.02l-2.44-2.43l-4.13,4.11l-2.77-2.76l-2.76-2.75l2.75-2.75
			l2.77-2.76l4.12,4.12l2.45-2.44l-4.13-4.13l4.13-4.12l1.4-1.4l1.39,1.4l4.13,4.12l-4.13,4.13l2.45,2.44l4.12-4.12l4.13,4.12
			l2.45-2.44l-4.13-4.13l4.13-4.12l-2.45-2.45l-4.13,4.13l-4.12-4.13l-1.4-1.4l1.4-1.39l4.12-4.13l4.13,4.13l2.45-2.45l-4.13-4.13
			l4.13-4.12l-2.45-2.45l-4.13,4.13l-4.12-4.13l-2.45,2.45l4.13,4.12l-4.13,4.13l-1.39,1.4l-1.4-1.4l-4.13-4.13l4.13-4.12
			l-2.45-2.45l-4.12,4.13l-4.13-4.13l-2.45,2.45l4.13,4.12l-4.13,4.13l2.45,2.45l4.13-4.13l4.12,4.13l1.4,1.39l-1.4,1.4l-4.12,4.13
			l-4.13-4.13l-2.45,2.45l4.13,4.12v0.01l-1.39,1.39l-4.13,4.12l-4.13-4.12l-0.01,0.01l-1.39-1.4v-0.01l4.12-4.12l-2.44-2.45
			l-4.13,4.13l-4.12-4.13l-1.4-1.39l1.4-1.4l4.12-4.13l4.13,4.13l2.44-2.45l-4.12-4.12l4.12-4.13l-2.44-2.45l-4.13,4.13l-4.12-4.13
			l-2.45,2.45l4.13,4.13l-4.13,4.12l-1.4,1.4l-1.39-1.4l-4.13-4.12l4.13-4.13l-2.45-2.45l-4.13,4.13l-4.12-4.13l-2.45,2.45
			l4.13,4.13l-4.13,4.12l2.45,2.45l4.12-4.13l5.53,5.53l-1.4,1.39L61.86,468l2.45,2.45l2.73-2.73l1.39-1.4l1.4,1.4l4.13,4.12
			l-4.13,4.13l2.45,2.45l4.12-4.13l2.76,2.77l2.75,2.76l-2.75,2.73l-2.76,2.76l-4.13-4.11l-2.44,2.43l4.12,4.12l-2.77,2.76
			l-2.76,2.76l-4.13-4.12l-2.44,2.44l4.12,4.11l-5.54,5.52l-4.12-4.11l-2.44,2.44l4.12,4.11l-2.77,2.76l-2.76,2.76L50,506.73v9.78
			l2.46-2.45l2.76,2.76l2.77,2.76l-4.12,4.11l2.44,2.44l4.12-4.11l5.54,5.52l-4.12,4.11l2.44,2.44l4.13-4.12l2.76,2.76l2.77,2.76
			l-4.12,4.12l2.44,2.43l4.13-4.11l2.76,2.76l2.77,2.76l-4.12,4.11l2.44,2.44l4.13-4.12l4.13,4.12l2.44-2.44l-4.12-4.11l2.76-2.76
			l2.77-2.76l4.13,4.11l2.44-2.43l-4.12-4.12l2.76-2.76l2.77-2.76l4.13,4.12l2.44-2.44l-4.12-4.11l2.76-2.76h0.01l2.76-2.76
			l4.13,4.11l2.44-2.44l-4.12-4.11l2.77-2.76l2.6-2.6v0.01l0.16-0.17l0.17,0.17v-0.01l2.6,2.6h0.01l2.76,2.76l-4.12,4.11l2.44,2.44
			l4.13-4.11l2.77,2.76l2.76,2.76l-4.12,4.11l2.44,2.44l4.13-4.12l2.77,2.76l2.76,2.76l-4.12,4.12l2.44,2.43l4.13-4.11l2.77,2.76
			l2.76,2.76l-4.12,4.11l2.44,2.44l4.13-4.12l4.13,4.12l2.44-2.44l-4.12-4.11l2.77-2.76l2.76-2.76l4.13,4.11l2.44-2.43l-4.12-4.12
			l2.77-2.76l2.76-2.76l4.13,4.12l2.44-2.44l-4.12-4.11l2.77-2.76l2.77-2.76l4.12,4.11l2.45-2.44l-4.13-4.11l2.77-2.76
			L180.16,514.06z M111.09,514.38l-2.77,2.76l-4.13-4.12l-2.44,2.44l4.12,4.11l-2.76,2.76l-2.77,2.76l-4.13-4.11l-2.44,2.44
			l4.12,4.11l-2.76,2.76l-2.77,2.76l-4.13-4.11l-2.44,2.43l4.12,4.12l-2.76,2.76h-0.01l-2.76,2.76l-2.77-2.76l-2.77-2.76l4.13-4.12
			l-2.44-2.43l-4.13,4.11l-5.54-5.52l4.13-4.11l-2.44-2.44l-4.13,4.11l-5.54-5.52l4.13-4.11l-2.44-2.44l-4.13,4.12l-2.77-2.76
			l-2.76-2.76l2.76-2.76l2.77-2.76l4.13,4.12l2.44-2.44l-4.13-4.11l5.54-5.52v-0.01l4.13,4.12l2.44-2.44l-4.13-4.11l2.77-2.76
			l2.77-2.76l4.13,4.11l2.44-2.43l-4.13-4.12l2.77-2.76l2.77-2.76l2.76,2.76h0.01l2.76,2.76l-4.12,4.12l0.01,0.01l-0.03,0.03
			l2.45,2.45l4.12-4.13l4.13,4.13l1.39,1.38l-4.09,4.08l0.02,0.02l-0.05,0.04l2.45,2.45l4.12-4.13l1.4,1.4l4.12,4.11l-4.08,4.07
			l0.02,0.02l-0.06,0.05l2.45,2.45l4.12-4.13l4.13,4.13l0.06-0.06l1.38,1.38L111.09,514.38z M172.17,517.14l-4.12-4.12l-2.45,2.44
			l4.13,4.11l-5.54,5.52l-4.13-4.11l-2.44,2.44l4.13,4.11l-2.77,2.76l-2.77,2.76l-4.13-4.11l-2.44,2.43l4.13,4.12l-2.77,2.76
			l-2.77,2.76l-2.76-2.76l-2.77-2.76l4.12-4.12l-2.44-2.43l-4.13,4.11l-2.76-2.76h-0.01l-2.76-2.76l4.12-4.11l-2.44-2.44l-4.13,4.11
			l-2.77-2.76l-2.76-2.76l4.12-4.11l-2.44-2.44l-4.13,4.12l-2.77-2.76l-2.76-2.76l2.76-2.76l2.77-2.76l4.13,4.12l2.44-2.44
			l-4.12-4.11l2.76-2.76l2.77-2.76v-0.01l4.13,4.12l2.44-2.44l-4.12-4.11l2.76-2.76h0.01l2.76-2.76l4.13,4.11l2.44-2.43l-4.12-4.12
			l2.77-2.76l2.76-2.76l2.77,2.76l2.77,2.76l-4.13,4.12l2.44,2.43l4.13-4.11l2.77,2.76l2.77,2.76l-4.13,4.11l2.44,2.44l4.13-4.12
			v0.01l5.54,5.52l-4.13,4.11l2.45,2.44l4.12-4.12l2.77,2.76l2.76,2.76l-2.76,2.76L172.17,517.14z"/>
		<path d="M148.15,502.74c-4.9,0-8.88,3.98-8.88,8.88c0,4.9,3.98,8.88,8.88,8.88c4.9,0,8.88-3.98,8.88-8.88
			C157.03,506.72,153.05,502.74,148.15,502.74z M148.15,518.5c-3.79,0-6.88-3.09-6.88-6.88c0-3.79,3.09-6.88,6.88-6.88
			c3.79,0,6.88,3.09,6.88,6.88C155.03,515.41,151.94,518.5,148.15,518.5z"/>
		<path d="M84.46,502.74c-4.9,0-8.88,3.98-8.88,8.88c0,4.9,3.98,8.88,8.88,8.88c4.9,0,8.88-3.98,8.88-8.88
			C93.34,506.72,89.36,502.74,84.46,502.74z M84.46,518.5c-3.79,0-6.88-3.09-6.88-6.88c0-3.79,3.09-6.88,6.88-6.88
			c3.79,0,6.88,3.09,6.88,6.88C91.34,515.41,88.25,518.5,84.46,518.5z"/>
	</g>
</g>
<g>
</g>
<g>
</g>
<g>
</g>
<g>
</g>
<g>
</g>
<g>
</g>
<g>
</g>
<g>
</g>
<g>
</g>
<g>
</g>
<g>
</g>
<g>
</g>
<g>
</g>
<g>
</g>
<g>
</g>
</svg>
