<?xml version="1.0" encoding="utf-8"?>
<!-- Generator: Adobe Illustrator 27.2.0, SVG Export Plug-In . SVG Version: 6.00 Build 0)  -->
<svg version="1.1" id="Layer_1" xmlns="http://www.w3.org/2000/svg" xmlns:xlink="http://www.w3.org/1999/xlink" x="0px" y="0px"
	 viewBox="0 0 800 600" style="enable-background:new 0 0 800 600;" xml:space="preserve">
<g>
	<g>
		<g>
			<g>
				<g>
					<rect x="119.49" y="505.4" width="2.83" height="2.83"/>
					<rect x="119.49" y="503.78" width="2.83" height="1.62"/>
					
						<rect x="117.27" y="506.01" transform="matrix(-1.836970e-16 1 -1 -1.836970e-16 625.5032 388.1368)" width="2.83" height="1.62"/>
					
						<rect x="121.72" y="506.01" transform="matrix(-1.836970e-16 1 -1 -1.836970e-16 629.96 383.6801)" width="2.83" height="1.62"/>
					<rect x="119.49" y="508.24" width="2.83" height="1.62"/>
				</g>
				<g>
					<rect x="119.49" y="496.16" width="2.83" height="2.83"/>
					<rect x="119.49" y="491.37" width="2.83" height="4.79"/>
					<rect x="119.49" y="498.99" width="2.83" height="4.79"/>
					<rect x="122.33" y="496.16" width="4.79" height="2.83"/>
					<rect x="114.71" y="496.16" width="4.79" height="2.83"/>
				</g>
				<g>
					<rect x="110.25" y="505.4" width="2.83" height="2.83"/>
					<rect x="110.25" y="500.62" width="2.83" height="4.79"/>
					<rect x="110.25" y="508.24" width="2.83" height="4.79"/>
					<rect x="113.09" y="505.4" width="4.79" height="2.83"/>
					<rect x="105.46" y="505.4" width="4.79" height="2.83"/>
				</g>
				<g>
					<rect x="128.74" y="505.4" width="2.83" height="2.83"/>
					<rect x="128.74" y="500.62" width="2.83" height="4.79"/>
					<rect x="128.74" y="508.24" width="2.83" height="4.79"/>
					<rect x="131.57" y="505.4" width="4.79" height="2.83"/>
					<rect x="123.95" y="505.4" width="4.79" height="2.83"/>
				</g>
				<g>
					<rect x="119.49" y="514.65" width="2.83" height="2.83"/>
					<rect x="119.49" y="509.86" width="2.83" height="4.79"/>
					<rect x="119.49" y="517.48" width="2.83" height="4.79"/>
					<rect x="122.33" y="514.65" width="4.79" height="2.83"/>
					<rect x="114.71" y="514.65" width="4.79" height="2.83"/>
				</g>
			</g>
			<g>
				<g>
					<rect x="137.98" y="505.4" width="2.83" height="2.83"/>
					<rect x="137.98" y="503.78" width="2.83" height="1.62"/>
					
						<rect x="135.75" y="506.01" transform="matrix(-1.836970e-16 1 -1 -1.836970e-16 643.991 369.6491)" width="2.83" height="1.62"/>
					
						<rect x="140.21" y="506.01" transform="matrix(-1.836970e-16 1 -1 -1.836970e-16 648.4476 365.1924)" width="2.83" height="1.62"/>
					<rect x="137.98" y="508.24" width="2.83" height="1.62"/>
				</g>
				<g>
					<rect x="137.98" y="496.16" width="2.83" height="2.83"/>
					<rect x="137.98" y="491.37" width="2.83" height="4.79"/>
					<rect x="137.98" y="498.99" width="2.83" height="4.79"/>
					<rect x="140.82" y="496.16" width="4.79" height="2.83"/>
					<rect x="133.19" y="496.16" width="4.79" height="2.83"/>
				</g>
				<g>
					<rect x="128.74" y="505.4" width="2.83" height="2.83"/>
					<rect x="128.74" y="500.62" width="2.83" height="4.79"/>
					<rect x="128.74" y="508.24" width="2.83" height="4.79"/>
					<rect x="131.57" y="505.4" width="4.79" height="2.83"/>
					<rect x="123.95" y="505.4" width="4.79" height="2.83"/>
				</g>
				<g>
					<rect x="147.23" y="505.4" width="2.83" height="2.83"/>
					<rect x="147.23" y="500.62" width="2.83" height="4.79"/>
					<rect x="147.23" y="508.24" width="2.83" height="4.79"/>
					<rect x="150.06" y="505.4" width="4.79" height="2.83"/>
					<rect x="142.44" y="505.4" width="4.79" height="2.83"/>
				</g>
				<g>
					<rect x="137.98" y="514.65" width="2.83" height="2.83"/>
					<rect x="137.98" y="509.86" width="2.83" height="4.79"/>
					<rect x="137.98" y="517.48" width="2.83" height="4.79"/>
					<rect x="140.82" y="514.65" width="4.79" height="2.83"/>
					<rect x="133.19" y="514.65" width="4.79" height="2.83"/>
				</g>
			</g>
			<g>
				<g>
					<rect x="119.49" y="523.89" width="2.83" height="2.83"/>
					<rect x="119.49" y="522.27" width="2.83" height="1.62"/>
					
						<rect x="117.27" y="524.5" transform="matrix(-1.836970e-16 1 -1 -1.836970e-16 643.991 406.6246)" width="2.83" height="1.62"/>
					
						<rect x="121.72" y="524.5" transform="matrix(-1.836970e-16 1 -1 -1.836970e-16 648.4477 402.1679)" width="2.83" height="1.62"/>
					<rect x="119.49" y="526.73" width="2.83" height="1.62"/>
				</g>
				<g>
					<rect x="119.49" y="514.65" width="2.83" height="2.83"/>
					<rect x="119.49" y="509.86" width="2.83" height="4.79"/>
					<rect x="119.49" y="517.48" width="2.83" height="4.79"/>
					<rect x="122.33" y="514.65" width="4.79" height="2.83"/>
					<rect x="114.71" y="514.65" width="4.79" height="2.83"/>
				</g>
				<g>
					<rect x="110.25" y="523.89" width="2.83" height="2.83"/>
					<rect x="110.25" y="519.1" width="2.83" height="4.79"/>
					<rect x="110.25" y="526.73" width="2.83" height="4.79"/>
					<rect x="113.09" y="523.89" width="4.79" height="2.83"/>
					<rect x="105.46" y="523.89" width="4.79" height="2.83"/>
				</g>
				<g>
					<rect x="128.74" y="523.89" width="2.83" height="2.83"/>
					<rect x="128.74" y="519.1" width="2.83" height="4.79"/>
					<rect x="128.74" y="526.73" width="2.83" height="4.79"/>
					<rect x="131.57" y="523.89" width="4.79" height="2.83"/>
					<rect x="123.95" y="523.89" width="4.79" height="2.83"/>
				</g>
				<g>
					<rect x="119.49" y="533.13" width="2.83" height="2.83"/>
					<rect x="119.49" y="528.35" width="2.83" height="4.79"/>
					<rect x="119.49" y="535.97" width="2.83" height="4.79"/>
					<rect x="122.33" y="533.13" width="4.79" height="2.83"/>
					<rect x="114.71" y="533.13" width="4.79" height="2.83"/>
				</g>
			</g>
			<g>
				<g>
					<rect x="101.01" y="505.4" width="2.83" height="2.83"/>
					<rect x="101.01" y="503.78" width="2.83" height="1.62"/>
					
						<rect x="98.78" y="506.01" transform="matrix(-1.836970e-16 1 -1 -1.836970e-16 607.0155 406.6246)" width="2.83" height="1.62"/>
					
						<rect x="103.23" y="506.01" transform="matrix(-1.836970e-16 1 -1 -1.836970e-16 611.4722 402.1679)" width="2.83" height="1.62"/>
					<rect x="101.01" y="508.24" width="2.83" height="1.62"/>
				</g>
				<g>
					<rect x="101.01" y="496.16" width="2.83" height="2.83"/>
					<rect x="101.01" y="491.37" width="2.83" height="4.79"/>
					<rect x="101.01" y="498.99" width="2.83" height="4.79"/>
					<rect x="103.84" y="496.16" width="4.79" height="2.83"/>
					<rect x="96.22" y="496.16" width="4.79" height="2.83"/>
				</g>
				<g>
					<rect x="91.76" y="505.4" width="2.83" height="2.83"/>
					<rect x="91.76" y="500.62" width="2.83" height="4.79"/>
					<rect x="91.76" y="508.24" width="2.83" height="4.79"/>
					<rect x="94.6" y="505.4" width="4.79" height="2.83"/>
					<rect x="86.98" y="505.4" width="4.79" height="2.83"/>
				</g>
				<g>
					<rect x="110.25" y="505.4" width="2.83" height="2.83"/>
					<rect x="110.25" y="500.62" width="2.83" height="4.79"/>
					<rect x="110.25" y="508.24" width="2.83" height="4.79"/>
					<rect x="113.09" y="505.4" width="4.79" height="2.83"/>
					<rect x="105.46" y="505.4" width="4.79" height="2.83"/>
				</g>
				<g>
					<rect x="101.01" y="514.65" width="2.83" height="2.83"/>
					<rect x="101.01" y="509.86" width="2.83" height="4.79"/>
					<rect x="101.01" y="517.48" width="2.83" height="4.79"/>
					<rect x="103.84" y="514.65" width="4.79" height="2.83"/>
					<rect x="96.22" y="514.65" width="4.79" height="2.83"/>
				</g>
			</g>
			<g>
				<g>
					<rect x="119.49" y="486.91" width="2.83" height="2.83"/>
					<rect x="119.49" y="485.29" width="2.83" height="1.62"/>
					
						<rect x="117.27" y="487.52" transform="matrix(-1.836970e-16 1 -1 -1.836970e-16 607.0155 369.6491)" width="2.83" height="1.62"/>
					
						<rect x="121.72" y="487.52" transform="matrix(-1.836970e-16 1 -1 -1.836970e-16 611.4722 365.1924)" width="2.83" height="1.62"/>
					<rect x="119.49" y="489.75" width="2.83" height="1.62"/>
				</g>
				<g>
					<rect x="119.49" y="477.67" width="2.83" height="2.83"/>
					<rect x="119.49" y="472.88" width="2.83" height="4.79"/>
					<rect x="119.49" y="480.51" width="2.83" height="4.79"/>
					<rect x="122.33" y="477.67" width="4.79" height="2.83"/>
					<rect x="114.71" y="477.67" width="4.79" height="2.83"/>
				</g>
				<g>
					<rect x="110.25" y="486.91" width="2.83" height="2.83"/>
					<rect x="110.25" y="482.13" width="2.83" height="4.79"/>
					<rect x="110.25" y="489.75" width="2.83" height="4.79"/>
					<rect x="113.09" y="486.92" width="4.79" height="2.83"/>
					<rect x="105.46" y="486.91" width="4.79" height="2.83"/>
				</g>
				<g>
					<rect x="128.74" y="486.91" width="2.83" height="2.83"/>
					<rect x="128.74" y="482.13" width="2.83" height="4.79"/>
					<rect x="128.74" y="489.75" width="2.83" height="4.79"/>
					<rect x="131.57" y="486.92" width="4.79" height="2.83"/>
					<rect x="123.95" y="486.91" width="4.79" height="2.83"/>
				</g>
				<g>
					<rect x="119.49" y="496.16" width="2.83" height="2.83"/>
					<rect x="119.49" y="491.37" width="2.83" height="4.79"/>
					<rect x="119.49" y="498.99" width="2.83" height="4.79"/>
					<rect x="122.33" y="496.16" width="4.79" height="2.83"/>
					<rect x="114.71" y="496.16" width="4.79" height="2.83"/>
				</g>
			</g>
		</g>
		<g>
			<rect x="59.24" y="533.13" width="4.79" height="2.83"/>
			<polygon points="85.35,535.97 85.35,535.97 90.14,535.97 90.14,533.13 85.35,533.13 85.35,526.73 91.76,526.73 91.76,531.51 
				94.6,531.51 94.6,526.73 99.38,526.73 99.38,523.89 94.6,523.89 94.6,519.1 91.76,519.1 91.76,523.89 85.35,523.89 85.35,517.48 
				90.14,517.48 90.14,514.65 85.35,514.65 85.35,509.86 82.52,509.86 82.52,514.65 77.73,514.65 77.73,517.48 82.52,517.48 
				82.52,523.89 76.11,523.89 76.11,519.1 73.27,519.1 73.27,523.89 68.49,523.89 68.49,526.73 73.27,526.73 73.27,531.51 
				76.11,531.51 76.11,526.73 82.52,526.73 82.52,533.13 77.73,533.13 77.73,535.97 82.52,535.97 82.52,535.97 			"/>
			<polygon points="71.65,533.13 66.87,533.13 66.87,528.35 64.03,528.35 64.03,535.97 66.87,535.97 66.87,535.97 71.65,535.97 			
				"/>
			<polygon points="103.84,535.97 103.84,535.97 108.63,535.97 108.63,533.13 103.84,533.13 103.84,528.35 101.01,528.35 
				101.01,533.13 96.22,533.13 96.22,535.97 101.01,535.97 101.01,535.97 			"/>
			<polygon points="54.79,550 57.62,550 57.62,545.21 64.03,545.21 64.03,546.83 64.03,546.83 64.03,550 66.87,550 66.87,545.21 
				73.27,545.21 73.27,550 76.11,550 76.11,545.21 82.52,545.21 82.52,550 85.35,550 85.35,545.21 91.76,545.21 91.76,550 94.6,550 
				94.6,545.21 101.01,545.21 101.01,550 103.84,550 103.84,545.21 110.25,545.21 110.25,550 113.09,550 113.09,545.21 
				117.87,545.21 117.87,542.38 113.09,542.38 113.09,537.59 110.25,537.59 110.25,542.38 103.84,542.38 103.84,535.97 
				101.01,535.97 101.01,542.38 94.6,542.38 94.6,537.59 91.76,537.59 91.76,542.38 85.35,542.38 85.35,535.97 82.52,535.97 
				82.52,542.38 76.11,542.38 76.11,537.59 73.27,537.59 73.27,542.38 66.87,542.38 66.87,535.97 64.03,535.97 64.03,540.76 
				64.03,540.76 64.03,542.38 57.62,542.38 57.62,537.59 54.79,537.59 54.79,542.38 50,542.38 50,545.21 54.79,545.21 			"/>
		</g>
		<g>
			<rect x="177.79" y="533.13" width="4.79" height="2.83"/>
			<polygon points="156.47,535.97 156.47,535.97 151.68,535.97 151.68,533.13 156.47,533.13 156.47,526.73 150.06,526.73 
				150.06,531.51 147.23,531.51 147.23,526.73 142.44,526.73 142.44,523.89 147.23,523.89 147.23,519.1 150.06,519.1 150.06,523.89 
				156.47,523.89 156.47,517.48 151.68,517.48 151.68,514.65 156.47,514.65 156.47,509.86 159.3,509.86 159.3,514.65 164.09,514.65 
				164.09,517.48 159.3,517.48 159.3,523.89 165.71,523.89 165.71,519.1 168.55,519.1 168.55,523.89 173.34,523.89 173.34,526.73 
				168.55,526.73 168.55,531.51 165.71,531.51 165.71,526.73 159.3,526.73 159.3,533.13 164.09,533.13 164.09,535.97 159.3,535.97 
				159.3,535.97 			"/>
			<polygon points="170.17,533.13 174.96,533.13 174.96,528.35 177.79,528.35 177.79,535.97 174.96,535.97 174.96,535.97 
				170.17,535.97 			"/>
			<polygon points="137.98,535.97 137.98,535.97 133.19,535.97 133.19,533.13 137.98,533.13 137.98,528.35 140.82,528.35 
				140.82,533.13 145.6,533.13 145.6,535.97 140.82,535.97 140.82,535.97 			"/>
			<polygon points="187.04,550 184.2,550 184.2,545.21 177.79,545.21 177.79,546.83 177.79,546.83 177.79,550 174.96,550 
				174.96,545.21 168.55,545.21 168.55,550 165.71,550 165.71,545.21 159.3,545.21 159.3,550 156.47,550 156.47,545.21 
				150.06,545.21 150.06,550 147.23,550 147.23,545.21 140.82,545.21 140.82,550 137.98,550 137.98,545.21 131.57,545.21 
				131.57,550 128.74,550 128.74,545.21 123.95,545.21 123.95,542.38 128.74,542.38 128.74,537.59 131.57,537.59 131.57,542.38 
				137.98,542.38 137.98,535.97 140.82,535.97 140.82,542.38 147.23,542.38 147.23,537.59 150.06,537.59 150.06,542.38 
				156.47,542.38 156.47,535.97 159.3,535.97 159.3,542.38 165.71,542.38 165.71,537.59 168.55,537.59 168.55,542.38 174.96,542.38 
				174.96,535.97 177.79,535.97 177.79,540.76 177.79,540.76 177.79,542.38 184.2,542.38 184.2,537.59 187.04,537.59 187.04,542.38 
				191.82,542.38 191.82,545.21 187.04,545.21 			"/>
		</g>
		<g>
			<g>
				<g>
					<rect x="119.49" y="433.6" width="2.83" height="2.83"/>
					<rect x="119.49" y="431.98" width="2.83" height="1.62"/>
					
						<rect x="117.27" y="434.21" transform="matrix(-1.836970e-16 1 -1 -1.836970e-16 553.7025 316.336)" width="2.83" height="1.62"/>
					
						<rect x="121.72" y="434.21" transform="matrix(-1.836970e-16 1 -1 -1.836970e-16 558.1591 311.8793)" width="2.83" height="1.62"/>
					<rect x="119.49" y="436.44" width="2.83" height="1.62"/>
				</g>
				<g>
					<rect x="119.49" y="424.36" width="2.83" height="2.83"/>
					<rect x="119.49" y="419.57" width="2.83" height="4.79"/>
					<rect x="119.49" y="427.19" width="2.83" height="4.79"/>
					<rect x="122.33" y="424.36" width="4.79" height="2.83"/>
					<rect x="114.71" y="424.36" width="4.79" height="2.83"/>
				</g>
				<g>
					<rect x="110.25" y="433.6" width="2.83" height="2.83"/>
					<rect x="110.25" y="428.81" width="2.83" height="4.79"/>
					<rect x="110.25" y="436.44" width="2.83" height="4.79"/>
					<rect x="113.09" y="433.6" width="4.79" height="2.83"/>
					<rect x="105.46" y="433.6" width="4.79" height="2.83"/>
				</g>
				<g>
					<rect x="128.74" y="433.6" width="2.83" height="2.83"/>
					<rect x="128.74" y="428.81" width="2.83" height="4.79"/>
					<rect x="128.74" y="436.44" width="2.83" height="4.79"/>
					<rect x="131.57" y="433.6" width="4.79" height="2.83"/>
					<rect x="123.95" y="433.6" width="4.79" height="2.83"/>
				</g>
				<g>
					<rect x="119.49" y="442.85" width="2.83" height="2.83"/>
					<rect x="119.49" y="438.06" width="2.83" height="4.79"/>
					<rect x="119.49" y="445.68" width="2.83" height="4.79"/>
					<rect x="122.33" y="442.85" width="4.79" height="2.83"/>
					<rect x="114.71" y="442.85" width="4.79" height="2.83"/>
				</g>
			</g>
			<g>
				<g>
					<rect x="137.98" y="433.6" width="2.83" height="2.83"/>
					<rect x="137.98" y="431.98" width="2.83" height="1.62"/>
					
						<rect x="135.75" y="434.21" transform="matrix(-1.836970e-16 1 -1 -1.836970e-16 572.1902 297.8483)" width="2.83" height="1.62"/>
					
						<rect x="140.21" y="434.21" transform="matrix(-1.836970e-16 1 -1 -1.836970e-16 576.6469 293.3916)" width="2.83" height="1.62"/>
					<rect x="137.98" y="436.44" width="2.83" height="1.62"/>
				</g>
				<g>
					<rect x="137.98" y="424.36" width="2.83" height="2.83"/>
					<rect x="137.98" y="419.57" width="2.83" height="4.79"/>
					<rect x="137.98" y="427.19" width="2.83" height="4.79"/>
					<rect x="140.82" y="424.36" width="4.79" height="2.83"/>
					<rect x="133.19" y="424.36" width="4.79" height="2.83"/>
				</g>
				<g>
					<rect x="128.74" y="433.6" width="2.83" height="2.83"/>
					<rect x="128.74" y="428.81" width="2.83" height="4.79"/>
					<rect x="128.74" y="436.44" width="2.83" height="4.79"/>
					<rect x="131.57" y="433.6" width="4.79" height="2.83"/>
					<rect x="123.95" y="433.6" width="4.79" height="2.83"/>
				</g>
				<g>
					<rect x="147.23" y="433.6" width="2.83" height="2.83"/>
					<rect x="147.23" y="428.81" width="2.83" height="4.79"/>
					<rect x="147.23" y="436.44" width="2.83" height="4.79"/>
					<rect x="150.06" y="433.6" width="4.79" height="2.83"/>
					<rect x="142.44" y="433.6" width="4.79" height="2.83"/>
				</g>
				<g>
					<rect x="137.98" y="442.85" width="2.83" height="2.83"/>
					<rect x="137.98" y="438.06" width="2.83" height="4.79"/>
					<rect x="137.98" y="445.68" width="2.83" height="4.79"/>
					<rect x="140.82" y="442.85" width="4.79" height="2.83"/>
					<rect x="133.19" y="442.85" width="4.79" height="2.83"/>
				</g>
			</g>
			<g>
				<g>
					<rect x="119.49" y="452.09" width="2.83" height="2.83"/>
					<rect x="119.49" y="450.47" width="2.83" height="1.62"/>
					
						<rect x="117.27" y="452.7" transform="matrix(-1.836970e-16 1 -1 -1.836970e-16 572.1902 334.8238)" width="2.83" height="1.62"/>
					
						<rect x="121.72" y="452.7" transform="matrix(-1.836970e-16 1 -1 -1.836970e-16 576.6469 330.3671)" width="2.83" height="1.62"/>
					<rect x="119.49" y="454.92" width="2.83" height="1.62"/>
				</g>
				<g>
					<rect x="119.49" y="442.85" width="2.83" height="2.83"/>
					<rect x="119.49" y="438.06" width="2.83" height="4.79"/>
					<rect x="119.49" y="445.68" width="2.83" height="4.79"/>
					<rect x="122.33" y="442.85" width="4.79" height="2.83"/>
					<rect x="114.71" y="442.85" width="4.79" height="2.83"/>
				</g>
				<g>
					<rect x="110.25" y="452.09" width="2.83" height="2.83"/>
					<rect x="110.25" y="447.3" width="2.83" height="4.79"/>
					<rect x="110.25" y="454.92" width="2.83" height="4.79"/>
					<rect x="113.09" y="452.09" width="4.79" height="2.83"/>
					<rect x="105.46" y="452.09" width="4.79" height="2.83"/>
				</g>
				<g>
					<rect x="128.74" y="452.09" width="2.83" height="2.83"/>
					<rect x="128.74" y="447.3" width="2.83" height="4.79"/>
					<rect x="128.74" y="454.92" width="2.83" height="4.79"/>
					<rect x="131.57" y="452.09" width="4.79" height="2.83"/>
					<rect x="123.95" y="452.09" width="4.79" height="2.83"/>
				</g>
				<g>
					<rect x="119.49" y="461.33" width="2.83" height="2.83"/>
					<rect x="119.49" y="456.55" width="2.83" height="4.79"/>
					<rect x="119.49" y="464.17" width="2.83" height="4.79"/>
					<rect x="122.33" y="461.33" width="4.79" height="2.83"/>
					<rect x="114.71" y="461.33" width="4.79" height="2.83"/>
				</g>
			</g>
			<g>
				<g>
					<rect x="101.01" y="433.6" width="2.83" height="2.83"/>
					<rect x="101.01" y="431.98" width="2.83" height="1.62"/>
					
						<rect x="98.78" y="434.21" transform="matrix(-1.836970e-16 1 -1 -1.836970e-16 535.2147 334.8238)" width="2.83" height="1.62"/>
					
						<rect x="103.23" y="434.21" transform="matrix(-1.836970e-16 1 -1 -1.836970e-16 539.6714 330.3671)" width="2.83" height="1.62"/>
					<rect x="101.01" y="436.44" width="2.83" height="1.62"/>
				</g>
				<g>
					<rect x="101.01" y="424.36" width="2.83" height="2.83"/>
					<rect x="101.01" y="419.57" width="2.83" height="4.79"/>
					<rect x="101.01" y="427.19" width="2.83" height="4.79"/>
					<rect x="103.84" y="424.36" width="4.79" height="2.83"/>
					<rect x="96.22" y="424.36" width="4.79" height="2.83"/>
				</g>
				<g>
					<rect x="91.76" y="433.6" width="2.83" height="2.83"/>
					<rect x="91.76" y="428.81" width="2.83" height="4.79"/>
					<rect x="91.76" y="436.44" width="2.83" height="4.79"/>
					<rect x="94.6" y="433.6" width="4.79" height="2.83"/>
					<rect x="86.98" y="433.6" width="4.79" height="2.83"/>
				</g>
				<g>
					<rect x="110.25" y="433.6" width="2.83" height="2.83"/>
					<rect x="110.25" y="428.81" width="2.83" height="4.79"/>
					<rect x="110.25" y="436.44" width="2.83" height="4.79"/>
					<rect x="113.09" y="433.6" width="4.79" height="2.83"/>
					<rect x="105.46" y="433.6" width="4.79" height="2.83"/>
				</g>
				<g>
					<rect x="101.01" y="442.85" width="2.83" height="2.83"/>
					<rect x="101.01" y="438.06" width="2.83" height="4.79"/>
					<rect x="101.01" y="445.68" width="2.83" height="4.79"/>
					<rect x="103.84" y="442.85" width="4.79" height="2.83"/>
					<rect x="96.22" y="442.85" width="4.79" height="2.83"/>
				</g>
			</g>
			<g>
				<g>
					<rect x="119.49" y="415.11" width="2.83" height="2.83"/>
					<rect x="119.49" y="413.49" width="2.83" height="1.62"/>
					
						<rect x="117.27" y="415.72" transform="matrix(-1.836970e-16 1 -1 -1.836970e-16 535.2147 297.8483)" width="2.83" height="1.62"/>
					
						<rect x="121.72" y="415.72" transform="matrix(-1.836970e-16 1 -1 -1.836970e-16 539.6714 293.3916)" width="2.83" height="1.62"/>
					<rect x="119.49" y="417.95" width="2.83" height="1.62"/>
				</g>
				<g>
					<rect x="119.49" y="405.87" width="2.83" height="2.83"/>
					<rect x="119.49" y="401.08" width="2.83" height="4.79"/>
					<rect x="119.49" y="408.7" width="2.83" height="4.79"/>
					<rect x="122.33" y="405.87" width="4.79" height="2.83"/>
					<rect x="114.71" y="405.87" width="4.79" height="2.83"/>
				</g>
				<g>
					<rect x="110.25" y="415.11" width="2.83" height="2.83"/>
					<rect x="110.25" y="410.33" width="2.83" height="4.79"/>
					<rect x="110.25" y="417.95" width="2.83" height="4.79"/>
					<rect x="113.09" y="415.11" width="4.79" height="2.83"/>
					<rect x="105.46" y="415.11" width="4.79" height="2.83"/>
				</g>
				<g>
					<rect x="128.74" y="415.11" width="2.83" height="2.83"/>
					<rect x="128.74" y="410.33" width="2.83" height="4.79"/>
					<rect x="128.74" y="417.95" width="2.83" height="4.79"/>
					<rect x="131.57" y="415.11" width="4.79" height="2.83"/>
					<rect x="123.95" y="415.11" width="4.79" height="2.83"/>
				</g>
				<g>
					<rect x="119.49" y="424.36" width="2.83" height="2.83"/>
					<rect x="119.49" y="419.57" width="2.83" height="4.79"/>
					<rect x="119.49" y="427.19" width="2.83" height="4.79"/>
					<rect x="122.33" y="424.36" width="4.79" height="2.83"/>
					<rect x="114.71" y="424.36" width="4.79" height="2.83"/>
				</g>
			</g>
		</g>
		<g>
			<g>
				<g>
					<rect x="119.49" y="378.06" width="2.83" height="2.83"/>
					<rect x="119.49" y="376.44" width="2.83" height="1.62"/>
					
						<rect x="117.27" y="378.67" transform="matrix(-1.836970e-16 1 -1 -1.836970e-16 498.1624 260.796)" width="2.83" height="1.62"/>
					
						<rect x="121.72" y="378.67" transform="matrix(-1.836970e-16 1 -1 -1.836970e-16 502.6191 256.3393)" width="2.83" height="1.62"/>
					<rect x="119.49" y="380.9" width="2.83" height="1.62"/>
				</g>
				<g>
					<rect x="119.49" y="368.82" width="2.83" height="2.83"/>
					<rect x="119.49" y="364.03" width="2.83" height="4.79"/>
					<rect x="119.49" y="371.65" width="2.83" height="4.79"/>
					<rect x="122.33" y="368.82" width="4.79" height="2.83"/>
					<rect x="114.71" y="368.82" width="4.79" height="2.83"/>
				</g>
				<g>
					<rect x="110.25" y="378.06" width="2.83" height="2.83"/>
					<rect x="110.25" y="373.27" width="2.83" height="4.79"/>
					<rect x="110.25" y="380.9" width="2.83" height="4.79"/>
					<rect x="113.09" y="378.06" width="4.79" height="2.83"/>
					<rect x="105.46" y="378.06" width="4.79" height="2.83"/>
				</g>
				<g>
					<rect x="128.74" y="378.06" width="2.83" height="2.83"/>
					<rect x="128.74" y="373.27" width="2.83" height="4.79"/>
					<rect x="128.74" y="380.9" width="2.83" height="4.79"/>
					<rect x="131.57" y="378.06" width="4.79" height="2.83"/>
					<rect x="123.95" y="378.06" width="4.79" height="2.83"/>
				</g>
				<g>
					<rect x="119.49" y="387.31" width="2.83" height="2.83"/>
					<rect x="119.49" y="382.52" width="2.83" height="4.79"/>
					<rect x="119.49" y="390.14" width="2.83" height="4.79"/>
					<rect x="122.33" y="387.31" width="4.79" height="2.83"/>
					<rect x="114.71" y="387.31" width="4.79" height="2.83"/>
				</g>
			</g>
			<g>
				<rect x="137.68" y="368.82" width="2.83" height="2.83"/>
				<rect x="137.68" y="364.03" width="2.83" height="4.79"/>
				<rect x="137.68" y="371.65" width="2.83" height="4.79"/>
				<rect x="140.52" y="368.82" width="4.79" height="2.83"/>
				<rect x="132.9" y="368.82" width="4.79" height="2.83"/>
			</g>
			<g>
				<rect x="119.49" y="353.86" width="2.83" height="2.83"/>
				<rect x="119.49" y="349.07" width="2.83" height="4.79"/>
				<rect x="119.49" y="356.69" width="2.83" height="4.79"/>
				<rect x="122.33" y="353.86" width="4.79" height="2.83"/>
				<rect x="114.71" y="353.86" width="4.79" height="2.83"/>
			</g>
			<g>
				
					<rect x="101.3" y="368.82" transform="matrix(-1 -4.235247e-11 4.235247e-11 -1 205.4437 740.4708)" width="2.83" height="2.83"/>
				<rect x="101.3" y="364.03" width="2.83" height="4.79"/>
				<rect x="101.3" y="371.65" width="2.83" height="4.79"/>
				<rect x="96.52" y="368.82" width="4.79" height="2.83"/>
				<rect x="104.14" y="368.82" width="4.79" height="2.83"/>
			</g>
		</g>
	</g>
	<g>
		<polygon points="197.91,491.68 202.7,491.68 202.7,496.47 205.53,496.47 205.53,491.68 211.94,491.68 211.94,493.3 211.94,493.3 
			211.94,505.71 213.36,505.71 213.36,474.82 211.94,474.82 211.94,487.23 211.94,487.23 211.94,488.85 205.53,488.85 
			205.53,484.06 202.7,484.06 202.7,488.85 197.91,488.85 		"/>
		<rect x="207.15" y="498.09" width="4.79" height="2.83"/>
		<rect x="207.15" y="464.64" width="4.79" height="2.83"/>
		<rect x="211.94" y="459.85" width="1.42" height="12.41"/>
		<rect x="207.15" y="479.6" width="4.79" height="2.83"/>
		<polygon points="213.36,550 213.36,535.97 211.94,535.97 211.94,542.38 205.53,542.38 205.53,537.59 202.7,537.59 202.7,542.38 
			196.29,542.38 196.29,535.97 193.45,535.97 193.45,542.38 187.04,542.38 187.04,537.59 184.21,537.59 184.21,542.38 
			179.42,542.38 179.42,545.21 184.21,545.21 184.21,550 187.04,550 187.04,545.21 193.45,545.21 193.45,550 196.29,550 
			196.29,545.21 202.7,545.21 202.7,550 205.53,550 205.53,545.21 211.94,545.21 211.94,550 		"/>
		<polygon points="213.36,535.97 213.36,509.86 211.94,509.86 211.94,514.65 207.15,514.65 207.15,517.48 211.94,517.48 
			211.94,523.89 205.53,523.89 205.53,519.1 202.7,519.1 202.7,523.89 197.91,523.89 197.91,526.73 202.7,526.73 202.7,531.51 
			205.53,531.51 205.53,526.73 211.94,526.73 211.94,533.13 207.15,533.13 207.15,535.97 211.94,535.97 211.94,535.97 		"/>
		<polygon points="193.75,487.23 196.58,487.23 196.58,482.44 193.75,482.44 193.75,482.44 196.58,482.44 196.58,482.44 
			201.37,482.44 201.37,479.6 196.58,479.6 196.58,474.82 193.75,474.82 193.75,479.6 188.96,479.6 188.96,482.44 193.75,482.44 		
			"/>
		<polygon points="196.29,535.97 196.29,535.97 201.07,535.97 201.07,533.13 196.29,533.13 196.29,528.35 193.45,528.35 
			193.45,533.13 188.66,533.13 188.66,535.97 193.45,535.97 193.45,535.97 		"/>
	</g>
	<g>
		<polygon points="228.81,491.68 224.02,491.68 224.02,496.47 221.18,496.47 221.18,491.68 214.77,491.68 214.77,493.3 
			214.77,493.3 214.77,505.71 213.36,505.71 213.36,474.82 214.77,474.82 214.77,487.23 214.77,487.23 214.77,488.85 221.18,488.85 
			221.18,484.06 224.02,484.06 224.02,488.85 228.81,488.85 		"/>
		<rect x="214.77" y="498.09" width="4.79" height="2.83"/>
		<rect x="214.77" y="464.64" width="4.79" height="2.83"/>
		<rect x="213.36" y="459.85" width="1.42" height="12.41"/>
		<rect x="214.77" y="479.6" width="4.79" height="2.83"/>
		<polygon points="213.36,550 213.36,535.97 214.77,535.97 214.77,542.38 221.18,542.38 221.18,537.59 224.02,537.59 224.02,542.38 
			230.43,542.38 230.43,535.97 233.26,535.97 233.26,542.38 239.67,542.38 239.67,537.59 242.51,537.59 242.51,542.38 
			247.29,542.38 247.29,545.21 242.51,545.21 242.51,550 239.67,550 239.67,545.21 233.26,545.21 233.26,550 230.43,550 
			230.43,545.21 224.02,545.21 224.02,550 221.18,550 221.18,545.21 214.77,545.21 214.77,550 		"/>
		<polygon points="213.36,535.97 213.36,509.86 214.77,509.86 214.77,514.65 219.56,514.65 219.56,517.48 214.77,517.48 
			214.77,523.89 221.18,523.89 221.18,519.1 224.02,519.1 224.02,523.89 228.81,523.89 228.81,526.73 224.02,526.73 224.02,531.51 
			221.18,531.51 221.18,526.73 214.77,526.73 214.77,533.13 219.56,533.13 219.56,535.97 214.77,535.97 214.77,535.97 		"/>
		<polygon points="232.96,487.23 230.13,487.23 230.13,482.44 232.96,482.44 232.96,482.44 230.13,482.44 230.13,482.44 
			225.34,482.44 225.34,479.6 230.13,479.6 230.13,474.82 232.96,474.82 232.96,479.6 237.75,479.6 237.75,482.44 232.96,482.44 		
			"/>
		<polygon points="230.43,535.97 230.43,535.97 225.64,535.97 225.64,533.13 230.43,533.13 230.43,528.35 233.26,528.35 
			233.26,533.13 238.05,533.13 238.05,535.97 233.26,535.97 233.26,535.97 		"/>
	</g>
</g>
<g>
</g>
<g>
</g>
<g>
</g>
<g>
</g>
<g>
</g>
<g>
</g>
<g>
</g>
<g>
</g>
<g>
</g>
<g>
</g>
<g>
</g>
<g>
</g>
<g>
</g>
<g>
</g>
<g>
</g>
</svg>
