<?xml version="1.0" encoding="utf-8"?>
<!-- Generator: Adobe Illustrator 27.2.0, SVG Export Plug-In . SVG Version: 6.00 Build 0)  -->
<svg version="1.1" id="Layer_1" xmlns="http://www.w3.org/2000/svg" xmlns:xlink="http://www.w3.org/1999/xlink" x="0px" y="0px"
	 viewBox="0 0 800 600" style="enable-background:new 0 0 800 600;" xml:space="preserve">
<g>
	<g>
		<polygon points="159.97,195.9 157.13,195.9 157.13,200.68 152.35,200.68 150.72,200.68 150.72,199.06 150.72,194.27 
			155.51,194.27 155.51,191.44 150.72,191.44 150.72,186.65 147.89,186.65 147.89,191.44 143.1,191.44 143.1,194.27 147.89,194.27 
			147.89,199.06 147.89,200.68 146.27,200.68 141.48,200.68 141.48,200.68 141.48,195.9 138.65,195.9 138.65,200.68 133.86,200.68 
			133.86,203.52 138.65,203.52 138.65,208.31 141.48,208.31 141.48,203.52 141.48,203.52 146.27,203.52 146.27,203.52 
			147.89,203.52 147.89,205.14 147.89,209.93 143.1,209.93 143.1,212.76 147.89,212.76 147.89,217.55 150.72,217.55 150.72,212.76 
			155.51,212.76 155.51,209.93 150.72,209.93 150.72,205.14 150.72,203.52 152.35,203.52 152.35,203.52 157.13,203.52 
			157.13,208.31 159.97,208.31 159.97,203.52 164.76,203.52 164.76,200.68 159.97,200.68 		"/>
		<polygon points="143.1,287.67 147.89,287.67 147.89,287.67 147.89,292.45 150.72,292.45 150.72,287.67 150.72,287.67 
			155.51,287.67 155.51,284.83 150.72,284.83 150.72,280.04 150.72,278.42 152.35,278.42 157.13,278.42 157.13,283.21 
			159.97,283.21 159.97,278.42 164.76,278.42 164.76,275.59 159.97,275.59 159.97,270.8 157.13,270.8 157.13,275.59 152.35,275.59 
			150.72,275.59 150.72,273.97 150.72,269.18 150.72,269.18 155.51,269.18 155.51,266.34 150.72,266.34 150.72,261.56 
			147.89,261.56 147.89,266.34 143.1,266.34 143.1,269.18 147.89,269.18 147.89,269.18 147.89,273.97 147.89,273.97 147.89,275.59 
			146.27,275.59 141.48,275.59 141.48,270.8 138.65,270.8 138.65,275.59 133.86,275.59 133.86,278.42 138.65,278.42 138.65,283.21 
			141.48,283.21 141.48,278.42 146.27,278.42 147.89,278.42 147.89,280.04 147.89,280.04 147.89,284.83 143.1,284.83 		"/>
		<polygon points="176.6,309.29 179.98,312.68 176.6,316.06 178.6,318.07 181.99,314.68 185.37,318.07 186.52,319.21 185.37,320.36 
			181.99,323.75 178.6,320.36 176.6,322.37 179.98,325.75 176.6,329.14 178.6,331.14 181.99,327.76 185.37,331.14 187.38,329.14 
			183.99,325.75 187.38,322.37 188.52,321.22 189.67,322.37 193.06,325.75 189.67,329.14 191.68,331.14 195.06,327.76 
			198.45,331.14 200.45,329.14 197.07,325.75 200.45,322.37 198.45,320.36 195.06,323.75 191.68,320.36 190.53,319.21 
			191.68,318.07 195.06,314.68 198.45,318.07 200.45,316.06 197.07,312.68 200.45,309.29 198.45,307.29 195.06,310.67 
			191.68,307.29 189.67,309.29 193.06,312.68 189.67,316.06 188.52,317.21 187.38,316.06 183.99,312.68 187.38,309.29 
			185.37,307.29 181.99,310.67 178.6,307.29 		"/>
		<path d="M160.83,313.89c0.99-3.79,3.52-5.52,7.73-5.27l0.1,0c1.1-0.01,2.27,0.9,2.6,2.02c0.39,1.32-0.56,2.31-1.49,2.92
			c-0.29,0.08-1.12,0.13-1.65-0.27c-0.21-0.16-0.34-0.4-0.43-0.67c0.38-0.36,0.63-0.86,0.63-1.42c0-1.07-0.87-1.95-1.95-1.95
			c-1.07,0-1.94,0.87-1.94,1.95c0,0.28,0.06,0.55,0.17,0.79c0.06,1.98,0.92,3.1,1.73,3.71c1.65,1.25,3.79,1.01,4.75,0.57l0.18-0.1
			c2.51-1.59,3.59-3.98,2.87-6.38c-0.71-2.39-3.05-4.17-5.46-4.17c-5.59-0.31-9.41,2.35-10.76,7.51c-0.34,1.29-0.5,2.71-0.52,4.2
			c-2.69-3.57-3.61-10.34-1.84-15.97c1.07-3.39,4.01-9.01,11.66-8.56l0.1,0c1.1-0.01,2.27,0.9,2.6,2.02
			c0.39,1.32-0.56,2.31-1.49,2.92c-0.3,0.08-1.12,0.14-1.65-0.27c-0.22-0.17-0.35-0.41-0.43-0.69c0.43-0.36,0.71-0.89,0.71-1.49
			c0-1.07-0.87-1.94-1.95-1.94c-1.07,0-1.94,0.87-1.94,1.94c0,0.18,0.03,0.36,0.08,0.53c-0.04,2.2,0.88,3.42,1.74,4.06
			c1.65,1.25,3.79,1.01,4.75,0.57l0.18-0.1c2.51-1.59,3.59-3.98,2.87-6.38c-0.71-2.39-3.05-4.17-5.46-4.17
			c-7.04-0.4-12.38,3.49-14.65,10.66c-0.73,2.31-1.08,4.75-1.08,7.12c0,6.05,2.24,11.71,6.04,14.06l0.05-0.07
			c1.09,7.35,4.96,15.12,9.48,17.37c0.43,1.25,1.6,2.16,3,2.16c1.76,0,3.19-1.43,3.19-3.19c0-1.76-1.43-3.19-3.19-3.19
			c-0.95,0-1.8,0.43-2.38,1.09C163.4,332.65,158.97,320.98,160.83,313.89z"/>
		<path d="M128.95,302.9c0-1.58-1.15-2.88-2.65-3.13c-10.23-26.77,13.43-48.94,23.01-56.54c9.58,7.6,33.24,29.77,23.01,56.54
			c-1.5,0.26-2.65,1.56-2.65,3.13c0,1.76,1.43,3.19,3.19,3.19c1.76,0,3.19-1.43,3.19-3.19c0-0.85-0.34-1.61-0.87-2.18
			c11.55-30.47-17.53-55.02-25.86-61.27c-8.33,6.25-37.41,30.8-25.86,61.27c-0.54,0.57-0.87,1.34-0.87,2.18
			c0,1.76,1.43,3.19,3.19,3.19C127.52,306.09,128.95,304.66,128.95,302.9z"/>
		<path d="M162.55,220.66l0.96-1.38l-3.93-2.73l-1.62,2.33l3.93,2.73l-2.41,3.47c-0.07-0.05-0.14-0.09-0.21-0.14l-2.53,3.89
			c-0.96-0.61-1.91-1.23-2.9-1.8c-0.97-0.58-1.97-1.13-2.97-1.67l2.19-4.1c-0.97-0.51-1.94-1-2.94-1.48l-0.72,1.52v6.82
			c0.96,0.52,1.91,1.04,2.85,1.61c0.94,0.54,1.86,1.14,2.78,1.72l-2.53,3.88c0.76,0.53,1.54,1.02,2.28,1.56l2.68-3.78
			c0.89,0.63,1.77,1.27,2.63,1.94c0.87,0.66,1.71,1.36,2.55,2.06l-2.98,3.55c0.72,0.57,1.38,1.21,2.08,1.82l3.11-3.43
			c0.83,0.71,1.58,1.5,2.38,2.25c0.79,0.75,1.51,1.57,2.27,2.35l-3.4,3.15c0.63,0.66,1.21,1.37,1.82,2.06l3.53-3.01
			c0.73,0.8,1.37,1.69,2.06,2.53c0.7,0.84,1.3,1.75,1.95,2.63l-3.79,2.68c0.55,0.73,1.04,1.5,1.53,2.27l3.9-2.51
			c0.59,0.91,1.18,1.82,1.7,2.78c0.53,0.95,1.12,1.87,1.58,2.86l-4.11,2.14l1.23,2.45l4.2-1.97l1.31,2.99
			c0.44,1,0.77,2.04,1.17,3.06l-4.37,1.57l0.48,1.29l0.4,1.32l4.42-1.4c0.31,1.05,0.68,2.07,0.93,3.13l0.78,3.18l-4.53,1.01
			c0.22,0.89,0.35,1.81,0.53,2.71l4.56-0.83c0.2,1.07,0.42,2.14,0.53,3.23l0.41,3.25l-4.61,0.47c0.09,0.92,0.13,1.85,0.2,2.78
			l4.63-0.3c0.06,1.09,0.18,2.17,0.16,3.27l0.05,3.29l-4.64-0.03c0.04,0.93-0.05,1.87-0.08,2.81l4.64,0.17l-0.14,3.28l3.12,0.22
			l0.14-3.39h0.01l4.63,0.17c0.01-0.08,0.01-0.15,0.01-0.23l4.53,0.07l-0.07,4.78l2.83,0.04l0.07-4.78l4.79,0.06l0.04-2.83
			l-4.79-0.07l0.07-4.79l-2.84-0.04l-0.06,4.79l-4.49-0.06c-0.01-0.04,0-0.09,0-0.13l-4.64-0.03l-0.05-3.39
			c0.02-1.13-0.1-2.26-0.17-3.39l4.63-0.31c-0.08-1.07-0.13-2.13-0.23-3.2l-4.62,0.46l-0.43-3.37c-0.11-1.13-0.34-2.25-0.55-3.36
			l4.57-0.84c-0.02-0.07-0.03-0.15-0.04-0.23l4.41-0.86l0.91,4.7l2.78-0.54l-0.91-4.7l4.7-0.91l-0.54-2.79l-4.7,0.92l-0.92-4.7
			l-2.78,0.54l0.92,4.7l-4.42,0.86c-0.01-0.05-0.02-0.11-0.03-0.16l-4.53,1l-0.82-3.31c-0.26-1.1-0.64-2.17-0.96-3.26l4.43-1.4
			l-0.49-1.55l-0.55-1.53l-4.37,1.57c-0.41-1.06-0.76-2.14-1.22-3.18l-1.37-3.13l4.21-1.97l-0.14-0.27l3.8-1.78l2.03,4.33l2.56-1.2
			l-2.03-4.33l4.34-2.04l-1.21-2.56l-4.33,2.03l-2.04-4.33l-2.56,1.2l2.03,4.33l-3.86,1.82l-0.06-0.11l-4.11,2.14
			c-0.49-1.03-1.1-1.99-1.65-2.99c-0.55-0.99-1.16-1.95-1.78-2.9l3.89-2.52c-0.58-0.92-1.17-1.83-1.82-2.7l-3.79,2.67
			c-0.67-0.91-1.3-1.86-2.03-2.74c-0.72-0.88-1.38-1.8-2.15-2.64l3.53-3.01c-0.05-0.07-0.1-0.13-0.16-0.19l3.23-2.94l3.23,3.54
			l2.09-1.91l-3.22-3.54l3.54-3.22l-1.91-2.1l-3.54,3.22l-3.22-3.54l-2.1,1.91l3.23,3.54l-3.21,2.92c-0.04-0.04-0.07-0.09-0.11-0.13
			l-3.41,3.15c-0.79-0.81-1.55-1.66-2.37-2.45c-0.82-0.78-1.61-1.6-2.47-2.34l3.12-3.44c-0.81-0.71-1.59-1.45-2.44-2.13l-2.98,3.55
			c-0.88-0.72-1.75-1.45-2.66-2.13c-0.89-0.71-1.81-1.37-2.73-2.03l2.68-3.79c-0.04-0.03-0.09-0.06-0.13-0.08l2.4-3.45l3.93,2.74
			l1.62-2.33l-3.93-2.73l2.73-3.94l-2.33-1.61l-2.73,3.93L162.55,220.66z"/>
		<polygon points="122.01,329.14 118.63,325.75 122.01,322.37 120.01,320.36 116.62,323.75 113.24,320.36 112.09,319.21 
			113.24,318.07 116.62,314.68 120.01,318.07 122.01,316.06 118.63,312.68 122.01,309.29 120.01,307.29 116.62,310.67 
			113.24,307.29 111.23,309.29 114.62,312.68 111.23,316.06 110.09,317.21 108.94,316.06 105.55,312.68 108.94,309.29 
			106.93,307.29 103.55,310.67 100.16,307.29 98.16,309.29 101.55,312.68 98.16,316.06 100.16,318.07 103.55,314.68 106.93,318.07 
			108.08,319.21 106.93,320.36 103.55,323.75 100.16,320.36 98.16,322.37 101.55,325.75 98.16,329.14 100.16,331.14 103.55,327.76 
			106.93,331.14 108.94,329.14 105.55,325.75 108.94,322.37 110.09,321.22 111.23,322.37 114.62,325.75 111.23,329.14 
			113.24,331.14 116.62,327.76 120.01,331.14 		"/>
		<path d="M131.41,338.93c4.52-2.25,8.4-10.02,9.49-17.37l0.04,0.06c5.28-3.26,7.56-12.96,4.96-21.17
			c-2.26-7.17-7.6-11.05-14.65-10.66c-2.41,0-4.75,1.79-5.46,4.17c-0.14,0.49-0.22,0.98-0.22,1.46c0,1.88,1.09,3.66,3.09,4.93
			l0.18,0.1c0.96,0.44,3.1,0.67,4.75-0.57c0.86-0.65,1.78-1.87,1.74-4.06c0.05-0.17,0.08-0.34,0.08-0.53c0-1.07-0.87-1.94-1.94-1.94
			c-1.07,0-1.95,0.87-1.95,1.94c0,0.6,0.28,1.14,0.71,1.49c-0.08,0.28-0.22,0.52-0.43,0.69c-0.52,0.41-1.35,0.35-1.65,0.27
			c-0.92-0.61-1.88-1.6-1.49-2.92c0.33-1.13,1.5-2.04,2.6-2.02l0.1,0c7.65-0.45,10.59,5.17,11.66,8.56
			c1.78,5.62,0.86,12.4-1.83,15.97c-0.02-1.49-0.18-2.91-0.52-4.2c-1.35-5.15-5.17-7.82-10.76-7.51c-2.41,0-4.75,1.79-5.46,4.17
			c-0.14,0.49-0.22,0.98-0.22,1.46c0,1.88,1.09,3.66,3.09,4.93l0.18,0.1c0.96,0.44,3.1,0.68,4.75-0.57
			c0.81-0.61,1.67-1.74,1.73-3.71c0.11-0.24,0.17-0.51,0.17-0.79c0-1.07-0.87-1.95-1.94-1.95c-1.07,0-1.95,0.87-1.95,1.95
			c0,0.56,0.24,1.07,0.63,1.42c-0.08,0.27-0.21,0.51-0.43,0.67c-0.52,0.41-1.35,0.35-1.65,0.27c-0.92-0.61-1.88-1.6-1.49-2.92
			c0.33-1.13,1.5-2.04,2.6-2.02l0.1,0c4.21-0.25,6.74,1.48,7.73,5.27c1.86,7.09-2.57,18.76-7,21.92c-0.58-0.66-1.43-1.09-2.38-1.09
			c-1.76,0-3.19,1.43-3.19,3.19c0,1.76,1.43,3.19,3.19,3.19C129.81,341.09,130.98,340.18,131.41,338.93z"/>
		<path d="M97.71,303.58l-0.07-4.78l4.53-0.07c0,0.08,0.01,0.15,0.01,0.23l4.64-0.17l0.14,3.39l3.12-0.22l-0.14-3.28l4.64-0.17
			c-0.03-0.94-0.12-1.88-0.08-2.81l-4.63,0.03l0.04-3.29c-0.02-1.1,0.1-2.18,0.16-3.27l4.63,0.3c0.07-0.93,0.11-1.86,0.2-2.78
			l-4.61-0.47l0.41-3.25c0.11-1.09,0.33-2.16,0.53-3.23l4.56,0.83c0.18-0.9,0.31-1.82,0.53-2.71l-4.53-1.01l0.78-3.18
			c0.25-1.06,0.62-2.08,0.93-3.13l4.42,1.4l0.4-1.32l0.48-1.29l-4.36-1.57c0.39-1.02,0.72-2.06,1.16-3.06l1.31-2.99l4.2,1.97
			l1.23-2.45l-4.11-2.14c0.46-0.99,1.05-1.91,1.58-2.86c0.52-0.96,1.11-1.87,1.71-2.78l3.89,2.51c0.49-0.77,0.98-1.54,1.53-2.27
			l-3.78-2.68c0.64-0.88,1.24-1.79,1.94-2.63c0.69-0.84,1.33-1.73,2.06-2.53l3.53,3.01c0.61-0.69,1.19-1.4,1.82-2.06l-3.4-3.15
			c0.76-0.78,1.48-1.6,2.27-2.35c0.8-0.75,1.55-1.54,2.38-2.25l3.11,3.43c0.7-0.61,1.36-1.25,2.09-1.82l-2.99-3.55
			c0.84-0.7,1.68-1.4,2.55-2.06c0.86-0.67,1.74-1.31,2.63-1.94l2.68,3.78c0.74-0.54,1.52-1.03,2.28-1.56l-2.53-3.88
			c0.93-0.58,1.84-1.18,2.78-1.72c0.94-0.57,1.89-1.09,2.85-1.61v-6.82l-0.72-1.52c-1,0.48-1.97,0.97-2.93,1.48l2.18,4.1
			c-1,0.54-2,1.09-2.97,1.67c-0.99,0.57-1.94,1.19-2.9,1.8l-2.53-3.89c-0.07,0.05-0.14,0.09-0.21,0.14l-2.41-3.47l3.93-2.73
			l-1.62-2.33l-3.93,2.74l-2.73-3.93l-2.33,1.61l2.74,3.94l-3.93,2.73l1.61,2.33l3.93-2.74l2.4,3.45c-0.04,0.02-0.09,0.05-0.13,0.08
			l2.68,3.79c-0.92,0.66-1.84,1.32-2.73,2.03c-0.91,0.68-1.78,1.41-2.65,2.13h-0.01l-2.98-3.55c-0.84,0.68-1.63,1.42-2.44,2.13
			l3.12,3.44c-0.86,0.74-1.65,1.56-2.47,2.34c-0.82,0.79-1.58,1.64-2.37,2.45l-3.41-3.15c-0.04,0.04-0.07,0.09-0.11,0.13l-3.21-2.92
			l3.23-3.54l-2.1-1.91l-3.22,3.54l-3.54-3.22l-1.91,2.1l3.54,3.22l-3.22,3.54l2.09,1.91l3.23-3.54l3.23,2.94
			c-0.06,0.06-0.11,0.12-0.16,0.19l3.53,3.01c-0.77,0.84-1.43,1.76-2.15,2.64c-0.73,0.88-1.36,1.83-2.03,2.74l-3.79-2.67
			c-0.65,0.87-1.24,1.78-1.82,2.7l3.89,2.52h0.01c-0.63,0.95-1.24,1.91-1.79,2.9c-0.55,1-1.16,1.96-1.65,2.99l-4.11-2.14l-0.06,0.11
			l-3.86-1.82l2.03-4.33l-2.56-1.2l-2.04,4.33l-4.33-2.03l-1.2,2.56l4.33,2.04l-2.03,4.33l2.56,1.2l2.04-4.33l3.79,1.78l-0.14,0.27
			l4.21,1.97l-1.37,3.13c-0.46,1.04-0.81,2.12-1.22,3.18l-4.36-1.57l-0.56,1.53l-0.48,1.55l4.42,1.4c-0.32,1.09-0.7,2.16-0.96,3.26
			l-0.82,3.31l-4.53-1c-0.01,0.05-0.02,0.11-0.03,0.16l-4.41-0.86l0.91-4.7l-2.78-0.54l-0.92,4.7l-4.7-0.92l-0.54,2.79l4.7,0.91
			l-0.91,4.7l2.78,0.54l0.91-4.7l4.41,0.86c-0.01,0.08-0.02,0.16-0.04,0.23l4.57,0.84c-0.21,1.11-0.43,2.23-0.55,3.36l-0.43,3.37
			l-4.61-0.46c-0.11,1.07-0.16,2.13-0.24,3.2l4.63,0.31c-0.06,1.04-0.17,2.09-0.17,3.13v0.26l-0.04,3.39h-0.01l-4.64,0.03
			c0,0.04,0.01,0.09,0.01,0.13l-4.5,0.06l-0.06-4.79l-2.84,0.04l0.07,4.79l-4.79,0.07l0.04,2.83l4.79-0.06l0.07,4.78L97.71,303.58z"
			/>
	</g>
	<g>
		<polygon points="159.97,540.76 157.13,540.76 157.13,535.97 152.35,535.97 150.72,535.97 150.72,537.59 150.72,542.38 
			155.51,542.38 155.51,545.21 150.72,545.21 150.72,550 147.89,550 147.89,545.21 143.1,545.21 143.1,542.38 147.89,542.38 
			147.89,537.59 147.89,535.97 146.27,535.97 141.48,535.97 141.48,535.97 141.48,540.76 138.65,540.76 138.65,535.97 
			133.86,535.97 133.86,533.13 138.65,533.13 138.65,528.35 141.48,528.35 141.48,533.13 141.48,533.13 146.27,533.13 
			146.27,533.13 147.89,533.13 147.89,531.51 147.89,526.73 143.1,526.73 143.1,523.89 147.89,523.89 147.89,519.1 150.72,519.1 
			150.72,523.89 155.51,523.89 155.51,526.73 150.72,526.73 150.72,531.51 150.72,533.13 152.35,533.13 152.35,533.13 
			157.13,533.13 157.13,528.35 159.97,528.35 159.97,533.13 164.76,533.13 164.76,535.97 159.97,535.97 		"/>
		<polygon points="143.1,448.99 147.89,448.99 147.89,448.99 147.89,444.2 150.72,444.2 150.72,448.99 150.72,448.99 155.51,448.99 
			155.51,451.82 150.72,451.82 150.72,456.61 150.72,458.23 152.35,458.23 157.13,458.23 157.13,453.44 159.97,453.44 
			159.97,458.23 164.76,458.23 164.76,461.06 159.97,461.06 159.97,465.85 157.13,465.85 157.13,461.06 152.35,461.06 
			150.72,461.06 150.72,462.69 150.72,467.47 150.72,467.47 155.51,467.47 155.51,470.31 150.72,470.31 150.72,475.1 147.89,475.1 
			147.89,470.31 143.1,470.31 143.1,467.47 147.89,467.47 147.89,467.47 147.89,462.69 147.89,462.69 147.89,461.06 146.27,461.06 
			141.48,461.06 141.48,465.85 138.65,465.85 138.65,461.06 133.86,461.06 133.86,458.23 138.65,458.23 138.65,453.44 
			141.48,453.44 141.48,458.23 146.27,458.23 147.89,458.23 147.89,456.61 147.89,456.61 147.89,451.82 143.1,451.82 		"/>
		<polygon points="176.6,427.36 179.98,423.97 176.6,420.59 178.6,418.58 181.99,421.97 185.37,418.58 186.52,417.44 185.37,416.29 
			181.99,412.9 178.6,416.29 176.6,414.28 179.98,410.9 176.6,407.51 178.6,405.51 181.99,408.89 185.37,405.51 187.38,407.51 
			183.99,410.9 187.38,414.28 188.52,415.43 189.67,414.28 193.06,410.9 189.67,407.51 191.68,405.51 195.06,408.89 198.45,405.51 
			200.45,407.51 197.07,410.9 200.45,414.28 198.45,416.29 195.06,412.9 191.68,416.29 190.53,417.44 191.68,418.58 195.06,421.97 
			198.45,418.58 200.45,420.59 197.07,423.97 200.45,427.36 198.45,429.36 195.06,425.98 191.68,429.36 189.67,427.36 
			193.06,423.97 189.67,420.59 188.52,419.44 187.38,420.59 183.99,423.97 187.38,427.36 185.37,429.36 181.99,425.98 178.6,429.36 
					"/>
		<path d="M160.83,422.76c0.99,3.79,3.52,5.52,7.73,5.27l0.1,0c1.1,0.01,2.27-0.9,2.6-2.02c0.39-1.32-0.56-2.31-1.49-2.92
			c-0.29-0.08-1.12-0.13-1.65,0.27c-0.21,0.16-0.34,0.4-0.43,0.67c0.38,0.36,0.63,0.86,0.63,1.42c0,1.07-0.87,1.95-1.95,1.95
			c-1.07,0-1.94-0.87-1.94-1.95c0-0.28,0.06-0.55,0.17-0.79c0.06-1.98,0.92-3.1,1.73-3.71c1.65-1.25,3.79-1.01,4.75-0.57l0.18,0.1
			c2.51,1.59,3.59,3.98,2.87,6.38c-0.71,2.39-3.05,4.17-5.46,4.17c-5.59,0.31-9.41-2.35-10.76-7.51c-0.34-1.29-0.5-2.71-0.52-4.2
			c-2.69,3.57-3.61,10.34-1.84,15.97c1.07,3.39,4.01,9.01,11.66,8.56l0.1,0c1.1,0.01,2.27-0.9,2.6-2.02
			c0.39-1.32-0.56-2.31-1.49-2.92c-0.3-0.08-1.12-0.14-1.65,0.27c-0.22,0.17-0.35,0.41-0.43,0.69c0.43,0.36,0.71,0.89,0.71,1.49
			c0,1.07-0.87,1.94-1.95,1.94c-1.07,0-1.94-0.87-1.94-1.94c0-0.18,0.03-0.36,0.08-0.53c-0.04-2.2,0.88-3.42,1.74-4.06
			c1.65-1.25,3.79-1.01,4.75-0.57l0.18,0.1c2.51,1.59,3.59,3.98,2.87,6.38c-0.71,2.39-3.05,4.17-5.46,4.17
			c-7.04,0.4-12.38-3.49-14.65-10.66c-0.73-2.31-1.08-4.75-1.08-7.12c0-6.05,2.24-11.71,6.04-14.06l0.05,0.07
			c1.09-7.35,4.96-15.12,9.48-17.37c0.43-1.25,1.6-2.16,3-2.16c1.76,0,3.19,1.43,3.19,3.19c0,1.76-1.43,3.19-3.19,3.19
			c-0.95,0-1.8-0.43-2.38-1.09C163.4,404,158.97,415.68,160.83,422.76z"/>
		<path d="M128.95,433.75c0,1.58-1.15,2.88-2.65,3.13c-10.23,26.77,13.43,48.94,23.01,56.54c9.58-7.6,33.24-29.77,23.01-56.54
			c-1.5-0.26-2.65-1.56-2.65-3.13c0-1.76,1.43-3.19,3.19-3.19c1.76,0,3.19,1.43,3.19,3.19c0,0.85-0.34,1.61-0.87,2.18
			c11.55,30.47-17.53,55.02-25.86,61.27c-8.33-6.25-37.41-30.8-25.86-61.27c-0.54-0.57-0.87-1.34-0.87-2.18
			c0-1.76,1.43-3.19,3.19-3.19C127.52,430.57,128.95,431.99,128.95,433.75z"/>
		<path d="M162.55,515.99l0.96,1.38l-3.93,2.73l-1.62-2.33l3.93-2.73l-2.41-3.47c-0.07,0.05-0.14,0.09-0.21,0.14l-2.53-3.89
			c-0.96,0.61-1.91,1.23-2.9,1.8c-0.97,0.58-1.97,1.13-2.97,1.67l2.19,4.1c-0.97,0.51-1.94,1-2.94,1.48l-0.72-1.52v-6.82
			c0.96-0.52,1.91-1.04,2.85-1.61c0.94-0.54,1.86-1.14,2.78-1.72l-2.53-3.88c0.76-0.53,1.54-1.02,2.28-1.56l2.68,3.78
			c0.89-0.63,1.77-1.27,2.63-1.94c0.87-0.66,1.71-1.36,2.55-2.06l-2.98-3.55c0.72-0.57,1.38-1.21,2.08-1.82l3.11,3.43
			c0.83-0.71,1.58-1.5,2.38-2.25c0.79-0.75,1.51-1.57,2.27-2.35l-3.4-3.15c0.63-0.66,1.21-1.37,1.82-2.06l3.53,3.01
			c0.73-0.8,1.37-1.69,2.06-2.53c0.7-0.84,1.3-1.75,1.95-2.63l-3.79-2.68c0.55-0.73,1.04-1.5,1.53-2.27l3.9,2.51
			c0.59-0.91,1.18-1.82,1.7-2.78c0.53-0.95,1.12-1.87,1.58-2.86l-4.11-2.14l1.23-2.45l4.2,1.97l1.31-2.99
			c0.44-1,0.77-2.04,1.17-3.06l-4.37-1.57l0.48-1.29l0.4-1.32l4.42,1.4c0.31-1.05,0.68-2.07,0.93-3.13l0.78-3.18l-4.53-1.01
			c0.22-0.89,0.35-1.81,0.53-2.71l4.56,0.83c0.2-1.07,0.42-2.14,0.53-3.23l0.41-3.25l-4.61-0.47c0.09-0.92,0.13-1.85,0.2-2.78
			l4.63,0.3c0.06-1.09,0.18-2.17,0.16-3.27l0.05-3.29l-4.64,0.03c0.04-0.93-0.05-1.87-0.08-2.81l4.64-0.17l-0.14-3.28l3.12-0.22
			l0.14,3.39h0.01l4.63-0.17c0.01,0.08,0.01,0.15,0.01,0.23l4.53-0.07l-0.07-4.78l2.83-0.04l0.07,4.78l4.79-0.06l0.04,2.83
			l-4.79,0.07l0.07,4.79l-2.84,0.04l-0.06-4.79l-4.49,0.06c-0.01,0.04,0,0.09,0,0.13l-4.64,0.03l-0.05,3.39
			c0.02,1.13-0.1,2.26-0.17,3.39l4.63,0.31c-0.08,1.07-0.13,2.13-0.23,3.2l-4.62-0.46l-0.43,3.37c-0.11,1.13-0.34,2.25-0.55,3.36
			l4.57,0.84c-0.02,0.07-0.03,0.15-0.04,0.23l4.41,0.86l0.91-4.7l2.78,0.54l-0.91,4.7l4.7,0.91l-0.54,2.79l-4.7-0.92l-0.92,4.7
			l-2.78-0.54l0.92-4.7l-4.42-0.86c-0.01,0.05-0.02,0.11-0.03,0.16l-4.53-1l-0.82,3.31c-0.26,1.1-0.64,2.17-0.96,3.26l4.43,1.4
			l-0.49,1.55l-0.55,1.53l-4.37-1.57c-0.41,1.06-0.76,2.14-1.22,3.18l-1.37,3.13l4.21,1.97l-0.14,0.27l3.8,1.78l2.03-4.33l2.56,1.2
			l-2.03,4.33l4.34,2.04l-1.21,2.56l-4.33-2.03l-2.04,4.33l-2.56-1.2l2.03-4.33l-3.86-1.82l-0.06,0.11l-4.11-2.14
			c-0.49,1.03-1.1,1.99-1.65,2.99c-0.55,0.99-1.16,1.95-1.78,2.9l3.89,2.52c-0.58,0.92-1.17,1.83-1.82,2.7l-3.79-2.67
			c-0.67,0.91-1.3,1.86-2.03,2.74c-0.72,0.88-1.38,1.8-2.15,2.64l3.53,3.01c-0.05,0.07-0.1,0.13-0.16,0.19l3.23,2.94l3.23-3.54
			l2.09,1.91l-3.22,3.54l3.54,3.22l-1.91,2.1l-3.54-3.22l-3.22,3.54l-2.1-1.91l3.23-3.54l-3.21-2.92c-0.04,0.04-0.07,0.09-0.11,0.13
			l-3.41-3.15c-0.79,0.81-1.55,1.66-2.37,2.45c-0.82,0.78-1.61,1.6-2.47,2.34l3.12,3.44c-0.81,0.71-1.59,1.45-2.44,2.13l-2.98-3.55
			c-0.88,0.72-1.75,1.45-2.66,2.13c-0.89,0.71-1.81,1.37-2.73,2.03l2.68,3.79c-0.04,0.03-0.09,0.06-0.13,0.08l2.4,3.45l3.93-2.74
			l1.62,2.33l-3.93,2.73l2.73,3.94l-2.33,1.61l-2.73-3.93L162.55,515.99z"/>
		<polygon points="122.01,407.51 118.63,410.9 122.01,414.28 120.01,416.29 116.62,412.9 113.24,416.29 112.09,417.44 
			113.24,418.58 116.62,421.97 120.01,418.58 122.01,420.59 118.63,423.97 122.01,427.36 120.01,429.36 116.62,425.98 
			113.24,429.36 111.23,427.36 114.62,423.97 111.23,420.59 110.09,419.44 108.94,420.59 105.55,423.97 108.94,427.36 
			106.93,429.36 103.55,425.98 100.16,429.36 98.16,427.36 101.55,423.97 98.16,420.59 100.16,418.58 103.55,421.97 106.93,418.58 
			108.08,417.44 106.93,416.29 103.55,412.9 100.16,416.29 98.16,414.28 101.55,410.9 98.16,407.51 100.16,405.51 103.55,408.89 
			106.93,405.51 108.94,407.51 105.55,410.9 108.94,414.28 110.09,415.43 111.23,414.28 114.62,410.9 111.23,407.51 113.24,405.51 
			116.62,408.89 120.01,405.51 		"/>
		<path d="M131.41,397.72c4.52,2.25,8.4,10.02,9.49,17.37l0.04-0.06c5.28,3.26,7.56,12.96,4.96,21.17
			c-2.26,7.17-7.6,11.05-14.65,10.66c-2.41,0-4.75-1.79-5.46-4.17c-0.14-0.49-0.22-0.98-0.22-1.46c0-1.88,1.09-3.66,3.09-4.93
			l0.18-0.1c0.96-0.44,3.1-0.67,4.75,0.57c0.86,0.65,1.78,1.87,1.74,4.06c0.05,0.17,0.08,0.34,0.08,0.53c0,1.07-0.87,1.94-1.94,1.94
			c-1.07,0-1.95-0.87-1.95-1.94c0-0.6,0.28-1.14,0.71-1.49c-0.08-0.28-0.22-0.52-0.43-0.69c-0.52-0.41-1.35-0.35-1.65-0.27
			c-0.92,0.61-1.88,1.6-1.49,2.92c0.33,1.13,1.5,2.04,2.6,2.02l0.1,0c7.65,0.45,10.59-5.17,11.66-8.56
			c1.78-5.62,0.86-12.4-1.83-15.97c-0.02,1.49-0.18,2.91-0.52,4.2c-1.35,5.15-5.17,7.82-10.76,7.51c-2.41,0-4.75-1.79-5.46-4.17
			c-0.14-0.49-0.22-0.98-0.22-1.46c0-1.88,1.09-3.66,3.09-4.93l0.18-0.1c0.96-0.44,3.1-0.68,4.75,0.57
			c0.81,0.61,1.67,1.74,1.73,3.71c0.11,0.24,0.17,0.51,0.17,0.79c0,1.07-0.87,1.95-1.94,1.95c-1.07,0-1.95-0.87-1.95-1.95
			c0-0.56,0.24-1.07,0.63-1.42c-0.08-0.27-0.21-0.51-0.43-0.67c-0.52-0.41-1.35-0.35-1.65-0.27c-0.92,0.61-1.88,1.6-1.49,2.92
			c0.33,1.13,1.5,2.04,2.6,2.02l0.1,0c4.21,0.25,6.74-1.48,7.73-5.27c1.86-7.09-2.57-18.76-7-21.92c-0.58,0.66-1.43,1.09-2.38,1.09
			c-1.76,0-3.19-1.43-3.19-3.19c0-1.76,1.43-3.19,3.19-3.19C129.81,395.56,130.98,396.47,131.41,397.72z"/>
		<path d="M97.71,433.07l-0.07,4.78l4.53,0.07c0-0.08,0.01-0.15,0.01-0.23l4.64,0.17l0.14-3.39l3.12,0.22l-0.14,3.28l4.64,0.17
			c-0.03,0.94-0.12,1.88-0.08,2.81l-4.63-0.03l0.04,3.29c-0.02,1.1,0.1,2.18,0.16,3.27l4.63-0.3c0.07,0.93,0.11,1.86,0.2,2.78
			l-4.61,0.47l0.41,3.25c0.11,1.09,0.33,2.16,0.53,3.23l4.56-0.83c0.18,0.9,0.31,1.82,0.53,2.71l-4.53,1.01l0.78,3.18
			c0.25,1.06,0.62,2.08,0.93,3.13l4.42-1.4l0.4,1.32l0.48,1.29l-4.36,1.57c0.39,1.02,0.72,2.06,1.16,3.06l1.31,2.99l4.2-1.97
			l1.23,2.45l-4.11,2.14c0.46,0.99,1.05,1.91,1.58,2.86c0.52,0.96,1.11,1.87,1.71,2.78l3.89-2.51c0.49,0.77,0.98,1.54,1.53,2.27
			l-3.78,2.68c0.64,0.88,1.24,1.79,1.94,2.63c0.69,0.84,1.33,1.73,2.06,2.53l3.53-3.01c0.61,0.69,1.19,1.4,1.82,2.06l-3.4,3.15
			c0.76,0.78,1.48,1.6,2.27,2.35c0.8,0.75,1.55,1.54,2.38,2.25l3.11-3.43c0.7,0.61,1.36,1.25,2.09,1.82l-2.99,3.55
			c0.84,0.7,1.68,1.4,2.55,2.06c0.86,0.67,1.74,1.31,2.63,1.94l2.68-3.78c0.74,0.54,1.52,1.03,2.28,1.56l-2.53,3.88
			c0.93,0.58,1.84,1.18,2.78,1.72c0.94,0.57,1.89,1.09,2.85,1.61v6.82l-0.72,1.52c-1-0.48-1.97-0.97-2.93-1.48l2.18-4.1
			c-1-0.54-2-1.09-2.97-1.67c-0.99-0.57-1.94-1.19-2.9-1.8l-2.53,3.89c-0.07-0.05-0.14-0.09-0.21-0.14l-2.41,3.47l3.93,2.73
			l-1.62,2.33l-3.93-2.74l-2.73,3.93l-2.33-1.61l2.74-3.94l-3.93-2.73l1.61-2.33l3.93,2.74l2.4-3.45c-0.04-0.02-0.09-0.05-0.13-0.08
			l2.68-3.79c-0.92-0.66-1.84-1.32-2.73-2.03c-0.91-0.68-1.78-1.41-2.65-2.13h-0.01l-2.98,3.55c-0.84-0.68-1.63-1.42-2.44-2.13
			l3.12-3.44c-0.86-0.74-1.65-1.56-2.47-2.34c-0.82-0.79-1.58-1.64-2.37-2.45l-3.41,3.15c-0.04-0.04-0.07-0.09-0.11-0.13l-3.21,2.92
			l3.23,3.54l-2.1,1.91l-3.22-3.54l-3.54,3.22l-1.91-2.1l3.54-3.22l-3.22-3.54l2.09-1.91l3.23,3.54l3.23-2.94
			c-0.06-0.06-0.11-0.12-0.16-0.19l3.53-3.01c-0.77-0.84-1.43-1.76-2.15-2.64c-0.73-0.88-1.36-1.83-2.03-2.74l-3.79,2.67
			c-0.65-0.87-1.24-1.78-1.82-2.7l3.89-2.52h0.01c-0.63-0.95-1.24-1.91-1.79-2.9c-0.55-1-1.16-1.96-1.65-2.99l-4.11,2.14l-0.06-0.11
			l-3.86,1.82l2.03,4.33l-2.56,1.2l-2.04-4.33l-4.33,2.03l-1.2-2.56l4.33-2.04l-2.03-4.33l2.56-1.2l2.04,4.33l3.79-1.78l-0.14-0.27
			l4.21-1.97l-1.37-3.13c-0.46-1.04-0.81-2.12-1.22-3.18l-4.36,1.57l-0.56-1.53l-0.48-1.55l4.42-1.4c-0.32-1.09-0.7-2.16-0.96-3.26
			l-0.82-3.31l-4.53,1c-0.01-0.05-0.02-0.11-0.03-0.16l-4.41,0.86l0.91,4.7l-2.78,0.54l-0.92-4.7l-4.7,0.92l-0.54-2.79l4.7-0.91
			l-0.91-4.7l2.78-0.54l0.91,4.7l4.41-0.86c-0.01-0.08-0.02-0.16-0.04-0.23l4.57-0.84c-0.21-1.11-0.43-2.23-0.55-3.36l-0.43-3.37
			l-4.61,0.46c-0.11-1.07-0.16-2.13-0.24-3.2l4.63-0.31c-0.06-1.04-0.17-2.09-0.17-3.13v-0.26l-0.04-3.39h-0.01l-4.64-0.03
			c0-0.04,0.01-0.09,0.01-0.13l-4.5-0.06l-0.06,4.79l-2.84-0.04l0.07-4.79l-4.79-0.07l0.04-2.83l4.79,0.06l0.07-4.78L97.71,433.07z"
			/>
	</g>
	<g>
		<g>
			<g>
				<rect x="147.89" y="366.91" width="2.83" height="2.83"/>
				<rect x="147.89" y="365.29" width="2.83" height="1.62"/>
				
					<rect x="145.66" y="367.52" transform="matrix(-1.836970e-16 1 -1 -1.836970e-16 515.4045 221.2479)" width="2.83" height="1.62"/>
				
					<rect x="150.12" y="367.52" transform="matrix(-1.836970e-16 1 -1 -1.836970e-16 519.8612 216.7912)" width="2.83" height="1.62"/>
				<rect x="147.89" y="369.74" width="2.83" height="1.62"/>
			</g>
			<g>
				<rect x="147.89" y="357.67" width="2.83" height="2.83"/>
				<rect x="147.89" y="352.88" width="2.83" height="4.79"/>
				<rect x="147.89" y="360.5" width="2.83" height="4.79"/>
				<rect x="150.72" y="357.67" width="4.79" height="2.83"/>
				<rect x="143.1" y="357.67" width="4.79" height="2.83"/>
			</g>
			<g>
				<rect x="138.65" y="366.91" width="2.83" height="2.83"/>
				<rect x="138.65" y="362.12" width="2.83" height="4.79"/>
				<rect x="138.65" y="369.74" width="2.83" height="4.79"/>
				<rect x="141.48" y="366.91" width="4.79" height="2.83"/>
				<rect x="133.86" y="366.91" width="4.79" height="2.83"/>
			</g>
			<g>
				<rect x="157.13" y="366.91" width="2.83" height="2.83"/>
				<rect x="157.13" y="362.12" width="2.83" height="4.79"/>
				<rect x="157.13" y="369.74" width="2.83" height="4.79"/>
				<rect x="159.97" y="366.91" width="4.79" height="2.83"/>
				<rect x="152.35" y="366.91" width="4.79" height="2.83"/>
			</g>
			<g>
				<rect x="147.89" y="376.15" width="2.83" height="2.83"/>
				<rect x="147.89" y="371.37" width="2.83" height="4.79"/>
				<rect x="147.89" y="378.99" width="2.83" height="4.79"/>
				<rect x="150.72" y="376.15" width="4.79" height="2.83"/>
				<rect x="143.1" y="376.15" width="4.79" height="2.83"/>
			</g>
		</g>
		<g>
			<g>
				<rect x="166.38" y="366.91" width="2.83" height="2.83"/>
				<rect x="166.38" y="365.29" width="2.83" height="1.62"/>
				
					<rect x="164.15" y="367.52" transform="matrix(-1.836970e-16 1 -1 -1.836970e-16 533.8922 202.7601)" width="2.83" height="1.62"/>
				
					<rect x="168.61" y="367.52" transform="matrix(-1.836970e-16 1 -1 -1.836970e-16 538.3489 198.3035)" width="2.83" height="1.62"/>
				<rect x="166.38" y="369.74" width="2.83" height="1.62"/>
			</g>
			<g>
				<rect x="166.38" y="357.67" width="2.83" height="2.83"/>
				<rect x="166.38" y="352.88" width="2.83" height="4.79"/>
				<rect x="166.38" y="360.5" width="2.83" height="4.79"/>
				<rect x="169.21" y="357.67" width="4.79" height="2.83"/>
				<rect x="161.59" y="357.67" width="4.79" height="2.83"/>
			</g>
			<g>
				<rect x="157.13" y="366.91" width="2.83" height="2.83"/>
				<rect x="157.13" y="362.12" width="2.83" height="4.79"/>
				<rect x="157.13" y="369.74" width="2.83" height="4.79"/>
				<rect x="159.97" y="366.91" width="4.79" height="2.83"/>
				<rect x="152.35" y="366.91" width="4.79" height="2.83"/>
			</g>
			<g>
				<rect x="175.62" y="366.91" width="2.83" height="2.83"/>
				<rect x="175.62" y="362.12" width="2.83" height="4.79"/>
				<rect x="175.62" y="369.74" width="2.83" height="4.79"/>
				<rect x="178.46" y="366.91" width="4.79" height="2.83"/>
				<rect x="170.83" y="366.91" width="4.79" height="2.83"/>
			</g>
			<g>
				<rect x="166.38" y="376.15" width="2.83" height="2.83"/>
				<rect x="166.38" y="371.37" width="2.83" height="4.79"/>
				<rect x="166.38" y="378.99" width="2.83" height="4.79"/>
				<rect x="169.21" y="376.15" width="4.79" height="2.83"/>
				<rect x="161.59" y="376.15" width="4.79" height="2.83"/>
			</g>
		</g>
		<g>
			<g>
				<rect x="147.89" y="385.4" width="2.83" height="2.83"/>
				<rect x="147.89" y="383.77" width="2.83" height="1.62"/>
				<rect x="145.66" y="386" transform="matrix(-1.836970e-16 1 -1 -1.836970e-16 533.8923 239.7356)" width="2.83" height="1.62"/>
				<rect x="150.12" y="386" transform="matrix(-1.836970e-16 1 -1 -1.836970e-16 538.3489 235.2789)" width="2.83" height="1.62"/>
				<rect x="147.89" y="388.23" width="2.83" height="1.62"/>
			</g>
			<g>
				<rect x="147.89" y="376.15" width="2.83" height="2.83"/>
				<rect x="147.89" y="371.37" width="2.83" height="4.79"/>
				<rect x="147.89" y="378.99" width="2.83" height="4.79"/>
				<rect x="150.72" y="376.15" width="4.79" height="2.83"/>
				<rect x="143.1" y="376.15" width="4.79" height="2.83"/>
			</g>
			<g>
				<rect x="138.65" y="385.4" width="2.83" height="2.83"/>
				<rect x="138.65" y="380.61" width="2.83" height="4.79"/>
				<rect x="138.65" y="388.23" width="2.83" height="4.79"/>
				<rect x="141.48" y="385.4" width="4.79" height="2.83"/>
				<rect x="133.86" y="385.4" width="4.79" height="2.83"/>
			</g>
			<g>
				<rect x="157.13" y="385.4" width="2.83" height="2.83"/>
				<rect x="157.13" y="380.61" width="2.83" height="4.79"/>
				<rect x="157.13" y="388.23" width="2.83" height="4.79"/>
				<rect x="159.97" y="385.4" width="4.79" height="2.83"/>
				<rect x="152.35" y="385.4" width="4.79" height="2.83"/>
			</g>
			<g>
				<rect x="147.89" y="394.64" width="2.83" height="2.83"/>
				<rect x="147.89" y="389.85" width="2.83" height="4.79"/>
				<rect x="147.89" y="397.48" width="2.83" height="4.79"/>
				<rect x="150.72" y="394.64" width="4.79" height="2.83"/>
				<rect x="143.1" y="394.64" width="4.79" height="2.83"/>
			</g>
		</g>
		<g>
			<g>
				<rect x="129.4" y="366.91" width="2.83" height="2.83"/>
				<rect x="129.4" y="365.29" width="2.83" height="1.62"/>
				
					<rect x="127.17" y="367.52" transform="matrix(-1.836970e-16 1 -1 -1.836970e-16 496.9168 239.7356)" width="2.83" height="1.62"/>
				
					<rect x="131.63" y="367.52" transform="matrix(-1.836970e-16 1 -1 -1.836970e-16 501.3735 235.2789)" width="2.83" height="1.62"/>
				<rect x="129.4" y="369.74" width="2.83" height="1.62"/>
			</g>
			<g>
				<rect x="129.4" y="357.67" width="2.83" height="2.83"/>
				<rect x="129.4" y="352.88" width="2.83" height="4.79"/>
				<rect x="129.4" y="360.5" width="2.83" height="4.79"/>
				<rect x="132.24" y="357.67" width="4.79" height="2.83"/>
				<rect x="124.61" y="357.67" width="4.79" height="2.83"/>
			</g>
			<g>
				<rect x="120.16" y="366.91" width="2.83" height="2.83"/>
				<rect x="120.16" y="362.12" width="2.83" height="4.79"/>
				<rect x="120.16" y="369.74" width="2.83" height="4.79"/>
				<rect x="122.99" y="366.91" width="4.79" height="2.83"/>
				<rect x="115.37" y="366.91" width="4.79" height="2.83"/>
			</g>
			<g>
				<rect x="138.65" y="366.91" width="2.83" height="2.83"/>
				<rect x="138.65" y="362.12" width="2.83" height="4.79"/>
				<rect x="138.65" y="369.74" width="2.83" height="4.79"/>
				<rect x="141.48" y="366.91" width="4.79" height="2.83"/>
				<rect x="133.86" y="366.91" width="4.79" height="2.83"/>
			</g>
			<g>
				<rect x="129.4" y="376.15" width="2.83" height="2.83"/>
				<rect x="129.4" y="371.37" width="2.83" height="4.79"/>
				<rect x="129.4" y="378.99" width="2.83" height="4.79"/>
				<rect x="132.24" y="376.15" width="4.79" height="2.83"/>
				<rect x="124.61" y="376.15" width="4.79" height="2.83"/>
			</g>
		</g>
		<g>
			<g>
				<rect x="147.89" y="348.42" width="2.83" height="2.83"/>
				<rect x="147.89" y="346.8" width="2.83" height="1.62"/>
				
					<rect x="145.66" y="349.03" transform="matrix(-1.836970e-16 1 -1 -1.836970e-16 496.9168 202.7601)" width="2.83" height="1.62"/>
				
					<rect x="150.12" y="349.03" transform="matrix(-1.836970e-16 1 -1 -1.836970e-16 501.3734 198.3035)" width="2.83" height="1.62"/>
				<rect x="147.89" y="351.26" width="2.83" height="1.62"/>
			</g>
			<g>
				<rect x="147.89" y="339.18" width="2.83" height="2.83"/>
				<rect x="147.89" y="334.39" width="2.83" height="4.79"/>
				<rect x="147.89" y="342.01" width="2.83" height="4.79"/>
				<rect x="150.72" y="339.18" width="4.79" height="2.83"/>
				<rect x="143.1" y="339.18" width="4.79" height="2.83"/>
			</g>
			<g>
				<rect x="138.65" y="348.42" width="2.83" height="2.83"/>
				<rect x="138.65" y="343.63" width="2.83" height="4.79"/>
				<rect x="138.65" y="351.26" width="2.83" height="4.79"/>
				<rect x="141.48" y="348.42" width="4.79" height="2.83"/>
				<rect x="133.86" y="348.42" width="4.79" height="2.83"/>
			</g>
			<g>
				<rect x="157.13" y="348.42" width="2.83" height="2.83"/>
				<rect x="157.13" y="343.63" width="2.83" height="4.79"/>
				<rect x="157.13" y="351.26" width="2.83" height="4.79"/>
				<rect x="159.97" y="348.42" width="4.79" height="2.83"/>
				<rect x="152.35" y="348.42" width="4.79" height="2.83"/>
			</g>
			<g>
				<rect x="147.89" y="357.67" width="2.83" height="2.83"/>
				<rect x="147.89" y="352.88" width="2.83" height="4.79"/>
				<rect x="147.89" y="360.5" width="2.83" height="4.79"/>
				<rect x="150.72" y="357.67" width="4.79" height="2.83"/>
				<rect x="143.1" y="357.67" width="4.79" height="2.83"/>
			</g>
		</g>
	</g>
	<g>
		<g>
			<path style="fill:none;stroke:#000000;stroke-width:3;stroke-miterlimit:10;" d="M211.25,319.31c5.56,8.01,40.2,4.41,31.79-12.23
				c-2.49-3.99-10.07-1.78-6.66,5.05"/>
			<path style="fill:none;stroke:#000000;stroke-width:3;stroke-miterlimit:10;" d="M211.25,319.31c-5-8.37,12.56-38.44,24.26-23.92
				c2.61,3.92-2.54,9.91-7.35,3.98"/>
		</g>
		<g>
			<rect x="221.6" y="310.3" transform="matrix(0.542 0.8404 -0.8404 0.542 364.1069 -44.6485)" width="2.83" height="2.83"/>
			<rect x="223.82" y="308.24" transform="matrix(0.8404 -0.542 0.542 0.8404 -131.7223 172.0348)" width="4.79" height="2.83"/>
			<rect x="217.42" y="312.37" transform="matrix(0.8404 -0.542 0.542 0.8404 -134.9837 169.2225)" width="4.79" height="2.83"/>
			<rect x="223.66" y="312.53" transform="matrix(0.8404 -0.542 0.542 0.8404 -134.7591 172.2593)" width="2.83" height="4.79"/>
			<rect x="219.53" y="306.12" transform="matrix(0.8404 -0.542 0.542 0.8404 -131.9469 168.998)" width="2.83" height="4.79"/>
		</g>
	</g>
	<g>
		<g>
			<path style="fill:none;stroke:#000000;stroke-width:3;stroke-miterlimit:10;" d="M87.36,319.31c-5.56,8.01-40.2,4.41-31.79-12.23
				c2.49-3.99,10.07-1.78,6.66,5.05"/>
			<path style="fill:none;stroke:#000000;stroke-width:3;stroke-miterlimit:10;" d="M87.36,319.31c5-8.37-12.56-38.44-24.26-23.92
				c-2.61,3.92,2.54,9.91,7.35,3.98"/>
		</g>
		<g>
			<rect x="74.18" y="310.3" transform="matrix(-0.542 0.8404 -0.8404 -0.542 378.5355 417.139)" width="2.83" height="2.83"/>
			<rect x="70.98" y="307.26" transform="matrix(0.542 -0.8404 0.8404 0.542 -227.071 202.6637)" width="2.83" height="4.79"/>
			<rect x="77.38" y="311.39" transform="matrix(0.542 -0.8404 0.8404 0.542 -227.6089 209.9385)" width="2.83" height="4.79"/>
			<rect x="71.14" y="313.51" transform="matrix(0.542 -0.8404 0.8404 0.542 -230.9774 206.0321)" width="4.79" height="2.83"/>
			<rect x="75.27" y="307.1" transform="matrix(0.542 -0.8404 0.8404 0.542 -223.7025 206.5701)" width="4.79" height="2.83"/>
		</g>
	</g>
	<g>
		<g>
			<path style="fill:none;stroke:#000000;stroke-width:3;stroke-miterlimit:10;" d="M87.36,417.34c-5.56-8.01-40.2-4.41-31.79,12.23
				c2.49,3.99,10.07,1.78,6.66-5.05"/>
			<path style="fill:none;stroke:#000000;stroke-width:3;stroke-miterlimit:10;" d="M87.36,417.34c5,8.37-12.56,38.44-24.26,23.92
				c-2.61-3.92,2.54-9.91,7.35-3.98"/>
		</g>
		<g>
			<rect x="74.18" y="423.51" transform="matrix(-0.542 -0.8404 0.8404 -0.542 -240.5346 718.7737)" width="2.83" height="2.83"/>
			<rect x="70" y="425.58" transform="matrix(0.8404 -0.542 0.542 0.8404 -219.8743 107.3938)" width="4.79" height="2.83"/>
			<rect x="76.41" y="421.45" transform="matrix(0.8404 -0.542 0.542 0.8404 -216.6129 110.206)" width="4.79" height="2.83"/>
			<rect x="72.12" y="419.34" transform="matrix(0.8404 -0.542 0.542 0.8404 -216.8375 107.1692)" width="2.83" height="4.79"/>
			<rect x="76.25" y="425.74" transform="matrix(0.8404 -0.542 0.542 0.8404 -219.6497 110.4306)" width="2.83" height="4.79"/>
		</g>
	</g>
	<g>
		<g>
			<path style="fill:none;stroke:#000000;stroke-width:3;stroke-miterlimit:10;" d="M211.25,417.34c5.56-8.01,40.2-4.41,31.79,12.23
				c-2.49,3.99-10.07,1.78-6.66-5.05"/>
			<path style="fill:none;stroke:#000000;stroke-width:3;stroke-miterlimit:10;" d="M211.25,417.34c-5,8.37,12.56,38.44,24.26,23.92
				c2.61-3.92-2.54-9.91-7.35-3.98"/>
		</g>
		<g>
			<rect x="221.6" y="423.51" transform="matrix(0.542 -0.8404 0.8404 0.542 -254.9632 382.0405)" width="2.83" height="2.83"/>
			<rect x="224.8" y="424.6" transform="matrix(0.542 -0.8404 0.8404 0.542 -255.2322 385.6779)" width="2.83" height="4.79"/>
			<rect x="218.4" y="420.47" transform="matrix(0.542 -0.8404 0.8404 0.542 -254.6943 378.403)" width="2.83" height="4.79"/>
			<rect x="222.69" y="420.31" transform="matrix(0.542 -0.8404 0.8404 0.542 -251.3258 382.3094)" width="4.79" height="2.83"/>
			<rect x="218.56" y="426.72" transform="matrix(0.542 -0.8404 0.8404 0.542 -258.6007 381.7715)" width="4.79" height="2.83"/>
		</g>
	</g>
	<g>
		<g>
			<g>
				<g>
					<path style="fill:none;stroke:#000000;stroke-width:3;stroke-miterlimit:10;" d="M227.56,368.33
						c-0.33-9.74-31.39-25.49-33.35-6.95c-0.07,4.71,7.5,6.95,8.33-0.63"/>
					<path style="fill:none;stroke:#000000;stroke-width:3;stroke-miterlimit:10;" d="M227.56,368.33
						c-0.33,9.74-31.39,25.49-33.35,6.95c-0.07-4.71,7.5-6.95,8.33,0.63"/>
				</g>
				<g>
					
						<rect x="212.14" y="366.91" transform="matrix(6.123234e-17 -1 1 6.123234e-17 -154.7675 581.8849)" width="2.83" height="2.83"/>
					<rect x="207.35" y="366.91" width="4.79" height="2.83"/>
					<rect x="214.98" y="366.91" width="4.79" height="2.83"/>
					<rect x="212.14" y="362.12" width="2.83" height="4.79"/>
					<rect x="212.14" y="369.74" width="2.83" height="4.79"/>
				</g>
			</g>
			<g>
				<path style="fill:none;stroke:#000000;stroke-width:3;stroke-miterlimit:10;" d="M230.61,368.33
					c-0.82,14.05-21.99,34.55-41.08,14.97"/>
				<circle cx="188.46" cy="382.19" r="3.27"/>
			</g>
			<g>
				<path style="fill:none;stroke:#000000;stroke-width:3;stroke-miterlimit:10;" d="M230.61,368.33
					c-0.82-14.05-21.99-34.55-41.08-14.97"/>
				<circle cx="188.46" cy="354.46" r="3.27"/>
			</g>
		</g>
		<g>
			<g>
				<g>
					<g>
						<g>
							<path d="M247.1,361.13c0.57,1,1.07,2.05,1.56,3.09l-2.85,1.29c-0.46-0.97-0.92-1.94-1.46-2.88L247.1,361.13z"/>
							<path d="M245.82,365.51c-0.46-0.97-0.92-1.94-1.45-2.88l-4.06,2.24c0.49,0.84,0.88,1.7,1.29,2.55L245.82,365.51z"/>
							<path d="M252.89,362.3c-0.55-1.16-1.1-2.32-1.73-3.42l-4.06,2.24c0.57,1,1.07,2.05,1.56,3.09L252.89,362.3z"/>
							<path d="M242.51,359.56l2.62-1.72c0.69,1.08,1.38,2.16,1.98,3.29l-2.74,1.51C243.8,361.58,243.16,360.57,242.51,359.56z"/>
							<polygon points="245.82,365.51 248.67,364.22 249.43,366 250.1,367.83 247.13,368.82 246.52,367.15 							"/>
						</g>
						<g>
							<path d="M240.73,352.05c0.76,0.86,1.46,1.76,2.17,2.67l-2.49,1.9c-0.67-0.85-1.33-1.71-2.05-2.52L240.73,352.05z"/>
							<path d="M240.42,356.61c-0.67-0.85-1.33-1.71-2.05-2.52l-3.51,3.03c0.66,0.74,1.26,1.53,1.88,2.3L240.42,356.61z"/>
							<path d="M246.59,351.9c-0.76-0.98-1.53-1.96-2.35-2.88l-3.51,3.03c0.76,0.86,1.46,1.76,2.17,2.67L246.59,351.9z"/>
							<path d="M235.92,351.43l2.23-2.2c0.89,0.92,1.76,1.84,2.59,2.82l-2.37,2.05C237.58,353.17,236.76,352.29,235.92,351.43z"/>
							<polygon points="240.42,356.61 242.91,354.71 244.05,356.25 245.12,357.84 242.51,359.56 241.49,358.06 							"/>
						</g>
						<g>
							<path d="M232.72,344.39c0.89,0.72,1.79,1.44,2.64,2.21l-2.08,2.34c-0.8-0.73-1.65-1.41-2.49-2.09L232.72,344.39z"/>
							<path d="M233.29,348.94c-0.8-0.73-1.65-1.41-2.49-2.09l-2.86,3.65c0.77,0.62,1.54,1.23,2.27,1.9L233.29,348.94z"/>
							<path d="M238.44,343.13c-0.92-0.84-1.89-1.61-2.86-2.39l-2.86,3.65c0.89,0.72,1.79,1.43,2.64,2.21L238.44,343.13z"/>
							<path d="M227.88,344.74l1.75-2.6c1.08,0.69,2.09,1.48,3.1,2.25l-1.93,2.46C229.84,346.13,228.89,345.39,227.88,344.74z"/>
							<path d="M233.29,348.94l2.08-2.34c0.97,0.83,1.87,1.74,2.78,2.63l-2.23,2.2C235.05,350.58,234.2,349.73,233.29,348.94z"/>
						</g>
						<g>
							<path d="M223.29,338.53c1.06,0.46,2.06,1.05,3.08,1.59l-1.54,2.72c-0.96-0.5-1.88-1.05-2.87-1.48L223.29,338.53z"/>
							<path d="M224.82,342.83c-0.95-0.5-1.88-1.05-2.87-1.48l-1.98,4.2c0.87,0.37,1.71,0.88,2.56,1.32L224.82,342.83z"/>
							<path d="M228.65,336.08c-1.12-0.59-2.21-1.23-3.38-1.74l-1.98,4.2c1.06,0.46,2.05,1.05,3.08,1.58L228.65,336.08z"/>
							<path d="M218.66,339.96l1.08-2.94c1.2,0.47,2.4,0.94,3.56,1.51l-1.34,2.83C220.88,340.83,219.77,340.39,218.66,339.96z"/>
							<path d="M224.82,342.83l1.54-2.72c1.1,0.66,2.21,1.3,3.26,2.03l-1.75,2.6C226.89,344.05,225.85,343.45,224.82,342.83z"/>
						</g>
						<g>
							<path d="M212.62,335.15c1.14,0.22,2.3,0.41,3.42,0.73l-0.78,3.03c-1.03-0.3-2.08-0.46-3.12-0.67L212.62,335.15z"/>
							<path d="M215.25,338.91c-1.03-0.3-2.08-0.46-3.12-0.67l-0.73,4.58c0.9,0.18,1.8,0.31,2.69,0.58L215.25,338.91z"/>
							<path d="M217.19,331.39c-1.25-0.36-2.56-0.57-3.85-0.82l-0.73,4.58c1.14,0.22,2.3,0.41,3.42,0.73L217.19,331.39z"/>
							<path d="M208.6,337.89l0.14-3.13c1.3,0.02,2.59,0.21,3.88,0.38l-0.49,3.09C210.95,338.09,209.78,337.91,208.6,337.89z"/>
							<path d="M215.25,338.91l0.78-3.03c1.26,0.3,2.48,0.73,3.7,1.14l-1.08,2.94C217.53,339.58,216.4,339.17,215.25,338.91z"/>
						</g>
						<g>
							<path d="M201.35,335.3c1.15-0.26,2.32-0.34,3.48-0.48l0.24,3.12c-1.05,0.12-2.11,0.19-3.14,0.43L201.35,335.3z"/>
							<path d="M205.07,337.94c-1.05,0.12-2.11,0.19-3.14,0.43l0.86,4.56c0.86-0.21,1.75-0.25,2.63-0.36L205.07,337.94z"/>
							<path d="M204.48,330.19c-1.34,0.15-2.68,0.25-3.99,0.54l0.86,4.56c1.15-0.26,2.32-0.34,3.48-0.48L204.48,330.19z"/>
							<path d="M198.5,339.21l-0.95-2.98c1.26-0.34,2.51-0.74,3.8-0.94l0.58,3.08C200.77,338.54,199.64,338.91,198.5,339.21z"/>
							<path d="M205.07,337.94l-0.24-3.12c1.3-0.06,2.61-0.14,3.91-0.05l-0.14,3.13C207.42,337.81,206.24,337.89,205.07,337.94z"/>
						</g>
						<g>
							<path d="M190.81,339.25l1.53-0.85c0.52-0.27,1.06-0.5,1.59-0.75l1.29,2.85c-0.48,0.23-0.97,0.43-1.44,0.68l-1.39,0.78
								L190.81,339.25z"/>
							<path d="M195.21,340.51c-0.48,0.23-0.97,0.43-1.44,0.68l-1.39,0.78l2.32,4.02l1.2-0.67c0.4-0.21,0.82-0.38,1.23-0.57
								L195.21,340.51z"/>
							<path d="M192.01,333.43c-0.6,0.28-1.21,0.54-1.8,0.85l-1.72,0.96l2.32,4.02l1.53-0.85c0.52-0.27,1.06-0.5,1.58-0.75
								L192.01,333.43z"/>
							<polygon points="189.37,343.88 187.54,341.34 189.16,340.26 189.97,339.73 190.81,339.25 192.38,341.96 191.6,342.4 
								190.86,342.89 							"/>
							<path d="M195.21,340.5l-1.29-2.85c1.16-0.58,2.41-0.97,3.63-1.42l0.95,2.98C197.4,339.63,196.27,339.97,195.21,340.5z"/>
						</g>
					</g>
				</g>
			</g>
			<g>
				<g>
					<g>
						<g>
							<path d="M244.36,374.01c0.54-0.93,0.99-1.91,1.46-2.88l2.85,1.29c-0.5,1.05-0.99,2.09-1.56,3.09L244.36,374.01z"/>
							<path d="M248.66,372.43c-0.5,1.05-0.99,2.09-1.56,3.09l4.06,2.24c0.63-1.1,1.18-2.26,1.73-3.42L248.66,372.43z"/>
							<path d="M241.59,369.22c-0.41,0.85-0.81,1.71-1.29,2.55l4.06,2.24c0.54-0.93,0.99-1.91,1.45-2.88L241.59,369.22z"/>
							<path d="M245.12,378.81l-2.62-1.72c0.65-1.01,1.29-2.03,1.86-3.08l2.74,1.51C246.49,376.65,245.81,377.74,245.12,378.81z"/>
							<polygon points="248.66,372.43 245.81,371.14 246.51,369.5 247.13,367.83 250.1,368.82 249.42,370.65 							"/>
						</g>
						<g>
							<path d="M238.36,382.56c0.72-0.81,1.38-1.67,2.05-2.52l2.49,1.9c-0.71,0.9-1.41,1.81-2.17,2.67L238.36,382.56z"/>
							<path d="M242.9,381.94c-0.71,0.9-1.41,1.81-2.17,2.67l3.51,3.03c0.82-0.93,1.58-1.91,2.35-2.88L242.9,381.94z"/>
							<path d="M236.73,377.23c-0.61,0.78-1.22,1.56-1.88,2.3l3.51,3.03c0.72-0.81,1.38-1.67,2.05-2.52L236.73,377.23z"/>
							<path d="M238.14,387.42l-2.23-2.2c0.84-0.87,1.67-1.74,2.45-2.66l2.37,2.05C239.91,385.58,239.03,386.5,238.14,387.42z"/>
							<polygon points="242.9,381.94 240.41,380.04 241.49,378.59 242.5,377.09 245.12,378.81 244.04,380.4 							"/>
						</g>
						<g>
							<path d="M230.8,389.8c0.84-0.68,1.69-1.35,2.49-2.09l2.08,2.34c-0.85,0.77-1.74,1.49-2.64,2.21L230.8,389.8z"/>
							<path d="M235.36,390.05c-0.85,0.77-1.74,1.49-2.64,2.21l2.86,3.65c0.97-0.78,1.94-1.56,2.86-2.39L235.36,390.05z"/>
							<path d="M230.21,384.24c-0.73,0.67-1.5,1.28-2.27,1.9l2.86,3.65c0.84-0.68,1.69-1.35,2.49-2.09L230.21,384.24z"/>
							<path d="M229.62,394.51l-1.75-2.6c1.01-0.65,1.96-1.39,2.92-2.12l1.93,2.46C231.71,393.03,230.7,393.81,229.62,394.51z"/>
							<path d="M235.36,390.05l-2.08-2.34c0.92-0.78,1.77-1.64,2.63-2.49l2.23,2.2C237.23,388.31,236.33,389.22,235.36,390.05z"/>
						</g>
						<g>
							<path d="M221.95,395.3c0.99-0.43,1.92-0.98,2.87-1.48l1.54,2.72c-1.02,0.53-2.02,1.12-3.08,1.59L221.95,395.3z"/>
							<path d="M226.36,396.54c-1.02,0.53-2.02,1.12-3.08,1.58l1.98,4.2c1.17-0.52,2.26-1.15,3.38-1.74L226.36,396.54z"/>
							<path d="M222.53,389.78c-0.85,0.44-1.69,0.94-2.56,1.32l1.98,4.2c0.99-0.43,1.92-0.98,2.87-1.48L222.53,389.78z"/>
							<path d="M219.73,399.63l-1.08-2.94c1.11-0.44,2.22-0.87,3.3-1.4l1.34,2.83C222.14,398.69,220.93,399.16,219.73,399.63z"/>
							<path d="M226.36,396.54l-1.54-2.72c1.03-0.62,2.07-1.22,3.06-1.91l1.75,2.6C228.57,395.24,227.46,395.88,226.36,396.54z"/>
						</g>
						<g>
							<path d="M212.12,398.41c1.04-0.21,2.1-0.37,3.12-0.67l0.78,3.03c-1.12,0.32-2.27,0.51-3.42,0.73L212.12,398.41z"/>
							<path d="M216.03,400.77c-1.12,0.32-2.27,0.51-3.42,0.73l0.73,4.58c1.29-0.25,2.6-0.46,3.85-0.82L216.03,400.77z"/>
							<path d="M214.09,393.25c-0.89,0.27-1.79,0.4-2.69,0.58l0.73,4.58c1.04-0.21,2.1-0.37,3.12-0.67L214.09,393.25z"/>
							<path d="M208.74,401.88l-0.14-3.13c1.18-0.02,2.35-0.2,3.52-0.34l0.49,3.09C211.33,401.67,210.04,401.86,208.74,401.88z"/>
							<path d="M216.03,400.77l-0.78-3.03c1.16-0.27,2.28-0.67,3.41-1.05l1.08,2.94C218.51,400.04,217.29,400.48,216.03,400.77z"/>
						</g>
						<g>
							<path d="M201.93,398.28c1.03,0.24,2.09,0.31,3.14,0.43l-0.24,3.12c-1.17-0.13-2.34-0.22-3.48-0.48L201.93,398.28z"/>
							<path d="M204.83,401.83c-1.16-0.13-2.34-0.22-3.48-0.48l-0.86,4.56c1.31,0.29,2.66,0.4,3.99,0.54L204.83,401.83z"/>
							<path d="M205.42,394.09c-0.88-0.11-1.77-0.16-2.63-0.36l-0.86,4.56c1.03,0.24,2.09,0.31,3.14,0.43L205.42,394.09z"/>
							<path d="M197.56,400.42l0.95-2.98c1.14,0.3,2.26,0.67,3.43,0.84l-0.58,3.08C200.06,401.15,198.81,400.76,197.56,400.42z"/>
							<path d="M204.83,401.83l0.24-3.12c1.18,0.05,2.35,0.13,3.53,0.04l0.14,3.13C207.44,401.97,206.13,401.89,204.83,401.83z"/>
						</g>
						<g>
							<path d="M192.37,394.69l1.39,0.78c0.47,0.25,0.96,0.45,1.44,0.68l-1.29,2.85c-0.53-0.25-1.07-0.48-1.59-0.75l-1.53-0.85
								L192.37,394.69z"/>
							<path d="M193.92,399c-0.53-0.25-1.07-0.48-1.58-0.75l-1.53-0.85l-2.32,4.02l1.72,0.96c0.58,0.3,1.2,0.57,1.8,0.85L193.92,399
								z"/>
							<path d="M197.12,391.92c-0.41-0.2-0.83-0.36-1.23-0.57l-1.2-0.67l-2.32,4.02l1.39,0.78c0.47,0.25,0.96,0.45,1.44,0.68
								L197.12,391.92z"/>
							<polygon points="187.55,395.31 189.38,392.77 190.86,393.76 191.6,394.25 192.38,394.69 190.81,397.4 189.97,396.92 
								189.16,396.38 							"/>
							<path d="M193.92,398.99l1.29-2.85c1.06,0.54,2.19,0.88,3.29,1.29l-0.95,2.98C196.34,399.96,195.08,399.58,193.92,398.99z"/>
						</g>
					</g>
				</g>
			</g>
		</g>
	</g>
	<g>
		<g>
			<g>
				<g>
					<path style="fill:none;stroke:#000000;stroke-width:3;stroke-miterlimit:10;" d="M71.05,368.33
						c0.33-9.74,31.39-25.49,33.35-6.95c0.07,4.71-7.5,6.95-8.33-0.63"/>
					<path style="fill:none;stroke:#000000;stroke-width:3;stroke-miterlimit:10;" d="M71.05,368.33
						c0.33,9.74,31.39,25.49,33.35,6.95c0.07-4.71-7.5-6.95-8.33,0.63"/>
				</g>
				<g>
					
						<rect x="83.64" y="366.91" transform="matrix(4.588158e-11 -1 1 4.588158e-11 -283.2716 453.3808)" width="2.83" height="2.83"/>
					<rect x="86.47" y="366.91" width="4.79" height="2.83"/>
					<rect x="78.85" y="366.91" width="4.79" height="2.83"/>
					<rect x="83.64" y="362.12" width="2.83" height="4.79"/>
					<rect x="83.64" y="369.74" width="2.83" height="4.79"/>
				</g>
			</g>
			<g>
				<path style="fill:none;stroke:#000000;stroke-width:3;stroke-miterlimit:10;" d="M68,368.33c0.82,14.05,21.99,34.55,41.08,14.97
					"/>
				<circle cx="110.15" cy="382.19" r="3.27"/>
			</g>
			<g>
				<path style="fill:none;stroke:#000000;stroke-width:3;stroke-miterlimit:10;" d="M68,368.33c0.82-14.05,21.99-34.55,41.08-14.97
					"/>
				<path d="M110.15,357.74c-1.81,0-3.27-1.47-3.27-3.27c0-1.81,1.47-3.27,3.27-3.27s3.27,1.47,3.27,3.27
					C113.43,356.27,111.96,357.74,110.15,357.74z"/>
			</g>
		</g>
		<g>
			<g>
				<g>
					<g>
						<g>
							<path d="M54.25,362.64c-0.54,0.93-0.99,1.91-1.46,2.88l-2.85-1.29c0.5-1.05,0.99-2.09,1.56-3.09L54.25,362.64z"/>
							<path d="M49.95,364.22c0.5-1.05,0.99-2.09,1.56-3.09l-4.06-2.24c-0.63,1.1-1.18,2.26-1.73,3.42L49.95,364.22z"/>
							<path d="M57.02,367.43c0.41-0.85,0.81-1.71,1.29-2.55l-4.06-2.24c-0.54,0.93-0.99,1.91-1.45,2.88L57.02,367.43z"/>
							<path d="M53.5,357.84l2.62,1.72c-0.65,1.01-1.29,2.03-1.86,3.08l-2.74-1.51C52.12,360,52.8,358.92,53.5,357.84z"/>
							<polygon points="49.95,364.22 52.8,365.51 52.1,367.16 51.49,368.82 48.52,367.83 49.19,366 							"/>
						</g>
						<g>
							<path d="M60.25,354.09c-0.72,0.81-1.38,1.67-2.05,2.52l-2.49-1.9c0.71-0.9,1.41-1.81,2.17-2.67L60.25,354.09z"/>
							<path d="M55.71,354.71c0.71-0.9,1.41-1.81,2.17-2.67l-3.51-3.03c-0.82,0.93-1.58,1.91-2.35,2.88L55.71,354.71z"/>
							<path d="M61.89,359.42c0.61-0.78,1.22-1.56,1.88-2.3l-3.51-3.03c-0.72,0.81-1.38,1.67-2.05,2.52L61.89,359.42z"/>
							<path d="M60.47,349.23l2.23,2.2c-0.84,0.87-1.67,1.74-2.45,2.66l-2.37-2.05C58.71,351.08,59.58,350.15,60.47,349.23z"/>
							<polygon points="55.71,354.71 58.2,356.61 57.12,358.06 56.11,359.56 53.5,357.84 54.57,356.25 							"/>
						</g>
						<g>
							<path d="M67.82,346.86c-0.84,0.68-1.69,1.35-2.49,2.09l-2.08-2.34c0.85-0.77,1.74-1.49,2.64-2.21L67.82,346.86z"/>
							<path d="M63.25,346.6c0.85-0.77,1.74-1.49,2.64-2.21l-2.86-3.65c-0.97,0.78-1.94,1.56-2.86,2.39L63.25,346.6z"/>
							<path d="M68.41,352.41c0.73-0.67,1.5-1.28,2.27-1.9l-2.86-3.65c-0.84,0.68-1.69,1.35-2.49,2.09L68.41,352.41z"/>
							<path d="M68.99,342.15l1.75,2.6c-1.01,0.65-1.96,1.39-2.92,2.12l-1.93-2.46C66.9,343.63,67.91,342.84,68.99,342.15z"/>
							<path d="M63.25,346.6l2.08,2.34c-0.92,0.78-1.77,1.64-2.63,2.49l-2.23-2.2C61.38,348.34,62.28,347.44,63.25,346.6z"/>
						</g>
						<g>
							<path d="M76.66,341.35c-0.99,0.43-1.92,0.98-2.87,1.48l-1.54-2.72c1.02-0.53,2.02-1.12,3.08-1.59L76.66,341.35z"/>
							<path d="M72.25,340.11c1.02-0.53,2.02-1.12,3.08-1.58l-1.98-4.2c-1.17,0.52-2.26,1.15-3.38,1.74L72.25,340.11z"/>
							<path d="M76.08,346.87c0.85-0.44,1.69-0.94,2.56-1.32l-1.98-4.2c-0.99,0.43-1.91,0.98-2.87,1.48L76.08,346.87z"/>
							<path d="M78.88,337.02l1.08,2.94c-1.11,0.44-2.22,0.87-3.3,1.4l-1.34-2.83C76.48,337.96,77.68,337.49,78.88,337.02z"/>
							<path d="M72.25,340.11l1.54,2.72c-1.03,0.62-2.07,1.22-3.06,1.91l-1.75-2.6C70.04,341.42,71.15,340.77,72.25,340.11z"/>
						</g>
						<g>
							<path d="M86.49,338.24c-1.04,0.21-2.1,0.37-3.12,0.67l-0.78-3.03c1.12-0.32,2.27-0.51,3.42-0.73L86.49,338.24z"/>
							<path d="M82.58,335.88c1.12-0.32,2.27-0.51,3.42-0.73l-0.73-4.58c-1.29,0.25-2.6,0.46-3.85,0.82L82.58,335.88z"/>
							<path d="M84.53,343.4c0.89-0.27,1.79-0.4,2.69-0.58l-0.73-4.58c-1.04,0.21-2.1,0.37-3.12,0.67L84.53,343.4z"/>
							<path d="M89.87,334.77l0.14,3.13c-1.18,0.02-2.35,0.2-3.52,0.34l-0.49-3.09C87.28,334.99,88.57,334.8,89.87,334.77z"/>
							<path d="M82.58,335.88l0.78,3.03c-1.16,0.27-2.28,0.67-3.41,1.05l-1.08-2.94C80.1,336.61,81.32,336.18,82.58,335.88z"/>
						</g>
						<g>
							<path d="M96.69,338.37c-1.03-0.24-2.09-0.31-3.14-0.43l0.24-3.12c1.17,0.13,2.34,0.22,3.48,0.48L96.69,338.37z"/>
							<path d="M93.78,334.82c1.16,0.13,2.34,0.22,3.48,0.48l0.86-4.56c-1.31-0.29-2.66-0.4-3.99-0.54L93.78,334.82z"/>
							<path d="M93.19,342.56c0.88,0.11,1.77,0.16,2.63,0.36l0.86-4.56c-1.03-0.24-2.09-0.31-3.14-0.43L93.19,342.56z"/>
							<path d="M101.06,336.23l-0.95,2.98c-1.14-0.3-2.26-0.67-3.43-0.84l0.58-3.08C98.55,335.5,99.8,335.89,101.06,336.23z"/>
							<path d="M93.78,334.82l-0.24,3.12c-1.18-0.05-2.35-0.13-3.53-0.04l-0.14-3.13C91.17,334.68,92.48,334.76,93.78,334.82z"/>
						</g>
						<g>
							<path d="M106.24,341.96l-1.39-0.78c-0.47-0.25-0.96-0.45-1.44-0.68l1.29-2.85c0.53,0.25,1.07,0.48,1.59,0.75l1.53,0.85
								L106.24,341.96z"/>
							<path d="M104.69,337.66c0.53,0.25,1.07,0.48,1.58,0.75l1.53,0.85l2.32-4.02l-1.72-0.96c-0.58-0.3-1.2-0.57-1.8-0.85
								L104.69,337.66z"/>
							<path d="M101.49,344.73c0.41,0.2,0.83,0.36,1.23,0.57l1.2,0.67l2.32-4.02l-1.39-0.78c-0.47-0.25-0.96-0.45-1.44-0.68
								L101.49,344.73z"/>
							<polygon points="111.07,341.34 109.24,343.88 107.75,342.9 107.01,342.4 106.23,341.96 107.8,339.25 108.64,339.73 
								109.45,340.27 							"/>
							<path d="M104.69,337.66l-1.29,2.85c-1.06-0.54-2.19-0.88-3.29-1.29l0.95-2.98C102.28,336.69,103.53,337.07,104.69,337.66z"/>
						</g>
					</g>
				</g>
			</g>
			<g>
				<g>
					<g>
						<g>
							<path d="M51.51,375.53c-0.57-1-1.07-2.05-1.56-3.09l2.85-1.29c0.46,0.97,0.92,1.94,1.46,2.88L51.51,375.53z"/>
							<path d="M52.8,371.14c0.46,0.97,0.92,1.94,1.45,2.88l4.06-2.24c-0.49-0.84-0.88-1.7-1.29-2.55L52.8,371.14z"/>
							<path d="M45.72,374.35c0.55,1.16,1.1,2.32,1.73,3.42l4.06-2.24c-0.57-1-1.07-2.05-1.56-3.09L45.72,374.35z"/>
							<path d="M56.11,377.1l-2.62,1.72c-0.69-1.08-1.38-2.16-1.98-3.29l2.74-1.51C54.81,375.07,55.46,376.09,56.11,377.1z"/>
							<polygon points="52.8,371.14 49.95,372.43 49.18,370.65 48.51,368.82 51.48,367.83 52.09,369.5 							"/>
						</g>
						<g>
							<path d="M57.88,384.61c-0.76-0.86-1.46-1.76-2.17-2.67l2.49-1.9c0.67,0.85,1.33,1.71,2.05,2.52L57.88,384.61z"/>
							<path d="M58.2,380.04c0.67,0.85,1.33,1.71,2.05,2.52l3.51-3.03c-0.66-0.74-1.26-1.53-1.88-2.3L58.2,380.04z"/>
							<path d="M52.02,384.75c0.76,0.98,1.53,1.96,2.35,2.88l3.51-3.03c-0.76-0.86-1.46-1.76-2.17-2.67L52.02,384.75z"/>
							<path d="M62.7,385.22l-2.23,2.2c-0.89-0.92-1.76-1.84-2.59-2.82l2.37-2.05C61.03,383.48,61.86,384.36,62.7,385.22z"/>
							<polygon points="58.2,380.04 55.71,381.94 54.57,380.4 53.49,378.82 56.11,377.1 57.12,378.59 							"/>
						</g>
						<g>
							<path d="M65.89,392.26c-0.89-0.72-1.79-1.44-2.64-2.21l2.08-2.34c0.8,0.73,1.65,1.41,2.49,2.09L65.89,392.26z"/>
							<path d="M65.33,387.71c0.8,0.73,1.65,1.41,2.49,2.09l2.86-3.65c-0.77-0.62-1.54-1.23-2.27-1.9L65.33,387.71z"/>
							<path d="M60.17,393.52c0.92,0.84,1.89,1.61,2.86,2.39l2.86-3.65c-0.89-0.72-1.79-1.43-2.64-2.21L60.17,393.52z"/>
							<path d="M70.74,391.91l-1.75,2.6c-1.08-0.69-2.09-1.48-3.1-2.25l1.93-2.46C68.77,390.52,69.72,391.26,70.74,391.91z"/>
							<path d="M65.33,387.71l-2.08,2.34c-0.97-0.83-1.87-1.74-2.78-2.63l2.23-2.2C63.56,386.07,64.41,386.93,65.33,387.71z"/>
						</g>
						<g>
							<path d="M75.33,398.13c-1.06-0.46-2.06-1.05-3.08-1.59l1.54-2.72c0.96,0.5,1.88,1.05,2.87,1.48L75.33,398.13z"/>
							<path d="M73.79,393.82c0.95,0.5,1.88,1.05,2.87,1.48l1.98-4.2c-0.87-0.37-1.71-0.88-2.56-1.32L73.79,393.82z"/>
							<path d="M69.96,400.58c1.12,0.59,2.21,1.23,3.38,1.74l1.98-4.2c-1.06-0.46-2.05-1.05-3.08-1.58L69.96,400.58z"/>
							<path d="M79.96,396.69l-1.08,2.94c-1.2-0.47-2.4-0.94-3.56-1.51l1.34-2.83C77.73,395.83,78.85,396.26,79.96,396.69z"/>
							<path d="M73.79,393.82l-1.54,2.72c-1.1-0.66-2.21-1.3-3.26-2.03l1.75-2.6C71.72,392.6,72.76,393.2,73.79,393.82z"/>
						</g>
						<g>
							<path d="M86,401.5c-1.14-0.22-2.3-0.41-3.42-0.73l0.78-3.03c1.03,0.3,2.08,0.46,3.12,0.67L86,401.5z"/>
							<path d="M83.37,397.75c1.03,0.3,2.08,0.46,3.12,0.67l0.73-4.58c-0.9-0.18-1.8-0.31-2.69-0.58L83.37,397.75z"/>
							<path d="M81.42,405.27c1.25,0.36,2.56,0.57,3.85,0.82L86,401.5c-1.14-0.22-2.3-0.41-3.42-0.73L81.42,405.27z"/>
							<path d="M90.01,398.76l-0.14,3.13c-1.3-0.02-2.59-0.21-3.88-0.38l0.49-3.09C87.66,398.56,88.83,398.74,90.01,398.76z"/>
							<path d="M83.37,397.75l-0.78,3.03c-1.26-0.3-2.48-0.73-3.7-1.14l1.08-2.94C81.09,397.07,82.21,397.48,83.37,397.75z"/>
						</g>
						<g>
							<path d="M97.27,401.36c-1.15,0.26-2.32,0.34-3.48,0.48l-0.24-3.12c1.05-0.12,2.11-0.19,3.14-0.43L97.27,401.36z"/>
							<path d="M93.54,398.72c1.05-0.12,2.11-0.19,3.14-0.43l-0.86-4.56c-0.86,0.21-1.75,0.25-2.63,0.36L93.54,398.72z"/>
							<path d="M94.13,406.46c1.34-0.15,2.68-0.25,3.99-0.54l-0.86-4.56c-1.15,0.26-2.32,0.34-3.48,0.48L94.13,406.46z"/>
							<path d="M100.11,397.44l0.95,2.98c-1.26,0.34-2.51,0.74-3.8,0.94l-0.58-3.08C97.85,398.11,98.97,397.75,100.11,397.44z"/>
							<path d="M93.54,398.72l0.24,3.12c-1.3,0.06-2.61,0.14-3.91,0.05l0.14-3.13C91.19,398.85,92.37,398.77,93.54,398.72z"/>
						</g>
						<g>
							<path d="M107.8,397.4l-1.53,0.85c-0.52,0.27-1.06,0.5-1.59,0.75l-1.29-2.85c0.48-0.23,0.97-0.43,1.44-0.68l1.39-0.78
								L107.8,397.4z"/>
							<path d="M103.4,396.15c0.48-0.23,0.97-0.43,1.44-0.68l1.39-0.78l-2.32-4.02l-1.2,0.67c-0.4,0.21-0.82,0.38-1.23,0.57
								L103.4,396.15z"/>
							<path d="M106.61,403.22c0.6-0.28,1.21-0.54,1.8-0.85l1.72-0.96l-2.32-4.02l-1.53,0.85c-0.52,0.27-1.06,0.5-1.58,0.75
								L106.61,403.22z"/>
							<polygon points="109.24,392.77 111.07,395.31 109.46,396.39 108.65,396.92 107.8,397.4 106.24,394.69 107.01,394.26 
								107.75,393.76 							"/>
							<path d="M103.4,396.15l1.29,2.85c-1.16,0.58-2.41,0.97-3.63,1.42l-0.95-2.98C101.21,397.02,102.34,396.68,103.4,396.15z"/>
						</g>
					</g>
				</g>
			</g>
		</g>
	</g>
</g>
<g>
</g>
<g>
</g>
<g>
</g>
<g>
</g>
<g>
</g>
<g>
</g>
<g>
</g>
<g>
</g>
<g>
</g>
<g>
</g>
<g>
</g>
<g>
</g>
<g>
</g>
<g>
</g>
<g>
</g>
</svg>
