<?xml version="1.0" encoding="utf-8"?>
<!-- Generator: Adobe Illustrator 27.2.0, SVG Export Plug-In . SVG Version: 6.00 Build 0)  -->
<svg version="1.1" id="Layer_1" xmlns="http://www.w3.org/2000/svg" xmlns:xlink="http://www.w3.org/1999/xlink" x="0px" y="0px"
	 viewBox="0 0 800 600" style="enable-background:new 0 0 800 600;" xml:space="preserve">
<g>
	<g>
		<polygon points="190.86,490.41 197.9,490.41 197.9,482.37 195.9,482.37 195.9,488.41 188.86,488.41 188.86,502.13 195.9,502.13 
			195.9,508.16 197.9,508.16 197.9,500.13 190.86,500.13 		"/>
		<path d="M227.08,511.53h37.22v-32.51h-37.22V511.53z M230.08,482.01h31.22v26.51h-31.22V482.01z"/>
		<polygon points="258.04,461.98 251.01,461.98 251.01,470.01 253.01,470.01 253.01,463.98 260.04,463.98 260.04,450.25 
			253.01,450.25 253.01,444.22 251.01,444.22 251.01,452.25 258.04,452.25 		"/>
		<path d="M245.69,466.17L245.69,466.17L245.69,466.17L245.69,466.17L245.69,466.17L245.69,466.17L245.69,466.17l9.05-9.05
			l-9.05-9.05v0l0,0l0,0l0,0l0,0v0l-9.05,9.05L245.69,466.17z M245.69,449.59l7.53,7.53l-7.53,7.53l-7.53-7.53L245.69,449.59z"/>
		<polygon points="233.33,490.41 240.37,490.41 240.37,482.37 238.37,482.37 238.37,488.41 231.33,488.41 231.33,502.13 
			238.37,502.13 238.37,508.16 240.37,508.16 240.37,500.13 233.33,500.13 		"/>
		<path d="M245.69,486.22L245.69,486.22L245.69,486.22L245.69,486.22L245.69,486.22L245.69,486.22L245.69,486.22l-9.05,9.05
			l9.05,9.05v0l0,0l0,0l0,0l0,0v0l9.05-9.05L245.69,486.22z M245.69,502.8l-7.53-7.53l7.53-7.53l7.53,7.53L245.69,502.8z"/>
		<path d="M221.21,549.92h0.62v-33.14H189.8c-0.66-1.71-1.24-3.46-1.75-5.25h33.78v-32.51h-33.78c0.5-1.79,1.09-3.54,1.75-5.25
			h32.03v-33.14h-0.62c7.48-3.36,15.76-5.25,24.48-5.25s17,1.89,24.48,5.25h-0.62v33.14h32.03c0.66,1.71,1.24,3.46,1.75,5.25h-33.78
			v32.51h33.78c-0.5,1.79-1.09,3.54-1.75,5.25h-32.03v33.14h0.62c-0.07,0.03-0.13,0.05-0.2,0.08h6.65c0.05-0.03,0.1-0.05,0.16-0.08
			h0.05c1.63-0.93,3.22-1.93,4.76-3h-0.05c0.28-0.2,0.56-0.4,0.84-0.6h0.05c0.14-0.1,0.28-0.2,0.42-0.3v-0.03
			c1.69-1.24,3.32-2.56,4.87-3.96l0.02,0.02c2.88-2.59,5.51-5.46,7.88-8.55l-0.08,0.08c0.05-0.06,0.1-0.12,0.14-0.18l0.01,0.01
			c0.22-0.29,0.45-0.57,0.67-0.86l-0.02-0.02c0.95-1.29,1.85-2.62,2.7-3.98h0.03c0.41-0.66,0.81-1.33,1.19-2h-0.03
			c1.26-2.18,2.4-4.44,3.4-6.78h0.02c0.42-0.99,0.81-1.99,1.18-3h-0.01c0.63-1.72,1.17-3.47,1.65-5.25h0.01
			c0.26-0.99,0.5-1.99,0.72-3h-0.01c0.68-3.13,1.12-6.35,1.31-9.64c0-0.08,0.01-0.17,0.02-0.25c0.06-1.11,0.09-2.24,0.09-3.36
			c0-1.13-0.03-2.25-0.09-3.36c0-0.08-0.01-0.16-0.02-0.25c-0.19-3.29-0.63-6.51-1.31-9.65h0.01c-0.22-1.01-0.46-2.01-0.72-3h-0.01
			c-0.48-1.78-1.02-3.53-1.65-5.25h0.01c-0.37-1.01-0.76-2.01-1.18-3h-0.02c-0.99-2.34-2.14-4.6-3.4-6.78h0.03
			c-0.39-0.67-0.78-1.34-1.19-2h-0.03c-0.85-1.36-1.75-2.69-2.7-3.98l0.02-0.02c-0.22-0.29-0.45-0.57-0.67-0.86l-0.01,0.01
			c-0.05-0.06-0.1-0.12-0.14-0.18l0.08,0.08c-2.36-3.08-4.99-5.95-7.87-8.54l-0.02,0.02c-1.56-1.4-3.18-2.72-4.87-3.96v-0.03
			c-0.14-0.1-0.28-0.2-0.42-0.3h-0.05c-0.28-0.2-0.56-0.4-0.84-0.6h0.05c-1.54-1.07-3.12-2.07-4.76-3h-0.05
			c-3.92-2.24-8.09-4.08-12.47-5.44v-0.01c-5.88-1.82-12.13-2.8-18.61-2.8c-6.48,0-12.73,0.98-18.61,2.8v0.01
			c-4.38,1.36-8.55,3.2-12.47,5.44h-0.05c-1.63,0.93-3.22,1.93-4.76,3h0.05c-0.28,0.2-0.56,0.4-0.84,0.6h-0.05
			c-0.14,0.1-0.28,0.2-0.42,0.3v0.03c-1.69,1.24-3.32,2.56-4.87,3.96l-0.02-0.02c-2.88,2.59-5.51,5.46-7.87,8.54l0.08-0.08
			c-0.05,0.06-0.1,0.12-0.14,0.18l-0.01-0.01c-0.22,0.29-0.45,0.57-0.67,0.86l0.02,0.02c-0.95,1.29-1.85,2.62-2.7,3.98h-0.03
			c-0.41,0.66-0.81,1.33-1.19,2h0.03c-1.26,2.18-2.4,4.44-3.4,6.78h-0.02c-0.42,0.99-0.81,1.99-1.18,3h0.01
			c-0.63,1.72-1.17,3.47-1.65,5.25h-0.01c-0.26,0.99-0.5,1.99-0.72,3h0.01c-0.67,3.12-1.11,6.33-1.31,9.61
			c-0.01,0.1-0.02,0.19-0.02,0.29c-0.06,1.11-0.09,2.23-0.09,3.36c0,0,0,0,0,0c0,1.13,0.03,2.25,0.09,3.36
			c0.01,0.1,0.02,0.19,0.02,0.29c0.19,3.27,0.63,6.48,1.3,9.6h-0.01c0.22,1.01,0.46,2.01,0.72,3h0.01c0.48,1.78,1.02,3.53,1.65,5.25
			h-0.01c0.37,1.01,0.76,2.01,1.18,3h0.02c0.99,2.34,2.14,4.6,3.4,6.78h-0.03c0.39,0.67,0.78,1.34,1.19,2h0.03
			c0.85,1.36,1.75,2.69,2.7,3.98l-0.02,0.02c0.22,0.29,0.45,0.57,0.67,0.86l0.01-0.01c0.05,0.06,0.1,0.12,0.14,0.18l-0.08-0.08
			c2.36,3.08,4.99,5.95,7.87,8.54l0.02-0.02c1.56,1.4,3.18,2.72,4.87,3.96v0.03c0.14,0.1,0.28,0.2,0.42,0.3h0.05
			c0.28,0.2,0.56,0.4,0.84,0.6h-0.05c1.54,1.07,3.12,2.07,4.76,3h0.05c0.05,0.03,0.1,0.05,0.16,0.08h6.65
			C221.35,549.97,221.28,549.95,221.21,549.92z M286.38,539.17l-5.75-5.75l7.53-7.53l5.37,5.37
			C291.38,534.11,288.99,536.75,286.38,539.17z M296.74,526.56h-1.26v-6.03h-2v8.03h1.98c-0.42,0.62-0.85,1.22-1.29,1.83l-6.02-6.02
			v0l0,0l0,0l0,0l0,0v0l-9.05,9.05l6.48,6.48c-0.89,0.8-1.81,1.56-2.75,2.31v-3.92h-7.03v-9.73h7.03v-8.03h-2v6.03h-7.03v13.73h7.03
			v3.45c-1.57,1.14-3.19,2.2-4.86,3.19h-3.42v-27.14h27.78C299.27,522.12,298.08,524.39,296.74,526.56z M304.09,482.01
			c0.97,4.27,1.5,8.7,1.5,13.26s-0.53,8.99-1.5,13.26h-31.54v-26.51H304.09z M293.53,459.27l-5.37,5.37l-7.53-7.53l5.75-5.75
			C288.99,453.78,291.38,456.43,293.53,459.27z M272.55,443.62h3.42c1.67,0.99,3.3,2.05,4.86,3.19v3.45h-7.03v13.73h7.03v6.03h2
			v-8.03h-7.03v-9.73h7.03v-3.92c0.94,0.74,1.86,1.51,2.75,2.31l-6.48,6.48l9.05,9.05v0l0,0l0,0l0,0l0,0v0l6.02-6.02
			c0.44,0.6,0.87,1.21,1.29,1.83h-1.98v8.03h2v-6.03h1.26c1.34,2.17,2.53,4.44,3.58,6.78h-27.78V443.62z M205,451.36l5.75,5.75
			l-7.53,7.53l-5.37-5.37C199.99,456.43,202.39,453.78,205,451.36z M194.63,463.98h1.26v6.03h2v-8.03h-1.98
			c0.42-0.62,0.85-1.22,1.29-1.83l6.02,6.02v0l0,0l0,0l0,0l0,0v0l9.05-9.05l-6.48-6.48c0.89-0.8,1.81-1.56,2.75-2.31v3.92h7.03v9.73
			h-7.03v8.03h2v-6.03h7.03v-13.73h-7.03v-3.45c1.57-1.14,3.19-2.2,4.86-3.19h3.42v27.14h-27.78
			C192.11,468.42,193.3,466.15,194.63,463.98z M187.29,508.53c-0.97-4.27-1.5-8.7-1.5-13.26s0.53-8.99,1.5-13.26h31.54v26.51H187.29
			z M197.85,531.27l5.37-5.37l7.53,7.53l-5.75,5.75C202.39,536.75,199.99,534.11,197.85,531.27z M218.83,546.92h-3.42
			c-1.67-0.99-3.3-2.05-4.86-3.19v-3.45h7.03v-13.73h-7.03v-6.03h-2v8.03h7.03v9.73h-7.03v3.92c-0.94-0.74-1.86-1.51-2.75-2.31
			l6.48-6.48l-9.05-9.05v0l0,0l0,0l0,0l0,0v0l-6.02,6.02c-0.44-0.6-0.87-1.21-1.29-1.83h1.98v-8.03h-2v6.03h-1.26
			c-1.34-2.17-2.53-4.44-3.58-6.78h27.78V546.92z"/>
		<polygon points="253.01,482.37 251.01,482.37 251.01,490.41 258.04,490.41 258.04,500.13 251.01,500.13 251.01,508.16 
			253.01,508.16 253.01,502.13 260.04,502.13 260.04,488.41 253.01,488.41 		"/>
		<path d="M203.22,486.22L203.22,486.22L203.22,486.22L203.22,486.22L203.22,486.22L203.22,486.22L203.22,486.22l-9.05,9.05
			l9.05,9.05v0l0,0l0,0l0,0l0,0v0l9.05-9.05L203.22,486.22z M203.22,502.8l-7.53-7.53l7.53-7.53l7.53,7.53L203.22,502.8z"/>
		<polygon points="210.54,482.37 208.54,482.37 208.54,490.41 215.58,490.41 215.58,500.13 208.54,500.13 208.54,508.16 
			210.54,508.16 210.54,502.13 217.58,502.13 217.58,488.41 210.54,488.41 		"/>
		<path d="M305.61,428.6c-2.24,0.12-4.38,0.23-6.54,0.51c0.23,2.12,0.3,4.3,0.36,6.37c0.03,2.1-0.05,4.2-0.16,6.21h0l1.1-1.1h0
			c0.08-1.69,0.12-3.43,0.12-5.2c-0.02-1.75-0.12-3.5-0.24-5.31c1.77-0.16,3.6-0.3,5.43-0.36c1.82-0.04,3.67-0.04,5.57,0l0,0
			l1.1-1.1l0,0C310.04,428.55,307.82,428.52,305.61,428.6z"/>
		<path d="M312.35,428.61l-1.1,1.1h0c0.04,1.89,0.04,3.75,0,5.57c-0.06,1.84-0.2,3.66-0.36,5.43c-1.81-0.12-3.56-0.22-5.31-0.24
			c-1.77,0-3.51,0.04-5.2,0.12l0,0l-1.1,1.1l0,0c2.01-0.11,4.11-0.19,6.21-0.16c2.06,0.06,4.25,0.13,6.37,0.36
			c0.28-2.16,0.39-4.3,0.51-6.54C312.44,433.13,312.41,430.91,312.35,428.61L312.35,428.61z"/>
		<path d="M313.2,460.88L313.2,460.88c0.99,0.25,2.01,0.51,2.99,0.8c0.98,0.3,1.97,0.62,2.97,0.95c2.03,0.66,3.96,1.45,5.96,2.3
			c0.88-1.95,1.77-4,2.49-6.06c0.38-1.04,0.74-2.1,1.1-3.17c0.35-1.07,0.65-2.14,0.96-3.24l0,0l-1.39,0.71l0,0l-0.8,2.66
			c-0.29,0.89-0.61,1.76-0.92,2.63c-0.62,1.73-1.26,3.4-2.01,5.05c-1.63-0.7-3.32-1.3-4.98-1.86c-0.83-0.28-1.65-0.55-2.47-0.8
			l-2.51-0.69l0,0L313.2,460.88z"/>
		<path d="M323.27,450.38c-2.1-0.62-4.26-1.11-6.37-1.54c-0.47,2.11-0.98,4.15-1.63,6.17c-0.31,1.01-0.63,1.99-0.96,2.96
			c-0.35,0.98-0.73,1.95-1.11,2.9l0,0l1.39-0.71l0,0c0.63-1.6,1.23-3.25,1.72-4.91c0.51-1.67,1.03-3.41,1.42-5.13
			c1.79,0.36,3.5,0.83,5.27,1.33c1.79,0.49,3.53,1.08,5.29,1.72l0,0l1.39-0.71l0,0c-1.07-0.39-2.12-0.77-3.18-1.12
			C325.41,451,324.34,450.68,323.27,450.38z"/>
		<path d="M324.32,512.06c1.17,1.7,2.4,3.51,3.46,5.36c1.92-1.05,3.7-2.21,5.59-3.44c1.85-1.23,3.61-2.57,5.44-3.97l0,0l-1.54-0.24
			l0,0c-1.5,1.15-3,2.24-4.49,3.28c-1.54,1.03-3.09,1.99-4.61,2.9c-0.96-1.53-1.93-3.01-2.93-4.43c-1.05-1.43-2.1-2.81-3.17-4.13
			l0,0l-1.54-0.24l0,0C321.8,508.69,323.12,510.35,324.32,512.06z"/>
		<path d="M338.8,510.01L338.8,510.01c-1.27-1.89-2.62-3.71-3.95-5.45c-1.4-1.74-2.82-3.41-4.25-4.99c-1.65,1.43-3.3,2.77-4.95,4.04
			c-1.72,1.26-3.4,2.44-5.12,3.53l0,0l1.54,0.24l0,0c2.85-1.86,5.72-3.95,8.42-6.29c2.41,2.68,4.63,5.57,6.77,8.67l0,0L338.8,510.01
			z"/>
		<path d="M320.53,483.4L320.53,483.4c1.72,1.09,3.4,2.27,5.12,3.53c1.65,1.26,3.3,2.61,4.95,4.04c1.43-1.58,2.85-3.24,4.25-4.99
			c1.33-1.74,2.68-3.56,3.95-5.45l0,0l-1.54,0.24l0,0c-2.14,3.11-4.36,5.99-6.77,8.67c-2.7-2.33-5.57-4.43-8.42-6.29l0,0
			L320.53,483.4z"/>
		<path d="M327.78,473.12c-1.06,1.85-2.29,3.66-3.46,5.36c-1.2,1.71-2.52,3.37-3.79,4.92l0,0l1.54-0.24l0,0
			c1.06-1.32,2.12-2.7,3.17-4.13c1-1.42,1.96-2.9,2.93-4.43c1.52,0.91,3.07,1.88,4.61,2.9c1.49,1.04,2.99,2.13,4.49,3.28l0,0
			l1.54-0.24l0,0c-1.83-1.41-3.59-2.74-5.44-3.97C331.48,475.33,329.7,474.16,327.78,473.12z"/>
		<path d="M252.28,403.51c-1.93-0.15-3.87-0.19-5.75-0.23l-0.87-0.02l-0.82,0.02c-1.88,0.04-3.82,0.08-5.75,0.23l-0.5-6.16
			l-1.99,0.16l0.67,8.17l1.01-0.1c2.12-0.2,4.3-0.26,6.42-0.3v9.98l-0.1,0c-1.81,0.04-3.68,0.09-5.54,0.27l-0.98,0.1l0.67,8.14
			l1.99-0.16l-0.5-6.17c1.47-0.11,2.96-0.14,4.41-0.18l1.02-0.03l1.08,0.03c1.45,0.03,2.94,0.07,4.41,0.18l-0.5,6.17l1.99,0.16
			l0.67-8.14l-0.98-0.1c-1.85-0.18-3.72-0.23-5.53-0.27l-0.1,0v-9.98c2.11,0.05,4.29,0.1,6.42,0.3l1.01,0.1l0.67-8.17l-1.99-0.16
			L252.28,403.51z"/>
		<path d="M230.95,402.15c-1.41,1.83-2.74,3.59-3.97,5.44c-1.23,1.88-2.39,3.67-3.44,5.59c1.85,1.06,3.66,2.29,5.36,3.46
			c1.71,1.2,3.37,2.52,4.92,3.79l0,0l-0.24-1.54l0,0c-1.32-1.06-2.7-2.12-4.13-3.17c-1.42-1-2.9-1.96-4.43-2.93
			c0.91-1.52,1.88-3.07,2.9-4.61c1.04-1.49,2.13-2.99,3.28-4.49l0,0L230.95,402.15L230.95,402.15z"/>
		<path d="M254.97,406.1c-1.74,1.4-3.41,2.82-4.99,4.25c1.43,1.65,2.78,3.3,4.04,4.95c1.26,1.72,2.44,3.4,3.53,5.12l0,0l0.24-1.54
			l0,0c-1.86-2.85-3.95-5.72-6.29-8.42c2.68-2.41,5.57-4.63,8.67-6.77l0,0l0.24-1.54l0,0C258.53,403.42,256.71,404.77,254.97,406.1z
			"/>
		<path d="M230.95,402.15L230.95,402.15l0.24,1.54l0,0c3.11,2.14,5.99,4.36,8.67,6.77c-2.33,2.7-4.43,5.57-6.29,8.42l0,0l0.24,1.54
			l0,0c1.09-1.72,2.27-3.4,3.53-5.12c1.26-1.65,2.61-3.3,4.04-4.95c-1.58-1.43-3.24-2.85-4.99-4.25
			C234.66,404.77,232.84,403.42,230.95,402.15z"/>
		<path d="M260.43,402.15L260.43,402.15l-0.24,1.54l0,0c1.15,1.5,2.24,3,3.28,4.49c1.03,1.54,1.99,3.09,2.9,4.61
			c-1.53,0.96-3.01,1.93-4.43,2.93c-1.43,1.05-2.81,2.1-4.13,3.17l0,0l-0.24,1.54l0,0c1.56-1.27,3.21-2.59,4.92-3.79
			c1.7-1.17,3.51-2.4,5.36-3.46c-1.05-1.92-2.21-3.7-3.44-5.59C263.17,405.74,261.83,403.98,260.43,402.15z"/>
		<path d="M285.25,412.24c-1.08,0.36-2.13,0.73-3.17,1.1c-2.06,0.72-4.11,1.61-6.06,2.49c0.85,2,1.64,3.93,2.3,5.96
			c0.34,1,0.65,1.99,0.95,2.97c0.3,0.99,0.55,2.01,0.8,2.99l0,0l0.71-1.39l0,0l-0.69-2.51c-0.25-0.82-0.52-1.64-0.8-2.47
			c-0.56-1.66-1.17-3.36-1.86-4.98c1.66-0.75,3.33-1.39,5.05-2.01c0.86-0.31,1.74-0.62,2.63-0.92l2.66-0.8l0,0l0.71-1.39l0,0
			C287.39,411.59,286.32,411.89,285.25,412.24z"/>
		<path d="M245.69,423.54c-39.55,0-71.73,32.18-71.73,71.73c0,21.92,9.89,41.56,25.44,54.73h4.78
			c-16.52-12.56-27.22-32.42-27.22-54.73c0-37.9,30.83-68.73,68.73-68.73c37.9,0,68.73,30.83,68.73,68.73
			c0,22.31-10.69,42.17-27.22,54.73h4.78c15.54-13.17,25.44-32.81,25.44-54.73C317.42,455.71,285.24,423.54,245.69,423.54z"/>
		<polygon points="253.01,520.52 251.01,520.52 251.01,528.56 258.04,528.56 258.04,538.28 251.01,538.28 251.01,546.32 
			253.01,546.32 253.01,540.28 260.04,540.28 260.04,526.56 253.01,526.56 		"/>
		<path d="M245.69,524.37L245.69,524.37L245.69,524.37L245.69,524.37L245.69,524.37L245.69,524.37L245.69,524.37l-9.05,9.05
			l9.05,9.05v0l0,0l0,0l0,0l0,0v0l9.05-9.05L245.69,524.37z M245.69,540.95l-7.53-7.53l7.53-7.53l7.53,7.53L245.69,540.95z"/>
		<path d="M227.08,549.92h37.22v-33.14h-37.22V549.92z M230.08,519.78h31.22v27.14h-31.22V519.78z"/>
		<path d="M300.37,549.95L300.37,549.95l-1.1-1.1h0c0.02,0.38,0.03,0.77,0.05,1.15h1.05C300.37,549.98,300.37,549.97,300.37,549.95z
			"/>
		<polygon points="233.33,528.56 240.37,528.56 240.37,520.52 238.37,520.52 238.37,526.56 231.33,526.56 231.33,540.28 
			238.37,540.28 238.37,546.32 240.37,546.32 240.37,538.28 233.33,538.28 		"/>
		<path d="M264.3,440.62h-37.22v33.14h37.22V440.62z M261.3,470.76h-31.22v-27.14h31.22V470.76z"/>
		<polygon points="238.37,470.01 240.37,470.01 240.37,461.98 233.33,461.98 233.33,452.25 240.37,452.25 240.37,444.22 
			238.37,444.22 238.37,450.25 231.33,450.25 231.33,463.98 238.37,463.98 		"/>
		<path d="M179.53,548.65c-0.06,0.45-0.1,0.9-0.15,1.35h1.1c0-0.06,0.01-0.11,0.01-0.17c1.06,0.07,2.1,0.13,3.14,0.17h5.93
			c0.48-0.02,0.97-0.03,1.44-0.05l0,0l1.1-1.1l0,0c-2.01,0.11-4.11,0.19-6.21,0.16C183.83,548.94,181.65,548.88,179.53,548.65z"/>
		<path d="M313.2,529.66c0.38,0.95,0.76,1.92,1.11,2.9c0.33,0.97,0.65,1.96,0.96,2.96c0.65,2.03,1.16,4.06,1.63,6.17
			c2.11-0.43,4.27-0.91,6.37-1.54c1.06-0.3,2.14-0.62,3.22-0.96c1.06-0.35,2.11-0.73,3.18-1.12l0,0l-1.39-0.71l0,0
			c-1.76,0.64-3.5,1.22-5.29,1.72c-1.77,0.5-3.49,0.97-5.27,1.33c-0.39-1.72-0.9-3.46-1.42-5.13c-0.5-1.66-1.09-3.31-1.72-4.91l0,0
			L313.2,529.66L313.2,529.66z"/>
		<path d="M330.2,545.26l-7.04-4.17c-0.6,1.09-1.31,2.11-1.97,3.16c-0.65,1.06-1.37,2.07-2.09,3.08l-8.13-5.78
			c0.65-0.89,1.28-1.8,1.86-2.74c0.58-0.94,1.23-1.84,1.75-2.81l-7.04-4.17c-0.26,0.48-0.55,0.95-0.86,1.41l5.25,3.27l-1.5,2.34
			l-1.61,2.27c-0.52,0.77-1.11,1.49-1.68,2.21c-0.58,0.72-1.12,1.48-1.75,2.16l-4.73-3.98l-1.08,1.25l6.14,5.41
			c0.71-0.84,1.47-1.65,2.14-2.52l2.04-2.61l8,5.96l-0.77,0.99h2.51c0.16-0.22,0.33-0.43,0.48-0.65l1.9-2.67l1.77-2.76l5.25,3.27
			C329.44,546.56,329.83,545.92,330.2,545.26z"/>
		<path d="M305.48,549.01c-2.1,0.03-4.2-0.05-6.21-0.16l0,0l1.1,1.1l0,0c0.47,0.02,0.96,0.03,1.44,0.05h5.93
			c1.03-0.04,2.08-0.1,3.14-0.17c0,0.06,0.01,0.11,0.01,0.17h1.1c-0.04-0.45-0.09-0.9-0.15-1.35
			C309.73,548.88,307.54,548.94,305.48,549.01z"/>
		<polygon points="197.23,550 199.17,550 198.06,549.04 		"/>
		<polygon points="292.21,550 294.14,550 293.32,549.04 		"/>
		<path d="M289.61,414.46c-0.35-1.06-0.73-2.11-1.12-3.18l0,0l-0.71,1.39l0,0c0.64,1.76,1.22,3.5,1.72,5.29
			c0.5,1.77,0.97,3.49,1.33,5.27c-1.72,0.39-3.46,0.9-5.13,1.42c-1.66,0.5-3.31,1.09-4.91,1.72l0,0l-0.71,1.39l0,0
			c0.95-0.38,1.92-0.76,2.9-1.11c0.97-0.33,1.96-0.65,2.96-0.96c2.03-0.65,4.06-1.16,6.17-1.63c-0.43-2.11-0.91-4.27-1.54-6.37
			C290.27,416.62,289.95,415.54,289.61,414.46z"/>
		<polygon points="384.59,512.72 375.07,520.84 385.12,532.63 370.52,537.81 374.71,549.61 396.9,541.72 394.57,535.16 
			399.87,530.64 		"/>
		<rect x="389.78" y="470.54" transform="matrix(0.6487 -0.761 0.761 0.6487 -221.7969 473.0695)" width="23.55" height="12.52"/>
		<rect x="78.05" y="507.48" transform="matrix(0.6487 -0.761 0.761 0.6487 -359.4135 248.8179)" width="23.55" height="12.52"/>
		<rect x="383.65" y="421.56" transform="matrix(0.3347 -0.9423 0.9423 0.3347 -148.9363 655.7178)" width="12.52" height="23.55"/>
		<polygon points="116.66,549.61 120.85,537.81 106.26,532.63 116.3,520.84 106.78,512.72 91.5,530.64 96.8,535.16 94.47,541.72 		
			"/>
		<polygon points="124.41,527.75 120.86,524.72 116.61,529.71 116.2,529.81 116.45,529.9 116.27,530.1 116.69,529.98 122.85,532.17 
			124.42,527.78 124.43,527.77 124.42,527.76 124.43,527.75 		"/>
		<polygon points="137.43,550 136.54,548.46 133.88,550 		"/>
		<rect x="136.82" y="534.01" transform="matrix(0.866 -0.5 0.5 0.866 -249.712 141.7509)" width="5.67" height="5.67"/>
		<polygon points="126.35,548.59 125.85,550 130.1,550 130.12,549.94 135.04,536.24 139.53,523.71 129.38,515.11 118.28,505.7 
			107.17,496.3 104.59,499.35 115.69,508.76 126.8,518.16 134.83,524.97 131.27,534.88 		"/>
		<path d="M107.18,494.3l11.22-9.4l11.22-9.4l10.23-8.57c-2.43,9.05-3.73,18.55-3.73,28.35c0,19.92,5.35,38.62,14.68,54.73h3.49
			c-9.62-16.01-15.16-34.73-15.16-54.73c0-58.76,47.8-106.57,106.57-106.57s106.57,47.81,106.57,106.57c0,20-5.54,38.72-15.16,54.73
			h3.49c9.33-16.11,14.68-34.81,14.68-54.73c0-60.41-49.15-109.57-109.57-109.57c-50.61,0-93.3,34.49-105.83,81.2l-4.58-12.54
			l-10.04-27.52l-0.53-1.45l1.52-0.27l14.34-2.59l14.34-2.59l13.1-2.36l2.36-13.1l2.59-14.34l2.59-14.34l0.28-1.56l1.49,0.53
			l27.41,9.84l12.52,4.5l8.6-10.15l18.82-22.21l1.03-1.21l1.03,1.21l9.41,11.1l9.41,11.1l8.6,10.15l12.52-4.5l13.71-4.92l13.71-4.92
			l1.49-0.53l0.28,1.56l2.59,14.34l2.59,14.34l2.36,13.1l13.1,2.36l14.34,2.59l0.36-1.97l-0.35,1.97l14.34,2.59l0,0l1.56,0.28
			l-0.54,1.49l-9.84,27.41l-4.5,12.52l10.15,8.6l11.1,9.41l11.1,9.41l1.21,1.03l-1.21,1.03l-11.1,9.41l-11.1,9.41l-10.15,8.6
			l4.5,12.52l4.92,13.71l0.02,0.06h4.25l-0.51-1.41l-4.92-13.71l-3.56-9.91l8.04-6.81l11.1-9.41l11.1-9.41l4.82-4.08l-4.82-4.08
			l-11.1-9.41l-11.1-9.41l-8.04-6.81l3.56-9.91l9.84-27.41l2.13-5.94l-6.21-1.12l-0.36,1.97l0.35-1.97l-14.34-2.59l0,0l-14.34-2.59
			l-10.37-1.87l-1.87-10.37l-2.59-14.34l-2.59-14.34l-1.12-6.21l-5.94,2.13l-13.71,4.92l-13.71,4.92l-9.91,3.56l-6.81-8.04
			l-9.41-11.1l-9.41-11.1l-4.08-4.82l-4.08,4.82l-18.82,22.21l-6.81,8.04l-9.91-3.56l-27.41-9.84l-5.94-2.13l-1.12,6.21l-2.59,14.34
			l-2.59,14.34l-1.87,10.37l-10.37,1.87l-14.34,2.59l-14.34,2.59l-6.2,1.12l2.16,5.91l10.04,27.52l3.62,9.91l-8.09,6.78l-11.22,9.4
			l-11.22,9.4l-4.83,4.05l4.81,4.07l2.59-3.05l-1.18-1L107.18,494.3z"/>
		<rect x="134.75" y="541.76" transform="matrix(0.866 -0.5 0.5 0.866 -253.8643 141.753)" width="5.67" height="5.67"/>
		<rect x="89.69" y="427.08" transform="matrix(0.9423 -0.3347 0.3347 0.9423 -139.1819 58.9523)" width="23.55" height="12.52"/>
		<polygon points="99.09,505.84 110.2,515.24 121.3,524.65 124.84,527.65 123.27,532.01 118.35,545.72 116.81,550 121.06,550 
			122.11,547.07 127.03,533.36 129.54,526.39 123.89,521.6 112.78,512.19 101.68,502.78 92.79,495.26 101.72,487.78 112.94,478.38 
			124.16,468.97 129.82,464.22 127.29,457.28 117.24,429.76 113.25,418.82 124.71,416.75 139.05,414.16 153.39,411.58 
			160.68,410.26 161.99,402.97 164.58,388.63 167.17,374.29 169.23,362.84 180.18,366.77 193.89,371.69 207.59,376.62 
			214.57,379.12 219.35,373.47 238.17,351.26 245.69,342.39 253.2,351.26 262.61,362.36 272.02,373.47 276.81,379.12 283.78,376.62 
			297.49,371.7 311.2,366.77 322.14,362.84 324.21,374.29 326.79,388.63 329.38,402.97 329.38,402.97 330.69,410.26 337.98,411.58 
			337.98,411.58 352.32,414.16 366.66,416.75 367.02,414.78 366.66,416.75 378.11,418.81 374.18,429.76 369.26,443.47 
			364.34,457.17 361.84,464.15 367.49,468.94 378.59,478.34 389.7,487.75 398.57,495.27 389.7,502.78 378.59,512.19 367.49,521.6 
			361.83,526.39 364.34,533.36 369.26,547.07 370.31,550 374.56,550 373.03,545.72 368.1,532.01 366.54,527.65 370.08,524.65 
			381.18,515.24 392.28,505.84 404.76,495.27 392.28,484.7 381.18,475.29 370.08,465.88 366.54,462.89 368.11,458.52 373.03,444.82 
			377.95,431.11 383.47,415.71 367.37,412.81 367.37,412.81 353.03,410.23 338.69,407.64 338.34,409.61 338.69,407.64 
			334.14,406.82 333.32,402.26 331.35,402.62 333.32,402.26 330.73,387.92 328.14,373.58 325.24,357.48 309.84,363.01 
			296.14,367.93 282.43,372.85 278.07,374.42 275.07,370.88 265.66,359.78 256.26,348.67 245.69,336.2 235.12,348.67 216.3,370.88 
			213.31,374.42 208.94,372.85 195.24,367.93 181.53,363.01 166.13,357.48 163.23,373.58 160.64,387.92 158.06,402.26 
			157.24,406.82 152.68,407.64 138.34,410.23 124,412.81 107.86,415.72 113.49,431.13 123.53,458.65 125.1,462.96 121.59,465.9 
			110.37,475.31 99.15,484.71 86.59,495.24 		"/>
		<rect x="83.57" y="465.02" transform="matrix(0.761 -0.6487 0.6487 0.761 -287.8457 172.2172)" width="12.52" height="23.55"/>
		<polygon points="94.47,448.81 96.8,455.37 91.5,459.89 106.78,477.81 116.3,469.7 106.26,457.91 120.85,452.72 116.66,440.93 		
			"/>
		<polygon points="124.42,462.76 122.85,458.36 116.69,460.55 116.27,460.44 116.45,460.64 116.2,460.73 116.61,460.83 
			120.86,465.81 124.41,462.78 124.43,462.79 124.42,462.78 124.43,462.77 		"/>
		<polygon points="399.87,459.89 394.57,455.37 396.9,448.81 374.71,440.93 370.52,452.72 385.12,457.91 375.07,469.7 
			384.59,477.81 		"/>
		<polygon points="151.12,400.91 152.31,407.34 156.9,406.5 156.91,406.51 156.91,406.5 156.93,406.49 156.92,406.48 157.76,401.89 
			151.33,400.7 151.03,400.4 151.08,400.66 150.82,400.61 		"/>
		<polygon points="280.83,508.16 282.83,508.16 282.83,500.13 275.8,500.13 275.8,490.41 282.83,490.41 282.83,482.37 
			280.83,482.37 280.83,488.41 273.8,488.41 273.8,502.13 280.83,502.13 		"/>
		<polygon points="366.96,462.78 370.52,465.81 374.76,460.83 375.18,460.73 374.93,460.64 375.1,460.44 374.69,460.55 
			368.52,458.36 366.96,462.76 366.94,462.77 366.95,462.78 366.95,462.79 		"/>
		<polygon points="280.32,366.03 280.23,365.78 280.12,366.19 275.14,370.44 278.17,373.99 278.17,374.01 278.18,374 278.19,374.01 
			278.19,374 282.59,372.44 280.4,366.27 280.52,365.86 		"/>
		<polygon points="213.18,374 213.18,374.01 213.19,374 213.21,374.01 213.2,373.99 216.23,370.44 211.25,366.19 211.15,365.78 
			211.06,366.03 210.86,365.86 210.97,366.27 208.78,372.44 		"/>
		<polygon points="340.05,400.7 333.61,401.89 334.46,406.48 334.45,406.49 334.46,406.5 334.46,406.51 334.47,406.5 339.06,407.34 
			340.25,400.91 340.56,400.61 340.3,400.66 340.35,400.4 		"/>
		<path d="M195.69,533.42l0.08,0.08c-0.02-0.03-0.05-0.06-0.07-0.09L195.69,533.42z"/>
		<path d="M341.03,518.75l0.46-1.95l-7.97-1.87l-0.23,0.97c-0.5,2.11-1.08,4.18-1.71,6.22l-9.49-3.08c0.55-1.77,1.05-3.57,1.49-5.41
			l0.23-0.97l-7.97-1.87l-0.46,1.95l6.01,1.41c-0.9,3.61-2.02,7.09-3.34,10.37l-5.7-2.39l-0.77,1.84l7.55,3.17l0.39-0.92
			c0.71-1.7,1.36-3.46,1.97-5.26l9.49,3.08c-0.69,2.07-1.43,4.09-2.25,6.04l-0.39,0.92l7.55,3.17l0.77-1.84l-5.71-2.4
			c1.62-3.98,2.98-8.2,4.06-12.58L341.03,518.75z"/>
		<path d="M192.06,550c0.02-0.38,0.03-0.77,0.05-1.15h0l-1.1,1.1l0,0c0,0.02,0,0.03,0,0.05H192.06z"/>
		<path d="M307.85,444.88c-0.67-0.88-1.43-1.68-2.14-2.52l-6.14,5.41l1.08,1.25l4.73-3.98c0.63,0.69,1.16,1.44,1.75,2.16
			c0.57,0.73,1.16,1.45,1.68,2.21l1.61,2.27l1.5,2.34l-5.25,3.27c0.31,0.46,0.6,0.93,0.86,1.41l7.04-4.17
			c-0.53-0.97-1.17-1.87-1.75-2.81c-0.58-0.94-1.22-1.84-1.86-2.74l8.13-5.78c0.73,1.01,1.44,2.02,2.09,3.08
			c0.66,1.05,1.37,2.07,1.97,3.16l7.04-4.17c-0.37-0.66-0.76-1.3-1.18-1.93l-5.25,3.27l-1.77-2.76l-1.9-2.67
			c-0.62-0.9-1.3-1.75-1.98-2.61c-0.68-0.85-1.33-1.74-2.06-2.55l4.73-3.98l-1.48-1.71l-6.14,5.41c0.8,0.95,1.65,1.85,2.41,2.84
			l2.29,2.93l-8,5.96L307.85,444.88z"/>
		<path d="M343.44,486.04l-8.15,0.76l0.28,3.71l0.1,3.72l-9.98,0.11l-0.09-3.31l-0.25-3.3l-8.15,0.76l0.12,1.65l6.17-0.43
			c0.19,1.84,0.14,3.71,0.22,5.56c-0.08,1.85-0.03,3.71-0.22,5.56l-6.17-0.43l-0.12,1.65l8.15,0.76l0.25-3.3l0.09-3.31l9.98,0.11
			l-0.1,3.72l-0.28,3.71l8.15,0.76l0.17-2.25l-6.17-0.43c0.21-2.17,0.18-4.36,0.26-6.54c-0.08-2.18-0.04-4.36-0.26-6.54l6.17-0.43
			L343.44,486.04z"/>
		<path d="M335.88,456.38l-7.55,3.17l0.39,0.92c0.82,1.95,1.56,3.97,2.25,6.04l-9.49,3.08c-0.6-1.8-1.25-3.56-1.97-5.26l-0.39-0.92
			l-7.55,3.17l0.77,1.84l5.7-2.39c1.32,3.27,2.44,6.75,3.34,10.37l-6.01,1.41l0.46,1.95l7.97-1.87l-0.23-0.98
			c-0.44-1.84-0.94-3.64-1.49-5.41l9.49-3.08c0.63,2.03,1.21,4.1,1.71,6.22l0.23,0.97l7.97-1.87l-0.46-1.95l-6.03,1.42
			c-1.08-4.38-2.44-8.6-4.06-12.58l5.71-2.4L335.88,456.38z"/>
		<polygon points="300.51,500.13 293.48,500.13 293.48,508.16 295.48,508.16 295.48,502.13 302.51,502.13 302.51,488.41 
			295.48,488.41 295.48,482.37 293.48,482.37 293.48,490.41 300.51,490.41 		"/>
		<path d="M288.15,504.32L288.15,504.32L288.15,504.32L288.15,504.32L288.15,504.32L288.15,504.32L288.15,504.32l9.05-9.05
			l-9.05-9.05v0l0,0l0,0l0,0l0,0v0l-9.05,9.05L288.15,504.32z M288.15,487.74l7.53,7.53l-7.53,7.53l-7.53-7.53L288.15,487.74z"/>
		<path d="M295.68,533.42l-0.01-0.01c-0.02,0.03-0.05,0.06-0.07,0.09L295.68,533.42z"/>
		<path d="M195.69,457.12l0.01,0.01c0.02-0.03,0.05-0.06,0.07-0.09L195.69,457.12z"/>
		<path d="M295.68,457.12l-0.08-0.08c0.02,0.03,0.05,0.06,0.07,0.09L295.68,457.12z"/>
		<path d="M171.26,441.19l-1.9,2.67l-1.77,2.76l-5.25-3.27c-0.41,0.63-0.81,1.27-1.18,1.93l7.04,4.17c0.6-1.09,1.31-2.11,1.97-3.16
			c0.65-1.06,1.37-2.07,2.09-3.08l8.13,5.78c-0.65,0.89-1.28,1.8-1.86,2.74c-0.58,0.94-1.23,1.84-1.75,2.81l7.04,4.17
			c0.26-0.48,0.55-0.95,0.86-1.41l-5.25-3.27l1.5-2.34l1.61-2.27c0.52-0.77,1.11-1.49,1.68-2.21c0.58-0.72,1.12-1.48,1.75-2.16
			l4.73,3.98l1.08-1.25l-6.14-5.41c-0.71,0.84-1.47,1.65-2.14,2.52l-2.04,2.61l-8-5.96l2.29-2.93c0.76-0.98,1.61-1.89,2.41-2.84
			l-6.14-5.41l-1.48,1.71l4.73,3.98c-0.73,0.81-1.37,1.7-2.06,2.55C172.56,439.44,171.88,440.29,171.26,441.19z"/>
		<path d="M155.5,534.16l7.55-3.17l-0.39-0.92c-0.82-1.95-1.56-3.98-2.25-6.04l9.49-3.08c0.6,1.8,1.25,3.56,1.97,5.26l0.39,0.92
			l7.55-3.17l-0.77-1.84l-5.7,2.39c-1.32-3.27-2.44-6.75-3.34-10.37l6.01-1.41l-0.46-1.95l-7.97,1.87l0.23,0.97
			c0.44,1.84,0.94,3.64,1.49,5.41l-9.49,3.08c-0.63-2.03-1.21-4.1-1.71-6.22l-0.23-0.97l-7.97,1.87l0.46,1.95l6.03-1.42
			c1.08,4.37,2.44,8.6,4.06,12.58l-5.71,2.4L155.5,534.16z"/>
		<path d="M173.48,549.01l8-5.96l2.04,2.61c0.67,0.88,1.43,1.68,2.14,2.52l6.14-5.41l-1.08-1.25l-4.73,3.98
			c-0.63-0.69-1.16-1.44-1.75-2.16c-0.57-0.73-1.16-1.45-1.68-2.21l-1.61-2.27l-1.5-2.34l5.25-3.27c-0.31-0.46-0.6-0.93-0.86-1.41
			L176.8,536c0.53,0.97,1.17,1.87,1.75,2.81c0.58,0.94,1.22,1.84,1.86,2.74l-8.13,5.78c-0.73-1.01-1.44-2.02-2.09-3.08
			c-0.66-1.05-1.37-2.07-1.97-3.16l-7.04,4.17c0.37,0.66,0.76,1.3,1.18,1.93l5.25-3.27l1.77,2.76l1.9,2.67
			c0.15,0.22,0.32,0.44,0.48,0.65h2.51L173.48,549.01z"/>
		<path d="M147.93,504.49l8.15-0.76l-0.28-3.71l-0.1-3.72l9.98-0.11l0.09,3.31l0.25,3.3l8.15-0.76l-0.12-1.65l-6.17,0.43
			c-0.19-1.84-0.14-3.71-0.22-5.56c0.08-1.85,0.03-3.71,0.22-5.56l6.17,0.43l0.12-1.65l-8.15-0.76l-0.25,3.3l-0.09,3.31l-9.98-0.11
			l0.1-3.72l0.28-3.71l-8.15-0.76l-0.17,2.25l6.17,0.43c-0.21,2.17-0.18,4.36-0.26,6.54c0.08,2.18,0.04,4.36,0.26,6.54l-6.17,0.43
			L147.93,504.49z"/>
		<rect x="350.96" y="541.76" transform="matrix(0.5 -0.866 0.866 0.5 -294.7321 578.6968)" width="5.67" height="5.67"/>
		<polygon points="357.49,550 354.83,548.46 353.94,550 		"/>
		<path d="M267.1,399.44l-1.78,7.99c2.43,0.51,4.82,1.2,7.2,1.9l-2.97,9.52c-2.12-0.61-4.24-1.23-6.4-1.68l-1.78,7.99l1.61,0.37
			l1.48-6c0.91,0.18,1.79,0.48,2.68,0.72c0.89,0.26,1.79,0.48,2.66,0.8l2.63,0.89l2.58,1.02l-2.33,5.73
			c0.51,0.2,1.03,0.39,1.53,0.63l3.25-7.51c-1-0.47-2.05-0.82-3.07-1.24c-1.02-0.43-2.07-0.77-3.11-1.12l3.19-9.45
			c1.18,0.4,2.36,0.78,3.5,1.26c1.15,0.47,2.32,0.88,3.45,1.4l3.25-7.51c-0.68-0.32-1.39-0.59-2.09-0.87l-2.33,5.73l-3.05-1.2
			l-3.1-1.05c-1.03-0.37-2.09-0.65-3.14-0.95c-1.05-0.28-2.09-0.63-3.16-0.85l1.48-6L267.1,399.44z"/>
		<path d="M217.25,407.76l-3.1,1.05l-3.05,1.2l-2.33-5.73c-0.7,0.28-1.41,0.55-2.09,0.87l3.25,7.51c1.13-0.52,2.3-0.93,3.45-1.4
			c1.15-0.48,2.33-0.87,3.5-1.26l3.19,9.45c-1.05,0.35-2.09,0.69-3.11,1.12c-1.02,0.42-2.07,0.78-3.07,1.24l3.25,7.51
			c0.5-0.24,1.01-0.43,1.53-0.63l-2.33-5.73l2.58-1.02l2.63-0.89c0.87-0.32,1.77-0.55,2.66-0.8c0.89-0.24,1.77-0.54,2.68-0.72
			l1.48,6l1.61-0.37l-1.78-7.99c-2.16,0.45-4.28,1.07-6.4,1.68l-2.97-9.52c2.38-0.69,4.77-1.38,7.2-1.9l-1.78-7.99l-2.21,0.51
			l1.48,6c-1.07,0.22-2.11,0.57-3.16,0.85C219.34,407.11,218.28,407.38,217.25,407.76z"/>
		<path d="M150.34,471.78l-0.46,1.95l7.97,1.87l0.23-0.97c0.5-2.11,1.08-4.18,1.71-6.22l9.49,3.08c-0.55,1.77-1.05,3.57-1.49,5.41
			l-0.23,0.98l7.97,1.87l0.46-1.95l-6.01-1.41c0.9-3.61,2.02-7.09,3.34-10.37l5.7,2.39l0.77-1.84l-7.55-3.17l-0.39,0.92
			c-0.71,1.7-1.36,3.46-1.97,5.26l-9.49-3.08c0.69-2.06,1.43-4.09,2.25-6.04l0.39-0.92l-7.55-3.17l-0.77,1.84l5.71,2.4
			c-1.62,3.98-2.98,8.21-4.06,12.58L150.34,471.78z"/>
		<path d="M295.81,410.8l-4.25,6.99l0.85,0.52c1.82,1.12,3.61,2.32,5.37,3.57l-5.87,8.07c-1.53-1.09-3.09-2.14-4.68-3.11l-0.86-0.52
			l-4.26,7l1.71,1.04l3.21-5.28c3.05,1.93,6.01,4.09,8.8,6.43l-4.03,4.68l1.52,1.31l5.34-6.2l-0.76-0.65
			c-1.42-1.22-2.89-2.39-4.39-3.51l5.87-8.07c1.72,1.28,3.41,2.62,5.03,4.02l0.76,0.65l5.34-6.2l-1.52-1.31l-4.04,4.69
			c-3.38-2.85-6.96-5.46-10.67-7.79l3.22-5.29L295.81,410.8z"/>
		<rect x="348.88" y="534.01" transform="matrix(0.5 -0.866 0.866 0.5 -289.0631 573.0214)" width="5.67" height="5.67"/>
		<path d="M182.37,420.23l-1.51,1.31l5.34,6.2l0.76-0.65c1.63-1.4,3.31-2.74,5.03-4.02l5.87,8.07c-1.5,1.12-2.97,2.29-4.39,3.51
			l-0.76,0.65l5.34,6.2l1.51-1.31l-4.03-4.68c2.79-2.35,5.75-4.5,8.8-6.43l3.21,5.28l1.71-1.04l-4.26-7l-0.86,0.52
			c-1.59,0.97-3.15,2.02-4.68,3.11l-5.87-8.07c1.76-1.25,3.54-2.45,5.37-3.57l0.85-0.52l-4.25-6.99l-1.71,1.04l3.22,5.29
			c-3.71,2.33-7.29,4.94-10.67,7.79L182.37,420.23z"/>
		<path d="M329.68,538.07L329.68,538.07c-0.31-1.1-0.61-2.17-0.96-3.24c-0.36-1.08-0.73-2.13-1.1-3.17
			c-0.72-2.06-1.61-4.11-2.49-6.06c-2,0.85-3.93,1.64-5.96,2.3c-1,0.34-1.99,0.65-2.97,0.95c-0.99,0.3-2.01,0.55-2.99,0.8l0,0
			l1.39,0.71l0,0l2.51-0.69c0.82-0.25,1.64-0.52,2.47-0.8c1.66-0.56,3.36-1.17,4.98-1.86c0.75,1.66,1.39,3.33,2.01,5.05
			c0.31,0.86,0.62,1.74,0.92,2.63l0.8,2.66l0,0L329.68,538.07z"/>
		<rect x="130.24" y="475.43" width="5.67" height="5.67"/>
		<rect x="395.29" y="501.97" transform="matrix(0.761 -0.6487 0.6487 0.761 -237.3165 383.2744)" width="12.52" height="23.55"/>
		<polygon points="366.96,527.78 368.52,532.17 374.69,529.98 375.1,530.1 374.93,529.9 375.18,529.81 374.76,529.71 370.52,524.72 
			366.96,527.75 366.95,527.75 366.95,527.76 366.94,527.77 		"/>
		<rect x="130.24" y="492.43" width="5.67" height="5.67"/>
		<rect x="327.84" y="363.27" transform="matrix(0.9834 -0.1813 0.1813 0.9834 -61.3689 67.6999)" width="23.55" height="12.52"/>
		<polygon points="382.91,417.86 405.1,425.74 409.29,413.95 395.21,408.94 397.91,394.25 385.61,391.98 381.34,415.14 
			383.72,415.58 		"/>
		<rect x="359.66" y="395.08" transform="matrix(0.1813 -0.9834 0.9834 0.1813 -90.597 693.8492)" width="23.55" height="12.52"/>
		<polygon points="441.37,495.27 432.59,502.76 426.2,495.27 432.59,487.77 		"/>
		<polygon points="332.53,396 347.76,393.2 344.95,408.43 357.26,410.7 361.53,387.54 354.68,386.28 353.42,379.43 330.26,383.7 		
			"/>
		<polygon points="418.34,495.27 428.03,506.64 418.51,514.77 403.23,496.83 405.07,495.27 403.23,493.7 418.51,475.77 
			428.03,483.89 		"/>
		<polygon points="415.16,397.42 403.8,395.33 402.02,405.01 411.29,408.31 		"/>
		<rect x="136.82" y="450.86" transform="matrix(0.5 -0.866 0.866 0.5 -323.0786 347.7889)" width="5.67" height="5.67"/>
		<rect x="130.6" y="427.62" transform="matrix(0.5 -0.866 0.866 0.5 -306.0707 330.7811)" width="5.67" height="5.67"/>
		<rect x="146.08" y="423.47" transform="matrix(0.5 -0.866 0.866 0.5 -294.7327 342.122)" width="5.67" height="5.67"/>
		<rect x="138.34" y="425.55" transform="matrix(0.5 -0.866 0.866 0.5 -300.4015 336.4504)" width="5.67" height="5.67"/>
		<rect x="132.67" y="435.37" transform="matrix(0.5 -0.866 0.866 0.5 -311.7406 336.4528)" width="5.67" height="5.67"/>
		<rect x="124.57" y="481.09" width="5.67" height="5.67"/>
		<rect x="134.75" y="443.11" transform="matrix(0.5 -0.866 0.866 0.5 -317.4093 342.1196)" width="5.67" height="5.67"/>
		<rect x="113.23" y="492.43" width="5.67" height="5.67"/>
		<rect x="118.9" y="486.76" width="5.67" height="5.67"/>
		<rect x="118.9" y="498.1" width="5.67" height="5.67"/>
		<rect x="130.24" y="509.44" width="5.67" height="5.67"/>
		<rect x="124.57" y="503.77" width="5.67" height="5.67"/>
		<rect x="145.33" y="436.13" transform="matrix(0.5 -0.866 0.866 0.5 -306.0708 347.7889)" width="5.67" height="5.67"/>
		<rect x="153.83" y="421.4" transform="matrix(0.5 -0.866 0.866 0.5 -289.0634 347.7914)" width="5.67" height="5.67"/>
		<rect x="145.5" y="357.75" transform="matrix(0.1813 -0.9834 0.9834 0.1813 -239.1563 451.7657)" width="12.52" height="23.55"/>
		<polygon points="146.42,408.43 143.62,393.2 158.85,396 161.12,383.7 137.96,379.43 136.69,386.28 129.85,387.54 134.12,410.7 		
			"/>
		<rect x="113.68" y="389.56" transform="matrix(0.9834 -0.1813 0.1813 0.9834 -70.7781 28.3981)" width="12.52" height="23.55"/>
		<polygon points="176.16,335.85 168.28,358.04 166,357.23 165.56,359.61 142.4,355.34 144.67,343.04 159.36,345.76 164.37,331.66 
					"/>
		<polygon points="89.36,405.01 87.57,395.33 76.22,397.42 80.08,408.31 		"/>
		<polygon points="65.17,495.27 58.79,502.76 50,495.27 58.79,487.77 		"/>
		<polygon points="345.62,337.16 335.94,338.93 332.65,329.66 343.53,325.79 		"/>
		<polygon points="107.66,415.58 108.47,417.85 86.27,425.73 82.09,413.95 96.17,408.95 93.46,394.24 105.77,391.97 110.04,415.14 
					"/>
		<polygon points="158.73,329.66 155.43,338.93 145.75,337.16 147.84,325.79 		"/>
		<polygon points="86.3,495.27 88.15,496.83 72.87,514.77 63.34,506.64 73.04,495.27 63.34,483.89 72.87,475.77 88.15,493.7 		"/>
		<polygon points="271.26,365.88 283.05,355.84 288.23,370.43 300.03,366.24 292.14,344.05 285.58,346.38 281.06,341.08 
			263.14,356.36 		"/>
		<rect x="171.98" y="344.79" transform="matrix(0.3347 -0.9423 0.9423 0.3347 -208.5512 406.7097)" width="23.55" height="12.52"/>
		<rect x="301.36" y="339.27" transform="matrix(0.9423 -0.3347 0.3347 0.9423 -99.7526 123.2049)" width="12.52" height="23.55"/>
		<polygon points="325.38,357.24 325.82,359.62 348.98,355.35 346.71,343.04 332.01,345.75 327.01,331.67 315.22,335.86 
			323.1,358.05 		"/>
		<rect x="252.38" y="333.15" transform="matrix(0.761 -0.6487 0.6487 0.761 -157.0524 252.4805)" width="23.55" height="12.52"/>
		<polygon points="203.14,370.43 208.33,355.84 220.11,365.88 228.23,356.36 210.31,341.08 205.79,346.38 199.23,344.05 
			191.35,366.24 		"/>
		<rect x="220.96" y="327.63" transform="matrix(0.6487 -0.761 0.761 0.6487 -178.4794 292.1355)" width="12.52" height="23.55"/>
		<polygon points="253.18,308.36 245.69,314.76 238.2,308.36 245.69,299.59 		"/>
		<polygon points="265.18,322.45 247.26,337.72 245.69,335.89 244.12,337.72 226.19,322.45 234.31,312.92 245.69,322.61 
			257.06,312.92 		"/>
		<path d="M202.89,411.28c-0.39,1.07-0.77,2.12-1.12,3.18c-0.34,1.08-0.66,2.16-0.96,3.22c-0.62,2.1-1.11,4.26-1.54,6.37
			c2.11,0.47,4.15,0.98,6.17,1.63c1,0.31,1.99,0.63,2.96,0.96c0.98,0.35,1.95,0.73,2.9,1.11l0,0l-0.71-1.39l0,0
			c-1.6-0.63-3.25-1.23-4.91-1.72c-1.67-0.51-3.41-1.03-5.13-1.42c0.36-1.79,0.83-3.5,1.33-5.27c0.49-1.79,1.08-3.53,1.72-5.29l0,0
			L202.89,411.28L202.89,411.28z"/>
		<rect x="366.81" y="486.76" width="5.67" height="5.67"/>
		<rect x="361.14" y="503.77" width="5.67" height="5.67"/>
		<rect x="366.81" y="498.1" width="5.67" height="5.67"/>
		<rect x="372.48" y="492.43" width="5.67" height="5.67"/>
		<rect x="355.47" y="475.43" width="5.67" height="5.67"/>
		<rect x="361.14" y="481.09" width="5.67" height="5.67"/>
		<rect x="355.47" y="492.43" width="5.67" height="5.67"/>
		<rect x="355.47" y="509.44" width="5.67" height="5.67"/>
		<rect x="347.36" y="425.55" transform="matrix(0.866 -0.5 0.5 0.866 -167.2736 232.4937)" width="5.67" height="5.67"/>
		<rect x="355.11" y="427.62" transform="matrix(0.866 -0.5 0.5 0.866 -167.2736 236.6439)" width="5.67" height="5.67"/>
		<rect x="339.62" y="423.47" transform="matrix(0.866 -0.5 0.5 0.866 -167.2736 228.3434)" width="5.67" height="5.67"/>
		<rect x="331.88" y="421.4" transform="matrix(0.866 -0.5 0.5 0.866 -167.2736 224.1932)" width="5.67" height="5.67"/>
		<polygon points="145.22,550 150.52,550 149.2,547.7 		"/>
		<path d="M167.06,478.48c-1.17-1.7-2.4-3.51-3.46-5.36c-1.92,1.05-3.7,2.21-5.59,3.44c-1.85,1.23-3.61,2.57-5.44,3.97l0,0
			l1.54,0.24l0,0c1.5-1.15,3-2.24,4.49-3.28c1.54-1.03,3.09-1.99,4.61-2.9c0.96,1.53,1.93,3.01,2.93,4.43
			c1.05,1.43,2.1,2.81,3.17,4.13l0,0l1.54,0.24l0,0C169.57,481.84,168.25,480.19,167.06,478.48z"/>
		<path d="M152.57,480.53L152.57,480.53c1.27,1.89,2.62,3.71,3.95,5.45c1.4,1.74,2.82,3.41,4.25,4.99c1.65-1.43,3.3-2.78,4.95-4.04
			c1.72-1.26,3.4-2.44,5.12-3.53l0,0l-1.54-0.24l0,0c-2.85,1.86-5.72,3.95-8.42,6.29c-2.41-2.68-4.63-5.57-6.77-8.67l0,0
			L152.57,480.53z"/>
		<path d="M179.03,428.61c-0.06,2.3-0.09,4.53-0.01,6.74c0.12,2.24,0.23,4.38,0.51,6.54c2.12-0.23,4.3-0.3,6.37-0.36
			c2.1-0.03,4.2,0.05,6.21,0.16l0,0l-1.1-1.1l0,0c-1.69-0.08-3.43-0.12-5.2-0.12c-1.75,0.02-3.5,0.12-5.31,0.24
			c-0.16-1.77-0.3-3.6-0.36-5.43c-0.04-1.82-0.04-3.67,0-5.57h0L179.03,428.61L179.03,428.61z"/>
		<path d="M178.17,460.88c-0.38-0.95-0.76-1.92-1.11-2.9c-0.33-0.97-0.65-1.96-0.96-2.96c-0.65-2.03-1.16-4.06-1.63-6.17
			c-2.11,0.43-4.27,0.91-6.37,1.54c-1.06,0.3-2.14,0.62-3.22,0.96c-1.06,0.35-2.11,0.73-3.18,1.12l0,0l1.39,0.71l0,0
			c1.76-0.64,3.5-1.22,5.29-1.72c1.77-0.5,3.49-0.97,5.27-1.33c0.39,1.72,0.9,3.46,1.42,5.13c0.5,1.66,1.09,3.31,1.72,4.91l0,0
			L178.17,460.88L178.17,460.88z"/>
		<path d="M161.7,452.47L161.7,452.47c0.31,1.1,0.61,2.17,0.96,3.24c0.36,1.08,0.73,2.13,1.1,3.17c0.72,2.06,1.61,4.11,2.49,6.06
			c2-0.85,3.93-1.64,5.96-2.3c1-0.34,1.99-0.65,2.97-0.95c0.99-0.3,2.01-0.55,2.99-0.8l0,0l-1.39-0.71l0,0l-2.51,0.69
			c-0.82,0.25-1.64,0.52-2.47,0.8c-1.66,0.56-3.36,1.17-4.98,1.86c-0.75-1.66-1.39-3.33-2.01-5.05c-0.31-0.86-0.62-1.74-0.92-2.63
			l-0.8-2.66l0,0L161.7,452.47z"/>
		<path d="M179.03,428.61l1.1,1.1l0,0c1.89-0.04,3.75-0.04,5.57,0c1.84,0.06,3.66,0.2,5.43,0.36c-0.12,1.81-0.22,3.56-0.24,5.31
			c0,1.77,0.04,3.51,0.12,5.2h0l1.1,1.1h0c-0.11-2.01-0.19-4.11-0.16-6.21c0.06-2.06,0.13-4.25,0.36-6.37
			c-2.16-0.28-4.3-0.39-6.54-0.51C183.55,428.52,181.33,428.55,179.03,428.61L179.03,428.61z"/>
		<path d="M202.89,411.28L202.89,411.28l0.71,1.39l0,0l2.66,0.8c0.89,0.29,1.76,0.61,2.63,0.92c1.73,0.62,3.4,1.26,5.05,2.01
			c-0.7,1.63-1.3,3.32-1.86,4.98c-0.28,0.83-0.55,1.65-0.8,2.47l-0.69,2.51l0,0l0.71,1.39l0,0c0.25-0.99,0.51-2.01,0.8-2.99
			c0.3-0.98,0.62-1.97,0.95-2.97c0.66-2.03,1.45-3.96,2.3-5.96c-1.95-0.88-4-1.77-6.06-2.49c-1.04-0.38-2.1-0.74-3.17-1.1
			C205.05,411.89,203.99,411.59,202.89,411.28z"/>
		<path d="M168.1,540.16c2.1,0.62,4.26,1.11,6.37,1.54c0.47-2.11,0.98-4.15,1.63-6.17c0.31-1,0.63-1.99,0.96-2.96
			c0.35-0.98,0.73-1.95,1.11-2.9h0l-1.39,0.71l0,0c-0.63,1.6-1.23,3.25-1.72,4.91c-0.51,1.67-1.03,3.41-1.42,5.13
			c-1.79-0.36-3.5-0.83-5.27-1.33c-1.79-0.49-3.53-1.08-5.29-1.72l0,0l-1.39,0.71l0,0c1.07,0.39,2.12,0.77,3.18,1.12
			C165.96,539.53,167.04,539.85,168.1,540.16z"/>
		<path d="M245.69,393.87c-55.91,0-101.4,45.49-101.4,101.4c0,20.14,5.91,38.93,16.07,54.73h3.59
			c-10.52-15.66-16.67-34.49-16.67-54.73c0-54.26,44.14-98.4,98.4-98.4c54.26,0,98.4,44.14,98.4,98.4
			c0,20.24-6.15,39.07-16.67,54.73h3.59c10.17-15.8,16.07-34.59,16.07-54.73C347.09,439.36,301.6,393.87,245.69,393.87z"/>
		<rect x="353.03" y="435.37" transform="matrix(0.866 -0.5 0.5 0.866 -171.4209 236.6362)" width="5.67" height="5.67"/>
		<path d="M178.17,529.66L178.17,529.66c-0.99-0.25-2.01-0.51-2.99-0.8c-0.98-0.3-1.97-0.62-2.97-0.95
			c-2.03-0.66-3.96-1.45-5.96-2.3c-0.88,1.95-1.77,4-2.49,6.06c-0.38,1.04-0.74,2.1-1.1,3.17c-0.35,1.07-0.65,2.14-0.96,3.24l0,0
			l1.39-0.71l0,0l0.8-2.66c0.29-0.89,0.61-1.76,0.92-2.63c0.62-1.73,1.26-3.4,2.01-5.05c1.63,0.7,3.32,1.3,4.98,1.86
			c0.83,0.28,1.65,0.55,2.47,0.8l2.51,0.69l0,0L178.17,529.66z"/>
		<polygon points="340.85,550 346.16,550 342.18,547.7 		"/>
		<path d="M163.6,517.42c1.06-1.85,2.29-3.66,3.46-5.36c1.2-1.71,2.52-3.37,3.79-4.92l0,0l-1.54,0.24l0,0
			c-1.06,1.32-2.12,2.7-3.17,4.13c-1,1.42-1.96,2.9-2.93,4.43c-1.52-0.91-3.07-1.88-4.61-2.9c-1.49-1.04-2.99-2.13-4.49-3.28l0,0
			l-1.54,0.24l0,0c1.83,1.41,3.59,2.74,5.44,3.97C159.89,515.21,161.68,516.37,163.6,517.42z"/>
		<path d="M170.84,507.13L170.84,507.13c-1.72-1.09-3.4-2.27-5.12-3.53c-1.65-1.26-3.3-2.61-4.95-4.04
			c-1.43,1.58-2.85,3.24-4.25,4.99c-1.33,1.74-2.68,3.56-3.95,5.45l0,0l1.54-0.24l0,0c2.14-3.11,4.36-5.99,6.77-8.67
			c2.7,2.33,5.57,4.43,8.42,6.29l0,0L170.84,507.13z"/>
		<rect x="178.04" y="380.18" transform="matrix(0.866 -0.5 0.5 0.866 -167.2738 141.7529)" width="5.67" height="5.67"/>
		<rect x="237.18" y="368.48" width="5.67" height="5.67"/>
		<rect x="254.19" y="374.15" width="5.67" height="5.67"/>
		<rect x="171.82" y="403.41" transform="matrix(0.866 -0.5 0.5 0.866 -179.7231 141.751)" width="5.67" height="5.67"/>
		<rect x="242.85" y="379.82" width="5.67" height="5.67"/>
		<rect x="248.52" y="368.48" width="5.67" height="5.67"/>
		<rect x="242.85" y="362.81" width="5.67" height="5.67"/>
		<rect x="259.86" y="379.82" width="5.67" height="5.67"/>
		<rect x="185.79" y="382.25" transform="matrix(0.866 -0.5 0.5 0.866 -167.2725 145.9012)" width="5.67" height="5.67"/>
		<rect x="201.27" y="386.4" transform="matrix(0.866 -0.5 0.5 0.866 -167.2738 154.2036)" width="5.67" height="5.67"/>
		<rect x="193.53" y="384.33" transform="matrix(0.866 -0.5 0.5 0.866 -167.2725 150.0514)" width="5.67" height="5.67"/>
		<rect x="173.89" y="395.67" transform="matrix(0.866 -0.5 0.5 0.866 -175.5742 141.7529)" width="5.67" height="5.67"/>
		<rect x="175.97" y="387.92" transform="matrix(0.866 -0.5 0.5 0.866 -171.4227 141.751)" width="5.67" height="5.67"/>
		<rect x="186.55" y="394.91" transform="matrix(0.866 -0.5 0.5 0.866 -173.4968 147.9749)" width="5.67" height="5.67"/>
		<rect x="231.51" y="374.15" width="5.67" height="5.67"/>
		<rect x="350.96" y="443.11" transform="matrix(0.866 -0.5 0.5 0.866 -175.5741 236.6439)" width="5.67" height="5.67"/>
		<rect x="299.92" y="382.25" transform="matrix(0.5 -0.866 0.866 0.5 -182.1175 454.737)" width="5.67" height="5.67"/>
		<rect x="284.43" y="386.4" transform="matrix(0.5 -0.866 0.866 0.5 -193.4564 443.3958)" width="5.67" height="5.67"/>
		<rect x="292.18" y="384.33" transform="matrix(0.5 -0.866 0.866 0.5 -187.7866 449.0696)" width="5.67" height="5.67"/>
		<rect x="348.88" y="450.86" transform="matrix(0.866 -0.5 0.5 0.866 -179.7243 236.6439)" width="5.67" height="5.67"/>
		<rect x="340.38" y="436.13" transform="matrix(0.866 -0.5 0.5 0.866 -173.497 230.4137)" width="5.67" height="5.67"/>
		<rect x="307.66" y="380.18" transform="matrix(0.5 -0.866 0.866 0.5 -176.4486 460.4036)" width="5.67" height="5.67"/>
		<rect x="299.16" y="394.91" transform="matrix(0.5 -0.866 0.866 0.5 -193.4559 460.4082)" width="5.67" height="5.67"/>
		<rect x="225.84" y="379.82" width="5.67" height="5.67"/>
		<rect x="309.74" y="387.92" transform="matrix(0.5 -0.866 0.866 0.5 -182.1175 466.0756)" width="5.67" height="5.67"/>
		<rect x="311.81" y="395.67" transform="matrix(0.5 -0.866 0.866 0.5 -187.7865 471.7469)" width="5.67" height="5.67"/>
		<rect x="313.89" y="403.41" transform="matrix(0.5 -0.866 0.866 0.5 -193.4565 477.4114)" width="5.67" height="5.67"/>
	</g>
</g>
<g>
</g>
<g>
</g>
<g>
</g>
<g>
</g>
<g>
</g>
<g>
</g>
<g>
</g>
<g>
</g>
<g>
</g>
<g>
</g>
<g>
</g>
<g>
</g>
<g>
</g>
<g>
</g>
<g>
</g>
</svg>
