<?xml version="1.0" encoding="utf-8"?>
<!-- Generator: Adobe Illustrator 27.2.0, SVG Export Plug-In . SVG Version: 6.00 Build 0)  -->
<svg version="1.1" id="Layer_1" xmlns="http://www.w3.org/2000/svg" xmlns:xlink="http://www.w3.org/1999/xlink" x="0px" y="0px"
	 viewBox="0 0 800 600" style="enable-background:new 0 0 800 600;" xml:space="preserve">
<g>
	<g>
		<rect x="95.35" y="359.54" width="5.67" height="5.67"/>
		<rect x="101.02" y="365.21" width="5.67" height="5.67"/>
		<rect x="106.69" y="370.87" width="5.67" height="5.67"/>
		<rect x="112.36" y="376.54" width="5.67" height="5.67"/>
		<rect x="118.03" y="382.21" width="5.67" height="5.67"/>
		<rect x="123.7" y="387.88" width="5.67" height="5.67"/>
		<rect x="129.37" y="393.55" width="5.67" height="5.67"/>
		<rect x="135.04" y="387.88" width="5.67" height="5.67"/>
		<rect x="140.71" y="382.21" width="5.67" height="5.67"/>
		<rect x="146.38" y="376.54" width="5.67" height="5.67"/>
		<rect x="152.05" y="370.87" width="5.67" height="5.67"/>
		<rect x="157.72" y="365.21" width="5.67" height="5.67"/>
		<rect x="101.02" y="353.87" width="5.67" height="5.67"/>
		<rect x="106.69" y="348.2" width="5.67" height="5.67"/>
		<rect x="112.36" y="353.87" width="5.67" height="5.67"/>
		<rect x="118.03" y="359.54" width="5.67" height="5.67"/>
		<rect x="112.36" y="365.21" width="5.67" height="5.67"/>
		<rect x="123.7" y="365.21" width="5.67" height="5.67"/>
		<rect x="129.37" y="370.87" width="5.67" height="5.67"/>
		<rect x="123.7" y="376.54" width="5.67" height="5.67"/>
		<rect x="135.04" y="376.54" width="5.67" height="5.67"/>
		<rect x="112.36" y="342.53" width="5.67" height="5.67"/>
		<rect x="118.03" y="336.86" width="5.67" height="5.67"/>
		<rect x="123.7" y="342.53" width="5.67" height="5.67"/>
		<rect x="129.37" y="348.2" width="5.67" height="5.67"/>
		<rect x="123.7" y="353.87" width="5.67" height="5.67"/>
		<rect x="135.04" y="353.87" width="5.67" height="5.67"/>
		<rect x="140.71" y="359.54" width="5.67" height="5.67"/>
		<rect x="135.04" y="365.21" width="5.67" height="5.67"/>
		<rect x="146.38" y="365.21" width="5.67" height="5.67"/>
		<rect x="123.7" y="331.19" width="5.67" height="5.67"/>
		<rect x="129.37" y="325.52" width="5.67" height="5.67"/>
		<rect x="135.04" y="331.19" width="5.67" height="5.67"/>
		<rect x="140.71" y="336.86" width="5.67" height="5.67"/>
		<rect x="135.04" y="342.53" width="5.67" height="5.67"/>
		<rect x="146.38" y="342.53" width="5.67" height="5.67"/>
		<rect x="152.05" y="348.2" width="5.67" height="5.67"/>
		<rect x="146.38" y="353.87" width="5.67" height="5.67"/>
		<rect x="157.72" y="353.87" width="5.67" height="5.67"/>
		<rect x="163.39" y="359.54" width="5.67" height="5.67"/>
		<g>
			<rect x="123.7" y="319.85" width="5.67" height="5.67"/>
			<rect x="118.03" y="314.18" width="5.67" height="5.67"/>
			<rect x="123.7" y="308.51" width="5.67" height="5.67"/>
			<rect x="135.04" y="319.85" width="5.67" height="5.67"/>
			<rect x="140.71" y="314.18" width="5.67" height="5.67"/>
			<rect x="146.38" y="308.51" width="5.67" height="5.67"/>
			<rect x="152.05" y="302.84" width="5.67" height="5.67"/>
			<rect x="157.72" y="308.51" width="5.67" height="5.67"/>
			<rect x="146.38" y="319.85" width="5.67" height="5.67"/>
			<rect x="152.05" y="325.52" width="5.67" height="5.67"/>
			<rect x="157.72" y="319.85" width="5.67" height="5.67"/>
			<rect x="163.39" y="314.18" width="5.67" height="5.67"/>
			
				<rect x="112.36" y="308.51" transform="matrix(-1 -4.427715e-11 4.427715e-11 -1 230.3937 622.6946)" width="5.67" height="5.67"/>
			
				<rect x="106.69" y="302.84" transform="matrix(-1 -4.556057e-11 4.556057e-11 -1 219.0551 611.356)" width="5.67" height="5.67"/>
			
				<rect x="101.02" y="308.51" transform="matrix(-1 -4.363544e-11 4.363544e-11 -1 207.7165 622.6946)" width="5.67" height="5.67"/>
			
				<rect x="112.36" y="319.85" transform="matrix(-1 -4.427715e-11 4.427715e-11 -1 230.3937 645.3718)" width="5.67" height="5.67"/>
			
				<rect x="106.69" y="325.52" transform="matrix(-1 -4.620227e-11 4.620227e-11 -1 219.0551 656.7104)" width="5.67" height="5.67"/>
			
				<rect x="101.02" y="319.85" transform="matrix(-1 -4.395652e-11 4.395652e-11 -1 207.7165 645.3718)" width="5.67" height="5.67"/>
			<rect x="95.35" y="314.18" transform="matrix(-1 -4.363544e-11 4.363544e-11 -1 196.378 634.0332)" width="5.67" height="5.67"/>
			<rect x="135.04" y="308.51" width="5.67" height="5.67"/>
			<rect x="129.37" y="302.84" width="5.67" height="5.67"/>
			<rect x="123.7" y="297.17" width="5.67" height="5.67"/>
			<rect x="118.03" y="291.5" width="5.67" height="5.67"/>
			<rect x="123.7" y="285.84" width="5.67" height="5.67"/>
			<rect x="135.04" y="297.17" width="5.67" height="5.67"/>
			<rect x="140.71" y="291.5" width="5.67" height="5.67"/>
			<rect x="135.04" y="285.84" width="5.67" height="5.67"/>
			<rect x="129.37" y="280.17" width="5.67" height="5.67"/>
		</g>
		<g>
			<rect x="89.69" y="365.21" transform="matrix(4.764639e-11 -1 1 4.764639e-11 -275.5205 460.5599)" width="5.67" height="5.67"/>
			<rect x="84.02" y="370.87" transform="matrix(4.588158e-11 -1 1 4.588158e-11 -286.8591 460.5599)" width="5.67" height="5.67"/>
			<rect x="78.35" y="365.21" transform="matrix(4.572171e-11 -1 1 4.572171e-11 -286.8591 449.2213)" width="5.67" height="5.67"/>
			<rect x="89.69" y="353.87" transform="matrix(4.588158e-11 -1 1 4.588158e-11 -264.1819 449.2213)" width="5.67" height="5.67"/>
			<rect x="84.02" y="348.2" transform="matrix(4.588158e-11 -1 1 4.588158e-11 -264.1819 437.8828)" width="5.67" height="5.67"/>
			<rect x="78.35" y="342.53" transform="matrix(4.411677e-11 -1 1 4.411677e-11 -264.1819 426.5442)" width="5.67" height="5.67"/>
			<rect x="72.68" y="336.86" transform="matrix(4.588158e-11 -1 1 4.588158e-11 -264.1819 415.2056)" width="5.67" height="5.67"/>
			<rect x="78.35" y="331.19" transform="matrix(4.572171e-11 -1 1 4.572171e-11 -252.8434 415.2056)" width="5.67" height="5.67"/>
			<rect x="89.69" y="342.53" transform="matrix(4.411677e-11 -1 1 4.411677e-11 -252.8434 437.8828)" width="5.67" height="5.67"/>
			<rect x="95.35" y="336.86" transform="matrix(4.235196e-11 -1 1 4.235196e-11 -241.5048 437.8828)" width="5.67" height="5.67"/>
			<rect x="89.69" y="331.19" transform="matrix(4.411677e-11 -1 1 4.411677e-11 -241.5048 426.5442)" width="5.67" height="5.67"/>
			<rect x="84.02" y="325.52" transform="matrix(4.588158e-11 -1 1 4.588158e-11 -241.5048 415.2056)" width="5.67" height="5.67"/>
			
				<rect x="78.35" y="376.54" transform="matrix(-8.823360e-11 1 -1 -8.823360e-11 460.5599 298.1977)" width="5.67" height="5.67"/>
			
				<rect x="72.68" y="382.21" transform="matrix(-8.823360e-11 1 -1 -8.823360e-11 460.5599 309.5363)" width="5.67" height="5.67"/>
			
				<rect x="78.35" y="387.88" transform="matrix(-8.999841e-11 1 -1 -8.999841e-11 471.8985 309.5363)" width="5.67" height="5.67"/>
			
				<rect x="89.69" y="376.54" transform="matrix(-8.999841e-11 1 -1 -8.999841e-11 471.8985 286.8591)" width="5.67" height="5.67"/>
			
				<rect x="95.35" y="382.21" transform="matrix(-8.999841e-11 1 -1 -8.999841e-11 483.2371 286.8591)" width="5.67" height="5.67"/>
			
				<rect x="89.69" y="387.88" transform="matrix(-9.160246e-11 1 -1 -9.160246e-11 483.2371 298.1977)" width="5.67" height="5.67"/>
			
				<rect x="84.02" y="393.55" transform="matrix(-8.999841e-11 1 -1 -8.999841e-11 483.2371 309.5363)" width="5.67" height="5.67"/>
			<rect x="78.35" y="353.87" transform="matrix(4.235196e-11 -1 1 4.235196e-11 -275.5205 437.8828)" width="5.67" height="5.67"/>
			<rect x="72.68" y="359.54" transform="matrix(4.411677e-11 -1 1 4.411677e-11 -286.8591 437.8828)" width="5.67" height="5.67"/>
			<rect x="67.01" y="365.21" transform="matrix(4.572171e-11 -1 1 4.572171e-11 -298.1977 437.8828)" width="5.67" height="5.67"/>
			<rect x="61.34" y="370.87" transform="matrix(4.588158e-11 -1 1 4.588158e-11 -309.5363 437.8828)" width="5.67" height="5.67"/>
			<rect x="55.67" y="365.21" transform="matrix(4.427753e-11 -1 1 4.427753e-11 -309.5363 426.5442)" width="5.67" height="5.67"/>
			<rect x="67.01" y="353.87" transform="matrix(4.588158e-11 -1 1 4.588158e-11 -286.8591 426.5442)" width="5.67" height="5.67"/>
			<rect x="61.34" y="348.2" transform="matrix(4.572171e-11 -1 1 4.572171e-11 -286.8591 415.2056)" width="5.67" height="5.67"/>
			<rect x="55.67" y="353.87" transform="matrix(4.588158e-11 -1 1 4.588158e-11 -298.1977 415.2056)" width="5.67" height="5.67"/>
			<rect x="50" y="359.54" transform="matrix(4.588158e-11 -1 1 4.588158e-11 -309.5363 415.2056)" width="5.67" height="5.67"/>
		</g>
		<g>
			
				<rect x="135.04" y="399.22" transform="matrix(-1 -8.983804e-11 8.983804e-11 -1 275.748 804.1119)" width="5.67" height="5.67"/>
			
				<rect x="140.71" y="404.89" transform="matrix(-1 -9.047975e-11 9.047975e-11 -1 287.0866 815.4505)" width="5.67" height="5.67"/>
			
				<rect x="135.04" y="410.56" transform="matrix(-1 -8.983804e-11 8.983804e-11 -1 275.748 826.7891)" width="5.67" height="5.67"/>
			
				<rect x="123.7" y="399.22" transform="matrix(-1 -8.983804e-11 8.983804e-11 -1 253.0709 804.1119)" width="5.67" height="5.67"/>
			
				<rect x="118.03" y="404.89" transform="matrix(-1 -9.047975e-11 9.047975e-11 -1 241.7323 815.4505)" width="5.67" height="5.67"/>
			
				<rect x="112.36" y="410.56" transform="matrix(-1 -8.983804e-11 8.983804e-11 -1 230.3937 826.7891)" width="5.67" height="5.67"/>
			
				<rect x="106.69" y="416.23" transform="matrix(-1 -8.983804e-11 8.983804e-11 -1 219.0551 838.1277)" width="5.67" height="5.67"/>
			
				<rect x="101.02" y="410.56" transform="matrix(-1 -9.015867e-11 9.015867e-11 -1 207.7165 826.7891)" width="5.67" height="5.67"/>
			
				<rect x="112.36" y="399.22" transform="matrix(-1 -8.983804e-11 8.983804e-11 -1 230.3937 804.1119)" width="5.67" height="5.67"/>
			
				<rect x="106.69" y="393.55" transform="matrix(-1 -8.983804e-11 8.983804e-11 -1 219.0551 792.7734)" width="5.67" height="5.67"/>
			
				<rect x="101.02" y="399.22" transform="matrix(-1 -8.983804e-11 8.983804e-11 -1 207.7165 804.1119)" width="5.67" height="5.67"/>
			<rect x="95.35" y="404.89" transform="matrix(-1 -8.983804e-11 8.983804e-11 -1 196.378 815.4505)" width="5.67" height="5.67"/>
			<rect x="146.38" y="410.56" width="5.67" height="5.67"/>
			<rect x="152.05" y="416.23" width="5.67" height="5.67"/>
			<rect x="157.72" y="410.56" width="5.67" height="5.67"/>
			<rect x="146.38" y="399.22" width="5.67" height="5.67"/>
			<rect x="152.05" y="393.55" width="5.67" height="5.67"/>
			<rect x="157.72" y="399.22" width="5.67" height="5.67"/>
			<rect x="163.39" y="404.89" width="5.67" height="5.67"/>
			
				<rect x="123.7" y="410.56" transform="matrix(-1 -8.983804e-11 8.983804e-11 -1 253.0709 826.7891)" width="5.67" height="5.67"/>
			
				<rect x="129.37" y="416.23" transform="matrix(-1 -8.983804e-11 8.983804e-11 -1 264.4095 838.1277)" width="5.67" height="5.67"/>
			<rect x="135.04" y="421.9" transform="matrix(-1 -9.015867e-11 9.015867e-11 -1 275.748 849.4662)" width="5.67" height="5.67"/>
			
				<rect x="140.71" y="427.57" transform="matrix(-1 -8.983804e-11 8.983804e-11 -1 287.0866 860.8049)" width="5.67" height="5.67"/>
			
				<rect x="135.04" y="433.24" transform="matrix(-1 -8.983804e-11 8.983804e-11 -1 275.748 872.1434)" width="5.67" height="5.67"/>
			<rect x="123.7" y="421.9" transform="matrix(-1 -9.047975e-11 9.047975e-11 -1 253.0709 849.4662)" width="5.67" height="5.67"/>
			
				<rect x="118.03" y="427.57" transform="matrix(-1 -8.983804e-11 8.983804e-11 -1 241.7323 860.8049)" width="5.67" height="5.67"/>
			
				<rect x="123.7" y="433.24" transform="matrix(-1 -9.047975e-11 9.047975e-11 -1 253.0709 872.1434)" width="5.67" height="5.67"/>
			
				<rect x="129.37" y="438.91" transform="matrix(-1 -8.983804e-11 8.983804e-11 -1 264.4095 883.482)" width="5.67" height="5.67"/>
		</g>
		<g>
			
				<rect x="169.06" y="353.87" transform="matrix(-1.323503e-10 1 -1 -1.323503e-10 528.5914 184.8119)" width="5.67" height="5.67"/>
			
				<rect x="174.72" y="348.2" transform="matrix(-1.341151e-10 1 -1 -1.341151e-10 528.5914 173.4733)" width="5.67" height="5.67"/>
			<rect x="180.39" y="353.87" transform="matrix(-1.341151e-10 1 -1 -1.341151e-10 539.93 173.4733)" width="5.67" height="5.67"/>
			<rect x="169.06" y="365.21" transform="matrix(-1.321904e-10 1 -1 -1.321904e-10 539.93 196.1505)" width="5.67" height="5.67"/>
			
				<rect x="174.72" y="370.87" transform="matrix(-1.339552e-10 1 -1 -1.339552e-10 551.2686 196.1505)" width="5.67" height="5.67"/>
			
				<rect x="180.39" y="376.54" transform="matrix(-1.341151e-10 1 -1 -1.341151e-10 562.6072 196.1505)" width="5.67" height="5.67"/>
			
				<rect x="186.06" y="382.21" transform="matrix(-1.376447e-10 1 -1 -1.376447e-10 573.9457 196.1505)" width="5.67" height="5.67"/>
			
				<rect x="180.39" y="387.88" transform="matrix(-1.341151e-10 1 -1 -1.341151e-10 573.9457 207.489)" width="5.67" height="5.67"/>
			
				<rect x="169.06" y="376.54" transform="matrix(-1.339552e-10 1 -1 -1.339552e-10 551.2686 207.489)" width="5.67" height="5.67"/>
			
				<rect x="163.39" y="382.21" transform="matrix(-1.357192e-10 1 -1 -1.357192e-10 551.2686 218.8276)" width="5.67" height="5.67"/>
			
				<rect x="169.06" y="387.88" transform="matrix(-1.357192e-10 1 -1 -1.357192e-10 562.6072 218.8276)" width="5.67" height="5.67"/>
			
				<rect x="174.72" y="393.55" transform="matrix(-1.341151e-10 1 -1 -1.341151e-10 573.9457 218.8276)" width="5.67" height="5.67"/>
			
				<rect x="180.39" y="342.53" transform="matrix(1.780718e-10 -1 1 1.780718e-10 -162.1347 528.5914)" width="5.67" height="5.67"/>
			
				<rect x="186.06" y="336.86" transform="matrix(1.780718e-10 -1 1 1.780718e-10 -150.7961 528.5914)" width="5.67" height="5.67"/>
			
				<rect x="180.39" y="331.19" transform="matrix(1.799965e-10 -1 1 1.799965e-10 -150.7961 517.2528)" width="5.67" height="5.67"/>
			
				<rect x="169.06" y="342.53" transform="matrix(1.799965e-10 -1 1 1.799965e-10 -173.4733 517.2528)" width="5.67" height="5.67"/>
			
				<rect x="163.39" y="336.86" transform="matrix(1.799965e-10 -1 1 1.799965e-10 -173.4733 505.9142)" width="5.67" height="5.67"/>
			
				<rect x="169.06" y="331.19" transform="matrix(1.799965e-10 -1 1 1.799965e-10 -162.1347 505.9142)" width="5.67" height="5.67"/>
			
				<rect x="174.72" y="325.52" transform="matrix(1.799965e-10 -1 1 1.799965e-10 -150.7961 505.9142)" width="5.67" height="5.67"/>
			
				<rect x="180.39" y="365.21" transform="matrix(-1.357192e-10 1 -1 -1.357192e-10 551.2686 184.8119)" width="5.67" height="5.67"/>
			
				<rect x="186.06" y="359.54" transform="matrix(-1.321904e-10 1 -1 -1.321904e-10 551.2686 173.4733)" width="5.67" height="5.67"/>
			
				<rect x="191.73" y="353.87" transform="matrix(-1.341151e-10 1 -1 -1.341151e-10 551.2686 162.1347)" width="5.67" height="5.67"/>
			<rect x="197.4" y="348.2" transform="matrix(-1.341151e-10 1 -1 -1.341151e-10 551.2686 150.7961)" width="5.67" height="5.67"/>
			
				<rect x="203.07" y="353.87" transform="matrix(-1.321904e-10 1 -1 -1.321904e-10 562.6072 150.7961)" width="5.67" height="5.67"/>
			
				<rect x="191.73" y="365.21" transform="matrix(-1.341151e-10 1 -1 -1.341151e-10 562.6072 173.4733)" width="5.67" height="5.67"/>
			
				<rect x="197.4" y="370.87" transform="matrix(-1.339552e-10 1 -1 -1.339552e-10 573.9457 173.4733)" width="5.67" height="5.67"/>
			
				<rect x="203.07" y="365.21" transform="matrix(-1.357192e-10 1 -1 -1.357192e-10 573.9457 162.1347)" width="5.67" height="5.67"/>
			
				<rect x="208.74" y="359.54" transform="matrix(-1.341151e-10 1 -1 -1.341151e-10 573.9457 150.7961)" width="5.67" height="5.67"/>
		</g>
	</g>
	<g>
		<rect x="95.35" y="532.99" width="5.67" height="5.67"/>
		<rect x="101.02" y="538.66" width="5.67" height="5.67"/>
		<rect x="106.69" y="544.33" width="5.67" height="5.67"/>
		<rect x="152.05" y="544.33" width="5.67" height="5.67"/>
		<rect x="157.72" y="538.66" width="5.67" height="5.67"/>
		<rect x="101.02" y="527.32" width="5.67" height="5.67"/>
		<rect x="106.69" y="521.65" width="5.67" height="5.67"/>
		<rect x="112.36" y="527.32" width="5.67" height="5.67"/>
		<rect x="118.03" y="532.99" width="5.67" height="5.67"/>
		<rect x="112.36" y="538.66" width="5.67" height="5.67"/>
		<rect x="123.7" y="538.66" width="5.67" height="5.67"/>
		<rect x="129.37" y="544.33" width="5.67" height="5.67"/>
		<rect x="112.36" y="515.98" width="5.67" height="5.67"/>
		<rect x="118.03" y="510.31" width="5.67" height="5.67"/>
		<rect x="123.7" y="515.98" width="5.67" height="5.67"/>
		<rect x="129.37" y="521.65" width="5.67" height="5.67"/>
		<rect x="123.7" y="527.32" width="5.67" height="5.67"/>
		<rect x="135.04" y="527.32" width="5.67" height="5.67"/>
		<rect x="140.71" y="532.99" width="5.67" height="5.67"/>
		<rect x="135.04" y="538.66" width="5.67" height="5.67"/>
		<rect x="146.38" y="538.66" width="5.67" height="5.67"/>
		<rect x="123.7" y="504.65" width="5.67" height="5.67"/>
		<rect x="129.37" y="498.98" width="5.67" height="5.67"/>
		<rect x="135.04" y="504.65" width="5.67" height="5.67"/>
		<rect x="140.71" y="510.31" width="5.67" height="5.67"/>
		<rect x="135.04" y="515.98" width="5.67" height="5.67"/>
		<rect x="146.38" y="515.98" width="5.67" height="5.67"/>
		<rect x="152.05" y="521.65" width="5.67" height="5.67"/>
		<rect x="146.38" y="527.32" width="5.67" height="5.67"/>
		<rect x="157.72" y="527.32" width="5.67" height="5.67"/>
		<rect x="163.39" y="532.99" width="5.67" height="5.67"/>
		<g>
			<rect x="123.7" y="493.31" width="5.67" height="5.67"/>
			<rect x="118.03" y="487.64" width="5.67" height="5.67"/>
			<rect x="123.7" y="481.97" width="5.67" height="5.67"/>
			<rect x="135.04" y="493.31" width="5.67" height="5.67"/>
			<rect x="140.71" y="487.64" width="5.67" height="5.67"/>
			<rect x="146.38" y="481.97" width="5.67" height="5.67"/>
			<rect x="152.05" y="476.3" width="5.67" height="5.67"/>
			<rect x="157.72" y="481.97" width="5.67" height="5.67"/>
			<rect x="146.38" y="493.31" width="5.67" height="5.67"/>
			<rect x="152.05" y="498.98" width="5.67" height="5.67"/>
			<rect x="157.72" y="493.31" width="5.67" height="5.67"/>
			<rect x="163.39" y="487.64" width="5.67" height="5.67"/>
			
				<rect x="112.36" y="481.97" transform="matrix(-1 -4.588164e-11 4.588164e-11 -1 230.3937 969.6063)" width="5.67" height="5.67"/>
			
				<rect x="106.69" y="476.3" transform="matrix(-1 -4.427715e-11 4.427715e-11 -1 219.0551 958.2677)" width="5.67" height="5.67"/>
			
				<rect x="101.02" y="481.97" transform="matrix(-1 -4.395652e-11 4.395652e-11 -1 207.7165 969.6063)" width="5.67" height="5.67"/>
			
				<rect x="112.36" y="493.31" transform="matrix(-1 -4.427715e-11 4.427715e-11 -1 230.3937 992.2834)" width="5.67" height="5.67"/>
			
				<rect x="106.69" y="498.98" transform="matrix(-1 -4.427715e-11 4.427715e-11 -1 219.0551 1003.6221)" width="5.67" height="5.67"/>
			
				<rect x="101.02" y="493.31" transform="matrix(-1 -4.427715e-11 4.427715e-11 -1 207.7165 992.2834)" width="5.67" height="5.67"/>
			<rect x="95.35" y="487.64" transform="matrix(-1 -4.588164e-11 4.588164e-11 -1 196.378 980.9449)" width="5.67" height="5.67"/>
			<rect x="135.04" y="481.97" width="5.67" height="5.67"/>
			<rect x="129.37" y="476.3" width="5.67" height="5.67"/>
			<rect x="123.7" y="470.63" width="5.67" height="5.67"/>
			<rect x="118.03" y="464.96" width="5.67" height="5.67"/>
			<rect x="123.7" y="459.29" width="5.67" height="5.67"/>
			<rect x="135.04" y="470.63" width="5.67" height="5.67"/>
			<rect x="140.71" y="464.96" width="5.67" height="5.67"/>
			<rect x="135.04" y="459.29" width="5.67" height="5.67"/>
			<rect x="129.37" y="453.62" width="5.67" height="5.67"/>
		</g>
		<g>
			<rect x="89.69" y="538.66" transform="matrix(4.395601e-11 -1 1 4.395601e-11 -448.9764 634.0157)" width="5.67" height="5.67"/>
			<rect x="84.02" y="544.33" transform="matrix(4.588158e-11 -1 1 4.588158e-11 -460.315 634.0157)" width="5.67" height="5.67"/>
			<rect x="78.35" y="538.66" transform="matrix(4.411677e-11 -1 1 4.411677e-11 -460.315 622.6772)" width="5.67" height="5.67"/>
			<rect x="89.69" y="527.32" transform="matrix(4.411677e-11 -1 1 4.411677e-11 -437.6378 622.6772)" width="5.67" height="5.67"/>
			<rect x="84.02" y="521.65" transform="matrix(4.588158e-11 -1 1 4.588158e-11 -437.6378 611.3386)" width="5.67" height="5.67"/>
			<rect x="78.35" y="515.98" transform="matrix(4.588158e-11 -1 1 4.588158e-11 -437.6378 600)" width="5.67" height="5.67"/>
			<rect x="72.68" y="510.31" transform="matrix(4.427753e-11 -1 1 4.427753e-11 -437.6378 588.6614)" width="5.67" height="5.67"/>
			<rect x="78.35" y="504.65" transform="matrix(4.411677e-11 -1 1 4.411677e-11 -426.2992 588.6614)" width="5.67" height="5.67"/>
			<rect x="89.69" y="515.98" transform="matrix(4.588158e-11 -1 1 4.588158e-11 -426.2992 611.3386)" width="5.67" height="5.67"/>
			<rect x="95.35" y="510.31" transform="matrix(4.588158e-11 -1 1 4.588158e-11 -414.9606 611.3386)" width="5.67" height="5.67"/>
			<rect x="89.69" y="504.65" transform="matrix(4.411677e-11 -1 1 4.411677e-11 -414.9606 600)" width="5.67" height="5.67"/>
			<rect x="84.02" y="498.98" transform="matrix(4.235196e-11 -1 1 4.235196e-11 -414.9606 588.6614)" width="5.67" height="5.67"/>
			<rect x="78.35" y="527.32" transform="matrix(4.764639e-11 -1 1 4.764639e-11 -448.9764 611.3386)" width="5.67" height="5.67"/>
			<rect x="72.68" y="532.99" transform="matrix(4.588158e-11 -1 1 4.588158e-11 -460.315 611.3386)" width="5.67" height="5.67"/>
			<rect x="67.01" y="538.66" transform="matrix(4.572171e-11 -1 1 4.572171e-11 -471.6535 611.3386)" width="5.67" height="5.67"/>
			<rect x="61.34" y="544.33" transform="matrix(4.764639e-11 -1 1 4.764639e-11 -482.9921 611.3386)" width="5.67" height="5.67"/>
			<rect x="55.67" y="538.66" transform="matrix(4.411677e-11 -1 1 4.411677e-11 -482.9921 600)" width="5.67" height="5.67"/>
			<rect x="67.01" y="527.32" transform="matrix(4.395601e-11 -1 1 4.395601e-11 -460.315 600)" width="5.67" height="5.67"/>
			<rect x="61.34" y="521.65" transform="matrix(4.411677e-11 -1 1 4.411677e-11 -460.315 588.6614)" width="5.67" height="5.67"/>
			<rect x="55.67" y="527.32" transform="matrix(4.427753e-11 -1 1 4.427753e-11 -471.6535 588.6614)" width="5.67" height="5.67"/>
			<rect x="50" y="532.99" transform="matrix(4.235196e-11 -1 1 4.235196e-11 -482.9921 588.6614)" width="5.67" height="5.67"/>
		</g>
		<g>
			
				<rect x="169.06" y="527.32" transform="matrix(-1.357192e-10 1 -1 -1.357192e-10 702.0472 358.2677)" width="5.67" height="5.67"/>
			
				<rect x="174.72" y="521.65" transform="matrix(-1.341151e-10 1 -1 -1.341151e-10 702.0472 346.9291)" width="5.67" height="5.67"/>
			
				<rect x="180.39" y="527.32" transform="matrix(-1.358799e-10 1 -1 -1.358799e-10 713.3858 346.9291)" width="5.67" height="5.67"/>
			
				<rect x="169.06" y="538.66" transform="matrix(-1.341151e-10 1 -1 -1.341151e-10 713.3858 369.6063)" width="5.67" height="5.67"/>
			
				<rect x="174.72" y="544.33" transform="matrix(-1.321904e-10 1 -1 -1.321904e-10 724.7244 369.6063)" width="5.67" height="5.67"/>
			
				<rect x="180.39" y="515.98" transform="matrix(1.799965e-10 -1 1 1.799965e-10 -335.5905 702.0472)" width="5.67" height="5.67"/>
			<rect x="186.06" y="510.31" transform="matrix(1.799965e-10 -1 1 1.799965e-10 -324.252 702.0472)" width="5.67" height="5.67"/>
			<rect x="180.39" y="504.65" transform="matrix(1.764669e-10 -1 1 1.764669e-10 -324.252 690.7087)" width="5.67" height="5.67"/>
			
				<rect x="169.06" y="515.98" transform="matrix(1.782317e-10 -1 1 1.782317e-10 -346.9291 690.7087)" width="5.67" height="5.67"/>
			
				<rect x="163.39" y="510.31" transform="matrix(1.799965e-10 -1 1 1.799965e-10 -346.9291 679.3701)" width="5.67" height="5.67"/>
			
				<rect x="169.06" y="504.65" transform="matrix(1.799965e-10 -1 1 1.799965e-10 -335.5905 679.3701)" width="5.67" height="5.67"/>
			<rect x="174.72" y="498.98" transform="matrix(1.782317e-10 -1 1 1.782317e-10 -324.252 679.3701)" width="5.67" height="5.67"/>
			
				<rect x="180.39" y="538.66" transform="matrix(-1.341151e-10 1 -1 -1.341151e-10 724.7244 358.2677)" width="5.67" height="5.67"/>
			
				<rect x="186.06" y="532.99" transform="matrix(-1.341151e-10 1 -1 -1.341151e-10 724.7244 346.9291)" width="5.67" height="5.67"/>
			
				<rect x="191.73" y="527.32" transform="matrix(-1.376447e-10 1 -1 -1.376447e-10 724.7244 335.5905)" width="5.67" height="5.67"/>
			<rect x="197.4" y="521.65" transform="matrix(-1.357192e-10 1 -1 -1.357192e-10 724.7244 324.252)" width="5.67" height="5.67"/>
			<rect x="203.07" y="527.32" transform="matrix(-1.341151e-10 1 -1 -1.341151e-10 736.063 324.252)" width="5.67" height="5.67"/>
			
				<rect x="191.73" y="538.66" transform="matrix(-1.358799e-10 1 -1 -1.358799e-10 736.063 346.9291)" width="5.67" height="5.67"/>
			
				<rect x="197.4" y="544.33" transform="matrix(-1.341151e-10 1 -1 -1.341151e-10 747.4016 346.9291)" width="5.67" height="5.67"/>
			
				<rect x="203.07" y="538.66" transform="matrix(-1.357192e-10 1 -1 -1.357192e-10 747.4016 335.5905)" width="5.67" height="5.67"/>
			
				<rect x="208.74" y="532.99" transform="matrix(-1.323503e-10 1 -1 -1.323503e-10 747.4016 324.252)" width="5.67" height="5.67"/>
		</g>
	</g>
</g>
<g>
</g>
<g>
</g>
<g>
</g>
<g>
</g>
<g>
</g>
<g>
</g>
<g>
</g>
<g>
</g>
<g>
</g>
<g>
</g>
<g>
</g>
<g>
</g>
<g>
</g>
<g>
</g>
<g>
</g>
</svg>
