<?xml version="1.0" encoding="utf-8"?>
<!-- Generator: Adobe Illustrator 27.2.0, SVG Export Plug-In . SVG Version: 6.00 Build 0)  -->
<svg version="1.1" id="Layer_1" xmlns="http://www.w3.org/2000/svg" xmlns:xlink="http://www.w3.org/1999/xlink" x="0px" y="0px"
	 viewBox="0 0 800 600" style="enable-background:new 0 0 800 600;" xml:space="preserve">
<g>
	<g>
		<g>
			<g>
				<g>
					<rect x="135.61" y="459.29" width="5.67" height="5.67"/>
					<rect x="129.94" y="453.62" width="5.67" height="5.67"/>
					<rect x="141.28" y="453.62" width="5.67" height="5.67"/>
					<rect x="135.61" y="447.95" width="5.67" height="5.67"/>
				</g>
				<rect x="135.61" y="498.98" width="5.67" height="5.67"/>
				<rect x="129.94" y="504.65" width="5.67" height="5.67"/>
				<rect x="124.27" y="510.31" width="5.67" height="5.67"/>
				<rect x="118.6" y="515.98" width="5.67" height="5.67"/>
				<rect x="112.93" y="521.65" width="5.67" height="5.67"/>
				<rect x="107.26" y="527.32" width="5.67" height="5.67"/>
				<rect x="101.59" y="532.99" width="5.67" height="5.67"/>
				<rect x="95.92" y="538.66" width="5.67" height="5.67"/>
				<rect x="141.28" y="504.65" width="5.67" height="5.67"/>
				<rect x="135.61" y="510.31" width="5.67" height="5.67"/>
				<rect x="141.28" y="515.98" width="5.67" height="5.67"/>
				<rect x="146.94" y="521.65" width="5.67" height="5.67"/>
				<rect x="152.61" y="527.32" width="5.67" height="5.67"/>
				<rect x="158.28" y="532.99" width="5.67" height="5.67"/>
				<rect x="163.95" y="538.66" width="5.67" height="5.67"/>
				<rect x="169.62" y="544.33" width="5.67" height="5.67"/>
				<rect x="129.94" y="515.98" width="5.67" height="5.67"/>
				<rect x="124.27" y="521.65" width="5.67" height="5.67"/>
				<rect x="135.61" y="532.99" width="5.67" height="5.67"/>
				<rect x="141.28" y="538.66" width="5.67" height="5.67"/>
				<rect x="146.94" y="544.33" width="5.67" height="5.67"/>
				<rect x="118.6" y="527.32" width="5.67" height="5.67"/>
				<rect x="129.94" y="538.66" width="5.67" height="5.67"/>
				<rect x="135.61" y="544.33" width="5.67" height="5.67"/>
				<rect x="112.93" y="532.99" width="5.67" height="5.67"/>
				<rect x="124.27" y="544.33" width="5.67" height="5.67"/>
				<rect x="107.26" y="538.66" width="5.67" height="5.67"/>
				<rect x="101.59" y="544.33" width="5.67" height="5.67"/>
				<rect x="146.94" y="510.31" width="5.67" height="5.67"/>
				<rect x="152.61" y="515.98" width="5.67" height="5.67"/>
				<rect x="158.28" y="521.65" width="5.67" height="5.67"/>
				<rect x="163.95" y="527.32" width="5.67" height="5.67"/>
				<rect x="169.62" y="532.99" width="5.67" height="5.67"/>
				<rect x="175.29" y="538.66" width="5.67" height="5.67"/>
				<rect x="141.28" y="493.31" width="5.67" height="5.67"/>
				<rect x="135.61" y="487.64" width="5.67" height="5.67"/>
				<rect x="141.28" y="481.97" width="5.67" height="5.67"/>
				<rect x="135.61" y="476.3" width="5.67" height="5.67"/>
				<rect x="129.94" y="470.63" width="5.67" height="5.67"/>
				<rect x="124.27" y="464.96" width="5.67" height="5.67"/>
				<rect x="118.6" y="459.29" width="5.67" height="5.67"/>
				<rect x="112.93" y="453.62" width="5.67" height="5.67"/>
				<rect x="146.94" y="476.3" width="5.67" height="5.67"/>
				<rect x="141.28" y="470.63" width="5.67" height="5.67"/>
				<rect x="118.6" y="447.95" width="5.67" height="5.67"/>
				<rect x="152.61" y="470.63" width="5.67" height="5.67"/>
				<rect x="146.94" y="464.96" width="5.67" height="5.67"/>
				<rect x="124.27" y="442.28" width="5.67" height="5.67"/>
				<rect x="158.28" y="464.96" width="5.67" height="5.67"/>
				<rect x="152.61" y="459.29" width="5.67" height="5.67"/>
				<rect x="129.94" y="436.61" width="5.67" height="5.67"/>
				<rect x="163.95" y="459.29" width="5.67" height="5.67"/>
				<rect x="158.28" y="453.62" width="5.67" height="5.67"/>
				<rect x="152.61" y="447.95" width="5.67" height="5.67"/>
				<rect x="146.94" y="442.28" width="5.67" height="5.67"/>
				<rect x="141.28" y="436.61" width="5.67" height="5.67"/>
				<rect x="135.61" y="430.94" width="5.67" height="5.67"/>
				<rect x="169.62" y="453.62" width="5.67" height="5.67"/>
				<rect x="163.95" y="447.95" width="5.67" height="5.67"/>
				<rect x="158.28" y="442.28" width="5.67" height="5.67"/>
				<rect x="152.61" y="436.61" width="5.67" height="5.67"/>
				<rect x="146.94" y="430.94" width="5.67" height="5.67"/>
				<rect x="141.28" y="425.28" width="5.67" height="5.67"/>
				<rect x="129.94" y="481.97" width="5.67" height="5.67"/>
				<rect x="124.27" y="476.3" width="5.67" height="5.67"/>
				<rect x="118.6" y="470.63" width="5.67" height="5.67"/>
				<rect x="112.93" y="464.96" width="5.67" height="5.67"/>
				<rect x="107.26" y="459.29" width="5.67" height="5.67"/>
				<rect x="101.59" y="453.62" width="5.67" height="5.67"/>
				<rect x="107.26" y="447.95" width="5.67" height="5.67"/>
				<rect x="112.93" y="442.28" width="5.67" height="5.67"/>
				<rect x="118.6" y="436.61" width="5.67" height="5.67"/>
				<rect x="124.27" y="430.94" width="5.67" height="5.67"/>
				<rect x="129.94" y="425.28" width="5.67" height="5.67"/>
				<rect x="135.61" y="419.61" width="5.67" height="5.67"/>
				<rect x="146.94" y="487.64" width="5.67" height="5.67"/>
				<rect x="152.61" y="481.97" width="5.67" height="5.67"/>
				<rect x="158.28" y="476.3" width="5.67" height="5.67"/>
				<rect x="163.95" y="470.63" width="5.67" height="5.67"/>
				<rect x="169.62" y="464.96" width="5.67" height="5.67"/>
				<rect x="175.29" y="459.29" width="5.67" height="5.67"/>
				<rect x="180.96" y="453.62" width="5.67" height="5.67"/>
				<rect x="175.29" y="447.95" width="5.67" height="5.67"/>
				<rect x="169.62" y="442.28" width="5.67" height="5.67"/>
				<rect x="163.95" y="436.61" width="5.67" height="5.67"/>
				<rect x="158.28" y="430.94" width="5.67" height="5.67"/>
				<rect x="152.61" y="425.28" width="5.67" height="5.67"/>
				<rect x="146.94" y="419.61" width="5.67" height="5.67"/>
				<rect x="141.28" y="413.94" width="5.67" height="5.67"/>
				<rect x="135.61" y="408.27" width="5.67" height="5.67"/>
				<rect x="129.94" y="413.94" width="5.67" height="5.67"/>
				<rect x="124.27" y="419.61" width="5.67" height="5.67"/>
				<rect x="118.6" y="425.28" width="5.67" height="5.67"/>
				<rect x="112.93" y="430.94" width="5.67" height="5.67"/>
				<rect x="107.26" y="436.61" width="5.67" height="5.67"/>
				<rect x="101.59" y="442.28" width="5.67" height="5.67"/>
				<rect x="95.92" y="447.95" width="5.67" height="5.67"/>
				<rect x="90.25" y="453.62" width="5.67" height="5.67"/>
				<rect x="95.92" y="459.29" width="5.67" height="5.67"/>
				<rect x="101.59" y="464.96" width="5.67" height="5.67"/>
				<rect x="107.26" y="470.63" width="5.67" height="5.67"/>
				<rect x="112.93" y="476.3" width="5.67" height="5.67"/>
				<rect x="118.6" y="481.97" width="5.67" height="5.67"/>
				<rect x="124.27" y="487.64" width="5.67" height="5.67"/>
				<rect x="129.94" y="493.31" width="5.67" height="5.67"/>
				<g>
					<rect x="135.61" y="400.97" transform="matrix(0.7071 0.7071 -0.7071 0.7071 326.0845 20.3804)" width="5.67" height="5.67"/>
					<rect x="135.61" y="392.89" transform="matrix(0.7071 0.7071 -0.7071 0.7071 320.3687 18.0129)" width="5.67" height="5.67"/>
					<rect x="135.61" y="384.81" transform="matrix(0.7071 0.7071 -0.7071 0.7071 314.653 15.6453)" width="5.67" height="5.67"/>
					<rect x="135.61" y="376.72" transform="matrix(0.7071 0.7071 -0.7071 0.7071 308.9372 13.2778)" width="5.67" height="5.67"/>
					<rect x="135.61" y="368.64" transform="matrix(0.7071 0.7071 -0.7071 0.7071 303.2214 10.9102)" width="5.67" height="5.67"/>
					<g>
						<g>
							<polygon points="138.44,361.34 146.74,353.04 145.32,351.63 138.44,358.51 							"/>
							<polygon points="138.44,364.55 138.44,367.38 146.74,359.08 145.32,357.67 							"/>
						</g>
						<g>
							<polygon points="138.44,361.34 130.15,353.04 131.56,351.63 138.44,358.51 							"/>
							<polygon points="138.44,364.55 138.44,367.38 130.15,359.08 131.56,357.67 							"/>
						</g>
					</g>
					<circle cx="138.44" cy="352.99" r="3.25"/>
				</g>
				<g>
					<rect x="161.33" y="423.82" transform="matrix(0.7071 0.7071 -0.7071 0.7071 349.7711 8.8832)" width="5.67" height="5.67"/>
					<rect x="161.33" y="415.73" transform="matrix(0.7071 0.7071 -0.7071 0.7071 344.0553 6.5156)" width="5.67" height="5.67"/>
					<rect x="161.33" y="407.65" transform="matrix(0.7071 0.7071 -0.7071 0.7071 338.3395 4.1481)" width="5.67" height="5.67"/>
					<rect x="161.33" y="399.57" transform="matrix(0.7071 0.7071 -0.7071 0.7071 332.6237 1.7805)" width="5.67" height="5.67"/>
					<rect x="161.33" y="391.48" transform="matrix(0.7071 0.7071 -0.7071 0.7071 326.908 -0.587)" width="5.67" height="5.67"/>
					<g>
						<g>
							<polygon points="164.16,384.18 172.46,375.89 171.04,374.47 164.16,381.35 							"/>
							<polygon points="164.16,387.39 164.16,390.22 172.46,381.93 171.04,380.51 							"/>
						</g>
						<g>
							<polygon points="164.16,384.18 155.87,375.89 157.28,374.47 164.16,381.35 							"/>
							<polygon points="164.16,387.39 164.16,390.22 155.87,381.93 157.28,380.51 							"/>
						</g>
					</g>
					<circle cx="164.16" cy="375.84" r="3.25"/>
				</g>
				<g>
					<rect x="184.08" y="446.4" transform="matrix(0.7071 0.7071 -0.7071 0.7071 372.4044 -0.5892)" width="5.67" height="5.67"/>
					<rect x="184.08" y="438.32" transform="matrix(0.7071 0.7071 -0.7071 0.7071 366.6886 -2.9567)" width="5.67" height="5.67"/>
					<rect x="184.08" y="430.24" transform="matrix(0.7071 0.7071 -0.7071 0.7071 360.9728 -5.3243)" width="5.67" height="5.67"/>
					<rect x="184.08" y="422.15" transform="matrix(0.7071 0.7071 -0.7071 0.7071 355.257 -7.6918)" width="5.67" height="5.67"/>
					<rect x="184.08" y="414.07" transform="matrix(0.7071 0.7071 -0.7071 0.7071 349.5413 -10.0594)" width="5.67" height="5.67"/>
					<g>
						<g>
							<polygon points="186.91,406.76 195.21,398.47 193.79,397.06 186.91,403.94 							"/>
							<polygon points="186.91,409.98 186.91,412.81 195.21,404.51 193.79,403.1 							"/>
						</g>
						<g>
							<polygon points="186.91,406.76 178.62,398.47 180.03,397.06 186.91,403.94 							"/>
							<polygon points="186.91,409.98 186.91,412.81 178.62,404.51 180.03,403.1 							"/>
						</g>
					</g>
					<circle cx="186.91" cy="398.42" r="3.25"/>
				</g>
				<g>
					
						<rect x="109.88" y="423.82" transform="matrix(-0.7071 0.7071 -0.7071 -0.7071 494.1128 648.637)" width="5.67" height="5.67"/>
					
						<rect x="109.88" y="415.73" transform="matrix(-0.7071 0.7071 -0.7071 -0.7071 488.397 634.8379)" width="5.67" height="5.67"/>
					
						<rect x="109.88" y="407.65" transform="matrix(-0.7071 0.7071 -0.7071 -0.7071 482.6812 621.0388)" width="5.67" height="5.67"/>
					
						<rect x="109.88" y="399.57" transform="matrix(-0.7071 0.7071 -0.7071 -0.7071 476.9655 607.2397)" width="5.67" height="5.67"/>
					
						<rect x="109.88" y="391.48" transform="matrix(-0.7071 0.7071 -0.7071 -0.7071 471.2497 593.4406)" width="5.67" height="5.67"/>
					<g>
						<g>
							<polygon points="112.72,384.18 104.43,375.89 105.84,374.47 112.72,381.35 							"/>
							<polygon points="112.72,387.39 112.72,390.22 104.43,381.93 105.84,380.51 							"/>
						</g>
						<g>
							<polygon points="112.72,384.18 121.01,375.89 119.6,374.47 112.72,381.35 							"/>
							<polygon points="112.72,387.39 112.72,390.22 121.01,381.93 119.6,380.51 							"/>
						</g>
					</g>
					<circle cx="112.72" cy="375.84" r="3.25"/>
				</g>
				<g>
					<rect x="87.13" y="446.4" transform="matrix(-0.7071 0.7071 -0.7071 -0.7071 471.2446 703.2786)" width="5.67" height="5.67"/>
					
						<rect x="87.13" y="438.32" transform="matrix(-0.7071 0.7071 -0.7071 -0.7071 465.5288 689.4796)" width="5.67" height="5.67"/>
					<rect x="87.13" y="430.24" transform="matrix(-0.7071 0.7071 -0.7071 -0.7071 459.813 675.6804)" width="5.67" height="5.67"/>
					
						<rect x="87.13" y="422.15" transform="matrix(-0.7071 0.7071 -0.7071 -0.7071 454.0972 661.8813)" width="5.67" height="5.67"/>
					
						<rect x="87.13" y="414.07" transform="matrix(-0.7071 0.7071 -0.7071 -0.7071 448.3814 648.0822)" width="5.67" height="5.67"/>
					<g>
						<g>
							<polygon points="89.97,406.76 81.67,398.47 83.09,397.06 89.97,403.94 							"/>
							<polygon points="89.97,409.98 89.97,412.81 81.67,404.51 83.09,403.1 							"/>
						</g>
						<g>
							<polygon points="89.97,406.76 98.26,398.47 96.85,397.06 89.97,403.94 							"/>
							<polygon points="89.97,409.98 89.97,412.81 98.26,404.51 96.85,403.1 							"/>
						</g>
					</g>
					<circle cx="89.97" cy="398.42" r="3.25"/>
				</g>
			</g>
			<circle style="fill:none;stroke:#000000;stroke-width:3;stroke-miterlimit:10;" cx="182.86" cy="501.81" r="15.34"/>
			<circle style="fill:none;stroke:#000000;stroke-width:3;stroke-miterlimit:10;" cx="94.02" cy="501.81" r="15.34"/>
			<g>
				<rect x="224.05" y="459.29" width="2.83" height="5.67"/>
				<rect x="224.05" y="470.63" width="2.83" height="11.34"/>
				<rect x="190.03" y="544.33" width="5.67" height="5.67"/>
				<polygon points="226.88,436.25 224.88,436.25 224.88,447.41 219.5,447.41 219.5,436.25 215.5,436.25 215.5,447.41 
					215.26,447.41 226.88,459.03 				"/>
				<rect x="224.05" y="487.64" width="2.83" height="5.67"/>
				<rect x="212.71" y="487.64" width="5.67" height="5.67"/>
				<rect x="218.38" y="481.97" width="5.67" height="5.67"/>
				<rect x="212.71" y="476.3" width="5.67" height="5.67"/>
				<rect x="195.7" y="470.63" width="5.67" height="5.67"/>
				<rect x="207.04" y="481.97" width="5.67" height="5.67"/>
				<rect x="218.38" y="464.96" width="5.67" height="5.67"/>
				<rect x="195.7" y="459.29" width="5.67" height="5.67"/>
				<rect x="201.37" y="476.3" width="5.67" height="5.67"/>
				<rect x="184.36" y="538.66" width="5.67" height="5.67"/>
				<rect x="190.03" y="464.96" width="5.67" height="5.67"/>
				<rect x="201.37" y="464.96" width="5.67" height="5.67"/>
				<rect x="218.38" y="515.98" width="5.67" height="5.67"/>
				<rect x="201.37" y="532.99" width="5.67" height="5.67"/>
				<rect x="207.04" y="527.32" width="5.67" height="5.67"/>
				<rect x="195.7" y="538.66" width="5.67" height="5.67"/>
				<rect x="190.03" y="532.99" width="5.67" height="5.67"/>
				<rect x="212.71" y="544.33" width="5.67" height="5.67"/>
				<rect x="224.05" y="544.33" width="2.83" height="5.67"/>
				<rect x="224.05" y="532.99" width="2.83" height="5.67"/>
				<rect x="218.38" y="493.31" width="5.67" height="5.67"/>
				<rect x="218.38" y="538.66" width="5.67" height="5.67"/>
				<rect x="224.05" y="510.31" width="2.83" height="5.67"/>
				<rect x="218.38" y="504.65" width="5.67" height="5.67"/>
				<rect x="224.05" y="498.98" width="2.83" height="5.67"/>
				<rect x="212.71" y="521.65" width="5.67" height="5.67"/>
				<rect x="212.71" y="510.31" width="5.67" height="5.67"/>
				<rect x="195.7" y="527.32" width="5.67" height="5.67"/>
				<rect x="201.37" y="521.65" width="5.67" height="5.67"/>
				<rect x="207.04" y="515.98" width="5.67" height="5.67"/>
			</g>
			<g>
				<rect x="50" y="459.29" width="2.83" height="5.67"/>
				<rect x="50" y="470.63" width="2.83" height="11.34"/>
				<rect x="81.18" y="544.33" width="5.67" height="5.67"/>
				<polygon points="50,436.25 52,436.25 52,447.41 57.38,447.41 57.38,436.25 61.38,436.25 61.38,447.41 61.62,447.41 50,459.03 
									"/>
				<rect x="50" y="487.64" width="2.83" height="5.67"/>
				<rect x="58.5" y="487.64" width="5.67" height="5.67"/>
				<rect x="52.83" y="481.97" width="5.67" height="5.67"/>
				<rect x="58.5" y="476.3" width="5.67" height="5.67"/>
				<rect x="75.51" y="470.63" width="5.67" height="5.67"/>
				<rect x="64.17" y="481.97" width="5.67" height="5.67"/>
				<rect x="52.83" y="464.96" width="5.67" height="5.67"/>
				<rect x="75.51" y="459.29" width="5.67" height="5.67"/>
				<rect x="69.84" y="476.3" width="5.67" height="5.67"/>
				<rect x="86.85" y="538.66" width="5.67" height="5.67"/>
				<rect x="81.18" y="464.96" width="5.67" height="5.67"/>
				<rect x="69.84" y="464.96" width="5.67" height="5.67"/>
				<rect x="52.83" y="515.98" width="5.67" height="5.67"/>
				<rect x="69.84" y="532.99" width="5.67" height="5.67"/>
				<rect x="64.17" y="527.32" width="5.67" height="5.67"/>
				<rect x="75.51" y="538.66" width="5.67" height="5.67"/>
				<rect x="81.18" y="532.99" width="5.67" height="5.67"/>
				<rect x="58.5" y="544.33" width="5.67" height="5.67"/>
				<rect x="50" y="544.33" width="2.83" height="5.67"/>
				<rect x="50" y="532.99" width="2.83" height="5.67"/>
				<rect x="52.83" y="493.31" width="5.67" height="5.67"/>
				<rect x="52.83" y="538.66" width="5.67" height="5.67"/>
				<rect x="50" y="510.31" width="2.83" height="5.67"/>
				<rect x="52.83" y="504.65" width="5.67" height="5.67"/>
				<rect x="50" y="498.98" width="2.83" height="5.67"/>
				<rect x="58.5" y="521.65" width="5.67" height="5.67"/>
				<rect x="58.5" y="510.31" width="5.67" height="5.67"/>
				<rect x="75.51" y="527.32" width="5.67" height="5.67"/>
				<rect x="69.84" y="521.65" width="5.67" height="5.67"/>
				<rect x="64.17" y="515.98" width="5.67" height="5.67"/>
			</g>
		</g>
		<g>
			<g>
				<g>
					<rect x="312.49" y="459.29" width="5.67" height="5.67"/>
					<rect x="306.82" y="453.62" width="5.67" height="5.67"/>
					<rect x="318.16" y="453.62" width="5.67" height="5.67"/>
					<rect x="312.49" y="447.95" width="5.67" height="5.67"/>
				</g>
				<rect x="312.49" y="498.98" width="5.67" height="5.67"/>
				<rect x="306.82" y="504.65" width="5.67" height="5.67"/>
				<rect x="301.15" y="510.31" width="5.67" height="5.67"/>
				<rect x="295.48" y="515.98" width="5.67" height="5.67"/>
				<rect x="289.81" y="521.65" width="5.67" height="5.67"/>
				<rect x="284.14" y="527.32" width="5.67" height="5.67"/>
				<rect x="278.47" y="532.99" width="5.67" height="5.67"/>
				<rect x="272.8" y="538.66" width="5.67" height="5.67"/>
				<rect x="318.16" y="504.65" width="5.67" height="5.67"/>
				<rect x="312.49" y="510.31" width="5.67" height="5.67"/>
				<rect x="318.16" y="515.98" width="5.67" height="5.67"/>
				<rect x="323.83" y="521.65" width="5.67" height="5.67"/>
				<rect x="329.5" y="527.32" width="5.67" height="5.67"/>
				<rect x="335.17" y="532.99" width="5.67" height="5.67"/>
				<rect x="340.83" y="538.66" width="5.67" height="5.67"/>
				<rect x="346.5" y="544.33" width="5.67" height="5.67"/>
				<rect x="306.82" y="515.98" width="5.67" height="5.67"/>
				<rect x="301.15" y="521.65" width="5.67" height="5.67"/>
				<rect x="312.49" y="532.99" width="5.67" height="5.67"/>
				<rect x="318.16" y="538.66" width="5.67" height="5.67"/>
				<rect x="323.83" y="544.33" width="5.67" height="5.67"/>
				<rect x="295.48" y="527.32" width="5.67" height="5.67"/>
				<rect x="306.82" y="538.66" width="5.67" height="5.67"/>
				<rect x="312.49" y="544.33" width="5.67" height="5.67"/>
				<rect x="289.81" y="532.99" width="5.67" height="5.67"/>
				<rect x="301.15" y="544.33" width="5.67" height="5.67"/>
				<rect x="284.14" y="538.66" width="5.67" height="5.67"/>
				<rect x="278.47" y="544.33" width="5.67" height="5.67"/>
				<rect x="323.83" y="510.31" width="5.67" height="5.67"/>
				<rect x="329.5" y="515.98" width="5.67" height="5.67"/>
				<rect x="335.17" y="521.65" width="5.67" height="5.67"/>
				<rect x="340.83" y="527.32" width="5.67" height="5.67"/>
				<rect x="346.5" y="532.99" width="5.67" height="5.67"/>
				<rect x="352.17" y="538.66" width="5.67" height="5.67"/>
				<rect x="318.16" y="493.31" width="5.67" height="5.67"/>
				<rect x="312.49" y="487.64" width="5.67" height="5.67"/>
				<rect x="318.16" y="481.97" width="5.67" height="5.67"/>
				<rect x="312.49" y="476.3" width="5.67" height="5.67"/>
				<rect x="306.82" y="470.63" width="5.67" height="5.67"/>
				<rect x="301.15" y="464.96" width="5.67" height="5.67"/>
				<rect x="295.48" y="459.29" width="5.67" height="5.67"/>
				<rect x="289.81" y="453.62" width="5.67" height="5.67"/>
				<rect x="323.83" y="476.3" width="5.67" height="5.67"/>
				<rect x="318.16" y="470.63" width="5.67" height="5.67"/>
				<rect x="295.48" y="447.95" width="5.67" height="5.67"/>
				<rect x="329.5" y="470.63" width="5.67" height="5.67"/>
				<rect x="323.83" y="464.96" width="5.67" height="5.67"/>
				<rect x="301.15" y="442.28" width="5.67" height="5.67"/>
				<rect x="335.17" y="464.96" width="5.67" height="5.67"/>
				<rect x="329.5" y="459.29" width="5.67" height="5.67"/>
				<rect x="306.82" y="436.61" width="5.67" height="5.67"/>
				<rect x="340.83" y="459.29" width="5.67" height="5.67"/>
				<rect x="335.17" y="453.62" width="5.67" height="5.67"/>
				<rect x="329.5" y="447.95" width="5.67" height="5.67"/>
				<rect x="323.83" y="442.28" width="5.67" height="5.67"/>
				<rect x="318.16" y="436.61" width="5.67" height="5.67"/>
				<rect x="312.49" y="430.94" width="5.67" height="5.67"/>
				<rect x="346.5" y="453.62" width="5.67" height="5.67"/>
				<rect x="340.83" y="447.95" width="5.67" height="5.67"/>
				<rect x="335.17" y="442.28" width="5.67" height="5.67"/>
				<rect x="329.5" y="436.61" width="5.67" height="5.67"/>
				<rect x="323.83" y="430.94" width="5.67" height="5.67"/>
				<rect x="318.16" y="425.28" width="5.67" height="5.67"/>
				<rect x="306.82" y="481.97" width="5.67" height="5.67"/>
				<rect x="301.15" y="476.3" width="5.67" height="5.67"/>
				<rect x="295.48" y="470.63" width="5.67" height="5.67"/>
				<rect x="289.81" y="464.96" width="5.67" height="5.67"/>
				<rect x="284.14" y="459.29" width="5.67" height="5.67"/>
				<rect x="278.47" y="453.62" width="5.67" height="5.67"/>
				<rect x="284.14" y="447.95" width="5.67" height="5.67"/>
				<rect x="289.81" y="442.28" width="5.67" height="5.67"/>
				<rect x="295.48" y="436.61" width="5.67" height="5.67"/>
				<rect x="301.15" y="430.94" width="5.67" height="5.67"/>
				<rect x="306.82" y="425.28" width="5.67" height="5.67"/>
				<rect x="312.49" y="419.61" width="5.67" height="5.67"/>
				<rect x="323.83" y="487.64" width="5.67" height="5.67"/>
				<rect x="329.5" y="481.97" width="5.67" height="5.67"/>
				<rect x="335.17" y="476.3" width="5.67" height="5.67"/>
				<rect x="340.83" y="470.63" width="5.67" height="5.67"/>
				<rect x="346.5" y="464.96" width="5.67" height="5.67"/>
				<rect x="352.17" y="459.29" width="5.67" height="5.67"/>
				<rect x="357.84" y="453.62" width="5.67" height="5.67"/>
				<rect x="352.17" y="447.95" width="5.67" height="5.67"/>
				<rect x="346.5" y="442.28" width="5.67" height="5.67"/>
				<rect x="340.83" y="436.61" width="5.67" height="5.67"/>
				<rect x="335.17" y="430.94" width="5.67" height="5.67"/>
				<rect x="329.5" y="425.28" width="5.67" height="5.67"/>
				<rect x="323.83" y="419.61" width="5.67" height="5.67"/>
				<rect x="318.16" y="413.94" width="5.67" height="5.67"/>
				<rect x="312.49" y="408.27" width="5.67" height="5.67"/>
				<rect x="306.82" y="413.94" width="5.67" height="5.67"/>
				<rect x="301.15" y="419.61" width="5.67" height="5.67"/>
				<rect x="295.48" y="425.28" width="5.67" height="5.67"/>
				<rect x="289.81" y="430.94" width="5.67" height="5.67"/>
				<rect x="284.14" y="436.61" width="5.67" height="5.67"/>
				<rect x="278.47" y="442.28" width="5.67" height="5.67"/>
				<rect x="272.8" y="447.95" width="5.67" height="5.67"/>
				<rect x="267.13" y="453.62" width="5.67" height="5.67"/>
				<rect x="272.8" y="459.29" width="5.67" height="5.67"/>
				<rect x="278.47" y="464.96" width="5.67" height="5.67"/>
				<rect x="284.14" y="470.63" width="5.67" height="5.67"/>
				<rect x="289.81" y="476.3" width="5.67" height="5.67"/>
				<rect x="295.48" y="481.97" width="5.67" height="5.67"/>
				<rect x="301.15" y="487.64" width="5.67" height="5.67"/>
				<rect x="306.82" y="493.31" width="5.67" height="5.67"/>
				<g>
					<rect x="312.49" y="400.97" transform="matrix(0.7071 0.7071 -0.7071 0.7071 377.892 -104.694)" width="5.67" height="5.67"/>
					
						<rect x="312.49" y="392.89" transform="matrix(0.7071 0.7071 -0.7071 0.7071 372.1763 -107.0615)" width="5.67" height="5.67"/>
					
						<rect x="312.49" y="384.81" transform="matrix(0.7071 0.7071 -0.7071 0.7071 366.4605 -109.4291)" width="5.67" height="5.67"/>
					
						<rect x="312.49" y="376.72" transform="matrix(0.7071 0.7071 -0.7071 0.7071 360.7447 -111.7966)" width="5.67" height="5.67"/>
					
						<rect x="312.49" y="368.64" transform="matrix(0.7071 0.7071 -0.7071 0.7071 355.0289 -114.1642)" width="5.67" height="5.67"/>
					<g>
						<g>
							<polygon points="315.32,361.34 323.62,353.04 322.2,351.63 315.32,358.51 							"/>
							<polygon points="315.32,364.55 315.32,367.38 323.62,359.08 322.2,357.67 							"/>
						</g>
						<g>
							<polygon points="315.32,361.34 307.03,353.04 308.44,351.63 315.32,358.51 							"/>
							<polygon points="315.32,364.55 315.32,367.38 307.03,359.08 308.44,357.67 							"/>
						</g>
					</g>
					<circle cx="315.32" cy="352.99" r="3.25"/>
				</g>
				<g>
					
						<rect x="338.21" y="423.82" transform="matrix(0.7071 0.7071 -0.7071 0.7071 401.5786 -116.1912)" width="5.67" height="5.67"/>
					
						<rect x="338.21" y="415.73" transform="matrix(0.7071 0.7071 -0.7071 0.7071 395.8628 -118.5588)" width="5.67" height="5.67"/>
					<rect x="338.21" y="407.65" transform="matrix(0.7071 0.7071 -0.7071 0.7071 390.147 -120.9263)" width="5.67" height="5.67"/>
					
						<rect x="338.21" y="399.57" transform="matrix(0.7071 0.7071 -0.7071 0.7071 384.4312 -123.2939)" width="5.67" height="5.67"/>
					
						<rect x="338.21" y="391.48" transform="matrix(0.7071 0.7071 -0.7071 0.7071 378.7155 -125.6614)" width="5.67" height="5.67"/>
					<g>
						<g>
							<polygon points="341.04,384.18 349.34,375.89 347.92,374.47 341.04,381.35 							"/>
							<polygon points="341.04,387.39 341.04,390.22 349.34,381.93 347.92,380.51 							"/>
						</g>
						<g>
							<polygon points="341.04,384.18 332.75,375.89 334.16,374.47 341.04,381.35 							"/>
							<polygon points="341.04,387.39 341.04,390.22 332.75,381.93 334.16,380.51 							"/>
						</g>
					</g>
					<circle cx="341.04" cy="375.84" r="3.25"/>
				</g>
				<g>
					<rect x="360.96" y="446.4" transform="matrix(0.7071 0.7071 -0.7071 0.7071 424.2119 -125.6635)" width="5.67" height="5.67"/>
					
						<rect x="360.96" y="438.32" transform="matrix(0.7071 0.7071 -0.7071 0.7071 418.4961 -128.0311)" width="5.67" height="5.67"/>
					
						<rect x="360.96" y="430.24" transform="matrix(0.7071 0.7071 -0.7071 0.7071 412.7803 -130.3987)" width="5.67" height="5.67"/>
					
						<rect x="360.96" y="422.15" transform="matrix(0.7071 0.7071 -0.7071 0.7071 407.0645 -132.7662)" width="5.67" height="5.67"/>
					
						<rect x="360.96" y="414.07" transform="matrix(0.7071 0.7071 -0.7071 0.7071 401.3488 -135.1338)" width="5.67" height="5.67"/>
					<g>
						<g>
							<polygon points="363.8,406.76 372.09,398.47 370.68,397.06 363.8,403.94 							"/>
							<polygon points="363.8,409.98 363.8,412.81 372.09,404.51 370.68,403.1 							"/>
						</g>
						<g>
							<polygon points="363.8,406.76 355.5,398.47 356.92,397.06 363.8,403.94 							"/>
							<polygon points="363.8,409.98 363.8,412.81 355.5,404.51 356.92,403.1 							"/>
						</g>
					</g>
					<circle cx="363.8" cy="398.42" r="3.25"/>
				</g>
				<g>
					
						<rect x="286.77" y="423.82" transform="matrix(-0.7071 0.7071 -0.7071 -0.7071 796.0691 523.5626)" width="5.67" height="5.67"/>
					
						<rect x="286.77" y="415.73" transform="matrix(-0.7071 0.7071 -0.7071 -0.7071 790.3533 509.7635)" width="5.67" height="5.67"/>
					
						<rect x="286.77" y="407.65" transform="matrix(-0.7071 0.7071 -0.7071 -0.7071 784.6375 495.9644)" width="5.67" height="5.67"/>
					
						<rect x="286.77" y="399.57" transform="matrix(-0.7071 0.7071 -0.7071 -0.7071 778.9218 482.1653)" width="5.67" height="5.67"/>
					
						<rect x="286.77" y="391.48" transform="matrix(-0.7071 0.7071 -0.7071 -0.7071 773.2059 468.3662)" width="5.67" height="5.67"/>
					<g>
						<g>
							<polygon points="289.6,384.18 281.31,375.89 282.72,374.47 289.6,381.35 							"/>
							<polygon points="289.6,387.39 289.6,390.22 281.31,381.93 282.72,380.51 							"/>
						</g>
						<g>
							<polygon points="289.6,384.18 297.9,375.89 296.48,374.47 289.6,381.35 							"/>
							<polygon points="289.6,387.39 289.6,390.22 297.9,381.93 296.48,380.51 							"/>
						</g>
					</g>
					<circle cx="289.6" cy="375.84" r="3.25"/>
				</g>
				<g>
					
						<rect x="264.02" y="446.4" transform="matrix(-0.7071 0.7071 -0.7071 -0.7071 773.2009 578.2043)" width="5.67" height="5.67"/>
					
						<rect x="264.02" y="438.32" transform="matrix(-0.7071 0.7071 -0.7071 -0.7071 767.485 564.4052)" width="5.67" height="5.67"/>
					
						<rect x="264.02" y="430.24" transform="matrix(-0.7071 0.7071 -0.7071 -0.7071 761.7693 550.606)" width="5.67" height="5.67"/>
					
						<rect x="264.02" y="422.15" transform="matrix(-0.7071 0.7071 -0.7071 -0.7071 756.0535 536.8069)" width="5.67" height="5.67"/>
					
						<rect x="264.02" y="414.07" transform="matrix(-0.7071 0.7071 -0.7071 -0.7071 750.3377 523.0078)" width="5.67" height="5.67"/>
					<g>
						<g>
							<polygon points="266.85,406.76 258.56,398.47 259.97,397.06 266.85,403.94 							"/>
							<polygon points="266.85,409.98 266.85,412.81 258.56,404.51 259.97,403.1 							"/>
						</g>
						<g>
							<polygon points="266.85,406.76 275.14,398.47 273.73,397.06 266.85,403.94 							"/>
							<polygon points="266.85,409.98 266.85,412.81 275.14,404.51 273.73,403.1 							"/>
						</g>
					</g>
					<circle cx="266.85" cy="398.42" r="3.25"/>
				</g>
			</g>
			<circle style="fill:none;stroke:#000000;stroke-width:3;stroke-miterlimit:10;" cx="359.74" cy="501.81" r="15.34"/>
			<circle style="fill:none;stroke:#000000;stroke-width:3;stroke-miterlimit:10;" cx="270.9" cy="501.81" r="15.34"/>
			<g>
				<rect x="400.93" y="459.29" width="2.83" height="5.67"/>
				<rect x="400.93" y="470.63" width="2.83" height="11.34"/>
				<rect x="366.91" y="544.33" width="5.67" height="5.67"/>
				<polygon points="403.76,436.25 401.76,436.25 401.76,447.41 396.39,447.41 396.39,436.25 392.39,436.25 392.39,447.41 
					392.14,447.41 403.76,459.03 				"/>
				<rect x="400.93" y="487.64" width="2.83" height="5.67"/>
				<rect x="389.59" y="487.64" width="5.67" height="5.67"/>
				<rect x="395.26" y="481.97" width="5.67" height="5.67"/>
				<rect x="389.59" y="476.3" width="5.67" height="5.67"/>
				<rect x="372.58" y="470.63" width="5.67" height="5.67"/>
				<rect x="383.92" y="481.97" width="5.67" height="5.67"/>
				<rect x="395.26" y="464.96" width="5.67" height="5.67"/>
				<rect x="372.58" y="459.29" width="5.67" height="5.67"/>
				<rect x="378.25" y="476.3" width="5.67" height="5.67"/>
				<rect x="361.24" y="538.66" width="5.67" height="5.67"/>
				<rect x="366.91" y="464.96" width="5.67" height="5.67"/>
				<rect x="378.25" y="464.96" width="5.67" height="5.67"/>
				<rect x="395.26" y="515.98" width="5.67" height="5.67"/>
				<rect x="378.25" y="532.99" width="5.67" height="5.67"/>
				<rect x="383.92" y="527.32" width="5.67" height="5.67"/>
				<rect x="372.58" y="538.66" width="5.67" height="5.67"/>
				<rect x="366.91" y="532.99" width="5.67" height="5.67"/>
				<rect x="389.59" y="544.33" width="5.67" height="5.67"/>
				<rect x="400.93" y="544.33" width="2.83" height="5.67"/>
				<rect x="400.93" y="532.99" width="2.83" height="5.67"/>
				<rect x="395.26" y="493.31" width="5.67" height="5.67"/>
				<rect x="395.26" y="538.66" width="5.67" height="5.67"/>
				<rect x="400.93" y="510.31" width="2.83" height="5.67"/>
				<rect x="395.26" y="504.65" width="5.67" height="5.67"/>
				<rect x="400.93" y="498.98" width="2.83" height="5.67"/>
				<rect x="389.59" y="521.65" width="5.67" height="5.67"/>
				<rect x="389.59" y="510.31" width="5.67" height="5.67"/>
				<rect x="372.58" y="527.32" width="5.67" height="5.67"/>
				<rect x="378.25" y="521.65" width="5.67" height="5.67"/>
				<rect x="383.92" y="515.98" width="5.67" height="5.67"/>
			</g>
			<g>
				<rect x="226.88" y="459.29" width="2.83" height="5.67"/>
				<rect x="226.88" y="470.63" width="2.83" height="11.34"/>
				<rect x="258.06" y="544.33" width="5.67" height="5.67"/>
				<polygon points="226.88,436.25 228.88,436.25 228.88,447.41 234.26,447.41 234.26,436.25 238.26,436.25 238.26,447.41 
					238.51,447.41 226.88,459.03 				"/>
				<rect x="226.88" y="487.64" width="2.83" height="5.67"/>
				<rect x="235.39" y="487.64" width="5.67" height="5.67"/>
				<rect x="229.72" y="481.97" width="5.67" height="5.67"/>
				<rect x="235.39" y="476.3" width="5.67" height="5.67"/>
				<rect x="252.39" y="470.63" width="5.67" height="5.67"/>
				<rect x="241.06" y="481.97" width="5.67" height="5.67"/>
				<rect x="229.72" y="464.96" width="5.67" height="5.67"/>
				<rect x="252.39" y="459.29" width="5.67" height="5.67"/>
				<rect x="246.72" y="476.3" width="5.67" height="5.67"/>
				<rect x="263.73" y="538.66" width="5.67" height="5.67"/>
				<rect x="258.06" y="464.96" width="5.67" height="5.67"/>
				<rect x="246.72" y="464.96" width="5.67" height="5.67"/>
				<rect x="229.72" y="515.98" width="5.67" height="5.67"/>
				<rect x="246.72" y="532.99" width="5.67" height="5.67"/>
				<rect x="241.06" y="527.32" width="5.67" height="5.67"/>
				<rect x="252.39" y="538.66" width="5.67" height="5.67"/>
				<rect x="258.06" y="532.99" width="5.67" height="5.67"/>
				<rect x="235.39" y="544.33" width="5.67" height="5.67"/>
				<rect x="226.88" y="544.33" width="2.83" height="5.67"/>
				<rect x="226.88" y="532.99" width="2.83" height="5.67"/>
				<rect x="229.72" y="493.31" width="5.67" height="5.67"/>
				<rect x="229.72" y="538.66" width="5.67" height="5.67"/>
				<rect x="226.88" y="510.31" width="2.83" height="5.67"/>
				<rect x="229.72" y="504.65" width="5.67" height="5.67"/>
				<rect x="226.88" y="498.98" width="2.83" height="5.67"/>
				<rect x="235.39" y="521.65" width="5.67" height="5.67"/>
				<rect x="235.39" y="510.31" width="5.67" height="5.67"/>
				<rect x="252.39" y="527.32" width="5.67" height="5.67"/>
				<rect x="246.72" y="521.65" width="5.67" height="5.67"/>
				<rect x="241.06" y="515.98" width="5.67" height="5.67"/>
			</g>
		</g>
	</g>
</g>
<g>
</g>
<g>
</g>
<g>
</g>
<g>
</g>
<g>
</g>
<g>
</g>
<g>
</g>
<g>
</g>
<g>
</g>
<g>
</g>
<g>
</g>
<g>
</g>
<g>
</g>
<g>
</g>
<g>
</g>
</svg>
