<?xml version="1.0" encoding="utf-8"?>
<!-- Generator: Adobe Illustrator 27.2.0, SVG Export Plug-In . SVG Version: 6.00 Build 0)  -->
<svg version="1.1" id="Layer_1" xmlns="http://www.w3.org/2000/svg" xmlns:xlink="http://www.w3.org/1999/xlink" x="0px" y="0px"
	 viewBox="0 0 800 600" style="enable-background:new 0 0 800 600;" xml:space="preserve">
<g>
	<g>
		<polygon points="248.04,525.87 243.8,530.11 248.04,534.35 		"/>
		<path d="M138.36,536.74l4.03,4.03l-9.22,9.23h5.66l6.4-6.4l3.8,3.8l3.8-3.8l6.4,6.4h5.66l-9.22-9.22l4.03-4.03L172.94,550h8.3
			l19.89-19.89l-17.29-17.29l0,0l-17.52-17.52l0,0l-17.29-17.29l-17.29,17.29l0,0l-17.52,17.52l0,0l-17.29,17.29l17.29,17.29l0,0
			l2.6,2.6h8.3L138.36,536.74z M149.02,543.16l-13.05-13.05l13.05-13.05l13.05,13.05L149.02,543.16z M183.83,517.07l13.05,13.05
			l-13.05,13.05l-13.05-13.05L183.83,517.07z M181.71,514.94l-15.17,15.17l15.17,15.17l-3.92,3.92l-15.29-15.29l3.8-3.8l-3.8-3.8
			l15.29-15.29L181.71,514.94z M174.97,508.2l-15.29,15.29l-4.03-4.03l15.29-15.29L174.97,508.2z M149.02,482.25l13.05,13.05
			l-13.05,13.05l-13.05-13.05L149.02,482.25z M133.85,497.42l15.17,15.17l15.17-15.17l3.92,3.92l-15.29,15.29l-3.8-3.8l-3.8,3.8
			l-15.29-15.29L133.85,497.42z M127.1,504.17l15.29,15.29l-4.03,4.03l-15.29-15.29L127.1,504.17z M101.15,530.11l13.05-13.05
			l13.05,13.05l-13.05,13.05L101.15,530.11z M131.49,530.11l-15.17-15.17l3.92-3.92l15.29,15.29l-3.8,3.8l3.8,3.8l-15.29,15.29
			l-3.92-3.92L131.49,530.11z"/>
		<rect x="68.81" y="521.61" width="5.67" height="5.67"/>
		<rect x="63.15" y="527.28" width="5.67" height="5.67"/>
		<rect x="230.46" y="538.45" transform="matrix(0.7071 -0.7071 0.7071 0.7071 -314.4844 323.6713)" width="6" height="6"/>
		<polygon points="237.91,541.45 242.15,545.69 242.15,537.21 		"/>
		<polygon points="146.66,550 151.38,550 149.02,547.64 		"/>
		<rect x="111.37" y="521.61" width="5.67" height="5.67"/>
		<rect x="111.37" y="532.95" width="5.67" height="5.67"/>
		<rect x="117.04" y="527.28" width="5.67" height="5.67"/>
		<rect x="105.7" y="527.28" width="5.67" height="5.67"/>
		<rect x="223.55" y="521.61" width="5.67" height="5.67"/>
		<rect x="80.15" y="532.95" width="5.67" height="5.67"/>
		<rect x="236.35" y="527.11" transform="matrix(0.7071 -0.7071 0.7071 0.7071 -304.7404 324.5106)" width="6" height="6"/>
		<rect x="212.21" y="532.95" width="5.67" height="5.67"/>
		<rect x="217.88" y="538.62" width="5.67" height="5.67"/>
		<rect x="212.21" y="521.61" width="5.67" height="5.67"/>
		<rect x="74.48" y="538.62" width="5.67" height="5.67"/>
		<rect x="217.88" y="527.28" width="5.67" height="5.67"/>
		<rect x="223.55" y="544.29" width="5.67" height="5.67"/>
		<rect x="230.46" y="515.78" transform="matrix(0.7071 -0.7071 0.7071 0.7071 -298.4507 317.0332)" width="6" height="6"/>
		<polygon points="242.15,514.53 237.91,518.77 242.15,523.02 		"/>
		<rect x="223.55" y="532.95" width="5.67" height="5.67"/>
		<rect x="223.55" y="510.27" width="5.67" height="5.67"/>
		<rect x="229.22" y="527.28" width="5.67" height="5.67"/>
		<rect x="68.81" y="544.29" width="5.67" height="5.67"/>
		<rect x="146.18" y="498.13" width="5.67" height="5.67"/>
		<rect x="140.51" y="527.28" width="5.67" height="5.67"/>
		<rect x="202.8" y="498.72" transform="matrix(0.7071 -0.7071 0.7071 0.7071 -294.4952 292.4709)" width="6" height="6"/>
		<rect x="151.85" y="527.28" width="5.67" height="5.67"/>
		<rect x="146.18" y="532.95" width="5.67" height="5.67"/>
		<polygon points="50,525.87 50,534.35 54.24,530.11 		"/>
		<rect x="146.18" y="521.61" width="5.67" height="5.67"/>
		<rect x="181" y="521.61" width="5.67" height="5.67"/>
		<rect x="61.57" y="538.45" transform="matrix(0.7071 -0.7071 0.7071 0.7071 -363.9513 204.2477)" width="6" height="6"/>
		<polygon points="103.17,550 107.41,550 87.52,530.11 149.02,468.62 210.51,530.11 190.63,550 194.87,550 214.75,530.11 
			149.02,464.38 83.28,530.11 		"/>
		<rect x="68.81" y="532.95" width="5.67" height="5.67"/>
		<rect x="129.21" y="472.21" width="5.67" height="5.67"/>
		<rect x="163.16" y="472.21" width="5.67" height="5.67"/>
		<rect x="89.24" y="498.72" transform="matrix(0.7071 -0.7071 0.7071 0.7071 -327.7548 212.1753)" width="6" height="6"/>
		<polygon points="55.89,545.69 60.13,541.45 55.89,537.21 		"/>
		<rect x="74.48" y="515.94" width="5.67" height="5.67"/>
		<rect x="151.85" y="492.46" width="5.67" height="5.67"/>
		<rect x="140.51" y="492.46" width="5.67" height="5.67"/>
		<rect x="146.18" y="486.79" width="5.67" height="5.67"/>
		<rect x="74.48" y="527.28" width="5.67" height="5.67"/>
		<rect x="217.88" y="515.94" width="5.67" height="5.67"/>
		<rect x="186.67" y="527.28" width="5.67" height="5.67"/>
		<rect x="55.69" y="527.11" transform="matrix(0.7071 -0.7071 0.7071 0.7071 -357.6585 196.7625)" width="6" height="6"/>
		<rect x="181" y="532.95" width="5.67" height="5.67"/>
		<rect x="61.57" y="515.78" transform="matrix(0.7071 -0.7071 0.7071 0.7071 -347.9161 197.6057)" width="6" height="6"/>
		<polygon points="55.89,514.53 55.89,523.02 60.13,518.77 		"/>
		<rect x="175.33" y="527.28" width="5.67" height="5.67"/>
		<rect x="80.15" y="521.61" width="5.67" height="5.67"/>
		<polygon points="83.56,474.8 83.56,483.29 87.8,479.05 		"/>
		<rect x="102.15" y="476.21" width="5.67" height="5.67"/>
		<rect x="83.35" y="487.39" transform="matrix(0.7071 -0.7071 0.7071 0.7071 -321.4621 204.6901)" width="6" height="6"/>
		<rect x="151.85" y="441.12" width="5.67" height="5.67"/>
		<rect x="140.51" y="441.12" width="5.67" height="5.67"/>
		<rect x="89.24" y="476.05" transform="matrix(0.7071 -0.7071 0.7071 0.7071 -311.7196 205.5333)" width="6" height="6"/>
		<rect x="146.18" y="446.79" width="5.67" height="5.67"/>
		<rect x="151.85" y="452.46" width="5.67" height="5.67"/>
		<rect x="163.19" y="441.12" width="5.67" height="5.67"/>
		<rect x="146.18" y="435.45" width="5.67" height="5.67"/>
		<rect x="129.18" y="441.12" width="5.67" height="5.67"/>
		<rect x="140.51" y="452.46" width="5.67" height="5.67"/>
		<rect x="157.52" y="446.79" width="5.67" height="5.67"/>
		<rect x="146.18" y="458.13" width="5.67" height="5.67"/>
		<rect x="123.29" y="466.29" width="5.67" height="5.67"/>
		<rect x="96.48" y="481.88" width="5.67" height="5.67"/>
		<rect x="102.15" y="498.89" width="5.67" height="5.67"/>
		<rect x="90.81" y="487.55" width="5.67" height="5.67"/>
		<rect x="102.15" y="487.55" width="5.67" height="5.67"/>
		<rect x="96.48" y="493.22" width="5.67" height="5.67"/>
		<rect x="107.82" y="481.88" width="5.67" height="5.67"/>
		<rect x="117.37" y="460.37" width="5.67" height="5.67"/>
		<rect x="111.44" y="454.45" width="5.67" height="5.67"/>
		<rect x="134.85" y="446.79" width="5.67" height="5.67"/>
		<rect x="96.48" y="504.56" width="5.67" height="5.67"/>
		<rect x="134.68" y="433.88" transform="matrix(0.7071 -0.7071 0.7071 0.7071 -268.5958 225.3137)" width="6" height="6"/>
		<rect x="96.48" y="470.54" width="5.67" height="5.67"/>
		<rect x="113.49" y="487.55" width="5.67" height="5.67"/>
		<rect x="190.22" y="498.89" width="5.67" height="5.67"/>
		<polygon points="214.48,497.48 210.24,501.72 214.48,505.96 		"/>
		<rect x="178.88" y="487.55" width="5.67" height="5.67"/>
		<rect x="195.89" y="504.56" width="5.67" height="5.67"/>
		<polygon points="141.92,428.2 133.44,428.2 137.68,432.44 		"/>
		<rect x="190.22" y="487.55" width="5.67" height="5.67"/>
		<rect x="107.82" y="493.22" width="5.67" height="5.67"/>
		<rect x="190.22" y="476.21" width="5.67" height="5.67"/>
		<rect x="208.69" y="487.39" transform="matrix(0.7071 -0.7071 0.7071 0.7071 -284.7528 293.3141)" width="6" height="6"/>
		<polygon points="220.37,486.14 216.13,490.38 220.37,494.63 		"/>
		<rect x="184.55" y="493.22" width="5.67" height="5.67"/>
		<polygon points="214.48,474.8 210.24,479.05 214.48,483.29 		"/>
		<rect x="195.89" y="470.54" width="5.67" height="5.67"/>
		<rect x="202.8" y="476.05" transform="matrix(0.7071 -0.7071 0.7071 0.7071 -278.4587 285.8255)" width="6" height="6"/>
		<rect x="201.55" y="487.55" width="5.67" height="5.67"/>
		<polygon points="164.6,428.2 156.12,428.2 160.36,432.44 		"/>
		<rect x="169.08" y="466.29" width="5.67" height="5.67"/>
		<rect x="157.36" y="433.88" transform="matrix(0.7071 -0.7071 0.7071 0.7071 -261.9524 241.3459)" width="6" height="6"/>
		<rect x="68.81" y="510.27" width="5.67" height="5.67"/>
		<polygon points="153.26,422.31 144.78,422.31 149.02,426.55 		"/>
		<rect x="146.02" y="427.99" transform="matrix(0.7071 -0.7071 0.7071 0.7071 -261.1106 231.6065)" width="6" height="6"/>
		<rect x="175" y="460.37" width="5.67" height="5.67"/>
		<polygon points="77.67,486.14 77.67,494.63 81.91,490.38 		"/>
		<rect x="195.89" y="481.88" width="5.67" height="5.67"/>
		<rect x="195.89" y="493.22" width="5.67" height="5.67"/>
		<rect x="184.55" y="481.88" width="5.67" height="5.67"/>
		<polygon points="83.56,505.96 87.8,501.72 83.56,497.48 		"/>
		<rect x="180.92" y="454.45" width="5.67" height="5.67"/>
	</g>
</g>
<g>
</g>
<g>
</g>
<g>
</g>
<g>
</g>
<g>
</g>
<g>
</g>
<g>
</g>
<g>
</g>
<g>
</g>
<g>
</g>
<g>
</g>
<g>
</g>
<g>
</g>
<g>
</g>
<g>
</g>
</svg>
