<?xml version="1.0" encoding="utf-8"?>
<!-- Generator: Adobe Illustrator 27.2.0, SVG Export Plug-In . SVG Version: 6.00 Build 0)  -->
<svg version="1.1" id="Layer_1" xmlns="http://www.w3.org/2000/svg" xmlns:xlink="http://www.w3.org/1999/xlink" x="0px" y="0px"
	 viewBox="0 0 800 600" style="enable-background:new 0 0 800 600;" xml:space="preserve">
<g>
	<rect x="264.18" y="532.02" width="5.67" height="5.67"/>
	<rect x="221.07" y="451.64" width="5.67" height="5.67"/>
	<rect x="226.74" y="445.98" width="5.67" height="5.67"/>
	<rect x="226.74" y="479.99" width="5.67" height="5.67"/>
	<rect x="258.51" y="526.35" width="5.67" height="5.67"/>
	<rect x="226.74" y="457.31" width="5.67" height="5.67"/>
	<polygon points="242.64,488.5 242.64,481.83 232.89,488.5 242.64,495.16 	"/>
	<rect x="204.06" y="468.65" width="5.67" height="5.67"/>
	<rect x="215.4" y="468.65" width="5.67" height="5.67"/>
	<rect x="258.51" y="515.01" width="5.67" height="5.67"/>
	<rect x="226.74" y="468.65" width="5.67" height="5.67"/>
	<polygon points="242.64,471.49 242.64,464.83 232.89,471.49 242.64,478.15 	"/>
	<polygon points="242.64,454.48 242.64,447.82 232.89,454.48 242.64,461.14 	"/>
	<polygon points="262.13,464.83 252.38,471.49 262.13,478.15 	"/>
	<polygon points="252.38,471.49 252.38,464.83 242.64,471.49 252.38,478.15 	"/>
	<rect x="269.85" y="526.35" width="5.67" height="5.67"/>
	<polygon points="252.38,447.82 242.64,454.48 252.38,461.14 	"/>
	<rect x="221.07" y="485.66" width="5.67" height="5.67"/>
	<rect x="269.85" y="515.01" width="5.67" height="5.67"/>
	<rect x="264.18" y="509.34" width="5.67" height="5.67"/>
	<polygon points="252.38,481.83 242.64,488.5 252.38,495.16 	"/>
	<rect x="226.74" y="491.33" width="5.67" height="5.67"/>
	<rect x="141.34" y="520.66" width="5.67" height="5.67"/>
	<rect x="177.64" y="526.32" width="5.67" height="5.67"/>
	<rect x="135.67" y="515" width="5.67" height="5.67"/>
	<rect x="130" y="520.66" width="5.67" height="5.67"/>
	<rect x="135.67" y="526.33" width="5.67" height="5.67"/>
	<rect x="183.31" y="520.65" width="5.67" height="5.67"/>
	<rect x="171.97" y="520.65" width="5.67" height="5.67"/>
	<rect x="177.64" y="514.98" width="5.67" height="5.67"/>
	<rect x="177.62" y="484.38" width="5.67" height="5.67"/>
	<polygon points="301.16,533.86 291.42,540.52 301.16,547.19 	"/>
	<polygon points="281.67,540.52 291.42,547.19 291.42,540.52 291.42,533.86 	"/>
	<polygon points="291.42,506.51 291.42,499.85 281.67,506.51 291.42,513.17 	"/>
	<polygon points="301.16,499.85 291.42,506.51 301.16,513.17 	"/>
	<rect x="177.62" y="473.05" width="5.67" height="5.67"/>
	<rect x="183.29" y="478.72" width="5.67" height="5.67"/>
	<path d="M180.45,506.22l-17.28,17.28l17.28,17.28l17.28-17.28L180.45,506.22z M167.42,523.5l13.04-13.04l13.04,13.04l-13.04,13.04
		L167.42,523.5z"/>
	<rect x="171.95" y="478.72" width="5.67" height="5.67"/>
	<path d="M180.45,462.89l-60.61,60.61l26.5,26.5h4.24l-2.83-2.83l14.4-14.4l3.14,3.14L151.2,550h5.5l11.34-11.34l3.14,3.14l-8.2,8.2
		h5.62l5.39-5.39l3.22,3.22l-2.17,2.17h10.81l-2.17-2.17l3.22-3.22l5.39,5.39h5.62l-8.2-8.2l3.14-3.14L204.2,550h5.5l-14.09-14.09
		l3.14-3.14l14.4,14.4l-2.83,2.83h4.24l26.5-26.5L180.45,462.89z M219.18,505.86l-14.4,14.4l-3.22-3.22l14.4-14.4L219.18,505.86z
		 M213.15,499.83l-14.4,14.4l-3.14-3.14l14.4-14.4L213.15,499.83z M207.26,493.94l-14.4,14.4l-3.14-3.14l14.4-14.4L207.26,493.94z
		 M201.31,488l-14.4,14.4l-3.22-3.22l14.4-14.4L201.31,488z M180.45,467.14l14.83,14.83l-14.4,14.4l-0.43-0.43l-0.43,0.43
		l-14.4-14.4L180.45,467.14z M162.82,484.77l14.4,14.4l-3.22,3.22l-14.4-14.4L162.82,484.77z M156.79,490.8l14.4,14.4l-3.14,3.14
		l-14.4-14.4L156.79,490.8z M150.9,496.69l14.4,14.4l-3.14,3.14l-14.4-14.4L150.9,496.69z M144.95,502.64l14.4,14.4l-3.22,3.22
		l-14.4-14.4L144.95,502.64z M124.09,523.5l14.83-14.83l14.4,14.4l-0.43,0.43l0.43,0.43l-14.4,14.4L124.09,523.5z M144.95,544.36
		l-3.22-3.22l14.4-14.4l3.22,3.22L144.95,544.36z M180.45,546.83l-23.33-23.33l23.33-23.33l23.33,23.33L180.45,546.83z
		 M215.96,544.36l-14.4-14.4l3.22-3.22l14.4,14.4L215.96,544.36z M207.6,523.93l0.43-0.43l-0.43-0.43l14.4-14.4l14.83,14.83
		l-14.83,14.83L207.6,523.93z"/>
	<rect x="275.52" y="520.68" width="5.67" height="5.67"/>
	<rect x="275.52" y="509.34" width="5.67" height="5.67"/>
	<rect x="269.85" y="503.67" width="5.67" height="5.67"/>
	<rect x="275.52" y="532.02" width="5.67" height="5.67"/>
	<rect x="275.52" y="498" width="5.67" height="5.67"/>
	<rect x="252.84" y="520.68" width="5.67" height="5.67"/>
	<rect x="275.52" y="543.36" width="5.67" height="5.67"/>
	<rect x="269.85" y="537.69" width="5.67" height="5.67"/>
	<rect x="213.9" y="520.66" width="5.67" height="5.67"/>
	<rect x="219.57" y="515" width="5.67" height="5.67"/>
	<rect x="225.24" y="520.66" width="5.67" height="5.67"/>
	<rect x="219.57" y="526.33" width="5.67" height="5.67"/>
	<polygon points="180.45,452.04 108.99,523.5 135.49,550 139.73,550 113.23,523.5 180.45,456.28 247.68,523.5 221.17,550 
		225.42,550 251.92,523.5 	"/>
	<rect x="264.18" y="520.68" width="5.67" height="5.67"/>
	<polygon points="108.53,495.16 118.27,488.5 108.53,481.83 	"/>
	<polygon points="118.27,488.5 118.27,495.16 128.02,488.5 118.27,481.83 	"/>
	<rect x="183.31" y="439.77" width="5.67" height="5.67"/>
	<polygon points="128.02,471.49 118.27,464.83 118.27,471.49 118.27,478.15 	"/>
	<rect x="128.5" y="491.33" width="5.67" height="5.67"/>
	<polygon points="118.27,471.49 108.53,464.83 108.53,471.49 108.53,478.15 	"/>
	<rect x="134.17" y="451.64" width="5.67" height="5.67"/>
	<polygon points="128.02,454.48 118.27,447.82 118.27,454.48 118.27,461.14 	"/>
	<polygon points="98.78,464.83 98.78,478.15 108.53,471.49 	"/>
	<rect x="79.72" y="509.31" width="5.67" height="5.67"/>
	<rect x="79.72" y="531.99" width="5.67" height="5.67"/>
	<rect x="79.72" y="497.97" width="5.67" height="5.67"/>
	<rect x="85.39" y="503.64" width="5.67" height="5.67"/>
	<rect x="79.72" y="520.65" width="5.67" height="5.67"/>
	<rect x="139.84" y="468.65" width="5.67" height="5.67"/>
	<rect x="145.51" y="474.32" width="5.67" height="5.67"/>
	<rect x="139.84" y="479.99" width="5.67" height="5.67"/>
	<rect x="151.18" y="468.65" width="5.67" height="5.67"/>
	<rect x="139.84" y="457.31" width="5.67" height="5.67"/>
	<rect x="134.17" y="462.98" width="5.67" height="5.67"/>
	<rect x="145.51" y="462.98" width="5.67" height="5.67"/>
	<rect x="134.17" y="474.32" width="5.67" height="5.67"/>
	<rect x="134.17" y="485.66" width="5.67" height="5.67"/>
	<polygon points="108.53,447.82 108.53,461.14 118.27,454.48 	"/>
	<polygon points="59.75,533.83 59.75,547.15 69.49,540.49 	"/>
	<polygon points="69.49,523.48 59.75,516.82 59.75,523.48 59.75,530.15 	"/>
	<polygon points="79.24,523.48 69.49,516.82 69.49,523.48 69.49,530.15 	"/>
	<polygon points="79.24,506.48 69.49,499.81 69.49,506.48 69.49,513.14 	"/>
	<polygon points="50,516.82 50,530.15 59.75,523.48 	"/>
	<rect x="102.4" y="520.65" width="5.67" height="5.67"/>
	<polygon points="79.24,540.49 69.49,533.83 69.49,540.49 69.49,547.15 	"/>
	<polygon points="291.42,523.52 301.16,530.18 301.16,523.52 301.16,516.85 	"/>
	<polygon points="301.16,523.52 310.91,530.18 310.91,516.85 	"/>
	<polygon points="281.67,523.52 291.42,530.18 291.42,523.52 291.42,516.85 	"/>
	<polygon points="59.75,499.81 59.75,513.14 69.49,506.48 	"/>
	<rect x="96.73" y="526.32" width="5.67" height="5.67"/>
	<rect x="91.06" y="520.65" width="5.67" height="5.67"/>
	<rect x="91.06" y="531.99" width="5.67" height="5.67"/>
	<rect x="79.72" y="543.33" width="5.67" height="5.67"/>
	<rect x="96.73" y="514.98" width="5.67" height="5.67"/>
	<rect x="209.73" y="462.98" width="5.67" height="5.67"/>
	<rect x="85.39" y="537.66" width="5.67" height="5.67"/>
	<rect x="85.39" y="514.98" width="5.67" height="5.67"/>
	<rect x="91.06" y="509.31" width="5.67" height="5.67"/>
	<rect x="85.39" y="526.32" width="5.67" height="5.67"/>
	<rect x="201.37" y="443" width="5.67" height="5.67"/>
	<polygon points="180.47,402.79 173.81,402.79 180.47,412.54 187.13,402.79 	"/>
	<polygon points="180.47,422.28 187.13,412.54 180.47,412.54 173.81,412.54 	"/>
	<polygon points="197.48,422.28 204.14,412.54 197.48,412.54 190.82,412.54 	"/>
	<polygon points="190.82,402.79 197.48,412.54 204.14,402.79 	"/>
	<polygon points="173.81,393.05 180.47,402.79 187.13,393.05 	"/>
	<polygon points="156.8,402.79 163.46,412.54 170.12,402.79 	"/>
	<rect x="166.3" y="422.76" width="5.67" height="5.67"/>
	<rect x="154.96" y="422.76" width="5.67" height="5.67"/>
	<polygon points="163.46,422.28 170.12,412.54 163.46,412.54 156.8,412.54 	"/>
	<rect x="215.4" y="457.31" width="5.67" height="5.67"/>
	<rect x="221.07" y="474.32" width="5.67" height="5.67"/>
	<rect x="221.07" y="462.98" width="5.67" height="5.67"/>
	<rect x="215.4" y="479.99" width="5.67" height="5.67"/>
	<rect x="209.73" y="474.32" width="5.67" height="5.67"/>
	<rect x="212.71" y="431.66" width="5.67" height="5.67"/>
	<rect x="207.04" y="437.33" width="5.67" height="5.67"/>
	<rect x="177.64" y="422.76" width="5.67" height="5.67"/>
	<rect x="190.03" y="454.34" width="5.67" height="5.67"/>
	<rect x="195.7" y="448.67" width="5.67" height="5.67"/>
	<rect x="188.97" y="422.76" width="5.67" height="5.67"/>
	<rect x="153.87" y="443" width="5.67" height="5.67"/>
	<rect x="160.63" y="428.43" width="5.67" height="5.67"/>
	<rect x="159.54" y="448.67" width="5.67" height="5.67"/>
	<rect x="142.53" y="431.66" width="5.67" height="5.67"/>
	<rect x="165.21" y="454.34" width="5.67" height="5.67"/>
	<rect x="128.5" y="468.65" width="5.67" height="5.67"/>
	<rect x="128.5" y="457.31" width="5.67" height="5.67"/>
	<rect x="128.5" y="479.99" width="5.67" height="5.67"/>
	<rect x="128.5" y="445.98" width="5.67" height="5.67"/>
	<rect x="148.2" y="437.33" width="5.67" height="5.67"/>
	<rect x="194.64" y="428.43" width="5.67" height="5.67"/>
	<rect x="177.64" y="445.44" width="5.67" height="5.67"/>
	<rect x="166.3" y="434.1" width="5.67" height="5.67"/>
	<rect x="200.31" y="422.76" width="5.67" height="5.67"/>
	<rect x="177.64" y="434.1" width="5.67" height="5.67"/>
	<rect x="183.31" y="428.43" width="5.67" height="5.67"/>
	<rect x="171.97" y="428.43" width="5.67" height="5.67"/>
	<rect x="188.97" y="434.1" width="5.67" height="5.67"/>
	<rect x="171.97" y="439.77" width="5.67" height="5.67"/>
</g>
<g>
</g>
<g>
</g>
<g>
</g>
<g>
</g>
<g>
</g>
<g>
</g>
<g>
</g>
<g>
</g>
<g>
</g>
<g>
</g>
<g>
</g>
<g>
</g>
<g>
</g>
<g>
</g>
<g>
</g>
</svg>
