<?xml version="1.0" encoding="utf-8"?>
<!-- Generator: Adobe Illustrator 27.2.0, SVG Export Plug-In . SVG Version: 6.00 Build 0)  -->
<svg version="1.1" id="Layer_1" xmlns="http://www.w3.org/2000/svg" xmlns:xlink="http://www.w3.org/1999/xlink" x="0px" y="0px"
	 viewBox="0 0 800 600" style="enable-background:new 0 0 800 600;" xml:space="preserve">
<g>
	<g>
		<rect x="293.3" y="414.27" transform="matrix(0.7071 -0.7071 0.7071 0.7071 -208.1894 331.5305)" width="5.6" height="5.6"/>
		<path d="M266.26,532.04c1.84-1.84,2.86-4.29,2.86-6.89s-1.01-5.05-2.85-6.89s-4.29-2.85-6.89-2.85s-5.05,1.01-6.89,2.85
			s-2.85,4.29-2.85,6.89s1.01,5.05,2.85,6.89c1.84,1.84,4.29,2.86,6.89,2.86S264.42,533.88,266.26,532.04z M251.12,525.15
			c0-2.2,0.86-4.27,2.41-5.83c1.56-1.56,3.63-2.41,5.83-2.41c2.2,0,4.27,0.86,5.83,2.41c1.56,1.56,2.41,3.63,2.41,5.83
			c0,2.2-0.86,4.27-2.42,5.83c-1.56,1.56-3.63,2.41-5.83,2.41c-2.2,0-4.27-0.86-5.83-2.41v0
			C251.98,529.42,251.12,527.35,251.12,525.15z"/>
		<polygon points="214.74,550 217.38,550 228.01,539.37 226.69,538.05 		"/>
		<rect x="309.15" y="414.27" transform="matrix(0.7071 -0.7071 0.7071 0.7071 -203.5462 342.7404)" width="5.6" height="5.6"/>
		<polygon points="292.04,538.05 303.99,550 306.64,550 293.36,536.73 		"/>
		<polygon points="214.9,525.97 214.9,525.98 190.87,550 191.95,550 215.44,526.51 215.44,526.51 191.95,550 194.67,550 
			219.52,525.15 		"/>
		<rect x="317.08" y="422.2" transform="matrix(0.7071 -0.7071 0.7071 0.7071 -206.8295 350.6668)" width="5.6" height="5.6"/>
		<rect x="309.15" y="438.05" transform="matrix(0.7071 -0.7071 0.7071 0.7071 -220.3616 349.7092)" width="5.6" height="5.6"/>
		<polygon points="282.15,547.94 284.21,550 286.86,550 283.47,546.62 		"/>
		<path d="M209.52,475.31l-9.89,9.89l-9.89,9.89l30.07,30.07l9.89-9.89l29.67-29.67l-3.01-3.01l-9.89,9.89l0,0l-24.05-24.05l0,0
			l9.89-9.89l-3.01-3.01L209.52,475.31z M218.12,520.82l-24.05-24.05l8.57-8.57l24.05,24.05L218.12,520.82z M228.01,510.93
			l-24.05-24.05l7.25-7.25l24.05,24.05L228.01,510.93z M236.58,502.37l-24.05-24.05l0,0L236.58,502.37L236.58,502.37z M245.15,493.8
			l-7.25,7.25l-24.05-24.05l7.25-7.25L245.15,493.8z"/>
		<rect x="301.23" y="414.27" transform="matrix(0.7071 -0.7071 0.7071 0.7071 -205.8684 337.1393)" width="5.6" height="5.6"/>
		<rect x="317.08" y="430.13" transform="matrix(0.7071 -0.7071 0.7071 0.7071 -212.435 352.9926)" width="5.6" height="5.6"/>
		<rect x="285.37" y="414.27" transform="matrix(0.7071 -0.7071 0.7071 0.7071 -210.5124 325.9333)" width="5.6" height="5.6"/>
		<rect x="148.48" y="543.23" transform="matrix(0.7071 -0.7071 0.7071 0.7071 -341.7974 266.9106)" width="5.6" height="5.6"/>
		<rect x="293.3" y="406.35" transform="matrix(0.7071 -0.7071 0.7071 0.7071 -202.5851 329.2128)" width="5.6" height="5.6"/>
		<rect x="293.3" y="398.42" transform="matrix(0.7071 -0.7071 0.7071 0.7071 -196.9801 326.8911)" width="5.6" height="5.6"/>
		<rect x="124.71" y="543.23" transform="matrix(0.7071 -0.7071 0.7071 0.7071 -348.7579 250.0882)" width="5.6" height="5.6"/>
		<rect x="132.63" y="535.31" transform="matrix(0.7071 -0.7071 0.7071 0.7071 -340.8336 253.3752)" width="5.6" height="5.6"/>
		<rect x="277.45" y="414.27" transform="matrix(0.7071 -0.7071 0.7071 0.7071 -212.8341 320.3283)" width="5.6" height="5.6"/>
		<rect x="242.74" y="454.21" transform="matrix(0.7071 -0.7071 0.7071 0.7071 -261.8343 310.3185)" width="1.87" height="34.02"/>
		<path d="M258.54,480.68l0.82,4.62l2.72-2.72l24.05-24.05l3.01-3.01l-29.78-29.78l-29.78,29.78l3.01,3.01l24.05,24.05l2.72,2.72
			L258.54,480.68L258.54,480.68l-24.05-24.05l8.28-8.28l16.6,16.6v-2.72l-15.24-15.24l0,0l15.24,15.24v-2.72l-13.88-13.88l7.46-7.46
			l6.42,6.42v-2.72l-5.06-5.06l0,0l5.06,5.06l0-2.72l-3.7-3.7l3.7-3.7l3.7,3.7l-3.7,3.7l0,2.72l5.06-5.06l0,0l-5.06,5.06v2.72
			l6.42-6.42l7.46,7.46l-13.88,13.88v2.72l15.24-15.24l0,0l-15.24,15.24v2.72l16.6-16.6l8.24,8.24l-24.87,24.87L258.54,480.68z
			 M258,481.23L258,481.23l-24.05-24.05l0,0L258,481.23z M284.78,457.17L284.78,457.17l-24.05,24.05l0,0L284.78,457.17z"/>
		<rect x="132.63" y="543.23" transform="matrix(0.7071 -0.7071 0.7071 0.7071 -346.4363 255.6931)" width="5.6" height="5.6"/>
		<rect x="234.17" y="462.78" transform="matrix(0.7071 -0.7071 0.7071 0.7071 -270.4018 306.7697)" width="1.87" height="34.02"/>
		<rect x="124.71" y="535.31" transform="matrix(0.7071 -0.7071 0.7071 0.7071 -343.1552 247.7703)" width="5.6" height="5.6"/>
		<rect x="269.52" y="414.27" transform="matrix(0.7071 -0.7071 0.7071 0.7071 -215.155 314.7196)" width="5.6" height="5.6"/>
		<rect x="148.48" y="535.31" transform="matrix(0.7071 -0.7071 0.7071 0.7071 -336.1882 264.5814)" width="5.6" height="5.6"/>
		<rect x="285.37" y="390.49" transform="matrix(0.7071 -0.7071 0.7071 0.7071 -193.6968 318.9645)" width="5.6" height="5.6"/>
		<rect x="140.56" y="543.23" transform="matrix(0.7071 -0.7071 0.7071 0.7071 -344.1147 261.298)" width="5.6" height="5.6"/>
		<rect x="277.45" y="390.49" transform="matrix(0.7071 -0.7071 0.7071 0.7071 -196.0185 313.3596)" width="5.6" height="5.6"/>
		<rect x="140.56" y="535.31" transform="matrix(0.7071 -0.7071 0.7071 0.7071 -338.5119 258.9801)" width="5.6" height="5.6"/>
		<path d="M279.14,505.37l19.78,19.78l3.01-3.01l0,0l24.05-24.05l-1.32-1.32l-24.05,24.05l-7.25-7.25l24.05-24.05l8.57,8.57
			l3.01-3.01l-39.56-39.56l-3.01,3.01l-24.05,24.05l-3.01,3.01l9.89,9.89L279.14,505.37z M306.2,478.31l9.89,9.89l-24.05,24.05
			l-8.57-8.57l24.05-24.05L306.2,478.31l-24.05,24.05l0,0L306.2,478.31L306.2,478.31z M296.31,468.42l-24.05,24.05l1.32,1.32
			l24.05-24.05l7.25,7.25l-24.05,24.05l-8.57-8.57l0,0L296.31,468.42L296.31,468.42z M287.75,459.86l7.25,7.25l-24.05,24.05
			l-7.25-7.25L287.75,459.86z"/>
		<rect x="285.37" y="406.35" transform="matrix(0.7071 -0.7071 0.7071 0.7071 -204.9067 323.6078)" width="5.6" height="5.6"/>
		<polygon points="231.87,550 234.52,550 236.58,547.94 235.26,546.62 		"/>
		<rect x="285.37" y="398.42" transform="matrix(0.7071 -0.7071 0.7071 0.7071 -199.3018 321.2862)" width="5.6" height="5.6"/>
		<polygon points="225.37,536.73 212.09,550 214.74,550 226.69,538.05 236.58,547.94 236.58,547.94 234.52,550 237.16,550 
			237.9,549.26 238.64,550 244.65,550 219.81,525.15 216.8,528.16 		"/>
		<rect x="213.07" y="483.88" transform="matrix(0.7071 -0.7071 0.7071 0.7071 -291.5036 298.0291)" width="1.87" height="34.02"/>
		<rect x="269.52" y="390.49" transform="matrix(0.7071 -0.7071 0.7071 0.7071 -198.3408 307.7583)" width="5.6" height="5.6"/>
		<polygon points="321.13,550 323.77,550 301.93,528.16 300.61,529.48 		"/>
		<polygon points="279.14,544.93 274.08,550 280.09,550 280.83,549.26 281.57,550 284.21,550 282.15,547.94 290.72,539.37 
			301.35,550 303.99,550 292.04,538.05 301.93,528.16 298.92,525.15 289.03,535.04 		"/>
		<rect x="277.45" y="406.35" transform="matrix(0.7071 -0.7071 0.7071 0.7071 -207.2284 318.0029)" width="5.6" height="5.6"/>
		<rect x="269.52" y="406.35" transform="matrix(0.7071 -0.7071 0.7071 0.7071 -209.55 312.3979)" width="5.6" height="5.6"/>
		<rect x="301.23" y="438.05" transform="matrix(0.7071 -0.7071 0.7071 0.7071 -222.6825 344.1002)" width="5.6" height="5.6"/>
		<rect x="286.4" y="498.63" transform="matrix(0.7071 -0.7071 0.7071 0.7071 -264.3825 360.8603)" width="34.02" height="1.87"/>
		<rect x="277.45" y="398.42" transform="matrix(0.7071 -0.7071 0.7071 0.7071 -201.6241 315.6849)" width="5.6" height="5.6"/>
		<rect x="269.52" y="398.42" transform="matrix(0.7071 -0.7071 0.7071 0.7071 -203.9458 310.08)" width="5.6" height="5.6"/>
		<rect x="340.86" y="477.69" transform="matrix(0.7071 -0.7071 0.7071 0.7071 -239.0997 383.7372)" width="5.6" height="5.6"/>
		<rect x="380.49" y="445.98" transform="matrix(0.7071 -0.7071 0.7071 0.7071 -205.0717 402.4754)" width="5.6" height="5.6"/>
		<rect x="380.49" y="461.83" transform="matrix(0.7071 -0.7071 0.7071 0.7071 -216.2816 407.1187)" width="5.6" height="5.6"/>
		<rect x="340.86" y="422.2" transform="matrix(0.7071 -0.7071 0.7071 0.7071 -199.8651 367.4857)" width="5.6" height="5.6"/>
		<rect x="364.64" y="445.98" transform="matrix(0.7071 -0.7071 0.7071 0.7071 -209.715 391.2655)" width="5.6" height="5.6"/>
		<rect x="380.49" y="453.91" transform="matrix(0.7071 -0.7071 0.7071 0.7071 -210.6767 404.7971)" width="5.6" height="5.6"/>
		<rect x="372.57" y="461.83" transform="matrix(0.7071 -0.7071 0.7071 0.7071 -218.6033 401.5138)" width="5.6" height="5.6"/>
		<rect x="372.57" y="445.98" transform="matrix(0.7071 -0.7071 0.7071 0.7071 -207.3934 396.8705)" width="5.6" height="5.6"/>
		<rect x="356.71" y="422.2" transform="matrix(0.7071 -0.7071 0.7071 0.7071 -195.2218 378.6956)" width="5.6" height="5.6"/>
		<rect x="348.79" y="438.05" transform="matrix(0.7071 -0.7071 0.7071 0.7071 -208.7533 377.734)" width="5.6" height="5.6"/>
		<rect x="348.79" y="422.2" transform="matrix(0.7071 -0.7071 0.7071 0.7071 -197.5435 373.0907)" width="5.6" height="5.6"/>
		<rect x="340.86" y="430.13" transform="matrix(0.7071 -0.7071 0.7071 0.7071 -205.47 369.8074)" width="5.6" height="5.6"/>
		<rect x="356.71" y="430.13" transform="matrix(0.7071 -0.7071 0.7071 0.7071 -200.8268 381.0173)" width="5.6" height="5.6"/>
		<rect x="340.86" y="438.05" transform="matrix(0.7071 -0.7071 0.7071 0.7071 -211.075 372.129)" width="5.6" height="5.6"/>
		<rect x="396.35" y="469.76" transform="matrix(0.7071 -0.7071 0.7071 0.7071 -217.2433 420.6502)" width="5.6" height="5.6"/>
		<rect x="404.27" y="477.69" transform="matrix(0.7071 -0.7071 0.7071 0.7071 -220.5262 428.572)" width="5.6" height="5.6"/>
		<rect x="396.35" y="485.61" transform="matrix(0.7071 -0.7071 0.7071 0.7071 -228.4532 425.2935)" width="5.6" height="5.6"/>
		<rect x="388.42" y="477.69" transform="matrix(0.7071 -0.7071 0.7071 0.7071 -225.1699 417.3669)" width="5.6" height="5.6"/>
		<rect x="388.42" y="485.61" transform="matrix(0.7071 -0.7071 0.7071 0.7071 -230.7743 419.6838)" width="5.6" height="5.6"/>
		<rect x="364.64" y="461.83" transform="matrix(0.7071 -0.7071 0.7071 0.7071 -220.9249 395.9088)" width="5.6" height="5.6"/>
		<rect x="404.27" y="485.61" transform="matrix(0.7071 -0.7071 0.7071 0.7071 -226.1315 430.8985)" width="5.6" height="5.6"/>
		<rect x="388.42" y="469.76" transform="matrix(0.7071 -0.7071 0.7071 0.7071 -219.5645 415.0406)" width="5.6" height="5.6"/>
		<rect x="364.64" y="453.91" transform="matrix(0.7071 -0.7071 0.7071 0.7071 -215.32 393.5872)" width="5.6" height="5.6"/>
		<polygon points="411.04,472.56 409.06,470.58 420.27,470.58 414.66,464.97 409.06,459.37 409.06,470.58 407.07,468.6 
			403.11,472.56 407.07,476.52 		"/>
		<rect x="388.42" y="509.39" transform="matrix(0.7071 -0.7071 0.7071 0.7071 -247.5903 426.6584)" width="5.6" height="5.6"/>
		<rect x="414.66" y="459.37" width="5.6" height="5.6"/>
		<polygon points="315.92,377.44 313.94,375.46 311.96,373.48 307.99,377.44 311.96,381.41 		"/>
		<polygon points="319.54,369.86 313.94,364.25 313.94,375.46 325.15,375.46 		"/>
		<rect x="309.15" y="382.57" transform="matrix(0.7071 -0.7071 0.7071 0.7071 -181.1273 333.4615)" width="5.6" height="5.6"/>
		<rect x="309.15" y="390.49" transform="matrix(0.7071 -0.7071 0.7071 0.7071 -186.7319 335.7794)" width="5.6" height="5.6"/>
		<rect x="319.54" y="364.25" width="5.6" height="5.6"/>
		<rect x="301.23" y="390.49" transform="matrix(0.7071 -0.7071 0.7071 0.7071 -189.0535 330.1744)" width="5.6" height="5.6"/>
		<rect x="293.3" y="374.64" transform="matrix(0.7071 -0.7071 0.7071 0.7071 -180.1653 319.9262)" width="5.6" height="5.6"/>
		<rect x="390.88" y="435.59" width="5.6" height="5.6"/>
		<polygon points="390.88,441.19 385.28,435.59 385.28,446.8 396.49,446.8 		"/>
		<polygon points="367.1,417.41 361.5,411.81 361.5,423.02 372.71,423.02 		"/>
		<rect x="367.1" y="411.81" width="5.6" height="5.6"/>
		<rect x="293.3" y="382.57" transform="matrix(0.7071 -0.7071 0.7071 0.7071 -185.7702 322.2478)" width="5.6" height="5.6"/>
		<rect x="301.23" y="374.64" transform="matrix(0.7071 -0.7071 0.7071 0.7071 -177.8441 325.5349)" width="5.6" height="5.6"/>
		<rect x="332.93" y="406.35" transform="matrix(0.7071 -0.7071 0.7071 0.7071 -190.9772 357.2416)" width="5.6" height="5.6"/>
		<rect x="325.01" y="414.27" transform="matrix(0.7071 -0.7071 0.7071 0.7071 -198.9035 353.9542)" width="5.6" height="5.6"/>
		<rect x="325.01" y="398.42" transform="matrix(0.7071 -0.7071 0.7071 0.7071 -187.6936 349.3109)" width="5.6" height="5.6"/>
		<rect x="317.08" y="406.35" transform="matrix(0.7071 -0.7071 0.7071 0.7071 -195.6197 346.0237)" width="5.6" height="5.6"/>
		<rect x="332.93" y="414.27" transform="matrix(0.7071 -0.7071 0.7071 0.7071 -196.5818 359.5592)" width="5.6" height="5.6"/>
		<rect x="293.3" y="390.49" transform="matrix(0.7071 -0.7071 0.7071 0.7071 -191.3752 324.5695)" width="5.6" height="5.6"/>
		<rect x="317.08" y="414.27" transform="matrix(0.7071 -0.7071 0.7071 0.7071 -201.2251 348.3493)" width="5.6" height="5.6"/>
		<polygon points="339.7,401.22 337.72,399.24 348.93,399.24 343.32,393.64 337.72,388.03 337.72,399.24 335.74,397.26 
			331.77,401.22 335.74,405.18 		"/>
		<rect x="343.32" y="388.03" width="5.6" height="5.6"/>
		<rect x="317.08" y="398.42" transform="matrix(0.7071 -0.7071 0.7071 0.7071 -190.0152 343.706)" width="5.6" height="5.6"/>
		<rect x="340.86" y="445.98" transform="matrix(0.7071 -0.7071 0.7071 0.7071 -216.6799 374.4507)" width="5.6" height="5.6"/>
		<rect x="325.01" y="453.91" transform="matrix(0.7071 -0.7071 0.7071 0.7071 -226.9275 365.5582)" width="5.6" height="5.6"/>
		<rect x="325.01" y="445.98" transform="matrix(0.7071 -0.7071 0.7071 0.7071 -221.3232 363.2408)" width="5.6" height="5.6"/>
		<rect x="325.01" y="461.83" transform="matrix(0.7071 -0.7071 0.7071 0.7071 -232.5324 367.8798)" width="5.6" height="5.6"/>
		<rect x="332.93" y="461.83" transform="matrix(0.7071 -0.7071 0.7071 0.7071 -230.2115 373.489)" width="5.6" height="5.6"/>
		<rect x="317.08" y="453.91" transform="matrix(0.7071 -0.7071 0.7071 0.7071 -229.2498 359.9575)" width="5.6" height="5.6"/>
		<rect x="332.93" y="453.91" transform="matrix(0.7071 -0.7071 0.7071 0.7071 -224.6072 371.1717)" width="5.6" height="5.6"/>
		<rect x="332.93" y="445.98" transform="matrix(0.7071 -0.7071 0.7071 0.7071 -219.001 368.8415)" width="5.6" height="5.6"/>
		<rect x="348.79" y="461.83" transform="matrix(0.7071 -0.7071 0.7071 0.7071 -225.5688 384.7033)" width="5.6" height="5.6"/>
		<rect x="340.86" y="461.83" transform="matrix(0.7071 -0.7071 0.7071 0.7071 -227.8905 379.0984)" width="5.6" height="5.6"/>
		<rect x="317.08" y="445.98" transform="matrix(0.7071 -0.7071 0.7071 0.7071 -223.6449 357.6358)" width="5.6" height="5.6"/>
		<rect x="317.08" y="461.83" transform="matrix(0.7071 -0.7071 0.7071 0.7071 -234.8548 362.2791)" width="5.6" height="5.6"/>
		<rect x="309.15" y="422.2" transform="matrix(0.7071 -0.7071 0.7071 0.7071 -209.1511 345.062)" width="5.6" height="5.6"/>
		<rect x="356.71" y="461.83" transform="matrix(0.7071 -0.7071 0.7071 0.7071 -223.2471 390.3083)" width="5.6" height="5.6"/>
		<rect x="309.15" y="430.13" transform="matrix(0.7071 -0.7071 0.7071 0.7071 -214.7573 347.3917)" width="5.6" height="5.6"/>
		<rect x="301.23" y="430.13" transform="matrix(0.7071 -0.7071 0.7071 0.7071 -217.0776 341.7786)" width="5.6" height="5.6"/>
		<rect x="293.3" y="422.2" transform="matrix(0.7071 -0.7071 0.7071 0.7071 -213.7957 333.86)" width="5.6" height="5.6"/>
		<rect x="301.23" y="422.2" transform="matrix(0.7071 -0.7071 0.7071 0.7071 -211.4733 339.461)" width="5.6" height="5.6"/>
		<rect x="293.3" y="438.05" transform="matrix(0.7071 -0.7071 0.7071 0.7071 -225.0041 338.4953)" width="5.6" height="5.6"/>
		<rect x="293.3" y="430.13" transform="matrix(0.7071 -0.7071 0.7071 0.7071 -219.4007 336.1817)" width="5.6" height="5.6"/>
		<rect x="332.93" y="438.05" transform="matrix(0.7071 -0.7071 0.7071 0.7071 -213.3966 366.5241)" width="5.6" height="5.6"/>
		<rect x="340.86" y="453.91" transform="matrix(0.7071 -0.7071 0.7071 0.7071 -222.2855 376.7767)" width="5.6" height="5.6"/>
		<rect x="325.01" y="438.05" transform="matrix(0.7071 -0.7071 0.7071 0.7071 -215.7189 360.9233)" width="5.6" height="5.6"/>
		<rect x="317.08" y="438.05" transform="matrix(0.7071 -0.7071 0.7071 0.7071 -218.0399 355.3142)" width="5.6" height="5.6"/>
		<rect x="340.86" y="469.76" transform="matrix(0.7071 -0.7071 0.7071 0.7071 -233.4941 381.4112)" width="5.6" height="5.6"/>
		<rect x="380.49" y="509.39" transform="matrix(0.7071 -0.7071 0.7071 0.7071 -249.9106 421.0437)" width="5.6" height="5.6"/>
		<rect x="372.57" y="509.39" transform="matrix(0.7071 -0.7071 0.7071 0.7071 -252.2329 415.4436)" width="5.6" height="5.6"/>
		<rect x="388.42" y="493.54" transform="matrix(0.7071 -0.7071 0.7071 0.7071 -236.3803 422.0151)" width="5.6" height="5.6"/>
		<rect x="388.42" y="501.46" transform="matrix(0.7071 -0.7071 0.7071 0.7071 -241.9847 424.3319)" width="5.6" height="5.6"/>
		<rect x="364.64" y="501.46" transform="matrix(0.7071 -0.7071 0.7071 0.7071 -248.9496 407.517)" width="5.6" height="5.6"/>
		<rect x="372.57" y="493.54" transform="matrix(0.7071 -0.7071 0.7071 0.7071 -241.0237 410.8051)" width="5.6" height="5.6"/>
		<rect x="364.64" y="469.76" transform="matrix(0.7071 -0.7071 0.7071 0.7071 -226.5304 398.235)" width="5.6" height="5.6"/>
		<rect x="380.49" y="485.61" transform="matrix(0.7071 -0.7071 0.7071 0.7071 -233.0965 414.0836)" width="5.6" height="5.6"/>
		<rect x="364.64" y="493.54" transform="matrix(0.7071 -0.7071 0.7071 0.7071 -243.344 405.1907)" width="5.6" height="5.6"/>
		<rect x="372.57" y="501.46" transform="matrix(0.7071 -0.7071 0.7071 0.7071 -246.6287 413.1268)" width="5.6" height="5.6"/>
		<rect x="380.49" y="501.46" transform="matrix(0.7071 -0.7071 0.7071 0.7071 -244.3057 418.7221)" width="5.6" height="5.6"/>
		<rect x="380.49" y="493.54" transform="matrix(0.7071 -0.7071 0.7071 0.7071 -238.702 416.4101)" width="5.6" height="5.6"/>
		<rect x="348.79" y="485.61" transform="matrix(0.7071 -0.7071 0.7071 0.7071 -242.383 391.6638)" width="5.6" height="5.6"/>
		<rect x="348.79" y="469.76" transform="matrix(0.7071 -0.7071 0.7071 0.7071 -231.1738 387.025)" width="5.6" height="5.6"/>
		<rect x="364.64" y="477.69" transform="matrix(0.7071 -0.7071 0.7071 0.7071 -232.1348 400.5521)" width="5.6" height="5.6"/>
		<rect x="348.79" y="477.69" transform="matrix(0.7071 -0.7071 0.7071 0.7071 -236.7788 389.3467)" width="5.6" height="5.6"/>
		<rect x="356.71" y="485.61" transform="matrix(0.7071 -0.7071 0.7071 0.7071 -240.0607 397.2642)" width="5.6" height="5.6"/>
		<rect x="364.64" y="509.39" transform="matrix(0.7071 -0.7071 0.7071 0.7071 -254.5546 409.8387)" width="5.6" height="5.6"/>
		<rect x="340.86" y="485.61" transform="matrix(0.7071 -0.7071 0.7071 0.7071 -244.7047 386.0589)" width="5.6" height="5.6"/>
		<rect x="364.64" y="485.61" transform="matrix(0.7071 -0.7071 0.7071 0.7071 -237.7404 402.8784)" width="5.6" height="5.6"/>
		<rect x="356.71" y="477.69" transform="matrix(0.7071 -0.7071 0.7071 0.7071 -234.4558 394.9426)" width="5.6" height="5.6"/>
		<rect x="372.57" y="485.61" transform="matrix(0.7071 -0.7071 0.7071 0.7071 -235.4181 408.4787)" width="5.6" height="5.6"/>
		<rect x="356.71" y="469.76" transform="matrix(0.7071 -0.7071 0.7071 0.7071 -228.8521 392.63)" width="5.6" height="5.6"/>
		<rect x="356.71" y="438.05" transform="matrix(0.7071 -0.7071 0.7071 0.7071 -206.4317 383.3389)" width="5.6" height="5.6"/>
		<rect x="140.56" y="493.54" transform="matrix(0.7071 -0.7071 0.7071 0.7071 -308.9784 246.7497)" width="5.6" height="5.6"/>
		<rect x="124.71" y="509.39" transform="matrix(0.7071 -0.7071 0.7071 0.7071 -324.8297 240.1796)" width="5.6" height="5.6"/>
		<rect x="140.56" y="501.46" transform="matrix(0.7071 -0.7071 0.7071 0.7071 -314.5795 249.0643)" width="5.6" height="5.6"/>
		<rect x="124.71" y="501.46" transform="matrix(0.7071 -0.7071 0.7071 0.7071 -319.2247 237.8579)" width="5.6" height="5.6"/>
		<rect x="132.63" y="501.46" transform="matrix(0.7071 -0.7071 0.7071 0.7071 -316.9031 243.4629)" width="5.6" height="5.6"/>
		<rect x="132.63" y="493.54" transform="matrix(0.7071 -0.7071 0.7071 0.7071 -311.3001 241.1447)" width="5.6" height="5.6"/>
		<rect x="124.71" y="493.54" transform="matrix(0.7071 -0.7071 0.7071 0.7071 -313.6178 235.5329)" width="5.6" height="5.6"/>
		<rect x="108.85" y="469.76" transform="matrix(0.7071 -0.7071 0.7071 0.7071 -301.4502 217.3647)" width="5.6" height="5.6"/>
		<rect x="164.34" y="461.83" transform="matrix(0.7071 -0.7071 0.7071 0.7071 -279.5934 254.2779)" width="5.6" height="5.6"/>
		<rect x="148.48" y="469.76" transform="matrix(0.7071 -0.7071 0.7071 0.7071 -289.8383 245.3828)" width="5.6" height="5.6"/>
		<rect x="148.48" y="485.61" transform="matrix(0.7071 -0.7071 0.7071 0.7071 -301.0481 250.026)" width="5.6" height="5.6"/>
		<rect x="148.48" y="509.39" transform="matrix(0.7071 -0.7071 0.7071 0.7071 -317.8667 256.998)" width="5.6" height="5.6"/>
		<rect x="148.48" y="477.69" transform="matrix(0.7071 -0.7071 0.7071 0.7071 -295.4449 247.7078)" width="5.6" height="5.6"/>
		<rect x="132.63" y="509.39" transform="matrix(0.7071 -0.7071 0.7071 0.7071 -322.506 245.781)" width="5.6" height="5.6"/>
		<rect x="172.26" y="469.76" transform="matrix(0.7071 -0.7071 0.7071 0.7071 -282.8767 262.2046)" width="5.6" height="5.6"/>
		<rect x="108.85" y="485.61" transform="matrix(0.7071 -0.7071 0.7071 0.7071 -312.6581 222.0048)" width="5.6" height="5.6"/>
		<rect x="124.71" y="485.61" transform="matrix(0.7071 -0.7071 0.7071 0.7071 -308.0148 233.2146)" width="5.6" height="5.6"/>
		<rect x="116.78" y="485.61" transform="matrix(0.7071 -0.7071 0.7071 0.7071 -310.3365 227.6097)" width="5.6" height="5.6"/>
		<rect x="124.71" y="477.69" transform="matrix(0.7071 -0.7071 0.7071 0.7071 -302.408 230.8897)" width="5.6" height="5.6"/>
		<rect x="116.78" y="469.76" transform="matrix(0.7071 -0.7071 0.7071 0.7071 -299.1266 222.9664)" width="5.6" height="5.6"/>
		<rect x="108.85" y="477.69" transform="matrix(0.7071 -0.7071 0.7071 0.7071 -307.0532 219.6831)" width="5.6" height="5.6"/>
		<rect x="148.48" y="501.46" transform="matrix(0.7071 -0.7071 0.7071 0.7071 -312.2598 254.6728)" width="5.6" height="5.6"/>
		<rect x="132.63" y="485.61" transform="matrix(0.7071 -0.7071 0.7071 0.7071 -305.6932 238.8196)" width="5.6" height="5.6"/>
		<rect x="140.56" y="509.39" transform="matrix(0.7071 -0.7071 0.7071 0.7071 -320.1844 251.3859)" width="5.6" height="5.6"/>
		<rect x="148.48" y="493.54" transform="matrix(0.7071 -0.7071 0.7071 0.7071 -306.6567 252.3547)" width="5.6" height="5.6"/>
		<rect x="140.56" y="485.61" transform="matrix(0.7071 -0.7071 0.7071 0.7071 -303.3716 244.4245)" width="5.6" height="5.6"/>
		<rect x="156.41" y="461.83" transform="matrix(0.7071 -0.7071 0.7071 0.7071 -281.9151 248.6729)" width="5.6" height="5.6"/>
		<rect x="180.19" y="445.98" transform="matrix(0.7071 -0.7071 0.7071 0.7071 -263.7386 260.8411)" width="5.6" height="5.6"/>
		<rect x="196.04" y="445.98" transform="matrix(0.7071 -0.7071 0.7071 0.7071 -259.0939 272.0474)" width="5.6" height="5.6"/>
		<rect x="188.12" y="445.98" transform="matrix(0.7071 -0.7071 0.7071 0.7071 -261.417 266.446)" width="5.6" height="5.6"/>
		<rect x="188.12" y="453.91" transform="matrix(0.7071 -0.7071 0.7071 0.7071 -267.0219 268.7676)" width="5.6" height="5.6"/>
		<rect x="196.04" y="453.91" transform="matrix(0.7071 -0.7071 0.7071 0.7071 -264.7003 274.3726)" width="5.6" height="5.6"/>
		<rect x="188.12" y="461.83" transform="matrix(0.7071 -0.7071 0.7071 0.7071 -272.6253 271.0857)" width="5.6" height="5.6"/>
		<rect x="180.19" y="453.91" transform="matrix(0.7071 -0.7071 0.7071 0.7071 -269.3435 263.1627)" width="5.6" height="5.6"/>
		<rect x="196.04" y="430.13" transform="matrix(0.7071 -0.7071 0.7071 0.7071 -247.8867 267.4111)" width="5.6" height="5.6"/>
		<rect x="196.04" y="422.2" transform="matrix(0.7071 -0.7071 0.7071 0.7071 -242.2817 265.0894)" width="5.6" height="5.6"/>
		<rect x="196.04" y="438.05" transform="matrix(0.7071 -0.7071 0.7071 0.7071 -253.4917 269.7328)" width="5.6" height="5.6"/>
		<rect x="180.19" y="461.83" transform="matrix(0.7071 -0.7071 0.7071 0.7071 -274.9485 265.4843)" width="5.6" height="5.6"/>
		<rect x="196.04" y="461.83" transform="matrix(0.7071 -0.7071 0.7071 0.7071 -270.3052 276.6942)" width="5.6" height="5.6"/>
		<rect x="203.97" y="414.27" transform="matrix(0.7071 -0.7071 0.7071 0.7071 -234.3527 268.3659)" width="5.6" height="5.6"/>
		<rect x="156.41" y="485.61" transform="matrix(0.7071 -0.7071 0.7071 0.7071 -298.7283 255.6344)" width="5.6" height="5.6"/>
		<rect x="164.34" y="477.69" transform="matrix(0.7071 -0.7071 0.7071 0.7071 -290.8 258.9142)" width="5.6" height="5.6"/>
		<rect x="156.41" y="469.76" transform="matrix(0.7071 -0.7071 0.7071 0.7071 -287.5167 250.9877)" width="5.6" height="5.6"/>
		<rect x="164.34" y="469.76" transform="matrix(0.7071 -0.7071 0.7071 0.7071 -285.1984 256.5996)" width="5.6" height="5.6"/>
		<rect x="164.34" y="485.61" transform="matrix(0.7071 -0.7071 0.7071 0.7071 -296.4049 261.2358)" width="5.6" height="5.6"/>
		<rect x="156.41" y="477.69" transform="matrix(0.7071 -0.7071 0.7071 0.7071 -293.1233 253.3128)" width="5.6" height="5.6"/>
		<rect x="180.19" y="438.05" transform="matrix(0.7071 -0.7071 0.7071 0.7071 -258.135 258.5228)" width="5.6" height="5.6"/>
		<rect x="172.26" y="445.98" transform="matrix(0.7071 -0.7071 0.7071 0.7071 -266.0602 255.2361)" width="5.6" height="5.6"/>
		<rect x="188.12" y="438.05" transform="matrix(0.7071 -0.7071 0.7071 0.7071 -255.8134 264.1278)" width="5.6" height="5.6"/>
		<rect x="172.26" y="485.61" transform="matrix(0.7071 -0.7071 0.7071 0.7071 -294.0867 266.848)" width="5.6" height="5.6"/>
		<path d="M285.94,525.15l-26.57-26.57l-26.57,26.57L257.64,550h3.45L285.94,525.15z M259.36,502.82l22.33,22.33l-22.33,22.33
			l-22.33-22.33L259.36,502.82z"/>
		<rect x="172.26" y="477.69" transform="matrix(0.7071 -0.7071 0.7071 0.7071 -288.48 264.5227)" width="5.6" height="5.6"/>
		<rect x="172.26" y="453.91" transform="matrix(0.7071 -0.7071 0.7071 0.7071 -271.6652 257.5578)" width="5.6" height="5.6"/>
		<rect x="413.64" y="522.35" width="5.6" height="5.6"/>
		<rect x="402.43" y="522.35" width="5.6" height="5.6"/>
		<rect x="408.04" y="516.74" width="5.6" height="5.6"/>
		<rect x="413.64" y="511.14" width="5.6" height="5.6"/>
		<rect x="396.83" y="527.95" width="5.6" height="5.6"/>
		<rect x="396.83" y="516.74" width="5.6" height="5.6"/>
		<rect x="402.43" y="511.14" width="5.6" height="5.6"/>
		<rect x="391.22" y="522.35" width="5.6" height="5.6"/>
		<rect x="408.04" y="539.16" width="5.6" height="5.6"/>
		<rect x="436.06" y="533.56" width="5.6" height="5.6"/>
		<rect x="408.04" y="527.95" width="5.6" height="5.6"/>
		<rect x="51.16" y="522.35" transform="matrix(0.7071 -0.7071 0.7071 0.7071 -355.5356 191.9744)" width="5.6" height="5.6"/>
		<rect x="419.25" y="516.74" width="5.6" height="5.6"/>
		<rect x="408.04" y="505.53" width="5.6" height="5.6"/>
		<rect x="441.67" y="527.95" width="5.6" height="5.6"/>
		<rect x="430.46" y="527.95" width="5.6" height="5.6"/>
		<polygon points="447.27,522.35 447.27,527.95 452.88,527.95 452.88,525.15 452.88,522.35 		"/>
		<polygon points="452.88,525.15 460.8,533.08 460.8,525.15 460.8,517.23 		"/>
		<rect x="430.46" y="516.74" width="5.6" height="5.6"/>
		<rect x="402.43" y="533.56" width="5.6" height="5.6"/>
		<rect x="461.96" y="522.35" transform="matrix(0.7071 -0.7071 0.7071 0.7071 -235.2118 482.4525)" width="5.6" height="5.6"/>
		<rect x="413.64" y="533.56" width="5.6" height="5.6"/>
		<rect x="419.25" y="527.95" width="5.6" height="5.6"/>
		<rect x="436.06" y="511.14" width="5.6" height="5.6"/>
		<rect x="441.67" y="516.74" width="5.6" height="5.6"/>
		<rect x="424.85" y="522.35" width="5.6" height="5.6"/>
		<rect x="71.46" y="527.95" width="5.6" height="5.6"/>
		<rect x="110.69" y="522.35" width="5.6" height="5.6"/>
		<rect x="93.88" y="527.95" width="5.6" height="5.6"/>
		<rect x="105.09" y="527.95" width="5.6" height="5.6"/>
		<rect x="110.69" y="533.56" width="5.6" height="5.6"/>
		<polygon points="65.85,525.15 57.93,517.23 57.93,525.15 57.93,533.08 		"/>
		<rect x="99.48" y="533.56" width="5.6" height="5.6"/>
		<rect x="105.09" y="516.74" width="5.6" height="5.6"/>
		<rect x="77.06" y="511.14" width="5.6" height="5.6"/>
		<polygon points="109.67,470.58 109.67,459.37 104.07,464.97 98.46,470.58 		"/>
		<rect x="105.09" y="505.53" width="5.6" height="5.6"/>
		<rect x="121.9" y="522.35" width="5.6" height="5.6"/>
		<rect x="105.09" y="539.16" width="5.6" height="5.6"/>
		<rect x="99.48" y="522.35" width="5.6" height="5.6"/>
		<rect x="82.67" y="527.95" width="5.6" height="5.6"/>
		<rect x="82.67" y="516.74" width="5.6" height="5.6"/>
		<rect x="116.3" y="527.95" width="5.6" height="5.6"/>
		<polygon points="71.46,527.95 71.46,522.35 65.85,522.35 65.85,525.15 65.85,527.95 		"/>
		<rect x="77.06" y="533.56" width="5.6" height="5.6"/>
		<rect x="71.46" y="516.74" width="5.6" height="5.6"/>
		<rect x="98.46" y="459.37" width="5.6" height="5.6"/>
		<rect x="116.3" y="516.74" width="5.6" height="5.6"/>
		<rect x="110.69" y="511.14" width="5.6" height="5.6"/>
		<rect x="99.48" y="511.14" width="5.6" height="5.6"/>
		<rect x="93.88" y="516.74" width="5.6" height="5.6"/>
		<rect x="88.27" y="522.35" width="5.6" height="5.6"/>
		<rect x="172.26" y="461.83" transform="matrix(0.7071 -0.7071 0.7071 0.7071 -277.2701 259.8794)" width="5.6" height="5.6"/>
		<rect x="262.17" y="382.09" width="5.6" height="5.6"/>
		<rect x="267.77" y="365.27" width="5.6" height="5.6"/>
		<rect x="267.77" y="376.48" width="5.6" height="5.6"/>
		<rect x="262.17" y="359.67" width="5.6" height="5.6"/>
		<rect x="239.75" y="370.88" width="5.6" height="5.6"/>
		<rect x="250.96" y="359.67" width="5.6" height="5.6"/>
		<rect x="245.35" y="365.27" width="5.6" height="5.6"/>
		<rect x="256.56" y="365.27" width="5.6" height="5.6"/>
		<rect x="262.17" y="370.88" width="5.6" height="5.6"/>
		<rect x="250.96" y="382.09" width="5.6" height="5.6"/>
		<rect x="245.35" y="376.48" width="5.6" height="5.6"/>
		<rect x="256.56" y="387.69" width="5.6" height="5.6"/>
		<rect x="256.56" y="376.48" width="5.6" height="5.6"/>
		<rect x="250.96" y="370.88" width="5.6" height="5.6"/>
		<rect x="132.63" y="445.98" transform="matrix(0.7071 -0.7071 0.7071 0.7071 -277.6702 227.2146)" width="5.6" height="5.6"/>
		<rect x="140.56" y="445.98" transform="matrix(0.7071 -0.7071 0.7071 0.7071 -275.3468 232.8163)" width="5.6" height="5.6"/>
		<rect x="148.48" y="445.98" transform="matrix(0.7071 -0.7071 0.7071 0.7071 -273.0236 238.418)" width="5.6" height="5.6"/>
		<rect x="148.48" y="453.91" transform="matrix(0.7071 -0.7071 0.7071 0.7071 -278.6318 240.7462)" width="5.6" height="5.6"/>
		<rect x="140.56" y="461.83" transform="matrix(0.7071 -0.7071 0.7071 0.7071 -286.555 237.4563)" width="5.6" height="5.6"/>
		<rect x="132.63" y="453.91" transform="matrix(0.7071 -0.7071 0.7071 0.7071 -283.2751 229.5362)" width="5.6" height="5.6"/>
		<rect x="193.58" y="364.25" width="5.6" height="5.6"/>
		<rect x="122.24" y="435.59" width="5.6" height="5.6"/>
		<polygon points="204.79,375.46 204.79,364.25 199.19,369.86 193.58,375.46 		"/>
		<rect x="124.71" y="469.76" transform="matrix(0.7071 -0.7071 0.7071 0.7071 -296.8068 228.5746)" width="5.6" height="5.6"/>
		<polygon points="133.45,446.8 133.45,435.59 127.85,441.19 122.24,446.8 		"/>
		<rect x="132.63" y="461.83" transform="matrix(0.7071 -0.7071 0.7071 0.7071 -288.8766 231.8514)" width="5.6" height="5.6"/>
		<rect x="273.38" y="370.88" width="5.6" height="5.6"/>
		<rect x="372.57" y="543.23" transform="matrix(0.7071 -0.7071 0.7071 0.7071 -276.1634 425.356)" width="5.6" height="5.6"/>
		<rect x="388.42" y="543.23" transform="matrix(0.7071 -0.7071 0.7071 0.7071 -271.521 436.571)" width="5.6" height="5.6"/>
		<rect x="364.64" y="535.31" transform="matrix(0.7071 -0.7071 0.7071 0.7071 -272.8801 417.4294)" width="5.6" height="5.6"/>
		<rect x="380.49" y="535.31" transform="matrix(0.7071 -0.7071 0.7071 0.7071 -268.2368 428.6393)" width="5.6" height="5.6"/>
		<polygon points="259.36,408.74 142.95,525.15 167.8,550 172.04,550 147.2,525.15 259.36,412.98 371.53,525.15 346.69,550 
			350.93,550 375.78,525.15 		"/>
		<rect x="372.57" y="535.31" transform="matrix(0.7071 -0.7071 0.7071 0.7071 -270.5585 423.0343)" width="5.6" height="5.6"/>
		<rect x="364.64" y="543.23" transform="matrix(0.7071 -0.7071 0.7071 0.7071 -278.485 419.751)" width="5.6" height="5.6"/>
		<polygon points="259.36,487.09 221.3,525.15 246.15,550 250.39,550 225.54,525.15 259.36,491.33 293.19,525.15 268.34,550 
			272.58,550 297.43,525.15 		"/>
		<polygon points="216.8,528.16 194.96,550 197.6,550 218.12,529.48 		"/>
		<polygon points="259.36,420.17 154.38,525.15 179.23,550 183.47,550 158.63,525.15 259.36,424.41 360.1,525.15 335.25,550 
			339.5,550 364.34,525.15 		"/>
		<path d="M159.96,525.15L184.8,550h6.01l-8.25-8.25l16.6-16.6h-2.72l-15.24,15.24l0,0l15.24-15.24h-2.72l-13.88,13.88l-7.46-7.46
			l6.42-6.42h-2.72l-5.06,5.06l0,0l5.06-5.06h-2.72l-3.7,3.7l-3.7-3.7l3.7-3.7l3.7,3.7l2.72,0l-5.06-5.06l0,0l5.06,5.06h2.72
			l-6.42-6.42l7.46-7.46l13.88,13.88h2.72l-15.24-15.24l0,0l15.24,15.24h2.72l-16.6-16.6l8.24-8.24l24.87,24.87l-0.78,0.78
			l4.62-0.82l-29.78-29.78L159.96,525.15z M191.39,499.74l24.05,24.05l0,0L191.39,499.74L191.39,499.74z"/>
		<path d="M328.99,495.37l-3.01,3.01l-24.05,24.05l-2.72,2.72l4.62-0.82l0,0l24.05-24.05l8.28,8.28l-16.6,16.6h2.72l15.24-15.24l0,0
			l-15.24,15.24h2.72l13.88-13.88l7.46,7.46l-6.42,6.42h2.72l5.06-5.06l0,0l-5.06,5.06l2.72,0l3.7-3.7l3.7,3.7l-3.7,3.7l-3.7-3.7
			h-2.72l5.06,5.06l0,0l-5.06-5.06h-2.72l6.42,6.42l-7.46,7.46l-13.88-13.88h-2.72l15.24,15.24l0,0l-15.24-15.24h-2.72l16.6,16.6
			l-8.24,8.24l-24.87-24.87l0.78-0.78l-4.62,0.82l2.72,2.72L324.05,550h2.72l-23.49-23.49l0,0L326.78,550h7.15l24.85-24.85
			L328.99,495.37z M303.29,523.79L303.29,523.79l24.05-24.05l0,0L303.29,523.79z"/>
		<rect x="250.96" y="348.46" width="5.6" height="5.6"/>
		<rect x="262.17" y="337.25" width="5.6" height="5.6"/>
		<rect x="262.17" y="348.46" width="5.6" height="5.6"/>
		<rect x="250.96" y="337.25" width="5.6" height="5.6"/>
		<rect x="380.49" y="543.23" transform="matrix(0.7071 -0.7071 0.7071 0.7071 -273.8409 430.9558)" width="5.6" height="5.6"/>
		<rect x="256.56" y="354.06" width="5.6" height="5.6"/>
		<rect x="267.77" y="342.85" width="5.6" height="5.6"/>
		<rect x="148.48" y="461.83" transform="matrix(0.7071 -0.7071 0.7071 0.7071 -284.2334 243.0612)" width="5.6" height="5.6"/>
		<rect x="245.35" y="342.85" width="5.6" height="5.6"/>
		<rect x="388.42" y="535.31" transform="matrix(0.7071 -0.7071 0.7071 0.7071 -265.9152 434.2442)" width="5.6" height="5.6"/>
		<rect x="256.56" y="316.95" transform="matrix(0.7071 -0.7071 0.7071 0.7071 -150.1318 277.0512)" width="5.6" height="5.6"/>
		<polygon points="262.17,331.64 259.36,331.64 256.56,331.64 256.56,337.25 262.17,337.25 		"/>
		<polygon points="259.36,323.71 251.44,323.71 259.36,331.64 267.29,323.71 		"/>
		<rect x="203.97" y="374.64" transform="matrix(0.7071 -0.7071 0.7071 0.7071 -206.3282 256.7579)" width="5.6" height="5.6"/>
		<rect x="243.6" y="406.35" transform="matrix(0.7071 -0.7071 0.7071 0.7071 -217.1407 294.0724)" width="5.6" height="5.6"/>
		<rect x="235.68" y="414.27" transform="matrix(0.7071 -0.7071 0.7071 0.7071 -225.0683 290.7927)" width="5.6" height="5.6"/>
		<rect x="235.68" y="406.35" transform="matrix(0.7071 -0.7071 0.7071 0.7071 -219.4623 288.4675)" width="5.6" height="5.6"/>
		<rect x="227.75" y="406.35" transform="matrix(0.7071 -0.7071 0.7071 0.7071 -221.783 282.859)" width="5.6" height="5.6"/>
		<rect x="243.6" y="398.42" transform="matrix(0.7071 -0.7071 0.7071 0.7071 -211.5358 291.7508)" width="5.6" height="5.6"/>
		<rect x="235.68" y="390.49" transform="matrix(0.7071 -0.7071 0.7071 0.7071 -208.2524 283.8242)" width="5.6" height="5.6"/>
		<rect x="235.68" y="398.42" transform="matrix(0.7071 -0.7071 0.7071 0.7071 -213.8574 286.1458)" width="5.6" height="5.6"/>
		<rect x="227.75" y="390.49" transform="matrix(0.7071 -0.7071 0.7071 0.7071 -210.5732 278.2158)" width="5.6" height="5.6"/>
		<rect x="243.6" y="390.49" transform="matrix(0.7071 -0.7071 0.7071 0.7071 -205.9308 289.4291)" width="5.6" height="5.6"/>
		<rect x="243.6" y="414.27" transform="matrix(0.7071 -0.7071 0.7071 0.7071 -222.7447 296.3904)" width="5.6" height="5.6"/>
		<rect x="227.75" y="414.27" transform="matrix(0.7071 -0.7071 0.7071 0.7071 -227.39 285.1877)" width="5.6" height="5.6"/>
		<rect x="227.75" y="398.42" transform="matrix(0.7071 -0.7071 0.7071 0.7071 -216.179 280.5409)" width="5.6" height="5.6"/>
		<rect x="219.82" y="406.35" transform="matrix(0.7071 -0.7071 0.7071 0.7071 -224.1056 277.2576)" width="5.6" height="5.6"/>
		<rect x="203.97" y="430.13" transform="matrix(0.7071 -0.7071 0.7071 0.7071 -245.5638 273.0126)" width="5.6" height="5.6"/>
		<rect x="211.9" y="438.05" transform="matrix(0.7071 -0.7071 0.7071 0.7071 -248.8471 280.9392)" width="5.6" height="5.6"/>
		<rect x="211.9" y="430.13" transform="matrix(0.7071 -0.7071 0.7071 0.7071 -243.2421 278.6176)" width="5.6" height="5.6"/>
		<rect x="219.82" y="422.2" transform="matrix(0.7071 -0.7071 0.7071 0.7071 -235.3144 281.8973)" width="5.6" height="5.6"/>
		<rect x="219.82" y="430.13" transform="matrix(0.7071 -0.7071 0.7071 0.7071 -240.9205 284.2225)" width="5.6" height="5.6"/>
		<rect x="156.41" y="438.05" transform="matrix(0.7071 -0.7071 0.7071 0.7071 -265.0986 241.7046)" width="5.6" height="5.6"/>
		<rect x="219.82" y="398.42" transform="matrix(0.7071 -0.7071 0.7071 0.7071 -218.5017 274.9393)" width="5.6" height="5.6"/>
		<rect x="219.82" y="390.49" transform="matrix(0.7071 -0.7071 0.7071 0.7071 -212.8967 272.6176)" width="5.6" height="5.6"/>
		<rect x="219.82" y="414.27" transform="matrix(0.7071 -0.7071 0.7071 0.7071 -229.7106 279.5792)" width="5.6" height="5.6"/>
		<rect x="219.82" y="438.05" transform="matrix(0.7071 -0.7071 0.7071 0.7071 -246.5254 286.5441)" width="5.6" height="5.6"/>
		<rect x="203.97" y="438.05" transform="matrix(0.7071 -0.7071 0.7071 0.7071 -251.1687 275.3343)" width="5.6" height="5.6"/>
		<rect x="203.97" y="422.2" transform="matrix(0.7071 -0.7071 0.7071 0.7071 -239.9588 270.6909)" width="5.6" height="5.6"/>
		<rect x="211.9" y="422.2" transform="matrix(0.7071 -0.7071 0.7071 0.7071 -237.6372 276.2959)" width="5.6" height="5.6"/>
		<rect x="164.34" y="438.05" transform="matrix(0.7071 -0.7071 0.7071 0.7071 -262.7755 247.3062)" width="5.6" height="5.6"/>
		<rect x="172.26" y="438.05" transform="matrix(0.7071 -0.7071 0.7071 0.7071 -260.4538 252.9111)" width="5.6" height="5.6"/>
		<polygon points="182.99,397.26 181.01,399.24 181.01,388.03 175.41,393.64 169.8,399.24 181.01,399.24 179.03,401.22 
			182.99,405.18 186.96,401.22 		"/>
		<rect x="164.34" y="422.2" transform="matrix(0.7071 -0.7071 0.7071 0.7071 -251.567 242.6662)" width="5.6" height="5.6"/>
		<rect x="169.8" y="388.03" width="5.6" height="5.6"/>
		<rect x="180.19" y="414.27" transform="matrix(0.7071 -0.7071 0.7071 0.7071 -241.3201 251.5578)" width="5.6" height="5.6"/>
		<rect x="156.41" y="430.13" transform="matrix(0.7071 -0.7071 0.7071 0.7071 -259.4936 239.3829)" width="5.6" height="5.6"/>
		<rect x="146.02" y="411.81" width="5.6" height="5.6"/>
		<rect x="172.26" y="430.13" transform="matrix(0.7071 -0.7071 0.7071 0.7071 -254.8517 250.5961)" width="5.6" height="5.6"/>
		<polygon points="151.63,417.41 146.02,423.02 157.23,423.02 157.23,411.81 		"/>
		<rect x="172.26" y="422.2" transform="matrix(0.7071 -0.7071 0.7071 0.7071 -249.244 248.2679)" width="5.6" height="5.6"/>
		<polygon points="159.21,421.04 157.23,423.02 155.25,425 159.21,428.96 163.18,425 		"/>
		<rect x="219.82" y="382.57" transform="matrix(0.7071 -0.7071 0.7071 0.7071 -207.2908 270.2926)" width="5.6" height="5.6"/>
		<rect x="203.97" y="390.49" transform="matrix(0.7071 -0.7071 0.7071 0.7071 -217.54 261.4077)" width="5.6" height="5.6"/>
		<rect x="211.9" y="414.27" transform="matrix(0.7071 -0.7071 0.7071 0.7071 -232.0322 273.9743)" width="5.6" height="5.6"/>
		<rect x="211.9" y="390.49" transform="matrix(0.7071 -0.7071 0.7071 0.7071 -215.2184 267.0126)" width="5.6" height="5.6"/>
		<rect x="219.82" y="374.64" transform="matrix(0.7071 -0.7071 0.7071 0.7071 -201.6867 267.9742)" width="5.6" height="5.6"/>
		<rect x="203.97" y="382.57" transform="matrix(0.7071 -0.7071 0.7071 0.7071 -211.9331 259.0795)" width="5.6" height="5.6"/>
		<rect x="211.9" y="374.64" transform="matrix(0.7071 -0.7071 0.7071 0.7071 -204.0084 262.3693)" width="5.6" height="5.6"/>
		<rect x="188.12" y="398.42" transform="matrix(0.7071 -0.7071 0.7071 0.7071 -227.7873 252.5161)" width="5.6" height="5.6"/>
		<rect x="196.04" y="406.35" transform="matrix(0.7071 -0.7071 0.7071 0.7071 -231.0706 260.4427)" width="5.6" height="5.6"/>
		<rect x="196.04" y="398.42" transform="matrix(0.7071 -0.7071 0.7071 0.7071 -225.4656 258.1211)" width="5.6" height="5.6"/>
		<rect x="196.04" y="414.27" transform="matrix(0.7071 -0.7071 0.7071 0.7071 -236.6767 262.7677)" width="5.6" height="5.6"/>
		<rect x="188.12" y="414.27" transform="matrix(0.7071 -0.7071 0.7071 0.7071 -238.9972 257.1594)" width="5.6" height="5.6"/>
		<rect x="180.19" y="406.35" transform="matrix(0.7071 -0.7071 0.7071 0.7071 -235.7126 249.2296)" width="5.6" height="5.6"/>
	</g>
</g>
<g>
</g>
<g>
</g>
<g>
</g>
<g>
</g>
<g>
</g>
<g>
</g>
<g>
</g>
<g>
</g>
<g>
</g>
<g>
</g>
<g>
</g>
<g>
</g>
<g>
</g>
<g>
</g>
<g>
</g>
</svg>
