<?xml version="1.0" encoding="utf-8"?>
<!-- Generator: Adobe Illustrator 27.2.0, SVG Export Plug-In . SVG Version: 6.00 Build 0)  -->
<svg version="1.1" id="Layer_1" xmlns="http://www.w3.org/2000/svg" xmlns:xlink="http://www.w3.org/1999/xlink" x="0px" y="0px"
	 viewBox="0 0 800 600" style="enable-background:new 0 0 800 600;" xml:space="preserve">
<g>
	<g>
		<g>
			
				<rect x="126.41" y="469.47" transform="matrix(-0.7071 -0.7071 0.7071 -0.7071 -103.0391 922.5359)" style="fill:none;stroke:#000000;stroke-width:3;stroke-miterlimit:10;" width="26.28" height="26.28"/>
			<circle style="fill:none;stroke:#000000;stroke-width:2;stroke-miterlimit:10;" cx="139.54" cy="482.61" r="7.68"/>
			<circle cx="139.54" cy="482.61" r="2.72"/>
		</g>
		<g>
			
				<rect x="148.56" y="447.32" transform="matrix(-0.7071 0.7071 -0.7071 -0.7071 601.6227 671.714)" style="fill:none;stroke:#000000;stroke-width:3;stroke-miterlimit:10;" width="26.28" height="26.28"/>
			<circle style="fill:none;stroke:#000000;stroke-width:2;stroke-miterlimit:10;" cx="161.69" cy="460.46" r="7.68"/>
			<circle cx="161.69" cy="460.46" r="2.72"/>
		</g>
		<g>
			
				<rect x="126.41" y="425.17" transform="matrix(0.7071 0.7071 -0.7071 0.7071 350.8008 29.7045)" style="fill:none;stroke:#000000;stroke-width:3;stroke-miterlimit:10;" width="26.28" height="26.28"/>
			<circle style="fill:none;stroke:#000000;stroke-width:2;stroke-miterlimit:10;" cx="139.54" cy="438.31" r="7.68"/>
			<circle cx="139.54" cy="438.31" r="2.72"/>
		</g>
		<g>
			
				<rect x="104.25" y="447.32" transform="matrix(0.7071 -0.7071 0.7071 0.7071 -291.2088 217.8741)" style="fill:none;stroke:#000000;stroke-width:3;stroke-miterlimit:10;" width="26.28" height="26.28"/>
			<circle style="fill:none;stroke:#000000;stroke-width:2;stroke-miterlimit:10;" cx="117.39" cy="460.46" r="7.68"/>
			<circle cx="117.39" cy="460.46" r="2.72"/>
		</g>
		<path d="M153.22,499.42c-1.81-1.81-4.19-2.71-6.57-2.7c-0.01,2.38,0.89,4.75,2.7,6.57c1.81,1.81,4.19,2.71,6.57,2.7
			C155.93,503.61,155.04,501.23,153.22,499.42z"/>
		<path d="M178.5,474.14c-1.81-1.81-2.71-4.19-2.7-6.57c2.38-0.01,4.75,0.89,6.57,2.7c1.81,1.81,2.71,4.19,2.7,6.57
			C182.69,476.85,180.31,475.95,178.5,474.14z"/>
		<path d="M178.5,446.78c-1.81,1.81-2.71,4.19-2.7,6.57c2.38,0.01,4.75-0.89,6.57-2.7c1.81-1.81,2.71-4.19,2.7-6.57
			C182.69,444.07,180.31,444.97,178.5,446.78z"/>
		<path d="M153.22,421.5c-1.81,1.81-4.19,2.71-6.57,2.7c-0.01-2.38,0.89-4.75,2.7-6.57c1.81-1.81,4.19-2.71,6.57-2.7
			C155.93,417.31,155.04,419.69,153.22,421.5z"/>
		<path d="M125.86,421.5c1.81,1.81,4.19,2.71,6.57,2.7c0.01-2.38-0.89-4.75-2.7-6.57c-1.81-1.81-4.19-2.71-6.57-2.7
			C123.15,417.31,124.05,419.69,125.86,421.5z"/>
		<path d="M100.59,446.78c1.81,1.81,2.71,4.19,2.7,6.57c-2.38,0.01-4.75-0.89-6.57-2.7c-1.81-1.81-2.71-4.19-2.7-6.57
			C96.4,444.07,98.77,444.97,100.59,446.78z"/>
		<path d="M100.59,474.14c1.81-1.81,2.71-4.19,2.7-6.57c-2.38-0.01-4.75,0.89-6.57,2.7c-1.81,1.81-2.71,4.19-2.7,6.57
			C96.4,476.85,98.77,475.95,100.59,474.14z"/>
		<path d="M125.86,499.42c1.81-1.81,4.19-2.71,6.57-2.7c0.01,2.38-0.89,4.75-2.7,6.57c-1.81,1.81-4.19,2.71-6.57,2.7
			C123.15,503.61,124.05,501.23,125.86,499.42z"/>
		<g>
			<g>
				<rect x="187.95" y="409.22" transform="matrix(0.7071 0.7071 -0.7071 0.7071 345.8275 -13.6267)" width="2.83" height="2.83"/>
				<rect x="189.66" y="406.53" transform="matrix(0.7071 -0.7071 0.7071 0.7071 -232.2067 255.2887)" width="4.79" height="2.83"/>
				<rect x="184.27" y="411.91" transform="matrix(0.7071 -0.7071 0.7071 0.7071 -237.5961 253.0563)" width="4.79" height="2.83"/>
				<rect x="190.64" y="410.94" transform="matrix(0.7071 -0.7071 0.7071 0.7071 -236.0176 256.8672)" width="2.83" height="4.79"/>
				<rect x="185.25" y="405.55" transform="matrix(0.7071 -0.7071 0.7071 0.7071 -233.7852 251.4778)" width="2.83" height="4.79"/>
			</g>
			<g>
				<rect x="189.77" y="433.88" transform="matrix(0.7071 0.7071 -0.7071 0.7071 363.7997 -7.6976)" width="2.83" height="2.83"/>
				<rect x="191.49" y="431.18" transform="matrix(0.7071 -0.7071 0.7071 0.7071 -249.1075 263.8044)" width="4.79" height="2.83"/>
				<rect x="186.1" y="436.57" transform="matrix(0.7071 -0.7071 0.7071 0.7071 -254.497 261.5721)" width="4.79" height="2.83"/>
				<rect x="192.47" y="435.6" transform="matrix(0.7071 -0.7071 0.7071 0.7071 -252.9184 265.383)" width="2.83" height="4.79"/>
				<rect x="187.08" y="430.21" transform="matrix(0.7071 -0.7071 0.7071 0.7071 -250.6861 259.9935)" width="2.83" height="4.79"/>
			</g>
			<g>
				<rect x="163.29" y="407.39" transform="matrix(-0.7071 -0.7071 0.7071 -0.7071 -7.9044 814.3426)" width="2.83" height="2.83"/>
				<rect x="165" y="404.7" transform="matrix(0.7071 -0.7071 0.7071 0.7071 -238.1358 237.3165)" width="4.79" height="2.83"/>
				<rect x="159.62" y="410.09" transform="matrix(0.7071 -0.7071 0.7071 0.7071 -243.5253 235.0841)" width="4.79" height="2.83"/>
				<rect x="160.59" y="403.72" transform="matrix(0.7071 -0.7071 0.7071 0.7071 -239.7144 233.5056)" width="2.83" height="4.79"/>
				<rect x="165.98" y="409.11" transform="matrix(0.7071 -0.7071 0.7071 0.7071 -241.9468 238.895)" width="2.83" height="4.79"/>
			</g>
			<g>
				<g>
					<rect x="171.14" y="426.02" transform="matrix(0.7071 0.7071 -0.7071 0.7071 352.7881 3.1777)" width="2.83" height="2.83"/>
					<rect x="172.72" y="425.06" transform="matrix(0.7071 0.7071 -0.7071 0.7071 352.1354 1.602)" width="2.83" height="1.62"/>
					
						<rect x="169.57" y="425.06" transform="matrix(-0.7071 0.7071 -0.7071 -0.7071 593.0182 606.096)" width="2.83" height="1.62"/>
					
						<rect x="172.72" y="428.21" transform="matrix(-0.7071 0.7071 -0.7071 -0.7071 600.6263 609.2473)" width="2.83" height="1.62"/>
					<rect x="169.57" y="428.21" transform="matrix(0.7071 0.7071 -0.7071 0.7071 353.4408 4.7534)" width="2.83" height="1.62"/>
				</g>
				<g>
					<rect x="177.68" y="419.49" transform="matrix(0.7071 0.7071 -0.7071 0.7071 350.0807 -3.3587)" width="2.83" height="2.83"/>
					<rect x="179.4" y="416.79" transform="matrix(0.7071 -0.7071 0.7071 0.7071 -242.4747 251.0356)" width="4.79" height="2.83"/>
					
						<rect x="174.01" y="422.18" transform="matrix(0.7071 -0.7071 0.7071 0.7071 -247.8642 248.8032)" width="4.79" height="2.83"/>
					
						<rect x="180.37" y="421.21" transform="matrix(0.7071 -0.7071 0.7071 0.7071 -246.2856 252.6141)" width="2.83" height="4.79"/>
					
						<rect x="174.98" y="415.82" transform="matrix(0.7071 -0.7071 0.7071 0.7071 -244.0533 247.2246)" width="2.83" height="4.79"/>
				</g>
				<g>
					<rect x="164.6" y="419.49" transform="matrix(0.7071 0.7071 -0.7071 0.7071 346.2517 5.8852)" width="2.83" height="2.83"/>
					
						<rect x="166.32" y="416.79" transform="matrix(0.7071 -0.7071 0.7071 0.7071 -246.3036 241.7917)" width="4.79" height="2.83"/>
					
						<rect x="160.93" y="422.18" transform="matrix(0.7071 -0.7071 0.7071 0.7071 -251.6931 239.5593)" width="4.79" height="2.83"/>
					<rect x="167.3" y="421.21" transform="matrix(0.7071 -0.7071 0.7071 0.7071 -250.1146 243.3702)" width="2.83" height="4.79"/>
					
						<rect x="161.91" y="415.82" transform="matrix(0.7071 -0.7071 0.7071 0.7071 -247.8822 237.9808)" width="2.83" height="4.79"/>
				</g>
				<g>
					<rect x="177.68" y="432.56" transform="matrix(0.7071 0.7071 -0.7071 0.7071 359.3245 0.4702)" width="2.83" height="2.83"/>
					<rect x="179.4" y="429.87" transform="matrix(0.7071 -0.7071 0.7071 0.7071 -251.7186 254.8645)" width="4.79" height="2.83"/>
					<rect x="174.01" y="435.26" transform="matrix(0.7071 -0.7071 0.7071 0.7071 -257.108 252.6321)" width="4.79" height="2.83"/>
					<rect x="180.37" y="434.28" transform="matrix(0.7071 -0.7071 0.7071 0.7071 -255.5295 256.443)" width="2.83" height="4.79"/>
					
						<rect x="174.98" y="428.89" transform="matrix(0.7071 -0.7071 0.7071 0.7071 -253.2971 251.0536)" width="2.83" height="4.79"/>
				</g>
				<g>
					<rect x="164.6" y="432.56" transform="matrix(0.7071 0.7071 -0.7071 0.7071 355.4956 9.7141)" width="2.83" height="2.83"/>
					
						<rect x="166.32" y="429.87" transform="matrix(0.7071 -0.7071 0.7071 0.7071 -255.5475 245.6206)" width="4.79" height="2.83"/>
					<rect x="160.93" y="435.26" transform="matrix(0.7071 -0.7071 0.7071 0.7071 -260.937 243.3882)" width="4.79" height="2.83"/>
					<rect x="167.3" y="434.28" transform="matrix(0.7071 -0.7071 0.7071 0.7071 -259.3585 247.1991)" width="2.83" height="4.79"/>
					
						<rect x="161.91" y="428.89" transform="matrix(0.7071 -0.7071 0.7071 0.7071 -257.1261 241.8097)" width="2.83" height="4.79"/>
				</g>
			</g>
		</g>
		<g>
			<g>
				<rect x="88.31" y="409.22" transform="matrix(0.7071 -0.7071 0.7071 0.7071 -264.0847 183.7177)" width="2.83" height="2.83"/>
				<rect x="85.61" y="405.55" transform="matrix(0.7071 -0.7071 0.7071 0.7071 -262.9685 181.023)" width="2.83" height="4.79"/>
				<rect x="91" y="410.94" transform="matrix(0.7071 -0.7071 0.7071 0.7071 -265.2009 186.4125)" width="2.83" height="4.79"/>
				<rect x="90.03" y="406.53" transform="matrix(0.7071 -0.7071 0.7071 0.7071 -261.39 184.8339)" width="4.79" height="2.83"/>
				<rect x="84.64" y="411.91" transform="matrix(0.7071 -0.7071 0.7071 0.7071 -266.7795 182.6015)" width="4.79" height="2.83"/>
			</g>
			<g>
				<rect x="112.97" y="407.39" transform="matrix(0.7071 -0.7071 0.7071 0.7071 -255.569 200.6186)" width="2.83" height="2.83"/>
				<rect x="110.27" y="403.72" transform="matrix(0.7071 -0.7071 0.7071 0.7071 -254.4528 197.9238)" width="2.83" height="4.79"/>
				<rect x="115.66" y="409.11" transform="matrix(0.7071 -0.7071 0.7071 0.7071 -256.6852 203.3133)" width="2.83" height="4.79"/>
				<rect x="114.68" y="404.7" transform="matrix(0.7071 -0.7071 0.7071 0.7071 -252.8743 201.7348)" width="4.79" height="2.83"/>
				<rect x="109.3" y="410.09" transform="matrix(0.7071 -0.7071 0.7071 0.7071 -258.2637 199.5024)" width="4.79" height="2.83"/>
			</g>
			<g>
				<rect x="86.48" y="433.88" transform="matrix(-0.7071 0.7071 -0.7071 -0.7071 457.8481 680.9458)" width="2.83" height="2.83"/>
				<rect x="83.78" y="430.21" transform="matrix(0.7071 -0.7071 0.7071 0.7071 -280.9408 186.9522)" width="2.83" height="4.79"/>
				<rect x="89.17" y="435.6" transform="matrix(0.7071 -0.7071 0.7071 0.7071 -283.1732 192.3416)" width="2.83" height="4.79"/>
				<rect x="82.81" y="436.57" transform="matrix(0.7071 -0.7071 0.7071 0.7071 -284.7517 188.5307)" width="4.79" height="2.83"/>
				<rect x="88.2" y="431.18" transform="matrix(0.7071 -0.7071 0.7071 0.7071 -279.3622 190.7631)" width="4.79" height="2.83"/>
			</g>
			<g>
				<g>
					
						<rect x="105.11" y="426.02" transform="matrix(0.7071 -0.7071 0.7071 0.7071 -271.0453 200.5222)" width="2.83" height="2.83"/>
					
						<rect x="103.54" y="425.06" transform="matrix(0.7071 -0.7071 0.7071 0.7071 -270.3927 198.9465)" width="2.83" height="1.62"/>
					<rect x="103.54" y="428.21" transform="matrix(0.7071 0.7071 -0.7071 0.7071 334.1013 51.4431)" width="2.83" height="1.62"/>
					<rect x="106.69" y="425.06" transform="matrix(0.7071 0.7071 -0.7071 0.7071 332.7959 48.2918)" width="2.83" height="1.62"/>
					<rect x="106.69" y="428.21" transform="matrix(0.7071 -0.7071 0.7071 0.7071 -271.698 202.0978)" width="2.83" height="1.62"/>
				</g>
				<g>
					<rect x="98.58" y="419.49" transform="matrix(0.7071 -0.7071 0.7071 0.7071 -268.3379 193.9858)" width="2.83" height="2.83"/>
					<rect x="95.88" y="415.82" transform="matrix(0.7071 -0.7071 0.7071 0.7071 -267.2217 191.291)" width="2.83" height="4.79"/>
					
						<rect x="101.27" y="421.21" transform="matrix(0.7071 -0.7071 0.7071 0.7071 -269.4541 196.6805)" width="2.83" height="4.79"/>
					<rect x="100.29" y="416.79" transform="matrix(0.7071 -0.7071 0.7071 0.7071 -265.6432 195.102)" width="4.79" height="2.83"/>
					<rect x="94.9" y="422.18" transform="matrix(0.7071 -0.7071 0.7071 0.7071 -271.0326 192.8696)" width="4.79" height="2.83"/>
				</g>
				<g>
					<rect x="98.58" y="432.56" transform="matrix(0.7071 -0.7071 0.7071 0.7071 -277.5818 197.8147)" width="2.83" height="2.83"/>
					<rect x="95.88" y="428.89" transform="matrix(0.7071 -0.7071 0.7071 0.7071 -276.4656 195.12)" width="2.83" height="4.79"/>
					
						<rect x="101.27" y="434.28" transform="matrix(0.7071 -0.7071 0.7071 0.7071 -278.6979 200.5094)" width="2.83" height="4.79"/>
					
						<rect x="100.29" y="429.87" transform="matrix(0.7071 -0.7071 0.7071 0.7071 -274.8871 198.9309)" width="4.79" height="2.83"/>
					<rect x="94.9" y="435.26" transform="matrix(0.7071 -0.7071 0.7071 0.7071 -280.2765 196.6985)" width="4.79" height="2.83"/>
				</g>
				<g>
					<rect x="111.65" y="419.49" transform="matrix(0.7071 -0.7071 0.7071 0.7071 -264.509 203.2296)" width="2.83" height="2.83"/>
					
						<rect x="108.95" y="415.82" transform="matrix(0.7071 -0.7071 0.7071 0.7071 -263.3928 200.5349)" width="2.83" height="4.79"/>
					
						<rect x="114.34" y="421.21" transform="matrix(0.7071 -0.7071 0.7071 0.7071 -265.6252 205.9243)" width="2.83" height="4.79"/>
					
						<rect x="113.37" y="416.79" transform="matrix(0.7071 -0.7071 0.7071 0.7071 -261.8142 204.3458)" width="4.79" height="2.83"/>
					
						<rect x="107.98" y="422.18" transform="matrix(0.7071 -0.7071 0.7071 0.7071 -267.2037 202.1134)" width="4.79" height="2.83"/>
				</g>
				<g>
					
						<rect x="111.65" y="432.56" transform="matrix(0.7071 -0.7071 0.7071 0.7071 -273.7528 207.0586)" width="2.83" height="2.83"/>
					
						<rect x="108.95" y="428.89" transform="matrix(0.7071 -0.7071 0.7071 0.7071 -272.6366 204.3638)" width="2.83" height="4.79"/>
					<rect x="114.34" y="434.28" transform="matrix(0.7071 -0.7071 0.7071 0.7071 -274.869 209.7533)" width="2.83" height="4.79"/>
					
						<rect x="113.37" y="429.87" transform="matrix(0.7071 -0.7071 0.7071 0.7071 -271.0581 208.1748)" width="4.79" height="2.83"/>
					
						<rect x="107.98" y="435.26" transform="matrix(0.7071 -0.7071 0.7071 0.7071 -276.4476 205.9424)" width="4.79" height="2.83"/>
				</g>
			</g>
		</g>
		<g>
			<g>
				
					<rect x="88.31" y="508.86" transform="matrix(-0.7071 -0.7071 0.7071 -0.7071 -207.6499 934.5395)" width="2.83" height="2.83"/>
				<rect x="84.64" y="511.55" transform="matrix(0.7071 -0.7071 0.7071 0.7071 -337.2343 211.7849)" width="4.79" height="2.83"/>
				<rect x="90.03" y="506.16" transform="matrix(0.7071 -0.7071 0.7071 0.7071 -331.8448 214.0172)" width="4.79" height="2.83"/>
				<rect x="85.61" y="505.19" transform="matrix(0.7071 -0.7071 0.7071 0.7071 -333.4233 210.2063)" width="2.83" height="4.79"/>
				<rect x="91" y="510.58" transform="matrix(0.7071 -0.7071 0.7071 0.7071 -335.6557 215.5958)" width="2.83" height="4.79"/>
			</g>
			<g>
				<rect x="86.48" y="484.2" transform="matrix(-0.7071 -0.7071 0.7071 -0.7071 -193.3356 891.1507)" width="2.83" height="2.83"/>
				<rect x="82.81" y="486.89" transform="matrix(0.7071 -0.7071 0.7071 0.7071 -320.3334 203.2691)" width="4.79" height="2.83"/>
				<rect x="88.2" y="481.5" transform="matrix(0.7071 -0.7071 0.7071 0.7071 -314.944 205.5015)" width="4.79" height="2.83"/>
				<rect x="83.78" y="480.53" transform="matrix(0.7071 -0.7071 0.7071 0.7071 -316.5225 201.6906)" width="2.83" height="4.79"/>
				<rect x="89.17" y="485.92" transform="matrix(0.7071 -0.7071 0.7071 0.7071 -318.7549 207.08)" width="2.83" height="4.79"/>
			</g>
			<g>
				<rect x="112.97" y="510.69" transform="matrix(0.7071 0.7071 -0.7071 0.7071 395.6147 69.1105)" width="2.83" height="2.83"/>
				<rect x="109.3" y="513.38" transform="matrix(0.7071 -0.7071 0.7071 0.7071 -331.3051 229.7571)" width="4.79" height="2.83"/>
				<rect x="114.68" y="507.99" transform="matrix(0.7071 -0.7071 0.7071 0.7071 -325.9156 231.9895)" width="4.79" height="2.83"/>
				<rect x="115.66" y="512.41" transform="matrix(0.7071 -0.7071 0.7071 0.7071 -329.7266 233.568)" width="2.83" height="4.79"/>
				<rect x="110.27" y="507.02" transform="matrix(0.7071 -0.7071 0.7071 0.7071 -327.4942 228.1786)" width="2.83" height="4.79"/>
			</g>
			<g>
				<g>
					
						<rect x="105.11" y="492.05" transform="matrix(-0.7071 -0.7071 0.7071 -0.7071 -167.0804 917.7351)" width="2.83" height="2.83"/>
					
						<rect x="103.54" y="494.24" transform="matrix(-0.7071 -0.7071 0.7071 -0.7071 -170.8844 919.3108)" width="2.83" height="1.62"/>
					
						<rect x="106.69" y="494.24" transform="matrix(0.7071 -0.7071 0.7071 0.7071 -318.3878 221.4373)" width="2.83" height="1.62"/>
					<rect x="103.54" y="491.08" transform="matrix(0.7071 -0.7071 0.7071 0.7071 -317.0824 218.286)" width="2.83" height="1.62"/>
					
						<rect x="106.69" y="491.08" transform="matrix(-0.7071 -0.7071 0.7071 -0.7071 -163.2763 916.1594)" width="2.83" height="1.62"/>
				</g>
				<g>
					
						<rect x="98.58" y="498.59" transform="matrix(-0.7071 -0.7071 0.7071 -0.7071 -182.8606 924.2715)" width="2.83" height="2.83"/>
					<rect x="94.9" y="501.28" transform="matrix(0.7071 -0.7071 0.7071 0.7071 -326.9662 216.038)" width="4.79" height="2.83"/>
					<rect x="100.29" y="495.9" transform="matrix(0.7071 -0.7071 0.7071 0.7071 -321.5768 218.2704)" width="4.79" height="2.83"/>
					<rect x="95.88" y="494.92" transform="matrix(0.7071 -0.7071 0.7071 0.7071 -323.1553 214.4595)" width="2.83" height="4.79"/>
					
						<rect x="101.27" y="500.31" transform="matrix(0.7071 -0.7071 0.7071 0.7071 -325.3877 219.8489)" width="2.83" height="4.79"/>
				</g>
				<g>
					
						<rect x="111.65" y="498.59" transform="matrix(-0.7071 -0.7071 0.7071 -0.7071 -160.544 933.5153)" width="2.83" height="2.83"/>
					
						<rect x="107.98" y="501.28" transform="matrix(0.7071 -0.7071 0.7071 0.7071 -323.1373 225.2819)" width="4.79" height="2.83"/>
					<rect x="113.37" y="495.9" transform="matrix(0.7071 -0.7071 0.7071 0.7071 -317.7478 227.5143)" width="4.79" height="2.83"/>
					
						<rect x="108.95" y="494.92" transform="matrix(0.7071 -0.7071 0.7071 0.7071 -319.3264 223.7034)" width="2.83" height="4.79"/>
					
						<rect x="114.34" y="500.31" transform="matrix(0.7071 -0.7071 0.7071 0.7071 -321.5587 229.0928)" width="2.83" height="4.79"/>
				</g>
				<g>
					
						<rect x="98.58" y="485.52" transform="matrix(-0.7071 -0.7071 0.7071 -0.7071 -173.6168 901.9548)" width="2.83" height="2.83"/>
					<rect x="94.9" y="488.21" transform="matrix(0.7071 -0.7071 0.7071 0.7071 -317.7224 212.2091)" width="4.79" height="2.83"/>
					
						<rect x="100.29" y="482.82" transform="matrix(0.7071 -0.7071 0.7071 0.7071 -312.3329 214.4415)" width="4.79" height="2.83"/>
					<rect x="95.88" y="481.85" transform="matrix(0.7071 -0.7071 0.7071 0.7071 -313.9114 210.6306)" width="2.83" height="4.79"/>
					<rect x="101.27" y="487.24" transform="matrix(0.7071 -0.7071 0.7071 0.7071 -316.1438 216.02)" width="2.83" height="4.79"/>
				</g>
				<g>
					
						<rect x="111.65" y="485.52" transform="matrix(-0.7071 -0.7071 0.7071 -0.7071 -151.3001 911.1987)" width="2.83" height="2.83"/>
					
						<rect x="107.98" y="488.21" transform="matrix(0.7071 -0.7071 0.7071 0.7071 -313.8934 221.4529)" width="4.79" height="2.83"/>
					<rect x="113.37" y="482.82" transform="matrix(0.7071 -0.7071 0.7071 0.7071 -308.504 223.6853)" width="4.79" height="2.83"/>
					
						<rect x="108.95" y="481.85" transform="matrix(0.7071 -0.7071 0.7071 0.7071 -310.0825 219.8744)" width="2.83" height="4.79"/>
					
						<rect x="114.34" y="487.24" transform="matrix(0.7071 -0.7071 0.7071 0.7071 -312.3149 225.2639)" width="2.83" height="4.79"/>
				</g>
			</g>
		</g>
		<g>
			<g>
				
					<rect x="187.95" y="508.86" transform="matrix(-0.7071 0.7071 -0.7071 -0.7071 684.0815 737.1951)" width="2.83" height="2.83"/>
				<rect x="190.64" y="510.58" transform="matrix(0.7071 -0.7071 0.7071 0.7071 -306.4724 286.0506)" width="2.83" height="4.79"/>
				<rect x="185.25" y="505.19" transform="matrix(0.7071 -0.7071 0.7071 0.7071 -304.24 280.6611)" width="2.83" height="4.79"/>
				<rect x="184.27" y="511.55" transform="matrix(0.7071 -0.7071 0.7071 0.7071 -308.0509 282.2396)" width="4.79" height="2.83"/>
				<rect x="189.66" y="506.16" transform="matrix(0.7071 -0.7071 0.7071 0.7071 -302.6615 284.472)" width="4.79" height="2.83"/>
			</g>
			<g>
				
					<rect x="163.29" y="510.69" transform="matrix(-0.7071 0.7071 -0.7071 -0.7071 643.2793 757.7539)" width="2.83" height="2.83"/>
				<rect x="165.98" y="512.41" transform="matrix(0.7071 -0.7071 0.7071 0.7071 -314.9881 269.1497)" width="2.83" height="4.79"/>
				<rect x="160.59" y="507.02" transform="matrix(0.7071 -0.7071 0.7071 0.7071 -312.7557 263.7603)" width="2.83" height="4.79"/>
				<rect x="159.62" y="513.38" transform="matrix(0.7071 -0.7071 0.7071 0.7071 -316.5667 265.3388)" width="4.79" height="2.83"/>
				<rect x="165" y="507.99" transform="matrix(0.7071 -0.7071 0.7071 0.7071 -311.1772 267.5712)" width="4.79" height="2.83"/>
			</g>
			<g>
				<rect x="189.77" y="484.2" transform="matrix(0.7071 -0.7071 0.7071 0.7071 -287.384 277.4267)" width="2.83" height="2.83"/>
				<rect x="192.47" y="485.92" transform="matrix(0.7071 -0.7071 0.7071 0.7071 -288.5002 280.1214)" width="2.83" height="4.79"/>
				<rect x="187.08" y="480.53" transform="matrix(0.7071 -0.7071 0.7071 0.7071 -286.2678 274.732)" width="2.83" height="4.79"/>
				<rect x="191.49" y="481.5" transform="matrix(0.7071 -0.7071 0.7071 0.7071 -284.6892 278.5429)" width="4.79" height="2.83"/>
				<rect x="186.1" y="486.89" transform="matrix(0.7071 -0.7071 0.7071 0.7071 -290.0787 276.3105)" width="4.79" height="2.83"/>
			</g>
			<g>
				<g>
					
						<rect x="171.14" y="492.05" transform="matrix(-0.7071 0.7071 -0.7071 -0.7071 643.512 720.3906)" width="2.83" height="2.83"/>
					
						<rect x="172.72" y="494.24" transform="matrix(-0.7071 0.7071 -0.7071 -0.7071 647.316 721.9663)" width="2.83" height="1.62"/>
					
						<rect x="172.72" y="491.08" transform="matrix(-0.7071 -0.7071 0.7071 -0.7071 -50.5574 962.8492)" width="2.83" height="1.62"/>
					
						<rect x="169.57" y="494.24" transform="matrix(-0.7071 -0.7071 0.7071 -0.7071 -58.1654 966.0005)" width="2.83" height="1.62"/>
					
						<rect x="169.57" y="491.08" transform="matrix(-0.7071 0.7071 -0.7071 -0.7071 639.708 718.8149)" width="2.83" height="1.62"/>
				</g>
				<g>
					
						<rect x="177.68" y="498.59" transform="matrix(-0.7071 0.7071 -0.7071 -0.7071 659.2923 726.9271)" width="2.83" height="2.83"/>
					
						<rect x="180.37" y="500.31" transform="matrix(0.7071 -0.7071 0.7071 0.7071 -302.2192 275.7825)" width="2.83" height="4.79"/>
					
						<rect x="174.98" y="494.92" transform="matrix(0.7071 -0.7071 0.7071 0.7071 -299.9868 270.3931)" width="2.83" height="4.79"/>
					
						<rect x="174.01" y="501.28" transform="matrix(0.7071 -0.7071 0.7071 0.7071 -303.7978 271.9716)" width="4.79" height="2.83"/>
					<rect x="179.4" y="495.9" transform="matrix(0.7071 -0.7071 0.7071 0.7071 -298.4083 274.204)" width="4.79" height="2.83"/>
				</g>
				<g>
					
						<rect x="177.68" y="485.52" transform="matrix(-0.7071 0.7071 -0.7071 -0.7071 650.0484 704.6104)" width="2.83" height="2.83"/>
					
						<rect x="180.37" y="487.24" transform="matrix(0.7071 -0.7071 0.7071 0.7071 -292.9754 271.9536)" width="2.83" height="4.79"/>
					<rect x="174.98" y="481.85" transform="matrix(0.7071 -0.7071 0.7071 0.7071 -290.743 266.5641)" width="2.83" height="4.79"/>
					
						<rect x="174.01" y="488.21" transform="matrix(0.7071 -0.7071 0.7071 0.7071 -294.5539 268.1427)" width="4.79" height="2.83"/>
					<rect x="179.4" y="482.82" transform="matrix(0.7071 -0.7071 0.7071 0.7071 -289.1645 270.3751)" width="4.79" height="2.83"/>
				</g>
				<g>
					
						<rect x="164.6" y="498.59" transform="matrix(-0.7071 0.7071 -0.7071 -0.7071 636.9756 736.1709)" width="2.83" height="2.83"/>
					<rect x="167.3" y="500.31" transform="matrix(0.7071 -0.7071 0.7071 0.7071 -306.0482 266.5387)" width="2.83" height="4.79"/>
					
						<rect x="161.91" y="494.92" transform="matrix(0.7071 -0.7071 0.7071 0.7071 -303.8158 261.1492)" width="2.83" height="4.79"/>
					
						<rect x="160.93" y="501.28" transform="matrix(0.7071 -0.7071 0.7071 0.7071 -307.6267 262.7278)" width="4.79" height="2.83"/>
					<rect x="166.32" y="495.9" transform="matrix(0.7071 -0.7071 0.7071 0.7071 -302.2372 264.9601)" width="4.79" height="2.83"/>
				</g>
				<g>
					
						<rect x="164.6" y="485.52" transform="matrix(-0.7071 0.7071 -0.7071 -0.7071 627.7318 713.8542)" width="2.83" height="2.83"/>
					<rect x="167.3" y="487.24" transform="matrix(0.7071 -0.7071 0.7071 0.7071 -296.8043 262.7097)" width="2.83" height="4.79"/>
					
						<rect x="161.91" y="481.85" transform="matrix(0.7071 -0.7071 0.7071 0.7071 -294.5719 257.3203)" width="2.83" height="4.79"/>
					
						<rect x="160.93" y="488.21" transform="matrix(0.7071 -0.7071 0.7071 0.7071 -298.3828 258.8988)" width="4.79" height="2.83"/>
					
						<rect x="166.32" y="482.82" transform="matrix(0.7071 -0.7071 0.7071 0.7071 -292.9934 261.1312)" width="4.79" height="2.83"/>
				</g>
			</g>
		</g>
		<g>
			<g>
				
					<rect x="221.46" y="459.04" transform="matrix(-1.836970e-16 1 -1 -1.836970e-16 683.3384 237.5759)" width="2.83" height="2.83"/>
				<rect x="224.3" y="459.04" width="4.79" height="2.83"/>
				<rect x="216.68" y="459.04" width="4.79" height="2.83"/>
				<rect x="221.46" y="461.87" width="2.83" height="4.79"/>
				<rect x="221.46" y="454.25" width="2.83" height="4.79"/>
			</g>
			<g>
				
					<rect x="205.32" y="477.77" transform="matrix(-1.836970e-16 1 -1 -1.836970e-16 685.925 272.449)" width="2.83" height="2.83"/>
				<rect x="208.16" y="477.77" width="4.79" height="2.83"/>
				<rect x="200.53" y="477.77" width="4.79" height="2.83"/>
				<rect x="205.32" y="480.6" width="2.83" height="4.79"/>
				<rect x="205.32" y="472.98" width="2.83" height="4.79"/>
			</g>
			<g>
				
					<rect x="205.32" y="440.31" transform="matrix(4.620222e-11 -1 1 4.620222e-11 -234.9893 648.4653)" width="2.83" height="2.83"/>
				<rect x="208.16" y="440.31" width="4.79" height="2.83"/>
				<rect x="200.53" y="440.31" width="4.79" height="2.83"/>
				<rect x="205.32" y="435.52" width="2.83" height="4.79"/>
				<rect x="205.32" y="443.14" width="2.83" height="4.79"/>
			</g>
			<g>
				<g>
					
						<rect x="197.7" y="459.04" transform="matrix(-1.836970e-16 1 -1 -1.836970e-16 659.5733 261.3409)" width="2.83" height="2.83"/>
					
						<rect x="199.93" y="459.65" transform="matrix(-1.836970e-16 1 -1 -1.836970e-16 661.8016 259.1126)" width="2.83" height="1.62"/>
					
						<rect x="197.7" y="457.42" transform="matrix(-1 -1.224647e-16 1.224647e-16 -1 398.2324 916.4576)" width="2.83" height="1.62"/>
					
						<rect x="197.7" y="461.87" transform="matrix(-1 -1.224647e-16 1.224647e-16 -1 398.2324 925.371)" width="2.83" height="1.62"/>
					
						<rect x="195.47" y="459.65" transform="matrix(-1.836970e-16 1 -1 -1.836970e-16 657.345 263.5693)" width="2.83" height="1.62"/>
				</g>
				<g>
					
						<rect x="206.94" y="459.04" transform="matrix(-1.836970e-16 1 -1 -1.836970e-16 668.8172 252.0971)" width="2.83" height="2.83"/>
					<rect x="209.78" y="459.04" width="4.79" height="2.83"/>
					<rect x="202.16" y="459.04" width="4.79" height="2.83"/>
					<rect x="206.94" y="461.87" width="2.83" height="4.79"/>
					<rect x="206.94" y="454.25" width="2.83" height="4.79"/>
				</g>
				<g>
					
						<rect x="197.7" y="449.8" transform="matrix(-1.836970e-16 1 -1 -1.836970e-16 650.3295 252.0971)" width="2.83" height="2.83"/>
					<rect x="200.53" y="449.8" width="4.79" height="2.83"/>
					<rect x="192.91" y="449.8" width="4.79" height="2.83"/>
					<rect x="197.7" y="452.63" width="2.83" height="4.79"/>
					<rect x="197.7" y="445.01" width="2.83" height="4.79"/>
				</g>
				<g>
					
						<rect x="197.7" y="468.28" transform="matrix(-1.836970e-16 1 -1 -1.836970e-16 668.8172 270.5848)" width="2.83" height="2.83"/>
					<rect x="200.53" y="468.28" width="4.79" height="2.83"/>
					<rect x="192.91" y="468.28" width="4.79" height="2.83"/>
					<rect x="197.7" y="471.12" width="2.83" height="4.79"/>
					<rect x="197.7" y="463.5" width="2.83" height="4.79"/>
				</g>
				<g>
					
						<rect x="188.45" y="459.04" transform="matrix(-1.836970e-16 1 -1 -1.836970e-16 650.3295 270.5848)" width="2.83" height="2.83"/>
					<rect x="191.29" y="459.04" width="4.79" height="2.83"/>
					<rect x="183.67" y="459.04" width="4.79" height="2.83"/>
					<rect x="188.45" y="461.87" width="2.83" height="4.79"/>
					<rect x="188.45" y="454.25" width="2.83" height="4.79"/>
				</g>
			</g>
		</g>
		<g>
			<g>
				<rect x="138.13" y="375.7" width="2.83" height="2.83"/>
				<rect x="138.13" y="370.91" width="2.83" height="4.79"/>
				<rect x="138.13" y="378.54" width="2.83" height="4.79"/>
				<rect x="140.96" y="375.7" width="4.79" height="2.83"/>
				<rect x="133.34" y="375.7" width="4.79" height="2.83"/>
			</g>
			<g>
				<rect x="156.86" y="391.84" width="2.83" height="2.83"/>
				<rect x="156.86" y="387.06" width="2.83" height="4.79"/>
				<rect x="156.86" y="394.68" width="2.83" height="4.79"/>
				<rect x="159.69" y="391.84" width="4.79" height="2.83"/>
				<rect x="152.07" y="391.84" width="4.79" height="2.83"/>
			</g>
			<g>
				
					<rect x="119.4" y="391.84" transform="matrix(-1 -8.470437e-11 8.470437e-11 -1 241.6261 786.524)" width="2.83" height="2.83"/>
				<rect x="119.4" y="387.06" width="2.83" height="4.79"/>
				<rect x="119.4" y="394.68" width="2.83" height="4.79"/>
				<rect x="114.61" y="391.84" width="4.79" height="2.83"/>
				<rect x="122.23" y="391.84" width="4.79" height="2.83"/>
			</g>
			<g>
				<g>
					<rect x="138.13" y="399.47" width="2.83" height="2.83"/>
					<rect x="138.13" y="397.84" width="2.83" height="1.62"/>
					
						<rect x="135.9" y="400.07" transform="matrix(-4.588170e-11 1 -1 -4.588170e-11 538.1984 263.5693)" width="2.83" height="1.62"/>
					
						<rect x="140.35" y="400.07" transform="matrix(-4.588170e-11 1 -1 -4.588170e-11 542.655 259.1126)" width="2.83" height="1.62"/>
					<rect x="138.13" y="402.3" width="2.83" height="1.62"/>
				</g>
				<g>
					<rect x="138.13" y="390.22" width="2.83" height="2.83"/>
					<rect x="138.13" y="385.44" width="2.83" height="4.79"/>
					<rect x="138.13" y="393.06" width="2.83" height="4.79"/>
					<rect x="140.96" y="390.22" width="4.79" height="2.83"/>
					<rect x="133.34" y="390.22" width="4.79" height="2.83"/>
				</g>
				<g>
					<rect x="128.88" y="399.47" width="2.83" height="2.83"/>
					<rect x="128.88" y="394.68" width="2.83" height="4.79"/>
					<rect x="128.88" y="402.3" width="2.83" height="4.79"/>
					<rect x="131.72" y="399.47" width="4.79" height="2.83"/>
					<rect x="124.09" y="399.47" width="4.79" height="2.83"/>
				</g>
				<g>
					<rect x="147.37" y="399.47" width="2.83" height="2.83"/>
					<rect x="147.37" y="394.68" width="2.83" height="4.79"/>
					<rect x="147.37" y="402.3" width="2.83" height="4.79"/>
					<rect x="150.2" y="399.47" width="4.79" height="2.83"/>
					<rect x="142.58" y="399.47" width="4.79" height="2.83"/>
				</g>
				<g>
					<rect x="138.13" y="408.71" width="2.83" height="2.83"/>
					<rect x="138.13" y="403.92" width="2.83" height="4.79"/>
					<rect x="138.13" y="411.55" width="2.83" height="4.79"/>
					<rect x="140.96" y="408.71" width="4.79" height="2.83"/>
					<rect x="133.34" y="408.71" width="4.79" height="2.83"/>
				</g>
			</g>
		</g>
		<g>
			<g>
				
					<rect x="54.79" y="459.04" transform="matrix(8.855500e-11 -1 1 8.855500e-11 -404.2526 516.6616)" width="2.83" height="2.83"/>
				<rect x="50" y="459.04" width="4.79" height="2.83"/>
				<rect x="57.62" y="459.04" width="4.79" height="2.83"/>
				<rect x="54.79" y="454.25" width="2.83" height="4.79"/>
				<rect x="54.79" y="461.87" width="2.83" height="4.79"/>
			</g>
			<g>
				<rect x="70.93" y="440.31" transform="matrix(8.823348e-11 -1 1 8.823348e-11 -369.3795 514.075)" width="2.83" height="2.83"/>
				<rect x="66.14" y="440.31" width="4.79" height="2.83"/>
				<rect x="73.77" y="440.31" width="4.79" height="2.83"/>
				<rect x="70.93" y="435.52" width="2.83" height="4.79"/>
				<rect x="70.93" y="443.14" width="2.83" height="4.79"/>
			</g>
			<g>
				
					<rect x="70.93" y="477.77" transform="matrix(-1.341151e-10 1 -1 -1.341151e-10 551.5347 406.8392)" width="2.83" height="2.83"/>
				<rect x="66.14" y="477.77" width="4.79" height="2.83"/>
				<rect x="73.77" y="477.77" width="4.79" height="2.83"/>
				<rect x="70.93" y="480.6" width="2.83" height="4.79"/>
				<rect x="70.93" y="472.98" width="2.83" height="4.79"/>
			</g>
			<g>
				<g>
					
						<rect x="78.55" y="459.04" transform="matrix(8.791285e-11 -1 1 8.791285e-11 -380.4876 540.4267)" width="2.83" height="2.83"/>
					
						<rect x="76.32" y="459.65" transform="matrix(8.823348e-11 -1 1 8.823348e-11 -382.7159 538.1984)" width="2.83" height="1.62"/>
					<rect x="78.55" y="461.87" width="2.83" height="1.62"/>
					<rect x="78.55" y="457.42" width="2.83" height="1.62"/>
					
						<rect x="80.78" y="459.65" transform="matrix(8.791285e-11 -1 1 8.791285e-11 -378.2592 542.655)" width="2.83" height="1.62"/>
				</g>
				<g>
					
						<rect x="69.31" y="459.04" transform="matrix(9.176310e-11 -1 1 9.176310e-11 -389.7314 531.1828)" width="2.83" height="2.83"/>
					<rect x="64.52" y="459.04" width="4.79" height="2.83"/>
					<rect x="72.14" y="459.04" width="4.79" height="2.83"/>
					<rect x="69.31" y="454.25" width="2.83" height="4.79"/>
					<rect x="69.31" y="461.87" width="2.83" height="4.79"/>
				</g>
				<g>
					
						<rect x="78.55" y="468.28" transform="matrix(8.823348e-11 -1 1 8.823348e-11 -389.7314 549.6705)" width="2.83" height="2.83"/>
					<rect x="73.77" y="468.28" width="4.79" height="2.83"/>
					<rect x="81.39" y="468.28" width="4.79" height="2.83"/>
					<rect x="78.55" y="463.5" width="2.83" height="4.79"/>
					<rect x="78.55" y="471.12" width="2.83" height="4.79"/>
				</g>
				<g>
					
						<rect x="78.55" y="449.8" transform="matrix(8.823348e-11 -1 1 8.823348e-11 -371.2437 531.1828)" width="2.83" height="2.83"/>
					<rect x="73.77" y="449.8" width="4.79" height="2.83"/>
					<rect x="81.39" y="449.8" width="4.79" height="2.83"/>
					<rect x="78.55" y="445.01" width="2.83" height="4.79"/>
					<rect x="78.55" y="452.63" width="2.83" height="4.79"/>
				</g>
				<g>
					
						<rect x="87.8" y="459.04" transform="matrix(8.791285e-11 -1 1 8.791285e-11 -371.2437 549.6705)" width="2.83" height="2.83"/>
					<rect x="83.01" y="459.04" width="4.79" height="2.83"/>
					<rect x="90.63" y="459.04" width="4.79" height="2.83"/>
					<rect x="87.8" y="454.25" width="2.83" height="4.79"/>
					<rect x="87.8" y="461.87" width="2.83" height="4.79"/>
				</g>
			</g>
		</g>
		<g>
			<g>
				
					<rect x="138.13" y="542.38" transform="matrix(-1 -1.373236e-10 1.373236e-10 -1 279.0857 1087.5909)" width="2.83" height="2.83"/>
				<rect x="138.13" y="545.21" width="2.83" height="4.79"/>
				<rect x="138.13" y="537.59" width="2.83" height="4.79"/>
				<rect x="133.34" y="542.38" width="4.79" height="2.83"/>
				<rect x="140.96" y="542.38" width="4.79" height="2.83"/>
			</g>
			<g>
				
					<rect x="119.4" y="526.23" transform="matrix(-1 -1.347568e-10 1.347568e-10 -1 241.6261 1055.3046)" width="2.83" height="2.83"/>
				<rect x="119.4" y="529.07" width="2.83" height="4.79"/>
				<rect x="119.4" y="521.45" width="2.83" height="4.79"/>
				<rect x="114.61" y="526.23" width="4.79" height="2.83"/>
				<rect x="122.23" y="526.23" width="4.79" height="2.83"/>
			</g>
			<g>
				<rect x="156.86" y="526.23" width="2.83" height="2.83"/>
				<rect x="156.86" y="529.07" width="2.83" height="4.79"/>
				<rect x="156.86" y="521.45" width="2.83" height="4.79"/>
				<rect x="159.69" y="526.23" width="4.79" height="2.83"/>
				<rect x="152.07" y="526.23" width="4.79" height="2.83"/>
			</g>
			<g>
				<g>
					
						<rect x="138.13" y="518.61" transform="matrix(-1 -1.373236e-10 1.373236e-10 -1 279.0857 1040.0609)" width="2.83" height="2.83"/>
					
						<rect x="138.13" y="521.45" transform="matrix(-1 -1.373236e-10 1.373236e-10 -1 279.0857 1044.5176)" width="2.83" height="1.62"/>
					
						<rect x="140.35" y="519.22" transform="matrix(1.341150e-10 -1 1 1.341150e-10 -378.2592 661.8016)" width="2.83" height="1.62"/>
					
						<rect x="135.9" y="519.22" transform="matrix(1.341150e-10 -1 1 1.341150e-10 -382.7159 657.345)" width="2.83" height="1.62"/>
					
						<rect x="138.13" y="516.99" transform="matrix(-1 -1.341151e-10 1.341151e-10 -1 279.0857 1035.6042)" width="2.83" height="1.62"/>
				</g>
				<g>
					
						<rect x="138.13" y="527.86" transform="matrix(-1 -1.309065e-10 1.309065e-10 -1 279.0857 1058.5486)" width="2.83" height="2.83"/>
					<rect x="138.13" y="530.69" width="2.83" height="4.79"/>
					<rect x="138.13" y="523.07" width="2.83" height="4.79"/>
					<rect x="133.34" y="527.86" width="4.79" height="2.83"/>
					<rect x="140.96" y="527.86" width="4.79" height="2.83"/>
				</g>
				<g>
					
						<rect x="147.37" y="518.61" transform="matrix(-1 -1.309065e-10 1.309065e-10 -1 297.5735 1040.0609)" width="2.83" height="2.83"/>
					<rect x="147.37" y="521.45" width="2.83" height="4.79"/>
					<rect x="147.37" y="513.83" width="2.83" height="4.79"/>
					<rect x="142.58" y="518.61" width="4.79" height="2.83"/>
					<rect x="150.2" y="518.61" width="4.79" height="2.83"/>
				</g>
				<g>
					
						<rect x="128.88" y="518.61" transform="matrix(-1 -1.334734e-10 1.334734e-10 -1 260.598 1040.0609)" width="2.83" height="2.83"/>
					<rect x="128.88" y="521.45" width="2.83" height="4.79"/>
					<rect x="128.88" y="513.83" width="2.83" height="4.79"/>
					<rect x="124.09" y="518.61" width="4.79" height="2.83"/>
					<rect x="131.72" y="518.61" width="4.79" height="2.83"/>
				</g>
				<g>
					
						<rect x="138.13" y="509.37" transform="matrix(-1 -1.347568e-10 1.347568e-10 -1 279.0857 1021.5731)" width="2.83" height="2.83"/>
					<rect x="138.13" y="512.2" width="2.83" height="4.79"/>
					<rect x="138.13" y="504.58" width="2.83" height="4.79"/>
					<rect x="133.34" y="509.37" width="4.79" height="2.83"/>
					<rect x="140.96" y="509.37" width="4.79" height="2.83"/>
				</g>
			</g>
		</g>
	</g>
</g>
<g>
</g>
<g>
</g>
<g>
</g>
<g>
</g>
<g>
</g>
<g>
</g>
<g>
</g>
<g>
</g>
<g>
</g>
<g>
</g>
<g>
</g>
<g>
</g>
<g>
</g>
<g>
</g>
<g>
</g>
</svg>
