<?xml version="1.0" encoding="utf-8"?>
<!-- Generator: Adobe Illustrator 27.2.0, SVG Export Plug-In . SVG Version: 6.00 Build 0)  -->
<svg version="1.1" id="Layer_1" xmlns="http://www.w3.org/2000/svg" xmlns:xlink="http://www.w3.org/1999/xlink" x="0px" y="0px"
	 viewBox="0 0 800 600" style="enable-background:new 0 0 800 600;" xml:space="preserve">
<g>
	<g>
		<circle cx="246.28" cy="272.25" r="8.23"/>
		<g>
			
				<rect x="239.59" y="207.04" transform="matrix(0.7071 -0.7071 0.7071 0.7071 -78.9948 236.7422)" style="fill:none;stroke:#000000;stroke-width:3;stroke-miterlimit:10;" width="13.38" height="13.38"/>
			<line style="fill:none;stroke:#000000;stroke-width:3;stroke-miterlimit:10;" x1="246.28" y1="222.41" x2="246.28" y2="261.96"/>
			<polygon style="fill:none;stroke:#000000;stroke-width:3;stroke-miterlimit:10;" points="246.35,236.77 246.53,248.96 
				260.96,234.53 260.96,222.16 			"/>
			<polygon style="fill:none;stroke:#000000;stroke-width:3;stroke-miterlimit:10;" points="246.2,236.77 246.02,248.96 
				231.59,234.53 231.59,222.16 			"/>
		</g>
		<g>
			
				<rect x="181.06" y="265.56" transform="matrix(-0.7071 -0.7071 0.7071 -0.7071 128.0062 597.5191)" style="fill:none;stroke:#000000;stroke-width:3;stroke-miterlimit:10;" width="13.38" height="13.38"/>
			<line style="fill:none;stroke:#000000;stroke-width:3;stroke-miterlimit:10;" x1="196.44" y1="272.25" x2="235.98" y2="272.25"/>
			<polygon style="fill:none;stroke:#000000;stroke-width:3;stroke-miterlimit:10;" points="210.79,272.17 222.98,271.99 
				208.55,257.56 196.18,257.56 			"/>
			<polygon style="fill:none;stroke:#000000;stroke-width:3;stroke-miterlimit:10;" points="210.79,272.33 222.98,272.51 
				208.55,286.94 196.18,286.94 			"/>
		</g>
		<g>
			
				<rect x="298.11" y="265.56" transform="matrix(0.7071 0.7071 -0.7071 0.7071 281.7821 -135.7849)" style="fill:none;stroke:#000000;stroke-width:3;stroke-miterlimit:10;" width="13.38" height="13.38"/>
			<line style="fill:none;stroke:#000000;stroke-width:3;stroke-miterlimit:10;" x1="296.11" y1="272.25" x2="256.57" y2="272.25"/>
			<polygon style="fill:none;stroke:#000000;stroke-width:3;stroke-miterlimit:10;" points="281.76,272.33 269.57,272.51 
				284,286.94 296.37,286.94 			"/>
			<polygon style="fill:none;stroke:#000000;stroke-width:3;stroke-miterlimit:10;" points="281.76,272.17 269.57,271.99 
				284,257.56 296.37,257.56 			"/>
		</g>
		<g>
			<g>
				
					<rect x="286.14" y="219" transform="matrix(-9.041763e-11 1 -1 -9.041763e-11 518.5243 -67.1437)" style="fill:none;stroke:#000000;stroke-width:3;stroke-miterlimit:10;" width="13.38" height="13.38"/>
				
					<line style="fill:none;stroke:#000000;stroke-width:3;stroke-miterlimit:10;" x1="278.49" y1="240.04" x2="285.84" y2="232.68"/>
			</g>
			<g>
				<path style="fill:none;stroke:#000000;stroke-width:3;stroke-miterlimit:10;" d="M252.57,272.27
					c19.87-6.69,37.84-19.48,25.5-31.82"/>
				<path style="fill:none;stroke:#000000;stroke-width:3;stroke-miterlimit:10;" d="M246.25,265.96
					c6.69-19.87,19.48-37.84,31.82-25.5"/>
			</g>
		</g>
		<g>
			<g>
				
					<rect x="193.03" y="219" style="fill:none;stroke:#000000;stroke-width:3;stroke-miterlimit:10;" width="13.38" height="13.38"/>
				
					<line style="fill:none;stroke:#000000;stroke-width:3;stroke-miterlimit:10;" x1="214.06" y1="240.04" x2="206.71" y2="232.68"/>
			</g>
			<g>
				<path style="fill:none;stroke:#000000;stroke-width:3;stroke-miterlimit:10;" d="M246.3,265.96
					c-6.69-19.87-19.48-37.84-31.82-25.5"/>
				<path style="fill:none;stroke:#000000;stroke-width:3;stroke-miterlimit:10;" d="M239.99,272.27
					c-19.87-6.69-37.84-19.48-25.5-31.82"/>
			</g>
		</g>
	</g>
	<g>
		
			<rect x="94.55" y="214.46" transform="matrix(-0.7071 0.7071 -0.7071 -0.7071 345.0307 312.5014)" style="fill:none;stroke:#000000;stroke-width:3;stroke-miterlimit:10;" width="26.49" height="26.49"/>
		
			<rect x="85.83" y="205.74" transform="matrix(-0.7071 0.7071 -0.7071 -0.7071 345.0307 312.5014)" style="fill:none;stroke:#000000;stroke-width:3;stroke-miterlimit:10;" width="43.93" height="43.93"/>
		
			<rect x="76.99" y="196.9" transform="matrix(-0.7071 0.7071 -0.7071 -0.7071 345.0307 312.5014)" style="fill:none;stroke:#000000;stroke-width:3;stroke-miterlimit:10;" width="61.61" height="61.61"/>
		<g>
			
				<rect x="146.04" y="173.92" transform="matrix(-1.836970e-16 1 -1 -1.836970e-16 335.5031 27.8833)" style="fill:none;stroke:#000000;stroke-width:3;stroke-miterlimit:10;" width="15.54" height="15.54"/>
			<polygon style="fill:none;stroke:#000000;stroke-width:3;stroke-miterlimit:10;" points="148.83,194.69 133.71,209.82 
				148.83,224.94 			"/>
			<polygon style="fill:none;stroke:#000000;stroke-width:3;stroke-miterlimit:10;" points="140.81,186.67 125.69,201.79 
				110.56,186.67 			"/>
		</g>
		<g>
			
				<rect x="54.01" y="173.92" style="fill:none;stroke:#000000;stroke-width:3;stroke-miterlimit:10;" width="15.54" height="15.54"/>
			<polygon style="fill:none;stroke:#000000;stroke-width:3;stroke-miterlimit:10;" points="74.78,186.67 89.9,201.79 
				105.03,186.67 			"/>
			<polygon style="fill:none;stroke:#000000;stroke-width:3;stroke-miterlimit:10;" points="66.75,194.69 81.88,209.82 
				66.75,224.94 			"/>
		</g>
		<g>
			
				<rect x="54.01" y="265.95" transform="matrix(8.877971e-11 -1 1 8.877971e-11 -211.9461 335.5031)" style="fill:none;stroke:#000000;stroke-width:3;stroke-miterlimit:10;" width="15.54" height="15.54"/>
			<polygon style="fill:none;stroke:#000000;stroke-width:3;stroke-miterlimit:10;" points="66.75,260.72 81.88,245.6 66.75,230.48 
							"/>
			<polygon style="fill:none;stroke:#000000;stroke-width:3;stroke-miterlimit:10;" points="74.78,268.75 89.9,253.63 
				105.03,268.75 			"/>
		</g>
		<g>
			
				<rect x="146.04" y="265.95" transform="matrix(-1 -1.344863e-10 1.344863e-10 -1 307.6198 547.4492)" style="fill:none;stroke:#000000;stroke-width:3;stroke-miterlimit:10;" width="15.54" height="15.54"/>
			<polygon style="fill:none;stroke:#000000;stroke-width:3;stroke-miterlimit:10;" points="140.81,268.75 125.69,253.63 
				110.56,268.75 			"/>
			<polygon style="fill:none;stroke:#000000;stroke-width:3;stroke-miterlimit:10;" points="148.83,260.72 133.71,245.6 
				148.83,230.48 			"/>
		</g>
		<polygon points="165.59,216.21 154.09,227.71 165.59,239.21 		"/>
		<polygon points="96.29,169.91 107.79,181.41 119.29,169.91 		"/>
		<polygon points="50,239.21 61.5,227.71 50,216.21 		"/>
		<polygon points="119.29,285.5 107.79,274 96.29,285.5 		"/>
	</g>
	<g>
		<g>
			<g>
				<g>
					<circle cx="197.75" cy="418.09" r="8.12"/>
				</g>
				<g>
					<g>
						<path d="M197.75,371.84l-11.45-11.45l11.45-11.45l11.45,11.45L197.75,371.84z M190.55,360.39l7.21,7.21l7.21-7.21l-7.21-7.21
							L190.55,360.39z"/>
					</g>
					<g>
						<rect x="196.25" y="368.96" width="3" height="38.99"/>
					</g>
					<g>
						<path d="M196.56,398.7l-0.24-16.2l17.41-17.41v16.44L196.56,398.7z M199.34,383.72l0.12,7.84l11.28-11.28v-7.96L199.34,383.72
							z"/>
					</g>
					<g>
						<path d="M198.95,398.7l-17.17-17.17v-16.44l17.41,17.41L198.95,398.7z M184.77,380.28l11.28,11.28l0.12-7.84l-11.4-11.4
							V380.28z"/>
					</g>
				</g>
				<g>
					<g>
						<path d="M140.05,429.54l-11.45-11.45l11.45-11.45l11.45,11.45L140.05,429.54z M132.84,418.09l7.21,7.21l7.21-7.21l-7.21-7.21
							L132.84,418.09z"/>
					</g>
					<g>
						<rect x="148.62" y="416.59" width="38.99" height="3"/>
					</g>
					<g>
						<path d="M162.16,419.53l-17.41-17.41h16.44l17.17,17.17L162.16,419.53z M151.98,405.11l11.4,11.4l7.84-0.12l-11.28-11.28
							H151.98z"/>
					</g>
					<g>
						<path d="M161.18,434.08h-16.44l17.41-17.41l16.2,0.24L161.18,434.08z M151.98,431.08h7.96l11.28-11.28l-7.84-0.12
							L151.98,431.08z"/>
					</g>
				</g>
				<g>
					<g>
						<path d="M197.75,487.25L186.3,475.8l11.45-11.45l11.45,11.45L197.75,487.25z M190.55,475.8l7.21,7.21l7.21-7.21l-7.21-7.21
							L190.55,475.8z"/>
					</g>
					<g>
						<rect x="196.25" y="428.24" width="3" height="38.99"/>
					</g>
					<g>
						<path d="M181.77,471.11v-16.44l17.17-17.17l0.24,16.2L181.77,471.11z M184.77,455.91v7.96l11.4-11.4l-0.12-7.84L184.77,455.91
							z"/>
					</g>
					<g>
						<path d="M213.73,471.11l-17.41-17.41l0.24-16.2l17.17,17.17V471.11z M199.34,452.47l11.4,11.4v-7.96l-11.28-11.28
							L199.34,452.47z"/>
					</g>
				</g>
				<g>
					<g>
						<path d="M255.46,429.54l-11.45-11.45l11.45-11.45l11.45,11.45L255.46,429.54z M248.25,418.09l7.21,7.21l7.21-7.21l-7.21-7.21
							L248.25,418.09z"/>
					</g>
					<g>
						<rect x="207.9" y="416.59" width="38.99" height="3"/>
					</g>
					<g>
						<path d="M250.76,434.08h-16.44l-17.17-17.17l16.2-0.24L250.76,434.08z M235.57,431.08h7.96l-11.4-11.4l-7.84,0.12
							L235.57,431.08z"/>
					</g>
					<g>
						<path d="M233.35,419.53l-16.2-0.24l17.17-17.17h16.44L233.35,419.53z M224.29,416.39l7.84,0.12l11.4-11.4h-7.96L224.29,416.39
							z"/>
					</g>
				</g>
				<g>
					<g>
						<g>
							<path d="M251.75,380.28h-16.19v-16.19h16.19V380.28z M238.56,377.28h10.19v-10.19h-10.19V377.28z"/>
						</g>
						<g>
							<rect x="228.01" y="381.21" transform="matrix(0.7071 -0.7071 0.7071 0.7071 -202.3307 276.947)" width="10.25" height="3"/>
						</g>
					</g>
					<g>
						<g>
							<path d="M204.43,419.54l-0.96-2.84c15.58-5.25,26.27-12.82,27.9-19.78c0.74-3.15-0.35-6.13-3.33-9.11l2.12-2.12
								c3.72,3.72,5.11,7.73,4.13,11.92C231.49,409.57,210.73,417.42,204.43,419.54z"/>
						</g>
						<g>
							<path d="M199.15,412.37l-2.84-0.96c2.12-6.3,9.97-27.06,21.93-29.86c4.19-0.98,8.2,0.41,11.92,4.13l-2.12,2.12
								c-2.98-2.98-5.96-4.07-9.11-3.33C211.98,386.1,204.4,396.79,199.15,412.37z"/>
						</g>
					</g>
				</g>
				<g>
					<g>
						<g>
							<path d="M159.94,380.28h-16.19v-16.19h16.19V380.28z M146.75,377.28h10.19v-10.19h-10.19V377.28z"/>
						</g>
						<g>
							
								<rect x="160.87" y="377.58" transform="matrix(0.7071 -0.7071 0.7071 0.7071 -223.0647 226.9163)" width="3" height="10.25"/>
						</g>
					</g>
					<g>
						<g>
							<path d="M196.35,412.37c-5.25-15.58-12.82-26.27-19.78-27.9c-3.15-0.74-6.13,0.35-9.11,3.33l-2.12-2.12
								c3.72-3.72,7.74-5.11,11.92-4.13c11.96,2.8,19.81,23.56,21.93,29.86L196.35,412.37z"/>
						</g>
						<g>
							<path d="M191.07,419.54c-6.3-2.12-27.06-9.97-29.86-21.93c-0.98-4.19,0.41-8.2,4.13-11.92l2.12,2.12
								c-2.98,2.98-4.07,5.96-3.33,9.11c1.63,6.95,12.32,14.53,27.9,19.78L191.07,419.54z"/>
						</g>
					</g>
				</g>
				<g>
					<g>
						<g>
							<path d="M159.94,472.1h-16.19v-16.19h16.19V472.1z M146.75,469.1h10.19v-10.19h-10.19V469.1z"/>
						</g>
						<g>
							
								<rect x="157.24" y="451.98" transform="matrix(0.7071 -0.7071 0.7071 0.7071 -273.1033 247.6322)" width="10.25" height="3"/>
						</g>
					</g>
					<g>
						<g>
							<path d="M165.34,450.5c-3.72-3.72-5.11-7.73-4.13-11.92c2.8-11.96,23.56-19.81,29.86-21.93l0.96,2.84
								c-15.58,5.25-26.27,12.82-27.9,19.78c-0.74,3.15,0.35,6.13,3.33,9.11L165.34,450.5z"/>
						</g>
						<g>
							<path d="M174.68,454.94c-3.26,0-6.39-1.49-9.34-4.44l2.12-2.12c2.98,2.98,5.96,4.07,9.11,3.33
								c6.95-1.63,14.53-12.32,19.78-27.9l2.84,0.96c-2.12,6.3-9.97,27.06-21.93,29.86C176.39,454.84,175.53,454.94,174.68,454.94z"
								/>
						</g>
					</g>
				</g>
				<g>
					<g>
						<g>
							<path d="M251.75,472.1h-16.19v-16.19h16.19V472.1z M238.56,469.1h10.19v-10.19h-10.19V469.1z"/>
						</g>
						<g>
							
								<rect x="231.64" y="448.36" transform="matrix(0.7071 -0.7071 0.7071 0.7071 -252.3745 297.6759)" width="3" height="10.25"/>
						</g>
					</g>
					<g>
						<g>
							<path d="M220.82,454.94c-0.85,0-1.71-0.1-2.58-0.3c-11.96-2.8-19.81-23.56-21.93-29.86l2.84-0.96
								c5.25,15.58,12.82,26.27,19.78,27.9c3.15,0.74,6.13-0.35,9.11-3.33l2.12,2.12C227.21,453.46,224.08,454.94,220.82,454.94z"/>
						</g>
						<g>
							<path d="M230.16,450.5l-2.12-2.12c2.98-2.98,4.07-5.96,3.33-9.11c-1.63-6.95-12.32-14.53-27.9-19.78l0.96-2.84
								c6.3,2.12,27.06,9.97,29.86,21.93C235.28,442.77,233.88,446.78,230.16,450.5z"/>
						</g>
					</g>
				</g>
			</g>
			<g>
				<g>
					<path d="M273.83,539.88h-45.96v-45.96h45.96V539.88z M230.87,536.88h39.96v-39.96h-39.96V536.88z"/>
				</g>
				<g>
					<g>
						<path d="M266.09,532.14h-30.48v-30.48h30.48V532.14z M238.61,529.14h24.48v-24.48h-24.48V529.14z"/>
					</g>
					<g>
						<circle cx="250.85" cy="516.9" r="5.52"/>
					</g>
				</g>
			</g>
			<g>
				<g>
					<path d="M220.73,539.88h-45.96v-45.96h45.96V539.88z M177.77,536.88h39.96v-39.96h-39.96V536.88z"/>
				</g>
				<g>
					<g>
						<path d="M212.99,532.14h-30.48v-30.48h30.48V532.14z M185.51,529.14h24.48v-24.48h-24.48V529.14z"/>
					</g>
					<g>
						<circle cx="197.75" cy="516.9" r="5.52"/>
					</g>
				</g>
			</g>
			<g>
				<g>
					<path d="M167.63,539.88h-45.96v-45.96h45.96V539.88z M124.68,536.88h39.96v-39.96h-39.96V536.88z"/>
				</g>
				<g>
					<g>
						<path d="M159.9,532.14h-30.48v-30.48h30.48V532.14z M132.42,529.14h24.48v-24.48h-24.48V529.14z"/>
					</g>
					<g>
						<circle cx="144.66" cy="516.9" r="5.52"/>
					</g>
				</g>
			</g>
			<g>
				<g>
					<path d="M273.83,342.27h-45.96v-45.96h45.96V342.27z M230.87,339.27h39.96v-39.96h-39.96V339.27z"/>
				</g>
				<g>
					<g>
						<path d="M266.09,334.53h-30.48v-30.48h30.48V334.53z M238.61,331.53h24.48v-24.48h-24.48V331.53z"/>
					</g>
					<g>
						<circle cx="250.85" cy="319.29" r="5.52"/>
					</g>
				</g>
			</g>
			<g>
				<g>
					<path d="M220.73,342.27h-45.96v-45.96h45.96V342.27z M177.77,339.27h39.96v-39.96h-39.96V339.27z"/>
				</g>
				<g>
					<g>
						<path d="M212.99,334.53h-30.48v-30.48h30.48V334.53z M185.51,331.53h24.48v-24.48h-24.48V331.53z"/>
					</g>
					<g>
						<circle cx="197.75" cy="319.29" r="5.52"/>
					</g>
				</g>
			</g>
			<g>
				<g>
					<path d="M167.63,342.27h-45.96v-45.96h45.96V342.27z M124.68,339.27h39.96v-39.96h-39.96V339.27z"/>
				</g>
				<g>
					<g>
						<path d="M159.9,334.53h-30.48v-30.48h30.48V334.53z M132.42,331.53h24.48v-24.48h-24.48V331.53z"/>
					</g>
					<g>
						<circle cx="144.66" cy="319.29" r="5.52"/>
					</g>
				</g>
			</g>
			<g>
				<g>
					<path d="M342.36,460.63l3.15,3.15v-4.24l-41.44-41.44l41.44-41.44v-4.24l-3.15,3.15h-33.49l16.74,16.74l-5.9,5.9l-16.74-16.74
						v33.49l-3.15,3.15l3.15,3.15v33.49l16.74-16.74l5.9,5.9l-16.74,16.74H342.36z M316.11,378.56h23l-11.5,11.5L316.11,378.56z
						 M305.97,388.7l11.5,11.5l-11.5,11.5V388.7z M305.97,447.49v-23l11.5,11.5L305.97,447.49z M327.61,446.13l11.5,11.5h-23
						L327.61,446.13z"/>
				</g>
				<g>
					<path d="M309.66,334.26c4.54,0,8.24-3.69,8.24-8.24c0-4.54-3.69-8.24-8.24-8.24c-4.54,0-8.24,3.69-8.24,8.24
						C301.42,330.56,305.12,334.26,309.66,334.26z M309.66,320.79c2.89,0,5.24,2.35,5.24,5.24c0,2.89-2.35,5.24-5.24,5.24
						c-2.89,0-5.24-2.35-5.24-5.24C304.42,323.14,306.77,320.79,309.66,320.79z"/>
				</g>
				<g>
					<path d="M309.66,518.4c4.54,0,8.24-3.69,8.24-8.24s-3.69-8.24-8.24-8.24c-4.54,0-8.24,3.69-8.24,8.24
						S305.12,518.4,309.66,518.4z M309.66,504.93c2.89,0,5.24,2.35,5.24,5.24s-2.35,5.24-5.24,5.24c-2.89,0-5.24-2.35-5.24-5.24
						S306.77,504.93,309.66,504.93z"/>
				</g>
				<g>
					<path d="M279.24,540.59h60.7v-3h-57.7v-54.85h54.85v47.96h-47.96v-41.07h41.07v33.78h-4.29v-29.49h-32.49v32.49h39.78v-39.78
						h-47.07v47.07h53.96v-53.96h-60.85V540.59z M322.9,523.41h-26.49v-26.49h26.49V523.41z"/>
				</g>
				<g>
					<polygon points="287.71,429.59 299.21,418.09 287.71,406.59 					"/>
				</g>
				<g>
					<polygon points="345.51,371.8 345.51,360.3 334.01,360.3 					"/>
				</g>
				<g>
					<polygon points="345.51,451.28 345.51,447.04 316.56,418.09 345.51,389.15 345.51,384.91 312.32,418.09 					"/>
				</g>
				<g>
					<polygon points="345.51,464.39 334.01,475.89 345.51,475.89 					"/>
				</g>
				<g>
					<path d="M340.08,302.49h-53.96v47.07h47.07v-39.78h-39.78v32.49h32.49v-29.49h4.29v33.78h-41.07v-41.07h47.96v47.96h-54.85
						V298.6h57.7v-3h-60.7v60.85h60.85V302.49z M322.9,339.27h-26.49v-26.49h26.49V339.27z"/>
				</g>
				<g>
					<path d="M308.76,362.81h-18.54v18.54h18.54V362.81z M305.76,378.35h-12.54v-12.54h12.54V378.35z"/>
				</g>
				<g>
					<path d="M308.76,454.84h-18.54v18.54h18.54V454.84z M305.76,470.38h-12.54v-12.54h12.54V470.38z"/>
				</g>
				<g>
					<polygon points="345.51,438.95 345.51,434.71 328.89,418.09 345.51,401.48 345.51,397.24 324.65,418.09 					"/>
				</g>
			</g>
			<g>
				<g>
					<path d="M86.64,460.63l-16.74-16.74l5.9-5.9l16.74,16.74v-33.49l3.15-3.15l-3.15-3.15v-33.49L75.79,398.2l-5.9-5.9l16.74-16.74
						H53.15L50,372.41v4.24l41.44,41.44L50,459.54v4.24l3.15-3.15H86.64z M67.89,390.06l-11.5-11.5h23L67.89,390.06z M89.54,411.7
						l-11.5-11.5l11.5-11.5V411.7z M78.04,435.99l11.5-11.5v23L78.04,435.99z M79.39,457.63h-23l11.5-11.5L79.39,457.63z"/>
				</g>
				<g>
					<path d="M94.08,326.02c0-4.54-3.69-8.24-8.24-8.24c-4.54,0-8.24,3.69-8.24,8.24c0,4.54,3.69,8.24,8.24,8.24
						C90.39,334.26,94.08,330.56,94.08,326.02z M91.08,326.02c0,2.89-2.35,5.24-5.24,5.24c-2.89,0-5.24-2.35-5.24-5.24
						c0-2.89,2.35-5.24,5.24-5.24C88.73,320.79,91.08,323.14,91.08,326.02z"/>
				</g>
				<g>
					<path d="M94.08,510.17c0-4.54-3.69-8.24-8.24-8.24c-4.54,0-8.24,3.69-8.24,8.24s3.69,8.24,8.24,8.24
						C90.39,518.4,94.08,514.71,94.08,510.17z M91.08,510.17c0,2.89-2.35,5.24-5.24,5.24c-2.89,0-5.24-2.35-5.24-5.24
						s2.35-5.24,5.24-5.24C88.73,504.93,91.08,507.28,91.08,510.17z"/>
				</g>
				<g>
					<path d="M116.27,479.74H55.42v53.96h53.96v-47.07H62.31v39.78h39.78v-32.49H69.6v29.49h-4.29v-33.78h41.07v41.07H58.42v-47.96
						h54.85v54.85h-57.7v3h60.7V479.74z M72.6,496.92h26.49v26.49H72.6V496.92z"/>
				</g>
				<g>
					<polygon points="107.79,429.59 96.29,418.09 107.79,406.59 					"/>
				</g>
				<g>
					<polygon points="50,371.8 50,360.3 61.5,360.3 					"/>
				</g>
				<g>
					<polygon points="50,451.28 50,447.04 78.94,418.09 50,389.15 50,384.91 83.19,418.09 					"/>
				</g>
				<g>
					<polygon points="50,464.39 61.5,475.89 50,475.89 					"/>
				</g>
				<g>
					<path d="M55.42,356.45h60.85V295.6h-60.7v3h57.7v54.85H58.42v-47.96h47.96v41.07H65.31v-33.78h4.29v29.49h32.49v-32.49H62.31
						v39.78h47.07v-47.07H55.42V356.45z M72.6,312.78h26.49v26.49H72.6V312.78z"/>
				</g>
				<g>
					<path d="M86.75,381.35h18.54v-18.54H86.75V381.35z M89.75,365.81h12.54v12.54H89.75V365.81z"/>
				</g>
				<g>
					<path d="M86.75,473.38h18.54v-18.54H86.75V473.38z M89.75,457.84h12.54v12.54H89.75V457.84z"/>
				</g>
				<g>
					<polygon points="50,438.95 50,434.71 66.61,418.09 50,401.48 50,397.24 70.85,418.09 					"/>
				</g>
			</g>
		</g>
		<g>
			<g>
				<g>
					<rect x="50" y="286.19" width="18.47" height="4"/>
				</g>
				<g>
					<rect x="50" y="294.69" width="18.47" height="4"/>
				</g>
			</g>
			<g>
				<g>
					<rect x="68.47" y="286.19" width="18.47" height="4"/>
				</g>
				<g>
					<rect x="68.47" y="294.69" width="18.47" height="4"/>
				</g>
			</g>
			<g>
				<g>
					<rect x="86.94" y="286.19" width="18.47" height="4"/>
				</g>
				<g>
					<rect x="86.94" y="294.69" width="18.47" height="4"/>
				</g>
			</g>
			<g>
				<g>
					<rect x="105.41" y="286.19" width="18.47" height="4"/>
				</g>
				<g>
					<rect x="105.41" y="294.69" width="18.47" height="4"/>
				</g>
			</g>
			<g>
				<g>
					<rect x="123.88" y="286.19" width="18.47" height="4"/>
				</g>
				<g>
					<rect x="123.88" y="294.69" width="18.47" height="4"/>
				</g>
			</g>
			<g>
				<g>
					<rect x="142.35" y="286.19" width="18.47" height="4"/>
				</g>
				<g>
					<rect x="142.35" y="294.69" width="18.47" height="4"/>
				</g>
			</g>
			<g>
				<g>
					<rect x="160.81" y="286.19" width="18.47" height="4"/>
				</g>
				<g>
					<rect x="160.81" y="294.69" width="18.47" height="4"/>
				</g>
			</g>
			<g>
				<g>
					<rect x="179.28" y="286.19" width="18.47" height="4"/>
				</g>
				<g>
					<rect x="179.28" y="294.69" width="18.47" height="4"/>
				</g>
			</g>
			<g>
				<g>
					<rect x="197.75" y="286.19" width="18.47" height="4"/>
				</g>
				<g>
					<rect x="197.75" y="294.69" width="18.47" height="4"/>
				</g>
			</g>
			<g>
				<g>
					<rect x="216.22" y="286.19" width="18.47" height="4"/>
				</g>
				<g>
					<rect x="216.22" y="294.69" width="18.47" height="4"/>
				</g>
			</g>
			<g>
				<g>
					<rect x="234.69" y="286.19" width="18.47" height="4"/>
				</g>
				<g>
					<rect x="234.69" y="294.69" width="18.47" height="4"/>
				</g>
			</g>
			<g>
				<g>
					<rect x="253.16" y="286.19" width="18.47" height="4"/>
				</g>
				<g>
					<rect x="253.16" y="294.69" width="18.47" height="4"/>
				</g>
			</g>
			<g>
				<g>
					<rect x="271.63" y="286.19" width="18.47" height="4"/>
				</g>
				<g>
					<rect x="271.63" y="294.69" width="18.47" height="4"/>
				</g>
			</g>
			<g>
				<g>
					<rect x="290.1" y="286.19" width="18.47" height="4"/>
				</g>
				<g>
					<rect x="290.1" y="294.69" width="18.47" height="4"/>
				</g>
			</g>
			<g>
				<g>
					<rect x="308.57" y="286.19" width="18.47" height="4"/>
				</g>
				<g>
					<rect x="308.57" y="294.69" width="18.47" height="4"/>
				</g>
			</g>
			<g>
				<g>
					<rect x="327.04" y="286.19" width="18.47" height="4"/>
				</g>
				<g>
					<rect x="327.04" y="294.69" width="18.47" height="4"/>
				</g>
			</g>
		</g>
		<g>
			<g>
				<g>
					<rect x="50" y="537.5" width="18.47" height="4"/>
				</g>
				<g>
					<rect x="50" y="546" width="18.47" height="4"/>
				</g>
			</g>
			<g>
				<g>
					<rect x="68.47" y="537.5" width="18.47" height="4"/>
				</g>
				<g>
					<rect x="68.47" y="546" width="18.47" height="4"/>
				</g>
			</g>
			<g>
				<g>
					<rect x="86.94" y="537.5" width="18.47" height="4"/>
				</g>
				<g>
					<rect x="86.94" y="546" width="18.47" height="4"/>
				</g>
			</g>
			<g>
				<g>
					<rect x="105.41" y="537.5" width="18.47" height="4"/>
				</g>
				<g>
					<rect x="105.41" y="546" width="18.47" height="4"/>
				</g>
			</g>
			<g>
				<g>
					<rect x="123.88" y="537.5" width="18.47" height="4"/>
				</g>
				<g>
					<rect x="123.88" y="546" width="18.47" height="4"/>
				</g>
			</g>
			<g>
				<g>
					<rect x="142.35" y="537.5" width="18.47" height="4"/>
				</g>
				<g>
					<rect x="142.35" y="546" width="18.47" height="4"/>
				</g>
			</g>
			<g>
				<g>
					<rect x="160.81" y="537.5" width="18.47" height="4"/>
				</g>
				<g>
					<rect x="160.81" y="546" width="18.47" height="4"/>
				</g>
			</g>
			<g>
				<g>
					<rect x="179.28" y="537.5" width="18.47" height="4"/>
				</g>
				<g>
					<rect x="179.28" y="546" width="18.47" height="4"/>
				</g>
			</g>
			<g>
				<g>
					<rect x="197.75" y="537.5" width="18.47" height="4"/>
				</g>
				<g>
					<rect x="197.75" y="546" width="18.47" height="4"/>
				</g>
			</g>
			<g>
				<g>
					<rect x="216.22" y="537.5" width="18.47" height="4"/>
				</g>
				<g>
					<rect x="216.22" y="546" width="18.47" height="4"/>
				</g>
			</g>
			<g>
				<g>
					<rect x="234.69" y="537.5" width="18.47" height="4"/>
				</g>
				<g>
					<rect x="234.69" y="546" width="18.47" height="4"/>
				</g>
			</g>
			<g>
				<g>
					<rect x="253.16" y="537.5" width="18.47" height="4"/>
				</g>
				<g>
					<rect x="253.16" y="546" width="18.47" height="4"/>
				</g>
			</g>
			<g>
				<g>
					<rect x="271.63" y="537.5" width="18.47" height="4"/>
				</g>
				<g>
					<rect x="271.63" y="546" width="18.47" height="4"/>
				</g>
			</g>
			<g>
				<g>
					<rect x="290.1" y="537.5" width="18.47" height="4"/>
				</g>
				<g>
					<rect x="290.1" y="546" width="18.47" height="4"/>
				</g>
			</g>
			<g>
				<g>
					<rect x="308.57" y="537.5" width="18.47" height="4"/>
				</g>
				<g>
					<rect x="308.57" y="546" width="18.47" height="4"/>
				</g>
			</g>
			<g>
				<g>
					<rect x="327.04" y="537.5" width="18.47" height="4"/>
				</g>
				<g>
					<rect x="327.04" y="546" width="18.47" height="4"/>
				</g>
			</g>
		</g>
	</g>
</g>
<g>
</g>
<g>
</g>
<g>
</g>
<g>
</g>
<g>
</g>
<g>
</g>
<g>
</g>
<g>
</g>
<g>
</g>
<g>
</g>
<g>
</g>
<g>
</g>
<g>
</g>
<g>
</g>
<g>
</g>
</svg>
