<?xml version="1.0" encoding="utf-8"?>
<!-- Generator: Adobe Illustrator 27.2.0, SVG Export Plug-In . SVG Version: 6.00 Build 0)  -->
<svg version="1.1" id="Layer_1" xmlns="http://www.w3.org/2000/svg" xmlns:xlink="http://www.w3.org/1999/xlink" x="0px" y="0px"
	 viewBox="0 0 800 600" style="enable-background:new 0 0 800 600;" xml:space="preserve">
<g>
	<g>
		<circle style="fill:none;stroke:#000000;stroke-width:3;stroke-miterlimit:10;" cx="141.47" cy="400.59" r="16.9"/>
		<g>
			<line style="fill:none;stroke:#000000;stroke-width:5;stroke-miterlimit:10;" x1="175.8" y1="367.81" x2="155.41" y2="388.2"/>
			<line style="fill:none;stroke:#000000;stroke-width:5;stroke-miterlimit:10;" x1="182.93" y1="374.94" x2="162.54" y2="395.33"/>
			<line style="fill:none;stroke:#000000;stroke-width:5;stroke-miterlimit:10;" x1="168.67" y1="360.68" x2="148.28" y2="381.07"/>
		</g>
		<g>
			<line style="fill:none;stroke:#000000;stroke-width:5;stroke-miterlimit:10;" x1="107.14" y1="367.81" x2="127.53" y2="388.2"/>
			<line style="fill:none;stroke:#000000;stroke-width:5;stroke-miterlimit:10;" x1="100.01" y1="374.94" x2="120.4" y2="395.33"/>
			<line style="fill:none;stroke:#000000;stroke-width:5;stroke-miterlimit:10;" x1="114.27" y1="360.68" x2="134.66" y2="381.07"/>
		</g>
		<g>
			<g>
				<rect x="140.05" y="372.61" width="2.83" height="4.79"/>
				<polygon points="152.13,355.74 149.3,355.74 149.3,360.53 142.89,360.53 142.89,355.67 140.05,355.67 140.05,360.53 
					133.64,360.53 133.64,355.74 130.81,355.74 130.81,360.53 126.02,360.53 126.02,363.36 130.81,363.36 130.81,368.15 
					133.64,368.15 133.64,363.36 140.05,363.36 140.05,369.77 135.26,369.77 135.26,372.61 140.05,372.61 140.05,372.61 
					142.89,372.61 142.89,372.61 147.67,372.61 147.67,369.77 142.89,369.77 142.89,363.36 149.3,363.36 149.3,368.15 
					152.13,368.15 152.13,363.36 156.92,363.36 156.92,360.53 152.13,360.53 				"/>
			</g>
			<g>
				<path d="M141.47,355.23c9.82-7.95,0-19.5,0-19.5"/>
				<path d="M141.47,355.23c-9.82-7.95,0-19.5,0-19.5"/>
			</g>
		</g>
		<g>
			<g>
				<rect x="113.48" y="399.18" width="4.79" height="2.83"/>
				<polygon points="96.62,389.93 96.62,392.77 101.4,392.77 101.4,399.18 96.55,399.18 96.55,402.01 101.4,402.01 101.4,408.42 
					96.62,408.42 96.62,411.25 101.4,411.25 101.4,416.04 104.24,416.04 104.24,411.25 109.03,411.25 109.03,408.42 104.24,408.42 
					104.24,402.01 110.65,402.01 110.65,406.8 113.48,406.8 113.48,402.01 113.48,402.01 113.48,399.18 113.48,399.18 
					113.48,394.39 110.65,394.39 110.65,399.18 104.24,399.18 104.24,392.77 109.03,392.77 109.03,389.93 104.24,389.93 
					104.24,385.14 101.4,385.14 101.4,389.93 				"/>
			</g>
			<g>
				<path d="M96.1,400.59c-7.95-9.82-19.5,0-19.5,0"/>
				<path d="M96.1,400.59c-7.95,9.82-19.5,0-19.5,0"/>
			</g>
		</g>
		<g>
			<g>
				<rect x="140.05" y="423.79" width="2.83" height="4.79"/>
				<polygon points="130.81,445.44 133.64,445.44 133.64,440.66 140.05,440.66 140.05,445.51 142.89,445.51 142.89,440.66 
					149.3,440.66 149.3,445.44 152.13,445.44 152.13,440.66 156.92,440.66 156.92,437.82 152.13,437.82 152.13,433.04 149.3,433.04 
					149.3,437.82 142.89,437.82 142.89,431.41 147.67,431.41 147.67,428.58 142.89,428.58 142.89,428.58 140.05,428.58 
					140.05,428.58 135.26,428.58 135.26,431.41 140.05,431.41 140.05,437.82 133.64,437.82 133.64,433.04 130.81,433.04 
					130.81,437.82 126.02,437.82 126.02,440.66 130.81,440.66 				"/>
			</g>
			<g>
				<path d="M141.47,445.96c-9.82,7.95,0,19.5,0,19.5"/>
				<path d="M141.47,445.96c9.82,7.95,0,19.5,0,19.5"/>
			</g>
		</g>
		<g>
			<g>
				<rect x="164.67" y="399.18" width="4.79" height="2.83"/>
				<polygon points="186.32,411.25 186.32,408.42 181.53,408.42 181.53,402.01 186.39,402.01 186.39,399.18 181.53,399.18 
					181.53,392.77 186.32,392.77 186.32,389.93 181.53,389.93 181.53,385.14 178.7,385.14 178.7,389.93 173.91,389.93 
					173.91,392.77 178.7,392.77 178.7,399.18 172.29,399.18 172.29,394.39 169.45,394.39 169.45,399.18 169.46,399.18 
					169.46,402.01 169.45,402.01 169.45,406.8 172.29,406.8 172.29,402.01 178.7,402.01 178.7,408.42 173.91,408.42 173.91,411.25 
					178.7,411.25 178.7,416.04 181.53,416.04 181.53,411.25 				"/>
			</g>
			<g>
				<path d="M186.83,400.59c7.95,9.82,19.5,0,19.5,0"/>
				<path d="M186.83,400.59c7.95-9.82,19.5,0,19.5,0"/>
			</g>
		</g>
		<g>
			<line style="fill:none;stroke:#000000;stroke-width:5;stroke-miterlimit:10;" x1="175.8" y1="433.37" x2="155.41" y2="412.99"/>
			<line style="fill:none;stroke:#000000;stroke-width:5;stroke-miterlimit:10;" x1="182.93" y1="426.24" x2="162.54" y2="405.86"/>
			<line style="fill:none;stroke:#000000;stroke-width:5;stroke-miterlimit:10;" x1="168.67" y1="440.5" x2="148.28" y2="420.12"/>
		</g>
		<g>
			<line style="fill:none;stroke:#000000;stroke-width:5;stroke-miterlimit:10;" x1="107.14" y1="433.37" x2="127.53" y2="412.99"/>
			<line style="fill:none;stroke:#000000;stroke-width:5;stroke-miterlimit:10;" x1="100.01" y1="426.24" x2="120.4" y2="405.86"/>
			<line style="fill:none;stroke:#000000;stroke-width:5;stroke-miterlimit:10;" x1="114.27" y1="440.5" x2="134.66" y2="420.12"/>
		</g>
	</g>
	<g>
		<g>
			<g>
				<circle style="fill:none;stroke:#000000;stroke-width:3;stroke-miterlimit:10;" cx="95.73" cy="531.6" r="16.9"/>
				<g>
					
						<line style="fill:none;stroke:#000000;stroke-width:5;stroke-miterlimit:10;" x1="130.06" y1="498.82" x2="109.67" y2="519.21"/>
					
						<line style="fill:none;stroke:#000000;stroke-width:5;stroke-miterlimit:10;" x1="137.19" y1="505.95" x2="116.8" y2="526.34"/>
					
						<line style="fill:none;stroke:#000000;stroke-width:5;stroke-miterlimit:10;" x1="122.93" y1="491.69" x2="102.54" y2="512.08"/>
				</g>
				<g>
					<line style="fill:none;stroke:#000000;stroke-width:5;stroke-miterlimit:10;" x1="61.41" y1="498.82" x2="81.8" y2="519.21"/>
					<line style="fill:none;stroke:#000000;stroke-width:5;stroke-miterlimit:10;" x1="54.28" y1="505.95" x2="74.67" y2="526.34"/>
					<line style="fill:none;stroke:#000000;stroke-width:5;stroke-miterlimit:10;" x1="68.54" y1="491.69" x2="88.93" y2="512.08"/>
				</g>
				<g>
					<rect x="94.32" y="503.61" width="2.83" height="4.79"/>
					<polygon points="106.4,486.75 103.56,486.75 103.56,491.54 97.15,491.54 97.15,486.68 94.32,486.68 94.32,491.54 87.91,491.54 
						87.91,486.75 85.07,486.75 85.07,491.54 80.29,491.54 80.29,494.37 85.07,494.37 85.07,499.16 87.91,499.16 87.91,494.37 
						94.32,494.37 94.32,500.78 89.53,500.78 89.53,503.61 94.32,503.61 94.32,503.61 97.15,503.61 97.15,503.61 101.94,503.61 
						101.94,500.78 97.15,500.78 97.15,494.37 103.56,494.37 103.56,499.16 106.4,499.16 106.4,494.37 111.18,494.37 111.18,491.54 
						106.4,491.54 					"/>
				</g>
				<g>
					<path d="M95.73,486.23c9.82-7.95,0-19.5,0-19.5"/>
					<path d="M95.73,486.23c-9.82-7.95,0-19.5,0-19.5"/>
				</g>
				<g>
					<rect x="140.05" y="528.13" width="1.42" height="4.79"/>
					<polygon points="141.47,549.85 141.47,532.92 140.05,532.92 140.05,532.92 135.26,532.92 135.26,535.75 140.05,535.75 
						140.05,542.16 133.64,542.16 133.64,537.37 130.81,537.37 130.81,542.16 126.02,542.16 126.02,544.99 130.81,544.99 
						130.81,549.78 133.64,549.78 133.64,544.99 140.05,544.99 140.05,549.85 					"/>
				</g>
				<g>
					<rect x="50" y="528.13" width="1.42" height="4.79"/>
					<polygon points="50,549.85 50,532.92 51.42,532.92 51.42,532.92 56.2,532.92 56.2,535.75 51.42,535.75 51.42,542.16 
						57.83,542.16 57.83,537.37 60.66,537.37 60.66,542.16 65.45,542.16 65.45,544.99 60.66,544.99 60.66,549.78 57.83,549.78 
						57.83,544.99 51.42,544.99 51.42,549.85 					"/>
				</g>
			</g>
			<g>
				<circle style="fill:none;stroke:#000000;stroke-width:3;stroke-miterlimit:10;" cx="187.2" cy="531.6" r="16.9"/>
				<g>
					
						<line style="fill:none;stroke:#000000;stroke-width:5;stroke-miterlimit:10;" x1="221.53" y1="498.82" x2="201.14" y2="519.21"/>
					
						<line style="fill:none;stroke:#000000;stroke-width:5;stroke-miterlimit:10;" x1="228.66" y1="505.95" x2="208.27" y2="526.34"/>
					
						<line style="fill:none;stroke:#000000;stroke-width:5;stroke-miterlimit:10;" x1="214.4" y1="491.69" x2="194.01" y2="512.08"/>
				</g>
				<g>
					
						<line style="fill:none;stroke:#000000;stroke-width:5;stroke-miterlimit:10;" x1="152.88" y1="498.82" x2="173.26" y2="519.21"/>
					
						<line style="fill:none;stroke:#000000;stroke-width:5;stroke-miterlimit:10;" x1="145.75" y1="505.95" x2="166.13" y2="526.34"/>
					
						<line style="fill:none;stroke:#000000;stroke-width:5;stroke-miterlimit:10;" x1="160.01" y1="491.69" x2="180.39" y2="512.08"/>
				</g>
				<g>
					<rect x="185.79" y="503.61" width="2.83" height="4.79"/>
					<polygon points="197.86,486.75 195.03,486.75 195.03,491.54 188.62,491.54 188.62,486.68 185.79,486.68 185.79,491.54 
						179.38,491.54 179.38,486.75 176.54,486.75 176.54,491.54 171.75,491.54 171.75,494.37 176.54,494.37 176.54,499.16 
						179.38,499.16 179.38,494.37 185.79,494.37 185.79,500.78 181,500.78 181,503.61 185.79,503.61 185.79,503.61 188.62,503.61 
						188.62,503.61 193.41,503.61 193.41,500.78 188.62,500.78 188.62,494.37 195.03,494.37 195.03,499.16 197.86,499.16 
						197.86,494.37 202.65,494.37 202.65,491.54 197.86,491.54 					"/>
				</g>
				<g>
					<path d="M187.2,486.23c9.82-7.95,0-19.5,0-19.5"/>
					<path d="M187.2,486.23c-9.82-7.95,0-19.5,0-19.5"/>
				</g>
				<g>
					<rect x="231.52" y="528.13" width="1.42" height="4.79"/>
					<polygon points="232.94,549.85 232.94,532.92 231.52,532.92 231.52,532.92 226.73,532.92 226.73,535.75 231.52,535.75 
						231.52,542.16 225.11,542.16 225.11,537.37 222.28,537.37 222.28,542.16 217.49,542.16 217.49,544.99 222.28,544.99 
						222.28,549.78 225.11,549.78 225.11,544.99 231.52,544.99 231.52,549.85 					"/>
				</g>
				<g>
					<rect x="141.47" y="528.13" width="1.42" height="4.79"/>
					<polygon points="141.47,549.85 141.47,532.92 142.89,532.92 142.89,532.92 147.67,532.92 147.67,535.75 142.89,535.75 
						142.89,542.16 149.29,542.16 149.29,537.37 152.13,537.37 152.13,542.16 156.92,542.16 156.92,544.99 152.13,544.99 
						152.13,549.78 149.29,549.78 149.29,544.99 142.89,544.99 142.89,549.85 					"/>
				</g>
			</g>
		</g>
	</g>
</g>
<g>
</g>
<g>
</g>
<g>
</g>
<g>
</g>
<g>
</g>
<g>
</g>
<g>
</g>
<g>
</g>
<g>
</g>
<g>
</g>
<g>
</g>
<g>
</g>
<g>
</g>
<g>
</g>
<g>
</g>
</svg>
