<?xml version="1.0" encoding="utf-8"?>
<!-- Generator: Adobe Illustrator 27.2.0, SVG Export Plug-In . SVG Version: 6.00 Build 0)  -->
<svg version="1.1" id="Layer_1" xmlns="http://www.w3.org/2000/svg" xmlns:xlink="http://www.w3.org/1999/xlink" x="0px" y="0px"
	 viewBox="0 0 800 600" style="enable-background:new 0 0 800 600;" xml:space="preserve">
<g>
	<g>
		<polygon points="133.27,451.6 133.27,451.6 138.06,451.6 138.06,448.76 133.27,448.76 133.27,443.97 130.43,443.97 130.43,448.76 
			125.65,448.76 125.65,451.6 130.43,451.6 130.43,451.6 		"/>
		<polygon points="142.51,465.63 142.51,460.84 147.3,460.84 147.3,458.01 142.51,458.01 142.51,453.22 139.68,453.22 
			139.68,458.01 134.89,458.01 133.27,458.01 133.27,456.38 133.27,451.6 130.43,451.6 130.43,456.38 130.43,458.01 128.81,458.01 
			124.02,458.01 124.02,453.22 121.19,453.22 121.19,458.01 116.4,458.01 116.4,460.84 121.19,460.84 121.19,465.63 124.02,465.63 
			124.02,460.84 128.81,460.84 130.43,460.84 130.43,462.46 130.43,467.25 125.65,467.25 125.65,470.08 130.43,470.08 
			130.43,474.87 133.27,474.87 133.27,470.08 138.06,470.08 138.06,467.25 133.27,467.25 133.27,462.46 133.27,460.84 
			134.89,460.84 139.68,460.84 139.68,465.63 		"/>
		<path d="M131.85,518.28c-1.93,0-3.49,1.56-3.49,3.49c0,1.93,1.56,3.49,3.49,3.49s3.49-1.56,3.49-3.49
			C135.34,519.84,133.78,518.28,131.85,518.28z"/>
		<polygon points="116.11,536.07 114.96,534.92 112.96,536.93 114.11,538.07 112.96,539.22 109.58,542.61 106.19,539.22 
			104.19,541.23 107.57,544.61 104.19,548 106.19,550 109.58,546.61 112.96,550 114.96,548 111.58,544.61 114.96,541.23 
			114.96,541.23 116.11,540.08 117.26,541.23 119.26,539.22 118.12,538.07 119.26,536.93 122.65,533.54 120.64,531.54 
			117.26,534.92 		"/>
		<polygon points="126.03,526.15 122.65,529.53 120.64,531.54 122.65,533.54 126.03,536.93 128.04,534.92 124.65,531.54 
			128.04,528.15 		"/>
		<rect x="118.54" y="526.45" transform="matrix(0.7071 -0.7071 0.7071 0.7071 -338.8149 239.7144)" width="2.83" height="4.79"/>
		<polygon points="122.65,546.61 126.03,550 128.04,548 124.65,544.61 128.04,541.23 126.03,539.22 122.65,542.61 120.64,544.61 		
			"/>
		<rect x="117.56" y="545.89" transform="matrix(0.7071 -0.7071 0.7071 0.7071 -351.8724 245.1261)" width="4.79" height="2.83"/>
		<rect x="118.54" y="539.52" transform="matrix(0.7071 -0.7071 0.7071 0.7071 -348.0543 243.5362)" width="2.83" height="4.79"/>
		<polygon points="116.11,503.46 114.96,502.31 112.96,504.31 114.11,505.46 112.96,506.61 109.58,509.99 106.19,506.61 
			104.19,508.61 107.57,512 104.19,515.38 106.19,517.39 109.58,514 112.96,517.39 114.96,515.38 111.58,512 114.96,508.61 
			116.11,507.47 117.26,508.61 120.64,512 122.65,509.99 119.26,506.61 118.12,505.46 119.26,504.31 122.65,500.93 120.64,498.92 
			117.26,502.31 		"/>
		<polygon points="126.03,493.54 122.65,496.92 120.64,498.92 122.65,500.93 126.03,504.31 128.04,502.31 124.65,498.92 
			128.04,495.54 		"/>
		<rect x="118.54" y="493.84" transform="matrix(0.7071 -0.7071 0.7071 0.7071 -315.7542 230.1623)" width="2.83" height="4.79"/>
		<polygon points="122.65,514 126.03,517.39 128.04,515.38 124.65,512 128.04,508.61 126.03,506.61 122.65,509.99 120.64,512 		"/>
		<rect x="117.56" y="513.28" transform="matrix(0.7071 -0.7071 0.7071 0.7071 -328.8089 235.5697)" width="4.79" height="2.83"/>
		<polygon points="112.96,493.54 109.58,496.92 106.19,493.54 104.19,495.54 107.57,498.92 104.19,502.31 106.19,504.31 
			109.58,500.93 112.96,504.31 114.96,502.31 111.58,498.92 114.96,495.54 		"/>
		<path d="M116.54,518.4c-1.52,0-2.97,0.16-4.31,0.45c-4.66,1.01-4.66,4.84,0,5.85c1.34,0.29,2.79,0.45,4.31,0.45
			c4.45,0,8.33-1.36,10.41-3.37C124.87,519.75,120.99,518.4,116.54,518.4z"/>
		<path d="M113.33,476.61c-1.15,0.74-2.29,1.66-3.36,2.73c-3.15,3.15-4.93,6.85-4.97,9.74c2.89-0.05,6.6-1.83,9.74-4.97
			c1.07-1.07,1.99-2.21,2.73-3.36C120.05,476.74,117.34,474.03,113.33,476.61z"/>
		<path d="M101.03,473.08c-0.4,1.31-0.69,2.74-0.82,4.25c-0.39,4.43,0.63,8.41,2.45,10.66c2.19-1.9,3.88-5.64,4.27-10.07
			c0.13-1.51,0.1-2.98-0.07-4.33C106.26,468.86,102.44,468.53,101.03,473.08z"/>
		<path d="M94.13,474.93c-3.5-3.24-6.64-1.04-4.79,3.35c0.53,1.26,1.23,2.54,2.11,3.79c2.55,3.64,5.89,6.04,8.73,6.59
			c0.46-2.86-0.65-6.81-3.21-10.46C96.09,476.96,95.13,475.86,94.13,474.93z"/>
		<path d="M83.72,489.79c1.22,0.63,2.58,1.15,4.05,1.55c4.3,1.15,8.39,0.84,10.92-0.56c-1.49-2.48-4.88-4.8-9.18-5.95
			c-1.47-0.39-2.91-0.62-4.28-0.68C80.48,483.9,79.49,487.61,83.72,489.79z"/>
		<path d="M86.82,502.21c1.33-0.3,2.72-0.77,4.1-1.42c4.03-1.88,6.97-4.75,8.01-7.45c-2.74-0.95-6.82-0.54-10.86,1.34
			c-1.38,0.64-2.63,1.4-3.72,2.23C80.55,499.79,82.17,503.26,86.82,502.21z"/>
		<path d="M97.17,509.73c0.83-1.09,1.58-2.34,2.23-3.72c1.88-4.03,2.29-8.12,1.34-10.86c-2.7,1.03-5.57,3.97-7.45,8.01
			c-0.64,1.38-1.11,2.76-1.42,4.1C90.81,511.9,94.29,513.53,97.17,509.73z"/>
		<path d="M104.8,494.21c1.36-1.36,1.36-3.57,0-4.93c-1.36-1.36-3.57-1.36-4.93,0s-1.36,3.57,0,4.93S103.44,495.57,104.8,494.21z"/>
		<polygon points="74.09,485.25 77.47,481.86 80.86,485.25 82.86,483.24 79.48,479.86 82.86,476.47 80.86,474.47 77.47,477.86 
			74.09,474.47 72.08,476.47 75.47,479.86 72.08,483.24 		"/>
		<polygon points="89.99,460.55 89.99,465.34 85.2,465.34 85.2,468.17 89.99,468.17 89.99,472.96 92.83,472.96 92.83,468.17 
			97.61,468.17 97.61,465.34 92.83,465.34 92.83,460.55 		"/>
		<polygon points="74.46,470.93 77.85,467.55 81.23,470.93 83.24,468.93 79.85,465.55 83.24,462.16 81.23,460.16 77.85,463.54 
			74.46,460.16 72.46,462.16 75.84,465.55 72.46,468.93 		"/>
		<path d="M90.85,429.99c-2.83-3.83-6.33-2.26-5.33,2.4c0.29,1.34,0.74,2.73,1.36,4.11c1.83,4.06,4.66,7.03,7.35,8.1
			c0.98-2.72,0.63-6.82-1.2-10.87C92.41,432.35,91.66,431.09,90.85,429.99z"/>
		<path d="M79.4,438.95c1.83,4.06,4.66,7.03,7.35,8.1c0.98-2.72,0.63-6.82-1.2-10.87c-0.62-1.39-1.37-2.65-2.18-3.75
			c-2.83-3.83-6.33-2.26-5.33,2.4C78.32,436.18,78.77,437.57,79.4,438.95z"/>
		<path d="M72.28,442.12c2.03,3.96,5,6.79,7.74,7.73c0.85-2.77,0.29-6.84-1.74-10.8c-0.69-1.35-1.49-2.57-2.36-3.63
			c-3.02-3.69-6.43-1.94-5.21,2.66C71.07,439.4,71.59,440.76,72.28,442.12z"/>
		<path d="M96.24,527.47l-2.16-2.15l-3.26,3.3l-2.37-2.34l-2.36-2.35l3.28-3.27l-2.07-2.09l-3.31,3.24c-0.77-0.8-1.55-1.58-2.3-2.39
			c-0.76-0.8-1.53-1.6-2.26-2.42l0,0l0,0l3.42-3.14c-0.65-0.71-1.31-1.42-1.94-2.14l-3.47,3.08c-0.72-0.83-1.47-1.64-2.16-2.49
			c-0.7-0.85-1.43-1.68-2.1-2.54l0,0c-0.3-0.39-0.62-0.77-0.92-1.16c0.31,0.39,0.62,0.77,0.92,1.16l3.62-2.91
			c-0.58-0.75-1.2-1.48-1.76-2.23l-3.69,2.81c-0.65-0.88-1.33-1.74-1.95-2.64c-0.62-0.9-1.27-1.79-1.86-2.71l3.87-2.56l-1.5-2.34
			l-3.96,2.42l-1.64-2.82l-1.51-2.89l4.17-2.04l-1.12-2.45l-4.26,1.83c-0.42-1-0.79-2.01-1.19-3.02c-0.36-1.02-0.66-2.05-1-3.08
			l4.46-1.28c-0.23-0.84-0.41-1.68-0.63-2.52l-4.53,0.98c-0.26-1.04-0.37-2.11-0.56-3.16c-0.17-1.06-0.2-2.13-0.31-3.19l0,0l0,0
			l4.63-0.25c-0.08-0.84-0.01-1.68-0.03-2.52l-4.64-0.11c-0.05-1.07,0.15-2.13,0.22-3.19c0.05-1.07,0.32-2.11,0.5-3.16l4.55,0.91
			c0.11-0.83,0.37-1.64,0.6-2.45l-4.46-1.26l0.43-1.54c0.18-0.51,0.38-1,0.57-1.5c0.39-1,0.73-2.02,1.24-2.97l4.21,1.95
			c0.39-0.77,0.74-1.56,1.15-2.33l-4.07-2.22l1.66-2.78c0.55-0.93,1.23-1.78,1.84-2.67l0,0v0l3.76,2.72l0.77-1.09
			c0.27-0.36,0.57-0.7,0.86-1.05l-3.62-2.9l2.08-2.51l-2.34-2.08l-2.18,2.63l0,0c-0.32,0.4-0.66,0.78-0.97,1.19
			c0.31-0.41,0.65-0.79,0.97-1.19l-3.62-2.91c-0.35,0.43-0.71,0.84-1.04,1.28l-0.97,1.35l3.76,2.72l0,0l0,0
			c-0.65,0.94-1.36,1.84-1.95,2.83l-1.76,2.95l0,0c-0.24,0.46-0.47,0.92-0.7,1.38c-0.23,0.47-0.45,0.93-0.68,1.4l0,0
			c-0.54,1.02-0.91,2.11-1.33,3.19c-0.2,0.54-0.42,1.08-0.61,1.62l-0.47,1.67l0,0c0,0,0,0,0,0l-4.47-1.26
			c-0.32,1.11-0.64,2.22-0.82,3.38l4.55,0.91c0.08-0.52,0.19-1.02,0.32-1.53c-0.13,0.5-0.24,1.01-0.32,1.53l0,0
			c-0.19,1.14-0.48,2.27-0.54,3.43c-0.08,1.15-0.28,2.3-0.23,3.46h0c0,0.26,0,0.52,0,0.78c0-0.26,0-0.52,0-0.78l-4.64-0.11
			c0.01,1.16-0.05,2.33,0.05,3.48l4.63-0.25c-0.02-0.22-0.03-0.45-0.04-0.68c0.01,0.23,0.02,0.45,0.04,0.68l0,0
			c0.11,1.15,0.15,2.31,0.33,3.45c0.2,1.13,0.33,2.29,0.6,3.4l0,0c0,0,0,0,0,0l-4.53,0.99c0.27,1.1,0.52,2.22,0.82,3.3l4.46-1.28
			c0,0,0,0,0,0l0,0c0.35,1.09,0.68,2.19,1.06,3.28c0.42,1.06,0.82,2.14,1.26,3.19l0,0l0,0l-4.26,1.83l1.38,3.01l4.17-2.04l-0.64-1.4
			l0.64,1.4l0,0l1.58,3.03l1.71,2.94l0,0l0,0l-3.96,2.42l1.73,2.72l3.87-2.56l0,0l0,0c0.61,0.95,1.28,1.86,1.92,2.8
			c0.64,0.93,1.34,1.81,2.01,2.72l0,0c0.03,0.04,0.07,0.09,0.1,0.13c-0.03-0.04-0.07-0.09-0.1-0.13l-3.69,2.82
			c0.63,0.85,1.3,1.66,1.95,2.49l3.62-2.91c0,0,0,0,0,0l0,0c0.69,0.89,1.43,1.74,2.15,2.6c0.71,0.87,1.47,1.7,2.21,2.55l0,0
			c0,0,0,0,0,0l-3.47,3.08c0.68,0.79,1.39,1.54,2.09,2.31l3.42-3.14c-0.34-0.37-0.68-0.75-1.02-1.12c0.34,0.37,0.68,0.75,1.02,1.12
			l0,0c0.75,0.83,1.53,1.64,2.3,2.46c0.77,0.82,1.55,1.61,2.33,2.42l0,0l0,0l-3.32,3.25l2.15,2.18l3.29-3.28l-1.06-1.07l1.06,1.07
			l0,0l2.37,2.36l2.37,2.34l0,0l1.06,1.05l-1.06-1.05l-3.26,3.3l2.1,2.08l3.28-3.28l0,0l0,0l2.32,2.36l2.26-2.16l-2.36-2.41l0,0
			l-1.22-1.21l1.22,1.21L96.24,527.47z M67.96,447.56L67.96,447.56c-0.31,0.38-0.63,0.74-0.92,1.13
			C67.33,448.3,67.65,447.93,67.96,447.56z M62.69,455.33L62.69,455.33c-0.23,0.43-0.44,0.86-0.65,1.29
			C62.25,456.18,62.46,455.75,62.69,455.33z M57.78,473.8c-0.01,0.53-0.02,1.05,0,1.57C57.76,474.85,57.77,474.33,57.78,473.8z
			 M59.02,483.73c-0.11-0.47-0.22-0.94-0.34-1.41h0C58.8,482.79,58.91,483.26,59.02,483.73z M67.52,502.08l-1.08-1.69L67.52,502.08
			L67.52,502.08z M84.89,522.72l-0.9-0.91l0,0L84.89,522.72z"/>
		<path d="M55.88,451.6c-0.53,1-1.01,2.03-1.51,3.05l4.21,1.95c0.23-0.46,0.45-0.93,0.68-1.4c0.23-0.47,0.46-0.93,0.7-1.38
			L55.88,451.6z"/>
		<path d="M150.74,536.93l3.39-3.39l3.39,3.39l2-2l-3.39-3.39l2.91-2.91c11.15-5.75,41.99-34.96,39.24-58.79
			c-1.42-12.33-11.48-20.77-29.9-25.1c-14.19-4.44-18.67,0.93-19.94,3.45c-1.92,3.81-0.77,8.88,2.56,11.3
			c1.14,0.83,2.39,1.24,3.67,1.24c1.96,0,4.01-0.95,5.89-2.81c2.35-2.32,2.01-4.55,0.92-5.86c-1.54-1.84-4.8-2.3-6.73-0.96
			c-0.91,0.64-2.7,2.5-0.69,6.54c-0.45-0.09-0.89-0.29-1.3-0.58c-1.88-1.37-3.02-4.79-1.65-7.52c1.9-3.78,7.64-4.53,15.77-2.11
			c1.39,3.11,1.68,5.72,0.87,7.94c-1.71,4.67-8.29,7.63-15.26,10.77c-7.74,3.48-16.21,7.3-20.65,14.29
			c-4.44-7-12.91-10.81-20.65-14.29c-6.97-3.13-13.56-6.1-15.26-10.77c-0.81-2.22-0.52-4.83,0.87-7.94
			c8.13-2.42,13.87-1.67,15.77,2.11c1.37,2.73,0.23,6.15-1.65,7.52c-0.41,0.3-0.84,0.49-1.3,0.58c2-4.04,0.21-5.91-0.69-6.54
			c-1.92-1.35-5.19-0.88-6.73,0.96c-1.09,1.31-1.42,3.53,0.92,5.86c1.88,1.86,3.92,2.81,5.89,2.81c1.28,0,2.53-0.41,3.67-1.24
			c3.33-2.42,4.48-7.49,2.56-11.3c-1.27-2.52-5.74-7.88-19.94-3.45c-18.42,4.33-28.48,12.78-29.9,25.1
			c-2.75,23.83,28.1,53.04,39.24,58.79l2.91,2.91l-3.39,3.39l2,2l3.39-3.39l3.39,3.39l2-2l-3.39-3.39l3.39-3.39l-2-2l-3.39,3.39
			l-3.35-3.35l0.05-0.1c-12.09-5.99-40.32-34.78-37.88-55.91c1.19-10.33,9.54-17.66,24.82-21.82c-0.95,2.97-0.99,5.61-0.1,8.03
			c2.14,5.86,9.29,9.07,16.85,12.48c10.18,4.58,20.68,9.31,21.88,20.6c1.2-11.29,11.7-16.03,21.88-20.6
			c7.57-3.4,14.71-6.61,16.85-12.48c0.88-2.42,0.85-5.06-0.1-8.03c15.28,4.16,23.63,11.5,24.82,21.82
			c2.44,21.13-25.79,49.92-37.88,55.91l0.05,0.1l-3.35,3.35l-3.39-3.39l-2,2l3.39,3.39l-3.39,3.39l-1.15,1.15l-1.15-1.15l-3.39-3.39
			l3.39-3.39l-2-2l-3.39,3.39l-3.39-3.39l-2,2l3.39,3.39l-3.39,3.39l2,2l3.39-3.39l3.39,3.39l1.15,1.15l-1.15,1.15l2,2l1.15-1.15
			l2-2L150.74,536.93z M156.49,453.55c0.24-0.17,0.58-0.24,0.96-0.24c0.66,0,1.4,0.25,1.75,0.67c0.41,0.49-0.17,1.25-0.73,1.8
			c-0.46,0.46-0.92,0.83-1.38,1.13C156.14,455.27,155.91,453.96,156.49,453.55z M106.62,456.91c-0.46-0.3-0.92-0.67-1.38-1.13
			c-0.56-0.55-1.14-1.31-0.73-1.8c0.35-0.42,1.09-0.67,1.75-0.67c0.37,0,0.72,0.08,0.95,0.24
			C107.79,453.96,107.56,455.27,106.62,456.91z"/>
		<polygon points="137.67,539.22 135.67,541.23 139.05,544.61 135.67,548 137.67,550 141.05,546.61 144.44,550 146.44,548 
			143.06,544.61 146.44,541.23 144.44,539.22 141.05,542.61 		"/>
		<polygon points="157.51,539.22 154.13,542.61 150.74,539.22 149.6,538.07 147.59,540.08 148.74,541.23 148.74,541.23 
			152.12,544.61 148.74,548 150.74,550 154.13,546.61 157.51,550 159.52,548 156.13,544.61 159.52,541.23 		"/>
		<polygon points="137.67,517.39 141.05,514 144.44,517.39 146.44,515.38 143.06,512 146.44,508.61 147.59,507.47 149.6,505.46 
			150.74,504.31 154.13,500.93 157.51,504.31 159.52,502.31 156.13,498.92 159.52,495.54 157.51,493.54 154.13,496.92 
			150.74,493.54 148.74,495.54 152.12,498.92 148.74,502.31 147.59,503.46 146.44,502.31 143.06,498.92 146.44,495.54 
			144.44,493.54 141.05,496.92 137.67,493.54 135.67,495.54 139.05,498.92 135.67,502.31 137.67,504.31 141.05,500.93 
			144.44,504.31 145.59,505.46 144.44,506.61 141.05,509.99 137.67,506.61 135.67,508.61 139.05,512 135.67,515.38 		"/>
		<polygon points="157.51,506.61 154.13,509.99 150.74,506.61 149.6,505.46 147.59,507.47 148.74,508.61 152.12,512 148.74,515.38 
			150.74,517.39 154.13,514 157.51,517.39 159.52,515.38 156.13,512 159.52,508.61 		"/>
		<path d="M151.47,518.84c-1.34-0.29-2.79-0.45-4.31-0.45c-4.45,0-8.33,1.36-10.41,3.37c2.08,2.01,5.96,3.37,10.41,3.37
			c1.52,0,2.97-0.16,4.31-0.45C156.13,523.69,156.13,519.85,151.47,518.84z"/>
		<path d="M150.37,476.61c-4.01-2.58-6.72,0.13-4.14,4.14c0.74,1.15,1.66,2.29,2.73,3.36c3.15,3.15,6.85,4.93,9.74,4.97
			c-0.05-2.89-1.83-6.6-4.97-9.74C152.66,478.27,151.52,477.35,150.37,476.61z"/>
		<path d="M162.67,473.08c-1.41-4.55-5.23-4.22-5.83,0.51c-0.17,1.36-0.2,2.82-0.07,4.33c0.39,4.43,2.08,8.18,4.27,10.07
			c1.82-2.25,2.84-6.23,2.45-10.66C163.36,475.82,163.08,474.39,162.67,473.08z"/>
		<path d="M163.53,488.66c2.84-0.55,6.18-2.95,8.73-6.59c0.87-1.24,1.58-2.53,2.11-3.79c1.85-4.39-1.29-6.59-4.79-3.35
			c-1,0.93-1.97,2.03-2.84,3.27C164.19,481.85,163.07,485.8,163.53,488.66z"/>
		<path d="M174.19,484.82c-4.3,1.15-7.69,3.47-9.18,5.95c2.53,1.41,6.63,1.71,10.92,0.56c1.47-0.39,2.83-0.92,4.05-1.55
			c4.24-2.18,3.25-5.88-1.51-5.65C177.1,484.21,175.65,484.43,174.19,484.82z"/>
		<path d="M176.88,502.21c4.65,1.06,6.27-2.42,2.47-5.3c-1.09-0.83-2.34-1.58-3.72-2.23c-4.03-1.88-8.12-2.29-10.86-1.34
			c1.03,2.7,3.97,5.57,8.01,7.45C174.17,501.43,175.55,501.9,176.88,502.21z"/>
		<path d="M166.53,509.73c2.88,3.8,6.36,2.18,5.3-2.47c-0.3-1.33-0.77-2.72-1.42-4.1c-1.88-4.03-4.75-6.97-7.45-8.01
			c-0.95,2.74-0.54,6.82,1.34,10.86C164.95,507.39,165.7,508.64,166.53,509.73z"/>
		<path d="M163.84,489.28c-1.36-1.36-3.57-1.36-4.93,0c-1.36,1.36-1.36,3.57,0,4.93c1.36,1.36,3.57,1.36,4.93,0
			C165.2,492.85,165.2,490.64,163.84,489.28z"/>
		<polygon points="189.62,474.47 186.23,477.86 182.85,474.47 180.84,476.47 184.23,479.86 180.84,483.24 182.85,485.25 
			186.23,481.86 189.62,485.25 191.62,483.24 188.24,479.86 191.62,476.47 		"/>
		<polygon points="170.88,460.55 170.88,465.34 166.09,465.34 166.09,468.17 170.88,468.17 170.88,472.96 173.71,472.96 
			173.71,468.17 178.5,468.17 178.5,465.34 173.71,465.34 173.71,460.55 		"/>
		<polygon points="182.47,470.93 185.86,467.55 189.24,470.93 191.25,468.93 187.86,465.55 191.25,462.16 189.24,460.16 
			185.86,463.54 182.47,460.16 180.47,462.16 183.85,465.55 180.47,468.93 		"/>
		<path d="M172.85,429.99c-0.81,1.1-1.55,2.36-2.18,3.75c-1.83,4.06-2.18,8.15-1.2,10.87c2.69-1.07,5.52-4.05,7.35-8.1
			c0.62-1.39,1.08-2.78,1.36-4.11C179.18,427.73,175.68,426.15,172.85,429.99z"/>
		<path d="M180.34,432.44c-0.81,1.1-1.55,2.36-2.18,3.75c-1.83,4.06-2.18,8.15-1.2,10.87c2.69-1.07,5.52-4.05,7.35-8.1
			c0.62-1.39,1.08-2.78,1.36-4.11C186.66,430.18,183.17,428.6,180.34,432.44z"/>
		<path d="M183.68,449.85c2.74-0.94,5.71-3.77,7.74-7.73c0.69-1.35,1.21-2.72,1.56-4.04c1.23-4.61-2.19-6.35-5.21-2.66
			c-0.87,1.06-1.67,2.28-2.36,3.63C183.39,443.01,182.84,447.08,183.68,449.85z"/>
		<path d="M209.02,476.13l4.63,0.25c0.1-1.15,0.03-2.32,0.05-3.48l-4.64,0.11c0.04-1.16-0.15-2.31-0.23-3.46
			c-0.06-1.16-0.35-2.29-0.54-3.43l0,0c-0.08-0.52-0.19-1.02-0.32-1.53c0.13,0.5,0.24,1.01,0.32,1.53l4.55-0.91
			c-0.18-1.15-0.51-2.26-0.82-3.38l-4.46,1.26l-0.47-1.67c-0.19-0.55-0.41-1.08-0.61-1.62c-0.42-1.08-0.79-2.17-1.33-3.19l0,0
			c-0.23-0.46-0.45-0.93-0.68-1.4c0.23,0.47,0.45,0.93,0.68,1.4l4.21-1.95c-0.5-1.02-0.98-2.06-1.51-3.05l-4.07,2.22l-1.76-2.95
			c-0.58-0.99-1.3-1.88-1.95-2.83l3.76-2.72l-0.97-1.35c-0.33-0.44-0.69-0.85-1.04-1.28l-3.62,2.9l-2.18-2.63l-2.34,2.08l2.08,2.51
			l0,0c0.31,0.38,0.63,0.74,0.93,1.13c-0.29-0.39-0.62-0.75-0.93-1.13l-3.62,2.91c0.28,0.35,0.59,0.69,0.86,1.05l0.77,1.09
			l3.76-2.72l0,0l0,0c0.61,0.89,1.3,1.74,1.84,2.67l1.66,2.78l0,0c0.23,0.43,0.44,0.86,0.65,1.29c-0.21-0.43-0.42-0.87-0.65-1.29
			l-4.07,2.23c0.41,0.77,0.76,1.55,1.15,2.33l4.21-1.96c0,0,0,0,0,0l0,0c0.51,0.95,0.85,1.97,1.24,2.97c0.19,0.5,0.39,1,0.57,1.5
			l0.43,1.54l0,0c0,0,0,0,0,0l-4.47,1.26c0.23,0.81,0.49,1.62,0.6,2.45l4.55-0.91c0,0,0,0,0,0l0,0c0.17,1.05,0.45,2.09,0.5,3.16
			c0.07,1.06,0.26,2.12,0.22,3.19h0c0,0,0,0,0,0l-4.64,0.11c-0.02,0.84,0.05,1.68-0.03,2.52l4.63,0.25
			c0.07-0.72,0.04-1.44,0.03-2.16c0.01,0.72,0.03,1.44-0.03,2.16l0,0c-0.11,1.06-0.13,2.14-0.31,3.19
			c-0.19,1.05-0.31,2.12-0.56,3.16l0,0c-0.12,0.47-0.23,0.94-0.34,1.41c0.11-0.47,0.22-0.94,0.34-1.41l-4.53-0.99
			c-0.22,0.84-0.39,1.68-0.63,2.52l4.46,1.28c0,0,0,0,0,0l0,0c-0.33,1.03-0.64,2.06-1,3.08c-0.4,1-0.77,2.02-1.19,3.02l0,0l0,0
			l-4.26-1.83l-1.12,2.45l4.17,2.04l0,0l0,0l-1.51,2.89l-1.64,2.82l0,0l0,0l-3.96-2.42l-1.5,2.34l3.87,2.56l1.08-1.69l-1.08,1.69
			l0,0c-0.59,0.92-1.24,1.8-1.86,2.71c-0.62,0.9-1.3,1.76-1.95,2.64l0,0c0,0,0,0,0,0l-3.69-2.82c-0.56,0.76-1.17,1.49-1.76,2.23
			l3.62,2.91c0.3-0.39,0.62-0.77,0.92-1.16c-0.31,0.39-0.62,0.77-0.92,1.16l0,0c-0.67,0.87-1.4,1.7-2.1,2.54
			c-0.7,0.85-1.44,1.66-2.16,2.49l0,0c0,0,0,0,0,0l-3.47-3.08c-0.63,0.73-1.29,1.43-1.94,2.14l3.42,3.14c0,0,0,0,0,0l0,0
			c-0.74,0.82-1.51,1.61-2.26,2.42c-0.75,0.81-1.53,1.59-2.3,2.38l0,0l-2.01,2.03l2.01-2.03l-3.32-3.25l-2.07,2.09l3.29,3.28l0,0
			l0,0l-2.36,2.35l-2.37,2.34l0,0l0,0l-3.26-3.3l-2.16,2.15l3.28,3.28l1.22-1.21l-1.22,1.21l0,0l-2.36,2.4l2.26,2.16l2.32-2.36l0,0
			l0,0l3.28,3.28l2.1-2.08l-3.26-3.3l2.37-2.34l2.37-2.36l0,0l1.06-1.07l-1.06,1.07l3.29,3.28l2.15-2.18l-3.31-3.24
			c0.78-0.81,1.57-1.6,2.33-2.42c0.77-0.82,1.55-1.62,2.3-2.46l3.41,3.14c0.7-0.77,1.4-1.52,2.09-2.31l-3.47-3.08
			c0.74-0.85,1.5-1.68,2.21-2.55c0.72-0.87,1.46-1.71,2.15-2.61l3.61,2.91c0.65-0.83,1.32-1.63,1.95-2.49l-3.69-2.81
			c0.67-0.91,1.37-1.79,2.01-2.72c0.64-0.93,1.31-1.84,1.92-2.8l3.87,2.56l1.73-2.72l-3.96-2.42l1.71-2.94l1.58-3.03l0,0l0.64-1.4
			l-0.64,1.4l4.17,2.04l1.38-3.01l-4.26-1.83c0.44-1.05,0.84-2.13,1.26-3.19c0.38-1.08,0.71-2.18,1.06-3.28l0,0l0,0l4.46,1.28
			c0.31-1.09,0.55-2.2,0.82-3.3l-4.53-0.98c0.27-1.12,0.4-2.27,0.61-3.4C208.87,478.44,208.9,477.28,209.02,476.13z M199.15,446.79
			c-0.31-0.41-0.65-0.79-0.97-1.19h0C198.5,446,198.84,446.38,199.15,446.79z M175.08,530.85L175.08,530.85l-1.06,1.05
			L175.08,530.85z M187.6,518c-0.34,0.37-0.68,0.75-1.02,1.12l0,0C186.92,518.75,187.26,518.37,187.6,518z M194.85,509.33
			L194.85,509.33c-0.03,0.04-0.07,0.09-0.1,0.13C194.79,509.42,194.82,509.38,194.85,509.33z M200.44,501.24L200.44,501.24
			l-1.22,1.91L200.44,501.24z M209.05,473.01L209.05,473.01c0,0.26,0,0.52,0,0.78C209.05,473.53,209.05,473.27,209.05,473.01z"/>
		<rect x="144.13" y="393.67" width="4.79" height="2.83"/>
		<rect x="144.13" y="412.16" width="4.79" height="2.83"/>
		<polygon points="130.43,424.24 130.43,425.86 130.43,430.65 125.65,430.65 125.65,433.48 130.43,433.48 130.43,438.27 
			133.27,438.27 133.27,433.48 138.06,433.48 138.06,430.65 133.27,430.65 133.27,425.86 133.27,425.86 133.27,424.24 		"/>
		<rect x="121.19" y="424.24" width="2.83" height="4.79"/>
		<rect x="139.68" y="424.24" width="2.83" height="4.79"/>
		<polygon points="107.16,396.51 111.95,396.51 111.95,401.3 111.95,402.92 110.32,402.92 110.32,402.92 105.54,402.92 
			105.54,402.92 105.54,398.13 102.7,398.13 102.7,402.92 102.7,402.92 97.92,402.92 97.92,405.75 102.7,405.75 102.7,410.54 
			105.54,410.54 105.54,405.75 110.32,405.75 111.95,405.75 111.95,407.37 111.95,412.16 107.16,412.16 107.16,415 111.95,415 
			111.95,419.78 114.78,419.78 114.78,415 119.57,415 119.57,412.16 114.78,412.16 114.78,407.37 114.78,407.37 114.78,405.75 
			116.4,405.75 121.19,405.75 121.19,410.54 124.02,410.54 124.02,405.75 128.81,405.75 130.43,405.75 130.43,407.37 130.43,412.16 
			125.65,412.16 125.65,415 130.43,415 130.43,419.78 130.43,421.41 128.81,421.41 128.81,421.41 124.02,421.41 124.02,421.41 
			124.02,416.62 121.19,416.62 121.19,421.41 121.19,421.41 116.4,421.41 116.4,424.24 121.19,424.24 121.19,424.24 124.02,424.24 
			124.02,424.24 128.81,424.24 128.81,424.24 130.43,424.24 133.27,424.24 134.89,424.24 134.89,424.24 139.68,424.24 
			139.68,424.24 142.51,424.24 142.51,424.24 147.3,424.24 147.3,421.41 142.51,421.41 142.51,421.41 142.51,416.62 139.68,416.62 
			139.68,421.41 139.68,421.41 134.89,421.41 134.89,421.41 133.27,421.41 133.27,419.78 133.27,419.78 133.27,415 138.06,415 
			138.06,412.16 133.27,412.16 133.27,407.37 133.27,407.37 133.27,405.75 134.89,405.75 139.68,405.75 139.68,410.54 
			142.51,410.54 142.51,405.75 147.3,405.75 148.92,405.75 148.92,407.37 148.92,407.37 148.92,412.16 148.92,415 148.92,419.78 
			151.76,419.78 151.76,415 156.54,415 156.54,412.16 151.76,412.16 151.76,407.37 151.76,405.75 153.38,405.75 158.17,405.75 
			158.17,410.54 161,410.54 161,405.75 165.79,405.75 165.79,402.92 161,402.92 161,402.92 161,398.13 158.17,398.13 158.17,402.92 
			158.17,402.92 153.38,402.92 153.38,402.92 151.76,402.92 151.76,401.3 151.76,396.51 156.54,396.51 156.54,393.67 151.76,393.67 
			151.76,388.89 148.92,388.89 148.92,393.67 148.92,396.51 148.92,401.3 148.92,401.3 148.92,402.92 147.3,402.92 147.3,402.92 
			142.51,402.92 142.51,402.92 142.51,398.13 139.68,398.13 139.68,402.92 139.68,402.92 134.89,402.92 134.89,402.92 
			133.27,402.92 133.27,401.3 133.27,401.3 133.27,396.51 138.06,396.51 138.06,393.67 133.27,393.67 133.27,388.89 133.27,388.89 
			133.27,387.26 134.89,387.26 139.68,387.26 139.68,392.05 142.51,392.05 142.51,387.26 147.3,387.26 147.3,384.43 142.51,384.43 
			142.51,379.64 139.68,379.64 139.68,384.43 134.89,384.43 133.27,384.43 133.27,382.81 133.27,382.81 133.27,378.02 
			138.06,378.02 138.06,375.19 133.27,375.19 133.27,370.4 130.43,370.4 130.43,375.19 125.65,375.19 125.65,378.02 130.43,378.02 
			130.43,382.81 130.43,384.43 128.81,384.43 124.02,384.43 124.02,379.64 121.19,379.64 121.19,384.43 116.4,384.43 116.4,387.26 
			121.19,387.26 121.19,392.05 124.02,392.05 124.02,387.26 128.81,387.26 130.43,387.26 130.43,388.89 130.43,393.67 
			125.65,393.67 125.65,396.51 130.43,396.51 130.43,401.3 130.43,402.92 128.81,402.92 128.81,402.92 124.02,402.92 124.02,402.92 
			124.02,398.13 121.19,398.13 121.19,402.92 121.19,402.92 116.4,402.92 116.4,402.92 114.78,402.92 114.78,401.3 114.78,401.3 
			114.78,396.51 119.57,396.51 119.57,393.67 114.78,393.67 114.78,388.89 111.95,388.89 111.95,393.67 107.16,393.67 		"/>
		<polygon points="125.65,363.5 130.43,363.5 130.43,368.29 133.27,368.29 133.27,363.5 138.06,363.5 138.06,360.67 133.27,360.67 
			133.27,355.88 130.43,355.88 130.43,360.67 125.65,360.67 		"/>
		<polygon points="121.55,359.66 124.39,359.66 124.39,354.87 129.17,354.87 129.17,352.04 124.39,352.04 124.39,352.04 
			124.39,347.25 121.55,347.25 121.55,352.04 121.55,352.04 116.76,352.04 116.76,354.87 121.55,354.87 		"/>
		<polygon points="139.32,359.66 142.15,359.66 142.15,354.87 146.94,354.87 146.94,352.04 142.15,352.04 142.15,352.04 
			142.15,347.25 139.32,347.25 139.32,352.04 139.32,352.04 134.53,352.04 134.53,354.87 139.32,354.87 		"/>
		<polygon points="170.15,396.51 174.94,396.51 174.94,393.67 170.15,393.67 170.15,393.67 170.15,388.89 167.32,388.89 
			167.32,393.67 167.32,396.51 167.32,401.3 170.15,401.3 		"/>
		<rect x="162.53" y="393.67" width="4.79" height="2.83"/>
		<polygon points="158.43,392.67 161.27,392.67 161.27,387.88 166.05,387.88 166.05,385.04 161.27,385.04 161.27,380.26 
			158.43,380.26 158.43,385.04 153.65,385.04 153.65,387.88 158.43,387.88 		"/>
		<polygon points="176.2,392.67 179.03,392.67 179.03,387.88 183.82,387.88 183.82,385.04 179.03,385.04 179.03,380.26 
			176.2,380.26 176.2,385.04 171.41,385.04 171.41,387.88 176.2,387.88 		"/>
		<polygon points="88.77,396.51 93.55,396.51 93.55,401.3 96.39,401.3 96.39,396.51 96.39,393.67 96.39,388.89 93.55,388.89 
			93.55,393.67 93.55,393.67 88.77,393.67 		"/>
		<rect x="96.39" y="393.67" width="4.79" height="2.83"/>
		<polygon points="102.44,392.67 105.27,392.67 105.27,387.88 110.06,387.88 110.06,385.04 105.27,385.04 105.27,380.26 
			102.44,380.26 102.44,385.04 97.65,385.04 97.65,387.88 102.44,387.88 		"/>
		<polygon points="84.67,392.67 87.5,392.67 87.5,387.88 92.29,387.88 92.29,385.04 87.5,385.04 87.5,380.26 84.67,380.26 
			84.67,385.04 79.88,385.04 79.88,387.88 84.67,387.88 		"/>
	</g>
</g>
<g>
</g>
<g>
</g>
<g>
</g>
<g>
</g>
<g>
</g>
<g>
</g>
<g>
</g>
<g>
</g>
<g>
</g>
<g>
</g>
<g>
</g>
<g>
</g>
<g>
</g>
<g>
</g>
<g>
</g>
</svg>
