<?xml version="1.0" encoding="utf-8"?>
<!-- Generator: Adobe Illustrator 27.2.0, SVG Export Plug-In . SVG Version: 6.00 Build 0)  -->
<svg version="1.1" id="Layer_1" xmlns="http://www.w3.org/2000/svg" xmlns:xlink="http://www.w3.org/1999/xlink" x="0px" y="0px"
	 viewBox="0 0 800 600" style="enable-background:new 0 0 800 600;" xml:space="preserve">
<g>
	<g>
		<g>
			<g>
				<g>
					<path d="M162.96,434.18V412.7l-10.74,10.74L162.96,434.18z"/>
					<path d="M175.38,423.44l-10.74-10.74v21.49L175.38,423.44z"/>
					<path d="M151.04,424.62l-10.74,10.74h21.49L151.04,424.62z"/>
					<path d="M152.22,448.96l10.74,10.74v-21.49L152.22,448.96z"/>
					<path d="M176.56,447.78l10.74-10.74h-21.49L176.56,447.78z"/>
					<path d="M161.78,437.04h-21.49l10.74,10.74L161.78,437.04z"/>
					<path d="M164.64,438.22v21.49l10.74-10.74L164.64,438.22z"/>
					<path d="M165.82,435.36h21.49l-10.74-10.74L165.82,435.36z"/>
				</g>
				
					<rect x="176.75" y="417.58" transform="matrix(-1 -1.224647e-16 1.224647e-16 -1 359.1724 840.8276)" width="5.67" height="5.67"/>
				
					<rect x="145.18" y="417.58" transform="matrix(-4.588170e-11 1 -1 -4.588170e-11 568.4241 272.4035)" width="5.67" height="5.67"/>
				<rect x="145.18" y="449.16" width="5.67" height="5.67"/>
				
					<rect x="176.75" y="449.16" transform="matrix(1.374839e-10 -1 1 1.374839e-10 -272.4035 631.5759)" width="5.67" height="5.67"/>
			</g>
			<g>
				<path d="M103.7,361.55H90.09l13.61,13.61V361.55z"/>
				<path d="M102.76,376.1l-13.61-13.61v13.61H102.76z"/>
				<g>
					<path d="M145.01,397.77l-19.64,19.64h19.64V397.77z"/>
					
						<rect x="129.41" y="401.81" transform="matrix(-1.836970e-16 1 -1 -1.836970e-16 536.8929 272.4035)" width="5.67" height="5.67"/>
				</g>
				<g>
					<path d="M129.24,382.01l-19.64,19.64h19.64V382.01z"/>
					
						<rect x="113.64" y="386.05" transform="matrix(-1.836970e-16 1 -1 -1.836970e-16 505.3616 272.4035)" width="5.67" height="5.67"/>
				</g>
				<g>
					<path d="M113.48,366.24l-19.64,19.64h19.64V366.24z"/>
				</g>
			</g>
			<g>
				<path d="M89.15,496.3v13.61l13.61-13.61H89.15z"/>
				<path d="M103.7,497.24l-13.61,13.61h13.61V497.24z"/>
				<g>
					<path d="M125.37,454.99l19.64,19.64v-19.64H125.37z"/>
					<rect x="129.41" y="464.92" width="5.67" height="5.67"/>
				</g>
				<g>
					<path d="M109.61,470.76l19.64,19.64v-19.64H109.61z"/>
					<rect x="113.64" y="480.69" width="5.67" height="5.67"/>
				</g>
				<g>
					<path d="M93.84,486.52l19.64,19.64v-19.64H93.84z"/>
				</g>
			</g>
			<g>
				<path d="M223.9,510.85h13.61l-13.61-13.61V510.85z"/>
				<path d="M224.83,496.3l13.61,13.61V496.3H224.83z"/>
				<g>
					<path d="M182.59,474.63l19.64-19.64h-19.64V474.63z"/>
					
						<rect x="192.52" y="464.92" transform="matrix(8.630880e-11 -1 1 8.630880e-11 -272.4035 663.1071)" width="5.67" height="5.67"/>
				</g>
				<g>
					<path d="M198.35,490.39l19.64-19.64h-19.64V490.39z"/>
					
						<rect x="208.28" y="480.69" transform="matrix(9.352791e-11 -1 1 9.352791e-11 -272.4035 694.6384)" width="5.67" height="5.67"/>
				</g>
				<g>
					<path d="M214.12,506.16l19.64-19.64h-19.64V506.16z"/>
				</g>
			</g>
			<g>
				<path d="M238.45,376.1v-13.61l-13.61,13.61H238.45z"/>
				<path d="M223.9,375.17l13.61-13.61H223.9V375.17z"/>
				<g>
					<path d="M202.23,417.41l-19.64-19.64v19.64H202.23z"/>
					
						<rect x="192.52" y="401.81" transform="matrix(-1 -1.321899e-10 1.321899e-10 -1 390.7036 809.2964)" width="5.67" height="5.67"/>
				</g>
				<g>
					<path d="M217.99,401.65l-19.64-19.64v19.64H217.99z"/>
					
						<rect x="208.28" y="386.05" transform="matrix(-1 -1.357196e-10 1.357196e-10 -1 422.2348 777.7652)" width="5.67" height="5.67"/>
				</g>
				<g>
					<path d="M233.76,385.88l-19.64-19.64v19.64H233.76z"/>
				</g>
			</g>
		</g>
		<g>
			<rect x="160.96" y="405.02" transform="matrix(0.7071 -0.7071 0.7071 0.7071 -240.4209 235.2805)" width="5.67" height="5.67"/>
			<g>
				
					<rect x="160.96" y="397.83" transform="matrix(6.123234e-17 -1 1 6.123234e-17 -236.8682 564.4647)" width="5.67" height="5.67"/>
				
					<rect x="166.63" y="392.16" transform="matrix(6.123234e-17 -1 1 6.123234e-17 -225.5296 564.4647)" width="5.67" height="5.67"/>
				<rect x="172.3" y="386.49" transform="matrix(6.123234e-17 -1 1 6.123234e-17 -214.191 564.4647)" width="5.67" height="5.67"/>
				<rect x="166.63" y="380.82" transform="matrix(6.123234e-17 -1 1 6.123234e-17 -214.191 553.126)" width="5.67" height="5.67"/>
				
					<rect x="160.96" y="375.15" transform="matrix(6.123234e-17 -1 1 6.123234e-17 -214.191 541.7875)" width="5.67" height="5.67"/>
				
					<rect x="155.29" y="369.49" transform="matrix(6.123234e-17 -1 1 6.123234e-17 -214.191 530.4489)" width="5.67" height="5.67"/>
				
					<rect x="149.62" y="363.82" transform="matrix(6.123234e-17 -1 1 6.123234e-17 -214.191 519.1103)" width="5.67" height="5.67"/>
				
					<rect x="143.96" y="358.15" transform="matrix(6.123234e-17 -1 1 6.123234e-17 -214.191 507.7717)" width="5.67" height="5.67"/>
				
					<rect x="138.29" y="352.48" transform="matrix(6.123234e-17 -1 1 6.123234e-17 -214.191 496.4331)" width="5.67" height="5.67"/>
				
					<rect x="177.97" y="380.82" transform="matrix(6.123234e-17 -1 1 6.123234e-17 -202.8524 564.4647)" width="5.67" height="5.67"/>
				
					<rect x="183.64" y="375.15" transform="matrix(6.123234e-17 -1 1 6.123234e-17 -191.5139 564.4647)" width="5.67" height="5.67"/>
				
					<rect x="189.31" y="369.49" transform="matrix(6.123234e-17 -1 1 6.123234e-17 -180.1753 564.4647)" width="5.67" height="5.67"/>
				
					<rect x="194.98" y="363.82" transform="matrix(6.123234e-17 -1 1 6.123234e-17 -168.8367 564.4647)" width="5.67" height="5.67"/>
				
					<rect x="189.31" y="358.15" transform="matrix(6.123234e-17 -1 1 6.123234e-17 -168.8367 553.126)" width="5.67" height="5.67"/>
				
					<rect x="194.98" y="352.48" transform="matrix(6.123234e-17 -1 1 6.123234e-17 -157.4981 553.126)" width="5.67" height="5.67"/>
				
					<rect x="155.29" y="392.16" transform="matrix(4.588158e-11 -1 1 4.588158e-11 -236.8682 553.126)" width="5.67" height="5.67"/>
				
					<rect x="160.96" y="386.49" transform="matrix(4.395601e-11 -1 1 4.395601e-11 -225.5296 553.126)" width="5.67" height="5.67"/>
				
					<rect x="149.62" y="386.49" transform="matrix(4.588158e-11 -1 1 4.588158e-11 -236.8682 541.7875)" width="5.67" height="5.67"/>
				
					<rect x="155.29" y="380.82" transform="matrix(4.395601e-11 -1 1 4.395601e-11 -225.5296 541.7875)" width="5.67" height="5.67"/>
				
					<rect x="166.63" y="369.49" transform="matrix(4.588158e-11 -1 1 4.588158e-11 -202.8524 541.7875)" width="5.67" height="5.67"/>
				
					<rect x="172.3" y="363.82" transform="matrix(4.411677e-11 -1 1 4.411677e-11 -191.5139 541.7875)" width="5.67" height="5.67"/>
				
					<rect x="177.97" y="358.15" transform="matrix(4.235196e-11 -1 1 4.235196e-11 -180.1753 541.7875)" width="5.67" height="5.67"/>
				
					<rect x="183.64" y="352.48" transform="matrix(4.588158e-11 -1 1 4.588158e-11 -168.8367 541.7875)" width="5.67" height="5.67"/>
				
					<rect x="143.96" y="380.82" transform="matrix(4.395601e-11 -1 1 4.395601e-11 -236.8682 530.4489)" width="5.67" height="5.67"/>
				
					<rect x="138.29" y="375.15" transform="matrix(4.588158e-11 -1 1 4.588158e-11 -236.8682 519.1103)" width="5.67" height="5.67"/>
				
					<rect x="132.62" y="369.49" transform="matrix(4.235196e-11 -1 1 4.235196e-11 -236.8682 507.7717)" width="5.67" height="5.67"/>
				
					<rect x="126.95" y="363.82" transform="matrix(4.748563e-11 -1 1 4.748563e-11 -236.8682 496.4331)" width="5.67" height="5.67"/>
				
					<rect x="132.62" y="358.15" transform="matrix(4.588158e-11 -1 1 4.588158e-11 -225.5296 496.4331)" width="5.67" height="5.67"/>
				
					<rect x="126.95" y="352.48" transform="matrix(4.748563e-11 -1 1 4.748563e-11 -225.5296 485.0946)" width="5.67" height="5.67"/>
				
					<rect x="158.92" y="353.27" transform="matrix(0.7071 -0.7071 0.7071 0.7071 -205.2726 220.7216)" style="fill:none;stroke:#000000;stroke-width:2;stroke-miterlimit:10;" width="9.76" height="9.76"/>
				<rect x="161.92" y="356.27" transform="matrix(0.7071 -0.7071 0.7071 0.7071 -205.2726 220.7216)" width="3.75" height="3.75"/>
				<g>
					<polygon points="155.45,341.59 155.45,335.19 163.18,342.92 163.18,349.6 					"/>
					<polygon points="172.14,341.59 172.14,335.19 164.42,342.92 164.42,349.6 					"/>
					<g>
						<rect x="160.96" y="333.74" width="5.67" height="5.67"/>
						<rect x="155.29" y="328.07" width="5.67" height="5.67"/>
						<rect x="166.63" y="328.07" width="5.67" height="5.67"/>
						<rect x="160.96" y="322.4" width="5.67" height="5.67"/>
					</g>
				</g>
				<g>
					<polyline points="139.27,364.95 139.27,368.87 149.74,379.34 153.69,379.38 					"/>
					<polyline points="139.27,364.95 143.19,364.95 153.66,375.42 153.69,379.38 					"/>
				</g>
				<g>
					<polyline points="188.33,364.95 188.33,368.87 177.85,379.34 173.9,379.38 					"/>
					<polyline points="188.33,364.95 184.4,364.95 173.93,375.42 173.9,379.38 					"/>
				</g>
			</g>
		</g>
		<g>
			<rect x="132.62" y="433.37" transform="matrix(-0.7071 -0.7071 0.7071 -0.7071 -77.213 840.4209)" width="5.67" height="5.67"/>
			<g>
				
					<rect x="125.43" y="433.37" transform="matrix(-1 -4.427715e-11 4.427715e-11 -1 256.5257 872.4036)" width="5.67" height="5.67"/>
				
					<rect x="119.76" y="427.7" transform="matrix(-1 -4.427715e-11 4.427715e-11 -1 245.1871 861.0649)" width="5.67" height="5.67"/>
				
					<rect x="114.09" y="422.03" transform="matrix(-1 -4.748569e-11 4.748569e-11 -1 233.8486 849.7264)" width="5.67" height="5.67"/>
				<rect x="108.42" y="427.7" transform="matrix(-1 -4.427715e-11 4.427715e-11 -1 222.51 861.0649)" width="5.67" height="5.67"/>
				
					<rect x="102.75" y="433.37" transform="matrix(-1 -4.556057e-11 4.556057e-11 -1 211.1714 872.4036)" width="5.67" height="5.67"/>
				
					<rect x="97.08" y="439.04" transform="matrix(-1 -4.556057e-11 4.556057e-11 -1 199.8328 883.7421)" width="5.67" height="5.67"/>
				
					<rect x="91.41" y="444.71" transform="matrix(-1 -4.748569e-11 4.748569e-11 -1 188.4942 895.0807)" width="5.67" height="5.67"/>
				
					<rect x="85.74" y="450.38" transform="matrix(-1 -4.556057e-11 4.556057e-11 -1 177.1557 906.4193)" width="5.67" height="5.67"/>
				
					<rect x="80.07" y="456.04" transform="matrix(-1 -4.556057e-11 4.556057e-11 -1 165.8171 917.7579)" width="5.67" height="5.67"/>
				
					<rect x="108.42" y="416.36" transform="matrix(-1 -4.748569e-11 4.748569e-11 -1 222.51 838.3878)" width="5.67" height="5.67"/>
				
					<rect x="102.75" y="410.69" transform="matrix(-1 -4.427715e-11 4.427715e-11 -1 211.1714 827.0492)" width="5.67" height="5.67"/>
				
					<rect x="97.08" y="405.02" transform="matrix(-1 -4.235247e-11 4.235247e-11 -1 199.8328 815.7106)" width="5.67" height="5.67"/>
				
					<rect x="91.41" y="399.35" transform="matrix(-1 -4.235247e-11 4.235247e-11 -1 188.4942 804.3721)" width="5.67" height="5.67"/>
				
					<rect x="85.74" y="405.02" transform="matrix(-1 -4.235247e-11 4.235247e-11 -1 177.1557 815.7106)" width="5.67" height="5.67"/>
				
					<rect x="80.07" y="399.35" transform="matrix(-1 -4.427715e-11 4.427715e-11 -1 165.8171 804.3721)" width="5.67" height="5.67"/>
				
					<rect x="119.76" y="439.04" transform="matrix(-1 -8.983804e-11 8.983804e-11 -1 245.1871 883.7421)" width="5.67" height="5.67"/>
				
					<rect x="114.09" y="433.37" transform="matrix(-1 -8.983804e-11 8.983804e-11 -1 233.8486 872.4036)" width="5.67" height="5.67"/>
				
					<rect x="114.09" y="444.71" transform="matrix(-1 -9.176317e-11 9.176317e-11 -1 233.8486 895.0807)" width="5.67" height="5.67"/>
				
					<rect x="108.42" y="439.04" transform="matrix(-1 -8.983804e-11 8.983804e-11 -1 222.51 883.7421)" width="5.67" height="5.67"/>
				
					<rect x="97.08" y="427.7" transform="matrix(-1 -8.983804e-11 8.983804e-11 -1 199.8328 861.0649)" width="5.67" height="5.67"/>
				
					<rect x="91.41" y="422.03" transform="matrix(-1 -9.047975e-11 9.047975e-11 -1 188.4942 849.7264)" width="5.67" height="5.67"/>
				
					<rect x="85.74" y="416.36" transform="matrix(-1 -8.855462e-11 8.855462e-11 -1 177.1557 838.3878)" width="5.67" height="5.67"/>
				
					<rect x="80.07" y="410.69" transform="matrix(-1 -8.791291e-11 8.791291e-11 -1 165.8171 827.0492)" width="5.67" height="5.67"/>
				
					<rect x="108.42" y="450.38" transform="matrix(-1 -8.791291e-11 8.791291e-11 -1 222.51 906.4193)" width="5.67" height="5.67"/>
				
					<rect x="102.75" y="456.04" transform="matrix(-1 -8.983804e-11 8.983804e-11 -1 211.1714 917.7579)" width="5.67" height="5.67"/>
				
					<rect x="97.08" y="461.71" transform="matrix(-1 -9.176317e-11 9.176317e-11 -1 199.8328 929.0964)" width="5.67" height="5.67"/>
				
					<rect x="91.41" y="467.38" transform="matrix(-1 -8.823355e-11 8.823355e-11 -1 188.4942 940.4351)" width="5.67" height="5.67"/>
				
					<rect x="85.74" y="461.71" transform="matrix(-1 -8.983804e-11 8.983804e-11 -1 177.1557 929.0964)" width="5.67" height="5.67"/>
				
					<rect x="80.07" y="467.38" transform="matrix(-1 -9.176317e-11 9.176317e-11 -1 165.8171 940.4351)" width="5.67" height="5.67"/>
				
					<rect x="80.86" y="431.32" transform="matrix(-0.7071 -0.7071 0.7071 -0.7071 -162.0685 805.2726)" style="fill:none;stroke:#000000;stroke-width:2;stroke-miterlimit:10;" width="9.76" height="9.76"/>
				
					<rect x="83.87" y="434.33" transform="matrix(-0.7071 -0.7071 0.7071 -0.7071 -162.0685 805.2726)" width="3.75" height="3.75"/>
				<g>
					<polygon points="69.19,444.55 62.79,444.55 70.52,436.82 77.19,436.82 					"/>
					<polygon points="69.19,427.86 62.79,427.86 70.52,435.58 77.19,435.58 					"/>
					<g>
						
							<rect x="61.34" y="433.37" transform="matrix(4.395601e-11 -1 1 4.395601e-11 -372.0285 500.375)" width="5.67" height="5.67"/>
						
							<rect x="55.67" y="439.04" transform="matrix(4.588158e-11 -1 1 4.588158e-11 -383.3671 500.375)" width="5.67" height="5.67"/>
						
							<rect x="55.67" y="427.7" transform="matrix(4.588158e-11 -1 1 4.588158e-11 -372.0285 489.0364)" width="5.67" height="5.67"/>
						<rect x="50" y="433.37" transform="matrix(4.588158e-11 -1 1 4.588158e-11 -383.3671 489.0364)" width="5.67" height="5.67"/>
					</g>
				</g>
				<g>
					<polyline points="92.55,460.73 96.47,460.73 106.94,450.26 106.97,446.31 					"/>
					<polyline points="92.55,460.73 92.55,456.81 103.02,446.34 106.97,446.31 					"/>
				</g>
				<g>
					<polyline points="92.55,411.67 96.47,411.67 106.94,422.15 106.97,426.1 					"/>
					<polyline points="92.55,411.67 92.55,415.6 103.02,426.07 106.97,426.1 					"/>
				</g>
			</g>
		</g>
		<g>
			<rect x="160.96" y="461.71" transform="matrix(-0.7071 0.7071 -0.7071 -0.7071 608.1072 677.213)" width="5.67" height="5.67"/>
			<g>
				
					<rect x="160.96" y="468.9" transform="matrix(-9.176322e-11 1 -1 -9.176322e-11 635.5353 307.9389)" width="5.67" height="5.67"/>
				
					<rect x="155.29" y="474.57" transform="matrix(-9.160246e-11 1 -1 -9.160246e-11 635.5353 319.2775)" width="5.67" height="5.67"/>
				
					<rect x="149.62" y="480.24" transform="matrix(-8.662955e-11 1 -1 -8.662955e-11 635.5353 330.6161)" width="5.67" height="5.67"/>
				
					<rect x="155.29" y="485.91" transform="matrix(-8.983765e-11 1 -1 -8.983765e-11 646.874 330.6161)" width="5.67" height="5.67"/>
				
					<rect x="160.96" y="491.58" transform="matrix(-9.176322e-11 1 -1 -9.176322e-11 658.2125 330.6161)" width="5.67" height="5.67"/>
				
					<rect x="166.63" y="497.25" transform="matrix(-9.015917e-11 1 -1 -9.015917e-11 669.5511 330.6161)" width="5.67" height="5.67"/>
				
					<rect x="172.3" y="502.92" transform="matrix(-8.662955e-11 1 -1 -8.662955e-11 680.8897 330.6161)" width="5.67" height="5.67"/>
				
					<rect x="177.97" y="508.59" transform="matrix(-9.160246e-11 1 -1 -9.160246e-11 692.2283 330.6161)" width="5.67" height="5.67"/>
				
					<rect x="183.64" y="514.26" transform="matrix(-9.176322e-11 1 -1 -9.176322e-11 703.5668 330.6161)" width="5.67" height="5.67"/>
				
					<rect x="143.96" y="485.91" transform="matrix(-8.983765e-11 1 -1 -8.983765e-11 635.5353 341.9547)" width="5.67" height="5.67"/>
				
					<rect x="138.29" y="491.58" transform="matrix(-9.160246e-11 1 -1 -9.160246e-11 635.5353 353.2932)" width="5.67" height="5.67"/>
				
					<rect x="132.62" y="497.25" transform="matrix(-9.160246e-11 1 -1 -9.160246e-11 635.5353 364.6318)" width="5.67" height="5.67"/>
				
					<rect x="126.95" y="502.92" transform="matrix(-9.015917e-11 1 -1 -9.015917e-11 635.5353 375.9704)" width="5.67" height="5.67"/>
				
					<rect x="132.62" y="508.59" transform="matrix(-8.662955e-11 1 -1 -8.662955e-11 646.874 375.9704)" width="5.67" height="5.67"/>
				
					<rect x="126.95" y="514.26" transform="matrix(-9.160246e-11 1 -1 -9.160246e-11 646.874 387.309)" width="5.67" height="5.67"/>
				
					<rect x="166.63" y="474.57" transform="matrix(-1.341151e-10 1 -1 -1.341151e-10 646.874 307.9389)" width="5.67" height="5.67"/>
				
					<rect x="160.96" y="480.24" transform="matrix(-1.357192e-10 1 -1 -1.357192e-10 646.874 319.2775)" width="5.67" height="5.67"/>
				
					<rect x="172.3" y="480.24" transform="matrix(-1.374840e-10 1 -1 -1.374840e-10 658.2125 307.9389)" width="5.67" height="5.67"/>
				
					<rect x="166.63" y="485.91" transform="matrix(-1.357192e-10 1 -1 -1.357192e-10 658.2125 319.2775)" width="5.67" height="5.67"/>
				
					<rect x="155.29" y="497.25" transform="matrix(-1.305855e-10 1 -1 -1.305855e-10 658.2125 341.9547)" width="5.67" height="5.67"/>
				
					<rect x="149.62" y="502.92" transform="matrix(-1.357192e-10 1 -1 -1.357192e-10 658.2125 353.2932)" width="5.67" height="5.67"/>
				
					<rect x="143.96" y="508.59" transform="matrix(-1.358799e-10 1 -1 -1.358799e-10 658.2125 364.6318)" width="5.67" height="5.67"/>
				
					<rect x="138.29" y="514.26" transform="matrix(-1.357192e-10 1 -1 -1.357192e-10 658.2125 375.9704)" width="5.67" height="5.67"/>
				
					<rect x="177.97" y="485.91" transform="matrix(-1.376447e-10 1 -1 -1.376447e-10 669.5511 307.9389)" width="5.67" height="5.67"/>
				
					<rect x="183.64" y="491.58" transform="matrix(-1.374840e-10 1 -1 -1.374840e-10 680.8897 307.9389)" width="5.67" height="5.67"/>
				
					<rect x="189.31" y="497.25" transform="matrix(-1.358799e-10 1 -1 -1.358799e-10 692.2283 307.9389)" width="5.67" height="5.67"/>
				
					<rect x="194.98" y="502.92" transform="matrix(-1.325111e-10 1 -1 -1.325111e-10 703.5668 307.9389)" width="5.67" height="5.67"/>
				
					<rect x="189.31" y="508.59" transform="matrix(-1.305855e-10 1 -1 -1.305855e-10 703.5668 319.2775)" width="5.67" height="5.67"/>
				
					<rect x="194.98" y="514.26" transform="matrix(-1.357192e-10 1 -1 -1.357192e-10 714.9055 319.2775)" width="5.67" height="5.67"/>
				
					<rect x="158.92" y="509.38" transform="matrix(-0.7071 0.7071 -0.7071 -0.7071 643.2556 762.0685)" style="fill:none;stroke:#000000;stroke-width:2;stroke-miterlimit:10;" width="9.76" height="9.76"/>
				
					<rect x="161.92" y="512.38" transform="matrix(-0.7071 0.7071 -0.7071 -0.7071 643.2556 762.0685)" width="3.75" height="3.75"/>
				<g>
					<polygon points="172.14,530.81 172.14,537.21 164.42,529.48 164.42,522.81 					"/>
					<polygon points="155.45,530.81 155.45,537.21 163.18,529.48 163.18,522.81 					"/>
					<g>
						
							<rect x="160.96" y="532.99" transform="matrix(-1 -8.983804e-11 8.983804e-11 -1 327.5965 1071.6536)" width="5.67" height="5.67"/>
						
							<rect x="166.63" y="538.66" transform="matrix(-1 -8.983804e-11 8.983804e-11 -1 338.935 1082.9921)" width="5.67" height="5.67"/>
						
							<rect x="155.29" y="538.66" transform="matrix(-1 -9.015867e-11 9.015867e-11 -1 316.2579 1082.9921)" width="5.67" height="5.67"/>
						
							<rect x="160.96" y="544.33" transform="matrix(-1 -8.983804e-11 8.983804e-11 -1 327.5965 1094.3307)" width="5.67" height="5.67"/>
					</g>
				</g>
				<g>
					<polyline points="188.33,507.45 188.33,503.53 177.85,493.06 173.9,493.03 					"/>
					<polyline points="188.33,507.45 184.4,507.45 173.93,496.98 173.9,493.03 					"/>
				</g>
				<g>
					<polyline points="139.27,507.45 139.27,503.53 149.74,493.06 153.69,493.03 					"/>
					<polyline points="139.27,507.45 143.19,507.45 153.66,496.98 153.69,493.03 					"/>
				</g>
			</g>
		</g>
		<g>
			<rect x="189.31" y="433.37" transform="matrix(0.7071 0.7071 -0.7071 0.7071 364.7195 -8.1073)" width="5.67" height="5.67"/>
			<g>
				<rect x="196.5" y="433.37" width="5.67" height="5.67"/>
				<rect x="202.17" y="439.04" width="5.67" height="5.67"/>
				<rect x="207.84" y="444.71" width="5.67" height="5.67"/>
				<rect x="213.51" y="439.04" width="5.67" height="5.67"/>
				<rect x="219.18" y="433.37" width="5.67" height="5.67"/>
				<rect x="224.85" y="427.7" width="5.67" height="5.67"/>
				<rect x="230.51" y="422.03" width="5.67" height="5.67"/>
				<rect x="236.18" y="416.36" width="5.67" height="5.67"/>
				<rect x="241.85" y="410.69" width="5.67" height="5.67"/>
				<rect x="213.51" y="450.38" width="5.67" height="5.67"/>
				<rect x="219.18" y="456.04" width="5.67" height="5.67"/>
				<rect x="224.85" y="461.71" width="5.67" height="5.67"/>
				<rect x="230.51" y="467.38" width="5.67" height="5.67"/>
				<rect x="236.18" y="461.71" width="5.67" height="5.67"/>
				<rect x="241.85" y="467.38" width="5.67" height="5.67"/>
				<rect x="202.17" y="427.7" width="5.67" height="5.67"/>
				<rect x="207.84" y="433.37" width="5.67" height="5.67"/>
				<rect x="207.84" y="422.03" width="5.67" height="5.67"/>
				<rect x="213.51" y="427.7" width="5.67" height="5.67"/>
				<rect x="224.85" y="439.04" width="5.67" height="5.67"/>
				<rect x="230.51" y="444.71" width="5.67" height="5.67"/>
				<rect x="236.18" y="450.38" width="5.67" height="5.67"/>
				<rect x="241.85" y="456.04" width="5.67" height="5.67"/>
				<rect x="213.51" y="416.36" width="5.67" height="5.67"/>
				<rect x="219.18" y="410.69" width="5.67" height="5.67"/>
				<rect x="224.85" y="405.02" width="5.67" height="5.67"/>
				<rect x="230.51" y="399.35" width="5.67" height="5.67"/>
				<rect x="236.18" y="405.02" width="5.67" height="5.67"/>
				<rect x="241.85" y="399.35" width="5.67" height="5.67"/>
				
					<rect x="236.97" y="431.32" transform="matrix(0.7071 0.7071 -0.7071 0.7071 379.2784 -43.2555)" style="fill:none;stroke:#000000;stroke-width:2;stroke-miterlimit:10;" width="9.76" height="9.76"/>
				<rect x="239.98" y="434.33" transform="matrix(0.7071 0.7071 -0.7071 0.7071 379.2784 -43.2555)" width="3.75" height="3.75"/>
				<g>
					<polygon points="258.41,427.86 264.81,427.86 257.08,435.58 250.4,435.58 					"/>
					<polygon points="258.41,444.55 264.81,444.55 257.08,436.82 250.4,436.82 					"/>
					<g>
						
							<rect x="260.59" y="433.37" transform="matrix(-1.376447e-10 1 -1 -1.376447e-10 699.625 172.7785)" width="5.67" height="5.67"/>
						
							<rect x="266.26" y="427.7" transform="matrix(-1.357192e-10 1 -1 -1.357192e-10 699.625 161.44)" width="5.67" height="5.67"/>
						
							<rect x="266.26" y="439.04" transform="matrix(-1.392488e-10 1 -1 -1.392488e-10 710.9636 172.7785)" width="5.67" height="5.67"/>
						
							<rect x="271.93" y="433.37" transform="matrix(-1.392488e-10 1 -1 -1.392488e-10 710.9636 161.44)" width="5.67" height="5.67"/>
					</g>
				</g>
				<g>
					<polyline points="235.05,411.67 231.13,411.67 220.66,422.15 220.62,426.1 					"/>
					<polyline points="235.05,411.67 235.05,415.6 224.58,426.07 220.62,426.1 					"/>
				</g>
				<g>
					<polyline points="235.05,460.73 231.13,460.73 220.66,450.26 220.62,446.31 					"/>
					<polyline points="235.05,460.73 235.05,456.81 224.58,446.34 220.62,446.31 					"/>
				</g>
			</g>
		</g>
	</g>
</g>
<g>
</g>
<g>
</g>
<g>
</g>
<g>
</g>
<g>
</g>
<g>
</g>
<g>
</g>
<g>
</g>
<g>
</g>
<g>
</g>
<g>
</g>
<g>
</g>
<g>
</g>
<g>
</g>
<g>
</g>
</svg>
