<?xml version="1.0" encoding="utf-8"?>
<!-- Generator: Adobe Illustrator 27.2.0, SVG Export Plug-In . SVG Version: 6.00 Build 0)  -->
<svg version="1.1" id="Layer_1" xmlns="http://www.w3.org/2000/svg" xmlns:xlink="http://www.w3.org/1999/xlink" x="0px" y="0px"
	 viewBox="0 0 800 600" style="enable-background:new 0 0 800 600;" xml:space="preserve">
<g>
	<g>
		<g>
			<path d="M110.73,468.62l0.47,1.64v-8.72c-2.9-7.31-9.43-12.79-17.36-14.19c2.52-2.55,5.17-3.75,7.92-3.51
				c3.93,0.34,7.01,3.44,8.11,5.45l1.16,2.11l0.16-0.21v-5.53c-0.74-0.87-1.62-1.72-2.64-2.46c-0.58-2.82-1.14-7.42,2.64-11.38
				v-4.25c-5.94,4.32-6.54,9.87-6.17,13.75c-0.95-0.34-1.95-0.58-3-0.67c-3.02-0.27-7.59,0.63-12.15,6.32l0.02,0.02
				c-0.01,0-0.03,0-0.04,0v3.06c7.76,0.01,14.48,4.49,17.76,10.99C109.11,463.3,110.17,465.87,110.73,468.62z"/>
			<path d="M132.65,446.98l0.02-0.02c-4.56-5.7-9.12-6.59-12.15-6.32c-1.04,0.09-2.04,0.33-3,0.67c0.38-3.91-0.23-9.51-6.28-13.84
				l-0.03,0.05l-0.01-0.01v4.14c0,0,0-0.01,0.01-0.01c3.95,4,3.38,8.69,2.79,11.55c-1.08,0.79-2.03,1.7-2.8,2.63v5.17l0.32,0.4
				l1.16-2.11c1.1-2,4.18-5.11,8.11-5.45c2.74-0.24,5.4,0.96,7.92,3.51c-8.03,1.42-14.62,7.02-17.47,14.47
				c-0.01-0.03-0.03-0.06-0.04-0.1v8.55l0.47-1.65c0.65-3.19,1.97-6.13,3.84-8.65c3.46-5.91,9.85-9.9,17.18-9.92v-3.06
				C132.67,446.98,132.66,446.98,132.65,446.98z"/>
		</g>
		<g>
			<path d="M91.14,489.27l1.64-0.47h-8.72c-7.31,2.9-12.79,9.43-14.19,17.36c-2.55-2.52-3.75-5.17-3.51-7.92
				c0.34-3.93,3.44-7.01,5.45-8.11l2.11-1.16l-0.21-0.16h-5.53c-0.87,0.74-1.72,1.62-2.46,2.64c-2.82,0.58-7.42,1.14-11.38-2.64
				h-4.25c4.32,5.94,9.87,6.54,13.75,6.17c-0.34,0.95-0.58,1.95-0.67,3c-0.27,3.02,0.63,7.59,6.32,12.15l0.02-0.02
				c0,0.01,0,0.03,0,0.04h3.06c0.01-7.76,4.49-14.48,10.99-17.76C85.83,490.89,88.39,489.83,91.14,489.27z"/>
			<path d="M69.51,467.35l-0.02-0.02c-5.7,4.56-6.59,9.12-6.32,12.15c0.09,1.04,0.33,2.04,0.67,3c-3.91-0.38-9.51,0.23-13.84,6.28
				l0.05,0.03l-0.01,0.01h4.14c0,0-0.01,0-0.01-0.01c4-3.95,8.69-3.38,11.55-2.79c0.79,1.08,1.7,2.03,2.63,2.8h5.17l0.4-0.32
				l-2.11-1.16c-2-1.1-5.11-4.18-5.45-8.11c-0.24-2.74,0.96-5.4,3.51-7.92c1.42,8.03,7.02,14.62,14.47,17.47
				c-0.03,0.01-0.06,0.03-0.1,0.04h8.55l-1.65-0.47c-3.19-0.65-6.13-1.97-8.65-3.84c-5.91-3.46-9.9-9.85-9.92-17.18H69.5
				C69.5,467.33,69.51,467.34,69.51,467.35z"/>
		</g>
		<g>
			<path d="M111.79,508.86l-0.47-1.64v8.72c2.9,7.31,9.43,12.79,17.36,14.19c-2.52,2.55-5.17,3.75-7.92,3.51
				c-3.93-0.34-7.01-3.44-8.11-5.45l-1.16-2.11l-0.16,0.21v5.53c0.74,0.87,1.62,1.72,2.64,2.46c0.58,2.82,1.14,7.42-2.64,11.38v4.25
				c5.94-4.32,6.54-9.87,6.17-13.75c0.95,0.34,1.95,0.58,3,0.67c3.02,0.27,7.59-0.63,12.15-6.32l-0.02-0.02c0.01,0,0.03,0,0.04,0
				v-3.06c-7.76-0.01-14.48-4.49-17.76-10.99C113.41,514.17,112.35,511.61,111.79,508.86z"/>
			<path d="M89.88,530.49l-0.02,0.02c4.56,5.7,9.12,6.59,12.15,6.32c1.04-0.09,2.04-0.33,3-0.67c-0.38,3.91,0.23,9.51,6.28,13.84
				l0.03-0.05l0.01,0.01v-4.14c0,0,0,0.01-0.01,0.01c-3.95-4-3.38-8.69-2.79-11.55c1.08-0.79,2.03-1.7,2.8-2.63v-5.17l-0.32-0.4
				l-1.16,2.11c-1.1,2-4.18,5.11-8.11,5.45c-2.74,0.24-5.4-0.96-7.92-3.51c8.03-1.42,14.62-7.02,17.47-14.47
				c0.01,0.03,0.03,0.06,0.04,0.1v-8.55l-0.47,1.65c-0.65,3.19-1.97,6.13-3.84,8.65c-3.46,5.91-9.85,9.9-17.18,9.92v3.06
				C89.85,530.5,89.86,530.49,89.88,530.49z"/>
		</g>
		<g>
			<path d="M131.38,488.21l-1.64,0.47h8.72c7.31-2.9,12.79-9.43,14.19-17.36c2.55,2.52,3.75,5.17,3.51,7.92
				c-0.34,3.93-3.44,7.01-5.45,8.11l-2.11,1.16l0.21,0.16h5.53c0.87-0.74,1.72-1.62,2.46-2.64c2.82-0.58,7.42-1.14,11.38,2.64h4.25
				c-4.32-5.94-9.87-6.54-13.75-6.17c0.34-0.95,0.58-1.95,0.67-3c0.27-3.02-0.63-7.59-6.32-12.15l-0.02,0.02c0-0.01,0-0.03,0-0.04
				h-3.06c-0.01,7.76-4.49,14.48-10.99,17.76C136.7,486.59,134.13,487.65,131.38,488.21z"/>
			<path d="M153.02,510.12l0.02,0.02c5.7-4.56,6.59-9.12,6.32-12.15c-0.09-1.04-0.33-2.04-0.67-3c3.91,0.38,9.51-0.23,13.84-6.28
				l-0.05-0.03l0.01-0.01h-4.14c0,0,0.01,0,0.01,0.01c-4,3.95-8.69,3.38-11.55,2.79c-0.79-1.08-1.7-2.03-2.63-2.8h-5.17l-0.4,0.32
				l2.11,1.16c2,1.1,5.11,4.18,5.45,8.11c0.24,2.74-0.96,5.4-3.51,7.92c-1.42-8.03-7.02-14.62-14.47-17.47
				c0.03-0.01,0.06-0.03,0.1-0.04h-8.55l1.65,0.47c3.19,0.65,6.13,1.97,8.65,3.84c5.91,3.46,9.9,9.85,9.92,17.18h3.06
				C153.02,510.15,153.02,510.14,153.02,510.12z"/>
		</g>
		<g>
			<g>
				<path d="M125.93,488.74c0-8.08-6.58-14.66-14.66-14.66s-14.66,6.58-14.66,14.66c0,8.08,6.58,14.66,14.66,14.66
					S125.93,496.82,125.93,488.74z M111.27,500.43c-6.45,0-11.69-5.25-11.69-11.69c0-6.45,5.25-11.69,11.69-11.69
					c6.45,0,11.69,5.25,11.69,11.69C122.97,495.19,117.72,500.43,111.27,500.43z"/>
				<path d="M111.27,484.27c-2.46,0-4.47,2-4.47,4.47c0,2.46,2,4.46,4.47,4.46c2.46,0,4.47-2,4.47-4.46
					C115.74,486.28,113.74,484.27,111.27,484.27z M111.27,490.24c-0.83,0-1.5-0.67-1.5-1.5c0-0.83,0.67-1.5,1.5-1.5
					c0.83,0,1.5,0.67,1.5,1.5C112.77,489.57,112.1,490.24,111.27,490.24z"/>
			</g>
			<g>
				<path d="M111.27,508.97c-11.16,0-20.23-9.08-20.23-20.23s9.08-20.23,20.23-20.23s20.23,9.08,20.23,20.23
					S122.43,508.97,111.27,508.97z M111.27,471.29c-9.62,0-17.45,7.83-17.45,17.45c0,9.62,7.83,17.45,17.45,17.45
					s17.45-7.83,17.45-17.45C128.73,479.12,120.9,471.29,111.27,471.29z"/>
			</g>
		</g>
	</g>
</g>
<g>
</g>
<g>
</g>
<g>
</g>
<g>
</g>
<g>
</g>
<g>
</g>
<g>
</g>
<g>
</g>
<g>
</g>
<g>
</g>
<g>
</g>
<g>
</g>
<g>
</g>
<g>
</g>
<g>
</g>
</svg>
