<?xml version="1.0" encoding="utf-8"?>
<!-- Generator: Adobe Illustrator 27.2.0, SVG Export Plug-In . SVG Version: 6.00 Build 0)  -->
<svg version="1.1" id="Layer_1" xmlns="http://www.w3.org/2000/svg" xmlns:xlink="http://www.w3.org/1999/xlink" x="0px" y="0px"
	 viewBox="0 0 800 600" style="enable-background:new 0 0 800 600;" xml:space="preserve">
<g>
	<g>
		<g>
			<circle style="fill:none;stroke:#000000;stroke-width:3;stroke-miterlimit:10;" cx="273.79" cy="536.17" r="12.33"/>
			<circle cx="273.79" cy="536.17" r="3.06"/>
		</g>
		<g>
			<g>
				<path d="M273.79,474.83c13.02,11,13.02,27.54,0,46.89v2.59c15.05-21.27,15.04-39.51,0-51.37V474.83z"/>
				<path d="M273.79,474.83c-13.02,11-13.02,27.54,0,46.89v2.59c-15.05-21.27-15.04-39.51,0-51.37V474.83z"/>
			</g>
			<path style="fill:none;stroke:#000000;stroke-width:2;stroke-miterlimit:10;" d="M273.6,523.67
				c25.18-7.37,31.17-22.89,27.4-32.39c-5.77,0-11.42-0.9-17.11,8.93"/>
			<path style="fill:none;stroke:#000000;stroke-width:2;stroke-miterlimit:10;" d="M273.98,523.67
				c-25.18-7.37-31.17-22.89-27.4-32.39c5.77,0,11.42-0.9,17.11,8.93"/>
		</g>
	</g>
	<g>
		<g>
			<circle style="fill:none;stroke:#000000;stroke-width:3;stroke-miterlimit:10;" cx="273.79" cy="450.12" r="12.33"/>
			<circle cx="273.79" cy="450.12" r="3.06"/>
		</g>
		<g>
			<g>
				<path d="M273.79,388.78c13.02,11,13.02,27.54,0,46.89v2.59c15.05-21.27,15.04-39.51,0-51.37V388.78z"/>
				<path d="M273.79,388.78c-13.02,11-13.02,27.54,0,46.89v2.59c-15.05-21.27-15.04-39.51,0-51.37V388.78z"/>
			</g>
			<path style="fill:none;stroke:#000000;stroke-width:2;stroke-miterlimit:10;" d="M273.6,437.63
				c25.18-7.37,31.17-22.89,27.4-32.39c-5.77,0-11.42-0.9-17.11,8.93"/>
			<path style="fill:none;stroke:#000000;stroke-width:2;stroke-miterlimit:10;" d="M273.98,437.63
				c-25.18-7.37-31.17-22.89-27.4-32.39c5.77,0,11.42-0.9,17.11,8.93"/>
		</g>
	</g>
	<g>
		<g>
			<circle style="fill:none;stroke:#000000;stroke-width:3;stroke-miterlimit:10;" cx="401" cy="515.24" r="12.33"/>
			<circle cx="401" cy="515.24" r="3.06"/>
		</g>
		<g>
			<circle style="fill:none;stroke:#000000;stroke-width:3;stroke-miterlimit:10;" cx="449.25" cy="448.19" r="12.33"/>
			<circle cx="449.25" cy="448.19" r="3.06"/>
		</g>
		<g>
			<g>
				<path d="M465,499.79c-4.37,6.77-10.59,11.51-18.16,13.77c-8.64,2.58-18.47,1.62-27.99-2.63l-4.7,1.13
					c11.22,5.89,23.13,7.43,33.56,4.32c9.27-2.76,16.69-8.85,21.5-17.6L465,499.79z"/>
				<path d="M465,499.79c-6.98-4.04-14.68-5.42-22.44-3.97c-8.87,1.65-17.18,6.97-23.72,15.11l-4.7,1.13
					c7.3-10.36,17.2-17.16,27.91-19.15c9.51-1.77,18.89,0.27,27.16,5.86L465,499.79z"/>
			</g>
			<g>
				<path style="fill:none;stroke:#000000;stroke-width:3;stroke-miterlimit:10;" d="M414.36,512c11.81,35.56,34,35.2,34,35.2
					c8.57-8.12-3.45-20.87-3.45-20.87c19.33,14.47,32.17,5.92,32.17,5.92c-0.11-11.26-11.17-15.4-11.17-15.4
					c20.71-2.19,26.08-16.53,31.28-25.6"/>
				<path style="fill:none;stroke:#000000;stroke-width:3;stroke-miterlimit:10;" d="M414.36,512
					c-5.69-37.03,14.21-46.83,14.21-46.83c11.33,3.32,6.44,20.15,6.44,20.15c10.61-21.69,25.94-19.93,25.94-19.93
					c5.04,10.07-2.92,18.8-2.92,18.8c19.44-7.49,30.56,2.84,39.55,8.16"/>
			</g>
		</g>
		<g>
			<g>
				<path d="M337,499.79c4.37,6.77,10.59,11.51,18.16,13.77c8.64,2.58,18.47,1.62,27.99-2.63l4.7,1.13
					c-11.22,5.89-23.13,7.43-33.56,4.32c-9.27-2.76-16.69-8.85-21.5-17.6L337,499.79z"/>
				<path d="M337,499.79c6.98-4.04,14.68-5.42,22.44-3.97c8.87,1.65,17.18,6.97,23.72,15.11l4.7,1.13
					c-7.3-10.36-17.2-17.16-27.91-19.15c-9.51-1.77-18.89,0.27-27.16,5.86L337,499.79z"/>
			</g>
			<g>
				<path style="fill:none;stroke:#000000;stroke-width:3;stroke-miterlimit:10;" d="M387.64,512c-11.81,35.56-34,35.2-34,35.2
					c-8.57-8.12,3.45-20.87,3.45-20.87c-19.33,14.47-32.17,5.92-32.17,5.92c0.11-11.26,11.17-15.4,11.17-15.4
					c-20.71-2.19-26.08-16.53-31.28-25.6"/>
				<path style="fill:none;stroke:#000000;stroke-width:3;stroke-miterlimit:10;" d="M387.64,512
					c5.69-37.03-14.21-46.83-14.21-46.83c-11.33,3.32-6.44,20.15-6.44,20.15c-10.61-21.69-25.94-19.93-25.94-19.93
					c-5.04,10.07,2.92,18.8,2.92,18.8c-19.44-7.49-30.56,2.84-39.55,8.16"/>
			</g>
		</g>
		<path style="fill:none;stroke:#000000;stroke-width:2;stroke-miterlimit:10;" d="M390.15,501.39c12.37-3.28,15.9-40.6-11.78-44.45
			C397.73,474.13,390.15,501.39,390.15,501.39z"/>
		<path style="fill:none;stroke:#000000;stroke-width:2;stroke-miterlimit:10;" d="M411.84,501.39
			c-12.37-3.28-15.9-40.6,11.78-44.45C404.27,474.13,411.84,501.39,411.84,501.39z"/>
		<g>
			<g>
				<path d="M401,381.16v3.33c5.33,6.46,10.13,16.98,9.48,27.48c-0.47,7.57-3.66,14.02-9.48,19.21v2.89
					c7.2-5.79,11.13-13.17,11.68-21.97C413.44,399.91,407.25,387.68,401,381.16z"/>
				<path d="M401,381.16v3.33c-5.33,6.46-10.13,16.98-9.48,27.48c0.47,7.57,3.66,14.02,9.48,19.21v2.89
					c-7.2-5.79-11.13-13.17-11.68-21.97C388.56,399.91,394.75,387.68,401,381.16z"/>
			</g>
			<line style="fill:none;stroke:#000000;stroke-width:3;stroke-miterlimit:10;" x1="401" y1="431.18" x2="401" y2="403.69"/>
		</g>
		<g>
			<g>
				<path d="M437.56,410.36l-2.36,2.36c-0.8,8.34-4.84,19.17-12.73,26.13c-5.68,5.02-12.5,7.32-20.29,6.88l-2.05,2.05
					c9.18,1,17.19-1.44,23.79-7.27C433.1,432.41,437.37,419.39,437.56,410.36z"/>
				<path d="M437.56,410.36l-2.36,2.36c-8.34,0.8-19.17,4.84-26.13,12.73c-5.02,5.68-7.32,12.5-6.88,20.29l-2.05,2.05
					c-1-9.18,1.44-17.19,7.27-23.79C415.51,414.82,428.53,410.55,437.56,410.36z"/>
			</g>
			<line style="fill:none;stroke:#000000;stroke-width:3;stroke-miterlimit:10;" x1="402.19" y1="445.73" x2="412.6" y2="435.32"/>
		</g>
		<g>
			<g>
				<path d="M363.69,410.36l2.36,2.36c0.8,8.34,4.84,19.17,12.73,26.13c5.68,5.02,12.5,7.32,20.29,6.88l2.05,2.05
					c-9.18,1-17.19-1.44-23.79-7.27C368.14,432.41,363.87,419.39,363.69,410.36z"/>
				<path d="M363.69,410.36l2.36,2.36c8.34,0.8,19.17,4.84,26.13,12.73c5.02,5.68,7.32,12.5,6.88,20.29l2.05,2.05
					c1-9.18-1.44-17.19-7.27-23.79C385.74,414.82,372.72,410.55,363.69,410.36z"/>
			</g>
			<line style="fill:none;stroke:#000000;stroke-width:3;stroke-miterlimit:10;" x1="399.05" y1="445.73" x2="388.64" y2="435.32"/>
		</g>
		<g>
			<path style="fill:none;stroke:#000000;stroke-width:2;stroke-miterlimit:10;" d="M465.44,421.51
				c13.17,0.99,24.11,34.25-3.16,42.17C478.49,445,465.44,421.51,465.44,421.51z"/>
			<g>
				<g>
					<path d="M465.71,422.04c-14.76-8.51-24.21-19.3-22.75-22.75"/>
					<path d="M465.71,422.04c-8.51-14.76-19.3-24.21-22.75-22.75"/>
				</g>
				<g>
					<path d="M464.5,420.83c-8.03,3.19-17.56,2.5-18.25,0"/>
					<path d="M464.5,420.83c-8.03-3.19-17.56-2.5-18.25,0"/>
				</g>
				<g>
					<path d="M457.84,414.18c-8.03,3.19-17.56,2.5-18.25,0"/>
					<path d="M457.84,414.18c-8.03-3.19-17.56-2.5-18.25,0"/>
				</g>
				<g>
					<path d="M464.5,420.83c3.19-8.03,2.5-17.56,0-18.25"/>
					<path d="M464.5,420.83c-3.19-8.03-2.5-17.56,0-18.25"/>
				</g>
				<g>
					<path d="M457.84,414.18c3.19-8.03,2.5-17.56,0-18.25"/>
					<path d="M457.84,414.18c-3.19-8.03-2.5-17.56,0-18.25"/>
				</g>
			</g>
		</g>
		<g>
			<circle style="fill:none;stroke:#000000;stroke-width:3;stroke-miterlimit:10;" cx="352.75" cy="448.19" r="12.33"/>
			<circle cx="352.75" cy="448.19" r="3.06"/>
		</g>
		<g>
			<path style="fill:none;stroke:#000000;stroke-width:2;stroke-miterlimit:10;" d="M336.56,421.51
				c-13.17,0.99-24.11,34.25,3.16,42.17C323.51,445,336.56,421.51,336.56,421.51z"/>
			<g>
				<g>
					<path d="M336.29,422.04c14.76-8.51,24.21-19.3,22.75-22.75"/>
					<path d="M336.29,422.04c8.51-14.76,19.3-24.21,22.75-22.75"/>
				</g>
				<g>
					<path d="M337.5,420.83c8.03,3.19,17.56,2.5,18.25,0"/>
					<path d="M337.5,420.83c8.03-3.19,17.56-2.5,18.25,0"/>
				</g>
				<g>
					<path d="M344.16,414.18c8.03,3.19,17.56,2.5,18.25,0"/>
					<path d="M344.16,414.18c8.03-3.19,17.56-2.5,18.25,0"/>
				</g>
				<g>
					<path d="M337.5,420.83c-3.19-8.03-2.5-17.56,0-18.25"/>
					<path d="M337.5,420.83c3.19-8.03,2.5-17.56,0-18.25"/>
				</g>
				<g>
					<path d="M344.16,414.18c-3.19-8.03-2.5-17.56,0-18.25"/>
					<path d="M344.16,414.18c3.19-8.03,2.5-17.56,0-18.25"/>
				</g>
			</g>
		</g>
	</g>
	<g>
		<g>
			<circle style="fill:none;stroke:#000000;stroke-width:3;stroke-miterlimit:10;" cx="146.58" cy="515.24" r="12.33"/>
			<circle cx="146.58" cy="515.24" r="3.06"/>
		</g>
		<g>
			<circle style="fill:none;stroke:#000000;stroke-width:3;stroke-miterlimit:10;" cx="98.33" cy="448.19" r="12.33"/>
			<circle cx="98.33" cy="448.19" r="3.06"/>
		</g>
		<g>
			<g>
				<path d="M82.58,499.79c4.37,6.77,10.59,11.51,18.16,13.77c8.64,2.58,18.47,1.62,27.99-2.63l4.7,1.13
					c-11.22,5.89-23.13,7.43-33.56,4.32c-9.27-2.76-16.69-8.85-21.5-17.6L82.58,499.79z"/>
				<path d="M82.58,499.79c6.98-4.04,14.68-5.42,22.44-3.97c8.87,1.65,17.18,6.97,23.72,15.11l4.7,1.13
					c-7.3-10.36-17.2-17.16-27.91-19.15c-9.51-1.77-18.89,0.27-27.16,5.86L82.58,499.79z"/>
			</g>
			<g>
				<path style="fill:none;stroke:#000000;stroke-width:3;stroke-miterlimit:10;" d="M133.22,512c-11.81,35.56-34,35.2-34,35.2
					c-8.57-8.12,3.45-20.87,3.45-20.87c-19.33,14.47-32.17,5.92-32.17,5.92c0.11-11.26,11.17-15.4,11.17-15.4
					c-20.71-2.19-26.08-16.53-31.28-25.6"/>
				<path style="fill:none;stroke:#000000;stroke-width:3;stroke-miterlimit:10;" d="M133.22,512
					c5.69-37.03-14.21-46.83-14.21-46.83c-11.33,3.32-6.44,20.15-6.44,20.15c-10.61-21.69-25.94-19.93-25.94-19.93
					c-5.04,10.07,2.92,18.8,2.92,18.8c-19.44-7.49-30.56,2.84-39.55,8.16"/>
			</g>
		</g>
		<g>
			<g>
				<path d="M210.58,499.79c-4.37,6.77-10.59,11.51-18.16,13.77c-8.64,2.58-18.47,1.62-27.99-2.63l-4.7,1.13
					c11.22,5.89,23.13,7.43,33.56,4.32c9.27-2.76,16.69-8.85,21.5-17.6L210.58,499.79z"/>
				<path d="M210.58,499.79c-6.98-4.04-14.68-5.42-22.44-3.97c-8.87,1.65-17.18,6.97-23.72,15.11l-4.7,1.13
					c7.3-10.36,17.2-17.16,27.91-19.15c9.51-1.77,18.89,0.27,27.16,5.86L210.58,499.79z"/>
			</g>
			<g>
				<path style="fill:none;stroke:#000000;stroke-width:3;stroke-miterlimit:10;" d="M159.94,512c11.81,35.56,34,35.2,34,35.2
					c8.57-8.12-3.45-20.87-3.45-20.87c19.33,14.47,32.17,5.92,32.17,5.92c-0.11-11.26-11.17-15.4-11.17-15.4
					c20.71-2.19,26.08-16.53,31.28-25.6"/>
				<path style="fill:none;stroke:#000000;stroke-width:3;stroke-miterlimit:10;" d="M159.94,512
					c-5.69-37.03,14.21-46.83,14.21-46.83c11.33,3.32,6.44,20.15,6.44,20.15c10.61-21.69,25.94-19.93,25.94-19.93
					c5.04,10.07-2.92,18.8-2.92,18.8c19.44-7.49,30.56,2.84,39.55,8.16"/>
			</g>
		</g>
		<path style="fill:none;stroke:#000000;stroke-width:2;stroke-miterlimit:10;" d="M157.43,501.39
			c-12.37-3.28-15.9-40.6,11.78-44.45C149.85,474.13,157.43,501.39,157.43,501.39z"/>
		<path style="fill:none;stroke:#000000;stroke-width:2;stroke-miterlimit:10;" d="M135.74,501.39c12.37-3.28,15.9-40.6-11.78-44.45
			C143.31,474.13,135.74,501.39,135.74,501.39z"/>
		<g>
			<g>
				<path d="M146.58,381.16v3.33c-5.33,6.46-10.13,16.98-9.48,27.48c0.47,7.57,3.66,14.02,9.48,19.21v2.89
					c-7.2-5.79-11.13-13.17-11.68-21.97C134.14,399.91,140.33,387.68,146.58,381.16z"/>
				<path d="M146.58,381.16v3.33c5.33,6.46,10.13,16.98,9.48,27.48c-0.47,7.57-3.66,14.02-9.48,19.21v2.89
					c7.2-5.79,11.13-13.17,11.68-21.97C159.02,399.91,152.83,387.68,146.58,381.16z"/>
			</g>
			<line style="fill:none;stroke:#000000;stroke-width:3;stroke-miterlimit:10;" x1="146.58" y1="431.18" x2="146.58" y2="403.69"/>
		</g>
		<g>
			<g>
				<path d="M110.02,410.36l2.36,2.36c0.8,8.34,4.84,19.17,12.73,26.13c5.68,5.02,12.5,7.32,20.29,6.88l2.05,2.05
					c-9.18,1-17.19-1.44-23.79-7.27C114.48,432.41,110.21,419.39,110.02,410.36z"/>
				<path d="M110.02,410.36l2.36,2.36c8.34,0.8,19.17,4.84,26.13,12.73c5.02,5.68,7.32,12.5,6.88,20.29l2.05,2.05
					c1-9.18-1.44-17.19-7.27-23.79C132.07,414.82,119.05,410.55,110.02,410.36z"/>
			</g>
			<line style="fill:none;stroke:#000000;stroke-width:3;stroke-miterlimit:10;" x1="145.39" y1="445.73" x2="134.98" y2="435.32"/>
		</g>
		<g>
			<g>
				<path d="M183.89,410.36l-2.36,2.36c-0.8,8.34-4.84,19.17-12.73,26.13c-5.68,5.02-12.5,7.32-20.29,6.88l-2.05,2.05
					c9.18,1,17.19-1.44,23.79-7.27C179.44,432.41,183.71,419.39,183.89,410.36z"/>
				<path d="M183.89,410.36l-2.36,2.36c-8.34,0.8-19.17,4.84-26.13,12.73c-5.02,5.68-7.32,12.5-6.88,20.29l-2.05,2.05
					c-1-9.18,1.44-17.19,7.27-23.79C161.84,414.82,174.86,410.55,183.89,410.36z"/>
			</g>
			<line style="fill:none;stroke:#000000;stroke-width:3;stroke-miterlimit:10;" x1="148.53" y1="445.73" x2="158.94" y2="435.32"/>
		</g>
		<g>
			<path style="fill:none;stroke:#000000;stroke-width:2;stroke-miterlimit:10;" d="M82.14,421.51
				c-13.17,0.99-24.11,34.25,3.16,42.17C69.09,445,82.14,421.51,82.14,421.51z"/>
			<g>
				<g>
					<path d="M81.87,422.04c14.76-8.51,24.21-19.3,22.75-22.75"/>
					<path d="M81.87,422.04c8.51-14.76,19.3-24.21,22.75-22.75"/>
				</g>
				<g>
					<path d="M83.08,420.83c8.03,3.19,17.56,2.5,18.25,0"/>
					<path d="M83.08,420.83c8.03-3.19,17.56-2.5,18.25,0"/>
				</g>
				<g>
					<path d="M89.74,414.18c8.03,3.19,17.56,2.5,18.25,0"/>
					<path d="M89.74,414.18c8.03-3.19,17.56-2.5,18.25,0"/>
				</g>
				<g>
					<path d="M83.08,420.83c-3.19-8.03-2.5-17.56,0-18.25"/>
					<path d="M83.08,420.83c3.19-8.03,2.5-17.56,0-18.25"/>
				</g>
				<g>
					<path d="M89.74,414.18c-3.19-8.03-2.5-17.56,0-18.25"/>
					<path d="M89.74,414.18c3.19-8.03,2.5-17.56,0-18.25"/>
				</g>
			</g>
		</g>
		<g>
			<circle style="fill:none;stroke:#000000;stroke-width:3;stroke-miterlimit:10;" cx="194.83" cy="448.19" r="12.33"/>
			<circle cx="194.83" cy="448.19" r="3.06"/>
		</g>
		<g>
			<path style="fill:none;stroke:#000000;stroke-width:2;stroke-miterlimit:10;" d="M211.02,421.51
				c13.17,0.99,24.11,34.25-3.16,42.17C224.07,445,211.02,421.51,211.02,421.51z"/>
			<g>
				<g>
					<path d="M211.29,422.04c-14.76-8.51-24.21-19.3-22.75-22.75"/>
					<path d="M211.29,422.04c-8.51-14.76-19.3-24.21-22.75-22.75"/>
				</g>
				<g>
					<path d="M210.08,420.83c-8.03,3.19-17.56,2.5-18.25,0"/>
					<path d="M210.08,420.83c-8.03-3.19-17.56-2.5-18.25,0"/>
				</g>
				<g>
					<path d="M203.42,414.18c-8.03,3.19-17.56,2.5-18.25,0"/>
					<path d="M203.42,414.18c-8.03-3.19-17.56-2.5-18.25,0"/>
				</g>
				<g>
					<path d="M210.08,420.83c3.19-8.03,2.5-17.56,0-18.25"/>
					<path d="M210.08,420.83c-3.19-8.03-2.5-17.56,0-18.25"/>
				</g>
				<g>
					<path d="M203.42,414.18c3.19-8.03,2.5-17.56,0-18.25"/>
					<path d="M203.42,414.18c-3.19-8.03-2.5-17.56,0-18.25"/>
				</g>
			</g>
		</g>
	</g>
</g>
<g>
</g>
<g>
</g>
<g>
</g>
<g>
</g>
<g>
</g>
<g>
</g>
<g>
</g>
<g>
</g>
<g>
</g>
<g>
</g>
<g>
</g>
<g>
</g>
<g>
</g>
<g>
</g>
<g>
</g>
</svg>
