<?xml version="1.0" encoding="utf-8"?>
<!-- Generator: Adobe Illustrator 27.2.0, SVG Export Plug-In . SVG Version: 6.00 Build 0)  -->
<svg version="1.1" id="Layer_1" xmlns="http://www.w3.org/2000/svg" xmlns:xlink="http://www.w3.org/1999/xlink" x="0px" y="0px"
	 viewBox="0 0 800 600" style="enable-background:new 0 0 800 600;" xml:space="preserve">
<g>
	<g>
		<path d="M178.74,421.26h-38.55v38.55h38.55V421.26z M175.74,439.04h-14.77v-14.77h14.77V439.04z M157.96,424.26v14.77h-14.77
			v-14.77H157.96z M143.19,442.04h14.77v14.77h-14.77V442.04z M160.96,456.81v-14.77h14.77v14.77H160.96z"/>
		<path d="M186.72,358.33l-27.26-27.26l-27.26,27.26l27.26,27.26L186.72,358.33z M149.02,370.9l10.45-10.45l10.45,10.45
			l-10.45,10.45L149.02,370.9z M172.03,368.78l-10.45-10.45l10.45-10.45l10.45,10.45L172.03,368.78z M169.91,345.76l-10.45,10.45
			l-10.45-10.45l10.45-10.45L169.91,345.76z M146.89,347.88l10.45,10.45l-10.45,10.45l-10.45-10.45L146.89,347.88z"/>
		<path d="M77.26,413.28L50,440.54l27.26,27.26l27.26-27.26L77.26,413.28z M100.27,440.54l-10.45,10.45l-10.45-10.45l10.45-10.45
			L100.27,440.54z M87.71,427.97l-10.45,10.45l-10.45-10.45l10.45-10.45L87.71,427.97z M64.69,430.09l10.45,10.45l-10.45,10.45
			l-10.45-10.45L64.69,430.09z M66.81,453.11l10.45-10.45l10.45,10.45l-10.45,10.45L66.81,453.11z"/>
		<path d="M132.21,522.74L159.46,550l27.26-27.26l-27.26-27.26L132.21,522.74z M169.91,510.17l-10.45,10.45l-10.45-10.45
			l10.45-10.45L169.91,510.17z M146.89,512.29l10.45,10.45l-10.45,10.45l-10.45-10.45L146.89,512.29z M149.02,535.31l10.45-10.45
			l10.45,10.45l-10.45,10.45L149.02,535.31z M172.03,533.19l-10.45-10.45l10.45-10.45l10.45,10.45L172.03,533.19z"/>
		<path d="M241.67,413.28l-27.26,27.26l27.26,27.26l27.26-27.26L241.67,413.28z M264.68,440.54l-10.45,10.45l-10.45-10.45
			l10.45-10.45L264.68,440.54z M252.12,427.97l-10.45,10.45l-10.45-10.45l10.45-10.45L252.12,427.97z M229.1,430.09l10.45,10.45
			l-10.45,10.45l-10.45-10.45L229.1,430.09z M231.22,453.11l10.45-10.45l10.45,10.45l-10.45,10.45L231.22,453.11z"/>
		<path d="M159.46,385.95L159.46,385.95L159.46,385.95c-8.95,0-16.24,7.28-16.24,16.24c0,8.95,7.28,16.24,16.24,16.24l0,0l0,0l0,0
			l0,0c8.95,0,16.24-7.28,16.24-16.24C175.7,393.23,168.42,385.95,159.46,385.95L159.46,385.95L159.46,385.95z M172.96,402.19
			c0,7.44-6.05,13.5-13.5,13.5s-13.5-6.06-13.5-13.5c0-7.44,6.05-13.5,13.5-13.5S172.96,394.75,172.96,402.19z"/>
		<path d="M121.11,424.3c-8.95,0-16.24,7.28-16.24,16.24l0,0v0l0,0l0,0c0,8.95,7.28,16.24,16.24,16.24s16.24-7.28,16.24-16.24l0,0
			l0,0v0l0,0C137.35,431.58,130.07,424.3,121.11,424.3z M121.11,454.03c-7.44,0-13.5-6.05-13.5-13.5c0-7.44,6.05-13.5,13.5-13.5
			s13.5,6.05,13.5,13.5C134.61,447.98,128.56,454.03,121.11,454.03z"/>
		<path d="M159.46,495.12L159.46,495.12L159.46,495.12c8.95,0,16.24-7.28,16.24-16.24c0-8.95-7.28-16.24-16.24-16.24l0,0l0,0l0,0
			l0,0c-8.95,0-16.24,7.28-16.24,16.24C143.23,487.84,150.51,495.12,159.46,495.12L159.46,495.12L159.46,495.12z M145.97,478.89
			c0-7.44,6.05-13.5,13.5-13.5s13.5,6.06,13.5,13.5c0,7.44-6.05,13.5-13.5,13.5S145.97,486.33,145.97,478.89z"/>
		<path d="M197.81,424.3c-8.95,0-16.24,7.28-16.24,16.24l0,0v0l0,0l0,0c0,8.95,7.28,16.24,16.24,16.24s16.24-7.28,16.24-16.24l0,0
			l0,0v0l0,0C214.05,431.58,206.77,424.3,197.81,424.3z M197.81,454.03c-7.44,0-13.5-6.05-13.5-13.5c0-7.44,6.06-13.5,13.5-13.5
			s13.5,6.05,13.5,13.5C211.31,447.98,205.25,454.03,197.81,454.03z"/>
		<path d="M110.96,426.97l-4.21-20.17l-20.17-4.21l4.21,20.17L110.96,426.97z M105.06,408.49l3.32,15.9l-15.9-3.32l-3.32-15.9
			L105.06,408.49z"/>
		<path d="M146.74,391.1l-4.21-20.17l-20.17-4.21l4.21,20.17L146.74,391.1z M140.84,372.62l3.32,15.9l-15.9-3.32l-3.32-15.9
			L140.84,372.62z"/>
		<path d="M142.63,403.35l-17.24-11.29l-17.24,11.29l17.24,11.29L142.63,403.35z M125.39,394.45l13.59,8.9l-13.59,8.89l-13.59-8.89
			L125.39,394.45z"/>
		<path d="M228.13,422.76l4.21-20.17l-20.17,4.21l-4.21,20.17L228.13,422.76z M213.86,408.49l15.9-3.32l-3.32,15.9l-15.9,3.32
			L213.86,408.49z"/>
		<path d="M172.19,391.1l20.17-4.21l4.21-20.17l-20.17,4.21L172.19,391.1z M193.98,369.3l-3.32,15.9l-15.9,3.32l3.32-15.9
			L193.98,369.3z"/>
		<path d="M176.3,403.35l17.24,11.29l17.24-11.29l-17.24-11.29L176.3,403.35z M193.54,412.24l-13.59-8.89l13.59-8.9l13.59,8.9
			L193.54,412.24z"/>
		<path d="M90.79,458.31l-4.21,20.17l20.17-4.21l4.21-20.17L90.79,458.31z M105.06,472.58l-15.9,3.32l3.32-15.9l15.9-3.32
			L105.06,472.58z"/>
		<path d="M146.74,489.97l-20.17,4.21l-4.21,20.17l20.17-4.21L146.74,489.97z M124.94,511.77l3.32-15.9l15.9-3.32l-3.32,15.9
			L124.94,511.77z"/>
		<path d="M142.63,477.73l-17.24-11.29l-17.24,11.29l17.24,11.29L142.63,477.73z M125.39,468.83l13.59,8.89l-13.59,8.89l-13.59-8.89
			L125.39,468.83z"/>
		<path d="M207.96,454.1l4.21,20.17l20.17,4.21l-4.21-20.17L207.96,454.1z M213.86,472.58l-3.32-15.9l15.9,3.32l3.32,15.9
			L213.86,472.58z"/>
		<path d="M172.19,489.97l4.21,20.17l20.17,4.21l-4.21-20.17L172.19,489.97z M178.09,508.45l-3.32-15.9l15.9,3.32l3.32,15.9
			L178.09,508.45z"/>
		<path d="M176.3,477.73l17.24,11.29l17.24-11.29l-17.24-11.29L176.3,477.73z M193.54,486.62l-13.59-8.89l13.59-8.89l13.59,8.89
			L193.54,486.62z"/>
	</g>
</g>
<g>
</g>
<g>
</g>
<g>
</g>
<g>
</g>
<g>
</g>
<g>
</g>
<g>
</g>
<g>
</g>
<g>
</g>
<g>
</g>
<g>
</g>
<g>
</g>
<g>
</g>
<g>
</g>
<g>
</g>
</svg>
