<?xml version="1.0" encoding="utf-8"?>
<!-- Generator: Adobe Illustrator 27.2.0, SVG Export Plug-In . SVG Version: 6.00 Build 0)  -->
<svg version="1.1" id="Layer_1" xmlns="http://www.w3.org/2000/svg" xmlns:xlink="http://www.w3.org/1999/xlink" x="0px" y="0px"
	 viewBox="0 0 800 600" style="enable-background:new 0 0 800 600;" xml:space="preserve">
<g>
	<g>
		<path d="M189.61,414.85c12.95,0,23.48-10.53,23.48-23.48s-10.53-23.48-23.48-23.48s-23.48,10.53-23.48,23.48
			S176.66,414.85,189.61,414.85z M189.61,370.88c11.29,0,20.48,9.19,20.48,20.48s-9.19,20.48-20.48,20.48s-20.48-9.19-20.48-20.48
			S178.32,370.88,189.61,370.88z"/>
		<path d="M156.31,400.16c0.2,0,0.4-0.02,0.6-0.03c-0.18,0.09-0.36,0.17-0.54,0.28c-4.29,2.48-5.81,7.91-3.38,12.1
			c1.18,2.04,3.1,3.49,5.4,4.07c0.73,0.19,1.48,0.28,2.22,0.28c1.58,0,3.14-0.42,4.55-1.23c0.17-0.1,0.34-0.21,0.5-0.33
			c-0.11,0.17-0.22,0.33-0.32,0.5c-2.48,4.29-1.08,9.75,3.12,12.17c1.33,0.77,2.81,1.16,4.31,1.16c0.8,0,1.61-0.11,2.41-0.33
			c2.28-0.64,4.19-2.14,5.39-4.21c0.1-0.18,0.19-0.36,0.28-0.54c-0.01,0.2-0.03,0.4-0.03,0.6c0,4.95,3.94,8.98,8.79,8.98
			c4.85,0,8.79-4.03,8.79-8.98c0-0.2-0.02-0.4-0.03-0.6c0.09,0.18,0.17,0.36,0.28,0.53c1.68,2.9,4.71,4.54,7.79,4.54
			c1.47,0,2.96-0.37,4.31-1.15c2.04-1.18,3.49-3.1,4.07-5.4c0.58-2.29,0.25-4.7-0.95-6.77c-0.1-0.17-0.21-0.34-0.33-0.51
			c0.17,0.11,0.33,0.22,0.5,0.33c1.41,0.81,2.97,1.23,4.55,1.23c0.74,0,1.49-0.09,2.22-0.28c2.31-0.59,4.23-2.03,5.4-4.07
			c2.42-4.2,0.91-9.63-3.38-12.1c-0.17-0.1-0.36-0.19-0.54-0.28c0.2,0.01,0.4,0.03,0.6,0.03c4.95,0,8.98-3.94,8.98-8.79
			c0-4.85-4.03-8.79-8.98-8.79c-0.21,0-0.42,0.02-0.63,0.03c0.19-0.09,0.38-0.17,0.56-0.28c2.07-1.2,3.57-3.11,4.21-5.39
			c0.65-2.29,0.35-4.68-0.83-6.72c-2.42-4.2-7.88-5.6-12.17-3.12c-0.18,0.11-0.35,0.22-0.53,0.34c0.12-0.17,0.24-0.34,0.35-0.52
			c1.2-2.07,1.53-4.48,0.95-6.77c-0.59-2.31-2.03-4.23-4.07-5.4c-4.2-2.42-9.63-0.91-12.1,3.38c-0.1,0.17-0.19,0.36-0.28,0.53
			c0.01-0.2,0.03-0.4,0.03-0.6c0-4.95-3.94-8.98-8.79-8.98c-4.85,0-8.79,4.03-8.79,8.98c0,0.2,0.02,0.4,0.03,0.6
			c-0.09-0.18-0.17-0.36-0.28-0.54c-2.48-4.29-7.9-5.81-12.1-3.38c-4.2,2.42-5.6,7.88-3.12,12.17c0.11,0.18,0.23,0.35,0.35,0.52
			c-0.17-0.12-0.35-0.24-0.53-0.34c-4.29-2.48-9.75-1.07-12.17,3.12c-2.42,4.2-0.91,9.63,3.38,12.1c0.18,0.11,0.37,0.18,0.56,0.28
			c-0.21-0.01-0.42-0.03-0.63-0.03c-4.95,0-8.98,3.94-8.98,8.79C147.33,396.21,151.36,400.16,156.31,400.16z M163.67,413.03
			c-1.39,0.8-3,1.03-4.53,0.64c-1.52-0.39-2.78-1.33-3.55-2.67c-1.6-2.76-0.57-6.36,2.29-8.01c0.95-0.55,2-0.83,3.05-0.83
			c0.49,0,0.99,0.06,1.48,0.19c1.52,0.39,2.78,1.33,3.55,2.67C167.55,407.79,166.53,411.38,163.67,413.03z M177.98,423.1
			c-0.8,1.39-2.08,2.39-3.6,2.82c-1.5,0.42-3.07,0.23-4.4-0.54c-2.76-1.6-3.67-5.22-2.02-8.08c0.8-1.39,2.08-2.39,3.6-2.82
			c1.51-0.42,3.07-0.23,4.4,0.54C178.72,416.62,179.62,420.24,177.98,423.1z M189.61,430.65c-3.19,0-5.79-2.68-5.79-5.98
			s2.6-5.98,5.79-5.98c3.19,0,5.79,2.68,5.79,5.98S192.8,430.65,189.61,430.65z M211.92,421.84c-0.39,1.52-1.33,2.78-2.67,3.55
			c-2.76,1.6-6.36,0.57-8.01-2.29c-0.8-1.39-1.03-3-0.64-4.53c0.39-1.52,1.33-2.78,2.67-3.55c1.33-0.77,2.9-0.96,4.4-0.54
			c1.52,0.43,2.8,1.43,3.6,2.82C212.08,418.7,212.3,420.31,211.92,421.84z M223.63,411.01c-0.77,1.33-2.03,2.28-3.55,2.67
			c-1.53,0.39-3.14,0.16-4.53-0.64c-2.86-1.65-3.88-5.24-2.29-8.01c0.77-1.33,2.03-2.28,3.55-2.67c1.53-0.39,3.14-0.16,4.53,0.64
			C224.2,404.65,225.22,408.24,223.63,411.01z M228.89,391.37c0,3.19-2.68,5.79-5.98,5.79s-5.98-2.6-5.98-5.79
			c0-3.19,2.68-5.79,5.98-5.79S228.89,388.17,228.89,391.37z M215.55,369.7c0.97-0.56,2.02-0.82,3.05-0.82
			c2.02,0,3.97,1.02,5.02,2.85c0.77,1.33,0.96,2.9,0.54,4.4c-0.43,1.52-1.43,2.8-2.82,3.6c-2.86,1.65-6.48,0.74-8.08-2.02
			c-0.77-1.33-0.96-2.9-0.54-4.4C213.16,371.79,214.16,370.51,215.55,369.7z M201.24,359.64c1.12-1.94,3.14-3.04,5.19-3.04
			c0.96,0,1.93,0.24,2.82,0.75c1.33,0.77,2.28,2.03,2.67,3.55c0.39,1.53,0.16,3.14-0.64,4.53c-1.65,2.86-5.24,3.88-8.01,2.29
			c-1.33-0.77-2.28-2.03-2.67-3.55C200.21,362.63,200.44,361.03,201.24,359.64z M189.61,352.09c3.19,0,5.79,2.68,5.79,5.98
			s-2.6,5.98-5.79,5.98c-3.19,0-5.79-2.68-5.79-5.98S186.42,352.09,189.61,352.09z M169.97,357.35c0.88-0.51,1.85-0.75,2.82-0.75
			c2.05,0,4.07,1.1,5.19,3.04c1.65,2.86,0.74,6.48-2.02,8.08c-2.77,1.6-6.35,0.57-8.01-2.29
			C166.3,362.57,167.21,358.95,169.97,357.35z M155.59,371.73c1.06-1.83,3-2.85,5.02-2.85c1.03,0,2.09,0.27,3.05,0.82
			c2.86,1.65,3.88,5.24,2.29,8.01c-1.6,2.76-5.22,3.67-8.08,2.02C155.02,378.08,154,374.49,155.59,371.73z M160.93,383.55
			c3.06,0,6.02-1.55,7.63-4.35c1.72-2.97,1.45-6.56-0.37-9.28c1.48,0.99,3.21,1.53,4.96,1.53c1.47,0,2.96-0.37,4.31-1.15
			c2.96-1.71,4.52-4.94,4.32-8.2c1.45,2.93,4.42,4.94,7.84,4.94c3.42,0,6.38-2.01,7.83-4.92c-0.06,0.92,0.02,1.86,0.25,2.77
			c0.59,2.31,2.03,4.23,4.07,5.41c1.36,0.78,2.84,1.15,4.31,1.15c1.75,0,3.47-0.54,4.95-1.53c-0.52,0.78-0.92,1.63-1.18,2.55
			c-0.65,2.29-0.35,4.68,0.83,6.72c1.61,2.79,4.57,4.35,7.63,4.35c0.2,0,0.4-0.03,0.59-0.04c-2.94,1.45-4.96,4.42-4.96,7.85
			c0,3.42,2.01,6.38,4.92,7.83c-0.92-0.06-1.86,0.02-2.78,0.25c-2.31,0.59-4.23,2.03-5.4,4.07c-1.71,2.96-1.45,6.52,0.35,9.24
			c-0.77-0.51-1.62-0.91-2.53-1.17c-2.29-0.65-4.68-0.35-6.72,0.83c-2.04,1.18-3.49,3.1-4.07,5.4c-0.23,0.92-0.31,1.85-0.25,2.77
			c-1.45-2.92-4.41-4.92-7.83-4.92c-3.42,0-6.39,2.01-7.84,4.94c0.21-3.26-1.36-6.48-4.32-8.19c-2.04-1.18-4.42-1.47-6.72-0.83
			c-0.91,0.26-1.76,0.65-2.53,1.17c1.8-2.72,2.05-6.28,0.35-9.24c-1.18-2.04-3.1-3.49-5.41-4.07c-0.92-0.23-1.85-0.31-2.77-0.26
			c2.92-1.45,4.92-4.41,4.92-7.83c0-3.43-2.03-6.4-4.96-7.85C160.53,383.53,160.73,383.55,160.93,383.55z M156.31,385.58
			c3.3,0,5.98,2.6,5.98,5.79c0,3.19-2.68,5.79-5.98,5.79s-5.98-2.6-5.98-5.79C150.33,388.17,153.01,385.58,156.31,385.58z"/>
		<path d="M122,484.24c-12.95,0-23.48,10.53-23.48,23.48S109.05,531.2,122,531.2s23.48-10.53,23.48-23.48S134.95,484.24,122,484.24z
			 M122,528.2c-11.29,0-20.48-9.19-20.48-20.48s9.19-20.48,20.48-20.48s20.48,9.19,20.48,20.48S133.29,528.2,122,528.2z"/>
		<path d="M164.28,507.72c0-4.85-4.03-8.79-8.98-8.79c-0.21,0-0.42,0.02-0.63,0.03c0.19-0.09,0.38-0.17,0.56-0.28
			c4.29-2.48,5.81-7.91,3.38-12.1c-1.18-2.04-3.1-3.49-5.41-4.07c-2.29-0.58-4.7-0.25-6.77,0.95c-0.17,0.1-0.34,0.21-0.51,0.33
			c0.11-0.17,0.22-0.33,0.33-0.51c1.2-2.07,1.53-4.47,0.95-6.77c-0.59-2.31-2.03-4.23-4.07-5.41c-4.19-2.42-9.63-0.91-12.1,3.38
			c-0.1,0.17-0.19,0.36-0.28,0.53c0.01-0.2,0.03-0.4,0.03-0.6c0-4.95-3.94-8.98-8.79-8.98s-8.79,4.03-8.79,8.98
			c0,0.2,0.02,0.4,0.03,0.6c-0.09-0.18-0.18-0.36-0.28-0.53c-2.48-4.29-7.9-5.8-12.1-3.38c-2.04,1.18-3.49,3.1-4.07,5.41
			c-0.58,2.29-0.25,4.7,0.95,6.77c0.1,0.18,0.21,0.34,0.33,0.51c-0.17-0.11-0.33-0.23-0.51-0.33c-2.07-1.2-4.47-1.53-6.77-0.95
			c-2.31,0.59-4.23,2.03-5.41,4.07c-2.42,4.2-0.91,9.63,3.38,12.1c0.18,0.11,0.37,0.19,0.56,0.28c-0.21-0.01-0.42-0.03-0.63-0.03
			c-4.95,0-8.98,3.94-8.98,8.79s4.03,8.79,8.98,8.79c0.2,0,0.4-0.02,0.6-0.03c-0.18,0.09-0.36,0.17-0.54,0.28
			c-4.29,2.48-5.81,7.91-3.38,12.1c1.18,2.04,3.1,3.49,5.41,4.07c0.73,0.19,1.48,0.28,2.22,0.28c1.58,0,3.14-0.42,4.55-1.23
			c0.17-0.1,0.34-0.21,0.5-0.32c-0.11,0.17-0.22,0.33-0.32,0.5c-1.2,2.07-1.53,4.47-0.95,6.77c0.59,2.31,2.03,4.23,4.07,5.41
			c1.36,0.78,2.84,1.15,4.31,1.15c3.08,0,6.12-1.63,7.79-4.54c0.1-0.18,0.19-0.36,0.28-0.54c-0.01,0.2-0.03,0.4-0.03,0.6
			c0,4.95,3.94,8.98,8.79,8.98s8.79-4.03,8.79-8.98c0-0.2-0.02-0.4-0.03-0.6c0.09,0.18,0.17,0.36,0.28,0.54
			c1.68,2.9,4.71,4.54,7.79,4.54c1.47,0,2.96-0.37,4.31-1.15c2.04-1.18,3.49-3.1,4.07-5.41c0.58-2.29,0.25-4.7-0.95-6.77
			c-0.1-0.18-0.22-0.34-0.33-0.51c0.17,0.11,0.33,0.23,0.51,0.33c1.41,0.81,2.97,1.23,4.55,1.23c0.74,0,1.49-0.09,2.22-0.28
			c2.31-0.59,4.23-2.03,5.41-4.07c2.42-4.2,0.91-9.63-3.38-12.1c-0.18-0.1-0.36-0.19-0.54-0.28c0.2,0.01,0.4,0.03,0.6,0.03
			C160.25,516.51,164.28,512.57,164.28,507.72z M161.28,507.72c0,3.19-2.68,5.79-5.98,5.79c-3.3,0-5.98-2.6-5.98-5.79
			s2.68-5.79,5.98-5.79C158.6,501.93,161.28,504.53,161.28,507.72z M147.94,486.06c0.95-0.55,2-0.83,3.05-0.83
			c0.49,0,0.99,0.06,1.48,0.19c1.52,0.39,2.78,1.33,3.55,2.67c1.6,2.76,0.57,6.36-2.29,8.01c-1.39,0.8-3,1.03-4.53,0.64
			c-1.52-0.39-2.78-1.33-3.55-2.67s-0.96-2.9-0.54-4.4C145.55,488.14,146.55,486.86,147.94,486.06z M133.63,475.99
			c1.12-1.94,3.14-3.04,5.19-3.04c0.96,0,1.93,0.24,2.82,0.75c1.33,0.77,2.28,2.03,2.67,3.55c0.39,1.53,0.16,3.14-0.64,4.53
			c-0.8,1.39-2.08,2.39-3.6,2.82c-1.51,0.42-3.07,0.23-4.4-0.54c-1.33-0.77-2.28-2.03-2.67-3.55
			C132.6,478.99,132.83,477.38,133.63,475.99z M122,468.44c3.19,0,5.79,2.68,5.79,5.98s-2.6,5.98-5.79,5.98s-5.79-2.68-5.79-5.98
			S118.81,468.44,122,468.44z M99.7,477.25c0.39-1.52,1.33-2.78,2.67-3.55c0.88-0.51,1.85-0.75,2.82-0.75c2.05,0,4.07,1.1,5.19,3.04
			c0.8,1.39,1.03,3,0.64,4.53c-0.39,1.52-1.33,2.78-2.67,3.55s-2.9,0.96-4.4,0.54c-1.52-0.43-2.8-1.43-3.6-2.82
			C99.53,480.39,99.31,478.78,99.7,477.25z M87.98,488.08c0.77-1.33,2.03-2.28,3.55-2.67c0.49-0.12,0.98-0.19,1.48-0.19
			c1.06,0,2.1,0.28,3.05,0.83c2.86,1.65,3.88,5.24,2.29,8.01c-0.77,1.33-2.03,2.28-3.55,2.67c-1.53,0.39-3.14,0.16-4.53-0.64
			C87.41,494.44,86.39,490.85,87.98,488.08z M82.72,507.72c0-3.19,2.68-5.79,5.98-5.79c3.3,0,5.98,2.6,5.98,5.79
			s-2.68,5.79-5.98,5.79C85.4,513.51,82.72,510.91,82.72,507.72z M96.06,529.38c-1.39,0.8-3,1.03-4.53,0.64
			c-1.52-0.39-2.78-1.33-3.55-2.67c-1.6-2.76-0.57-6.36,2.29-8.01c2.86-1.65,6.48-0.74,8.08,2.02c0.77,1.33,0.96,2.9,0.53,4.4
			C98.45,527.3,97.45,528.58,96.06,529.38z M110.37,539.45c-1.65,2.86-5.24,3.88-8.01,2.29c-1.33-0.77-2.28-2.03-2.67-3.55
			c-0.39-1.53-0.16-3.14,0.64-4.53c0.8-1.39,2.08-2.39,3.6-2.82c0.53-0.15,1.06-0.22,1.59-0.22c0.98,0,1.95,0.25,2.82,0.76
			C111.11,532.97,112.01,536.6,110.37,539.45z M122,547c-3.19,0-5.79-2.68-5.79-5.98c0-3.3,2.6-5.98,5.79-5.98s5.79,2.68,5.79,5.98
			C127.79,544.32,125.19,547,122,547z M144.3,538.19c-0.39,1.52-1.33,2.78-2.67,3.55c-2.76,1.6-6.36,0.57-8.01-2.29
			c-1.65-2.86-0.74-6.48,2.02-8.08c0.88-0.51,1.85-0.75,2.82-0.75c2.05,0,4.07,1.1,5.19,3.04
			C144.47,535.05,144.69,536.66,144.3,538.19z M156.02,527.36c-0.77,1.33-2.03,2.28-3.55,2.67c-1.53,0.39-3.14,0.16-4.53-0.64
			c-1.39-0.8-2.39-2.08-2.82-3.6c-0.42-1.51-0.23-3.07,0.54-4.4c1.06-1.83,3-2.85,5.02-2.85c1.03,0,2.09,0.26,3.05,0.82
			C156.59,521,157.61,524.6,156.02,527.36z M143.06,519.88c-1.18,2.04-1.47,4.43-0.82,6.72c0.26,0.91,0.66,1.76,1.17,2.53
			c-2.72-1.8-6.28-2.05-9.24-0.35c-2.96,1.71-4.52,4.94-4.32,8.2c-1.45-2.93-4.42-4.94-7.84-4.94s-6.39,2.01-7.84,4.94
			c0.21-3.26-1.35-6.49-4.32-8.2c-2.04-1.18-4.42-1.47-6.72-0.82c-0.9,0.25-1.75,0.65-2.51,1.15c0.5-0.77,0.9-1.61,1.15-2.51
			c0.65-2.29,0.35-4.68-0.82-6.72c-1.71-2.97-4.94-4.52-8.2-4.32c2.93-1.45,4.94-4.42,4.94-7.84c0-3.43-2.02-6.4-4.95-7.85
			c0.2,0.01,0.39,0.04,0.58,0.04c0.74,0,1.49-0.09,2.22-0.28c2.31-0.59,4.23-2.03,5.4-4.07c1.71-2.96,1.45-6.53-0.35-9.24
			c0.77,0.51,1.62,0.91,2.53,1.17c0.8,0.23,1.6,0.34,2.41,0.34c1.5,0,2.98-0.39,4.31-1.16c2.04-1.18,3.49-3.1,4.07-5.4
			c0.23-0.92,0.31-1.85,0.25-2.77c1.46,2.92,4.41,4.92,7.83,4.92s6.38-2.01,7.83-4.92c-0.06,0.92,0.02,1.86,0.25,2.77
			c0.59,2.31,2.03,4.23,4.07,5.4c1.33,0.77,2.81,1.16,4.31,1.16c0.8,0,1.61-0.11,2.4-0.34c0.9-0.25,1.75-0.65,2.51-1.15
			c-0.51,0.77-0.9,1.61-1.16,2.51c-0.65,2.29-0.35,4.68,0.82,6.72s3.1,3.49,5.4,4.07c0.73,0.19,1.48,0.28,2.22,0.28
			c0.2,0,0.39-0.03,0.58-0.04c-2.93,1.45-4.95,4.42-4.95,7.85c0,3.42,2.01,6.39,4.94,7.84
			C147.99,515.35,144.77,516.91,143.06,519.88z"/>
		<path d="M121.03,447.3l0.97,0.82l0.97-0.82c6.38-5.39,10.03-13.25,10.03-21.58c0-8.33-3.66-16.2-10.03-21.58l-0.97-0.82
			l-0.97,0.82c-6.38,5.39-10.03,13.25-10.03,21.58C111,434.05,114.66,441.91,121.03,447.3z M122,407.28c5.1,4.77,8,11.42,8,18.43
			c0,7.01-2.9,13.66-8,18.43c-5.1-4.77-8-11.42-8-18.43C114,418.7,116.9,412.06,122,407.28z"/>
		<path d="M152.81,430.98c-8.33-0.69-16.47,2.28-22.36,8.17c-5.89,5.89-8.87,14.04-8.17,22.36l0.11,1.26l1.26,0.11
			c0.8,0.07,1.6,0.1,2.39,0.1c7.47,0,14.64-2.95,19.96-8.27c5.89-5.89,8.87-14.04,8.17-22.36l-0.11-1.26L152.81,430.98z
			 M143.89,452.59c-4.96,4.96-11.7,7.61-18.69,7.38c-0.23-6.98,2.42-13.73,7.38-18.69c4.96-4.96,11.72-7.61,18.69-7.38
			C151.5,440.88,148.85,447.63,143.89,452.59z"/>
		<path d="M117.95,462.98c0.79,0,1.59-0.03,2.39-0.1l1.26-0.11l0.11-1.26c0.7-8.32-2.28-16.47-8.17-22.36
			c-5.89-5.89-14.03-8.86-22.36-8.17l-1.26,0.11l-0.11,1.26c-0.7,8.32,2.28,16.47,8.17,22.36
			C103.31,460.04,110.48,462.98,117.95,462.98z M92.73,433.9c6.98-0.21,13.73,2.42,18.69,7.38s7.61,11.71,7.38,18.69
			c-7,0.24-13.73-2.42-18.69-7.38S92.5,440.88,92.73,433.9z"/>
		<path d="M163.19,517.82l-1.26,0.11l-0.11,1.26c-0.7,8.32,2.28,16.47,8.17,22.36c5.32,5.33,12.49,8.27,19.96,8.27
			c0.79,0,1.59-0.03,2.39-0.1l1.26-0.11l0.11-1.26c0.7-8.32-2.28-16.46-8.17-22.36C179.65,520.1,171.51,517.12,163.19,517.82z
			 M190.8,546.8c-6.98,0.24-13.73-2.42-18.69-7.38c-4.96-4.96-7.61-11.71-7.38-18.69c6.99-0.23,13.73,2.42,18.69,7.38
			C188.38,533.07,191.03,539.82,190.8,546.8z"/>
		<path d="M61,512.55c0-8.33-3.66-16.2-10.03-21.58L50,490.15v3.97c5.1,4.77,8,11.42,8,18.43c0,7.01-2.9,13.66-8,18.43v3.97
			l0.97-0.82C57.34,528.75,61,520.88,61,512.55z"/>
		<path d="M82.07,517.93l-1.26-0.11c-8.32-0.7-16.47,2.28-22.36,8.17c-5.89,5.89-8.87,14.04-8.17,22.36l0.11,1.26l1.26,0.11
			c0.8,0.07,1.6,0.1,2.39,0.1c7.47,0,14.64-2.94,19.96-8.27c5.89-5.89,8.87-14.04,8.17-22.36L82.07,517.93z M71.89,539.42
			c-4.96,4.96-11.71,7.62-18.69,7.38c-0.23-6.98,2.42-13.73,7.38-18.69c4.96-4.96,11.7-7.6,18.69-7.38
			C79.5,527.71,76.85,534.46,71.89,539.42z"/>
		<path d="M266,484.24c-12.95,0-23.48,10.53-23.48,23.48S253.05,531.2,266,531.2s23.48-10.53,23.48-23.48S278.95,484.24,266,484.24z
			 M266,528.2c-11.29,0-20.48-9.19-20.48-20.48s9.19-20.48,20.48-20.48s20.48,9.19,20.48,20.48S277.29,528.2,266,528.2z"/>
		<path d="M308.28,507.72c0-4.85-4.03-8.79-8.98-8.79c-0.21,0-0.42,0.02-0.63,0.03c0.19-0.09,0.38-0.17,0.56-0.28
			c4.29-2.48,5.81-7.91,3.38-12.1c-1.18-2.04-3.1-3.49-5.41-4.07c-2.29-0.58-4.7-0.25-6.77,0.95c-0.17,0.1-0.34,0.21-0.51,0.33
			c0.11-0.17,0.22-0.33,0.33-0.51c1.2-2.07,1.53-4.47,0.95-6.77c-0.59-2.31-2.03-4.23-4.07-5.41c-4.2-2.42-9.62-0.91-12.1,3.38
			c-0.1,0.17-0.19,0.36-0.28,0.53c0.01-0.2,0.03-0.4,0.03-0.6c0-4.95-3.94-8.98-8.79-8.98s-8.79,4.03-8.79,8.98
			c0,0.2,0.02,0.4,0.03,0.6c-0.09-0.18-0.18-0.36-0.28-0.53c-2.48-4.29-7.91-5.8-12.1-3.38c-2.04,1.18-3.49,3.1-4.07,5.41
			c-0.58,2.29-0.25,4.7,0.95,6.77c0.1,0.18,0.21,0.34,0.33,0.51c-0.17-0.11-0.33-0.23-0.51-0.33c-2.07-1.2-4.47-1.53-6.77-0.95
			c-2.31,0.59-4.23,2.03-5.41,4.07c-2.42,4.2-0.91,9.63,3.38,12.1c0.18,0.11,0.37,0.19,0.56,0.28c-0.21-0.01-0.42-0.03-0.63-0.03
			c-4.95,0-8.98,3.94-8.98,8.79s4.03,8.79,8.98,8.79c0.2,0,0.4-0.02,0.6-0.03c-0.18,0.09-0.36,0.17-0.54,0.28
			c-4.29,2.48-5.81,7.91-3.38,12.1c1.18,2.04,3.1,3.49,5.41,4.07c0.73,0.19,1.48,0.28,2.22,0.28c1.58,0,3.14-0.42,4.55-1.23
			c0.17-0.1,0.34-0.21,0.5-0.32c-0.11,0.17-0.22,0.33-0.32,0.5c-1.2,2.07-1.53,4.47-0.95,6.77c0.59,2.31,2.03,4.23,4.07,5.41
			c1.36,0.78,2.84,1.15,4.31,1.15c3.08,0,6.12-1.63,7.79-4.54c0.1-0.18,0.19-0.36,0.28-0.54c-0.01,0.2-0.03,0.4-0.03,0.6
			c0,4.95,3.94,8.98,8.79,8.98s8.79-4.03,8.79-8.98c0-0.2-0.02-0.4-0.03-0.6c0.09,0.18,0.17,0.36,0.28,0.54
			c1.68,2.9,4.71,4.54,7.79,4.54c1.47,0,2.96-0.37,4.31-1.15c2.04-1.18,3.49-3.1,4.07-5.41c0.58-2.29,0.25-4.7-0.95-6.77
			c-0.1-0.18-0.22-0.34-0.33-0.51c0.17,0.11,0.33,0.23,0.51,0.33c1.41,0.81,2.97,1.23,4.55,1.23c0.74,0,1.49-0.09,2.22-0.28
			c2.31-0.59,4.23-2.03,5.41-4.07c2.42-4.2,0.91-9.63-3.38-12.1c-0.18-0.1-0.36-0.19-0.54-0.28c0.2,0.01,0.4,0.03,0.6,0.03
			C304.25,516.51,308.28,512.57,308.28,507.72z M305.28,507.72c0,3.19-2.68,5.79-5.98,5.79c-3.3,0-5.98-2.6-5.98-5.79
			s2.68-5.79,5.98-5.79C302.6,501.93,305.28,504.53,305.28,507.72z M291.94,486.06c0.95-0.55,2-0.83,3.05-0.83
			c0.49,0,0.99,0.06,1.48,0.19c1.52,0.39,2.78,1.33,3.55,2.67c1.6,2.76,0.57,6.36-2.29,8.01c-1.39,0.8-3,1.03-4.53,0.64
			c-1.52-0.39-2.78-1.33-3.55-2.67s-0.96-2.9-0.54-4.4C289.55,488.14,290.55,486.86,291.94,486.06z M277.63,475.99
			c1.12-1.94,3.14-3.04,5.19-3.04c0.96,0,1.93,0.24,2.82,0.75c1.33,0.77,2.28,2.03,2.67,3.55c0.39,1.53,0.16,3.14-0.64,4.53
			c-0.8,1.39-2.08,2.39-3.6,2.82c-1.5,0.42-3.07,0.23-4.4-0.54s-2.28-2.03-2.67-3.55C276.6,478.99,276.83,477.38,277.63,475.99z
			 M266,468.44c3.19,0,5.79,2.68,5.79,5.98s-2.6,5.98-5.79,5.98s-5.79-2.68-5.79-5.98S262.81,468.44,266,468.44z M243.7,477.25
			c0.39-1.52,1.33-2.78,2.67-3.55c0.88-0.51,1.85-0.75,2.82-0.75c2.05,0,4.07,1.1,5.19,3.04c0.8,1.39,1.03,3,0.64,4.53
			c-0.39,1.52-1.33,2.78-2.67,3.55s-2.9,0.96-4.4,0.54c-1.52-0.43-2.8-1.43-3.6-2.82C243.53,480.39,243.31,478.78,243.7,477.25z
			 M231.98,488.08c0.77-1.33,2.03-2.28,3.55-2.67c0.49-0.12,0.98-0.19,1.48-0.19c1.06,0,2.1,0.28,3.05,0.83
			c2.86,1.65,3.88,5.24,2.29,8.01c-0.77,1.33-2.03,2.28-3.55,2.67c-1.53,0.39-3.14,0.16-4.53-0.64
			C231.41,494.44,230.39,490.85,231.98,488.08z M226.72,507.72c0-3.19,2.68-5.79,5.98-5.79c3.3,0,5.98,2.6,5.98,5.79
			s-2.68,5.79-5.98,5.79C229.4,513.51,226.72,510.91,226.72,507.72z M240.06,529.38c-1.39,0.8-3,1.03-4.53,0.64
			c-1.52-0.39-2.78-1.33-3.55-2.67c-1.6-2.76-0.57-6.36,2.29-8.01s6.48-0.74,8.08,2.02c0.77,1.33,0.96,2.9,0.53,4.4
			C242.45,527.3,241.45,528.58,240.06,529.38z M254.37,539.45c-1.65,2.86-5.24,3.88-8.01,2.29c-1.33-0.77-2.28-2.03-2.67-3.55
			c-0.39-1.53-0.16-3.14,0.64-4.53c0.8-1.39,2.08-2.39,3.6-2.82c0.53-0.15,1.06-0.22,1.59-0.22c0.98,0,1.95,0.25,2.82,0.76
			C255.11,532.97,256.01,536.6,254.37,539.45z M266,547c-3.19,0-5.79-2.68-5.79-5.98c0-3.3,2.6-5.98,5.79-5.98s5.79,2.68,5.79,5.98
			C271.79,544.32,269.19,547,266,547z M288.3,538.19c-0.39,1.52-1.33,2.78-2.67,3.55c-2.76,1.6-6.36,0.57-8.01-2.29
			c-1.65-2.86-0.74-6.48,2.02-8.08c0.88-0.51,1.85-0.75,2.82-0.75c2.05,0,4.07,1.1,5.19,3.04
			C288.47,535.05,288.69,536.66,288.3,538.19z M300.02,527.36c-0.77,1.33-2.03,2.28-3.55,2.67c-1.53,0.39-3.14,0.16-4.53-0.64
			c-1.39-0.8-2.39-2.08-2.82-3.6c-0.42-1.51-0.23-3.07,0.54-4.4c1.06-1.83,3-2.85,5.02-2.85c1.03,0,2.09,0.26,3.05,0.82
			C300.59,521,301.61,524.6,300.02,527.36z M287.06,519.88c-1.18,2.04-1.47,4.43-0.82,6.72c0.26,0.91,0.66,1.76,1.17,2.53
			c-2.72-1.8-6.28-2.05-9.24-0.35c-2.96,1.71-4.52,4.94-4.32,8.2c-1.45-2.93-4.42-4.94-7.84-4.94s-6.39,2.01-7.84,4.94
			c0.21-3.26-1.35-6.49-4.32-8.2c-2.04-1.18-4.42-1.47-6.72-0.82c-0.9,0.25-1.75,0.65-2.51,1.15c0.5-0.77,0.9-1.61,1.15-2.51
			c0.65-2.29,0.35-4.68-0.82-6.72c-1.71-2.97-4.94-4.52-8.2-4.32c2.93-1.45,4.94-4.42,4.94-7.84c0-3.43-2.02-6.4-4.95-7.85
			c0.2,0.01,0.39,0.04,0.58,0.04c0.74,0,1.49-0.09,2.22-0.28c2.31-0.59,4.23-2.03,5.4-4.07c1.71-2.96,1.45-6.53-0.35-9.24
			c0.77,0.51,1.62,0.91,2.53,1.17c0.8,0.23,1.6,0.34,2.41,0.34c1.5,0,2.98-0.39,4.31-1.16c2.04-1.18,3.49-3.1,4.07-5.4
			c0.23-0.92,0.31-1.85,0.25-2.77c1.46,2.92,4.41,4.92,7.83,4.92s6.38-2.01,7.83-4.92c-0.06,0.92,0.02,1.86,0.25,2.77
			c0.59,2.31,2.03,4.23,4.07,5.4c1.33,0.77,2.81,1.16,4.31,1.16c0.8,0,1.61-0.11,2.4-0.34c0.9-0.25,1.75-0.65,2.51-1.15
			c-0.51,0.77-0.9,1.61-1.16,2.51c-0.65,2.29-0.35,4.68,0.82,6.72s3.1,3.49,5.4,4.07c0.73,0.19,1.48,0.28,2.22,0.28
			c0.2,0,0.39-0.03,0.58-0.04c-2.93,1.45-4.95,4.42-4.95,7.85c0,3.42,2.01,6.39,4.94,7.84
			C291.99,515.35,288.77,516.91,287.06,519.88z"/>
		<path d="M265.03,447.3l0.97,0.82l0.97-0.82c6.38-5.39,10.03-13.25,10.03-21.58c0-8.33-3.66-16.2-10.03-21.58l-0.97-0.82
			l-0.97,0.82c-6.38,5.39-10.03,13.25-10.03,21.58C255,434.05,258.66,441.91,265.03,447.3z M266,407.28c5.1,4.77,8,11.42,8,18.43
			c0,7.01-2.9,13.66-8,18.43c-5.1-4.77-8-11.42-8-18.43C258,418.7,260.9,412.06,266,407.28z"/>
		<path d="M266.29,461.51l0.11,1.26l1.26,0.11c0.8,0.07,1.6,0.1,2.39,0.1c7.47,0,14.64-2.95,19.96-8.27
			c5.89-5.89,8.87-14.04,8.17-22.36l-0.11-1.26l-1.26-0.11c-8.32-0.69-16.47,2.28-22.36,8.17
			C268.56,445.04,265.59,453.19,266.29,461.51z M295.27,433.9c0.23,6.98-2.42,13.73-7.38,18.69s-11.71,7.61-18.69,7.38
			c-0.23-6.98,2.42-13.73,7.38-18.69C281.54,436.32,288.3,433.66,295.27,433.9z"/>
		<path d="M261.95,462.98c0.79,0,1.59-0.03,2.39-0.1l1.26-0.11l0.11-1.26c0.7-8.32-2.28-16.47-8.17-22.36
			c-5.89-5.89-14.04-8.86-22.36-8.17l-1.26,0.11l-0.11,1.26c-0.7,8.32,2.28,16.47,8.17,22.36
			C247.31,460.04,254.48,462.98,261.95,462.98z M236.73,433.9c6.98-0.21,13.73,2.42,18.69,7.38s7.61,11.71,7.38,18.69
			c-6.99,0.24-13.73-2.42-18.69-7.38C239.15,447.63,236.5,440.88,236.73,433.9z"/>
		<path d="M338,494.12v-3.97l-0.97,0.82c-6.38,5.39-10.03,13.25-10.03,21.58c0,8.33,3.66,16.2,10.03,21.58l0.97,0.82v-3.97
			c-5.1-4.77-8-11.42-8-18.43C330,505.54,332.9,498.89,338,494.12z"/>
		<path d="M307.19,517.82l-1.26,0.11l-0.11,1.26c-0.7,8.32,2.28,16.47,8.17,22.36c5.32,5.33,12.49,8.27,19.96,8.27
			c0.79,0,1.59-0.03,2.39-0.1l1.26-0.11l0.11-1.26c0.7-8.32-2.28-16.46-8.17-22.36C323.65,520.1,315.51,517.12,307.19,517.82z
			 M334.8,546.8c-6.98,0.24-13.73-2.42-18.69-7.38c-4.96-4.96-7.61-11.71-7.38-18.69c6.99-0.23,13.73,2.42,18.69,7.38
			C332.38,533.07,335.03,539.82,334.8,546.8z"/>
		<path d="M205,512.55c0-8.33-3.66-16.2-10.03-21.58l-0.97-0.82l-0.97,0.82c-6.38,5.39-10.03,13.25-10.03,21.58
			c0,8.33,3.66,16.2,10.03,21.58l0.97,0.82l0.97-0.82C201.34,528.75,205,520.88,205,512.55z M194,530.98c-5.1-4.77-8-11.42-8-18.43
			c0-7.01,2.9-13.66,8-18.43c5.1,4.77,8,11.42,8,18.43C202,519.56,199.1,526.21,194,530.98z"/>
		<path d="M226.07,517.93l-1.26-0.11c-8.32-0.7-16.47,2.28-22.36,8.17c-5.89,5.89-8.87,14.04-8.17,22.36l0.11,1.26l1.26,0.11
			c0.8,0.07,1.6,0.1,2.39,0.1c7.47,0,14.64-2.94,19.96-8.27c5.89-5.89,8.87-14.04,8.17-22.36L226.07,517.93z M215.89,539.42
			c-4.96,4.96-11.71,7.62-18.69,7.38c-0.23-6.98,2.42-13.73,7.38-18.69c4.96-4.96,11.7-7.6,18.69-7.38
			C223.5,527.71,220.85,534.46,215.89,539.42z"/>
	</g>
</g>
<g>
</g>
<g>
</g>
<g>
</g>
<g>
</g>
<g>
</g>
<g>
</g>
<g>
</g>
<g>
</g>
<g>
</g>
<g>
</g>
<g>
</g>
<g>
</g>
<g>
</g>
<g>
</g>
<g>
</g>
</svg>
