<?xml version="1.0" encoding="utf-8"?>
<!-- Generator: Adobe Illustrator 27.2.0, SVG Export Plug-In . SVG Version: 6.00 Build 0)  -->
<svg version="1.1" id="Layer_1" xmlns="http://www.w3.org/2000/svg" xmlns:xlink="http://www.w3.org/1999/xlink" x="0px" y="0px"
	 viewBox="0 0 800 600" style="enable-background:new 0 0 800 600;" xml:space="preserve">
<g>
	<g>
		<g>
			<g>
				<g>
					<g>
						<rect x="122.5" y="387.04" width="5.51" height="3.26"/>
						<path d="M108.51,393.29c0.02,4.73,1.83,9.46,5.43,13.07c3.61,3.61,8.34,5.42,13.07,5.43c-0.02-4.73-1.83-9.46-5.44-13.07
							C117.97,395.12,113.24,393.31,108.51,393.29z"/>
						<path d="M127.01,438.3c-4.73,0.02-9.46,1.83-13.07,5.43c-3.61,3.61-5.42,8.34-5.43,13.07c4.73-0.02,9.46-1.83,13.07-5.43
							C125.19,447.76,127,443.03,127.01,438.3z"/>
						<path d="M140.27,442.3C140.27,442.3,140.27,442.3,140.27,442.3l0-3c0,0,0,0,0,0c-7.86,0-14.25-6.39-14.25-14.25
							c0-7.86,6.39-14.25,14.25-14.25c0,0,0,0,0,0v-3c0,0,0,0,0,0c-9.51,0-17.25,7.74-17.25,17.25
							C123.02,434.56,130.76,442.3,140.27,442.3z"/>
						<polygon points="105.51,442.81 105.51,437.31 111.02,437.31 111.02,434.05 105.51,434.05 105.51,428.54 105.51,426.68 
							107.38,426.68 112.88,426.68 112.88,432.18 116.14,432.18 116.14,426.68 121.65,426.68 121.65,423.42 116.14,423.42 
							116.14,417.91 112.88,417.91 112.88,423.42 107.38,423.42 105.51,423.42 105.51,421.55 105.51,416.05 111.02,416.05 
							111.02,412.79 105.51,412.79 105.51,407.28 102.25,407.28 102.25,412.79 102.25,412.79 96.75,412.79 96.75,416.05 
							102.25,416.05 102.25,416.05 102.25,421.55 102.25,421.55 102.25,423.42 100.39,423.42 94.88,423.42 94.88,417.91 
							91.62,417.91 91.62,423.42 86.12,423.42 86.12,426.68 91.62,426.68 91.62,432.18 94.88,432.18 94.88,426.68 100.39,426.68 
							102.25,426.68 102.25,428.54 102.25,428.54 102.25,434.05 102.25,434.05 96.75,434.05 96.75,437.31 102.25,437.31 
							102.25,437.31 102.25,442.81 						"/>
						<polygon points="128.01,381.53 128.01,387.04 128.01,390.3 128.01,395.8 131.27,395.8 131.27,390.3 136.77,390.3 
							138.64,390.3 138.64,392.16 138.64,397.67 133.13,397.67 133.13,400.93 138.64,400.93 138.64,406.43 140.27,406.43 
							140.27,370.9 138.64,370.9 138.64,376.41 133.13,376.41 133.13,379.66 138.64,379.66 138.64,385.17 138.64,387.04 
							136.77,387.04 131.27,387.04 131.27,381.53 						"/>
						<polygon points="138.64,479.2 140.27,479.2 140.27,443.67 138.64,443.67 138.64,449.17 133.13,449.17 133.13,452.43 
							138.64,452.43 138.64,457.94 138.64,459.8 136.77,459.8 131.27,459.8 131.27,454.3 128.01,454.3 128.01,459.8 122.5,459.8 
							122.5,463.06 128.01,463.06 128.01,463.06 128.01,468.57 131.27,468.57 131.27,463.06 131.27,463.06 136.77,463.06 
							136.77,463.06 138.64,463.06 138.64,464.93 138.64,470.43 133.13,470.43 133.13,473.69 138.64,473.69 138.64,473.69 						"/>
						<polygon points="140.27,517.64 140.27,517.64 140.27,513.03 138.95,511.71 135.06,507.82 138.95,503.93 136.65,501.62 
							132.75,505.51 130.45,507.82 126.56,511.71 128.86,514.02 132.75,510.12 136.65,514.02 137.96,515.33 136.65,516.65 
							136.65,516.65 132.75,520.55 135.06,522.85 138.95,518.96 						"/>
						<polygon points="135.06,522.85 132.75,520.55 130.45,522.85 126.56,526.74 128.86,529.05 132.75,525.16 136.65,529.05 
							138.95,526.74 135.06,522.85 						"/>
						<path d="M130.45,507.82l2.31-2.31l-2.61-2.61l-2.61-2.61l3.89-3.89l-2.3-2.3l-3.89,3.89l-2.61-2.61l-2.61-2.61l3.89-3.89
							l-2.3-2.3l-3.89,3.89l-2.61-2.61l-2.61-2.61l3.89-3.89l-2.3-2.3l-3.89,3.89l-2.61-2.61v0l-2.61-2.61l3.89-3.89l-2.3-2.3
							l-3.89,3.89l-2.61-2.61l0,0l-2.61-2.61l3.89-3.89l-2.3-2.3l-3.89,3.89l0,0l-2.61-2.61l0,0l-2.61-2.61l3.89-3.89l-2.3-2.3
							l-3.89,3.89l-2.61-2.61l0,0l-2.61-2.61l3.89-3.89l-2.3-2.3l-3.89,3.89l0,0l-2.61-2.61l-2.6-2.6l3.89-3.89l-2.3-2.3l-3.89,3.89
							l-3.89-3.89l-1.32-1.32l1.32-1.32h0l3.89-3.89l3.89,3.89l2.31-2.31l-3.89-3.89l3.89-3.89l-2.31-2.3l-3.89,3.89l2.3,2.3l0,0
							l-2.3-2.3l0,0l-3.89-3.89l-2.3,2.3l3.89,3.89l-3.89,3.89l-1.32,1.32l-1.32-1.32l-3.89-3.89l3.89-3.89l-2.3-2.3l-3.89,3.89
							l-3.89-3.89l-1.32-1.32l0.03-0.03l1.29-1.29l3.89-3.89l3.89,3.89l2.3-2.3l-3.89-3.89l3.89-3.89l1.32-1.32l1.32,1.32l3.89,3.89
							l-3.89,3.89l2.3,2.3l3.89-3.89l0,0l2.3-2.3l0,0l-2.3,2.3l3.89,3.89l2.31-2.3l-3.89-3.89l3.89-3.89l-2.31-2.31l-3.89,3.89
							l-3.89-3.89h0l-1.32-1.32l1.32-1.32l3.89-3.89l3.89,3.89l2.3-2.3l-3.89-3.89l2.6-2.6l2.61-2.61l0,0l3.89,3.89l2.3-2.3
							l-3.89-3.89l2.61-2.61l0,0l2.61-2.61l3.89,3.89l2.3-2.3l-3.89-3.89l2.61-2.61v0l2.61-2.61l3.89,3.89l2.3-2.3l-3.89-3.89
							l2.61-2.61l0,0l2.61-2.61l3.89,3.89l2.3-2.3l-3.89-3.89l2.61-2.61v0l2.61-2.61l3.89,3.89l2.3-2.3l-3.89-3.89l2.61-2.61
							l2.61-2.61l3.89,3.89l2.3-2.3l-3.89-3.89l2.61-2.61l2.61-2.61l3.89,3.89l2.3-2.3l-3.89-3.89l2.61-2.61l2.61-2.61l-2.31-2.31
							l-2.61,2.61l-2.61,2.61l-3.89-3.89l-2.3,2.3l3.89,3.89l-2.61,2.61l-2.61,2.61l-3.89-3.89l-2.3,2.3l3.89,3.89l-2.61,2.61
							l-2.61,2.61l-3.89-3.89l-2.3,2.3l3.89,3.89l-2.61,2.61l0,0l-2.61,2.61l-3.89-3.89l-2.3,2.3l3.89,3.89l2.3,2.3l2.3-2.3l0,0
							l-2.3,2.3l0,0l-2.31-2.31l-2.61,2.61l-2.61,2.61l-3.89-3.89l-2.3,2.3l3.89,3.89l-2.61,2.61l0,0l-2.61,2.61l-3.89-3.89
							l-2.3,2.3l3.89,3.89l2.3,2.3l2.3-2.3l0,0l-2.3,2.3l0,0l-2.31-2.31l-2.61,2.61l-2.61,2.61l-3.89-3.89l-2.3,2.3l3.89,3.89
							l-2.61,2.61l-2.6,2.6l-3.89-3.89l-2.3,2.3l3.89,3.89l-3.89,3.89l-1.32,1.32l-1.32-1.32l0,0l-3.89-3.89l3.89-3.89l-2.3-2.3
							l-3.89,3.89l-3.89-3.89l-2.3,2.3l3.89,3.89l-3.89,3.89l2.3,2.3l3.89-3.89l0,0l2.3-2.3l-2.3,2.3l3.89,3.89l1.32,1.32
							l-1.32,1.32l-3.89,3.89l-3.89-3.89l-2.3,2.3l3.89,3.89l-3.89,3.89l-1.32,1.32v4.61l1.32,1.32l3.89,3.89l-3.89,3.89l2.3,2.3
							l3.89-3.89l3.89,3.89l1.32,1.32l-1.32,1.32l-3.89,3.89l2.3,2.3l-2.3-2.3l0,0l-3.89-3.89l-2.3,2.3l3.89,3.89l-3.89,3.89
							l2.3,2.3l3.89-3.89l3.89,3.89l2.3-2.3l-3.89-3.89l3.89-3.89l0,0l1.32-1.32l1.32,1.32l3.89,3.89l-3.89,3.89l2.3,2.3l3.89-3.89
							l2.6,2.6l2.61,2.61l-3.89,3.89l2.3,2.3l3.89-3.89l2.61,2.61l2.61,2.61l2.31-2.31l0,0l2.3,2.3l0,0l-2.3-2.3l-2.3,2.3
							l-3.89,3.89l2.3,2.3l3.89-3.89l2.61,2.61l0,0l2.61,2.61l-3.89,3.89l2.3,2.3l3.89-3.89l2.61,2.61l2.61,2.61l2.31-2.31l0,0
							l2.3,2.3l0,0l-2.3-2.3l-2.3,2.3l-3.89,3.89l2.3,2.3l3.89-3.89l2.61,2.61l0,0l2.61,2.61l-3.89,3.89l2.3,2.3l3.89-3.89
							l2.61,2.61l2.61,2.61l-3.89,3.89l2.3,2.3l3.89-3.89l2.61,2.61l2.61,2.61l-3.89,3.89l2.3,2.3l3.89-3.89l2.61,2.61
							L130.45,507.82z M125.23,352.18L125.23,352.18l2.3-2.3L125.23,352.18z M77.77,395.02l1.15,1.15L77.77,395.02L77.77,395.02z
							 M77.77,455.15l1.15-1.15L77.77,455.15L77.77,455.15z M92.82,470.19l1.15-1.15L92.82,470.19L92.82,470.19z M125.23,497.99
							L125.23,497.99l2.3,2.3L125.23,497.99z"/>
						
							<rect x="126.9" y="328.78" transform="matrix(0.7071 -0.7071 0.7071 0.7071 -195.6615 188.4544)" width="5.51" height="3.26"/>
						<rect x="128.02" y="517" transform="matrix(0.7071 -0.7071 0.7071 0.7071 -329.5458 243.9111)" width="3.26" height="5.51"/>
						<polygon points="132.75,344.65 136.65,348.54 138.95,346.24 135.06,342.35 138.95,338.45 140.27,337.14 140.27,332.52 
							140.27,332.52 138.95,331.21 135.06,327.31 132.75,329.62 136.65,333.51 136.65,333.51 137.96,334.83 136.65,336.15 
							132.75,340.04 128.86,336.15 126.56,338.45 130.45,342.35 						"/>
						<polygon points="136.65,321.12 132.75,325.01 128.86,321.12 126.56,323.42 130.45,327.31 132.75,329.62 135.06,327.31 
							135.06,327.31 138.95,323.42 						"/>
					</g>
					<g>
						<rect x="152.53" y="387.04" width="5.51" height="3.26"/>
						<path d="M172.02,393.29c-0.02,4.73-1.83,9.46-5.43,13.07c-3.61,3.61-8.34,5.42-13.07,5.43c0.02-4.73,1.83-9.46,5.44-13.07
							C162.57,395.12,167.29,393.31,172.02,393.29z"/>
						<path d="M153.52,438.3c4.73,0.02,9.46,1.83,13.07,5.43c3.61,3.61,5.42,8.34,5.43,13.07c-4.73-0.02-9.46-1.83-13.07-5.43
							C155.35,447.76,153.54,443.03,153.52,438.3z"/>
						<path d="M140.27,442.3C140.27,442.3,140.27,442.3,140.27,442.3l0-3c0,0,0,0,0,0c7.86,0,14.25-6.39,14.25-14.25
							c0-7.86-6.39-14.25-14.25-14.25c0,0,0,0,0,0l0-3c0,0,0,0,0,0c9.51,0,17.25,7.74,17.25,17.25
							C157.52,434.56,149.78,442.3,140.27,442.3z"/>
						<polygon points="175.02,442.81 175.02,437.31 169.52,437.31 169.52,434.05 175.02,434.05 175.02,428.54 175.02,426.68 
							173.16,426.68 167.65,426.68 167.65,432.18 164.39,432.18 164.39,426.68 158.89,426.68 158.89,423.42 164.39,423.42 
							164.39,417.91 167.65,417.91 167.65,423.42 173.16,423.42 175.02,423.42 175.02,421.55 175.02,416.05 169.52,416.05 
							169.52,412.79 175.02,412.79 175.02,407.28 178.28,407.28 178.28,412.79 178.28,412.79 183.79,412.79 183.79,416.05 
							178.28,416.05 178.28,416.05 178.28,421.55 178.28,421.55 178.28,423.42 180.15,423.42 185.65,423.42 185.65,417.91 
							188.91,417.91 188.91,423.42 194.42,423.42 194.42,426.68 188.91,426.68 188.91,432.18 185.65,432.18 185.65,426.68 
							180.15,426.68 178.28,426.68 178.28,428.54 178.28,428.54 178.28,434.05 178.28,434.05 183.79,434.05 183.79,437.31 
							178.28,437.31 178.28,437.31 178.28,442.81 						"/>
						<polygon points="152.53,381.53 152.53,387.04 152.53,390.3 152.53,395.8 149.27,395.8 149.27,390.3 143.76,390.3 141.9,390.3 
							141.9,392.16 141.9,397.67 147.4,397.67 147.4,400.93 141.9,400.93 141.9,406.43 140.27,406.43 140.27,370.9 141.9,370.9 
							141.9,376.41 147.4,376.41 147.4,379.66 141.9,379.66 141.9,385.17 141.9,387.04 143.76,387.04 149.27,387.04 149.27,381.53 
													"/>
						<polygon points="141.9,479.2 140.27,479.2 140.27,443.67 141.9,443.67 141.9,449.17 147.4,449.17 147.4,452.43 141.9,452.43 
							141.9,457.94 141.9,459.8 143.76,459.8 149.27,459.8 149.27,454.3 152.53,454.3 152.53,459.8 158.03,459.8 158.03,463.06 
							152.53,463.06 152.53,463.06 152.53,468.57 149.27,468.57 149.27,463.06 149.27,463.06 143.76,463.06 143.76,463.06 
							141.9,463.06 141.9,464.93 141.9,470.43 147.4,470.43 147.4,473.69 141.9,473.69 141.9,473.69 						"/>
						<polygon points="140.27,517.64 140.27,517.64 140.27,513.03 141.59,511.71 145.48,507.82 141.59,503.93 143.89,501.62 
							147.78,505.51 150.09,507.82 153.98,511.71 151.68,514.02 147.78,510.12 143.89,514.02 142.57,515.33 143.89,516.65 
							143.89,516.65 147.78,520.55 145.48,522.85 141.59,518.96 						"/>
						<polygon points="145.48,522.85 147.78,520.55 150.09,522.85 153.98,526.74 151.68,529.05 147.78,525.16 143.89,529.05 
							141.59,526.74 145.48,522.85 						"/>
						<path d="M152.7,505.21l2.61-2.61l3.89,3.89l2.3-2.3l-3.89-3.89l2.61-2.61l2.61-2.61l3.89,3.89l2.3-2.3l-3.89-3.89l2.61-2.61
							l2.61-2.61l3.89,3.89l2.3-2.3l-3.89-3.89l2.61-2.61l0,0l2.61-2.61l3.89,3.89l2.3-2.3l-3.89-3.89l-2.3-2.3l-2.3,2.3l0,0
							l2.3-2.3l0,0l2.31,2.31l2.61-2.61l2.61-2.61l3.89,3.89l2.3-2.3l-3.89-3.89l2.61-2.61l0,0l2.61-2.61l3.89,3.89l2.3-2.3
							l-3.89-3.89l-2.3-2.3l-2.3,2.3l0,0l2.3-2.3l0,0l2.31,2.31l2.61-2.61l2.61-2.61l3.89,3.89l2.3-2.3l-3.89-3.89l2.61-2.61
							l2.6-2.6l3.89,3.89l2.3-2.3l-3.89-3.89l3.89-3.89l1.32-1.32l1.32,1.32l0,0l3.89,3.89l-3.89,3.89l2.3,2.3l3.89-3.89l3.89,3.89
							l2.3-2.3l-3.89-3.89l3.89-3.89l-2.3-2.3l-3.89,3.89l0,0l-2.3,2.3l2.3-2.3l-3.89-3.89l-1.32-1.32l1.32-1.32l3.89-3.89
							l3.89,3.89l2.3-2.3l-3.89-3.89l3.89-3.89l1.32-1.32v-4.61l-1.32-1.32l-3.89-3.89l3.89-3.89l-2.3-2.3l-3.89,3.89l-3.89-3.89
							l-1.32-1.32l1.32-1.32l3.89-3.89l-2.3-2.3l2.3,2.3l0,0l3.89,3.89l2.3-2.3l-3.89-3.89l3.89-3.89l-2.3-2.3l-3.89,3.89
							l-3.89-3.89l-2.3,2.3l3.89,3.89l-3.89,3.89l0,0l-1.32,1.32l-1.32-1.32l-3.89-3.89l3.89-3.89l-2.3-2.3l-3.89,3.89l-2.6-2.6
							l-2.61-2.61l3.89-3.89l-2.3-2.3l-3.89,3.89l-2.61-2.61l-2.61-2.61l-2.31,2.31l0,0l-2.3-2.3l0,0l2.3,2.3l2.3-2.3l3.89-3.89
							l-2.3-2.3l-3.89,3.89l-2.61-2.61l0,0l-2.61-2.61l3.89-3.89l-2.3-2.3l-3.89,3.89l-2.61-2.61l-2.61-2.61l-2.31,2.31l0,0
							l-2.3-2.3l0,0l2.3,2.3l2.3-2.3l3.89-3.89l-2.3-2.3l-3.89,3.89l-2.61-2.61l0,0l-2.61-2.61l3.89-3.89l-2.3-2.3l-3.89,3.89
							l-2.61-2.61l-2.61-2.61l3.89-3.89l-2.3-2.3l-3.89,3.89l-2.61-2.61l-2.61-2.61l3.89-3.89l-2.3-2.3l-3.89,3.89l-2.61-2.61
							l-2.61-2.61l-2.31,2.31l2.61,2.61l2.61,2.61l-3.89,3.89l2.3,2.3l3.89-3.89l2.61,2.61l2.61,2.61l-3.89,3.89l2.3,2.3l3.89-3.89
							l2.61,2.61l2.61,2.61l-3.89,3.89l2.3,2.3l3.89-3.89l2.61,2.61v0l2.61,2.61l-3.89,3.89l2.3,2.3l3.89-3.89l2.61,2.61l0,0
							l2.61,2.61l-3.89,3.89l2.3,2.3l3.89-3.89l2.61,2.61v0l2.61,2.61l-3.89,3.89l2.3,2.3l3.89-3.89l2.61,2.61l0,0l2.61,2.61
							l-3.89,3.89l2.3,2.3l3.89-3.89l0,0l2.61,2.61l2.6,2.6l-3.89,3.89l2.3,2.3l3.89-3.89l3.89,3.89l1.32,1.32l-1.32,1.32h0
							l-3.89,3.89l-3.89-3.89l-2.31,2.31l3.89,3.89l-3.89,3.89l2.31,2.3l3.89-3.89l-2.3-2.3l0,0l2.3,2.3l0,0l3.89,3.89l2.3-2.3
							l-3.89-3.89l3.89-3.89l1.32-1.32l1.32,1.32l3.89,3.89l-3.89,3.89l2.3,2.3l3.89-3.89l3.89,3.89l1.29,1.29l0.03,0.03l-1.32,1.32
							l-3.89,3.89l-3.89-3.89l-2.3,2.3l3.89,3.89l-3.89,3.89l-1.32,1.32l-1.32-1.32l-3.89-3.89l3.89-3.89l-2.3-2.3l-3.89,3.89l0,0
							l-2.3,2.3l0,0l2.3-2.3l-3.89-3.89l-2.31,2.3l3.89,3.89l-3.89,3.89l2.31,2.31l3.89-3.89l3.89,3.89h0l1.32,1.32l-1.32,1.32
							l-3.89,3.89l-3.89-3.89l-2.3,2.3l3.89,3.89l-2.6,2.6l-2.61,2.61l0,0l-3.89-3.89l-2.3,2.3l3.89,3.89l-2.61,2.61l0,0l-2.61,2.61
							l-3.89-3.89l-2.3,2.3l3.89,3.89l-2.61,2.61l0,0l-2.61,2.61l0,0l-3.89-3.89l-2.3,2.3l3.89,3.89l-2.61,2.61l0,0l-2.61,2.61
							l-3.89-3.89l-2.3,2.3l3.89,3.89l-2.61,2.61v0l-2.61,2.61l-3.89-3.89l-2.3,2.3l3.89,3.89l-2.61,2.61l-2.61,2.61l-3.89-3.89
							l-2.3,2.3l3.89,3.89l-2.61,2.61l-2.61,2.61l-3.89-3.89l-2.3,2.3l3.89,3.89l-2.61,2.61l-2.61,2.61l2.31,2.31L152.7,505.21z
							 M153,349.87l2.3,2.3v0L153,349.87z M202.76,395.02l-1.15,1.15L202.76,395.02L202.76,395.02z M202.76,455.14l-1.15-1.15
							L202.76,455.14L202.76,455.14z M187.71,470.19l-1.15-1.15L187.71,470.19L187.71,470.19z M153,500.29l2.3-2.3l0,0L153,500.29z"
							/>
						
							<rect x="149.25" y="327.66" transform="matrix(0.7071 -0.7071 0.7071 0.7071 -189.444 203.4647)" width="3.26" height="5.51"/>
						
							<rect x="148.13" y="518.12" transform="matrix(0.7071 -0.7071 0.7071 0.7071 -323.3284 258.9214)" width="5.51" height="3.26"/>
						<polygon points="147.78,344.65 143.89,348.54 141.59,346.24 145.48,342.35 141.59,338.45 140.27,337.14 140.27,332.52 
							140.27,332.52 141.59,331.21 145.48,327.31 147.78,329.62 143.89,333.51 143.89,333.51 142.57,334.83 143.89,336.15 
							147.78,340.04 151.68,336.15 153.98,338.45 150.09,342.35 						"/>
						<polygon points="143.89,321.12 147.78,325.01 151.68,321.12 153.98,323.42 150.09,327.31 147.78,329.62 145.48,327.31 
							145.48,327.31 141.59,323.42 						"/>
					</g>
				</g>
				<g>
					<polygon points="230.52,370.9 230.52,354.77 228.89,354.77 228.89,360.27 223.38,360.27 223.38,363.53 228.89,363.53 
						228.89,369.03 228.89,369.03 228.89,370.9 					"/>
					<polygon points="230.52,390.3 230.52,381.53 228.89,381.53 228.89,381.53 230.52,381.53 230.52,370.9 228.89,370.9 
						227.02,370.9 227.02,370.9 221.52,370.9 221.52,370.9 218.26,370.9 218.26,370.9 221.52,370.9 221.52,365.4 218.26,365.4 
						218.26,370.9 212.75,370.9 212.75,374.16 218.26,374.16 218.26,379.66 221.52,379.66 221.52,374.16 227.02,374.16 
						228.89,374.16 228.89,376.03 228.89,376.03 228.89,381.53 223.38,381.53 223.38,384.79 228.89,384.79 228.89,390.3 					"/>
					<path d="M230.52,353.4C230.52,353.4,230.52,353.4,230.52,353.4l0-3c0,0,0,0,0,0c-7.86,0-14.25-6.39-14.25-14.25
						s6.39-14.25,14.25-14.25c0,0,0,0,0,0v-3c0,0,0,0,0,0c-9.51,0-17.25,7.74-17.25,17.25S221.01,353.4,230.52,353.4z"/>
					<path d="M204.2,354.83c-3.61,3.61-5.42,8.34-5.44,13.07c4.73-0.02,9.46-1.83,13.07-5.43c3.61-3.61,5.42-8.34,5.43-13.07
						C212.53,349.41,207.81,351.22,204.2,354.83z"/>
					<polygon points="201.27,345.15 195.76,345.15 195.76,339.64 195.76,337.78 197.63,337.78 203.13,337.78 203.13,343.28 
						206.39,343.28 206.39,337.78 211.9,337.78 211.9,334.52 206.39,334.52 206.39,329.01 203.13,329.01 203.13,334.52 
						197.63,334.52 195.76,334.52 195.76,332.65 195.76,329.01 192.5,329.01 192.5,332.65 192.5,334.52 190.64,334.52 
						185.13,334.52 185.13,329.01 181.87,329.01 181.87,334.52 176.37,334.52 176.37,337.78 181.87,337.78 181.87,343.28 
						185.13,343.28 185.13,337.78 190.64,337.78 192.5,337.78 192.5,339.64 192.5,345.15 187,345.15 187,348.41 192.5,348.41 
						192.5,353.91 195.76,353.91 195.76,348.41 201.27,348.41 					"/>
				</g>
				<g>
					<polygon points="50.02,370.9 50.02,354.77 51.65,354.77 51.65,360.27 57.15,360.27 57.15,363.53 51.65,363.53 51.65,369.03 
						51.65,369.03 51.65,370.9 					"/>
					<polygon points="50.02,390.3 50.02,381.53 51.65,381.53 51.65,381.53 50.02,381.53 50.02,370.9 51.65,370.9 53.51,370.9 
						53.51,370.9 59.02,370.9 59.02,370.9 62.28,370.9 62.28,370.9 59.02,370.9 59.02,365.4 62.28,365.4 62.28,370.9 67.78,370.9 
						67.78,374.16 62.28,374.16 62.28,379.66 59.02,379.66 59.02,374.16 53.51,374.16 51.65,374.16 51.65,376.03 51.65,376.03 
						51.65,381.53 57.15,381.53 57.15,384.79 51.65,384.79 51.65,390.3 					"/>
					<path d="M50.02,353.4L50.02,353.4l0-3h0c7.86,0,14.25-6.39,14.25-14.25s-6.39-14.25-14.25-14.25h0v-3h0
						c9.51,0,17.25,7.74,17.25,17.25S59.53,353.4,50.02,353.4z"/>
					<path d="M76.34,354.83c3.61,3.61,5.42,8.34,5.44,13.07c-4.73-0.02-9.46-1.83-13.07-5.43c-3.61-3.61-5.42-8.34-5.43-13.07
						C68,349.41,72.73,351.22,76.34,354.83z"/>
					<polygon points="79.27,345.15 84.77,345.15 84.77,339.64 84.77,337.78 82.91,337.78 77.4,337.78 77.4,343.28 74.14,343.28 
						74.14,337.78 68.64,337.78 68.64,334.52 74.14,334.52 74.14,329.01 77.4,329.01 77.4,334.52 82.91,334.52 84.77,334.52 
						84.77,332.65 84.77,329.01 88.03,329.01 88.03,332.65 88.03,334.52 89.9,334.52 95.4,334.52 95.4,329.01 98.66,329.01 
						98.66,334.52 104.17,334.52 104.17,337.78 98.66,337.78 98.66,343.28 95.4,343.28 95.4,337.78 89.9,337.78 88.03,337.78 
						88.03,339.64 88.03,345.15 93.54,345.15 93.54,348.41 88.03,348.41 88.03,353.91 84.77,353.91 84.77,348.41 79.27,348.41 					
						"/>
				</g>
				<g>
					<polygon points="230.52,479.26 230.52,495.4 228.89,495.4 228.89,489.89 223.38,489.89 223.38,486.63 228.89,486.63 
						228.89,481.13 228.89,481.13 228.89,479.26 					"/>
					<polygon points="230.52,459.87 230.52,468.63 228.89,468.63 228.89,468.63 230.52,468.63 230.52,479.26 228.89,479.26 
						227.02,479.26 227.02,479.26 221.52,479.26 221.52,479.26 218.26,479.26 218.26,479.26 221.52,479.26 221.52,484.77 
						218.26,484.77 218.26,479.26 212.75,479.26 212.75,476 218.26,476 218.26,470.5 221.52,470.5 221.52,476 227.02,476 
						228.89,476 228.89,474.14 228.89,474.14 228.89,468.63 223.38,468.63 223.38,465.37 228.89,465.37 228.89,459.87 					"/>
					<path d="M230.52,496.77C230.52,496.77,230.52,496.77,230.52,496.77l0,3c0,0,0,0,0,0c-7.86,0-14.25,6.39-14.25,14.25
						s6.39,14.25,14.25,14.25c0,0,0,0,0,0v3c0,0,0,0,0,0c-9.51,0-17.25-7.74-17.25-17.25S221.01,496.77,230.52,496.77z"/>
					<path d="M204.2,495.33c-3.61-3.61-5.42-8.34-5.44-13.07c4.73,0.02,9.46,1.83,13.07,5.43c3.61,3.61,5.42,8.34,5.43,13.07
						C212.53,500.75,207.81,498.94,204.2,495.33z"/>
					<polygon points="201.27,505.02 195.76,505.02 195.76,510.52 195.76,512.39 197.63,512.39 203.13,512.39 203.13,506.88 
						206.39,506.88 206.39,512.39 211.9,512.39 211.9,515.65 206.39,515.65 206.39,521.15 203.13,521.15 203.13,515.65 
						197.63,515.65 195.76,515.65 195.76,517.51 195.76,521.15 192.5,521.15 192.5,517.51 192.5,515.65 190.64,515.65 
						185.13,515.65 185.13,521.15 181.87,521.15 181.87,515.65 176.37,515.65 176.37,512.39 181.87,512.39 181.87,506.88 
						185.13,506.88 185.13,512.39 190.64,512.39 192.5,512.39 192.5,510.52 192.5,505.02 187,505.02 187,501.76 192.5,501.76 
						192.5,496.25 195.76,496.25 195.76,501.76 201.27,501.76 					"/>
				</g>
				<g>
					<polygon points="50.02,479.26 50.02,495.4 51.65,495.4 51.65,489.89 57.15,489.89 57.15,486.63 51.65,486.63 51.65,481.13 
						51.65,481.13 51.65,479.26 					"/>
					<polygon points="50.02,459.87 50.02,468.63 51.65,468.63 51.65,468.63 50.02,468.63 50.02,479.26 51.65,479.26 53.51,479.26 
						53.51,479.26 59.02,479.26 59.02,479.26 62.28,479.26 62.28,479.26 59.02,479.26 59.02,484.77 62.28,484.77 62.28,479.26 
						67.78,479.26 67.78,476 62.28,476 62.28,470.5 59.02,470.5 59.02,476 53.51,476 51.65,476 51.65,474.14 51.65,474.14 
						51.65,468.63 57.15,468.63 57.15,465.37 51.65,465.37 51.65,459.87 					"/>
					<path d="M50.02,496.77L50.02,496.77l0,3h0c7.86,0,14.25,6.39,14.25,14.25s-6.39,14.25-14.25,14.25h0v3h0
						c9.51,0,17.25-7.74,17.25-17.25S59.53,496.77,50.02,496.77z"/>
					<path d="M76.34,495.33c3.61-3.61,5.42-8.34,5.44-13.07c-4.73,0.02-9.46,1.83-13.07,5.43c-3.61,3.61-5.42,8.34-5.43,13.07
						C68,500.75,72.73,498.94,76.34,495.33z"/>
					<polygon points="79.27,505.02 84.77,505.02 84.77,510.52 84.77,512.39 82.91,512.39 77.4,512.39 77.4,506.88 74.14,506.88 
						74.14,512.39 68.64,512.39 68.64,515.65 74.14,515.65 74.14,521.15 77.4,521.15 77.4,515.65 82.91,515.65 84.77,515.65 
						84.77,517.51 84.77,521.15 88.03,521.15 88.03,517.51 88.03,515.65 89.9,515.65 95.4,515.65 95.4,521.15 98.66,521.15 
						98.66,515.65 104.17,515.65 104.17,512.39 98.66,512.39 98.66,506.88 95.4,506.88 95.4,512.39 89.9,512.39 88.03,512.39 
						88.03,510.52 88.03,505.02 93.54,505.02 93.54,501.76 88.03,501.76 88.03,496.25 84.77,496.25 84.77,501.76 79.27,501.76 					
						"/>
				</g>
			</g>
			<g>
				<g>
					<rect x="117.35" y="305.67" width="3.26" height="3.26"/>
					<rect x="117.35" y="300.16" width="3.26" height="5.51"/>
					<rect x="117.35" y="308.93" width="3.26" height="5.51"/>
					<rect x="120.61" y="305.67" width="3.69" height="3.27"/>
					<rect x="113.66" y="305.67" width="3.69" height="3.27"/>
				</g>
				<g>
					<rect x="127.99" y="305.67" width="3.26" height="3.26"/>
					<rect x="127.99" y="300.16" width="3.26" height="5.51"/>
					<rect x="127.99" y="308.93" width="3.26" height="5.51"/>
					<rect x="131.25" y="305.67" width="3.69" height="3.27"/>
					<rect x="124.3" y="305.67" width="3.69" height="3.27"/>
				</g>
				<g>
					<rect x="138.64" y="305.67" width="3.26" height="3.26"/>
					<rect x="138.64" y="300.16" width="3.26" height="5.51"/>
					<rect x="138.64" y="308.93" width="3.26" height="5.51"/>
					<rect x="141.9" y="305.67" width="3.69" height="3.27"/>
					<rect x="134.95" y="305.67" width="3.69" height="3.27"/>
				</g>
				<g>
					<rect x="149.28" y="305.67" width="3.26" height="3.26"/>
					<rect x="149.28" y="300.16" width="3.26" height="5.51"/>
					<rect x="149.28" y="308.93" width="3.26" height="5.51"/>
					<rect x="152.54" y="305.67" width="3.69" height="3.27"/>
					<rect x="145.59" y="305.67" width="3.69" height="3.27"/>
				</g>
				<g>
					<rect x="159.92" y="305.67" width="3.26" height="3.26"/>
					<rect x="159.92" y="300.16" width="3.26" height="5.51"/>
					<rect x="159.92" y="308.93" width="3.26" height="5.51"/>
					<rect x="163.18" y="305.67" width="3.69" height="3.27"/>
					<rect x="156.23" y="305.67" width="3.69" height="3.27"/>
				</g>
				<g>
					<rect x="170.57" y="305.67" width="3.26" height="3.26"/>
					<rect x="170.57" y="300.16" width="3.26" height="5.51"/>
					<rect x="170.57" y="308.93" width="3.26" height="5.51"/>
					<rect x="173.82" y="305.67" width="3.69" height="3.27"/>
					<rect x="166.87" y="305.67" width="3.69" height="3.27"/>
				</g>
				<g>
					<rect x="181.21" y="305.67" width="3.26" height="3.26"/>
					<rect x="181.21" y="300.16" width="3.26" height="5.51"/>
					<rect x="181.21" y="308.93" width="3.26" height="5.51"/>
					<rect x="184.47" y="305.67" width="3.69" height="3.27"/>
					<rect x="177.51" y="305.67" width="3.69" height="3.27"/>
				</g>
				<g>
					<rect x="191.85" y="305.67" width="3.26" height="3.26"/>
					<rect x="191.85" y="300.16" width="3.26" height="5.51"/>
					<rect x="191.85" y="308.93" width="3.26" height="5.51"/>
					<rect x="195.11" y="305.67" width="3.69" height="3.27"/>
					<rect x="188.16" y="305.67" width="3.69" height="3.27"/>
				</g>
				<g>
					<rect x="202.49" y="305.67" width="3.26" height="3.26"/>
					<rect x="202.49" y="300.16" width="3.26" height="5.51"/>
					<rect x="202.49" y="308.93" width="3.26" height="5.51"/>
					<rect x="205.75" y="305.67" width="3.69" height="3.27"/>
					<rect x="198.8" y="305.67" width="3.69" height="3.27"/>
				</g>
				<g>
					<rect x="213.13" y="305.67" width="3.26" height="3.26"/>
					<rect x="213.13" y="300.16" width="3.26" height="5.51"/>
					<rect x="213.13" y="308.93" width="3.26" height="5.51"/>
					<rect x="216.39" y="305.67" width="3.69" height="3.27"/>
					<rect x="209.44" y="305.67" width="3.69" height="3.27"/>
				</g>
				<g>
					<rect x="223.77" y="305.67" width="3.26" height="3.26"/>
					<rect x="223.77" y="300.16" width="3.26" height="5.51"/>
					<rect x="223.77" y="308.93" width="3.26" height="5.51"/>
					<rect x="227.03" y="305.67" width="3.5" height="3.27"/>
					<rect x="220.08" y="305.67" width="3.69" height="3.27"/>
				</g>
				<g>
					
						<rect x="106.71" y="305.67" transform="matrix(-1 -4.296753e-11 4.296753e-11 -1 216.6809 614.5981)" width="3.26" height="3.26"/>
					<rect x="106.71" y="300.16" width="3.26" height="5.51"/>
					<rect x="106.71" y="308.93" width="3.26" height="5.51"/>
					<rect x="103.02" y="305.67" width="3.69" height="3.27"/>
					<rect x="109.97" y="305.67" width="3.69" height="3.27"/>
				</g>
				<g>
					
						<rect x="96.07" y="305.67" transform="matrix(-1 -4.631552e-11 4.631552e-11 -1 195.3984 614.5981)" width="3.26" height="3.26"/>
					<rect x="96.07" y="300.16" width="3.26" height="5.51"/>
					<rect x="96.07" y="308.93" width="3.26" height="5.51"/>
					<rect x="92.38" y="305.67" width="3.69" height="3.27"/>
					<rect x="99.33" y="305.67" width="3.69" height="3.27"/>
				</g>
				<g>
					
						<rect x="85.43" y="305.67" transform="matrix(-1 -4.352575e-11 4.352575e-11 -1 174.1159 614.5981)" width="3.26" height="3.26"/>
					<rect x="85.43" y="300.16" width="3.26" height="5.51"/>
					<rect x="85.43" y="308.93" width="3.26" height="5.51"/>
					<rect x="81.74" y="305.67" width="3.69" height="3.27"/>
					<rect x="88.69" y="305.67" width="3.69" height="3.27"/>
				</g>
				<g>
					
						<rect x="74.79" y="305.67" transform="matrix(-1 -4.296753e-11 4.296753e-11 -1 152.8333 614.5981)" width="3.26" height="3.26"/>
					<rect x="74.79" y="300.16" width="3.26" height="5.51"/>
					<rect x="74.79" y="308.93" width="3.26" height="5.51"/>
					<rect x="71.1" y="305.67" width="3.69" height="3.27"/>
					<rect x="78.05" y="305.67" width="3.69" height="3.27"/>
				</g>
				<g>
					
						<rect x="64.15" y="305.67" transform="matrix(-1 -4.296753e-11 4.296753e-11 -1 131.5508 614.5981)" width="3.26" height="3.26"/>
					<rect x="64.15" y="300.16" width="3.26" height="5.51"/>
					<rect x="64.15" y="308.93" width="3.26" height="5.51"/>
					<rect x="60.45" y="305.67" width="3.69" height="3.27"/>
					<rect x="67.41" y="305.67" width="3.69" height="3.27"/>
				</g>
				<g>
					
						<rect x="53.5" y="305.67" transform="matrix(-1 -4.631552e-11 4.631552e-11 -1 110.2683 614.5981)" width="3.26" height="3.26"/>
					<rect x="53.5" y="300.16" width="3.26" height="5.51"/>
					<rect x="53.5" y="308.93" width="3.26" height="5.51"/>
					<rect x="50.02" y="305.67" width="3.49" height="3.27"/>
					<rect x="56.76" y="305.67" width="3.69" height="3.27"/>
				</g>
			</g>
			<g>
				<g>
					<rect x="117.35" y="541.24" width="3.26" height="3.26"/>
					<rect x="117.35" y="535.73" width="3.26" height="5.51"/>
					<rect x="117.35" y="544.49" width="3.26" height="5.51"/>
					<rect x="120.61" y="541.23" width="3.69" height="3.27"/>
					<rect x="113.66" y="541.23" width="3.69" height="3.27"/>
				</g>
				<g>
					<rect x="127.99" y="541.24" width="3.26" height="3.26"/>
					<rect x="127.99" y="535.73" width="3.26" height="5.51"/>
					<rect x="127.99" y="544.49" width="3.26" height="5.51"/>
					<rect x="131.25" y="541.23" width="3.69" height="3.27"/>
					<rect x="124.3" y="541.23" width="3.69" height="3.27"/>
				</g>
				<g>
					<rect x="138.64" y="541.24" width="3.26" height="3.26"/>
					<rect x="138.64" y="535.73" width="3.26" height="5.51"/>
					<rect x="138.64" y="544.49" width="3.26" height="5.51"/>
					<rect x="141.9" y="541.23" width="3.69" height="3.27"/>
					<rect x="134.95" y="541.23" width="3.69" height="3.27"/>
				</g>
				<g>
					<rect x="149.28" y="541.24" width="3.26" height="3.26"/>
					<rect x="149.28" y="535.73" width="3.26" height="5.51"/>
					<rect x="149.28" y="544.49" width="3.26" height="5.51"/>
					<rect x="152.54" y="541.23" width="3.69" height="3.27"/>
					<rect x="145.59" y="541.23" width="3.69" height="3.27"/>
				</g>
				<g>
					<rect x="159.92" y="541.24" width="3.26" height="3.26"/>
					<rect x="159.92" y="535.73" width="3.26" height="5.51"/>
					<rect x="159.92" y="544.49" width="3.26" height="5.51"/>
					<rect x="163.18" y="541.23" width="3.69" height="3.27"/>
					<rect x="156.23" y="541.23" width="3.69" height="3.27"/>
				</g>
				<g>
					<rect x="170.57" y="541.24" width="3.26" height="3.26"/>
					<rect x="170.57" y="535.73" width="3.26" height="5.51"/>
					<rect x="170.57" y="544.49" width="3.26" height="5.51"/>
					<rect x="173.82" y="541.23" width="3.69" height="3.27"/>
					<rect x="166.87" y="541.23" width="3.69" height="3.27"/>
				</g>
				<g>
					<rect x="181.21" y="541.24" width="3.26" height="3.26"/>
					<rect x="181.21" y="535.73" width="3.26" height="5.51"/>
					<rect x="181.21" y="544.49" width="3.26" height="5.51"/>
					<rect x="184.47" y="541.23" width="3.69" height="3.27"/>
					<rect x="177.51" y="541.23" width="3.69" height="3.27"/>
				</g>
				<g>
					<rect x="191.85" y="541.24" width="3.26" height="3.26"/>
					<rect x="191.85" y="535.73" width="3.26" height="5.51"/>
					<rect x="191.85" y="544.49" width="3.26" height="5.51"/>
					<rect x="195.11" y="541.23" width="3.69" height="3.27"/>
					<rect x="188.16" y="541.23" width="3.69" height="3.27"/>
				</g>
				<g>
					<rect x="202.49" y="541.24" width="3.26" height="3.26"/>
					<rect x="202.49" y="535.73" width="3.26" height="5.51"/>
					<rect x="202.49" y="544.49" width="3.26" height="5.51"/>
					<rect x="205.75" y="541.23" width="3.69" height="3.27"/>
					<rect x="198.8" y="541.23" width="3.69" height="3.27"/>
				</g>
				<g>
					<rect x="213.13" y="541.24" width="3.26" height="3.26"/>
					<rect x="213.13" y="535.73" width="3.26" height="5.51"/>
					<rect x="213.13" y="544.49" width="3.26" height="5.51"/>
					<rect x="216.39" y="541.23" width="3.69" height="3.27"/>
					<rect x="209.44" y="541.23" width="3.69" height="3.27"/>
				</g>
				<g>
					<rect x="223.77" y="541.24" width="3.26" height="3.26"/>
					<rect x="223.77" y="535.73" width="3.26" height="5.51"/>
					<rect x="223.77" y="544.49" width="3.26" height="5.51"/>
					<rect x="227.03" y="541.23" width="3.5" height="3.27"/>
					<rect x="220.08" y="541.23" width="3.69" height="3.27"/>
				</g>
				<g>
					
						<rect x="106.71" y="541.24" transform="matrix(-1 -4.910573e-11 4.910573e-11 -1 216.6809 1085.7301)" width="3.26" height="3.26"/>
					<rect x="106.71" y="535.73" width="3.26" height="5.51"/>
					<rect x="106.71" y="544.49" width="3.26" height="5.51"/>
					<rect x="103.02" y="541.23" width="3.69" height="3.27"/>
					<rect x="109.97" y="541.23" width="3.69" height="3.27"/>
				</g>
				<g>
					
						<rect x="96.07" y="541.24" transform="matrix(-1 -4.631552e-11 4.631552e-11 -1 195.3984 1085.7301)" width="3.26" height="3.26"/>
					<rect x="96.07" y="535.73" width="3.26" height="5.51"/>
					<rect x="96.07" y="544.49" width="3.26" height="5.51"/>
					<rect x="92.38" y="541.23" width="3.69" height="3.27"/>
					<rect x="99.33" y="541.23" width="3.69" height="3.27"/>
				</g>
				<g>
					
						<rect x="85.43" y="541.24" transform="matrix(-1 -4.352575e-11 4.352575e-11 -1 174.1159 1085.7301)" width="3.26" height="3.26"/>
					<rect x="85.43" y="535.73" width="3.26" height="5.51"/>
					<rect x="85.43" y="544.49" width="3.26" height="5.51"/>
					<rect x="81.74" y="541.23" width="3.69" height="3.27"/>
					<rect x="88.69" y="541.23" width="3.69" height="3.27"/>
				</g>
				<g>
					
						<rect x="74.79" y="541.24" transform="matrix(-1 -4.910573e-11 4.910573e-11 -1 152.8333 1085.7301)" width="3.26" height="3.26"/>
					<rect x="74.79" y="535.73" width="3.26" height="5.51"/>
					<rect x="74.79" y="544.49" width="3.26" height="5.51"/>
					<rect x="71.1" y="541.23" width="3.69" height="3.27"/>
					<rect x="78.05" y="541.23" width="3.69" height="3.27"/>
				</g>
				<g>
					
						<rect x="64.15" y="541.24" transform="matrix(-1 -4.910573e-11 4.910573e-11 -1 131.5508 1085.7301)" width="3.26" height="3.26"/>
					<rect x="64.15" y="535.73" width="3.26" height="5.51"/>
					<rect x="64.15" y="544.49" width="3.26" height="5.51"/>
					<rect x="60.45" y="541.23" width="3.69" height="3.27"/>
					<rect x="67.41" y="541.23" width="3.69" height="3.27"/>
				</g>
				<g>
					
						<rect x="53.5" y="541.24" transform="matrix(-1 -4.631552e-11 4.631552e-11 -1 110.2683 1085.7301)" width="3.26" height="3.26"/>
					<rect x="53.5" y="535.73" width="3.26" height="5.51"/>
					<rect x="53.5" y="544.49" width="3.26" height="5.51"/>
					<rect x="50.02" y="541.23" width="3.49" height="3.27"/>
					<rect x="56.76" y="541.23" width="3.69" height="3.27"/>
				</g>
			</g>
		</g>
		<polygon points="173.79,305.55 173.79,300.04 170.53,300.04 170.53,305.55 165.02,305.55 165.02,305.55 163.16,305.55 
			163.16,298.18 168.66,298.18 168.66,294.92 163.16,294.92 163.16,289.41 159.9,289.41 159.9,294.92 154.39,294.92 154.39,298.18 
			159.9,298.18 159.9,305.55 158.03,305.55 158.03,305.55 152.53,305.55 152.53,300.04 149.27,300.04 149.27,305.55 143.76,305.55 
			143.76,305.55 141.9,305.55 141.9,303.68 141.9,303.68 141.9,298.18 147.4,298.18 147.4,294.92 141.9,294.92 141.9,289.41 
			141.9,289.41 141.9,287.55 149.27,287.55 149.27,293.05 152.53,293.05 152.53,287.55 158.03,287.55 158.03,284.29 152.53,284.29 
			152.53,278.78 149.27,278.78 149.27,284.29 143.76,284.29 143.76,284.29 141.9,284.29 141.9,282.42 141.9,282.42 141.9,276.92 
			147.4,276.92 147.4,273.66 141.9,273.66 141.9,268.15 138.64,268.15 138.64,273.66 133.13,273.66 133.13,276.92 138.64,276.92 
			138.64,284.29 136.77,284.29 136.77,284.29 131.27,284.29 131.27,278.78 128.01,278.78 128.01,284.29 122.5,284.29 122.5,287.55 
			128.01,287.55 128.01,293.05 131.27,293.05 131.27,287.55 138.64,287.55 138.64,294.92 133.13,294.92 133.13,298.18 
			138.64,298.18 138.64,305.55 136.77,305.55 136.77,305.55 131.27,305.55 131.27,300.04 128.01,300.04 128.01,305.55 122.5,305.55 
			122.5,305.55 120.64,305.55 120.64,298.18 126.14,298.18 126.14,294.92 120.64,294.92 120.64,289.41 117.38,289.41 117.38,294.92 
			111.87,294.92 111.87,298.18 117.38,298.18 117.38,305.55 115.51,305.55 115.51,305.55 110.01,305.55 110.01,300.04 
			106.75,300.04 106.75,305.55 101.24,305.55 101.24,308.81 106.75,308.81 106.75,314.31 110.01,314.31 110.01,308.81 
			117.38,308.81 117.38,314.43 120.64,314.43 120.64,308.81 128.01,308.81 128.01,314.31 131.27,314.31 131.27,308.81 
			138.64,308.81 138.64,314.43 141.9,314.43 141.9,310.67 141.9,310.67 141.9,308.81 149.27,308.81 149.27,314.31 152.53,314.31 
			152.53,308.81 159.9,308.81 159.9,314.43 163.16,314.43 163.16,308.81 170.53,308.81 170.53,314.31 173.79,314.31 173.79,308.81 
			179.29,308.81 179.29,305.55 		"/>
		<g>
			<polygon points="218.26,241.66 221.52,241.66 221.52,236.16 228.89,236.16 228.89,243.53 223.38,243.53 223.38,246.79 
				228.89,246.79 228.89,246.79 230.54,246.79 230.54,225.53 228.89,225.53 228.89,232.9 221.52,232.9 221.52,227.4 218.26,227.4 
				218.26,232.9 212.75,232.9 212.75,236.16 218.26,236.16 			"/>
			<rect x="228.89" y="246.79" width="1.65" height="5.51"/>
			<path d="M217.26,257.66c-0.02-4.73-1.83-9.46-5.43-13.07c-3.61-3.61-8.34-5.42-13.07-5.44c0.02,4.73,1.83,9.46,5.43,13.07
				C207.81,255.84,212.53,257.65,217.26,257.66z"/>
			<polygon points="230.54,225.53 230.54,216.76 228.89,216.76 228.89,222.27 223.38,222.27 223.38,225.53 228.89,225.53 
				228.89,225.53 			"/>
			<polygon points="230.54,300.16 230.54,289.53 228.89,289.53 228.89,295.04 223.38,295.04 223.38,298.3 228.89,298.3 
				228.89,300.16 			"/>
			<path d="M230.54,288.16v-3c-0.01,0-0.01,0-0.02,0c-7.86,0-14.25-6.39-14.25-14.25s6.39-14.25,14.25-14.25c0.01,0,0.01,0,0.02,0
				v-3c-0.01,0-0.01,0-0.02,0c-9.51,0-17.25,7.74-17.25,17.25s7.74,17.25,17.25,17.25C230.52,288.16,230.53,288.16,230.54,288.16z"
				/>
			<path d="M198.96,300.16h9.03c1.37-0.79,2.67-1.76,3.84-2.93c3.61-3.61,5.42-8.34,5.43-13.07c-4.73,0.02-9.46,1.83-13.07,5.43
				C201.23,292.57,199.49,296.3,198.96,300.16z"/>
			<polygon points="201.27,279.91 195.76,279.91 195.76,272.54 203.13,272.54 203.13,278.05 206.39,278.05 206.39,272.54 
				211.9,272.54 211.9,269.28 206.39,269.28 206.39,263.78 203.13,263.78 203.13,269.28 195.76,269.28 195.76,261.91 201.27,261.91 
				201.27,258.65 195.76,258.65 195.76,253.15 192.5,253.15 192.5,258.65 187,258.65 187,261.91 192.5,261.91 192.5,269.28 
				185.13,269.28 185.13,263.78 181.87,263.78 181.87,269.28 176.37,269.28 176.37,272.54 181.87,272.54 181.87,278.05 
				185.13,278.05 185.13,272.54 192.5,272.54 192.5,279.91 187,279.91 187,283.17 192.5,283.17 192.5,288.68 195.76,288.68 
				195.76,283.17 201.27,283.17 			"/>
		</g>
		<g>
			<polygon points="62.28,241.66 59.02,241.66 59.02,236.16 51.65,236.16 51.65,243.53 57.15,243.53 57.15,246.79 51.65,246.79 
				51.65,246.79 50,246.79 50,225.53 51.65,225.53 51.65,232.9 59.02,232.9 59.02,227.4 62.28,227.4 62.28,232.9 67.78,232.9 
				67.78,236.16 62.28,236.16 			"/>
			<rect x="50" y="246.79" width="1.65" height="5.51"/>
			<path d="M63.27,257.66c0.02-4.73,1.83-9.46,5.43-13.07c3.61-3.61,8.34-5.42,13.07-5.44c-0.02,4.73-1.83,9.46-5.43,13.07
				C72.73,255.84,68,257.65,63.27,257.66z"/>
			<polygon points="50,225.53 50,216.76 51.65,216.76 51.65,222.27 57.15,222.27 57.15,225.53 51.65,225.53 51.65,225.53 			"/>
			<polygon points="50,300.16 50,289.53 51.65,289.53 51.65,295.04 57.15,295.04 57.15,298.3 51.65,298.3 51.65,300.16 			"/>
			<path d="M50,288.16v-3c0.01,0,0.01,0,0.02,0c7.86,0,14.25-6.39,14.25-14.25s-6.39-14.25-14.25-14.25c-0.01,0-0.01,0-0.02,0v-3
				c0.01,0,0.01,0,0.02,0c9.51,0,17.25,7.74,17.25,17.25s-7.74,17.25-17.25,17.25C50.01,288.16,50.01,288.16,50,288.16z"/>
			<path d="M81.58,300.16h-9.03c-1.37-0.79-2.67-1.76-3.84-2.93c-3.61-3.61-5.42-8.34-5.43-13.07c4.73,0.02,9.46,1.83,13.07,5.43
				C79.31,292.57,81.04,296.3,81.58,300.16z"/>
			<polygon points="79.27,279.91 84.77,279.91 84.77,272.54 77.4,272.54 77.4,278.05 74.14,278.05 74.14,272.54 68.64,272.54 
				68.64,269.28 74.14,269.28 74.14,263.78 77.4,263.78 77.4,269.28 84.77,269.28 84.77,261.91 79.27,261.91 79.27,258.65 
				84.77,258.65 84.77,253.15 88.03,253.15 88.03,258.65 93.54,258.65 93.54,261.91 88.03,261.91 88.03,269.28 95.4,269.28 
				95.4,263.78 98.66,263.78 98.66,269.28 104.17,269.28 104.17,272.54 98.66,272.54 98.66,278.05 95.4,278.05 95.4,272.54 
				88.03,272.54 88.03,279.91 93.54,279.91 93.54,283.17 88.03,283.17 88.03,288.68 84.77,288.68 84.77,283.17 79.27,283.17 			"/>
		</g>
	</g>
	<g>
		<g>
			<g>
				<g>
					<g>
						<rect x="303.04" y="387.04" width="5.51" height="3.26"/>
						<path d="M289.05,393.29c0.02,4.73,1.83,9.46,5.43,13.07c3.61,3.61,8.34,5.42,13.07,5.43c-0.02-4.73-1.83-9.46-5.44-13.07
							C298.5,395.12,293.78,393.31,289.05,393.29z"/>
						<path d="M307.55,438.3c-4.73,0.02-9.46,1.83-13.07,5.43c-3.61,3.61-5.42,8.34-5.43,13.07c4.73-0.02,9.46-1.83,13.07-5.43
							C305.72,447.76,307.53,443.03,307.55,438.3z"/>
						<path d="M320.8,442.3C320.8,442.3,320.8,442.3,320.8,442.3l0-3c0,0,0,0,0,0c-7.86,0-14.25-6.39-14.25-14.25
							c0-7.86,6.39-14.25,14.25-14.25c0,0,0,0,0,0l0-3c0,0,0,0,0,0c-9.51,0-17.25,7.74-17.25,17.25
							C303.55,434.56,311.29,442.3,320.8,442.3z"/>
						<polygon points="286.05,442.81 286.05,437.31 291.55,437.31 291.55,434.05 286.05,434.05 286.05,428.54 286.05,426.68 
							287.91,426.68 293.42,426.68 293.42,432.18 296.68,432.18 296.68,426.68 302.18,426.68 302.18,423.42 296.68,423.42 
							296.68,417.91 293.42,417.91 293.42,423.42 287.91,423.42 286.05,423.42 286.05,421.55 286.05,416.05 291.55,416.05 
							291.55,412.79 286.05,412.79 286.05,407.28 282.79,407.28 282.79,412.79 282.79,412.79 277.28,412.79 277.28,416.05 
							282.79,416.05 282.79,416.05 282.79,421.55 282.79,421.55 282.79,423.42 280.92,423.42 275.42,423.42 275.42,417.91 
							272.16,417.91 272.16,423.42 266.65,423.42 266.65,426.68 272.16,426.68 272.16,432.18 275.42,432.18 275.42,426.68 
							280.92,426.68 282.79,426.68 282.79,428.54 282.79,428.54 282.79,434.05 282.79,434.05 277.28,434.05 277.28,437.31 
							282.79,437.31 282.79,437.31 282.79,442.81 						"/>
						<polygon points="308.54,381.53 308.54,387.04 308.54,390.3 308.54,395.8 311.8,395.8 311.8,390.3 317.31,390.3 319.17,390.3 
							319.17,392.16 319.17,397.67 313.67,397.67 313.67,400.93 319.17,400.93 319.17,406.43 320.8,406.43 320.8,370.9 
							319.17,370.9 319.17,376.41 313.67,376.41 313.67,379.66 319.17,379.66 319.17,385.17 319.17,387.04 317.31,387.04 
							311.8,387.04 311.8,381.53 						"/>
						<polygon points="319.17,479.2 320.8,479.2 320.8,443.67 319.17,443.67 319.17,449.17 313.67,449.17 313.67,452.43 
							319.17,452.43 319.17,457.94 319.17,459.8 317.31,459.8 311.8,459.8 311.8,454.3 308.54,454.3 308.54,459.8 303.04,459.8 
							303.04,463.06 308.54,463.06 308.54,463.06 308.54,468.57 311.8,468.57 311.8,463.06 311.8,463.06 317.31,463.06 
							317.31,463.06 319.17,463.06 319.17,464.93 319.17,470.43 313.67,470.43 313.67,473.69 319.17,473.69 319.17,473.69 						"/>
						<polygon points="320.8,517.64 320.8,517.64 320.8,513.03 319.49,511.71 315.59,507.82 319.49,503.93 317.18,501.62 
							313.29,505.51 310.98,507.82 307.09,511.71 309.4,514.02 313.29,510.12 317.18,514.02 318.5,515.33 317.18,516.65 
							317.18,516.65 313.29,520.55 315.59,522.85 319.49,518.96 						"/>
						<polygon points="315.59,522.85 313.29,520.55 310.98,522.85 307.09,526.74 309.4,529.05 313.29,525.16 317.18,529.05 
							319.49,526.74 315.59,522.85 						"/>
						<path d="M310.98,507.82l2.31-2.31l-2.61-2.61l-2.61-2.61l3.89-3.89l-2.3-2.3l-3.89,3.89l-2.61-2.61l-2.61-2.61l3.89-3.89
							l-2.3-2.3l-3.89,3.89l-2.61-2.61l-2.61-2.61l3.89-3.89l-2.3-2.3l-3.89,3.89l-2.61-2.61v0l-2.61-2.61l3.89-3.89l-2.3-2.3
							l-3.89,3.89l-2.61-2.61l0,0l-2.61-2.61l3.89-3.89l-2.3-2.3l-3.89,3.89l0,0l-2.61-2.61l0,0l-2.61-2.61l3.89-3.89l-2.3-2.3
							l-3.89,3.89l-2.61-2.61l0,0l-2.61-2.61l3.89-3.89l-2.3-2.3l-3.89,3.89l0,0l-2.61-2.61l-2.6-2.6l3.89-3.89l-2.3-2.3l-3.89,3.89
							l-3.89-3.89l-1.32-1.32l1.32-1.32h0l3.89-3.89l3.89,3.89l2.31-2.31l-3.89-3.89l3.89-3.89l-2.31-2.3l-3.89,3.89l2.3,2.3l0,0
							l-2.3-2.3l0,0l-3.89-3.89l-2.3,2.3l3.89,3.89l-3.89,3.89l-1.32,1.32l-1.32-1.32l-3.89-3.89l3.89-3.89l-2.3-2.3l-3.89,3.89
							l-3.89-3.89l-1.32-1.32l0.03-0.03l1.29-1.29l3.89-3.89l3.89,3.89l2.3-2.3l-3.89-3.89l3.89-3.89l1.32-1.32l1.32,1.32l3.89,3.89
							l-3.89,3.89l2.3,2.3l3.89-3.89l0,0l2.3-2.3l0,0l-2.3,2.3l3.89,3.89l2.31-2.3l-3.89-3.89l3.89-3.89l-2.31-2.31l-3.89,3.89
							l-3.89-3.89h0l-1.32-1.32l1.32-1.32l3.89-3.89l3.89,3.89l2.3-2.3l-3.89-3.89l2.6-2.6l2.61-2.61l0,0l3.89,3.89l2.3-2.3
							l-3.89-3.89l2.61-2.61l0,0l2.61-2.61l3.89,3.89l2.3-2.3l-3.89-3.89l2.61-2.61v0l2.61-2.61l3.89,3.89l2.3-2.3l-3.89-3.89
							l2.61-2.61l0,0l2.61-2.61l3.89,3.89l2.3-2.3l-3.89-3.89l2.61-2.61v0l2.61-2.61l3.89,3.89l2.3-2.3l-3.89-3.89l2.61-2.61
							l2.61-2.61l3.89,3.89l2.3-2.3l-3.89-3.89l2.61-2.61l2.61-2.61l3.89,3.89l2.3-2.3l-3.89-3.89l2.61-2.61l2.61-2.61l-2.31-2.31
							l-2.61,2.61l-2.61,2.61l-3.89-3.89l-2.3,2.3l3.89,3.89l-2.61,2.61l-2.61,2.61l-3.89-3.89l-2.3,2.3l3.89,3.89l-2.61,2.61
							l-2.61,2.61l-3.89-3.89l-2.3,2.3l3.89,3.89l-2.61,2.61l0,0l-2.61,2.61l-3.89-3.89l-2.3,2.3l3.89,3.89l2.3,2.3l2.3-2.3l0,0
							l-2.3,2.3l0,0l-2.31-2.31l-2.61,2.61l-2.61,2.61l-3.89-3.89l-2.3,2.3l3.89,3.89l-2.61,2.61l0,0l-2.61,2.61l-3.89-3.89
							l-2.3,2.3l3.89,3.89l2.3,2.3l2.3-2.3l0,0l-2.3,2.3l0,0l-2.31-2.31l-2.61,2.61l-2.61,2.61l-3.89-3.89l-2.3,2.3l3.89,3.89
							l-2.61,2.61l-2.6,2.6l-3.89-3.89l-2.3,2.3l3.89,3.89l-3.89,3.89l-1.32,1.32l-1.32-1.32l0,0l-3.89-3.89l3.89-3.89l-2.3-2.3
							l-3.89,3.89l-3.89-3.89l-2.3,2.3l3.89,3.89l-3.89,3.89l2.3,2.3l3.89-3.89l0,0l2.3-2.3l-2.3,2.3l3.89,3.89l1.32,1.32
							l-1.32,1.32l-3.89,3.89l-3.89-3.89l-2.3,2.3l3.89,3.89l-3.89,3.89l-1.32,1.32v4.61l1.32,1.32l3.89,3.89l-3.89,3.89l2.3,2.3
							l3.89-3.89l3.89,3.89l1.32,1.32l-1.32,1.32l-3.89,3.89l2.3,2.3l-2.3-2.3l0,0l-3.89-3.89l-2.3,2.3l3.89,3.89l-3.89,3.89
							l2.3,2.3l3.89-3.89l3.89,3.89l2.3-2.3l-3.89-3.89l3.89-3.89l0,0l1.32-1.32l1.32,1.32l3.89,3.89l-3.89,3.89l2.3,2.3l3.89-3.89
							l2.6,2.6l2.61,2.61l-3.89,3.89l2.3,2.3l3.89-3.89l2.61,2.61l2.61,2.61l2.31-2.31l0,0l2.3,2.3l0,0l-2.3-2.3l-2.3,2.3
							l-3.89,3.89l2.3,2.3l3.89-3.89l2.61,2.61l0,0l2.61,2.61l-3.89,3.89l2.3,2.3l3.89-3.89l2.61,2.61l2.61,2.61l2.31-2.31l0,0
							l2.3,2.3l0,0l-2.3-2.3l-2.3,2.3l-3.89,3.89l2.3,2.3l3.89-3.89l2.61,2.61l0,0l2.61,2.61l-3.89,3.89l2.3,2.3l3.89-3.89
							l2.61,2.61l2.61,2.61l-3.89,3.89l2.3,2.3l3.89-3.89l2.61,2.61l2.61,2.61l-3.89,3.89l2.3,2.3l3.89-3.89l2.61,2.61
							L310.98,507.82z M305.76,352.18L305.76,352.18l2.3-2.3L305.76,352.18z M258.31,395.02l1.15,1.15L258.31,395.02L258.31,395.02z
							 M258.31,455.15l1.15-1.15L258.31,455.15L258.31,455.15z M273.36,470.19l1.15-1.15L273.36,470.19L273.36,470.19z
							 M305.76,497.99L305.76,497.99l2.3,2.3L305.76,497.99z"/>
						
							<rect x="307.44" y="328.78" transform="matrix(0.7071 -0.7071 0.7071 0.7071 -142.7838 316.1125)" width="5.51" height="3.26"/>
						<rect x="308.56" y="517" transform="matrix(0.7071 -0.7071 0.7071 0.7071 -276.6681 371.5692)" width="3.26" height="5.51"/>
						<polygon points="313.29,344.65 317.18,348.54 319.49,346.24 315.59,342.35 319.49,338.45 320.8,337.14 320.8,332.52 
							320.8,332.52 319.49,331.21 315.59,327.31 313.29,329.62 317.18,333.51 317.18,333.51 318.5,334.83 317.18,336.15 
							313.29,340.04 309.4,336.15 307.09,338.45 310.98,342.35 						"/>
						<polygon points="317.18,321.12 313.29,325.01 309.4,321.12 307.09,323.42 310.98,327.31 313.29,329.62 315.59,327.31 
							315.59,327.31 319.49,323.42 						"/>
					</g>
					<g>
						<rect x="333.06" y="387.04" width="5.51" height="3.26"/>
						<path d="M352.56,393.29c-0.02,4.73-1.83,9.46-5.43,13.07c-3.61,3.61-8.34,5.42-13.07,5.43c0.02-4.73,1.83-9.46,5.44-13.07
							C343.1,395.12,347.83,393.31,352.56,393.29z"/>
						<path d="M334.06,438.3c4.73,0.02,9.46,1.83,13.07,5.43c3.61,3.61,5.42,8.34,5.43,13.07c-4.73-0.02-9.46-1.83-13.07-5.43
							C335.88,447.76,334.07,443.03,334.06,438.3z"/>
						<path d="M320.8,442.3C320.8,442.3,320.8,442.3,320.8,442.3l0-3c0,0,0,0,0,0c7.86,0,14.25-6.39,14.25-14.25
							c0-7.86-6.39-14.25-14.25-14.25c0,0,0,0,0,0v-3c0,0,0,0,0,0c9.51,0,17.25,7.74,17.25,17.25
							C338.05,434.56,330.32,442.3,320.8,442.3z"/>
						<polygon points="355.56,442.81 355.56,437.31 350.05,437.31 350.05,434.05 355.56,434.05 355.56,428.54 355.56,426.68 
							353.69,426.68 348.19,426.68 348.19,432.18 344.93,432.18 344.93,426.68 339.42,426.68 339.42,423.42 344.93,423.42 
							344.93,417.91 348.19,417.91 348.19,423.42 353.69,423.42 355.56,423.42 355.56,421.55 355.56,416.05 350.05,416.05 
							350.05,412.79 355.56,412.79 355.56,407.28 358.82,407.28 358.82,412.79 358.82,412.79 364.32,412.79 364.32,416.05 
							358.82,416.05 358.82,416.05 358.82,421.55 358.82,421.55 358.82,423.42 360.68,423.42 366.19,423.42 366.19,417.91 
							369.45,417.91 369.45,423.42 374.95,423.42 374.95,426.68 369.45,426.68 369.45,432.18 366.19,432.18 366.19,426.68 
							360.68,426.68 358.82,426.68 358.82,428.54 358.82,428.54 358.82,434.05 358.82,434.05 364.32,434.05 364.32,437.31 
							358.82,437.31 358.82,437.31 358.82,442.81 						"/>
						<polygon points="333.06,381.53 333.06,387.04 333.06,390.3 333.06,395.8 329.8,395.8 329.8,390.3 324.3,390.3 322.43,390.3 
							322.43,392.16 322.43,397.67 327.94,397.67 327.94,400.93 322.43,400.93 322.43,406.43 320.8,406.43 320.8,370.9 
							322.43,370.9 322.43,376.41 327.94,376.41 327.94,379.66 322.43,379.66 322.43,385.17 322.43,387.04 324.3,387.04 
							329.8,387.04 329.8,381.53 						"/>
						<polygon points="322.43,479.2 320.8,479.2 320.8,443.67 322.43,443.67 322.43,449.17 327.94,449.17 327.94,452.43 
							322.43,452.43 322.43,457.94 322.43,459.8 324.3,459.8 329.8,459.8 329.8,454.3 333.06,454.3 333.06,459.8 338.57,459.8 
							338.57,463.06 333.06,463.06 333.06,463.06 333.06,468.57 329.8,468.57 329.8,463.06 329.8,463.06 324.3,463.06 324.3,463.06 
							322.43,463.06 322.43,464.93 322.43,470.43 327.94,470.43 327.94,473.69 322.43,473.69 322.43,473.69 						"/>
						<polygon points="320.8,517.64 320.8,517.64 320.8,513.03 322.12,511.71 326.01,507.82 322.12,503.93 324.43,501.62 
							328.32,505.51 330.62,507.82 334.52,511.71 332.21,514.02 328.32,510.12 324.43,514.02 323.11,515.33 324.43,516.65 
							324.43,516.65 328.32,520.55 326.01,522.85 322.12,518.96 						"/>
						<polygon points="326.01,522.85 328.32,520.55 330.62,522.85 334.52,526.74 332.21,529.05 328.32,525.16 324.43,529.05 
							322.12,526.74 326.01,522.85 						"/>
						<path d="M333.24,505.21l2.61-2.61l3.89,3.89l2.3-2.3l-3.89-3.89l2.61-2.61l2.61-2.61l3.89,3.89l2.3-2.3l-3.89-3.89l2.61-2.61
							l2.61-2.61l3.89,3.89l2.3-2.3l-3.89-3.89l2.61-2.61l0,0l2.61-2.61l3.89,3.89l2.3-2.3l-3.89-3.89l-2.3-2.3l-2.3,2.3l0,0
							l2.3-2.3l0,0l2.31,2.31l2.61-2.61l2.61-2.61l3.89,3.89l2.3-2.3l-3.89-3.89l2.61-2.61l0,0l2.61-2.61l3.89,3.89l2.3-2.3
							l-3.89-3.89l-2.3-2.3l-2.3,2.3l0,0l2.3-2.3l0,0l2.31,2.31l2.61-2.61l2.61-2.61l3.89,3.89l2.3-2.3l-3.89-3.89l2.61-2.61
							l2.6-2.6l3.89,3.89l2.3-2.3l-3.89-3.89l3.89-3.89l1.32-1.32l1.32,1.32l0,0l3.89,3.89l-3.89,3.89l2.3,2.3l3.89-3.89l3.89,3.89
							l2.3-2.3l-3.89-3.89l3.89-3.89l-2.3-2.3l-3.89,3.89l0,0l-2.3,2.3l2.3-2.3l-3.89-3.89l-1.32-1.32l1.32-1.32l3.89-3.89
							l3.89,3.89l2.3-2.3l-3.89-3.89l3.89-3.89l1.32-1.32v-4.61l-1.32-1.32l-3.89-3.89l3.89-3.89l-2.3-2.3l-3.89,3.89l-3.89-3.89
							l-1.32-1.32l1.32-1.32l3.89-3.89l-2.3-2.3l2.3,2.3l0,0l3.89,3.89l2.3-2.3l-3.89-3.89l3.89-3.89l-2.3-2.3l-3.89,3.89
							l-3.89-3.89l-2.3,2.3l3.89,3.89l-3.89,3.89l0,0l-1.32,1.32l-1.32-1.32l-3.89-3.89l3.89-3.89l-2.3-2.3l-3.89,3.89l-2.6-2.6
							l-2.61-2.61l3.89-3.89l-2.3-2.3l-3.89,3.89l-2.61-2.61l-2.61-2.61l-2.31,2.31l0,0l-2.3-2.3l0,0l2.3,2.3l2.3-2.3l3.89-3.89
							l-2.3-2.3l-3.89,3.89l-2.61-2.61l0,0l-2.61-2.61l3.89-3.89l-2.3-2.3l-3.89,3.89l-2.61-2.61l-2.61-2.61l-2.31,2.31l0,0
							l-2.3-2.3l0,0l2.3,2.3l2.3-2.3l3.89-3.89l-2.3-2.3l-3.89,3.89l-2.61-2.61l0,0l-2.61-2.61l3.89-3.89l-2.3-2.3l-3.89,3.89
							l-2.61-2.61l-2.61-2.61l3.89-3.89l-2.3-2.3l-3.89,3.89l-2.61-2.61l-2.61-2.61l3.89-3.89l-2.3-2.3l-3.89,3.89l-2.61-2.61
							l-2.61-2.61l-2.31,2.31l2.61,2.61l2.61,2.61l-3.89,3.89l2.3,2.3l3.89-3.89l2.61,2.61l2.61,2.61l-3.89,3.89l2.3,2.3l3.89-3.89
							l2.61,2.61l2.61,2.61l-3.89,3.89l2.3,2.3l3.89-3.89l2.61,2.61v0l2.61,2.61l-3.89,3.89l2.3,2.3l3.89-3.89l2.61,2.61l0,0
							l2.61,2.61l-3.89,3.89l2.3,2.3l3.89-3.89l2.61,2.61v0l2.61,2.61l-3.89,3.89l2.3,2.3l3.89-3.89l2.61,2.61l0,0l2.61,2.61
							l-3.89,3.89l2.3,2.3l3.89-3.89l0,0l2.61,2.61l2.6,2.6l-3.89,3.89l2.3,2.3l3.89-3.89l3.89,3.89l1.32,1.32l-1.32,1.32h0
							l-3.89,3.89l-3.89-3.89l-2.31,2.31l3.89,3.89l-3.89,3.89l2.31,2.3l3.89-3.89l-2.3-2.3l0,0l2.3,2.3l0,0l3.89,3.89l2.3-2.3
							l-3.89-3.89l3.89-3.89l1.32-1.32l1.32,1.32l3.89,3.89l-3.89,3.89l2.3,2.3l3.89-3.89l3.89,3.89l1.29,1.29l0.03,0.03l-1.32,1.32
							l-3.89,3.89l-3.89-3.89l-2.3,2.3l3.89,3.89l-3.89,3.89l-1.32,1.32l-1.32-1.32l-3.89-3.89l3.89-3.89l-2.3-2.3l-3.89,3.89l0,0
							l-2.3,2.3l0,0l2.3-2.3l-3.89-3.89l-2.31,2.3l3.89,3.89l-3.89,3.89l2.31,2.31l3.89-3.89l3.89,3.89h0l1.32,1.32l-1.32,1.32
							l-3.89,3.89l-3.89-3.89l-2.3,2.3l3.89,3.89l-2.6,2.6l-2.61,2.61l0,0l-3.89-3.89l-2.3,2.3l3.89,3.89l-2.61,2.61l0,0l-2.61,2.61
							l-3.89-3.89l-2.3,2.3l3.89,3.89l-2.61,2.61l0,0l-2.61,2.61l0,0l-3.89-3.89l-2.3,2.3l3.89,3.89l-2.61,2.61l0,0l-2.61,2.61
							l-3.89-3.89l-2.3,2.3l3.89,3.89l-2.61,2.61v0l-2.61,2.61l-3.89-3.89l-2.3,2.3l3.89,3.89l-2.61,2.61l-2.61,2.61l-3.89-3.89
							l-2.3,2.3l3.89,3.89l-2.61,2.61l-2.61,2.61l-3.89-3.89l-2.3,2.3l3.89,3.89l-2.61,2.61l-2.61,2.61l2.31,2.31L333.24,505.21z
							 M333.54,349.87l2.3,2.3v0L333.54,349.87z M383.3,395.02l-1.15,1.15L383.3,395.02L383.3,395.02z M383.3,455.14l-1.15-1.15
							L383.3,455.14L383.3,455.14z M368.25,470.19l-1.15-1.15L368.25,470.19L368.25,470.19z M333.54,500.29l2.3-2.3l0,0
							L333.54,500.29z"/>
						
							<rect x="329.79" y="327.66" transform="matrix(0.7071 -0.7071 0.7071 0.7071 -136.5664 331.1227)" width="3.26" height="5.51"/>
						
							<rect x="328.66" y="518.12" transform="matrix(0.7071 -0.7071 0.7071 0.7071 -270.4507 386.5794)" width="5.51" height="3.26"/>
						<polygon points="328.32,344.65 324.43,348.54 322.12,346.24 326.01,342.35 322.12,338.45 320.8,337.14 320.8,332.52 
							320.8,332.52 322.12,331.21 326.01,327.31 328.32,329.62 324.43,333.51 324.43,333.51 323.11,334.83 324.43,336.15 
							328.32,340.04 332.21,336.15 334.52,338.45 330.62,342.35 						"/>
						<polygon points="324.43,321.12 328.32,325.01 332.21,321.12 334.52,323.42 330.62,327.31 328.32,329.62 326.01,327.31 
							326.01,327.31 322.12,323.42 						"/>
					</g>
				</g>
				<g>
					<polygon points="411.05,370.9 411.05,354.77 409.42,354.77 409.42,360.27 403.92,360.27 403.92,363.53 409.42,363.53 
						409.42,369.03 409.42,369.03 409.42,370.9 					"/>
					<polygon points="411.05,390.3 411.05,381.53 409.42,381.53 409.42,381.53 411.05,381.53 411.05,370.9 409.42,370.9 
						407.56,370.9 407.56,370.9 402.05,370.9 402.05,370.9 398.79,370.9 398.79,370.9 402.05,370.9 402.05,365.4 398.79,365.4 
						398.79,370.9 393.29,370.9 393.29,374.16 398.79,374.16 398.79,379.66 402.05,379.66 402.05,374.16 407.56,374.16 
						409.42,374.16 409.42,376.03 409.42,376.03 409.42,381.53 403.92,381.53 403.92,384.79 409.42,384.79 409.42,390.3 					"/>
					<path d="M411.05,353.4L411.05,353.4l0-3h0c-7.86,0-14.25-6.39-14.25-14.25s6.39-14.25,14.25-14.25h0v-3h0
						c-9.51,0-17.25,7.74-17.25,17.25S401.54,353.4,411.05,353.4z"/>
					<path d="M384.73,354.83c-3.61,3.61-5.42,8.34-5.44,13.07c4.73-0.02,9.46-1.83,13.07-5.43c3.61-3.61,5.42-8.34,5.43-13.07
						C393.07,349.41,388.34,351.22,384.73,354.83z"/>
					<polygon points="381.8,345.15 376.3,345.15 376.3,339.64 376.3,337.78 378.16,337.78 383.67,337.78 383.67,343.28 
						386.93,343.28 386.93,337.78 392.43,337.78 392.43,334.52 386.93,334.52 386.93,329.01 383.67,329.01 383.67,334.52 
						378.16,334.52 376.3,334.52 376.3,332.65 376.3,329.01 373.04,329.01 373.04,332.65 373.04,334.52 371.17,334.52 
						365.67,334.52 365.67,329.01 362.41,329.01 362.41,334.52 356.9,334.52 356.9,337.78 362.41,337.78 362.41,343.28 
						365.67,343.28 365.67,337.78 371.17,337.78 373.04,337.78 373.04,339.64 373.04,345.15 367.53,345.15 367.53,348.41 
						373.04,348.41 373.04,353.91 376.3,353.91 376.3,348.41 381.8,348.41 					"/>
				</g>
				<g>
					<polygon points="230.55,370.9 230.55,354.77 232.18,354.77 232.18,360.27 237.69,360.27 237.69,363.53 232.18,363.53 
						232.18,369.03 232.18,369.03 232.18,370.9 					"/>
					<polygon points="230.55,390.3 230.55,381.53 232.18,381.53 232.18,381.53 230.55,381.53 230.55,370.9 232.18,370.9 
						234.05,370.9 234.05,370.9 239.55,370.9 239.55,370.9 242.81,370.9 242.81,370.9 239.55,370.9 239.55,365.4 242.81,365.4 
						242.81,370.9 248.32,370.9 248.32,374.16 242.81,374.16 242.81,379.66 239.55,379.66 239.55,374.16 234.05,374.16 
						232.18,374.16 232.18,376.03 232.18,376.03 232.18,381.53 237.69,381.53 237.69,384.79 232.18,384.79 232.18,390.3 					"/>
					<path d="M230.55,353.4C230.55,353.4,230.55,353.4,230.55,353.4l0-3c0,0,0,0,0,0c7.86,0,14.25-6.39,14.25-14.25
						s-6.39-14.25-14.25-14.25c0,0,0,0,0,0v-3c0,0,0,0,0,0c9.51,0,17.25,7.74,17.25,17.25S240.07,353.4,230.55,353.4z"/>
					<path d="M256.88,354.83c3.61,3.61,5.42,8.34,5.44,13.07c-4.73-0.02-9.46-1.83-13.07-5.43c-3.61-3.61-5.42-8.34-5.43-13.07
						C248.54,349.41,253.27,351.22,256.88,354.83z"/>
					<polygon points="259.8,345.15 265.31,345.15 265.31,339.64 265.31,337.78 263.44,337.78 257.94,337.78 257.94,343.28 
						254.68,343.28 254.68,337.78 249.17,337.78 249.17,334.52 254.68,334.52 254.68,329.01 257.94,329.01 257.94,334.52 
						263.44,334.52 265.31,334.52 265.31,332.65 265.31,329.01 268.57,329.01 268.57,332.65 268.57,334.52 270.43,334.52 
						275.94,334.52 275.94,329.01 279.2,329.01 279.2,334.52 284.7,334.52 284.7,337.78 279.2,337.78 279.2,343.28 275.94,343.28 
						275.94,337.78 270.43,337.78 268.57,337.78 268.57,339.64 268.57,345.15 274.07,345.15 274.07,348.41 268.57,348.41 
						268.57,353.91 265.31,353.91 265.31,348.41 259.8,348.41 					"/>
				</g>
				<g>
					<polygon points="411.05,479.26 411.05,495.4 409.42,495.4 409.42,489.89 403.92,489.89 403.92,486.63 409.42,486.63 
						409.42,481.13 409.42,481.13 409.42,479.26 					"/>
					<polygon points="411.05,459.87 411.05,468.63 409.42,468.63 409.42,468.63 411.05,468.63 411.05,479.26 409.42,479.26 
						407.56,479.26 407.56,479.26 402.05,479.26 402.05,479.26 398.79,479.26 398.79,479.26 402.05,479.26 402.05,484.77 
						398.79,484.77 398.79,479.26 393.29,479.26 393.29,476 398.79,476 398.79,470.5 402.05,470.5 402.05,476 407.56,476 
						409.42,476 409.42,474.14 409.42,474.14 409.42,468.63 403.92,468.63 403.92,465.37 409.42,465.37 409.42,459.87 					"/>
					<path d="M411.05,496.77L411.05,496.77l0,3h0c-7.86,0-14.25,6.39-14.25,14.25s6.39,14.25,14.25,14.25h0v3h0
						c-9.51,0-17.25-7.74-17.25-17.25S401.54,496.77,411.05,496.77z"/>
					<path d="M384.73,495.33c-3.61-3.61-5.42-8.34-5.44-13.07c4.73,0.02,9.46,1.83,13.07,5.43c3.61,3.61,5.42,8.34,5.43,13.07
						C393.07,500.75,388.34,498.94,384.73,495.33z"/>
					<polygon points="381.8,505.02 376.3,505.02 376.3,510.52 376.3,512.39 378.16,512.39 383.67,512.39 383.67,506.88 
						386.93,506.88 386.93,512.39 392.43,512.39 392.43,515.65 386.93,515.65 386.93,521.15 383.67,521.15 383.67,515.65 
						378.16,515.65 376.3,515.65 376.3,517.51 376.3,521.15 373.04,521.15 373.04,517.51 373.04,515.65 371.17,515.65 
						365.67,515.65 365.67,521.15 362.41,521.15 362.41,515.65 356.9,515.65 356.9,512.39 362.41,512.39 362.41,506.88 
						365.67,506.88 365.67,512.39 371.17,512.39 373.04,512.39 373.04,510.52 373.04,505.02 367.53,505.02 367.53,501.76 
						373.04,501.76 373.04,496.25 376.3,496.25 376.3,501.76 381.8,501.76 					"/>
				</g>
				<g>
					<polygon points="230.55,479.26 230.55,495.4 232.18,495.4 232.18,489.89 237.69,489.89 237.69,486.63 232.18,486.63 
						232.18,481.13 232.18,481.13 232.18,479.26 					"/>
					<polygon points="230.55,459.87 230.55,468.63 232.18,468.63 232.18,468.63 230.55,468.63 230.55,479.26 232.18,479.26 
						234.05,479.26 234.05,479.26 239.55,479.26 239.55,479.26 242.81,479.26 242.81,479.26 239.55,479.26 239.55,484.77 
						242.81,484.77 242.81,479.26 248.32,479.26 248.32,476 242.81,476 242.81,470.5 239.55,470.5 239.55,476 234.05,476 
						232.18,476 232.18,474.14 232.18,474.14 232.18,468.63 237.69,468.63 237.69,465.37 232.18,465.37 232.18,459.87 					"/>
					<path d="M230.55,496.77C230.55,496.77,230.55,496.77,230.55,496.77l0,3c0,0,0,0,0,0c7.86,0,14.25,6.39,14.25,14.25
						s-6.39,14.25-14.25,14.25c0,0,0,0,0,0v3c0,0,0,0,0,0c9.51,0,17.25-7.74,17.25-17.25S240.07,496.77,230.55,496.77z"/>
					<path d="M256.88,495.33c3.61-3.61,5.42-8.34,5.44-13.07c-4.73,0.02-9.46,1.83-13.07,5.43c-3.61,3.61-5.42,8.34-5.43,13.07
						C248.54,500.75,253.27,498.94,256.88,495.33z"/>
					<polygon points="259.8,505.02 265.31,505.02 265.31,510.52 265.31,512.39 263.44,512.39 257.94,512.39 257.94,506.88 
						254.68,506.88 254.68,512.39 249.17,512.39 249.17,515.65 254.68,515.65 254.68,521.15 257.94,521.15 257.94,515.65 
						263.44,515.65 265.31,515.65 265.31,517.51 265.31,521.15 268.57,521.15 268.57,517.51 268.57,515.65 270.43,515.65 
						275.94,515.65 275.94,521.15 279.2,521.15 279.2,515.65 284.7,515.65 284.7,512.39 279.2,512.39 279.2,506.88 275.94,506.88 
						275.94,512.39 270.43,512.39 268.57,512.39 268.57,510.52 268.57,505.02 274.07,505.02 274.07,501.76 268.57,501.76 
						268.57,496.25 265.31,496.25 265.31,501.76 259.8,501.76 					"/>
				</g>
			</g>
			<g>
				<g>
					<rect x="297.89" y="305.67" width="3.26" height="3.26"/>
					<rect x="297.89" y="300.16" width="3.26" height="5.51"/>
					<rect x="297.89" y="308.93" width="3.26" height="5.51"/>
					<rect x="301.15" y="305.67" width="3.69" height="3.27"/>
					<rect x="294.2" y="305.67" width="3.69" height="3.27"/>
				</g>
				<g>
					<rect x="308.53" y="305.67" width="3.26" height="3.26"/>
					<rect x="308.53" y="300.16" width="3.26" height="5.51"/>
					<rect x="308.53" y="308.93" width="3.26" height="5.51"/>
					<rect x="311.79" y="305.67" width="3.69" height="3.27"/>
					<rect x="304.84" y="305.67" width="3.69" height="3.27"/>
				</g>
				<g>
					<rect x="319.17" y="305.67" width="3.26" height="3.26"/>
					<rect x="319.17" y="300.16" width="3.26" height="5.51"/>
					<rect x="319.17" y="308.93" width="3.26" height="5.51"/>
					<rect x="322.43" y="305.67" width="3.69" height="3.27"/>
					<rect x="315.48" y="305.67" width="3.69" height="3.27"/>
				</g>
				<g>
					<rect x="329.82" y="305.67" width="3.26" height="3.26"/>
					<rect x="329.82" y="300.16" width="3.26" height="5.51"/>
					<rect x="329.82" y="308.93" width="3.26" height="5.51"/>
					<rect x="333.08" y="305.67" width="3.69" height="3.27"/>
					<rect x="326.13" y="305.67" width="3.69" height="3.27"/>
				</g>
				<g>
					<rect x="340.46" y="305.67" width="3.26" height="3.26"/>
					<rect x="340.46" y="300.16" width="3.26" height="5.51"/>
					<rect x="340.46" y="308.93" width="3.26" height="5.51"/>
					<rect x="343.72" y="305.67" width="3.69" height="3.27"/>
					<rect x="336.77" y="305.67" width="3.69" height="3.27"/>
				</g>
				<g>
					<rect x="351.1" y="305.67" width="3.26" height="3.26"/>
					<rect x="351.1" y="300.16" width="3.26" height="5.51"/>
					<rect x="351.1" y="308.93" width="3.26" height="5.51"/>
					<rect x="354.36" y="305.67" width="3.69" height="3.27"/>
					<rect x="347.41" y="305.67" width="3.69" height="3.27"/>
				</g>
				<g>
					<rect x="361.74" y="305.67" width="3.26" height="3.26"/>
					<rect x="361.74" y="300.16" width="3.26" height="5.51"/>
					<rect x="361.74" y="308.93" width="3.26" height="5.51"/>
					<rect x="365" y="305.67" width="3.69" height="3.27"/>
					<rect x="358.05" y="305.67" width="3.69" height="3.27"/>
				</g>
				<g>
					<rect x="372.38" y="305.67" width="3.26" height="3.26"/>
					<rect x="372.38" y="300.16" width="3.26" height="5.51"/>
					<rect x="372.38" y="308.93" width="3.26" height="5.51"/>
					<rect x="375.64" y="305.67" width="3.69" height="3.27"/>
					<rect x="368.69" y="305.67" width="3.69" height="3.27"/>
				</g>
				<g>
					<rect x="383.02" y="305.67" width="3.26" height="3.26"/>
					<rect x="383.02" y="300.16" width="3.26" height="5.51"/>
					<rect x="383.02" y="308.93" width="3.26" height="5.51"/>
					<rect x="386.28" y="305.67" width="3.69" height="3.27"/>
					<rect x="379.33" y="305.67" width="3.69" height="3.27"/>
				</g>
				<g>
					<rect x="393.67" y="305.67" width="3.26" height="3.26"/>
					<rect x="393.67" y="300.16" width="3.26" height="5.51"/>
					<rect x="393.67" y="308.93" width="3.26" height="5.51"/>
					<rect x="396.93" y="305.67" width="3.69" height="3.27"/>
					<rect x="389.97" y="305.67" width="3.69" height="3.27"/>
				</g>
				<g>
					<rect x="404.31" y="305.67" width="3.26" height="3.26"/>
					<rect x="404.31" y="300.16" width="3.26" height="5.51"/>
					<rect x="404.31" y="308.93" width="3.26" height="5.51"/>
					<rect x="407.57" y="305.67" width="3.5" height="3.27"/>
					<rect x="400.62" y="305.67" width="3.69" height="3.27"/>
				</g>
				<g>
					
						<rect x="287.25" y="305.67" transform="matrix(-1 -4.296753e-11 4.296753e-11 -1 577.7524 614.5981)" width="3.26" height="3.26"/>
					<rect x="287.25" y="300.16" width="3.26" height="5.51"/>
					<rect x="287.25" y="308.93" width="3.26" height="5.51"/>
					<rect x="283.55" y="305.67" width="3.69" height="3.27"/>
					<rect x="290.51" y="305.67" width="3.69" height="3.27"/>
				</g>
				<g>
					
						<rect x="276.61" y="305.67" transform="matrix(-1 -4.631552e-11 4.631552e-11 -1 556.4698 614.5981)" width="3.26" height="3.26"/>
					<rect x="276.61" y="300.16" width="3.26" height="5.51"/>
					<rect x="276.61" y="308.93" width="3.26" height="5.51"/>
					<rect x="272.91" y="305.67" width="3.69" height="3.27"/>
					<rect x="279.86" y="305.67" width="3.69" height="3.27"/>
				</g>
				<g>
					
						<rect x="265.96" y="305.67" transform="matrix(-1 -4.352575e-11 4.352575e-11 -1 535.1874 614.5981)" width="3.26" height="3.26"/>
					<rect x="265.96" y="300.16" width="3.26" height="5.51"/>
					<rect x="265.96" y="308.93" width="3.26" height="5.51"/>
					<rect x="262.27" y="305.67" width="3.69" height="3.27"/>
					<rect x="269.22" y="305.67" width="3.69" height="3.27"/>
				</g>
				<g>
					
						<rect x="255.32" y="305.67" transform="matrix(-1 -4.296753e-11 4.296753e-11 -1 513.9048 614.5981)" width="3.26" height="3.26"/>
					<rect x="255.32" y="300.16" width="3.26" height="5.51"/>
					<rect x="255.32" y="308.93" width="3.26" height="5.51"/>
					<rect x="251.63" y="305.67" width="3.69" height="3.27"/>
					<rect x="258.58" y="305.67" width="3.69" height="3.27"/>
				</g>
				<g>
					
						<rect x="244.68" y="305.67" transform="matrix(-1 -4.296753e-11 4.296753e-11 -1 492.6223 614.5981)" width="3.26" height="3.26"/>
					<rect x="244.68" y="300.16" width="3.26" height="5.51"/>
					<rect x="244.68" y="308.93" width="3.26" height="5.51"/>
					<rect x="240.99" y="305.67" width="3.69" height="3.27"/>
					<rect x="247.94" y="305.67" width="3.69" height="3.27"/>
				</g>
				<g>
					
						<rect x="234.04" y="305.67" transform="matrix(-1 -4.631552e-11 4.631552e-11 -1 471.3398 614.5981)" width="3.26" height="3.26"/>
					<rect x="234.04" y="300.16" width="3.26" height="5.51"/>
					<rect x="234.04" y="308.93" width="3.26" height="5.51"/>
					<rect x="230.55" y="305.67" width="3.49" height="3.27"/>
					<rect x="237.3" y="305.67" width="3.69" height="3.27"/>
				</g>
			</g>
			<g>
				<g>
					<rect x="297.89" y="541.24" width="3.26" height="3.26"/>
					<rect x="297.89" y="535.73" width="3.26" height="5.51"/>
					<rect x="297.89" y="544.49" width="3.26" height="5.51"/>
					<rect x="301.15" y="541.23" width="3.69" height="3.27"/>
					<rect x="294.2" y="541.23" width="3.69" height="3.27"/>
				</g>
				<g>
					<rect x="308.53" y="541.24" width="3.26" height="3.26"/>
					<rect x="308.53" y="535.73" width="3.26" height="5.51"/>
					<rect x="308.53" y="544.49" width="3.26" height="5.51"/>
					<rect x="311.79" y="541.23" width="3.69" height="3.27"/>
					<rect x="304.84" y="541.23" width="3.69" height="3.27"/>
				</g>
				<g>
					<rect x="319.17" y="541.24" width="3.26" height="3.26"/>
					<rect x="319.17" y="535.73" width="3.26" height="5.51"/>
					<rect x="319.17" y="544.49" width="3.26" height="5.51"/>
					<rect x="322.43" y="541.23" width="3.69" height="3.27"/>
					<rect x="315.48" y="541.23" width="3.69" height="3.27"/>
				</g>
				<g>
					<rect x="329.82" y="541.24" width="3.26" height="3.26"/>
					<rect x="329.82" y="535.73" width="3.26" height="5.51"/>
					<rect x="329.82" y="544.49" width="3.26" height="5.51"/>
					<rect x="333.08" y="541.23" width="3.69" height="3.27"/>
					<rect x="326.13" y="541.23" width="3.69" height="3.27"/>
				</g>
				<g>
					<rect x="340.46" y="541.24" width="3.26" height="3.26"/>
					<rect x="340.46" y="535.73" width="3.26" height="5.51"/>
					<rect x="340.46" y="544.49" width="3.26" height="5.51"/>
					<rect x="343.72" y="541.23" width="3.69" height="3.27"/>
					<rect x="336.77" y="541.23" width="3.69" height="3.27"/>
				</g>
				<g>
					<rect x="351.1" y="541.24" width="3.26" height="3.26"/>
					<rect x="351.1" y="535.73" width="3.26" height="5.51"/>
					<rect x="351.1" y="544.49" width="3.26" height="5.51"/>
					<rect x="354.36" y="541.23" width="3.69" height="3.27"/>
					<rect x="347.41" y="541.23" width="3.69" height="3.27"/>
				</g>
				<g>
					<rect x="361.74" y="541.24" width="3.26" height="3.26"/>
					<rect x="361.74" y="535.73" width="3.26" height="5.51"/>
					<rect x="361.74" y="544.49" width="3.26" height="5.51"/>
					<rect x="365" y="541.23" width="3.69" height="3.27"/>
					<rect x="358.05" y="541.23" width="3.69" height="3.27"/>
				</g>
				<g>
					<rect x="372.38" y="541.24" width="3.26" height="3.26"/>
					<rect x="372.38" y="535.73" width="3.26" height="5.51"/>
					<rect x="372.38" y="544.49" width="3.26" height="5.51"/>
					<rect x="375.64" y="541.23" width="3.69" height="3.27"/>
					<rect x="368.69" y="541.23" width="3.69" height="3.27"/>
				</g>
				<g>
					<rect x="383.02" y="541.24" width="3.26" height="3.26"/>
					<rect x="383.02" y="535.73" width="3.26" height="5.51"/>
					<rect x="383.02" y="544.49" width="3.26" height="5.51"/>
					<rect x="386.28" y="541.23" width="3.69" height="3.27"/>
					<rect x="379.33" y="541.23" width="3.69" height="3.27"/>
				</g>
				<g>
					<rect x="393.67" y="541.24" width="3.26" height="3.26"/>
					<rect x="393.67" y="535.73" width="3.26" height="5.51"/>
					<rect x="393.67" y="544.49" width="3.26" height="5.51"/>
					<rect x="396.93" y="541.23" width="3.69" height="3.27"/>
					<rect x="389.97" y="541.23" width="3.69" height="3.27"/>
				</g>
				<g>
					<rect x="404.31" y="541.24" width="3.26" height="3.26"/>
					<rect x="404.31" y="535.73" width="3.26" height="5.51"/>
					<rect x="404.31" y="544.49" width="3.26" height="5.51"/>
					<rect x="407.57" y="541.23" width="3.5" height="3.27"/>
					<rect x="400.62" y="541.23" width="3.69" height="3.27"/>
				</g>
				<g>
					
						<rect x="287.25" y="541.24" transform="matrix(-1 -4.910573e-11 4.910573e-11 -1 577.7524 1085.7301)" width="3.26" height="3.26"/>
					<rect x="287.25" y="535.73" width="3.26" height="5.51"/>
					<rect x="287.25" y="544.49" width="3.26" height="5.51"/>
					<rect x="283.55" y="541.23" width="3.69" height="3.27"/>
					<rect x="290.51" y="541.23" width="3.69" height="3.27"/>
				</g>
				<g>
					
						<rect x="276.61" y="541.24" transform="matrix(-1 -4.631552e-11 4.631552e-11 -1 556.4698 1085.7301)" width="3.26" height="3.26"/>
					<rect x="276.61" y="535.73" width="3.26" height="5.51"/>
					<rect x="276.61" y="544.49" width="3.26" height="5.51"/>
					<rect x="272.91" y="541.23" width="3.69" height="3.27"/>
					<rect x="279.86" y="541.23" width="3.69" height="3.27"/>
				</g>
				<g>
					
						<rect x="265.96" y="541.24" transform="matrix(-1 -4.352575e-11 4.352575e-11 -1 535.1874 1085.7301)" width="3.26" height="3.26"/>
					<rect x="265.96" y="535.73" width="3.26" height="5.51"/>
					<rect x="265.96" y="544.49" width="3.26" height="5.51"/>
					<rect x="262.27" y="541.23" width="3.69" height="3.27"/>
					<rect x="269.22" y="541.23" width="3.69" height="3.27"/>
				</g>
				<g>
					
						<rect x="255.32" y="541.24" transform="matrix(-1 -4.910573e-11 4.910573e-11 -1 513.9048 1085.7301)" width="3.26" height="3.26"/>
					<rect x="255.32" y="535.73" width="3.26" height="5.51"/>
					<rect x="255.32" y="544.49" width="3.26" height="5.51"/>
					<rect x="251.63" y="541.23" width="3.69" height="3.27"/>
					<rect x="258.58" y="541.23" width="3.69" height="3.27"/>
				</g>
				<g>
					
						<rect x="244.68" y="541.24" transform="matrix(-1 -4.910573e-11 4.910573e-11 -1 492.6223 1085.7301)" width="3.26" height="3.26"/>
					<rect x="244.68" y="535.73" width="3.26" height="5.51"/>
					<rect x="244.68" y="544.49" width="3.26" height="5.51"/>
					<rect x="240.99" y="541.23" width="3.69" height="3.27"/>
					<rect x="247.94" y="541.23" width="3.69" height="3.27"/>
				</g>
				<g>
					
						<rect x="234.04" y="541.24" transform="matrix(-1 -4.631552e-11 4.631552e-11 -1 471.3398 1085.7301)" width="3.26" height="3.26"/>
					<rect x="234.04" y="535.73" width="3.26" height="5.51"/>
					<rect x="234.04" y="544.49" width="3.26" height="5.51"/>
					<rect x="230.55" y="541.23" width="3.49" height="3.27"/>
					<rect x="237.3" y="541.23" width="3.69" height="3.27"/>
				</g>
			</g>
		</g>
		<polygon points="354.32,305.55 354.32,300.04 351.06,300.04 351.06,305.55 345.56,305.55 345.56,305.55 343.69,305.55 
			343.69,298.18 349.2,298.18 349.2,294.92 343.69,294.92 343.69,289.41 340.43,289.41 340.43,294.92 334.93,294.92 334.93,298.18 
			340.43,298.18 340.43,305.55 338.57,305.55 338.57,305.55 333.06,305.55 333.06,300.04 329.8,300.04 329.8,305.55 324.3,305.55 
			324.3,305.55 322.43,305.55 322.43,303.68 322.43,303.68 322.43,298.18 327.94,298.18 327.94,294.92 322.43,294.92 322.43,289.41 
			322.43,289.41 322.43,287.55 329.8,287.55 329.8,293.05 333.06,293.05 333.06,287.55 338.57,287.55 338.57,284.29 333.06,284.29 
			333.06,278.78 329.8,278.78 329.8,284.29 324.3,284.29 324.3,284.29 322.43,284.29 322.43,282.42 322.43,282.42 322.43,276.92 
			327.94,276.92 327.94,273.66 322.43,273.66 322.43,268.15 319.17,268.15 319.17,273.66 313.67,273.66 313.67,276.92 
			319.17,276.92 319.17,284.29 317.31,284.29 317.31,284.29 311.8,284.29 311.8,278.78 308.54,278.78 308.54,284.29 303.04,284.29 
			303.04,287.55 308.54,287.55 308.54,293.05 311.8,293.05 311.8,287.55 319.17,287.55 319.17,294.92 313.67,294.92 313.67,298.18 
			319.17,298.18 319.17,305.55 317.31,305.55 317.31,305.55 311.8,305.55 311.8,300.04 308.54,300.04 308.54,305.55 303.04,305.55 
			303.04,305.55 301.17,305.55 301.17,298.18 306.68,298.18 306.68,294.92 301.17,294.92 301.17,289.41 297.91,289.41 
			297.91,294.92 292.41,294.92 292.41,298.18 297.91,298.18 297.91,305.55 296.05,305.55 296.05,305.55 290.54,305.55 
			290.54,300.04 287.28,300.04 287.28,305.55 281.78,305.55 281.78,308.81 287.28,308.81 287.28,314.31 290.54,314.31 
			290.54,308.81 297.91,308.81 297.91,314.43 301.17,314.43 301.17,308.81 308.54,308.81 308.54,314.31 311.8,314.31 311.8,308.81 
			319.17,308.81 319.17,314.43 322.43,314.43 322.43,310.67 322.43,310.67 322.43,308.81 329.8,308.81 329.8,314.31 333.06,314.31 
			333.06,308.81 340.43,308.81 340.43,314.43 343.69,314.43 343.69,308.81 351.06,308.81 351.06,314.31 354.32,314.31 
			354.32,308.81 359.83,308.81 359.83,305.55 		"/>
		<g>
			<polygon points="398.79,241.66 402.05,241.66 402.05,236.16 409.42,236.16 409.42,243.53 403.92,243.53 403.92,246.79 
				409.42,246.79 409.42,246.79 411.07,246.79 411.07,225.53 409.42,225.53 409.42,232.9 402.05,232.9 402.05,227.4 398.79,227.4 
				398.79,232.9 393.29,232.9 393.29,236.16 398.79,236.16 			"/>
			<rect x="409.42" y="246.79" width="1.65" height="5.51"/>
			<path d="M397.8,257.66c-0.02-4.73-1.83-9.46-5.43-13.07c-3.61-3.61-8.34-5.42-13.07-5.44c0.02,4.73,1.83,9.46,5.43,13.07
				C388.34,255.84,393.07,257.65,397.8,257.66z"/>
			<polygon points="411.07,225.53 411.07,216.76 409.42,216.76 409.42,222.27 403.92,222.27 403.92,225.53 409.42,225.53 
				409.42,225.53 			"/>
			<polygon points="411.07,300.16 411.07,289.53 409.42,289.53 409.42,295.04 403.92,295.04 403.92,298.3 409.42,298.3 
				409.42,300.16 			"/>
			<path d="M411.07,288.16v-3c-0.01,0-0.01,0-0.02,0c-7.86,0-14.25-6.39-14.25-14.25s6.39-14.25,14.25-14.25c0.01,0,0.01,0,0.02,0
				v-3c-0.01,0-0.01,0-0.02,0c-9.51,0-17.25,7.74-17.25,17.25s7.74,17.25,17.25,17.25C411.06,288.16,411.07,288.16,411.07,288.16z"
				/>
			<path d="M379.49,300.16h9.03c1.37-0.79,2.67-1.76,3.84-2.93c3.61-3.61,5.42-8.34,5.43-13.07c-4.73,0.02-9.46,1.83-13.07,5.43
				C381.76,292.57,380.03,296.3,379.49,300.16z"/>
			<polygon points="381.8,279.91 376.3,279.91 376.3,272.54 383.67,272.54 383.67,278.05 386.93,278.05 386.93,272.54 
				392.43,272.54 392.43,269.28 386.93,269.28 386.93,263.78 383.67,263.78 383.67,269.28 376.3,269.28 376.3,261.91 381.8,261.91 
				381.8,258.65 376.3,258.65 376.3,253.15 373.04,253.15 373.04,258.65 367.53,258.65 367.53,261.91 373.04,261.91 373.04,269.28 
				365.67,269.28 365.67,263.78 362.41,263.78 362.41,269.28 356.9,269.28 356.9,272.54 362.41,272.54 362.41,278.05 365.67,278.05 
				365.67,272.54 373.04,272.54 373.04,279.91 367.53,279.91 367.53,283.17 373.04,283.17 373.04,288.68 376.3,288.68 376.3,283.17 
				381.8,283.17 			"/>
		</g>
		<g>
			<polygon points="242.81,241.66 239.55,241.66 239.55,236.16 232.18,236.16 232.18,243.53 237.69,243.53 237.69,246.79 
				232.18,246.79 232.18,246.79 230.54,246.79 230.54,225.53 232.18,225.53 232.18,232.9 239.55,232.9 239.55,227.4 242.81,227.4 
				242.81,232.9 248.32,232.9 248.32,236.16 242.81,236.16 			"/>
			<rect x="230.54" y="246.79" width="1.65" height="5.51"/>
			<path d="M243.81,257.66c0.02-4.73,1.83-9.46,5.43-13.07c3.61-3.61,8.34-5.42,13.07-5.44c-0.02,4.73-1.83,9.46-5.43,13.07
				C253.27,255.84,248.54,257.65,243.81,257.66z"/>
			<polygon points="230.54,225.53 230.54,216.76 232.18,216.76 232.18,222.27 237.69,222.27 237.69,225.53 232.18,225.53 
				232.18,225.53 			"/>
			<polygon points="230.54,300.16 230.54,289.53 232.18,289.53 232.18,295.04 237.69,295.04 237.69,298.3 232.18,298.3 
				232.18,300.16 			"/>
			<path d="M230.54,288.16v-3c0.01,0,0.01,0,0.02,0c7.86,0,14.25-6.39,14.25-14.25s-6.39-14.25-14.25-14.25c-0.01,0-0.01,0-0.02,0
				v-3c0.01,0,0.01,0,0.02,0c9.51,0,17.25,7.74,17.25,17.25s-7.74,17.25-17.25,17.25C230.55,288.16,230.54,288.16,230.54,288.16z"/>
			<path d="M262.11,300.16h-9.03c-1.37-0.79-2.67-1.76-3.84-2.93c-3.61-3.61-5.42-8.34-5.43-13.07c4.73,0.02,9.46,1.83,13.07,5.43
				C259.85,292.57,261.58,296.3,262.11,300.16z"/>
			<polygon points="259.8,279.91 265.31,279.91 265.31,272.54 257.94,272.54 257.94,278.05 254.68,278.05 254.68,272.54 
				249.17,272.54 249.17,269.28 254.68,269.28 254.68,263.78 257.94,263.78 257.94,269.28 265.31,269.28 265.31,261.91 
				259.8,261.91 259.8,258.65 265.31,258.65 265.31,253.15 268.57,253.15 268.57,258.65 274.07,258.65 274.07,261.91 268.57,261.91 
				268.57,269.28 275.94,269.28 275.94,263.78 279.2,263.78 279.2,269.28 284.7,269.28 284.7,272.54 279.2,272.54 279.2,278.05 
				275.94,278.05 275.94,272.54 268.57,272.54 268.57,279.91 274.07,279.91 274.07,283.17 268.57,283.17 268.57,288.68 
				265.31,288.68 265.31,283.17 259.8,283.17 			"/>
		</g>
	</g>
</g>
<g>
</g>
<g>
</g>
<g>
</g>
<g>
</g>
<g>
</g>
<g>
</g>
<g>
</g>
<g>
</g>
<g>
</g>
<g>
</g>
<g>
</g>
<g>
</g>
<g>
</g>
<g>
</g>
<g>
</g>
</svg>
