<?xml version="1.0" encoding="utf-8"?>
<!-- Generator: Adobe Illustrator 27.2.0, SVG Export Plug-In . SVG Version: 6.00 Build 0)  -->
<svg version="1.1" id="Layer_1" xmlns="http://www.w3.org/2000/svg" xmlns:xlink="http://www.w3.org/1999/xlink" x="0px" y="0px"
	 viewBox="0 0 800 600" style="enable-background:new 0 0 800 600;" xml:space="preserve">
<g>
	
		<rect x="255.28" y="286.18" transform="matrix(-0.7071 -0.7071 0.7071 -0.7071 262.6971 739.7155)" style="fill:none;stroke:#000000;stroke-width:3;stroke-miterlimit:10;" width="58.55" height="58.55"/>
	
		<rect x="247.5" y="278.4" transform="matrix(-0.7071 -0.7071 0.7071 -0.7071 262.6971 739.7155)" style="fill:none;stroke:#000000;stroke-width:3;stroke-miterlimit:10;" width="74.1" height="74.1"/>
	<g>
		<g>
			<g>
				<rect x="267.71" y="228.33" transform="matrix(0.7071 -0.7071 0.7071 0.7071 -94.7624 261.9073)" width="2.11" height="34.02"/>
				
					<rect x="258.04" y="238.01" transform="matrix(0.7071 -0.7071 0.7071 0.7071 -104.4342 257.9015)" width="2.11" height="34.02"/>
			</g>
			<rect x="269.57" y="261.58" transform="matrix(0.7071 -0.7071 0.7071 0.7071 -105.2025 273.4348)" width="15.79" height="4.25"/>
			<rect x="242.51" y="234.52" transform="matrix(0.7071 -0.7071 0.7071 0.7071 -93.9942 246.3749)" width="15.79" height="4.25"/>
		</g>
		<g>
			<g>
				<rect x="256.55" y="239.5" transform="matrix(0.7071 -0.7071 0.7071 0.7071 -105.9269 257.2823)" width="2.11" height="34.02"/>
				
					<rect x="246.88" y="249.17" transform="matrix(0.7071 -0.7071 0.7071 0.7071 -115.5987 253.2771)" width="2.11" height="34.02"/>
			</g>
			<rect x="258.4" y="272.75" transform="matrix(0.7071 -0.7071 0.7071 0.7071 -116.367 268.8093)" width="15.79" height="4.25"/>
			<rect x="231.34" y="245.69" transform="matrix(0.7071 -0.7071 0.7071 0.7071 -105.1587 241.7504)" width="15.79" height="4.25"/>
		</g>
		<g>
			<g>
				
					<rect x="245.39" y="250.66" transform="matrix(0.7071 -0.7071 0.7071 0.7071 -117.0913 252.6578)" width="2.11" height="34.02"/>
				
					<rect x="235.71" y="260.34" transform="matrix(0.7071 -0.7071 0.7071 0.7071 -126.7632 248.6526)" width="2.11" height="34.02"/>
			</g>
			<rect x="247.24" y="283.91" transform="matrix(0.7071 -0.7071 0.7071 0.7071 -127.5315 264.1853)" width="15.79" height="4.25"/>
			<rect x="220.18" y="256.85" transform="matrix(0.7071 -0.7071 0.7071 0.7071 -116.3232 237.126)" width="15.79" height="4.25"/>
		</g>
		<g>
			<g>
				
					<rect x="234.22" y="261.83" transform="matrix(0.7071 -0.7071 0.7071 0.7071 -128.2558 248.0343)" width="2.11" height="34.02"/>
				<rect x="224.55" y="271.5" transform="matrix(0.7071 -0.7071 0.7071 0.7071 -137.9277 244.0281)" width="2.11" height="34.02"/>
			</g>
			<rect x="236.08" y="295.08" transform="matrix(0.7071 -0.7071 0.7071 0.7071 -138.696 259.5608)" width="15.79" height="4.25"/>
			<rect x="209.02" y="268.02" transform="matrix(0.7071 -0.7071 0.7071 0.7071 -127.4877 232.5015)" width="15.79" height="4.25"/>
		</g>
		<g>
			<g>
				
					<rect x="223.06" y="272.99" transform="matrix(0.7071 -0.7071 0.7071 0.7071 -139.4203 243.4098)" width="2.11" height="34.02"/>
				
					<rect x="213.38" y="282.66" transform="matrix(0.7071 -0.7071 0.7071 0.7071 -149.0922 239.4036)" width="2.11" height="34.02"/>
			</g>
			<rect x="224.91" y="306.24" transform="matrix(0.7071 -0.7071 0.7071 0.7071 -149.8606 254.9368)" width="15.79" height="4.25"/>
			<rect x="197.85" y="279.18" transform="matrix(0.7071 -0.7071 0.7071 0.7071 -138.6522 227.877)" width="15.79" height="4.25"/>
		</g>
		<g>
			<g>
				
					<rect x="197.43" y="330.18" transform="matrix(0.7071 -0.7071 0.7071 0.7071 -171.4076 248.6473)" width="34.02" height="2.11"/>
				<rect x="207.1" y="339.85" transform="matrix(0.7071 -0.7071 0.7071 0.7071 -175.4137 258.3186)" width="34.02" height="2.11"/>
			</g>
			<rect x="230.68" y="314.64" transform="matrix(0.7071 -0.7071 0.7071 0.7071 -159.8809 259.0865)" width="4.25" height="15.79"/>
			<rect x="203.62" y="341.7" transform="matrix(0.7071 -0.7071 0.7071 0.7071 -186.9402 247.8781)" width="4.25" height="15.79"/>
		</g>
		<g>
			<g>
				<rect x="208.6" y="341.34" transform="matrix(0.7071 -0.7071 0.7071 0.7071 -176.032 259.8113)" width="34.02" height="2.11"/>
				
					<rect x="218.27" y="351.01" transform="matrix(0.7071 -0.7071 0.7071 0.7071 -180.0382 269.4831)" width="34.02" height="2.11"/>
			</g>
			<rect x="241.84" y="325.81" transform="matrix(0.7071 -0.7071 0.7071 0.7071 -164.5056 270.252)" width="4.25" height="15.79"/>
			<rect x="214.78" y="352.87" transform="matrix(0.7071 -0.7071 0.7071 0.7071 -191.565 259.0436)" width="4.25" height="15.79"/>
		</g>
		<g>
			<g>
				<rect x="219.76" y="352.5" transform="matrix(0.7071 -0.7071 0.7071 0.7071 -180.6561 270.9736)" width="34.02" height="2.11"/>
				
					<rect x="229.43" y="362.18" transform="matrix(0.7071 -0.7071 0.7071 0.7071 -184.6627 280.6476)" width="34.02" height="2.11"/>
			</g>
			<rect x="253.01" y="336.97" transform="matrix(0.7071 -0.7071 0.7071 0.7071 -169.1299 281.4154)" width="4.25" height="15.79"/>
			<rect x="225.95" y="364.03" transform="matrix(0.7071 -0.7071 0.7071 0.7071 -196.1894 270.2081)" width="4.25" height="15.79"/>
		</g>
		<g>
			<g>
				<rect x="230.93" y="363.67" transform="matrix(0.7071 -0.7071 0.7071 0.7071 -185.281 282.1403)" width="34.02" height="2.11"/>
				<rect x="240.6" y="373.34" transform="matrix(0.7071 -0.7071 0.7071 0.7071 -189.2872 291.8121)" width="34.02" height="2.11"/>
			</g>
			<rect x="264.17" y="348.14" transform="matrix(0.7071 -0.7071 0.7071 0.7071 -173.7545 292.581)" width="4.25" height="15.79"/>
			<rect x="237.11" y="375.2" transform="matrix(0.7071 -0.7071 0.7071 0.7071 -200.8137 281.3715)" width="4.25" height="15.79"/>
		</g>
		<g>
			<g>
				<rect x="242.09" y="374.83" transform="matrix(0.7071 -0.7071 0.7071 0.7071 -189.905 293.3025)" width="34.02" height="2.11"/>
				
					<rect x="251.76" y="384.51" transform="matrix(0.7071 -0.7071 0.7071 0.7071 -193.9117 302.9766)" width="34.02" height="2.11"/>
			</g>
			<rect x="275.34" y="359.3" transform="matrix(0.7071 -0.7071 0.7071 0.7071 -178.3789 303.7449)" width="4.25" height="15.79"/>
			<rect x="248.28" y="386.36" transform="matrix(0.7071 -0.7071 0.7071 0.7071 -205.4384 292.5372)" width="4.25" height="15.79"/>
		</g>
		<g>
			<g>
				
					<rect x="299.27" y="368.55" transform="matrix(0.7071 -0.7071 0.7071 0.7071 -184.6685 325.2919)" width="2.11" height="34.02"/>
				
					<rect x="308.94" y="358.88" transform="matrix(0.7071 -0.7071 0.7071 0.7071 -174.9967 329.2981)" width="2.11" height="34.02"/>
			</g>
			<rect x="283.74" y="365.07" transform="matrix(0.7071 -0.7071 0.7071 0.7071 -174.2282 313.7642)" width="15.79" height="4.25"/>
			<rect x="310.8" y="392.13" transform="matrix(0.7071 -0.7071 0.7071 0.7071 -185.4367 340.8247)" width="15.79" height="4.25"/>
		</g>
		<g>
			<g>
				<rect x="310.44" y="357.39" transform="matrix(0.7071 -0.7071 0.7071 0.7071 -173.504 329.9164)" width="2.11" height="34.02"/>
				
					<rect x="320.11" y="347.72" transform="matrix(0.7071 -0.7071 0.7071 0.7071 -163.8322 333.9226)" width="2.11" height="34.02"/>
			</g>
			<rect x="294.9" y="353.9" transform="matrix(0.7071 -0.7071 0.7071 0.7071 -163.0639 318.3911)" width="15.79" height="4.25"/>
			<rect x="321.96" y="380.96" transform="matrix(0.7071 -0.7071 0.7071 0.7071 -174.2722 345.4492)" width="15.79" height="4.25"/>
		</g>
		<g>
			<g>
				<rect x="321.6" y="346.22" transform="matrix(0.7071 -0.7071 0.7071 0.7071 -162.3394 334.5384)" width="2.11" height="34.02"/>
				
					<rect x="331.27" y="336.55" transform="matrix(0.7071 -0.7071 0.7071 0.7071 -152.6677 338.5471)" width="2.11" height="34.02"/>
			</g>
			<rect x="306.07" y="342.74" transform="matrix(0.7071 -0.7071 0.7071 0.7071 -151.8993 323.0132)" width="15.79" height="4.25"/>
			<rect x="333.13" y="369.8" transform="matrix(0.7071 -0.7071 0.7071 0.7071 -163.1077 350.075)" width="15.79" height="4.25"/>
		</g>
		<g>
			<g>
				<rect x="332.77" y="335.06" transform="matrix(0.7071 -0.7071 0.7071 0.7071 -151.175 339.1654)" width="2.11" height="34.02"/>
				
					<rect x="342.44" y="325.39" transform="matrix(0.7071 -0.7071 0.7071 0.7071 -141.5032 343.1716)" width="2.11" height="34.02"/>
			</g>
			<rect x="317.23" y="331.58" transform="matrix(0.7071 -0.7071 0.7071 0.7071 -140.7348 327.64)" width="15.79" height="4.25"/>
			<rect x="344.29" y="358.63" transform="matrix(0.7071 -0.7071 0.7071 0.7071 -151.9432 354.6969)" width="15.79" height="4.25"/>
		</g>
		<g>
			<g>
				
					<rect x="343.93" y="323.89" transform="matrix(0.7071 -0.7071 0.7071 0.7071 -140.0105 343.7874)" width="2.11" height="34.02"/>
				<rect x="353.6" y="314.22" transform="matrix(0.7071 -0.7071 0.7071 0.7071 -130.3387 347.7961)" width="2.11" height="34.02"/>
			</g>
			<rect x="328.4" y="320.41" transform="matrix(0.7071 -0.7071 0.7071 0.7071 -129.5704 332.2621)" width="15.79" height="4.25"/>
			<rect x="355.46" y="347.47" transform="matrix(0.7071 -0.7071 0.7071 0.7071 -140.7787 359.3227)" width="15.79" height="4.25"/>
		</g>
		<g>
			<g>
				
					<rect x="337.65" y="298.62" transform="matrix(0.7071 -0.7071 0.7071 0.7071 -108.0234 338.5517)" width="34.02" height="2.11"/>
				
					<rect x="327.98" y="288.94" transform="matrix(0.7071 -0.7071 0.7071 0.7071 -104.0171 328.8811)" width="34.02" height="2.11"/>
			</g>
			<rect x="334.17" y="300.47" transform="matrix(0.7071 -0.7071 0.7071 0.7071 -119.5499 328.1127)" width="4.25" height="15.79"/>
			<rect x="361.23" y="273.41" transform="matrix(0.7071 -0.7071 0.7071 0.7071 -92.4904 339.3217)" width="4.25" height="15.79"/>
		</g>
		<g>
			<g>
				
					<rect x="326.49" y="287.45" transform="matrix(0.7071 -0.7071 0.7071 0.7071 -103.3989 327.3873)" width="34.02" height="2.11"/>
				<rect x="316.81" y="277.78" transform="matrix(0.7071 -0.7071 0.7071 0.7071 -99.3926 317.7166)" width="34.02" height="2.11"/>
			</g>
			<rect x="323" y="289.31" transform="matrix(0.7071 -0.7071 0.7071 0.7071 -114.9254 316.9482)" width="4.25" height="15.79"/>
			<rect x="350.06" y="262.25" transform="matrix(0.7071 -0.7071 0.7071 0.7071 -87.8661 328.156)" width="4.25" height="15.79"/>
		</g>
		<g>
			<g>
				<rect x="315.32" y="276.29" transform="matrix(0.7071 -0.7071 0.7071 0.7071 -98.7745 316.2228)" width="34.02" height="2.11"/>
				<rect x="305.65" y="266.62" transform="matrix(0.7071 -0.7071 0.7071 0.7071 -94.7682 306.5521)" width="34.02" height="2.11"/>
			</g>
			<rect x="311.84" y="278.14" transform="matrix(0.7071 -0.7071 0.7071 0.7071 -110.3009 305.7832)" width="4.25" height="15.79"/>
			<rect x="338.9" y="251.08" transform="matrix(0.7071 -0.7071 0.7071 0.7071 -83.2415 316.9926)" width="4.25" height="15.79"/>
		</g>
		<g>
			<g>
				<rect x="304.16" y="265.12" transform="matrix(0.7071 -0.7071 0.7071 0.7071 -94.1499 305.0594)" width="34.02" height="2.11"/>
				<rect x="294.48" y="255.45" transform="matrix(0.7071 -0.7071 0.7071 0.7071 -90.1437 295.3876)" width="34.02" height="2.11"/>
			</g>
			<rect x="300.67" y="266.98" transform="matrix(0.7071 -0.7071 0.7071 0.7071 -105.6764 294.6198)" width="4.25" height="15.79"/>
			<rect x="327.73" y="239.92" transform="matrix(0.7071 -0.7071 0.7071 0.7071 -78.6171 305.8271)" width="4.25" height="15.79"/>
		</g>
		<g>
			<g>
				<rect x="292.99" y="253.96" transform="matrix(0.7071 -0.7071 0.7071 0.7071 -89.5254 293.8949)" width="34.02" height="2.11"/>
				<rect x="283.32" y="244.29" transform="matrix(0.7071 -0.7071 0.7071 0.7071 -85.5192 284.2231)" width="34.02" height="2.11"/>
			</g>
			<rect x="289.51" y="255.81" transform="matrix(0.7071 -0.7071 0.7071 0.7071 -101.0519 283.4543)" width="4.25" height="15.79"/>
			<rect x="316.57" y="228.75" transform="matrix(0.7071 -0.7071 0.7071 0.7071 -73.9926 294.6626)" width="4.25" height="15.79"/>
		</g>
		<g>
			<path d="M224.6,315.41l-24.87,24.87l-8.24-8.24l16.6-16.6h-2.72l-15.24,15.24l0,0l15.24-15.24h-2.72l-13.88,13.88l-7.46-7.46
				l6.42-6.42h-2.72l-5.06,5.06l0,0l5.06-5.06l-2.72,0l-3.7,3.7l-3.7-3.7h-6.01l29.78,29.78l3.01-3.01l24.05-24.05l2.72-2.72
				l-4.62-0.82L224.6,315.41z M224.36,316.81L224.36,316.81l-24.05,24.05l0,0L224.36,316.81z"/>
			<path d="M223.82,314.63l4.62,0.82l-2.72-2.72l-24.05-24.05l-3.01-3.01l-29.78,29.78h6.01l3.7-3.7l3.7,3.7l2.72,0l-5.06-5.06l0,0
				l5.06,5.06h2.72l-6.42-6.42l7.46-7.46l13.88,13.88h2.72l-15.24-15.24l0,0l15.24,15.24h2.72l-16.6-16.6l8.28-8.28L223.82,314.63
				L223.82,314.63z M200.31,290.04L200.31,290.04l24.05,24.05l0,0L200.31,290.04z"/>
		</g>
		<g>
			<path d="M284.51,375.4l24.87,24.87l-8.24,8.24l-16.6-16.6v2.72l15.24,15.24l0,0l-15.24-15.24v2.72l13.88,13.88l-7.46,7.46
				l-6.42-6.42v2.72l5.06,5.06l0,0l-5.06-5.06l0,2.72l3.7,3.7l-3.7,3.7v6.01l29.78-29.78l-3.01-3.01l-24.05-24.05l-2.72-2.72
				l-0.82,4.62L284.51,375.4z M285.91,375.64L285.91,375.64l24.05,24.05l0,0L285.91,375.64z"/>
			<path d="M283.73,376.18l0.82-4.62l-2.72,2.72l-24.05,24.05l-3.01,3.01l29.78,29.78v-6.01l-3.7-3.7l3.7-3.7l0-2.72l-5.06,5.06l0,0
				l5.06-5.06v-2.72l-6.42,6.42l-7.46-7.46l13.88-13.88v-2.72l-15.24,15.24l0,0l15.24-15.24v-2.72l-16.6,16.6l-8.28-8.28
				L283.73,376.18L283.73,376.18z M259.13,399.69L259.13,399.69l24.05-24.05l0,0L259.13,399.69z"/>
		</g>
		<g>
			<path d="M344.5,315.49l24.87-24.87l8.24,8.24l-16.6,16.6h2.72l15.24-15.24l0,0l-15.24,15.24h2.72l13.88-13.88l7.46,7.46
				l-6.42,6.42h2.72l5.06-5.06l0,0l-5.06,5.06l2.72,0l3.7-3.7l3.7,3.7h6.01l-29.78-29.78l-3.01,3.01l-24.05,24.05l-2.72,2.72
				l4.62,0.82L344.5,315.49z M344.74,314.09L344.74,314.09l24.05-24.05l0,0L344.74,314.09z"/>
			<path d="M345.28,316.27l-4.62-0.82l2.72,2.72l24.05,24.05l3.01,3.01l29.78-29.78h-6.01l-3.7,3.7l-3.7-3.7l-2.72,0l5.06,5.06l0,0
				l-5.06-5.06h-2.72l6.42,6.42l-7.46,7.46l-13.88-13.88h-2.72l15.24,15.24l0,0l-15.24-15.24h-2.72l16.6,16.6l-8.28,8.28
				L345.28,316.27L345.28,316.27z M368.79,340.87L368.79,340.87l-24.05-24.05l0,0L368.79,340.87z"/>
		</g>
		<g>
			<path d="M284.59,255.5l-24.87-24.87l8.24-8.24l16.6,16.6v-2.72l-15.24-15.24l0,0l15.24,15.24v-2.72l-13.88-13.88l7.46-7.46
				l6.42,6.42v-2.72l-5.06-5.06l0,0l5.06,5.06l0-2.72l-3.7-3.7l3.7-3.7v-6.01l-29.78,29.78l3.01,3.01l24.05,24.05l2.72,2.72
				l0.82-4.62L284.59,255.5z M283.19,255.26L283.19,255.26l-24.05-24.05l0,0L283.19,255.26z"/>
			<path d="M285.37,254.72l-0.82,4.62l2.72-2.72l24.05-24.05l3.01-3.01l-29.78-29.78v6.01l3.7,3.7l-3.7,3.7l0,2.72l5.06-5.06l0,0
				l-5.06,5.06v2.72l6.42-6.42l7.46,7.46l-13.88,13.88v2.72l15.24-15.24l0,0l-15.24,15.24v2.72l16.6-16.6l8.28,8.28L285.37,254.72
				L285.37,254.72z M309.96,231.21L309.96,231.21l-24.05,24.05l0,0L309.96,231.21z"/>
		</g>
	</g>
	<g>
		
			<rect x="273.47" y="323.61" transform="matrix(-0.7071 -0.7071 0.7071 -0.7071 249.0965 772.5504)" style="fill:none;stroke:#000000;stroke-width:3;stroke-miterlimit:10;" width="22.16" height="22.16"/>
		<circle cx="284.55" cy="334.69" r="3"/>
	</g>
	<g>
		
			<rect x="273.47" y="285.14" transform="matrix(-0.7071 0.7071 -0.7071 -0.7071 695.212 304.468)" style="fill:none;stroke:#000000;stroke-width:3;stroke-miterlimit:10;" width="22.16" height="22.16"/>
		<circle cx="284.55" cy="296.22" r="3"/>
	</g>
	<g>
		<g>
			<g>
				<rect x="298.72" y="127.46" width="5.67" height="5.67"/>
				<rect x="293.05" y="121.79" width="5.67" height="5.67"/>
				<rect x="304.39" y="121.79" width="5.67" height="5.67"/>
				<g>
					<rect x="281.71" y="144.47" width="5.67" height="5.67"/>
					<rect x="287.38" y="138.8" width="5.67" height="5.67"/>
					<rect x="281.71" y="133.13" width="5.67" height="5.67"/>
					<rect x="293.05" y="133.13" width="5.67" height="5.67"/>
					<rect x="287.38" y="127.46" width="5.67" height="5.67"/>
					<rect x="281.71" y="121.79" width="5.67" height="5.67"/>
					
						<rect x="276.04" y="138.8" transform="matrix(-1 -4.588164e-11 4.588164e-11 -1 557.7587 283.2648)" width="5.67" height="5.67"/>
					
						<rect x="270.38" y="133.13" transform="matrix(-1 -4.395652e-11 4.395652e-11 -1 546.4201 271.9262)" width="5.67" height="5.67"/>
					
						<rect x="276.04" y="127.46" transform="matrix(-1 -4.395652e-11 4.395652e-11 -1 557.7587 260.5876)" width="5.67" height="5.67"/>
				</g>
				
					<rect x="264.71" y="127.46" transform="matrix(-1 -4.395652e-11 4.395652e-11 -1 535.0815 260.5876)" width="5.67" height="5.67"/>
				
					<rect x="270.38" y="121.79" transform="matrix(-1 -4.395652e-11 4.395652e-11 -1 546.4201 249.2491)" width="5.67" height="5.67"/>
				
					<rect x="259.04" y="121.79" transform="matrix(-1 -4.588164e-11 4.588164e-11 -1 523.7429 249.2491)" width="5.67" height="5.67"/>
			</g>
			<g>
				<rect x="282.42" y="115.81" width="4.25" height="4.25"/>
				<rect x="278.17" y="111.55" width="4.25" height="4.25"/>
				<rect x="273.92" y="107.3" width="4.25" height="4.25"/>
				<rect x="286.67" y="111.55" width="4.25" height="4.25"/>
				<rect x="282.42" y="107.3" width="4.25" height="4.25"/>
				<rect x="278.17" y="103.05" width="4.25" height="4.25"/>
				<rect x="290.93" y="107.3" width="4.25" height="4.25"/>
				<rect x="286.67" y="103.05" width="4.25" height="4.25"/>
				<rect x="282.42" y="98.8" width="4.25" height="4.25"/>
			</g>
			<g>
				<rect x="305.1" y="115.81" width="4.25" height="4.25"/>
				<rect x="300.85" y="111.55" width="4.25" height="4.25"/>
				<rect x="296.6" y="107.3" width="4.25" height="4.25"/>
				<rect x="309.35" y="111.55" width="4.25" height="4.25"/>
				<rect x="305.1" y="107.3" width="4.25" height="4.25"/>
				<rect x="300.85" y="103.05" width="4.25" height="4.25"/>
				<rect x="313.6" y="107.3" width="4.25" height="4.25"/>
				<rect x="309.35" y="103.05" width="4.25" height="4.25"/>
				<rect x="305.1" y="98.8" width="4.25" height="4.25"/>
			</g>
			<g>
				
					<rect x="259.75" y="115.81" transform="matrix(-1 -4.705803e-11 4.705803e-11 -1 523.7429 235.8646)" width="4.25" height="4.25"/>
				<rect x="264" y="111.55" transform="matrix(-1 -4.491886e-11 4.491886e-11 -1 532.2469 227.3606)" width="4.25" height="4.25"/>
				
					<rect x="268.25" y="107.3" transform="matrix(-1 -4.449120e-11 4.449120e-11 -1 540.7509 218.8567)" width="4.25" height="4.25"/>
				
					<rect x="255.49" y="111.55" transform="matrix(-1 -4.491886e-11 4.491886e-11 -1 515.239 227.3606)" width="4.25" height="4.25"/>
				
					<rect x="259.75" y="107.3" transform="matrix(-1 -4.491886e-11 4.491886e-11 -1 523.7429 218.8567)" width="4.25" height="4.25"/>
				<rect x="264" y="103.05" transform="matrix(-1 -4.192436e-11 4.192436e-11 -1 532.2469 210.3528)" width="4.25" height="4.25"/>
				
					<rect x="251.24" y="107.3" transform="matrix(-1 -4.449120e-11 4.449120e-11 -1 506.7351 218.8567)" width="4.25" height="4.25"/>
				
					<rect x="255.49" y="103.05" transform="matrix(-1 -4.491886e-11 4.491886e-11 -1 515.239 210.3528)" width="4.25" height="4.25"/>
				
					<rect x="259.75" y="98.8" transform="matrix(-1 -4.491886e-11 4.491886e-11 -1 523.7429 201.8488)" width="4.25" height="4.25"/>
			</g>
			<g>
				<polygon points="284.55,98.29 273.46,87.2 295.64,87.2 				"/>
				<rect x="282.42" y="81.78" transform="matrix(0.7071 0.7071 -0.7071 0.7071 142.6752 -176.6298)" width="4.25" height="4.25"/>
				<rect x="290.32" y="81.78" transform="matrix(0.7071 0.7071 -0.7071 0.7071 144.9869 -182.2108)" width="4.25" height="4.25"/>
				<rect x="274.53" y="81.78" transform="matrix(-0.7071 0.7071 -0.7071 -0.7071 531.6141 -52.3831)" width="4.25" height="4.25"/>
			</g>
		</g>
		<g>
			<g>
				
					<rect x="273.56" y="169.15" transform="matrix(6.123234e-17 -1 1 6.123234e-17 104.4121 448.3825)" width="5.67" height="5.67"/>
				<rect x="267.89" y="174.82" transform="matrix(6.123234e-17 -1 1 6.123234e-17 93.0735 448.3825)" width="5.67" height="5.67"/>
				
					<rect x="267.89" y="163.48" transform="matrix(-1.764749e-12 -1 1 -1.764749e-12 104.4121 437.0439)" width="5.67" height="5.67"/>
				<rect x="262.22" y="169.15" transform="matrix(6.123234e-17 -1 1 6.123234e-17 93.0735 437.0439)" width="5.67" height="5.67"/>
			</g>
			<g>
				
					<rect x="289.87" y="169.15" transform="matrix(4.411677e-11 -1 1 4.411677e-11 120.7148 464.6852)" width="5.67" height="5.67"/>
				
					<rect x="295.53" y="174.82" transform="matrix(4.588158e-11 -1 1 4.588158e-11 120.7148 476.0238)" width="5.67" height="5.67"/>
				
					<rect x="295.53" y="163.48" transform="matrix(4.588158e-11 -1 1 4.588158e-11 132.0534 464.6852)" width="5.67" height="5.67"/>
				<rect x="301.2" y="169.15" transform="matrix(4.588158e-11 -1 1 4.588158e-11 132.0534 476.0238)" width="5.67" height="5.67"/>
			</g>
			<g>
				<rect x="276.04" y="157.6" transform="matrix(4.411677e-11 -1 1 4.411677e-11 118.4471 439.3116)" width="5.67" height="5.67"/>
				
					<rect x="281.71" y="163.27" transform="matrix(4.588158e-11 -1 1 4.588158e-11 118.4471 450.6502)" width="5.67" height="5.67"/>
				
					<rect x="281.71" y="151.93" transform="matrix(4.588158e-11 -1 1 4.588158e-11 129.7856 439.3116)" width="5.67" height="5.67"/>
				<rect x="287.38" y="157.6" transform="matrix(4.588158e-11 -1 1 4.588158e-11 129.7856 450.6502)" width="5.67" height="5.67"/>
			</g>
			<polygon points="295.43,180.62 284.55,199.23 273.67,180.62 			"/>
		</g>
	</g>
	<g>
		<g>
			<rect x="196.07" y="202.92" transform="matrix(0.7071 -0.7071 0.7071 0.7071 -87.2328 200.9114)" width="5.67" height="5.67"/>
			<rect x="188.05" y="202.92" transform="matrix(0.7071 -0.7071 0.7071 0.7071 -89.5811 195.2421)" width="5.67" height="5.67"/>
			<rect x="196.07" y="194.9" transform="matrix(0.7071 -0.7071 0.7071 0.7071 -81.5636 198.5631)" width="5.67" height="5.67"/>
			<g>
				<rect x="196.07" y="226.97" transform="matrix(0.7071 -0.7071 0.7071 0.7071 -104.2407 207.9563)" width="5.67" height="5.67"/>
				<rect x="196.07" y="218.96" transform="matrix(0.7071 -0.7071 0.7071 0.7071 -98.5714 205.608)" width="5.67" height="5.67"/>
				<rect x="188.05" y="218.96" transform="matrix(0.7071 -0.7071 0.7071 0.7071 -100.9197 199.9387)" width="5.67" height="5.67"/>
				<rect x="196.07" y="210.94" transform="matrix(0.7071 -0.7071 0.7071 0.7071 -92.9021 203.2597)" width="5.67" height="5.67"/>
				<rect x="188.05" y="210.94" transform="matrix(0.7071 -0.7071 0.7071 0.7071 -95.2504 197.5904)" width="5.67" height="5.67"/>
				<rect x="180.04" y="210.94" transform="matrix(0.7071 -0.7071 0.7071 0.7071 -97.5987 191.9211)" width="5.67" height="5.67"/>
				
					<rect x="188.05" y="226.97" transform="matrix(-0.7071 0.7071 -0.7071 -0.7071 488.3641 257.3287)" width="5.67" height="5.67"/>
				<rect x="180.04" y="226.97" transform="matrix(-0.7071 0.7071 -0.7071 -0.7071 474.6772 262.998)" width="5.67" height="5.67"/>
				
					<rect x="180.04" y="218.96" transform="matrix(-0.7071 0.7071 -0.7071 -0.7071 469.0079 249.3111)" width="5.67" height="5.67"/>
			</g>
			<rect x="172.02" y="226.97" transform="matrix(-0.7071 0.7071 -0.7071 -0.7071 460.9904 268.6672)" width="5.67" height="5.67"/>
			<rect x="172.02" y="218.96" transform="matrix(-0.7071 0.7071 -0.7071 -0.7071 455.321 254.9804)" width="5.67" height="5.67"/>
			<rect x="164" y="226.97" transform="matrix(-0.7071 0.7071 -0.7071 -0.7071 447.3035 274.3365)" width="5.67" height="5.67"/>
		</g>
		<g>
			<rect x="176.01" y="206.91" transform="matrix(0.7071 -0.7071 0.7071 0.7071 -95.6386 187.189)" width="4.25" height="4.25"/>
			<rect x="170" y="206.91" transform="matrix(0.7071 -0.7071 0.7071 0.7071 -97.3998 182.937)" width="4.25" height="4.25"/>
			<rect x="163.99" y="206.91" transform="matrix(0.7071 -0.7071 0.7071 0.7071 -99.1611 178.6851)" width="4.25" height="4.25"/>
			<rect x="176.01" y="200.9" transform="matrix(0.7071 -0.7071 0.7071 0.7071 -91.3867 185.4278)" width="4.25" height="4.25"/>
			<rect x="170" y="200.9" transform="matrix(0.7071 -0.7071 0.7071 0.7071 -93.1479 181.1758)" width="4.25" height="4.25"/>
			<rect x="163.99" y="200.9" transform="matrix(0.7071 -0.7071 0.7071 0.7071 -94.9091 176.9238)" width="4.25" height="4.25"/>
			<rect x="176.01" y="194.89" transform="matrix(0.7071 -0.7071 0.7071 0.7071 -87.1347 183.6666)" width="4.25" height="4.25"/>
			<rect x="170" y="194.89" transform="matrix(0.7071 -0.7071 0.7071 0.7071 -88.8959 179.4146)" width="4.25" height="4.25"/>
			<rect x="163.99" y="194.89" transform="matrix(0.7071 -0.7071 0.7071 0.7071 -90.6571 175.1626)" width="4.25" height="4.25"/>
		</g>
		<g>
			<rect x="192.05" y="190.88" transform="matrix(0.7071 -0.7071 0.7071 0.7071 -79.6034 193.831)" width="4.25" height="4.25"/>
			<rect x="186.03" y="190.88" transform="matrix(0.7071 -0.7071 0.7071 0.7071 -81.3647 189.579)" width="4.25" height="4.25"/>
			<rect x="180.02" y="190.88" transform="matrix(0.7071 -0.7071 0.7071 0.7071 -83.1259 185.3271)" width="4.25" height="4.25"/>
			<rect x="192.05" y="184.87" transform="matrix(0.7071 -0.7071 0.7071 0.7071 -75.3515 192.0698)" width="4.25" height="4.25"/>
			<rect x="186.03" y="184.87" transform="matrix(0.7071 -0.7071 0.7071 0.7071 -77.1127 187.8178)" width="4.25" height="4.25"/>
			<rect x="180.02" y="184.87" transform="matrix(0.7071 -0.7071 0.7071 0.7071 -78.8739 183.5658)" width="4.25" height="4.25"/>
			<rect x="192.05" y="178.85" transform="matrix(0.7071 -0.7071 0.7071 0.7071 -71.0995 190.3085)" width="4.25" height="4.25"/>
			<rect x="186.03" y="178.85" transform="matrix(0.7071 -0.7071 0.7071 0.7071 -72.8607 186.0566)" width="4.25" height="4.25"/>
			<rect x="180.02" y="178.85" transform="matrix(0.7071 -0.7071 0.7071 0.7071 -74.6219 181.8046)" width="4.25" height="4.25"/>
		</g>
		<g>
			<rect x="159.98" y="222.95" transform="matrix(-0.7071 0.7071 -0.7071 -0.7071 435.8791 269.6044)" width="4.25" height="4.25"/>
			<rect x="159.98" y="216.94" transform="matrix(-0.7071 0.7071 -0.7071 -0.7071 431.6271 259.3392)" width="4.25" height="4.25"/>
			<rect x="159.98" y="210.92" transform="matrix(-0.7071 0.7071 -0.7071 -0.7071 427.3751 249.0741)" width="4.25" height="4.25"/>
			<rect x="153.96" y="222.95" transform="matrix(-0.7071 0.7071 -0.7071 -0.7071 425.6139 273.8564)" width="4.25" height="4.25"/>
			<rect x="153.96" y="216.94" transform="matrix(-0.7071 0.7071 -0.7071 -0.7071 421.3619 263.5912)" width="4.25" height="4.25"/>
			<rect x="153.96" y="210.92" transform="matrix(-0.7071 0.7071 -0.7071 -0.7071 417.11 253.326)" width="4.25" height="4.25"/>
			<rect x="147.95" y="222.95" transform="matrix(-0.7071 0.7071 -0.7071 -0.7071 415.3488 278.1083)" width="4.25" height="4.25"/>
			<rect x="147.95" y="216.94" transform="matrix(-0.7071 0.7071 -0.7071 -0.7071 411.0968 267.8432)" width="4.25" height="4.25"/>
			<rect x="147.95" y="210.92" transform="matrix(-0.7071 0.7071 -0.7071 -0.7071 406.8448 257.578)" width="4.25" height="4.25"/>
		</g>
		<g>
			<polygon points="164.25,195.15 148.57,195.15 164.25,179.47 			"/>
			<rect x="151.95" y="182.86" width="4.25" height="4.25"/>
			<rect x="157.53" y="177.28" width="4.25" height="4.25"/>
			
				<rect x="146.37" y="188.44" transform="matrix(-4.470487e-11 1 -1 -4.470487e-11 339.0626 42.0647)" width="4.25" height="4.25"/>
		</g>
	</g>
	<g>
		<g>
			<rect x="172.02" y="398.26" transform="matrix(-0.7071 -0.7071 0.7071 -0.7071 14.8748 808.3511)" width="5.67" height="5.67"/>
			<rect x="172.02" y="406.28" transform="matrix(-0.7071 -0.7071 0.7071 -0.7071 9.2055 822.038)" width="5.67" height="5.67"/>
			<rect x="164" y="398.26" transform="matrix(-0.7071 -0.7071 0.7071 -0.7071 1.1879 802.6818)" width="5.67" height="5.67"/>
			<g>
				<rect x="196.07" y="398.26" transform="matrix(-0.7071 -0.7071 0.7071 -0.7071 55.9354 825.3589)" width="5.67" height="5.67"/>
				<rect x="188.05" y="398.26" transform="matrix(-0.7071 -0.7071 0.7071 -0.7071 42.2485 819.6896)" width="5.67" height="5.67"/>
				<rect x="188.05" y="406.28" transform="matrix(-0.7071 -0.7071 0.7071 -0.7071 36.5792 833.3765)" width="5.67" height="5.67"/>
				<rect x="180.04" y="398.26" transform="matrix(-0.7071 -0.7071 0.7071 -0.7071 28.5616 814.0204)" width="5.67" height="5.67"/>
				<rect x="180.04" y="406.28" transform="matrix(-0.7071 -0.7071 0.7071 -0.7071 22.8923 827.7072)" width="5.67" height="5.67"/>
				<rect x="180.04" y="414.3" transform="matrix(-0.7071 -0.7071 0.7071 -0.7071 17.2231 841.3941)" width="5.67" height="5.67"/>
				<rect x="196.07" y="406.28" transform="matrix(0.7071 0.7071 -0.7071 0.7071 347.5442 -20.8209)" width="5.67" height="5.67"/>
				<rect x="196.07" y="414.3" transform="matrix(0.7071 0.7071 -0.7071 0.7071 353.2134 -18.4726)" width="5.67" height="5.67"/>
				<rect x="188.05" y="414.3" transform="matrix(0.7071 0.7071 -0.7071 0.7071 350.8651 -12.8033)" width="5.67" height="5.67"/>
			</g>
			<rect x="196.07" y="422.31" transform="matrix(0.7071 0.7071 -0.7071 0.7071 358.8828 -16.1243)" width="5.67" height="5.67"/>
			<rect x="188.05" y="422.31" transform="matrix(0.7071 0.7071 -0.7071 0.7071 356.5345 -10.455)" width="5.67" height="5.67"/>
			<rect x="196.07" y="430.33" transform="matrix(0.7071 0.7071 -0.7071 0.7071 364.552 -13.776)" width="5.67" height="5.67"/>
		</g>
		<g>
			<rect x="176.01" y="419.74" transform="matrix(-0.7071 -0.7071 0.7071 -0.7071 5.7987 846.1263)" width="4.25" height="4.25"/>
			<rect x="176.01" y="425.75" transform="matrix(-0.7071 -0.7071 0.7071 -0.7071 1.5467 856.3914)" width="4.25" height="4.25"/>
			<rect x="176.01" y="431.76" transform="matrix(-0.7071 -0.7071 0.7071 -0.7071 -2.7053 866.6566)" width="4.25" height="4.25"/>
			<rect x="170" y="419.74" transform="matrix(-0.7071 -0.7071 0.7071 -0.7071 -4.4665 841.8743)" width="4.25" height="4.25"/>
			<rect x="170" y="425.75" transform="matrix(-0.7071 -0.7071 0.7071 -0.7071 -8.7185 852.1395)" width="4.25" height="4.25"/>
			<rect x="170" y="431.76" transform="matrix(-0.7071 -0.7071 0.7071 -0.7071 -12.9704 862.4046)" width="4.25" height="4.25"/>
			<rect x="163.99" y="419.74" transform="matrix(-0.7071 -0.7071 0.7071 -0.7071 -14.7317 837.6223)" width="4.25" height="4.25"/>
			<rect x="163.99" y="425.75" transform="matrix(-0.7071 -0.7071 0.7071 -0.7071 -18.9836 847.8875)" width="4.25" height="4.25"/>
			<rect x="163.99" y="431.76" transform="matrix(-0.7071 -0.7071 0.7071 -0.7071 -23.2356 858.1526)" width="4.25" height="4.25"/>
		</g>
		<g>
			<rect x="159.98" y="403.7" transform="matrix(-0.7071 -0.7071 0.7071 -0.7071 -10.2365 807.4139)" width="4.25" height="4.25"/>
			<rect x="159.98" y="409.71" transform="matrix(-0.7071 -0.7071 0.7071 -0.7071 -14.4885 817.6791)" width="4.25" height="4.25"/>
			<rect x="159.98" y="415.73" transform="matrix(-0.7071 -0.7071 0.7071 -0.7071 -18.7405 827.9442)" width="4.25" height="4.25"/>
			<rect x="153.96" y="403.7" transform="matrix(-0.7071 -0.7071 0.7071 -0.7071 -20.5017 803.1619)" width="4.25" height="4.25"/>
			<rect x="153.96" y="409.71" transform="matrix(-0.7071 -0.7071 0.7071 -0.7071 -24.7537 813.4271)" width="4.25" height="4.25"/>
			<rect x="153.96" y="415.73" transform="matrix(-0.7071 -0.7071 0.7071 -0.7071 -29.0056 823.6923)" width="4.25" height="4.25"/>
			<rect x="147.95" y="403.7" transform="matrix(-0.7071 -0.7071 0.7071 -0.7071 -30.7668 798.91)" width="4.25" height="4.25"/>
			<rect x="147.95" y="409.71" transform="matrix(-0.7071 -0.7071 0.7071 -0.7071 -35.0188 809.1751)" width="4.25" height="4.25"/>
			<rect x="147.95" y="415.73" transform="matrix(-0.7071 -0.7071 0.7071 -0.7071 -39.2708 819.4403)" width="4.25" height="4.25"/>
		</g>
		<g>
			<rect x="192.05" y="435.77" transform="matrix(0.7071 0.7071 -0.7071 0.7071 366.5121 -9.0439)" width="4.25" height="4.25"/>
			<rect x="186.03" y="435.77" transform="matrix(0.7071 0.7071 -0.7071 0.7071 364.7509 -4.7919)" width="4.25" height="4.25"/>
			<rect x="180.02" y="435.77" transform="matrix(0.7071 0.7071 -0.7071 0.7071 362.9897 -0.5399)" width="4.25" height="4.25"/>
			<rect x="192.05" y="441.78" transform="matrix(0.7071 0.7071 -0.7071 0.7071 370.7641 -7.2826)" width="4.25" height="4.25"/>
			<rect x="186.03" y="441.78" transform="matrix(0.7071 0.7071 -0.7071 0.7071 369.0029 -3.0307)" width="4.25" height="4.25"/>
			<rect x="180.02" y="441.78" transform="matrix(0.7071 0.7071 -0.7071 0.7071 367.2417 1.2213)" width="4.25" height="4.25"/>
			<rect x="192.05" y="447.8" transform="matrix(0.7071 0.7071 -0.7071 0.7071 375.0161 -5.5214)" width="4.25" height="4.25"/>
			<rect x="186.03" y="447.8" transform="matrix(0.7071 0.7071 -0.7071 0.7071 373.2549 -1.2695)" width="4.25" height="4.25"/>
			<rect x="180.02" y="447.8" transform="matrix(0.7071 0.7071 -0.7071 0.7071 371.4937 2.9825)" width="4.25" height="4.25"/>
		</g>
		<g>
			<polygon points="164.25,435.75 164.25,451.43 148.57,435.75 			"/>
			<rect x="151.95" y="443.79" transform="matrix(4.491880e-11 -1 1 4.491880e-11 -291.8401 600)" width="4.25" height="4.25"/>
			<rect x="146.37" y="438.21" transform="matrix(4.491880e-11 -1 1 4.491880e-11 -291.8401 588.838)" width="4.25" height="4.25"/>
			<rect x="157.53" y="449.38" width="4.25" height="4.25"/>
		</g>
	</g>
	<g>
		<g>
			<rect x="367.36" y="422.31" transform="matrix(-0.7071 0.7071 -0.7071 -0.7071 932.5823 464.007)" width="5.67" height="5.67"/>
			<rect x="375.38" y="422.31" transform="matrix(-0.7071 0.7071 -0.7071 -0.7071 946.2692 458.3377)" width="5.67" height="5.67"/>
			<rect x="367.36" y="430.33" transform="matrix(-0.7071 0.7071 -0.7071 -0.7071 938.2516 477.6939)" width="5.67" height="5.67"/>
			<g>
				
					<rect x="367.36" y="398.26" transform="matrix(-0.7071 0.7071 -0.7071 -0.7071 915.5744 422.9464)" width="5.67" height="5.67"/>
				
					<rect x="367.36" y="406.28" transform="matrix(-0.7071 0.7071 -0.7071 -0.7071 921.2437 436.6333)" width="5.67" height="5.67"/>
				<rect x="375.38" y="406.28" transform="matrix(-0.7071 0.7071 -0.7071 -0.7071 934.9306 430.964)" width="5.67" height="5.67"/>
				<rect x="367.36" y="414.3" transform="matrix(-0.7071 0.7071 -0.7071 -0.7071 926.913 450.3202)" width="5.67" height="5.67"/>
				<rect x="375.38" y="414.3" transform="matrix(-0.7071 0.7071 -0.7071 -0.7071 940.5999 444.6508)" width="5.67" height="5.67"/>
				<rect x="383.39" y="414.3" transform="matrix(-0.7071 0.7071 -0.7071 -0.7071 954.2868 438.9816)" width="5.67" height="5.67"/>
				<rect x="375.38" y="398.26" transform="matrix(0.7071 -0.7071 0.7071 0.7071 -172.8418 384.9126)" width="5.67" height="5.67"/>
				<rect x="383.39" y="398.26" transform="matrix(0.7071 -0.7071 0.7071 0.7071 -170.4935 390.5819)" width="5.67" height="5.67"/>
				<rect x="383.39" y="406.28" transform="matrix(0.7071 -0.7071 0.7071 0.7071 -176.1628 392.9302)" width="5.67" height="5.67"/>
			</g>
			<rect x="391.41" y="398.26" transform="matrix(0.7071 -0.7071 0.7071 0.7071 -168.1452 396.2512)" width="5.67" height="5.67"/>
			<rect x="391.41" y="406.28" transform="matrix(0.7071 -0.7071 0.7071 0.7071 -173.8145 398.5995)" width="5.67" height="5.67"/>
			<rect x="399.43" y="398.26" transform="matrix(0.7071 -0.7071 0.7071 0.7071 -165.7969 401.9205)" width="5.67" height="5.67"/>
		</g>
		<g>
			<rect x="388.83" y="419.74" transform="matrix(-0.7071 0.7071 -0.7071 -0.7071 965.7112 443.7137)" width="4.25" height="4.25"/>
			<rect x="394.85" y="419.74" transform="matrix(-0.7071 0.7071 -0.7071 -0.7071 975.9763 439.4617)" width="4.25" height="4.25"/>
			<rect x="400.86" y="419.74" transform="matrix(-0.7071 0.7071 -0.7071 -0.7071 986.2415 435.2098)" width="4.25" height="4.25"/>
			<rect x="388.83" y="425.75" transform="matrix(-0.7071 0.7071 -0.7071 -0.7071 969.9631 453.9789)" width="4.25" height="4.25"/>
			<rect x="394.85" y="425.75" transform="matrix(-0.7071 0.7071 -0.7071 -0.7071 980.2283 449.7269)" width="4.25" height="4.25"/>
			<rect x="400.86" y="425.75" transform="matrix(-0.7071 0.7071 -0.7071 -0.7071 990.4935 445.4749)" width="4.25" height="4.25"/>
			<rect x="388.83" y="431.76" transform="matrix(-0.7071 0.7071 -0.7071 -0.7071 974.2151 464.244)" width="4.25" height="4.25"/>
			<rect x="394.85" y="431.76" transform="matrix(-0.7071 0.7071 -0.7071 -0.7071 984.4803 459.9921)" width="4.25" height="4.25"/>
			<rect x="400.86" y="431.76" transform="matrix(-0.7071 0.7071 -0.7071 -0.7071 994.7454 455.7401)" width="4.25" height="4.25"/>
		</g>
		<g>
			<rect x="372.8" y="435.77" transform="matrix(-0.7071 0.7071 -0.7071 -0.7071 949.676 482.4261)" width="4.25" height="4.25"/>
			<rect x="378.81" y="435.77" transform="matrix(-0.7071 0.7071 -0.7071 -0.7071 959.9412 478.1741)" width="4.25" height="4.25"/>
			<rect x="384.82" y="435.77" transform="matrix(-0.7071 0.7071 -0.7071 -0.7071 970.2063 473.9221)" width="4.25" height="4.25"/>
			<rect x="372.8" y="441.78" transform="matrix(-0.7071 0.7071 -0.7071 -0.7071 953.928 492.6912)" width="4.25" height="4.25"/>
			<rect x="378.81" y="441.78" transform="matrix(-0.7071 0.7071 -0.7071 -0.7071 964.1931 488.4392)" width="4.25" height="4.25"/>
			<rect x="384.82" y="441.78" transform="matrix(-0.7071 0.7071 -0.7071 -0.7071 974.4583 484.1873)" width="4.25" height="4.25"/>
			<rect x="372.8" y="447.8" transform="matrix(-0.7071 0.7071 -0.7071 -0.7071 958.1799 502.9564)" width="4.25" height="4.25"/>
			<rect x="378.81" y="447.8" transform="matrix(-0.7071 0.7071 -0.7071 -0.7071 968.4451 498.7044)" width="4.25" height="4.25"/>
			<rect x="384.82" y="447.8" transform="matrix(-0.7071 0.7071 -0.7071 -0.7071 978.7103 494.4524)" width="4.25" height="4.25"/>
		</g>
		<g>
			<rect x="404.87" y="403.7" transform="matrix(0.7071 -0.7071 0.7071 0.7071 -167.7571 406.6526)" width="4.25" height="4.25"/>
			<rect x="404.87" y="409.71" transform="matrix(0.7071 -0.7071 0.7071 0.7071 -172.009 408.4139)" width="4.25" height="4.25"/>
			<rect x="404.87" y="415.73" transform="matrix(0.7071 -0.7071 0.7071 0.7071 -176.261 410.1751)" width="4.25" height="4.25"/>
			<rect x="410.88" y="403.7" transform="matrix(0.7071 -0.7071 0.7071 0.7071 -165.9958 410.9046)" width="4.25" height="4.25"/>
			<rect x="410.88" y="409.71" transform="matrix(0.7071 -0.7071 0.7071 0.7071 -170.2478 412.6658)" width="4.25" height="4.25"/>
			<rect x="410.88" y="415.73" transform="matrix(0.7071 -0.7071 0.7071 0.7071 -174.4998 414.4271)" width="4.25" height="4.25"/>
			<rect x="416.9" y="403.7" transform="matrix(0.7071 -0.7071 0.7071 0.7071 -164.2346 415.1566)" width="4.25" height="4.25"/>
			<rect x="416.9" y="409.71" transform="matrix(0.7071 -0.7071 0.7071 0.7071 -168.4866 416.9178)" width="4.25" height="4.25"/>
			<rect x="416.9" y="415.73" transform="matrix(0.7071 -0.7071 0.7071 0.7071 -172.7386 418.679)" width="4.25" height="4.25"/>
		</g>
		<g>
			<polygon points="404.85,435.75 420.53,435.75 404.85,451.43 			"/>
			
				<rect x="412.89" y="443.79" transform="matrix(-1 -9.154912e-11 9.154912e-11 -1 830.0347 891.8401)" width="4.25" height="4.25"/>
			
				<rect x="407.31" y="449.38" transform="matrix(-1 -8.898228e-11 8.898228e-11 -1 818.8727 903.0021)" width="4.25" height="4.25"/>
			<rect x="418.47" y="438.21" transform="matrix(1.334737e-10 -1 1 1.334737e-10 -19.7407 860.9374)" width="4.25" height="4.25"/>
		</g>
	</g>
	<g>
		<g>
			<rect x="391.41" y="226.97" transform="matrix(0.7071 0.7071 -0.7071 0.7071 277.9703 -211.4641)" width="5.67" height="5.67"/>
			<rect x="391.41" y="218.96" transform="matrix(0.7071 0.7071 -0.7071 0.7071 272.3011 -213.8124)" width="5.67" height="5.67"/>
			<rect x="399.43" y="226.97" transform="matrix(0.7071 0.7071 -0.7071 0.7071 280.3186 -217.1334)" width="5.67" height="5.67"/>
			<g>
				<rect x="367.36" y="226.97" transform="matrix(0.7071 0.7071 -0.7071 0.7071 270.9254 -194.4562)" width="5.67" height="5.67"/>
				<rect x="375.38" y="226.97" transform="matrix(0.7071 0.7071 -0.7071 0.7071 273.2737 -200.1255)" width="5.67" height="5.67"/>
				<rect x="375.38" y="218.96" transform="matrix(0.7071 0.7071 -0.7071 0.7071 267.6045 -202.4738)" width="5.67" height="5.67"/>
				<rect x="383.39" y="226.97" transform="matrix(0.7071 0.7071 -0.7071 0.7071 275.622 -205.7948)" width="5.67" height="5.67"/>
				<rect x="383.39" y="218.96" transform="matrix(0.7071 0.7071 -0.7071 0.7071 269.9528 -208.1431)" width="5.67" height="5.67"/>
				<rect x="383.39" y="210.94" transform="matrix(0.7071 0.7071 -0.7071 0.7071 264.2835 -210.4914)" width="5.67" height="5.67"/>
				<rect x="367.36" y="218.96" transform="matrix(-0.7071 -0.7071 0.7071 -0.7071 475.1281 640.385)" width="5.67" height="5.67"/>
				
					<rect x="367.36" y="210.94" transform="matrix(-0.7071 -0.7071 0.7071 -0.7071 480.7974 626.6982)" width="5.67" height="5.67"/>
				
					<rect x="375.38" y="210.94" transform="matrix(-0.7071 -0.7071 0.7071 -0.7071 494.4843 632.3674)" width="5.67" height="5.67"/>
			</g>
			<rect x="367.36" y="202.92" transform="matrix(-0.7071 -0.7071 0.7071 -0.7071 486.4667 613.0113)" width="5.67" height="5.67"/>
			<rect x="375.38" y="202.92" transform="matrix(-0.7071 -0.7071 0.7071 -0.7071 500.1536 618.6805)" width="5.67" height="5.67"/>
			<rect x="367.36" y="194.9" transform="matrix(-0.7071 -0.7071 0.7071 -0.7071 492.136 599.3244)" width="5.67" height="5.67"/>
		</g>
		<g>
			<rect x="388.83" y="206.91" transform="matrix(0.7071 0.7071 -0.7071 0.7071 262.3234 -215.2235)" width="4.25" height="4.25"/>
			<rect x="388.83" y="200.9" transform="matrix(0.7071 0.7071 -0.7071 0.7071 258.0714 -216.9848)" width="4.25" height="4.25"/>
			<rect x="388.83" y="194.89" transform="matrix(0.7071 0.7071 -0.7071 0.7071 253.8194 -218.746)" width="4.25" height="4.25"/>
			<rect x="394.85" y="206.91" transform="matrix(0.7071 0.7071 -0.7071 0.7071 264.0846 -219.4755)" width="4.25" height="4.25"/>
			<rect x="394.85" y="200.9" transform="matrix(0.7071 0.7071 -0.7071 0.7071 259.8326 -221.2367)" width="4.25" height="4.25"/>
			<rect x="394.85" y="194.89" transform="matrix(0.7071 0.7071 -0.7071 0.7071 255.5806 -222.998)" width="4.25" height="4.25"/>
			<rect x="400.86" y="206.91" transform="matrix(0.7071 0.7071 -0.7071 0.7071 265.8458 -223.7275)" width="4.25" height="4.25"/>
			<rect x="400.86" y="200.9" transform="matrix(0.7071 0.7071 -0.7071 0.7071 261.5938 -225.4887)" width="4.25" height="4.25"/>
			<rect x="400.86" y="194.89" transform="matrix(0.7071 0.7071 -0.7071 0.7071 257.3419 -227.2499)" width="4.25" height="4.25"/>
		</g>
		<g>
			<rect x="404.87" y="222.95" transform="matrix(0.7071 0.7071 -0.7071 0.7071 278.3585 -221.8655)" width="4.25" height="4.25"/>
			<rect x="404.87" y="216.94" transform="matrix(0.7071 0.7071 -0.7071 0.7071 274.1066 -223.6268)" width="4.25" height="4.25"/>
			<rect x="404.87" y="210.92" transform="matrix(0.7071 0.7071 -0.7071 0.7071 269.8546 -225.388)" width="4.25" height="4.25"/>
			<rect x="410.88" y="222.95" transform="matrix(0.7071 0.7071 -0.7071 0.7071 280.1198 -226.1175)" width="4.25" height="4.25"/>
			<rect x="410.88" y="216.94" transform="matrix(0.7071 0.7071 -0.7071 0.7071 275.8678 -227.8787)" width="4.25" height="4.25"/>
			<rect x="410.88" y="210.92" transform="matrix(0.7071 0.7071 -0.7071 0.7071 271.6158 -229.6399)" width="4.25" height="4.25"/>
			<rect x="416.9" y="222.95" transform="matrix(0.7071 0.7071 -0.7071 0.7071 281.881 -230.3695)" width="4.25" height="4.25"/>
			<rect x="416.9" y="216.94" transform="matrix(0.7071 0.7071 -0.7071 0.7071 277.629 -232.1307)" width="4.25" height="4.25"/>
			<rect x="416.9" y="210.92" transform="matrix(0.7071 0.7071 -0.7071 0.7071 273.377 -233.8919)" width="4.25" height="4.25"/>
		</g>
		<g>
			<rect x="372.8" y="190.88" transform="matrix(-0.7071 -0.7071 0.7071 -0.7071 503.5604 594.5923)" width="4.25" height="4.25"/>
			<rect x="378.81" y="190.88" transform="matrix(-0.7071 -0.7071 0.7071 -0.7071 513.8256 598.8442)" width="4.25" height="4.25"/>
			<rect x="384.82" y="190.88" transform="matrix(-0.7071 -0.7071 0.7071 -0.7071 524.0907 603.0962)" width="4.25" height="4.25"/>
			<rect x="372.8" y="184.87" transform="matrix(-0.7071 -0.7071 0.7071 -0.7071 507.8124 584.3271)" width="4.25" height="4.25"/>
			<rect x="378.81" y="184.87" transform="matrix(-0.7071 -0.7071 0.7071 -0.7071 518.0775 588.579)" width="4.25" height="4.25"/>
			<rect x="384.82" y="184.87" transform="matrix(-0.7071 -0.7071 0.7071 -0.7071 528.3427 592.8311)" width="4.25" height="4.25"/>
			<rect x="372.8" y="178.85" transform="matrix(-0.7071 -0.7071 0.7071 -0.7071 512.0643 574.062)" width="4.25" height="4.25"/>
			<rect x="378.81" y="178.85" transform="matrix(-0.7071 -0.7071 0.7071 -0.7071 522.3295 578.3139)" width="4.25" height="4.25"/>
			<rect x="384.82" y="178.85" transform="matrix(-0.7071 -0.7071 0.7071 -0.7071 532.5947 582.5659)" width="4.25" height="4.25"/>
		</g>
		<g>
			<polygon points="404.85,195.15 404.85,179.47 420.53,195.15 			"/>
			<rect x="412.89" y="182.86" transform="matrix(-1.343292e-10 1 -1 -1.343292e-10 600 -230.0347)" width="4.25" height="4.25"/>
			
				<rect x="418.47" y="188.44" transform="matrix(-1.343292e-10 1 -1 -1.343292e-10 611.162 -230.0347)" width="4.25" height="4.25"/>
			
				<rect x="407.31" y="177.28" transform="matrix(-1 -1.781785e-10 1.781785e-10 -1 818.8727 358.8033)" width="4.25" height="4.25"/>
		</g>
	</g>
	<g>
		<g>
			<g>
				
					<rect x="96.56" y="295.61" transform="matrix(4.572171e-11 -1 1 4.572171e-11 -199.0524 397.8346)" width="5.67" height="5.67"/>
				<rect x="90.89" y="301.28" transform="matrix(4.411677e-11 -1 1 4.411677e-11 -210.391 397.8346)" width="5.67" height="5.67"/>
				<rect x="90.89" y="289.94" transform="matrix(4.588158e-11 -1 1 4.588158e-11 -199.0524 386.496)" width="5.67" height="5.67"/>
				<g>
					
						<rect x="113.56" y="312.62" transform="matrix(4.411677e-11 -1 1 4.411677e-11 -199.0524 431.8503)" width="5.67" height="5.67"/>
					
						<rect x="107.9" y="306.95" transform="matrix(4.427753e-11 -1 1 4.427753e-11 -199.0524 420.5117)" width="5.67" height="5.67"/>
					
						<rect x="102.23" y="312.62" transform="matrix(4.588158e-11 -1 1 4.588158e-11 -210.391 420.5117)" width="5.67" height="5.67"/>
					
						<rect x="102.23" y="301.28" transform="matrix(4.411677e-11 -1 1 4.411677e-11 -199.0524 409.1732)" width="5.67" height="5.67"/>
					
						<rect x="96.56" y="306.95" transform="matrix(4.588158e-11 -1 1 4.588158e-11 -210.391 409.1732)" width="5.67" height="5.67"/>
					
						<rect x="90.89" y="312.62" transform="matrix(4.411677e-11 -1 1 4.411677e-11 -221.7295 409.1732)" width="5.67" height="5.67"/>
					
						<rect x="107.9" y="318.29" transform="matrix(-8.823360e-11 1 -1 -8.823360e-11 431.8503 210.391)" width="5.67" height="5.67"/>
					
						<rect x="102.23" y="323.96" transform="matrix(-8.983765e-11 1 -1 -8.983765e-11 431.8503 221.7295)" width="5.67" height="5.67"/>
					
						<rect x="96.56" y="318.29" transform="matrix(-8.999841e-11 1 -1 -8.999841e-11 420.5117 221.7295)" width="5.67" height="5.67"/>
				</g>
				
					<rect x="96.56" y="329.62" transform="matrix(-9.015917e-11 1 -1 -9.015917e-11 431.8503 233.0681)" width="5.67" height="5.67"/>
				
					<rect x="90.89" y="323.96" transform="matrix(-8.999841e-11 1 -1 -8.999841e-11 420.5117 233.0681)" width="5.67" height="5.67"/>
				
					<rect x="90.89" y="335.29" transform="matrix(-8.983765e-11 1 -1 -8.983765e-11 431.8503 244.4067)" width="5.67" height="5.67"/>
			</g>
			<g>
				<rect x="84.9" y="313.33" transform="matrix(4.491880e-11 -1 1 4.491880e-11 -228.4218 402.4809)" width="4.25" height="4.25"/>
				
					<rect x="80.65" y="317.58" transform="matrix(4.491880e-11 -1 1 4.491880e-11 -236.9257 402.4809)" width="4.25" height="4.25"/>
				<rect x="76.4" y="321.83" transform="matrix(4.470564e-11 -1 1 4.470564e-11 -245.4297 402.4809)" width="4.25" height="4.25"/>
				<rect x="80.65" y="309.07" transform="matrix(4.470564e-11 -1 1 4.470564e-11 -228.4218 393.977)" width="4.25" height="4.25"/>
				<rect x="76.4" y="313.33" transform="matrix(4.470564e-11 -1 1 4.470564e-11 -236.9257 393.977)" width="4.25" height="4.25"/>
				<rect x="72.15" y="317.58" transform="matrix(4.449158e-11 -1 1 4.449158e-11 -245.4297 393.977)" width="4.25" height="4.25"/>
				<rect x="76.4" y="304.82" transform="matrix(4.470564e-11 -1 1 4.470564e-11 -228.4218 385.4731)" width="4.25" height="4.25"/>
				
					<rect x="72.15" y="309.07" transform="matrix(4.491880e-11 -1 1 4.491880e-11 -236.9257 385.4731)" width="4.25" height="4.25"/>
				<rect x="67.9" y="313.33" transform="matrix(4.470564e-11 -1 1 4.470564e-11 -245.4297 385.4731)" width="4.25" height="4.25"/>
			</g>
			<g>
				<rect x="84.9" y="290.65" transform="matrix(4.705753e-11 -1 1 4.705753e-11 -205.7446 379.8037)" width="4.25" height="4.25"/>
				<rect x="80.65" y="294.9" transform="matrix(4.470564e-11 -1 1 4.470564e-11 -214.2486 379.8037)" width="4.25" height="4.25"/>
				<rect x="76.4" y="299.15" transform="matrix(4.449158e-11 -1 1 4.449158e-11 -222.7525 379.8037)" width="4.25" height="4.25"/>
				<rect x="80.65" y="286.4" transform="matrix(4.449158e-11 -1 1 4.449158e-11 -205.7446 371.2998)" width="4.25" height="4.25"/>
				<rect x="76.4" y="290.65" transform="matrix(4.449158e-11 -1 1 4.449158e-11 -214.2486 371.2998)" width="4.25" height="4.25"/>
				<rect x="72.15" y="294.9" transform="matrix(4.449158e-11 -1 1 4.449158e-11 -222.7525 371.2998)" width="4.25" height="4.25"/>
				<rect x="76.4" y="282.14" transform="matrix(4.449158e-11 -1 1 4.449158e-11 -205.7446 362.7959)" width="4.25" height="4.25"/>
				<rect x="72.15" y="286.4" transform="matrix(4.470564e-11 -1 1 4.470564e-11 -214.2486 362.7959)" width="4.25" height="4.25"/>
				<rect x="67.9" y="290.65" transform="matrix(4.449158e-11 -1 1 4.449158e-11 -222.7525 362.7959)" width="4.25" height="4.25"/>
			</g>
			<g>
				<rect x="84.9" y="336" transform="matrix(-8.919639e-11 1 -1 -8.919639e-11 425.1581 251.099)" width="4.25" height="4.25"/>
				
					<rect x="80.65" y="331.75" transform="matrix(-8.941044e-11 1 -1 -8.941044e-11 416.6541 251.099)" width="4.25" height="4.25"/>
				<rect x="76.4" y="327.5" transform="matrix(-9.411601e-11 1 -1 -9.411601e-11 408.1502 251.099)" width="4.25" height="4.25"/>
				
					<rect x="80.65" y="340.25" transform="matrix(-8.941044e-11 1 -1 -8.941044e-11 425.1581 259.6029)" width="4.25" height="4.25"/>
				<rect x="76.4" y="336" transform="matrix(-8.941044e-11 1 -1 -8.941044e-11 416.6541 259.6029)" width="4.25" height="4.25"/>
				
					<rect x="72.15" y="331.75" transform="matrix(-8.941044e-11 1 -1 -8.941044e-11 408.1502 259.6029)" width="4.25" height="4.25"/>
				
					<rect x="76.4" y="344.51" transform="matrix(-8.941044e-11 1 -1 -8.941044e-11 425.1581 268.1068)" width="4.25" height="4.25"/>
				
					<rect x="72.15" y="340.25" transform="matrix(-9.176322e-11 1 -1 -9.176322e-11 416.6541 268.1068)" width="4.25" height="4.25"/>
				<rect x="67.9" y="336" transform="matrix(-8.941044e-11 1 -1 -8.941044e-11 408.1502 268.1068)" width="4.25" height="4.25"/>
			</g>
			<g>
				<polygon points="67.38,315.45 56.3,326.54 56.3,304.36 				"/>
				<rect x="50.88" y="313.33" transform="matrix(0.7071 -0.7071 0.7071 0.7071 -207.5325 129.8749)" width="4.25" height="4.25"/>
				<rect x="50.88" y="305.43" transform="matrix(0.7071 -0.7071 0.7071 0.7071 -201.9515 127.5632)" width="4.25" height="4.25"/>
				<rect x="50.88" y="321.22" transform="matrix(0.7071 0.7071 -0.7071 0.7071 244.1641 57.224)" width="4.25" height="4.25"/>
			</g>
		</g>
		<g>
			<g>
				
					<rect x="138.25" y="320.77" transform="matrix(-1 -4.395652e-11 4.395652e-11 -1 282.165 647.2054)" width="5.67" height="5.67"/>
				
					<rect x="143.92" y="326.44" transform="matrix(-1 -4.620227e-11 4.620227e-11 -1 293.5035 658.544)" width="5.67" height="5.67"/>
				
					<rect x="132.58" y="326.44" transform="matrix(-1 -4.588164e-11 4.588164e-11 -1 270.8264 658.544)" width="5.67" height="5.67"/>
				
					<rect x="138.25" y="332.11" transform="matrix(-1 -4.427715e-11 4.427715e-11 -1 282.165 669.8826)" width="5.67" height="5.67"/>
			</g>
			<g>
				<rect x="138.25" y="304.47" transform="matrix(-1 -9.015867e-11 9.015867e-11 -1 282.165 614.6)" width="5.67" height="5.67"/>
				
					<rect x="143.92" y="298.8" transform="matrix(-1 -8.983804e-11 8.983804e-11 -1 293.5035 603.2615)" width="5.67" height="5.67"/>
				
					<rect x="132.58" y="298.8" transform="matrix(-1 -8.983804e-11 8.983804e-11 -1 270.8264 603.2615)" width="5.67" height="5.67"/>
				
					<rect x="138.25" y="293.13" transform="matrix(-1 -9.031943e-11 9.031943e-11 -1 282.165 591.9229)" width="5.67" height="5.67"/>
			</g>
			<g>
				
					<rect x="126.69" y="318.29" transform="matrix(-1 -8.983804e-11 8.983804e-11 -1 259.0591 642.2413)" width="5.67" height="5.67"/>
				
					<rect x="132.36" y="312.62" transform="matrix(-1 -8.983804e-11 8.983804e-11 -1 270.3977 630.9027)" width="5.67" height="5.67"/>
				
					<rect x="121.03" y="312.62" transform="matrix(-1 -9.015867e-11 9.015867e-11 -1 247.7206 630.9027)" width="5.67" height="5.67"/>
				
					<rect x="126.69" y="306.95" transform="matrix(-1 -8.983804e-11 8.983804e-11 -1 259.0591 619.5641)" width="5.67" height="5.67"/>
			</g>
			<polygon points="149.72,304.57 168.32,315.45 149.72,326.33 			"/>
		</g>
	</g>
	<g>
		<g>
			<g>
				
					<rect x="264.71" y="497.77" transform="matrix(-1 -9.015867e-11 9.015867e-11 -1 535.0815 1001.2178)" width="5.67" height="5.67"/>
				
					<rect x="270.38" y="503.44" transform="matrix(-1 -8.983804e-11 8.983804e-11 -1 546.4201 1012.5563)" width="5.67" height="5.67"/>
				
					<rect x="259.04" y="503.44" transform="matrix(-1 -9.015867e-11 9.015867e-11 -1 523.7429 1012.5563)" width="5.67" height="5.67"/>
				<g>
					
						<rect x="281.71" y="480.77" transform="matrix(-1 -9.015867e-11 9.015867e-11 -1 569.0973 967.202)" width="5.67" height="5.67"/>
					
						<rect x="276.04" y="486.44" transform="matrix(-1 -8.983804e-11 8.983804e-11 -1 557.7587 978.5406)" width="5.67" height="5.67"/>
					
						<rect x="281.71" y="492.1" transform="matrix(-1 -9.047975e-11 9.047975e-11 -1 569.0973 989.8792)" width="5.67" height="5.67"/>
					
						<rect x="270.38" y="492.1" transform="matrix(-1 -8.983804e-11 8.983804e-11 -1 546.4201 989.8792)" width="5.67" height="5.67"/>
					
						<rect x="276.04" y="497.77" transform="matrix(-1 -8.983804e-11 8.983804e-11 -1 557.7587 1001.2178)" width="5.67" height="5.67"/>
					
						<rect x="281.71" y="503.44" transform="matrix(-1 -9.015867e-11 9.015867e-11 -1 569.0973 1012.5563)" width="5.67" height="5.67"/>
					<rect x="287.38" y="486.44" width="5.67" height="5.67"/>
					<rect x="293.05" y="492.1" width="5.67" height="5.67"/>
					<rect x="287.38" y="497.77" width="5.67" height="5.67"/>
				</g>
				<rect x="298.72" y="497.77" width="5.67" height="5.67"/>
				<rect x="293.05" y="503.44" width="5.67" height="5.67"/>
				<rect x="304.39" y="503.44" width="5.67" height="5.67"/>
			</g>
			<g>
				
					<rect x="282.42" y="510.84" transform="matrix(-1 -8.941038e-11 8.941038e-11 -1 569.0973 1025.9409)" width="4.25" height="4.25"/>
				
					<rect x="286.67" y="515.1" transform="matrix(-1 -9.154912e-11 9.154912e-11 -1 577.6012 1034.4448)" width="4.25" height="4.25"/>
				
					<rect x="290.93" y="519.35" transform="matrix(-1 -9.154912e-11 9.154912e-11 -1 586.1052 1042.9487)" width="4.25" height="4.25"/>
				
					<rect x="278.17" y="515.1" transform="matrix(-1 -9.154912e-11 9.154912e-11 -1 560.5933 1034.4448)" width="4.25" height="4.25"/>
				
					<rect x="282.42" y="519.35" transform="matrix(-1 -9.154912e-11 9.154912e-11 -1 569.0973 1042.9487)" width="4.25" height="4.25"/>
				
					<rect x="286.67" y="523.6" transform="matrix(-1 -8.983804e-11 8.983804e-11 -1 577.6012 1051.4526)" width="4.25" height="4.25"/>
				
					<rect x="273.92" y="519.35" transform="matrix(-1 -8.941038e-11 8.941038e-11 -1 552.0894 1042.9487)" width="4.25" height="4.25"/>
				
					<rect x="278.17" y="523.6" transform="matrix(-1 -8.941038e-11 8.941038e-11 -1 560.5933 1051.4526)" width="4.25" height="4.25"/>
				
					<rect x="282.42" y="527.85" transform="matrix(-1 -8.898228e-11 8.898228e-11 -1 569.0973 1059.9567)" width="4.25" height="4.25"/>
			</g>
			<g>
				
					<rect x="259.75" y="510.84" transform="matrix(-1 -8.983804e-11 8.983804e-11 -1 523.7429 1025.9409)" width="4.25" height="4.25"/>
				<rect x="264" y="515.1" transform="matrix(-1 -8.898228e-11 8.898228e-11 -1 532.2469 1034.4448)" width="4.25" height="4.25"/>
				
					<rect x="268.25" y="519.35" transform="matrix(-1 -8.941038e-11 8.941038e-11 -1 540.7508 1042.9487)" width="4.25" height="4.25"/>
				
					<rect x="255.49" y="515.1" transform="matrix(-1 -8.898228e-11 8.898228e-11 -1 515.239 1034.4448)" width="4.25" height="4.25"/>
				
					<rect x="259.75" y="519.35" transform="matrix(-1 -8.941038e-11 8.941038e-11 -1 523.7429 1042.9487)" width="4.25" height="4.25"/>
				<rect x="264" y="523.6" transform="matrix(-1 -8.941038e-11 8.941038e-11 -1 532.2469 1051.4526)" width="4.25" height="4.25"/>
				
					<rect x="251.24" y="519.35" transform="matrix(-1 -8.941038e-11 8.941038e-11 -1 506.7351 1042.9487)" width="4.25" height="4.25"/>
				
					<rect x="255.49" y="523.6" transform="matrix(-1 -8.898228e-11 8.898228e-11 -1 515.239 1051.4526)" width="4.25" height="4.25"/>
				
					<rect x="259.75" y="527.85" transform="matrix(-1 -8.941038e-11 8.941038e-11 -1 523.7429 1059.9567)" width="4.25" height="4.25"/>
			</g>
			<g>
				<rect x="305.1" y="510.84" width="4.25" height="4.25"/>
				<rect x="300.85" y="515.1" width="4.25" height="4.25"/>
				<rect x="296.6" y="519.35" width="4.25" height="4.25"/>
				<rect x="309.35" y="515.1" width="4.25" height="4.25"/>
				<rect x="305.1" y="519.35" width="4.25" height="4.25"/>
				<rect x="300.85" y="523.6" width="4.25" height="4.25"/>
				<rect x="313.6" y="519.35" width="4.25" height="4.25"/>
				<rect x="309.35" y="523.6" width="4.25" height="4.25"/>
				<rect x="305.1" y="527.85" width="4.25" height="4.25"/>
			</g>
			<g>
				<polygon points="284.55,532.62 295.64,543.7 273.46,543.7 				"/>
				
					<rect x="282.42" y="544.87" transform="matrix(-0.7071 -0.7071 0.7071 -0.7071 98.9722 1134.9824)" width="4.25" height="4.25"/>
				
					<rect x="274.53" y="544.87" transform="matrix(-0.7071 -0.7071 0.7071 -0.7071 85.4985 1129.4015)" width="4.25" height="4.25"/>
				<rect x="290.32" y="544.87" transform="matrix(0.7071 -0.7071 0.7071 0.7071 -301.1287 366.9979)" width="4.25" height="4.25"/>
			</g>
		</g>
		<g>
			<g>
				
					<rect x="289.87" y="456.08" transform="matrix(-8.999841e-11 1 -1 -8.999841e-11 751.6175 166.2175)" width="5.67" height="5.67"/>
				
					<rect x="295.53" y="450.41" transform="matrix(-8.999841e-11 1 -1 -8.999841e-11 751.6175 154.879)" width="5.67" height="5.67"/>
				
					<rect x="295.53" y="461.75" transform="matrix(-8.999841e-11 1 -1 -8.999841e-11 762.9561 166.2175)" width="5.67" height="5.67"/>
				
					<rect x="301.2" y="456.08" transform="matrix(-8.823360e-11 1 -1 -8.823360e-11 762.9561 154.879)" width="5.67" height="5.67"/>
			</g>
			<g>
				
					<rect x="273.56" y="456.08" transform="matrix(-1.341151e-10 1 -1 -1.341151e-10 735.3148 182.5202)" width="5.67" height="5.67"/>
				
					<rect x="267.89" y="450.41" transform="matrix(-1.341151e-10 1 -1 -1.341151e-10 723.9763 182.5202)" width="5.67" height="5.67"/>
				
					<rect x="267.89" y="461.75" transform="matrix(-1.339552e-10 1 -1 -1.339552e-10 735.3148 193.8588)" width="5.67" height="5.67"/>
				
					<rect x="262.22" y="456.08" transform="matrix(-1.358799e-10 1 -1 -1.358799e-10 723.9763 193.8588)" width="5.67" height="5.67"/>
			</g>
			<g>
				
					<rect x="287.38" y="467.64" transform="matrix(-1.341151e-10 1 -1 -1.341151e-10 760.6884 180.2525)" width="5.67" height="5.67"/>
				
					<rect x="281.71" y="461.97" transform="matrix(-1.358799e-10 1 -1 -1.358799e-10 749.3498 180.2525)" width="5.67" height="5.67"/>
				
					<rect x="281.71" y="473.31" transform="matrix(-1.357192e-10 1 -1 -1.357192e-10 760.6884 191.5911)" width="5.67" height="5.67"/>
				
					<rect x="276.04" y="467.64" transform="matrix(-1.357192e-10 1 -1 -1.357192e-10 749.3498 191.5911)" width="5.67" height="5.67"/>
			</g>
			<polygon points="273.67,450.28 284.55,431.68 295.43,450.28 			"/>
		</g>
	</g>
	<g>
		<g>
			<g>
				
					<rect x="466.87" y="329.62" transform="matrix(-1.341151e-10 1 -1 -1.341151e-10 802.1654 -137.2469)" width="5.67" height="5.67"/>
				
					<rect x="472.54" y="323.96" transform="matrix(-1.337945e-10 1 -1 -1.337945e-10 802.1654 -148.5855)" width="5.67" height="5.67"/>
				
					<rect x="472.54" y="335.29" transform="matrix(-1.360407e-10 1 -1 -1.360407e-10 813.504 -137.2469)" width="5.67" height="5.67"/>
				<g>
					
						<rect x="449.86" y="312.62" transform="matrix(-1.357192e-10 1 -1 -1.357192e-10 768.1497 -137.2469)" width="5.67" height="5.67"/>
					
						<rect x="455.53" y="318.29" transform="matrix(-1.337945e-10 1 -1 -1.337945e-10 779.4882 -137.2469)" width="5.67" height="5.67"/>
					
						<rect x="461.2" y="312.62" transform="matrix(-1.341151e-10 1 -1 -1.341151e-10 779.4882 -148.5855)" width="5.67" height="5.67"/>
					
						<rect x="461.2" y="323.96" transform="matrix(-1.341151e-10 1 -1 -1.341151e-10 790.8268 -137.2469)" width="5.67" height="5.67"/>
					
						<rect x="466.87" y="318.29" transform="matrix(-1.357192e-10 1 -1 -1.357192e-10 790.8268 -148.5855)" width="5.67" height="5.67"/>
					
						<rect x="472.54" y="312.62" transform="matrix(-1.341151e-10 1 -1 -1.341151e-10 790.8268 -159.9241)" width="5.67" height="5.67"/>
					
						<rect x="455.53" y="306.95" transform="matrix(1.799965e-10 -1 1 1.799965e-10 148.5855 768.1497)" width="5.67" height="5.67"/>
					
						<rect x="461.2" y="301.28" transform="matrix(1.799965e-10 -1 1 1.799965e-10 159.9241 768.1497)" width="5.67" height="5.67"/>
					
						<rect x="466.87" y="306.95" transform="matrix(1.799965e-10 -1 1 1.799965e-10 159.9241 779.4882)" width="5.67" height="5.67"/>
				</g>
				
					<rect x="466.87" y="295.61" transform="matrix(1.799965e-10 -1 1 1.799965e-10 171.2627 768.1497)" width="5.67" height="5.67"/>
				
					<rect x="472.54" y="301.28" transform="matrix(1.799965e-10 -1 1 1.799965e-10 171.2627 779.4882)" width="5.67" height="5.67"/>
				
					<rect x="472.54" y="289.94" transform="matrix(1.799965e-10 -1 1 1.799965e-10 182.6013 768.1497)" width="5.67" height="5.67"/>
			</g>
			<g>
				
					<rect x="479.94" y="313.33" transform="matrix(-1.343292e-10 1 -1 -1.343292e-10 797.5191 -166.6164)" width="4.25" height="4.25"/>
				
					<rect x="484.19" y="309.07" transform="matrix(-1.339011e-10 1 -1 -1.339011e-10 797.5191 -175.1203)" width="4.25" height="4.25"/>
				
					<rect x="488.45" y="304.82" transform="matrix(-1.343292e-10 1 -1 -1.343292e-10 797.5191 -183.6242)" width="4.25" height="4.25"/>
				
					<rect x="484.19" y="317.58" transform="matrix(-1.368960e-10 1 -1 -1.368960e-10 806.023 -166.6164)" width="4.25" height="4.25"/>
				
					<rect x="488.45" y="313.33" transform="matrix(-1.339011e-10 1 -1 -1.339011e-10 806.023 -175.1203)" width="4.25" height="4.25"/>
				
					<rect x="492.7" y="309.07" transform="matrix(-1.343292e-10 1 -1 -1.343292e-10 806.023 -183.6242)" width="4.25" height="4.25"/>
				
					<rect x="488.45" y="321.83" transform="matrix(-1.339011e-10 1 -1 -1.339011e-10 814.527 -166.6164)" width="4.25" height="4.25"/>
				
					<rect x="492.7" y="317.58" transform="matrix(-1.343292e-10 1 -1 -1.343292e-10 814.527 -175.1203)" width="4.25" height="4.25"/>
				
					<rect x="496.95" y="313.33" transform="matrix(-1.339011e-10 1 -1 -1.339011e-10 814.527 -183.6242)" width="4.25" height="4.25"/>
			</g>
			<g>
				
					<rect x="479.94" y="336" transform="matrix(-1.339011e-10 1 -1 -1.339011e-10 820.1962 -143.9392)" width="4.25" height="4.25"/>
				
					<rect x="484.19" y="331.75" transform="matrix(-1.343292e-10 1 -1 -1.343292e-10 820.1962 -152.4431)" width="4.25" height="4.25"/>
				
					<rect x="488.45" y="327.5" transform="matrix(-1.339011e-10 1 -1 -1.339011e-10 820.1962 -160.9471)" width="4.25" height="4.25"/>
				
					<rect x="484.19" y="340.25" transform="matrix(-1.343292e-10 1 -1 -1.343292e-10 828.7002 -143.9392)" width="4.25" height="4.25"/>
				
					<rect x="488.45" y="336" transform="matrix(-1.339011e-10 1 -1 -1.339011e-10 828.7002 -152.4431)" width="4.25" height="4.25"/>
				
					<rect x="492.7" y="331.75" transform="matrix(-1.343292e-10 1 -1 -1.343292e-10 828.7002 -160.9471)" width="4.25" height="4.25"/>
				
					<rect x="488.45" y="344.51" transform="matrix(-1.343292e-10 1 -1 -1.343292e-10 837.2041 -143.9392)" width="4.25" height="4.25"/>
				
					<rect x="492.7" y="340.25" transform="matrix(-1.343292e-10 1 -1 -1.343292e-10 837.2041 -152.4431)" width="4.25" height="4.25"/>
				
					<rect x="496.95" y="336" transform="matrix(-1.343292e-10 1 -1 -1.343292e-10 837.2041 -160.9471)" width="4.25" height="4.25"/>
			</g>
			<g>
				
					<rect x="479.94" y="290.65" transform="matrix(1.813874e-10 -1 1 1.813874e-10 189.2935 774.8419)" width="4.25" height="4.25"/>
				<rect x="484.19" y="294.9" transform="matrix(1.788206e-10 -1 1 1.788206e-10 189.2935 783.3458)" width="4.25" height="4.25"/>
				
					<rect x="488.45" y="299.15" transform="matrix(1.788206e-10 -1 1 1.788206e-10 189.2935 791.8498)" width="4.25" height="4.25"/>
				<rect x="484.19" y="286.4" transform="matrix(1.813874e-10 -1 1 1.813874e-10 197.7975 774.8419)" width="4.25" height="4.25"/>
				
					<rect x="488.45" y="290.65" transform="matrix(1.788206e-10 -1 1 1.788206e-10 197.7975 783.3458)" width="4.25" height="4.25"/>
				<rect x="492.7" y="294.9" transform="matrix(1.788206e-10 -1 1 1.788206e-10 197.7975 791.8498)" width="4.25" height="4.25"/>
				
					<rect x="488.45" y="282.14" transform="matrix(1.805312e-10 -1 1 1.805312e-10 206.3014 774.8419)" width="4.25" height="4.25"/>
				<rect x="492.7" y="286.4" transform="matrix(1.783925e-10 -1 1 1.783925e-10 206.3014 783.3458)" width="4.25" height="4.25"/>
				
					<rect x="496.95" y="290.65" transform="matrix(1.788206e-10 -1 1 1.788206e-10 206.3014 791.8498)" width="4.25" height="4.25"/>
			</g>
			<g>
				<polygon points="501.71,315.45 512.8,304.36 512.8,326.54 				"/>
				
					<rect x="513.96" y="313.33" transform="matrix(-0.7071 0.7071 -0.7071 -0.7071 1104.0797 173.5779)" width="4.25" height="4.25"/>
				
					<rect x="513.96" y="321.22" transform="matrix(-0.7071 0.7071 -0.7071 -0.7071 1109.6606 187.0516)" width="4.25" height="4.25"/>
				
					<rect x="513.96" y="305.43" transform="matrix(-0.7071 -0.7071 0.7071 -0.7071 663.5451 889.9667)" width="4.25" height="4.25"/>
			</g>
		</g>
		<g>
			<g>
				<rect x="425.18" y="304.47" width="5.67" height="5.67"/>
				<rect x="419.51" y="298.8" width="5.67" height="5.67"/>
				<rect x="430.85" y="298.8" width="5.67" height="5.67"/>
				<rect x="425.18" y="293.13" width="5.67" height="5.67"/>
			</g>
			<g>
				<rect x="425.18" y="320.77" width="5.67" height="5.67"/>
				<rect x="419.51" y="326.44" width="5.67" height="5.67"/>
				<rect x="430.85" y="326.44" width="5.67" height="5.67"/>
				<rect x="425.18" y="332.11" width="5.67" height="5.67"/>
			</g>
			<g>
				<rect x="436.73" y="306.95" width="5.67" height="5.67"/>
				<rect x="431.06" y="312.62" width="5.67" height="5.67"/>
				<rect x="442.4" y="312.62" width="5.67" height="5.67"/>
				<rect x="436.73" y="318.29" width="5.67" height="5.67"/>
			</g>
			<polygon points="419.38,326.33 400.77,315.45 419.38,304.57 			"/>
		</g>
	</g>
	<g>
		<g>
			<g>
				
					<rect x="319.26" y="421.67" transform="matrix(-0.7071 0.7071 -0.7071 -0.7071 850.0157 496.9305)" width="5.67" height="5.67"/>
				
					<rect x="327.27" y="421.67" transform="matrix(-0.7071 0.7071 -0.7071 -0.7071 863.7026 491.2613)" width="5.67" height="5.67"/>
				<rect x="319.26" y="429.69" transform="matrix(-0.7071 0.7071 -0.7071 -0.7071 855.685 510.6174)" width="5.67" height="5.67"/>
				
					<rect x="327.27" y="429.69" transform="matrix(-0.7071 0.7071 -0.7071 -0.7071 869.3719 504.9481)" width="5.67" height="5.67"/>
			</g>
			<polygon points="314.6,401.64 320.07,422.49 299.22,417.02 			"/>
		</g>
		<g>
			<g>
				
					<rect x="304.95" y="435.98" transform="matrix(-0.7071 0.7071 -0.7071 -0.7071 835.7124 531.4617)" width="5.67" height="5.67"/>
				
					<rect x="312.97" y="435.98" transform="matrix(-0.7071 0.7071 -0.7071 -0.7071 849.3993 525.7924)" width="5.67" height="5.67"/>
				<rect x="304.95" y="444" transform="matrix(-0.7071 0.7071 -0.7071 -0.7071 841.3817 545.1486)" width="5.67" height="5.67"/>
				<rect x="312.97" y="444" transform="matrix(-0.7071 0.7071 -0.7071 -0.7071 855.0686 539.4793)" width="5.67" height="5.67"/>
			</g>
			<polygon points="300.3,415.94 305.76,436.79 284.92,431.32 			"/>
		</g>
		<g>
			<g>
				<rect x="405.08" y="335.85" transform="matrix(0.7071 -0.7071 0.7071 0.7071 -120.0157 387.6357)" width="5.67" height="5.67"/>
				<rect x="405.08" y="343.87" transform="matrix(0.7071 -0.7071 0.7071 0.7071 -125.685 389.984)" width="5.67" height="5.67"/>
				<rect x="413.09" y="335.85" transform="matrix(0.7071 -0.7071 0.7071 0.7071 -117.6674 393.305)" width="5.67" height="5.67"/>
				<rect x="413.09" y="343.87" transform="matrix(0.7071 -0.7071 0.7071 0.7071 -123.3367 395.6533)" width="5.67" height="5.67"/>
			</g>
			<polygon points="385.04,331.2 405.89,336.67 400.42,315.82 			"/>
		</g>
		<g>
			<g>
				<rect x="333.56" y="407.37" transform="matrix(-0.7071 0.7071 -0.7071 -0.7071 864.319 462.3994)" width="5.67" height="5.67"/>
				
					<rect x="341.58" y="407.37" transform="matrix(-0.7071 0.7071 -0.7071 -0.7071 878.0059 456.7301)" width="5.67" height="5.67"/>
				
					<rect x="333.56" y="415.39" transform="matrix(-0.7071 0.7071 -0.7071 -0.7071 869.9883 476.0862)" width="5.67" height="5.67"/>
				<rect x="341.58" y="415.39" transform="matrix(-0.7071 0.7071 -0.7071 -0.7071 883.6752 470.417)" width="5.67" height="5.67"/>
			</g>
			<polygon points="328.9,387.34 334.37,408.18 313.52,402.72 			"/>
		</g>
		<g>
			<g>
				
					<rect x="347.86" y="393.07" transform="matrix(-0.7071 0.7071 -0.7071 -0.7071 878.6223 427.8682)" width="5.67" height="5.67"/>
				
					<rect x="355.88" y="393.07" transform="matrix(-0.7071 0.7071 -0.7071 -0.7071 892.3091 422.1989)" width="5.67" height="5.67"/>
				
					<rect x="347.86" y="401.09" transform="matrix(-0.7071 0.7071 -0.7071 -0.7071 884.2916 441.5551)" width="5.67" height="5.67"/>
				
					<rect x="355.88" y="401.09" transform="matrix(-0.7071 0.7071 -0.7071 -0.7071 897.9784 435.8858)" width="5.67" height="5.67"/>
			</g>
			<polygon points="343.21,373.03 348.67,393.88 327.83,388.41 			"/>
		</g>
		<g>
			<g>
				<rect x="362.17" y="378.76" transform="matrix(-0.7071 0.7071 -0.7071 -0.7071 892.9255 393.337)" width="5.67" height="5.67"/>
				
					<rect x="370.18" y="378.76" transform="matrix(-0.7071 0.7071 -0.7071 -0.7071 906.6124 387.6677)" width="5.67" height="5.67"/>
				
					<rect x="362.17" y="386.78" transform="matrix(-0.7071 0.7071 -0.7071 -0.7071 898.5948 407.0239)" width="5.67" height="5.67"/>
				
					<rect x="370.18" y="386.78" transform="matrix(-0.7071 0.7071 -0.7071 -0.7071 912.2817 401.3546)" width="5.67" height="5.67"/>
			</g>
			<polygon points="357.51,358.73 362.98,379.58 342.13,374.11 			"/>
		</g>
		<g>
			<g>
				
					<rect x="376.47" y="364.46" transform="matrix(-0.7071 0.7071 -0.7071 -0.7071 907.2288 358.8058)" width="5.67" height="5.67"/>
				
					<rect x="384.49" y="364.46" transform="matrix(-0.7071 0.7071 -0.7071 -0.7071 920.9157 353.1366)" width="5.67" height="5.67"/>
				
					<rect x="376.47" y="372.48" transform="matrix(-0.7071 0.7071 -0.7071 -0.7071 912.8981 372.4927)" width="5.67" height="5.67"/>
				<rect x="384.49" y="372.48" transform="matrix(-0.7071 0.7071 -0.7071 -0.7071 926.585 366.8234)" width="5.67" height="5.67"/>
			</g>
			<polygon points="371.81,344.43 377.28,365.27 356.43,359.81 			"/>
		</g>
		<g>
			<g>
				
					<rect x="390.77" y="350.16" transform="matrix(-0.7071 0.7071 -0.7071 -0.7071 921.5321 324.2747)" width="5.67" height="5.67"/>
				<rect x="398.79" y="350.16" transform="matrix(-0.7071 0.7071 -0.7071 -0.7071 935.219 318.6054)" width="5.67" height="5.67"/>
				
					<rect x="390.77" y="358.18" transform="matrix(-0.7071 0.7071 -0.7071 -0.7071 927.2014 337.9615)" width="5.67" height="5.67"/>
				
					<rect x="398.79" y="358.18" transform="matrix(-0.7071 0.7071 -0.7071 -0.7071 940.8882 332.2923)" width="5.67" height="5.67"/>
			</g>
			<polygon points="386.12,330.12 391.58,350.97 370.74,345.5 			"/>
		</g>
	</g>
	<g>
		<g>
			<g>
				<rect x="390.77" y="275.08" transform="matrix(0.7071 0.7071 -0.7071 0.7071 311.7966 -196.924)" width="5.67" height="5.67"/>
				<rect x="390.77" y="267.06" transform="matrix(0.7071 0.7071 -0.7071 0.7071 306.1273 -199.2723)" width="5.67" height="5.67"/>
				<rect x="398.79" y="275.08" transform="matrix(0.7071 0.7071 -0.7071 0.7071 314.1449 -202.5932)" width="5.67" height="5.67"/>
				<rect x="398.79" y="267.06" transform="matrix(0.7071 0.7071 -0.7071 0.7071 308.4756 -204.9415)" width="5.67" height="5.67"/>
			</g>
			<polygon points="370.74,285.4 391.58,279.93 386.12,300.78 			"/>
		</g>
		<g>
			<g>
				<rect x="405.08" y="289.38" transform="matrix(0.7071 0.7071 -0.7071 0.7071 326.0999 -202.8486)" width="5.67" height="5.67"/>
				<rect x="405.08" y="281.36" transform="matrix(0.7071 0.7071 -0.7071 0.7071 320.4306 -205.1969)" width="5.67" height="5.67"/>
				<rect x="413.09" y="289.38" transform="matrix(0.7071 0.7071 -0.7071 0.7071 328.4482 -208.5179)" width="5.67" height="5.67"/>
				<rect x="413.09" y="281.36" transform="matrix(0.7071 0.7071 -0.7071 0.7071 322.7789 -210.8662)" width="5.67" height="5.67"/>
			</g>
			<polygon points="385.04,299.7 405.89,294.24 400.42,315.08 			"/>
		</g>
		<g>
			<g>
				
					<rect x="304.95" y="189.26" transform="matrix(-0.7071 -0.7071 0.7071 -0.7071 389.5968 545.5566)" width="5.67" height="5.67"/>
				
					<rect x="312.97" y="189.26" transform="matrix(-0.7071 -0.7071 0.7071 -0.7071 403.2837 551.2259)" width="5.67" height="5.67"/>
				
					<rect x="304.95" y="181.24" transform="matrix(-0.7071 -0.7071 0.7071 -0.7071 395.2661 531.8697)" width="5.67" height="5.67"/>
				<rect x="312.97" y="181.24" transform="matrix(-0.7071 -0.7071 0.7071 -0.7071 408.953 537.539)" width="5.67" height="5.67"/>
			</g>
			<polygon points="300.3,214.96 305.76,194.11 284.92,199.58 			"/>
		</g>
		<g>
			<g>
				<rect x="376.47" y="260.77" transform="matrix(0.7071 0.7071 -0.7071 0.7071 297.4933 -190.9993)" width="5.67" height="5.67"/>
				<rect x="376.47" y="252.75" transform="matrix(0.7071 0.7071 -0.7071 0.7071 291.8241 -193.3476)" width="5.67" height="5.67"/>
				<rect x="384.49" y="260.77" transform="matrix(0.7071 0.7071 -0.7071 0.7071 299.8416 -196.6686)" width="5.67" height="5.67"/>
				<rect x="384.49" y="252.75" transform="matrix(0.7071 0.7071 -0.7071 0.7071 294.1724 -199.0169)" width="5.67" height="5.67"/>
			</g>
			<polygon points="356.43,271.1 377.28,265.63 371.81,286.48 			"/>
		</g>
		<g>
			<g>
				<rect x="362.17" y="246.47" transform="matrix(0.7071 0.7071 -0.7071 0.7071 283.1901 -185.0747)" width="5.67" height="5.67"/>
				<rect x="362.17" y="238.45" transform="matrix(0.7071 0.7071 -0.7071 0.7071 277.5208 -187.423)" width="5.67" height="5.67"/>
				<rect x="370.18" y="246.47" transform="matrix(0.7071 0.7071 -0.7071 0.7071 285.5384 -190.744)" width="5.67" height="5.67"/>
				<rect x="370.18" y="238.45" transform="matrix(0.7071 0.7071 -0.7071 0.7071 279.8691 -193.0923)" width="5.67" height="5.67"/>
			</g>
			<polygon points="342.13,256.79 362.98,251.33 357.51,272.17 			"/>
		</g>
		<g>
			<g>
				<rect x="347.86" y="232.17" transform="matrix(0.7071 0.7071 -0.7071 0.7071 268.8868 -179.1501)" width="5.67" height="5.67"/>
				<rect x="347.86" y="224.15" transform="matrix(0.7071 0.7071 -0.7071 0.7071 263.2175 -181.4984)" width="5.67" height="5.67"/>
				<rect x="355.88" y="232.17" transform="matrix(0.7071 0.7071 -0.7071 0.7071 271.2351 -184.8194)" width="5.67" height="5.67"/>
				<rect x="355.88" y="224.15" transform="matrix(0.7071 0.7071 -0.7071 0.7071 265.5658 -187.1677)" width="5.67" height="5.67"/>
			</g>
			<polygon points="327.83,242.49 348.67,237.02 343.21,257.87 			"/>
		</g>
		<g>
			<g>
				<rect x="333.56" y="217.86" transform="matrix(0.7071 0.7071 -0.7071 0.7071 254.5835 -173.2255)" width="5.67" height="5.67"/>
				<rect x="333.56" y="209.84" transform="matrix(0.7071 0.7071 -0.7071 0.7071 248.9142 -175.5738)" width="5.67" height="5.67"/>
				<rect x="341.58" y="217.86" transform="matrix(0.7071 0.7071 -0.7071 0.7071 256.9318 -178.8948)" width="5.67" height="5.67"/>
				<rect x="341.58" y="209.84" transform="matrix(0.7071 0.7071 -0.7071 0.7071 251.2625 -181.2431)" width="5.67" height="5.67"/>
			</g>
			<polygon points="313.52,228.19 334.37,222.72 328.9,243.57 			"/>
		</g>
		<g>
			<g>
				<rect x="319.26" y="203.56" transform="matrix(0.7071 0.7071 -0.7071 0.7071 240.2802 -167.3009)" width="5.67" height="5.67"/>
				<rect x="319.26" y="195.54" transform="matrix(0.7071 0.7071 -0.7071 0.7071 234.6109 -169.6492)" width="5.67" height="5.67"/>
				<rect x="327.27" y="203.56" transform="matrix(0.7071 0.7071 -0.7071 0.7071 242.6285 -172.9702)" width="5.67" height="5.67"/>
				<rect x="327.27" y="195.54" transform="matrix(0.7071 0.7071 -0.7071 0.7071 236.9592 -175.3185)" width="5.67" height="5.67"/>
			</g>
			<polygon points="299.22,213.88 320.07,208.42 314.6,229.26 			"/>
		</g>
	</g>
	<g>
		<g>
			<g>
				<rect x="244.17" y="203.56" transform="matrix(0.7071 -0.7071 0.7071 0.7071 -73.5955 235.1116)" width="5.67" height="5.67"/>
				<rect x="236.15" y="203.56" transform="matrix(0.7071 -0.7071 0.7071 0.7071 -75.9438 229.4424)" width="5.67" height="5.67"/>
				<rect x="244.17" y="195.54" transform="matrix(0.7071 -0.7071 0.7071 0.7071 -67.9262 232.7634)" width="5.67" height="5.67"/>
				<rect x="236.15" y="195.54" transform="matrix(0.7071 -0.7071 0.7071 0.7071 -70.2745 227.0941)" width="5.67" height="5.67"/>
			</g>
			<polygon points="254.5,229.26 249.03,208.42 269.88,213.88 			"/>
		</g>
		<g>
			<g>
				<rect x="258.48" y="189.26" transform="matrix(0.7071 -0.7071 0.7071 0.7071 -59.2922 241.0363)" width="5.67" height="5.67"/>
				<rect x="250.46" y="189.26" transform="matrix(0.7071 -0.7071 0.7071 0.7071 -61.6405 235.367)" width="5.67" height="5.67"/>
				<rect x="258.48" y="181.24" transform="matrix(0.7071 -0.7071 0.7071 0.7071 -53.6229 238.688)" width="5.67" height="5.67"/>
				<rect x="250.46" y="181.24" transform="matrix(0.7071 -0.7071 0.7071 0.7071 -55.9712 233.0187)" width="5.67" height="5.67"/>
			</g>
			<polygon points="268.8,214.96 263.33,194.11 284.18,199.58 			"/>
		</g>
		<g>
			<g>
				<rect x="158.35" y="289.38" transform="matrix(-0.7071 0.7071 -0.7071 -0.7071 481.79 384.8623)" width="5.67" height="5.67"/>
				
					<rect x="158.35" y="281.36" transform="matrix(-0.7071 0.7071 -0.7071 -0.7071 476.1208 371.1754)" width="5.67" height="5.67"/>
				
					<rect x="150.34" y="289.38" transform="matrix(-0.7071 0.7071 -0.7071 -0.7071 468.1032 390.5316)" width="5.67" height="5.67"/>
				
					<rect x="150.34" y="281.36" transform="matrix(-0.7071 0.7071 -0.7071 -0.7071 462.4339 376.8447)" width="5.67" height="5.67"/>
			</g>
			<polygon points="184.06,299.7 163.21,294.24 168.68,315.08 			"/>
		</g>
		<g>
			<g>
				<rect x="229.87" y="217.86" transform="matrix(0.7071 -0.7071 0.7071 0.7071 -87.8988 229.187)" width="5.67" height="5.67"/>
				<rect x="221.85" y="217.86" transform="matrix(0.7071 -0.7071 0.7071 0.7071 -90.2471 223.5177)" width="5.67" height="5.67"/>
				<rect x="229.87" y="209.84" transform="matrix(0.7071 -0.7071 0.7071 0.7071 -82.2295 226.8387)" width="5.67" height="5.67"/>
				<rect x="221.85" y="209.84" transform="matrix(0.7071 -0.7071 0.7071 0.7071 -84.5778 221.1694)" width="5.67" height="5.67"/>
			</g>
			<polygon points="240.19,243.57 234.73,222.72 255.57,228.19 			"/>
		</g>
		<g>
			<g>
				<rect x="215.57" y="232.17" transform="matrix(0.7071 -0.7071 0.7071 0.7071 -102.202 223.2624)" width="5.67" height="5.67"/>
				<rect x="207.55" y="232.17" transform="matrix(0.7071 -0.7071 0.7071 0.7071 -104.5503 217.5931)" width="5.67" height="5.67"/>
				<rect x="215.57" y="224.15" transform="matrix(0.7071 -0.7071 0.7071 0.7071 -96.5328 220.9141)" width="5.67" height="5.67"/>
				<rect x="207.55" y="224.15" transform="matrix(0.7071 -0.7071 0.7071 0.7071 -98.8811 215.2448)" width="5.67" height="5.67"/>
			</g>
			<polygon points="225.89,257.87 220.42,237.02 241.27,242.49 			"/>
		</g>
		<g>
			<g>
				<rect x="201.26" y="246.47" transform="matrix(0.7071 -0.7071 0.7071 0.7071 -116.5053 217.3378)" width="5.67" height="5.67"/>
				<rect x="193.25" y="246.47" transform="matrix(0.7071 -0.7071 0.7071 0.7071 -118.8536 211.6685)" width="5.67" height="5.67"/>
				<rect x="201.26" y="238.45" transform="matrix(0.7071 -0.7071 0.7071 0.7071 -110.836 214.9895)" width="5.67" height="5.67"/>
				<rect x="193.25" y="238.45" transform="matrix(0.7071 -0.7071 0.7071 0.7071 -113.1843 209.3202)" width="5.67" height="5.67"/>
			</g>
			<polygon points="211.59,272.17 206.12,251.33 226.97,256.79 			"/>
		</g>
		<g>
			<g>
				<rect x="186.96" y="260.77" transform="matrix(0.7071 -0.7071 0.7071 0.7071 -130.8086 211.4132)" width="5.67" height="5.67"/>
				<rect x="178.94" y="260.77" transform="matrix(0.7071 -0.7071 0.7071 0.7071 -133.1569 205.7439)" width="5.67" height="5.67"/>
				<rect x="186.96" y="252.75" transform="matrix(0.7071 -0.7071 0.7071 0.7071 -125.1393 209.0649)" width="5.67" height="5.67"/>
				<rect x="178.94" y="252.75" transform="matrix(0.7071 -0.7071 0.7071 0.7071 -127.4876 203.3956)" width="5.67" height="5.67"/>
			</g>
			<polygon points="197.28,286.48 191.82,265.63 212.66,271.1 			"/>
		</g>
		<g>
			<g>
				<rect x="172.66" y="275.08" transform="matrix(0.7071 -0.7071 0.7071 0.7071 -145.1119 205.4886)" width="5.67" height="5.67"/>
				<rect x="164.64" y="275.08" transform="matrix(0.7071 -0.7071 0.7071 0.7071 -147.4602 199.8193)" width="5.67" height="5.67"/>
				<rect x="172.66" y="267.06" transform="matrix(0.7071 -0.7071 0.7071 0.7071 -139.4426 203.1403)" width="5.67" height="5.67"/>
				<rect x="164.64" y="267.06" transform="matrix(0.7071 -0.7071 0.7071 0.7071 -141.7909 197.471)" width="5.67" height="5.67"/>
			</g>
			<polygon points="182.98,300.78 177.51,279.93 198.36,285.4 			"/>
		</g>
	</g>
	<g>
		<g>
			<g>
				<rect x="172.66" y="350.16" transform="matrix(-0.7071 -0.7071 0.7071 -0.7071 49.9777 726.6872)" width="5.67" height="5.67"/>
				<rect x="172.66" y="358.18" transform="matrix(-0.7071 -0.7071 0.7071 -0.7071 44.3084 740.3741)" width="5.67" height="5.67"/>
				<rect x="164.64" y="350.16" transform="matrix(-0.7071 -0.7071 0.7071 -0.7071 36.2909 721.0179)" width="5.67" height="5.67"/>
				<rect x="164.64" y="358.18" transform="matrix(-0.7071 -0.7071 0.7071 -0.7071 30.6216 734.7048)" width="5.67" height="5.67"/>
			</g>
			<polygon points="198.36,345.5 177.51,350.97 182.98,330.12 			"/>
		</g>
		<g>
			<g>
				<rect x="158.35" y="335.85" transform="matrix(-0.7071 -0.7071 0.7071 -0.7071 35.6745 692.1561)" width="5.67" height="5.67"/>
				<rect x="158.35" y="343.87" transform="matrix(-0.7071 -0.7071 0.7071 -0.7071 30.0052 705.8429)" width="5.67" height="5.67"/>
				<rect x="150.34" y="335.85" transform="matrix(-0.7071 -0.7071 0.7071 -0.7071 21.9876 686.4868)" width="5.67" height="5.67"/>
				<rect x="150.34" y="343.87" transform="matrix(-0.7071 -0.7071 0.7071 -0.7071 16.3183 700.1736)" width="5.67" height="5.67"/>
			</g>
			<polygon points="184.06,331.2 163.21,336.67 168.68,315.82 			"/>
		</g>
		<g>
			<g>
				<rect x="258.48" y="435.98" transform="matrix(0.7071 0.7071 -0.7071 0.7071 386.8234 -56.2491)" width="5.67" height="5.67"/>
				<rect x="250.46" y="435.98" transform="matrix(0.7071 0.7071 -0.7071 0.7071 384.4751 -50.5798)" width="5.67" height="5.67"/>
				<rect x="258.48" y="444" transform="matrix(0.7071 0.7071 -0.7071 0.7071 392.4927 -53.9008)" width="5.67" height="5.67"/>
				<rect x="250.46" y="444" transform="matrix(0.7071 0.7071 -0.7071 0.7071 390.1444 -48.2315)" width="5.67" height="5.67"/>
			</g>
			<polygon points="268.8,415.94 263.33,436.79 284.18,431.32 			"/>
		</g>
		<g>
			<g>
				<rect x="186.96" y="364.46" transform="matrix(-0.7071 -0.7071 0.7071 -0.7071 64.281 761.2184)" width="5.67" height="5.67"/>
				<rect x="186.96" y="372.48" transform="matrix(-0.7071 -0.7071 0.7071 -0.7071 58.6117 774.9053)" width="5.67" height="5.67"/>
				<rect x="178.94" y="364.46" transform="matrix(-0.7071 -0.7071 0.7071 -0.7071 50.5941 755.5491)" width="5.67" height="5.67"/>
				<rect x="178.94" y="372.48" transform="matrix(-0.7071 -0.7071 0.7071 -0.7071 44.9248 769.236)" width="5.67" height="5.67"/>
			</g>
			<polygon points="212.66,359.81 191.82,365.27 197.28,344.43 			"/>
		</g>
		<g>
			<g>
				<rect x="201.26" y="378.76" transform="matrix(-0.7071 -0.7071 0.7071 -0.7071 78.5843 795.7496)" width="5.67" height="5.67"/>
				<rect x="201.26" y="386.78" transform="matrix(-0.7071 -0.7071 0.7071 -0.7071 72.915 809.4365)" width="5.67" height="5.67"/>
				<rect x="193.25" y="378.76" transform="matrix(-0.7071 -0.7071 0.7071 -0.7071 64.8974 790.0803)" width="5.67" height="5.67"/>
				<rect x="193.25" y="386.78" transform="matrix(-0.7071 -0.7071 0.7071 -0.7071 59.2281 803.7672)" width="5.67" height="5.67"/>
			</g>
			<polygon points="226.97,374.11 206.12,379.58 211.59,358.73 			"/>
		</g>
		<g>
			<g>
				<rect x="215.57" y="393.07" transform="matrix(-0.7071 -0.7071 0.7071 -0.7071 92.8876 830.2808)" width="5.67" height="5.67"/>
				<rect x="215.57" y="401.09" transform="matrix(-0.7071 -0.7071 0.7071 -0.7071 87.2183 843.9676)" width="5.67" height="5.67"/>
				<rect x="207.55" y="393.07" transform="matrix(-0.7071 -0.7071 0.7071 -0.7071 79.2007 824.6115)" width="5.67" height="5.67"/>
				<rect x="207.55" y="401.09" transform="matrix(-0.7071 -0.7071 0.7071 -0.7071 73.5314 838.2983)" width="5.67" height="5.67"/>
			</g>
			<polygon points="241.27,388.41 220.42,393.88 225.89,373.03 			"/>
		</g>
		<g>
			<g>
				
					<rect x="229.87" y="407.37" transform="matrix(-0.7071 -0.7071 0.7071 -0.7071 107.1909 864.8119)" width="5.67" height="5.67"/>
				
					<rect x="229.87" y="415.39" transform="matrix(-0.7071 -0.7071 0.7071 -0.7071 101.5216 878.4988)" width="5.67" height="5.67"/>
				<rect x="221.85" y="407.37" transform="matrix(-0.7071 -0.7071 0.7071 -0.7071 93.504 859.1426)" width="5.67" height="5.67"/>
				<rect x="221.85" y="415.39" transform="matrix(-0.7071 -0.7071 0.7071 -0.7071 87.8347 872.8295)" width="5.67" height="5.67"/>
			</g>
			<polygon points="255.57,402.72 234.73,408.18 240.19,387.34 			"/>
		</g>
		<g>
			<g>
				
					<rect x="244.17" y="421.67" transform="matrix(-0.7071 -0.7071 0.7071 -0.7071 121.4941 899.3431)" width="5.67" height="5.67"/>
				<rect x="244.17" y="429.69" transform="matrix(-0.7071 -0.7071 0.7071 -0.7071 115.8248 913.03)" width="5.67" height="5.67"/>
				
					<rect x="236.15" y="421.67" transform="matrix(-0.7071 -0.7071 0.7071 -0.7071 107.8073 893.6738)" width="5.67" height="5.67"/>
				<rect x="236.15" y="429.69" transform="matrix(-0.7071 -0.7071 0.7071 -0.7071 102.138 907.3607)" width="5.67" height="5.67"/>
			</g>
			<polygon points="269.88,417.02 249.03,422.49 254.5,401.64 			"/>
		</g>
	</g>
	<g>
		<path d="M262.61,307.28c0,2.76,1.28,5.21,3.28,6.81c2-1.6,3.28-4.05,3.28-6.81s-1.28-5.21-3.28-6.81
			C263.89,302.07,262.61,304.52,262.61,307.28z"/>
		<path d="M257.74,318.75c2.76,0,5.21-1.28,6.81-3.28c-1.6-2-4.05-3.28-6.81-3.28c-2.76,0-5.21,1.28-6.81,3.28
			C252.52,317.47,254.98,318.75,257.74,318.75z"/>
		<path d="M269.21,323.62c0-2.76-1.28-5.21-3.28-6.81c-2,1.6-3.28,4.05-3.28,6.81c0,2.76,1.28,5.21,3.28,6.81
			C267.93,328.84,269.21,326.38,269.21,323.62z"/>
		<path d="M274.08,312.15c-2.76,0-5.21,1.28-6.81,3.28c1.6,2,4.05,3.28,6.81,3.28s5.21-1.28,6.81-3.28
			C279.3,313.43,276.84,312.15,274.08,312.15z"/>
	</g>
	<g>
		<path d="M306.49,307.28c0,2.76-1.28,5.21-3.28,6.81c-2-1.6-3.28-4.05-3.28-6.81s1.28-5.21,3.28-6.81
			C305.21,302.07,306.49,304.52,306.49,307.28z"/>
		<path d="M311.36,318.75c-2.76,0-5.21-1.28-6.81-3.28c1.6-2,4.05-3.28,6.81-3.28s5.21,1.28,6.81,3.28
			C316.57,317.47,314.12,318.75,311.36,318.75z"/>
		<path d="M299.89,323.62c0-2.76,1.28-5.21,3.28-6.81c2,1.6,3.28,4.05,3.28,6.81c0,2.76-1.28,5.21-3.28,6.81
			C301.17,328.84,299.89,326.38,299.89,323.62z"/>
		<path d="M295.02,312.15c2.76,0,5.21,1.28,6.81,3.28c-1.6,2-4.05,3.28-6.81,3.28c-2.76,0-5.21-1.28-6.81-3.28
			C289.8,313.43,292.26,312.15,295.02,312.15z"/>
	</g>
</g>
<g>
</g>
<g>
</g>
<g>
</g>
<g>
</g>
<g>
</g>
<g>
</g>
<g>
</g>
<g>
</g>
<g>
</g>
<g>
</g>
<g>
</g>
<g>
</g>
<g>
</g>
<g>
</g>
<g>
</g>
</svg>
