<?xml version="1.0" encoding="utf-8"?>
<!-- Generator: Adobe Illustrator 27.2.0, SVG Export Plug-In . SVG Version: 6.00 Build 0)  -->
<svg version="1.1" id="Layer_1" xmlns="http://www.w3.org/2000/svg" xmlns:xlink="http://www.w3.org/1999/xlink" x="0px" y="0px"
	 viewBox="0 0 800 600" style="enable-background:new 0 0 800 600;" xml:space="preserve">
<g>
	<g>
		<path d="M342.73,197v3v22v3v22v3v22v3v22v3v22v3v22v3v22v3v22v3v22v3v22v3v22v3v22v3v22v3v25h28v-25v-3v-22v-3v-22v-3v-22v-3v-22
			v-3v-22v-3v-22v-3v-22v-3v-22v-3v-22v-3v-22v-3v-22v-3v-22v-3v-22v-3v-25h-28V197z M367.73,547h-22v-22h22V547z M367.73,522h-22
			v-22h22V522z M367.73,497h-22v-22h22V497z M367.73,472h-22v-22h22V472z M367.73,447h-22v-22h22V447z M367.73,422h-22v-22h22V422z
			 M367.73,397h-22v-22h22V397z M367.73,372h-22v-22h22V372z M367.73,347h-22v-22h22V347z M367.73,322h-22v-22h22V322z M367.73,297
			h-22v-22h22V297z M367.73,272h-22v-22h22V272z M367.73,247h-22v-22h22V247z M367.73,222h-22v-22h22V222z M345.73,175h22v22h-22
			V175z"/>
		<path d="M301,297v3v22v3v22v3v22v3v22v3v22v3v22v3v22v3v22v3v22v3v25h28v-25v-3v-22v-3v-22v-3v-22v-3v-22v-3v-22v-3v-22v-3v-22v-3
			v-22v-3v-22v-3v-25h-28V297z M326,547h-22v-22h22V547z M326,522h-22v-22h22V522z M326,497h-22v-22h22V497z M326,472h-22v-22h22
			V472z M326,447h-22v-22h22V447z M326,422h-22v-22h22V422z M326,397h-22v-22h22V397z M326,372h-22v-22h22V372z M326,347h-22v-22h22
			V347z M326,322h-22v-22h22V322z M304,275h22v22h-22V275z"/>
		<path d="M259.27,272v3v22v3v22v3v22v3v22v3v22v3v22v3v22v3v22v3v22v3v22v3v25h28v-25v-3v-22v-3v-22v-3v-22v-3v-22v-3v-22v-3v-22
			v-3v-22v-3v-22v-3v-22v-3v-22v-3v-25h-28V272z M284.27,547h-22v-22h22V547z M284.27,522h-22v-22h22V522z M284.27,497h-22v-22h22
			V497z M284.27,472h-22v-22h22V472z M284.27,447h-22v-22h22V447z M284.27,422h-22v-22h22V422z M284.27,397h-22v-22h22V397z
			 M284.27,372h-22v-22h22V372z M284.27,347h-22v-22h22V347z M284.27,322h-22v-22h22V322z M284.27,297h-22v-22h22V297z M262.27,250
			h22v22h-22V250z"/>
		<path d="M217.54,347v3v22v3v22v3v22v3v22v3v22v3v22v3v22v3v25h28v-25v-3v-22v-3v-22v-3v-22v-3v-22v-3v-22v-3v-22v-3v-22v-3v-25
			h-28V347z M242.54,547h-22v-22h22V547z M242.54,522h-22v-22h22V522z M242.54,497h-22v-22h22V497z M242.54,472h-22v-22h22V472z
			 M242.54,447h-22v-22h22V447z M242.54,422h-22v-22h22V422z M242.54,397h-22v-22h22V397z M242.54,372h-22v-22h22V372z M220.54,325
			h22v22h-22V325z"/>
		<path d="M175.8,422v3v22v3v22v3v22v3v22v3v25h28v-25v-3v-22v-3v-22v-3v-22v-3v-22v-3v-25h-28V422z M200.8,547h-22v-22h22V547z
			 M200.8,522h-22v-22h22V522z M200.8,497h-22v-22h22V497z M200.8,472h-22v-22h22V472z M200.8,447h-22v-22h22V447z M178.8,400h22v22
			h-22V400z"/>
		<path d="M134.07,272v3v22v3v22v3v22v3v22v3v22v3v22v3v22v3v22v3v22v3v22v3v25h28v-25v-3v-22v-3v-22v-3v-22v-3v-22v-3v-22v-3v-22
			v-3v-22v-3v-22v-3v-22v-3v-22v-3v-25h-28V272z M159.07,547h-22v-22h22V547z M159.07,522h-22v-22h22V522z M159.07,497h-22v-22h22
			V497z M159.07,472h-22v-22h22V472z M159.07,447h-22v-22h22V447z M159.07,422h-22v-22h22V422z M159.07,397h-22v-22h22V397z
			 M159.07,372h-22v-22h22V372z M159.07,347h-22v-22h22V347z M159.07,322h-22v-22h22V322z M159.07,297h-22v-22h22V297z M137.07,250
			h22v22h-22V250z"/>
		<path d="M92.34,347v3v22v3v22v3v22v3v22v3v22v3v22v3v22v3v25h28v-25v-3v-22v-3v-22v-3v-22v-3v-22v-3v-22v-3v-22v-3v-22v-3v-25h-28
			V347z M117.34,547h-22v-22h22V547z M117.34,522h-22v-22h22V522z M117.34,497h-22v-22h22V497z M117.34,472h-22v-22h22V472z
			 M117.34,447h-22v-22h22V447z M117.34,422h-22v-22h22V422z M117.34,397h-22v-22h22V397z M117.34,372h-22v-22h22V372z M95.34,325
			h22v22h-22V325z"/>
		<path d="M50,422v3v22v3v22v3v22v3v22v3v25h28v-25v-3v-22v-3v-22v-3v-22v-3v-22v-3v-25H50V422z M75,547H53v-22h22V547z M75,522H53
			v-22h22V522z M75,497H53v-22h22V497z M75,472H53v-22h22V472z M75,447H53v-22h22V447z M53,400h22v22H53V400z"/>
		<path d="M385,247v3v22v3v22v3v22v3v22v3v22v3v22v3v22v3v22v3v22v3v22v3v22v3v25h28v-25v-3v-22v-3v-22v-3v-22v-3v-22v-3v-22v-3v-22
			v-3v-22v-3v-22v-3v-22v-3v-22v-3v-22v-3v-25h-28V247z M410,547h-22v-22h22V547z M410,522h-22v-22h22V522z M410,497h-22v-22h22V497
			z M410,472h-22v-22h22V472z M410,447h-22v-22h22V447z M410,422h-22v-22h22V422z M410,397h-22v-22h22V397z M410,372h-22v-22h22V372
			z M410,347h-22v-22h22V347z M410,322h-22v-22h22V322z M410,297h-22v-22h22V297z M410,272h-22v-22h22V272z M388,225h22v22h-22V225z
			"/>
		<path d="M427.27,297v3v22v3v22v3v22v3v22v3v22v3v22v3v22v3v22v3v22v3v25h28v-25v-3v-22v-3v-22v-3v-22v-3v-22v-3v-22v-3v-22v-3v-22
			v-3v-22v-3v-22v-3v-25h-28V297z M452.27,547h-22v-22h22V547z M452.27,522h-22v-22h22V522z M452.27,497h-22v-22h22V497z
			 M452.27,472h-22v-22h22V472z M452.27,447h-22v-22h22V447z M452.27,422h-22v-22h22V422z M452.27,397h-22v-22h22V397z M452.27,372
			h-22v-22h22V372z M452.27,347h-22v-22h22V347z M452.27,322h-22v-22h22V322z M430.27,275h22v22h-22V275z"/>
		<path d="M469.54,347v3v22v3v22v3v22v3v22v3v22v3v22v3v22v3v25h28v-25v-3v-22v-3v-22v-3v-22v-3v-22v-3v-22v-3v-22v-3v-22v-3v-25
			h-28V347z M494.54,547h-22v-22h22V547z M494.54,522h-22v-22h22V522z M494.54,497h-22v-22h22V497z M494.54,472h-22v-22h22V472z
			 M494.54,447h-22v-22h22V447z M494.54,422h-22v-22h22V422z M494.54,397h-22v-22h22V397z M494.54,372h-22v-22h22V372z M472.54,325
			h22v22h-22V325z"/>
		<path d="M511.8,272v3v22v3v22v3v22v3v22v3v22v3v22v3v22v3v22v3v22v3v22v3v25h28v-25v-3v-22v-3v-22v-3v-22v-3v-22v-3v-22v-3v-22v-3
			v-22v-3v-22v-3v-22v-3v-22v-3v-25h-28V272z M536.8,547h-22v-22h22V547z M536.8,522h-22v-22h22V522z M536.8,497h-22v-22h22V497z
			 M536.8,472h-22v-22h22V472z M536.8,447h-22v-22h22V447z M536.8,422h-22v-22h22V422z M536.8,397h-22v-22h22V397z M536.8,372h-22
			v-22h22V372z M536.8,347h-22v-22h22V347z M536.8,322h-22v-22h22V322z M536.8,297h-22v-22h22V297z M514.8,250h22v22h-22V250z"/>
		<path d="M554.07,347v3v22v3v22v3v22v3v22v3v22v3v22v3v22v3v25h28v-25v-3v-22v-3v-22v-3v-22v-3v-22v-3v-22v-3v-22v-3v-22v-3v-25
			h-28V347z M579.07,547h-22v-22h22V547z M579.07,522h-22v-22h22V522z M579.07,497h-22v-22h22V497z M579.07,472h-22v-22h22V472z
			 M579.07,447h-22v-22h22V447z M579.07,422h-22v-22h22V422z M579.07,397h-22v-22h22V397z M579.07,372h-22v-22h22V372z M557.07,325
			h22v22h-22V325z"/>
		<path d="M596.34,397v25v3v22v3v22v3v22v3v22v3v25h28v-25v-3v-22v-3v-22v-3v-22v-3v-22v-3v-25H596.34z M621.34,547h-22v-22h22V547z
			 M621.34,522h-22v-22h22V522z M621.34,497h-22v-22h22V497z M621.34,472h-22v-22h22V472z M621.34,447h-22v-22h22V447z M599.34,422
			v-22h22v22H599.34z"/>
	</g>
</g>
<g>
</g>
<g>
</g>
<g>
</g>
<g>
</g>
<g>
</g>
<g>
</g>
<g>
</g>
<g>
</g>
<g>
</g>
<g>
</g>
<g>
</g>
<g>
</g>
<g>
</g>
<g>
</g>
<g>
</g>
</svg>
