<?xml version="1.0" encoding="utf-8"?>
<!-- Generator: Adobe Illustrator 27.2.0, SVG Export Plug-In . SVG Version: 6.00 Build 0)  -->
<svg version="1.1" id="Layer_1" xmlns="http://www.w3.org/2000/svg" xmlns:xlink="http://www.w3.org/1999/xlink" x="0px" y="0px"
	 viewBox="0 0 800 600" style="enable-background:new 0 0 800 600;" xml:space="preserve">
<g>
	<g>
		<polygon points="136.02,449.87 128.68,457.21 131.51,460.04 138.85,452.7 141.66,455.51 134.32,462.85 137.15,465.68 
			144.49,458.34 147.3,461.15 139.96,468.49 142.79,471.32 150.13,463.98 150.16,464.01 150.16,449.84 135.99,449.84 		"/>
		<rect x="145.52" y="441.86" width="5.67" height="5.67"/>
		<rect x="139.85" y="436.19" width="5.67" height="5.67"/>
		<rect x="134.18" y="430.52" width="5.67" height="5.67"/>
		<rect x="139.85" y="424.85" width="5.67" height="5.67"/>
		<rect x="145.52" y="419.18" width="5.67" height="5.67"/>
		<rect x="175.14" y="448.82" width="5.67" height="5.67"/>
		<rect x="169.47" y="454.49" width="5.67" height="5.67"/>
		<rect x="163.8" y="460.16" width="5.67" height="5.67"/>
		<rect x="158.13" y="454.49" width="5.67" height="5.67"/>
		<rect x="152.46" y="448.82" width="5.67" height="5.67"/>
		<path d="M151.34,448.64h30.58v-30.58h-30.58V448.64z M154.34,421.07h24.58v24.58h-24.58V421.07z"/>
		<path d="M162.6,429.32c-2.23,2.23-2.23,5.84,0,8.06s5.84,2.23,8.06,0c2.23-2.23,2.23-5.84,0-8.06
			C168.44,427.1,164.83,427.1,162.6,429.32z"/>
		<polygon points="327.27,449.84 313.09,449.84 313.09,464.01 313.13,463.98 320.46,471.32 323.29,468.49 315.95,461.15 
			318.77,458.34 326.1,465.68 328.93,462.85 321.59,455.51 		"/>
		<rect x="327.49" y="449.76" transform="matrix(0.7071 -0.7071 0.7071 0.7071 -225.1958 366.2366)" width="4" height="10.38"/>
		<rect x="305.12" y="448.81" width="5.67" height="5.67"/>
		<rect x="299.45" y="454.48" width="5.67" height="5.67"/>
		<rect x="293.78" y="460.15" width="5.67" height="5.67"/>
		<rect x="288.11" y="454.48" width="5.67" height="5.67"/>
		<rect x="282.44" y="448.81" width="5.67" height="5.67"/>
		<rect x="312.08" y="419.19" width="5.67" height="5.67"/>
		<rect x="317.75" y="424.86" width="5.67" height="5.67"/>
		<rect x="323.42" y="430.53" width="5.67" height="5.67"/>
		<rect x="317.75" y="436.2" width="5.67" height="5.67"/>
		<rect x="312.08" y="441.87" width="5.67" height="5.67"/>
		<path d="M281.32,448.66h30.58v-30.58h-30.58V448.66z M284.32,421.08h24.58v24.58h-24.58V421.08z"/>
		<path d="M292.58,429.34c-2.23,2.23-2.23,5.84,0,8.06c2.23,2.23,5.84,2.23,8.06,0c2.23-2.23,2.23-5.84,0-8.06
			C298.42,427.11,294.81,427.11,292.58,429.34z"/>
		<polygon points="327.23,286.87 334.57,279.54 331.74,276.71 324.41,284.05 321.59,281.23 328.93,273.9 326.1,271.07 
			318.77,278.41 315.95,275.59 323.29,268.26 320.46,265.43 313.13,272.77 313.09,272.73 313.09,286.91 327.27,286.91 		"/>
		<rect x="312.07" y="289.21" width="5.67" height="5.67"/>
		<rect x="317.74" y="294.88" width="5.67" height="5.67"/>
		<rect x="323.41" y="300.55" width="5.67" height="5.67"/>
		<rect x="317.74" y="306.22" width="5.67" height="5.67"/>
		<rect x="312.07" y="311.89" width="5.67" height="5.67"/>
		<rect x="282.45" y="282.25" width="5.67" height="5.67"/>
		<rect x="288.12" y="276.58" width="5.67" height="5.67"/>
		<rect x="293.79" y="270.91" width="5.67" height="5.67"/>
		<rect x="299.46" y="276.58" width="5.67" height="5.67"/>
		<rect x="305.13" y="282.25" width="5.67" height="5.67"/>
		<path d="M311.91,288.1h-30.58v30.58h30.58V288.1z M308.91,315.68h-24.58V291.1h24.58V315.68z"/>
		<path d="M300.65,307.42c2.23-2.23,2.23-5.84,0-8.06c-2.23-2.23-5.84-2.23-8.06,0c-2.23,2.23-2.23,5.84,0,8.06
			S298.43,309.65,300.65,307.42z"/>
		<polygon points="135.99,286.91 150.16,286.91 150.16,272.73 138.85,284.05 131.51,276.71 128.68,279.54 136.02,286.87 		"/>
		<rect x="137.41" y="270.96" transform="matrix(0.7072 -0.7071 0.7071 0.7072 -154.4303 179.439)" width="4" height="10.38"/>
		<rect x="143.05" y="265.32" transform="matrix(0.7071 -0.7071 0.7071 0.7071 -148.7972 181.7942)" width="4" height="10.38"/>
		<rect x="152.47" y="282.26" width="5.67" height="5.67"/>
		<rect x="158.14" y="276.59" width="5.67" height="5.67"/>
		<rect x="163.81" y="270.92" width="5.67" height="5.67"/>
		<rect x="169.48" y="276.59" width="5.67" height="5.67"/>
		<rect x="175.15" y="282.26" width="5.67" height="5.67"/>
		<rect x="145.51" y="311.88" width="5.67" height="5.67"/>
		<rect x="139.84" y="306.21" width="5.67" height="5.67"/>
		<rect x="134.17" y="300.54" width="5.67" height="5.67"/>
		<rect x="139.84" y="294.87" width="5.67" height="5.67"/>
		<rect x="145.51" y="289.2" width="5.67" height="5.67"/>
		<path d="M181.93,288.09h-30.58v30.58h30.58V288.09z M178.93,315.67h-24.58v-24.58h24.58V315.67z"/>
		<path d="M170.68,307.41c2.23-2.23,2.23-5.84,0-8.06c-2.23-2.23-5.84-2.23-8.06,0c-2.23,2.23-2.23,5.84,0,8.06
			C164.84,309.63,168.45,309.63,170.68,307.41z"/>
		<polygon points="206.15,296.62 202.95,299.82 202.14,300.63 198.13,296.62 202.14,292.62 		"/>
		<rect x="199.3" y="285.77" transform="matrix(0.7071 -0.7071 0.7071 0.7071 -144.8698 227.4639)" width="5.67" height="5.67"/>
		<rect x="199.3" y="277.75" transform="matrix(0.7071 -0.7071 0.7071 0.7071 -139.2005 225.1156)" width="5.67" height="5.67"/>
		<rect x="207.32" y="277.75" transform="matrix(0.7071 -0.7071 0.7071 0.7071 -136.8522 230.7849)" width="5.67" height="5.67"/>
		<rect x="215.34" y="277.75" transform="matrix(0.7071 -0.7071 0.7071 0.7071 -134.5039 236.4542)" width="5.67" height="5.67"/>
		<rect x="157.04" y="336.05" transform="matrix(0.7071 -0.7071 0.7071 0.7071 -192.7981 212.3079)" width="5.67" height="5.67"/>
		<rect x="149.03" y="336.05" transform="matrix(0.7071 -0.7071 0.7071 0.7071 -195.1464 206.6386)" width="5.67" height="5.67"/>
		<rect x="141.01" y="336.05" transform="matrix(0.7071 -0.7071 0.7071 0.7071 -197.4947 200.9693)" width="5.67" height="5.67"/>
		<rect x="141.01" y="344.06" transform="matrix(0.7071 -0.7071 0.7071 0.7071 -203.164 203.3176)" width="5.67" height="5.67"/>
		<rect x="141.01" y="352.08" transform="matrix(0.7071 -0.7071 0.7071 0.7071 -208.8333 205.666)" width="5.67" height="5.67"/>
		<rect x="157.04" y="395.1" transform="matrix(0.7071 -0.7071 0.7071 0.7071 -234.5582 229.6055)" width="5.67" height="5.67"/>
		<rect x="149.03" y="395.1" transform="matrix(0.7071 -0.7071 0.7071 0.7071 -236.9065 223.9362)" width="5.67" height="5.67"/>
		<rect x="141.01" y="395.1" transform="matrix(0.7071 -0.7071 0.7071 0.7071 -239.2561 218.2699)" width="5.67" height="5.67"/>
		<rect x="141.01" y="387.09" transform="matrix(0.7071 -0.7071 0.7071 0.7071 -233.5855 215.9186)" width="5.67" height="5.67"/>
		<rect x="141.01" y="379.07" transform="matrix(0.7071 -0.7071 0.7071 0.7071 -227.9162 213.5703)" width="5.67" height="5.67"/>
		<rect x="199.3" y="437.36" transform="matrix(0.7071 -0.7071 0.7071 0.7071 -252.0638 271.868)" width="5.67" height="5.67"/>
		<rect x="199.3" y="445.38" transform="matrix(0.7071 -0.7071 0.7071 0.7071 -257.7318 274.2129)" width="5.67" height="5.67"/>
		<rect x="199.3" y="453.4" transform="matrix(0.7071 -0.7071 0.7071 0.7071 -263.4011 276.5612)" width="5.67" height="5.67"/>
		<rect x="207.32" y="453.4" transform="matrix(0.7071 -0.7071 0.7071 0.7071 -261.0528 282.2304)" width="5.67" height="5.67"/>
		<rect x="215.34" y="453.4" transform="matrix(0.7071 -0.7071 0.7071 0.7071 -258.7044 287.8998)" width="5.67" height="5.67"/>
		<rect x="258.36" y="437.36" transform="matrix(0.7071 -0.7071 0.7071 0.7071 -234.7658 313.6284)" width="5.67" height="5.67"/>
		<rect x="258.36" y="445.38" transform="matrix(0.7071 -0.7071 0.7071 0.7071 -240.4342 315.973)" width="5.67" height="5.67"/>
		<rect x="258.36" y="453.4" transform="matrix(0.7071 -0.7071 0.7071 0.7071 -246.1034 318.3213)" width="5.67" height="5.67"/>
		<rect x="250.34" y="453.4" transform="matrix(0.7071 -0.7071 0.7071 0.7071 -248.4517 312.652)" width="5.67" height="5.67"/>
		<rect x="242.33" y="453.4" transform="matrix(0.7071 -0.7071 0.7071 0.7071 -250.8 306.9827)" width="5.67" height="5.67"/>
		<rect x="300.62" y="395.1" transform="matrix(0.7071 -0.7071 0.7071 0.7071 -192.5053 331.1252)" width="5.67" height="5.67"/>
		<rect x="308.64" y="395.1" transform="matrix(0.7071 -0.7071 0.7071 0.7071 -190.157 336.7944)" width="5.67" height="5.67"/>
		<rect x="316.66" y="395.1" transform="matrix(0.7071 -0.7071 0.7071 0.7071 -187.8096 342.4714)" width="5.67" height="5.67"/>
		<rect x="316.66" y="387.09" transform="matrix(0.7071 -0.7071 0.7071 0.7071 -182.1399 340.1192)" width="5.67" height="5.67"/>
		<rect x="316.66" y="379.07" transform="matrix(0.7071 -0.7071 0.7071 0.7071 -176.4706 337.7709)" width="5.67" height="5.67"/>
		<rect x="300.62" y="336.05" transform="matrix(0.7071 -0.7071 0.7071 0.7071 -150.7457 313.8313)" width="5.67" height="5.67"/>
		<rect x="308.64" y="336.05" transform="matrix(0.7071 -0.7071 0.7071 0.7071 -148.3974 319.5006)" width="5.67" height="5.67"/>
		<rect x="316.66" y="336.05" transform="matrix(0.7071 -0.7071 0.7071 0.7071 -146.0491 325.1699)" width="5.67" height="5.67"/>
		<rect x="316.66" y="344.06" transform="matrix(0.7071 -0.7071 0.7071 0.7071 -151.7184 327.5182)" width="5.67" height="5.67"/>
		<rect x="316.66" y="352.08" transform="matrix(0.7071 -0.7071 0.7071 0.7071 -157.3877 329.8665)" width="5.67" height="5.67"/>
		<rect x="258.36" y="293.79" transform="matrix(0.7071 -0.7071 0.7071 0.7071 -133.2414 271.5723)" width="5.67" height="5.67"/>
		<rect x="258.36" y="285.77" transform="matrix(0.7071 -0.7071 0.7071 0.7071 -127.5722 269.224)" width="5.67" height="5.67"/>
		<rect x="258.36" y="277.75" transform="matrix(0.7071 -0.7071 0.7071 0.7071 -121.9029 266.8757)" width="5.67" height="5.67"/>
		<rect x="250.34" y="277.75" transform="matrix(0.7071 -0.7071 0.7071 0.7071 -124.2512 261.2064)" width="5.67" height="5.67"/>
		<rect x="242.33" y="277.75" transform="matrix(0.7071 -0.7071 0.7071 0.7071 -126.5995 255.5371)" width="5.67" height="5.67"/>
		<rect x="228.79" y="468.09" width="5.67" height="5.67"/>
		<rect x="223.12" y="473.76" width="5.67" height="5.67"/>
		<rect x="217.45" y="479.43" width="5.67" height="5.67"/>
		<rect x="223.12" y="485.1" width="5.67" height="5.67"/>
		<rect x="211.79" y="485.1" width="5.67" height="5.67"/>
		<rect x="206.12" y="490.76" width="5.67" height="5.67"/>
		<rect x="200.45" y="496.43" width="5.67" height="5.67"/>
		<rect x="194.78" y="502.1" width="5.67" height="5.67"/>
		<rect x="200.45" y="507.77" width="5.67" height="5.67"/>
		<rect x="211.79" y="496.43" width="5.67" height="5.67"/>
		<rect x="217.45" y="502.1" width="5.67" height="5.67"/>
		<rect x="211.79" y="507.77" width="5.67" height="5.67"/>
		<rect x="206.12" y="513.44" width="5.67" height="5.67"/>
		<rect x="223.12" y="507.77" width="5.67" height="5.67"/>
		<rect x="228.79" y="513.44" width="5.67" height="5.67"/>
		<rect x="234.46" y="507.77" width="5.67" height="5.67"/>
		<rect x="240.13" y="502.1" width="5.67" height="5.67"/>
		<rect x="245.8" y="507.77" width="5.67" height="5.67"/>
		<rect x="251.47" y="513.44" width="5.67" height="5.67"/>
		<rect x="245.8" y="496.43" width="5.67" height="5.67"/>
		<rect x="251.47" y="490.76" width="5.67" height="5.67"/>
		<rect x="257.14" y="496.43" width="5.67" height="5.67"/>
		<rect x="262.81" y="502.1" width="5.67" height="5.67"/>
		<rect x="257.14" y="507.77" width="5.67" height="5.67"/>
		<rect x="245.8" y="485.1" width="5.67" height="5.67"/>
		<rect x="240.13" y="479.43" width="5.67" height="5.67"/>
		<rect x="234.46" y="485.1" width="5.67" height="5.67"/>
		<rect x="228.79" y="490.76" width="5.67" height="5.67"/>
		<rect x="234.46" y="496.43" width="5.67" height="5.67"/>
		<rect x="223.12" y="496.43" width="5.67" height="5.67"/>
		<rect x="234.46" y="473.76" width="5.67" height="5.67"/>
		<polygon points="221.61,529.42 241.65,529.42 231.63,519.39 		"/>
		<rect x="229.63" y="529.42" width="4" height="20.58"/>
		<rect x="221.65" y="529.42" width="4" height="20.58"/>
		<rect x="237.6" y="529.42" width="4" height="20.58"/>
		<polygon points="198.93,529.42 218.97,529.42 208.95,519.39 		"/>
		<rect x="206.95" y="529.42" width="4" height="10.38"/>
		<rect x="198.98" y="529.42" width="4" height="10.38"/>
		<rect x="214.93" y="529.42" width="4" height="10.38"/>
		<polygon points="244.28,529.42 264.33,529.42 254.31,519.39 		"/>
		<rect x="252.31" y="529.42" width="4" height="10.38"/>
		<rect x="260.28" y="529.42" width="4" height="10.38"/>
		<rect x="244.33" y="529.42" width="4" height="10.38"/>
		<rect x="331.34" y="365.54" width="5.67" height="5.67"/>
		<rect x="337.01" y="371.21" width="5.67" height="5.67"/>
		<rect x="342.68" y="376.88" width="5.67" height="5.67"/>
		<rect x="348.35" y="371.21" width="5.67" height="5.67"/>
		<rect x="348.35" y="382.54" width="5.67" height="5.67"/>
		<rect x="354.02" y="388.21" width="5.67" height="5.67"/>
		<rect x="359.69" y="393.88" width="5.67" height="5.67"/>
		<rect x="365.36" y="399.55" width="5.67" height="5.67"/>
		<rect x="371.03" y="393.88" width="5.67" height="5.67"/>
		<rect x="359.69" y="382.54" width="5.67" height="5.67"/>
		<rect x="365.36" y="376.88" width="5.67" height="5.67"/>
		<rect x="371.03" y="382.54" width="5.67" height="5.67"/>
		<rect x="376.7" y="388.21" width="5.67" height="5.67"/>
		<rect x="371.03" y="371.21" width="5.67" height="5.67"/>
		<rect x="376.7" y="365.54" width="5.67" height="5.67"/>
		<rect x="371.03" y="359.87" width="5.67" height="5.67"/>
		<rect x="365.36" y="354.2" width="5.67" height="5.67"/>
		<rect x="371.03" y="348.53" width="5.67" height="5.67"/>
		<rect x="376.7" y="342.86" width="5.67" height="5.67"/>
		<rect x="359.69" y="348.53" width="5.67" height="5.67"/>
		<rect x="354.02" y="342.86" width="5.67" height="5.67"/>
		<rect x="359.69" y="337.19" width="5.67" height="5.67"/>
		<rect x="365.36" y="331.52" width="5.67" height="5.67"/>
		<rect x="371.03" y="337.19" width="5.67" height="5.67"/>
		<rect x="348.35" y="348.53" width="5.67" height="5.67"/>
		<rect x="342.68" y="354.2" width="5.67" height="5.67"/>
		<rect x="348.35" y="359.87" width="5.67" height="5.67"/>
		<rect x="354.02" y="365.54" width="5.67" height="5.67"/>
		<rect x="359.69" y="359.87" width="5.67" height="5.67"/>
		<rect x="359.69" y="371.21" width="5.67" height="5.67"/>
		<rect x="337.01" y="359.87" width="5.67" height="5.67"/>
		<polygon points="413.26,362.4 413.26,358.4 392.67,358.4 392.67,358.35 382.65,368.37 392.67,378.39 392.67,378.35 413.26,378.35 
			413.26,374.35 392.67,374.35 392.67,370.37 413.26,370.37 413.26,366.37 392.67,366.37 392.67,362.4 		"/>
		<polygon points="392.67,381.03 382.65,391.05 392.67,401.07 392.67,401.02 403.05,401.02 403.05,397.02 392.67,397.02 
			392.67,393.05 403.05,393.05 403.05,389.05 392.67,389.05 392.67,385.07 403.05,385.07 403.05,381.07 392.67,381.07 		"/>
		<polygon points="392.67,355.67 403.05,355.67 403.05,351.67 392.67,351.67 392.67,347.69 403.05,347.69 403.05,343.69 
			392.67,343.69 392.67,339.72 403.05,339.72 403.05,335.72 392.67,335.72 392.67,335.67 382.65,345.69 392.67,355.72 		"/>
		<rect x="228.79" y="262.99" width="5.67" height="5.67"/>
		<rect x="234.46" y="257.32" width="5.67" height="5.67"/>
		<rect x="240.13" y="251.65" width="5.67" height="5.67"/>
		<rect x="234.46" y="245.98" width="5.67" height="5.67"/>
		<rect x="245.8" y="245.98" width="5.67" height="5.67"/>
		<rect x="251.47" y="240.31" width="5.67" height="5.67"/>
		<rect x="257.14" y="234.64" width="5.67" height="5.67"/>
		<rect x="262.81" y="228.97" width="5.67" height="5.67"/>
		<rect x="257.14" y="223.3" width="5.67" height="5.67"/>
		<rect x="245.8" y="234.64" width="5.67" height="5.67"/>
		<rect x="240.13" y="228.97" width="5.67" height="5.67"/>
		<rect x="245.8" y="223.3" width="5.67" height="5.67"/>
		<rect x="251.47" y="217.63" width="5.67" height="5.67"/>
		<rect x="234.46" y="223.3" width="5.67" height="5.67"/>
		<rect x="228.79" y="217.63" width="5.67" height="5.67"/>
		<rect x="223.12" y="223.3" width="5.67" height="5.67"/>
		<rect x="217.45" y="228.97" width="5.67" height="5.67"/>
		<rect x="211.79" y="223.3" width="5.67" height="5.67"/>
		<rect x="206.12" y="217.63" width="5.67" height="5.67"/>
		<rect x="211.79" y="234.64" width="5.67" height="5.67"/>
		<rect x="206.12" y="240.31" width="5.67" height="5.67"/>
		<rect x="200.45" y="234.64" width="5.67" height="5.67"/>
		<rect x="194.78" y="228.97" width="5.67" height="5.67"/>
		<rect x="200.45" y="223.3" width="5.67" height="5.67"/>
		<rect x="211.79" y="245.98" width="5.67" height="5.67"/>
		<rect x="217.45" y="251.65" width="5.67" height="5.67"/>
		<rect x="223.12" y="245.98" width="5.67" height="5.67"/>
		<rect x="228.79" y="240.31" width="5.67" height="5.67"/>
		<rect x="223.12" y="234.64" width="5.67" height="5.67"/>
		<rect x="234.46" y="234.64" width="5.67" height="5.67"/>
		<rect x="223.12" y="257.32" width="5.67" height="5.67"/>
		<polygon points="231.63,217.35 241.65,207.33 241.6,207.33 241.6,186.74 237.6,186.74 237.6,207.33 233.63,207.33 233.63,186.74 
			229.63,186.74 229.63,207.33 225.65,207.33 225.65,186.74 221.65,186.74 221.65,207.33 221.61,207.33 		"/>
		<polygon points="254.31,217.35 264.33,207.33 264.28,207.33 264.28,196.95 260.28,196.95 260.28,207.33 256.31,207.33 
			256.31,196.95 252.31,196.95 252.31,207.33 248.33,207.33 248.33,196.95 244.33,196.95 244.33,207.33 244.28,207.33 		"/>
		<polygon points="208.95,217.35 218.97,207.33 218.93,207.33 218.93,196.95 214.93,196.95 214.93,207.33 210.95,207.33 
			210.95,196.95 206.95,196.95 206.95,207.33 202.98,207.33 202.98,196.95 198.98,196.95 198.98,207.33 198.93,207.33 		"/>
		<rect x="126.24" y="365.54" width="5.67" height="5.67"/>
		<rect x="120.57" y="359.87" width="5.67" height="5.67"/>
		<rect x="114.9" y="354.2" width="5.67" height="5.67"/>
		<rect x="109.24" y="359.87" width="5.67" height="5.67"/>
		<rect x="109.24" y="348.53" width="5.67" height="5.67"/>
		<rect x="103.57" y="342.86" width="5.67" height="5.67"/>
		<rect x="97.9" y="337.19" width="5.67" height="5.67"/>
		<rect x="92.23" y="331.52" width="5.67" height="5.67"/>
		<rect x="86.56" y="337.19" width="5.67" height="5.67"/>
		<rect x="97.9" y="348.53" width="5.67" height="5.67"/>
		<rect x="92.23" y="354.2" width="5.67" height="5.67"/>
		<rect x="86.56" y="348.53" width="5.67" height="5.67"/>
		<rect x="80.89" y="342.86" width="5.67" height="5.67"/>
		<rect x="86.56" y="359.87" width="5.67" height="5.67"/>
		<rect x="80.89" y="365.54" width="5.67" height="5.67"/>
		<rect x="86.56" y="371.21" width="5.67" height="5.67"/>
		<rect x="92.23" y="376.88" width="5.67" height="5.67"/>
		<rect x="86.56" y="382.54" width="5.67" height="5.67"/>
		<rect x="80.89" y="388.21" width="5.67" height="5.67"/>
		<rect x="97.9" y="382.54" width="5.67" height="5.67"/>
		<rect x="103.57" y="388.21" width="5.67" height="5.67"/>
		<rect x="97.9" y="393.88" width="5.67" height="5.67"/>
		<rect x="92.23" y="399.55" width="5.67" height="5.67"/>
		<rect x="86.56" y="393.88" width="5.67" height="5.67"/>
		<rect x="109.24" y="382.54" width="5.67" height="5.67"/>
		<rect x="114.9" y="376.88" width="5.67" height="5.67"/>
		<rect x="109.24" y="371.21" width="5.67" height="5.67"/>
		<rect x="103.57" y="365.54" width="5.67" height="5.67"/>
		<rect x="97.9" y="371.21" width="5.67" height="5.67"/>
		<rect x="97.9" y="359.87" width="5.67" height="5.67"/>
		<rect x="120.57" y="371.21" width="5.67" height="5.67"/>
		<polygon points="70.58,378.39 80.61,368.37 70.58,358.35 		"/>
		<rect x="50" y="366.37" width="20.58" height="4"/>
		<rect x="50" y="358.4" width="20.58" height="4"/>
		<rect x="50" y="374.35" width="20.58" height="4"/>
		<polygon points="70.58,355.72 80.61,345.69 70.58,335.67 		"/>
		<rect x="60.21" y="343.69" width="10.38" height="4"/>
		<rect x="60.21" y="335.72" width="10.38" height="4"/>
		<rect x="60.21" y="351.67" width="10.38" height="4"/>
		<polygon points="70.58,401.07 80.61,391.05 70.58,381.03 		"/>
		<rect x="60.21" y="389.05" width="10.38" height="4"/>
		<rect x="60.21" y="397.02" width="10.38" height="4"/>
		<rect x="60.21" y="381.07" width="10.38" height="4"/>
		<path d="M257.04,368.37l-25.41-25.41l-25.41,25.41l25.41,25.41L257.04,368.37z M231.63,347.86l20.51,20.51l-20.51,20.51
			l-20.51-20.51L231.63,347.86z"/>
		<path d="M272.03,368.37l-40.4-40.4l-40.4,40.4l40.4,40.4L272.03,368.37z M231.63,332.87l35.51,35.51l-35.51,35.51l-35.51-35.51
			L231.63,332.87z"/>
		<path d="M328.85,368.37l-22.03-22.03l-6.64-6.64l-6.65-6.65l-6.64-6.64l-6.65-6.65l-13.29-13.29l-6.64-6.65l-6.65-6.64
			l-22.03-22.03l-22.03,22.03l-3.45,3.44l-3.2,3.2l-0.81,0.81l-5.83,5.84l-6.65,6.65l-6.64,6.64l-6.65,6.65l-6.64,6.64l-6.65,6.65
			l-6.64,6.64l-22.03,22.03v0.01l22.03,22.02v0.01l6.64,6.64l6.65,6.65l6.64,6.64l6.65,6.65l6.64,6.64l19.94,19.94l22.03,22.02
			l22.03-22.02l6.65-6.65l19.93-19.93l6.65-6.65l6.64-6.64l6.65-6.65l6.65-6.64l-0.01-0.01L328.85,368.37L328.85,368.37z
			 M302.29,347.82l-16.02,16.01l-3.58-3.58l16.02-16.01L302.29,347.82z M284.79,368.37L284.79,368.37l-6.64,6.65l-6.65,6.64
			l-6.64,6.65l-6.65,6.65l-6.64,6.64l-6.65,6.65l-6.64,6.64l-6.65,6.65l-6.65-6.65l-6.64-6.64l-6.65-6.65l-6.64-6.64l-6.65-6.65
			l-6.64-6.65l-6.65-6.64l-6.64-6.64v-0.01l53.16-53.16l6.65,6.65l6.64,6.64l6.65,6.65l6.64,6.64l6.65,6.65l6.64,6.64l6.65,6.65
			L284.79,368.37z M295.64,341.17l-16.02,16.02l-3.58-3.58l16.02-16.02L295.64,341.17z M288.99,334.52l-16.01,16.02l-3.58-3.58
			l16.02-16.01L288.99,334.52z M282.35,327.88l-16.02,16.02l-3.58-3.58l16.02-16.02L282.35,327.88z M275.7,321.23l-16.02,16.02
			l-3.57-3.58l16.01-16.02L275.7,321.23z M269.06,314.59l-16.02,16.02l-3.58-3.58l16.02-16.02L269.06,314.59z M262.41,307.94
			l-16.02,16.02l-3.57-3.58l16.01-16.02L262.41,307.94z M255.77,301.3l-16.02,16.02l-3.58-3.58l16.02-16.02L255.77,301.3z
			 M231.63,277.16l3.04,3.05l-3.04,3.04l-3.04-3.04L231.63,277.16z M225.59,283.2l6.04,6.03l6.04-6.03l3.49,3.49l-9.53,9.53
			l-9.53-9.53L225.59,283.2z M219.11,289.69l12.52,12.52l12.52-12.52l4.1,4.09l-16.62,16.62l-16.62-16.62L219.11,289.69z
			 M211.07,297.72l16.02,16.02l-3.58,3.58l-16.02-16.02L211.07,297.72z M204.43,304.36l16.01,16.02l-3.57,3.58l-16.02-16.02
			L204.43,304.36z M197.78,311.01l16.02,16.02l-3.58,3.58l-16.02-16.02L197.78,311.01z M191.14,317.65l16.01,16.02l-3.57,3.58
			l-16.02-16.02L191.14,317.65z M184.49,324.3l16.02,16.02l-3.58,3.58l-16.02-16.02L184.49,324.3z M177.84,330.95l16.02,16.01
			l-3.58,3.58l-16.01-16.02L177.84,330.95z M171.2,337.59l16.02,16.02l-3.58,3.58l-16.02-16.02L171.2,337.59z M164.55,344.24
			l16.02,16.02l-3.58,3.57l-16.02-16.01L164.55,344.24z M140.42,368.37l3.04-3.04l3.04,3.04l-3.04,3.05L140.42,368.37z
			 M146.46,374.41l6.03-6.03v-0.01l-6.03-6.03l3.49-3.5l9.53,9.53l-9.53,9.53L146.46,374.41z M152.94,380.9l12.52-12.52h0.01v-0.01
			h-0.01l-12.52-12.52l4.1-4.1l16.62,16.62l-16.62,16.62L152.94,380.9z M160.98,388.93l16.01-16.02l3.58,3.58l-16.02,16.02
			L160.98,388.93z M167.62,395.58l16.02-16.02l3.58,3.58l-16.02,16.02L167.62,395.58z M174.27,402.22l16.01-16.02l3.58,3.58
			l-16.01,16.02L174.27,402.22z M180.91,408.87l16.02-16.02l3.58,3.58l-16.02,16.02L180.91,408.87z M187.56,415.51l16.02-16.01
			l3.57,3.57l-16.01,16.02L187.56,415.51z M194.2,422.16l16.02-16.02l3.58,3.58l-16.02,16.02L194.2,422.16z M200.85,428.8
			l16.02-16.01l3.58,3.58l-16.02,16.01L200.85,428.8z M207.49,435.45l16.02-16.02l3.58,3.58l-16.02,16.02L207.49,435.45z
			 M231.63,459.58l-3.04-3.04l3.04-3.04l3.04,3.04L231.63,459.58z M237.67,453.55l-6.04-6.03l-6.04,6.03l-3.49-3.5l9.53-9.53
			l9.53,9.53L237.67,453.55z M244.15,447.06l-12.52-12.52l-12.52,12.52l-4.1-4.1l16.62-16.62l16.62,16.62L244.15,447.06z
			 M252.19,439.03l-16.02-16.02l3.58-3.58l16.02,16.02L252.19,439.03z M258.83,432.38l-16.01-16.02l3.57-3.57l16.02,16.01
			L258.83,432.38z M265.48,425.74l-16.02-16.02l3.58-3.58l16.02,16.02L265.48,425.74z M272.12,419.09l-16.01-16.02l3.58-3.58
			l16.01,16.02L272.12,419.09z M278.77,412.45l-16.02-16.02l3.58-3.58l16.02,16.02L278.77,412.45z M285.42,405.8l-16.02-16.02
			l3.58-3.58l16.01,16.02L285.42,405.8z M292.06,399.16l-16.02-16.02l3.58-3.58l16.02,16.02L292.06,399.16z M298.71,392.51
			l-16.02-16.02l3.58-3.58l16.02,16.02L298.71,392.51z M306.22,384.99l-16.62-16.62l16.62-16.62l4.1,4.1l-12.52,12.52h-0.01v0.01
			h0.01l12.52,12.52L306.22,384.99z M313.31,377.9l-9.53-9.53l9.53-9.53l3.49,3.5l-6.03,6.03v0.01l6.03,6.03L313.31,377.9z
			 M319.8,371.42l-3.04-3.05l3.04-3.04l3.04,3.04L319.8,371.42z"/>
	</g>
</g>
<g>
</g>
<g>
</g>
<g>
</g>
<g>
</g>
<g>
</g>
<g>
</g>
<g>
</g>
<g>
</g>
<g>
</g>
<g>
</g>
<g>
</g>
<g>
</g>
<g>
</g>
<g>
</g>
<g>
</g>
</svg>
