<?xml version="1.0" encoding="utf-8"?>
<!-- Generator: Adobe Illustrator 27.2.0, SVG Export Plug-In . SVG Version: 6.00 Build 0)  -->
<svg version="1.1" id="Layer_1" xmlns="http://www.w3.org/2000/svg" xmlns:xlink="http://www.w3.org/1999/xlink" x="0px" y="0px"
	 viewBox="0 0 800 600" style="enable-background:new 0 0 800 600;" xml:space="preserve">
<g>
	<g>
		<g>
			<g>
				<rect x="352.28" y="548.82" width="5.67" height="1.18"/>
				<rect x="335.31" y="548.46" width="5.62" height="1.54"/>
				<rect x="318.31" y="548.82" width="5.67" height="1.18"/>
				<g>
					<polygon points="363.62,548.82 369.28,548.82 369.28,549.16 369.63,548.82 369.28,548.82 369.28,543.15 369.63,543.15 
						369.28,542.8 369.28,543.15 363.62,543.15 363.62,537.48 363.96,537.48 363.62,537.13 363.62,537.48 357.95,537.48 
						357.95,531.81 358.29,531.81 357.95,531.46 357.95,531.81 352.28,531.81 352.28,526.14 352.62,526.14 352.28,525.79 
						352.28,526.14 346.61,526.14 346.61,520.47 346.95,520.47 346.61,520.12 346.61,520.47 340.94,520.47 340.94,514.8 
						341.28,514.8 340.94,514.46 340.94,514.8 335.31,514.8 335.31,514.46 334.97,514.8 335.31,514.8 335.31,520.47 329.64,520.47 
						329.64,520.12 329.3,520.47 329.64,520.47 329.64,526.14 323.98,526.14 323.98,525.79 323.63,526.14 323.98,526.14 
						323.98,531.81 318.31,531.81 318.31,531.46 317.96,531.81 318.31,531.81 318.31,537.48 312.64,537.48 312.64,537.13 
						312.29,537.48 312.64,537.48 312.64,543.15 306.97,543.15 306.97,542.8 306.62,543.15 306.97,543.15 306.97,548.82 
						306.62,548.82 306.97,549.16 306.97,548.82 312.64,548.82 312.64,550 302.15,550 298.13,545.98 333.38,510.74 338.13,505.99 
						342.88,510.74 373.37,541.23 378.12,545.98 374.1,550 363.62,550 					"/>
					<g>
						<rect x="318.31" y="537.48" width="5.67" height="5.67"/>
						<rect x="352.28" y="537.48" width="5.67" height="5.67"/>
						<rect x="346.61" y="543.15" width="5.67" height="5.67"/>
						<rect x="335.29" y="525.75" width="5.67" height="5.67"/>
						<rect x="335.29" y="537.86" width="5.67" height="5.67"/>
						<rect x="341.35" y="531.81" width="5.67" height="5.67"/>
						<rect x="329.24" y="531.81" width="5.67" height="5.67"/>
						<rect x="323.98" y="543.15" width="5.67" height="5.67"/>
					</g>
				</g>
			</g>
			<g>
				<g>
					<polygon points="270.03,531.81 259.5,542.33 259.5,542.33 260.82,541.01 265.79,545.98 281.57,545.98 268.71,533.12 
						270.03,531.81 270.03,531.81 270.03,531.81 270.03,531.81 					"/>
					<polygon points="259.5,542.33 255.85,545.98 260.53,545.98 258.19,543.64 259.5,542.33 259.5,542.33 259.5,542.33 
						259.5,542.33 					"/>
					<polygon points="261.77,550 277.55,550 281.57,545.98 265.79,545.98 					"/>
					<polygon points="255.85,545.98 252.08,549.75 259.5,549.63 259.5,549.63 259.5,549.63 259.5,549.63 258.19,548.32 
						260.53,545.98 					"/>
					<polygon points="338.13,493.96 338.13,493.96 336.45,495.63 321.33,480.51 322.64,479.19 322.64,479.19 322.64,479.19 
						322.64,479.19 322.64,479.19 312.12,489.71 312.12,489.72 313.43,488.4 328.56,503.53 327.36,504.72 325.93,506.16 
						310.8,491.03 312.12,489.72 312.12,489.72 312.12,489.72 312.12,489.71 312.12,489.71 301.6,500.24 301.6,500.24 
						302.91,498.92 318.04,514.05 315.41,516.68 300.28,501.55 301.6,500.24 301.6,500.24 301.6,500.24 301.6,500.24 301.59,500.24 
						291.07,510.76 291.07,510.76 292.39,509.45 307.52,524.57 304.88,527.2 289.76,512.08 291.07,510.76 291.07,510.76 
						291.07,510.76 291.07,510.76 291.07,510.76 280.55,521.28 280.55,521.28 281.87,519.97 296.99,535.1 296.87,535.22 
						294.36,537.73 279.24,522.6 280.55,521.28 280.55,521.28 280.55,521.28 280.55,521.28 280.55,521.28 270.03,531.81 
						270.03,531.81 271.34,530.49 286.47,545.62 286.11,545.98 286.47,546.34 282.81,550 295.78,550 291.76,545.98 299.7,538.05 
						338.13,499.62 338.13,499.62 					"/>
					<polygon points="338.13,471 338.13,463.71 333.16,468.67 333.16,468.67 334.48,467.35 					"/>
					<polygon points="338.13,492.05 338.13,476.26 331.85,469.98 333.16,468.67 333.16,468.67 333.16,468.67 333.16,468.67 
						333.16,468.67 322.64,479.19 322.64,479.19 323.96,477.88 					"/>
				</g>
				<g>
					<polygon points="406.23,531.81 416.75,542.33 416.75,542.33 415.43,541.01 410.47,545.98 394.68,545.98 407.54,533.12 
						406.23,531.81 406.23,531.81 406.23,531.81 406.23,531.81 					"/>
					<polygon points="416.75,542.33 420.4,545.98 415.73,545.98 418.06,543.64 416.75,542.33 416.75,542.33 416.75,542.33 
						416.75,542.33 					"/>
					<polygon points="414.48,550 398.7,550 394.68,545.98 410.47,545.98 					"/>
					<polygon points="420.4,545.98 424.17,549.75 416.75,549.63 416.75,549.63 416.75,549.63 416.75,549.63 418.06,548.32 
						415.73,545.98 					"/>
					<polygon points="338.13,493.96 338.13,493.96 339.8,495.63 354.93,480.51 353.61,479.19 353.61,479.19 353.61,479.19 
						353.61,479.19 353.61,479.19 364.13,489.71 364.13,489.72 362.82,488.4 347.69,503.53 348.89,504.72 350.32,506.16 
						365.45,491.03 364.13,489.72 364.13,489.72 364.13,489.72 364.13,489.71 364.13,489.71 374.66,500.24 374.66,500.24 
						373.34,498.92 358.21,514.05 360.84,516.68 375.97,501.55 374.66,500.24 374.66,500.24 374.66,500.24 374.66,500.24 
						374.66,500.24 385.18,510.76 385.18,510.76 383.86,509.45 368.74,524.57 371.37,527.2 386.49,512.08 385.18,510.76 
						385.18,510.76 385.18,510.76 385.18,510.76 385.18,510.76 395.7,521.28 395.7,521.28 394.39,519.97 379.26,535.1 
						379.38,535.22 381.89,537.73 397.02,522.6 395.7,521.28 395.7,521.28 395.7,521.28 395.7,521.28 395.7,521.28 406.23,531.81 
						406.23,531.81 404.91,530.49 389.78,545.62 390.15,545.98 389.78,546.34 393.44,550 380.47,550 384.49,545.98 376.55,538.05 
						338.13,499.62 338.13,499.62 					"/>
					<polygon points="338.13,471 338.13,463.71 343.09,468.67 343.09,468.67 341.77,467.35 					"/>
					<polygon points="338.13,492.05 338.13,476.26 344.4,469.98 343.09,468.67 343.09,468.67 343.09,468.67 343.09,468.67 
						343.09,468.67 353.61,479.19 353.61,479.19 352.3,477.88 					"/>
				</g>
			</g>
			<g>
				<g>
					
						<rect x="319.24" y="442.47" transform="matrix(0.7071 -0.7071 0.7071 0.7071 -220.5435 358.1647)" width="5.67" height="5.67"/>
					<rect x="311.22" y="458.5" transform="matrix(0.7071 -0.7071 0.7071 0.7071 -234.2312 357.1961)" width="5.67" height="5.67"/>
					
						<rect x="311.22" y="450.48" transform="matrix(0.7071 -0.7071 0.7071 0.7071 -228.5611 354.8437)" width="5.67" height="5.67"/>
					
						<rect x="311.22" y="466.52" transform="matrix(0.7071 -0.7071 0.7071 0.7071 -239.8997 359.5403)" width="5.67" height="5.67"/>
					
						<rect x="295.18" y="466.52" transform="matrix(0.7071 -0.7071 0.7071 0.7071 -244.5972 348.2058)" width="5.67" height="5.67"/>
					<rect x="303.2" y="458.5" transform="matrix(0.7071 -0.7071 0.7071 0.7071 -236.5779 351.5185)" width="5.67" height="5.67"/>
					<polygon points="300.02,479.38 302.03,477.37 298.02,473.36 294.01,477.37 298.02,481.38 					"/>
					
						<rect x="295.18" y="490.57" transform="matrix(0.7071 -0.7071 0.7071 0.7071 -261.6042 355.2466)" width="5.67" height="5.67"/>
					
						<rect x="311.22" y="474.54" transform="matrix(0.7071 -0.7071 0.7071 0.7071 -245.5699 361.8928)" width="5.67" height="5.67"/>
					<rect x="303.2" y="474.54" transform="matrix(0.7071 -0.7071 0.7071 0.7071 -247.9173 356.2193)" width="5.67" height="5.67"/>
					
						<rect x="327.25" y="450.48" transform="matrix(0.7071 -0.7071 0.7071 0.7071 -223.8652 366.1865)" width="5.67" height="5.67"/>
					
						<rect x="263.11" y="490.57" transform="matrix(0.7071 -0.7071 0.7071 0.7071 -270.9974 332.5694)" width="5.67" height="5.67"/>
					
						<rect x="279.15" y="474.54" transform="matrix(0.7071 -0.7071 0.7071 0.7071 -254.9612 339.2073)" width="5.67" height="5.67"/>
					
						<rect x="311.22" y="442.47" transform="matrix(0.7071 -0.7071 0.7071 0.7071 -222.8918 352.4954)" width="5.67" height="5.67"/>
					<rect x="295.18" y="458.5" transform="matrix(0.7071 -0.7071 0.7071 0.7071 -238.9279 345.8575)" width="5.67" height="5.67"/>
					
						<rect x="215.01" y="538.68" transform="matrix(0.7071 -0.7071 0.7071 0.7071 -319.1029 312.6434)" width="5.67" height="5.67"/>
					<rect x="247.08" y="506.61" transform="matrix(0.7071 -0.7071 0.7071 0.7071 -287.034 325.9315)" width="5.67" height="5.67"/>
					
						<rect x="231.04" y="522.64" transform="matrix(0.7071 -0.7071 0.7071 0.7071 -303.0662 319.2813)" width="5.67" height="5.67"/>
					<polygon points="338.13,433.26 338.13,425.28 338.11,425.26 334.1,429.27 338.11,433.28 					"/>
					
						<rect x="327.25" y="426.43" transform="matrix(0.7071 -0.7071 0.7071 0.7071 -206.8561 359.1333)" width="5.67" height="5.67"/>
					<polygon points="338.13,449.29 338.13,441.31 338.11,441.29 334.1,445.3 338.11,449.31 					"/>
					<rect x="327.25" y="458.5" transform="matrix(0.7071 -0.7071 0.7071 0.7071 -229.5331 368.5263)" width="5.67" height="5.67"/>
					<polygon points="334.1,445.3 330.09,441.29 328.08,443.3 326.08,445.3 330.09,449.31 					"/>
					
						<rect x="327.25" y="434.45" transform="matrix(0.7071 -0.7071 0.7071 0.7071 -212.5259 361.4857)" width="5.67" height="5.67"/>
					<rect x="319.24" y="458.5" transform="matrix(0.7071 -0.7071 0.7071 0.7071 -231.8821 362.8613)" width="5.67" height="5.67"/>
					<polygon points="285.99,493.41 281.98,489.4 279.98,491.4 277.97,493.41 281.98,497.42 					"/>
					<rect x="239.06" y="538.68" transform="matrix(0.7071 -0.7071 0.7071 0.7071 -312.058 329.6513)" width="5.67" height="5.67"/>
					<rect x="231.04" y="530.66" transform="matrix(0.7071 -0.7071 0.7071 0.7071 -308.737 321.6337)" width="5.67" height="5.67"/>
					
						<rect x="239.06" y="522.64" transform="matrix(0.7071 -0.7071 0.7071 0.7071 -300.7209 324.9589)" width="5.67" height="5.67"/>
					
						<rect x="247.08" y="514.63" transform="matrix(0.7071 -0.7071 0.7071 0.7071 -292.7018 328.2757)" width="5.67" height="5.67"/>
					<polygon points="251.92,527.48 253.92,525.48 249.91,521.47 245.9,525.48 249.91,529.49 					"/>
					
						<rect x="247.08" y="538.68" transform="matrix(0.7071 -0.7071 0.7071 0.7071 -309.7097 335.3206)" width="5.67" height="5.67"/>
					
						<rect x="247.08" y="530.66" transform="matrix(0.7071 -0.7071 0.7071 0.7071 -304.0389 332.9681)" width="5.67" height="5.67"/>
					<polygon points="263.17,538.73 263.17,538.73 279.21,522.7 295.24,506.66 311.28,490.63 311.28,490.63 311.28,490.63 
						327.31,474.59 338.13,463.78 338.13,458.12 276.38,519.87 276.38,519.87 260.34,535.91 246.25,550 251.9,550 263.17,538.74 
											"/>
					<polygon points="237.89,541.51 233.88,537.5 231.87,539.51 231.87,539.51 229.87,541.51 233.88,545.52 					"/>
					<polygon points="221.85,549.53 217.84,545.52 213.83,549.53 214.3,550 221.38,550 					"/>
					<polygon points="204.53,550 303.62,450.91 303.62,450.91 319.66,434.87 319.66,434.87 338.13,416.41 338.13,410.75 
						268.73,480.15 268.73,480.15 252.69,496.19 220.62,528.26 220.62,528.26 204.59,544.29 198.88,550 					"/>
					<polygon points="230.34,550 237.42,550 237.89,549.53 233.88,545.52 229.87,549.53 					"/>
					
						<rect x="223.03" y="538.68" transform="matrix(0.7071 -0.7071 0.7071 0.7071 -316.7546 318.3127)" width="5.67" height="5.67"/>
					
						<rect x="279.15" y="498.59" transform="matrix(0.7071 -0.7071 0.7071 0.7071 -271.9713 346.2605)" width="5.67" height="5.67"/>
					
						<rect x="279.15" y="482.56" transform="matrix(0.7071 -0.7071 0.7071 0.7071 -260.6315 341.5597)" width="5.67" height="5.67"/>
					
						<rect x="279.15" y="506.61" transform="matrix(0.7071 -0.7071 0.7071 0.7071 -277.6381 348.6003)" width="5.67" height="5.67"/>
					
						<rect x="271.13" y="506.61" transform="matrix(0.7071 -0.7071 0.7071 0.7071 -279.9876 342.9353)" width="5.67" height="5.67"/>
					
						<rect x="295.18" y="482.56" transform="matrix(0.7071 -0.7071 0.7071 0.7071 -255.9339 352.8941)" width="5.67" height="5.67"/>
					
						<rect x="287.17" y="474.54" transform="matrix(0.7071 -0.7071 0.7071 0.7071 -252.6149 344.8848)" width="5.67" height="5.67"/>
					
						<rect x="287.17" y="490.57" transform="matrix(0.7071 -0.7071 0.7071 0.7071 -263.9525 349.5773)" width="5.67" height="5.67"/>
					
						<rect x="263.11" y="498.59" transform="matrix(0.7071 -0.7071 0.7071 0.7071 -276.6667 334.9177)" width="5.67" height="5.67"/>
					
						<rect x="263.11" y="522.64" transform="matrix(0.7071 -0.7071 0.7071 0.7071 -293.6759 341.9669)" width="5.67" height="5.67"/>
					<rect x="255.1" y="522.64" transform="matrix(0.7071 -0.7071 0.7071 0.7071 -296.0228 336.2933)" width="5.67" height="5.67"/>
					
						<rect x="263.11" y="514.63" transform="matrix(0.7071 -0.7071 0.7071 0.7071 -288.0052 339.6143)" width="5.67" height="5.67"/>
					<rect x="255.1" y="506.61" transform="matrix(0.7071 -0.7071 0.7071 0.7071 -284.6829 331.5926)" width="5.67" height="5.67"/>
					<rect x="271.13" y="490.57" transform="matrix(0.7071 -0.7071 0.7071 0.7071 -268.649 338.2387)" width="5.67" height="5.67"/>
					
						<rect x="263.11" y="506.61" transform="matrix(0.7071 -0.7071 0.7071 0.7071 -282.3372 337.2702)" width="5.67" height="5.67"/>
				</g>
				<g>
					
						<rect x="351.35" y="442.47" transform="matrix(0.7071 -0.7071 0.7071 0.7071 -211.1387 380.8698)" width="5.67" height="5.67"/>
					<rect x="359.36" y="458.5" transform="matrix(0.7071 -0.7071 0.7071 0.7071 -220.1285 391.2313)" width="5.67" height="5.67"/>
					
						<rect x="359.36" y="450.48" transform="matrix(0.7071 -0.7071 0.7071 0.7071 -214.4597 388.8874)" width="5.67" height="5.67"/>
					<rect x="359.36" y="466.52" transform="matrix(0.7071 -0.7071 0.7071 0.7071 -225.7983 393.584)" width="5.67" height="5.67"/>
					<rect x="375.4" y="466.52" transform="matrix(0.7071 -0.7071 0.7071 0.7071 -221.1013 404.918)" width="5.67" height="5.67"/>
					<rect x="367.38" y="458.5" transform="matrix(0.7071 -0.7071 0.7071 0.7071 -217.7812 396.9095)" width="5.67" height="5.67"/>
					<polygon points="376.23,479.38 374.23,477.37 378.23,473.36 382.24,477.37 378.23,481.38 					"/>
					<rect x="375.4" y="490.57" transform="matrix(0.7071 -0.7071 0.7071 0.7071 -238.1096 411.9675)" width="5.67" height="5.67"/>
					<rect x="359.36" y="474.54" transform="matrix(0.7071 -0.7071 0.7071 0.7071 -231.467 395.9278)" width="5.67" height="5.67"/>
					
						<rect x="367.38" y="474.54" transform="matrix(0.7071 -0.7071 0.7071 0.7071 -229.1193 401.6016)" width="5.67" height="5.67"/>
					
						<rect x="343.33" y="450.48" transform="matrix(0.7071 -0.7071 0.7071 0.7071 -219.1558 377.5445)" width="5.67" height="5.67"/>
					
						<rect x="407.47" y="490.57" transform="matrix(0.7071 -0.7071 0.7071 0.7071 -228.7164 434.6447)" width="5.67" height="5.67"/>
					
						<rect x="391.43" y="474.54" transform="matrix(0.7071 -0.7071 0.7071 0.7071 -222.0749 418.6142)" width="5.67" height="5.67"/>
					
						<rect x="359.36" y="442.47" transform="matrix(0.7071 -0.7071 0.7071 0.7071 -208.7905 386.5391)" width="5.67" height="5.67"/>
					<rect x="375.4" y="458.5" transform="matrix(0.7071 -0.7071 0.7071 0.7071 -215.432 402.5698)" width="5.67" height="5.67"/>
					
						<rect x="455.58" y="538.68" transform="matrix(0.7071 -0.7071 0.7071 0.7071 -248.6424 482.7502)" width="5.67" height="5.67"/>
					<rect x="423.5" y="506.61" transform="matrix(0.7071 -0.7071 0.7071 0.7071 -235.358 450.6748)" width="5.67" height="5.67"/>
					
						<rect x="439.54" y="522.64" transform="matrix(0.7071 -0.7071 0.7071 0.7071 -242.0009 466.7202)" width="5.67" height="5.67"/>
					<polygon points="338.13,433.26 338.13,425.28 338.15,425.26 342.15,429.27 338.15,433.28 					"/>
					
						<rect x="343.33" y="426.43" transform="matrix(0.7071 -0.7071 0.7071 0.7071 -202.1489 370.5081)" width="5.67" height="5.67"/>
					<polygon points="338.13,449.29 338.13,441.31 338.15,441.29 342.15,445.3 338.15,449.31 					"/>
					<rect x="343.33" y="458.5" transform="matrix(0.7071 -0.7071 0.7071 0.7071 -224.8262 379.9015)" width="5.67" height="5.67"/>
					<polygon points="342.15,445.3 346.16,441.29 348.17,443.3 350.17,445.3 346.16,449.31 					"/>
					
						<rect x="343.33" y="434.45" transform="matrix(0.7071 -0.7071 0.7071 0.7071 -207.8177 372.8522)" width="5.67" height="5.67"/>
					<rect x="351.35" y="458.5" transform="matrix(0.7071 -0.7071 0.7071 0.7071 -222.4773 385.5664)" width="5.67" height="5.67"/>
					<polygon points="390.26,493.41 394.27,489.4 396.27,491.4 398.28,493.41 394.27,497.42 					"/>
					
						<rect x="431.52" y="538.68" transform="matrix(0.7071 -0.7071 0.7071 0.7071 -255.6873 465.7423)" width="5.67" height="5.67"/>
					
						<rect x="439.54" y="530.66" transform="matrix(0.7071 -0.7071 0.7071 0.7071 -247.6697 469.0633)" width="5.67" height="5.67"/>
					
						<rect x="431.52" y="522.64" transform="matrix(0.7071 -0.7071 0.7071 0.7071 -244.3482 461.0405)" width="5.67" height="5.67"/>
					<rect x="423.5" y="514.63" transform="matrix(0.7071 -0.7071 0.7071 0.7071 -241.0277 453.0281)" width="5.67" height="5.67"/>
					<polygon points="424.34,527.48 422.33,525.48 426.34,521.47 430.35,525.48 426.34,529.49 					"/>
					<rect x="423.5" y="538.68" transform="matrix(0.7071 -0.7071 0.7071 0.7071 -258.0356 460.073)" width="5.67" height="5.67"/>
					<rect x="423.5" y="530.66" transform="matrix(0.7071 -0.7071 0.7071 0.7071 -252.3669 457.7299)" width="5.67" height="5.67"/>
					<polygon points="413.08,538.73 413.08,538.73 397.05,522.7 381.01,506.66 364.98,490.63 364.98,490.63 364.98,490.63 
						348.94,474.59 338.13,463.78 338.13,458.12 399.88,519.87 399.88,519.87 415.91,535.91 430,550 424.35,550 413.08,538.74 					
						"/>
					<polygon points="438.37,541.51 442.37,537.5 444.38,539.51 444.38,539.51 446.38,541.51 442.37,545.52 					"/>
					<polygon points="454.4,549.53 458.41,545.52 462.42,549.53 461.95,550 454.87,550 					"/>
					<polygon points="471.72,550 372.63,450.91 372.63,450.91 356.59,434.87 356.59,434.87 338.13,416.41 338.13,410.75 
						407.53,480.15 407.53,480.15 423.56,496.19 455.63,528.26 455.63,528.26 471.67,544.29 477.38,550 					"/>
					<polygon points="445.91,550 438.84,550 438.37,549.53 442.37,545.52 446.38,549.53 					"/>
					
						<rect x="447.56" y="538.68" transform="matrix(0.7071 -0.7071 0.7071 0.7071 -250.9907 477.0809)" width="5.67" height="5.67"/>
					
						<rect x="391.43" y="498.59" transform="matrix(0.7071 -0.7071 0.7071 0.7071 -239.0817 425.6495)" width="5.67" height="5.67"/>
					
						<rect x="391.43" y="482.56" transform="matrix(0.7071 -0.7071 0.7071 0.7071 -227.7437 420.9578)" width="5.67" height="5.67"/>
					
						<rect x="391.43" y="506.61" transform="matrix(0.7071 -0.7071 0.7071 0.7071 -244.7522 428.0075)" width="5.67" height="5.67"/>
					
						<rect x="399.45" y="506.61" transform="matrix(0.7071 -0.7071 0.7071 0.7071 -242.4033 433.6719)" width="5.67" height="5.67"/>
					<rect x="375.4" y="482.56" transform="matrix(0.7071 -0.7071 0.7071 0.7071 -232.4409 409.6238)" width="5.67" height="5.67"/>
					
						<rect x="383.42" y="474.54" transform="matrix(0.7071 -0.7071 0.7071 0.7071 -224.4222 412.9355)" width="5.67" height="5.67"/>
					
						<rect x="383.42" y="490.57" transform="matrix(0.7071 -0.7071 0.7071 0.7071 -235.7613 417.6368)" width="5.67" height="5.67"/>
					<rect x="407.47" y="498.59" transform="matrix(0.7071 -0.7071 0.7071 0.7071 -234.3857 436.993)" width="5.67" height="5.67"/>
					<rect x="407.47" y="522.64" transform="matrix(0.7071 -0.7071 0.7071 0.7071 -251.393 444.0328)" width="5.67" height="5.67"/>
					
						<rect x="415.49" y="522.64" transform="matrix(0.7071 -0.7071 0.7071 0.7071 -249.0453 449.7071)" width="5.67" height="5.67"/>
					
						<rect x="407.47" y="514.63" transform="matrix(0.7071 -0.7071 0.7071 0.7071 -245.7243 441.6895)" width="5.67" height="5.67"/>
					
						<rect x="415.49" y="506.61" transform="matrix(0.7071 -0.7071 0.7071 0.7071 -237.7072 445.0155)" width="5.67" height="5.67"/>
					
						<rect x="399.45" y="490.57" transform="matrix(0.7071 -0.7071 0.7071 0.7071 -231.0647 428.9753)" width="5.67" height="5.67"/>
					
						<rect x="407.47" y="506.61" transform="matrix(0.7071 -0.7071 0.7071 0.7071 -240.0544 439.3363)" width="5.67" height="5.67"/>
				</g>
			</g>
			<g>
				
					<rect x="330.59" y="392.57" transform="matrix(-0.7071 0.7071 -0.7071 -0.7071 860.1299 443.9196)" width="15.06" height="15.06"/>
				<g>
					<g>
						<rect x="212.08" y="511.83" width="5.67" height="5.67"/>
						
							<rect x="239.02" y="495.17" transform="matrix(0.7071 -0.7071 0.7071 0.7071 -281.718 315.8795)" width="2.83" height="5.67"/>
						
							<rect x="252.42" y="481.77" transform="matrix(0.7071 -0.7071 0.7071 0.7071 -268.3226 321.428)" width="2.83" height="5.67"/>
						<rect x="238.87" y="485.04" width="5.67" height="5.67"/>
						
							<rect x="250.41" y="483.78" transform="matrix(0.7071 -0.7071 0.7071 0.7071 -270.327 320.5977)" width="2.83" height="5.67"/>
						
							<rect x="237.02" y="497.17" transform="matrix(0.7071 -0.7071 0.7071 0.7071 -283.7224 315.0492)" width="2.83" height="5.67"/>
						<rect x="225.47" y="498.44" width="5.67" height="5.67"/>
						<polygon points="218.15,517.9 218.15,530.72 230.96,517.9 						"/>
						
							<rect x="223.62" y="510.57" transform="matrix(0.7071 -0.7071 0.7071 0.7071 -297.1178 309.5006)" width="2.83" height="5.67"/>
						
							<rect x="225.63" y="508.56" transform="matrix(0.7071 -0.7071 0.7071 0.7071 -295.1133 310.3309)" width="2.83" height="5.67"/>
						
							<rect x="290.6" y="443.59" transform="matrix(0.7071 -0.7071 0.7071 0.7071 -230.1409 337.2434)" width="2.83" height="5.67"/>
						<rect x="304" y="430.2" transform="matrix(0.7071 -0.7071 0.7071 0.7071 -216.7455 342.7919)" width="2.83" height="5.67"/>
						<rect x="306" y="428.19" transform="matrix(0.7071 -0.7071 0.7071 0.7071 -214.741 343.6222)" width="2.83" height="5.67"/>
						
							<rect x="317.39" y="416.8" transform="matrix(0.7071 -0.7071 0.7071 0.7071 -203.3501 348.3405)" width="2.83" height="5.67"/>
						
							<rect x="212.23" y="521.96" transform="matrix(0.7071 -0.7071 0.7071 0.7071 -308.5087 304.7823)" width="2.83" height="5.67"/>
						<rect x="319.4" y="414.8" transform="matrix(0.7071 -0.7071 0.7071 0.7071 -201.3456 349.1708)" width="2.83" height="5.67"/>
						
							<rect x="263.81" y="470.38" transform="matrix(0.7071 -0.7071 0.7071 0.7071 -256.9316 326.1463)" width="2.83" height="5.67"/>
						
							<rect x="265.81" y="468.38" transform="matrix(0.7071 -0.7071 0.7071 0.7071 -254.9272 326.9766)" width="2.83" height="5.67"/>
						
							<rect x="279.21" y="454.98" transform="matrix(0.7071 -0.7071 0.7071 0.7071 -241.5318 332.5251)" width="2.83" height="5.67"/>
						
							<rect x="292.61" y="441.59" transform="matrix(0.7071 -0.7071 0.7071 0.7071 -228.1364 338.0737)" width="2.83" height="5.67"/>
						
							<rect x="277.21" y="456.99" transform="matrix(0.7071 -0.7071 0.7071 0.7071 -243.5362 331.6949)" width="2.83" height="5.67"/>
						<polygon points="231.54,504.5 231.54,517.32 244.36,504.5 						"/>
						<rect x="292.45" y="431.46" width="5.67" height="5.67"/>
						<polygon points="285.12,463.74 297.94,450.92 285.12,450.92 						"/>
						<rect x="279.06" y="444.85" width="5.67" height="5.67"/>
						<polygon points="298.52,450.34 311.34,437.53 298.52,437.53 						"/>
						<polygon points="271.73,477.13 284.54,464.32 271.73,464.32 						"/>
						<polygon points="311.91,436.95 324.73,424.13 311.91,424.13 						"/>
						<polygon points="325.31,410.74 325.31,423.55 338.13,410.74 						"/>
						<rect x="319.24" y="404.67" width="5.67" height="5.67"/>
						<rect x="305.85" y="418.06" width="5.67" height="5.67"/>
						<rect x="265.66" y="458.25" width="5.67" height="5.67"/>
						<polygon points="184.44,550 187.28,550 185.86,548.58 						"/>
						
							<rect x="196.83" y="537.36" transform="matrix(0.7071 -0.7071 0.7071 0.7071 -323.9086 298.4035)" width="2.83" height="5.67"/>
						<polygon points="198.86,550 204.17,544.69 191.36,544.69 191.36,550 						"/>
						
							<rect x="198.84" y="535.35" transform="matrix(0.7071 -0.7071 0.7071 0.7071 -321.9041 299.2338)" width="2.83" height="5.67"/>
						<rect x="198.68" y="525.23" width="5.67" height="5.67"/>
						<polygon points="204.75,531.29 204.75,544.11 217.57,531.29 						"/>
						<rect x="185.29" y="538.62" width="5.67" height="5.67"/>
						<polygon points="244.94,503.93 257.75,491.11 244.94,491.11 						"/>
						<rect x="252.27" y="471.65" width="5.67" height="5.67"/>
						
							<rect x="210.23" y="523.96" transform="matrix(0.7071 -0.7071 0.7071 0.7071 -310.5132 303.9521)" width="2.83" height="5.67"/>
						<polygon points="258.33,490.53 271.15,477.71 258.33,477.71 						"/>
					</g>
					<g>
						<rect x="458.5" y="511.83" width="5.67" height="5.67"/>
						
							<rect x="432.98" y="496.59" transform="matrix(0.7071 -0.7071 0.7071 0.7071 -224.4954 454.0268)" width="5.67" height="2.83"/>
						
							<rect x="419.58" y="483.19" transform="matrix(0.7071 -0.7071 0.7071 0.7071 -218.9469 440.6314)" width="5.67" height="2.83"/>
						<rect x="431.71" y="485.04" width="5.67" height="5.67"/>
						
							<rect x="421.59" y="485.2" transform="matrix(0.7071 -0.7071 0.7071 0.7071 -219.7772 442.6359)" width="5.67" height="2.83"/>
						
							<rect x="434.98" y="498.59" transform="matrix(0.7071 -0.7071 0.7071 0.7071 -225.3257 456.0313)" width="5.67" height="2.83"/>
						<rect x="445.11" y="498.44" width="5.67" height="5.67"/>
						<polygon points="458.11,517.9 458.11,530.72 445.29,517.9 						"/>
						
							<rect x="448.38" y="511.99" transform="matrix(0.7071 -0.7071 0.7071 0.7071 -230.8743 469.4267)" width="5.67" height="2.83"/>
						
							<rect x="446.37" y="509.98" transform="matrix(0.7071 -0.7071 0.7071 0.7071 -230.044 467.4222)" width="5.67" height="2.83"/>
						
							<rect x="381.4" y="445.01" transform="matrix(0.7071 -0.7071 0.7071 0.7071 -203.1315 402.4497)" width="5.67" height="2.83"/>
						<rect x="368" y="431.61" transform="matrix(0.7071 -0.7071 0.7071 0.7071 -197.583 389.0544)" width="5.67" height="2.83"/>
						<rect x="366" y="429.61" transform="matrix(0.7071 -0.7071 0.7071 0.7071 -196.7527 387.0499)" width="5.67" height="2.83"/>
						
							<rect x="354.61" y="418.22" transform="matrix(0.7071 -0.7071 0.7071 0.7071 -192.0344 375.659)" width="5.67" height="2.83"/>
						
							<rect x="459.77" y="523.38" transform="matrix(0.7071 -0.7071 0.7071 0.7071 -235.5925 480.8176)" width="5.67" height="2.83"/>
						
							<rect x="352.6" y="416.21" transform="matrix(0.7071 -0.7071 0.7071 0.7071 -191.2041 373.6545)" width="5.67" height="2.83"/>
						
							<rect x="408.19" y="471.8" transform="matrix(0.7071 -0.7071 0.7071 0.7071 -214.2286 429.2405)" width="5.67" height="2.83"/>
						
							<rect x="406.19" y="469.8" transform="matrix(0.7071 -0.7071 0.7071 0.7071 -213.3983 427.2361)" width="5.67" height="2.83"/>
						
							<rect x="392.79" y="456.4" transform="matrix(0.7071 -0.7071 0.7071 0.7071 -207.8498 413.8407)" width="5.67" height="2.83"/>
						<rect x="379.39" y="443" transform="matrix(0.7071 -0.7071 0.7071 0.7071 -202.3012 400.4453)" width="5.67" height="2.83"/>
						
							<rect x="394.79" y="458.4" transform="matrix(0.7071 -0.7071 0.7071 0.7071 -208.6801 415.8451)" width="5.67" height="2.83"/>
						<polygon points="444.71,504.5 444.71,517.32 431.89,504.5 						"/>
						<rect x="378.13" y="431.46" width="5.67" height="5.67"/>
						<polygon points="391.13,463.74 378.31,450.92 391.13,450.92 						"/>
						<rect x="391.53" y="444.85" width="5.67" height="5.67"/>
						<polygon points="377.73,450.34 364.92,437.53 377.73,437.53 						"/>
						<polygon points="404.52,477.13 391.71,464.32 404.52,464.32 						"/>
						<polygon points="364.34,436.95 351.52,424.13 364.34,424.13 						"/>
						<polygon points="350.94,410.74 350.94,423.55 338.13,410.74 						"/>
						<rect x="351.34" y="404.67" width="5.67" height="5.67"/>
						<rect x="364.74" y="418.06" width="5.67" height="5.67"/>
						<rect x="404.92" y="458.25" width="5.67" height="5.67"/>
						<polygon points="491.82,550 488.97,550 490.39,548.58 						"/>
						
							<rect x="475.17" y="538.78" transform="matrix(0.7071 -0.7071 0.7071 0.7071 -241.9714 496.2174)" width="5.67" height="2.83"/>
						<polygon points="477.39,550 472.08,544.69 484.9,544.69 484.9,550 						"/>
						
							<rect x="473.16" y="536.77" transform="matrix(0.7071 -0.7071 0.7071 0.7071 -241.1411 494.213)" width="5.67" height="2.83"/>
						<rect x="471.9" y="525.23" width="5.67" height="5.67"/>
						<polygon points="471.5,531.29 471.5,544.11 458.68,531.29 						"/>
						<rect x="485.29" y="538.62" width="5.67" height="5.67"/>
						<polygon points="431.32,503.93 418.5,491.11 431.32,491.11 						"/>
						<rect x="418.32" y="471.65" width="5.67" height="5.67"/>
						
							<rect x="461.77" y="525.38" transform="matrix(0.7071 -0.7071 0.7071 0.7071 -236.4228 482.8221)" width="5.67" height="2.83"/>
						<polygon points="417.92,490.53 405.1,477.71 417.92,477.71 						"/>
					</g>
				</g>
			</g>
			<g>
				<g>
					<polygon points="306.89,410.01 269.22,447.69 256.66,460.25 244.1,472.81 231.54,485.37 218.98,497.93 206.42,510.49 
						193.86,523.05 181.3,535.61 166.91,550 172.56,550 184.13,538.44 196.69,525.88 209.25,513.32 221.81,500.76 234.37,488.2 
						246.92,475.64 259.48,463.08 272.04,450.52 309.72,412.84 322.28,400.28 338.13,384.44 338.13,378.78 319.45,397.45 					"/>
					<polygon points="313.44,391.44 300.88,404 288.32,416.56 275.76,429.12 263.2,441.68 250.64,454.24 238.08,466.8 
						225.52,479.36 212.96,491.92 200.4,504.47 187.85,517.03 175.29,529.59 162.73,542.15 154.88,550 160.54,550 165.55,544.98 
						178.11,532.42 190.67,519.86 203.23,507.3 215.79,494.74 228.35,482.18 240.91,469.62 253.47,457.07 266.03,444.51 
						278.59,431.95 291.15,419.39 303.71,406.83 316.27,394.27 338.13,372.41 338.13,366.75 					"/>
				</g>
				<g>
					<polygon points="369.36,410.01 407.04,447.69 419.6,460.25 432.16,472.81 444.72,485.37 457.27,497.93 469.83,510.49 
						482.39,523.05 494.95,535.61 509.35,550 503.69,550 492.12,538.44 479.57,525.88 467.01,513.32 454.45,500.76 441.89,488.2 
						429.33,475.64 416.77,463.08 404.21,450.52 366.53,412.84 353.97,400.28 338.13,384.44 338.13,378.78 356.8,397.45 					"/>
					<polygon points="362.81,391.44 375.37,404 387.93,416.56 400.49,429.12 413.05,441.68 425.61,454.24 438.17,466.8 
						450.73,479.36 463.29,491.92 475.85,504.47 488.41,517.03 500.97,529.59 513.53,542.15 521.37,550 515.72,550 510.7,544.98 
						498.14,532.42 485.58,519.86 473.02,507.3 460.46,494.74 447.9,482.18 435.34,469.62 422.78,457.07 410.22,444.51 
						397.66,431.95 385.1,419.39 372.54,406.83 359.98,394.27 338.13,372.41 338.13,366.75 					"/>
				</g>
			</g>
		</g>
		<g>
			<g>
				<g>
					<circle cx="66.47" cy="537.73" r="2.83"/>
					<circle cx="62.37" cy="533.63" r="2.83"/>
					<circle cx="70.62" cy="541.88" r="2.83"/>
					<circle cx="74.78" cy="546.04" r="2.83"/>
					<circle cx="79.05" cy="541.77" r="2.83"/>
					<circle cx="83.31" cy="537.51" r="2.83"/>
					<circle cx="87.56" cy="533.26" r="2.83"/>
				</g>
				<g>
					<circle cx="132.72" cy="471.47" r="2.83"/>
					<circle cx="128.63" cy="467.38" r="2.83"/>
					<circle cx="136.88" cy="475.63" r="2.83"/>
					<circle cx="141.04" cy="479.78" r="2.83"/>
					<circle cx="145.3" cy="475.52" r="2.83"/>
					<circle cx="149.57" cy="471.25" r="2.83"/>
					<circle cx="153.81" cy="467.01" r="2.83"/>
				</g>
				<g>
					<circle cx="198.98" cy="405.21" r="2.83"/>
					<circle cx="194.89" cy="401.12" r="2.83"/>
					<circle cx="203.14" cy="409.37" r="2.83"/>
					<circle cx="207.29" cy="413.53" r="2.83"/>
					<circle cx="211.56" cy="409.26" r="2.83"/>
					<circle cx="215.82" cy="405" r="2.83"/>
					<circle cx="220.07" cy="400.75" r="2.83"/>
				</g>
				<g>
					<g>
						<circle cx="74.97" cy="512.03" r="2.82"/>
						<g>
							<circle cx="52.82" cy="511.94" r="2.82"/>
							<circle cx="58.59" cy="506.3" r="2.82"/>
							<circle cx="58.59" cy="511.94" r="2.82"/>
							<path d="M58.59,520.42c-1.56,0-2.82-1.26-2.82-2.82c0-1.56,1.26-2.82,2.82-2.82c1.56,0,2.82,1.26,2.82,2.82
								C61.41,519.15,60.14,520.42,58.59,520.42z"/>
						</g>
						<g>
							<path d="M97.11,509.12c1.56,0,2.82,1.26,2.82,2.82s-1.26,2.82-2.82,2.82c-1.56,0-2.82-1.26-2.82-2.82
								S95.55,509.12,97.11,509.12z"/>
							<path d="M91.34,514.77c1.56,0,2.82,1.26,2.82,2.82c0,1.56-1.26,2.82-2.82,2.82s-2.82-1.26-2.82-2.82
								C88.52,516.03,89.79,514.77,91.34,514.77z"/>
							<path d="M91.34,509.12c1.56,0,2.82,1.26,2.82,2.82s-1.26,2.82-2.82,2.82s-2.82-1.26-2.82-2.82S89.79,509.12,91.34,509.12z"/>
							<circle cx="91.34" cy="506.3" r="2.82"/>
						</g>
						<circle cx="74.97" cy="534.68" r="2.82"/>
						<circle cx="69.32" cy="528.92" r="2.82"/>
						<circle cx="74.97" cy="528.92" r="2.82"/>
						<circle cx="80.61" cy="528.92" r="2.82"/>
						<path d="M61.41,512.03l13.56,13.56l13.56-13.56l-13.56-13.56L61.41,512.03z M84.55,512.03l-9.59,9.59l-9.59-9.59l9.59-9.59
							L84.55,512.03z"/>
						<circle cx="74.92" cy="445.18" r="2.82"/>
						<circle cx="74.92" cy="467.18" r="2.82"/>
						<circle cx="80.57" cy="450.94" r="2.82"/>
						<circle cx="74.92" cy="450.94" r="2.82"/>
						<circle cx="69.27" cy="450.94" r="2.82"/>
						<circle cx="52.88" cy="467.18" r="2.82"/>
						<circle cx="58.64" cy="461.53" r="2.82"/>
						<circle cx="58.64" cy="467.18" r="2.82"/>
						<path d="M58.64,475.65c-1.56,0-2.82-1.26-2.82-2.82s1.26-2.82,2.82-2.82c1.56,0,2.82,1.26,2.82,2.82S60.2,475.65,58.64,475.65
							z"/>
						<path d="M97.05,464.36c1.56,0,2.82,1.26,2.82,2.82c0,1.56-1.26,2.82-2.82,2.82s-2.82-1.26-2.82-2.82
							C94.23,465.62,95.49,464.36,97.05,464.36z"/>
						<path d="M91.29,470.01c1.56,0,2.82,1.26,2.82,2.82s-1.26,2.82-2.82,2.82s-2.82-1.26-2.82-2.82S89.73,470.01,91.29,470.01z"/>
						<circle cx="91.29" cy="467.18" r="2.82"/>
						<circle cx="91.29" cy="461.53" r="2.82"/>
						<g>
							<circle cx="74.97" cy="483.92" r="2.82"/>
							<circle cx="74.97" cy="495.58" r="2.82"/>
							<circle cx="69.32" cy="489.82" r="2.82"/>
							<circle cx="74.97" cy="489.82" r="2.82"/>
							<circle cx="80.61" cy="489.82" r="2.82"/>
						</g>
						<path d="M61.36,467.18l13.56,13.56l13.56-13.56l-13.56-13.56L61.36,467.18z M84.51,467.18l-9.59,9.59l-9.59-9.59l9.59-9.59
							L84.51,467.18z"/>
					</g>
					<g>
						<circle cx="141.22" cy="445.78" r="2.82"/>
						<g>
							<circle cx="119.08" cy="445.69" r="2.82"/>
							<circle cx="124.84" cy="440.04" r="2.82"/>
							<circle cx="124.84" cy="445.69" r="2.82"/>
							<path d="M124.84,454.16c-1.56,0-2.82-1.26-2.82-2.82c0-1.56,1.26-2.82,2.82-2.82s2.82,1.26,2.82,2.82
								C127.67,452.9,126.4,454.16,124.84,454.16z"/>
						</g>
						<g>
							<path d="M163.36,442.86c1.56,0,2.82,1.26,2.82,2.82c0,1.56-1.26,2.82-2.82,2.82c-1.56,0-2.82-1.26-2.82-2.82
								C160.54,444.13,161.8,442.86,163.36,442.86z"/>
							<path d="M157.6,448.51c1.56,0,2.82,1.26,2.82,2.82c0,1.56-1.26,2.82-2.82,2.82s-2.82-1.26-2.82-2.82
								C154.78,449.78,156.04,448.51,157.6,448.51z"/>
							<path d="M157.6,442.86c1.56,0,2.82,1.26,2.82,2.82c0,1.56-1.26,2.82-2.82,2.82s-2.82-1.26-2.82-2.82
								C154.78,444.13,156.04,442.86,157.6,442.86z"/>
							<circle cx="157.6" cy="440.04" r="2.82"/>
						</g>
						<circle cx="141.22" cy="468.43" r="2.82"/>
						<circle cx="135.57" cy="462.67" r="2.82"/>
						<circle cx="141.22" cy="462.67" r="2.82"/>
						<circle cx="146.87" cy="462.67" r="2.82"/>
						<path d="M127.67,445.78l13.56,13.56l13.56-13.56l-13.56-13.56L127.67,445.78z M150.81,445.78l-9.59,9.59l-9.59-9.59l9.59-9.59
							L150.81,445.78z"/>
						<circle cx="141.18" cy="378.92" r="2.82"/>
						<circle cx="141.18" cy="400.93" r="2.82"/>
						<circle cx="146.82" cy="384.68" r="2.82"/>
						<circle cx="141.18" cy="384.68" r="2.82"/>
						<circle cx="135.53" cy="384.68" r="2.82"/>
						<circle cx="119.14" cy="400.93" r="2.82"/>
						<circle cx="124.9" cy="395.28" r="2.82"/>
						<circle cx="124.9" cy="400.93" r="2.82"/>
						<path d="M124.9,409.4c-1.56,0-2.82-1.26-2.82-2.82s1.26-2.82,2.82-2.82c1.56,0,2.82,1.26,2.82,2.82S126.46,409.4,124.9,409.4z
							"/>
						<path d="M163.31,398.1c1.56,0,2.82,1.26,2.82,2.82c0,1.56-1.26,2.82-2.82,2.82s-2.82-1.26-2.82-2.82
							C160.48,399.37,161.75,398.1,163.31,398.1z"/>
						<path d="M157.54,403.75c1.56,0,2.82,1.26,2.82,2.82s-1.26,2.82-2.82,2.82s-2.82-1.26-2.82-2.82S155.99,403.75,157.54,403.75z"
							/>
						<circle cx="157.54" cy="400.93" r="2.82"/>
						<circle cx="157.54" cy="395.28" r="2.82"/>
						<g>
							<circle cx="141.22" cy="417.66" r="2.82"/>
							<circle cx="141.22" cy="429.32" r="2.82"/>
							<circle cx="135.57" cy="423.56" r="2.82"/>
							<circle cx="141.22" cy="423.56" r="2.82"/>
							<circle cx="146.87" cy="423.56" r="2.82"/>
						</g>
						<path d="M127.62,400.93l13.56,13.56l13.56-13.56l-13.56-13.56L127.62,400.93z M150.76,400.93l-9.59,9.59l-9.59-9.59l9.59-9.59
							L150.76,400.93z"/>
					</g>
					<g>
						<circle cx="207.48" cy="379.52" r="2.82"/>
						<g>
							<circle cx="185.34" cy="379.43" r="2.82"/>
							<circle cx="191.1" cy="373.78" r="2.82"/>
							<circle cx="191.1" cy="379.43" r="2.82"/>
							<path d="M191.1,387.9c-1.56,0-2.82-1.26-2.82-2.82c0-1.56,1.26-2.82,2.82-2.82s2.82,1.26,2.82,2.82
								C193.92,386.64,192.66,387.9,191.1,387.9z"/>
						</g>
						<g>
							<path d="M229.62,376.61c1.56,0,2.82,1.26,2.82,2.82c0,1.56-1.26,2.82-2.82,2.82c-1.56,0-2.82-1.26-2.82-2.82
								C226.79,377.87,228.06,376.61,229.62,376.61z"/>
							<path d="M223.86,382.26c1.56,0,2.82,1.26,2.82,2.82c0,1.56-1.26,2.82-2.82,2.82s-2.82-1.26-2.82-2.82
								C221.03,383.52,222.3,382.26,223.86,382.26z"/>
							<path d="M223.86,376.61c1.56,0,2.82,1.26,2.82,2.82c0,1.56-1.26,2.82-2.82,2.82s-2.82-1.26-2.82-2.82
								C221.03,377.87,222.3,376.61,223.86,376.61z"/>
							<circle cx="223.86" cy="373.78" r="2.82"/>
						</g>
						<circle cx="207.48" cy="402.17" r="2.82"/>
						<circle cx="201.83" cy="396.41" r="2.82"/>
						<circle cx="207.48" cy="396.41" r="2.82"/>
						<circle cx="213.13" cy="396.41" r="2.82"/>
						<path d="M193.92,379.52l13.56,13.56l13.56-13.56l-13.56-13.56L193.92,379.52z M217.06,379.52l-9.59,9.59l-9.59-9.59l9.59-9.59
							L217.06,379.52z"/>
						<circle cx="207.43" cy="312.66" r="2.82"/>
						<circle cx="207.43" cy="334.67" r="2.82"/>
						<circle cx="213.08" cy="318.42" r="2.82"/>
						<circle cx="207.43" cy="318.42" r="2.82"/>
						<circle cx="201.78" cy="318.42" r="2.82"/>
						<circle cx="185.39" cy="334.67" r="2.82"/>
						<circle cx="191.15" cy="329.02" r="2.82"/>
						<circle cx="191.15" cy="334.67" r="2.82"/>
						<path d="M191.15,343.14c-1.56,0-2.82-1.26-2.82-2.82c0-1.56,1.26-2.82,2.82-2.82s2.82,1.26,2.82,2.82
							C193.98,341.88,192.71,343.14,191.15,343.14z"/>
						<path d="M229.56,331.85c1.56,0,2.82,1.26,2.82,2.82c0,1.56-1.26,2.82-2.82,2.82s-2.82-1.26-2.82-2.82
							C226.74,333.11,228,331.85,229.56,331.85z"/>
						<path d="M223.8,337.49c1.56,0,2.82,1.26,2.82,2.82c0,1.56-1.26,2.82-2.82,2.82c-1.56,0-2.82-1.26-2.82-2.82
							C220.98,338.76,222.24,337.49,223.8,337.49z"/>
						<circle cx="223.8" cy="334.67" r="2.82"/>
						<circle cx="223.8" cy="329.02" r="2.82"/>
						<g>
							<circle cx="207.48" cy="351.4" r="2.82"/>
							<circle cx="207.48" cy="363.06" r="2.82"/>
							<circle cx="201.83" cy="357.3" r="2.82"/>
							<circle cx="207.48" cy="357.3" r="2.82"/>
							<circle cx="213.13" cy="357.3" r="2.82"/>
						</g>
						<path d="M193.88,334.67l13.56,13.56l13.56-13.56l-13.56-13.56L193.88,334.67z M217.02,334.67l-9.59,9.59l-9.59-9.59l9.59-9.59
							L217.02,334.67z"/>
					</g>
					<g>
						<circle cx="273.73" cy="313.27" r="2.82"/>
						<g>
							<circle cx="251.59" cy="313.18" r="2.82"/>
							<circle cx="257.35" cy="307.53" r="2.82"/>
							<circle cx="257.35" cy="313.18" r="2.82"/>
							<path d="M257.35,321.65c-1.56,0-2.82-1.26-2.82-2.82c0-1.56,1.26-2.82,2.82-2.82c1.56,0,2.82,1.26,2.82,2.82
								C260.18,320.38,258.91,321.65,257.35,321.65z"/>
						</g>
						<g>
							<path d="M295.88,310.35c1.56,0,2.82,1.26,2.82,2.82s-1.26,2.82-2.82,2.82c-1.56,0-2.82-1.26-2.82-2.82
								S294.32,310.35,295.88,310.35z"/>
							<path d="M290.11,316c1.56,0,2.82,1.26,2.82,2.82c0,1.56-1.26,2.82-2.82,2.82s-2.82-1.26-2.82-2.82
								C287.29,317.26,288.55,316,290.11,316z"/>
							<path d="M290.11,310.35c1.56,0,2.82,1.26,2.82,2.82s-1.26,2.82-2.82,2.82s-2.82-1.26-2.82-2.82S288.55,310.35,290.11,310.35z
								"/>
							<circle cx="290.11" cy="307.53" r="2.82"/>
						</g>
						<circle cx="273.73" cy="335.92" r="2.82"/>
						<circle cx="268.09" cy="330.15" r="2.82"/>
						<circle cx="273.73" cy="330.15" r="2.82"/>
						<circle cx="279.38" cy="330.15" r="2.82"/>
						<path d="M260.18,313.27l13.56,13.56l13.56-13.56l-13.56-13.56L260.18,313.27z M283.32,313.27l-9.59,9.59l-9.59-9.59l9.59-9.59
							L283.32,313.27z"/>
						<circle cx="273.69" cy="246.41" r="2.82"/>
						<circle cx="273.69" cy="268.41" r="2.82"/>
						<circle cx="279.34" cy="252.17" r="2.82"/>
						<circle cx="273.69" cy="252.17" r="2.82"/>
						<circle cx="268.04" cy="252.17" r="2.82"/>
						<circle cx="251.65" cy="268.41" r="2.82"/>
						<circle cx="257.41" cy="262.76" r="2.82"/>
						<circle cx="257.41" cy="268.41" r="2.82"/>
						<path d="M257.41,276.89c-1.56,0-2.82-1.26-2.82-2.82c0-1.56,1.26-2.82,2.82-2.82c1.56,0,2.82,1.26,2.82,2.82
							C260.23,275.62,258.97,276.89,257.41,276.89z"/>
						<path d="M295.82,265.59c1.56,0,2.82,1.26,2.82,2.82c0,1.56-1.26,2.82-2.82,2.82c-1.56,0-2.82-1.26-2.82-2.82
							C292.99,266.85,294.26,265.59,295.82,265.59z"/>
						<path d="M290.06,271.24c1.56,0,2.82,1.26,2.82,2.82c0,1.56-1.26,2.82-2.82,2.82c-1.56,0-2.82-1.26-2.82-2.82
							C287.23,272.5,288.5,271.24,290.06,271.24z"/>
						<circle cx="290.06" cy="268.41" r="2.82"/>
						<circle cx="290.06" cy="262.76" r="2.82"/>
						<g>
							<circle cx="273.73" cy="285.15" r="2.82"/>
							<circle cx="273.73" cy="296.81" r="2.82"/>
							<circle cx="268.09" cy="291.05" r="2.82"/>
							<circle cx="273.73" cy="291.05" r="2.82"/>
							<circle cx="279.38" cy="291.05" r="2.82"/>
						</g>
						<path d="M260.13,268.41l13.56,13.56l13.56-13.56l-13.56-13.56L260.13,268.41z M283.27,268.41l-9.59,9.59l-9.59-9.59l9.59-9.59
							L283.27,268.41z"/>
					</g>
					<g>
						<circle cx="265.24" cy="338.96" r="2.83"/>
						<circle cx="261.14" cy="334.86" r="2.83"/>
						<circle cx="269.39" cy="343.11" r="2.83"/>
						<circle cx="273.55" cy="347.27" r="2.83"/>
						<circle cx="277.82" cy="343" r="2.83"/>
						<circle cx="282.08" cy="338.74" r="2.83"/>
						<circle cx="286.32" cy="334.5" r="2.83"/>
					</g>
				</g>
			</g>
			<g>
				<g>
					<circle cx="609.78" cy="537.73" r="2.83"/>
					<circle cx="613.88" cy="533.63" r="2.83"/>
					<circle cx="605.63" cy="541.88" r="2.83"/>
					<circle cx="601.47" cy="546.04" r="2.83"/>
					<circle cx="597.21" cy="541.77" r="2.83"/>
					<circle cx="592.94" cy="537.51" r="2.83"/>
					<circle cx="588.7" cy="533.26" r="2.83"/>
				</g>
				<g>
					<circle cx="543.53" cy="471.47" r="2.83"/>
					<circle cx="547.62" cy="467.38" r="2.83"/>
					<circle cx="539.37" cy="475.63" r="2.83"/>
					<circle cx="535.22" cy="479.78" r="2.83"/>
					<circle cx="530.95" cy="475.52" r="2.83"/>
					<circle cx="526.68" cy="471.25" r="2.83"/>
					<circle cx="522.44" cy="467.01" r="2.83"/>
				</g>
				<g>
					<circle cx="477.27" cy="405.21" r="2.83"/>
					<circle cx="481.37" cy="401.12" r="2.83"/>
					<circle cx="473.12" cy="409.37" r="2.83"/>
					<circle cx="468.96" cy="413.53" r="2.83"/>
					<circle cx="464.69" cy="409.26" r="2.83"/>
					<circle cx="460.43" cy="405" r="2.83"/>
					<circle cx="456.18" cy="400.75" r="2.83"/>
				</g>
				<g>
					<g>
						<circle cx="601.29" cy="512.03" r="2.82"/>
						<g>
							<circle cx="623.43" cy="511.94" r="2.82"/>
							<circle cx="617.67" cy="506.3" r="2.82"/>
							<circle cx="617.67" cy="511.94" r="2.82"/>
							<circle cx="617.67" cy="517.59" r="2.82"/>
						</g>
						<g>
							<circle cx="579.15" cy="511.94" r="2.82"/>
							<circle cx="584.91" cy="517.59" r="2.82"/>
							<circle cx="584.91" cy="511.94" r="2.82"/>
							<circle cx="584.91" cy="506.3" r="2.82"/>
						</g>
						<circle cx="601.29" cy="534.68" r="2.82"/>
						<circle cx="606.94" cy="528.92" r="2.82"/>
						<circle cx="601.29" cy="528.92" r="2.82"/>
						<circle cx="595.64" cy="528.92" r="2.82"/>
						<path d="M601.29,498.48l-13.56,13.56l13.56,13.56l13.56-13.56L601.29,498.48z M601.29,502.45l9.59,9.59l-9.59,9.59l-9.59-9.59
							L601.29,502.45z"/>
						<circle cx="601.33" cy="445.18" r="2.82"/>
						<circle cx="601.33" cy="467.18" r="2.82"/>
						<circle cx="595.68" cy="450.94" r="2.82"/>
						<circle cx="601.33" cy="450.94" r="2.82"/>
						<circle cx="606.98" cy="450.94" r="2.82"/>
						<circle cx="623.37" cy="467.18" r="2.82"/>
						<circle cx="617.61" cy="461.53" r="2.82"/>
						<circle cx="617.61" cy="467.18" r="2.82"/>
						<circle cx="617.61" cy="472.83" r="2.82"/>
						<circle cx="579.2" cy="467.18" r="2.82"/>
						<circle cx="584.96" cy="472.83" r="2.82"/>
						<circle cx="584.96" cy="467.18" r="2.82"/>
						<circle cx="584.96" cy="461.53" r="2.82"/>
						<g>
							<circle cx="601.29" cy="483.92" r="2.82"/>
							<circle cx="601.29" cy="495.58" r="2.82"/>
							<circle cx="606.94" cy="489.82" r="2.82"/>
							<circle cx="601.29" cy="489.82" r="2.82"/>
							<circle cx="595.64" cy="489.82" r="2.82"/>
						</g>
						<path d="M601.33,453.63l-13.56,13.56l13.56,13.56l13.56-13.56L601.33,453.63z M601.33,457.6l9.59,9.59l-9.59,9.59l-9.59-9.59
							L601.33,457.6z"/>
					</g>
					<g>
						<circle cx="535.03" cy="445.78" r="2.82"/>
						<g>
							<circle cx="557.17" cy="445.69" r="2.82"/>
							<circle cx="551.41" cy="440.04" r="2.82"/>
							<circle cx="551.41" cy="445.69" r="2.82"/>
							<circle cx="551.41" cy="451.34" r="2.82"/>
						</g>
						<g>
							<circle cx="512.89" cy="445.69" r="2.82"/>
							<circle cx="518.65" cy="451.34" r="2.82"/>
							<circle cx="518.65" cy="445.69" r="2.82"/>
							<circle cx="518.65" cy="440.04" r="2.82"/>
						</g>
						<circle cx="535.03" cy="468.43" r="2.82"/>
						<circle cx="540.68" cy="462.67" r="2.82"/>
						<circle cx="535.03" cy="462.67" r="2.82"/>
						<circle cx="529.38" cy="462.67" r="2.82"/>
						<path d="M535.03,432.22l-13.56,13.56l13.56,13.56l13.56-13.56L535.03,432.22z M535.03,436.19l9.59,9.59l-9.59,9.59l-9.59-9.59
							L535.03,436.19z"/>
						<circle cx="535.08" cy="378.92" r="2.82"/>
						<circle cx="535.08" cy="400.93" r="2.82"/>
						<circle cx="529.43" cy="384.68" r="2.82"/>
						<circle cx="535.08" cy="384.68" r="2.82"/>
						<circle cx="540.72" cy="384.68" r="2.82"/>
						<circle cx="557.12" cy="400.93" r="2.82"/>
						<circle cx="551.35" cy="395.28" r="2.82"/>
						<circle cx="551.35" cy="400.93" r="2.82"/>
						<circle cx="551.35" cy="406.57" r="2.82"/>
						<circle cx="512.95" cy="400.93" r="2.82"/>
						<circle cx="518.71" cy="406.57" r="2.82"/>
						<circle cx="518.71" cy="400.93" r="2.82"/>
						<circle cx="518.71" cy="395.28" r="2.82"/>
						<g>
							<circle cx="535.03" cy="417.66" r="2.82"/>
							<circle cx="535.03" cy="429.32" r="2.82"/>
							<circle cx="540.68" cy="423.56" r="2.82"/>
							<circle cx="535.03" cy="423.56" r="2.82"/>
							<circle cx="529.38" cy="423.56" r="2.82"/>
						</g>
						<path d="M535.08,387.37l-13.56,13.56l13.56,13.56l13.56-13.56L535.08,387.37z M535.08,391.34l9.59,9.59l-9.59,9.59l-9.59-9.59
							L535.08,391.34z"/>
					</g>
					<g>
						<circle cx="468.77" cy="379.52" r="2.82"/>
						<g>
							<circle cx="490.92" cy="379.43" r="2.82"/>
							<circle cx="485.15" cy="373.78" r="2.82"/>
							<circle cx="485.15" cy="379.43" r="2.82"/>
							<circle cx="485.15" cy="385.08" r="2.82"/>
						</g>
						<g>
							<circle cx="446.63" cy="379.43" r="2.82"/>
							<circle cx="452.39" cy="385.08" r="2.82"/>
							<circle cx="452.39" cy="379.43" r="2.82"/>
							<circle cx="452.39" cy="373.78" r="2.82"/>
						</g>
						<circle cx="468.77" cy="402.17" r="2.82"/>
						<circle cx="474.42" cy="396.41" r="2.82"/>
						<circle cx="468.77" cy="396.41" r="2.82"/>
						<circle cx="463.13" cy="396.41" r="2.82"/>
						<path d="M468.77,365.97l-13.56,13.56l13.56,13.56l13.56-13.56L468.77,365.97z M468.77,369.94l9.59,9.59l-9.59,9.59l-9.59-9.59
							L468.77,369.94z"/>
						<circle cx="468.82" cy="312.66" r="2.82"/>
						<circle cx="468.82" cy="334.67" r="2.82"/>
						<circle cx="463.17" cy="318.42" r="2.82"/>
						<circle cx="468.82" cy="318.42" r="2.82"/>
						<circle cx="474.47" cy="318.42" r="2.82"/>
						<circle cx="490.86" cy="334.67" r="2.82"/>
						<circle cx="485.1" cy="329.02" r="2.82"/>
						<circle cx="485.1" cy="334.67" r="2.82"/>
						<circle cx="485.1" cy="340.32" r="2.82"/>
						<circle cx="446.69" cy="334.67" r="2.82"/>
						<circle cx="452.45" cy="340.32" r="2.82"/>
						<circle cx="452.45" cy="334.67" r="2.82"/>
						<circle cx="452.45" cy="329.02" r="2.82"/>
						<g>
							<circle cx="468.77" cy="351.4" r="2.82"/>
							<circle cx="468.77" cy="363.06" r="2.82"/>
							<circle cx="474.42" cy="357.3" r="2.82"/>
							<circle cx="468.77" cy="357.3" r="2.82"/>
							<circle cx="463.13" cy="357.3" r="2.82"/>
						</g>
						<path d="M468.82,321.11l-13.56,13.56l13.56,13.56l13.56-13.56L468.82,321.11z M468.82,325.08l9.59,9.59l-9.59,9.59l-9.59-9.59
							L468.82,325.08z"/>
					</g>
					<g>
						<circle cx="402.52" cy="313.27" r="2.82"/>
						<g>
							<circle cx="424.66" cy="313.18" r="2.82"/>
							<circle cx="418.9" cy="307.53" r="2.82"/>
							<circle cx="418.9" cy="313.18" r="2.82"/>
							<circle cx="418.9" cy="318.82" r="2.82"/>
						</g>
						<g>
							<circle cx="380.38" cy="313.18" r="2.82"/>
							<circle cx="386.14" cy="318.82" r="2.82"/>
							<circle cx="386.14" cy="313.18" r="2.82"/>
							<circle cx="386.14" cy="307.53" r="2.82"/>
						</g>
						<circle cx="402.52" cy="335.92" r="2.82"/>
						<circle cx="408.17" cy="330.15" r="2.82"/>
						<circle cx="402.52" cy="330.15" r="2.82"/>
						<circle cx="396.87" cy="330.15" r="2.82"/>
						<path d="M402.52,299.71l-13.56,13.56l13.56,13.56l13.56-13.56L402.52,299.71z M402.52,303.68l9.59,9.59l-9.59,9.59l-9.59-9.59
							L402.52,303.68z"/>
						<circle cx="402.56" cy="246.41" r="2.82"/>
						<circle cx="402.56" cy="268.41" r="2.82"/>
						<circle cx="396.92" cy="252.17" r="2.82"/>
						<circle cx="402.56" cy="252.17" r="2.82"/>
						<circle cx="408.21" cy="252.17" r="2.82"/>
						<circle cx="424.6" cy="268.41" r="2.82"/>
						<circle cx="418.84" cy="262.76" r="2.82"/>
						<circle cx="418.84" cy="268.41" r="2.82"/>
						<circle cx="418.84" cy="274.06" r="2.82"/>
						<circle cx="380.43" cy="268.41" r="2.82"/>
						<circle cx="386.2" cy="274.06" r="2.82"/>
						<circle cx="386.2" cy="268.41" r="2.82"/>
						<circle cx="386.2" cy="262.76" r="2.82"/>
						<g>
							<circle cx="402.52" cy="285.15" r="2.82"/>
							<circle cx="402.52" cy="296.81" r="2.82"/>
							<circle cx="408.17" cy="291.05" r="2.82"/>
							<circle cx="402.52" cy="291.05" r="2.82"/>
							<circle cx="396.87" cy="291.05" r="2.82"/>
						</g>
						<path d="M402.56,254.86l-13.56,13.56l13.56,13.56l13.56-13.56L402.56,254.86z M402.56,258.83l9.59,9.59l-9.59,9.59l-9.59-9.59
							L402.56,258.83z"/>
					</g>
					<g>
						<circle cx="411.02" cy="338.96" r="2.83"/>
						<circle cx="415.11" cy="334.86" r="2.83"/>
						<circle cx="406.86" cy="343.11" r="2.83"/>
						<circle cx="402.7" cy="347.27" r="2.83"/>
						<circle cx="398.44" cy="343" r="2.83"/>
						<circle cx="394.17" cy="338.74" r="2.83"/>
						<circle cx="389.93" cy="334.5" r="2.83"/>
					</g>
				</g>
			</g>
			<g>
				<g>
					<circle cx="338.13" cy="250.09" r="2.82"/>
					<g>
						<circle cx="315.99" cy="250" r="2.82"/>
						<circle cx="321.75" cy="244.35" r="2.82"/>
						<circle cx="321.75" cy="250" r="2.82"/>
						<path d="M321.75,258.47c-1.56,0-2.82-1.26-2.82-2.82c0-1.56,1.26-2.82,2.82-2.82c1.56,0,2.82,1.26,2.82,2.82
							C324.57,257.21,323.31,258.47,321.75,258.47z"/>
					</g>
					<g>
						<circle cx="360.27" cy="250" r="2.82"/>
						<path d="M354.51,252.83c1.56,0,2.82,1.26,2.82,2.82c0,1.56-1.26,2.82-2.82,2.82c-1.56,0-2.82-1.26-2.82-2.82
							C351.68,254.09,352.95,252.83,354.51,252.83z"/>
						<circle cx="354.51" cy="250" r="2.82"/>
						<circle cx="354.51" cy="244.35" r="2.82"/>
					</g>
					<circle cx="338.13" cy="272.74" r="2.82"/>
					<circle cx="332.48" cy="266.98" r="2.82"/>
					<circle cx="338.13" cy="266.98" r="2.82"/>
					<circle cx="343.77" cy="266.98" r="2.82"/>
					<path d="M324.57,250.09l13.56,13.56l13.56-13.56l-13.56-13.56L324.57,250.09z M347.71,250.09l-9.59,9.59l-9.59-9.59l9.59-9.59
						L347.71,250.09z"/>
					<circle cx="338.08" cy="183.23" r="2.82"/>
					<circle cx="338.08" cy="205.24" r="2.82"/>
					<circle cx="343.73" cy="189" r="2.82"/>
					<circle cx="338.08" cy="189" r="2.82"/>
					<circle cx="332.43" cy="189" r="2.82"/>
					<circle cx="316.04" cy="205.24" r="2.82"/>
					<circle cx="321.8" cy="199.59" r="2.82"/>
					<circle cx="321.8" cy="205.24" r="2.82"/>
					<path d="M321.8,213.71c-1.56,0-2.82-1.26-2.82-2.82s1.26-2.82,2.82-2.82c1.56,0,2.82,1.26,2.82,2.82
						S323.36,213.71,321.8,213.71z"/>
					<path d="M360.21,202.42c1.56,0,2.82,1.26,2.82,2.82s-1.26,2.82-2.82,2.82c-1.56,0-2.82-1.26-2.82-2.82
						S358.65,202.42,360.21,202.42z"/>
					<path d="M354.45,208.06c1.56,0,2.82,1.26,2.82,2.82s-1.26,2.82-2.82,2.82c-1.56,0-2.82-1.26-2.82-2.82
						S352.89,208.06,354.45,208.06z"/>
					<circle cx="354.45" cy="205.24" r="2.82"/>
					<circle cx="354.45" cy="199.59" r="2.82"/>
					<g>
						<circle cx="338.13" cy="221.97" r="2.82"/>
						<circle cx="338.13" cy="233.63" r="2.82"/>
						<circle cx="332.48" cy="227.87" r="2.82"/>
						<circle cx="338.13" cy="227.87" r="2.82"/>
						<circle cx="343.77" cy="227.87" r="2.82"/>
					</g>
					<path d="M324.53,205.24l13.56,13.56l13.56-13.56l-13.56-13.56L324.53,205.24z M347.67,205.24l-9.59,9.59l-9.59-9.59l9.59-9.59
						L347.67,205.24z"/>
				</g>
				<g>
					<circle cx="329.63" cy="275.78" r="2.83"/>
					<circle cx="325.54" cy="271.69" r="2.83"/>
					<circle cx="333.79" cy="279.94" r="2.83"/>
					<circle cx="337.94" cy="284.1" r="2.83"/>
					<circle cx="342.21" cy="279.83" r="2.83"/>
					<circle cx="346.47" cy="275.57" r="2.83"/>
					<circle cx="350.72" cy="271.32" r="2.83"/>
				</g>
			</g>
		</g>
		<g>
			<g>
				<polygon points="106.4,550 116.81,550 115.59,540.81 114.25,542.15 100.17,528.08 92.69,535.56 106.77,549.63 				"/>
				<polygon points="117.45,538.95 129.17,540.51 127.62,528.79 126.27,530.13 112.2,516.05 104.71,523.53 118.79,537.61 				"/>
				<polygon points="224.84,458.07 228.25,461.47 224.49,465.23 220.13,460.87 223.54,457.47 221.28,455.21 217.88,458.62 
					214.47,455.21 213.34,456.34 212.22,457.47 215.62,460.87 212.22,464.28 214.47,466.53 217.88,463.13 222.24,467.49 
					218.48,471.24 215.07,467.84 213.94,468.96 212.82,470.09 216.22,473.5 212.47,477.26 208.11,472.9 211.51,469.49 
					209.26,467.23 205.85,470.64 202.45,467.23 201.32,468.36 200.19,469.49 203.6,472.9 200.19,476.3 202.45,478.56 205.85,475.15 
					210.21,479.51 206.45,483.27 203.05,479.86 201.92,480.99 210.99,490.06 212.12,488.93 208.71,485.52 212.47,481.76 
					215.87,485.17 218.13,482.92 214.72,479.51 218.48,475.75 221.88,479.16 223.01,478.03 224.14,476.9 220.73,473.5 
					224.49,469.74 227.9,473.15 230.15,470.89 226.74,467.49 230.5,463.73 233.91,467.13 235.04,466.01 225.97,456.94 				"/>
				<polygon points="129.47,526.93 141.2,528.48 139.64,516.76 138.3,518.1 124.22,504.03 116.74,511.51 130.82,525.59 				"/>
				<polygon points="210.44,445.96 196.37,431.88 188.88,439.36 202.96,453.44 201.62,454.78 213.34,456.34 211.79,444.62 				"/>
				<polygon points="297.82,358.59 309.54,360.14 307.98,348.42 306.64,349.76 292.56,335.69 285.08,343.17 299.16,357.24 				"/>
				<polygon points="98.05,550 88.15,540.1 80.67,547.58 83.08,550 				"/>
				<polygon points="198.42,457.98 184.34,443.9 176.86,451.39 190.94,465.46 189.6,466.81 201.32,468.36 199.76,456.64 				"/>
				<polygon points="144.08,545.64 140.32,549.4 135.96,545.04 139.37,541.64 137.11,539.38 133.71,542.79 130.3,539.38 
					128.04,541.64 131.45,545.04 128.04,548.45 129.59,550 131,550 133.71,547.3 136.41,550 144.23,550 146.33,547.9 148.43,550 
					150.69,550 141.8,541.11 140.67,542.24 				"/>
				<polygon points="174.37,482.03 160.29,467.95 152.81,475.43 166.89,489.51 165.55,490.86 177.27,492.41 175.71,480.69 				"/>
				<polygon points="167.52,508.97 164.12,512.38 166.37,514.63 169.78,511.22 174.14,515.58 170.38,519.34 166.97,515.93 
					165.85,517.06 174.91,526.13 176.04,525 172.63,521.6 176.39,517.84 179.8,521.24 182.05,518.99 178.65,515.58 182.4,511.83 
					185.81,515.23 186.94,514.11 188.07,512.98 184.66,509.57 188.42,505.81 191.82,509.22 194.08,506.97 190.67,503.56 
					194.43,499.8 197.84,503.21 198.96,502.08 200.09,500.95 196.68,497.55 200.44,493.79 203.85,497.2 206.1,494.94 202.7,491.53 
					206.45,487.78 209.86,491.18 210.99,490.06 201.92,480.99 200.79,482.12 204.2,485.52 200.44,489.28 196.08,484.92 
					199.49,481.51 197.23,479.26 193.83,482.67 190.42,479.26 189.29,480.39 188.17,481.51 191.57,484.92 188.17,488.33 
					190.42,490.58 193.83,487.18 198.19,491.53 194.43,495.29 191.02,491.88 189.89,493.01 188.77,494.14 192.17,497.55 
					188.42,501.3 184.06,496.95 187.46,493.54 185.21,491.28 181.8,494.69 178.4,491.28 177.27,492.41 176.14,493.54 179.55,496.95 
					176.14,500.35 178.4,502.61 181.8,499.2 186.16,503.56 182.4,507.32 179,503.91 177.87,505.04 176.74,506.16 180.15,509.57 
					176.39,513.33 172.03,508.97 175.44,505.56 173.19,503.31 169.78,506.71 166.37,503.31 165.24,504.44 164.12,505.56 				"/>
				<polygon points="186.4,470.01 172.32,455.93 164.84,463.41 178.91,477.49 177.57,478.83 189.29,480.39 187.74,468.66 				"/>
				<polygon points="150.32,506.08 136.24,492 128.76,499.48 142.84,513.56 141.5,514.9 153.22,516.46 151.66,504.74 				"/>
				<polygon points="153.52,502.88 165.24,504.44 163.69,492.71 162.35,494.06 148.27,479.98 140.79,487.46 154.87,501.54 				"/>
				<polygon points="143.48,533.02 140.07,536.43 142.32,538.68 145.73,535.27 150.09,539.63 146.33,543.39 142.92,539.98 
					141.8,541.11 150.69,550 151.04,550 151.99,549.05 148.59,545.64 152.34,541.89 155.75,545.29 158.01,543.04 154.6,539.63 
					158.36,535.87 161.76,539.28 162.89,538.15 164.02,537.03 160.61,533.62 164.37,529.86 167.78,533.27 170.03,531.01 
					166.62,527.61 170.38,523.85 173.79,527.26 174.91,526.13 165.85,517.06 164.72,518.19 168.13,521.6 164.37,525.35 
					160.01,520.99 163.42,517.59 161.16,515.33 157.75,518.74 154.35,515.33 153.22,516.46 152.09,517.59 155.5,520.99 
					152.09,524.4 154.35,526.66 157.75,523.25 162.11,527.61 158.36,531.37 154.95,527.96 153.82,529.09 152.69,530.21 
					156.1,533.62 152.34,537.38 147.98,533.02 151.39,529.61 149.14,527.36 145.73,530.76 142.32,527.36 141.2,528.48 
					140.07,529.61 				"/>
				<polygon points="334.19,348.72 333.06,349.85 336.47,353.25 332.71,357.01 328.35,352.65 331.76,349.25 329.5,346.99 
					326.1,350.4 322.69,346.99 321.56,348.12 320.43,349.25 323.84,352.65 320.43,356.06 322.69,358.31 326.1,354.91 330.45,359.27 
					326.7,363.02 323.29,359.62 322.16,360.74 321.04,361.87 324.44,365.28 320.69,369.04 316.33,364.68 319.73,361.27 
					317.48,359.02 314.07,362.42 310.66,359.02 308.41,361.27 311.82,364.68 308.41,368.08 310.66,370.34 314.07,366.93 
					318.43,371.29 314.67,375.05 311.27,371.64 310.14,372.77 310.14,372.77 309.01,373.9 312.42,377.3 308.66,381.06 304.3,376.7 
					307.71,373.29 305.45,371.04 302.05,374.45 298.64,371.04 297.51,372.17 296.39,373.29 299.79,376.7 296.39,380.11 
					298.64,382.36 302.05,378.96 306.41,383.31 302.65,387.07 299.24,383.67 298.11,384.79 296.99,385.92 300.39,389.33 
					296.64,393.08 292.28,388.73 295.68,385.32 293.43,383.06 290.02,386.47 286.62,383.06 285.49,384.19 283.93,372.47 
					282.59,373.81 268.51,359.73 261.03,367.22 275.11,381.29 273.77,382.64 285.49,384.19 284.36,385.32 287.77,388.73 
					284.36,392.13 286.62,394.39 290.02,390.98 294.38,395.34 290.62,399.1 287.22,395.69 286.09,396.82 295.16,405.89 
					296.29,404.76 292.88,401.35 296.64,397.59 300.04,401 302.3,398.75 298.89,395.34 302.65,391.58 306.06,394.99 307.18,393.86 
					308.31,392.73 304.9,389.33 308.66,385.57 312.07,388.98 314.32,386.72 310.92,383.31 314.67,379.56 318.08,382.96 
					319.21,381.84 319.21,381.84 320.33,380.71 316.93,377.3 320.69,373.55 324.09,376.95 326.35,374.7 322.94,371.29 326.7,367.53 
					330.1,370.94 331.23,369.81 332.36,368.69 328.95,365.28 332.71,361.52 336.12,364.93 338.13,362.92 338.13,362.43 
					334.96,359.27 338.13,356.1 338.13,350.4 335.31,347.59 				"/>
				<polygon points="294.61,361.79 280.54,347.71 273.06,355.19 287.13,369.27 285.79,370.61 297.51,372.17 295.96,360.45 				"/>
				<polygon points="330.69,325.71 316.61,311.64 309.13,319.12 323.21,333.2 321.86,334.54 333.59,336.09 332.03,324.37 				"/>
				<polygon points="318.66,337.74 304.59,323.66 297.1,331.14 311.18,345.22 309.84,346.56 321.56,348.12 320.01,336.4 				"/>
				<polygon points="222.47,433.93 208.39,419.86 200.91,427.34 214.99,441.42 213.64,442.76 225.37,444.31 223.81,432.59 				"/>
				<polygon points="333.18,295.07 338.13,300.02 338.13,290.12 				"/>
				<polygon points="321.15,307.09 335.23,321.17 333.89,322.51 338.13,323.08 338.13,309.1 328.63,299.61 				"/>
				<polygon points="334.71,334.97 333.59,336.09 332.46,337.22 335.87,340.63 332.46,344.04 334.71,346.29 338.12,342.88 
					338.13,342.89 338.13,338.37 338.12,338.37 				"/>
				<polygon points="284.96,397.94 288.37,401.35 284.61,405.11 280.25,400.75 283.66,397.34 281.41,395.09 278,398.5 
					274.59,395.09 273.46,396.22 272.34,397.34 275.74,400.75 272.34,404.16 274.59,406.41 278,403 282.36,407.36 278.6,411.12 
					275.19,407.71 274.07,408.84 272.94,409.97 276.35,413.38 272.59,417.13 268.23,412.77 271.64,409.37 269.38,407.11 
					265.97,410.52 262.57,407.11 261.44,408.24 260.31,409.37 263.72,412.77 260.31,416.18 262.57,418.44 265.97,415.03 
					270.33,419.39 266.58,423.15 263.17,419.74 262.04,420.87 260.91,421.99 264.32,425.4 260.56,429.16 256.2,424.8 259.61,421.39 
					257.36,419.14 253.95,422.54 250.54,419.14 249.42,420.26 248.29,421.39 251.7,424.8 248.29,428.21 250.54,430.46 
					253.95,427.05 258.31,431.41 254.55,435.17 251.14,431.76 250.02,432.89 259.09,441.96 260.21,440.83 256.81,437.42 
					260.56,433.67 263.97,437.07 266.22,434.82 262.82,431.41 266.58,427.65 269.98,431.06 271.11,429.93 272.24,428.81 
					268.83,425.4 272.59,421.64 275.99,425.05 278.25,422.8 274.84,419.39 278.6,415.63 282.01,419.04 283.13,417.91 284.26,416.78 
					280.85,413.38 284.61,409.62 288.02,413.03 290.27,410.77 286.87,407.36 290.62,403.61 294.03,407.01 295.16,405.89 
					286.09,396.82 				"/>
				<polygon points="246.52,409.89 232.44,395.81 224.96,403.29 239.04,417.37 237.69,418.71 249.42,420.26 247.86,408.54 				"/>
				<polygon points="234.49,421.91 220.41,407.83 212.93,415.31 227.01,429.39 225.67,430.73 237.39,432.29 235.84,420.57 				"/>
				<polygon points="248.89,434.02 252.3,437.42 248.54,441.18 244.18,436.82 247.59,433.42 245.33,431.16 241.93,434.57 
					238.52,431.16 237.39,432.29 236.26,433.42 239.67,436.82 236.26,440.23 238.52,442.48 241.93,439.08 246.28,443.44 
					242.53,447.19 239.12,443.79 237.99,444.91 236.87,446.04 240.27,449.45 236.51,453.21 232.16,448.85 235.56,445.44 
					233.31,443.19 229.9,446.59 226.49,443.19 225.37,444.31 224.24,445.44 227.65,448.85 224.24,452.25 226.49,454.51 229.9,451.1 
					234.26,455.46 230.5,459.22 227.1,455.81 225.97,456.94 235.04,466.01 236.16,464.88 232.76,461.47 236.51,457.72 
					239.92,461.12 242.18,458.87 238.77,455.46 242.53,451.7 245.93,455.11 247.06,453.98 248.19,452.86 244.78,449.45 
					248.54,445.69 251.95,449.1 254.2,446.84 250.79,443.44 254.55,439.68 257.96,443.09 259.09,441.96 250.02,432.89 				"/>
				<polygon points="258.54,397.86 244.46,383.78 236.98,391.26 251.06,405.34 249.72,406.68 261.44,408.24 259.88,396.52 				"/>
				<polygon points="270.57,385.84 256.49,371.76 249.01,379.24 263.08,393.32 261.74,394.66 273.46,396.22 271.91,384.49 				"/>
			</g>
			<g>
				<polygon points="569.85,550 559.44,550 560.66,540.81 562,542.15 576.08,528.08 583.56,535.56 569.48,549.63 				"/>
				<polygon points="558.8,538.95 547.08,540.51 548.64,528.79 549.98,530.13 564.06,516.05 571.54,523.53 557.46,537.61 				"/>
				<polygon points="451.41,458.07 448,461.47 451.76,465.23 456.12,460.87 452.71,457.47 454.97,455.21 458.38,458.62 
					461.78,455.21 462.91,456.34 464.04,457.47 460.63,460.87 464.04,464.28 461.78,466.53 458.38,463.13 454.02,467.49 
					457.77,471.24 461.18,467.84 462.31,468.96 463.44,470.09 460.03,473.5 463.79,477.26 468.15,472.9 464.74,469.49 
					466.99,467.23 470.4,470.64 473.81,467.23 474.93,468.36 476.06,469.49 472.65,472.9 476.06,476.3 473.81,478.56 470.4,475.15 
					466.04,479.51 469.8,483.27 473.21,479.86 474.33,480.99 465.26,490.06 464.14,488.93 467.54,485.52 463.79,481.76 
					460.38,485.17 458.13,482.92 461.53,479.51 457.77,475.75 454.37,479.16 453.24,478.03 452.11,476.9 455.52,473.5 
					451.76,469.74 448.36,473.15 446.1,470.89 449.51,467.49 445.75,463.73 442.34,467.13 441.22,466.01 450.28,456.94 				"/>
				<polygon points="546.78,526.93 535.06,528.48 536.61,516.76 537.95,518.1 552.03,504.03 559.51,511.51 545.44,525.59 				"/>
				<polygon points="465.81,445.96 479.89,431.88 487.37,439.36 473.29,453.44 474.63,454.78 462.91,456.34 464.47,444.62 				"/>
				<polygon points="378.44,358.59 366.72,360.14 368.27,348.42 369.61,349.76 383.69,335.69 391.17,343.17 377.09,357.24 				"/>
				<polygon points="578.21,550 588.11,540.1 595.59,547.58 593.17,550 				"/>
				<polygon points="477.83,457.98 491.91,443.9 499.39,451.39 485.31,465.46 486.66,466.81 474.93,468.36 476.49,456.64 				"/>
				<polygon points="532.18,545.64 535.93,549.4 540.29,545.04 536.88,541.64 539.14,539.38 542.55,542.79 545.95,539.38 
					548.21,541.64 544.8,545.04 548.21,548.45 546.66,550 545.25,550 542.55,547.3 539.84,550 532.02,550 529.92,547.9 527.82,550 
					525.56,550 534.46,541.11 535.58,542.24 				"/>
				<polygon points="501.88,482.03 515.96,467.95 523.44,475.43 509.36,489.51 510.71,490.86 498.98,492.41 500.54,480.69 				"/>
				<polygon points="508.73,508.97 512.13,512.38 509.88,514.63 506.47,511.22 502.11,515.58 505.87,519.34 509.28,515.93 
					510.41,517.06 501.34,526.13 500.21,525 503.62,521.6 499.86,517.84 496.45,521.24 494.2,518.99 497.61,515.58 493.85,511.83 
					490.44,515.23 489.31,514.11 488.19,512.98 491.59,509.57 487.84,505.81 484.43,509.22 482.17,506.97 485.58,503.56 
					481.82,499.8 478.42,503.21 477.29,502.08 476.16,500.95 479.57,497.55 475.81,493.79 472.4,497.2 470.15,494.94 473.56,491.53 
					469.8,487.78 466.39,491.18 465.26,490.06 474.33,480.99 475.46,482.12 472.05,485.52 475.81,489.28 480.17,484.92 
					476.76,481.51 479.02,479.26 482.42,482.67 485.83,479.26 486.96,480.39 488.09,481.51 484.68,484.92 488.09,488.33 
					485.83,490.58 482.42,487.18 478.07,491.53 481.82,495.29 485.23,491.88 486.36,493.01 487.48,494.14 484.08,497.55 
					487.84,501.3 492.19,496.95 488.79,493.54 491.04,491.28 494.45,494.69 497.86,491.28 498.98,492.41 500.11,493.54 
					496.7,496.95 500.11,500.35 497.86,502.61 494.45,499.2 490.09,503.56 493.85,507.32 497.25,503.91 498.38,505.04 
					499.51,506.16 496.1,509.57 499.86,513.33 504.22,508.97 500.81,505.56 503.07,503.31 506.47,506.71 509.88,503.31 
					511.01,504.44 512.13,505.56 				"/>
				<polygon points="489.86,470.01 503.94,455.93 511.42,463.41 497.34,477.49 498.68,478.83 486.96,480.39 488.51,468.66 				"/>
				<polygon points="525.93,506.08 540.01,492 547.49,499.48 533.41,513.56 534.75,514.9 523.03,516.46 524.59,504.74 				"/>
				<polygon points="522.73,502.88 511.01,504.44 512.56,492.71 513.91,494.06 527.98,479.98 535.47,487.46 521.39,501.54 				"/>
				<polygon points="532.78,533.02 536.18,536.43 533.93,538.68 530.52,535.27 526.16,539.63 529.92,543.39 533.33,539.98 
					534.46,541.11 525.56,550 525.21,550 524.26,549.05 527.67,545.64 523.91,541.89 520.5,545.29 518.25,543.04 521.65,539.63 
					517.9,535.87 514.49,539.28 513.36,538.15 512.23,537.03 515.64,533.62 511.88,529.86 508.48,533.27 506.22,531.01 
					509.63,527.61 505.87,523.85 502.47,527.26 501.34,526.13 510.41,517.06 511.53,518.19 508.13,521.6 511.88,525.35 
					516.24,520.99 512.84,517.59 515.09,515.33 518.5,518.74 521.9,515.33 523.03,516.46 524.16,517.59 520.75,520.99 524.16,524.4 
					521.9,526.66 518.5,523.25 514.14,527.61 517.9,531.37 521.3,527.96 522.43,529.09 523.56,530.21 520.15,533.62 523.91,537.38 
					528.27,533.02 524.86,529.61 527.12,527.36 530.52,530.76 533.93,527.36 535.06,528.48 536.18,529.61 				"/>
				<polygon points="342.07,348.72 343.19,349.85 339.79,353.25 343.54,357.01 347.9,352.65 344.49,349.25 346.75,346.99 
					350.16,350.4 353.56,346.99 354.69,348.12 355.82,349.25 352.41,352.65 355.82,356.06 353.56,358.31 350.16,354.91 
					345.8,359.27 349.56,363.02 352.96,359.62 354.09,360.74 355.22,361.87 351.81,365.28 355.57,369.04 359.93,364.68 
					356.52,361.27 358.77,359.02 362.18,362.42 365.59,359.02 367.84,361.27 364.44,364.68 367.84,368.08 365.59,370.34 
					362.18,366.93 357.82,371.29 361.58,375.05 364.99,371.64 366.11,372.77 366.11,372.77 367.24,373.9 363.83,377.3 
					367.59,381.06 371.95,376.7 368.54,373.29 370.8,371.04 374.21,374.45 377.61,371.04 378.74,372.17 379.87,373.29 376.46,376.7 
					379.87,380.11 377.61,382.36 374.21,378.96 369.85,383.31 373.6,387.07 377.01,383.67 378.14,384.79 379.27,385.92 
					375.86,389.33 379.62,393.08 383.97,388.73 380.57,385.32 382.82,383.06 386.23,386.47 389.64,383.06 390.76,384.19 
					392.32,372.47 393.66,373.81 407.74,359.73 415.22,367.22 401.14,381.29 402.49,382.64 390.76,384.19 391.89,385.32 
					388.48,388.73 391.89,392.13 389.64,394.39 386.23,390.98 381.87,395.34 385.63,399.1 389.04,395.69 390.16,396.82 
					381.09,405.89 379.97,404.76 383.37,401.35 379.62,397.59 376.21,401 373.95,398.75 377.36,395.34 373.6,391.58 370.2,394.99 
					369.07,393.86 367.94,392.73 371.35,389.33 367.59,385.57 364.18,388.98 361.93,386.72 365.34,383.31 361.58,379.56 
					358.17,382.96 357.05,381.84 357.05,381.84 355.92,380.71 359.32,377.3 355.57,373.55 352.16,376.95 349.91,374.7 
					353.31,371.29 349.56,367.53 346.15,370.94 345.02,369.81 343.89,368.69 347.3,365.28 343.54,361.52 340.14,364.93 
					338.13,362.92 338.13,362.43 341.29,359.27 338.13,356.1 338.13,350.4 340.94,347.59 				"/>
				<polygon points="381.64,361.79 395.72,347.71 403.2,355.19 389.12,369.27 390.46,370.61 378.74,372.17 380.29,360.45 				"/>
				<polygon points="345.56,325.71 359.64,311.64 367.12,319.12 353.05,333.2 354.39,334.54 342.67,336.09 344.22,324.37 				"/>
				<polygon points="357.59,337.74 371.67,323.66 379.15,331.14 365.07,345.22 366.41,346.56 354.69,348.12 356.25,336.4 				"/>
				<polygon points="453.78,433.93 467.86,419.86 475.34,427.34 461.27,441.42 462.61,442.76 450.89,444.31 452.44,432.59 				"/>
				<polygon points="343.08,295.07 338.13,300.02 338.13,290.12 				"/>
				<polygon points="355.1,307.09 341.02,321.17 342.36,322.51 338.13,323.08 338.13,309.1 347.62,299.61 				"/>
				<polygon points="341.54,334.97 342.67,336.09 343.79,337.22 340.39,340.63 343.79,344.04 341.54,346.29 338.13,342.88 
					338.13,342.89 338.13,338.37 338.13,338.37 				"/>
				<polygon points="391.29,397.94 387.88,401.35 391.64,405.11 396,400.75 392.59,397.34 394.85,395.09 398.25,398.5 
					401.66,395.09 402.79,396.22 403.92,397.34 400.51,400.75 403.92,404.16 401.66,406.41 398.25,403 393.9,407.36 397.65,411.12 
					401.06,407.71 402.19,408.84 403.31,409.97 399.91,413.38 403.66,417.13 408.02,412.77 404.62,409.37 406.87,407.11 
					410.28,410.52 413.69,407.11 414.81,408.24 415.94,409.37 412.53,412.77 415.94,416.18 413.69,418.44 410.28,415.03 
					405.92,419.39 409.68,423.15 413.08,419.74 414.21,420.87 415.34,421.99 411.93,425.4 415.69,429.16 420.05,424.8 
					416.64,421.39 418.9,419.14 422.3,422.54 425.71,419.14 426.84,420.26 427.96,421.39 424.56,424.8 427.96,428.21 425.71,430.46 
					422.3,427.05 417.94,431.41 421.7,435.17 425.11,431.76 426.24,432.89 417.17,441.96 416.04,440.83 419.45,437.42 
					415.69,433.67 412.28,437.07 410.03,434.82 413.43,431.41 409.68,427.65 406.27,431.06 405.14,429.93 404.02,428.81 
					407.42,425.4 403.66,421.64 400.26,425.05 398,422.8 401.41,419.39 397.65,415.63 394.25,419.04 393.12,417.91 391.99,416.78 
					395.4,413.38 391.64,409.62 388.23,413.03 385.98,410.77 389.39,407.36 385.63,403.61 382.22,407.01 381.09,405.89 
					390.16,396.82 				"/>
				<polygon points="429.74,409.89 443.81,395.81 451.29,403.29 437.22,417.37 438.56,418.71 426.84,420.26 428.39,408.54 				"/>
				<polygon points="441.76,421.91 455.84,407.83 463.32,415.31 449.24,429.39 450.58,430.73 438.86,432.29 440.42,420.57 				"/>
				<polygon points="427.36,434.02 423.96,437.42 427.71,441.18 432.07,436.82 428.67,433.42 430.92,431.16 434.33,434.57 
					437.73,431.16 438.86,432.29 439.99,433.42 436.58,436.82 439.99,440.23 437.73,442.48 434.33,439.08 429.97,443.44 
					433.73,447.19 437.13,443.79 438.26,444.91 439.39,446.04 435.98,449.45 439.74,453.21 444.1,448.85 440.69,445.44 
					442.94,443.19 446.35,446.59 449.76,443.19 450.89,444.31 452.01,445.44 448.61,448.85 452.01,452.25 449.76,454.51 
					446.35,451.1 441.99,455.46 445.75,459.22 449.16,455.81 450.28,456.94 441.22,466.01 440.09,464.88 443.5,461.47 
					439.74,457.72 436.33,461.12 434.08,458.87 437.48,455.46 433.73,451.7 430.32,455.11 429.19,453.98 428.06,452.86 
					431.47,449.45 427.71,445.69 424.31,449.1 422.05,446.84 425.46,443.44 421.7,439.68 418.29,443.09 417.17,441.96 
					426.24,432.89 				"/>
				<polygon points="417.71,397.86 431.79,383.78 439.27,391.26 425.19,405.34 426.53,406.68 414.81,408.24 416.37,396.52 				"/>
				<polygon points="405.69,385.84 419.76,371.76 427.25,379.24 413.17,393.32 414.51,394.66 402.79,396.22 404.34,384.49 				"/>
			</g>
		</g>
	</g>
</g>
<g>
</g>
<g>
</g>
<g>
</g>
<g>
</g>
<g>
</g>
<g>
</g>
<g>
</g>
<g>
</g>
<g>
</g>
<g>
</g>
<g>
</g>
<g>
</g>
<g>
</g>
<g>
</g>
<g>
</g>
</svg>
