<?xml version="1.0" encoding="utf-8"?>
<!-- Generator: Adobe Illustrator 27.2.0, SVG Export Plug-In . SVG Version: 6.00 Build 0)  -->
<svg version="1.1" id="Layer_1" xmlns="http://www.w3.org/2000/svg" xmlns:xlink="http://www.w3.org/1999/xlink" x="0px" y="0px"
	 viewBox="0 0 800 600" style="enable-background:new 0 0 800 600;" xml:space="preserve">
<g>
	<g>
		<g>
			<path d="M306.43,262.32c-0.46-0.46-0.7-1.07-0.7-1.68s0.23-1.22,0.7-1.68c0.93-0.93,2.44-0.93,3.37,0c0.93,0.93,0.93,2.44,0,3.37
				C308.87,263.25,307.36,263.25,306.43,262.32z"/>
			<path d="M301.67,257.56c-0.93-0.93-0.93-2.44,0-3.37c0.93-0.93,2.44-0.93,3.37,0c0.93,0.93,0.93,2.44,0,3.37
				C304.11,258.49,302.6,258.49,301.67,257.56z"/>
			<path d="M296.91,262.32c-0.93-0.93-0.93-2.44,0-3.37c0.93-0.93,2.44-0.93,3.37,0c0.46,0.46,0.7,1.07,0.7,1.68
				s-0.23,1.22-0.7,1.68C299.35,263.25,297.84,263.25,296.91,262.32z"/>
			<rect x="300.52" y="284.21" transform="matrix(0.7071 -0.7071 0.7071 0.7071 -114.1224 298.58)" width="5.67" height="5.67"/>
			<path d="M301.67,262.32c-0.46-0.46-0.7-1.07-0.7-1.68s0.23-1.22,0.7-1.68c0.93-0.93,2.44-0.93,3.37,0
				c0.46,0.46,0.7,1.07,0.7,1.68s-0.23,1.22-0.7,1.68C304.11,263.25,302.6,263.25,301.67,262.32z"/>
			<path d="M301.67,270.94c0.93-0.93,2.44-0.93,3.37,0c0.93,0.93,0.93,2.44,0,3.37c-0.93,0.93-2.44,0.93-3.37,0
				C300.74,273.37,300.74,271.87,301.67,270.94z"/>
			<path d="M303.36,281.91l9.29-9.29l-9.29-9.28l-9.28,9.28L303.36,281.91z M308.4,272.62l-5.04,5.04l-5.04-5.04l5.04-5.04
				L308.4,272.62z"/>
			<rect x="300.52" y="293.34" transform="matrix(0.7071 -0.7071 0.7071 0.7071 -120.5747 301.2527)" width="5.67" height="5.67"/>
			<rect x="300.52" y="302.46" transform="matrix(0.7071 -0.7071 0.7071 0.7071 -127.0271 303.9254)" width="5.67" height="5.67"/>
		</g>
		<g>
			<g>
				<path d="M62.36,497.45c-0.46-0.46-0.7-1.07-0.7-1.68s0.23-1.22,0.7-1.68c0.93-0.93,2.44-0.93,3.37,0c0.93,0.93,0.93,2.44,0,3.37
					C64.8,498.38,63.29,498.38,62.36,497.45z"/>
				<circle cx="59.28" cy="507.75" r="2.38"/>
				<path d="M59.28,517.04l9.29-9.28l-9.29-9.29L50,507.75L59.28,517.04z M64.33,507.75l-5.04,5.04l-5.04-5.04l5.04-5.04
					L64.33,507.75z"/>
				<path d="M52.84,497.45c-0.93-0.93-0.93-2.44,0-3.37c0.93-0.93,2.44-0.93,3.37,0c0.46,0.46,0.7,1.07,0.7,1.68
					s-0.23,1.22-0.7,1.68C55.28,498.38,53.77,498.38,52.84,497.45z"/>
				<path d="M57.6,497.45c-0.46-0.46-0.7-1.07-0.7-1.68s0.23-1.22,0.7-1.68s1.07-0.7,1.68-0.7s1.22,0.23,1.68,0.7
					c0.46,0.46,0.7,1.07,0.7,1.68s-0.23,1.22-0.7,1.68C60.04,498.38,58.53,498.38,57.6,497.45z"/>
				<rect x="56.45" y="519.34" transform="matrix(0.7071 -0.7071 0.7071 0.7071 -351.8712 194.8628)" width="5.67" height="5.67"/>
				<rect x="56.45" y="537.59" transform="matrix(0.7071 -0.7071 0.7071 0.7071 -364.7759 200.2081)" width="5.67" height="5.67"/>
				<rect x="56.45" y="528.47" transform="matrix(0.7071 -0.7071 0.7071 0.7071 -358.3235 197.5354)" width="5.67" height="5.67"/>
				<path d="M57.6,489.32c0.93-0.93,2.44-0.93,3.37,0c0.93,0.93,0.93,2.44,0,3.37c-0.46,0.46-1.07,0.7-1.68,0.7s-1.22-0.23-1.68-0.7
					C56.67,491.76,56.67,490.25,57.6,489.32z"/>
			</g>
			<g>
				<path d="M95.83,463.98c-0.46-0.46-0.7-1.07-0.7-1.68s0.23-1.22,0.7-1.68c0.93-0.93,2.44-0.93,3.37,0c0.93,0.93,0.93,2.44,0,3.37
					C98.27,464.91,96.76,464.91,95.83,463.98z"/>
				<circle cx="92.76" cy="474.28" r="2.38"/>
				<path d="M92.75,483.57l9.29-9.28l-9.29-9.29l-9.28,9.29L92.75,483.57z M97.8,474.28l-5.04,5.04l-5.04-5.04l5.04-5.04
					L97.8,474.28z"/>
				<path d="M86.31,463.98c-0.93-0.93-0.93-2.44,0-3.37c0.93-0.93,2.44-0.93,3.37,0c0.46,0.46,0.7,1.07,0.7,1.68
					s-0.23,1.22-0.7,1.68C88.75,464.91,87.24,464.91,86.31,463.98z"/>
				<path d="M91.07,463.98c-0.46-0.46-0.7-1.07-0.7-1.68s0.23-1.22,0.7-1.68s1.07-0.7,1.68-0.7s1.22,0.23,1.68,0.7
					c0.46,0.46,0.7,1.07,0.7,1.68s-0.23,1.22-0.7,1.68C93.51,464.91,92,464.91,91.07,463.98z"/>
				<rect x="89.92" y="485.87" transform="matrix(0.7071 -0.7071 0.7071 0.7071 -318.4004 208.7269)" width="5.67" height="5.67"/>
				<rect x="89.92" y="504.12" transform="matrix(0.7071 -0.7071 0.7071 0.7071 -331.3051 214.0721)" width="5.67" height="5.67"/>
				<rect x="89.92" y="495" transform="matrix(0.7071 -0.7071 0.7071 0.7071 -324.8528 211.3995)" width="5.67" height="5.67"/>
				<path d="M91.07,455.85c0.93-0.93,2.44-0.93,3.37,0c0.93,0.93,0.93,2.44,0,3.37c-0.46,0.46-1.07,0.7-1.68,0.7
					s-1.22-0.23-1.68-0.7C90.14,458.29,90.14,456.78,91.07,455.85z"/>
			</g>
			<g>
				<path d="M129.3,430.51c-0.46-0.46-0.7-1.07-0.7-1.68s0.23-1.22,0.7-1.68c0.93-0.93,2.44-0.93,3.37,0c0.93,0.93,0.93,2.44,0,3.37
					C131.74,431.44,130.23,431.44,129.3,430.51z"/>
				<circle cx="126.23" cy="440.81" r="2.38"/>
				<path d="M126.23,450.09l9.29-9.28l-9.29-9.29l-9.28,9.29L126.23,450.09z M131.27,440.81l-5.04,5.04l-5.04-5.04l5.04-5.04
					L131.27,440.81z"/>
				<path d="M119.78,430.51c-0.93-0.93-0.93-2.44,0-3.37c0.93-0.93,2.44-0.93,3.37,0c0.46,0.46,0.7,1.07,0.7,1.68
					s-0.23,1.22-0.7,1.68C122.22,431.44,120.71,431.44,119.78,430.51z"/>
				<path d="M124.54,430.51c-0.46-0.46-0.7-1.07-0.7-1.68s0.23-1.22,0.7-1.68s1.07-0.7,1.68-0.7s1.22,0.23,1.68,0.7
					c0.46,0.46,0.7,1.07,0.7,1.68s-0.23,1.22-0.7,1.68C126.98,431.44,125.47,431.44,124.54,430.51z"/>
				<rect x="123.39" y="452.4" transform="matrix(0.7071 -0.7071 0.7071 0.7071 -284.9296 222.5909)" width="5.67" height="5.67"/>
				<rect x="123.39" y="470.65" transform="matrix(0.7071 -0.7071 0.7071 0.7071 -297.8343 227.9362)" width="5.67" height="5.67"/>
				<rect x="123.39" y="461.53" transform="matrix(0.7071 -0.7071 0.7071 0.7071 -291.382 225.2635)" width="5.67" height="5.67"/>
				<path d="M124.54,422.38c0.93-0.93,2.44-0.93,3.37,0c0.93,0.93,0.93,2.44,0,3.37c-0.46,0.46-1.07,0.7-1.68,0.7
					s-1.22-0.23-1.68-0.7C123.61,424.82,123.61,423.31,124.54,422.38z"/>
			</g>
			<g>
				<path d="M162.77,397.04c-0.46-0.46-0.7-1.07-0.7-1.68s0.23-1.22,0.7-1.68c0.93-0.93,2.44-0.93,3.37,0
					c0.93,0.93,0.93,2.44,0,3.37C165.21,397.97,163.7,397.97,162.77,397.04z"/>
				<circle cx="159.7" cy="407.34" r="2.38"/>
				<path d="M159.7,416.62l9.29-9.28l-9.29-9.29l-9.28,9.29L159.7,416.62z M164.74,407.34l-5.04,5.04l-5.04-5.04l5.04-5.04
					L164.74,407.34z"/>
				<path d="M153.25,397.04c-0.93-0.93-0.93-2.44,0-3.37c0.93-0.93,2.44-0.93,3.37,0c0.46,0.46,0.7,1.07,0.7,1.68
					s-0.23,1.22-0.7,1.68C155.69,397.97,154.18,397.97,153.25,397.04z"/>
				<path d="M158.01,397.04c-0.46-0.46-0.7-1.07-0.7-1.68s0.23-1.22,0.7-1.68s1.07-0.7,1.68-0.7s1.22,0.23,1.68,0.7
					c0.46,0.46,0.7,1.07,0.7,1.68s-0.23,1.22-0.7,1.68C160.45,397.97,158.94,397.97,158.01,397.04z"/>
				<rect x="156.86" y="418.93" transform="matrix(0.7071 -0.7071 0.7071 0.7071 -251.4588 236.4549)" width="5.67" height="5.67"/>
				<rect x="156.86" y="437.18" transform="matrix(0.7071 -0.7071 0.7071 0.7071 -264.3635 241.8002)" width="5.67" height="5.67"/>
				<rect x="156.86" y="428.06" transform="matrix(0.7071 -0.7071 0.7071 0.7071 -257.9112 239.1276)" width="5.67" height="5.67"/>
				<path d="M158.01,388.91c0.93-0.93,2.44-0.93,3.37,0c0.93,0.93,0.93,2.44,0,3.37c-0.46,0.46-1.07,0.7-1.68,0.7
					s-1.22-0.23-1.68-0.7C157.08,391.35,157.08,389.84,158.01,388.91z"/>
			</g>
			<g>
				<path d="M196.25,363.57c-0.46-0.46-0.7-1.07-0.7-1.68s0.23-1.22,0.7-1.68c0.93-0.93,2.44-0.93,3.37,0
					c0.93,0.93,0.93,2.44,0,3.37C198.68,364.5,197.17,364.5,196.25,363.57z"/>
				<circle cx="193.17" cy="373.87" r="2.38"/>
				<path d="M193.17,383.15l9.29-9.28l-9.29-9.29l-9.28,9.29L193.17,383.15z M198.21,373.87l-5.04,5.04l-5.04-5.04l5.04-5.04
					L198.21,373.87z"/>
				<path d="M186.72,363.57c-0.93-0.93-0.93-2.44,0-3.37c0.93-0.93,2.44-0.93,3.37,0c0.46,0.46,0.7,1.07,0.7,1.68
					s-0.23,1.22-0.7,1.68C189.16,364.5,187.65,364.5,186.72,363.57z"/>
				<path d="M191.48,363.57c-0.46-0.46-0.7-1.07-0.7-1.68s0.23-1.22,0.7-1.68s1.07-0.7,1.68-0.7s1.22,0.23,1.68,0.7
					c0.46,0.46,0.7,1.07,0.7,1.68s-0.23,1.22-0.7,1.68C193.92,364.5,192.41,364.5,191.48,363.57z"/>
				<rect x="190.33" y="385.46" transform="matrix(0.7071 -0.7071 0.7071 0.7071 -217.9881 250.319)" width="5.67" height="5.67"/>
				<rect x="190.33" y="403.71" transform="matrix(0.7071 -0.7071 0.7071 0.7071 -230.8928 255.6643)" width="5.67" height="5.67"/>
				<rect x="190.33" y="394.58" transform="matrix(0.7071 -0.7071 0.7071 0.7071 -224.4404 252.9917)" width="5.67" height="5.67"/>
				<path d="M191.48,355.44c0.93-0.93,2.44-0.93,3.37,0c0.93,0.93,0.93,2.44,0,3.37c-0.46,0.46-1.07,0.7-1.68,0.7
					s-1.22-0.23-1.68-0.7C190.56,357.88,190.56,356.37,191.48,355.44z"/>
			</g>
			<g>
				<path d="M229.72,330.1c-0.46-0.46-0.7-1.07-0.7-1.68s0.23-1.22,0.7-1.68c0.93-0.93,2.44-0.93,3.37,0c0.93,0.93,0.93,2.44,0,3.37
					C232.15,331.03,230.65,331.03,229.72,330.1z"/>
				<circle cx="226.64" cy="340.4" r="2.38"/>
				<path d="M226.64,349.68l9.29-9.28l-9.29-9.29l-9.28,9.29L226.64,349.68z M231.68,340.4l-5.04,5.04l-5.04-5.04l5.04-5.04
					L231.68,340.4z"/>
				<path d="M220.19,330.1c-0.93-0.93-0.93-2.44,0-3.37c0.93-0.93,2.44-0.93,3.37,0c0.46,0.46,0.7,1.07,0.7,1.68
					s-0.23,1.22-0.7,1.68C222.63,331.03,221.12,331.03,220.19,330.1z"/>
				<path d="M224.96,330.1c-0.46-0.46-0.7-1.07-0.7-1.68s0.23-1.22,0.7-1.68s1.07-0.7,1.68-0.7s1.22,0.23,1.68,0.7
					c0.46,0.46,0.7,1.07,0.7,1.68s-0.23,1.22-0.7,1.68C227.39,331.03,225.88,331.03,224.96,330.1z"/>
				<rect x="223.8" y="351.99" transform="matrix(0.7071 -0.7071 0.7071 0.7071 -184.5173 264.183)" width="5.67" height="5.67"/>
				<rect x="223.8" y="370.24" transform="matrix(0.7071 -0.7071 0.7071 0.7071 -197.422 269.5284)" width="5.67" height="5.67"/>
				<rect x="223.8" y="361.11" transform="matrix(0.7071 -0.7071 0.7071 0.7071 -190.9696 266.8557)" width="5.67" height="5.67"/>
				<path d="M224.96,321.97c0.93-0.93,2.44-0.93,3.37,0c0.93,0.93,0.93,2.44,0,3.37c-0.46,0.46-1.07,0.7-1.68,0.7
					s-1.22-0.23-1.68-0.7C224.03,324.41,224.03,322.9,224.96,321.97z"/>
			</g>
			<g>
				<path d="M263.19,296.63c-0.46-0.46-0.7-1.07-0.7-1.68s0.23-1.22,0.7-1.68c0.93-0.93,2.44-0.93,3.37,0
					c0.93,0.93,0.93,2.44,0,3.37C265.62,297.56,264.12,297.56,263.19,296.63z"/>
				<circle cx="260.11" cy="306.93" r="2.38"/>
				<path d="M260.11,316.21l9.29-9.28l-9.29-9.29l-9.28,9.29L260.11,316.21z M265.15,306.93l-5.04,5.04l-5.04-5.04l5.04-5.04
					L265.15,306.93z"/>
				<path d="M253.67,296.63c-0.93-0.93-0.93-2.44,0-3.37c0.93-0.93,2.44-0.93,3.37,0c0.46,0.46,0.7,1.07,0.7,1.68
					s-0.23,1.22-0.7,1.68C256.1,297.56,254.6,297.56,253.67,296.63z"/>
				<path d="M258.43,296.63c-0.46-0.46-0.7-1.07-0.7-1.68s0.23-1.22,0.7-1.68s1.07-0.7,1.68-0.7s1.22,0.23,1.68,0.7
					c0.46,0.46,0.7,1.07,0.7,1.68s-0.23,1.22-0.7,1.68C260.86,297.56,259.36,297.56,258.43,296.63z"/>
				<rect x="257.27" y="318.52" transform="matrix(0.7071 -0.7071 0.7071 0.7071 -151.0465 278.0471)" width="5.67" height="5.67"/>
				<rect x="257.27" y="336.77" transform="matrix(0.7071 -0.7071 0.7071 0.7071 -163.9512 283.3924)" width="5.67" height="5.67"/>
				<rect x="257.27" y="327.64" transform="matrix(0.7071 -0.7071 0.7071 0.7071 -157.4988 280.7198)" width="5.67" height="5.67"/>
				<path d="M258.43,288.5c0.93-0.93,2.44-0.93,3.37,0c0.93,0.93,0.93,2.44,0,3.37c-0.46,0.46-1.07,0.7-1.68,0.7
					s-1.22-0.23-1.68-0.7C257.5,290.94,257.5,289.43,258.43,288.5z"/>
			</g>
		</g>
		<g>
			<g>
				<path d="M544.35,497.45c0.46-0.46,0.7-1.07,0.7-1.68s-0.23-1.22-0.7-1.68c-0.93-0.93-2.44-0.93-3.37,0
					c-0.93,0.93-0.93,2.44,0,3.37C541.92,498.38,543.42,498.38,544.35,497.45z"/>
				<circle cx="547.43" cy="507.75" r="2.38"/>
				<path d="M556.72,507.75l-9.28-9.29l-9.29,9.29l9.29,9.28L556.72,507.75z M547.43,502.71l5.04,5.04l-5.04,5.04l-5.04-5.04
					L547.43,502.71z"/>
				<path d="M553.87,497.45c0.93-0.93,0.93-2.44,0-3.37c-0.93-0.93-2.44-0.93-3.37,0c-0.46,0.46-0.7,1.07-0.7,1.68
					s0.23,1.22,0.7,1.68C551.44,498.38,552.94,498.38,553.87,497.45z"/>
				<path d="M549.11,497.45c0.46-0.46,0.7-1.07,0.7-1.68s-0.23-1.22-0.7-1.68s-1.07-0.7-1.68-0.7s-1.22,0.23-1.68,0.7
					c-0.46,0.46-0.7,1.07-0.7,1.68s0.23,1.22,0.7,1.68C546.68,498.38,548.18,498.38,549.11,497.45z"/>
				<rect x="544.6" y="519.34" transform="matrix(0.7071 -0.7071 0.7071 0.7071 -208.8966 540.0341)" width="5.67" height="5.67"/>
				<rect x="544.6" y="537.59" transform="matrix(0.7071 -0.7071 0.7071 0.7071 -221.8013 545.3793)" width="5.67" height="5.67"/>
				<rect x="544.6" y="528.47" transform="matrix(0.7071 -0.7071 0.7071 0.7071 -215.3489 542.7067)" width="5.67" height="5.67"/>
				<path d="M549.11,489.32c-0.93-0.93-2.44-0.93-3.37,0c-0.93,0.93-0.93,2.44,0,3.37c0.46,0.46,1.07,0.7,1.68,0.7
					s1.22-0.23,1.68-0.7C550.04,491.76,550.04,490.25,549.11,489.32z"/>
			</g>
			<g>
				<path d="M510.88,463.98c0.46-0.46,0.7-1.07,0.7-1.68s-0.23-1.22-0.7-1.68c-0.93-0.93-2.44-0.93-3.37,0
					c-0.93,0.93-0.93,2.44,0,3.37C508.45,464.91,509.95,464.91,510.88,463.98z"/>
				<circle cx="513.96" cy="474.28" r="2.38"/>
				<path d="M523.24,474.28l-9.28-9.29l-9.29,9.29l9.29,9.28L523.24,474.28z M513.96,469.24l5.04,5.04l-5.04,5.04l-5.04-5.04
					L513.96,469.24z"/>
				<path d="M520.4,463.98c0.93-0.93,0.93-2.44,0-3.37c-0.93-0.93-2.44-0.93-3.37,0c-0.46,0.46-0.7,1.07-0.7,1.68
					s0.23,1.22,0.7,1.68C517.97,464.91,519.47,464.91,520.4,463.98z"/>
				<path d="M515.64,463.98c0.46-0.46,0.7-1.07,0.7-1.68s-0.23-1.22-0.7-1.68s-1.07-0.7-1.68-0.7s-1.22,0.23-1.68,0.7
					c-0.46,0.46-0.7,1.07-0.7,1.68s0.23,1.22,0.7,1.68C513.21,464.91,514.71,464.91,515.64,463.98z"/>
				<rect x="511.13" y="485.87" transform="matrix(0.7071 -0.7071 0.7071 0.7071 -195.0325 506.5632)" width="5.67" height="5.67"/>
				<rect x="511.13" y="504.12" transform="matrix(0.7071 -0.7071 0.7071 0.7071 -207.9372 511.9085)" width="5.67" height="5.67"/>
				<rect x="511.13" y="495" transform="matrix(0.7071 -0.7071 0.7071 0.7071 -201.4849 509.2359)" width="5.67" height="5.67"/>
				<path d="M515.64,455.85c-0.93-0.93-2.44-0.93-3.37,0c-0.93,0.93-0.93,2.44,0,3.37c0.46,0.46,1.07,0.7,1.68,0.7
					s1.22-0.23,1.68-0.7C516.57,458.29,516.57,456.78,515.64,455.85z"/>
			</g>
			<g>
				<path d="M477.41,430.51c0.46-0.46,0.7-1.07,0.7-1.68s-0.23-1.22-0.7-1.68c-0.93-0.93-2.44-0.93-3.37,0
					c-0.93,0.93-0.93,2.44,0,3.37C474.97,431.44,476.48,431.44,477.41,430.51z"/>
				<circle cx="480.49" cy="440.81" r="2.38"/>
				<path d="M489.77,440.81l-9.28-9.29l-9.29,9.29l9.29,9.28L489.77,440.81z M480.49,435.77l5.04,5.04l-5.04,5.04l-5.04-5.04
					L480.49,435.77z"/>
				<path d="M486.93,430.51c0.93-0.93,0.93-2.44,0-3.37c-0.93-0.93-2.44-0.93-3.37,0c-0.46,0.46-0.7,1.07-0.7,1.68
					s0.23,1.22,0.7,1.68C484.5,431.44,486,431.44,486.93,430.51z"/>
				<path d="M482.17,430.51c0.46-0.46,0.7-1.07,0.7-1.68s-0.23-1.22-0.7-1.68s-1.07-0.7-1.68-0.7s-1.22,0.23-1.68,0.7
					c-0.46,0.46-0.7,1.07-0.7,1.68s0.23,1.22,0.7,1.68C479.74,431.44,481.24,431.44,482.17,430.51z"/>
				<rect x="477.65" y="452.4" transform="matrix(0.7071 -0.7071 0.7071 0.7071 -181.1685 473.0925)" width="5.67" height="5.67"/>
				<rect x="477.65" y="470.65" transform="matrix(0.7071 -0.7071 0.7071 0.7071 -194.0732 478.4378)" width="5.67" height="5.67"/>
				<rect x="477.65" y="461.53" transform="matrix(0.7071 -0.7071 0.7071 0.7071 -187.6208 475.7651)" width="5.67" height="5.67"/>
				<path d="M482.17,422.38c-0.93-0.93-2.44-0.93-3.37,0c-0.93,0.93-0.93,2.44,0,3.37c0.46,0.46,1.07,0.7,1.68,0.7
					s1.22-0.23,1.68-0.7C483.1,424.82,483.1,423.31,482.17,422.38z"/>
			</g>
			<g>
				<path d="M443.94,397.04c0.46-0.46,0.7-1.07,0.7-1.68s-0.23-1.22-0.7-1.68c-0.93-0.93-2.44-0.93-3.37,0
					c-0.93,0.93-0.93,2.44,0,3.37C441.5,397.97,443.01,397.97,443.94,397.04z"/>
				<circle cx="447.02" cy="407.34" r="2.38"/>
				<path d="M456.3,407.34l-9.28-9.29l-9.29,9.29l9.29,9.28L456.3,407.34z M447.02,402.3l5.04,5.04l-5.04,5.04l-5.04-5.04
					L447.02,402.3z"/>
				<path d="M453.46,397.04c0.93-0.93,0.93-2.44,0-3.37c-0.93-0.93-2.44-0.93-3.37,0c-0.46,0.46-0.7,1.07-0.7,1.68
					s0.23,1.22,0.7,1.68C451.03,397.97,452.53,397.97,453.46,397.04z"/>
				<path d="M448.7,397.04c0.46-0.46,0.7-1.07,0.7-1.68s-0.23-1.22-0.7-1.68s-1.07-0.7-1.68-0.7s-1.22,0.23-1.68,0.7
					c-0.46,0.46-0.7,1.07-0.7,1.68s0.23,1.22,0.7,1.68C446.26,397.97,447.77,397.97,448.7,397.04z"/>
				<rect x="444.18" y="418.93" transform="matrix(0.7071 -0.7071 0.7071 0.7071 -167.3044 439.6217)" width="5.67" height="5.67"/>
				<rect x="444.18" y="437.18" transform="matrix(0.7071 -0.7071 0.7071 0.7071 -180.2091 444.967)" width="5.67" height="5.67"/>
				<rect x="444.18" y="428.06" transform="matrix(0.7071 -0.7071 0.7071 0.7071 -173.7568 442.2943)" width="5.67" height="5.67"/>
				<path d="M448.7,388.91c-0.93-0.93-2.44-0.93-3.37,0c-0.93,0.93-0.93,2.44,0,3.37c0.46,0.46,1.07,0.7,1.68,0.7
					s1.22-0.23,1.68-0.7C449.63,391.35,449.63,389.84,448.7,388.91z"/>
			</g>
			<g>
				<path d="M410.47,363.57c0.46-0.46,0.7-1.07,0.7-1.68s-0.23-1.22-0.7-1.68c-0.93-0.93-2.44-0.93-3.37,0
					c-0.93,0.93-0.93,2.44,0,3.37C408.03,364.5,409.54,364.5,410.47,363.57z"/>
				<circle cx="413.55" cy="373.87" r="2.38"/>
				<path d="M422.83,373.87l-9.28-9.29l-9.29,9.29l9.29,9.28L422.83,373.87z M413.55,368.83l5.04,5.04l-5.04,5.04l-5.04-5.04
					L413.55,368.83z"/>
				<path d="M419.99,363.57c0.93-0.93,0.93-2.44,0-3.37c-0.93-0.93-2.44-0.93-3.37,0c-0.46,0.46-0.7,1.07-0.7,1.68
					s0.23,1.22,0.7,1.68C417.55,364.5,419.06,364.5,419.99,363.57z"/>
				<path d="M415.23,363.57c0.46-0.46,0.7-1.07,0.7-1.68s-0.23-1.22-0.7-1.68s-1.07-0.7-1.68-0.7s-1.22,0.23-1.68,0.7
					c-0.46,0.46-0.7,1.07-0.7,1.68s0.23,1.22,0.7,1.68C412.79,364.5,414.3,364.5,415.23,363.57z"/>
				<rect x="410.71" y="385.46" transform="matrix(0.7071 -0.7071 0.7071 0.7071 -153.4404 406.1509)" width="5.67" height="5.67"/>
				<rect x="410.71" y="403.71" transform="matrix(0.7071 -0.7071 0.7071 0.7071 -166.3451 411.4962)" width="5.67" height="5.67"/>
				<rect x="410.71" y="394.58" transform="matrix(0.7071 -0.7071 0.7071 0.7071 -159.8927 408.8235)" width="5.67" height="5.67"/>
				<path d="M415.23,355.44c-0.93-0.93-2.44-0.93-3.37,0c-0.93,0.93-0.93,2.44,0,3.37c0.46,0.46,1.07,0.7,1.68,0.7
					s1.22-0.23,1.68-0.7C416.16,357.88,416.16,356.37,415.23,355.44z"/>
			</g>
			<g>
				<path d="M377,330.1c0.46-0.46,0.7-1.07,0.7-1.68s-0.23-1.22-0.7-1.68c-0.93-0.93-2.44-0.93-3.37,0c-0.93,0.93-0.93,2.44,0,3.37
					C374.56,331.03,376.07,331.03,377,330.1z"/>
				<circle cx="380.08" cy="340.4" r="2.38"/>
				<path d="M389.36,340.4l-9.28-9.29l-9.29,9.29l9.29,9.28L389.36,340.4z M380.08,335.35l5.04,5.04l-5.04,5.04l-5.04-5.04
					L380.08,335.35z"/>
				<path d="M386.52,330.1c0.93-0.93,0.93-2.44,0-3.37c-0.93-0.93-2.44-0.93-3.37,0c-0.46,0.46-0.7,1.07-0.7,1.68
					s0.23,1.22,0.7,1.68C384.08,331.03,385.59,331.03,386.52,330.1z"/>
				<path d="M381.76,330.1c0.46-0.46,0.7-1.07,0.7-1.68s-0.23-1.22-0.7-1.68s-1.07-0.7-1.68-0.7s-1.22,0.23-1.68,0.7
					c-0.46,0.46-0.7,1.07-0.7,1.68s0.23,1.22,0.7,1.68C379.32,331.03,380.83,331.03,381.76,330.1z"/>
				<rect x="377.24" y="351.99" transform="matrix(0.7071 -0.7071 0.7071 0.7071 -139.5763 372.6801)" width="5.67" height="5.67"/>
				<rect x="377.24" y="370.24" transform="matrix(0.7071 -0.7071 0.7071 0.7071 -152.481 378.0254)" width="5.67" height="5.67"/>
				<rect x="377.24" y="361.11" transform="matrix(0.7071 -0.7071 0.7071 0.7071 -146.0287 375.3528)" width="5.67" height="5.67"/>
				<path d="M381.76,321.97c-0.93-0.93-2.44-0.93-3.37,0c-0.93,0.93-0.93,2.44,0,3.37c0.46,0.46,1.07,0.7,1.68,0.7
					s1.22-0.23,1.68-0.7C382.69,324.41,382.69,322.9,381.76,321.97z"/>
			</g>
			<g>
				<path d="M343.53,296.63c0.46-0.46,0.7-1.07,0.7-1.68s-0.23-1.22-0.7-1.68c-0.93-0.93-2.44-0.93-3.37,0
					c-0.93,0.93-0.93,2.44,0,3.37C341.09,297.56,342.6,297.56,343.53,296.63z"/>
				<circle cx="346.61" cy="306.93" r="2.38"/>
				<path d="M355.89,306.93l-9.28-9.29l-9.29,9.29l9.29,9.28L355.89,306.93z M346.61,301.88l5.04,5.04l-5.04,5.04l-5.04-5.04
					L346.61,301.88z"/>
				<path d="M353.05,296.63c0.93-0.93,0.93-2.44,0-3.37c-0.93-0.93-2.44-0.93-3.37,0c-0.46,0.46-0.7,1.07-0.7,1.68
					s0.23,1.22,0.7,1.68C350.61,297.56,352.12,297.56,353.05,296.63z"/>
				<path d="M348.29,296.63c0.46-0.46,0.7-1.07,0.7-1.68s-0.23-1.22-0.7-1.68s-1.07-0.7-1.68-0.7s-1.22,0.23-1.68,0.7
					c-0.46,0.46-0.7,1.07-0.7,1.68s0.23,1.22,0.7,1.68C345.85,297.56,347.36,297.56,348.29,296.63z"/>
				<rect x="343.77" y="318.52" transform="matrix(0.7071 -0.7071 0.7071 0.7071 -125.7123 339.2094)" width="5.67" height="5.67"/>
				<rect x="343.77" y="336.77" transform="matrix(0.7071 -0.7071 0.7071 0.7071 -138.617 344.5546)" width="5.67" height="5.67"/>
				<rect x="343.77" y="327.64" transform="matrix(0.7071 -0.7071 0.7071 0.7071 -132.1646 341.882)" width="5.67" height="5.67"/>
				<path d="M348.29,288.5c-0.93-0.93-2.44-0.93-3.37,0c-0.93,0.93-0.93,2.44,0,3.37c0.46,0.46,1.07,0.7,1.68,0.7
					s1.22-0.23,1.68-0.7C349.22,290.94,349.22,289.43,348.29,288.5z"/>
			</g>
		</g>
		<g>
			<rect x="283.54" y="537.29" width="5.67" height="5.67"/>
			<rect x="317.51" y="537.29" width="5.67" height="5.67"/>
			<path d="M353.86,482.92c1.31,0,2.38,1.07,2.38,2.38c0,0.66-0.27,1.25-0.7,1.68l-3.37-3.37
				C352.61,483.19,353.2,482.92,353.86,482.92z"/>
			<path d="M374.72,503.78c1.31,0,2.38,1.07,2.38,2.38c0,0.66-0.27,1.25-0.7,1.68l-3.37-3.37
				C373.47,504.05,374.06,503.78,374.72,503.78z"/>
			<path d="M385.15,514.21c1.31,0,2.38,1.07,2.38,2.38c0,0.66-0.27,1.25-0.7,1.68l-3.37-3.37
				C383.9,514.48,384.49,514.21,385.15,514.21z"/>
			<rect x="311.84" y="542.96" width="5.67" height="5.67"/>
			<path d="M322.57,451.63c1.31,0,2.38,1.07,2.38,2.38c0,0.66-0.27,1.25-0.7,1.68l-3.37-3.37
				C321.32,451.9,321.91,451.63,322.57,451.63z"/>
			<rect x="317.51" y="548.63" width="5.67" height="1.18"/>
			<path d="M333,462.06c1.31,0,2.38,1.07,2.38,2.38c0,0.66-0.27,1.25-0.7,1.68l-3.37-3.37C331.75,462.33,332.34,462.06,333,462.06z"
				/>
			<path d="M343.43,472.49c1.31,0,2.38,1.07,2.38,2.38c0,0.66-0.27,1.25-0.7,1.68l-3.37-3.37
				C342.18,472.76,342.77,472.49,343.43,472.49z"/>
			<path d="M395.58,524.64c1.31,0,2.38,1.07,2.38,2.38c0,0.66-0.27,1.25-0.7,1.68l-3.37-3.37
				C394.33,524.91,394.92,524.64,395.58,524.64z"/>
			<path d="M364.29,493.35c1.31,0,2.38,1.07,2.38,2.38c0,0.66-0.27,1.25-0.7,1.68l-3.37-3.37
				C363.04,493.62,363.63,493.35,364.29,493.35z"/>
			<rect x="300.52" y="525.57" width="5.67" height="5.67"/>
			<rect x="300.52" y="537.68" width="5.67" height="5.67"/>
			<rect x="306.58" y="531.62" width="5.67" height="5.67"/>
			<rect x="300.55" y="548.27" width="5.62" height="1.54"/>
			<rect x="294.47" y="531.62" width="5.67" height="5.67"/>
			<polygon points="231.02,545.79 246.8,545.79 242.78,549.81 227,549.81 			"/>
			<polygon points="410.28,549.81 404.63,549.81 408.64,545.79 400.71,537.86 387.93,525.08 375.16,512.31 362.39,499.54 
				349.61,486.76 336.84,473.99 324.07,461.22 311.29,448.44 303.36,440.51 282.65,461.22 269.87,473.99 257.1,486.76 
				244.33,499.54 231.55,512.31 206.01,537.86 198.07,545.79 202.09,549.81 196.43,549.81 192.41,545.79 203.18,535.03 
				228.73,509.48 241.5,496.71 254.27,483.94 267.05,471.16 279.82,458.39 292.59,445.61 303.36,434.85 314.12,445.61 
				326.89,458.39 339.67,471.16 352.44,483.94 365.22,496.71 377.99,509.48 390.76,522.26 403.54,535.03 414.3,545.79 			"/>
			<path d="M416.44,545.5c0.41,0,0.79,0.11,1.12,0.29h-2.25C415.65,545.61,416.03,545.5,416.44,545.5z"/>
			<path d="M416.44,546.09c-0.41,0-0.79-0.11-1.12-0.29h2.25C417.23,545.98,416.85,546.09,416.44,546.09z"/>
			<path d="M406.01,535.07c1.31,0,2.38,1.07,2.38,2.38c0,0.66-0.27,1.25-0.7,1.68l-3.37-3.37
				C404.76,535.34,405.35,535.07,406.01,535.07z"/>
			<polygon points="423,545.79 423,549.81 410.33,549.81 412.87,547.27 420,547.27 420,545.79 			"/>
			<polygon points="328.85,548.63 334.52,548.63 334.52,548.97 334.86,548.63 334.52,548.63 334.52,542.96 334.86,542.96 
				334.52,542.61 334.52,542.96 328.85,542.96 328.85,537.29 329.19,537.29 328.85,536.95 328.85,537.29 323.18,537.29 
				323.18,531.62 323.52,531.62 323.18,531.28 323.18,531.62 317.51,531.62 317.51,525.95 317.85,525.95 317.51,525.61 
				317.51,525.95 311.84,525.95 311.84,520.28 312.18,520.28 311.84,519.94 311.84,520.28 306.17,520.28 306.17,514.61 
				306.51,514.61 306.17,514.27 306.17,514.61 300.55,514.61 300.55,514.27 300.2,514.61 300.55,514.61 300.55,520.28 
				294.88,520.28 294.88,519.94 294.53,520.28 294.88,520.28 294.88,525.95 289.21,525.95 289.21,525.61 288.86,525.95 
				289.21,525.95 289.21,531.62 283.54,531.62 283.54,531.28 283.19,531.62 283.54,531.62 283.54,537.29 277.87,537.29 
				277.87,536.94 277.52,537.29 277.87,537.29 277.87,542.96 272.2,542.96 272.2,542.61 271.85,542.96 272.2,542.96 272.2,548.63 
				271.85,548.63 272.2,548.97 272.2,548.63 277.87,548.63 277.87,549.81 267.38,549.81 263.36,545.79 298.61,510.55 303.36,505.8 
				308.11,510.55 338.6,541.04 343.35,545.79 339.33,549.81 328.85,549.81 			"/>
			<path d="M190.28,546.09c-0.41,0-0.79-0.11-1.12-0.29h2.25C191.06,545.98,190.69,546.09,190.28,546.09z"/>
			<polygon points="224.74,542.14 223.42,543.46 225.76,545.79 214.1,545.79 214.04,541.97 224.74,542.14 224.74,542.14 
				224.74,542.14 			"/>
			<polygon points="235.26,531.62 233.94,532.93 246.8,545.79 231.02,545.79 226.05,540.83 224.74,542.14 224.57,531.45 
				235.26,531.62 235.26,531.62 235.26,531.62 			"/>
			<path d="M221.57,514.21c0.66,0,1.25,0.27,1.68,0.7l-3.37,3.37c-0.43-0.43-0.7-1.03-0.7-1.68
				C219.19,515.28,220.25,514.21,221.57,514.21z"/>
			<path d="M211.14,524.64c0.66,0,1.25,0.27,1.68,0.7l-3.37,3.37c-0.43-0.43-0.7-1.03-0.7-1.68
				C208.76,525.71,209.82,524.64,211.14,524.64z"/>
			<path d="M250.48,485.3c0-1.31,1.07-2.38,2.38-2.38c0.66,0,1.25,0.27,1.68,0.7l-3.37,3.37
				C250.74,486.55,250.48,485.96,250.48,485.3z"/>
			<path d="M232,503.78c0.66,0,1.25,0.27,1.68,0.7l-3.37,3.37c-0.43-0.43-0.7-1.03-0.7-1.68C229.62,504.85,230.68,503.78,232,503.78
				z"/>
			<path d="M240.05,495.73c0-1.31,1.07-2.38,2.38-2.38c0.66,0,1.25,0.27,1.68,0.7l-3.37,3.37
				C240.31,496.98,240.05,496.39,240.05,495.73z"/>
			<polygon points="196.38,549.81 183.71,549.81 183.71,545.79 186.71,545.79 186.71,547.27 193.84,547.27 			"/>
			<polygon points="303.36,470.81 299.71,467.17 298.4,468.48 298.23,457.79 303.36,457.87 308.49,457.79 308.32,468.48 307,467.17 
							"/>
			<path d="M200.71,535.07c0.66,0,1.25,0.27,1.68,0.7l-3.37,3.37c-0.43-0.43-0.7-1.03-0.7-1.68
				C198.33,536.14,199.39,535.07,200.71,535.07z"/>
			<path d="M190.28,545.5c0.41,0,0.79,0.11,1.12,0.29h-2.25C189.49,545.61,189.87,545.5,190.28,545.5z"/>
			<polygon points="381.61,549.81 381.98,549.44 381.99,549.81 			"/>
			<polygon points="394.7,547.72 396.62,545.79 394.7,543.87 381.92,531.1 369.15,518.32 356.37,505.55 343.6,492.78 330.83,480 
				318.05,467.23 305.28,454.46 303.36,452.53 301.43,454.46 288.66,467.23 275.89,480 250.34,505.55 237.57,518.32 224.79,531.1 
				212.02,543.87 210.1,545.79 212.02,547.72 214.12,549.81 208.46,549.81 204.44,545.79 209.19,541.04 221.96,528.27 234.74,515.5 
				247.51,502.72 273.06,477.18 285.83,464.4 298.61,451.63 303.36,446.88 308.11,451.63 320.88,464.4 333.66,477.18 346.43,489.95 
				359.2,502.72 371.98,515.5 384.75,528.27 397.52,541.04 402.27,545.79 398.26,549.81 392.6,549.81 			"/>
			<polygon points="381.98,549.44 383.29,548.13 380.96,545.79 392.61,545.79 392.67,549.61 381.98,549.45 381.98,549.44 
				381.98,549.44 			"/>
			<polygon points="303.36,491.86 289.19,477.69 287.87,479 287.7,468.31 298.4,468.48 298.4,468.48 298.4,468.48 298.4,468.48 
				297.08,469.8 303.36,476.07 309.63,469.8 308.32,468.48 308.32,468.48 308.32,468.48 308.32,468.48 319.01,468.31 318.84,479 
				317.53,477.69 			"/>
			<polygon points="224.73,549.81 224.74,549.44 225.1,549.81 			"/>
			<polygon points="392.67,541.97 392.61,545.79 380.96,545.79 383.29,543.46 381.98,542.14 381.98,542.14 381.98,542.14 
				381.98,542.14 			"/>
			<polygon points="375.7,549.81 359.91,549.81 372.77,536.95 371.46,535.64 371.46,535.64 371.46,535.64 371.46,535.64 
				382.15,535.47 381.98,546.16 380.66,544.85 			"/>
			<rect x="283.54" y="548.63" width="5.67" height="1.18"/>
			<path d="M310.46,441.9c0.43-0.43,1.03-0.7,1.68-0.7c1.31,0,2.38,1.07,2.38,2.38c0,0.66-0.27,1.25-0.7,1.68L310.46,441.9z"/>
			<polygon points="379.72,549.81 363.93,549.81 359.91,545.79 375.7,545.79 			"/>
			<polygon points="214.04,549.61 214.1,545.79 225.76,545.79 223.42,548.13 224.74,549.44 224.74,549.44 224.74,549.44 
				224.74,549.45 			"/>
			<path d="M284.15,451.63c0.66,0,1.25,0.27,1.68,0.7l-3.37,3.37c-0.43-0.43-0.7-1.03-0.7-1.68
				C281.76,452.7,282.83,451.63,284.15,451.63z"/>
			<path d="M273.72,462.06c0.66,0,1.25,0.27,1.68,0.7l-3.37,3.37c-0.43-0.43-0.7-1.03-0.7-1.68
				C271.34,463.13,272.4,462.06,273.72,462.06z"/>
			<path d="M263.29,472.49c0.66,0,1.25,0.27,1.68,0.7l-3.37,3.37c-0.43-0.43-0.7-1.03-0.7-1.68
				C260.91,473.56,261.97,472.49,263.29,472.49z"/>
			<rect x="289.21" y="542.96" width="5.67" height="5.67"/>
			<path d="M294.58,441.2c0.66,0,1.25,0.27,1.68,0.7l-3.37,3.37c-0.43-0.43-0.7-1.03-0.7-1.68
				C292.19,442.27,293.26,441.2,294.58,441.2z"/>
			<polygon points="355.01,545.43 355.38,545.79 355.01,546.16 358.67,549.81 345.7,549.81 349.72,545.79 341.79,537.86 
				311.29,507.37 303.36,499.43 264.93,537.86 256.99,545.79 261.01,549.81 248.04,549.81 251.7,546.16 251.34,545.79 251.7,545.43 
				236.57,530.3 235.26,531.62 235.09,520.93 245.78,521.1 245.78,521.1 245.78,521.1 245.78,521.1 244.47,522.41 259.59,537.54 
				262.1,535.03 262.22,534.91 247.1,519.78 245.78,521.1 245.61,510.4 256.3,510.57 256.3,510.57 256.3,510.57 256.3,510.57 
				254.99,511.89 270.12,527.02 272.75,524.38 257.62,509.26 256.3,510.57 256.14,499.88 266.83,500.05 266.83,500.05 
				266.83,500.05 266.83,500.05 265.51,501.37 280.64,516.49 283.27,513.86 268.14,498.74 266.83,500.05 266.66,489.36 
				277.35,489.53 277.35,489.53 277.35,489.53 277.35,489.53 276.04,490.84 291.16,505.97 292.59,504.54 293.79,503.34 
				278.67,488.21 277.35,489.53 277.18,478.84 287.87,479 287.87,479 287.87,479.01 287.87,479.01 286.56,480.32 301.68,495.45 
				303.36,493.77 305.03,495.45 320.16,480.32 318.84,479.01 318.84,479.01 318.84,479 318.84,479 329.53,478.84 329.37,489.53 
				328.05,488.21 312.92,503.34 314.12,504.54 315.55,505.97 330.68,490.84 329.37,489.53 329.37,489.53 329.37,489.53 
				329.37,489.53 340.06,489.36 339.89,500.05 338.57,498.74 323.45,513.86 326.08,516.49 341.2,501.37 339.89,500.05 
				339.89,500.05 339.89,500.05 339.89,500.05 350.58,499.88 350.41,510.57 349.1,509.26 333.97,524.38 336.6,527.01 351.73,511.89 
				350.41,510.57 350.41,510.57 350.41,510.57 350.41,510.57 361.1,510.4 360.93,521.1 359.62,519.78 344.49,534.91 344.61,535.03 
				347.12,537.54 362.25,522.41 360.93,521.1 360.93,521.1 360.93,521.1 360.93,521.1 371.63,520.93 371.46,531.62 370.14,530.3 			
				"/>
			<path d="M303.32,434.83c-0.43-0.43-0.7-1.03-0.7-1.68c0-0.67,0.28-1.28,0.73-1.71l0,0v0c0.45,0.43,0.73,1.04,0.73,1.71
				c0,0.66-0.27,1.25-0.7,1.68l-0.04-0.04L303.32,434.83z"/>
			<polygon points="423,545.79 420,545.79 420,544.31 412.87,544.31 409.57,541.02 409.57,533.88 402.44,533.88 399.14,530.59 
				399.14,523.45 392.01,523.45 388.71,520.16 388.71,513.02 381.58,513.02 378.28,509.73 378.28,502.59 371.15,502.59 
				367.85,499.3 367.85,492.16 360.72,492.16 357.42,488.87 357.42,481.73 350.29,481.73 347,478.44 347,471.3 339.86,471.3 
				336.57,468.01 336.57,460.88 329.43,460.88 326.14,457.58 326.14,450.45 319,450.45 315.71,447.15 315.71,440.02 308.57,440.02 
				305.28,436.72 305.28,429.59 301.44,429.59 301.44,436.72 298.14,440.02 291.01,440.02 291.01,447.15 287.71,450.45 
				280.58,450.45 280.58,457.58 277.28,460.88 270.15,460.88 270.15,468.01 266.85,471.3 259.72,471.3 259.72,478.44 256.42,481.73 
				249.29,481.73 249.29,488.87 245.99,492.16 238.86,492.16 238.86,499.3 235.56,502.59 228.43,502.59 228.43,509.73 
				225.13,513.02 218,513.02 218,520.16 214.7,523.45 207.57,523.45 207.57,530.59 204.27,533.88 197.14,533.88 197.14,541.02 
				193.84,544.31 186.71,544.31 186.71,545.79 183.71,545.79 183.71,541.31 194.14,541.31 194.14,530.88 204.57,530.88 
				204.57,520.45 215,520.45 215,510.02 225.43,510.02 225.43,499.59 235.86,499.59 235.86,489.16 246.29,489.16 246.29,478.73 
				256.72,478.73 256.72,468.31 267.15,468.31 267.15,457.88 277.58,457.88 277.58,447.45 288.01,447.45 288.01,437.02 
				298.44,437.02 298.44,426.59 308.28,426.59 308.28,437.02 318.71,437.02 318.71,447.45 329.14,447.45 329.14,457.88 
				339.56,457.88 339.56,468.31 349.99,468.31 349.99,478.73 360.42,478.73 360.42,489.16 370.85,489.16 370.85,499.59 
				381.28,499.59 381.28,510.02 391.71,510.02 391.71,520.45 402.14,520.45 402.14,530.88 412.57,530.88 412.57,541.31 423,541.31 
							"/>
		</g>
		<g>
			<g>
				<polygon points="229.03,488.91 167.94,550 173.59,550 231.86,491.74 244.56,479.03 303.36,420.23 303.36,414.58 241.73,476.2 
									"/>
				<polygon points="299.25,406.66 155.91,550 161.57,550 302.07,409.49 303.36,408.21 303.36,402.55 				"/>
			</g>
			<g>
				<polygon points="377.69,488.91 438.78,550 433.12,550 374.86,491.74 362.15,479.03 303.36,420.23 303.36,414.58 364.98,476.2 
									"/>
				<polygon points="307.47,406.66 450.81,550 445.15,550 304.64,409.49 303.36,408.21 303.36,402.55 				"/>
			</g>
		</g>
		<g>
			<g>
				<polygon points="274.22,408.51 277.62,411.92 273.87,415.67 269.51,411.31 272.92,407.91 270.66,405.65 267.25,409.06 
					263.85,405.65 261.59,407.91 265,411.31 261.59,414.72 263.85,416.98 267.25,413.57 271.61,417.93 267.86,421.69 264.45,418.28 
					263.32,419.41 272.39,428.47 273.52,427.35 270.11,423.94 273.87,420.18 277.27,423.59 279.53,421.33 276.12,417.93 
					279.88,414.17 283.29,417.58 284.41,416.45 275.35,407.38 				"/>
				<polygon points="262.19,420.53 265.6,423.94 261.84,427.7 257.48,423.34 260.89,419.93 258.63,417.68 255.23,421.09 
					251.82,417.68 249.57,419.93 252.97,423.34 249.57,426.75 251.82,429 255.23,425.59 259.59,429.95 255.83,433.71 252.42,430.3 
					251.29,431.43 260.36,440.5 261.49,439.37 258.08,435.97 261.84,432.21 265.25,435.62 267.5,433.36 264.1,429.95 267.85,426.2 
					271.26,429.6 272.39,428.48 263.32,419.41 				"/>
				<polygon points="250.17,432.56 253.57,435.97 249.81,439.73 245.46,435.37 248.86,431.96 246.61,429.71 243.2,433.11 
					239.79,429.71 237.54,431.96 240.95,435.37 237.54,438.77 239.79,441.03 243.2,437.62 247.56,441.98 243.8,445.74 240.4,442.33 
					239.27,443.46 248.34,452.53 249.46,451.4 246.06,447.99 249.81,444.23 253.22,447.64 255.48,445.39 252.07,441.98 
					255.83,438.22 259.23,441.63 260.36,440.5 251.29,431.43 				"/>
				<polygon points="227.77,453.05 231.17,449.65 235.53,454.01 231.78,457.76 228.37,454.36 227.24,455.48 236.31,464.55 
					237.44,463.43 234.03,460.02 237.79,456.26 241.2,459.67 243.45,457.41 240.04,454.01 243.8,450.25 247.21,453.66 
					248.33,452.53 239.27,443.46 238.14,444.59 241.55,447.99 237.79,451.75 233.43,447.39 236.84,443.99 234.58,441.73 
					231.17,445.14 227.77,441.73 225.51,443.99 228.92,447.39 225.51,450.8 				"/>
				<polygon points="77.86,549.81 73.95,545.89 70.03,549.81 				"/>
				<polygon points="299.93,369.57 297.67,371.83 301.08,375.23 297.67,378.64 299.93,380.9 303.33,377.49 303.36,377.51 
					303.36,372.96 303.33,372.98 				"/>
				<polygon points="286.24,396.48 289.65,399.89 285.89,403.65 281.53,399.29 284.94,395.88 282.69,393.63 279.28,397.03 
					275.87,393.63 273.62,395.88 277.03,399.29 273.62,402.69 275.87,404.95 279.28,401.54 283.64,405.9 279.88,409.66 
					276.47,406.25 275.35,407.38 284.42,416.45 285.54,415.32 282.14,411.91 285.89,408.16 289.3,411.56 291.56,409.31 
					288.15,405.9 291.91,402.14 295.31,405.55 296.44,404.42 287.37,395.35 				"/>
				<polygon points="104.33,549.81 104.21,548.93 103.33,549.81 				"/>
				<polygon points="298.27,384.46 301.68,387.86 297.92,391.62 293.56,387.26 296.97,383.85 294.71,381.6 291.31,385.01 
					287.9,381.6 285.65,383.85 289.05,387.26 285.65,390.67 287.9,392.92 291.31,389.52 295.67,393.87 291.91,397.63 288.5,394.23 
					287.37,395.35 296.44,404.42 297.57,403.29 294.16,399.89 297.92,396.13 301.33,399.54 303.36,397.51 303.36,397.06 
					300.17,393.87 303.36,390.69 303.36,387.29 299.4,383.33 				"/>
				<polygon points="155.61,525.21 159.02,521.81 163.38,526.16 159.62,529.92 156.21,526.52 155.08,527.64 164.15,536.71 
					165.28,535.58 161.87,532.18 165.63,528.42 169.04,531.83 171.29,529.57 167.88,526.16 171.64,522.41 175.05,525.81 
					176.18,524.69 167.11,515.62 165.98,516.75 169.39,520.15 165.63,523.91 161.27,519.55 164.68,516.14 162.42,513.89 
					159.02,517.3 155.61,513.89 153.35,516.14 156.76,519.55 153.35,522.96 				"/>
				<polygon points="147.59,546.46 150.94,549.81 151.05,549.81 152.12,548.74 143.05,539.67 141.93,540.8 145.33,544.21 
					141.58,547.96 137.22,543.6 140.63,540.2 138.37,537.94 134.96,541.35 131.56,537.94 129.3,540.2 132.71,543.6 129.3,547.01 
					131.56,549.27 134.96,545.86 138.92,549.81 144.24,549.81 				"/>
				<polygon points="143.58,537.24 146.99,533.83 151.35,538.19 147.59,541.95 144.18,538.54 143.06,539.67 152.13,548.74 
					153.25,547.61 149.85,544.2 153.6,540.45 157.01,543.85 159.27,541.6 155.86,538.19 159.62,534.43 163.02,537.84 164.15,536.71 
					155.08,527.64 153.95,528.77 157.36,532.18 153.6,535.94 149.24,531.58 152.65,528.17 150.4,525.92 146.99,529.32 
					143.58,525.92 141.33,528.17 144.74,531.58 141.33,534.98 				"/>
				<polygon points="101.92,549.81 85.97,533.87 77.12,542.72 84.22,549.81 				"/>
				<polygon points="215.74,465.08 219.15,461.67 223.51,466.03 219.75,469.79 216.34,466.38 215.22,467.51 224.28,476.58 
					225.41,475.45 222,472.05 225.76,468.29 229.17,471.69 231.42,469.44 228.02,466.03 231.77,462.28 235.18,465.68 236.31,464.56 
					227.24,455.49 226.11,456.61 229.52,460.02 225.76,463.78 221.4,459.42 224.81,456.01 222.56,453.76 219.15,457.16 
					215.74,453.76 213.49,456.01 216.89,459.42 213.49,462.83 				"/>
				<polygon points="191.69,489.13 195.1,485.73 199.45,490.09 195.7,493.84 192.29,490.44 191.16,491.56 200.23,500.63 
					201.36,499.51 197.95,496.1 201.71,492.34 205.12,495.75 207.37,493.49 203.96,490.09 207.72,486.33 211.13,489.74 
					212.26,488.61 203.19,479.54 202.06,480.67 205.47,484.07 201.71,487.83 197.35,483.47 200.76,480.07 198.5,477.81 
					195.1,481.22 191.69,477.81 189.43,480.07 192.84,483.47 189.43,486.88 				"/>
				<polygon points="203.71,477.11 207.12,473.7 211.48,478.06 207.72,481.82 204.32,478.41 203.19,479.54 212.26,488.61 
					213.38,487.48 209.98,484.07 213.74,480.31 217.14,483.72 219.4,481.47 215.99,478.06 219.75,474.3 223.15,477.71 
					224.28,476.58 215.21,467.51 214.09,468.64 217.49,472.05 213.74,475.8 209.38,471.45 212.78,468.04 210.53,465.78 
					207.12,469.19 203.71,465.78 201.46,468.04 204.87,471.45 201.46,474.85 				"/>
				<polygon points="179.66,501.16 183.07,497.75 187.43,502.11 183.67,505.87 180.26,502.46 179.14,503.59 188.2,512.66 
					189.33,511.53 185.92,508.12 189.68,504.37 193.09,507.77 195.34,505.52 191.94,502.11 195.69,498.35 199.1,501.76 
					200.23,500.63 191.16,491.57 190.03,492.69 193.44,496.1 189.68,499.86 185.32,495.5 188.73,492.09 186.48,489.84 
					183.07,493.24 179.66,489.84 177.41,492.09 180.81,495.5 177.41,498.91 				"/>
				<polygon points="167.64,513.19 171.04,509.78 175.4,514.14 171.64,517.9 168.24,514.49 167.11,515.62 176.18,524.69 
					177.31,523.56 173.9,520.15 177.66,516.39 181.06,519.8 183.32,517.55 179.91,514.14 183.67,510.38 187.08,513.79 188.2,512.66 
					179.13,503.59 178.01,504.72 181.41,508.13 177.66,511.88 173.3,507.53 176.7,504.12 174.45,501.86 171.04,505.27 
					167.64,501.86 165.38,504.12 168.79,507.53 165.38,510.93 				"/>
				<polygon points="299.4,383.33 303.36,387.28 303.36,385.03 300.53,382.2 				"/>
				<polygon points="242.31,377.53 233.47,386.38 250.12,403.03 248.53,404.62 262.4,406.46 260.56,392.59 258.97,394.18 				"/>
				<polygon points="254.34,365.5 245.49,374.35 262.15,391 260.56,392.59 274.42,394.43 272.58,380.56 270.99,382.15 				"/>
				<polygon points="230.29,389.55 221.44,398.4 238.09,415.05 236.5,416.64 250.37,418.48 248.53,404.62 246.94,406.21 				"/>
				<polygon points="206.24,413.6 197.39,422.45 214.04,439.11 212.45,440.7 226.32,442.54 224.48,428.67 222.89,430.26 				"/>
				<polygon points="218.26,401.58 209.41,410.43 226.07,427.08 224.48,428.67 238.34,430.51 236.5,416.64 234.92,418.23 				"/>
				<polygon points="281.57,338.27 298.22,354.92 296.64,356.51 303.36,357.4 303.36,342.36 290.42,329.42 				"/>
				<polygon points="302.45,317.39 293.6,326.24 303.36,336 303.36,318.3 				"/>
				<polygon points="278.39,341.45 269.54,350.3 286.2,366.95 284.61,368.54 298.48,370.38 296.64,356.51 295.05,358.1 				"/>
				<polygon points="266.37,353.47 257.52,362.32 274.17,378.98 272.58,380.56 286.45,382.4 284.61,368.54 283.02,370.13 				"/>
				<polygon points="182.18,437.66 173.33,446.51 189.99,463.16 188.4,464.75 202.26,466.59 200.42,452.72 198.84,454.31 				"/>
				<polygon points="134.08,485.76 125.23,494.61 141.88,511.27 140.29,512.85 154.16,514.69 152.32,500.83 150.73,502.42 				"/>
				<polygon points="194.21,425.63 185.36,434.48 202.01,451.13 200.42,452.72 214.29,454.56 212.45,440.7 210.86,442.28 				"/>
				<polygon points="122.05,497.79 113.2,506.64 129.85,523.29 128.27,524.88 142.13,526.72 140.29,512.85 138.7,514.44 				"/>
				<polygon points="110.02,509.82 101.18,518.67 117.83,535.32 116.24,536.91 130.11,538.75 128.27,524.88 126.68,526.47 				"/>
				<polygon points="146.1,473.74 137.25,482.59 153.91,499.24 152.32,500.83 166.19,502.67 164.35,488.8 162.76,490.39 				"/>
				<polygon points="98,521.84 89.15,530.69 105.8,547.35 104.21,548.93 110.84,549.81 117.95,549.81 116.24,536.91 114.65,538.5 
									"/>
				<polygon points="170.16,449.68 161.31,458.53 177.96,475.19 176.37,476.78 190.24,478.62 188.4,464.75 186.81,466.34 				"/>
				<polygon points="158.13,461.71 149.28,470.56 165.93,487.21 164.35,488.8 178.21,490.64 176.37,476.78 174.78,478.36 				"/>
			</g>
			<g>
				<polygon points="332.5,408.51 329.09,411.92 332.85,415.67 337.21,411.31 333.8,407.91 336.05,405.65 339.46,409.06 
					342.87,405.65 345.12,407.91 341.72,411.31 345.12,414.72 342.87,416.98 339.46,413.57 335.1,417.93 338.86,421.69 
					342.27,418.28 343.39,419.41 334.33,428.47 333.2,427.35 336.61,423.94 332.85,420.18 329.44,423.59 327.19,421.33 
					330.59,417.93 326.84,414.17 323.43,417.58 322.3,416.45 331.37,407.38 				"/>
				<polygon points="344.52,420.53 341.12,423.94 344.87,427.7 349.23,423.34 345.83,419.93 348.08,417.68 351.49,421.09 
					354.89,417.68 357.15,419.93 353.74,423.34 357.15,426.75 354.89,429 351.49,425.59 347.13,429.95 350.89,433.71 354.29,430.3 
					355.42,431.43 346.35,440.5 345.22,439.37 348.63,435.97 344.87,432.21 341.47,435.62 339.21,433.36 342.62,429.95 
					338.86,426.2 335.45,429.6 334.33,428.48 343.4,419.41 				"/>
				<polygon points="356.55,432.56 353.14,435.97 356.9,439.73 361.26,435.37 357.85,431.96 360.11,429.71 363.51,433.11 
					366.92,429.71 369.18,431.96 365.77,435.37 369.18,438.77 366.92,441.03 363.51,437.62 359.16,441.98 362.91,445.74 
					366.32,442.33 367.45,443.46 358.38,452.53 357.25,451.4 360.66,447.99 356.9,444.23 353.49,447.64 351.24,445.39 
					354.65,441.98 350.89,438.22 347.48,441.63 346.35,440.5 355.42,431.43 				"/>
				<polygon points="378.95,453.05 375.54,449.65 371.18,454.01 374.94,457.76 378.35,454.36 379.47,455.48 370.4,464.55 
					369.28,463.43 372.68,460.02 368.93,456.26 365.52,459.67 363.27,457.41 366.67,454.01 362.91,450.25 359.51,453.66 
					358.38,452.53 367.45,443.46 368.58,444.59 365.17,447.99 368.93,451.75 373.29,447.39 369.88,443.99 372.13,441.73 
					375.54,445.14 378.95,441.73 381.2,443.99 377.79,447.39 381.2,450.8 				"/>
				<polygon points="528.85,549.81 532.77,545.89 536.69,549.81 				"/>
				<polygon points="306.79,369.57 309.04,371.83 305.64,375.23 309.04,378.64 306.79,380.9 303.38,377.49 303.36,377.51 
					303.36,372.96 303.38,372.98 				"/>
				<polygon points="320.47,396.48 317.06,399.89 320.82,403.65 325.18,399.29 321.77,395.88 324.03,393.63 327.43,397.03 
					330.84,393.63 333.1,395.88 329.69,399.29 333.1,402.69 330.84,404.95 327.43,401.54 323.08,405.9 326.83,409.66 330.24,406.25 
					331.37,407.38 322.3,416.45 321.17,415.32 324.58,411.91 320.82,408.16 317.41,411.56 315.16,409.31 318.57,405.9 
					314.81,402.14 311.4,405.55 310.27,404.42 319.34,395.35 				"/>
				<polygon points="502.38,549.81 502.5,548.93 503.38,549.81 				"/>
				<polygon points="308.44,384.46 305.04,387.86 308.79,391.62 313.15,387.26 309.75,383.85 312,381.6 315.41,385.01 318.82,381.6 
					321.07,383.85 317.66,387.26 321.07,390.67 318.82,392.92 315.41,389.52 311.05,393.87 314.81,397.63 318.21,394.23 
					319.34,395.35 310.27,404.42 309.15,403.29 312.55,399.89 308.79,396.13 305.39,399.54 303.36,397.51 303.36,397.06 
					306.54,393.87 303.36,390.69 303.36,387.29 307.32,383.33 				"/>
				<polygon points="451.11,525.21 447.7,521.81 443.34,526.16 447.1,529.92 450.5,526.52 451.63,527.64 442.56,536.71 
					441.44,535.58 444.84,532.18 441.09,528.42 437.68,531.83 435.42,529.57 438.83,526.16 435.07,522.41 431.67,525.81 
					430.54,524.69 439.61,515.62 440.73,516.75 437.33,520.15 441.09,523.91 445.44,519.55 442.04,516.14 444.29,513.89 
					447.7,517.3 451.11,513.89 453.36,516.14 449.95,519.55 453.36,522.96 				"/>
				<polygon points="459.13,546.46 455.77,549.81 455.66,549.81 454.59,548.74 463.66,539.67 464.79,540.8 461.38,544.21 
					465.14,547.96 469.5,543.6 466.09,540.2 468.34,537.94 471.75,541.35 475.16,537.94 477.41,540.2 474.01,543.6 477.41,547.01 
					475.16,549.27 471.75,545.86 467.8,549.81 462.48,549.81 				"/>
				<polygon points="463.13,537.24 459.73,533.83 455.37,538.19 459.12,541.95 462.53,538.54 463.66,539.67 454.59,548.74 
					453.46,547.61 456.87,544.2 453.11,540.45 449.7,543.85 447.45,541.6 450.86,538.19 447.1,534.43 443.69,537.84 442.57,536.71 
					451.63,527.64 452.76,528.77 449.35,532.18 453.11,535.94 457.47,531.58 454.06,528.17 456.32,525.92 459.73,529.32 
					463.13,525.92 465.39,528.17 461.98,531.58 465.39,534.98 				"/>
				<polygon points="504.8,549.81 520.74,533.87 529.59,542.72 522.5,549.81 				"/>
				<polygon points="390.97,465.08 387.57,461.67 383.21,466.03 386.97,469.79 390.37,466.38 391.5,467.51 382.43,476.58 
					381.3,475.45 384.71,472.05 380.95,468.29 377.55,471.69 375.29,469.44 378.7,466.03 374.94,462.28 371.53,465.68 
					370.41,464.56 379.48,455.49 380.6,456.61 377.2,460.02 380.95,463.78 385.31,459.42 381.91,456.01 384.16,453.76 
					387.57,457.16 390.97,453.76 393.23,456.01 389.82,459.42 393.23,462.83 				"/>
				<polygon points="415.03,489.13 411.62,485.73 407.26,490.09 411.02,493.84 414.43,490.44 415.55,491.56 406.48,500.63 
					405.36,499.51 408.76,496.1 405.01,492.34 401.6,495.75 399.34,493.49 402.75,490.09 398.99,486.33 395.59,489.74 
					394.46,488.61 403.53,479.54 404.66,480.67 401.25,484.07 405.01,487.83 409.36,483.47 405.96,480.07 408.21,477.81 
					411.62,481.22 415.03,477.81 417.28,480.07 413.87,483.47 417.28,486.88 				"/>
				<polygon points="403,477.11 399.59,473.7 395.23,478.06 398.99,481.82 402.4,478.41 403.53,479.54 394.46,488.61 393.33,487.48 
					396.74,484.07 392.98,480.31 389.57,483.72 387.32,481.47 390.73,478.06 386.97,474.3 383.56,477.71 382.43,476.58 
					391.5,467.51 392.63,468.64 389.22,472.05 392.98,475.8 397.34,471.45 393.93,468.04 396.19,465.78 399.59,469.19 403,465.78 
					405.25,468.04 401.85,471.45 405.25,474.85 				"/>
				<polygon points="427.05,501.16 423.65,497.75 419.29,502.11 423.04,505.87 426.45,502.46 427.58,503.59 418.51,512.66 
					417.38,511.53 420.79,508.12 417.03,504.37 413.63,507.77 411.37,505.52 414.78,502.11 411.02,498.35 407.61,501.76 
					406.49,500.63 415.55,491.57 416.68,492.69 413.27,496.1 417.03,499.86 421.39,495.5 417.98,492.09 420.24,489.84 
					423.65,493.24 427.05,489.84 429.31,492.09 425.9,495.5 429.31,498.91 				"/>
				<polygon points="439.08,513.19 435.67,509.78 431.31,514.14 435.07,517.9 438.48,514.49 439.61,515.62 430.54,524.69 
					429.41,523.56 432.82,520.15 429.06,516.39 425.65,519.8 423.4,517.55 426.8,514.14 423.05,510.38 419.64,513.79 418.51,512.66 
					427.58,503.59 428.71,504.72 425.3,508.13 429.06,511.88 433.42,507.53 430.01,504.12 432.27,501.86 435.67,505.27 
					439.08,501.86 441.33,504.12 437.93,507.53 441.33,510.93 				"/>
				<polygon points="307.32,383.33 303.36,387.28 303.36,385.03 306.19,382.2 				"/>
				<polygon points="364.4,377.53 373.25,386.38 356.6,403.03 358.18,404.62 344.32,406.46 346.16,392.59 347.75,394.18 				"/>
				<polygon points="352.37,365.5 361.22,374.35 344.57,391 346.16,392.59 332.29,394.43 334.13,380.56 335.72,382.15 				"/>
				<polygon points="376.43,389.55 385.28,398.4 368.62,415.05 370.21,416.64 356.34,418.48 358.18,404.62 359.77,406.21 				"/>
				<polygon points="400.48,413.6 409.33,422.45 392.68,439.11 394.26,440.7 380.4,442.54 382.24,428.67 383.83,430.26 				"/>
				<polygon points="388.45,401.58 397.3,410.43 380.65,427.08 382.24,428.67 368.37,430.51 370.21,416.64 371.8,418.23 				"/>
				<polygon points="325.14,338.27 308.49,354.92 310.08,356.51 303.36,357.4 303.36,342.36 316.29,329.42 				"/>
				<polygon points="304.27,317.39 313.12,326.24 303.36,336 303.36,318.3 				"/>
				<polygon points="328.32,341.45 337.17,350.3 320.52,366.95 322.11,368.54 308.24,370.38 310.08,356.51 311.67,358.1 				"/>
				<polygon points="340.35,353.47 349.2,362.32 332.54,378.98 334.13,380.56 320.27,382.4 322.11,368.54 323.69,370.13 				"/>
				<polygon points="424.53,437.66 433.38,446.51 416.73,463.16 418.32,464.75 404.45,466.59 406.29,452.72 407.88,454.31 				"/>
				<polygon points="472.64,485.76 481.49,494.61 464.83,511.27 466.42,512.85 452.56,514.69 454.4,500.83 455.98,502.42 				"/>
				<polygon points="412.51,425.63 421.36,434.48 404.7,451.13 406.29,452.72 392.42,454.56 394.26,440.7 395.85,442.28 				"/>
				<polygon points="484.66,497.79 493.51,506.64 476.86,523.29 478.45,524.88 464.58,526.72 466.42,512.85 468.01,514.44 				"/>
				<polygon points="496.69,509.82 505.54,518.67 488.89,535.32 490.47,536.91 476.61,538.75 478.45,524.88 480.04,526.47 				"/>
				<polygon points="460.61,473.74 469.46,482.59 452.81,499.24 454.4,500.83 440.53,502.67 442.37,488.8 443.96,490.39 				"/>
				<polygon points="508.72,521.84 517.57,530.69 500.91,547.35 502.5,548.93 495.88,549.81 488.76,549.81 490.47,536.91 
					492.06,538.5 				"/>
				<polygon points="436.56,449.68 445.41,458.53 428.75,475.19 430.34,476.78 416.48,478.62 418.32,464.75 419.91,466.34 				"/>
				<polygon points="448.58,461.71 457.43,470.56 440.78,487.21 442.37,488.8 428.5,490.64 430.34,476.78 431.93,478.36 				"/>
			</g>
		</g>
		<g>
			<polygon points="63.19,549.81 68.85,549.81 303.36,315.31 303.36,309.65 			"/>
			<polygon points="543.52,549.81 537.87,549.81 303.36,315.31 303.36,309.65 			"/>
		</g>
		<g>
			<g>
				<polygon points="421.05,427.34 437.86,444.15 437.86,427.34 				"/>
				<polygon points="404.24,410.53 421.05,427.34 421.05,410.53 				"/>
				<polygon points="370.61,376.9 387.42,393.71 387.42,376.9 				"/>
				<polygon points="387.42,393.71 404.24,410.53 404.24,393.71 				"/>
				<polygon points="320.17,326.46 336.98,343.27 336.98,326.46 				"/>
				<polygon points="353.8,360.09 370.61,376.9 370.61,360.09 				"/>
				<polygon points="336.98,343.27 353.8,360.09 353.8,343.27 				"/>
				<polygon points="303.36,309.65 320.17,326.46 320.17,309.65 				"/>
				<polygon points="543.71,550 554.96,550 554.96,544.44 538.74,544.44 538.74,545.03 				"/>
				<polygon points="521.93,511.4 505.11,511.4 521.93,528.22 				"/>
				<polygon points="538.74,545.03 538.15,544.44 538.74,544.44 538.74,528.22 521.93,528.22 538.74,545.03 				"/>
				<polygon points="437.86,444.15 454.67,460.97 454.67,444.15 				"/>
				<polygon points="488.3,494.59 505.11,511.4 505.11,494.59 				"/>
				<polygon points="454.67,460.97 471.49,477.78 471.49,460.97 				"/>
				<polygon points="471.49,477.78 488.3,494.59 488.3,477.78 				"/>
			</g>
			<g>
				<polygon points="135.23,477.78 152.04,460.97 135.23,460.97 				"/>
				<polygon points="84.79,528.22 101.6,511.4 84.79,511.4 				"/>
				<polygon points="269.73,343.27 286.54,326.46 269.73,326.46 				"/>
				<polygon points="101.6,511.4 118.41,494.59 101.6,494.59 				"/>
				<polygon points="51.76,544.44 51.76,549.81 63.19,549.81 67.98,545.03 67.98,544.44 				"/>
				<polygon points="286.54,309.65 286.54,326.46 303.36,309.65 				"/>
				<polygon points="67.98,544.44 68.57,544.44 67.98,545.03 67.98,545.03 84.79,528.22 67.98,528.22 				"/>
				<polygon points="118.41,494.59 135.23,477.78 118.41,477.78 				"/>
				<polygon points="219.29,393.71 236.11,376.9 219.29,376.9 				"/>
				<polygon points="152.04,460.97 168.85,444.15 152.04,444.15 				"/>
				<polygon points="252.92,360.09 269.73,343.27 252.92,343.27 				"/>
				<polygon points="236.11,376.9 252.92,360.09 236.11,360.09 				"/>
				<polygon points="202.48,410.53 219.29,393.71 202.48,393.71 				"/>
				<polygon points="168.85,444.15 185.67,427.34 168.85,427.34 				"/>
				<polygon points="185.67,427.34 202.48,410.53 185.67,410.53 				"/>
			</g>
		</g>
	</g>
</g>
<g>
</g>
<g>
</g>
<g>
</g>
<g>
</g>
<g>
</g>
<g>
</g>
<g>
</g>
<g>
</g>
<g>
</g>
<g>
</g>
<g>
</g>
<g>
</g>
<g>
</g>
<g>
</g>
<g>
</g>
</svg>
