<?xml version="1.0" encoding="utf-8"?>
<!-- Generator: Adobe Illustrator 27.2.0, SVG Export Plug-In . SVG Version: 6.00 Build 0)  -->
<svg version="1.1" id="Layer_1" xmlns="http://www.w3.org/2000/svg" xmlns:xlink="http://www.w3.org/1999/xlink" x="0px" y="0px"
	 viewBox="0 0 800 600" style="enable-background:new 0 0 800 600;" xml:space="preserve">
<g>
	<g>
		<g>
			
				<rect x="304.98" y="516.25" transform="matrix(0.7071 0.7071 -0.7071 0.7071 460.0873 -66.8153)" style="fill:none;stroke:#000000;stroke-width:3;stroke-miterlimit:10;" width="11.44" height="11.44"/>
			<rect x="307.86" y="519.13" transform="matrix(0.7071 0.7071 -0.7071 0.7071 460.0873 -66.8153)" width="5.67" height="5.67"/>
			<g>
				<rect x="302.74" y="506.93" width="5.26" height="5.26"/>
				<rect x="308" y="501.66" width="5.26" height="5.26"/>
				<rect x="313.26" y="506.93" width="5.26" height="5.26"/>
			</g>
			<g>
				
					<rect x="320.34" y="524.66" transform="matrix(4.371443e-11 -1 1 4.371443e-11 -204.3226 850.2706)" width="5.26" height="5.26"/>
				
					<rect x="325.61" y="519.4" transform="matrix(4.561513e-11 -1 1 4.561513e-11 -193.7952 850.2706)" width="5.26" height="5.26"/>
				
					<rect x="320.34" y="514.14" transform="matrix(4.561513e-11 -1 1 4.561513e-11 -193.7952 839.7432)" width="5.26" height="5.26"/>
			</g>
		</g>
		<g>
			
				<rect x="78.39" y="516.25" transform="matrix(-0.7071 0.7071 -0.7071 -0.7071 512.6647 831.5811)" style="fill:none;stroke:#000000;stroke-width:3;stroke-miterlimit:10;" width="11.44" height="11.44"/>
			<rect x="81.27" y="519.13" transform="matrix(-0.7071 0.7071 -0.7071 -0.7071 512.6647 831.5811)" width="5.67" height="5.67"/>
			<g>
				
					<rect x="86.8" y="506.93" transform="matrix(-1 -1.224647e-16 1.224647e-16 -1 178.8721 1019.1153)" width="5.26" height="5.26"/>
				
					<rect x="81.54" y="501.66" transform="matrix(-1 -1.224647e-16 1.224647e-16 -1 168.3447 1008.5878)" width="5.26" height="5.26"/>
				
					<rect x="76.28" y="506.93" transform="matrix(-1 -1.224647e-16 1.224647e-16 -1 157.8173 1019.1153)" width="5.26" height="5.26"/>
			</g>
			<g>
				<rect x="69.2" y="524.66" transform="matrix(6.123234e-17 -1 1 6.123234e-17 -455.4675 599.1258)" width="5.26" height="5.26"/>
				<rect x="63.93" y="519.4" transform="matrix(6.123234e-17 -1 1 6.123234e-17 -455.4675 588.5984)" width="5.26" height="5.26"/>
				<rect x="69.2" y="514.14" transform="matrix(6.123234e-17 -1 1 6.123234e-17 -444.9401 588.5984)" width="5.26" height="5.26"/>
			</g>
		</g>
		<g>
			<g>
				<rect x="194.57" y="417.89" width="5.67" height="5.67"/>
				<path d="M207.68,375.29l-10.21-10.21l-10.21,10.21l10.21,10.21L207.68,375.29z M197.47,369.33l5.97,5.96l-5.97,5.96l-5.96-5.96
					L197.47,369.33z"/>
				<rect x="233.53" y="454.48" transform="matrix(0.8204 -0.5718 0.5718 0.8204 -218.9628 217.1421)" width="5.26" height="5.26"/>
				<rect x="239.55" y="463.11" transform="matrix(0.8204 -0.5718 0.5718 0.8204 -222.8177 222.1311)" width="5.26" height="5.26"/>
				<rect x="188.9" y="412.22" width="5.67" height="5.67"/>
				<rect x="227.3" y="444.01" transform="matrix(0.9088 -0.4171 0.4171 0.9088 -165.3493 136.6248)" width="5.26" height="5.26"/>
				<rect x="229.88" y="437.03" transform="matrix(0.9088 -0.4171 0.4171 0.9088 -162.202 137.0682)" width="5.26" height="5.26"/>
				<rect x="222.9" y="434.44" transform="matrix(0.9088 -0.4171 0.4171 0.9088 -161.7586 133.9209)" width="5.26" height="5.26"/>
				<rect x="234.33" y="412.15" transform="matrix(0.7071 -0.7071 0.7071 0.7071 -223.9762 289.2442)" width="5.67" height="5.67"/>
				<path d="M237.16,404.78l-10.21,10.21l10.21,10.21l10.21-10.21L237.16,404.78z M231.2,414.99l5.96-5.96l5.96,5.96l-5.96,5.96
					L231.2,414.99z"/>
				<polygon points="268.09,506.64 267.09,501.06 261.51,502.06 				"/>
				<polygon points="269.69,507.76 273.17,510.19 270.63,495.98 256.42,498.51 259.9,500.94 268.21,499.46 				"/>
				<polygon points="156.99,529.67 95.01,529.67 95.01,532.67 158.23,532.67 194.1,496.8 194.1,424.92 184.23,415.05 197.4,401.88 
					210.57,415.05 200.7,424.92 200.7,496.8 236.57,532.67 299.8,532.67 299.8,529.67 237.82,529.67 203.7,495.56 203.7,426.16 
					214.81,415.05 197.4,397.64 179.99,415.05 191.1,426.16 191.1,495.56 				"/>
				<rect x="234.46" y="430.03" width="5.26" height="5.26"/>
				<polygon points="232.32,466.29 226.73,465.29 231.32,471.87 				"/>
				<polygon points="234.86,476.95 237.4,462.74 223.19,460.2 225.62,463.68 233.92,465.17 232.44,473.47 				"/>
				<rect x="200.24" y="412.22" width="5.67" height="5.67"/>
				<rect x="239.73" y="424.76" width="5.26" height="5.26"/>
				<rect x="240.86" y="455.79" transform="matrix(0.8204 -0.5718 0.5718 0.8204 -218.3954 221.5688)" width="5.26" height="5.26"/>
				<rect x="229.2" y="424.76" width="5.26" height="5.26"/>
				<rect x="149.81" y="424.76" width="5.26" height="5.26"/>
				<polygon points="138.38,498.51 124.17,495.98 121.63,510.19 125.11,507.76 126.59,499.46 134.9,500.94 				"/>
				<polygon points="133.29,502.06 127.71,501.06 126.72,506.64 				"/>
				<path d="M95.01,524.17h59.7l30.89-30.89v-64.84l-13.39-13.39l25.2-25.2l25.2,25.2l-13.39,13.39v64.84l30.89,30.89h59.7v-3h-4.08
					l0,0c-0.06-0.02-0.12-0.05-0.18-0.07l-5-13.48l-13.35,4.95c-8.85-4.89-17.13-10.69-24.7-17.26v-14.42h-14.42
					c-6.57-7.58-12.37-15.85-17.26-24.7l4.95-13.35l-13.48-5c-0.02-0.06-0.05-0.12-0.07-0.18l0,0v-7.97l14.63-14.63l-29.44-29.44
					l-29.44,29.44l14.63,14.63v7.97l0,0c-0.02,0.06-0.05,0.12-0.07,0.18l-13.48,5l4.95,13.35c-4.89,8.85-10.69,17.13-17.26,24.7
					h-14.42v14.42c-7.58,6.57-15.85,12.37-24.7,17.26l-13.35-4.95l-5,13.48c-0.06,0.02-0.12,0.05-0.18,0.07l0,0h-4.08V524.17z
					 M284.55,521.17l1.02-1.02c0.76,0.35,1.54,0.68,2.31,1.02H284.55z M280.87,514.41l7.91-2.93l2.93,7.91l3.1,1.42
					c-5.47-2.12-10.77-4.56-15.89-7.29L280.87,514.41z M234.58,514.41l-4.62-4.62l16.17-16.17c1.59,1.49,3.21,2.95,4.86,4.37
					L234.58,514.41z M277.05,515.92l-5.25,5.25h-9.24l8.61-8.61C273.1,513.72,275.06,514.85,277.05,515.92z M258.05,503.69
					c1.76,1.33,3.54,2.63,5.36,3.88l-13.6,13.6h-8.47l-0.38-0.38L258.05,503.69z M241.05,483.89h8.44v8.44l2.88,2.88
					c-5.06-4.4-9.8-9.14-14.2-14.2L241.05,483.89z M239.76,487.24l-16.17,16.17l-4.62-4.62l16.42-16.42
					C236.81,484.03,238.27,485.65,239.76,487.24z M229.69,475.32l-17.1,17.1l-0.38-0.38v-8.47l13.6-13.6
					C227.06,471.78,228.36,473.57,229.69,475.32z M220.82,462.21l-8.61,8.61v-9.24l5.25-5.25
					C218.53,458.32,219.65,460.27,220.82,462.21z M213.99,441.67l7.91,2.93l-2.93,7.91l0.89,1.95c-2.74-5.12-5.18-10.42-7.29-15.89
					L213.99,441.67z M213.22,447.81l-1.02,1.02v-3.32C212.55,446.27,212.87,447.05,213.22,447.81z M160.22,514.41l-16.42-16.42
					c1.65-1.42,3.27-2.88,4.86-4.37l16.17,16.17L160.22,514.41z M182.6,445.5v3.32l-1.02-1.02
					C181.93,447.05,182.26,446.27,182.6,445.5z M172.9,444.6l7.91-2.93l1.42-3.1c-2.12,5.47-4.56,10.77-7.29,15.89l0.89-1.94
					L172.9,444.6z M177.35,456.33l5.25,5.25v9.24l-8.61-8.61C175.15,460.27,176.27,458.32,177.35,456.33z M169,469.97l13.6,13.6
					v8.47l-0.38,0.38l-17.1-17.1C166.45,473.57,167.74,471.78,169,469.97z M159.42,482.38l16.42,16.42l-4.62,4.62l-16.17-16.17
					C156.54,485.65,158,484.03,159.42,482.38z M145.32,492.32v-8.44h8.44l2.88-2.88c-4.4,5.06-9.15,9.81-14.2,14.2L145.32,492.32z
					 M136.75,503.69l17.1,17.1l-0.38,0.38h-8.47l-13.6-13.6C133.21,506.32,135,505.02,136.75,503.69z M123.63,512.56l8.61,8.61
					h-9.24l-5.25-5.25C119.75,514.85,121.7,513.72,123.63,512.56z M106.93,521.17c0.77-0.34,1.55-0.67,2.31-1.02l1.02,1.02H106.93z
					 M103.1,519.38l2.93-7.91l7.91,2.93l1.94-0.89c-5.12,2.74-10.42,5.17-15.89,7.29L103.1,519.38z"/>
				<polygon points="104.87,518.57 112.16,515.22 106.84,513.25 				"/>
				<rect x="149.99" y="463.11" transform="matrix(0.5718 -0.8204 0.8204 0.5718 -316.7402 324.6411)" width="5.26" height="5.26"/>
				<rect x="156.01" y="454.48" transform="matrix(0.5718 -0.8204 0.8204 0.5718 -307.0764 325.8784)" width="5.26" height="5.26"/>
				<rect x="148.68" y="455.79" transform="matrix(0.5718 -0.8204 0.8204 0.5718 -311.2885 320.4298)" width="5.26" height="5.26"/>
				<polygon points="282.64,515.22 289.93,518.57 287.96,513.25 				"/>
				<polygon points="248.1,485.27 242.44,485.27 248.1,490.94 				"/>
				<polygon points="185.6,397.28 179.93,397.28 179.93,402.95 				"/>
				<polygon points="214.81,443.45 218.15,450.73 220.12,445.42 				"/>
				<polygon points="179.99,443.45 174.68,445.42 176.65,450.73 				"/>
				<polygon points="146.7,485.27 146.7,490.94 152.37,485.27 				"/>
				<polygon points="219.25,407.33 219.25,392.9 204.82,392.9 207.82,395.9 216.25,395.9 216.25,404.33 				"/>
				<rect x="155.08" y="430.03" width="5.26" height="5.26"/>
				<path d="M147.44,414.99l10.21,10.21l10.21-10.21l-10.21-10.21L147.44,414.99z M157.64,420.95l-5.96-5.96l5.96-5.96l5.96,5.96
					L157.64,420.95z"/>
				<rect x="160.34" y="424.76" width="5.26" height="5.26"/>
				<polygon points="214.87,397.28 209.2,397.28 214.87,402.95 				"/>
				<rect x="162.24" y="444.01" transform="matrix(0.4171 -0.9088 0.9088 0.4171 -309.8234 410.1771)" width="5.26" height="5.26"/>
				<polygon points="189.99,392.9 175.55,392.9 175.55,407.33 178.55,404.33 178.55,395.9 186.99,395.9 				"/>
				<rect x="166.64" y="434.44" transform="matrix(0.4171 -0.9088 0.9088 0.4171 -298.5683 408.5941)" width="5.26" height="5.26"/>
				<rect x="154.81" y="412.15" transform="matrix(0.7071 -0.7071 0.7071 0.7071 -247.2664 233.0166)" width="5.67" height="5.67"/>
				<rect x="159.66" y="437.03" transform="matrix(0.4171 -0.9088 0.9088 0.4171 -304.9884 403.7544)" width="5.26" height="5.26"/>
				<polygon points="168.07,465.29 162.49,466.29 163.48,471.87 				"/>
				<polygon points="171.61,460.2 157.4,462.74 159.94,476.95 162.37,473.47 160.88,465.17 169.19,463.68 				"/>
				<rect x="194.63" y="372.46" transform="matrix(0.7071 -0.7071 0.7071 0.7071 -207.5349 249.5513)" width="5.67" height="5.67"/>
				<rect x="207.11" y="377.99" width="5.26" height="5.26"/>
				<rect x="194.77" y="354.99" width="5.26" height="5.26"/>
				<rect x="200.03" y="360.25" width="5.26" height="5.26"/>
				<rect x="212.38" y="372.73" width="5.26" height="5.26"/>
				<rect x="177.16" y="372.73" width="5.26" height="5.26"/>
				<rect x="182.43" y="377.99" width="5.26" height="5.26"/>
				<rect x="207.11" y="367.46" width="5.26" height="5.26"/>
				<rect x="182.43" y="367.46" width="5.26" height="5.26"/>
				<rect x="189.51" y="360.25" width="5.26" height="5.26"/>
				<rect x="234.46" y="394.81" width="5.26" height="5.26"/>
				<rect x="246.94" y="417.68" width="5.26" height="5.26"/>
				<rect x="246.94" y="407.16" width="5.26" height="5.26"/>
				<rect x="252.2" y="412.42" width="5.26" height="5.26"/>
				<rect x="239.73" y="400.08" width="5.26" height="5.26"/>
				<rect x="221.85" y="392.38" transform="matrix(0.7071 -0.7071 0.7071 0.7071 -213.5684 274.4315)" width="5.26" height="5.26"/>
				<rect x="214.41" y="384.94" transform="matrix(0.7071 -0.7071 0.7071 0.7071 -210.4849 266.9875)" width="5.26" height="5.26"/>
				<rect x="229.2" y="400.08" width="5.26" height="5.26"/>
				<rect x="221.85" y="384.94" transform="matrix(0.7071 -0.7071 0.7071 0.7071 -208.3047 272.2512)" width="5.26" height="5.26"/>
				<rect x="167.69" y="384.94" transform="matrix(0.7071 -0.7071 0.7071 0.7071 -224.1679 233.9477)" width="5.26" height="5.26"/>
				<rect x="124.54" y="488.57" transform="matrix(0.8204 -0.5718 0.5718 0.8204 -258.03 160.9454)" width="5.26" height="5.26"/>
				<rect x="117.21" y="487.26" transform="matrix(0.8204 -0.5718 0.5718 0.8204 -258.599 156.5212)" width="5.26" height="5.26"/>
				<rect x="175.13" y="384.94" transform="matrix(0.7071 -0.7071 0.7071 0.7071 -221.9888 239.2146)" width="5.26" height="5.26"/>
				<rect x="134.36" y="480.47" transform="matrix(0.7071 -0.7071 0.7071 0.7071 -301.48 238.3634)" width="5.26" height="5.26"/>
				<rect x="134.36" y="473.02" transform="matrix(0.7071 -0.7071 0.7071 0.7071 -296.2144 236.1795)" width="5.26" height="5.26"/>
				<rect x="105.43" y="500.82" transform="matrix(0.9088 -0.4171 0.4171 0.9088 -200.1562 90.97)" width="5.26" height="5.26"/>
				<rect x="95.86" y="505.21" transform="matrix(0.9088 -0.4171 0.4171 0.9088 -202.8622 87.3806)" width="5.26" height="5.26"/>
				<rect x="98.45" y="498.23" transform="matrix(0.9088 -0.4171 0.4171 0.9088 -199.7108 87.8211)" width="5.26" height="5.26"/>
				<rect x="115.9" y="494.59" transform="matrix(0.8204 -0.5718 0.5718 0.8204 -263.0211 157.0856)" width="5.26" height="5.26"/>
				<rect x="141.8" y="473.02" transform="matrix(0.7071 -0.7071 0.7071 0.7071 -294.036 241.4468)" width="5.26" height="5.26"/>
				<rect x="155.08" y="394.81" width="5.26" height="5.26"/>
				<rect x="160.34" y="400.08" width="5.26" height="5.26"/>
				<rect x="167.69" y="392.38" transform="matrix(0.7071 -0.7071 0.7071 0.7071 -229.4316 236.1279)" width="5.26" height="5.26"/>
				<rect x="149.81" y="400.08" width="5.26" height="5.26"/>
				<rect x="142.6" y="407.16" width="5.26" height="5.26"/>
				<rect x="142.6" y="417.68" width="5.26" height="5.26"/>
				<rect x="137.34" y="412.42" width="5.26" height="5.26"/>
				<rect x="183.23" y="521.8" width="5.67" height="5.67"/>
				<rect x="188.9" y="527.47" width="5.67" height="5.67"/>
				<rect x="177.56" y="527.47" width="5.67" height="5.67"/>
				<rect x="200.24" y="527.47" width="5.67" height="5.67"/>
				<rect x="217.24" y="521.8" width="5.67" height="5.67"/>
				<rect x="211.57" y="527.47" width="5.67" height="5.67"/>
				<rect x="200.24" y="516.13" width="5.67" height="5.67"/>
				<rect x="188.9" y="516.13" width="5.67" height="5.67"/>
				<rect x="247.64" y="472.93" transform="matrix(0.7071 -0.7071 0.7071 0.7071 -262.9697 316.2609)" width="5.26" height="5.26"/>
				<rect x="171.89" y="521.8" width="5.67" height="5.67"/>
				<rect x="194.57" y="463.26" width="5.67" height="5.67"/>
				<rect x="222.91" y="527.47" width="5.67" height="5.67"/>
				<rect x="194.57" y="510.46" width="5.67" height="5.67"/>
				<rect x="194.57" y="474.6" width="5.67" height="5.67"/>
				<rect x="194.57" y="451.93" width="5.67" height="5.67"/>
				<rect x="194.57" y="485.94" width="5.67" height="5.67"/>
				<rect x="194.57" y="499.12" width="5.67" height="5.67"/>
				<rect x="194.57" y="429.25" width="5.67" height="5.67"/>
				<rect x="194.57" y="440.59" width="5.67" height="5.67"/>
				<rect x="166.22" y="527.47" width="5.67" height="5.67"/>
				<rect x="284.11" y="500.82" transform="matrix(0.4171 -0.9088 0.9088 0.4171 -290.4264 554.0457)" width="5.26" height="5.26"/>
				<rect x="273.63" y="494.59" transform="matrix(0.5718 -0.8204 0.8204 0.5718 -289.6157 439.5514)" width="5.26" height="5.26"/>
				<rect x="272.33" y="487.26" transform="matrix(0.5718 -0.8204 0.8204 0.5718 -284.1635 435.3347)" width="5.26" height="5.26"/>
				<rect x="293.68" y="505.21" transform="matrix(0.4171 -0.9088 0.9088 0.4171 -288.8403 565.3043)" width="5.26" height="5.26"/>
				<rect x="291.09" y="498.23" transform="matrix(0.4171 -0.9088 0.9088 0.4171 -284.0062 558.8777)" width="5.26" height="5.26"/>
				<rect x="255.09" y="472.93" transform="matrix(0.7071 -0.7071 0.7071 0.7071 -260.7894 321.5246)" width="5.26" height="5.26"/>
				<rect x="255.09" y="480.38" transform="matrix(0.7071 -0.7071 0.7071 0.7071 -266.0518 323.7006)" width="5.26" height="5.26"/>
				<rect x="265" y="488.57" transform="matrix(0.5718 -0.8204 0.8204 0.5718 -288.3753 429.8884)" width="5.26" height="5.26"/>
				<rect x="200.24" y="504.79" width="5.67" height="5.67"/>
				<rect x="205.91" y="521.8" width="5.67" height="5.67"/>
				<rect x="194.57" y="521.8" width="5.67" height="5.67"/>
				<rect x="194.57" y="406.55" width="5.67" height="5.67"/>
				<rect x="188.9" y="504.79" width="5.67" height="5.67"/>
				<rect x="177.56" y="516.13" width="5.67" height="5.67"/>
				<rect x="211.57" y="516.13" width="5.67" height="5.67"/>
				<rect x="183.23" y="510.46" width="5.67" height="5.67"/>
				<rect x="205.91" y="510.46" width="5.67" height="5.67"/>
			</g>
			<g>
				<rect x="296.8" y="521.91" width="3" height="10.54"/>
			</g>
			<g>
				<rect x="95.01" y="521.91" width="3" height="10.54"/>
			</g>
		</g>
		<g>
			<g>
				<rect x="186.06" y="544.33" width="2.83" height="5.67"/>
				<rect x="188.9" y="538.66" width="5.67" height="5.67"/>
				<rect x="194.57" y="532.99" width="5.67" height="5.67"/>
				<rect x="200.24" y="538.66" width="5.67" height="5.67"/>
				<rect x="205.91" y="544.33" width="2.83" height="5.67"/>
			</g>
			<g>
				<rect x="208.74" y="544.33" width="2.83" height="5.67"/>
				<rect x="211.57" y="538.66" width="5.67" height="5.67"/>
				<rect x="217.24" y="532.99" width="5.67" height="5.67"/>
				<rect x="222.91" y="538.66" width="5.67" height="5.67"/>
				<rect x="228.58" y="544.33" width="2.83" height="5.67"/>
			</g>
			<g>
				<rect x="231.42" y="544.33" width="2.83" height="5.67"/>
				<rect x="234.25" y="538.66" width="5.67" height="5.67"/>
				<rect x="239.92" y="532.99" width="5.67" height="5.67"/>
				<rect x="245.59" y="538.66" width="5.67" height="5.67"/>
				<rect x="251.26" y="544.33" width="2.83" height="5.67"/>
			</g>
			<g>
				<rect x="254.09" y="544.33" width="2.83" height="5.67"/>
				<rect x="256.93" y="538.66" width="5.67" height="5.67"/>
				<rect x="262.6" y="532.99" width="5.67" height="5.67"/>
				<rect x="268.27" y="538.66" width="5.67" height="5.67"/>
				<rect x="273.94" y="544.33" width="2.83" height="5.67"/>
			</g>
			<g>
				<rect x="276.77" y="544.33" width="2.83" height="5.67"/>
				<rect x="279.61" y="538.66" width="5.67" height="5.67"/>
				<rect x="285.28" y="532.99" width="5.67" height="5.67"/>
				<rect x="290.94" y="538.66" width="5.67" height="5.67"/>
				<rect x="296.61" y="544.33" width="2.83" height="5.67"/>
			</g>
			<g>
				<rect x="299.45" y="544.33" width="2.83" height="5.67"/>
				<rect x="302.28" y="538.66" width="5.67" height="5.67"/>
				<rect x="307.95" y="532.99" width="5.67" height="5.67"/>
				<rect x="313.62" y="538.66" width="5.67" height="5.67"/>
				<rect x="319.29" y="544.33" width="2.83" height="5.67"/>
			</g>
			<g>
				<rect x="322.13" y="544.33" width="2.83" height="5.67"/>
				<rect x="324.96" y="538.66" width="5.67" height="5.67"/>
				<rect x="330.63" y="532.99" width="5.67" height="5.67"/>
				<rect x="336.3" y="538.66" width="5.67" height="5.67"/>
				<rect x="341.97" y="544.33" width="2.83" height="5.67"/>
			</g>
			<g>
				
					<rect x="183.23" y="544.33" transform="matrix(-1 -4.620227e-11 4.620227e-11 -1 369.2914 1094.3307)" width="2.83" height="5.67"/>
				
					<rect x="177.56" y="538.66" transform="matrix(-1 -4.395652e-11 4.395652e-11 -1 360.7874 1082.9921)" width="5.67" height="5.67"/>
				
					<rect x="171.89" y="532.99" transform="matrix(-1 -4.395652e-11 4.395652e-11 -1 349.4488 1071.6536)" width="5.67" height="5.67"/>
				
					<rect x="166.22" y="538.66" transform="matrix(-1 -4.395652e-11 4.395652e-11 -1 338.1102 1082.9921)" width="5.67" height="5.67"/>
				
					<rect x="163.39" y="544.33" transform="matrix(-1 -4.620227e-11 4.620227e-11 -1 329.6063 1094.3307)" width="2.83" height="5.67"/>
			</g>
			<g>
				
					<rect x="160.55" y="544.33" transform="matrix(-1 -4.556057e-11 4.556057e-11 -1 323.937 1094.3307)" width="2.83" height="5.67"/>
				
					<rect x="154.88" y="538.66" transform="matrix(-1 -4.427715e-11 4.427715e-11 -1 315.4331 1082.9921)" width="5.67" height="5.67"/>
				
					<rect x="149.21" y="532.99" transform="matrix(-1 -4.427715e-11 4.427715e-11 -1 304.0945 1071.6536)" width="5.67" height="5.67"/>
				
					<rect x="143.54" y="538.66" transform="matrix(-1 -4.427715e-11 4.427715e-11 -1 292.7559 1082.9921)" width="5.67" height="5.67"/>
				
					<rect x="140.71" y="544.33" transform="matrix(-1 -4.620227e-11 4.620227e-11 -1 284.252 1094.3307)" width="2.83" height="5.67"/>
			</g>
			<g>
				
					<rect x="137.87" y="544.33" transform="matrix(-1 -4.620227e-11 4.620227e-11 -1 278.5827 1094.3307)" width="2.83" height="5.67"/>
				
					<rect x="132.2" y="538.66" transform="matrix(-1 -4.427715e-11 4.427715e-11 -1 270.0787 1082.9921)" width="5.67" height="5.67"/>
				
					<rect x="126.54" y="532.99" transform="matrix(-1 -4.588164e-11 4.588164e-11 -1 258.7401 1071.6536)" width="5.67" height="5.67"/>
				
					<rect x="120.87" y="538.66" transform="matrix(-1 -4.395652e-11 4.395652e-11 -1 247.4016 1082.9921)" width="5.67" height="5.67"/>
				
					<rect x="118.03" y="544.33" transform="matrix(-1 -4.620227e-11 4.620227e-11 -1 238.8976 1094.3307)" width="2.83" height="5.67"/>
			</g>
			<g>
				
					<rect x="115.2" y="544.33" transform="matrix(-1 -4.235247e-11 4.235247e-11 -1 233.2283 1094.3307)" width="2.83" height="5.67"/>
				
					<rect x="109.53" y="538.66" transform="matrix(-1 -4.363544e-11 4.363544e-11 -1 224.7244 1082.9921)" width="5.67" height="5.67"/>
				
					<rect x="103.86" y="532.99" transform="matrix(-1 -4.588164e-11 4.588164e-11 -1 213.3858 1071.6536)" width="5.67" height="5.67"/>
				
					<rect x="98.19" y="538.66" transform="matrix(-1 -4.588164e-11 4.588164e-11 -1 202.0472 1082.9921)" width="5.67" height="5.67"/>
				
					<rect x="95.35" y="544.33" transform="matrix(-1 -4.235247e-11 4.235247e-11 -1 193.5433 1094.3307)" width="2.83" height="5.67"/>
			</g>
			<g>
				
					<rect x="92.52" y="544.33" transform="matrix(-1 -4.620227e-11 4.620227e-11 -1 187.874 1094.3307)" width="2.83" height="5.67"/>
				
					<rect x="86.85" y="538.66" transform="matrix(-1 -4.620227e-11 4.620227e-11 -1 179.3701 1082.9921)" width="5.67" height="5.67"/>
				
					<rect x="81.18" y="532.99" transform="matrix(-1 -4.427715e-11 4.427715e-11 -1 168.0315 1071.6536)" width="5.67" height="5.67"/>
				
					<rect x="75.51" y="538.66" transform="matrix(-1 -4.588164e-11 4.588164e-11 -1 156.6929 1082.9921)" width="5.67" height="5.67"/>
				
					<rect x="72.68" y="544.33" transform="matrix(-1 -4.684398e-11 4.684398e-11 -1 148.189 1094.3307)" width="2.83" height="5.67"/>
			</g>
			<g>
				
					<rect x="69.84" y="544.33" transform="matrix(-1 -4.556057e-11 4.556057e-11 -1 142.5197 1094.3307)" width="2.83" height="5.67"/>
				
					<rect x="64.17" y="538.66" transform="matrix(-1 -4.556057e-11 4.556057e-11 -1 134.0157 1082.9921)" width="5.67" height="5.67"/>
				
					<rect x="58.5" y="532.99" transform="matrix(-1 -4.395652e-11 4.395652e-11 -1 122.6772 1071.6536)" width="5.67" height="5.67"/>
				
					<rect x="52.83" y="538.66" transform="matrix(-1 -4.395652e-11 4.395652e-11 -1 111.3386 1082.9921)" width="5.67" height="5.67"/>
				<rect x="50" y="544.33" transform="matrix(-1 -4.620227e-11 4.620227e-11 -1 102.8346 1094.3307)" width="2.83" height="5.67"/>
			</g>
		</g>
	</g>
</g>
<g>
</g>
<g>
</g>
<g>
</g>
<g>
</g>
<g>
</g>
<g>
</g>
<g>
</g>
<g>
</g>
<g>
</g>
<g>
</g>
<g>
</g>
<g>
</g>
<g>
</g>
<g>
</g>
<g>
</g>
</svg>
