<?xml version="1.0" encoding="utf-8"?>
<!-- Generator: Adobe Illustrator 27.2.0, SVG Export Plug-In . SVG Version: 6.00 Build 0)  -->
<svg version="1.1" id="Layer_1" xmlns="http://www.w3.org/2000/svg" xmlns:xlink="http://www.w3.org/1999/xlink" x="0px" y="0px"
	 viewBox="0 0 800 600" style="enable-background:new 0 0 800 600;" xml:space="preserve">
<g>
	<g>
		<g>
			<g>
				
					<rect x="184.95" y="248.29" transform="matrix(3.529361e-11 -1 1 3.529361e-11 -63.3386 438.9019)" width="5.67" height="5.67"/>
				
					<rect x="179.28" y="242.62" transform="matrix(3.529361e-11 -1 1 3.529361e-11 -63.3386 427.5634)" width="5.67" height="5.67"/>
				
					<rect x="173.61" y="248.29" transform="matrix(5.294083e-11 -1 1 5.294083e-11 -74.6772 427.5634)" width="5.67" height="5.67"/>
				
					<rect x="173.61" y="236.95" transform="matrix(5.294083e-11 -1 1 5.294083e-11 -63.3386 416.2248)" width="5.67" height="5.67"/>
				
					<rect x="167.94" y="242.62" transform="matrix(3.513285e-11 -1 1 3.513285e-11 -74.6772 416.2248)" width="5.67" height="5.67"/>
				
					<rect x="162.27" y="248.29" transform="matrix(3.529361e-11 -1 1 3.529361e-11 -86.0158 416.2248)" width="5.67" height="5.67"/>
				
					<rect x="167.94" y="231.28" transform="matrix(5.294083e-11 -1 1 5.294083e-11 -63.3386 404.8862)" width="5.67" height="5.67"/>
				
					<rect x="162.27" y="236.95" transform="matrix(3.529361e-11 -1 1 3.529361e-11 -74.6772 404.8862)" width="5.67" height="5.67"/>
				<rect x="156.6" y="242.62" transform="matrix(5.294083e-11 -1 1 5.294083e-11 -86.0158 404.8862)" width="5.67" height="5.67"/>
				
					<rect x="150.93" y="248.29" transform="matrix(3.529361e-11 -1 1 3.529361e-11 -97.3544 404.8862)" width="5.67" height="5.67"/>
				
					<rect x="162.27" y="225.61" transform="matrix(3.529361e-11 -1 1 3.529361e-11 -63.3386 393.5476)" width="5.67" height="5.67"/>
				<rect x="156.6" y="231.28" transform="matrix(5.294083e-11 -1 1 5.294083e-11 -74.6772 393.5476)" width="5.67" height="5.67"/>
				
					<rect x="150.93" y="236.95" transform="matrix(5.294083e-11 -1 1 5.294083e-11 -86.0158 393.5476)" width="5.67" height="5.67"/>
				
					<rect x="145.26" y="242.62" transform="matrix(3.529361e-11 -1 1 3.529361e-11 -97.3544 393.5476)" width="5.67" height="5.67"/>
				<rect x="156.6" y="219.94" transform="matrix(3.529361e-11 -1 1 3.529361e-11 -63.3386 382.209)" width="5.67" height="5.67"/>
				<rect x="150.93" y="225.61" transform="matrix(5.294083e-11 -1 1 5.294083e-11 -74.6772 382.209)" width="5.67" height="5.67"/>
				<rect x="145.26" y="231.28" transform="matrix(3.529361e-11 -1 1 3.529361e-11 -86.0158 382.209)" width="5.67" height="5.67"/>
				
					<rect x="150.93" y="214.27" transform="matrix(5.278007e-11 -1 1 5.278007e-11 -63.3386 370.8705)" width="5.67" height="5.67"/>
				
					<rect x="145.26" y="219.94" transform="matrix(3.529361e-11 -1 1 3.529361e-11 -74.6772 370.8705)" width="5.67" height="5.67"/>
				<rect x="145.26" y="208.6" transform="matrix(3.529361e-11 -1 1 3.529361e-11 -63.3386 359.5319)" width="5.67" height="5.67"/>
				
					<rect x="179.28" y="253.95" transform="matrix(-8.823360e-11 1 -1 -8.823360e-11 438.9019 74.6772)" width="5.67" height="5.67"/>
				
					<rect x="173.61" y="259.62" transform="matrix(-8.823360e-11 1 -1 -8.823360e-11 438.9019 86.0158)" width="5.67" height="5.67"/>
				
					<rect x="167.94" y="253.95" transform="matrix(-8.823360e-11 1 -1 -8.823360e-11 427.5634 86.0158)" width="5.67" height="5.67"/>
				
					<rect x="167.94" y="265.29" transform="matrix(-8.823360e-11 1 -1 -8.823360e-11 438.9019 97.3544)" width="5.67" height="5.67"/>
				
					<rect x="162.27" y="259.62" transform="matrix(-8.823360e-11 1 -1 -8.823360e-11 427.5634 97.3544)" width="5.67" height="5.67"/>
				
					<rect x="156.6" y="253.95" transform="matrix(-8.807373e-11 1 -1 -8.807373e-11 416.2248 97.3544)" width="5.67" height="5.67"/>
				
					<rect x="162.27" y="270.96" transform="matrix(-8.823360e-11 1 -1 -8.823360e-11 438.9019 108.693)" width="5.67" height="5.67"/>
				
					<rect x="156.6" y="265.29" transform="matrix(-8.807373e-11 1 -1 -8.807373e-11 427.5634 108.693)" width="5.67" height="5.67"/>
				
					<rect x="150.93" y="259.62" transform="matrix(-1.058799e-10 1 -1 -1.058799e-10 416.2248 108.693)" width="5.67" height="5.67"/>
				
					<rect x="145.26" y="253.95" transform="matrix(-8.823360e-11 1 -1 -8.823360e-11 404.8862 108.693)" width="5.67" height="5.67"/>
				
					<rect x="156.6" y="276.63" transform="matrix(-8.823360e-11 1 -1 -8.823360e-11 438.9019 120.0315)" width="5.67" height="5.67"/>
				
					<rect x="150.93" y="270.96" transform="matrix(-8.823360e-11 1 -1 -8.823360e-11 427.5634 120.0315)" width="5.67" height="5.67"/>
				
					<rect x="145.26" y="265.29" transform="matrix(-8.823360e-11 1 -1 -8.823360e-11 416.2248 120.0315)" width="5.67" height="5.67"/>
				
					<rect x="150.93" y="282.3" transform="matrix(-8.823360e-11 1 -1 -8.823360e-11 438.9019 131.3701)" width="5.67" height="5.67"/>
				
					<rect x="145.26" y="276.63" transform="matrix(-8.807373e-11 1 -1 -8.807373e-11 427.5634 131.3701)" width="5.67" height="5.67"/>
				
					<rect x="145.26" y="287.97" transform="matrix(-8.807373e-11 1 -1 -8.807373e-11 438.9019 142.7087)" width="5.67" height="5.67"/>
			</g>
			<g>
				
					<rect x="123.33" y="244.47" transform="matrix(0.7071 -0.7071 0.7071 0.7071 -139.499 165.4601)" style="fill:none;stroke:#000000;stroke-width:4;stroke-miterlimit:10;" width="13.3" height="13.3"/>
				<circle cx="129.98" cy="251.12" r="2.83"/>
				<g>
					<circle cx="109.13" cy="251.12" r="2.83"/>
					<circle cx="114.8" cy="251.12" r="2.83"/>
					<circle cx="109.13" cy="245.45" r="2.83"/>
					<circle cx="109.13" cy="256.79" r="2.83"/>
					<circle cx="103.46" cy="251.12" r="2.83"/>
				</g>
				<g>
					<circle cx="129.98" cy="266.59" r="2.83"/>
					<circle cx="124.31" cy="266.59" r="2.83"/>
					<circle cx="135.65" cy="266.59" r="2.83"/>
					<circle cx="129.98" cy="272.26" r="2.83"/>
				</g>
				<g>
					<circle cx="129.98" cy="235.65" r="2.83"/>
					<circle cx="135.65" cy="235.65" r="2.83"/>
					<circle cx="124.31" cy="235.65" r="2.83"/>
					<circle cx="129.98" cy="229.98" r="2.83"/>
				</g>
			</g>
			<g>
				
					<rect x="80.58" y="244.47" transform="matrix(0.7071 -0.7071 0.7071 0.7071 -152.0202 135.2313)" style="fill:none;stroke:#000000;stroke-width:4;stroke-miterlimit:10;" width="13.3" height="13.3"/>
				<circle cx="87.23" cy="251.12" r="2.83"/>
				<g>
					<circle cx="66.38" cy="251.12" r="2.83"/>
					<circle cx="72.05" cy="251.12" r="2.83"/>
					<circle cx="66.38" cy="245.45" r="2.83"/>
					<circle cx="66.38" cy="256.79" r="2.83"/>
					<circle cx="60.71" cy="251.12" r="2.83"/>
				</g>
				<g>
					<circle cx="87.23" cy="266.59" r="2.83"/>
					<circle cx="81.56" cy="266.59" r="2.83"/>
					<circle cx="92.9" cy="266.59" r="2.83"/>
					<circle cx="87.23" cy="272.26" r="2.83"/>
				</g>
				<g>
					<circle cx="87.23" cy="235.65" r="2.83"/>
					<circle cx="92.9" cy="235.65" r="2.83"/>
					<circle cx="81.56" cy="235.65" r="2.83"/>
					<circle cx="87.23" cy="229.98" r="2.83"/>
				</g>
			</g>
			<g>
				
					<rect x="123.33" y="205.04" transform="matrix(0.7071 -0.7071 0.7071 0.7071 -111.6198 153.9122)" style="fill:none;stroke:#000000;stroke-width:4;stroke-miterlimit:10;" width="13.3" height="13.3"/>
				<circle cx="129.98" cy="211.69" r="2.83"/>
				<g>
					<circle cx="109.13" cy="211.69" r="2.83"/>
					<circle cx="114.8" cy="211.69" r="2.83"/>
					<circle cx="109.13" cy="206.02" r="2.83"/>
					<circle cx="109.13" cy="217.36" r="2.83"/>
					<circle cx="103.46" cy="211.69" r="2.83"/>
				</g>
				<g>
					<circle cx="129.98" cy="196.23" r="2.83"/>
					<circle cx="135.65" cy="196.23" r="2.83"/>
					<circle cx="124.31" cy="196.23" r="2.83"/>
					<circle cx="129.98" cy="190.56" r="2.83"/>
				</g>
			</g>
			<g>
				
					<rect x="123.33" y="283.9" transform="matrix(0.7071 0.7071 -0.7071 0.7071 243.5179 -6.8093)" style="fill:none;stroke:#000000;stroke-width:4;stroke-miterlimit:10;" width="13.3" height="13.3"/>
				<circle cx="129.98" cy="290.55" r="2.83"/>
				<g>
					<circle cx="109.13" cy="290.55" r="2.83"/>
					<circle cx="114.8" cy="290.55" r="2.83"/>
					<circle cx="109.13" cy="296.22" r="2.83"/>
					<circle cx="109.13" cy="284.88" r="2.83"/>
					<circle cx="103.46" cy="290.55" r="2.83"/>
				</g>
				<g>
					<circle cx="129.98" cy="306.01" r="2.83"/>
					<circle cx="135.65" cy="306.01" r="2.83"/>
					<circle cx="124.31" cy="306.01" r="2.83"/>
					<circle cx="129.98" cy="311.68" r="2.83"/>
				</g>
			</g>
		</g>
		<g>
			<g>
				
					<rect x="196.29" y="259.62" transform="matrix(-1 -8.983804e-11 8.983804e-11 -1 398.2405 524.9177)" width="5.67" height="5.67"/>
				
					<rect x="190.62" y="265.29" transform="matrix(-1 -8.823355e-11 8.823355e-11 -1 386.9019 536.2563)" width="5.67" height="5.67"/>
				
					<rect x="196.29" y="270.96" transform="matrix(-1 -9.176317e-11 9.176317e-11 -1 398.2405 547.5949)" width="5.67" height="5.67"/>
				
					<rect x="184.95" y="270.96" transform="matrix(-1 -8.999836e-11 8.999836e-11 -1 375.5633 547.5949)" width="5.67" height="5.67"/>
				
					<rect x="190.62" y="276.63" transform="matrix(-1 -8.646918e-11 8.646918e-11 -1 386.9019 558.9335)" width="5.67" height="5.67"/>
				
					<rect x="196.29" y="282.3" transform="matrix(-1 -9.176317e-11 9.176317e-11 -1 398.2405 570.272)" width="5.67" height="5.67"/>
				
					<rect x="179.28" y="276.63" transform="matrix(-1 -8.983804e-11 8.983804e-11 -1 364.2247 558.9335)" width="5.67" height="5.67"/>
				
					<rect x="184.95" y="282.3" transform="matrix(-1 -8.999836e-11 8.999836e-11 -1 375.5633 570.272)" width="5.67" height="5.67"/>
				
					<rect x="190.62" y="287.97" transform="matrix(-1 -8.999836e-11 8.999836e-11 -1 386.9019 581.6107)" width="5.67" height="5.67"/>
				
					<rect x="196.29" y="293.64" transform="matrix(-1 -8.823355e-11 8.823355e-11 -1 398.2405 592.9492)" width="5.67" height="5.67"/>
				
					<rect x="173.61" y="282.3" transform="matrix(-1 -8.823355e-11 8.823355e-11 -1 352.8861 570.272)" width="5.67" height="5.67"/>
				
					<rect x="179.28" y="287.97" transform="matrix(-1 -9.176317e-11 9.176317e-11 -1 364.2247 581.6107)" width="5.67" height="5.67"/>
				
					<rect x="184.95" y="293.64" transform="matrix(-1 -8.983804e-11 8.983804e-11 -1 375.5633 592.9492)" width="5.67" height="5.67"/>
				
					<rect x="190.62" y="299.31" transform="matrix(-1 -8.999836e-11 8.999836e-11 -1 386.9019 604.2878)" width="5.67" height="5.67"/>
				
					<rect x="167.94" y="287.97" transform="matrix(-1 -8.999836e-11 8.999836e-11 -1 341.5475 581.6107)" width="5.67" height="5.67"/>
				
					<rect x="173.61" y="293.64" transform="matrix(-1 -8.999836e-11 8.999836e-11 -1 352.8861 592.9492)" width="5.67" height="5.67"/>
				
					<rect x="179.28" y="299.31" transform="matrix(-1 -9.176317e-11 9.176317e-11 -1 364.2247 604.2878)" width="5.67" height="5.67"/>
				
					<rect x="162.27" y="293.64" transform="matrix(-1 -8.983804e-11 8.983804e-11 -1 330.209 592.9492)" width="5.67" height="5.67"/>
				
					<rect x="167.94" y="299.31" transform="matrix(-1 -8.999836e-11 8.999836e-11 -1 341.5475 604.2878)" width="5.67" height="5.67"/>
				
					<rect x="156.6" y="299.31" transform="matrix(-1 -8.823355e-11 8.823355e-11 -1 318.8704 604.2878)" width="5.67" height="5.67"/>
				<rect x="201.95" y="265.29" width="5.67" height="5.67"/>
				<rect x="207.62" y="270.96" width="5.67" height="5.67"/>
				<rect x="201.95" y="276.63" width="5.67" height="5.67"/>
				<rect x="213.29" y="276.63" width="5.67" height="5.67"/>
				<rect x="207.62" y="282.3" width="5.67" height="5.67"/>
				<rect x="201.95" y="287.97" width="5.67" height="5.67"/>
				<rect x="218.96" y="282.3" width="5.67" height="5.67"/>
				<rect x="213.29" y="287.97" width="5.67" height="5.67"/>
				<rect x="207.62" y="293.64" width="5.67" height="5.67"/>
				<rect x="201.95" y="299.31" width="5.67" height="5.67"/>
				<rect x="224.63" y="287.97" width="5.67" height="5.67"/>
				<rect x="218.96" y="293.64" width="5.67" height="5.67"/>
				<rect x="213.29" y="299.31" width="5.67" height="5.67"/>
				<rect x="230.3" y="293.64" width="5.67" height="5.67"/>
				<rect x="224.63" y="299.31" width="5.67" height="5.67"/>
				<rect x="235.97" y="299.31" width="5.67" height="5.67"/>
			</g>
			<g>
				
					<rect x="192.47" y="313.61" transform="matrix(-0.7071 -0.7071 0.7071 -0.7071 113.4601 687.5208)" style="fill:none;stroke:#000000;stroke-width:4;stroke-miterlimit:10;" width="13.3" height="13.3"/>
				<circle cx="199.12" cy="320.26" r="2.83"/>
				<g>
					<circle cx="199.12" cy="341.11" r="2.83"/>
					<circle cx="199.12" cy="335.45" r="2.83"/>
					<circle cx="193.45" cy="341.11" r="2.83"/>
					<circle cx="204.79" cy="341.11" r="2.83"/>
					<circle cx="199.12" cy="346.78" r="2.83"/>
				</g>
				<g>
					<circle cx="214.59" cy="320.26" r="2.83"/>
					<circle cx="214.59" cy="325.93" r="2.83"/>
					<circle cx="214.59" cy="314.59" r="2.83"/>
					<circle cx="220.26" cy="320.26" r="2.83"/>
				</g>
				<g>
					<circle cx="183.65" cy="320.26" r="2.83"/>
					<circle cx="183.65" cy="314.59" r="2.83"/>
					<circle cx="183.65" cy="325.93" r="2.83"/>
					<circle cx="177.98" cy="320.26" r="2.83"/>
				</g>
			</g>
			<g>
				
					<rect x="192.47" y="356.36" transform="matrix(-0.7071 -0.7071 0.7071 -0.7071 83.2312 760.4995)" style="fill:none;stroke:#000000;stroke-width:4;stroke-miterlimit:10;" width="13.3" height="13.3"/>
				<circle cx="199.12" cy="363.01" r="2.83"/>
				<g>
					<circle cx="199.12" cy="383.86" r="2.83"/>
					<circle cx="199.12" cy="378.2" r="2.83"/>
					<circle cx="193.45" cy="383.86" r="2.83"/>
					<circle cx="204.79" cy="383.86" r="2.83"/>
					<circle cx="199.12" cy="389.53" r="2.83"/>
				</g>
				<g>
					<circle cx="214.59" cy="363.01" r="2.83"/>
					<circle cx="214.59" cy="368.68" r="2.83"/>
					<circle cx="214.59" cy="357.34" r="2.83"/>
					<circle cx="220.26" cy="363.01" r="2.83"/>
				</g>
				<g>
					<circle cx="183.65" cy="363.01" r="2.83"/>
					<circle cx="183.65" cy="357.34" r="2.83"/>
					<circle cx="183.65" cy="368.68" r="2.83"/>
					<circle cx="177.98" cy="363.01" r="2.83"/>
				</g>
			</g>
			<g>
				
					<rect x="153.04" y="313.61" transform="matrix(-0.7071 -0.7071 0.7071 -0.7071 46.1537 659.6415)" style="fill:none;stroke:#000000;stroke-width:4;stroke-miterlimit:10;" width="13.3" height="13.3"/>
				<circle cx="159.69" cy="320.26" r="2.83"/>
				<g>
					<circle cx="159.69" cy="341.11" r="2.83"/>
					<circle cx="159.69" cy="335.45" r="2.83"/>
					<circle cx="154.02" cy="341.11" r="2.83"/>
					<circle cx="165.36" cy="341.11" r="2.83"/>
					<circle cx="159.69" cy="346.78" r="2.83"/>
				</g>
				<g>
					<circle cx="144.23" cy="320.26" r="2.83"/>
					<circle cx="144.23" cy="314.59" r="2.83"/>
					<circle cx="144.23" cy="325.93" r="2.83"/>
					<circle cx="138.56" cy="320.26" r="2.83"/>
				</g>
			</g>
			<g>
				
					<rect x="231.9" y="313.61" transform="matrix(0.7071 -0.7071 0.7071 0.7071 -156.5905 262.481)" style="fill:none;stroke:#000000;stroke-width:4;stroke-miterlimit:10;" width="13.3" height="13.3"/>
				<circle cx="238.55" cy="320.26" r="2.83"/>
				<g>
					<circle cx="238.55" cy="341.11" r="2.83"/>
					<circle cx="238.55" cy="335.45" r="2.83"/>
					<circle cx="244.22" cy="341.11" r="2.83"/>
					<circle cx="232.88" cy="341.11" r="2.83"/>
					<circle cx="238.55" cy="346.78" r="2.83"/>
				</g>
				<g>
					<circle cx="254.01" cy="320.26" r="2.83"/>
					<circle cx="254.01" cy="314.59" r="2.83"/>
					<circle cx="254.01" cy="325.93" r="2.83"/>
					<circle cx="259.68" cy="320.26" r="2.83"/>
				</g>
			</g>
		</g>
		<g>
			<g>
				
					<rect x="207.62" y="248.29" transform="matrix(-1.235271e-10 1 -1 -1.235271e-10 461.5791 40.6615)" width="5.67" height="5.67"/>
				
					<rect x="213.29" y="253.95" transform="matrix(-1.411744e-10 1 -1 -1.411744e-10 472.9177 40.6615)" width="5.67" height="5.67"/>
				
					<rect x="218.96" y="248.29" transform="matrix(-1.410136e-10 1 -1 -1.410136e-10 472.9177 29.3229)" width="5.67" height="5.67"/>
				
					<rect x="218.96" y="259.62" transform="matrix(-1.411744e-10 1 -1 -1.411744e-10 484.2563 40.6615)" width="5.67" height="5.67"/>
				
					<rect x="224.63" y="253.95" transform="matrix(-1.235271e-10 1 -1 -1.235271e-10 484.2563 29.3229)" width="5.67" height="5.67"/>
				
					<rect x="230.3" y="248.29" transform="matrix(-1.411744e-10 1 -1 -1.411744e-10 484.2563 17.9843)" width="5.67" height="5.67"/>
				
					<rect x="224.63" y="265.29" transform="matrix(-1.410136e-10 1 -1 -1.410136e-10 495.5948 40.6615)" width="5.67" height="5.67"/>
				
					<rect x="230.3" y="259.62" transform="matrix(-1.233664e-10 1 -1 -1.233664e-10 495.5948 29.3229)" width="5.67" height="5.67"/>
				
					<rect x="235.97" y="253.95" transform="matrix(-1.411744e-10 1 -1 -1.411744e-10 495.5948 17.9843)" width="5.67" height="5.67"/>
				
					<rect x="241.64" y="248.29" transform="matrix(-1.235271e-10 1 -1 -1.235271e-10 495.5948 6.6457)" width="5.67" height="5.67"/>
				
					<rect x="230.3" y="270.96" transform="matrix(-1.235271e-10 1 -1 -1.235271e-10 506.9334 40.6615)" width="5.67" height="5.67"/>
				
					<rect x="235.97" y="265.29" transform="matrix(-1.411744e-10 1 -1 -1.411744e-10 506.9334 29.3229)" width="5.67" height="5.67"/>
				
					<rect x="241.64" y="259.62" transform="matrix(-1.411744e-10 1 -1 -1.411744e-10 506.9334 17.9843)" width="5.67" height="5.67"/>
				
					<rect x="247.31" y="253.95" transform="matrix(-1.411744e-10 1 -1 -1.411744e-10 506.9334 6.6457)" width="5.67" height="5.67"/>
				
					<rect x="235.97" y="276.63" transform="matrix(-1.235271e-10 1 -1 -1.235271e-10 518.272 40.6615)" width="5.67" height="5.67"/>
				
					<rect x="241.64" y="270.96" transform="matrix(-1.411744e-10 1 -1 -1.411744e-10 518.272 29.3229)" width="5.67" height="5.67"/>
				
					<rect x="247.31" y="265.29" transform="matrix(-1.233664e-10 1 -1 -1.233664e-10 518.272 17.9843)" width="5.67" height="5.67"/>
				
					<rect x="241.64" y="282.3" transform="matrix(-1.410136e-10 1 -1 -1.410136e-10 529.6106 40.6615)" width="5.67" height="5.67"/>
				
					<rect x="247.31" y="276.63" transform="matrix(-1.410136e-10 1 -1 -1.410136e-10 529.6106 29.3229)" width="5.67" height="5.67"/>
				
					<rect x="247.31" y="287.97" transform="matrix(-1.411744e-10 1 -1 -1.411744e-10 540.9492 40.6615)" width="5.67" height="5.67"/>
				
					<rect x="213.29" y="242.62" transform="matrix(1.764669e-10 -1 1 1.764669e-10 -29.3229 461.5791)" width="5.67" height="5.67"/>
				
					<rect x="218.96" y="236.95" transform="matrix(1.764669e-10 -1 1 1.764669e-10 -17.9843 461.5791)" width="5.67" height="5.67"/>
				
					<rect x="224.63" y="242.62" transform="matrix(1.763070e-10 -1 1 1.763070e-10 -17.9843 472.9177)" width="5.67" height="5.67"/>
				<rect x="224.63" y="231.28" transform="matrix(1.764669e-10 -1 1 1.764669e-10 -6.6457 461.5791)" width="5.67" height="5.67"/>
				<rect x="230.3" y="236.95" transform="matrix(1.763070e-10 -1 1 1.763070e-10 -6.6457 472.9177)" width="5.67" height="5.67"/>
				<rect x="235.97" y="242.62" transform="matrix(1.764669e-10 -1 1 1.764669e-10 -6.6457 484.2563)" width="5.67" height="5.67"/>
				<rect x="230.3" y="225.61" transform="matrix(1.764669e-10 -1 1 1.764669e-10 4.6929 461.5791)" width="5.67" height="5.67"/>
				<rect x="235.97" y="231.28" transform="matrix(1.763070e-10 -1 1 1.763070e-10 4.6929 472.9177)" width="5.67" height="5.67"/>
				<rect x="241.64" y="236.95" transform="matrix(1.764669e-10 -1 1 1.764669e-10 4.6929 484.2563)" width="5.67" height="5.67"/>
				<rect x="247.31" y="242.62" transform="matrix(1.939534e-10 -1 1 1.939534e-10 4.6929 495.5948)" width="5.67" height="5.67"/>
				<rect x="235.97" y="219.94" transform="matrix(1.764669e-10 -1 1 1.764669e-10 16.0315 461.5791)" width="5.67" height="5.67"/>
				<rect x="241.64" y="225.61" transform="matrix(1.763070e-10 -1 1 1.763070e-10 16.0315 472.9177)" width="5.67" height="5.67"/>
				<rect x="247.31" y="231.28" transform="matrix(1.764669e-10 -1 1 1.764669e-10 16.0315 484.2563)" width="5.67" height="5.67"/>
				<rect x="241.64" y="214.27" transform="matrix(1.764669e-10 -1 1 1.764669e-10 27.37 461.5791)" width="5.67" height="5.67"/>
				<rect x="247.31" y="219.94" transform="matrix(1.763070e-10 -1 1 1.763070e-10 27.37 472.9177)" width="5.67" height="5.67"/>
				<rect x="247.31" y="208.6" transform="matrix(1.764669e-10 -1 1 1.764669e-10 38.7086 461.5791)" width="5.67" height="5.67"/>
			</g>
			<g>
				
					<rect x="261.61" y="244.47" transform="matrix(-0.7071 0.7071 -0.7071 -0.7071 635.5207 238.9993)" style="fill:none;stroke:#000000;stroke-width:4;stroke-miterlimit:10;" width="13.3" height="13.3"/>
				<circle cx="268.26" cy="251.12" r="2.83"/>
				<g>
					<circle cx="289.11" cy="251.12" r="2.83"/>
					<circle cx="283.45" cy="251.12" r="2.83"/>
					<circle cx="289.11" cy="256.79" r="2.83"/>
					<circle cx="289.11" cy="245.45" r="2.83"/>
					<circle cx="294.78" cy="251.12" r="2.83"/>
				</g>
				<g>
					<circle cx="268.26" cy="235.65" r="2.83"/>
					<circle cx="273.93" cy="235.65" r="2.83"/>
					<circle cx="262.59" cy="235.65" r="2.83"/>
					<circle cx="268.26" cy="229.98" r="2.83"/>
				</g>
				<g>
					<circle cx="268.26" cy="266.59" r="2.83"/>
					<circle cx="262.59" cy="266.59" r="2.83"/>
					<circle cx="273.93" cy="266.59" r="2.83"/>
					<circle cx="268.26" cy="272.26" r="2.83"/>
				</g>
			</g>
			<g>
				
					<rect x="304.36" y="244.47" transform="matrix(-0.7071 0.7071 -0.7071 -0.7071 708.4995 208.7705)" style="fill:none;stroke:#000000;stroke-width:4;stroke-miterlimit:10;" width="13.3" height="13.3"/>
				<circle cx="311.01" cy="251.12" r="2.83"/>
				<g>
					<circle cx="331.86" cy="251.12" r="2.83"/>
					<circle cx="326.2" cy="251.12" r="2.83"/>
					<circle cx="331.86" cy="256.79" r="2.83"/>
					<circle cx="331.86" cy="245.45" r="2.83"/>
					<circle cx="337.53" cy="251.12" r="2.83"/>
				</g>
				<g>
					<circle cx="311.01" cy="235.65" r="2.83"/>
					<circle cx="316.68" cy="235.65" r="2.83"/>
					<circle cx="305.34" cy="235.65" r="2.83"/>
					<circle cx="311.01" cy="229.98" r="2.83"/>
				</g>
				<g>
					<circle cx="311.01" cy="266.59" r="2.83"/>
					<circle cx="305.34" cy="266.59" r="2.83"/>
					<circle cx="316.68" cy="266.59" r="2.83"/>
					<circle cx="311.01" cy="272.26" r="2.83"/>
				</g>
			</g>
			<g>
				
					<rect x="261.61" y="283.9" transform="matrix(-0.7071 0.7071 -0.7071 -0.7071 663.3999 306.3057)" style="fill:none;stroke:#000000;stroke-width:4;stroke-miterlimit:10;" width="13.3" height="13.3"/>
				<circle cx="268.26" cy="290.55" r="2.83"/>
				<g>
					<circle cx="289.11" cy="290.55" r="2.83"/>
					<circle cx="283.45" cy="290.55" r="2.83"/>
					<circle cx="289.11" cy="296.22" r="2.83"/>
					<circle cx="289.11" cy="284.88" r="2.83"/>
					<circle cx="294.78" cy="290.55" r="2.83"/>
				</g>
				<g>
					<circle cx="268.26" cy="306.01" r="2.83"/>
					<circle cx="262.59" cy="306.01" r="2.83"/>
					<circle cx="273.93" cy="306.01" r="2.83"/>
					<circle cx="268.26" cy="311.68" r="2.83"/>
				</g>
			</g>
			<g>
				
					<rect x="261.61" y="205.04" transform="matrix(-0.7071 -0.7071 0.7071 -0.7071 308.2622 551.0726)" style="fill:none;stroke:#000000;stroke-width:4;stroke-miterlimit:10;" width="13.3" height="13.3"/>
				<circle cx="268.26" cy="211.69" r="2.83"/>
				<g>
					<circle cx="289.11" cy="211.69" r="2.83"/>
					<circle cx="283.45" cy="211.69" r="2.83"/>
					<circle cx="289.11" cy="206.02" r="2.83"/>
					<circle cx="289.11" cy="217.36" r="2.83"/>
					<circle cx="294.78" cy="211.69" r="2.83"/>
				</g>
				<g>
					<circle cx="268.26" cy="196.23" r="2.83"/>
					<circle cx="262.59" cy="196.23" r="2.83"/>
					<circle cx="273.93" cy="196.23" r="2.83"/>
					<circle cx="268.26" cy="190.56" r="2.83"/>
				</g>
			</g>
		</g>
		<g>
			<g>
				<rect x="196.29" y="236.95" width="5.67" height="5.67"/>
				<rect x="201.95" y="231.28" width="5.67" height="5.67"/>
				<rect x="196.29" y="225.61" width="5.67" height="5.67"/>
				<rect x="207.62" y="225.61" width="5.67" height="5.67"/>
				<rect x="201.95" y="219.94" width="5.67" height="5.67"/>
				<rect x="196.29" y="214.27" width="5.67" height="5.67"/>
				<rect x="213.29" y="219.94" width="5.67" height="5.67"/>
				<rect x="207.62" y="214.27" width="5.67" height="5.67"/>
				<rect x="201.95" y="208.6" width="5.67" height="5.67"/>
				<rect x="196.29" y="202.93" width="5.67" height="5.67"/>
				<rect x="218.96" y="214.27" width="5.67" height="5.67"/>
				<rect x="213.29" y="208.6" width="5.67" height="5.67"/>
				<rect x="207.62" y="202.93" width="5.67" height="5.67"/>
				<rect x="201.95" y="197.26" width="5.67" height="5.67"/>
				<rect x="224.63" y="208.6" width="5.67" height="5.67"/>
				<rect x="218.96" y="202.93" width="5.67" height="5.67"/>
				<rect x="213.29" y="197.26" width="5.67" height="5.67"/>
				<rect x="230.3" y="202.93" width="5.67" height="5.67"/>
				<rect x="224.63" y="197.26" width="5.67" height="5.67"/>
				<rect x="235.97" y="197.26" width="5.67" height="5.67"/>
				
					<rect x="190.62" y="231.28" transform="matrix(-1 -4.748569e-11 4.748569e-11 -1 386.9019 468.2248)" width="5.67" height="5.67"/>
				
					<rect x="184.95" y="225.61" transform="matrix(-1 -4.748569e-11 4.748569e-11 -1 375.5633 456.8862)" width="5.67" height="5.67"/>
				
					<rect x="190.62" y="219.94" transform="matrix(-1 -4.748569e-11 4.748569e-11 -1 386.9019 445.5476)" width="5.67" height="5.67"/>
				
					<rect x="179.28" y="219.94" transform="matrix(-1 -4.764645e-11 4.764645e-11 -1 364.2247 445.5476)" width="5.67" height="5.67"/>
				
					<rect x="184.95" y="214.27" transform="matrix(-1 -4.588164e-11 4.588164e-11 -1 375.5633 434.2091)" width="5.67" height="5.67"/>
				
					<rect x="190.62" y="208.6" transform="matrix(-1 -4.588164e-11 4.588164e-11 -1 386.9019 422.8705)" width="5.67" height="5.67"/>
				
					<rect x="173.61" y="214.27" transform="matrix(-1 -4.235247e-11 4.235247e-11 -1 352.8861 434.2091)" width="5.67" height="5.67"/>
				
					<rect x="179.28" y="208.6" transform="matrix(-1 -4.588164e-11 4.588164e-11 -1 364.2247 422.8705)" width="5.67" height="5.67"/>
				
					<rect x="184.95" y="202.93" transform="matrix(-1 -4.588164e-11 4.588164e-11 -1 375.5633 411.5319)" width="5.67" height="5.67"/>
				
					<rect x="190.62" y="197.26" transform="matrix(-1 -4.572133e-11 4.572133e-11 -1 386.9019 400.1933)" width="5.67" height="5.67"/>
				
					<rect x="167.94" y="208.6" transform="matrix(-1 -4.411683e-11 4.411683e-11 -1 341.5475 422.8705)" width="5.67" height="5.67"/>
				
					<rect x="173.61" y="202.93" transform="matrix(-1 -4.427715e-11 4.427715e-11 -1 352.8861 411.5319)" width="5.67" height="5.67"/>
				
					<rect x="179.28" y="197.26" transform="matrix(-1 -4.235247e-11 4.235247e-11 -1 364.2247 400.1933)" width="5.67" height="5.67"/>
				
					<rect x="162.27" y="202.93" transform="matrix(-1 -4.411683e-11 4.411683e-11 -1 330.209 411.5319)" width="5.67" height="5.67"/>
				
					<rect x="167.94" y="197.26" transform="matrix(-1 -4.411683e-11 4.411683e-11 -1 341.5475 400.1933)" width="5.67" height="5.67"/>
				
					<rect x="156.6" y="197.26" transform="matrix(-1 -4.395652e-11 4.395652e-11 -1 318.8704 400.1933)" width="5.67" height="5.67"/>
			</g>
			<g>
				
					<rect x="192.47" y="175.33" transform="matrix(0.7071 0.7071 -0.7071 0.7071 186.9992 -87.499)" style="fill:none;stroke:#000000;stroke-width:4;stroke-miterlimit:10;" width="13.3" height="13.3"/>
				<circle cx="199.12" cy="181.98" r="2.83"/>
				<g>
					<circle cx="199.12" cy="161.13" r="2.83"/>
					<circle cx="199.12" cy="166.8" r="2.83"/>
					<circle cx="204.79" cy="161.13" r="2.83"/>
					<circle cx="193.45" cy="161.13" r="2.83"/>
					<circle cx="199.12" cy="155.46" r="2.83"/>
				</g>
				<g>
					<circle cx="183.65" cy="181.98" r="2.83"/>
					<circle cx="183.65" cy="176.31" r="2.83"/>
					<circle cx="183.65" cy="187.65" r="2.83"/>
					<circle cx="177.98" cy="181.98" r="2.83"/>
				</g>
				<g>
					<circle cx="214.59" cy="181.98" r="2.83"/>
					<circle cx="214.59" cy="187.65" r="2.83"/>
					<circle cx="214.59" cy="176.31" r="2.83"/>
					<circle cx="220.26" cy="181.98" r="2.83"/>
				</g>
			</g>
			<g>
				
					<rect x="192.47" y="132.58" transform="matrix(0.7071 0.7071 -0.7071 0.7071 156.7704 -100.0202)" style="fill:none;stroke:#000000;stroke-width:4;stroke-miterlimit:10;" width="13.3" height="13.3"/>
				<circle cx="199.12" cy="139.23" r="2.83"/>
				<g>
					<circle cx="199.12" cy="118.38" r="2.83"/>
					<circle cx="199.12" cy="124.05" r="2.83"/>
					<circle cx="204.79" cy="118.38" r="2.83"/>
					<circle cx="193.45" cy="118.38" r="2.83"/>
					<circle cx="199.12" cy="112.71" r="2.83"/>
				</g>
				<g>
					<circle cx="183.65" cy="139.23" r="2.83"/>
					<circle cx="183.65" cy="133.56" r="2.83"/>
					<circle cx="183.65" cy="144.9" r="2.83"/>
					<circle cx="177.98" cy="139.23" r="2.83"/>
				</g>
				<g>
					<circle cx="214.59" cy="139.23" r="2.83"/>
					<circle cx="214.59" cy="144.9" r="2.83"/>
					<circle cx="214.59" cy="133.56" r="2.83"/>
					<circle cx="220.26" cy="139.23" r="2.83"/>
				</g>
			</g>
			<g>
				
					<rect x="231.9" y="175.33" transform="matrix(0.7071 0.7071 -0.7071 0.7071 198.5472 -115.3782)" style="fill:none;stroke:#000000;stroke-width:4;stroke-miterlimit:10;" width="13.3" height="13.3"/>
				<circle cx="238.55" cy="181.98" r="2.83"/>
				<g>
					<circle cx="238.55" cy="161.13" r="2.83"/>
					<circle cx="238.55" cy="166.8" r="2.83"/>
					<circle cx="244.22" cy="161.13" r="2.83"/>
					<circle cx="232.88" cy="161.13" r="2.83"/>
					<circle cx="238.55" cy="155.46" r="2.83"/>
				</g>
				<g>
					<circle cx="254.01" cy="181.98" r="2.83"/>
					<circle cx="254.01" cy="187.65" r="2.83"/>
					<circle cx="254.01" cy="176.31" r="2.83"/>
					<circle cx="259.68" cy="181.98" r="2.83"/>
				</g>
			</g>
			<g>
				
					<rect x="153.04" y="175.33" transform="matrix(-0.7071 0.7071 -0.7071 -0.7071 401.2914 197.7368)" style="fill:none;stroke:#000000;stroke-width:4;stroke-miterlimit:10;" width="13.3" height="13.3"/>
				<circle cx="159.69" cy="181.98" r="2.83"/>
				<g>
					<circle cx="159.69" cy="161.13" r="2.83"/>
					<circle cx="159.69" cy="166.8" r="2.83"/>
					<circle cx="154.02" cy="161.13" r="2.83"/>
					<circle cx="165.36" cy="161.13" r="2.83"/>
					<circle cx="159.69" cy="155.46" r="2.83"/>
				</g>
				<g>
					<circle cx="144.23" cy="181.98" r="2.83"/>
					<circle cx="144.23" cy="187.65" r="2.83"/>
					<circle cx="144.23" cy="176.31" r="2.83"/>
					<circle cx="138.56" cy="181.98" r="2.83"/>
				</g>
			</g>
		</g>
		<g>
			<rect x="190.62" y="248.29" width="5.67" height="5.67"/>
			<rect x="196.29" y="253.95" width="5.67" height="5.67"/>
			<rect x="196.29" y="242.62" width="5.67" height="5.67"/>
			<rect x="201.95" y="248.29" width="5.67" height="5.67"/>
		</g>
	</g>
	<g>
		<g>
			<path d="M50,536.78L63.22,550l13.22-13.22l-13.22-13.22L50,536.78z M63.22,544.34l-7.56-7.56l7.56-7.56l7.56,7.56L63.22,544.34z"
				/>
			<path d="M60.38,536.78c0,1.57,1.27,2.83,2.83,2.83c1.57,0,2.83-1.27,2.83-2.83c0-1.57-1.27-2.83-2.83-2.83
				C61.65,533.95,60.38,535.22,60.38,536.78z"/>
			<path d="M63.22,523.02c1.57,0,2.83-1.27,2.83-2.83c0-1.57-1.27-2.83-2.83-2.83c-1.57,0-2.83,1.27-2.83,2.83
				C60.38,521.75,61.65,523.02,63.22,523.02z"/>
			<path d="M68.89,523.02c1.57,0,2.83-1.27,2.83-2.83c0-1.57-1.27-2.83-2.83-2.83c-1.57,0-2.83,1.27-2.83,2.83
				C66.05,521.75,67.32,523.02,68.89,523.02z"/>
			<path d="M57.55,523.02c1.57,0,2.83-1.27,2.83-2.83c0-1.57-1.27-2.83-2.83-2.83s-2.83,1.27-2.83,2.83
				C54.71,521.75,55.98,523.02,57.55,523.02z"/>
			<path d="M66.05,514.51c0-1.57-1.27-2.83-2.83-2.83c-1.57,0-2.83,1.27-2.83,2.83c0,1.57,1.27,2.83,2.83,2.83
				C64.78,517.35,66.05,516.08,66.05,514.51z"/>
			<path d="M77.5,536.78L90.72,550l13.22-13.22l-13.22-13.22L77.5,536.78z M90.72,544.34l-7.56-7.56l7.56-7.56l7.56,7.56
				L90.72,544.34z"/>
			<path d="M87.88,536.78c0,1.57,1.27,2.83,2.83,2.83c1.57,0,2.83-1.27,2.83-2.83c0-1.57-1.27-2.83-2.83-2.83
				C89.15,533.95,87.88,535.22,87.88,536.78z"/>
			<path d="M90.72,523.02c1.57,0,2.83-1.27,2.83-2.83c0-1.57-1.27-2.83-2.83-2.83c-1.57,0-2.83,1.27-2.83,2.83
				C87.88,521.75,89.15,523.02,90.72,523.02z"/>
			<path d="M96.39,523.02c1.57,0,2.83-1.27,2.83-2.83c0-1.57-1.27-2.83-2.83-2.83c-1.57,0-2.83,1.27-2.83,2.83
				C93.55,521.75,94.82,523.02,96.39,523.02z"/>
			<path d="M85.05,523.02c1.57,0,2.83-1.27,2.83-2.83c0-1.57-1.27-2.83-2.83-2.83s-2.83,1.27-2.83,2.83
				C82.21,521.75,83.48,523.02,85.05,523.02z"/>
			<path d="M93.55,514.51c0-1.57-1.27-2.83-2.83-2.83c-1.57,0-2.83,1.27-2.83,2.83c0,1.57,1.27,2.83,2.83,2.83
				C92.28,517.35,93.55,516.08,93.55,514.51z"/>
			<g>
				<circle cx="97.08" cy="405.75" r="2.83"/>
				<circle cx="102.75" cy="442.83" r="2.83"/>
				<circle cx="102.75" cy="405.75" r="2.83"/>
				<polygon points="118.22,455.07 111.64,448.5 118.22,441.92 118.22,436.26 105.98,448.5 118.22,460.73 				"/>
				<circle cx="102.75" cy="400.08" r="2.83"/>
				<path d="M99.92,411.42c0,1.57,1.27,2.83,2.83,2.83s2.83-1.27,2.83-2.83c0-1.57-1.27-2.83-2.83-2.83S99.92,409.85,99.92,411.42z"
					/>
				<circle cx="102.75" cy="448.5" r="2.83"/>
				<path d="M84.46,430.48c1.57,0,2.83-1.27,2.83-2.83c0-1.57-1.27-2.83-2.83-2.83c-1.57,0-2.83,1.27-2.83,2.83
					C81.63,429.21,82.89,430.48,84.46,430.48z"/>
				<circle cx="78.79" cy="421.97" r="2.83"/>
				<path d="M99.92,454.17c0,1.57,1.27,2.83,2.83,2.83s2.83-1.27,2.83-2.83c0-1.57-1.27-2.83-2.83-2.83S99.92,452.6,99.92,454.17z"
					/>
				<circle cx="78.79" cy="433.31" r="2.83"/>
				<circle cx="97.08" cy="448.5" r="2.83"/>
				<path d="M118.22,430.48v-5.67c-1.57,0-2.83,1.27-2.83,2.83C115.38,429.21,116.65,430.48,118.22,430.48z"/>
				<polygon points="118.22,412.32 111.64,405.75 118.22,399.17 118.22,393.51 105.98,405.75 118.22,417.98 				"/>
				<path d="M112.55,387.73c1.57,0,2.83-1.27,2.83-2.83c0-1.57-1.27-2.83-2.83-2.83s-2.83,1.27-2.83,2.83
					C109.71,386.46,110.98,387.73,112.55,387.73z"/>
				<path d="M115.38,448.5c0,1.57,1.27,2.83,2.83,2.83v-5.67C116.65,445.66,115.38,446.93,115.38,448.5z"/>
				<path d="M115.38,514.51c0,1.57,1.27,2.83,2.83,2.83v-5.67C116.65,511.68,115.38,512.95,115.38,514.51z"/>
				<path d="M115.38,421.97c0,1.57,1.27,2.83,2.83,2.83v-5.67C116.65,419.14,115.38,420.41,115.38,421.97z"/>
				<path d="M115.38,405.75c0,1.57,1.27,2.83,2.83,2.83v-5.67C116.65,402.91,115.38,404.18,115.38,405.75z"/>
				<path d="M118.22,436.15v-5.67c-1.57,0-2.83,1.27-2.83,2.83C115.38,434.88,116.65,436.15,118.22,436.15z"/>
				<path d="M112.55,424.81c-1.57,0-2.83,1.27-2.83,2.83c0,1.57,1.27,2.83,2.83,2.83s2.83-1.27,2.83-2.83
					C115.38,426.08,114.11,424.81,112.55,424.81z"/>
				<path d="M78.79,430.48c1.57,0,2.83-1.27,2.83-2.83c0-1.57-1.27-2.83-2.83-2.83s-2.83,1.27-2.83,2.83
					C75.96,429.21,77.23,430.48,78.79,430.48z"/>
				<path d="M118.22,382.06v-5.67c-1.57,0-2.83,1.27-2.83,2.83S116.65,382.06,118.22,382.06z"/>
				<path d="M115.38,536.78c0,1.57,1.27,2.83,2.83,2.83v-5.67C116.65,533.95,115.38,535.22,115.38,536.78z"/>
				<path d="M118.22,387.73v-5.67c-1.57,0-2.83,1.27-2.83,2.83C115.38,386.46,116.65,387.73,118.22,387.73z"/>
				<path d="M115.38,390.56c0,1.57,1.27,2.83,2.83,2.83v-5.67C116.65,387.73,115.38,389,115.38,390.56z"/>
				<path d="M112.55,517.35c-1.57,0-2.83,1.27-2.83,2.83s1.27,2.83,2.83,2.83s2.83-1.27,2.83-2.83S114.11,517.35,112.55,517.35z"/>
				<path d="M118.22,523.02v-5.67c-1.57,0-2.83,1.27-2.83,2.83C115.38,521.75,116.65,523.02,118.22,523.02z"/>
				<rect x="98.38" y="486.46" width="5.67" height="5.67"/>
				<path d="M73.12,430.48c1.57,0,2.83-1.27,2.83-2.83c0-1.57-1.27-2.83-2.83-2.83c-1.57,0-2.83,1.27-2.83,2.83
					C70.29,429.21,71.56,430.48,73.12,430.48z"/>
				<rect x="98.38" y="475.12" width="5.67" height="5.67"/>
				<rect x="104.04" y="480.79" width="5.67" height="5.67"/>
				<rect x="109.71" y="497.8" width="5.67" height="5.67"/>
				<rect x="109.71" y="475.12" width="5.67" height="5.67"/>
				<rect x="115.38" y="503.47" width="2.83" height="5.67"/>
				<rect x="104.04" y="469.45" width="5.67" height="5.67"/>
				<rect x="92.71" y="480.79" width="5.67" height="5.67"/>
				<rect x="104.04" y="492.13" width="5.67" height="5.67"/>
				<polygon points="118.22,544.34 110.66,536.78 118.22,529.22 118.22,523.57 105,536.78 118.22,550 				"/>
				<rect x="87.04" y="475.12" width="5.67" height="5.67"/>
				<rect x="115.38" y="492.13" width="2.83" height="5.67"/>
				<rect x="92.71" y="469.45" width="5.67" height="5.67"/>
				<rect x="109.71" y="486.46" width="5.67" height="5.67"/>
				<circle cx="63.32" cy="442.83" r="2.83"/>
				<circle cx="78.79" cy="448.5" r="2.83"/>
				<path d="M91.03,448.5l-12.23-12.24L66.56,448.5l12.24,12.23L91.03,448.5z M78.79,441.92l6.58,6.58l-6.58,6.58l-6.58-6.58
					L78.79,441.92z"/>
				<circle cx="63.32" cy="448.5" r="2.83"/>
				<path d="M60.49,454.17c0,1.57,1.27,2.83,2.83,2.83c1.57,0,2.83-1.27,2.83-2.83c0-1.57-1.27-2.83-2.83-2.83
					C61.76,451.33,60.49,452.6,60.49,454.17z"/>
				<path d="M57.66,445.66c-1.57,0-2.83,1.27-2.83,2.83c0,1.57,1.27,2.83,2.83,2.83c1.57,0,2.83-1.27,2.83-2.83
					C60.49,446.93,59.22,445.66,57.66,445.66z"/>
				<rect x="75.7" y="463.78" width="5.67" height="5.67"/>
				<rect x="115.38" y="480.79" width="2.83" height="5.67"/>
				<rect x="98.38" y="463.78" width="5.67" height="5.67"/>
				<rect x="115.38" y="469.45" width="2.83" height="5.67"/>
				<rect x="109.71" y="463.78" width="5.67" height="5.67"/>
				<rect x="87.04" y="463.78" width="5.67" height="5.67"/>
				<rect x="81.37" y="469.45" width="5.67" height="5.67"/>
			</g>
		</g>
		<g>
			<path d="M131.44,536.78L144.65,550l13.22-13.22l-13.22-13.22L131.44,536.78z M144.65,544.34l-7.56-7.56l7.56-7.56l7.56,7.56
				L144.65,544.34z"/>
			<path d="M141.82,536.78c0,1.57,1.27,2.83,2.83,2.83c1.57,0,2.83-1.27,2.83-2.83c0-1.57-1.27-2.83-2.83-2.83
				C143.09,533.95,141.82,535.22,141.82,536.78z"/>
			<path d="M141.82,520.18c0,1.57,1.27,2.83,2.83,2.83c1.57,0,2.83-1.27,2.83-2.83c0-1.57-1.27-2.83-2.83-2.83
				C143.09,517.35,141.82,518.62,141.82,520.18z"/>
			<path d="M150.32,523.02c1.57,0,2.83-1.27,2.83-2.83c0-1.57-1.27-2.83-2.83-2.83c-1.57,0-2.83,1.27-2.83,2.83
				C147.49,521.75,148.76,523.02,150.32,523.02z"/>
			<path d="M138.98,517.35c-1.57,0-2.83,1.27-2.83,2.83c0,1.57,1.27,2.83,2.83,2.83s2.83-1.27,2.83-2.83
				C141.82,518.62,140.55,517.35,138.98,517.35z"/>
			<path d="M147.49,514.51c0-1.57-1.27-2.83-2.83-2.83c-1.57,0-2.83,1.27-2.83,2.83c0,1.57,1.27,2.83,2.83,2.83
				C146.22,517.35,147.49,516.08,147.49,514.51z"/>
			<path d="M158.94,536.78L172.15,550l13.22-13.22l-13.22-13.22L158.94,536.78z M172.15,544.34l-7.56-7.56l7.56-7.56l7.56,7.56
				L172.15,544.34z"/>
			<path d="M169.32,536.78c0,1.57,1.27,2.83,2.83,2.83c1.57,0,2.83-1.27,2.83-2.83c0-1.57-1.27-2.83-2.83-2.83
				C170.59,533.95,169.32,535.22,169.32,536.78z"/>
			<path d="M169.32,520.18c0,1.57,1.27,2.83,2.83,2.83c1.57,0,2.83-1.27,2.83-2.83c0-1.57-1.27-2.83-2.83-2.83
				C170.59,517.35,169.32,518.62,169.32,520.18z"/>
			<path d="M177.82,523.02c1.57,0,2.83-1.27,2.83-2.83c0-1.57-1.27-2.83-2.83-2.83c-1.57,0-2.83,1.27-2.83,2.83
				C174.99,521.75,176.26,523.02,177.82,523.02z"/>
			<path d="M166.48,517.35c-1.57,0-2.83,1.27-2.83,2.83c0,1.57,1.27,2.83,2.83,2.83s2.83-1.27,2.83-2.83
				C169.32,518.62,168.05,517.35,166.48,517.35z"/>
			<path d="M174.99,514.51c0-1.57-1.27-2.83-2.83-2.83c-1.57,0-2.83,1.27-2.83,2.83c0,1.57,1.27,2.83,2.83,2.83
				C173.72,517.35,174.99,516.08,174.99,514.51z"/>
			<g>
				<path d="M199.65,523.56l-13.22,13.22L199.65,550l13.22-13.22L199.65,523.56z M192.09,536.78l7.56-7.56l7.56,7.56l-7.56,7.56
					L192.09,536.78z"/>
				<path d="M199.65,533.95c-1.57,0-2.83,1.27-2.83,2.83c0,1.57,1.27,2.83,2.83,2.83c1.57,0,2.83-1.27,2.83-2.83
					C202.49,535.22,201.22,533.95,199.65,533.95z"/>
				<path d="M199.65,523.02c1.57,0,2.83-1.27,2.83-2.83c0-1.57-1.27-2.83-2.83-2.83c-1.57,0-2.83,1.27-2.83,2.83
					C196.82,521.75,198.09,523.02,199.65,523.02z"/>
				<path d="M205.32,523.02c1.57,0,2.83-1.27,2.83-2.83c0-1.57-1.27-2.83-2.83-2.83c-1.57,0-2.83,1.27-2.83,2.83
					C202.49,521.75,203.76,523.02,205.32,523.02z"/>
				<path d="M193.98,523.02c1.57,0,2.83-1.27,2.83-2.83c0-1.57-1.27-2.83-2.83-2.83s-2.83,1.27-2.83,2.83
					C191.15,521.75,192.42,523.02,193.98,523.02z"/>
				<path d="M202.49,514.51c0-1.57-1.27-2.83-2.83-2.83c-1.57,0-2.83,1.27-2.83,2.83c0,1.57,1.27,2.83,2.83,2.83
					C201.22,517.35,202.49,516.08,202.49,514.51z"/>
			</g>
			<path d="M212.87,536.78L226.09,550l13.22-13.22l-13.22-13.22L212.87,536.78z M226.09,544.34l-7.56-7.56l7.56-7.56l7.56,7.56
				L226.09,544.34z"/>
			<path d="M223.25,536.78c0,1.57,1.27,2.83,2.83,2.83c1.57,0,2.83-1.27,2.83-2.83c0-1.57-1.27-2.83-2.83-2.83
				C224.52,533.95,223.25,535.22,223.25,536.78z"/>
			<path d="M226.09,523.02c1.57,0,2.83-1.27,2.83-2.83c0-1.57-1.27-2.83-2.83-2.83c-1.57,0-2.83,1.27-2.83,2.83
				C223.25,521.75,224.52,523.02,226.09,523.02z"/>
			<path d="M231.76,523.02c1.57,0,2.83-1.27,2.83-2.83c0-1.57-1.27-2.83-2.83-2.83c-1.57,0-2.83,1.27-2.83,2.83
				C228.92,521.75,230.19,523.02,231.76,523.02z"/>
			<path d="M220.42,523.02c1.57,0,2.83-1.27,2.83-2.83c0-1.57-1.27-2.83-2.83-2.83s-2.83,1.27-2.83,2.83
				C217.58,521.75,218.85,523.02,220.42,523.02z"/>
			<path d="M228.92,514.51c0-1.57-1.27-2.83-2.83-2.83c-1.57,0-2.83,1.27-2.83,2.83c0,1.57,1.27,2.83,2.83,2.83
				C227.65,517.35,228.92,516.08,228.92,514.51z"/>
			<path d="M240.37,536.78L253.59,550l13.22-13.22l-13.22-13.22L240.37,536.78z M253.59,544.34l-7.56-7.56l7.56-7.56l7.56,7.56
				L253.59,544.34z"/>
			<path d="M250.75,536.78c0,1.57,1.27,2.83,2.83,2.83c1.57,0,2.83-1.27,2.83-2.83c0-1.57-1.27-2.83-2.83-2.83
				C252.02,533.95,250.75,535.22,250.75,536.78z"/>
			<path d="M253.59,523.02c1.57,0,2.83-1.27,2.83-2.83c0-1.57-1.27-2.83-2.83-2.83c-1.57,0-2.83,1.27-2.83,2.83
				C250.75,521.75,252.02,523.02,253.59,523.02z"/>
			<path d="M259.26,523.02c1.57,0,2.83-1.27,2.83-2.83c0-1.57-1.27-2.83-2.83-2.83c-1.57,0-2.83,1.27-2.83,2.83
				C256.42,521.75,257.69,523.02,259.26,523.02z"/>
			<path d="M247.92,523.02c1.57,0,2.83-1.27,2.83-2.83c0-1.57-1.27-2.83-2.83-2.83s-2.83,1.27-2.83,2.83
				C245.08,521.75,246.35,523.02,247.92,523.02z"/>
			<path d="M256.42,514.51c0-1.57-1.27-2.83-2.83-2.83c-1.57,0-2.83,1.27-2.83,2.83c0,1.57,1.27,2.83,2.83,2.83
				C255.15,517.35,256.42,516.08,256.42,514.51z"/>
			<g>
				<circle cx="259.95" cy="405.75" r="2.83"/>
				<circle cx="265.62" cy="442.83" r="2.83"/>
				<circle cx="265.62" cy="405.75" r="2.83"/>
				<polygon points="281.09,455.07 274.51,448.5 281.09,441.92 281.09,436.26 268.85,448.5 281.09,460.73 				"/>
				<circle cx="265.62" cy="400.08" r="2.83"/>
				<path d="M262.79,411.42c0,1.57,1.27,2.83,2.83,2.83s2.83-1.27,2.83-2.83c0-1.57-1.27-2.83-2.83-2.83
					S262.79,409.85,262.79,411.42z"/>
				<circle cx="265.62" cy="448.5" r="2.83"/>
				<path d="M247.33,430.48c1.57,0,2.83-1.27,2.83-2.83c0-1.57-1.27-2.83-2.83-2.83c-1.57,0-2.83,1.27-2.83,2.83
					C244.5,429.21,245.76,430.48,247.33,430.48z"/>
				<circle cx="241.66" cy="421.97" r="2.83"/>
				<path d="M262.79,454.17c0,1.57,1.27,2.83,2.83,2.83s2.83-1.27,2.83-2.83c0-1.57-1.27-2.83-2.83-2.83S262.79,452.6,262.79,454.17
					z"/>
				<circle cx="241.66" cy="433.31" r="2.83"/>
				<circle cx="259.95" cy="448.5" r="2.83"/>
				<path d="M281.09,430.48v-5.67c-1.57,0-2.83,1.27-2.83,2.83C278.25,429.21,279.52,430.48,281.09,430.48z"/>
				<polygon points="281.09,412.32 274.51,405.75 281.09,399.17 281.09,393.51 268.85,405.75 281.09,417.98 				"/>
				<path d="M275.42,387.73c1.57,0,2.83-1.27,2.83-2.83c0-1.57-1.27-2.83-2.83-2.83s-2.83,1.27-2.83,2.83
					C272.58,386.46,273.85,387.73,275.42,387.73z"/>
				<path d="M278.25,448.5c0,1.57,1.27,2.83,2.83,2.83v-5.67C279.52,445.66,278.25,446.93,278.25,448.5z"/>
				<path d="M278.25,514.51c0,1.57,1.27,2.83,2.83,2.83v-5.67C279.52,511.68,278.25,512.95,278.25,514.51z"/>
				<path d="M278.25,421.97c0,1.57,1.27,2.83,2.83,2.83v-5.67C279.52,419.14,278.25,420.41,278.25,421.97z"/>
				<path d="M278.25,405.75c0,1.57,1.27,2.83,2.83,2.83v-5.67C279.52,402.91,278.25,404.18,278.25,405.75z"/>
				<path d="M281.09,436.15v-5.67c-1.57,0-2.83,1.27-2.83,2.83C278.25,434.88,279.52,436.15,281.09,436.15z"/>
				<path d="M275.42,424.81c-1.57,0-2.83,1.27-2.83,2.83c0,1.57,1.27,2.83,2.83,2.83s2.83-1.27,2.83-2.83
					C278.25,426.08,276.98,424.81,275.42,424.81z"/>
				<path d="M241.66,430.48c1.57,0,2.83-1.27,2.83-2.83c0-1.57-1.27-2.83-2.83-2.83s-2.83,1.27-2.83,2.83
					C238.83,429.21,240.1,430.48,241.66,430.48z"/>
				<path d="M281.09,382.06v-5.67c-1.57,0-2.83,1.27-2.83,2.83S279.52,382.06,281.09,382.06z"/>
				<path d="M278.25,536.78c0,1.57,1.27,2.83,2.83,2.83v-5.67C279.52,533.95,278.25,535.22,278.25,536.78z"/>
				<path d="M281.09,387.73v-5.67c-1.57,0-2.83,1.27-2.83,2.83C278.25,386.46,279.52,387.73,281.09,387.73z"/>
				<path d="M278.25,390.56c0,1.57,1.27,2.83,2.83,2.83v-5.67C279.52,387.73,278.25,389,278.25,390.56z"/>
				<path d="M275.42,517.35c-1.57,0-2.83,1.27-2.83,2.83s1.27,2.83,2.83,2.83s2.83-1.27,2.83-2.83S276.98,517.35,275.42,517.35z"/>
				<path d="M281.09,523.02v-5.67c-1.57,0-2.83,1.27-2.83,2.83C278.25,521.75,279.52,523.02,281.09,523.02z"/>
				<rect x="261.25" y="486.46" width="5.67" height="5.67"/>
				<path d="M235.99,430.48c1.57,0,2.83-1.27,2.83-2.83c0-1.57-1.27-2.83-2.83-2.83c-1.57,0-2.83,1.27-2.83,2.83
					C233.16,429.21,234.43,430.48,235.99,430.48z"/>
				<rect x="261.25" y="475.12" width="5.67" height="5.67"/>
				<rect x="266.92" y="480.79" width="5.67" height="5.67"/>
				<rect x="272.58" y="497.8" width="5.67" height="5.67"/>
				<rect x="272.58" y="475.12" width="5.67" height="5.67"/>
				<rect x="278.25" y="503.47" width="2.83" height="5.67"/>
				<rect x="266.92" y="469.45" width="5.67" height="5.67"/>
				<rect x="255.58" y="480.79" width="5.67" height="5.67"/>
				<rect x="266.92" y="492.13" width="5.67" height="5.67"/>
				<polygon points="281.09,544.34 273.53,536.78 281.09,529.22 281.09,523.57 267.87,536.78 281.09,550 				"/>
				<rect x="249.91" y="475.12" width="5.67" height="5.67"/>
				<rect x="278.25" y="492.13" width="2.83" height="5.67"/>
				<rect x="255.58" y="469.45" width="5.67" height="5.67"/>
				<rect x="272.58" y="486.46" width="5.67" height="5.67"/>
				<circle cx="226.19" cy="442.83" r="2.83"/>
				<circle cx="241.66" cy="448.5" r="2.83"/>
				<path d="M253.9,448.5l-12.23-12.24l-12.24,12.24l12.24,12.23L253.9,448.5z M241.66,441.92l6.58,6.58l-6.58,6.58l-6.58-6.58
					L241.66,441.92z"/>
				<circle cx="226.19" cy="448.5" r="2.83"/>
				<path d="M223.36,454.17c0,1.57,1.27,2.83,2.83,2.83c1.57,0,2.83-1.27,2.83-2.83c0-1.57-1.27-2.83-2.83-2.83
					C224.63,451.33,223.36,452.6,223.36,454.17z"/>
				<path d="M220.53,445.66c-1.57,0-2.83,1.27-2.83,2.83c0,1.57,1.27,2.83,2.83,2.83c1.57,0,2.83-1.27,2.83-2.83
					C223.36,446.93,222.09,445.66,220.53,445.66z"/>
				<rect x="238.57" y="463.78" width="5.67" height="5.67"/>
				<rect x="278.25" y="480.79" width="2.83" height="5.67"/>
				<rect x="261.25" y="463.78" width="5.67" height="5.67"/>
				<rect x="278.25" y="469.45" width="2.83" height="5.67"/>
				<rect x="272.58" y="463.78" width="5.67" height="5.67"/>
				<rect x="249.91" y="463.78" width="5.67" height="5.67"/>
				<rect x="244.24" y="469.45" width="5.67" height="5.67"/>
			</g>
			<g>
				<circle cx="139.35" cy="405.75" r="2.83"/>
				<circle cx="133.68" cy="442.83" r="2.83"/>
				<circle cx="133.68" cy="405.75" r="2.83"/>
				<polygon points="118.22,455.07 124.8,448.5 118.22,441.92 118.22,436.26 130.45,448.5 118.22,460.73 				"/>
				<circle cx="133.68" cy="400.08" r="2.83"/>
				<path d="M136.52,411.42c0,1.57-1.27,2.83-2.83,2.83s-2.83-1.27-2.83-2.83c0-1.57,1.27-2.83,2.83-2.83
					S136.52,409.85,136.52,411.42z"/>
				<circle cx="133.68" cy="448.5" r="2.83"/>
				<path d="M151.98,430.48c-1.57,0-2.83-1.27-2.83-2.83c0-1.57,1.27-2.83,2.83-2.83c1.57,0,2.83,1.27,2.83,2.83
					C154.81,429.21,153.54,430.48,151.98,430.48z"/>
				<circle cx="157.64" cy="421.97" r="2.83"/>
				<path d="M136.52,454.17c0,1.57-1.27,2.83-2.83,2.83s-2.83-1.27-2.83-2.83c0-1.57,1.27-2.83,2.83-2.83
					S136.52,452.6,136.52,454.17z"/>
				<circle cx="157.64" cy="433.31" r="2.83"/>
				<circle cx="139.35" cy="448.5" r="2.83"/>
				<path d="M118.22,430.48v-5.67c1.57,0,2.83,1.27,2.83,2.83C121.05,429.21,119.78,430.48,118.22,430.48z"/>
				<polygon points="118.22,412.32 124.8,405.75 118.22,399.17 118.22,393.51 130.45,405.75 118.22,417.98 				"/>
				<path d="M123.89,387.73c-1.57,0-2.83-1.27-2.83-2.83c0-1.57,1.27-2.83,2.83-2.83s2.83,1.27,2.83,2.83
					C126.72,386.46,125.45,387.73,123.89,387.73z"/>
				<path d="M121.05,448.5c0,1.57-1.27,2.83-2.83,2.83v-5.67C119.78,445.66,121.05,446.93,121.05,448.5z"/>
				<path d="M121.05,514.51c0,1.57-1.27,2.83-2.83,2.83v-5.67C119.78,511.68,121.05,512.95,121.05,514.51z"/>
				<path d="M121.05,421.97c0,1.57-1.27,2.83-2.83,2.83v-5.67C119.78,419.14,121.05,420.41,121.05,421.97z"/>
				<path d="M121.05,405.75c0,1.57-1.27,2.83-2.83,2.83v-5.67C119.78,402.91,121.05,404.18,121.05,405.75z"/>
				<path d="M118.22,436.15v-5.67c1.57,0,2.83,1.27,2.83,2.83C121.05,434.88,119.78,436.15,118.22,436.15z"/>
				<path d="M123.89,424.81c1.57,0,2.83,1.27,2.83,2.83c0,1.57-1.27,2.83-2.83,2.83s-2.83-1.27-2.83-2.83
					C121.05,426.08,122.32,424.81,123.89,424.81z"/>
				<path d="M157.64,430.48c-1.57,0-2.83-1.27-2.83-2.83c0-1.57,1.27-2.83,2.83-2.83s2.83,1.27,2.83,2.83
					C160.48,429.21,159.21,430.48,157.64,430.48z"/>
				<path d="M118.22,382.06v-5.67c1.57,0,2.83,1.27,2.83,2.83S119.78,382.06,118.22,382.06z"/>
				<path d="M121.05,536.78c0,1.57-1.27,2.83-2.83,2.83v-5.67C119.78,533.95,121.05,535.22,121.05,536.78z"/>
				<path d="M118.22,387.73v-5.67c1.57,0,2.83,1.27,2.83,2.83C121.05,386.46,119.78,387.73,118.22,387.73z"/>
				<path d="M121.05,390.56c0,1.57-1.27,2.83-2.83,2.83v-5.67C119.78,387.73,121.05,389,121.05,390.56z"/>
				<path d="M123.89,517.35c1.57,0,2.83,1.27,2.83,2.83c0,1.57-1.27,2.83-2.83,2.83s-2.83-1.27-2.83-2.83
					C121.05,518.62,122.32,517.35,123.89,517.35z"/>
				<path d="M118.22,523.02v-5.67c1.57,0,2.83,1.27,2.83,2.83C121.05,521.75,119.78,523.02,118.22,523.02z"/>
				<rect x="132.39" y="486.46" width="5.67" height="5.67"/>
				<path d="M163.31,430.48c-1.57,0-2.83-1.27-2.83-2.83c0-1.57,1.27-2.83,2.83-2.83c1.57,0,2.83,1.27,2.83,2.83
					C166.15,429.21,164.88,430.48,163.31,430.48z"/>
				<rect x="132.39" y="475.12" width="5.67" height="5.67"/>
				<rect x="126.72" y="480.79" width="5.67" height="5.67"/>
				<rect x="121.05" y="497.8" width="5.67" height="5.67"/>
				<rect x="121.05" y="475.12" width="5.67" height="5.67"/>
				<rect x="118.22" y="503.47" width="2.83" height="5.67"/>
				<rect x="126.72" y="469.45" width="5.67" height="5.67"/>
				<rect x="138.06" y="480.79" width="5.67" height="5.67"/>
				<rect x="126.72" y="492.13" width="5.67" height="5.67"/>
				<polygon points="118.22,544.34 125.78,536.78 118.22,529.22 118.22,523.56 131.44,536.78 118.22,550 				"/>
				<rect x="143.73" y="475.12" width="5.67" height="5.67"/>
				<rect x="118.22" y="492.13" width="2.83" height="5.67"/>
				<rect x="138.06" y="469.45" width="5.67" height="5.67"/>
				<rect x="121.05" y="486.46" width="5.67" height="5.67"/>
				<circle cx="173.11" cy="442.83" r="2.83"/>
				<circle cx="157.64" cy="448.5" r="2.83"/>
				<path d="M157.64,460.73l12.24-12.23l-12.24-12.24l-12.23,12.24L157.64,460.73z M164.22,448.5l-6.58,6.58l-6.58-6.58l6.58-6.58
					L164.22,448.5z"/>
				<circle cx="173.11" cy="448.5" r="2.83"/>
				<path d="M175.95,454.17c0,1.57-1.27,2.83-2.83,2.83c-1.57,0-2.83-1.27-2.83-2.83c0-1.57,1.27-2.83,2.83-2.83
					C174.68,451.33,175.95,452.6,175.95,454.17z"/>
				<path d="M178.78,445.66c1.57,0,2.83,1.27,2.83,2.83c0,1.57-1.27,2.83-2.83,2.83c-1.57,0-2.83-1.27-2.83-2.83
					C175.95,446.93,177.22,445.66,178.78,445.66z"/>
				<rect x="155.07" y="463.78" width="5.67" height="5.67"/>
				<rect x="118.22" y="480.79" width="2.83" height="5.67"/>
				<rect x="132.39" y="463.78" width="5.67" height="5.67"/>
				<rect x="118.22" y="469.45" width="2.83" height="5.67"/>
				<rect x="121.05" y="463.78" width="5.67" height="5.67"/>
				<rect x="143.73" y="463.78" width="5.67" height="5.67"/>
				<rect x="149.4" y="469.45" width="5.67" height="5.67"/>
			</g>
		</g>
		<g>
			<path d="M294.31,536.78L307.52,550l13.22-13.22l-13.22-13.22L294.31,536.78z M307.52,544.34l-7.56-7.56l7.56-7.56l7.56,7.56
				L307.52,544.34z"/>
			<path d="M304.69,536.78c0,1.57,1.27,2.83,2.83,2.83c1.57,0,2.83-1.27,2.83-2.83c0-1.57-1.27-2.83-2.83-2.83
				C305.96,533.95,304.69,535.22,304.69,536.78z"/>
			<path d="M304.69,520.18c0,1.57,1.27,2.83,2.83,2.83c1.57,0,2.83-1.27,2.83-2.83c0-1.57-1.27-2.83-2.83-2.83
				C305.96,517.35,304.69,518.62,304.69,520.18z"/>
			<path d="M313.19,523.02c1.57,0,2.83-1.27,2.83-2.83c0-1.57-1.27-2.83-2.83-2.83c-1.57,0-2.83,1.27-2.83,2.83
				C310.36,521.75,311.63,523.02,313.19,523.02z"/>
			<path d="M301.85,517.35c-1.57,0-2.83,1.27-2.83,2.83c0,1.57,1.27,2.83,2.83,2.83s2.83-1.27,2.83-2.83
				C304.69,518.62,303.42,517.35,301.85,517.35z"/>
			<path d="M310.36,514.51c0-1.57-1.27-2.83-2.83-2.83c-1.57,0-2.83,1.27-2.83,2.83c0,1.57,1.27,2.83,2.83,2.83
				C309.09,517.35,310.36,516.08,310.36,514.51z"/>
			<path d="M321.81,536.78L335.02,550l13.22-13.22l-13.22-13.22L321.81,536.78z M335.02,544.34l-7.56-7.56l7.56-7.56l7.56,7.56
				L335.02,544.34z"/>
			<path d="M332.19,536.78c0,1.57,1.27,2.83,2.83,2.83c1.57,0,2.83-1.27,2.83-2.83c0-1.57-1.27-2.83-2.83-2.83
				C333.46,533.95,332.19,535.22,332.19,536.78z"/>
			<path d="M332.19,520.18c0,1.57,1.27,2.83,2.83,2.83c1.57,0,2.83-1.27,2.83-2.83c0-1.57-1.27-2.83-2.83-2.83
				C333.46,517.35,332.19,518.62,332.19,520.18z"/>
			<path d="M340.69,523.02c1.57,0,2.83-1.27,2.83-2.83c0-1.57-1.27-2.83-2.83-2.83c-1.57,0-2.83,1.27-2.83,2.83
				C337.86,521.75,339.13,523.02,340.69,523.02z"/>
			<path d="M329.35,517.35c-1.57,0-2.83,1.27-2.83,2.83c0,1.57,1.27,2.83,2.83,2.83s2.83-1.27,2.83-2.83
				C332.19,518.62,330.92,517.35,329.35,517.35z"/>
			<path d="M337.86,514.51c0-1.57-1.27-2.83-2.83-2.83c-1.57,0-2.83,1.27-2.83,2.83c0,1.57,1.27,2.83,2.83,2.83
				C336.59,517.35,337.86,516.08,337.86,514.51z"/>
			<g>
				<circle cx="302.22" cy="405.75" r="2.83"/>
				<circle cx="296.55" cy="442.83" r="2.83"/>
				<circle cx="296.55" cy="405.75" r="2.83"/>
				<polygon points="281.09,455.07 287.67,448.5 281.09,441.92 281.09,436.26 293.32,448.5 281.09,460.73 				"/>
				<circle cx="296.55" cy="400.08" r="2.83"/>
				<path d="M299.39,411.42c0,1.57-1.27,2.83-2.83,2.83s-2.83-1.27-2.83-2.83c0-1.57,1.27-2.83,2.83-2.83
					S299.39,409.85,299.39,411.42z"/>
				<circle cx="296.55" cy="448.5" r="2.83"/>
				<path d="M314.85,430.48c-1.57,0-2.83-1.27-2.83-2.83c0-1.57,1.27-2.83,2.83-2.83c1.57,0,2.83,1.27,2.83,2.83
					C317.68,429.21,316.41,430.48,314.85,430.48z"/>
				<circle cx="320.52" cy="421.97" r="2.83"/>
				<path d="M299.39,454.17c0,1.57-1.27,2.83-2.83,2.83s-2.83-1.27-2.83-2.83c0-1.57,1.27-2.83,2.83-2.83
					S299.39,452.6,299.39,454.17z"/>
				<circle cx="320.52" cy="433.31" r="2.83"/>
				<circle cx="302.22" cy="448.5" r="2.83"/>
				<path d="M281.09,430.48v-5.67c1.57,0,2.83,1.27,2.83,2.83C283.92,429.21,282.65,430.48,281.09,430.48z"/>
				<polygon points="281.09,412.32 287.67,405.75 281.09,399.17 281.09,393.51 293.32,405.75 281.09,417.98 				"/>
				<path d="M286.76,387.73c-1.57,0-2.83-1.27-2.83-2.83c0-1.57,1.27-2.83,2.83-2.83s2.83,1.27,2.83,2.83
					C289.59,386.46,288.32,387.73,286.76,387.73z"/>
				<path d="M283.92,448.5c0,1.57-1.27,2.83-2.83,2.83v-5.67C282.65,445.66,283.92,446.93,283.92,448.5z"/>
				<path d="M283.92,514.51c0,1.57-1.27,2.83-2.83,2.83v-5.67C282.65,511.68,283.92,512.95,283.92,514.51z"/>
				<path d="M283.92,421.97c0,1.57-1.27,2.83-2.83,2.83v-5.67C282.65,419.14,283.92,420.41,283.92,421.97z"/>
				<path d="M283.92,405.75c0,1.57-1.27,2.83-2.83,2.83v-5.67C282.65,402.91,283.92,404.18,283.92,405.75z"/>
				<path d="M281.09,436.15v-5.67c1.57,0,2.83,1.27,2.83,2.83C283.92,434.88,282.65,436.15,281.09,436.15z"/>
				<path d="M286.76,424.81c1.57,0,2.83,1.27,2.83,2.83c0,1.57-1.27,2.83-2.83,2.83s-2.83-1.27-2.83-2.83
					C283.92,426.08,285.19,424.81,286.76,424.81z"/>
				<path d="M320.52,430.48c-1.57,0-2.83-1.27-2.83-2.83c0-1.57,1.27-2.83,2.83-2.83s2.83,1.27,2.83,2.83
					C323.35,429.21,322.08,430.48,320.52,430.48z"/>
				<path d="M281.09,382.06v-5.67c1.57,0,2.83,1.27,2.83,2.83S282.65,382.06,281.09,382.06z"/>
				<path d="M283.92,536.78c0,1.57-1.27,2.83-2.83,2.83v-5.67C282.65,533.95,283.92,535.22,283.92,536.78z"/>
				<path d="M281.09,387.73v-5.67c1.57,0,2.83,1.27,2.83,2.83C283.92,386.46,282.65,387.73,281.09,387.73z"/>
				<path d="M283.92,390.56c0,1.57-1.27,2.83-2.83,2.83v-5.67C282.65,387.73,283.92,389,283.92,390.56z"/>
				<path d="M286.76,517.35c1.57,0,2.83,1.27,2.83,2.83c0,1.57-1.27,2.83-2.83,2.83s-2.83-1.27-2.83-2.83
					C283.92,518.62,285.19,517.35,286.76,517.35z"/>
				<path d="M281.09,523.02v-5.67c1.57,0,2.83,1.27,2.83,2.83C283.92,521.75,282.65,523.02,281.09,523.02z"/>
				<rect x="295.26" y="486.46" width="5.67" height="5.67"/>
				<path d="M326.18,430.48c-1.57,0-2.83-1.27-2.83-2.83c0-1.57,1.27-2.83,2.83-2.83c1.57,0,2.83,1.27,2.83,2.83
					C329.02,429.21,327.75,430.48,326.18,430.48z"/>
				<rect x="295.26" y="475.12" width="5.67" height="5.67"/>
				<rect x="289.59" y="480.79" width="5.67" height="5.67"/>
				<rect x="283.92" y="497.8" width="5.67" height="5.67"/>
				<rect x="283.92" y="475.12" width="5.67" height="5.67"/>
				<rect x="281.09" y="503.47" width="2.83" height="5.67"/>
				<rect x="289.59" y="469.45" width="5.67" height="5.67"/>
				<rect x="300.93" y="480.79" width="5.67" height="5.67"/>
				<rect x="289.59" y="492.13" width="5.67" height="5.67"/>
				<polygon points="281.09,544.34 288.65,536.78 281.09,529.22 281.09,523.56 294.31,536.78 281.09,550 				"/>
				<rect x="306.6" y="475.12" width="5.67" height="5.67"/>
				<rect x="281.09" y="492.13" width="2.83" height="5.67"/>
				<rect x="300.93" y="469.45" width="5.67" height="5.67"/>
				<rect x="283.92" y="486.46" width="5.67" height="5.67"/>
				<circle cx="335.98" cy="442.83" r="2.83"/>
				<circle cx="320.52" cy="448.5" r="2.83"/>
				<path d="M320.51,460.73l12.24-12.23l-12.24-12.24l-12.23,12.24L320.51,460.73z M327.09,448.5l-6.58,6.58l-6.58-6.58l6.58-6.58
					L327.09,448.5z"/>
				<circle cx="335.98" cy="448.5" r="2.83"/>
				<path d="M338.82,454.17c0,1.57-1.27,2.83-2.83,2.83c-1.57,0-2.83-1.27-2.83-2.83c0-1.57,1.27-2.83,2.83-2.83
					C337.55,451.33,338.82,452.6,338.82,454.17z"/>
				<path d="M341.65,445.66c1.57,0,2.83,1.27,2.83,2.83c0,1.57-1.27,2.83-2.83,2.83c-1.57,0-2.83-1.27-2.83-2.83
					C338.82,446.93,340.09,445.66,341.65,445.66z"/>
				<rect x="317.94" y="463.78" width="5.67" height="5.67"/>
				<rect x="281.09" y="480.79" width="2.83" height="5.67"/>
				<rect x="295.26" y="463.78" width="5.67" height="5.67"/>
				<rect x="281.09" y="469.45" width="2.83" height="5.67"/>
				<rect x="283.92" y="463.78" width="5.67" height="5.67"/>
				<rect x="306.6" y="463.78" width="5.67" height="5.67"/>
				<rect x="312.27" y="469.45" width="5.67" height="5.67"/>
			</g>
		</g>
	</g>
</g>
<g>
</g>
<g>
</g>
<g>
</g>
<g>
</g>
<g>
</g>
<g>
</g>
<g>
</g>
<g>
</g>
<g>
</g>
<g>
</g>
<g>
</g>
<g>
</g>
<g>
</g>
<g>
</g>
<g>
</g>
</svg>
