<?xml version="1.0" encoding="utf-8"?>
<!-- Generator: Adobe Illustrator 27.2.0, SVG Export Plug-In . SVG Version: 6.00 Build 0)  -->
<svg version="1.1" id="Layer_1" xmlns="http://www.w3.org/2000/svg" xmlns:xlink="http://www.w3.org/1999/xlink" x="0px" y="0px"
	 viewBox="0 0 800 600" style="enable-background:new 0 0 800 600;" xml:space="preserve">
<g>
	<g>
		<rect x="75.08" y="545.21" width="2.83" height="4.79"/>
		<polygon points="77.92,537.59 75.08,537.59 75.08,542.38 70.3,542.38 70.3,545.21 75.08,545.21 75.08,545.21 77.92,545.21 
			77.92,545.21 82.7,545.21 82.7,542.38 77.92,542.38 		"/>
		<rect x="50" y="510.53" width="1.42" height="4.79"/>
		<rect x="50" y="545.21" width="1.42" height="4.79"/>
		<polygon points="56.2,523.89 51.42,523.89 51.42,519.1 50,519.1 50,526.73 51.42,526.73 51.42,526.73 56.2,526.73 		"/>
		<polygon points="56.2,507.69 51.42,507.69 51.42,502.91 50,502.91 50,510.53 51.42,510.53 51.42,510.53 56.2,510.53 		"/>
		<polygon points="60.66,528.35 57.83,528.35 57.83,533.13 51.42,533.13 51.42,526.73 50,526.73 50,545.21 51.42,545.21 
			51.42,545.21 56.2,545.21 56.2,542.38 51.42,542.38 51.42,535.97 57.83,535.97 57.83,540.76 60.66,540.76 60.66,535.97 
			65.45,535.97 65.45,533.13 60.66,533.13 		"/>
		<polygon points="74.61,523.89 69.82,523.89 69.82,519.1 66.99,519.1 66.99,523.89 62.2,523.89 62.2,526.73 66.99,526.73 
			66.99,531.51 69.82,531.51 69.82,526.73 74.61,526.73 		"/>
		<polygon points="66.99,510.53 69.82,510.53 69.82,510.53 74.61,510.53 74.61,507.69 69.82,507.69 69.82,502.91 66.99,502.91 
			66.99,507.69 62.2,507.69 62.2,510.53 66.99,510.53 		"/>
		<rect x="66.99" y="510.53" width="2.83" height="4.79"/>
		<polygon points="103,526.73 103,526.73 104.42,526.73 104.42,526.73 109.2,526.73 109.2,523.89 104.42,523.89 104.42,519.1 
			103,519.1 103,519.1 101.58,519.1 101.58,523.89 96.8,523.89 96.8,526.73 101.58,526.73 101.58,526.73 		"/>
		<polygon points="101.58,510.53 103,510.53 103,510.53 104.42,510.53 104.42,510.53 109.2,510.53 109.2,507.69 104.42,507.69 
			104.42,502.91 103,502.91 103,502.91 101.58,502.91 101.58,507.69 96.8,507.69 96.8,510.53 101.58,510.53 		"/>
		<polygon points="90.8,523.89 86.01,523.89 86.01,519.1 83.18,519.1 83.18,523.89 78.39,523.89 78.39,526.73 83.18,526.73 
			83.18,531.51 86.01,531.51 86.01,526.73 90.8,526.73 		"/>
		<polygon points="83.18,510.53 86.01,510.53 86.01,510.53 90.8,510.53 90.8,507.69 86.01,507.69 86.01,502.91 83.18,502.91 
			83.18,507.69 78.39,507.69 78.39,510.53 83.18,510.53 		"/>
		<rect x="83.18" y="510.53" width="2.83" height="4.79"/>
		<rect x="128.08" y="545.21" width="2.83" height="4.79"/>
		<polygon points="130.92,537.59 128.08,537.59 128.08,542.38 123.29,542.38 123.29,545.21 128.08,545.21 128.08,545.21 
			130.92,545.21 130.92,545.21 135.7,545.21 135.7,542.38 130.92,542.38 		"/>
		<polygon points="103,510.53 101.58,510.53 101.58,515.32 103,515.32 103,515.32 104.42,515.32 104.42,510.53 103,510.53 		"/>
		<polygon points="103,545.21 101.58,545.21 101.58,550 103,550 103,550 104.42,550 104.42,545.21 103,545.21 		"/>
		<polygon points="113.66,528.35 110.83,528.35 110.83,533.13 104.42,533.13 104.42,526.73 103,526.73 103,526.73 101.58,526.73 
			101.58,533.13 95.17,533.13 95.17,528.35 92.34,528.35 92.34,533.13 87.55,533.13 87.55,535.97 92.34,535.97 92.34,540.76 
			95.17,540.76 95.17,535.97 101.58,535.97 101.58,542.38 96.8,542.38 96.8,545.21 101.58,545.21 101.58,545.21 103,545.21 
			103,545.21 104.42,545.21 104.42,545.21 109.2,545.21 109.2,542.38 104.42,542.38 104.42,535.97 110.83,535.97 110.83,540.76 
			113.66,540.76 113.66,535.97 118.45,535.97 118.45,533.13 113.66,533.13 		"/>
		<polygon points="127.61,523.89 122.82,523.89 122.82,519.1 119.99,519.1 119.99,523.89 115.2,523.89 115.2,526.73 119.99,526.73 
			119.99,531.51 122.82,531.51 122.82,526.73 127.61,526.73 		"/>
		<polygon points="119.99,510.53 122.82,510.53 122.82,510.53 127.61,510.53 127.61,507.69 122.82,507.69 122.82,502.91 
			119.99,502.91 119.99,507.69 115.2,507.69 115.2,510.53 119.99,510.53 		"/>
		<rect x="119.99" y="510.53" width="2.83" height="4.79"/>
		<polygon points="156,526.73 156,526.73 157.42,526.73 157.42,526.73 162.2,526.73 162.2,523.89 157.42,523.89 157.42,519.1 
			156,519.1 156,519.1 154.58,519.1 154.58,523.89 149.79,523.89 149.79,526.73 154.58,526.73 154.58,526.73 		"/>
		<polygon points="154.58,510.53 156,510.53 156,510.53 157.42,510.53 157.42,510.53 162.2,510.53 162.2,507.69 157.42,507.69 
			157.42,502.91 156,502.91 156,502.91 154.58,502.91 154.58,507.69 149.79,507.69 149.79,510.53 154.58,510.53 		"/>
		<polygon points="143.8,523.89 139.01,523.89 139.01,519.1 136.18,519.1 136.18,523.89 131.39,523.89 131.39,526.73 136.18,526.73 
			136.18,531.51 139.01,531.51 139.01,526.73 143.8,526.73 		"/>
		<polygon points="136.18,510.53 139.01,510.53 139.01,510.53 143.8,510.53 143.8,507.69 139.01,507.69 139.01,502.91 
			136.18,502.91 136.18,507.69 131.39,507.69 131.39,510.53 136.18,510.53 		"/>
		<rect x="136.18" y="510.53" width="2.83" height="4.79"/>
		<rect x="181.08" y="545.21" width="2.83" height="4.79"/>
		<polygon points="183.92,537.59 181.08,537.59 181.08,542.38 176.29,542.38 176.29,545.21 181.08,545.21 181.08,545.21 
			183.92,545.21 183.92,545.21 188.7,545.21 188.7,542.38 183.92,542.38 		"/>
		<polygon points="156,510.53 154.58,510.53 154.58,515.32 156,515.32 156,515.32 157.42,515.32 157.42,510.53 156,510.53 		"/>
		<polygon points="156,545.21 154.58,545.21 154.58,550 156,550 156,550 157.42,550 157.42,545.21 156,545.21 		"/>
		<polygon points="166.66,528.35 163.83,528.35 163.83,533.13 157.42,533.13 157.42,526.73 156,526.73 156,526.73 154.58,526.73 
			154.58,533.13 148.17,533.13 148.17,528.35 145.34,528.35 145.34,533.13 140.55,533.13 140.55,535.97 145.34,535.97 
			145.34,540.76 148.17,540.76 148.17,535.97 154.58,535.97 154.58,542.38 149.79,542.38 149.79,545.21 154.58,545.21 
			154.58,545.21 156,545.21 156,545.21 157.42,545.21 157.42,545.21 162.2,545.21 162.2,542.38 157.42,542.38 157.42,535.97 
			163.83,535.97 163.83,540.76 166.66,540.76 166.66,535.97 171.45,535.97 171.45,533.13 166.66,533.13 		"/>
		<polygon points="180.61,523.89 175.82,523.89 175.82,519.1 172.99,519.1 172.99,523.89 168.2,523.89 168.2,526.73 172.99,526.73 
			172.99,531.51 175.82,531.51 175.82,526.73 180.61,526.73 		"/>
		<polygon points="172.99,510.53 175.82,510.53 175.82,510.53 180.61,510.53 180.61,507.69 175.82,507.69 175.82,502.91 
			172.99,502.91 172.99,507.69 168.2,507.69 168.2,510.53 172.99,510.53 		"/>
		<rect x="172.99" y="510.53" width="2.83" height="4.79"/>
		<polygon points="209,526.73 209,526.73 210.42,526.73 210.42,526.73 215.2,526.73 215.2,523.89 210.42,523.89 210.42,519.1 
			209,519.1 209,519.1 207.58,519.1 207.58,523.89 202.79,523.89 202.79,526.73 207.58,526.73 207.58,526.73 		"/>
		<polygon points="207.58,510.53 209,510.53 209,510.53 210.42,510.53 210.42,510.53 215.2,510.53 215.2,507.69 210.42,507.69 
			210.42,502.91 209,502.91 209,502.91 207.58,502.91 207.58,507.69 202.79,507.69 202.79,510.53 207.58,510.53 		"/>
		<polygon points="196.8,523.89 192.01,523.89 192.01,519.1 189.18,519.1 189.18,523.89 184.39,523.89 184.39,526.73 189.18,526.73 
			189.18,531.51 192.01,531.51 192.01,526.73 196.8,526.73 		"/>
		<polygon points="189.18,510.53 192.01,510.53 192.01,510.53 196.8,510.53 196.8,507.69 192.01,507.69 192.01,502.91 
			189.18,502.91 189.18,507.69 184.39,507.69 184.39,510.53 189.18,510.53 		"/>
		<rect x="189.18" y="510.53" width="2.83" height="4.79"/>
		<rect x="234.08" y="545.21" width="2.83" height="4.79"/>
		<polygon points="236.92,537.59 234.08,537.59 234.08,542.38 229.29,542.38 229.29,545.21 234.08,545.21 234.08,545.21 
			236.92,545.21 236.92,545.21 241.7,545.21 241.7,542.38 236.92,542.38 		"/>
		<polygon points="209,510.53 207.58,510.53 207.58,515.32 209,515.32 209,515.32 210.42,515.32 210.42,510.53 209,510.53 		"/>
		<polygon points="209,545.21 207.58,545.21 207.58,550 209,550 209,550 210.42,550 210.42,545.21 209,545.21 		"/>
		<polygon points="219.66,528.35 216.82,528.35 216.82,533.13 210.42,533.13 210.42,526.73 209,526.73 209,526.73 207.58,526.73 
			207.58,533.13 201.17,533.13 201.17,528.35 198.34,528.35 198.34,533.13 193.55,533.13 193.55,535.97 198.34,535.97 
			198.34,540.76 201.17,540.76 201.17,535.97 207.58,535.97 207.58,542.38 202.79,542.38 202.79,545.21 207.58,545.21 
			207.58,545.21 209,545.21 209,545.21 210.42,545.21 210.42,545.21 215.2,545.21 215.2,542.38 210.42,542.38 210.42,535.97 
			216.82,535.97 216.82,540.76 219.66,540.76 219.66,535.97 224.45,535.97 224.45,533.13 219.66,533.13 		"/>
		<polygon points="233.61,523.89 228.82,523.89 228.82,519.1 225.98,519.1 225.98,523.89 221.2,523.89 221.2,526.73 225.98,526.73 
			225.98,531.51 228.82,531.51 228.82,526.73 233.61,526.73 		"/>
		<polygon points="225.98,510.53 228.82,510.53 228.82,510.53 233.61,510.53 233.61,507.69 228.82,507.69 228.82,502.91 
			225.98,502.91 225.98,507.69 221.2,507.69 221.2,510.53 225.98,510.53 		"/>
		<rect x="225.98" y="510.53" width="2.83" height="4.79"/>
		<rect x="260.58" y="510.53" width="1.42" height="4.79"/>
		<rect x="260.58" y="545.21" width="1.42" height="4.79"/>
		<polygon points="260.58,523.89 255.79,523.89 255.79,526.73 260.58,526.73 260.58,526.73 262,526.73 262,519.1 260.58,519.1 		"/>
		<polygon points="262,510.53 262,502.91 260.58,502.91 260.58,507.69 255.79,507.69 255.79,510.53 260.58,510.53 260.58,510.53 		
			"/>
		<polygon points="254.17,533.13 254.17,528.35 251.34,528.35 251.34,533.13 246.55,533.13 246.55,535.97 251.34,535.97 
			251.34,540.76 254.17,540.76 254.17,535.97 260.58,535.97 260.58,542.38 255.79,542.38 255.79,545.21 260.58,545.21 
			260.58,545.21 262,545.21 262,526.73 260.58,526.73 260.58,533.13 		"/>
		<polygon points="249.8,523.89 245.01,523.89 245.01,519.1 242.18,519.1 242.18,523.89 237.39,523.89 237.39,526.73 242.18,526.73 
			242.18,531.51 245.01,531.51 245.01,526.73 249.8,526.73 		"/>
		<polygon points="242.18,510.53 245.01,510.53 245.01,510.53 249.8,510.53 249.8,507.69 245.01,507.69 245.01,502.91 
			242.18,502.91 242.18,507.69 237.39,507.69 237.39,510.53 242.18,510.53 		"/>
		<rect x="242.18" y="510.53" width="2.83" height="4.79"/>
	</g>
	<g>
		<polygon points="162.2,381.93 162.2,381.93 163.62,381.93 163.62,381.93 168.41,381.93 168.41,379.1 163.62,379.1 163.62,374.31 
			162.2,374.31 162.2,374.31 160.79,374.31 160.79,379.1 156,379.1 156,381.93 160.79,381.93 160.79,381.93 		"/>
		<polygon points="160.79,365.74 162.2,365.74 162.2,365.74 163.62,365.74 163.62,365.74 168.41,365.74 168.41,362.9 163.62,362.9 
			163.62,358.11 162.2,358.11 162.2,358.11 160.79,358.11 160.79,362.9 156,362.9 156,365.74 160.79,365.74 		"/>
		<polygon points="146.76,391.18 151.54,391.18 151.54,395.96 154.38,395.96 154.38,391.18 160.79,391.18 160.79,397.59 156,397.59 
			156,400.42 160.79,400.42 160.79,400.42 162.2,400.42 162.2,400.42 163.62,400.42 163.62,400.42 168.41,400.42 168.41,397.59 
			163.62,397.59 163.62,391.18 170.03,391.18 170.03,395.96 172.86,395.96 172.86,391.18 177.65,391.18 177.65,388.34 
			172.86,388.34 172.86,383.55 170.03,383.55 170.03,388.34 163.62,388.34 163.62,381.93 162.2,381.93 162.2,381.93 160.79,381.93 
			160.79,388.34 154.38,388.34 154.38,383.55 151.54,383.55 151.54,388.34 146.76,388.34 		"/>
		<polygon points="142.38,386.72 145.22,386.72 145.22,381.93 150,381.93 150,379.1 145.22,379.1 145.22,374.31 142.38,374.31 
			142.38,379.1 137.59,379.1 137.59,381.93 142.38,381.93 		"/>
		<polygon points="142.38,365.74 145.22,365.74 145.22,365.74 150,365.74 150,362.9 145.22,362.9 145.22,358.11 142.38,358.11 
			142.38,362.9 137.59,362.9 137.59,365.74 142.38,365.74 		"/>
		<rect x="142.38" y="365.74" width="2.83" height="4.79"/>
		<polygon points="162.2,365.74 160.79,365.74 160.79,370.52 162.2,370.52 162.2,370.52 163.62,370.52 163.62,365.74 162.2,365.74 
					"/>
		<polygon points="162.2,400.42 160.79,400.42 160.79,405.21 162.2,405.21 162.2,405.21 163.62,405.21 163.62,400.42 162.2,400.42 
					"/>
		<polygon points="179.19,386.72 182.02,386.72 182.02,381.93 186.81,381.93 186.81,379.1 182.02,379.1 182.02,374.31 
			179.19,374.31 179.19,379.1 174.4,379.1 174.4,381.93 179.19,381.93 		"/>
		<polygon points="179.19,365.74 182.02,365.74 182.02,365.74 186.81,365.74 186.81,362.9 182.02,362.9 182.02,358.11 
			179.19,358.11 179.19,362.9 174.4,362.9 174.4,365.74 179.19,365.74 		"/>
		<rect x="179.19" y="365.74" width="2.83" height="4.79"/>
		<polygon points="118.83,428.68 121.66,428.68 121.66,423.89 121.66,423.89 121.66,422.48 121.66,422.48 121.66,421.06 
			121.66,421.06 121.66,416.27 118.83,416.27 118.83,421.06 114.04,421.06 114.04,422.48 114.04,422.48 114.04,423.89 
			118.83,423.89 		"/>
		<polygon points="105.46,422.48 105.46,422.48 105.46,421.06 105.46,421.06 105.46,416.27 102.63,416.27 102.63,421.06 
			97.84,421.06 97.84,422.48 97.84,422.48 97.84,423.89 102.63,423.89 102.63,428.68 105.46,428.68 105.46,423.89 105.46,423.89 		
			"/>
		<polygon points="121.66,434.67 118.83,434.67 118.83,439.46 114.04,439.46 114.04,442.3 118.83,442.3 118.83,447.08 
			121.66,447.08 121.66,442.3 126.45,442.3 126.45,439.46 121.66,439.46 		"/>
		<polygon points="105.46,439.46 105.46,439.46 105.46,434.67 102.63,434.67 102.63,439.46 97.84,439.46 97.84,442.3 102.63,442.3 
			102.63,447.08 105.46,447.08 105.46,442.3 105.46,442.3 		"/>
		<rect x="105.46" y="439.46" width="4.79" height="2.83"/>
		<polygon points="105.46,422.48 105.46,422.48 105.46,423.89 110.25,423.89 110.25,422.48 110.25,422.48 110.25,421.06 
			105.46,421.06 		"/>
		<polygon points="140.15,422.48 140.15,423.89 144.93,423.89 144.93,422.48 144.93,422.48 144.93,421.06 140.15,421.06 
			140.15,422.48 		"/>
		<polygon points="121.66,422.48 121.66,423.89 128.07,423.89 128.07,430.3 123.28,430.3 123.28,433.14 128.07,433.14 
			128.07,437.92 130.9,437.92 130.9,433.14 135.69,433.14 135.69,430.3 130.9,430.3 130.9,423.89 137.31,423.89 137.31,428.68 
			140.15,428.68 140.15,423.89 140.15,423.89 140.15,422.48 140.15,422.48 140.15,421.06 140.15,421.06 140.15,416.27 
			137.31,416.27 137.31,421.06 130.9,421.06 130.9,414.65 135.69,414.65 135.69,411.81 130.9,411.81 130.9,407.03 128.07,407.03 
			128.07,411.81 123.28,411.81 123.28,414.65 128.07,414.65 128.07,421.06 121.66,421.06 121.66,422.48 		"/>
		<polygon points="118.83,410.28 121.66,410.28 121.66,405.49 126.45,405.49 126.45,402.65 121.66,402.65 121.66,397.87 
			118.83,397.87 118.83,402.65 114.04,402.65 114.04,405.49 118.83,405.49 		"/>
		<polygon points="105.46,402.65 105.46,402.65 105.46,397.87 102.63,397.87 102.63,402.65 97.84,402.65 97.84,405.49 
			102.63,405.49 102.63,410.28 105.46,410.28 105.46,405.49 105.46,405.49 		"/>
		<rect x="105.46" y="402.65" width="4.79" height="2.83"/>
		<polygon points="162.2,463.02 162.2,463.02 160.79,463.02 160.79,463.02 156,463.02 156,465.85 160.79,465.85 160.79,470.64 
			162.2,470.64 162.2,470.64 163.62,470.64 163.62,465.85 168.41,465.85 168.41,463.02 163.62,463.02 163.62,463.02 		"/>
		<polygon points="163.62,479.22 162.2,479.22 162.2,479.22 160.79,479.22 160.79,479.22 156,479.22 156,482.05 160.79,482.05 
			160.79,486.84 162.2,486.84 162.2,486.84 163.62,486.84 163.62,482.05 168.41,482.05 168.41,479.22 163.62,479.22 		"/>
		<polygon points="177.65,453.78 172.86,453.78 172.86,448.99 170.03,448.99 170.03,453.78 163.62,453.78 163.62,447.37 
			168.41,447.37 168.41,444.53 163.62,444.53 163.62,444.53 162.2,444.53 162.2,444.53 160.79,444.53 160.79,444.53 156,444.53 
			156,447.37 160.79,447.37 160.79,453.78 154.38,453.78 154.38,448.99 151.54,448.99 151.54,453.78 146.76,453.78 146.76,456.61 
			151.54,456.61 151.54,461.4 154.38,461.4 154.38,456.61 160.79,456.61 160.79,463.02 162.2,463.02 162.2,463.02 163.62,463.02 
			163.62,456.61 170.03,456.61 170.03,461.4 172.86,461.4 172.86,456.61 177.65,456.61 		"/>
		<polygon points="182.02,458.23 179.19,458.23 179.19,463.02 174.4,463.02 174.4,465.85 179.19,465.85 179.19,470.64 
			182.02,470.64 182.02,465.85 186.81,465.85 186.81,463.02 182.02,463.02 		"/>
		<polygon points="182.02,479.22 179.19,479.22 179.19,479.22 174.4,479.22 174.4,482.05 179.19,482.05 179.19,486.84 
			182.02,486.84 182.02,482.05 186.81,482.05 186.81,479.22 182.02,479.22 		"/>
		<rect x="179.19" y="474.43" width="2.83" height="4.79"/>
		<polygon points="162.2,479.22 163.62,479.22 163.62,474.43 162.2,474.43 162.2,474.43 160.79,474.43 160.79,479.22 162.2,479.22 
					"/>
		<polygon points="162.2,444.53 163.62,444.53 163.62,439.74 162.2,439.74 162.2,439.74 160.79,439.74 160.79,444.53 162.2,444.53 
					"/>
		<polygon points="145.22,458.23 142.38,458.23 142.38,463.02 137.59,463.02 137.59,465.85 142.38,465.85 142.38,470.64 
			145.22,470.64 145.22,465.85 150,465.85 150,463.02 145.22,463.02 		"/>
		<polygon points="145.22,479.22 142.38,479.22 142.38,479.22 137.59,479.22 137.59,482.05 142.38,482.05 142.38,486.84 
			145.22,486.84 145.22,482.05 150,482.05 150,479.22 145.22,479.22 		"/>
		<rect x="142.38" y="474.43" width="2.83" height="4.79"/>
		<polygon points="205.58,416.27 202.75,416.27 202.75,421.06 202.75,421.06 202.75,422.48 202.75,422.48 202.75,423.89 
			202.75,423.89 202.75,428.68 205.58,428.68 205.58,423.89 210.37,423.89 210.37,422.48 210.37,422.48 210.37,421.06 
			205.58,421.06 		"/>
		<polygon points="221.78,416.27 218.94,416.27 218.94,421.06 218.94,421.06 218.94,422.48 218.94,422.48 218.94,423.89 
			218.94,423.89 218.94,428.68 221.78,428.68 221.78,423.89 226.56,423.89 226.56,422.48 226.56,422.48 226.56,421.06 
			221.78,421.06 		"/>
		<polygon points="202.75,410.28 205.58,410.28 205.58,405.49 210.37,405.49 210.37,402.65 205.58,402.65 205.58,397.87 
			202.75,397.87 202.75,402.65 197.96,402.65 197.96,405.49 202.75,405.49 		"/>
		<polygon points="221.78,402.65 221.78,397.87 218.94,397.87 218.94,402.65 218.94,402.65 218.94,405.49 218.94,405.49 
			218.94,410.28 221.78,410.28 221.78,405.49 226.56,405.49 226.56,402.65 		"/>
		<rect x="214.16" y="402.65" width="4.79" height="2.83"/>
		<polygon points="218.94,422.48 218.94,421.06 214.16,421.06 214.16,422.48 214.16,422.48 214.16,423.89 218.94,423.89 
			218.94,422.48 		"/>
		<polygon points="184.26,422.48 184.26,421.06 179.47,421.06 179.47,422.48 179.47,422.48 179.47,423.89 184.26,423.89 
			184.26,422.48 		"/>
		<polygon points="202.75,422.48 202.75,421.06 196.34,421.06 196.34,414.65 201.12,414.65 201.12,411.81 196.34,411.81 
			196.34,407.03 193.5,407.03 193.5,411.81 188.72,411.81 188.72,414.65 193.5,414.65 193.5,421.06 187.09,421.06 187.09,416.27 
			184.26,416.27 184.26,421.06 184.26,421.06 184.26,422.48 184.26,422.48 184.26,423.89 184.26,423.89 184.26,428.68 
			187.09,428.68 187.09,423.89 193.5,423.89 193.5,430.3 188.72,430.3 188.72,433.14 193.5,433.14 193.5,437.92 196.34,437.92 
			196.34,433.14 201.12,433.14 201.12,430.3 196.34,430.3 196.34,423.89 202.75,423.89 202.75,422.48 		"/>
		<polygon points="205.58,434.67 202.75,434.67 202.75,439.46 197.96,439.46 197.96,442.3 202.75,442.3 202.75,447.08 
			205.58,447.08 205.58,442.3 210.37,442.3 210.37,439.46 205.58,439.46 		"/>
		<polygon points="221.78,434.67 218.94,434.67 218.94,439.46 218.94,439.46 218.94,442.3 218.94,442.3 218.94,447.08 
			221.78,447.08 221.78,442.3 226.56,442.3 226.56,439.46 221.78,439.46 		"/>
		<rect x="214.16" y="439.46" width="4.79" height="2.83"/>
		<polygon points="148.17,411.28 151,411.28 151,411.28 155.79,411.28 155.79,408.44 151,408.44 151,403.65 148.17,403.65 
			148.17,408.44 143.38,408.44 143.38,411.28 148.17,411.28 		"/>
		<rect x="148.17" y="411.28" width="2.83" height="4.79"/>
		<polygon points="142.88,403.15 142.88,403.15 147.67,403.15 147.67,400.32 142.88,400.32 142.88,395.53 140.04,395.53 
			140.04,400.32 135.26,400.32 135.26,403.15 140.04,403.15 140.04,403.15 		"/>
		<rect x="140.04" y="403.15" width="2.83" height="4.79"/>
		<polygon points="131.92,395.03 134.75,395.03 134.75,395.03 139.54,395.03 139.54,392.19 134.75,392.19 134.75,387.4 
			131.92,387.4 131.92,392.19 127.13,392.19 127.13,395.03 131.92,395.03 		"/>
		<rect x="131.92" y="395.03" width="2.83" height="4.79"/>
		<polygon points="151,441.3 151,436.51 151,436.51 151,433.68 151,433.68 151,428.89 148.17,428.89 148.17,433.68 143.38,433.68 
			143.38,436.51 148.17,436.51 148.17,441.3 		"/>
		<rect x="151" y="433.68" width="4.79" height="2.83"/>
		<polygon points="142.88,449.42 142.88,444.63 142.88,444.63 142.88,441.8 142.88,441.8 142.88,437.01 140.04,437.01 140.04,441.8 
			135.26,441.8 135.26,444.63 140.04,444.63 140.04,449.42 		"/>
		<rect x="142.88" y="441.8" width="4.79" height="2.83"/>
		<polygon points="134.75,449.93 134.75,449.93 134.75,445.14 131.92,445.14 131.92,449.93 127.13,449.93 127.13,452.76 
			131.92,452.76 131.92,457.55 134.75,457.55 134.75,452.76 134.75,452.76 		"/>
		<rect x="134.75" y="449.93" width="4.79" height="2.83"/>
		<polygon points="176.24,433.68 173.4,433.68 173.4,433.68 168.62,433.68 168.62,436.51 173.4,436.51 173.4,441.3 176.24,441.3 
			176.24,436.51 181.02,436.51 181.02,433.68 176.24,433.68 		"/>
		<rect x="173.4" y="428.89" width="2.83" height="4.79"/>
		<polygon points="181.53,441.8 181.53,441.8 176.74,441.8 176.74,444.63 181.53,444.63 181.53,449.42 184.36,449.42 184.36,444.63 
			189.15,444.63 189.15,441.8 184.36,441.8 184.36,441.8 		"/>
		<rect x="181.53" y="437.01" width="2.83" height="4.79"/>
		<polygon points="192.49,449.93 189.65,449.93 189.65,449.93 184.87,449.93 184.87,452.76 189.65,452.76 189.65,457.55 
			192.49,457.55 192.49,452.76 197.27,452.76 197.27,449.93 192.49,449.93 		"/>
		<rect x="189.65" y="445.14" width="2.83" height="4.79"/>
		<polygon points="181.02,408.44 176.24,408.44 176.24,403.65 173.4,403.65 173.4,408.44 173.4,408.44 173.4,411.28 173.4,411.28 
			173.4,416.06 176.24,416.06 176.24,411.28 181.02,411.28 		"/>
		<rect x="168.62" y="408.44" width="4.79" height="2.83"/>
		<polygon points="184.36,407.94 184.36,403.15 189.15,403.15 189.15,400.32 184.36,400.32 184.36,395.53 181.53,395.53 
			181.53,400.32 181.53,400.32 181.53,403.15 181.53,403.15 181.53,407.94 		"/>
		<rect x="176.74" y="400.32" width="4.79" height="2.83"/>
		<polygon points="189.65,395.03 189.65,395.03 189.65,399.81 192.49,399.81 192.49,395.03 197.27,395.03 197.27,392.19 
			192.49,392.19 192.49,387.4 189.65,387.4 189.65,392.19 189.65,392.19 		"/>
		<rect x="184.87" y="392.19" width="4.79" height="2.83"/>
		<path d="M145.82,422.48l16.38,16.38l16.38-16.38l-16.38-16.38L145.82,422.48z M162.2,436.03l-13.55-13.55l13.55-13.55l13.55,13.55
			L162.2,436.03z"/>
	</g>
</g>
<g>
</g>
<g>
</g>
<g>
</g>
<g>
</g>
<g>
</g>
<g>
</g>
<g>
</g>
<g>
</g>
<g>
</g>
<g>
</g>
<g>
</g>
<g>
</g>
<g>
</g>
<g>
</g>
<g>
</g>
</svg>
