<?xml version="1.0" encoding="utf-8"?>
<!-- Generator: Adobe Illustrator 27.2.0, SVG Export Plug-In . SVG Version: 6.00 Build 0)  -->
<svg version="1.1" id="Layer_1" xmlns="http://www.w3.org/2000/svg" xmlns:xlink="http://www.w3.org/1999/xlink" x="0px" y="0px"
	 viewBox="0 0 800 600" style="enable-background:new 0 0 800 600;" xml:space="preserve">
<g>
	<g>
		<g>
			<circle cx="129.37" cy="496.14" r="2.83"/>
			<g>
				<circle cx="133.62" cy="491.89" r="2.83"/>
				<circle cx="137.87" cy="487.64" r="2.83"/>
				<circle cx="142.13" cy="483.39" r="2.83"/>
				<circle cx="125.12" cy="491.89" r="2.83"/>
				<circle cx="120.87" cy="487.64" r="2.83"/>
				<circle cx="116.61" cy="483.39" r="2.83"/>
				<circle cx="120.87" cy="479.13" r="2.83"/>
				<circle cx="125.12" cy="474.88" r="2.83"/>
				<circle cx="129.37" cy="470.63" r="2.83"/>
				<circle cx="133.62" cy="466.38" r="2.83"/>
				<circle cx="137.87" cy="462.13" r="2.83"/>
				<circle cx="142.13" cy="457.87" r="2.83"/>
				<circle cx="137.87" cy="453.62" r="2.83"/>
				<circle cx="133.62" cy="449.37" r="2.83"/>
				<circle cx="125.12" cy="466.38" r="2.83"/>
				<circle cx="120.87" cy="462.13" r="2.83"/>
				<circle cx="116.61" cy="457.87" r="2.83"/>
				<circle cx="120.87" cy="453.62" r="2.83"/>
				<circle cx="125.12" cy="449.37" r="2.83"/>
				<circle cx="129.37" cy="445.12" r="2.83"/>
				<circle cx="133.62" cy="474.88" r="2.83"/>
				<circle cx="137.87" cy="479.13" r="2.83"/>
				<g>
					<circle cx="112.36" cy="487.64" r="2.83"/>
					<circle cx="108.11" cy="491.89" r="2.83"/>
					<circle cx="103.86" cy="496.14" r="2.83"/>
					<circle cx="99.61" cy="491.89" r="2.83"/>
					<circle cx="95.35" cy="487.64" r="2.83"/>
					<circle cx="112.36" cy="479.13" r="2.83"/>
					<circle cx="108.11" cy="474.88" r="2.83"/>
					<circle cx="103.86" cy="470.63" r="2.83"/>
					<circle cx="99.61" cy="474.88" r="2.83"/>
					<circle cx="95.35" cy="479.13" r="2.83"/>
					<circle cx="91.1" cy="483.39" r="2.83"/>
				</g>
				<g>
					<circle cx="146.38" cy="487.64" r="2.83"/>
					<circle cx="150.63" cy="491.89" r="2.83"/>
					<circle cx="154.88" cy="496.14" r="2.83"/>
					<circle cx="159.13" cy="491.89" r="2.83"/>
					<circle cx="163.39" cy="487.64" r="2.83"/>
					<circle cx="146.38" cy="479.13" r="2.83"/>
					<circle cx="150.63" cy="474.88" r="2.83"/>
					<circle cx="154.88" cy="470.63" r="2.83"/>
					<circle cx="159.13" cy="474.88" r="2.83"/>
					<circle cx="163.39" cy="479.13" r="2.83"/>
					<circle cx="167.64" cy="483.39" r="2.83"/>
				</g>
			</g>
			<g>
				<circle cx="74.09" cy="542.91" r="2.83"/>
				<circle cx="69.84" cy="538.66" r="2.83"/>
				<circle cx="65.59" cy="534.41" r="2.83"/>
				<circle cx="52.83" cy="547.17" r="2.83"/>
				<circle cx="57.09" cy="542.91" r="2.83"/>
				<circle cx="61.34" cy="538.66" r="2.83"/>
				<g>
					<circle cx="69.84" cy="530.16" r="2.83"/>
					<circle cx="74.09" cy="525.91" r="2.83"/>
					<circle cx="78.35" cy="521.65" r="2.83"/>
					<circle cx="74.09" cy="517.4" r="2.83"/>
					<circle cx="69.84" cy="513.15" r="2.83"/>
					<circle cx="61.34" cy="530.16" r="2.83"/>
					<circle cx="57.09" cy="525.91" r="2.83"/>
					<circle cx="52.83" cy="521.65" r="2.83"/>
					<circle cx="57.09" cy="517.4" r="2.83"/>
					<circle cx="61.34" cy="513.15" r="2.83"/>
					<circle cx="65.59" cy="508.9" r="2.83"/>
				</g>
			</g>
			<g>
				<circle cx="184.65" cy="542.91" r="2.83"/>
				<circle cx="188.9" cy="538.66" r="2.83"/>
				<circle cx="193.15" cy="534.41" r="2.83"/>
				<circle cx="197.4" cy="538.66" r="2.83"/>
				<circle cx="201.65" cy="542.91" r="2.83"/>
				<circle cx="205.91" cy="547.17" r="2.83"/>
				<g>
					<circle cx="188.9" cy="530.16" r="2.83"/>
					<circle cx="184.65" cy="525.91" r="2.83"/>
					<circle cx="180.39" cy="521.65" r="2.83"/>
					<circle cx="184.65" cy="517.4" r="2.83"/>
					<circle cx="188.9" cy="513.15" r="2.83"/>
					<circle cx="197.4" cy="530.16" r="2.83"/>
					<circle cx="201.65" cy="525.91" r="2.83"/>
					<circle cx="205.91" cy="521.65" r="2.83"/>
					<circle cx="201.65" cy="517.4" r="2.83"/>
					<circle cx="197.4" cy="513.15" r="2.83"/>
					<circle cx="193.15" cy="508.9" r="2.83"/>
				</g>
			</g>
			<circle cx="125.12" cy="500.39" r="2.83"/>
			<circle cx="120.87" cy="504.65" r="2.83"/>
			<circle cx="116.61" cy="508.9" r="2.83"/>
			<circle cx="120.87" cy="513.15" r="2.83"/>
			<circle cx="125.12" cy="517.4" r="2.83"/>
			<circle cx="129.37" cy="521.65" r="2.83"/>
			<circle cx="133.62" cy="525.91" r="2.83"/>
			<circle cx="137.87" cy="530.16" r="2.83"/>
			<circle cx="142.13" cy="534.41" r="2.83"/>
			<circle cx="146.38" cy="538.66" r="2.83"/>
			<circle cx="150.63" cy="542.91" r="2.83"/>
			<circle cx="154.88" cy="547.17" r="2.83"/>
			<circle cx="112.36" cy="513.15" r="2.83"/>
			<circle cx="108.11" cy="517.4" r="2.83"/>
			<circle cx="103.86" cy="521.65" r="2.83"/>
			<circle cx="108.11" cy="525.91" r="2.83"/>
			<circle cx="112.36" cy="530.16" r="2.83"/>
			<circle cx="116.61" cy="534.41" r="2.83"/>
			<circle cx="120.87" cy="538.66" r="2.83"/>
			<circle cx="125.12" cy="542.91" r="2.83"/>
			<circle cx="129.37" cy="547.17" r="2.83"/>
			<circle cx="99.61" cy="525.91" r="2.83"/>
			<circle cx="95.35" cy="530.16" r="2.83"/>
			<circle cx="91.1" cy="534.41" r="2.83"/>
			<circle cx="95.35" cy="538.66" r="2.83"/>
			<circle cx="99.61" cy="542.91" r="2.83"/>
			<circle cx="103.86" cy="547.17" r="2.83"/>
			<circle cx="86.85" cy="538.66" r="2.83"/>
			<circle cx="82.6" cy="542.91" r="2.83"/>
			<circle cx="78.35" cy="547.17" r="2.83"/>
			<circle cx="133.62" cy="500.39" r="2.83"/>
			<circle cx="137.87" cy="504.65" r="2.83"/>
			<circle cx="142.13" cy="508.9" r="2.83"/>
			<circle cx="137.87" cy="513.15" r="2.83"/>
			<circle cx="133.62" cy="517.4" r="2.83"/>
			<circle cx="125.12" cy="525.91" r="2.83"/>
			<circle cx="120.87" cy="530.16" r="2.83"/>
			<circle cx="112.36" cy="538.66" r="2.83"/>
			<circle cx="108.11" cy="542.91" r="2.83"/>
			<circle cx="146.38" cy="513.15" r="2.83"/>
			<circle cx="150.63" cy="517.4" r="2.83"/>
			<circle cx="154.88" cy="521.65" r="2.83"/>
			<circle cx="150.63" cy="525.91" r="2.83"/>
			<circle cx="146.38" cy="530.16" r="2.83"/>
			<circle cx="137.87" cy="538.66" r="2.83"/>
			<circle cx="133.62" cy="542.91" r="2.83"/>
			<circle cx="159.13" cy="525.91" r="2.83"/>
			<circle cx="163.39" cy="530.16" r="2.83"/>
			<circle cx="167.64" cy="534.41" r="2.83"/>
			<circle cx="163.39" cy="538.66" r="2.83"/>
			<circle cx="159.13" cy="542.91" r="2.83"/>
			<circle cx="171.89" cy="538.66" r="2.83"/>
			<circle cx="176.14" cy="542.91" r="2.83"/>
			<circle cx="180.39" cy="547.17" r="2.83"/>
		</g>
		<g>
			<circle cx="257.37" cy="496.14" r="2.83"/>
			<g>
				<circle cx="261.62" cy="491.89" r="2.83"/>
				<circle cx="265.87" cy="487.64" r="2.83"/>
				<circle cx="270.13" cy="483.39" r="2.83"/>
				<circle cx="253.12" cy="491.89" r="2.83"/>
				<circle cx="248.87" cy="487.64" r="2.83"/>
				<circle cx="244.61" cy="483.39" r="2.83"/>
				<circle cx="248.87" cy="479.13" r="2.83"/>
				<circle cx="253.12" cy="474.88" r="2.83"/>
				<circle cx="257.37" cy="470.63" r="2.83"/>
				<circle cx="261.62" cy="466.38" r="2.83"/>
				<circle cx="265.87" cy="462.13" r="2.83"/>
				<circle cx="270.13" cy="457.87" r="2.83"/>
				<circle cx="265.87" cy="453.62" r="2.83"/>
				<circle cx="261.62" cy="449.37" r="2.83"/>
				<circle cx="253.12" cy="466.38" r="2.83"/>
				<circle cx="248.87" cy="462.13" r="2.83"/>
				<circle cx="244.61" cy="457.87" r="2.83"/>
				<circle cx="248.87" cy="453.62" r="2.83"/>
				<circle cx="253.12" cy="449.37" r="2.83"/>
				<circle cx="257.37" cy="445.12" r="2.83"/>
				<circle cx="261.62" cy="474.88" r="2.83"/>
				<circle cx="265.87" cy="479.13" r="2.83"/>
				<g>
					<circle cx="240.36" cy="487.64" r="2.83"/>
					<circle cx="236.11" cy="491.89" r="2.83"/>
					<circle cx="231.86" cy="496.14" r="2.83"/>
					<circle cx="227.61" cy="491.89" r="2.83"/>
					<circle cx="223.35" cy="487.64" r="2.83"/>
					<circle cx="240.36" cy="479.13" r="2.83"/>
					<circle cx="236.11" cy="474.88" r="2.83"/>
					<circle cx="231.86" cy="470.63" r="2.83"/>
					<circle cx="227.61" cy="474.88" r="2.83"/>
					<circle cx="223.35" cy="479.13" r="2.83"/>
					<circle cx="219.1" cy="483.39" r="2.83"/>
				</g>
				<g>
					<circle cx="274.38" cy="487.64" r="2.83"/>
					<circle cx="278.63" cy="491.89" r="2.83"/>
					<circle cx="282.88" cy="496.14" r="2.83"/>
					<circle cx="287.13" cy="491.89" r="2.83"/>
					<circle cx="291.39" cy="487.64" r="2.83"/>
					<circle cx="274.38" cy="479.13" r="2.83"/>
					<circle cx="278.63" cy="474.88" r="2.83"/>
					<circle cx="282.88" cy="470.63" r="2.83"/>
					<circle cx="287.13" cy="474.88" r="2.83"/>
					<circle cx="291.39" cy="479.13" r="2.83"/>
					<circle cx="295.64" cy="483.39" r="2.83"/>
				</g>
			</g>
			<g>
				<circle cx="202.09" cy="542.91" r="2.83"/>
				<circle cx="197.84" cy="538.66" r="2.83"/>
				<circle cx="193.59" cy="534.41" r="2.83"/>
				<circle cx="180.83" cy="547.17" r="2.83"/>
				<circle cx="185.09" cy="542.91" r="2.83"/>
				<circle cx="189.34" cy="538.66" r="2.83"/>
				<g>
					<circle cx="197.84" cy="530.16" r="2.83"/>
					<circle cx="202.09" cy="525.91" r="2.83"/>
					<circle cx="206.35" cy="521.65" r="2.83"/>
					<circle cx="202.09" cy="517.4" r="2.83"/>
					<circle cx="197.84" cy="513.15" r="2.83"/>
					<circle cx="189.34" cy="530.16" r="2.83"/>
					<circle cx="185.09" cy="525.91" r="2.83"/>
					<circle cx="180.83" cy="521.65" r="2.83"/>
					<circle cx="185.09" cy="517.4" r="2.83"/>
					<circle cx="189.34" cy="513.15" r="2.83"/>
					<circle cx="193.59" cy="508.9" r="2.83"/>
				</g>
			</g>
			<g>
				<circle cx="312.65" cy="542.91" r="2.83"/>
				<circle cx="316.9" cy="538.66" r="2.83"/>
				<circle cx="321.15" cy="534.41" r="2.83"/>
				<circle cx="325.4" cy="538.66" r="2.83"/>
				<circle cx="329.65" cy="542.91" r="2.83"/>
				<circle cx="333.91" cy="547.17" r="2.83"/>
				<g>
					<circle cx="316.9" cy="530.16" r="2.83"/>
					<circle cx="312.65" cy="525.91" r="2.83"/>
					<circle cx="308.39" cy="521.65" r="2.83"/>
					<circle cx="312.65" cy="517.4" r="2.83"/>
					<circle cx="316.9" cy="513.15" r="2.83"/>
					<circle cx="325.4" cy="530.16" r="2.83"/>
					<circle cx="329.65" cy="525.91" r="2.83"/>
					<circle cx="333.91" cy="521.65" r="2.83"/>
					<circle cx="329.65" cy="517.4" r="2.83"/>
					<circle cx="325.4" cy="513.15" r="2.83"/>
					<circle cx="321.15" cy="508.9" r="2.83"/>
				</g>
			</g>
			<circle cx="253.12" cy="500.39" r="2.83"/>
			<circle cx="248.87" cy="504.65" r="2.83"/>
			<circle cx="244.61" cy="508.9" r="2.83"/>
			<circle cx="248.87" cy="513.15" r="2.83"/>
			<circle cx="253.12" cy="517.4" r="2.83"/>
			<circle cx="257.37" cy="521.65" r="2.83"/>
			<circle cx="261.62" cy="525.91" r="2.83"/>
			<circle cx="265.87" cy="530.16" r="2.83"/>
			<circle cx="270.13" cy="534.41" r="2.83"/>
			<circle cx="274.38" cy="538.66" r="2.83"/>
			<circle cx="278.63" cy="542.91" r="2.83"/>
			<circle cx="282.88" cy="547.17" r="2.83"/>
			<circle cx="240.36" cy="513.15" r="2.83"/>
			<circle cx="236.11" cy="517.4" r="2.83"/>
			<circle cx="231.86" cy="521.65" r="2.83"/>
			<circle cx="236.11" cy="525.91" r="2.83"/>
			<circle cx="240.36" cy="530.16" r="2.83"/>
			<circle cx="244.61" cy="534.41" r="2.83"/>
			<circle cx="248.87" cy="538.66" r="2.83"/>
			<circle cx="253.12" cy="542.91" r="2.83"/>
			<circle cx="257.37" cy="547.17" r="2.83"/>
			<circle cx="227.61" cy="525.91" r="2.83"/>
			<circle cx="223.35" cy="530.16" r="2.83"/>
			<circle cx="219.1" cy="534.41" r="2.83"/>
			<circle cx="223.35" cy="538.66" r="2.83"/>
			<circle cx="227.61" cy="542.91" r="2.83"/>
			<circle cx="231.86" cy="547.17" r="2.83"/>
			<circle cx="214.85" cy="538.66" r="2.83"/>
			<circle cx="210.6" cy="542.91" r="2.83"/>
			<circle cx="206.35" cy="547.17" r="2.83"/>
			<circle cx="261.62" cy="500.39" r="2.83"/>
			<circle cx="265.87" cy="504.65" r="2.83"/>
			<circle cx="270.13" cy="508.9" r="2.83"/>
			<circle cx="265.87" cy="513.15" r="2.83"/>
			<circle cx="261.62" cy="517.4" r="2.83"/>
			<circle cx="253.12" cy="525.91" r="2.83"/>
			<circle cx="248.87" cy="530.16" r="2.83"/>
			<circle cx="240.36" cy="538.66" r="2.83"/>
			<circle cx="236.11" cy="542.91" r="2.83"/>
			<circle cx="274.38" cy="513.15" r="2.83"/>
			<circle cx="278.63" cy="517.4" r="2.83"/>
			<circle cx="282.88" cy="521.65" r="2.83"/>
			<circle cx="278.63" cy="525.91" r="2.83"/>
			<circle cx="274.38" cy="530.16" r="2.83"/>
			<circle cx="265.87" cy="538.66" r="2.83"/>
			<circle cx="261.62" cy="542.91" r="2.83"/>
			<circle cx="287.13" cy="525.91" r="2.83"/>
			<circle cx="291.39" cy="530.16" r="2.83"/>
			<circle cx="295.64" cy="534.41" r="2.83"/>
			<circle cx="291.39" cy="538.66" r="2.83"/>
			<circle cx="287.13" cy="542.91" r="2.83"/>
			<circle cx="299.89" cy="538.66" r="2.83"/>
			<circle cx="304.14" cy="542.91" r="2.83"/>
			<circle cx="308.39" cy="547.17" r="2.83"/>
		</g>
	</g>
</g>
<g>
</g>
<g>
</g>
<g>
</g>
<g>
</g>
<g>
</g>
<g>
</g>
<g>
</g>
<g>
</g>
<g>
</g>
<g>
</g>
<g>
</g>
<g>
</g>
<g>
</g>
<g>
</g>
<g>
</g>
</svg>
