<?xml version="1.0" encoding="utf-8"?>
<!-- Generator: Adobe Illustrator 27.2.0, SVG Export Plug-In . SVG Version: 6.00 Build 0)  -->
<svg version="1.1" id="Layer_1" xmlns="http://www.w3.org/2000/svg" xmlns:xlink="http://www.w3.org/1999/xlink" x="0px" y="0px"
	 viewBox="0 0 800 600" style="enable-background:new 0 0 800 600;" xml:space="preserve">
<g>
	<g>
		<g>
			<path d="M127.47,443.63c-1.57,0-2.83,1.27-2.83,2.83c0,1.57,1.27,2.83,2.83,2.83s2.83-1.27,2.83-2.83
				C130.3,444.9,129.03,443.63,127.47,443.63z"/>
			<circle cx="133.14" cy="452.14" r="2.83"/>
			<path d="M116.13,443.63c-1.57,0-2.83,1.27-2.83,2.83c0,1.57,1.27,2.83,2.83,2.83c1.57,0,2.83-1.27,2.83-2.83
				C118.96,444.9,117.69,443.63,116.13,443.63z"/>
			<path d="M121.8,454.97c1.57,0,2.83-1.27,2.83-2.83c0-1.57-1.27-2.83-2.83-2.83c-1.57,0-2.83,1.27-2.83,2.83
				C118.96,453.7,120.23,454.97,121.8,454.97z"/>
			<path d="M121.8,437.96c-1.57,0-2.83,1.27-2.83,2.83s1.27,2.83,2.83,2.83c1.57,0,2.83-1.27,2.83-2.83S123.36,437.96,121.8,437.96z
				"/>
			<path d="M138.81,449.3c1.57,0,2.83-1.27,2.83-2.83c0-1.57-1.27-2.83-2.83-2.83c-1.57,0-2.83,1.27-2.83,2.83
				C135.97,448.03,137.24,449.3,138.81,449.3z"/>
			<circle cx="116.13" cy="399" r="2.83"/>
			<circle cx="116.13" cy="423.79" r="2.83"/>
			<rect x="180.84" y="446.47" width="1.42" height="4.79"/>
			<circle cx="110.46" cy="440.8" r="2.83"/>
			<polygon points="147.24,433.23 147.24,439.64 142.46,439.64 142.46,442.47 147.24,442.47 147.24,447.26 150.08,447.26 
				150.08,442.47 154.86,442.47 154.86,439.64 150.08,439.64 150.08,433.23 			"/>
			<path d="M121.8,426.62c-1.57,0-2.83,1.27-2.83,2.83c0,1.57,1.27,2.83,2.83,2.83c1.57,0,2.83-1.27,2.83-2.83
				C124.63,427.89,123.36,426.62,121.8,426.62z"/>
			<polygon points="182.26,427.98 182.26,420.36 180.84,420.36 180.84,425.14 180.84,425.14 176.05,425.14 176.05,427.98 
				180.84,427.98 180.84,427.98 			"/>
			<path d="M121.8,466.31c1.57,0,2.83-1.27,2.83-2.83c0-1.57-1.27-2.83-2.83-2.83c-1.57,0-2.83,1.27-2.83,2.83
				C118.96,465.04,120.23,466.31,121.8,466.31z"/>
			<polygon points="171.6,408.04 174.43,408.04 174.43,403.25 179.22,403.25 180.84,403.25 180.84,404.87 180.84,409.66 
				176.05,409.66 176.05,412.5 180.84,412.5 180.84,417.28 182.26,417.28 182.26,386.39 180.84,386.39 180.84,391.17 176.05,391.17 
				176.05,394.01 180.84,394.01 180.84,398.8 180.84,400.42 179.22,400.42 174.43,400.42 174.43,395.63 171.6,395.63 171.6,400.42 
				166.81,400.42 166.81,403.25 171.6,403.25 			"/>
			<path d="M110.46,426.62c-1.57,0-2.83,1.27-2.83,2.83c0,1.57,1.27,2.83,2.83,2.83s2.83-1.27,2.83-2.83
				C113.29,427.89,112.03,426.62,110.46,426.62z"/>
			<circle cx="116.13" cy="435.13" r="2.83"/>
			<circle cx="116.13" cy="457.81" r="2.83"/>
			<path d="M110.46,396.17c1.57,0,2.83-1.27,2.83-2.83c0-1.57-1.27-2.83-2.83-2.83s-2.83,1.27-2.83,2.83
				C107.63,394.9,108.89,396.17,110.46,396.17z"/>
			<circle cx="133.14" cy="440.8" r="2.83"/>
			<circle cx="99.12" cy="452.14" r="2.83"/>
			<polygon points="139.6,533.13 139.6,526.73 144.38,526.73 144.38,523.89 139.6,523.89 139.6,519.1 136.76,519.1 136.76,523.89 
				131.98,523.89 131.98,526.73 136.76,526.73 136.76,533.13 			"/>
			<path d="M93.45,443.63c-1.57,0-2.83,1.27-2.83,2.83c0,1.57,1.27,2.83,2.83,2.83s2.83-1.27,2.83-2.83
				C96.29,444.9,95.02,443.63,93.45,443.63z"/>
			<path d="M182.26,518.64v-4.24l-20.61-20.61v-5.62h2.61h2.77h2.77v2.77v2.77h2.77v-2.77v-2.77h2.77h2.77h2.77v2.77v2.77v2.77
				h-2.77h-2.77v2.77h2.77h2.77v2.77v2.77h1.38v-36h-1.38v2.77v2.77h-2.77h-2.77v2.77h2.77h2.77v2.77v2.77v2.77h-2.77h-2.77h-2.77
				v-2.77v-2.77h-2.77v2.77v2.77h-2.77h-2.77h-2.61v-5.62l20.61-20.61h0v-4.24l-22.04,22.04l-22.04-22.04v4.24h0l20.61,20.61v5.62
				h-8.15v-5.54h-2.77v5.54h-8.31v-8.31h5.54v-2.77h-5.54v-5.54h-2.77v5.54h-5.54v2.77h5.54v8.31h-8.31v-5.54h-2.77v5.54h-8.15
				v-5.62l20.61-20.61v-4.24l-22.04,22.04v9.81h1.27v0h-1.27v9.81l22.04,22.04v0l22.04-22.04L182.26,518.64L182.26,518.64
				L182.26,518.64z M158.79,493.79l-20.61,20.61l-20.61-20.61v-5.62h8.15v5.54h2.77v-5.54h8.31v8.31h-5.54v2.77h5.54v5.54h2.77
				v-5.54h5.54v-2.77h-5.54v-8.31h8.31v5.54h2.77v-5.54h8.15V493.79z M158.95,486.79L158.95,486.79l1.27,0h1.27v0h-1.27H158.95z"/>
			<circle cx="110.46" cy="381.99" r="2.83"/>
			<polygon points="182.26,519.1 180.84,519.1 180.84,523.89 176.05,523.89 176.05,526.73 180.84,526.73 180.84,531.51 
				180.84,533.13 179.22,533.13 174.43,533.13 174.43,528.35 171.6,528.35 171.6,533.13 166.81,533.13 166.81,535.97 171.6,535.97 
				171.6,540.76 174.43,540.76 174.43,535.97 179.22,535.97 180.84,535.97 180.84,537.59 180.84,542.38 182.26,542.38 			"/>
			<polygon points="138.18,454.94 138.18,454.94 138.18,454.94 			"/>
			<polygon points="182.26,454.94 182.26,454.94 182.26,454.94 			"/>
			<circle cx="99.12" cy="440.8" r="2.83"/>
			<polygon points="182.26,550 182.26,542.38 180.84,542.38 180.84,542.38 176.05,542.38 176.05,545.21 180.84,545.21 180.84,550 
							"/>
			<path d="M121.8,367.82c-1.57,0-2.83,1.27-2.83,2.83c0,1.57,1.27,2.83,2.83,2.83c1.57,0,2.83-1.27,2.83-2.83
				C124.63,369.09,123.36,367.82,121.8,367.82z"/>
			<circle cx="116.13" cy="364.99" r="2.83"/>
			<path d="M116.13,379.16c1.57,0,2.83-1.27,2.83-2.83c0-1.57-1.27-2.83-2.83-2.83c-1.57,0-2.83,1.27-2.83,2.83
				C113.29,377.89,114.56,379.16,116.13,379.16z"/>
			<circle cx="116.13" cy="387.66" r="2.83"/>
			<circle cx="110.46" cy="463.47" r="2.83"/>
			<path d="M121.8,390.5c-1.57,0-2.83,1.27-2.83,2.83c0,1.57,1.27,2.83,2.83,2.83c1.57,0,2.83-1.27,2.83-2.83
				C124.63,391.77,123.36,390.5,121.8,390.5z"/>
			<circle cx="110.46" cy="452.14" r="2.83"/>
			<path d="M104.79,449.3c1.57,0,2.83-1.27,2.83-2.83c0-1.57-1.27-2.83-2.83-2.83c-1.57,0-2.83,1.27-2.83,2.83
				C101.96,448.03,103.22,449.3,104.79,449.3z"/>
			<path d="M121.8,379.16c-1.57,0-2.83,1.27-2.83,2.83s1.27,2.83,2.83,2.83c1.57,0,2.83-1.27,2.83-2.83S123.36,379.16,121.8,379.16z
				"/>
			<circle cx="116.13" cy="353.65" r="2.83"/>
			<rect x="83.42" y="528.35" width="2.83" height="4.79"/>
			<polygon points="60.66,528.35 57.83,528.35 57.83,533.13 53.04,533.13 51.42,533.13 51.42,531.51 51.42,526.73 56.2,526.73 
				56.2,523.89 51.42,523.89 51.42,519.1 50,519.1 50,542.38 51.42,542.38 51.42,537.59 51.42,535.97 53.04,535.97 57.83,535.97 
				57.83,540.76 60.66,540.76 60.66,535.97 65.45,535.97 65.45,533.13 60.66,533.13 			"/>
			<path d="M83.74,517.1c0-6.45-5.25-11.7-11.7-11.7s-11.7,5.25-11.7,11.7c0,6.45,5.25,11.7,11.7,11.7S83.74,523.55,83.74,517.1z
				 M72.04,525.8c-4.8,0-8.7-3.9-8.7-8.7c0-4.8,3.9-8.7,8.7-8.7s8.7,3.9,8.7,8.7C80.74,521.89,76.84,525.8,72.04,525.8z"/>
			<polygon points="50,386.39 50,417.28 51.42,417.28 51.42,412.5 56.2,412.5 56.2,409.66 51.42,409.66 51.42,404.87 51.42,403.25 
				53.04,403.25 57.83,403.25 57.83,408.04 60.66,408.04 60.66,403.25 65.45,403.25 65.45,400.42 60.66,400.42 60.66,395.63 
				57.83,395.63 57.83,400.42 53.04,400.42 51.42,400.42 51.42,398.8 51.42,394.01 56.2,394.01 56.2,391.17 51.42,391.17 
				51.42,386.39 			"/>
			<polygon points="50,542.38 50,550 51.42,550 51.42,545.21 56.2,545.21 56.2,542.38 51.42,542.38 51.42,542.38 			"/>
			<polygon points="60.66,442.01 60.66,437.22 65.45,437.22 65.45,434.39 60.66,434.39 60.66,429.6 57.83,429.6 57.83,434.39 
				53.04,434.39 51.42,434.39 51.42,432.77 51.42,427.98 50,427.98 50,446.47 51.42,446.47 51.42,446.47 56.2,446.47 56.2,443.63 
				51.42,443.63 51.42,438.85 51.42,437.22 53.04,437.22 57.83,437.22 57.83,442.01 			"/>
			<rect x="50" y="446.47" width="1.42" height="4.79"/>
			<path d="M60.34,456.48c0,6.45,5.25,11.7,11.7,11.7s11.7-5.25,11.7-11.7c0-6.45-5.25-11.7-11.7-11.7S60.34,450.03,60.34,456.48z
				 M72.04,447.78c4.8,0,8.7,3.9,8.7,8.7c0,4.8-3.9,8.7-8.7,8.7s-8.7-3.9-8.7-8.7C63.34,451.69,67.24,447.78,72.04,447.78z"/>
			<polygon points="82.18,447.26 85.02,447.26 85.02,442.47 89.8,442.47 89.8,439.64 85.02,439.64 85.02,433.23 82.18,433.23 
				82.18,439.64 77.39,439.64 77.39,442.47 82.18,442.47 			"/>
			<polygon points="56.2,425.14 51.42,425.14 51.42,425.14 51.42,420.36 50,420.36 50,427.98 51.42,427.98 51.42,427.98 
				56.2,427.98 			"/>
			<path d="M127.84,517.1c0-6.45-5.25-11.7-11.7-11.7c0,0,0,0,0,0v3c0,0,0,0,0,0c4.8,0,8.7,3.9,8.7,8.7c0,4.8-3.9,8.7-8.7,8.7
				c0,0,0,0,0,0v3c0,0,0,0,0,0C122.59,528.8,127.84,523.55,127.84,517.1z"/>
			<polygon points="171.6,442.01 174.43,442.01 174.43,437.22 179.22,437.22 180.84,437.22 180.84,438.85 180.84,443.63 
				176.05,443.63 176.05,446.47 180.84,446.47 180.84,446.47 182.26,446.47 182.26,427.98 180.84,427.98 180.84,432.77 
				180.84,434.39 179.22,434.39 174.43,434.39 174.43,429.6 171.6,429.6 171.6,434.39 166.81,434.39 166.81,437.22 171.6,437.22 			
				"/>
			<path d="M118.96,469.14c0-1.57-1.27-2.83-2.83-2.83c-1.57,0-2.83,1.27-2.83,2.83c0,1.57,1.27,2.83,2.83,2.83
				C117.69,471.98,118.96,470.71,118.96,469.14z"/>
			<path d="M104.42,517.1c0,6.45,5.25,11.7,11.7,11.7c0,0,0,0,0,0v-3c0,0,0,0,0,0c-4.8,0-8.7-3.9-8.7-8.7c0-4.8,3.9-8.7,8.7-8.7
				c0,0,0,0,0,0v-3c0,0,0,0,0,0C109.67,505.4,104.42,510.65,104.42,517.1z"/>
			<polygon points="94.08,454.94 94.08,454.94 94.08,454.94 			"/>
			<rect x="146.01" y="528.35" width="2.83" height="4.79"/>
			<rect x="127.52" y="528.35" width="2.83" height="4.79"/>
			<polygon points="104.74,533.13 101.9,533.13 101.9,533.13 97.12,533.13 97.12,533.13 91.04,533.13 91.04,533.13 86.25,533.13 
				86.25,533.13 83.42,533.13 83.42,533.13 78.63,533.13 78.63,535.97 83.42,535.97 83.42,540.76 86.25,540.76 86.25,535.97 
				91.04,535.97 91.04,535.97 92.66,535.97 92.66,542.38 87.87,542.38 87.87,545.21 92.66,545.21 92.66,550 95.5,550 95.5,545.21 
				100.28,545.21 100.28,542.38 95.5,542.38 95.5,535.97 97.12,535.97 97.12,535.97 101.9,535.97 101.9,540.76 104.74,540.76 
				104.74,535.97 109.53,535.97 109.53,533.13 104.74,533.13 			"/>
			<polygon points="92.66,519.1 92.66,523.89 87.87,523.89 87.87,526.73 92.66,526.73 92.66,533.13 95.5,533.13 95.5,526.73 
				100.28,526.73 100.28,523.89 95.5,523.89 95.5,519.1 			"/>
			<rect x="101.9" y="528.35" width="2.83" height="4.79"/>
			<circle cx="133.14" cy="370.65" r="2.83"/>
			<circle cx="133.14" cy="381.99" r="2.83"/>
			<path d="M138.81,379.16c1.57,0,2.83-1.27,2.83-2.83c0-1.57-1.27-2.83-2.83-2.83c-1.57,0-2.83,1.27-2.83,2.83
				C135.97,377.89,137.24,379.16,138.81,379.16z"/>
			<path d="M127.47,379.16c1.57,0,2.83-1.27,2.83-2.83c0-1.57-1.27-2.83-2.83-2.83s-2.83,1.27-2.83,2.83
				C124.63,377.89,125.9,379.16,127.47,379.16z"/>
			<polygon points="147.24,393.42 140.83,393.42 140.83,388.63 138,388.63 138,393.42 133.21,393.42 133.21,396.25 138,396.25 
				138,401.04 140.83,401.04 140.83,396.25 147.24,396.25 147.24,402.66 142.46,402.66 142.46,405.5 147.24,405.5 147.24,411.91 
				145.62,411.91 145.62,411.91 140.83,411.91 140.83,407.12 138,407.12 138,411.91 133.21,411.91 133.21,411.91 131.59,411.91 
				131.59,405.5 136.38,405.5 136.38,402.66 131.59,402.66 131.59,397.88 128.75,397.88 128.75,402.66 123.97,402.66 123.97,405.5 
				128.75,405.5 128.75,411.91 127.13,411.91 127.13,411.91 122.35,411.91 122.35,407.12 119.51,407.12 119.51,411.91 
				116.14,411.91 116.14,414.74 119.51,414.74 119.51,419.53 122.35,419.53 122.35,414.74 128.75,414.74 128.75,421.15 
				123.97,421.15 123.97,423.99 128.75,423.99 128.75,428.77 131.59,428.77 131.59,423.99 136.38,423.99 136.38,421.15 
				131.59,421.15 131.59,414.74 138,414.74 138,419.53 140.83,419.53 140.83,414.74 147.24,414.74 147.24,421.15 142.46,421.15 
				142.46,423.99 147.24,423.99 147.24,430.39 145.62,430.39 145.62,430.39 140.83,430.39 140.83,425.61 138,425.61 138,430.39 
				133.21,430.39 133.21,433.23 138,433.23 138,433.23 140.83,433.23 140.83,433.23 145.62,433.23 145.62,433.23 151.7,433.23 
				151.7,433.23 154.86,433.23 154.86,430.39 151.7,430.39 151.7,430.39 150.08,430.39 150.08,423.99 154.86,423.99 154.86,421.15 
				150.08,421.15 150.08,414.74 154.86,414.74 154.86,411.91 151.7,411.91 151.7,411.91 150.08,411.91 150.08,405.5 154.86,405.5 
				154.86,402.66 150.08,402.66 150.08,396.25 154.86,396.25 154.86,393.42 150.08,393.42 150.08,387.01 154.86,387.01 
				154.86,384.18 150.08,384.18 150.08,379.39 147.24,379.39 147.24,384.18 142.46,384.18 142.46,387.01 147.24,387.01 			"/>
			<polygon points="80.56,433.23 86.64,433.23 86.64,433.23 91.42,433.23 91.42,433.23 94.26,433.23 94.26,433.23 99.05,433.23 
				99.05,430.39 94.26,430.39 94.26,425.61 91.42,425.61 91.42,430.39 86.64,430.39 86.64,430.39 85.02,430.39 85.02,423.99 
				89.8,423.99 89.8,421.15 85.02,421.15 85.02,414.74 91.42,414.74 91.42,419.53 94.26,419.53 94.26,414.74 100.67,414.74 
				100.67,421.15 95.88,421.15 95.88,423.99 100.67,423.99 100.67,428.77 103.5,428.77 103.5,423.99 108.29,423.99 108.29,421.15 
				103.5,421.15 103.5,414.74 109.91,414.74 109.91,419.53 112.75,419.53 112.75,414.74 116.12,414.74 116.12,411.91 112.75,411.91 
				112.75,407.12 109.91,407.12 109.91,411.91 105.13,411.91 105.13,411.91 103.5,411.91 103.5,405.5 108.29,405.5 108.29,402.66 
				103.5,402.66 103.5,397.88 100.67,397.88 100.67,402.66 95.88,402.66 95.88,405.5 100.67,405.5 100.67,411.91 99.05,411.91 
				99.05,411.91 94.26,411.91 94.26,407.12 91.42,407.12 91.42,411.91 86.64,411.91 86.64,411.91 85.02,411.91 85.02,405.5 
				89.8,405.5 89.8,402.66 85.02,402.66 85.02,396.25 91.42,396.25 91.42,401.04 94.26,401.04 94.26,396.25 99.05,396.25 
				99.05,393.42 94.26,393.42 94.26,388.63 91.42,388.63 91.42,393.42 85.02,393.42 85.02,387.01 89.8,387.01 89.8,384.18 
				85.02,384.18 85.02,379.39 82.18,379.39 82.18,384.18 77.39,384.18 77.39,387.01 82.18,387.01 82.18,393.42 77.39,393.42 
				77.39,396.25 82.18,396.25 82.18,402.66 77.39,402.66 77.39,405.5 82.18,405.5 82.18,411.91 80.56,411.91 80.56,411.91 
				77.39,411.91 77.39,414.74 82.18,414.74 82.18,421.15 77.39,421.15 77.39,423.99 82.18,423.99 82.18,430.39 80.56,430.39 
				80.56,430.39 77.39,430.39 77.39,433.23 80.56,433.23 			"/>
			<path d="M148.52,456.48c0,6.45,5.25,11.7,11.7,11.7s11.7-5.25,11.7-11.7c0-6.45-5.25-11.7-11.7-11.7S148.52,450.03,148.52,456.48
				z M160.22,447.78c4.8,0,8.7,3.9,8.7,8.7c0,4.8-3.9,8.7-8.7,8.7s-8.7-3.9-8.7-8.7C151.52,451.69,155.42,447.78,160.22,447.78z"/>
			<rect x="138" y="433.23" width="2.83" height="4.79"/>
			<path d="M121.8,362.15c1.57,0,2.83-1.27,2.83-2.83c0-1.57-1.27-2.83-2.83-2.83c-1.57,0-2.83,1.27-2.83,2.83
				C118.96,360.88,120.23,362.15,121.8,362.15z"/>
			<path d="M171.92,517.1c0-6.45-5.25-11.7-11.7-11.7s-11.7,5.25-11.7,11.7c0,6.45,5.25,11.7,11.7,11.7S171.92,523.55,171.92,517.1z
				 M160.22,525.8c-4.8,0-8.7-3.9-8.7-8.7c0-4.8,3.9-8.7,8.7-8.7s8.7,3.9,8.7,8.7C168.92,521.89,165.02,525.8,160.22,525.8z"/>
			<path d="M94.08,459.18l20.61,20.61v5.62h-8.15v-5.54h-2.77v5.54h-8.31v-8.31H101v-2.77h-5.54v-5.54h-2.77v5.54h-5.54v2.77h5.54
				v8.31h-8.31v-5.54h-2.77v5.54h-8.15v-5.62L94.08,459.18L94.08,459.18l0-4.24l-22.04,22.04L50,454.94v4.24v0l20.61,20.61v5.62H68
				h-2.77h-2.77v-2.77v-2.77h-2.77v2.77v2.77h-2.77h-2.77h-2.77v-2.77v-2.77v-2.77h2.77h2.77v-2.77h-2.77h-2.77v-2.77v-2.77H50v36
				h1.38v-2.77v-2.77h2.77h2.77v-2.77h-2.77h-2.77v-2.77v-2.77v-2.77h2.77h2.77h2.77v2.77v2.77h2.77v-2.77v-2.77h2.77H68h2.61v5.62
				L50,514.4v4.24l22.04-22.04l22.04,22.04v0l22.04-22.04v-9.81h-1.27v0h1.27v-9.81l-22.04-22.04V459.18z M73.31,486.79h-1.27h-1.27
				v0h1.27L73.31,486.79L73.31,486.79z M114.69,493.79L94.08,514.4l-20.61-20.61v-5.62h8.15v5.54h2.77v-5.54h8.31v8.31h-5.54v2.77
				h5.54v5.54h2.77v-5.54H101v-2.77h-5.54v-8.31h8.31v5.54h2.77v-5.54h8.15V493.79z"/>
			<path d="M93.45,379.16c1.57,0,2.83-1.27,2.83-2.83c0-1.57-1.27-2.83-2.83-2.83s-2.83,1.27-2.83,2.83
				C90.62,377.89,91.89,379.16,93.45,379.16z"/>
			<rect x="91.42" y="433.23" width="2.83" height="4.79"/>
			<polygon points="148.84,533.13 146.01,533.13 146.01,533.13 141.22,533.13 141.22,533.13 135.14,533.13 135.14,533.13 
				130.35,533.13 130.35,533.13 127.52,533.13 127.52,533.13 122.73,533.13 122.73,535.97 127.52,535.97 127.52,540.76 
				130.35,540.76 130.35,535.97 135.14,535.97 135.14,535.97 136.76,535.97 136.76,542.38 131.98,542.38 131.98,545.21 
				136.76,545.21 136.76,550 139.6,550 139.6,545.21 144.38,545.21 144.38,542.38 139.6,542.38 139.6,535.97 141.22,535.97 
				141.22,535.97 146.01,535.97 146.01,540.76 148.84,540.76 148.84,535.97 153.63,535.97 153.63,533.13 148.84,533.13 			"/>
			<circle cx="99.12" cy="381.99" r="2.83"/>
			<path d="M110.46,362.15c1.57,0,2.83-1.27,2.83-2.83c0-1.57-1.27-2.83-2.83-2.83s-2.83,1.27-2.83,2.83
				C107.63,360.88,108.89,362.15,110.46,362.15z"/>
			<circle cx="110.46" cy="370.65" r="2.83"/>
			<path d="M104.79,379.16c1.57,0,2.83-1.27,2.83-2.83c0-1.57-1.27-2.83-2.83-2.83c-1.57,0-2.83,1.27-2.83,2.83
				C101.96,377.89,103.22,379.16,104.79,379.16z"/>
			<circle cx="99.12" cy="370.65" r="2.83"/>
		</g>
		<g>
			<path d="M237.05,443.63c1.57,0,2.83,1.27,2.83,2.83c0,1.57-1.27,2.83-2.83,2.83s-2.83-1.27-2.83-2.83
				C234.21,444.9,235.48,443.63,237.05,443.63z"/>
			<circle cx="231.38" cy="452.14" r="2.83"/>
			<path d="M248.39,443.63c1.57,0,2.83,1.27,2.83,2.83c0,1.57-1.27,2.83-2.83,2.83c-1.57,0-2.83-1.27-2.83-2.83
				C245.55,444.9,246.82,443.63,248.39,443.63z"/>
			<path d="M242.72,454.97c-1.57,0-2.83-1.27-2.83-2.83c0-1.57,1.27-2.83,2.83-2.83c1.57,0,2.83,1.27,2.83,2.83
				C245.55,453.7,244.28,454.97,242.72,454.97z"/>
			<path d="M242.72,437.96c1.57,0,2.83,1.27,2.83,2.83s-1.27,2.83-2.83,2.83c-1.57,0-2.83-1.27-2.83-2.83
				S241.15,437.96,242.72,437.96z"/>
			<path d="M225.71,449.3c-1.57,0-2.83-1.27-2.83-2.83c0-1.57,1.27-2.83,2.83-2.83c1.57,0,2.83,1.27,2.83,2.83
				C228.54,448.03,227.28,449.3,225.71,449.3z"/>
			<circle cx="248.39" cy="399" r="2.83"/>
			<circle cx="248.39" cy="423.79" r="2.83"/>
			<rect x="182.26" y="446.47" width="1.42" height="4.79"/>
			<circle cx="254.06" cy="440.8" r="2.83"/>
			<polygon points="217.27,433.23 217.27,439.64 222.06,439.64 222.06,442.47 217.27,442.47 217.27,447.26 214.44,447.26 
				214.44,442.47 209.65,442.47 209.65,439.64 214.44,439.64 214.44,433.23 			"/>
			<path d="M242.72,426.62c1.57,0,2.83,1.27,2.83,2.83c0,1.57-1.27,2.83-2.83,2.83c-1.57,0-2.83-1.27-2.83-2.83
				C239.88,427.89,241.15,426.62,242.72,426.62z"/>
			<polygon points="182.26,427.98 182.26,420.36 183.68,420.36 183.68,425.14 183.68,425.14 188.46,425.14 188.46,427.98 
				183.68,427.98 183.68,427.98 			"/>
			<path d="M242.72,466.31c-1.57,0-2.83-1.27-2.83-2.83c0-1.57,1.27-2.83,2.83-2.83c1.57,0,2.83,1.27,2.83,2.83
				C245.55,465.04,244.28,466.31,242.72,466.31z"/>
			<polygon points="192.92,408.04 190.08,408.04 190.08,403.25 185.3,403.25 183.68,403.25 183.68,404.87 183.68,409.66 
				188.46,409.66 188.46,412.5 183.68,412.5 183.68,417.28 182.26,417.28 182.26,386.39 183.68,386.39 183.68,391.17 188.46,391.17 
				188.46,394.01 183.68,394.01 183.68,398.8 183.68,400.42 185.3,400.42 190.08,400.42 190.08,395.63 192.92,395.63 192.92,400.42 
				197.71,400.42 197.71,403.25 192.92,403.25 			"/>
			<path d="M254.06,426.62c1.57,0,2.83,1.27,2.83,2.83c0,1.57-1.27,2.83-2.83,2.83s-2.83-1.27-2.83-2.83
				C251.22,427.89,252.49,426.62,254.06,426.62z"/>
			<circle cx="248.39" cy="435.13" r="2.83"/>
			<circle cx="248.39" cy="457.81" r="2.83"/>
			<path d="M254.06,396.17c-1.57,0-2.83-1.27-2.83-2.83c0-1.57,1.27-2.83,2.83-2.83s2.83,1.27,2.83,2.83
				C256.89,394.9,255.62,396.17,254.06,396.17z"/>
			<circle cx="231.38" cy="440.8" r="2.83"/>
			<circle cx="265.4" cy="452.14" r="2.83"/>
			<polygon points="224.92,533.13 224.92,526.73 220.13,526.73 220.13,523.89 224.92,523.89 224.92,519.1 227.75,519.1 
				227.75,523.89 232.54,523.89 232.54,526.73 227.75,526.73 227.75,533.13 			"/>
			<path d="M271.06,443.63c1.57,0,2.83,1.27,2.83,2.83c0,1.57-1.27,2.83-2.83,2.83s-2.83-1.27-2.83-2.83
				C268.23,444.9,269.5,443.63,271.06,443.63z"/>
			<path d="M182.26,518.64L182.26,518.64l22.04-22.04l22.04,22.04v0l22.04-22.04v-9.81h-1.27v0h1.27v-9.81l-22.04-22.04v4.24
				l20.61,20.61v5.62h-8.15v-5.54h-2.77v5.54h-8.31v-8.31h5.54v-2.77h-5.54v-5.54h-2.77v5.54h-5.54v2.77h5.54v8.31h-8.31v-5.54
				h-2.77v5.54h-8.15v-5.62l20.61-20.61h0v-4.24l-22.04,22.04l-22.04-22.04v4.24h0l20.61,20.61v5.62h-2.61h-2.77h-2.77v-2.77v-2.77
				h-2.77v2.77v2.77h-2.77h-2.77h-2.77v-2.77v-2.77v-2.77h2.77h2.77v-2.77h-2.77h-2.77v-2.77v-2.77h-1.38v36h1.38v-2.77v-2.77h2.77
				h2.77v-2.77h-2.77h-2.77v-2.77v-2.77v-2.77h2.77h2.77h2.77v2.77v2.77h2.77v-2.77v-2.77h2.77h2.77h2.61v5.62l-20.61,20.61
				L182.26,518.64L182.26,518.64z M205.73,488.17h8.15v5.54h2.77v-5.54h8.31v8.31h-5.54v2.77h5.54v5.54h2.77v-5.54h5.54v-2.77h-5.54
				v-8.31h8.31v5.54h2.77v-5.54h8.15v5.62l-20.61,20.61l-20.61-20.61V488.17z M204.3,486.79h-1.27v0L204.3,486.79l1.27,0v0H204.3z"
				/>
			<circle cx="254.06" cy="381.99" r="2.83"/>
			<polygon points="182.26,519.1 183.68,519.1 183.68,523.89 188.46,523.89 188.46,526.73 183.68,526.73 183.68,531.51 
				183.68,533.13 185.3,533.13 190.08,533.13 190.08,528.35 192.92,528.35 192.92,533.13 197.71,533.13 197.71,535.97 
				192.92,535.97 192.92,540.76 190.08,540.76 190.08,535.97 185.3,535.97 183.68,535.97 183.68,537.59 183.68,542.38 
				182.26,542.38 			"/>
			<polygon points="226.34,454.94 226.34,454.94 226.34,454.94 			"/>
			<polygon points="182.26,454.94 182.26,454.94 182.26,454.94 			"/>
			<circle cx="265.4" cy="440.8" r="2.83"/>
			<polygon points="182.26,550 182.26,542.38 183.68,542.38 183.68,542.38 188.46,542.38 188.46,545.21 183.68,545.21 183.68,550 
							"/>
			<path d="M242.72,367.82c1.57,0,2.83,1.27,2.83,2.83c0,1.57-1.27,2.83-2.83,2.83c-1.57,0-2.83-1.27-2.83-2.83
				C239.88,369.09,241.15,367.82,242.72,367.82z"/>
			<circle cx="248.39" cy="364.99" r="2.83"/>
			<path d="M248.39,379.16c-1.57,0-2.83-1.27-2.83-2.83c0-1.57,1.27-2.83,2.83-2.83c1.57,0,2.83,1.27,2.83,2.83
				C251.22,377.89,249.95,379.16,248.39,379.16z"/>
			<circle cx="248.39" cy="387.66" r="2.83"/>
			<circle cx="254.06" cy="463.47" r="2.83"/>
			<path d="M242.72,390.5c1.57,0,2.83,1.27,2.83,2.83c0,1.57-1.27,2.83-2.83,2.83c-1.57,0-2.83-1.27-2.83-2.83
				C239.88,391.77,241.15,390.5,242.72,390.5z"/>
			<circle cx="254.06" cy="452.14" r="2.83"/>
			<path d="M259.73,449.3c-1.57,0-2.83-1.27-2.83-2.83c0-1.57,1.27-2.83,2.83-2.83c1.57,0,2.83,1.27,2.83,2.83
				C262.56,448.03,261.29,449.3,259.73,449.3z"/>
			<path d="M242.72,379.16c1.57,0,2.83,1.27,2.83,2.83s-1.27,2.83-2.83,2.83c-1.57,0-2.83-1.27-2.83-2.83
				S241.15,379.16,242.72,379.16z"/>
			<circle cx="248.39" cy="353.65" r="2.83"/>
			<rect x="278.27" y="528.35" width="2.83" height="4.79"/>
			<polygon points="303.86,528.35 306.69,528.35 306.69,533.13 311.48,533.13 313.1,533.13 313.1,531.51 313.1,526.73 
				308.31,526.73 308.31,523.89 313.1,523.89 313.1,519.1 314.52,519.1 314.52,542.38 313.1,542.38 313.1,537.59 313.1,535.97 
				311.48,535.97 306.69,535.97 306.69,540.76 303.86,540.76 303.86,535.97 299.07,535.97 299.07,533.13 303.86,533.13 			"/>
			<path d="M292.48,528.8c6.45,0,11.7-5.25,11.7-11.7c0-6.45-5.25-11.7-11.7-11.7s-11.7,5.25-11.7,11.7
				C280.78,523.55,286.03,528.8,292.48,528.8z M283.78,517.1c0-4.8,3.9-8.7,8.7-8.7s8.7,3.9,8.7,8.7c0,4.8-3.9,8.7-8.7,8.7
				S283.78,521.89,283.78,517.1z"/>
			<polygon points="314.52,386.39 314.52,417.28 313.1,417.28 313.1,412.5 308.31,412.5 308.31,409.66 313.1,409.66 313.1,404.87 
				313.1,403.25 311.48,403.25 306.69,403.25 306.69,408.04 303.86,408.04 303.86,403.25 299.07,403.25 299.07,400.42 
				303.86,400.42 303.86,395.63 306.69,395.63 306.69,400.42 311.48,400.42 313.1,400.42 313.1,398.8 313.1,394.01 308.31,394.01 
				308.31,391.17 313.1,391.17 313.1,386.39 			"/>
			<polygon points="314.52,542.38 314.52,550 313.1,550 313.1,545.21 308.31,545.21 308.31,542.38 313.1,542.38 313.1,542.38 			"/>
			<polygon points="303.86,442.01 303.86,437.22 299.07,437.22 299.07,434.39 303.86,434.39 303.86,429.6 306.69,429.6 
				306.69,434.39 311.48,434.39 313.1,434.39 313.1,432.77 313.1,427.98 314.52,427.98 314.52,446.47 313.1,446.47 313.1,446.47 
				308.31,446.47 308.31,443.63 313.1,443.63 313.1,438.85 313.1,437.22 311.48,437.22 306.69,437.22 306.69,442.01 			"/>
			<rect x="313.1" y="446.47" width="1.42" height="4.79"/>
			<path d="M292.48,444.78c-6.45,0-11.7,5.25-11.7,11.7c0,6.45,5.25,11.7,11.7,11.7s11.7-5.25,11.7-11.7
				C304.18,450.03,298.93,444.78,292.48,444.78z M301.18,456.48c0,4.8-3.9,8.7-8.7,8.7s-8.7-3.9-8.7-8.7c0-4.8,3.9-8.7,8.7-8.7
				S301.18,451.69,301.18,456.48z"/>
			<polygon points="282.34,447.26 279.5,447.26 279.5,442.47 274.71,442.47 274.71,439.64 279.5,439.64 279.5,433.23 282.34,433.23 
				282.34,439.64 287.12,439.64 287.12,442.47 282.34,442.47 			"/>
			<polygon points="308.31,425.14 313.1,425.14 313.1,425.14 313.1,420.36 314.52,420.36 314.52,427.98 313.1,427.98 313.1,427.98 
				308.31,427.98 			"/>
			<path d="M236.67,517.1c0-6.45,5.25-11.7,11.7-11.7c0,0,0,0,0,0v3c0,0,0,0,0,0c-4.8,0-8.7,3.9-8.7,8.7c0,4.8,3.9,8.7,8.7,8.7
				c0,0,0,0,0,0v3c0,0,0,0,0,0C241.92,528.8,236.67,523.55,236.67,517.1z"/>
			<polygon points="192.92,442.01 190.08,442.01 190.08,437.22 185.3,437.22 183.68,437.22 183.68,438.85 183.68,443.63 
				188.46,443.63 188.46,446.47 183.68,446.47 183.68,446.47 182.26,446.47 182.26,427.98 183.68,427.98 183.68,432.77 
				183.68,434.39 185.3,434.39 190.08,434.39 190.08,429.6 192.92,429.6 192.92,434.39 197.71,434.39 197.71,437.22 192.92,437.22 
							"/>
			<path d="M245.55,469.14c0-1.57,1.27-2.83,2.83-2.83c1.57,0,2.83,1.27,2.83,2.83c0,1.57-1.27,2.83-2.83,2.83
				C246.82,471.98,245.55,470.71,245.55,469.14z"/>
			<path d="M260.1,517.1c0,6.45-5.25,11.7-11.7,11.7c0,0,0,0,0,0v-3c0,0,0,0,0,0c4.8,0,8.7-3.9,8.7-8.7c0-4.8-3.9-8.7-8.7-8.7
				c0,0,0,0,0,0v-3c0,0,0,0,0,0C254.85,505.4,260.1,510.65,260.1,517.1z"/>
			<polygon points="270.44,454.94 270.44,454.94 270.44,454.94 			"/>
			<rect x="215.67" y="528.35" width="2.83" height="4.79"/>
			<rect x="234.16" y="528.35" width="2.83" height="4.79"/>
			<polygon points="259.78,533.13 262.61,533.13 262.61,533.13 267.4,533.13 267.4,533.13 273.48,533.13 273.48,533.13 
				278.27,533.13 278.27,533.13 281.1,533.13 281.1,533.13 285.89,533.13 285.89,535.97 281.1,535.97 281.1,540.76 278.27,540.76 
				278.27,535.97 273.48,535.97 273.48,535.97 271.86,535.97 271.86,542.38 276.64,542.38 276.64,545.21 271.86,545.21 271.86,550 
				269.02,550 269.02,545.21 264.23,545.21 264.23,542.38 269.02,542.38 269.02,535.97 267.4,535.97 267.4,535.97 262.61,535.97 
				262.61,540.76 259.78,540.76 259.78,535.97 254.99,535.97 254.99,533.13 259.78,533.13 			"/>
			<polygon points="271.86,519.1 271.86,523.89 276.64,523.89 276.64,526.73 271.86,526.73 271.86,533.13 269.02,533.13 
				269.02,526.73 264.23,526.73 264.23,523.89 269.02,523.89 269.02,519.1 			"/>
			<rect x="259.78" y="528.35" width="2.83" height="4.79"/>
			<circle cx="231.38" cy="370.65" r="2.83"/>
			<circle cx="231.38" cy="381.99" r="2.83"/>
			<path d="M225.71,379.16c-1.57,0-2.83-1.27-2.83-2.83c0-1.57,1.27-2.83,2.83-2.83c1.57,0,2.83,1.27,2.83,2.83
				C228.54,377.89,227.28,379.16,225.71,379.16z"/>
			<path d="M237.05,379.16c-1.57,0-2.83-1.27-2.83-2.83c0-1.57,1.27-2.83,2.83-2.83s2.83,1.27,2.83,2.83
				C239.88,377.89,238.61,379.16,237.05,379.16z"/>
			<polygon points="217.27,393.42 223.68,393.42 223.68,388.63 226.52,388.63 226.52,393.42 231.3,393.42 231.3,396.25 
				226.52,396.25 226.52,401.04 223.68,401.04 223.68,396.25 217.27,396.25 217.27,402.66 222.06,402.66 222.06,405.5 217.27,405.5 
				217.27,411.91 218.9,411.91 218.9,411.91 223.68,411.91 223.68,407.12 226.52,407.12 226.52,411.91 231.3,411.91 231.3,411.91 
				232.93,411.91 232.93,405.5 228.14,405.5 228.14,402.66 232.93,402.66 232.93,397.88 235.76,397.88 235.76,402.66 240.55,402.66 
				240.55,405.5 235.76,405.5 235.76,411.91 237.38,411.91 237.38,411.91 242.17,411.91 242.17,407.12 245.01,407.12 245.01,411.91 
				248.38,411.91 248.38,414.74 245.01,414.74 245.01,419.53 242.17,419.53 242.17,414.74 235.76,414.74 235.76,421.15 
				240.55,421.15 240.55,423.99 235.76,423.99 235.76,428.77 232.93,428.77 232.93,423.99 228.14,423.99 228.14,421.15 
				232.93,421.15 232.93,414.74 226.52,414.74 226.52,419.53 223.68,419.53 223.68,414.74 217.27,414.74 217.27,421.15 
				222.06,421.15 222.06,423.99 217.27,423.99 217.27,430.39 218.9,430.39 218.9,430.39 223.68,430.39 223.68,425.61 226.52,425.61 
				226.52,430.39 231.3,430.39 231.3,433.23 226.52,433.23 226.52,433.23 223.68,433.23 223.68,433.23 218.9,433.23 218.9,433.23 
				212.82,433.23 212.82,433.23 209.65,433.23 209.65,430.39 212.82,430.39 212.82,430.39 214.44,430.39 214.44,423.99 
				209.65,423.99 209.65,421.15 214.44,421.15 214.44,414.74 209.65,414.74 209.65,411.91 212.82,411.91 212.82,411.91 
				214.44,411.91 214.44,405.5 209.65,405.5 209.65,402.66 214.44,402.66 214.44,396.25 209.65,396.25 209.65,393.42 214.44,393.42 
				214.44,387.01 209.65,387.01 209.65,384.18 214.44,384.18 214.44,379.39 217.27,379.39 217.27,384.18 222.06,384.18 
				222.06,387.01 217.27,387.01 			"/>
			<polygon points="283.96,433.23 277.88,433.23 277.88,433.23 273.09,433.23 273.09,433.23 270.26,433.23 270.26,433.23 
				265.47,433.23 265.47,430.39 270.26,430.39 270.26,425.61 273.09,425.61 273.09,430.39 277.88,430.39 277.88,430.39 
				279.5,430.39 279.5,423.99 274.71,423.99 274.71,421.15 279.5,421.15 279.5,414.74 273.09,414.74 273.09,419.53 270.26,419.53 
				270.26,414.74 263.85,414.74 263.85,421.15 268.64,421.15 268.64,423.99 263.85,423.99 263.85,428.77 261.01,428.77 
				261.01,423.99 256.23,423.99 256.23,421.15 261.01,421.15 261.01,414.74 254.6,414.74 254.6,419.53 251.77,419.53 251.77,414.74 
				248.4,414.74 248.4,411.91 251.77,411.91 251.77,407.12 254.6,407.12 254.6,411.91 259.39,411.91 259.39,411.91 261.01,411.91 
				261.01,405.5 256.23,405.5 256.23,402.66 261.01,402.66 261.01,397.88 263.85,397.88 263.85,402.66 268.64,402.66 268.64,405.5 
				263.85,405.5 263.85,411.91 265.47,411.91 265.47,411.91 270.26,411.91 270.26,407.12 273.09,407.12 273.09,411.91 
				277.88,411.91 277.88,411.91 279.5,411.91 279.5,405.5 274.71,405.5 274.71,402.66 279.5,402.66 279.5,396.25 273.09,396.25 
				273.09,401.04 270.26,401.04 270.26,396.25 265.47,396.25 265.47,393.42 270.26,393.42 270.26,388.63 273.09,388.63 
				273.09,393.42 279.5,393.42 279.5,387.01 274.71,387.01 274.71,384.18 279.5,384.18 279.5,379.39 282.34,379.39 282.34,384.18 
				287.12,384.18 287.12,387.01 282.34,387.01 282.34,393.42 287.12,393.42 287.12,396.25 282.34,396.25 282.34,402.66 
				287.12,402.66 287.12,405.5 282.34,405.5 282.34,411.91 283.96,411.91 283.96,411.91 287.12,411.91 287.12,414.74 282.34,414.74 
				282.34,421.15 287.12,421.15 287.12,423.99 282.34,423.99 282.34,430.39 283.96,430.39 283.96,430.39 287.12,430.39 
				287.12,433.23 283.96,433.23 			"/>
			<path d="M204.3,444.78c-6.45,0-11.7,5.25-11.7,11.7c0,6.45,5.25,11.7,11.7,11.7s11.7-5.25,11.7-11.7
				C216,450.03,210.75,444.78,204.3,444.78z M213,456.48c0,4.8-3.9,8.7-8.7,8.7s-8.7-3.9-8.7-8.7c0-4.8,3.9-8.7,8.7-8.7
				S213,451.69,213,456.48z"/>
			<rect x="223.68" y="433.23" width="2.83" height="4.79"/>
			<path d="M242.72,362.15c-1.57,0-2.83-1.27-2.83-2.83c0-1.57,1.27-2.83,2.83-2.83c1.57,0,2.83,1.27,2.83,2.83
				C245.55,360.88,244.28,362.15,242.72,362.15z"/>
			<path d="M204.3,528.8c6.45,0,11.7-5.25,11.7-11.7c0-6.45-5.25-11.7-11.7-11.7s-11.7,5.25-11.7,11.7
				C192.6,523.55,197.85,528.8,204.3,528.8z M195.6,517.1c0-4.8,3.9-8.7,8.7-8.7s8.7,3.9,8.7,8.7c0,4.8-3.9,8.7-8.7,8.7
				S195.6,521.89,195.6,517.1z"/>
			<path d="M270.44,454.94l-22.04,22.04v9.81h1.27v0h-1.27v9.81l22.04,22.04v0l22.04-22.04l22.04,22.04v-4.24l-20.61-20.61v-5.62
				h2.61h2.77h2.77v2.77v2.77h2.77v-2.77v-2.77h2.77h2.77h2.77v2.77v2.77v2.77h-2.77h-2.77v2.77h2.77h2.77v2.77v2.77h1.38v-36h-1.38
				v2.77v2.77h-2.77h-2.77v2.77h2.77h2.77v2.77v2.77v2.77h-2.77h-2.77h-2.77v-2.77v-2.77h-2.77v2.77v2.77h-2.77h-2.77h-2.61v-5.62
				l20.61-20.61v0v-4.24l-22.04,22.04L270.44,454.94l0,4.24h0l20.61,20.61v5.62h-8.15v-5.54h-2.77v5.54h-8.31v-8.31h5.54v-2.77
				h-5.54v-5.54h-2.77v5.54h-5.54v2.77h5.54v8.31h-8.31v-5.54h-2.77v5.54h-8.15v-5.62l20.61-20.61V454.94z M291.21,486.79h1.27h1.27
				v0h-1.27L291.21,486.79L291.21,486.79z M249.83,488.17h8.15v5.54h2.77v-5.54h8.31v8.31h-5.54v2.77h5.54v5.54h2.77v-5.54h5.54
				v-2.77h-5.54v-8.31h8.31v5.54h2.77v-5.54h8.15v5.62l-20.61,20.61l-20.61-20.61V488.17z"/>
			<path d="M271.06,379.16c-1.57,0-2.83-1.27-2.83-2.83c0-1.57,1.27-2.83,2.83-2.83s2.83,1.27,2.83,2.83
				C273.9,377.89,272.63,379.16,271.06,379.16z"/>
			<rect x="270.26" y="433.23" width="2.83" height="4.79"/>
			<polygon points="215.67,533.13 218.51,533.13 218.51,533.13 223.3,533.13 223.3,533.13 229.38,533.13 229.38,533.13 
				234.16,533.13 234.16,533.13 237,533.13 237,533.13 241.78,533.13 241.78,535.97 237,535.97 237,540.76 234.16,540.76 
				234.16,535.97 229.38,535.97 229.38,535.97 227.75,535.97 227.75,542.38 232.54,542.38 232.54,545.21 227.75,545.21 227.75,550 
				224.92,550 224.92,545.21 220.13,545.21 220.13,542.38 224.92,542.38 224.92,535.97 223.3,535.97 223.3,535.97 218.51,535.97 
				218.51,540.76 215.67,540.76 215.67,535.97 210.89,535.97 210.89,533.13 215.67,533.13 			"/>
			<circle cx="265.4" cy="381.99" r="2.83"/>
			<path d="M254.06,362.15c-1.57,0-2.83-1.27-2.83-2.83c0-1.57,1.27-2.83,2.83-2.83s2.83,1.27,2.83,2.83
				C256.89,360.88,255.62,362.15,254.06,362.15z"/>
			<circle cx="254.06" cy="370.65" r="2.83"/>
			<path d="M259.73,379.16c-1.57,0-2.83-1.27-2.83-2.83c0-1.57,1.27-2.83,2.83-2.83c1.57,0,2.83,1.27,2.83,2.83
				C262.56,377.89,261.29,379.16,259.73,379.16z"/>
			<circle cx="265.4" cy="370.65" r="2.83"/>
		</g>
	</g>
</g>
<g>
</g>
<g>
</g>
<g>
</g>
<g>
</g>
<g>
</g>
<g>
</g>
<g>
</g>
<g>
</g>
<g>
</g>
<g>
</g>
<g>
</g>
<g>
</g>
<g>
</g>
<g>
</g>
<g>
</g>
</svg>
