<?xml version="1.0" encoding="utf-8"?>
<!-- Generator: Adobe Illustrator 27.2.0, SVG Export Plug-In . SVG Version: 6.00 Build 0)  -->
<svg version="1.1" id="Layer_1" xmlns="http://www.w3.org/2000/svg" xmlns:xlink="http://www.w3.org/1999/xlink" x="0px" y="0px"
	 viewBox="0 0 800 600" style="enable-background:new 0 0 800 600;" xml:space="preserve">
<g>
	<g>
		<rect x="261.39" y="375.9" transform="matrix(0.7071 -0.7071 0.7071 0.7071 -190.4151 297.7658)" width="5.67" height="5.67"/>
		<rect x="216.85" y="404.4" transform="matrix(0.7071 -0.7071 0.7071 0.7071 -223.615 274.6208)" width="5.67" height="5.67"/>
		<rect x="433.12" y="456.98" transform="matrix(0.7071 -0.7071 0.7071 0.7071 -197.4487 442.9449)" width="5.67" height="5.67"/>
		<rect x="269.41" y="367.88" transform="matrix(0.7071 -0.7071 0.7071 0.7071 -182.3975 301.0868)" width="5.67" height="5.67"/>
		<rect x="200.82" y="412.42" transform="matrix(0.7071 -0.7071 0.7071 0.7071 -233.9809 265.6305)" width="5.67" height="5.67"/>
		<rect x="200.82" y="404.4" transform="matrix(0.7071 -0.7071 0.7071 0.7071 -228.3116 263.2822)" width="5.67" height="5.67"/>
		<rect x="449.16" y="456.98" transform="matrix(0.7071 -0.7071 0.7071 0.7071 -192.7521 454.2835)" width="5.67" height="5.67"/>
		<rect x="200.82" y="420.44" transform="matrix(0.7071 -0.7071 0.7071 0.7071 -239.6501 267.9788)" width="5.67" height="5.67"/>
		<rect x="457.18" y="456.98" transform="matrix(0.7071 -0.7071 0.7071 0.7071 -190.4038 459.9528)" width="5.67" height="5.67"/>
		<rect x="208.84" y="412.42" transform="matrix(0.7071 -0.7071 0.7071 0.7071 -231.6326 271.2998)" width="5.67" height="5.67"/>
		<rect x="208.84" y="404.4" transform="matrix(0.7071 -0.7071 0.7071 0.7071 -225.9633 268.9515)" width="5.67" height="5.67"/>
		<polygon points="263.08,340.39 273.86,340.39 273.86,329.62 268.47,335.01 268.47,324.23 257.7,335.01 268.47,335.01 		"/>
		<rect x="253.38" y="343.83" transform="matrix(0.7071 -0.7071 0.7071 0.7071 -170.0862 282.7034)" width="5.67" height="5.67"/>
		<rect x="253.38" y="335.81" transform="matrix(0.7071 -0.7071 0.7071 0.7071 -164.417 280.3551)" width="5.67" height="5.67"/>
		<polygon points="447.49,477.46 447.49,488.23 458.26,488.23 		"/>
		<polygon points="268.47,345.78 279.24,345.78 273.86,351.17 284.63,351.17 284.63,340.39 279.24,345.78 279.24,335.01 		"/>
		<rect x="441.14" y="456.98" transform="matrix(0.7071 -0.7071 0.7071 0.7071 -195.1004 448.6142)" width="5.67" height="5.67"/>
		<polygon points="290.02,356.55 290.02,345.78 279.24,356.55 		"/>
		<rect x="269.41" y="351.85" transform="matrix(0.7071 -0.7071 0.7071 0.7071 -171.0589 296.3902)" width="5.67" height="5.67"/>
		<polygon points="463.65,461.3 463.65,472.07 474.42,472.07 		"/>
		<rect x="277.43" y="359.86" transform="matrix(0.7071 -0.7071 0.7071 0.7071 -174.3799 304.4078)" width="5.67" height="5.67"/>
		<rect x="261.39" y="343.83" transform="matrix(0.7071 -0.7071 0.7071 0.7071 -167.7379 288.3727)" width="5.67" height="5.67"/>
		<polygon points="442.1,493.62 452.88,493.62 447.49,488.23 442.1,482.85 		"/>
		<polygon points="458.26,477.46 452.88,472.07 452.88,482.85 463.65,482.85 458.26,477.46 469.04,477.46 463.65,472.07 
			458.26,466.69 		"/>
		<rect x="216.85" y="420.44" transform="matrix(0.7071 -0.7071 0.7071 0.7071 -234.9535 279.3174)" width="5.67" height="5.67"/>
		<rect x="417.09" y="456.98" transform="matrix(0.7071 -0.7071 0.7071 0.7071 -202.1453 431.6063)" width="5.67" height="5.67"/>
		<rect x="261.39" y="367.88" transform="matrix(0.7071 -0.7071 0.7071 0.7071 -184.7458 295.4175)" width="5.67" height="5.67"/>
		<rect x="232.89" y="396.39" transform="matrix(0.7071 -0.7071 0.7071 0.7071 -213.2491 283.6111)" width="5.67" height="5.67"/>
		<rect x="240.91" y="396.39" transform="matrix(0.7071 -0.7071 0.7071 0.7071 -210.9008 289.2804)" width="5.67" height="5.67"/>
		<rect x="311.71" y="270.61" width="5.67" height="5.67"/>
		<rect x="232.89" y="404.4" transform="matrix(0.7071 -0.7071 0.7071 0.7071 -218.9184 285.9594)" width="5.67" height="5.67"/>
		<rect x="441.14" y="473.01" transform="matrix(0.7071 -0.7071 0.7071 0.7071 -206.439 453.3108)" width="5.67" height="5.67"/>
		<rect x="433.12" y="481.03" transform="matrix(0.7071 -0.7071 0.7071 0.7071 -214.4566 449.9898)" width="5.67" height="5.67"/>
		<rect x="247.05" y="390.24" transform="matrix(0.7071 -0.7071 0.7071 0.7071 -204.7586 291.8246)" width="5.67" height="5.67"/>
		<rect x="409.07" y="456.98" transform="matrix(0.7071 -0.7071 0.7071 0.7071 -204.4936 425.937)" width="5.67" height="5.67"/>
		<rect x="417.09" y="465" transform="matrix(0.7071 -0.7071 0.7071 0.7071 -207.8146 433.9546)" width="5.67" height="5.67"/>
		<rect x="425.11" y="473.01" transform="matrix(0.7071 -0.7071 0.7071 0.7071 -211.1356 441.9722)" width="5.67" height="5.67"/>
		<rect x="192.8" y="372.33" transform="matrix(0.7071 -0.7071 0.7071 0.7071 -207.9827 248.2198)" width="5.67" height="5.67"/>
		<rect x="168.75" y="372.33" transform="matrix(0.7071 -0.7071 0.7071 0.7071 -215.0276 231.2119)" width="5.67" height="5.67"/>
		<rect x="253.38" y="383.92" transform="matrix(0.7071 -0.7071 0.7071 0.7071 -198.4327 294.4449)" width="5.67" height="5.67"/>
		<rect x="253.38" y="375.9" transform="matrix(0.7071 -0.7071 0.7071 0.7071 -192.7634 292.0965)" width="5.67" height="5.67"/>
		<rect x="261.39" y="351.85" transform="matrix(0.7071 -0.7071 0.7071 0.7071 -173.4072 290.7209)" width="5.67" height="5.67"/>
		<rect x="433.12" y="473.01" transform="matrix(0.7071 -0.7071 0.7071 0.7071 -208.7873 447.6415)" width="5.67" height="5.67"/>
		<rect x="192.8" y="436.47" transform="matrix(0.7071 -0.7071 0.7071 0.7071 -253.337 267.0061)" width="5.67" height="5.67"/>
		<rect x="208.84" y="428.46" transform="matrix(0.7071 -0.7071 0.7071 0.7071 -242.9711 275.9964)" width="5.67" height="5.67"/>
		<rect x="253.38" y="351.85" transform="matrix(0.7071 -0.7071 0.7071 0.7071 -175.7555 285.0517)" width="5.67" height="5.67"/>
		<rect x="192.8" y="404.4" transform="matrix(0.7071 -0.7071 0.7071 0.7071 -230.6599 257.6129)" width="5.67" height="5.67"/>
		<rect x="441.14" y="465" transform="matrix(0.7071 -0.7071 0.7071 0.7071 -200.7697 450.9625)" width="5.67" height="5.67"/>
		<rect x="261.39" y="359.86" transform="matrix(0.7071 -0.7071 0.7071 0.7071 -179.0765 293.0692)" width="5.67" height="5.67"/>
		<rect x="269.41" y="359.86" transform="matrix(0.7071 -0.7071 0.7071 0.7071 -176.7282 298.7385)" width="5.67" height="5.67"/>
		<rect x="200.82" y="436.47" transform="matrix(0.7071 -0.7071 0.7071 0.7071 -250.9887 272.6754)" width="5.67" height="5.67"/>
		<rect x="253.38" y="367.88" transform="matrix(0.7071 -0.7071 0.7071 0.7071 -187.0941 289.7482)" width="5.67" height="5.67"/>
		<rect x="425.11" y="465" transform="matrix(0.7071 -0.7071 0.7071 0.7071 -205.4663 439.6239)" width="5.67" height="5.67"/>
		<rect x="449.16" y="465" transform="matrix(0.7071 -0.7071 0.7071 0.7071 -198.4214 456.6318)" width="5.67" height="5.67"/>
		<rect x="253.38" y="359.86" transform="matrix(0.7071 -0.7071 0.7071 0.7071 -181.4248 287.4)" width="5.67" height="5.67"/>
		<rect x="433.12" y="465" transform="matrix(0.7071 -0.7071 0.7071 0.7071 -203.118 445.2932)" width="5.67" height="5.67"/>
		<rect x="192.8" y="444.49" transform="matrix(0.7071 -0.7071 0.7071 0.7071 -259.0063 269.3544)" width="5.67" height="5.67"/>
		<rect x="224.87" y="412.42" transform="matrix(0.7071 -0.7071 0.7071 0.7071 -226.9359 282.6384)" width="5.67" height="5.67"/>
		<rect x="319.99" y="351.87" transform="matrix(0.7071 -0.7071 0.7071 0.7071 -156.258 332.1599)" width="5.67" height="5.67"/>
		<rect x="328.01" y="343.85" transform="matrix(0.7071 -0.7071 0.7071 0.7071 -148.2406 335.4846)" width="5.67" height="5.67"/>
		<rect x="328.01" y="351.87" transform="matrix(0.7071 -0.7071 0.7071 0.7071 -153.9099 337.8329)" width="5.67" height="5.67"/>
		<rect x="311.98" y="359.89" transform="matrix(0.7071 -0.7071 0.7071 0.7071 -164.2758 328.8425)" width="5.67" height="5.67"/>
		<rect x="319.99" y="367.9" transform="matrix(0.7071 -0.7071 0.7071 0.7071 -167.597 336.8639)" width="5.67" height="5.67"/>
		<rect x="328.01" y="367.9" transform="matrix(0.7071 -0.7071 0.7071 0.7071 -165.2484 342.5294)" width="5.67" height="5.67"/>
		<rect x="328.01" y="375.92" transform="matrix(0.7071 -0.7071 0.7071 0.7071 -170.9177 344.8777)" width="5.67" height="5.67"/>
		<rect x="336.03" y="367.9" transform="matrix(0.7071 -0.7071 0.7071 0.7071 -162.9001 348.1987)" width="5.67" height="5.67"/>
		<rect x="319.99" y="359.89" transform="matrix(0.7071 -0.7071 0.7071 0.7071 -161.9272 334.5082)" width="5.67" height="5.67"/>
		<rect x="328.01" y="359.89" transform="matrix(0.7071 -0.7071 0.7071 0.7071 -159.5792 340.1812)" width="5.67" height="5.67"/>
		<rect x="364.53" y="396.41" transform="matrix(0.7071 -0.7071 0.7071 0.7071 -174.7066 376.702)" width="5.67" height="5.67"/>
		<rect x="372.55" y="396.41" transform="matrix(0.7071 -0.7071 0.7071 0.7071 -172.3584 382.3755)" width="5.67" height="5.67"/>
		<rect x="380.57" y="396.41" transform="matrix(0.7071 -0.7071 0.7071 0.7071 -170.01 388.0406)" width="5.67" height="5.67"/>
		<rect x="336.03" y="375.92" transform="matrix(0.7071 -0.7071 0.7071 0.7071 -168.5694 350.547)" width="5.67" height="5.67"/>
		<rect x="289.04" y="259.27" width="5.67" height="5.67"/>
		<rect x="388.58" y="396.41" transform="matrix(0.7071 -0.7071 0.7071 0.7071 -167.6617 393.7099)" width="5.67" height="5.67"/>
		<rect x="336.03" y="383.94" transform="matrix(0.7071 -0.7071 0.7071 0.7071 -174.2388 352.8953)" width="5.67" height="5.67"/>
		<rect x="342.35" y="390.26" transform="matrix(0.7071 -0.7071 0.7071 0.7071 -176.859 359.2213)" width="5.67" height="5.67"/>
		<rect x="356.51" y="396.41" transform="matrix(0.7071 -0.7071 0.7071 0.7071 -177.0549 371.0327)" width="5.67" height="5.67"/>
		<rect x="348.5" y="396.41" transform="matrix(0.7071 -0.7071 0.7071 0.7071 -179.4032 365.3634)" width="5.67" height="5.67"/>
		<polygon points="310.46,351.21 305.08,345.82 305.08,356.59 315.85,356.59 310.46,351.21 321.24,351.21 315.85,345.82 
			310.46,340.43 		"/>
		<polygon points="321.24,340.43 332.01,340.43 326.62,335.05 337.4,335.05 326.62,324.27 326.62,335.05 321.24,329.66 		"/>
		<rect x="300.38" y="270.61" width="5.67" height="5.67"/>
		<rect x="294.71" y="276.28" width="5.67" height="5.67"/>
		<rect x="289.04" y="270.61" width="5.67" height="5.67"/>
		<rect x="294.71" y="253.6" width="5.67" height="5.67"/>
		<rect x="294.71" y="264.94" width="5.67" height="5.67"/>
		<rect x="294.71" y="287.62" width="5.67" height="5.67"/>
		<rect x="289.04" y="281.95" width="5.67" height="5.67"/>
		<rect x="283.37" y="276.28" width="5.67" height="5.67"/>
		<rect x="300.38" y="259.27" width="5.67" height="5.67"/>
		<rect x="336.03" y="343.85" transform="matrix(0.7071 -0.7071 0.7071 0.7071 -145.8923 341.1538)" width="5.67" height="5.67"/>
		<rect x="306.04" y="264.94" width="5.67" height="5.67"/>
		<rect x="336.03" y="359.89" transform="matrix(0.7071 -0.7071 0.7071 0.7071 -157.2309 345.8504)" width="5.67" height="5.67"/>
		<rect x="336.03" y="351.87" transform="matrix(0.7071 -0.7071 0.7071 0.7071 -151.5616 343.5021)" width="5.67" height="5.67"/>
		<rect x="336.03" y="335.83" transform="matrix(0.7071 -0.7071 0.7071 0.7071 -140.223 338.8055)" width="5.67" height="5.67"/>
		<rect x="396.6" y="404.42" transform="matrix(0.7071 -0.7071 0.7071 0.7071 -170.9827 401.7274)" width="5.67" height="5.67"/>
		<polygon points="315.85,335.05 315.85,345.82 326.62,345.82 		"/>
		<rect x="300.38" y="281.95" width="5.67" height="5.67"/>
		<rect x="306.04" y="276.28" width="5.67" height="5.67"/>
		<rect x="396.6" y="372.35" transform="matrix(0.7071 -0.7071 0.7071 0.7071 -148.3055 392.3343)" width="5.67" height="5.67"/>
		<rect x="412.64" y="372.35" transform="matrix(0.7071 -0.7071 0.7071 0.7071 -143.6089 403.6728)" width="5.67" height="5.67"/>
		<rect x="420.65" y="380.37" transform="matrix(0.7071 -0.7071 0.7071 0.7071 -146.9299 411.6904)" width="5.67" height="5.67"/>
		<rect x="412.64" y="396.41" transform="matrix(0.7071 -0.7071 0.7071 0.7071 -160.6168 410.7177)" width="5.67" height="5.67"/>
		<rect x="420.65" y="388.39" transform="matrix(0.7071 -0.7071 0.7071 0.7071 -152.599 414.0431)" width="5.67" height="5.67"/>
		<rect x="277.7" y="270.61" width="5.67" height="5.67"/>
		<rect x="396.6" y="388.39" transform="matrix(0.7071 -0.7071 0.7071 0.7071 -159.6441 397.0309)" width="5.67" height="5.67"/>
		<rect x="396.6" y="444.51" transform="matrix(0.7071 -0.7071 0.7071 0.7071 -199.3292 413.4689)" width="5.67" height="5.67"/>
		<rect x="404.62" y="372.35" transform="matrix(0.7071 -0.7071 0.7071 0.7071 -145.9572 398.0035)" width="5.67" height="5.67"/>
		<rect x="396.6" y="380.37" transform="matrix(0.7071 -0.7071 0.7071 0.7071 -153.9748 394.6826)" width="5.67" height="5.67"/>
		<rect x="396.6" y="396.41" transform="matrix(0.7071 -0.7071 0.7071 0.7071 -165.3134 399.3792)" width="5.67" height="5.67"/>
		<rect x="420.65" y="396.41" transform="matrix(0.7071 -0.7071 0.7071 0.7071 -158.2685 416.3871)" width="5.67" height="5.67"/>
		<rect x="404.62" y="388.39" transform="matrix(0.7071 -0.7071 0.7071 0.7071 -157.2958 402.7001)" width="5.67" height="5.67"/>
		<rect x="420.65" y="372.35" transform="matrix(0.7071 -0.7071 0.7071 0.7071 -141.2606 409.3421)" width="5.67" height="5.67"/>
		<rect x="402.74" y="450.65" transform="matrix(0.7071 -0.7071 0.7071 0.7071 -201.8733 419.6111)" width="5.67" height="5.67"/>
		<rect x="425.11" y="456.98" transform="matrix(0.7071 -0.7071 0.7071 0.7071 -199.7969 437.2708)" width="5.67" height="5.67"/>
		<rect x="412.64" y="380.37" transform="matrix(0.7071 -0.7071 0.7071 0.7071 -149.2782 406.0211)" width="5.67" height="5.67"/>
		<rect x="412.64" y="388.39" transform="matrix(0.7071 -0.7071 0.7071 0.7071 -154.9474 408.3738)" width="5.67" height="5.67"/>
		<rect x="396.6" y="412.44" transform="matrix(0.7071 -0.7071 0.7071 0.7071 -176.652 404.0757)" width="5.67" height="5.67"/>
		<rect x="404.62" y="396.41" transform="matrix(0.7071 -0.7071 0.7071 0.7071 -162.9651 405.0485)" width="5.67" height="5.67"/>
		<rect x="404.62" y="380.37" transform="matrix(0.7071 -0.7071 0.7071 0.7071 -151.6265 400.3518)" width="5.67" height="5.67"/>
		<rect x="380.57" y="420.46" transform="matrix(0.7071 -0.7071 0.7071 0.7071 -187.0179 395.0855)" width="5.67" height="5.67"/>
		<rect x="372.55" y="404.42" transform="matrix(0.7071 -0.7071 0.7071 0.7071 -178.0278 384.7238)" width="5.67" height="5.67"/>
		<rect x="372.55" y="412.44" transform="matrix(0.7071 -0.7071 0.7071 0.7071 -183.6969 387.0679)" width="5.67" height="5.67"/>
		<rect x="380.57" y="404.42" transform="matrix(0.7071 -0.7071 0.7071 0.7071 -175.6793 390.3889)" width="5.67" height="5.67"/>
		<rect x="396.6" y="428.48" transform="matrix(0.7071 -0.7071 0.7071 0.7071 -187.9906 408.7723)" width="5.67" height="5.67"/>
		<rect x="283.37" y="264.94" width="5.67" height="5.67"/>
		<rect x="396.6" y="420.46" transform="matrix(0.7071 -0.7071 0.7071 0.7071 -182.3213 406.424)" width="5.67" height="5.67"/>
		<rect x="388.58" y="428.48" transform="matrix(0.7071 -0.7071 0.7071 0.7071 -190.3389 403.1031)" width="5.67" height="5.67"/>
		<rect x="388.58" y="412.44" transform="matrix(0.7071 -0.7071 0.7071 0.7071 -179.0003 398.4065)" width="5.67" height="5.67"/>
		<rect x="356.51" y="404.42" transform="matrix(0.7071 -0.7071 0.7071 0.7071 -182.7242 373.381)" width="5.67" height="5.67"/>
		<rect x="364.53" y="412.44" transform="matrix(0.7071 -0.7071 0.7071 0.7071 -186.0452 381.3986)" width="5.67" height="5.67"/>
		<rect x="372.55" y="420.46" transform="matrix(0.7071 -0.7071 0.7071 0.7071 -189.3662 389.4162)" width="5.67" height="5.67"/>
		<rect x="380.57" y="428.48" transform="matrix(0.7071 -0.7071 0.7071 0.7071 -192.6871 397.4338)" width="5.67" height="5.67"/>
		<rect x="388.58" y="436.49" transform="matrix(0.7071 -0.7071 0.7071 0.7071 -196.0079 405.4469)" width="5.67" height="5.67"/>
		<rect x="388.58" y="404.42" transform="matrix(0.7071 -0.7071 0.7071 0.7071 -173.331 396.0582)" width="5.67" height="5.67"/>
		<rect x="396.6" y="436.49" transform="matrix(0.7071 -0.7071 0.7071 0.7071 -193.6601 411.1252)" width="5.67" height="5.67"/>
		<rect x="380.57" y="412.44" transform="matrix(0.7071 -0.7071 0.7071 0.7071 -181.3486 392.7372)" width="5.67" height="5.67"/>
		<rect x="388.58" y="420.46" transform="matrix(0.7071 -0.7071 0.7071 0.7071 -184.6696 400.7548)" width="5.67" height="5.67"/>
		<rect x="364.53" y="404.42" transform="matrix(0.7071 -0.7071 0.7071 0.7071 -180.3759 379.0503)" width="5.67" height="5.67"/>
		<rect x="172.32" y="464.98" transform="matrix(0.7071 -0.7071 0.7071 0.7071 -279.492 260.869)" width="5.67" height="5.67"/>
		<polygon points="396.31,501.24 396.92,507.68 402.75,501.86 		"/>
		<polygon points="390.48,507.07 391.1,513.51 396.92,507.68 		"/>
		<polygon points="384.65,512.9 385.27,519.34 391.1,513.51 		"/>
		<polygon points="203.11,501.13 251.98,550 256.22,550 207.35,501.13 297.53,410.96 387.7,501.13 338.83,550 343.07,550 
			391.94,501.13 297.53,406.71 		"/>
		<polygon points="204.53,507.03 198.09,507.64 203.91,513.47 		"/>
		<polygon points="210.36,512.85 203.91,513.47 209.74,519.3 		"/>
		<polygon points="355.51,542.03 356.13,548.48 361.96,542.65 		"/>
		<polygon points="361.34,536.21 361.96,542.65 367.79,536.82 		"/>
		<polygon points="216.19,518.68 209.74,519.3 215.57,525.13 		"/>
		<polygon points="378.83,518.72 379.44,525.17 385.27,519.34 		"/>
		<polygon points="373,524.55 373.61,530.99 379.44,525.17 		"/>
		<polygon points="349.69,547.86 349.89,550 354.61,550 356.13,548.48 		"/>
		<polygon points="367.17,530.38 367.79,536.82 373.61,530.99 		"/>
		<polygon points="405.56,544.78 401.55,548.79 402.76,550 408.36,550 409.57,548.79 		"/>
		<rect x="425.08" y="523.6" transform="matrix(0.7071 -0.7071 0.7071 0.7071 -246.9089 456.7729)" width="5.67" height="5.67"/>
		<polygon points="222.01,524.51 215.57,525.13 221.4,530.95 		"/>
		<rect x="433.1" y="515.58" transform="matrix(0.7071 -0.7071 0.7071 0.7071 -238.8913 460.094)" width="5.67" height="5.67"/>
		<rect x="441.12" y="523.6" transform="matrix(0.7071 -0.7071 0.7071 0.7071 -242.2123 468.1115)" width="5.67" height="5.67"/>
		<rect x="417.07" y="531.61" transform="matrix(0.7071 -0.7071 0.7071 0.7071 -254.9265 453.4519)" width="5.67" height="5.67"/>
		<polygon points="233.67,536.16 227.22,536.78 233.05,542.61 		"/>
		<polygon points="198.09,507.64 198.7,501.2 192.26,501.82 		"/>
		<polygon points="227.84,530.34 221.4,530.95 227.22,536.78 		"/>
		<polygon points="239.5,541.99 233.05,542.61 238.88,548.44 		"/>
		<polygon points="245.12,550 245.32,547.82 238.88,548.44 240.44,550 		"/>
		<polygon points="321.75,519.7 319.75,519.7 319.75,523.69 315.76,523.69 315.76,525.69 319.75,525.69 319.75,529.68 
			321.75,529.68 321.75,525.69 325.74,525.69 325.74,523.69 321.75,523.69 		"/>
		<polygon points="332.6,437.31 339.05,436.7 333.22,430.87 		"/>
		<rect x="192.8" y="412.42" transform="matrix(0.7071 -0.7071 0.7071 0.7071 -236.3291 259.9612)" width="5.67" height="5.67"/>
		<polygon points="320.95,425.66 327.39,425.04 321.56,419.21 		"/>
		<polygon points="309.29,414 315.74,413.39 309.91,407.56 		"/>
		<polygon points="303.46,408.18 309.91,407.56 304.08,401.73 		"/>
		<polygon points="315.12,419.83 321.56,419.21 315.74,413.39 		"/>
		<polygon points="373.66,471.31 367.83,465.48 367.21,471.92 		"/>
		<polygon points="379.48,477.13 373.66,471.31 373.04,477.75 		"/>
		<polygon points="338.43,443.14 344.87,442.52 339.05,436.7 		"/>
		<polygon points="362,459.65 356.17,453.82 355.56,460.27 		"/>
		<polygon points="367.83,465.48 362,459.65 361.38,466.1 		"/>
		<polygon points="274.96,519.36 272.97,519.36 272.97,523.36 268.98,523.36 268.98,525.35 272.97,525.35 272.97,529.34 
			274.96,529.34 274.96,525.35 278.95,525.35 278.95,523.36 274.96,523.36 		"/>
		<polygon points="271.92,506.25 273.97,506.25 273.97,502.15 280.11,502.15 280.11,508.3 276.01,508.3 276.01,510.35 
			280.11,510.35 280.11,514.45 282.16,514.45 282.16,510.35 286.26,510.35 286.26,508.3 282.16,508.3 282.16,502.15 288.31,502.15 
			288.31,506.25 290.36,506.25 290.36,502.15 296.5,502.15 296.5,508.3 292.4,508.3 292.4,510.35 296.5,510.35 296.5,516.5 
			290.36,516.5 290.36,512.4 288.31,512.4 288.31,516.5 284.21,516.5 284.21,518.54 288.31,518.54 288.31,522.64 290.36,522.64 
			290.36,518.54 296.5,518.54 296.5,524.69 292.4,524.69 292.4,526.74 296.5,526.74 296.5,530.84 298.55,530.84 298.55,526.74 
			302.65,526.74 302.65,524.69 298.55,524.69 298.55,518.54 304.7,518.54 304.7,522.64 306.75,522.64 306.75,518.54 310.84,518.54 
			310.84,516.5 306.75,516.5 306.75,512.4 304.7,512.4 304.7,516.5 298.55,516.5 298.55,510.35 302.65,510.35 302.65,508.3 
			298.55,508.3 298.55,502.15 304.7,502.15 304.7,506.25 306.75,506.25 306.75,502.15 312.89,502.15 312.89,508.3 308.79,508.3 
			308.79,510.35 312.89,510.35 312.89,514.45 314.94,514.45 314.94,510.35 319.04,510.35 319.04,508.3 314.94,508.3 314.94,502.15 
			321.09,502.15 321.09,506.25 323.14,506.25 323.14,502.15 327.23,502.15 327.23,500.11 323.14,500.11 323.14,496.01 
			321.09,496.01 321.09,500.11 314.94,500.11 314.94,493.96 319.04,493.96 319.04,491.91 314.94,491.91 314.94,487.81 
			312.89,487.81 312.89,491.91 308.79,491.91 308.79,493.96 312.89,493.96 312.89,500.11 306.75,500.11 306.75,496.01 304.7,496.01 
			304.7,500.11 298.55,500.11 298.55,493.96 302.65,493.96 302.65,491.91 298.55,491.91 298.55,485.76 304.7,485.76 304.7,489.86 
			306.75,489.86 306.75,485.76 310.84,485.76 310.84,483.72 306.75,483.72 306.75,479.62 304.7,479.62 304.7,483.72 298.55,483.72 
			298.55,477.57 302.65,477.57 302.65,475.52 298.55,475.52 298.55,471.42 296.5,471.42 296.5,475.52 292.4,475.52 292.4,477.57 
			296.5,477.57 296.5,483.72 290.36,483.72 290.36,479.62 288.31,479.62 288.31,483.72 284.21,483.72 284.21,485.76 288.31,485.76 
			288.31,489.86 290.36,489.86 290.36,485.76 296.5,485.76 296.5,491.91 292.4,491.91 292.4,493.96 296.5,493.96 296.5,500.11 
			290.36,500.11 290.36,496.01 288.31,496.01 288.31,500.11 282.16,500.11 282.16,493.96 286.26,493.96 286.26,491.91 
			282.16,491.91 282.16,487.81 280.11,487.81 280.11,491.91 276.01,491.91 276.01,493.96 280.11,493.96 280.11,500.11 
			273.97,500.11 273.97,496.01 271.92,496.01 271.92,500.11 267.82,500.11 267.82,502.15 271.92,502.15 		"/>
		<polygon points="297.64,402.35 304.08,401.73 298.25,395.9 		"/>
		<polygon points="273.31,482.56 275.3,482.56 275.3,478.57 279.29,478.57 279.29,476.57 275.3,476.57 275.3,472.58 273.31,472.58 
			273.31,476.57 269.31,476.57 269.31,478.57 273.31,478.57 		"/>
		<path d="M333.78,464.87h-72.51v72.51h72.51V464.87z M330.78,534.39h-66.51v-66.51h66.51V534.39z"/>
		<path d="M364.06,492.55c-4.73,0-8.58,3.85-8.58,8.58s3.85,8.58,8.58,8.58s8.58-3.85,8.58-8.58S368.79,492.55,364.06,492.55z
			 M364.06,507.71c-3.63,0-6.58-2.95-6.58-6.58c0-3.63,2.95-6.58,6.58-6.58s6.58,2.95,6.58,6.58
			C370.64,504.76,367.69,507.71,364.06,507.71z"/>
		<polygon points="320.09,482.9 322.09,482.9 322.09,478.9 326.08,478.9 326.08,476.91 322.09,476.91 322.09,472.92 320.09,472.92 
			320.09,476.91 316.1,476.91 316.1,478.9 320.09,478.9 		"/>
		<rect x="449.14" y="531.61" transform="matrix(0.7071 -0.7071 0.7071 0.7071 -245.5333 476.1291)" width="5.67" height="5.67"/>
		<polygon points="344.87,442.52 344.26,448.97 350.31,448.39 349.73,454.44 356.17,453.82 350.7,448.35 350.7,448.35 		"/>
		<path d="M306.11,434.6c0-4.73-3.85-8.58-8.58-8.58s-8.58,3.85-8.58,8.58s3.85,8.58,8.58,8.58S306.11,439.33,306.11,434.6z
			 M290.95,434.6c0-3.63,2.95-6.58,6.58-6.58c3.63,0,6.58,2.95,6.58,6.58c0,3.63-2.95,6.58-6.58,6.58
			C293.9,441.18,290.95,438.23,290.95,434.6z"/>
		<path d="M231,492.55c-4.73,0-8.58,3.85-8.58,8.58s3.85,8.58,8.58,8.58s8.58-3.85,8.58-8.58S235.73,492.55,231,492.55z M231,507.71
			c-3.63,0-6.58-2.95-6.58-6.58c0-3.63,2.95-6.58,6.58-6.58c3.63,0,6.58,2.95,6.58,6.58C237.58,504.76,234.62,507.71,231,507.71z"/>
		<path d="M297.53,415.6l-85.53,85.53L260.86,550h73.33l48.87-48.87L297.53,415.6z M346.91,492.87l8.63-8.63l-8.63-8.63v-6.39
			l15.03,15.03l-15.03,15.03V492.87z M329.44,451.75h-6.39l-8.63-8.63l-8.63,8.63h-6.41l15.03-15.03L329.44,451.75z M297.53,419.84
			l14.76,14.76l-14.76,14.76l-14.76-14.76L297.53,419.84z M280.64,436.72l15.03,15.03h-6.41l-8.63-8.63l-8.63,8.63h-6.39
			L280.64,436.72z M262.62,454.75h69.82l3.8,3.8h-77.41L262.62,454.75z M216.23,501.13L231,486.37l14.76,14.76L231,515.89
			L216.23,501.13z M248.14,509.39l-8.63,8.63l8.63,8.63v6.39l-15.03-15.03l15.03-15.03V509.39z M248.14,475.62l-8.63,8.63l8.63,8.63
			v6.41l-15.03-15.03l15.03-15.03V475.62z M254.94,539.84l-3.8-3.8v-69.82l3.8-3.8V539.84z M332.44,547.51h-69.82l-3.8-3.8h77.41
			L332.44,547.51z M337.11,540.71h-79.17v-79.17h79.17V540.71z M343.91,536.04l-3.8,3.8v-77.41l3.8,3.8V536.04z M346.91,533.04
			v-6.39l8.63-8.63l-8.63-8.63v-6.41l15.03,15.03L346.91,533.04z M349.3,501.13l14.76-14.76l14.76,14.76l-14.76,14.76L349.3,501.13z
			"/>
		<polygon points="326.77,431.49 333.22,430.87 327.39,425.04 		"/>
		<rect x="50" y="498.28" width="5.67" height="5.67"/>
		<rect x="522.38" y="515.32" width="5.67" height="5.67"/>
		<rect x="505.37" y="498.31" width="5.67" height="5.67"/>
		<rect x="522.38" y="481.3" width="5.67" height="5.67"/>
		<rect x="522.38" y="503.98" width="5.67" height="5.67"/>
		<rect x="533.71" y="492.64" width="5.67" height="5.67"/>
		<rect x="78.35" y="492.61" width="5.67" height="5.67"/>
		<rect x="55.67" y="492.61" width="5.67" height="5.67"/>
		<rect x="78.35" y="503.95" width="5.67" height="5.67"/>
		<rect x="457.15" y="539.63" transform="matrix(0.7071 -0.7071 0.7071 0.7071 -248.8543 484.1467)" width="5.67" height="5.67"/>
		<rect x="61.34" y="486.94" width="5.67" height="5.67"/>
		<rect x="516.71" y="498.31" width="5.67" height="5.67"/>
		<rect x="516.71" y="509.65" width="5.67" height="5.67"/>
		<rect x="528.04" y="509.65" width="5.67" height="5.67"/>
		<rect x="533.71" y="503.98" width="5.67" height="5.67"/>
		<rect x="539.38" y="498.31" width="5.67" height="5.67"/>
		<rect x="511.04" y="503.98" width="5.67" height="5.67"/>
		<rect x="522.38" y="492.64" width="5.67" height="5.67"/>
		<rect x="511.04" y="492.64" width="5.67" height="5.67"/>
		<rect x="528.04" y="498.31" width="5.67" height="5.67"/>
		<rect x="72.68" y="509.62" width="5.67" height="5.67"/>
		<rect x="516.71" y="486.97" width="5.67" height="5.67"/>
		<rect x="528.04" y="486.97" width="5.67" height="5.67"/>
		<rect x="72.68" y="486.94" width="5.67" height="5.67"/>
		<rect x="61.34" y="509.62" width="5.67" height="5.67"/>
		<rect x="425.08" y="531.61" transform="matrix(0.7071 -0.7071 0.7071 0.7071 -252.5788 459.1264)" width="5.67" height="5.67"/>
		<rect x="409.05" y="539.63" transform="matrix(0.7071 -0.7071 0.7071 0.7071 -262.9441 450.131)" width="5.67" height="5.67"/>
		<rect x="441.12" y="531.61" transform="matrix(0.7071 -0.7071 0.7071 0.7071 -247.8821 470.4651)" width="5.67" height="5.67"/>
		<rect x="417.07" y="539.63" transform="matrix(0.7071 -0.7071 0.7071 0.7071 -260.5958 455.8003)" width="5.67" height="5.67"/>
		<rect x="449.14" y="539.63" transform="matrix(0.7071 -0.7071 0.7071 0.7071 -251.2026 478.4774)" width="5.67" height="5.67"/>
		<rect x="425.08" y="539.63" transform="matrix(0.7071 -0.7071 0.7071 0.7071 -258.2475 461.4695)" width="5.67" height="5.67"/>
		<polygon points="463.61,519.45 452.84,519.45 452.84,530.23 		"/>
		<rect x="433.1" y="539.63" transform="matrix(0.7071 -0.7071 0.7071 0.7071 -255.8992 467.1389)" width="5.67" height="5.67"/>
		<rect x="441.12" y="539.63" transform="matrix(0.7071 -0.7071 0.7071 0.7071 -253.5509 472.8081)" width="5.67" height="5.67"/>
		<rect x="433.1" y="531.61" transform="matrix(0.7071 -0.7071 0.7071 0.7071 -250.2299 464.7906)" width="5.67" height="5.67"/>
		<rect x="433.1" y="523.6" transform="matrix(0.7071 -0.7071 0.7071 0.7071 -244.5606 462.4423)" width="5.67" height="5.67"/>
		<rect x="72.68" y="498.28" width="5.67" height="5.67"/>
		<rect x="67.01" y="492.61" width="5.67" height="5.67"/>
		<rect x="61.34" y="498.28" width="5.67" height="5.67"/>
		<rect x="55.67" y="503.95" width="5.67" height="5.67"/>
		<rect x="67.01" y="503.95" width="5.67" height="5.67"/>
		<polygon points="442.06,508.68 442.06,519.45 447.45,514.07 452.84,508.68 		"/>
		<rect x="67.01" y="515.29" width="5.67" height="5.67"/>
		<polygon points="452.84,519.45 458.22,514.07 447.45,514.07 447.45,524.84 		"/>
		<polygon points="458.22,524.84 458.22,535.61 463.61,530.23 463.61,541 474.38,530.23 463.61,530.23 469,524.84 		"/>
		<rect x="67.01" y="481.27" width="5.67" height="5.67"/>
		<rect x="84.02" y="498.28" width="5.67" height="5.67"/>
		<polygon points="385.31,482.96 379.48,477.13 378.87,483.58 		"/>
		<rect x="148.26" y="464.98" transform="matrix(0.7071 -0.7071 0.7071 0.7071 -286.5369 243.8611)" width="5.67" height="5.67"/>
		<rect x="140.25" y="464.98" transform="matrix(0.7071 -0.7071 0.7071 0.7071 -288.8852 238.1918)" width="5.67" height="5.67"/>
		<rect x="156.28" y="472.99" transform="matrix(0.7071 -0.7071 0.7071 0.7071 -289.8578 251.8787)" width="5.67" height="5.67"/>
		<rect x="156.28" y="464.98" transform="matrix(0.7071 -0.7071 0.7071 0.7071 -284.1886 249.5304)" width="5.67" height="5.67"/>
		<rect x="148.26" y="472.99" transform="matrix(0.7071 -0.7071 0.7071 0.7071 -292.2061 246.2094)" width="5.67" height="5.67"/>
		<rect x="164.3" y="472.99" transform="matrix(0.7071 -0.7071 0.7071 0.7071 -287.5079 257.5445)" width="5.67" height="5.67"/>
		<rect x="180.33" y="456.96" transform="matrix(0.7071 -0.7071 0.7071 0.7071 -271.4744 264.19)" width="5.67" height="5.67"/>
		<rect x="156.28" y="481.01" transform="matrix(0.7071 -0.7071 0.7071 0.7071 -295.5272 254.227)" width="5.67" height="5.67"/>
		<rect x="186.66" y="450.63" transform="matrix(0.7071 -0.7071 0.7071 0.7071 -265.1485 266.8102)" width="5.67" height="5.67"/>
		<rect x="172.32" y="456.96" transform="matrix(0.7071 -0.7071 0.7071 0.7071 -273.8227 258.5207)" width="5.67" height="5.67"/>
		<rect x="164.3" y="464.98" transform="matrix(0.7071 -0.7071 0.7071 0.7071 -281.8403 255.1997)" width="5.67" height="5.67"/>
		<polygon points="477.37,513.62 477.37,509.78 481.21,509.78 481.21,507.86 477.37,507.86 477.37,502.09 483.13,502.09 
			483.13,505.93 485.05,505.93 485.05,502.09 488.9,502.09 488.9,500.17 485.05,500.17 485.05,496.33 483.13,496.33 483.13,500.17 
			477.37,500.17 477.37,494.4 481.21,494.4 481.21,492.48 477.37,492.48 477.37,488.64 475.45,488.64 475.45,492.48 471.6,492.48 
			471.6,494.4 475.45,494.4 475.45,500.17 469.68,500.17 469.68,496.33 467.76,496.33 467.76,500.17 463.92,500.17 463.92,502.09 
			467.76,502.09 467.76,505.93 469.68,505.93 469.68,502.09 475.45,502.09 475.45,507.86 471.6,507.86 471.6,509.78 475.45,509.78 
			475.45,513.62 		"/>
		<polygon points="414.38,502.09 414.38,502.13 418.18,502.13 418.18,505.93 418.22,505.93 418.22,505.98 420.14,505.98 
			420.14,502.13 425.87,502.13 425.87,507.86 422.02,507.86 422.02,509.78 422.06,509.78 422.06,509.82 425.87,509.82 
			425.87,513.62 425.91,513.62 425.91,513.66 427.83,513.66 427.83,509.82 431.67,509.82 431.67,507.9 431.63,507.9 431.63,507.86 
			427.83,507.86 427.83,502.13 433.55,502.13 433.55,505.93 433.59,505.93 433.59,505.98 435.51,505.98 435.51,502.13 
			439.36,502.13 439.36,500.21 439.32,500.21 439.32,500.17 435.51,500.17 435.51,496.37 435.47,496.37 435.47,496.33 
			433.55,496.33 433.55,500.17 427.83,500.17 427.83,494.45 431.67,494.45 431.67,492.52 431.63,492.52 431.63,492.48 
			427.83,492.48 427.83,488.68 427.79,488.68 427.79,488.64 425.87,488.64 425.87,492.48 422.02,492.48 422.02,494.4 422.06,494.4 
			422.06,494.45 425.87,494.45 425.87,500.17 420.14,500.17 420.14,496.37 420.1,496.37 420.1,496.33 418.18,496.33 418.18,500.17 
			414.34,500.17 414.34,502.09 		"/>
		<polygon points="136.83,477.42 131.44,482.81 142.22,482.81 142.22,472.03 136.83,477.42 136.83,466.65 131.44,472.03 
			126.06,477.42 		"/>
		<rect x="164.3" y="456.96" transform="matrix(0.7071 -0.7071 0.7071 0.7071 -276.1726 252.8548)" width="5.67" height="5.67"/>
		<polygon points="152.99,493.58 152.99,482.81 147.6,488.19 142.22,493.58 		"/>
		<rect x="168.75" y="396.39" transform="matrix(0.7071 -0.7071 0.7071 0.7071 -232.0355 238.2568)" width="5.67" height="5.67"/>
		<path d="M496.9,501.13l-20.49-20.49l-20.49,20.49l20.49,20.49L496.9,501.13z M476.41,483.47l17.66,17.66l-17.66,17.66
			l-17.66-17.66L476.41,483.47z"/>
		<rect x="148.26" y="456.96" transform="matrix(0.7071 -0.7071 0.7071 0.7071 -280.8676 241.5128)" width="5.67" height="5.67"/>
		<polygon points="136.83,488.19 147.6,488.19 147.6,477.42 		"/>
		<rect x="156.28" y="456.96" transform="matrix(0.7071 -0.7071 0.7071 0.7071 -278.5193 247.1821)" width="5.67" height="5.67"/>
		<rect x="132.23" y="456.96" transform="matrix(0.7071 -0.7071 0.7071 0.7071 -285.5642 230.1742)" width="5.67" height="5.67"/>
		<rect x="140.25" y="456.96" transform="matrix(0.7071 -0.7071 0.7071 0.7071 -283.2159 235.8435)" width="5.67" height="5.67"/>
		<polygon points="131.44,461.26 120.67,472.03 131.44,472.03 		"/>
		<rect x="216.85" y="396.39" transform="matrix(0.7071 -0.7071 0.7071 0.7071 -217.9457 272.2725)" width="5.67" height="5.67"/>
		<rect x="192.8" y="396.39" transform="matrix(0.7071 -0.7071 0.7071 0.7071 -224.9906 255.2647)" width="5.67" height="5.67"/>
		<rect x="224.87" y="404.4" transform="matrix(0.7071 -0.7071 0.7071 0.7071 -221.2676 280.2935)" width="5.67" height="5.67"/>
		<rect x="208.84" y="396.39" transform="matrix(0.7071 -0.7071 0.7071 0.7071 -220.294 266.6032)" width="5.67" height="5.67"/>
		<rect x="200.82" y="396.39" transform="matrix(0.7071 -0.7071 0.7071 0.7071 -222.6423 260.9339)" width="5.67" height="5.67"/>
		<rect x="224.87" y="396.39" transform="matrix(0.7071 -0.7071 0.7071 0.7071 -215.5974 277.9418)" width="5.67" height="5.67"/>
		<rect x="192.8" y="420.44" transform="matrix(0.7071 -0.7071 0.7071 0.7071 -241.9984 262.3095)" width="5.67" height="5.67"/>
		<rect x="192.8" y="428.46" transform="matrix(0.7071 -0.7071 0.7071 0.7071 -247.6677 264.6578)" width="5.67" height="5.67"/>
		<rect x="200.82" y="428.46" transform="matrix(0.7071 -0.7071 0.7071 0.7071 -245.3194 270.3271)" width="5.67" height="5.67"/>
		<rect x="208.84" y="420.44" transform="matrix(0.7071 -0.7071 0.7071 0.7071 -237.3018 273.6481)" width="5.67" height="5.67"/>
		<rect x="216.85" y="412.42" transform="matrix(0.7071 -0.7071 0.7071 0.7071 -229.2843 276.9691)" width="5.67" height="5.67"/>
		<rect x="184.78" y="388.37" transform="matrix(0.7071 -0.7071 0.7071 0.7071 -221.6706 247.2502)" width="5.67" height="5.67"/>
		<rect x="184.78" y="372.33" transform="matrix(0.7071 -0.7071 0.7071 0.7071 -210.331 242.5505)" width="5.67" height="5.67"/>
		<polygon points="391.14,488.79 385.31,482.96 384.69,489.41 		"/>
		<rect x="176.77" y="372.33" transform="matrix(0.7071 -0.7071 0.7071 0.7071 -212.6793 236.8812)" width="5.67" height="5.67"/>
		<rect x="192.8" y="388.37" transform="matrix(0.7071 -0.7071 0.7071 0.7071 -219.3223 252.9195)" width="5.67" height="5.67"/>
		<rect x="168.75" y="380.35" transform="matrix(0.7071 -0.7071 0.7071 0.7071 -220.6969 233.5602)" width="5.67" height="5.67"/>
		<rect x="184.78" y="380.35" transform="matrix(0.7071 -0.7071 0.7071 0.7071 -216.0003 244.8988)" width="5.67" height="5.67"/>
		<rect x="176.77" y="396.39" transform="matrix(0.7071 -0.7071 0.7071 0.7071 -229.6883 243.9292)" width="5.67" height="5.67"/>
		<rect x="176.77" y="380.35" transform="matrix(0.7071 -0.7071 0.7071 0.7071 -218.3475 239.2264)" width="5.67" height="5.67"/>
		<rect x="176.77" y="388.37" transform="matrix(0.7071 -0.7071 0.7071 0.7071 -224.0167 241.5747)" width="5.67" height="5.67"/>
		<rect x="168.75" y="388.37" transform="matrix(0.7071 -0.7071 0.7071 0.7071 -226.3661 235.9084)" width="5.67" height="5.67"/>
		<rect x="184.78" y="396.39" transform="matrix(0.7071 -0.7071 0.7071 0.7071 -227.3389 249.5954)" width="5.67" height="5.67"/>
		<rect x="192.8" y="380.35" transform="matrix(0.7071 -0.7071 0.7071 0.7071 -213.652 250.5681)" width="5.67" height="5.67"/>
		<polygon points="285.19,407.52 279.36,413.35 285.8,413.96 		"/>
		<polygon points="279.36,413.35 273.53,419.17 279.97,419.79 		"/>
		<polygon points="273.53,419.17 267.7,425 274.15,425.62 		"/>
		<polygon points="267.7,425 261.88,430.83 268.32,431.45 		"/>
		<polygon points="261.88,430.83 256.05,436.66 262.49,437.27 		"/>
		<polygon points="256.05,436.66 250.22,442.48 256.66,443.1 		"/>
		<rect x="156.26" y="523.58" transform="matrix(0.7071 -0.7071 0.7071 0.7071 -325.6312 266.6794)" width="5.67" height="5.67"/>
		<polygon points="291.01,401.69 285.19,407.52 291.63,408.13 		"/>
		<polygon points="152.95,519.41 152.95,508.64 142.17,508.64 		"/>
		<polygon points="193.48,548.77 189.47,544.76 185.46,548.77 186.69,550 192.25,550 		"/>
		<polygon points="296.84,395.86 291.01,401.69 297.46,402.31 		"/>
		<rect x="164.28" y="531.59" transform="matrix(0.7071 -0.7071 0.7071 0.7071 -328.9522 274.697)" width="5.67" height="5.67"/>
		<polygon points="204.57,495.19 203.96,488.75 198.13,494.58 		"/>
		<polygon points="198.74,501.02 198.13,494.58 192.3,500.4 		"/>
		<polygon points="396.97,494.62 391.14,488.79 390.52,495.23 		"/>
		<polygon points="402.79,500.45 396.97,494.62 396.35,501.06 		"/>
		<polygon points="210.4,489.37 209.78,482.92 203.96,488.75 		"/>
		<polygon points="216.23,483.54 215.61,477.09 209.78,482.92 		"/>
		<polygon points="233.71,466.06 233.09,459.61 227.27,465.44 		"/>
		<polygon points="239.54,460.23 238.92,453.78 233.09,459.61 		"/>
		<polygon points="227.88,471.88 227.27,465.44 221.44,471.27 		"/>
		<polygon points="245.37,454.4 244.79,448.35 250.84,448.93 250.22,442.48 244.39,448.31 244.39,448.31 238.92,453.78 		"/>
		<polygon points="222.05,477.71 221.44,471.27 215.61,477.09 		"/>
		<polygon points="169.19,513.62 169.19,509.78 173.03,509.78 173.03,507.86 172.99,507.86 172.99,507.81 169.19,507.81 
			169.19,502.09 174.91,502.09 174.91,505.89 174.95,505.89 174.95,505.93 176.87,505.93 176.87,502.09 180.72,502.09 
			180.72,500.17 180.68,500.17 180.68,500.13 176.87,500.13 176.87,496.33 176.83,496.33 176.83,496.29 174.91,496.29 
			174.91,500.13 169.19,500.13 169.19,494.4 173.03,494.4 173.03,492.48 172.99,492.48 172.99,492.44 169.19,492.44 169.19,488.64 
			169.15,488.64 169.15,488.6 167.22,488.6 167.22,492.44 163.38,492.44 163.38,494.36 163.42,494.36 163.42,494.4 167.22,494.4 
			167.22,500.13 161.5,500.13 161.5,496.33 161.46,496.33 161.46,496.29 159.54,496.29 159.54,500.13 155.69,500.13 155.69,502.05 
			155.74,502.05 155.74,502.09 159.54,502.09 159.54,505.89 159.58,505.89 159.58,505.93 161.5,505.93 161.5,502.09 167.22,502.09 
			167.22,507.81 163.38,507.81 163.38,509.74 163.42,509.74 163.42,509.78 167.22,509.78 167.22,513.58 167.27,513.58 
			167.27,513.62 		"/>
		<polygon points="142.17,519.41 147.56,524.8 147.56,514.03 136.79,514.03 142.17,519.41 131.4,519.41 136.79,524.8 142.17,530.19 
					"/>
		<polygon points="136.79,524.8 126.02,524.8 131.4,530.19 136.79,535.57 		"/>
		<polygon points="131.4,540.96 131.4,530.19 120.63,530.19 		"/>
		<path d="M146.86,501.65L195.21,550h5.11l17.91-17.91l1.85,1.85L204,550h1.41l15.36-15.36l1.85,1.85L209.11,550h1.41l12.81-12.81
			l1.85,1.85L214.22,550h1.41l10.25-10.25l1.85,1.85l-8.41,8.41h1.41l7.7-7.7l1.85,1.85l-5.85,5.85h1.41l5.15-5.15l1.85,1.85
			l-3.3,3.3h1.41l2.59-2.59l1.85,1.85l-0.75,0.75h1.41l0.04-0.04l0.04,0.04h4.24l-48.87-48.87l106.02-106.02l106.02,106.02
			L354.68,550h5.66l-0.71-0.71l1.85-1.85l2.55,2.55h1.41l-3.26-3.26l1.85-1.85l5.11,5.11h1.41l-5.81-5.81l1.85-1.85l7.66,7.66h1.41
			l-8.37-8.37l1.85-1.85L379.34,550h1.41l-10.92-10.92l1.85-1.85L384.45,550h1.41l-13.47-13.47l1.85-1.85L389.55,550h1.41
			l-16.02-16.02l1.85-1.85L394.66,550h5.19l48.35-48.35l28.21,28.21l28.73-28.73l-28.73-28.73l-28.21,28.21L298.05,350.46
			l28.21-28.21l-28.73-28.73l-28.73,28.73l28.21,28.21L146.86,500.61l-28.21-28.21l-28.73,28.73l28.73,28.73L146.86,501.65z
			 M476.41,476.64l24.49,24.49l-24.49,24.49l-24.49-24.49L476.41,476.64z M170.29,520.84l18.34-18.34l0.8,0.8l-18.34,18.34
			L170.29,520.84z M217.52,531.38l-18.34,18.34l-1.85-1.85l18.34-18.34L217.52,531.38z M214.96,528.83l-18.34,18.34l-1.85-1.85
			l18.34-18.34L214.96,528.83z M212.41,526.28l-18.34,18.34l-1.85-1.85l18.34-18.34L212.41,526.28z M209.86,523.72l-18.34,18.34
			l-1.85-1.85l18.34-18.34L209.86,523.72z M207.31,521.17l-18.34,18.34l-1.85-1.85l18.34-18.34L207.31,521.17z M204.75,518.62
			l-18.34,18.34l-1.85-1.85l18.34-18.34L204.75,518.62z M202.2,516.06l-18.34,18.34l-1.85-1.85l18.34-18.34L202.2,516.06z
			 M199.65,513.51l-18.34,18.34l-1.85-1.85l18.34-18.34L199.65,513.51z M197.09,510.96l-18.34,18.34l-1.85-1.85l18.34-18.34
			L197.09,510.96z M194.54,508.41l-18.34,18.34l-1.85-1.85l18.34-18.34L194.54,508.41z M191.99,505.85l-18.34,18.34l-1.85-1.85
			l18.34-18.34L191.99,505.85z M395.84,549.77l-18.34-18.34l1.85-1.85l18.34,18.34L395.84,549.77z M398.39,547.21l-18.34-18.34
			l1.85-1.85l18.34,18.34L398.39,547.21z M400.94,544.66l-18.34-18.34l1.85-1.85l18.34,18.34L400.94,544.66z M403.5,542.11
			l-18.34-18.34l1.85-1.85l18.34,18.34L403.5,542.11z M406.05,539.55l-18.34-18.34l1.85-1.85l18.34,18.34L406.05,539.55z M408.6,537
			l-18.34-18.34l1.85-1.85l18.34,18.34L408.6,537z M411.16,534.45l-18.34-18.34l1.85-1.85L413,532.6L411.16,534.45z M413.71,531.9
			l-18.34-18.34l1.85-1.85l18.34,18.34L413.71,531.9z M416.26,529.34L397.92,511l1.85-1.85l18.34,18.34L416.26,529.34z
			 M418.81,526.79l-18.34-18.34l1.85-1.85l18.34,18.34L418.81,526.79z M421.37,524.24l-18.34-18.34l1.85-1.85l18.34,18.34
			L421.37,524.24z M423.92,521.68l-18.34-18.34l0.84-0.84l18.34,18.34L423.92,521.68z M444.47,501.13l-17.59,17.59l-17.55-17.55
			l17.59-17.59L444.47,501.13z M424.76,481.42l-18.34,18.34l-0.8-0.8l18.34-18.34L424.76,481.42z M423.25,479.91l-18.34,18.34
			l-1.85-1.85l18.34-18.34L423.25,479.91z M420.7,477.36l-18.34,18.34l-1.85-1.85l18.34-18.34L420.7,477.36z M418.15,474.8
			l-18.34,18.34l-1.85-1.85l18.34-18.34L418.15,474.8z M415.6,472.25l-18.34,18.34l-1.85-1.85l18.34-18.34L415.6,472.25z
			 M413.04,469.7l-18.34,18.34l-1.85-1.85l18.34-18.34L413.04,469.7z M410.49,467.15l-18.34,18.34l-1.85-1.85l18.34-18.34
			L410.49,467.15z M407.94,464.59l-18.34,18.34l-1.85-1.85l18.34-18.34L407.94,464.59z M405.38,462.04l-18.34,18.34l-1.85-1.85
			l18.34-18.34L405.38,462.04z M402.83,459.49l-18.34,18.34l-1.85-1.85l18.34-18.34L402.83,459.49z M400.28,456.93l-18.34,18.34
			l-1.85-1.85l18.34-18.34L400.28,456.93z M397.73,454.38l-18.34,18.34l-1.85-1.85l18.34-18.34L397.73,454.38z M395.17,451.83
			l-18.34,18.34l-1.85-1.85l18.34-18.34L395.17,451.83z M392.62,449.28l-18.34,18.34l-1.85-1.85l18.34-18.34L392.62,449.28z
			 M390.07,446.72l-18.34,18.34l-1.85-1.85l18.34-18.34L390.07,446.72z M387.51,444.17l-18.34,18.34l-1.85-1.85l18.34-18.34
			L387.51,444.17z M384.96,441.62l-18.34,18.34l-1.85-1.85l18.34-18.34L384.96,441.62z M382.41,439.06l-18.34,18.34l-1.85-1.85
			l18.34-18.34L382.41,439.06z M379.85,436.51l-18.34,18.34l-1.85-1.85l18.34-18.34L379.85,436.51z M377.3,433.96l-18.34,18.34
			l-1.85-1.85l18.34-18.34L377.3,433.96z M374.75,431.41l-18.34,18.34l-2.06-2.06l18.34-18.34L374.75,431.41z M371.98,428.63
			l-18.34,18.34l-1.91-1.91l18.34-18.34L371.98,428.63z M369.36,426.01l-18.34,18.34l-2.06-2.06l18.34-18.34L369.36,426.01z
			 M366.58,423.24l-18.34,18.34l-1.85-1.85l18.34-18.34L366.58,423.24z M364.03,420.69l-18.34,18.34l-1.85-1.85l18.34-18.34
			L364.03,420.69z M361.48,418.14l-18.34,18.34l-1.85-1.85l18.34-18.34L361.48,418.14z M358.93,415.58l-18.34,18.34l-1.85-1.85
			l18.34-18.34L358.93,415.58z M356.37,413.03l-18.34,18.34l-1.85-1.85l18.34-18.34L356.37,413.03z M353.82,410.48l-18.34,18.34
			l-1.85-1.85l18.34-18.34L353.82,410.48z M351.27,407.92l-18.34,18.34l-1.85-1.85l18.34-18.34L351.27,407.92z M348.71,405.37
			l-18.34,18.34l-1.85-1.85l18.34-18.34L348.71,405.37z M346.16,402.82l-18.34,18.34l-1.85-1.85l18.34-18.34L346.16,402.82z
			 M343.61,400.27l-18.34,18.34l-1.85-1.85l18.34-18.34L343.61,400.27z M341.06,397.71l-18.34,18.34l-1.85-1.85l18.34-18.34
			L341.06,397.71z M338.5,395.16l-18.34,18.34l-1.85-1.85l18.34-18.34L338.5,395.16z M335.95,392.61l-18.34,18.34l-1.85-1.85
			l18.34-18.34L335.95,392.61z M333.4,390.05l-18.34,18.34l-1.85-1.85l18.34-18.34L333.4,390.05z M330.84,387.5l-18.34,18.34
			l-1.85-1.85L329,385.66L330.84,387.5z M328.29,384.95l-18.34,18.34l-1.85-1.85l18.34-18.34L328.29,384.95z M325.74,382.4
			l-18.34,18.34l-1.85-1.85l18.34-18.34L325.74,382.4z M323.19,379.84l-18.34,18.34l-1.85-1.85L321.34,378L323.19,379.84z
			 M320.63,377.29l-18.34,18.34l-1.85-1.85l18.34-18.34L320.63,377.29z M318.08,374.74l-18.34,18.34l-0.84-0.84l18.34-18.34
			L318.08,374.74z M273.04,322.25l24.49-24.49l24.49,24.49l-24.49,24.49L273.04,322.25z M297.53,354.18l17.59,17.59l-17.55,17.55
			l-17.59-17.59L297.53,354.18z M277.81,373.9l18.34,18.34l-0.8,0.8l-18.34-18.34L277.81,373.9z M276.31,375.4l18.34,18.34
			l-1.85,1.85l-18.34-18.34L276.31,375.4z M273.75,377.96l18.34,18.34l-1.85,1.85l-18.34-18.34L273.75,377.96z M271.2,380.51
			l18.34,18.34l-1.85,1.85l-18.34-18.34L271.2,380.51z M268.65,383.06l18.34,18.34l-1.85,1.85l-18.34-18.34L268.65,383.06z
			 M266.1,385.61l18.34,18.34l-1.85,1.85l-18.34-18.34L266.1,385.61z M263.54,388.17l18.34,18.34l-1.85,1.85l-18.34-18.34
			L263.54,388.17z M260.99,390.72l18.34,18.34l-1.85,1.85l-18.34-18.34L260.99,390.72z M258.44,393.27l18.34,18.34l-1.85,1.85
			l-18.34-18.34L258.44,393.27z M255.88,395.83l18.34,18.34l-1.85,1.85l-18.34-18.34L255.88,395.83z M253.33,398.38l18.34,18.34
			l-1.85,1.85l-18.34-18.34L253.33,398.38z M250.78,400.93l18.34,18.34l-1.85,1.85l-18.34-18.34L250.78,400.93z M248.23,403.48
			l18.34,18.34l-1.85,1.85l-18.34-18.34L248.23,403.48z M245.67,406.04l18.34,18.34l-1.85,1.85l-18.34-18.34L245.67,406.04z
			 M243.12,408.59l18.34,18.34l-1.85,1.85l-18.34-18.34L243.12,408.59z M240.57,411.14l18.34,18.34l-1.85,1.85l-18.34-18.34
			L240.57,411.14z M238.01,413.7l18.34,18.34l-1.85,1.85l-18.34-18.34L238.01,413.7z M235.46,416.25l18.34,18.34l-1.85,1.85
			l-18.34-18.34L235.46,416.25z M232.91,418.8l18.34,18.34l-1.85,1.85l-18.34-18.34L232.91,418.8z M230.35,421.35l18.34,18.34
			l-1.85,1.85l-18.34-18.34L230.35,421.35z M227.8,423.91l18.34,18.34l-2.06,2.06l-18.34-18.34L227.8,423.91z M225.03,426.68
			l18.34,18.34l-1.91,1.91l-18.34-18.34L225.03,426.68z M222.41,429.3l18.34,18.34l-2.06,2.06l-18.34-18.34L222.41,429.3z
			 M219.64,432.07l18.34,18.34l-1.85,1.85l-18.34-18.34L219.64,432.07z M217.09,434.62l18.34,18.34l-1.85,1.85l-18.34-18.34
			L217.09,434.62z M214.53,437.18l18.34,18.34l-1.85,1.85l-18.34-18.34L214.53,437.18z M211.98,439.73l18.34,18.34l-1.85,1.85
			l-18.34-18.34L211.98,439.73z M209.43,442.28l18.34,18.34l-1.85,1.85l-18.34-18.34L209.43,442.28z M206.87,444.84l18.34,18.34
			l-1.85,1.85l-18.34-18.34L206.87,444.84z M204.32,447.39l18.34,18.34l-1.85,1.85l-18.34-18.34L204.32,447.39z M201.77,449.94
			l18.34,18.34l-1.85,1.85l-18.34-18.34L201.77,449.94z M199.21,452.5l18.34,18.34l-1.85,1.85l-18.34-18.34L199.21,452.5z
			 M196.66,455.05l18.34,18.34l-1.85,1.85l-18.34-18.34L196.66,455.05z M194.11,457.6l18.34,18.34l-1.85,1.85l-18.34-18.34
			L194.11,457.6z M191.56,460.15l18.34,18.34l-1.85,1.85L189.71,462L191.56,460.15z M189,462.71l18.34,18.34l-1.85,1.85
			l-18.34-18.34L189,462.71z M186.45,465.26l18.34,18.34l-1.85,1.85l-18.34-18.34L186.45,465.26z M183.9,467.81l18.34,18.34
			l-1.85,1.85l-18.34-18.34L183.9,467.81z M181.34,470.37l18.34,18.34l-1.85,1.85l-18.34-18.34L181.34,470.37z M178.79,472.92
			l18.34,18.34l-1.85,1.85l-18.34-18.34L178.79,472.92z M176.24,475.47l18.34,18.34l-1.85,1.85l-18.34-18.34L176.24,475.47z
			 M173.69,478.02l18.34,18.34l-1.85,1.85l-18.34-18.34L173.69,478.02z M171.13,480.58l18.34,18.34l-0.84,0.84l-18.34-18.34
			L171.13,480.58z M168.17,483.54l17.55,17.55l-17.59,17.59l-17.55-17.55L168.17,483.54z M118.65,476.64l24.49,24.49l-24.49,24.49
			l-24.49-24.49L118.65,476.64z"/>
		<rect x="156.26" y="515.56" transform="matrix(0.7071 -0.7071 0.7071 0.7071 -319.9619 264.3311)" width="5.67" height="5.67"/>
		<rect x="164.28" y="539.61" transform="matrix(0.7071 -0.7071 0.7071 0.7071 -334.6215 277.0453)" width="5.67" height="5.67"/>
		<rect x="164.28" y="523.58" transform="matrix(0.7071 -0.7071 0.7071 0.7071 -323.2848 272.3525)" width="5.67" height="5.67"/>
		<polygon points="298.49,384.32 298.49,384.28 298.53,384.28 298.53,380.48 302.33,380.48 302.33,380.44 302.37,380.44 
			302.37,378.51 298.53,378.51 298.53,372.79 304.25,372.79 304.25,376.63 306.17,376.63 306.17,376.59 306.21,376.59 
			306.21,372.79 310.02,372.79 310.02,372.75 310.06,372.75 310.06,370.83 306.21,370.83 306.21,366.99 304.29,366.99 
			304.29,367.03 304.25,367.03 304.25,370.83 298.53,370.83 298.53,365.1 302.33,365.1 302.33,365.06 302.37,365.06 302.37,363.14 
			298.53,363.14 298.53,359.3 296.61,359.3 296.61,359.34 296.57,359.34 296.57,363.14 292.76,363.14 292.76,363.18 292.72,363.18 
			292.72,365.1 296.57,365.1 296.57,370.83 290.84,370.83 290.84,366.99 288.92,366.99 288.92,367.03 288.88,367.03 288.88,370.83 
			285.08,370.83 285.08,370.87 285.04,370.87 285.04,372.79 288.88,372.79 288.88,376.63 290.8,376.63 290.8,376.59 290.84,376.59 
			290.84,372.79 296.57,372.79 296.57,378.51 292.76,378.51 292.76,378.56 292.72,378.56 292.72,380.48 296.57,380.48 
			296.57,384.32 		"/>
		<path d="M318.02,322.25l-20.49-20.49l-20.49,20.49l20.49,20.49L318.02,322.25z M297.53,304.59l17.66,17.66l-17.66,17.66
			l-17.66-17.66L297.53,304.59z"/>
		<polygon points="119.61,513.62 119.61,509.78 123.45,509.78 123.45,507.86 119.61,507.86 119.61,502.09 125.37,502.09 
			125.37,505.93 127.29,505.93 127.29,502.09 131.14,502.09 131.14,500.17 127.29,500.17 127.29,496.33 125.37,496.33 
			125.37,500.17 119.61,500.17 119.61,494.4 123.45,494.4 123.45,492.48 119.61,492.48 119.61,488.64 117.69,488.64 117.69,492.48 
			113.84,492.48 113.84,494.4 117.69,494.4 117.69,500.17 111.92,500.17 111.92,496.33 110,496.33 110,500.17 106.16,500.17 
			106.16,502.09 110,502.09 110,505.93 111.92,505.93 111.92,502.09 117.69,502.09 117.69,507.86 113.84,507.86 113.84,509.78 
			117.69,509.78 117.69,513.62 		"/>
		<polygon points="298.49,334.74 298.49,330.9 302.33,330.9 302.33,328.98 298.49,328.98 298.49,323.21 304.25,323.21 
			304.25,327.05 306.17,327.05 306.17,323.21 310.02,323.21 310.02,321.29 306.17,321.29 306.17,317.45 304.25,317.45 
			304.25,321.29 298.49,321.29 298.49,315.52 302.33,315.52 302.33,313.6 298.49,313.6 298.49,309.76 296.57,309.76 296.57,313.6 
			292.72,313.6 292.72,315.52 296.57,315.52 296.57,321.29 290.8,321.29 290.8,317.45 288.88,317.45 288.88,321.29 285.04,321.29 
			285.04,323.21 288.88,323.21 288.88,327.05 290.8,327.05 290.8,323.21 296.57,323.21 296.57,328.98 292.72,328.98 292.72,330.9 
			296.57,330.9 296.57,334.74 		"/>
		<path d="M139.14,501.13l-20.49-20.49l-20.49,20.49l20.49,20.49L139.14,501.13z M118.65,483.47l17.66,17.66l-17.66,17.66
			l-17.66-17.66L118.65,483.47z"/>
		<rect x="148.24" y="531.59" transform="matrix(0.7071 -0.7071 0.7071 0.7071 -333.6488 263.3585)" width="5.67" height="5.67"/>
		<rect x="156.26" y="531.59" transform="matrix(0.7071 -0.7071 0.7071 0.7071 -331.3025 269.0315)" width="5.67" height="5.67"/>
		<rect x="156.26" y="539.61" transform="matrix(0.7071 -0.7071 0.7071 0.7071 -336.9698 271.376)" width="5.67" height="5.67"/>
		<rect x="172.3" y="531.59" transform="matrix(0.7071 -0.7071 0.7071 0.7071 -326.6039 280.3663)" width="5.67" height="5.67"/>
		<rect x="148.24" y="539.61" transform="matrix(0.7071 -0.7071 0.7071 0.7071 -339.3181 265.7068)" width="5.67" height="5.67"/>
		<rect x="148.24" y="523.58" transform="matrix(0.7071 -0.7071 0.7071 0.7071 -327.9795 261.0102)" width="5.67" height="5.67"/>
		<rect x="172.3" y="539.61" transform="matrix(0.7071 -0.7071 0.7071 0.7071 -332.2732 282.7147)" width="5.67" height="5.67"/>
		<rect x="180.31" y="539.61" transform="matrix(0.7071 -0.7071 0.7071 0.7071 -329.9249 288.3839)" width="5.67" height="5.67"/>
		<rect x="140.23" y="539.61" transform="matrix(0.7071 -0.7071 0.7071 0.7071 -341.6664 260.0375)" width="5.67" height="5.67"/>
		<rect x="140.23" y="531.59" transform="matrix(0.7071 -0.7071 0.7071 0.7071 -335.9971 257.6892)" width="5.67" height="5.67"/>
		<rect x="132.21" y="539.61" transform="matrix(0.7071 -0.7071 0.7071 0.7071 -344.0147 254.3682)" width="5.67" height="5.67"/>
	</g>
</g>
<g>
</g>
<g>
</g>
<g>
</g>
<g>
</g>
<g>
</g>
<g>
</g>
<g>
</g>
<g>
</g>
<g>
</g>
<g>
</g>
<g>
</g>
<g>
</g>
<g>
</g>
<g>
</g>
<g>
</g>
</svg>
