<?xml version="1.0" encoding="utf-8"?>
<!-- Generator: Adobe Illustrator 27.2.0, SVG Export Plug-In . SVG Version: 6.00 Build 0)  -->
<svg version="1.1" id="Layer_1" xmlns="http://www.w3.org/2000/svg" xmlns:xlink="http://www.w3.org/1999/xlink" x="0px" y="0px"
	 viewBox="0 0 800 600" style="enable-background:new 0 0 800 600;" xml:space="preserve">
<g>
	<g>
		<path d="M78.23,462.91l58.85,58.85l58.85-58.85l-58.85-58.85L78.23,462.91z M137.09,517.52l-54.61-54.61l54.61-54.61l54.61,54.61
			L137.09,517.52z"/>
		<path d="M163.48,487.64l24.73-24.73l-24.73-24.73l-24.73,24.73L163.48,487.64z M183.97,462.91l-20.49,20.49l-20.49-20.49
			l20.49-20.49L183.97,462.91z"/>
		<path d="M163.48,472.58c5.33,0,9.67-4.34,9.67-9.67s-4.34-9.67-9.67-9.67s-9.67,4.34-9.67,9.67S158.15,472.58,163.48,472.58z
			 M163.48,455.25c4.23,0,7.67,3.44,7.67,7.67s-3.44,7.67-7.67,7.67s-7.67-3.44-7.67-7.67S159.25,455.25,163.48,455.25z"/>
		<path d="M163.48,466.83c2.16,0,3.92-1.75,3.92-3.92s-1.75-3.92-3.92-3.92s-3.92,1.75-3.92,3.92S161.31,466.83,163.48,466.83z"/>
		<path d="M112.36,436.52l24.73,24.73l24.73-24.73l-24.73-24.73L112.36,436.52z M137.09,457.01l-20.49-20.49l20.49-20.49
			l20.49,20.49L137.09,457.01z"/>
		<path d="M127.42,436.52c0,5.33,4.34,9.67,9.67,9.67s9.67-4.34,9.67-9.67s-4.34-9.67-9.67-9.67S127.42,431.19,127.42,436.52z
			 M144.75,436.52c0,4.23-3.44,7.67-7.67,7.67s-7.67-3.44-7.67-7.67s3.44-7.67,7.67-7.67S144.75,432.3,144.75,436.52z"/>
		<path d="M133.17,436.52c0,2.16,1.75,3.92,3.92,3.92s3.92-1.75,3.92-3.92s-1.75-3.92-3.92-3.92S133.17,434.36,133.17,436.52z"/>
		<path d="M110.7,438.18l-24.73,24.73l24.73,24.73l24.73-24.73L110.7,438.18z M90.21,462.91l20.49-20.49l20.49,20.49L110.7,483.4
			L90.21,462.91z"/>
		<path d="M110.7,453.25c-5.33,0-9.67,4.34-9.67,9.67s4.34,9.67,9.67,9.67s9.67-4.34,9.67-9.67S116.03,453.25,110.7,453.25z
			 M110.7,470.58c-4.23,0-7.67-3.44-7.67-7.67s3.44-7.67,7.67-7.67s7.67,3.44,7.67,7.67S114.92,470.58,110.7,470.58z"/>
		<path d="M110.7,459c-2.16,0-3.92,1.75-3.92,3.92s1.75,3.92,3.92,3.92s3.92-1.75,3.92-3.92S112.86,459,110.7,459z"/>
		<path d="M112.36,489.3l24.73,24.73l24.73-24.73l-24.73-24.73L112.36,489.3z M137.09,509.79L116.6,489.3l20.49-20.49l20.49,20.49
			L137.09,509.79z"/>
		<path d="M127.42,489.3c0,5.33,4.34,9.67,9.67,9.67s9.67-4.34,9.67-9.67s-4.34-9.67-9.67-9.67S127.42,483.97,127.42,489.3z
			 M144.75,489.3c0,4.23-3.44,7.67-7.67,7.67s-7.67-3.44-7.67-7.67s3.44-7.67,7.67-7.67S144.75,485.08,144.75,489.3z"/>
		<path d="M133.17,489.3c0,2.16,1.75,3.92,3.92,3.92s3.92-1.75,3.92-3.92s-1.75-3.92-3.92-3.92S133.17,487.14,133.17,489.3z"/>
		<path d="M209.83,461.52l8.43-8.43l-1.06-1.06l-1.06-1.06l-9.72,9.72l1.06,1.06l0.95,0.95v0.21l-71.35-71.35h0.1h0.11l0.95,0.95
			l1.06,1.06l9.72-9.72l-1.06-1.06l-1.06-1.06l-8.22,8.22v-14.13h-1.5h-1.5v14.34l-8.43-8.43l-1.06,1.06l-1.06,1.06l9.72,9.72
			l1.06-1.06l0.95-0.95h0.21l-71.35,71.35v-0.1v-0.11l0.96-0.95l1.06-1.06l-9.72-9.72l-1.06,1.06l-1.06,1.06l8.22,8.22H50v1.5v1.5
			h14.34l-8.43,8.43l1.06,1.06l1.06,1.06l9.72-9.72l-1.06-1.06l-0.96-0.95v-0.21l71.35,71.35h-0.1h-0.11l-0.95-0.95l-1.06-1.06
			l-9.72,9.72l1.06,1.06l1.06,1.06l8.22-8.22V550h1.5h1.5v-14.34l8.43,8.43l1.06-1.06l1.06-1.06l-9.72-9.72l-1.06,1.06l-0.95,0.95
			h-0.21l71.35-71.35v0.1v0.11l-0.95,0.95l-1.06,1.06l9.72,9.72l1.06-1.06l1.06-1.06l-8.22-8.22h14.13v-1.5v-1.5H209.83z
			 M137.09,530.02l-67.11-67.11l67.11-67.11l67.11,67.11L137.09,530.02z"/>
		<polygon points="144.02,398.29 145.08,399.35 154.8,389.62 153.74,388.56 152.68,387.5 142.96,397.23 		"/>
		<polygon points="149.79,404.05 150.85,405.12 160.57,395.39 159.51,394.33 158.45,393.27 148.73,402.99 		"/>
		<polygon points="155.56,409.82 156.62,410.88 166.34,401.16 165.28,400.1 164.22,399.04 154.5,408.76 		"/>
		<polygon points="161.33,415.59 162.39,416.65 172.11,406.93 171.05,405.87 169.99,404.81 160.27,414.53 		"/>
		<polygon points="167.1,421.36 168.16,422.42 177.88,412.7 176.82,411.64 175.76,410.58 166.04,420.3 		"/>
		<polygon points="172.87,427.13 173.93,428.19 183.65,418.47 182.59,417.41 181.53,416.35 171.81,426.07 		"/>
		<polygon points="178.64,432.9 179.7,433.96 189.42,424.24 188.36,423.18 187.3,422.12 177.58,431.84 		"/>
		<polygon points="184.41,438.67 185.47,439.73 195.19,430.01 194.13,428.95 193.07,427.89 183.35,437.61 		"/>
		<polygon points="190.18,444.44 191.24,445.5 200.96,435.78 199.9,434.72 198.84,433.66 189.12,443.38 		"/>
		<polygon points="195.95,450.21 197.01,451.27 206.73,441.55 205.67,440.49 204.61,439.43 194.88,449.15 		"/>
		<polygon points="201.71,455.98 202.78,457.04 212.5,447.32 211.44,446.26 210.38,445.2 200.65,454.92 		"/>
		<polygon points="72.46,455.98 73.52,454.92 63.8,445.2 62.74,446.26 61.67,447.32 71.4,457.04 		"/>
		<polygon points="78.23,450.21 79.29,449.15 69.57,439.43 68.5,440.49 67.44,441.55 77.17,451.27 		"/>
		<polygon points="84,444.44 85.06,443.38 75.33,433.66 74.27,434.72 73.21,435.78 82.94,445.5 		"/>
		<polygon points="89.77,438.67 90.83,437.61 81.1,427.89 80.04,428.95 78.98,430.01 88.71,439.73 		"/>
		<polygon points="95.54,432.9 96.6,431.84 86.87,422.12 85.81,423.18 84.75,424.24 94.48,433.96 		"/>
		<polygon points="101.31,427.13 102.37,426.07 92.64,416.35 91.58,417.41 90.52,418.47 100.25,428.19 		"/>
		<polygon points="107.07,421.36 108.13,420.3 98.41,410.58 97.35,411.64 96.29,412.7 106.01,422.42 		"/>
		<polygon points="112.84,415.59 113.9,414.53 104.18,404.81 103.12,405.87 102.06,406.93 111.78,416.65 		"/>
		<polygon points="118.61,409.82 119.67,408.76 109.95,399.04 108.89,400.1 107.83,401.16 117.55,410.88 		"/>
		<polygon points="124.38,404.06 125.44,402.99 115.72,393.27 114.66,394.33 113.6,395.39 123.32,405.12 		"/>
		<polygon points="130.15,398.29 131.21,397.23 121.49,387.5 120.43,388.56 119.37,389.62 129.09,399.35 		"/>
		<polygon points="130.15,527.54 129.09,526.48 119.37,536.2 120.43,537.26 121.49,538.33 131.21,528.6 		"/>
		<polygon points="124.38,521.77 123.32,520.71 113.6,530.44 114.66,531.5 115.72,532.56 125.44,522.83 		"/>
		<polygon points="118.61,516 117.55,514.94 107.83,524.67 108.89,525.73 109.95,526.79 119.67,517.06 		"/>
		<polygon points="112.84,510.23 111.78,509.17 102.06,518.9 103.12,519.96 104.18,521.02 113.9,511.29 		"/>
		<polygon points="107.07,504.46 106.01,503.4 96.29,513.13 97.35,514.19 98.41,515.25 108.13,505.52 		"/>
		<polygon points="101.31,498.69 100.25,497.63 90.52,507.36 91.58,508.42 92.64,509.48 102.37,499.76 		"/>
		<polygon points="95.54,492.93 94.48,491.87 84.75,501.59 85.81,502.65 86.87,503.71 96.6,493.99 		"/>
		<polygon points="89.77,487.16 88.71,486.1 78.98,495.82 80.04,496.88 81.1,497.94 90.83,488.22 		"/>
		<polygon points="84,481.39 82.94,480.33 73.21,490.05 74.27,491.11 75.33,492.17 85.06,482.45 		"/>
		<polygon points="78.23,475.62 77.17,474.56 67.44,484.28 68.5,485.34 69.57,486.4 79.29,476.68 		"/>
		<polygon points="72.46,469.85 71.4,468.79 61.67,478.51 62.74,479.57 63.8,480.63 73.52,470.91 		"/>
		<polygon points="201.71,469.85 200.65,470.91 210.38,480.63 211.44,479.57 212.5,478.51 202.78,468.79 		"/>
		<polygon points="195.95,475.62 194.88,476.68 204.61,486.4 205.67,485.34 206.73,484.28 197.01,474.56 		"/>
		<polygon points="190.18,481.39 189.12,482.45 198.84,492.17 199.9,491.11 200.96,490.05 191.24,480.33 		"/>
		<polygon points="184.41,487.16 183.35,488.22 193.07,497.94 194.13,496.88 195.19,495.82 185.47,486.1 		"/>
		<polygon points="178.64,492.93 177.58,493.99 187.3,503.71 188.36,502.65 189.42,501.59 179.7,491.87 		"/>
		<polygon points="172.87,498.69 171.81,499.76 181.53,509.48 182.59,508.42 183.65,507.36 173.93,497.63 		"/>
		<polygon points="167.1,504.46 166.04,505.52 175.76,515.25 176.82,514.19 177.88,513.13 168.16,503.4 		"/>
		<polygon points="161.33,510.23 160.27,511.29 169.99,521.02 171.05,519.96 172.11,518.9 162.39,509.17 		"/>
		<polygon points="155.56,516 154.5,517.06 164.22,526.79 165.28,525.73 166.34,524.67 156.62,514.94 		"/>
		<polygon points="149.79,521.77 148.73,522.83 158.45,532.56 159.51,531.5 160.57,530.44 150.85,520.71 		"/>
		<polygon points="144.02,527.54 142.96,528.6 152.68,538.33 153.74,537.26 154.8,536.2 145.08,526.48 		"/>
	</g>
</g>
<g>
</g>
<g>
</g>
<g>
</g>
<g>
</g>
<g>
</g>
<g>
</g>
<g>
</g>
<g>
</g>
<g>
</g>
<g>
</g>
<g>
</g>
<g>
</g>
<g>
</g>
<g>
</g>
<g>
</g>
</svg>
