<?xml version="1.0" encoding="utf-8"?>
<!-- Generator: Adobe Illustrator 27.2.0, SVG Export Plug-In . SVG Version: 6.00 Build 0)  -->
<svg version="1.1" id="Layer_1" xmlns="http://www.w3.org/2000/svg" xmlns:xlink="http://www.w3.org/1999/xlink" x="0px" y="0px"
	 viewBox="0 0 800 600" style="enable-background:new 0 0 800 600;" xml:space="preserve">
<g>
	<g>
		<path d="M71.73,448.1c-0.58,1.07-1.07,2.18-1.61,3.26c-0.48,1.11-0.85,2.27-1.28,3.4l-4.41-1.44c-0.41,1.15-0.65,2.35-0.97,3.53
			l4.51,1.06h0.01c-0.36,1.16-0.45,2.38-0.66,3.57c-0.23,1.19-0.25,2.4-0.31,3.61H67l-4.63-0.19l-0.09,1.82l0.09,1.83l4.63-0.2h0.01
			c0.06,1.21,0.08,2.43,0.31,3.62c0.21,1.19,0.3,2.4,0.66,3.57h-0.01l-4.51,1.05c0.32,1.18,0.56,2.38,0.97,3.53l4.41-1.43
			c0.43,1.13,0.8,2.29,1.28,3.39c0.54,1.09,1.03,2.2,1.6,3.26l-4.06,2.25l1.9,3.13l3.86-2.59c0.7,0.99,1.44,1.95,2.16,2.92
			c0.78,0.93,1.62,1.8,2.42,2.71l-3.3,3.25c0.85,0.87,1.78,1.66,2.68,2.49l3.02-3.53c0.43,0.43,0.92,0.79,1.41,1.15l1.45,1.09
			c0.48,0.37,0.99,0.7,1.51,1l1.55,0.95l-2.31,4.02c1.02,0.67,2.16,1.13,3.25,1.68l1.96-4.21c1.08,0.57,2.22,0.96,3.36,1.38
			c0.58,0.19,1.13,0.44,1.72,0.59l1.76,0.46l-1.14,4.5l1.78,0.45c0.6,0.11,1.2,0.19,1.8,0.29l0.75-4.58c1.2,0.18,2.39,0.4,3.61,0.41
			l1.81,0.09c0.3,0.02,0.61,0.04,0.91,0.04l0.9-0.04l0.12,4.64c1.22-0.07,2.44-0.09,3.65-0.23l-0.51-4.61l3.59-0.56l3.52-0.9
			l1.36,4.43c1.16-0.39,2.3-0.82,3.45-1.24l-1.74-4.3c1.14-0.42,2.2-1.02,3.3-1.53c0.55-0.24,1.07-0.56,1.58-0.88l1.55-0.94h0.01
			l2.51,3.9l0.78-0.48l0.74-0.54l1.46-1.1l-2.84-3.67c1-0.69,1.87-1.55,2.77-2.35c0.93-0.78,1.71-1.71,2.53-2.6l3.47,3.08
			c0.4-0.46,0.84-0.89,1.21-1.37l1.1-1.46l-3.72-2.78l1.08-1.46l0.95-1.55l0.94-1.55c0.28-0.54,0.53-1.09,0.8-1.63l4.17,2.03
			c0.53-1.1,1.08-2.19,1.47-3.35l-4.34-1.67c0.4-1.15,0.9-2.26,1.15-3.45l0.45-1.76l0.22-0.88l0.14-0.9l4.57,0.83
			c0.18-1.21,0.4-2.41,0.51-3.63l-4.62-0.43l0.19-3.63l-0.19-3.62l4.62-0.43c-0.11-1.21-0.33-2.42-0.51-3.62l-4.57,0.82l-0.14-0.9
			l-0.22-0.88l-0.45-1.76c-0.25-1.19-0.75-2.3-1.15-3.44l0.01-0.01l4.33-1.66c-0.39-1.17-0.93-2.26-1.47-3.36l-4.17,2.03
			c-0.27-0.54-0.52-1.09-0.8-1.63l-0.94-1.55l-0.95-1.55l-1.08-1.46l3.72-2.77l-1.1-1.47c-0.37-0.48-0.8-0.91-1.21-1.37l-3.47,3.08
			c-0.82-0.89-1.6-1.82-2.53-2.6c-0.9-0.81-1.76-1.66-2.76-2.35l2.83-3.67l-1.46-1.1l-0.74-0.54l-0.78-0.48l-2.51,3.9l-1.56-0.94
			c-0.51-0.32-1.03-0.64-1.58-0.88c-1.1-0.51-2.16-1.11-3.3-1.53l1.74-4.3c-1.14-0.42-2.29-0.85-3.44-1.24l-1.37,4.43l-3.52-0.9
			l-3.59-0.56l0.51-4.61c-1.21-0.14-2.43-0.16-3.65-0.23l-0.11,4.64h-0.01l-0.9-0.04c-0.3,0-0.61,0.02-0.91,0.03l-1.81,0.09
			c-1.22,0.02-2.41,0.24-3.61,0.42l-0.74-4.58c-0.6,0.1-1.21,0.18-1.81,0.29l-1.77,0.45l1.13,4.5l-1.76,0.46
			c-0.59,0.15-1.14,0.4-1.72,0.59c-1.13,0.42-2.28,0.81-3.35,1.37l-1.97-4.2c-1.08,0.55-2.23,1-3.25,1.68l2.31,4.02l-1.55,0.94
			c-0.52,0.31-1.03,0.63-1.51,1.01l-1.45,1.09c-0.49,0.36-0.97,0.72-1.41,1.14l-3.02-3.52c-0.9,0.83-1.83,1.62-2.68,2.49l3.31,3.25
			c-0.81,0.9-1.65,1.78-2.43,2.7c-0.72,0.98-1.46,1.93-2.16,2.92l-3.86-2.58l-1.9,3.13L71.73,448.1L71.73,448.1z M72.99,452.61
			c0.5-0.99,0.95-2.01,1.47-2.99l4.06,2.24l1.36-2.23l-3.86-2.58c0.64-0.91,1.33-1.78,1.99-2.68c0.71-0.85,1.49-1.65,2.23-2.48
			v-0.01l3.3,3.26c0.61-0.62,1.29-1.17,1.92-1.77l-3.02-3.52c0.4-0.39,0.84-0.72,1.29-1.05l1.34-1c0.43-0.35,0.9-0.65,1.39-0.93
			l1.42-0.86l2.31,4.02c0.72-0.5,1.55-0.79,2.32-1.2l-1.96-4.2c0.98-0.52,2.04-0.88,3.08-1.26c0.53-0.18,1.04-0.41,1.58-0.55
			l1.61-0.41l1.13,4.49l1.26-0.33l1.29-0.19l-0.74-4.58c1.1-0.16,2.19-0.38,3.31-0.38l1.67-0.09c0.27-0.01,0.55-0.03,0.83-0.03
			l0.83,0.04l-0.11,4.64c0.86,0.06,1.74,0.06,2.6,0.15l0.51-4.61l3.3,0.51l3.23,0.83l-1.37,4.43l2.45,0.89l1.74-4.29
			c1.04,0.38,2.01,0.94,3.03,1.39c0.51,0.22,0.98,0.52,1.45,0.81l1.43,0.87l-2.52,3.9l0.56,0.33l0.52,0.4l1.05,0.78l2.83-3.67
			c0.92,0.63,1.71,1.42,2.54,2.16c0.86,0.71,1.58,1.57,2.33,2.39l-3.47,3.08c0.29,0.32,0.61,0.62,0.87,0.97l0.77,1.05l3.72-2.77
			l1,1.33l0.87,1.43l0.86,1.42c0.26,0.5,0.49,1,0.74,1.5l-4.17,2.03c0.37,0.78,0.78,1.55,1.04,2.39l4.32-1.67
			c0.36,1.05,0.83,2.07,1.05,3.16l0.42,1.62l0.21,0.81l0.12,0.82l-4.56,0.82c0.11,0.86,0.29,1.72,0.37,2.58l4.62-0.43l0.17,3.33
			l-0.17,3.34l-4.62-0.43c-0.08,0.87-0.26,1.72-0.37,2.58l4.56,0.82l-0.12,0.82l-0.21,0.81l-0.42,1.62
			c-0.22,1.09-0.69,2.11-1.05,3.16l-4.32-1.66c-0.26,0.83-0.67,1.6-1.05,2.38l4.17,2.03c-0.24,0.5-0.47,1-0.73,1.5l-0.86,1.42
			l-0.87,1.43l-1,1.34l-3.72-2.78l-0.77,1.05c-0.27,0.35-0.59,0.65-0.87,0.97l3.47,3.08c-0.75,0.82-1.47,1.68-2.33,2.39
			c-0.83,0.74-1.62,1.53-2.54,2.16l-2.83-3.67l-1.05,0.78l-0.52,0.4l-0.56,0.33l2.52,3.9l-1.43,0.86c-0.47,0.3-0.94,0.59-1.45,0.82
			c-1.02,0.45-1.99,1.01-3.03,1.39l-1.74-4.3l-2.45,0.89l1.37,4.44l-3.23,0.83l-3.3,0.51l-0.51-4.61c-0.86,0.09-1.74,0.09-2.61,0.15
			l0.12,4.64l-0.83,0.04c-0.28,0-0.56-0.02-0.83-0.03l-1.67-0.09c-1.12-0.01-2.21-0.22-3.32-0.38l0.75-4.58l-1.29-0.19l-1.26-0.34
			l-1.13,4.5l-1.61-0.41c-0.54-0.14-1.05-0.37-1.58-0.55c-1.04-0.38-2.1-0.74-3.08-1.26h-0.01l1.97-4.21
			c-0.77-0.4-1.6-0.69-2.32-1.19l-2.31,4.02l-1.42-0.86c-0.49-0.28-0.96-0.58-1.39-0.93l-1.34-1c-0.45-0.33-0.89-0.66-1.29-1.05
			l3.02-3.52c-0.63-0.6-1.31-1.15-1.92-1.77l-3.3,3.25c-0.74-0.83-1.52-1.63-2.23-2.48c-0.66-0.9-1.35-1.78-1.99-2.69l3.86-2.57
			l-1.36-2.23l-4.06,2.24c-0.52-0.98-0.97-2-1.47-2.99c-0.44-1.02-0.78-2.09-1.18-3.13l4.41-1.43c-0.3-0.82-0.44-1.68-0.68-2.51
			l-4.52,1.05c-0.33-1.06-0.41-2.18-0.6-3.27c-0.22-1.1-0.23-2.22-0.29-3.33l4.64-0.19l-0.08-1.31l0.08-1.3l-4.64-0.2
			c0.06-1.11,0.07-2.22,0.29-3.32c0.2-1.09,0.27-2.21,0.6-3.28l4.52,1.06c0.24-0.83,0.38-1.7,0.68-2.51l-4.4-1.44
			C72.21,454.69,72.55,453.63,72.99,452.61z"/>
		<path d="M105.48,481.83c8.33,0,15.11-6.78,15.11-15.11c0-8.33-6.78-15.11-15.11-15.11s-15.11,6.78-15.11,15.11
			C90.38,475.06,97.15,481.83,105.48,481.83z M105.48,454.62c6.68,0,12.11,5.43,12.11,12.11c0,6.68-5.43,12.11-12.11,12.11
			s-12.11-5.43-12.11-12.11C93.38,460.05,98.81,454.62,105.48,454.62z"/>
		<circle cx="105.48" cy="466.72" r="4.01"/>
		<polygon points="159.55,514.65 154.77,514.65 154.77,517.48 159.55,517.48 159.55,523.89 153.14,523.89 153.14,519.11 
			150.31,519.11 150.31,523.89 145.52,523.89 145.52,526.73 150.31,526.73 150.31,531.51 153.14,531.51 153.14,526.73 
			159.55,526.73 159.55,533.14 154.77,533.14 154.77,535.97 159.55,535.97 159.55,542.38 153.14,542.38 153.14,537.59 
			150.31,537.59 150.31,542.38 143.9,542.38 143.9,535.97 148.69,535.97 148.69,533.14 143.9,533.14 143.9,528.35 141.06,528.35 
			141.06,533.14 136.28,533.14 136.28,535.97 141.06,535.97 141.06,542.38 134.66,542.38 134.66,537.59 131.82,537.59 
			131.82,542.38 125.41,542.38 125.41,537.59 122.58,537.59 122.58,542.38 116.16,542.38 116.16,537.59 113.32,537.59 
			113.32,542.38 106.9,542.38 106.9,537.59 104.07,537.59 104.07,542.38 97.65,542.38 97.65,537.59 94.81,537.59 94.81,542.38 
			88.39,542.38 88.39,537.59 85.56,537.59 85.56,542.38 79.15,542.38 79.15,537.59 76.31,537.59 76.31,542.38 69.91,542.38 
			69.91,535.97 74.69,535.97 74.69,533.14 69.91,533.14 69.91,528.35 67.07,528.35 67.07,533.14 62.28,533.14 62.28,535.97 
			67.07,535.97 67.07,542.38 60.66,542.38 60.66,537.59 57.83,537.59 57.83,542.38 51.42,542.38 51.42,535.97 56.2,535.97 
			56.2,533.14 51.42,533.14 51.42,526.73 57.83,526.73 57.83,531.51 60.66,531.51 60.66,526.73 65.45,526.73 65.45,523.89 
			60.66,523.89 60.66,519.11 57.83,519.11 57.83,523.89 51.42,523.89 51.42,517.48 56.2,517.48 56.2,514.65 51.42,514.65 
			51.42,509.86 50,509.86 50,550 51.42,550 51.42,545.22 57.83,545.22 57.83,550 60.66,550 60.66,545.22 67.07,545.22 67.07,550 
			69.91,550 69.91,545.22 76.31,545.22 76.31,550 79.15,550 79.15,545.22 85.56,545.22 85.56,550 88.39,550 88.39,545.22 
			94.81,545.22 94.81,550 97.65,550 97.65,545.22 104.07,545.22 104.07,550 106.9,550 106.9,545.22 113.32,545.22 113.32,550 
			116.16,550 116.16,545.22 122.58,545.22 122.58,550 125.41,550 125.41,545.22 131.82,545.22 131.82,550 134.66,550 134.66,545.22 
			141.06,545.22 141.06,550 143.9,550 143.9,545.22 150.31,545.22 150.31,550 153.14,550 153.14,545.22 159.55,545.22 159.55,550 
			160.97,550 160.97,509.86 159.55,509.86 		"/>
		<path d="M51.05,492c0.48,0.93,0.88,1.91,1.43,2.8l1.84,2.98l0.92,1.49c0.32,0.48,0.69,0.93,1.04,1.4l-3.76,2.73l2.05,2.69
			l3.61-2.92c0.67,0.96,1.51,1.78,2.29,2.65l2.38,2.56l-3.24,3.31l2.52,2.26l3.07-3.48l1.31,1.16c0.43,0.4,0.87,0.78,1.36,1.11
			l2.82,2.06l-2.65,3.81c0.45,0.33,0.9,0.67,1.37,0.99l1.45,0.87l2.45-3.94l3.01,1.79c1,0.59,2.09,1.03,3.13,1.55l-1.98,4.19
			c1.02,0.47,2.03,0.99,3.07,1.42l1.77-4.29l3.29,1.19l1.64,0.6c0.55,0.18,1.12,0.3,1.68,0.46l-1.26,4.46l3.27,0.86l1.04-4.53
			c1.12,0.34,2.29,0.45,3.43,0.66c1.15,0.18,2.3,0.39,3.46,0.54l-0.51,4.61l3.38,0.23l0.27-4.63v-0.01
			c1.16,0.05,2.32,0.22,3.49,0.13c1.17,0.09,2.33-0.08,3.5-0.13v0.01l0.27,4.63l3.38-0.23l-0.51-4.61c1.15-0.15,2.3-0.36,3.45-0.54
			c1.15-0.21,2.32-0.32,3.43-0.66l1.04,4.53l3.28-0.86l-1.27-4.46c0.56-0.16,1.13-0.28,1.68-0.46l1.65-0.6l3.29-1.19l1.76,4.29
			c1.05-0.43,2.05-0.95,3.08-1.42l-1.99-4.19c1.04-0.52,2.13-0.96,3.13-1.55l3.01-1.79l2.45,3.94l1.45-0.87
			c0.47-0.32,0.92-0.66,1.38-0.99l-2.65-3.81l2.82-2.06c0.48-0.33,0.92-0.71,1.35-1.11l1.31-1.16l3.07,3.48l2.53-2.26l-3.25-3.31
			l2.38-2.56c0.78-0.87,1.62-1.69,2.29-2.65l3.61,2.92l2.05-2.69l-3.75-2.73h-0.01c0.35-0.47,0.72-0.92,1.05-1.4l0.92-1.49
			l1.83-2.98c0.56-0.89,0.95-1.87,1.43-2.8l1.06-2.48l-0.01-5.82l-0.01,0.01v-67.98h-1.4v4.79h-4.79v2.84h4.79v6.4h-6.41v-4.78
			h-2.83v4.78h-4.79v2.84h4.79v4.79h2.83v-4.79h6.41v6.41h-4.79v2.83h4.79v4.79h-0.08v39.74l-2.37,4.24h0.01
			c-0.46,0.88-0.83,1.81-1.35,2.66h-0.01l-1.74,2.82l-0.87,1.41c-0.3,0.46-0.66,0.89-0.99,1.33l-3.75-2.72l-1.66,2.18l3.6,2.92
			c-0.63,0.91-1.42,1.68-2.17,2.5l-2.25,2.43l-3.25-3.31l-2.05,1.82l3.07,3.48l-1.24,1.1c-0.41,0.38-0.83,0.74-1.29,1.05l-2.67,1.95
			l-2.65-3.8c-0.37,0.27-0.74,0.55-1.11,0.81l-1.19,0.69l2.46,3.94l-2.86,1.7c-0.95,0.57-1.98,0.97-2.97,1.47l-1.99-4.19
			c-0.83,0.38-1.64,0.81-2.48,1.15l1.76,4.29L122.8,520c-0.52,0.16-1.06,0.28-1.6,0.43l-1.26-4.46l-2.66,0.69l1.04,4.52
			c-1.06,0.33-2.17,0.42-3.26,0.62c-1.09,0.17-2.18,0.37-3.28,0.52l-0.51-4.61l-2.73,0.17l0.27,4.63c-0.87,0.04-1.74,0.15-2.61,0.15
			c-0.24,0-0.47-0.01-0.71-0.03c-1.11,0.09-2.21-0.07-3.31-0.12l0.27-4.63l-2.74-0.17l-0.51,4.61c-1.09-0.15-2.18-0.35-3.28-0.52
			c-1.08-0.2-2.19-0.29-3.25-0.62l1.03-4.52l-2.65-0.69l-1.27,4.46c-0.53-0.15-1.07-0.27-1.6-0.43l-4.68-1.71l1.77-4.29
			c-0.85-0.34-1.66-0.77-2.49-1.15l-1.99,4.19c-0.98-0.5-2.02-0.9-2.97-1.47l-2.85-1.7l2.45-3.94l-1.18-0.69
			c-0.38-0.26-0.74-0.54-1.11-0.81l-2.65,3.8l-2.68-1.95c-0.46-0.31-0.88-0.67-1.29-1.05l-1.24-1.1l3.07-3.48l-2.05-1.82l-3.24,3.31
			l-2.26-2.43c-0.74-0.82-1.54-1.59-2.17-2.5l3.6-2.92l-1.65-2.18l-3.76,2.72c-0.33-0.44-0.68-0.87-0.99-1.33l-0.87-1.41l-1.74-2.82
			c-0.53-0.85-0.9-1.78-1.35-2.66l-2.38-4.25v-39.73H51.4v-4.79h4.79v-2.83H51.4v-6.41h6.41v4.79h2.84v-4.79h4.78v-2.84h-4.78v-4.78
			h-2.84v4.78H51.4v-6.4h4.79v-2.84H51.4v-4.79H50v73.79L51.05,492L51.05,492z"/>
		<path d="M162.04,492c0.48,0.93,0.88,1.91,1.43,2.8l1.84,2.98l0.92,1.49c0.32,0.48,0.69,0.93,1.04,1.4l-3.76,2.73l2.05,2.69
			l3.61-2.92c0.67,0.96,1.51,1.78,2.29,2.65l2.38,2.56l-3.24,3.31l2.52,2.26l3.07-3.48l1.31,1.16c0.43,0.4,0.87,0.78,1.36,1.11
			l2.82,2.06l-2.65,3.81c0.45,0.33,0.9,0.67,1.37,0.99l1.45,0.87l2.45-3.94l3.01,1.79c1,0.59,2.09,1.03,3.13,1.55l-1.98,4.19
			c1.02,0.47,2.03,0.99,3.07,1.42l1.77-4.29l3.29,1.19l1.64,0.6c0.55,0.18,1.12,0.3,1.68,0.46l-1.26,4.46l3.27,0.86l1.04-4.53
			c1.12,0.34,2.29,0.45,3.43,0.66c1.15,0.18,2.3,0.39,3.46,0.54l-0.51,4.61l3.38,0.23l0.27-4.63v-0.01
			c1.16,0.05,2.32,0.22,3.49,0.13c1.17,0.09,2.33-0.08,3.5-0.13v0.01l0.27,4.63l3.38-0.23l-0.51-4.61c1.15-0.15,2.3-0.36,3.45-0.54
			c1.15-0.21,2.32-0.32,3.43-0.66l1.04,4.53l3.28-0.86l-1.27-4.46c0.56-0.16,1.13-0.28,1.68-0.46l1.65-0.6l3.29-1.19l1.76,4.29
			c1.05-0.43,2.05-0.95,3.08-1.42l-1.99-4.19c1.04-0.52,2.13-0.96,3.13-1.55l3.01-1.79l2.45,3.94l1.45-0.87
			c0.47-0.32,0.92-0.66,1.38-0.99l-2.65-3.81l2.82-2.06c0.48-0.33,0.92-0.71,1.35-1.11l1.31-1.16l3.07,3.48l2.53-2.26l-3.25-3.31
			l2.38-2.56c0.78-0.87,1.62-1.69,2.29-2.65l3.61,2.92l2.05-2.69l-3.75-2.73h-0.01c0.35-0.47,0.72-0.92,1.05-1.4l0.92-1.49
			l1.83-2.98c0.56-0.89,0.95-1.87,1.43-2.8l1.06-2.48l-0.01-5.82l-0.01,0.01v-67.98h-1.4v4.79h-4.79v2.84h4.79v6.4h-6.41v-4.78
			h-2.83v4.78h-4.79v2.84h4.79v4.79h2.83v-4.79h6.41v6.41h-4.79v2.83h4.79v4.79h-0.08v39.74l-2.37,4.24h0.01
			c-0.46,0.88-0.83,1.81-1.35,2.66h-0.01l-1.74,2.82l-0.87,1.41c-0.3,0.46-0.66,0.89-0.99,1.33l-3.75-2.72l-1.66,2.18l3.6,2.92
			c-0.63,0.91-1.42,1.68-2.17,2.5l-2.25,2.43l-3.25-3.31l-2.05,1.82l3.07,3.48l-1.24,1.1c-0.41,0.38-0.83,0.74-1.29,1.05l-2.67,1.95
			l-2.65-3.8c-0.37,0.27-0.74,0.55-1.11,0.81l-1.19,0.69l2.46,3.94l-2.86,1.7c-0.95,0.57-1.98,0.97-2.97,1.47l-1.99-4.19
			c-0.83,0.38-1.64,0.81-2.48,1.15l1.76,4.29l-4.68,1.71c-0.52,0.16-1.06,0.28-1.6,0.43l-1.26-4.46l-2.66,0.69l1.04,4.52
			c-1.06,0.33-2.17,0.42-3.26,0.62c-1.09,0.17-2.18,0.37-3.28,0.52l-0.51-4.61l-2.73,0.17l0.27,4.63c-0.87,0.04-1.74,0.15-2.61,0.15
			c-0.24,0-0.47-0.01-0.71-0.03c-1.11,0.09-2.21-0.07-3.31-0.12l0.27-4.63l-2.74-0.17l-0.51,4.61c-1.09-0.15-2.18-0.35-3.28-0.52
			c-1.08-0.2-2.19-0.29-3.25-0.62l1.03-4.52l-2.65-0.69l-1.27,4.46c-0.53-0.15-1.07-0.27-1.6-0.43l-4.68-1.71l1.77-4.29
			c-0.85-0.34-1.66-0.77-2.49-1.15l-1.99,4.19c-0.98-0.5-2.02-0.9-2.97-1.47l-2.85-1.7l2.45-3.94l-1.18-0.69
			c-0.38-0.26-0.74-0.54-1.11-0.81l-2.65,3.8l-2.68-1.95c-0.46-0.31-0.88-0.67-1.29-1.05l-1.24-1.1l3.07-3.48l-2.05-1.82l-3.24,3.31
			l-2.26-2.43c-0.74-0.82-1.54-1.59-2.17-2.5l3.6-2.92l-1.65-2.18l-3.76,2.72c-0.33-0.44-0.68-0.87-0.99-1.33l-0.87-1.41l-1.74-2.82
			c-0.53-0.85-0.9-1.78-1.35-2.66l-2.38-4.25v-39.73h-0.08v-4.79h4.79v-2.83h-4.79v-6.41h6.41v4.79h2.84v-4.79h4.78v-2.84h-4.78
			v-4.78h-2.84v4.78h-6.41v-6.4h4.79v-2.84h-4.79v-4.79h-1.4v73.79l1.06,2.48H162.04z"/>
		<path d="M182.72,448.1c-0.58,1.07-1.07,2.18-1.61,3.26c-0.48,1.11-0.85,2.27-1.28,3.4l-4.41-1.44c-0.41,1.15-0.65,2.35-0.97,3.53
			l4.51,1.06h0.01c-0.36,1.16-0.45,2.38-0.66,3.57c-0.23,1.19-0.25,2.4-0.31,3.61h-0.01l-4.63-0.19l-0.09,1.82l0.09,1.83l4.63-0.2
			H178c0.06,1.21,0.08,2.43,0.31,3.62c0.21,1.19,0.3,2.4,0.66,3.57h-0.01l-4.51,1.05c0.32,1.18,0.56,2.38,0.97,3.53l4.41-1.43
			c0.43,1.13,0.8,2.29,1.28,3.39c0.54,1.09,1.03,2.2,1.6,3.26l-4.06,2.25l1.9,3.13l3.86-2.59c0.7,0.99,1.44,1.95,2.16,2.92
			c0.78,0.93,1.62,1.8,2.42,2.71l-3.3,3.25c0.85,0.87,1.78,1.66,2.68,2.49l3.02-3.53c0.43,0.43,0.92,0.79,1.41,1.15l1.45,1.09
			c0.48,0.37,0.99,0.7,1.51,1l1.55,0.95l-2.31,4.02c1.02,0.67,2.16,1.13,3.25,1.68l1.96-4.21c1.08,0.57,2.22,0.96,3.36,1.38
			c0.58,0.19,1.13,0.44,1.72,0.59l1.76,0.46l-1.14,4.5l1.78,0.45c0.6,0.11,1.2,0.19,1.8,0.29l0.75-4.58c1.2,0.18,2.39,0.4,3.61,0.41
			l1.81,0.09c0.3,0.02,0.61,0.04,0.91,0.04l0.9-0.04l0.12,4.64c1.22-0.07,2.44-0.09,3.65-0.23l-0.51-4.61l3.59-0.56l3.52-0.9
			l1.36,4.43c1.16-0.39,2.3-0.82,3.45-1.24l-1.74-4.3c1.14-0.42,2.2-1.02,3.3-1.53c0.55-0.24,1.07-0.56,1.58-0.88l1.55-0.94h0.01
			l2.51,3.9l0.78-0.48l0.74-0.54l1.46-1.1l-2.84-3.67c1-0.69,1.87-1.55,2.77-2.35c0.93-0.78,1.71-1.71,2.53-2.6l3.47,3.08
			c0.4-0.46,0.84-0.89,1.21-1.37l1.1-1.46l-3.72-2.78l1.08-1.46l0.95-1.55l0.94-1.55c0.28-0.54,0.53-1.09,0.8-1.63l4.17,2.03
			c0.53-1.1,1.08-2.19,1.47-3.35l-4.34-1.67c0.4-1.15,0.9-2.26,1.15-3.45l0.45-1.76l0.22-0.88l0.14-0.9l4.57,0.83
			c0.18-1.21,0.4-2.41,0.51-3.63l-4.62-0.43l0.19-3.63l-0.19-3.62l4.62-0.43c-0.11-1.21-0.33-2.42-0.51-3.62l-4.57,0.82l-0.14-0.9
			l-0.22-0.88l-0.45-1.76c-0.25-1.19-0.75-2.3-1.15-3.44l0.01-0.01l4.33-1.66c-0.39-1.17-0.93-2.26-1.47-3.36l-4.17,2.03
			c-0.27-0.54-0.52-1.09-0.8-1.63l-0.94-1.55l-0.95-1.55l-1.08-1.46l3.72-2.77l-1.1-1.47c-0.37-0.48-0.8-0.91-1.21-1.37l-3.47,3.08
			c-0.82-0.89-1.6-1.82-2.53-2.6c-0.9-0.81-1.76-1.66-2.76-2.35l2.83-3.67l-1.46-1.1l-0.74-0.54l-0.78-0.48l-2.51,3.9l-1.56-0.94
			c-0.51-0.32-1.03-0.64-1.58-0.88c-1.1-0.51-2.16-1.11-3.3-1.53l1.74-4.3c-1.14-0.42-2.29-0.85-3.44-1.24l-1.37,4.43l-3.52-0.9
			l-3.59-0.56l0.51-4.61c-1.21-0.14-2.43-0.16-3.65-0.23l-0.11,4.64h-0.01l-0.9-0.04c-0.3,0-0.61,0.02-0.91,0.03l-1.81,0.09
			c-1.22,0.02-2.41,0.24-3.61,0.42l-0.74-4.58c-0.6,0.1-1.21,0.18-1.81,0.29l-1.77,0.45l1.13,4.5l-1.76,0.46
			c-0.59,0.15-1.14,0.4-1.72,0.59c-1.13,0.42-2.28,0.81-3.35,1.37l-1.97-4.2c-1.08,0.55-2.23,1-3.25,1.68l2.31,4.02l-1.55,0.94
			c-0.52,0.31-1.03,0.63-1.51,1.01l-1.45,1.09c-0.49,0.36-0.97,0.72-1.41,1.14l-3.02-3.52c-0.9,0.83-1.83,1.62-2.68,2.49l3.31,3.25
			c-0.81,0.9-1.65,1.78-2.43,2.7c-0.72,0.98-1.46,1.93-2.16,2.92l-3.86-2.58l-1.9,3.13l4.06,2.24H182.72z M183.98,452.61
			c0.5-0.99,0.95-2.01,1.47-2.99l4.06,2.24l1.36-2.23l-3.86-2.58c0.64-0.91,1.33-1.78,1.99-2.68c0.71-0.85,1.49-1.65,2.23-2.48
			v-0.01l3.3,3.26c0.61-0.62,1.29-1.17,1.92-1.77l-3.02-3.52c0.4-0.39,0.84-0.72,1.29-1.05l1.34-1c0.43-0.35,0.9-0.65,1.39-0.93
			l1.42-0.86l2.31,4.02c0.72-0.5,1.55-0.79,2.32-1.2l-1.96-4.2c0.98-0.52,2.04-0.88,3.08-1.26c0.53-0.18,1.04-0.41,1.58-0.55
			l1.61-0.41l1.13,4.49l1.26-0.33l1.29-0.19l-0.74-4.58c1.1-0.16,2.19-0.38,3.31-0.38l1.67-0.09c0.27-0.01,0.55-0.03,0.83-0.03
			l0.83,0.04l-0.11,4.64c0.86,0.06,1.74,0.06,2.6,0.15l0.51-4.61l3.3,0.51l3.23,0.83l-1.37,4.43l2.45,0.89l1.74-4.29
			c1.04,0.38,2.01,0.94,3.03,1.39c0.51,0.22,0.98,0.52,1.45,0.81l1.43,0.87l-2.52,3.9l0.56,0.33l0.52,0.4l1.05,0.78l2.83-3.67
			c0.92,0.63,1.71,1.42,2.54,2.16c0.86,0.71,1.58,1.57,2.33,2.39l-3.47,3.08c0.29,0.32,0.61,0.62,0.87,0.97l0.77,1.05l3.72-2.77
			l1,1.33l0.87,1.43l0.86,1.42c0.26,0.5,0.49,1,0.74,1.5l-4.17,2.03c0.37,0.78,0.78,1.55,1.04,2.39l4.32-1.67
			c0.36,1.05,0.83,2.07,1.05,3.16l0.42,1.62l0.21,0.81l0.12,0.82l-4.56,0.82c0.11,0.86,0.29,1.72,0.37,2.58l4.62-0.43l0.17,3.33
			l-0.17,3.34l-4.62-0.43c-0.08,0.87-0.26,1.72-0.37,2.58l4.56,0.82l-0.12,0.82l-0.21,0.81l-0.42,1.62
			c-0.22,1.09-0.69,2.11-1.05,3.16l-4.32-1.66c-0.26,0.83-0.67,1.6-1.05,2.38l4.17,2.03c-0.24,0.5-0.47,1-0.73,1.5l-0.86,1.42
			l-0.87,1.43l-1,1.34l-3.72-2.78l-0.77,1.05c-0.27,0.35-0.59,0.65-0.87,0.97l3.47,3.08c-0.75,0.82-1.47,1.68-2.33,2.39
			c-0.83,0.74-1.62,1.53-2.54,2.16l-2.83-3.67l-1.05,0.78l-0.52,0.4l-0.56,0.33l2.52,3.9l-1.43,0.86c-0.47,0.3-0.94,0.59-1.45,0.82
			c-1.02,0.45-1.99,1.01-3.03,1.39l-1.74-4.3l-2.45,0.89l1.37,4.44l-3.23,0.83l-3.3,0.51l-0.51-4.61c-0.86,0.09-1.74,0.09-2.61,0.15
			l0.12,4.64l-0.83,0.04c-0.28,0-0.56-0.02-0.83-0.03l-1.67-0.09c-1.12-0.01-2.21-0.22-3.32-0.38l0.75-4.58l-1.29-0.19l-1.26-0.34
			l-1.13,4.5l-1.61-0.41c-0.54-0.14-1.05-0.37-1.58-0.55c-1.04-0.38-2.1-0.74-3.08-1.26h-0.01l1.97-4.21
			c-0.77-0.4-1.6-0.69-2.32-1.19l-2.31,4.02l-1.42-0.86c-0.49-0.28-0.96-0.58-1.39-0.93l-1.34-1c-0.45-0.33-0.89-0.66-1.29-1.05
			l3.02-3.52c-0.63-0.6-1.31-1.15-1.92-1.77l-3.3,3.25c-0.74-0.83-1.52-1.63-2.23-2.48c-0.66-0.9-1.35-1.78-1.99-2.69l3.86-2.57
			l-1.36-2.23l-4.06,2.24c-0.52-0.98-0.97-2-1.47-2.99c-0.44-1.02-0.78-2.09-1.18-3.13l4.41-1.43c-0.3-0.82-0.44-1.68-0.68-2.51
			l-4.52,1.05c-0.33-1.06-0.41-2.18-0.6-3.27c-0.22-1.1-0.23-2.22-0.29-3.33l4.64-0.19l-0.08-1.31l0.08-1.3l-4.64-0.2
			c0.06-1.11,0.07-2.22,0.29-3.32c0.2-1.09,0.27-2.21,0.6-3.28l4.52,1.06c0.24-0.83,0.38-1.7,0.68-2.51l-4.4-1.44
			C183.2,454.69,183.54,453.63,183.98,452.61z"/>
		<path d="M216.48,481.83c8.33,0,15.11-6.78,15.11-15.11c0-8.33-6.78-15.11-15.11-15.11s-15.11,6.78-15.11,15.11
			C201.37,475.06,208.14,481.83,216.48,481.83z M216.48,454.62c6.68,0,12.11,5.43,12.11,12.11c0,6.68-5.43,12.11-12.11,12.11
			s-12.11-5.43-12.11-12.11C204.37,460.05,209.8,454.62,216.48,454.62z"/>
		<circle cx="216.48" cy="466.72" r="4.01"/>
		<polygon points="270.54,514.65 265.76,514.65 265.76,517.48 270.54,517.48 270.54,523.89 264.13,523.89 264.13,519.11 
			261.3,519.11 261.3,523.89 256.51,523.89 256.51,526.73 261.3,526.73 261.3,531.51 264.13,531.51 264.13,526.73 270.54,526.73 
			270.54,533.14 265.76,533.14 265.76,535.97 270.54,535.97 270.54,542.38 264.13,542.38 264.13,537.59 261.3,537.59 261.3,542.38 
			254.89,542.38 254.89,535.97 259.68,535.97 259.68,533.14 254.89,533.14 254.89,528.35 252.05,528.35 252.05,533.14 
			247.27,533.14 247.27,535.97 252.05,535.97 252.05,542.38 245.65,542.38 245.65,537.59 242.81,537.59 242.81,542.38 236.4,542.38 
			236.4,537.59 233.57,537.59 233.57,542.38 227.15,542.38 227.15,537.59 224.31,537.59 224.31,542.38 217.89,542.38 217.89,537.59 
			215.06,537.59 215.06,542.38 208.64,542.38 208.64,537.59 205.8,537.59 205.8,542.38 199.38,542.38 199.38,537.59 196.55,537.59 
			196.55,542.38 190.14,542.38 190.14,537.59 187.3,537.59 187.3,542.38 180.9,542.38 180.9,535.97 185.68,535.97 185.68,533.14 
			180.9,533.14 180.9,528.35 178.06,528.35 178.06,533.14 173.27,533.14 173.27,535.97 178.06,535.97 178.06,542.38 171.65,542.38 
			171.65,537.59 168.82,537.59 168.82,542.38 162.41,542.38 162.41,535.97 167.19,535.97 167.19,533.14 162.41,533.14 
			162.41,526.73 168.82,526.73 168.82,531.51 171.65,531.51 171.65,526.73 176.44,526.73 176.44,523.89 171.65,523.89 
			171.65,519.11 168.82,519.11 168.82,523.89 162.41,523.89 162.41,517.48 167.19,517.48 167.19,514.65 162.41,514.65 
			162.41,509.86 160.99,509.86 160.99,550 162.41,550 162.41,545.22 168.82,545.22 168.82,550 171.65,550 171.65,545.22 
			178.06,545.22 178.06,550 180.9,550 180.9,545.22 187.3,545.22 187.3,550 190.14,550 190.14,545.22 196.55,545.22 196.55,550 
			199.38,550 199.38,545.22 205.8,545.22 205.8,550 208.64,550 208.64,545.22 215.06,545.22 215.06,550 217.89,550 217.89,545.22 
			224.31,545.22 224.31,550 227.15,550 227.15,545.22 233.57,545.22 233.57,550 236.4,550 236.4,545.22 242.81,545.22 242.81,550 
			245.65,550 245.65,545.22 252.05,545.22 252.05,550 254.89,550 254.89,545.22 261.3,545.22 261.3,550 264.13,550 264.13,545.22 
			270.54,545.22 270.54,550 271.96,550 271.96,509.86 270.54,509.86 		"/>
	</g>
</g>
<g>
</g>
<g>
</g>
<g>
</g>
<g>
</g>
<g>
</g>
<g>
</g>
<g>
</g>
<g>
</g>
<g>
</g>
<g>
</g>
<g>
</g>
<g>
</g>
<g>
</g>
<g>
</g>
<g>
</g>
</svg>
