<?xml version="1.0" encoding="utf-8"?>
<!-- Generator: Adobe Illustrator 27.2.0, SVG Export Plug-In . SVG Version: 6.00 Build 0)  -->
<svg version="1.1" id="Layer_1" xmlns="http://www.w3.org/2000/svg" xmlns:xlink="http://www.w3.org/1999/xlink" x="0px" y="0px"
	 viewBox="0 0 800 600" style="enable-background:new 0 0 800 600;" xml:space="preserve">
<g>
	<g>
		<path d="M120.4,456.16L96.96,479.6l23.44,23.44l23.44-23.44L120.4,456.16z M101.2,479.6l19.2-19.2l19.2,19.2l-19.2,19.2
			L101.2,479.6z"/>
		<path d="M120.4,447.7l-31.9,31.9l31.9,31.9l31.9-31.9L120.4,447.7z M92.74,479.6l27.66-27.66l27.66,27.66l-27.66,27.66
			L92.74,479.6z"/>
		<polygon points="152.03,443.77 152.03,446.6 147.24,446.6 147.24,451.39 144.4,451.39 144.4,446.6 137.99,446.6 137.99,453.01 
			142.78,453.01 142.78,455.85 137.99,455.85 137.99,460.63 135.16,460.63 135.16,455.85 130.37,455.85 130.37,453.01 
			135.16,453.01 135.16,446.6 128.75,446.6 128.75,451.39 125.92,451.39 125.92,446.6 121.13,446.6 121.13,443.77 125.92,443.77 
			125.92,438.98 128.75,438.98 128.75,443.77 135.16,443.77 135.16,437.36 130.37,437.36 130.37,434.52 135.16,434.52 
			135.16,429.74 137.99,429.74 137.99,434.52 142.78,434.52 142.78,437.36 137.99,437.36 137.99,443.77 144.4,443.77 144.4,438.98 
			147.24,438.98 147.24,443.77 		"/>
		<polygon points="148.61,455.6 153.4,455.6 153.4,460.39 153.4,462.01 151.78,462.01 151.78,462.01 146.99,462.01 146.99,462.01 
			146.99,457.22 144.15,457.22 144.15,462.01 144.15,462.01 139.37,462.01 139.37,464.84 144.15,464.84 144.15,469.63 
			146.99,469.63 146.99,464.84 151.78,464.84 153.4,464.84 153.4,466.46 153.4,471.25 148.61,471.25 148.61,474.09 153.4,474.09 
			153.4,478.87 156.23,478.87 156.23,474.09 161.02,474.09 161.02,471.25 156.23,471.25 156.23,466.46 156.23,464.84 157.85,464.84 
			162.64,464.84 162.64,469.63 165.48,469.63 165.48,464.84 170.26,464.84 170.26,462.01 165.48,462.01 165.48,462.01 
			165.48,457.22 162.64,457.22 162.64,462.01 162.64,462.01 157.85,462.01 157.85,462.01 156.23,462.01 156.23,460.39 156.23,455.6 
			161.02,455.6 161.02,452.76 156.23,452.76 156.23,447.98 153.4,447.98 153.4,452.76 148.61,452.76 		"/>
		<polygon points="119.68,443.77 119.68,446.6 114.89,446.6 114.89,451.39 112.06,451.39 112.06,446.6 105.65,446.6 105.65,453.01 
			110.43,453.01 110.43,455.85 105.65,455.85 105.65,460.63 102.81,460.63 102.81,455.85 98.02,455.85 98.02,453.01 102.81,453.01 
			102.81,446.6 96.4,446.6 96.4,451.39 93.57,451.39 93.57,446.6 88.78,446.6 88.78,443.77 93.57,443.77 93.57,438.98 96.4,438.98 
			96.4,443.77 102.81,443.77 102.81,437.36 98.02,437.36 98.02,434.52 102.81,434.52 102.81,429.74 105.65,429.74 105.65,434.52 
			110.43,434.52 110.43,437.36 105.65,437.36 105.65,443.77 112.06,443.77 112.06,438.98 114.89,438.98 114.89,443.77 		"/>
		<polygon points="101.44,462.01 101.44,464.84 96.65,464.84 96.65,469.63 93.82,469.63 93.82,464.84 87.41,464.84 87.41,471.25 
			92.19,471.25 92.19,474.09 87.41,474.09 87.41,478.87 84.57,478.87 84.57,474.09 79.79,474.09 79.79,471.25 84.57,471.25 
			84.57,464.84 78.16,464.84 78.16,469.63 75.33,469.63 75.33,464.84 70.54,464.84 70.54,462.01 75.33,462.01 75.33,457.22 
			78.16,457.22 78.16,462.01 84.57,462.01 84.57,455.6 79.79,455.6 79.79,452.76 84.57,452.76 84.57,447.98 87.41,447.98 
			87.41,452.76 92.19,452.76 92.19,455.6 87.41,455.6 87.41,462.01 93.82,462.01 93.82,457.22 96.65,457.22 96.65,462.01 		"/>
		<polygon points="152.03,512.59 152.03,515.43 147.24,515.43 147.24,520.22 144.4,520.22 144.4,515.43 137.99,515.43 
			137.99,521.84 142.78,521.84 142.78,524.67 137.99,524.67 137.99,529.46 135.16,529.46 135.16,524.67 130.37,524.67 
			130.37,521.84 135.16,521.84 135.16,515.43 128.75,515.43 128.75,520.22 125.92,520.22 125.92,515.43 121.13,515.43 
			121.13,512.59 125.92,512.59 125.92,507.81 128.75,507.81 128.75,512.59 135.16,512.59 135.16,506.18 130.37,506.18 
			130.37,503.35 135.16,503.35 135.16,498.56 137.99,498.56 137.99,503.35 142.78,503.35 142.78,506.18 137.99,506.18 
			137.99,512.59 144.4,512.59 144.4,507.81 147.24,507.81 147.24,512.59 		"/>
		<polygon points="165.48,489.57 162.64,489.57 162.64,494.36 157.85,494.36 156.23,494.36 156.23,492.73 156.23,487.95 
			161.02,487.95 161.02,485.11 156.23,485.11 156.23,480.32 153.4,480.32 153.4,485.11 148.61,485.11 148.61,487.95 153.4,487.95 
			153.4,492.73 153.4,494.36 151.78,494.36 146.99,494.36 146.99,489.57 144.15,489.57 144.15,494.36 139.37,494.36 139.37,497.19 
			144.15,497.19 144.15,501.98 146.99,501.98 146.99,497.19 151.78,497.19 153.4,497.19 153.4,498.81 153.4,503.6 148.61,503.6 
			148.61,506.43 153.4,506.43 153.4,511.22 156.23,511.22 156.23,506.43 161.02,506.43 161.02,503.6 156.23,503.6 156.23,498.81 
			156.23,497.19 157.85,497.19 162.64,497.19 162.64,501.98 165.48,501.98 165.48,497.19 170.26,497.19 170.26,494.36 
			165.48,494.36 		"/>
		<polygon points="119.68,512.59 119.68,515.43 114.89,515.43 114.89,520.22 112.06,520.22 112.06,515.43 105.65,515.43 
			105.65,521.84 110.43,521.84 110.43,524.67 105.65,524.67 105.65,529.46 102.81,529.46 102.81,524.67 98.02,524.67 98.02,521.84 
			102.81,521.84 102.81,515.43 96.4,515.43 96.4,520.22 93.57,520.22 93.57,515.43 88.78,515.43 88.78,512.59 93.57,512.59 
			93.57,507.81 96.4,507.81 96.4,512.59 102.81,512.59 102.81,506.18 98.02,506.18 98.02,503.35 102.81,503.35 102.81,498.56 
			105.65,498.56 105.65,503.35 110.43,503.35 110.43,506.18 105.65,506.18 105.65,512.59 112.06,512.59 112.06,507.81 
			114.89,507.81 114.89,512.59 		"/>
		<polygon points="101.44,494.36 101.44,497.19 96.65,497.19 96.65,501.98 93.82,501.98 93.82,497.19 87.41,497.19 87.41,503.6 
			92.19,503.6 92.19,506.43 87.41,506.43 87.41,511.22 84.57,511.22 84.57,506.43 79.79,506.43 79.79,503.6 84.57,503.6 
			84.57,497.19 78.16,497.19 78.16,501.98 75.33,501.98 75.33,497.19 70.54,497.19 70.54,494.36 75.33,494.36 75.33,489.57 
			78.16,489.57 78.16,494.36 84.57,494.36 84.57,487.95 79.79,487.95 79.79,485.11 84.57,485.11 84.57,480.32 87.41,480.32 
			87.41,485.11 92.19,485.11 92.19,487.95 87.41,487.95 87.41,494.36 93.82,494.36 93.82,489.57 96.65,489.57 96.65,494.36 		"/>
		<polygon points="135.85,423.23 135.85,426.06 131.06,426.06 131.06,430.85 128.23,430.85 128.23,426.06 121.82,426.06 
			121.82,432.47 126.61,432.47 126.61,435.31 121.82,435.31 121.82,440.09 118.99,440.09 118.99,435.31 114.2,435.31 114.2,432.47 
			118.99,432.47 118.99,426.06 112.58,426.06 112.58,430.85 109.74,430.85 109.74,426.06 104.95,426.06 104.95,423.23 
			109.74,423.23 109.74,418.44 112.58,418.44 112.58,423.23 118.99,423.23 118.99,416.82 114.2,416.82 114.2,413.98 118.99,413.98 
			118.99,409.2 121.82,409.2 121.82,413.98 126.61,413.98 126.61,416.82 121.82,416.82 121.82,423.23 128.23,423.23 128.23,418.44 
			131.06,418.44 131.06,423.23 		"/>
		<polygon points="80.9,478.18 80.9,481.02 76.11,481.02 76.11,485.8 73.28,485.8 73.28,481.02 66.87,481.02 66.87,487.43 
			71.65,487.43 71.65,490.26 66.87,490.26 66.87,495.05 64.03,495.05 64.03,490.26 59.24,490.26 59.24,487.43 64.03,487.43 
			64.03,481.02 57.62,481.02 57.62,485.8 54.79,485.8 54.79,481.02 50,481.02 50,478.18 54.79,478.18 54.79,473.39 57.62,473.39 
			57.62,478.18 64.03,478.18 64.03,471.77 59.24,471.77 59.24,468.94 64.03,468.94 64.03,464.15 66.87,464.15 66.87,468.94 
			71.65,468.94 71.65,471.77 66.87,471.77 66.87,478.18 73.28,478.18 73.28,473.39 76.11,473.39 76.11,478.18 		"/>
		<polygon points="135.85,533.13 135.85,535.97 131.06,535.97 131.06,540.76 128.23,540.76 128.23,535.97 121.82,535.97 
			121.82,542.38 126.61,542.38 126.61,545.21 121.82,545.21 121.82,550 118.99,550 118.99,545.21 114.2,545.21 114.2,542.38 
			118.99,542.38 118.99,535.97 112.58,535.97 112.58,540.76 109.74,540.76 109.74,535.97 104.95,535.97 104.95,533.13 
			109.74,533.13 109.74,528.35 112.58,528.35 112.58,533.13 118.99,533.13 118.99,526.73 114.2,526.73 114.2,523.89 118.99,523.89 
			118.99,519.1 121.82,519.1 121.82,523.89 126.61,523.89 126.61,526.73 121.82,526.73 121.82,533.13 128.23,533.13 128.23,528.35 
			131.06,528.35 131.06,533.13 		"/>
		<polygon points="186.02,478.18 186.02,473.39 183.18,473.39 183.18,478.18 178.4,478.18 176.77,478.18 176.77,476.56 
			176.77,471.77 181.56,471.77 181.56,468.94 176.77,468.94 176.77,464.15 173.94,464.15 173.94,468.94 169.15,468.94 
			169.15,471.77 173.94,471.77 173.94,476.56 173.94,478.18 172.32,478.18 167.53,478.18 167.53,473.39 164.69,473.39 
			164.69,478.18 159.91,478.18 159.91,481.02 164.69,481.02 164.69,481.02 164.69,485.8 167.53,485.8 167.53,481.02 167.53,481.02 
			172.32,481.02 172.32,481.02 173.94,481.02 173.94,482.64 173.94,487.43 169.15,487.43 169.15,490.26 173.94,490.26 
			173.94,495.05 176.77,495.05 176.77,490.26 181.56,490.26 181.56,487.43 176.77,487.43 176.77,482.64 176.77,481.02 178.4,481.02 
			178.4,481.02 183.18,481.02 183.18,481.02 183.18,485.8 186.02,485.8 186.02,481.02 186.02,481.02 190.8,481.02 190.8,478.18 		
			"/>
	</g>
</g>
<g>
</g>
<g>
</g>
<g>
</g>
<g>
</g>
<g>
</g>
<g>
</g>
<g>
</g>
<g>
</g>
<g>
</g>
<g>
</g>
<g>
</g>
<g>
</g>
<g>
</g>
<g>
</g>
<g>
</g>
</svg>
