<?xml version="1.0" encoding="utf-8"?>
<!-- Generator: Adobe Illustrator 27.2.0, SVG Export Plug-In . SVG Version: 6.00 Build 0)  -->
<svg version="1.1" id="Layer_1" xmlns="http://www.w3.org/2000/svg" xmlns:xlink="http://www.w3.org/1999/xlink" x="0px" y="0px"
	 viewBox="0 0 800 600" style="enable-background:new 0 0 800 600;" xml:space="preserve">
<g>
	<g>
		<path d="M337.57,262.47h-29.41v-39.5H193.84v39.5h-29.41v29.41h-39.5v114.33h39.5v29.41h29.41v39.5h114.33v-39.5h29.41v-29.41
			h39.5V291.88h-39.5V262.47z M374.07,294.88v108.33h-39.5v29.41h-29.41v39.5H196.84v-39.5h-29.41v-29.41h-39.5V294.88h39.5v-29.41
			h29.41v-39.5h108.33v39.5h29.41v29.41H374.07z"/>
		<path d="M326.23,273.81h-29.41v-39.5h-91.65v39.5h-29.41v29.41h-39.5v91.65h39.5v29.41h29.41v39.5h91.65v-39.5h29.41v-29.41h39.5
			v-91.65h-39.5V273.81z M178.77,306.22v-29.41h29.41v-39.5h42.48L139.27,348.7v-42.48H178.77z M251,241.21l107.83,107.83
			L251,456.88L143.17,349.04L251,241.21z M178.77,421.27v-29.41h-39.5v-42.48l111.39,111.39h-42.48v-39.5H178.77z M323.23,391.87
			v29.41h-29.41v39.5h-42.48l111.39-111.39v42.48H323.23z M362.73,306.22v42.48L251.34,237.31h42.48v39.5h29.41v29.41H362.73z"/>
		<path d="M347.02,349.04L251,253.02l-96.02,96.02L251,445.07L347.02,349.04z M236.03,425.85l11.23-27.43l3.96,3.96l3.65-3.65
			l11.1,27.13L251,440.82L236.03,425.85z M223.97,376.08l-28.05,9.66l-11.56-11.56l27.61-11.04l24.93,24.93l-11.04,27.61
			l-11.56-11.56L223.97,376.08z M223.97,322.01l-9.66-28.05l11.56-11.56l10.92,27.31l-25.12,25.12l-27.31-10.92l11.56-11.56
			L223.97,322.01z M251.73,299l49.31,49.31l-49.83,49.83l-49.31-49.31L251.73,299z M278.74,321.77l27.35-9.42l11.56,11.56
			l-26.27,10.5L278.74,321.77z M278.28,321.31l-12.64-12.64l10.5-26.27l11.56,11.56L278.28,321.31z M278.04,376.08l9.66,28.05
			l-11.56,11.56l-10.92-27.31l25.12-25.12l27.31,10.92l-11.56,11.56L278.04,376.08z M327.81,364.01l-27.13-11.1l4.6-4.6l-3.56-3.56
			l26.09-10.68l14.97,14.97L327.81,364.01z M265.97,272.23l-10.68,26.09l-3.56-3.56l-4.6,4.6l-11.1-27.13L251,257.26L265.97,272.23z
			 M174.19,334.07l27.13,11.1l-3.65,3.65l3.96,3.96l-27.43,11.23l-14.97-14.97L174.19,334.07z"/>
		<path d="M289.81,348.39l-38.15-38.15l-38.51,38.51l38.15,38.15L289.81,348.39z M251.65,314.48l33.91,33.91l-34.27,34.27
			l-33.91-33.91L251.65,314.48z"/>
		<path d="M256.86,363.61v-8.71h8.71v-11.71h-8.71v-8.71h-11.71v8.71h-8.71v11.71h8.71v8.71H256.86z M253.86,360.61h-5.71v-5.71
			h5.71V360.61z M248.15,351.9v-5.71h5.71v5.71H248.15z M262.56,346.19v5.71h-5.71v-5.71H262.56z M248.15,337.48h5.71v5.71h-5.71
			V337.48z M239.44,351.9v-5.71h5.71v5.71H239.44z"/>
		<polygon points="265.34,163 236.66,163 251,177.33 		"/>
		<polygon points="265.34,148 236.66,148 251,162.33 		"/>
		<polygon points="65,363.34 79.34,349 65,334.66 		"/>
		<polygon points="50,363.34 64.34,349 50,334.66 		"/>
		<polygon points="236.66,535 265.34,535 251,520.66 		"/>
		<polygon points="236.66,550 265.34,550 251,535.66 		"/>
		<path d="M388.41,347v-66.46h-12.91v-21.39l12.34-12.34h-28.67l12.34,12.34v21.39h-22.59v-29.41H319.5v-39.5H253v-21.3L265.34,178
			h-28.67L249,190.33v21.3h-66.5v39.5h-29.41v29.41H130.5v-21.39l12.34-12.34h-28.67l12.34,12.34v21.39h-12.91V347H92.34L80,334.66
			v28.67L92.34,351h21.25v66.55h12.91v21.4l-12.34,12.34h28.67l-12.34-12.34v-21.4h22.59v29.41h29.41v39.5H249v21.21L236.66,520
			h28.67L253,507.66v-21.21h66.5v-39.5h29.41v-29.41h22.59v21.4l-12.34,12.34h28.67l-12.34-12.34v-21.4h12.91V351h21.25L422,363.34
			v-28.67L409.67,347H388.41z M385.41,414.54h-39.5v29.41H316.5v39.5h-131v-39.5h-29.41v-29.41h-39.5v-131h39.5v-29.41h29.41v-39.5
			h131v39.5h29.41v29.41h39.5V414.54z"/>
		<polygon points="437,363.34 437,334.66 422.67,349 		"/>
		<polygon points="437.67,349 452,363.34 452,334.66 		"/>
		<polygon points="333.43,251.09 337.43,251.09 337.43,228.62 349.77,216.28 321.1,216.28 333.43,228.62 		"/>
		<polygon points="349.77,201.28 321.1,201.28 335.43,215.62 		"/>
		<polygon points="349.77,186.28 321.1,186.28 335.43,200.62 		"/>
		<polygon points="387.84,231.81 359.17,231.81 373.51,246.15 		"/>
		<polygon points="387.84,216.81 359.17,216.81 373.51,231.15 		"/>
		<polygon points="337.43,446.99 333.43,446.99 333.43,469.47 321.1,481.81 349.77,481.81 337.43,469.47 		"/>
		<polygon points="321.1,496.81 349.77,496.81 335.43,482.47 		"/>
		<polygon points="321.1,511.81 349.77,511.81 335.43,497.47 		"/>
		<polygon points="359.17,466.28 387.84,466.28 373.51,451.94 		"/>
		<polygon points="359.17,481.28 387.84,481.28 373.51,466.94 		"/>
		<polygon points="168.57,446.99 164.57,446.99 164.57,469.47 152.23,481.81 180.91,481.81 168.57,469.47 		"/>
		<polygon points="152.23,496.81 180.91,496.81 166.57,482.47 		"/>
		<polygon points="152.23,511.81 180.91,511.81 166.57,497.47 		"/>
		<polygon points="114.16,466.28 142.83,466.28 128.5,451.94 		"/>
		<polygon points="114.16,481.28 142.83,481.28 128.5,466.94 		"/>
		<polygon points="164.57,251.09 168.57,251.09 168.57,228.62 180.91,216.28 152.23,216.28 164.57,228.62 		"/>
		<polygon points="180.91,201.28 152.23,201.28 166.57,215.62 		"/>
		<polygon points="180.91,186.28 152.23,186.28 166.57,200.62 		"/>
		<polygon points="142.83,231.81 114.16,231.81 128.5,246.15 		"/>
		<polygon points="142.83,216.81 114.16,216.81 128.5,231.15 		"/>
	</g>
</g>
<g>
</g>
<g>
</g>
<g>
</g>
<g>
</g>
<g>
</g>
<g>
</g>
<g>
</g>
<g>
</g>
<g>
</g>
<g>
</g>
<g>
</g>
<g>
</g>
<g>
</g>
<g>
</g>
<g>
</g>
</svg>
