<?xml version="1.0" encoding="utf-8"?>
<!-- Generator: Adobe Illustrator 27.2.0, SVG Export Plug-In . SVG Version: 6.00 Build 0)  -->
<svg version="1.1" id="Layer_1" xmlns="http://www.w3.org/2000/svg" xmlns:xlink="http://www.w3.org/1999/xlink" x="0px" y="0px"
	 viewBox="0 0 800 600" style="enable-background:new 0 0 800 600;" xml:space="preserve">
<g>
	<g>
		<g>
			<rect x="172.83" y="483.83" width="5.67" height="5.67"/>
			<rect x="176.93" y="469.55" width="5.67" height="5.67"/>
			<rect x="158.55" y="487.93" width="5.67" height="5.67"/>
			<rect x="154.45" y="502.22" width="5.67" height="5.67"/>
			<rect x="191.22" y="465.45" width="5.67" height="5.67"/>
			
				<rect x="321.67" y="350.39" transform="matrix(0.7071 -0.7071 0.7071 0.7071 -155.8968 335.7495)" width="11.34" height="11.34"/>
			<rect x="213.7" y="432.78" width="5.67" height="5.67"/>
			<rect x="274.17" y="266.81" transform="matrix(0.7071 -0.7071 0.7071 0.7071 -109.535 274.8502)" width="5.67" height="5.67"/>
			<polygon points="127.88,549.73 131.88,545.73 131.88,534.81 142.8,534.81 150.27,527.34 150.27,516.42 161.19,516.42 
				168.65,508.96 168.65,498.04 179.57,498.04 187.04,490.57 187.04,479.65 197.96,479.65 205.42,472.19 205.42,461.27 
				216.34,461.27 223.81,453.8 223.81,442.88 234.73,442.88 238.73,438.88 219.81,438.88 219.81,457.27 201.42,457.27 
				201.42,475.65 183.04,475.65 183.04,494.04 164.65,494.04 164.65,512.42 146.27,512.42 146.27,530.81 127.88,530.81 			"/>
			<polygon points="195.33,482.28 189.66,482.28 189.66,487.95 			"/>
			
				<rect x="279.36" y="308.08" transform="matrix(0.7071 -0.7071 0.7071 0.7071 -138.3719 293.4406)" width="11.34" height="11.34"/>
			
				<rect x="363.97" y="360.62" transform="matrix(0.7071 -0.7071 0.7071 0.7071 -150.7381 368.6627)" width="11.34" height="11.34"/>
			<rect x="363.97" y="392.7" transform="matrix(0.7071 -0.7071 0.7071 0.7071 -173.4217 378.0585)" width="11.34" height="11.34"/>
			
				<rect x="406.28" y="435.01" transform="matrix(0.7071 -0.7071 0.7071 0.7071 -190.9467 420.3675)" width="11.34" height="11.34"/>
			
				<rect x="321.67" y="318.31" transform="matrix(0.7071 -0.7071 0.7071 0.7071 -133.2132 326.3536)" width="11.34" height="11.34"/>
			
				<rect x="363.97" y="408.74" transform="matrix(0.7071 -0.7071 0.7071 0.7071 -184.7646 382.7569)" width="11.34" height="11.34"/>
			
				<rect x="406.28" y="451.05" transform="matrix(0.7071 -0.7071 0.7071 0.7071 -202.2896 425.0658)" width="11.34" height="11.34"/>
			<rect x="140.16" y="506.32" width="5.67" height="5.67"/>
			
				<rect x="321.67" y="366.43" transform="matrix(0.7071 -0.7071 0.7071 0.7071 -167.2397 340.4479)" width="11.34" height="11.34"/>
			<rect x="136.06" y="520.6" width="5.67" height="5.67"/>
			
				<rect x="406.28" y="402.93" transform="matrix(0.7071 -0.7071 0.7071 0.7071 -168.2631 410.9716)" width="11.34" height="11.34"/>
			<rect x="279.36" y="276" transform="matrix(0.7071 -0.7071 0.7071 0.7071 -115.6882 284.0447)" width="11.34" height="11.34"/>
			<rect x="336.27" y="520.6" width="5.67" height="5.67"/>
			<polygon points="306.72,500.66 301.05,500.66 306.72,506.33 			"/>
			<rect x="313.78" y="487.93" width="5.67" height="5.67"/>
			<polygon points="343.49,537.43 337.82,537.43 343.49,543.1 			"/>
			<rect x="218.17" y="422.12" transform="matrix(0.7071 -0.7071 0.7071 0.7071 -235.756 280.7361)" width="5.67" height="5.67"/>
			<rect x="332.17" y="506.32" width="5.67" height="5.67"/>
			<polygon points="325.11,519.05 319.44,519.05 325.11,524.72 			"/>
			<polygon points="232.1,445.51 226.43,445.51 226.43,451.18 			"/>
			<polygon points="213.72,463.89 208.05,463.89 208.05,469.56 			"/>
			<polygon points="288.34,482.28 282.67,482.28 288.34,487.95 			"/>
			<polygon points="251.57,445.51 245.9,445.51 251.57,451.18 			"/>
			<polygon points="269.95,463.89 264.28,463.89 269.95,469.56 			"/>
			<rect x="317.88" y="502.22" width="5.67" height="5.67"/>
			<path d="M239,438.33l13.38-13.38L239,411.57l-13.38,13.38L239,438.33z M246.72,424.95l-7.72,7.72l-7.72-7.72l7.72-7.72
				L246.72,424.95z"/>
			<rect x="236.17" y="404.12" transform="matrix(0.7071 -0.7071 0.7071 0.7071 -217.7552 288.1884)" width="5.67" height="5.67"/>
			<rect x="258.63" y="432.78" width="5.67" height="5.67"/>
			<rect x="262.73" y="447.06" width="5.67" height="5.67"/>
			<rect x="209.6" y="447.06" width="5.67" height="5.67"/>
			<rect x="236.17" y="422.12" transform="matrix(0.7071 -0.7071 0.7071 0.7071 -230.484 293.464)" width="5.67" height="5.67"/>
			<rect x="277.01" y="451.16" width="5.67" height="5.67"/>
			<rect x="295.4" y="469.55" width="5.67" height="5.67"/>
			<rect x="281.11" y="465.45" width="5.67" height="5.67"/>
			<rect x="254.17" y="422.12" transform="matrix(0.7071 -0.7071 0.7071 0.7071 -225.2119 306.1919)" width="5.67" height="5.67"/>
			<rect x="299.5" y="483.83" width="5.67" height="5.67"/>
			<polygon points="243.27,442.88 254.19,442.88 254.19,453.8 261.66,461.27 272.58,461.27 272.58,472.19 280.04,479.65 
				290.96,479.65 290.96,490.57 294.43,494.04 294.43,494.04 298.43,498.04 309.35,498.04 309.35,508.96 316.81,516.42 
				327.73,516.42 327.73,527.34 335.2,534.81 346.12,534.81 346.12,545.73 350.12,549.73 350.12,530.81 331.73,530.81 
				331.73,512.42 313.35,512.42 313.35,494.04 294.96,494.04 294.96,475.65 276.58,475.65 276.58,457.27 258.19,457.27 
				258.19,438.88 239.27,438.88 			"/>
			<rect x="195.32" y="451.16" width="5.67" height="5.67"/>
			<polygon points="365.09,490.58 361.68,493.98 357.92,490.23 362.28,485.87 365.69,489.28 367.95,487.02 364.54,483.61 
				367.95,480.21 365.69,477.95 362.28,481.36 358.88,477.95 356.62,480.21 360.03,483.61 355.67,487.97 351.91,484.22 
				355.32,480.81 354.19,479.68 345.12,488.75 346.25,489.88 349.66,486.47 353.42,490.23 350.01,493.63 352.26,495.89 
				355.67,492.48 359.43,496.24 356.02,499.65 357.15,500.77 366.22,491.71 			"/>
			
				<rect x="232.81" y="312.18" transform="matrix(0.7071 -0.7071 0.7071 0.7071 -155.1179 262.2445)" width="12.37" height="12.37"/>
			<polygon points="353.06,478.55 349.66,481.96 345.9,478.2 350.26,473.84 353.66,477.25 355.92,474.99 352.51,471.59 
				355.92,468.18 353.66,465.93 350.26,469.33 346.85,465.93 344.6,468.18 348,471.59 343.64,475.95 339.89,472.19 343.29,468.78 
				342.17,467.65 333.1,476.72 334.22,477.85 337.63,474.44 341.39,478.2 337.98,481.61 340.24,483.86 343.64,480.46 347.4,484.21 
				343.99,487.62 345.12,488.75 354.19,479.68 			"/>
			<polygon points="377.72,489.98 374.31,493.39 370.9,489.98 368.65,492.23 372.06,495.64 367.7,500 363.94,496.24 367.35,492.83 
				366.22,491.71 357.15,500.78 358.28,501.9 361.68,498.5 365.44,502.25 362.03,505.66 364.29,507.92 367.7,504.51 371.45,508.27 
				368.05,511.67 369.17,512.8 378.24,503.73 377.12,502.6 373.71,506.01 369.95,502.25 374.31,497.89 377.72,501.3 379.97,499.05 
				376.56,495.64 379.97,492.23 			"/>
			<polygon points="341.04,466.53 337.63,469.93 333.87,466.17 338.23,461.82 341.64,465.22 343.89,462.97 340.49,459.56 
				343.89,456.15 341.64,453.9 338.23,457.31 334.82,453.9 332.57,456.15 335.98,459.56 331.62,463.92 327.86,460.16 331.27,456.76 
				330.14,455.63 321.07,464.7 322.2,465.82 325.6,462.42 329.36,466.17 325.96,469.58 328.21,471.84 331.62,468.43 335.37,472.19 
				331.97,475.59 333.1,476.72 342.16,467.65 			"/>
			<polygon points="304.96,430.45 301.55,433.85 297.79,430.1 302.15,425.74 305.56,429.14 307.81,426.89 304.41,423.48 
				307.81,420.07 305.56,417.82 302.15,421.23 298.74,417.82 296.49,420.07 299.9,423.48 295.54,427.84 291.78,424.08 
				295.19,420.68 294.06,419.55 284.99,428.62 286.12,429.74 289.53,426.34 293.28,430.1 289.88,433.5 292.13,435.76 295.54,432.35 
				299.3,436.11 295.89,439.51 297.02,440.64 306.08,431.57 			"/>
			<polygon points="292.93,418.42 289.52,421.83 285.77,418.07 290.13,413.71 293.53,417.12 295.79,414.86 292.38,411.46 
				295.79,408.05 293.53,405.79 290.13,409.2 286.72,405.79 284.46,408.05 287.87,411.46 283.51,415.81 279.75,412.06 
				283.16,408.65 282.03,407.52 272.97,416.59 274.09,417.72 277.5,414.31 281.26,418.07 277.85,421.48 280.1,423.73 283.51,420.32 
				287.27,424.08 283.86,427.49 284.99,428.62 294.06,419.55 			"/>
			<polygon points="316.98,442.47 313.58,445.88 309.82,442.12 314.18,437.76 317.58,441.17 319.84,438.92 316.43,435.51 
				319.84,432.1 317.58,429.85 314.18,433.25 310.77,429.85 308.52,432.1 311.92,435.51 307.56,439.87 303.81,436.11 307.21,432.7 
				306.09,431.58 297.02,440.64 298.15,441.77 301.55,438.36 305.31,442.12 301.9,445.53 304.16,447.78 307.56,444.38 
				311.32,448.13 307.92,451.54 309.04,452.67 318.11,443.6 			"/>
			<polygon points="329.01,454.5 325.6,457.91 321.85,454.15 326.2,449.79 329.61,453.2 331.87,450.94 328.46,447.53 331.87,444.13 
				329.61,441.87 326.2,445.28 322.8,441.87 320.54,444.13 323.95,447.53 319.59,451.89 315.83,448.14 319.24,444.73 318.11,443.6 
				309.04,452.67 310.17,453.8 313.58,450.39 317.34,454.15 313.93,457.56 316.18,459.81 319.59,456.4 323.35,460.16 319.94,463.57 
				321.07,464.69 330.14,455.63 			"/>
			<polygon points="381.01,476.92 379.42,475.33 392.06,462.68 383.21,453.83 370.57,466.48 368.98,464.89 367.14,478.76 			"/>
			<polygon points="332.9,428.81 331.31,427.22 343.96,414.58 335.11,405.73 322.46,418.37 320.88,416.78 319.04,430.65 			"/>
			<polygon points="393.03,488.94 391.44,487.35 404.09,474.71 395.24,465.86 382.6,478.51 381.01,476.92 379.17,490.78 			"/>
			<polygon points="344.93,440.84 343.34,439.25 355.98,426.6 347.13,417.75 334.49,430.4 332.9,428.81 331.06,442.68 			"/>
			<polygon points="308.85,404.76 307.26,403.17 319.9,390.53 311.06,381.68 298.41,394.32 296.82,392.73 294.98,406.6 			"/>
			<polygon points="320.88,416.78 319.29,415.2 331.93,402.55 323.08,393.7 310.44,406.35 308.85,404.76 307.01,418.62 			"/>
			<polygon points="280.9,406.39 277.5,409.8 273.74,406.04 278.1,401.68 281.51,405.09 283.76,402.84 280.35,399.43 283.76,396.02 
				281.51,393.77 278.1,397.17 274.69,393.77 272.44,396.02 275.84,399.43 271.49,403.79 267.73,400.03 271.13,396.62 270.01,395.5 
				260.94,404.56 262.07,405.69 265.47,402.28 269.23,406.04 265.82,409.45 268.08,411.7 271.49,408.3 275.24,412.05 271.84,415.46 
				272.96,416.59 282.03,407.52 			"/>
			<polygon points="356.95,452.86 355.37,451.28 368.01,438.63 359.16,429.78 346.52,442.43 344.93,440.84 343.09,454.7 			"/>
			<polygon points="368.98,464.89 367.39,463.3 380.04,450.66 371.19,441.81 358.54,454.45 356.95,452.86 355.11,466.73 			"/>
			<path d="M241.42,373.72L239,371.3l-2.42,2.42l-3.41-3.41l-1.13,1.13l6.95,6.95l6.95-6.95l-1.13-1.13L241.42,373.72z M239,376.14
				l-0.16-0.16l0.16-0.16l0.16,0.16L239,376.14z"/>
			<polygon points="122.68,480.81 126.09,484.22 122.33,487.97 117.97,483.61 121.38,480.21 119.12,477.95 115.72,481.36 
				112.31,477.95 110.05,480.21 113.46,483.61 110.05,487.02 112.31,489.28 115.72,485.87 120.07,490.23 116.32,493.98 
				112.91,490.58 111.78,491.71 120.85,500.77 121.98,499.65 118.57,496.24 122.33,492.48 125.74,495.89 127.99,493.63 
				124.58,490.23 128.34,486.47 131.75,489.88 132.88,488.75 123.81,479.68 			"/>
			<polygon points="134.71,468.78 138.11,472.19 134.36,475.95 130,471.59 133.4,468.18 131.15,465.93 127.74,469.33 124.34,465.93 
				122.08,468.18 125.49,471.59 122.08,474.99 124.34,477.25 127.74,473.84 132.1,478.2 128.34,481.96 124.94,478.55 123.81,479.68 
				132.88,488.75 134.01,487.62 130.6,484.21 134.36,480.46 137.76,483.86 140.02,481.61 136.61,478.2 140.37,474.44 143.77,477.85 
				144.9,476.72 135.83,467.65 			"/>
			<polygon points="146.73,456.76 150.14,460.16 146.38,463.92 142.02,459.56 145.43,456.15 143.18,453.9 139.77,457.31 
				136.36,453.9 134.11,456.15 137.51,459.56 134.11,462.97 136.36,465.22 139.77,461.82 144.13,466.17 140.37,469.93 
				136.96,466.53 135.84,467.65 144.9,476.72 146.03,475.59 142.62,472.19 146.38,468.43 149.79,471.84 152.04,469.58 
				148.64,466.17 152.39,462.42 155.8,465.82 156.93,464.7 147.86,455.63 			"/>
			<polygon points="110.65,492.83 114.06,496.24 110.3,500 105.94,495.64 109.35,492.23 107.1,489.98 103.69,493.39 100.28,489.98 
				98.03,492.23 101.43,495.64 98.03,499.05 100.28,501.3 103.69,497.89 108.05,502.25 104.29,506.01 100.88,502.6 99.76,503.73 
				108.83,512.8 109.95,511.67 106.55,508.27 110.3,504.51 113.71,507.92 115.96,505.66 112.56,502.25 116.32,498.5 119.72,501.9 
				120.85,500.78 111.78,491.71 			"/>
			<rect x="60.37" y="402.93" transform="matrix(0.7071 -0.7071 0.7071 0.7071 -269.578 166.3757)" width="11.34" height="11.34"/>
			<polygon points="158.76,444.73 162.17,448.14 158.41,451.89 154.05,447.53 157.46,444.13 155.2,441.87 151.79,445.28 
				148.39,441.87 146.13,444.13 149.54,447.53 146.13,450.94 148.39,453.2 151.79,449.79 156.15,454.15 152.4,457.91 148.99,454.5 
				147.86,455.63 156.93,464.69 158.06,463.57 154.65,460.16 158.41,456.4 161.82,459.81 164.07,457.56 160.66,454.15 
				164.42,450.39 167.83,453.8 168.95,452.67 159.89,443.6 			"/>
			<rect x="60.37" y="435.01" transform="matrix(0.7071 -0.7071 0.7071 0.7071 -292.2616 175.7716)" width="11.34" height="11.34"/>
			<rect x="60.37" y="451.05" transform="matrix(0.7071 -0.7071 0.7071 0.7071 -303.6045 180.4699)" width="11.34" height="11.34"/>
			<polygon points="268.88,394.37 265.47,397.77 261.71,394.02 266.07,389.66 269.48,393.06 271.73,390.81 268.33,387.4 271.73,384 
				269.48,381.74 266.07,385.15 262.67,381.74 260.41,384 263.82,387.4 259.46,391.76 255.7,388 259.11,384.6 257.98,383.47 
				248.91,392.54 250.04,393.67 253.45,390.26 257.2,394.02 253.8,397.42 256.05,399.68 259.46,396.27 263.22,400.03 259.81,403.44 
				260.94,404.56 270.01,395.49 			"/>
			<path d="M232.57,369.01l3.41-3.41l3.02,3.02l3.02-3.02l3.41,3.41l2.25-2.25l-3.41-3.41l3.41-3.41l-2.25-2.25l-3.41,3.41
				l-3.02-3.02l-3.02,3.02l-3.41-3.41l-2.25,2.25l3.41,3.41l-3.41,3.41L232.57,369.01z M239,362.58l0.77,0.77l-0.77,0.77l-0.77-0.77
				L239,362.58z"/>
			<polygon points="256.85,382.34 253.44,385.75 249.69,381.99 254.05,377.63 257.45,381.04 259.71,378.78 256.3,375.38 
				259.71,371.97 257.45,369.71 254.05,373.12 250.64,369.71 248.38,371.97 251.79,375.38 247.43,379.74 243.67,375.98 
				247.08,372.57 245.95,371.44 239,378.4 232.04,371.44 230.92,372.57 234.32,375.98 230.57,379.74 226.21,375.38 229.61,371.97 
				227.36,369.71 223.95,373.12 220.55,369.71 218.29,371.97 221.7,375.38 218.29,378.78 220.55,381.04 223.95,377.63 
				228.31,381.99 224.55,385.75 221.15,382.34 220.02,383.47 229.09,392.54 230.22,391.41 226.81,388 230.57,384.24 233.97,387.65 
				236.23,385.4 232.82,381.99 236.58,378.23 239,380.65 241.42,378.23 245.18,381.99 241.77,385.4 244.03,387.65 247.43,384.24 
				251.19,388 247.78,391.41 248.91,392.54 257.98,383.47 			"/>
			<polygon points="218.89,384.6 222.3,388 218.54,391.76 214.18,387.4 217.59,384 215.33,381.74 211.93,385.15 208.52,381.74 
				206.27,384 209.67,387.4 206.27,390.81 208.52,393.06 211.93,389.66 216.29,394.02 212.53,397.77 209.12,394.37 207.99,395.49 
				217.06,404.56 218.19,403.44 214.78,400.03 218.54,396.27 221.95,399.68 224.2,397.42 220.79,394.02 224.55,390.26 
				227.96,393.67 229.09,392.54 220.02,383.47 			"/>
			<polygon points="296.82,392.73 295.23,391.14 307.88,378.5 299.03,369.65 286.38,382.29 284.8,380.71 282.96,394.57 			"/>
			<polygon points="206.86,396.62 210.27,400.03 206.51,403.79 202.16,399.43 205.56,396.02 203.31,393.77 199.9,397.17 
				196.49,393.77 194.24,396.02 197.65,399.43 194.24,402.84 196.49,405.09 199.9,401.68 204.26,406.04 200.5,409.8 197.09,406.39 
				195.97,407.52 205.04,416.59 206.16,415.46 202.76,412.05 206.51,408.3 209.92,411.7 212.18,409.45 208.77,406.04 212.53,402.28 
				215.93,405.69 217.06,404.56 207.99,395.5 			"/>
			<polygon points="182.81,420.68 186.22,424.08 182.46,427.84 178.1,423.48 181.51,420.07 179.25,417.82 175.85,421.23 
				172.44,417.82 170.19,420.07 173.59,423.48 170.19,426.89 172.44,429.14 175.85,425.74 180.21,430.1 176.45,433.85 
				173.04,430.45 171.91,431.57 180.98,440.64 182.11,439.51 178.7,436.11 182.46,432.35 185.87,435.76 188.12,433.5 184.72,430.1 
				188.47,426.34 191.88,429.74 193.01,428.62 183.94,419.55 			"/>
			<polygon points="194.84,408.65 198.25,412.06 194.49,415.81 190.13,411.46 193.54,408.05 191.28,405.79 187.87,409.2 
				184.47,405.79 182.21,408.05 185.62,411.46 182.21,414.86 184.47,417.12 187.87,413.71 192.23,418.07 188.48,421.83 
				185.07,418.42 183.94,419.55 193.01,428.62 194.14,427.49 190.73,424.08 194.49,420.32 197.89,423.73 200.15,421.48 
				196.74,418.07 200.5,414.31 203.91,417.72 205.03,416.59 195.97,407.52 			"/>
			<polygon points="170.79,432.7 174.19,436.11 170.43,439.87 166.08,435.51 169.48,432.1 167.23,429.85 163.82,433.25 
				160.41,429.85 158.16,432.1 161.57,435.51 158.16,438.92 160.41,441.17 163.82,437.76 168.18,442.12 164.42,445.88 
				161.02,442.47 159.89,443.6 168.96,452.67 170.08,451.54 166.68,448.13 170.43,444.38 173.84,447.78 176.1,445.53 172.69,442.12 
				176.45,438.36 179.85,441.77 180.98,440.64 171.91,431.58 			"/>
			<polygon points="121.05,452.86 119.46,454.45 106.81,441.81 97.96,450.66 110.61,463.3 109.02,464.89 122.89,466.73 			"/>
			<rect x="202.17" y="310.91" transform="matrix(0.7071 -0.7071 0.7071 0.7071 -161.8074 236.8559)" width="5.67" height="5.67"/>
			
				<rect x="144.99" y="318.31" transform="matrix(0.7071 -0.7071 0.7071 0.7071 -184.9601 201.4256)" width="11.34" height="11.34"/>
			<rect x="187.3" y="308.08" transform="matrix(0.7071 -0.7071 0.7071 0.7071 -165.3347 228.3465)" width="11.34" height="11.34"/>
			<rect x="102.68" y="392.7" transform="matrix(0.7071 -0.7071 0.7071 0.7071 -249.9526 193.2966)" width="11.34" height="11.34"/>
			<rect x="187.3" y="324.12" transform="matrix(0.7071 -0.7071 0.7071 0.7071 -176.6776 233.0448)" width="11.34" height="11.34"/>
			<rect x="102.68" y="360.62" transform="matrix(0.7071 -0.7071 0.7071 0.7071 -227.269 183.9007)" width="11.34" height="11.34"/>
			
				<rect x="102.68" y="408.74" transform="matrix(0.7071 -0.7071 0.7071 0.7071 -261.2955 197.9949)" width="11.34" height="11.34"/>
			<polygon points="284.8,380.71 283.21,379.12 295.85,366.47 287,357.62 274.36,370.27 272.77,368.68 270.93,382.55 			"/>
			
				<rect x="144.99" y="366.43" transform="matrix(0.7071 -0.7071 0.7071 0.7071 -218.9866 215.5199)" width="11.34" height="11.34"/>
			<rect x="202.17" y="318.93" transform="matrix(0.7071 -0.7071 0.7071 0.7071 -167.4767 239.2042)" width="5.67" height="5.67"/>
			<rect x="270.16" y="310.91" transform="matrix(0.7071 -0.7071 0.7071 0.7071 -141.8948 284.9293)" width="5.67" height="5.67"/>
			<polygon points="272.99,285.68 277,281.68 272.99,277.67 268.98,281.68 272.99,285.69 268.98,289.69 272.99,293.7 268.98,297.71 
				272.99,301.72 268.98,305.73 272.99,309.74 285.02,297.71 			"/>
			<rect x="270.16" y="318.93" transform="matrix(0.7071 -0.7071 0.7071 0.7071 -147.5641 287.2776)" width="5.67" height="5.67"/>
			<rect x="270.16" y="270.82" transform="matrix(0.7071 -0.7071 0.7071 0.7071 -113.5483 273.1878)" width="5.67" height="5.67"/>
			<rect x="202.17" y="270.82" transform="matrix(0.7071 -0.7071 0.7071 0.7071 -133.4606 225.1119)" width="5.67" height="5.67"/>
			<rect x="187.3" y="276" transform="matrix(0.7071 -0.7071 0.7071 0.7071 -142.6511 218.9506)" width="11.34" height="11.34"/>
			<polygon points="205.01,285.68 192.98,297.71 201,305.73 205.01,309.74 209.02,305.73 205.01,301.72 209.02,297.71 205.01,293.7 
				209.02,289.69 205.01,285.69 209.02,281.68 205.01,277.67 201,281.68 			"/>
			<rect x="198.16" y="266.81" transform="matrix(0.7071 -0.7071 0.7071 0.7071 -131.7986 221.1011)" width="5.67" height="5.67"/>
			
				<rect x="144.99" y="350.39" transform="matrix(0.7071 -0.7071 0.7071 0.7071 -207.6437 210.8215)" width="11.34" height="11.34"/>
			<polygon points="205.23,368.68 203.64,370.27 191,357.62 182.15,366.47 194.79,379.12 193.2,380.71 207.07,382.55 			"/>
			<polygon points="217.26,356.65 215.67,358.24 203.02,345.6 194.17,354.45 206.82,367.09 205.23,368.68 219.1,370.52 			"/>
			<polygon points="193.2,380.71 191.62,382.29 178.97,369.65 170.12,378.5 182.77,391.14 181.18,392.73 195.04,394.57 			"/>
			<polygon points="181.18,392.73 179.59,394.32 166.94,381.68 158.09,390.53 170.74,403.17 169.15,404.76 183.02,406.6 			"/>
			<polygon points="229.28,344.63 227.69,346.21 215.05,333.57 206.2,342.42 218.84,355.06 217.26,356.65 231.12,358.49 			"/>
			<polygon points="272.77,368.68 271.18,367.09 283.83,354.45 274.98,345.6 262.33,358.24 260.74,356.65 258.9,370.52 			"/>
			<polygon points="248.72,344.63 247.13,343.04 259.77,330.39 250.92,321.54 239,333.47 227.08,321.54 218.23,330.39 
				230.87,343.04 229.28,344.63 239,345.92 			"/>
			<path d="M108.82,531.58L239,401.4l130.18,130.18l54.45-54.45L239,292.49L54.37,477.12L108.82,531.58z M419.39,477.12
				l-50.21,50.21L239,397.15L108.82,527.33l-50.21-50.21L239,296.73L419.39,477.12z"/>
			<polygon points="260.74,356.65 259.15,355.06 271.8,342.42 262.95,333.57 250.31,346.21 248.72,344.63 246.88,358.49 			"/>
			<polygon points="82.76,465.86 73.91,474.71 86.55,487.35 84.97,488.94 98.83,490.78 96.99,476.92 95.4,478.51 			"/>
			<polygon points="110.86,478.76 109.02,464.89 107.43,466.48 94.79,453.83 85.94,462.68 98.58,475.33 96.99,476.92 			"/>
			<path d="M108.82,519.55L239,389.37l130.18,130.18l42.43-42.43L239,304.52L66.39,477.12L108.82,519.55z M407.36,477.12
				l-38.18,38.18L239,385.13L108.82,515.31l-38.18-38.18L239,308.76L407.36,477.12z"/>
			<polygon points="169.15,404.76 167.56,406.35 154.92,393.7 146.07,402.55 158.71,415.2 157.12,416.78 170.99,418.62 			"/>
			
				<rect x="279.36" y="324.12" transform="matrix(0.7071 -0.7071 0.7071 0.7071 -149.7147 298.1389)" width="11.34" height="11.34"/>
			<polygon points="133.07,440.84 131.48,442.43 118.84,429.78 109.99,438.63 122.63,451.28 121.05,452.86 134.91,454.7 			"/>
			<polygon points="157.12,416.78 155.54,418.37 142.89,405.73 134.04,414.58 146.69,427.22 145.1,428.81 158.96,430.65 			"/>
			<polygon points="145.1,428.81 143.51,430.4 130.86,417.75 122.02,426.6 134.66,439.25 133.07,440.84 146.94,442.68 			"/>
			<rect x="117.55" y="403.55" transform="matrix(0.7071 -0.7071 0.7071 0.7071 -252.0947 204.1543)" width="5.67" height="5.67"/>
			<rect x="178.1" y="342.98" transform="matrix(0.7071 -0.7071 0.7071 0.7071 -191.5349 229.2283)" width="5.67" height="5.67"/>
			<polygon points="180.94,285.68 184.94,281.68 180.94,277.67 176.93,281.68 180.94,285.69 176.93,289.69 180.94,293.7 
				176.93,297.71 180.94,301.72 176.93,305.73 180.94,309.74 192.96,297.71 			"/>
			<rect x="159.86" y="353.22" transform="matrix(0.7071 -0.7071 0.7071 0.7071 -204.1164 219.331)" width="5.67" height="5.67"/>
			<rect x="159.86" y="361.24" transform="matrix(0.7071 -0.7071 0.7071 0.7071 -209.7857 221.6793)" width="5.67" height="5.67"/>
			<rect x="178.1" y="326.95" transform="matrix(0.7071 -0.7071 0.7071 0.7071 -180.1962 224.5317)" width="5.67" height="5.67"/>
			<rect x="178.1" y="310.91" transform="matrix(0.7071 -0.7071 0.7071 0.7071 -168.8577 219.8352)" width="5.67" height="5.67"/>
			<rect x="178.1" y="318.93" transform="matrix(0.7071 -0.7071 0.7071 0.7071 -174.527 222.1835)" width="5.67" height="5.67"/>
			<rect x="178.1" y="334.96" transform="matrix(0.7071 -0.7071 0.7071 0.7071 -185.8655 226.8801)" width="5.67" height="5.67"/>
			<rect x="135.79" y="313.13" transform="matrix(0.7071 -0.7071 0.7071 0.7071 -182.8202 190.5687)" width="5.67" height="5.67"/>
			<rect x="139.81" y="309.12" transform="matrix(0.7071 -0.7071 0.7071 0.7071 -178.8068 192.2311)" width="5.67" height="5.67"/>
			<polygon points="162.7,327.99 150.67,340.02 162.7,352.05 166.71,348.04 162.7,344.03 166.71,340.02 162.7,336.01 166.71,332 
				162.7,327.99 166.71,323.99 162.7,319.98 158.69,323.99 			"/>
			<polygon points="138.63,327.99 142.64,323.99 138.63,319.98 134.62,323.99 138.63,327.99 134.62,332 138.63,336.01 
				134.62,340.02 138.63,344.03 134.62,348.04 138.63,352.05 150.65,340.02 			"/>
			<rect x="159.86" y="313.13" transform="matrix(0.7071 -0.7071 0.7071 0.7071 -175.7699 207.5895)" width="5.67" height="5.67"/>
			<polygon points="150.66,307.94 154.67,311.95 158.68,307.94 150.66,299.92 142.64,307.94 146.65,311.95 			"/>
			<rect x="155.85" y="309.12" transform="matrix(0.7071 -0.7071 0.7071 0.7071 -174.1084 203.5787)" width="5.67" height="5.67"/>
			<rect x="294.23" y="326.95" transform="matrix(0.7071 -0.7071 0.7071 0.7071 -146.1832 306.6466)" width="5.67" height="5.67"/>
			<rect x="294.23" y="310.91" transform="matrix(0.7071 -0.7071 0.7071 0.7071 -134.8446 301.95)" width="5.67" height="5.67"/>
			<rect x="294.23" y="318.93" transform="matrix(0.7071 -0.7071 0.7071 0.7071 -140.5139 304.2983)" width="5.67" height="5.67"/>
			<rect x="294.23" y="270.82" transform="matrix(0.7071 -0.7071 0.7071 0.7071 -106.4981 290.2086)" width="5.67" height="5.67"/>
			<polygon points="297.06,285.68 285.04,297.71 297.06,309.74 301.07,305.73 297.06,301.72 301.07,297.71 297.06,293.7 
				301.07,289.69 297.06,285.69 301.07,281.68 297.06,277.67 293.05,281.68 			"/>
			<rect x="294.23" y="342.98" transform="matrix(0.7071 -0.7071 0.7071 0.7071 -157.5218 311.3432)" width="5.67" height="5.67"/>
			<rect x="135.79" y="353.22" transform="matrix(0.7071 -0.7071 0.7071 0.7071 -211.1666 202.3102)" width="5.67" height="5.67"/>
			<rect x="294.23" y="334.96" transform="matrix(0.7071 -0.7071 0.7071 0.7071 -151.8527 308.9984)" width="5.67" height="5.67"/>
			<rect x="182.11" y="266.81" transform="matrix(0.7071 -0.7071 0.7071 0.7071 -136.4978 209.7561)" width="5.67" height="5.67"/>
			<polygon points="192.97,265.63 196.98,269.64 200.99,265.63 196.98,261.62 192.97,257.61 188.96,261.62 184.95,265.63 
				188.96,269.64 			"/>
			<path d="M200,256.92l10.07-1.15l-1.15,10.07l10.07-1.15l-1.15,10.07l10.07-1.15l-1.15,10.07l12.05-1.38l-7.49,9.42h15.38
				l-7.49-9.42l12.05,1.38l-1.15-10.07l10.07,1.15l-1.15-10.07l10.07,1.15l-1.15-10.07l10.07,1.15l-1.38-12.05l9.42,7.49v-15.38
				l-9.42,7.49l1.38-12.05l-10.07,1.15l1.15-10.07l-10.07,1.15l1.15-10.07l-10.07,1.15l1.15-10.07l-12.05,1.38l7.49-9.42h-15.38
				l7.49,9.42l-12.05-1.38l1.15,10.07l-10.07-1.15l1.15,10.07l-10.07-1.15l1.15,10.07L200,232.43l1.38,12.05l-9.42-7.49v15.38
				l9.42-7.49L200,256.92z M239,211.33l33.35,33.35L239,278.03l-33.35-33.35L239,211.33z"/>
			<rect x="178.1" y="270.82" transform="matrix(0.7071 -0.7071 0.7071 0.7071 -140.5112 208.0937)" width="5.67" height="5.67"/>
			<rect x="290.22" y="266.81" transform="matrix(0.7071 -0.7071 0.7071 0.7071 -104.8357 286.1952)" width="5.67" height="5.67"/>
			<polygon points="281.02,261.62 277.01,265.63 281.02,269.64 285.03,265.63 289.04,269.64 293.05,265.63 289.04,261.62 
				285.03,257.61 			"/>
			<path d="M263.92,244.68L239,219.75l-24.93,24.93L239,269.6L263.92,244.68z M239,224l20.68,20.68L239,265.36l-20.68-20.68L239,224
				z"/>
			<circle cx="239" cy="244.68" r="7.5"/>
			<rect x="55.19" y="393.74" transform="matrix(0.7071 -0.7071 0.7071 0.7071 -263.4266 157.1837)" width="5.67" height="5.67"/>
			<rect x="71.23" y="393.74" transform="matrix(0.7071 -0.7071 0.7071 0.7071 -258.7255 168.5262)" width="5.67" height="5.67"/>
			<rect x="75.25" y="397.75" transform="matrix(0.7071 -0.7071 0.7071 0.7071 -260.3879 172.5396)" width="5.67" height="5.67"/>
			<rect x="312.47" y="361.24" transform="matrix(0.7071 -0.7071 0.7071 0.7071 -165.089 329.5865)" width="5.67" height="5.67"/>
			<polygon points="66.04,392.56 70.05,396.57 74.06,392.56 70.05,388.55 66.04,384.54 58.03,392.56 62.04,396.57 			"/>
			<polygon points="78.08,412.61 66.05,424.64 78.08,436.66 82.09,432.66 78.08,428.65 82.09,424.64 78.08,420.63 82.09,416.62 
				78.08,412.61 82.09,408.6 78.08,404.59 74.07,408.6 			"/>
			<rect x="75.25" y="445.86" transform="matrix(0.7071 -0.7071 0.7071 0.7071 -294.4036 186.6294)" width="5.67" height="5.67"/>
			<rect x="75.25" y="437.84" transform="matrix(0.7071 -0.7071 0.7071 0.7071 -288.7343 184.2811)" width="5.67" height="5.67"/>
			<polygon points="54.01,412.61 58.02,408.6 54.01,404.59 50,408.6 54.01,412.61 50,416.62 54.01,420.63 50,424.64 54.01,428.65 
				50,432.66 54.01,436.66 66.04,424.64 			"/>
			<rect x="51.17" y="461.89" transform="matrix(0.7071 -0.7071 0.7071 0.7071 -312.7924 174.3052)" width="5.67" height="5.67"/>
			<rect x="51.17" y="453.87" transform="matrix(0.7071 -0.7071 0.7071 0.7071 -307.1253 171.9597)" width="5.67" height="5.67"/>
			<rect x="51.17" y="397.75" transform="matrix(0.7071 -0.7071 0.7071 0.7071 -267.4381 155.5188)" width="5.67" height="5.67"/>
			<rect x="51.17" y="469.91" transform="matrix(0.7071 -0.7071 0.7071 0.7071 -318.4617 176.6535)" width="5.67" height="5.67"/>
			<rect x="51.17" y="445.86" transform="matrix(0.7071 -0.7071 0.7071 0.7071 -301.4538 169.6086)" width="5.67" height="5.67"/>
			<rect x="93.48" y="427.6" transform="matrix(0.7071 -0.7071 0.7071 0.7071 -276.1528 194.1785)" width="5.67" height="5.67"/>
			<rect x="51.17" y="437.84" transform="matrix(0.7071 -0.7071 0.7071 0.7071 -295.7845 167.2603)" width="5.67" height="5.67"/>
			<polygon points="96.32,370.3 100.33,366.29 96.32,362.29 92.31,366.29 96.32,370.3 92.31,374.31 96.32,378.32 92.31,382.33 
				96.32,386.34 92.31,390.35 96.32,394.36 108.35,382.33 			"/>
			<rect x="113.54" y="351.43" transform="matrix(0.7071 -0.7071 0.7071 0.7071 -216.4166 186.0512)" width="5.67" height="5.67"/>
			<polygon points="120.39,370.3 108.36,382.33 120.39,394.36 124.4,390.35 120.39,386.34 124.4,382.33 120.39,378.32 124.4,374.31 
				120.39,370.3 124.4,366.29 120.39,362.29 116.38,366.29 			"/>
			<rect x="117.55" y="355.44" transform="matrix(0.7071 -0.7071 0.7071 0.7071 -218.0802 190.0671)" width="5.67" height="5.67"/>
			<rect x="117.55" y="395.53" transform="matrix(0.7071 -0.7071 0.7071 0.7071 -246.4254 201.806)" width="5.67" height="5.67"/>
			<rect x="93.48" y="419.58" transform="matrix(0.7071 -0.7071 0.7071 0.7071 -270.4852 191.833)" width="5.67" height="5.67"/>
			<rect x="135.79" y="369.26" transform="matrix(0.7071 -0.7071 0.7071 0.7071 -222.5052 207.0068)" width="5.67" height="5.67"/>
			<rect x="135.79" y="377.27" transform="matrix(0.7071 -0.7071 0.7071 0.7071 -228.1745 209.3551)" width="5.67" height="5.67"/>
			<rect x="135.79" y="385.29" transform="matrix(0.7071 -0.7071 0.7071 0.7071 -233.8438 211.7034)" width="5.67" height="5.67"/>
			<rect x="93.48" y="395.53" transform="matrix(0.7071 -0.7071 0.7071 0.7071 -253.4756 184.7853)" width="5.67" height="5.67"/>
			<rect x="93.48" y="403.55" transform="matrix(0.7071 -0.7071 0.7071 0.7071 -259.1449 187.1336)" width="5.67" height="5.67"/>
			<rect x="93.48" y="411.57" transform="matrix(0.7071 -0.7071 0.7071 0.7071 -264.8142 189.4819)" width="5.67" height="5.67"/>
			<rect x="97.5" y="351.43" transform="matrix(0.7071 -0.7071 0.7071 0.7071 -221.1158 174.7062)" width="5.67" height="5.67"/>
			<polygon points="108.35,350.25 112.36,354.26 116.37,350.25 108.35,342.23 104.34,346.24 100.34,350.25 104.34,354.26 			"/>
			<rect x="93.48" y="355.44" transform="matrix(0.7071 -0.7071 0.7071 0.7071 -225.1292 173.0438)" width="5.67" height="5.67"/>
			<rect x="135.79" y="361.24" transform="matrix(0.7071 -0.7071 0.7071 0.7071 -216.8359 204.6585)" width="5.67" height="5.67"/>
			<rect x="374.83" y="351.43" transform="matrix(0.7071 -0.7071 0.7071 0.7071 -139.8857 370.8132)" width="5.67" height="5.67"/>
			<rect x="421.16" y="469.91" transform="matrix(0.7071 -0.7071 0.7071 0.7071 -210.0963 438.2653)" width="5.67" height="5.67"/>
			<rect x="350.55" y="524.7" width="5.67" height="5.67"/>
			<rect x="121.78" y="524.7" width="5.67" height="5.67"/>
			<rect x="421.16" y="461.89" transform="matrix(0.7071 -0.7071 0.7071 0.7071 -204.4271 435.9171)" width="5.67" height="5.67"/>
			<rect x="421.16" y="397.75" transform="matrix(0.7071 -0.7071 0.7071 0.7071 -159.0731 417.131)" width="5.67" height="5.67"/>
			<rect x="417.14" y="393.74" transform="matrix(0.7071 -0.7071 0.7071 0.7071 -157.4106 413.1221)" width="5.67" height="5.67"/>
			<polygon points="423.99,412.61 411.96,424.64 423.99,436.66 428,432.66 423.99,428.65 428,424.64 423.99,420.63 428,416.62 
				423.99,412.61 428,408.6 423.99,404.59 419.98,408.6 			"/>
			<rect x="421.16" y="437.84" transform="matrix(0.7071 -0.7071 0.7071 0.7071 -187.4193 428.8723)" width="5.67" height="5.67"/>
			<rect x="421.16" y="453.87" transform="matrix(0.7071 -0.7071 0.7071 0.7071 -198.7578 433.5688)" width="5.67" height="5.67"/>
			<rect x="421.16" y="445.86" transform="matrix(0.7071 -0.7071 0.7071 0.7071 -193.0886 431.2205)" width="5.67" height="5.67"/>
			<ellipse transform="matrix(0.7071 -0.7071 0.7071 0.7071 -302.2886 323.2065)" cx="239" cy="526.5" rx="7.42" ry="7.42"/>
			<path d="M264.32,512.02l6.33,6.33l6.33,6.33l6.33,6.33L302.3,550l15.03-15.03l3-3l-25.32-25.32l-6.33-6.33l-6.33-6.33
				l-25.32-25.32l-3.01,3.01L239,486.7l18.99,18.99L264.32,512.02z M316.21,533.86l-12.02,12.02l-4.1-4.1l12.02-12.02L316.21,533.86
				z M309.88,527.53l-12.02,12.02v0l-4.1-4.1l12.02-12.02L309.88,527.53z M303.55,521.2l-12.02,12.02l-4.1-4.1l12.02-12.02
				L303.55,521.2z M297.22,514.87l-12.02,12.02l-4.1-4.1l12.02-12.02L297.22,514.87z M290.89,508.54l-12.02,12.02l-4.1-4.1
				l12.02-12.02L290.89,508.54z M284.56,502.21l-12.02,12.02l-4.1-4.1l12.02-12.02L284.56,502.21z M278.23,495.88l-12.02,12.02
				l-4.1-4.1l12.02-12.02L278.23,495.88z M243.12,484.81l12.02-12.02l4.1,4.1l-12.02,12.02L243.12,484.81z M249.45,491.14
				l12.02-12.02l4.1,4.1l-12.02,12.02L249.45,491.14z M267.8,485.45l4.1,4.1l-12.02,12.02l-4.1-4.1L267.8,485.45z"/>
			<polygon points="151.18,538.46 144.69,544.95 139.64,550 145.65,550 146.56,549.1 147.46,550 152.03,550 148.84,546.81 
				153.04,542.61 160.44,550 165.01,550 155.33,540.32 159.53,536.12 171.55,548.14 169.69,550 175.7,550 157.67,531.97 
				157.67,531.97 			"/>
			<polygon points="158.56,519.05 152.89,519.05 152.89,524.72 			"/>
			<path d="M257.03,468.67L239,450.64l-5.05,5.05l-6.49,6.49l-6.49,6.49L239,486.7L257.03,468.67z M239,456.65l0.9,0.9l-0.9,0.9
				l-0.9-0.9L239,456.65z M235.81,459.84l3.19,3.19l3.19-3.19l4.2,4.2l-7.39,7.39l-7.39-7.39L235.81,459.84z M225.12,470.53l4.2-4.2
				l9.68,9.68l9.68-9.68l4.2,4.2l-12.02,12.02l-1.86-1.86l-1.86,1.86L225.12,470.53z"/>
			<polygon points="140.18,537.43 134.51,537.43 134.51,543.1 			"/>
			<polygon points="131.89,550 239,442.89 346.11,550 350.35,550 239,438.65 127.65,550 			"/>
			<path d="M214.64,475l-6.33,6.33l-6.33,6.33l-6.33,6.33L164,525.64l-6.33,6.33L175.7,550l6.33-6.33l6.33-6.33l6.33-6.33l6.33-6.33
				l6.33-6.33l6.33-6.33l6.33-6.33l6.33-6.33l6.33-6.33l6.33-6.33l-3.01-3.01l-12.02-12.02l-3.01-3.01L214.64,475z M173.81,545.88
				l-12.02-12.02l4.1-4.1l12.02,12.02L173.81,545.88z M180.14,539.55l-12.02-12.02l4.1-4.1l12.02,12.02l1.12-1.12L180.14,539.55z
				 M186.47,533.22l-12.02-12.02l4.1-4.1l12.02,12.02L186.47,533.22z M191.68,528l1.12-1.12l-12.02-12.02l4.1-4.1l12.02,12.02
				L191.68,528z M199.13,520.56l-12.02-12.02l4.1-4.1l12.02,12.02L199.13,520.56z M204.34,515.34l1.12-1.12l-12.02-12.02l4.1-4.1
				l12.02,12.02L204.34,515.34z M211.79,507.9l-12.02-12.02l4.1-4.1l12.02,12.02L211.79,507.9z M218.12,501.57l-12.02-12.02l4.1-4.1
				l12.02,12.02L218.12,501.57z M224.45,495.24l-12.02-12.02l4.1-4.1l12.02,12.02L224.45,495.24z M234.88,484.81l-4.1,4.1
				l-12.02-12.02l4.1-4.1L234.88,484.81z"/>
			<polygon points="176.38,550 180.62,550 239,491.62 297.38,550 301.62,550 239,487.38 			"/>
			<polygon points="326.82,538.46 320.33,531.97 302.3,550 308.31,550 306.45,548.14 318.47,536.12 322.67,540.32 312.99,550 
				317.56,550 324.96,542.61 329.16,546.81 325.97,550 330.54,550 331.44,549.1 332.35,550 338.36,550 333.31,544.95 			"/>
			<polygon points="187.15,550 191.39,550 239,502.39 286.61,550 290.85,550 239,498.15 			"/>
			<polygon points="411.96,392.56 415.96,396.57 419.97,392.56 411.96,384.54 403.94,392.56 407.95,396.57 			"/>
			<polygon points="191.9,550 238.33,550 215.12,526.79 			"/>
			<polygon points="239.67,550 286.1,550 262.88,526.79 			"/>
			<path d="M215.32,526.5l23.5,23.5h0.37l23.5-23.5L239,502.81L215.32,526.5z M239,545.94l-19.44-19.44L239,507.06l19.44,19.44
				L239,545.94z"/>
			<polygon points="357.61,370.3 361.62,366.29 357.61,362.29 353.6,366.29 357.61,370.3 353.6,374.31 357.61,378.32 353.6,382.33 
				357.61,386.34 353.6,390.35 357.61,394.36 369.64,382.33 			"/>
			<rect x="336.54" y="377.27" transform="matrix(0.7071 -0.7071 0.7071 0.7071 -169.3774 351.3039)" width="5.67" height="5.67"/>
			<rect x="336.54" y="369.26" transform="matrix(0.7071 -0.7071 0.7071 0.7071 -163.7083 348.9594)" width="5.67" height="5.67"/>
			<rect x="336.54" y="361.24" transform="matrix(0.7071 -0.7071 0.7071 0.7071 -158.0388 346.6073)" width="5.67" height="5.67"/>
			<rect x="354.78" y="395.53" transform="matrix(0.7071 -0.7071 0.7071 0.7071 -176.9447 369.5472)" width="5.67" height="5.67"/>
			<rect x="401.1" y="393.74" transform="matrix(0.7071 -0.7071 0.7071 0.7071 -162.1098 401.7771)" width="5.67" height="5.67"/>
			<rect x="336.54" y="353.22" transform="matrix(0.7071 -0.7071 0.7071 0.7071 -152.3695 344.259)" width="5.67" height="5.67"/>
			<rect x="354.78" y="403.55" transform="matrix(0.7071 -0.7071 0.7071 0.7071 -182.614 371.8955)" width="5.67" height="5.67"/>
			<polygon points="327.34,307.94 331.35,311.95 335.35,307.94 331.35,303.93 327.34,299.92 319.32,307.94 323.33,311.95 			"/>
			<polygon points="339.37,327.99 327.34,340.02 339.37,352.05 343.38,348.04 339.37,344.03 343.38,340.02 339.37,336.01 
				343.38,332 339.37,327.99 343.38,323.99 339.37,319.98 335.36,323.99 			"/>
			<rect x="316.48" y="309.12" transform="matrix(0.7071 -0.7071 0.7071 0.7071 -127.0599 317.1591)" width="5.67" height="5.67"/>
			<polygon points="315.3,327.99 319.31,323.99 315.3,319.98 311.29,323.99 315.3,327.99 311.29,332 315.3,336.01 311.29,340.02 
				315.3,344.03 311.29,348.04 315.3,352.05 327.33,340.02 			"/>
			<rect x="312.47" y="313.13" transform="matrix(0.7071 -0.7071 0.7071 0.7071 -131.0733 315.4968)" width="5.67" height="5.67"/>
			<rect x="336.54" y="313.13" transform="matrix(0.7071 -0.7071 0.7071 0.7071 -124.0231 332.5175)" width="5.67" height="5.67"/>
			<rect x="332.52" y="309.12" transform="matrix(0.7071 -0.7071 0.7071 0.7071 -122.3605 328.5076)" width="5.67" height="5.67"/>
			<rect x="312.47" y="353.22" transform="matrix(0.7071 -0.7071 0.7071 0.7071 -159.4198 327.2383)" width="5.67" height="5.67"/>
			<rect x="336.54" y="385.29" transform="matrix(0.7071 -0.7071 0.7071 0.7071 -175.0467 353.6522)" width="5.67" height="5.67"/>
			<rect x="397.08" y="445.86" transform="matrix(0.7071 -0.7071 0.7071 0.7071 -200.1389 414.2045)" width="5.67" height="5.67"/>
			<rect x="378.85" y="427.6" transform="matrix(0.7071 -0.7071 0.7071 0.7071 -192.5716 395.9612)" width="5.67" height="5.67"/>
			<rect x="378.85" y="419.58" transform="matrix(0.7071 -0.7071 0.7071 0.7071 -186.9023 393.6129)" width="5.67" height="5.67"/>
			<rect x="397.08" y="397.75" transform="matrix(0.7071 -0.7071 0.7071 0.7071 -166.1232 400.1147)" width="5.67" height="5.67"/>
			<rect x="397.08" y="437.84" transform="matrix(0.7071 -0.7071 0.7071 0.7071 -194.4696 411.8562)" width="5.67" height="5.67"/>
			<rect x="378.85" y="411.57" transform="matrix(0.7071 -0.7071 0.7071 0.7071 -181.233 391.2646)" width="5.67" height="5.67"/>
			<polygon points="399.92,412.61 403.93,408.6 399.92,404.59 395.91,408.6 399.92,412.61 395.91,416.62 399.92,420.63 
				395.91,424.64 399.92,428.65 395.91,432.66 399.92,436.66 411.95,424.64 			"/>
			<polygon points="369.65,350.25 373.65,354.26 377.66,350.25 369.65,342.23 361.63,350.25 365.64,354.26 			"/>
			<rect x="354.78" y="355.44" transform="matrix(0.7071 -0.7071 0.7071 0.7071 -148.5982 357.8057)" width="5.67" height="5.67"/>
			<rect x="358.79" y="351.43" transform="matrix(0.7071 -0.7071 0.7071 0.7071 -144.5849 359.4681)" width="5.67" height="5.67"/>
			<polygon points="176.95,500.66 171.28,500.66 171.28,506.33 			"/>
			<polygon points="381.68,370.3 369.65,382.33 381.68,394.36 385.69,390.35 381.68,386.34 385.69,382.33 381.68,378.32 
				385.69,374.31 381.68,370.3 385.69,366.29 381.68,362.29 377.67,366.29 			"/>
			<rect x="378.85" y="395.53" transform="matrix(0.7071 -0.7071 0.7071 0.7071 -169.8945 386.568)" width="5.67" height="5.67"/>
			<rect x="378.85" y="355.44" transform="matrix(0.7071 -0.7071 0.7071 0.7071 -141.5479 374.8305)" width="5.67" height="5.67"/>
			<rect x="378.85" y="403.55" transform="matrix(0.7071 -0.7071 0.7071 0.7071 -175.5638 388.9163)" width="5.67" height="5.67"/>
		</g>
		<g>
			<g>
				
					<rect x="426.96" y="329.83" transform="matrix(0.7071 -0.7071 0.7071 0.7071 -111.2616 405.9688)" style="fill:none;stroke:#000000;stroke-width:4;stroke-miterlimit:10;" width="14.92" height="14.92"/>
				<rect x="431.58" y="334.45" transform="matrix(0.7071 -0.7071 0.7071 0.7071 -111.2616 405.9688)" width="5.67" height="5.67"/>
				<rect x="431.58" y="352.45" transform="matrix(0.7071 -0.7071 0.7071 0.7071 -123.9895 411.2408)" width="5.67" height="5.67"/>
				<rect x="413.58" y="334.45" transform="matrix(0.7071 0.7071 -0.7071 0.7071 360.465 -195.6615)" width="5.67" height="5.67"/>
				
					<rect x="449.58" y="334.45" transform="matrix(-0.7071 -0.7071 0.7071 -0.7071 533.8246 895.6953)" width="5.67" height="5.67"/>
			</g>
			<g>
				
					<rect x="426.96" y="197.17" transform="matrix(0.7071 0.7071 -0.7071 0.7071 271.9309 -247.2452)" style="fill:none;stroke:#000000;stroke-width:4;stroke-miterlimit:10;" width="14.92" height="14.92"/>
				<rect x="431.58" y="201.79" transform="matrix(0.7071 0.7071 -0.7071 0.7071 271.9309 -247.2452)" width="5.67" height="5.67"/>
				<rect x="431.58" y="183.79" transform="matrix(0.7071 0.7071 -0.7071 0.7071 259.203 -252.5173)" width="5.67" height="5.67"/>
				<rect x="413.58" y="201.79" transform="matrix(0.7071 -0.7071 0.7071 0.7071 -22.7275 354.3851)" width="5.67" height="5.67"/>
				<rect x="449.58" y="201.79" transform="matrix(-0.7071 0.7071 -0.7071 -0.7071 917.0171 29.4132)" width="5.67" height="5.67"/>
			</g>
			
				<rect x="487.69" y="261.72" transform="matrix(-1 -1.224647e-16 1.224647e-16 -1 981.0567 529.1108)" width="5.67" height="5.67"/>
			
				<rect x="487.69" y="274.53" transform="matrix(-1 -4.411683e-11 4.411683e-11 -1 981.0567 554.7214)" width="5.67" height="5.67"/>
			<rect x="375.47" y="261.72" width="5.67" height="5.67"/>
			<rect x="375.47" y="274.53" width="5.67" height="5.67"/>
			<g>
				<g>
					<rect x="375.6" y="287.33" width="5.67" height="5.67"/>
					<polygon points="388.33,274.6 394,280.27 388.33,280.27 					"/>
					<polygon points="381.71,267.98 385.71,271.98 385.71,282.9 396.63,282.9 400.63,286.9 381.71,286.9 					"/>
				</g>
				<g>
					<rect x="412.37" y="324.1" width="5.67" height="5.67"/>
					<polygon points="430.77,317.04 425.1,311.37 425.1,317.04 					"/>
					<polygon points="437.4,323.67 433.4,319.67 422.48,319.67 422.48,308.75 418.48,304.75 418.48,323.67 					"/>
				</g>
				<g>
					<rect x="393.99" y="305.72" width="5.67" height="5.67"/>
					<polygon points="412.39,298.66 406.72,292.99 406.72,298.66 					"/>
					<polygon points="419.01,305.28 415.01,301.28 404.09,301.28 404.09,290.36 400.09,286.36 400.09,305.28 					"/>
				</g>
				<rect x="389.89" y="291.43" width="5.67" height="5.67"/>
				<rect x="408.27" y="309.82" width="5.67" height="5.67"/>
			</g>
			<g>
				<g>
					<rect x="450.79" y="324.1" width="5.67" height="5.67"/>
					<polygon points="438.06,317.04 443.73,311.37 443.73,317.04 					"/>
					<polygon points="431.44,323.67 435.44,319.67 446.36,319.67 446.36,308.75 450.36,304.75 450.36,323.67 					"/>
				</g>
				<g>
					<rect x="487.56" y="287.33" width="5.67" height="5.67"/>
					<polygon points="480.5,274.6 474.83,280.27 480.5,280.27 					"/>
					<polygon points="487.13,267.98 483.13,271.98 483.13,282.9 472.21,282.9 468.21,286.9 487.13,286.9 					"/>
				</g>
				<g>
					<rect x="469.18" y="305.72" width="5.67" height="5.67"/>
					<polygon points="462.12,292.99 456.45,298.66 462.12,298.66 					"/>
					<polygon points="468.74,286.36 464.74,290.36 464.74,301.28 453.82,301.28 449.82,305.28 468.74,305.28 					"/>
				</g>
				
					<rect x="454.89" y="309.82" transform="matrix(8.823348e-11 -1 1 8.823348e-11 145.0741 770.3761)" width="5.67" height="5.67"/>
				
					<rect x="473.28" y="291.43" transform="matrix(8.855500e-11 -1 1 8.855500e-11 181.8436 770.3761)" width="5.67" height="5.67"/>
			</g>
			<g>
				<g>
					<rect x="487.56" y="248.92" width="5.67" height="5.67"/>
					<polygon points="480.5,267.31 474.83,261.64 480.5,261.64 					"/>
					<polygon points="487.13,273.94 483.13,269.94 483.13,259.02 472.21,259.02 468.21,255.02 487.13,255.02 					"/>
				</g>
				<g>
					<rect x="450.79" y="212.15" width="5.67" height="5.67"/>
					<polygon points="438.06,224.87 443.73,230.54 443.73,224.87 					"/>
					<polygon points="431.44,218.25 435.44,222.25 446.36,222.25 446.36,233.17 450.36,237.17 450.36,218.25 					"/>
				</g>
				<g>
					<rect x="469.17" y="230.53" width="5.67" height="5.67"/>
					<polygon points="456.45,243.26 462.12,248.93 462.12,243.26 					"/>
					<polygon points="449.82,236.63 453.82,240.63 464.74,240.63 464.74,251.55 468.74,255.55 468.74,236.63 					"/>
				</g>
				
					<rect x="473.28" y="244.82" transform="matrix(-1 -1.339548e-10 1.339548e-10 -1 952.2197 495.2997)" width="5.67" height="5.67"/>
				
					<rect x="454.89" y="226.43" transform="matrix(-1 -1.341151e-10 1.341151e-10 -1 915.4501 458.5301)" width="5.67" height="5.67"/>
			</g>
			<g>
				<g>
					<rect x="412.37" y="212.15" width="5.67" height="5.67"/>
					<polygon points="430.77,224.87 425.1,230.54 425.1,224.87 					"/>
					<polygon points="437.4,218.25 433.4,222.25 422.48,222.25 422.48,233.17 418.48,237.17 418.48,218.25 					"/>
				</g>
				<g>
					<rect x="375.6" y="248.92" width="5.67" height="5.67"/>
					<polygon points="388.33,267.31 394,261.64 388.33,261.64 					"/>
					<polygon points="381.71,273.94 385.71,269.94 385.71,259.02 396.63,259.02 400.63,255.02 381.71,255.02 					"/>
				</g>
				<g>
					<rect x="393.99" y="230.53" width="5.67" height="5.67"/>
					<polygon points="406.72,248.93 412.39,243.26 406.72,243.26 					"/>
					<polygon points="400.09,255.55 404.09,251.55 404.09,240.63 415.01,240.63 419.01,236.63 400.09,236.63 					"/>
				</g>
				
					<rect x="408.27" y="226.43" transform="matrix(-1.764670e-10 1 -1 -1.764670e-10 640.3737 -181.8436)" width="5.67" height="5.67"/>
				
					<rect x="389.89" y="244.82" transform="matrix(-1.764670e-10 1 -1 -1.764670e-10 640.3737 -145.0741)" width="5.67" height="5.67"/>
			</g>
			
				<rect x="408.18" y="244.72" transform="matrix(0.7071 -0.7071 0.7071 0.7071 -64.3585 386.5409)" style="fill:none;stroke:#000000;stroke-width:3;stroke-miterlimit:10;" width="52.47" height="52.47"/>
			<g>
				<g>
					<rect x="439.28" y="265.71" transform="matrix(0.7071 -0.7071 0.7071 0.7071 -60.5661 390.1724)" width="2.83" height="4.98"/>
					<rect x="451.31" y="253.68" transform="matrix(0.7071 -0.7071 0.7071 0.7071 -48.5393 395.1558)" width="2.83" height="4.98"/>
					
						<rect x="438.31" y="260.24" transform="matrix(0.7071 -0.7071 0.7071 0.7071 -54.0045 391.3491)" width="14.17" height="1.24"/>
					
						<rect x="440.95" y="262.88" transform="matrix(0.7071 -0.7071 0.7071 0.7071 -55.0991 393.9846)" width="14.17" height="1.24"/>
				</g>
				<g>
					<rect x="435.76" y="262.19" transform="matrix(0.7071 -0.7071 0.7071 0.7071 -59.1073 386.6564)" width="2.83" height="4.98"/>
					<rect x="447.79" y="250.16" transform="matrix(0.7071 -0.7071 0.7071 0.7071 -47.0814 391.636)" width="2.83" height="4.98"/>
					<rect x="434.79" y="256.72" transform="matrix(0.7071 -0.7071 0.7071 0.7071 -52.5477 387.825)" width="14.17" height="1.24"/>
					
						<rect x="437.43" y="259.36" transform="matrix(0.7071 -0.7071 0.7071 0.7071 -53.6411 390.4648)" width="14.17" height="1.24"/>
				</g>
				<g>
					<rect x="429.17" y="263.26" transform="matrix(0.7071 -0.7071 0.7071 0.7071 -60.7251 382.748)" width="4.98" height="2.83"/>
					<rect x="417.14" y="251.23" transform="matrix(0.7071 -0.7071 0.7071 0.7071 -55.7436 370.7217)" width="4.98" height="2.83"/>
					<rect x="423.7" y="252.9" transform="matrix(0.7071 -0.7071 0.7071 0.7071 -59.5546 376.188)" width="1.24" height="14.17"/>
					
						<rect x="426.34" y="250.26" transform="matrix(0.7071 -0.7071 0.7071 0.7071 -56.9148 377.2815)" width="1.24" height="14.17"/>
				</g>
				<g>
					<rect x="425.65" y="266.78" transform="matrix(0.7071 -0.7071 0.7071 0.7071 -64.2449 381.2901)" width="4.98" height="2.83"/>
					<rect x="413.62" y="254.75" transform="matrix(0.7071 -0.7071 0.7071 0.7071 -59.2634 369.2638)" width="4.98" height="2.83"/>
					
						<rect x="420.18" y="256.42" transform="matrix(0.7071 -0.7071 0.7071 0.7071 -63.0734 374.7343)" width="1.24" height="14.17"/>
					
						<rect x="422.82" y="253.78" transform="matrix(0.7071 -0.7071 0.7071 0.7071 -60.4336 375.8277)" width="1.24" height="14.17"/>
				</g>
				<g>
					<rect x="426.72" y="271.23" transform="matrix(0.7071 -0.7071 0.7071 0.7071 -68.1513 382.9075)" width="2.83" height="4.98"/>
					<rect x="414.69" y="283.26" transform="matrix(0.7071 -0.7071 0.7071 0.7071 -80.1775 377.927)" width="2.83" height="4.98"/>
					<rect x="416.36" y="280.43" transform="matrix(0.7071 -0.7071 0.7071 0.7071 -74.7114 381.737)" width="14.17" height="1.24"/>
					
						<rect x="413.72" y="277.79" transform="matrix(0.7071 -0.7071 0.7071 0.7071 -73.6188 379.0929)" width="14.17" height="1.24"/>
				</g>
				<g>
					<rect x="430.24" y="274.75" transform="matrix(0.7071 -0.7071 0.7071 0.7071 -69.6097 386.4254)" width="2.83" height="4.98"/>
					<rect x="418.21" y="286.78" transform="matrix(0.7071 -0.7071 0.7071 0.7071 -81.6358 381.4449)" width="2.83" height="4.98"/>
					
						<rect x="419.87" y="283.95" transform="matrix(0.7071 -0.7071 0.7071 0.7071 -76.1693 385.2568)" width="14.17" height="1.24"/>
					
						<rect x="417.24" y="281.31" transform="matrix(0.7071 -0.7071 0.7071 0.7071 -75.0768 382.6127)" width="14.17" height="1.24"/>
				</g>
				<g>
					<rect x="434.69" y="275.82" transform="matrix(0.7071 -0.7071 0.7071 0.7071 -67.9919 390.3337)" width="4.98" height="2.83"/>
					<rect x="446.72" y="287.85" transform="matrix(0.7071 -0.7071 0.7071 0.7071 -72.9734 402.36)" width="4.98" height="2.83"/>
					
						<rect x="443.89" y="274.85" transform="matrix(0.7071 -0.7071 0.7071 0.7071 -69.1614 396.8982)" width="1.24" height="14.17"/>
					
						<rect x="441.25" y="277.49" transform="matrix(0.7071 -0.7071 0.7071 0.7071 -71.8012 395.8047)" width="1.24" height="14.17"/>
				</g>
				<g>
					<rect x="438.21" y="272.3" transform="matrix(0.7071 -0.7071 0.7071 0.7071 -64.4721 391.7917)" width="4.98" height="2.83"/>
					<rect x="450.24" y="284.33" transform="matrix(0.7071 -0.7071 0.7071 0.7071 -69.4534 403.819)" width="4.98" height="2.83"/>
					
						<rect x="447.41" y="271.33" transform="matrix(0.7071 -0.7071 0.7071 0.7071 -65.6436 398.3472)" width="1.24" height="14.17"/>
					
						<rect x="444.77" y="273.97" transform="matrix(0.7071 -0.7071 0.7071 0.7071 -68.2834 397.2538)" width="1.24" height="14.17"/>
				</g>
				<g>
					<path d="M432.41,261.91l-10.02-10.02l-2-2l1-1l2,2l0,0l-2-2l4-4l2,2l0,0l-2-2l4-4l2,2l0,0l-2-2l4-4l1.02,1.02l1.02-1.02l4,4
						l-2,2l0,0l2-2l4,4l-2,2l0,0l2-2l4,4l-2,2l0,0l2-2l1,1l-14.03,14.03L432.41,261.91z M434.42,243.9l2.02-2.02l-2-2l-0.02,0.02
						l-0.02-0.02l-2,2L434.42,243.9l0,2L434.42,243.9z M444.44,249.89l-2-2l-8.02,8.02l0-4l6.02-6.02l-2-2l-4.02,4.02l-4.02-4.02
						l-2,2l6.02,6.02v4l-8.02-8.02l-2,2l10.02,10.02l0,0l0,0L444.44,249.89z M435.42,260.91L435.42,260.91l-1,1l-1-1l0,0l1,1
						L435.42,260.91z"/>
					<rect x="433.7" y="236.16" transform="matrix(0.7071 -0.7071 0.7071 0.7071 -40.2599 376.5629)" width="1.44" height="1.44"/>
				</g>
				<g>
					<path d="M425.37,272.96l-10.02,10.02l-2,2l-1-1l2-2l0,0l-2,2l-4-4l2-2l0,0l-2,2l-4-4l2-2l0,0l-2,2l-4-4l1.02-1.02l-1.02-1.02
						l4-4l2,2l0,0l-2-2l4-4l2,2l0,0l-2-2l4-4l2,2l0,0l-2-2l1-1l14.03,14.03L425.37,272.96z M407.36,270.96l-2.02-2.02l-2,2
						l0.02,0.02l-0.02,0.02l2,2L407.36,270.96l2,0L407.36,270.96z M413.35,260.93l-2,2l8.02,8.02l-4,0l-6.02-6.02l-2,2l4.02,4.02
						l-4.02,4.02l2,2l6.02-6.02h4l-8.02,8.02l2,2l10.02-10.02l0,0l0,0L413.35,260.93z M424.37,269.96L424.37,269.96l1,1l-1,1l0,0
						l1-1L424.37,269.96z"/>
					<rect x="399.62" y="270.24" transform="matrix(0.7071 -0.7071 0.7071 0.7071 -74.34 362.4433)" width="1.44" height="1.44"/>
				</g>
				<g>
					<path d="M436.42,280l10.02,10.02l2,2l-1,1l-2-2l0,0l2,2l-4,4l-2-2l0,0l2,2l-4,4l-2-2l0,0l2,2l-4,4l-1.02-1.02l-1.02,1.02l-4-4
						l2-2l0,0l-2,2l-4-4l2-2l0,0l-2,2l-4-4l2-2l0,0l-2,2l-1-1L434.42,278L436.42,280z M434.42,298.01l-2.02,2.02l2,2l0.02-0.02
						l0.02,0.02l2-2L434.42,298.01l0-2L434.42,298.01z M424.39,292.03l2,2l8.02-8.02l0,4l-6.02,6.02l2,2l4.02-4.02l4.02,4.02l2-2
						l-6.02-6.02v-4l8.02,8.02l2-2L434.42,282l0,0l0,0L424.39,292.03z M433.41,281L433.41,281l1-1l1,1l0,0l-1-1L433.41,281z"/>
					<rect x="433.7" y="304.32" transform="matrix(0.7071 -0.7071 0.7071 0.7071 -88.4564 396.5204)" width="1.44" height="1.44"/>
				</g>
				<g>
					<path d="M443.46,268.96l10.02-10.02l2-2l1,1l-2,2l0,0l2-2l4,4l-2,2l0,0l2-2l4,4l-2,2l0,0l2-2l4,4l-1.02,1.02l1.02,1.02l-4,4
						l-2-2l0,0l2,2l-4,4l-2-2l0,0l2,2l-4,4l-2-2l0,0l2,2l-1,1l-14.03-14.03L443.46,268.96z M461.47,270.96l2.02,2.02l2-2l-0.02-0.02
						l0.02-0.02l-2-2L461.47,270.96l-2,0L461.47,270.96z M455.48,280.98l2-2l-8.02-8.02l4,0l6.02,6.02l2-2l-4.02-4.02l4.02-4.02
						l-2-2l-6.02,6.02h-4l8.02-8.02l-2-2l-10.02,10.02l0,0l0,0L455.48,280.98z M444.46,271.96L444.46,271.96l-1-1l1-1l0,0l-1,1
						L444.46,271.96z"/>
					<rect x="467.77" y="270.24" transform="matrix(0.7071 -0.7071 0.7071 0.7071 -54.3759 410.6423)" width="1.44" height="1.44"/>
				</g>
			</g>
			
				<rect x="400.81" y="237.35" transform="matrix(0.7071 -0.7071 0.7071 0.7071 -64.3585 386.5409)" style="fill:none;stroke:#000000;stroke-width:3;stroke-miterlimit:10;" width="67.21" height="67.21"/>
		</g>
	</g>
</g>
<g>
</g>
<g>
</g>
<g>
</g>
<g>
</g>
<g>
</g>
<g>
</g>
<g>
</g>
<g>
</g>
<g>
</g>
<g>
</g>
<g>
</g>
<g>
</g>
<g>
</g>
<g>
</g>
<g>
</g>
</svg>
