<?xml version="1.0" encoding="utf-8"?>
<!-- Generator: Adobe Illustrator 27.2.0, SVG Export Plug-In . SVG Version: 6.00 Build 0)  -->
<svg version="1.1" id="Layer_1" xmlns="http://www.w3.org/2000/svg" xmlns:xlink="http://www.w3.org/1999/xlink" x="0px" y="0px"
	 viewBox="0 0 800 600" style="enable-background:new 0 0 800 600;" xml:space="preserve">
<g>
	<g>
		<g>
			<g>
				<polygon points="192.66,468.69 192.66,471.1 192.66,473.51 195.07,473.51 195.07,471.1 195.07,468.69 197.48,468.69 
					199.89,468.69 199.89,466.28 197.48,466.28 195.07,466.28 195.07,463.87 195.07,461.46 192.66,461.46 192.66,463.87 
					192.66,466.28 190.25,466.28 187.84,466.28 187.84,468.69 190.25,468.69 				"/>
				<polygon points="208.21,454.15 208.21,456.55 208.21,458.96 209.41,458.96 209.41,446.92 208.21,446.92 208.21,449.33 
					208.21,451.74 205.8,451.74 203.39,451.74 203.39,454.15 205.8,454.15 				"/>
				<polygon points="208.21,479.42 208.21,481.83 205.8,481.83 203.39,481.83 203.39,484.24 205.8,484.24 208.21,484.24 
					208.21,486.65 208.21,489.06 209.41,489.06 209.41,477.01 208.21,477.01 				"/>
				<polygon points="195.69,474.13 195.69,476.54 198.1,476.54 200.51,476.54 200.51,478.95 200.51,481.36 202.92,481.36 
					202.92,478.95 202.92,476.54 205.33,476.54 207.74,476.54 207.74,474.13 205.33,474.13 202.92,474.13 202.92,471.72 
					202.92,469.31 200.51,469.31 200.51,471.72 200.51,474.13 198.1,474.13 				"/>
				<polygon points="208.21,468.8 208.21,471.21 208.21,473.62 209.41,473.62 209.41,461.57 208.21,461.57 208.21,463.98 
					208.21,466.39 205.8,466.39 203.39,466.39 203.39,468.8 205.8,468.8 				"/>
				<polygon points="203.39,498.85 205.8,498.85 208.21,498.85 208.21,501.26 208.21,503.67 209.41,503.67 209.41,491.63 
					208.21,491.63 208.21,494.04 208.21,496.44 205.8,496.44 203.39,496.44 				"/>
				<polygon points="208.21,534.56 209.41,534.56 209.41,522.51 208.21,522.51 208.21,524.92 208.21,527.33 205.8,527.33 
					203.39,527.33 203.39,529.74 205.8,529.74 208.21,529.74 208.21,532.15 				"/>
				<polygon points="200.38,526.73 202.79,526.73 202.79,524.32 202.79,521.91 205.2,521.91 207.61,521.91 207.61,519.5 
					205.2,519.5 202.79,519.5 202.79,517.09 202.79,514.68 200.38,514.68 200.38,517.09 200.38,519.5 197.97,519.5 195.56,519.5 
					195.56,521.91 197.97,521.91 200.38,521.91 200.38,524.32 				"/>
				<polygon points="202.72,499.17 200.31,499.17 200.31,501.58 200.31,503.99 197.91,503.99 195.5,503.99 195.5,506.4 
					197.91,506.4 200.31,506.4 200.31,508.81 200.31,511.22 202.72,511.22 202.72,508.81 202.72,506.4 205.13,506.4 207.54,506.4 
					207.54,503.99 205.13,503.99 202.72,503.99 202.72,501.58 				"/>
				<polygon points="208.21,519.11 209.41,519.11 209.41,507.07 208.21,507.07 208.21,509.48 208.21,511.89 205.8,511.89 
					203.39,511.89 203.39,514.3 205.8,514.3 208.21,514.3 208.21,516.71 				"/>
				<polygon points="192.55,518.9 194.96,518.9 194.96,516.49 194.96,514.08 197.37,514.08 199.78,514.08 199.78,511.67 
					197.37,511.67 194.96,511.67 194.96,509.26 194.96,506.85 192.55,506.85 192.55,509.26 192.55,511.67 190.14,511.67 
					187.73,511.67 187.73,514.08 190.14,514.08 192.55,514.08 192.55,516.49 				"/>
				<polygon points="168.48,498.22 168.48,495.81 166.07,495.81 163.66,495.81 163.66,493.4 163.66,491 161.25,491 161.25,493.4 
					161.25,495.81 158.84,495.81 156.43,495.81 156.43,498.22 158.84,498.22 161.25,498.22 161.25,500.63 161.25,503.04 
					163.66,503.04 163.66,500.63 163.66,498.22 166.07,498.22 				"/>
				<polygon points="192.03,521.78 192.03,519.37 189.63,519.37 187.22,519.37 187.22,516.96 187.22,514.55 184.81,514.55 
					184.81,516.96 184.81,519.37 182.4,519.37 179.99,519.37 179.99,521.78 182.4,521.78 184.81,521.78 184.81,524.19 184.81,526.6 
					187.22,526.6 187.22,524.19 187.22,521.78 189.63,521.78 				"/>
				<polygon points="199.89,529.63 199.89,527.22 197.48,527.22 195.07,527.22 195.07,524.81 195.07,522.4 192.66,522.4 
					192.66,524.81 192.66,527.22 190.25,527.22 187.84,527.22 187.84,529.63 190.25,529.63 192.66,529.63 192.66,532.04 
					192.66,534.45 195.07,534.45 195.07,532.04 195.07,529.63 197.48,529.63 				"/>
				<polygon points="184.18,513.93 184.18,511.52 181.77,511.52 179.36,511.52 179.36,509.11 179.36,506.7 176.96,506.7 
					176.96,509.11 176.96,511.52 174.55,511.52 172.14,511.52 172.14,513.93 174.55,513.93 176.96,513.93 176.96,516.34 
					176.96,518.75 179.36,518.75 179.36,516.34 179.36,513.93 181.77,513.93 				"/>
				<polygon points="207.74,537.48 207.74,535.07 205.33,535.07 202.92,535.07 202.92,532.66 202.92,530.25 200.51,530.25 
					200.51,532.66 200.51,535.07 198.1,535.07 195.69,535.07 195.69,537.48 198.1,537.48 200.51,537.48 200.51,539.89 200.51,542.3 
					202.92,542.3 202.92,539.89 202.92,537.48 205.33,537.48 				"/>
				<polygon points="192.42,498.51 192.42,500.91 192.42,503.32 194.83,503.32 194.83,500.91 194.83,498.51 197.24,498.51 
					199.65,498.51 199.65,496.1 197.24,496.1 194.83,496.1 194.83,493.69 194.83,491.28 192.42,491.28 192.42,493.69 192.42,496.1 
					190.01,496.1 187.6,496.1 187.6,498.51 190.01,498.51 				"/>
				<polygon points="208.21,550 209.41,550 209.41,537.95 208.21,537.95 208.21,540.36 208.21,542.77 205.8,542.77 203.39,542.77 
					203.39,545.18 205.8,545.18 208.21,545.18 208.21,547.59 				"/>
				<polygon points="176.89,483.04 176.89,485.45 176.89,487.86 179.3,487.86 179.3,485.45 179.3,483.04 181.71,483.04 
					184.12,483.04 184.12,480.63 181.71,480.63 179.3,480.63 179.3,478.22 179.3,475.81 176.89,475.81 176.89,478.22 176.89,480.63 
					174.48,480.63 172.07,480.63 172.07,483.04 174.48,483.04 				"/>
				<polygon points="179.9,503.84 179.9,506.25 182.31,506.25 184.72,506.25 184.72,508.66 184.72,511.07 187.13,511.07 
					187.13,508.66 187.13,506.25 189.54,506.25 191.95,506.25 191.95,503.84 189.54,503.84 187.13,503.84 187.13,501.43 
					187.13,499.02 184.72,499.02 184.72,501.43 184.72,503.84 182.31,503.84 				"/>
				<polygon points="176.89,498.42 176.89,500.83 176.89,503.24 179.3,503.24 179.3,500.83 179.3,498.42 181.71,498.42 
					184.12,498.42 184.12,496.01 181.71,496.01 179.3,496.01 179.3,493.6 179.3,491.19 176.89,491.19 176.89,493.6 176.89,496.01 
					174.48,496.01 172.07,496.01 172.07,498.42 174.48,498.42 				"/>
				<polygon points="176.33,506.08 176.33,503.67 173.92,503.67 171.51,503.67 171.51,501.26 171.51,498.85 169.1,498.85 
					169.1,501.26 169.1,503.67 166.69,503.67 164.29,503.67 164.29,506.08 166.69,506.08 169.1,506.08 169.1,508.48 169.1,510.89 
					171.51,510.89 171.51,508.48 171.51,506.08 173.92,506.08 				"/>
			</g>
			<g>
				<polygon points="94.94,550 97.33,550 118.03,525.41 138.74,550 141.12,550 118.03,522.59 				"/>
				<polygon points="126.66,538.41 124.74,538.41 124.74,542.97 118.99,542.97 118.99,536.14 122.83,536.14 122.83,533.86 
					118.99,533.86 118.99,529.31 117.07,529.31 117.07,533.86 113.24,533.86 113.24,536.14 117.07,536.14 117.07,542.97 
					111.32,542.97 111.32,538.41 109.4,538.41 109.4,542.97 105.57,542.97 105.57,545.24 109.4,545.24 109.4,549.8 111.32,549.8 
					111.32,545.24 117.07,545.24 117.07,550 118.99,550 118.99,545.24 124.74,545.24 124.74,549.8 126.66,549.8 126.66,545.24 
					130.49,545.24 130.49,542.97 126.66,542.97 				"/>
				<path d="M181.01,549.27v-4.16l-6.54,4.04l-0.19-0.23l2.7-8.19l-6.9,3.21l-0.46-0.55l2.7-8.19l-6.9,3.21l-0.46-0.55l2.7-8.19
					l-6.9,3.21l-0.46-0.55l2.7-8.19l-6.9,3.21l-0.46-0.55l2.7-8.19l-6.9,3.21l-0.46-0.55l2.7-8.19l-6.9,3.21l-0.46-0.55l2.7-8.19
					l-6.9,3.21l-0.46-0.55l2.7-8.19l-6.9,3.21l-0.46-0.55l2.7-8.19l-6.9,3.21l-0.46-0.55l2.7-8.19l-6.9,3.21l-0.46-0.55l2.7-8.19
					l-6.9,3.21l-0.46-0.55l2.7-8.19l-6.9,3.21l-0.09-0.11l3.41-7.77h-3.5l2.26-5.99h-5.76l2.26,5.99h-3.5l3.41,7.77l-0.19,0.23
					l-6.9-3.21l2.7,8.19l-0.46,0.55l-6.9-3.21l2.7,8.19l-0.46,0.55l-6.9-3.21l2.7,8.19l-0.46,0.55l-6.9-3.21l2.7,8.19l-0.46,0.55
					l-6.9-3.21l2.7,8.19l-0.46,0.55l-6.9-3.21l2.7,8.19l-0.46,0.55l-6.9-3.21l2.7,8.19l-0.46,0.55l-6.9-3.21l2.7,8.19l-0.46,0.55
					l-6.9-3.21l2.7,8.19L75.2,533l-6.9-3.21l2.7,8.19l-0.46,0.55l-6.9-3.21l2.7,8.19l-0.46,0.55l-6.9-3.21l2.7,8.19l-0.09,0.11
					l-6.54-4.04v4.16L50,546.58V550h13.26l3.4-4.04l3.4,4.04l0,0h2.76h0l-4.78-5.67l3.28-3.9l8.06,9.57l0,0h2.76h0l-9.44-11.21
					l3.28-3.9l12.17,14.45L87.6,550h2.38l28.05-33.31L146.08,550h2.38l-0.55-0.65l12.17-14.45l3.28,3.9L153.93,550h2.76l8.06-9.57
					l3.28,3.9l-4.78,5.67H166l3.4-4.04l3.4,4.04h13.26v-3.42L181.01,549.27z M118.03,484.96l3.4,4.04l-3.4,4.04l-3.4-4.04
					L118.03,484.96z M113.25,490.64l4.78,5.67v0l4.78-5.68l3.28,3.9l-8.06,9.57l-8.06-9.57L113.25,490.64z M89.53,547.71
					l-12.17-14.45l3.28-3.9l12.17,14.45L89.53,547.71z M94.19,542.18l-12.17-14.45l3.28-3.9l12.17,14.45L94.19,542.18z
					 M98.84,536.65L86.68,522.2l3.28-3.9l12.17,14.45L98.84,536.65z M103.5,531.11l-12.17-14.45l3.28-3.9l12.17,14.45L103.5,531.11z
					 M108.16,525.58l-12.17-14.45l3.28-3.9l12.17,14.45L108.16,525.58z M112.82,520.05l-12.17-14.45l3.28-3.9l12.17,14.45
					L112.82,520.05z M118.03,513.86l-0.55,0.65l-12.17-14.45l3.28-3.9l9.44,11.21v0l9.44-11.21l3.28,3.9l-12.17,14.45L118.03,513.86
					z M119.96,516.15l12.17-14.45l3.28,3.9l-12.17,14.45L119.96,516.15z M124.62,521.69l12.17-14.45l3.28,3.9l-12.17,14.45
					L124.62,521.69z M129.28,527.22l12.17-14.45l3.28,3.9l-12.17,14.45L129.28,527.22z M133.94,532.75l12.17-14.45l3.28,3.9
					l-12.17,14.45L133.94,532.75z M138.6,538.28l12.17-14.45l3.28,3.9l-12.17,14.45L138.6,538.28z M146.54,547.71l-3.28-3.9
					l12.17-14.45l3.28,3.9L146.54,547.71z"/>
			</g>
		</g>
		<g>
			<g>
				<polygon points="226.17,468.69 226.17,471.1 226.17,473.51 223.76,473.51 223.76,471.1 223.76,468.69 221.35,468.69 
					218.94,468.69 218.94,466.28 221.35,466.28 223.76,466.28 223.76,463.87 223.76,461.46 226.17,461.46 226.17,463.87 
					226.17,466.28 228.58,466.28 230.99,466.28 230.99,468.69 228.58,468.69 				"/>
				<polygon points="210.62,454.15 210.62,456.55 210.62,458.96 209.41,458.96 209.41,446.92 210.62,446.92 210.62,449.33 
					210.62,451.74 213.03,451.74 215.44,451.74 215.44,454.15 213.03,454.15 				"/>
				<polygon points="210.62,479.42 210.62,481.83 213.03,481.83 215.44,481.83 215.44,484.24 213.03,484.24 210.62,484.24 
					210.62,486.65 210.62,489.06 209.41,489.06 209.41,477.01 210.62,477.01 				"/>
				<polygon points="223.14,474.13 223.14,476.54 220.73,476.54 218.32,476.54 218.32,478.95 218.32,481.36 215.91,481.36 
					215.91,478.95 215.91,476.54 213.5,476.54 211.09,476.54 211.09,474.13 213.5,474.13 215.91,474.13 215.91,471.72 
					215.91,469.31 218.32,469.31 218.32,471.72 218.32,474.13 220.73,474.13 				"/>
				<polygon points="210.62,468.8 210.62,471.21 210.62,473.62 209.41,473.62 209.41,461.57 210.62,461.57 210.62,463.98 
					210.62,466.39 213.03,466.39 215.44,466.39 215.44,468.8 213.03,468.8 				"/>
				<polygon points="215.44,498.85 213.03,498.85 210.62,498.85 210.62,501.26 210.62,503.67 209.41,503.67 209.41,491.63 
					210.62,491.63 210.62,494.04 210.62,496.44 213.03,496.44 215.44,496.44 				"/>
				<polygon points="210.62,534.56 209.41,534.56 209.41,522.51 210.62,522.51 210.62,524.92 210.62,527.33 213.03,527.33 
					215.44,527.33 215.44,529.74 213.03,529.74 210.62,529.74 210.62,532.15 				"/>
				<polygon points="218.45,526.73 216.04,526.73 216.04,524.32 216.04,521.91 213.63,521.91 211.22,521.91 211.22,519.5 
					213.63,519.5 216.04,519.5 216.04,517.09 216.04,514.68 218.45,514.68 218.45,517.09 218.45,519.5 220.86,519.5 223.27,519.5 
					223.27,521.91 220.86,521.91 218.45,521.91 218.45,524.32 				"/>
				<polygon points="216.11,499.17 218.51,499.17 218.51,501.58 218.51,503.99 220.92,503.99 223.33,503.99 223.33,506.4 
					220.92,506.4 218.51,506.4 218.51,508.81 218.51,511.22 216.11,511.22 216.11,508.81 216.11,506.4 213.7,506.4 211.29,506.4 
					211.29,503.99 213.7,503.99 216.11,503.99 216.11,501.58 				"/>
				<polygon points="210.62,519.11 209.41,519.11 209.41,507.07 210.62,507.07 210.62,509.48 210.62,511.89 213.03,511.89 
					215.44,511.89 215.44,514.3 213.03,514.3 210.62,514.3 210.62,516.71 				"/>
				<polygon points="226.28,518.9 223.87,518.9 223.87,516.49 223.87,514.08 221.46,514.08 219.05,514.08 219.05,511.67 
					221.46,511.67 223.87,511.67 223.87,509.26 223.87,506.85 226.28,506.85 226.28,509.26 226.28,511.67 228.69,511.67 
					231.1,511.67 231.1,514.08 228.69,514.08 226.28,514.08 226.28,516.49 				"/>
				<polygon points="250.35,498.22 250.35,495.81 252.76,495.81 255.17,495.81 255.17,493.4 255.17,491 257.58,491 257.58,493.4 
					257.58,495.81 259.99,495.81 262.4,495.81 262.4,498.22 259.99,498.22 257.58,498.22 257.58,500.63 257.58,503.04 
					255.17,503.04 255.17,500.63 255.17,498.22 252.76,498.22 				"/>
				<polygon points="226.79,521.78 226.79,519.37 229.2,519.37 231.61,519.37 231.61,516.96 231.61,514.55 234.02,514.55 
					234.02,516.96 234.02,519.37 236.43,519.37 238.84,519.37 238.84,521.78 236.43,521.78 234.02,521.78 234.02,524.19 
					234.02,526.6 231.61,526.6 231.61,524.19 231.61,521.78 229.2,521.78 				"/>
				<polygon points="218.94,529.63 218.94,527.22 221.35,527.22 223.76,527.22 223.76,524.81 223.76,522.4 226.17,522.4 
					226.17,524.81 226.17,527.22 228.58,527.22 230.99,527.22 230.99,529.63 228.58,529.63 226.17,529.63 226.17,532.04 
					226.17,534.45 223.76,534.45 223.76,532.04 223.76,529.63 221.35,529.63 				"/>
				<polygon points="234.65,513.93 234.65,511.52 237.06,511.52 239.46,511.52 239.46,509.11 239.46,506.7 241.87,506.7 
					241.87,509.11 241.87,511.52 244.28,511.52 246.69,511.52 246.69,513.93 244.28,513.93 241.87,513.93 241.87,516.34 
					241.87,518.75 239.46,518.75 239.46,516.34 239.46,513.93 237.06,513.93 				"/>
				<polygon points="211.09,537.48 211.09,535.07 213.5,535.07 215.91,535.07 215.91,532.66 215.91,530.25 218.32,530.25 
					218.32,532.66 218.32,535.07 220.73,535.07 223.14,535.07 223.14,537.48 220.73,537.48 218.32,537.48 218.32,539.89 
					218.32,542.3 215.91,542.3 215.91,539.89 215.91,537.48 213.5,537.48 				"/>
				<polygon points="226.41,498.51 226.41,500.91 226.41,503.32 224,503.32 224,500.91 224,498.51 221.59,498.51 219.18,498.51 
					219.18,496.1 221.59,496.1 224,496.1 224,493.69 224,491.28 226.41,491.28 226.41,493.69 226.41,496.1 228.82,496.1 
					231.23,496.1 231.23,498.51 228.82,498.51 				"/>
				<polygon points="210.62,550 209.41,550 209.41,537.95 210.62,537.95 210.62,540.36 210.62,542.77 213.03,542.77 215.44,542.77 
					215.44,545.18 213.03,545.18 210.62,545.18 210.62,547.59 				"/>
				<polygon points="241.94,483.04 241.94,485.45 241.94,487.86 239.53,487.86 239.53,485.45 239.53,483.04 237.12,483.04 
					234.71,483.04 234.71,480.63 237.12,480.63 239.53,480.63 239.53,478.22 239.53,475.81 241.94,475.81 241.94,478.22 
					241.94,480.63 244.35,480.63 246.76,480.63 246.76,483.04 244.35,483.04 				"/>
				<polygon points="238.93,503.84 238.93,506.25 236.52,506.25 234.11,506.25 234.11,508.66 234.11,511.07 231.7,511.07 
					231.7,508.66 231.7,506.25 229.29,506.25 226.88,506.25 226.88,503.84 229.29,503.84 231.7,503.84 231.7,501.43 231.7,499.02 
					234.11,499.02 234.11,501.43 234.11,503.84 236.52,503.84 				"/>
				<polygon points="241.94,498.42 241.94,500.83 241.94,503.24 239.53,503.24 239.53,500.83 239.53,498.42 237.12,498.42 
					234.71,498.42 234.71,496.01 237.12,496.01 239.53,496.01 239.53,493.6 239.53,491.19 241.94,491.19 241.94,493.6 
					241.94,496.01 244.35,496.01 246.76,496.01 246.76,498.42 244.35,498.42 				"/>
				<polygon points="242.5,506.08 242.5,503.67 244.91,503.67 247.32,503.67 247.32,501.26 247.32,498.85 249.73,498.85 
					249.73,501.26 249.73,503.67 252.13,503.67 254.54,503.67 254.54,506.08 252.13,506.08 249.73,506.08 249.73,508.48 
					249.73,510.89 247.32,510.89 247.32,508.48 247.32,506.08 244.91,506.08 				"/>
			</g>
			<g>
				<polygon points="323.88,550 321.5,550 300.8,525.41 280.09,550 277.71,550 300.8,522.59 				"/>
				<polygon points="292.17,538.41 294.09,538.41 294.09,542.97 299.84,542.97 299.84,536.14 296,536.14 296,533.86 299.84,533.86 
					299.84,529.31 301.76,529.31 301.76,533.86 305.59,533.86 305.59,536.14 301.76,536.14 301.76,542.97 307.51,542.97 
					307.51,538.41 309.43,538.41 309.43,542.97 313.26,542.97 313.26,545.24 309.43,545.24 309.43,549.8 307.51,549.8 
					307.51,545.24 301.76,545.24 301.76,550 299.84,550 299.84,545.24 294.09,545.24 294.09,549.8 292.17,549.8 292.17,545.24 
					288.34,545.24 288.34,542.97 292.17,542.97 				"/>
				<path d="M232.77,546.58V550h13.26l3.4-4.04l3.4,4.04h2.76l-4.78-5.67l3.28-3.9l8.06,9.57h2.76l-9.44-11.21l3.28-3.9l12.17,14.45
					l-0.55,0.65h2.38l28.05-33.31L328.85,550h2.38l-0.55-0.65l12.17-14.45l3.28,3.9L336.69,550h0h2.76l0,0l8.06-9.57l3.28,3.9
					l-4.78,5.67h0h2.76l0,0l3.4-4.04l3.4,4.04h13.26v-3.42l-5.05,2.68v-4.16l-6.54,4.04l-0.09-0.11l2.7-8.19l-6.9,3.21l-0.46-0.55
					l2.7-8.19l-6.9,3.21l-0.46-0.55l2.7-8.19l-6.9,3.21l-0.46-0.55l2.7-8.19l-6.9,3.21l-0.46-0.55l2.7-8.19l-6.9,3.21l-0.46-0.55
					l2.7-8.19l-6.9,3.21l-0.46-0.55l2.7-8.19l-6.9,3.21l-0.46-0.55l2.7-8.19l-6.9,3.21l-0.46-0.55l2.7-8.19l-6.9,3.21l-0.46-0.55
					l2.7-8.19l-6.9,3.21l-0.46-0.55l2.7-8.19l-6.9,3.21l-0.46-0.55l2.7-8.19l-6.9,3.21l-0.19-0.23l3.41-7.77h-3.5l2.26-5.99h-5.76
					l2.26,5.99h-3.5l3.41,7.77l-0.09,0.11l-6.9-3.21l2.7,8.19l-0.46,0.55l-6.9-3.21l2.7,8.19l-0.46,0.55l-6.9-3.21l2.7,8.19
					l-0.46,0.55l-6.9-3.21l2.7,8.19l-0.46,0.55l-6.9-3.21l2.7,8.19l-0.46,0.55l-6.9-3.21l2.7,8.19l-0.46,0.55l-6.9-3.21l2.7,8.19
					l-0.46,0.55l-6.9-3.21l2.7,8.19l-0.46,0.55l-6.9-3.21l2.7,8.19l-0.46,0.55l-6.9-3.21l2.7,8.19l-0.46,0.55l-6.9-3.21l2.7,8.19
					l-0.46,0.55l-6.9-3.21l2.7,8.19l-0.19,0.23l-6.54-4.04v4.16L232.77,546.58z M304.2,489l-3.4,4.04l-3.4-4.04l3.4-4.04L304.2,489z
					 M308.86,494.53l-8.06,9.57l-8.06-9.57l3.28-3.9l4.78,5.68v0l4.78-5.67L308.86,494.53z M326.02,543.81l12.17-14.45l3.28,3.9
					l-12.17,14.45L326.02,543.81z M321.36,538.28l12.17-14.45l3.28,3.9l-12.17,14.45L321.36,538.28z M316.7,532.75l12.17-14.45
					l3.28,3.9l-12.17,14.45L316.7,532.75z M312.04,527.22l12.17-14.45l3.28,3.9l-12.17,14.45L312.04,527.22z M307.39,521.69
					l12.17-14.45l3.28,3.9l-12.17,14.45L307.39,521.69z M302.73,516.15l12.17-14.45l3.28,3.9l-12.17,14.45L302.73,516.15z
					 M300.25,514.52l-12.17-14.45l3.28-3.9l9.44,11.21v0l9.44-11.21l3.28,3.9l-12.17,14.45l-0.55-0.65L300.25,514.52z
					 M295.59,520.05l-12.17-14.45l3.28-3.9l12.17,14.45L295.59,520.05z M290.93,525.58l-12.17-14.45l3.28-3.9l12.17,14.45
					L290.93,525.58z M286.27,531.11l-12.17-14.45l3.28-3.9l12.17,14.45L286.27,531.11z M281.61,536.65l-12.17-14.45l3.28-3.9
					l12.17,14.45L281.61,536.65z M276.95,542.18l-12.17-14.45l3.28-3.9l12.17,14.45L276.95,542.18z M260.12,533.26l3.28-3.9
					l12.17,14.45l-3.28,3.9L260.12,533.26z"/>
			</g>
		</g>
	</g>
</g>
<g>
</g>
<g>
</g>
<g>
</g>
<g>
</g>
<g>
</g>
<g>
</g>
<g>
</g>
<g>
</g>
<g>
</g>
<g>
</g>
<g>
</g>
<g>
</g>
<g>
</g>
<g>
</g>
<g>
</g>
</svg>
