<?xml version="1.0" encoding="utf-8"?>
<!-- Generator: Adobe Illustrator 27.2.0, SVG Export Plug-In . SVG Version: 6.00 Build 0)  -->
<svg version="1.1" id="Layer_1" xmlns="http://www.w3.org/2000/svg" xmlns:xlink="http://www.w3.org/1999/xlink" x="0px" y="0px"
	 viewBox="0 0 800 600" style="enable-background:new 0 0 800 600;" xml:space="preserve">
<g>
	<path d="M198.72,462.3c-4.64,0-8.77,2.22-11.38,5.65h-13.09l5.43-5.43c4.27,0.58,8.75-0.77,12.04-4.05
		c3.74-3.74,4.97-9.04,3.7-13.81c-4.77-1.27-10.07-0.04-13.81,3.7c-3.28,3.28-4.63,7.77-4.05,12.04l-6.93,6.93l-4.8-4.8l8.36-8.36
		l-2.12-2.12l-8.36,8.36l-4.07-4.07l6.93-6.93c4.27,0.58,8.75-0.77,12.04-4.05c3.74-3.74,4.97-9.04,3.7-13.81
		c-4.77-1.27-10.07-0.04-13.81,3.7c-3.28,3.28-4.63,7.77-4.05,12.04l-6.93,6.93l-4.8-4.8l8.36-8.36l-2.12-2.12l-8.36,8.36l-4.8-4.8
		l6.93-6.93c4.27,0.58,8.75-0.77,12.04-4.05c3.74-3.74,4.97-9.04,3.7-13.81c-4.77-1.27-10.07-0.04-13.81,3.7
		c-3.28,3.28-4.63,7.77-4.05,12.04l-6.93,6.93l-4.07-4.07l8.36-8.36l-2.12-2.12l-8.36,8.36l-4.8-4.8l6.93-6.93
		c4.27,0.58,8.75-0.77,12.04-4.05c3.74-3.74,4.97-9.04,3.7-13.81c-4.77-1.27-10.07-0.04-13.81,3.7c-3.28,3.28-4.63,7.77-4.05,12.04
		l-5.43,5.43v-13.09c3.43-2.61,5.65-6.73,5.65-11.38c0-5.29-2.88-9.91-7.15-12.38c-4.27,2.47-7.15,7.09-7.15,12.38
		c0,4.64,2.22,8.77,5.65,11.38v13.09l-5.43-5.43c0.58-4.27-0.77-8.75-4.05-12.04c-3.74-3.74-9.04-4.97-13.81-3.7
		c-1.27,4.77-0.04,10.07,3.7,13.81c3.28,3.28,7.77,4.63,12.04,4.05l6.93,6.93l-4.8,4.8l-8.36-8.36l-2.12,2.12l8.36,8.36l-4.07,4.07
		l-6.93-6.93c0.58-4.27-0.77-8.75-4.05-12.04c-3.74-3.74-9.04-4.97-13.81-3.7c-1.27,4.77-0.04,10.07,3.7,13.81
		c3.28,3.28,7.77,4.63,12.04,4.05l6.93,6.93l-4.8,4.8l-8.36-8.36l-2.12,2.12l8.36,8.36l-4.8,4.8l-6.93-6.93
		c0.58-4.27-0.77-8.75-4.05-12.04c-3.74-3.74-9.04-4.97-13.81-3.7c-1.27,4.77-0.04,10.07,3.7,13.81c3.28,3.28,7.77,4.63,12.04,4.05
		l6.93,6.93l-4.07,4.07l-8.36-8.36l-2.12,2.12l8.36,8.36l-4.8,4.8l-6.93-6.93c0.58-4.27-0.77-8.75-4.05-12.04
		c-3.74-3.74-9.04-4.97-13.81-3.7c-1.27,4.77-0.04,10.07,3.7,13.81c3.28,3.28,7.77,4.63,12.04,4.05l5.43,5.43H73.75
		c-2.61-3.43-6.73-5.65-11.38-5.65c-5.29,0-9.91,2.88-12.38,7.15c2.47,4.27,7.09,7.15,12.38,7.15c4.64,0,8.77-2.22,11.38-5.65h13.09
		l-5.43,5.43c-4.27-0.58-8.75,0.77-12.04,4.05c-3.74,3.74-4.97,9.04-3.7,13.81c4.77,1.27,10.07,0.04,13.81-3.7
		c3.28-3.28,4.63-7.77,4.05-12.04l6.93-6.93l4.8,4.8l-8.36,8.36l2.12,2.12l8.36-8.36l4.07,4.07l-6.93,6.93
		c-4.27-0.58-8.75,0.77-12.04,4.05c-3.74,3.74-4.97,9.04-3.7,13.81c4.77,1.27,10.07,0.04,13.81-3.7c3.28-3.28,4.63-7.77,4.05-12.04
		l6.93-6.93l4.8,4.8l-8.36,8.36l2.12,2.12l8.36-8.36l4.8,4.8l-6.93,6.93c-4.27-0.58-8.75,0.77-12.04,4.05
		c-3.74,3.74-4.97,9.04-3.7,13.81c4.77,1.27,10.07,0.04,13.81-3.7c3.28-3.28,4.63-7.77,4.05-12.04l6.93-6.93l4.07,4.07l-8.36,8.36
		l2.12,2.12l8.36-8.36l4.8,4.8l-6.93,6.93c-4.27-0.58-8.75,0.77-12.04,4.05c-3.74,3.74-4.97,9.04-3.7,13.81
		c4.77,1.27,10.07,0.04,13.81-3.7c3.28-3.28,4.63-7.77,4.05-12.04l5.43-5.43v13.09c-3.43,2.61-5.65,6.73-5.65,11.38
		c0,5.29,2.88,9.91,7.15,12.38c4.27-2.47,7.15-7.09,7.15-12.38c0-4.64-2.22-8.77-5.65-11.38v-13.09l5.43,5.43
		c-0.58,4.27,0.77,8.75,4.05,12.04c3.74,3.74,9.04,4.97,13.81,3.7c1.27-4.77,0.04-10.07-3.7-13.81c-3.28-3.28-7.77-4.63-12.04-4.05
		l-6.93-6.93l4.8-4.8l8.36,8.36l2.12-2.12l-8.36-8.36l4.07-4.07l6.93,6.93c-0.58,4.27,0.77,8.75,4.05,12.04
		c3.74,3.74,9.04,4.97,13.81,3.7c1.27-4.77,0.04-10.07-3.7-13.81c-3.28-3.28-7.77-4.63-12.04-4.05l-6.93-6.93l4.8-4.8l8.36,8.36
		l2.12-2.12l-8.36-8.36l4.8-4.8l6.93,6.93c-0.58,4.27,0.77,8.75,4.05,12.04c3.74,3.74,9.04,4.97,13.81,3.7
		c1.27-4.77,0.04-10.07-3.7-13.81c-3.28-3.28-7.77-4.63-12.04-4.05l-6.93-6.93l4.07-4.07l8.36,8.36l2.12-2.12l-8.36-8.36l4.8-4.8
		l6.93,6.93c-0.58,4.27,0.77,8.75,4.05,12.04c3.74,3.74,9.04,4.97,13.81,3.7c1.27-4.77,0.04-10.07-3.7-13.81
		c-3.28-3.28-7.77-4.63-12.04-4.05l-5.43-5.43h13.09c2.61,3.43,6.73,5.65,11.38,5.65c5.29,0,9.91-2.88,12.38-7.15
		C208.63,465.18,204.01,462.3,198.72,462.3z M88.34,469.45L88.34,469.45L88.34,469.45L88.34,469.45z M130.56,427.23L130.56,427.23
		L130.56,427.23L130.56,427.23z M130.55,511.66L130.55,511.66L130.55,511.66L130.55,511.66z M130.55,507.42l-37.97-37.97
		l37.97-37.97l37.97,37.97L130.55,507.42z M172.76,469.45L172.76,469.45L172.76,469.45L172.76,469.45z"/>
	<path d="M97.82,469.45l32.73,32.73l32.73-32.73l-32.73-32.73L97.82,469.45z M130.55,497.94l-28.49-28.49l28.49-28.49l28.49,28.49
		L130.55,497.94z"/>
	<path d="M122.09,460.99c-4.67,4.67-4.67,12.25,0,16.92c4.67,4.67,12.25,4.67,16.92,0c4.67-4.67,4.67-12.25,0-16.92
		S126.76,456.32,122.09,460.99z"/>
</g>
<g>
</g>
<g>
</g>
<g>
</g>
<g>
</g>
<g>
</g>
<g>
</g>
<g>
</g>
<g>
</g>
<g>
</g>
<g>
</g>
<g>
</g>
<g>
</g>
<g>
</g>
<g>
</g>
<g>
</g>
</svg>
