<?xml version="1.0" encoding="utf-8"?>
<!-- Generator: Adobe Illustrator 27.2.0, SVG Export Plug-In . SVG Version: 6.00 Build 0)  -->
<svg version="1.1" id="Layer_1" xmlns="http://www.w3.org/2000/svg" xmlns:xlink="http://www.w3.org/1999/xlink" x="0px" y="0px"
	 viewBox="0 0 800 600" style="enable-background:new 0 0 800 600;" xml:space="preserve">
<g>
	<rect x="173.74" y="539.81" width="3" height="10.19"/>
	<rect x="180.79" y="539.81" width="3" height="10.19"/>
	<rect x="187.84" y="539.81" width="3" height="10.19"/>
	<rect x="194.9" y="539.81" width="3" height="10.19"/>
	<rect x="201.95" y="539.81" width="3" height="10.19"/>
	<rect x="209" y="539.81" width="3" height="10.19"/>
	<rect x="216.05" y="539.81" width="3" height="10.19"/>
	<rect x="223.32" y="539.81" width="3" height="10.19"/>
	<rect x="230.37" y="539.81" width="3" height="10.19"/>
	<rect x="237.42" y="539.81" width="3" height="10.19"/>
	<rect x="244.47" y="539.81" width="3" height="10.19"/>
	<rect x="251.52" y="539.81" width="3" height="10.19"/>
	<rect x="258.58" y="539.81" width="3" height="10.19"/>
	<rect x="265.63" y="539.81" width="3" height="10.19"/>
	<rect x="272.68" y="539.81" width="3" height="10.19"/>
	<rect x="279.73" y="539.81" width="3" height="10.19"/>
	<rect x="286.42" y="539.81" width="3" height="10.19"/>
	<polygon points="239.73,501.51 239.73,499.56 239.73,497.6 237.78,497.6 237.78,499.56 237.78,501.51 235.83,501.51 232.74,501.51 
		232.74,498.43 232.74,496.47 234.7,496.47 236.65,496.47 236.65,494.51 234.7,494.51 232.74,494.51 232.74,492.56 232.74,490.6 
		230.79,490.6 230.79,492.56 230.79,494.51 228.83,494.51 226.88,494.51 226.88,496.47 228.83,496.47 230.79,496.47 230.79,498.43 
		230.79,501.51 229.66,501.51 228.2,501.51 227.7,501.51 225.75,501.51 225.75,499.56 225.75,497.6 223.79,497.6 223.79,499.56 
		223.79,501.51 221.84,501.51 219.88,501.51 219.88,503.47 221.84,503.47 223.79,503.47 223.79,505.43 223.79,507.38 225.75,507.38 
		225.75,505.43 225.75,503.47 227.7,503.47 228.2,503.47 229.66,503.47 230.79,503.47 230.79,504.61 230.79,504.92 230.79,506.56 
		230.79,508.52 228.83,508.52 226.88,508.52 226.88,510.47 228.83,510.47 230.79,510.47 230.79,512.43 230.79,514.38 232.74,514.38 
		232.74,512.43 232.74,510.47 234.7,510.47 236.65,510.47 236.65,508.52 234.7,508.52 232.74,508.52 232.74,506.56 232.74,504.92 
		232.74,504.61 232.74,503.47 235.83,503.47 237.78,503.47 237.78,505.43 237.78,507.38 239.73,507.38 239.73,505.43 239.73,503.47 
		241.69,503.47 243.64,503.47 243.64,501.51 241.69,501.51 	"/>
	<polygon points="230.79,483.97 230.79,485.93 230.79,487.88 232.74,487.88 232.74,485.93 232.74,483.97 234.7,483.97 
		236.65,483.97 236.65,482.02 234.7,482.02 232.74,482.02 232.74,480.06 232.74,478.1 230.79,478.1 230.79,480.06 230.79,482.02 
		228.83,482.02 226.88,482.02 226.88,483.97 228.83,483.97 	"/>
	<polygon points="246.72,494.83 246.72,492.87 246.72,490.92 244.77,490.92 244.77,492.87 244.77,494.83 242.81,494.83 
		240.86,494.83 240.86,496.78 242.81,496.78 244.77,496.78 244.77,498.74 244.77,500.69 246.72,500.69 246.72,498.74 246.72,496.78 
		248.68,496.78 250.63,496.78 250.63,494.83 248.68,494.83 	"/>
	<polygon points="216.8,498.74 216.8,500.69 218.76,500.69 218.76,498.74 218.76,496.78 220.71,496.78 222.67,496.78 222.67,494.83 
		220.71,494.83 218.76,494.83 218.76,492.87 218.76,490.92 216.8,490.92 216.8,492.87 216.8,494.83 214.85,494.83 212.9,494.83 
		212.9,496.78 214.85,496.78 216.8,496.78 	"/>
	<circle cx="231.76" cy="526.54" r="2.83"/>
	<path d="M231.76,515.72c-5.97,0-10.82,4.86-10.82,10.82s4.85,10.82,10.82,10.82s10.82-4.85,10.82-10.82
		S237.73,515.72,231.76,515.72z M231.76,535.37c-4.86,0-8.82-3.96-8.82-8.82c0-4.87,3.96-8.82,8.82-8.82c4.87,0,8.82,3.96,8.82,8.82
		C240.59,531.41,236.63,535.37,231.76,535.37z"/>
	<g>
		<path d="M332.96,468.27c5.16,2.45,9.86-2.25,7.41-7.41c-0.73-1.54-2.06-2.98-3.55-4.05c-5.43-3.94-8.8-4.69-12.32-4.4
			c-0.26,3.95,1.11,7.78,4.2,12.01C329.79,465.9,331.43,467.54,332.96,468.27z"/>
		<polygon points="342.56,411.42 343.54,411.42 344.51,411.42 344.51,407.51 348.42,407.51 348.42,405.55 344.51,405.55 
			344.51,401.64 343.54,401.64 342.56,401.64 342.56,405.55 338.65,405.55 338.65,407.51 342.56,407.51 		"/>
		<polygon points="331.66,426.18 335.57,426.18 335.57,430.09 337.52,430.09 337.52,426.18 342.56,426.18 342.56,431.23 
			338.65,431.23 338.65,433.19 342.56,433.19 342.56,437.1 343.54,437.1 344.51,437.1 344.51,433.19 348.42,433.19 348.42,431.23 
			344.51,431.23 344.51,426.18 349.55,426.18 349.55,430.09 351.51,430.09 351.51,426.18 355.42,426.18 355.42,424.23 
			351.51,424.23 351.51,420.32 349.55,420.32 349.55,424.23 344.51,424.23 344.51,419.18 348.42,419.18 348.42,417.23 
			344.51,417.23 344.51,413.32 343.54,413.32 342.56,413.32 342.56,417.23 338.65,417.23 338.65,419.18 342.56,419.18 
			342.56,424.23 337.52,424.23 337.52,420.32 335.57,420.32 335.57,424.23 331.66,424.23 		"/>
		<polygon points="329.01,423.09 330.96,423.09 330.96,419.18 334.87,419.18 334.87,417.23 330.96,417.23 330.96,413.32 
			329.01,413.32 329.01,417.23 325.1,417.23 325.1,419.18 329.01,419.18 		"/>
		<path d="M343.54,537.34c-0.61,0-1.22,0.23-1.68,0.69c-0.92,0.93-0.92,2.42,0,3.35c0.46,0.46,1.07,0.69,1.68,0.69
			c0.61,0,1.22-0.23,1.68-0.69c0.93-0.92,0.93-2.42,0-3.35C344.76,537.57,344.15,537.34,343.54,537.34z"/>
		<path d="M348.96,455.86c0.58-1.63,0.58-3.98,0.29-5.83c-0.82-5.26-2.59-9-5.61-11.65c-0.03,0.03-0.06,0.06-0.1,0.09
			c-0.03-0.03-0.06-0.06-0.1-0.09c-3.02,2.65-4.79,6.39-5.61,11.65c-0.29,1.84-0.29,4.2,0.29,5.83c0.99,2.77,3.22,4.14,5.42,4.09
			C345.74,460,347.97,458.64,348.96,455.86z"/>
		<path d="M350.25,456.81c-1.49,1.07-2.82,2.51-3.55,4.05c-2.45,5.16,2.25,9.86,7.41,7.41c1.54-0.73,3.17-2.37,4.25-3.85
			c3.08-4.23,4.46-8.06,4.2-12.01C359.05,452.12,355.68,452.86,350.25,456.81z"/>
		<path d="M413.47,522.1c-4.57-1.86-9.98-1.31-14.16,1.93c-3.67,2.84-5.57,7.12-5.54,11.43l-7.13,5.52l-3.11-4.02l9.07-7.02
			l-1.84-2.37l-9.07,7.02l-3.79-4.9l7.12-5.51c4.17,1.11,8.78,0.34,12.45-2.5c4.18-3.24,6.07-8.34,5.41-13.23
			c-4.57-1.86-9.98-1.31-14.16,1.93c-3.67,2.84-5.57,7.12-5.54,11.43l-7.12,5.51l-3.48-4.5l9.06-7.01l-1.84-2.37l-9.05,7.01
			l-3.41-4.42l7.11-5.51c4.17,1.11,8.78,0.34,12.45-2.5c4.18-3.24,6.07-8.34,5.41-13.23c-4.57-1.86-9.98-1.31-14.16,1.93
			c-3.67,2.84-5.57,7.12-5.54,11.43l-7.11,5.5l-3.85-4.98l9.04-7l-1.84-2.37l-9.04,7l-3.04-3.94l7.1-5.5
			c4.17,1.11,8.78,0.34,12.45-2.5c4.18-3.24,6.07-8.34,5.41-13.23c-4.57-1.86-9.98-1.31-14.16,1.93c-3.67,2.84-5.57,7.12-5.54,11.43
			l-7.1,5.5l-4.22-5.46l9.03-6.99l-1.84-2.37l-9.03,6.99l-2.67-3.46l7.09-5.49c4.16,1.11,8.78,0.34,12.45-2.5
			c4.18-3.24,6.07-8.34,5.41-13.23c-4.57-1.86-9.98-1.31-14.16,1.93c-3.67,2.84-5.57,7.12-5.54,11.43l-6.39,4.94l-0.02-3.5
			l5.92-4.59l-1.84-2.37l-4.1,3.18l-0.03-5.94l-1.49,0.01l-1.49-0.01l-0.03,5.94l-4.1-3.18l-1.84,2.37l5.92,4.59l-0.02,3.5
			l-6.39-4.94c0.04-4.31-1.87-8.59-5.54-11.43c-4.18-3.24-9.59-3.79-14.16-1.93c-0.66,4.89,1.23,9.99,5.41,13.23
			c3.67,2.84,8.29,3.62,12.45,2.5l7.09,5.49l-2.67,3.46l-9.03-6.99l-1.84,2.37l9.03,6.99l-4.22,5.46l-7.1-5.5
			c0.04-4.31-1.87-8.59-5.54-11.43c-4.18-3.24-9.59-3.79-14.16-1.93c-0.66,4.89,1.23,9.99,5.41,13.23c3.67,2.84,8.29,3.62,12.45,2.5
			l7.1,5.5l-3.04,3.94l-9.04-7l-1.84,2.37l9.04,7l-3.85,4.98l-7.11-5.5c0.04-4.31-1.87-8.59-5.54-11.43
			c-4.18-3.24-9.59-3.79-14.16-1.93c-0.66,4.89,1.23,9.99,5.41,13.23c3.67,2.84,8.29,3.62,12.45,2.5l7.11,5.51l-3.41,4.42
			l-9.05-7.01l-1.84,2.37l9.06,7.01l-3.48,4.5l-7.12-5.51c0.04-4.31-1.87-8.59-5.54-11.43c-4.18-3.24-9.59-3.79-14.16-1.93
			c-0.66,4.89,1.23,9.99,5.41,13.23c3.67,2.84,8.29,3.62,12.45,2.5l7.12,5.51l-3.79,4.9l-9.07-7.02l-1.84,2.37l9.07,7.02l-3.11,4.02
			l-7.13-5.52c0.04-4.31-1.87-8.59-5.54-11.43c-4.18-3.24-9.59-3.79-14.16-1.93c-0.66,4.89,1.23,9.99,5.41,13.23
			c3.67,2.84,8.29,3.62,12.45,2.5l7.13,5.52l-5.02,6.49l0.16,0.16l4.24,0l-0.41-0.41l45.92-59.39l0.05,0.06l0.05-0.06l45.92,59.39
			l-0.41,0.41l4.24,0l0.16-0.16l-5.02-6.49l7.13-5.52c4.17,1.11,8.78,0.34,12.45-2.5C412.24,532.09,414.13,526.99,413.47,522.1z"/>
		<polygon points="343.54,498.88 343.5,498.82 304.87,549.99 308.87,549.99 308.74,549.85 343.5,503.8 343.54,503.85 343.57,503.8 
			378.34,549.85 378.2,549.99 382.2,549.99 343.58,498.82 		"/>
		<path d="M343.55,530.97c0,0-0.01,0-0.01,0s-0.01,0-0.01,0c-2.33,0-4.53,0.91-6.18,2.56c-1.65,1.65-2.56,3.85-2.56,6.18
			c0,2.33,0.91,4.53,2.56,6.18c1.71,1.7,3.94,2.55,6.18,2.55c0,0,0,0,0,0c0,0,0,0,0,0c2.24,0,4.47-0.85,6.18-2.55
			c1.65-1.65,2.56-3.84,2.56-6.18c0-2.33-0.91-4.53-2.55-6.18C348.08,531.88,345.88,530.97,343.55,530.97z M348.31,544.48
			c-1.32,1.31-3.04,1.97-4.77,1.97c-1.73,0-3.45-0.65-4.77-1.97c-1.27-1.27-1.98-2.96-1.98-4.76c0-1.8,0.7-3.49,1.97-4.77
			s2.96-1.98,4.76-1.98c0,0,0.01,0,0.01,0s0.01,0,0.01,0c1.8,0,3.49,0.7,4.76,1.98s1.97,2.97,1.97,4.77
			C350.28,541.51,349.58,543.21,348.31,544.48z"/>
		<polygon points="356.11,423.09 358.07,423.09 358.07,419.18 361.98,419.18 361.98,417.23 358.07,417.23 358.07,413.32 
			356.11,413.32 356.11,417.23 352.2,417.23 352.2,419.18 356.11,419.18 		"/>
	</g>
	<g>
		<path d="M189.92,522.1c-4.57-1.86-9.98-1.31-14.16,1.93c-3.67,2.84-5.57,7.12-5.54,11.43l-7.13,5.52l-3.11-4.02l9.07-7.02
			l-1.84-2.37l-9.07,7.02l-3.79-4.9l7.12-5.51c4.16,1.11,8.78,0.34,12.45-2.5c4.18-3.24,6.07-8.34,5.41-13.23
			c-4.57-1.86-9.98-1.31-14.16,1.93c-3.67,2.84-5.57,7.12-5.54,11.43l-7.12,5.51l-3.48-4.5l9.06-7.01l-1.84-2.37l-9.05,7.01
			l-3.41-4.42l7.11-5.51c4.17,1.11,8.78,0.34,12.45-2.5c4.18-3.24,6.07-8.34,5.41-13.23c-4.57-1.86-9.98-1.31-14.16,1.93
			c-3.67,2.84-5.57,7.12-5.54,11.43l-7.11,5.5l-3.85-4.98l9.04-7l-1.84-2.37l-9.04,7l-3.04-3.94l7.1-5.5
			c4.17,1.11,8.78,0.34,12.45-2.5c4.18-3.24,6.07-8.34,5.41-13.23c-4.57-1.86-9.98-1.31-14.16,1.93c-3.67,2.84-5.57,7.12-5.54,11.43
			l-7.1,5.5l-4.22-5.46l9.03-6.99l-1.84-2.37l-9.03,6.99l-2.67-3.46l7.09-5.49c4.16,1.11,8.78,0.34,12.45-2.5
			c4.18-3.24,6.07-8.34,5.41-13.23c-4.57-1.86-9.98-1.31-14.16,1.93c-3.67,2.84-5.57,7.12-5.54,11.43l-6.39,4.95l-0.02-3.5
			l5.92-4.59l-1.84-2.37l-4.1,3.18l-0.03-5.94l-1.46,0.01l-1.46-0.01l-0.03,5.94l-4.1-3.18l-1.84,2.37l5.92,4.59l-0.02,3.5
			l-6.39-4.95c0.04-4.31-1.87-8.59-5.54-11.43c-4.18-3.24-9.59-3.79-14.16-1.93c-0.66,4.89,1.23,9.99,5.41,13.23
			c3.67,2.84,8.29,3.62,12.45,2.5l7.09,5.49l-2.67,3.46l-9.03-6.99l-1.84,2.37l9.03,7l-4.22,5.46l-7.1-5.5
			c0.04-4.31-1.87-8.59-5.54-11.43c-4.18-3.24-9.59-3.79-14.16-1.93c-0.66,4.89,1.23,9.99,5.41,13.23c3.67,2.84,8.29,3.62,12.45,2.5
			l7.1,5.5l-3.04,3.94l-9.04-7l-1.84,2.37l9.04,7l-3.85,4.98l-7.11-5.5c0.04-4.31-1.87-8.59-5.54-11.43
			c-4.18-3.24-9.59-3.79-14.16-1.93c-0.66,4.89,1.23,9.99,5.41,13.23c3.67,2.84,8.29,3.62,12.45,2.5l7.11,5.51l-3.42,4.42
			l-9.05-7.01l-1.84,2.37l9.06,7.01l-3.48,4.5l-7.12-5.51c0.04-4.31-1.87-8.59-5.54-11.43c-4.18-3.24-9.59-3.79-14.16-1.93
			c-0.66,4.89,1.23,9.99,5.41,13.23c3.67,2.84,8.29,3.62,12.45,2.5l7.12,5.51l-3.79,4.9l-9.07-7.02L71,529.94l9.07,7.02l-3.11,4.02
			l-7.13-5.52c0.04-4.31-1.87-8.59-5.54-11.43c-4.18-3.24-9.59-3.79-14.16-1.93c-0.66,4.89,1.23,9.99,5.41,13.23
			c3.67,2.84,8.29,3.62,12.45,2.5l7.13,5.52l-5.02,6.49l0.16,0.16l4.24,0l-0.41-0.41l45.89-59.36v0.03l0.04-0.05l0.04,0.05v-0.03
			l45.89,59.36l-0.41,0.41l4.24,0l0.16-0.16l-5.02-6.49l7.13-5.52c4.17,1.11,8.78,0.34,12.45-2.5
			C188.69,532.09,190.58,526.99,189.92,522.1z"/>
		<path d="M120.06,537.35L120.06,537.35c-0.01-0.01-0.02,0-0.04,0c-0.01,0-0.02,0-0.04,0v0.01c-0.58,0.02-1.17,0.24-1.61,0.69
			c-0.92,0.93-0.92,2.42,0,3.35c0.45,0.45,1.03,0.67,1.61,0.69v0.01c0.01,0,0.02,0,0.04,0c0.01,0,0.02,0,0.04,0v-0.01
			c0.58-0.02,1.16-0.24,1.61-0.69c0.93-0.92,0.93-2.42,0-3.35C121.23,537.59,120.64,537.37,120.06,537.35z"/>
		<path d="M120.02,459.96c0.01,0,0.02,0,0.04,0v0c2.18,0.01,4.37-1.34,5.35-4.09c0.58-1.63,0.58-3.98,0.29-5.83
			c-0.83-5.26-2.59-9-5.61-11.65c-0.02,0.02-0.04,0.04-0.06,0.05c-0.02-0.02-0.04-0.04-0.06-0.05c-3.02,2.65-4.79,6.39-5.61,11.65
			c-0.29,1.84-0.29,4.2,0.29,5.83c0.98,2.75,3.17,4.1,5.35,4.09v0C120,459.96,120.01,459.96,120.02,459.96z"/>
		<path d="M126.7,456.81c-1.49,1.07-2.82,2.51-3.55,4.05c-2.45,5.16,2.25,9.86,7.41,7.41c1.54-0.73,3.17-2.37,4.25-3.85
			c3.08-4.23,4.46-8.06,4.2-12.01C135.5,452.12,132.13,452.86,126.7,456.81z"/>
		<polygon points="120.02,498.83 120.02,498.82 81.39,549.99 85.4,549.99 85.26,549.85 120.02,503.8 154.79,549.85 154.65,549.99 
			158.65,549.99 120.03,498.82 		"/>
		<path d="M120.06,530.98L120.06,530.98c0,0-0.01,0-0.01,0c-0.01,0-0.01,0-0.02,0c-0.01,0-0.01,0-0.02,0c0,0-0.01,0-0.01,0v0
			c-2.31,0.02-4.48,0.92-6.12,2.56c-1.65,1.65-2.56,3.85-2.55,6.18s0.91,4.53,2.56,6.18c1.69,1.68,3.9,2.53,6.11,2.55v0c0,0,0,0,0,0
			c0.01,0,0.02,0,0.03,0c0.01,0,0.02,0,0.03,0h0v0c2.21-0.02,4.42-0.86,6.11-2.55c1.65-1.65,2.56-3.84,2.56-6.18
			c0-2.33-0.91-4.53-2.55-6.18C124.54,531.9,122.37,530.99,120.06,530.98z M124.76,544.48c-1.31,1.3-3.02,1.96-4.73,1.97
			c-1.71-0.01-3.43-0.66-4.73-1.97c-1.27-1.27-1.98-2.96-1.98-4.76c0-1.8,0.7-3.49,1.97-4.77c1.27-1.27,2.95-1.97,4.74-1.98
			c1.79,0.01,3.47,0.71,4.74,1.98c1.27,1.27,1.97,2.97,1.97,4.77C126.73,541.51,126.03,543.21,124.76,544.48z"/>
		<polygon points="132.56,423.09 134.52,423.09 134.52,419.18 138.43,419.18 138.43,417.23 134.52,417.23 134.52,413.32 
			132.56,413.32 132.56,417.23 128.65,417.23 128.65,419.18 132.56,419.18 		"/>
		<path d="M109.49,468.27c5.16,2.45,9.86-2.25,7.41-7.41c-0.73-1.54-2.06-2.98-3.55-4.05c-5.43-3.94-8.8-4.69-12.32-4.4
			c-0.26,3.95,1.11,7.78,4.2,12.01C106.31,465.9,107.95,467.54,109.49,468.27z"/>
		<polygon points="119.09,411.42 119.99,411.42 119.99,411.42 120.96,411.42 120.96,407.51 124.87,407.51 124.87,405.55 
			120.96,405.55 120.96,401.64 120.06,401.64 119.09,401.64 119.09,405.55 115.18,405.55 115.18,407.51 119.09,407.51 		"/>
		<polygon points="108.18,426.18 112.09,426.18 112.09,430.09 114.04,430.09 114.04,426.18 119.09,426.18 119.09,431.23 
			115.18,431.23 115.18,433.19 119.09,433.19 119.09,437.1 119.99,437.1 119.99,437.1 120.96,437.1 120.96,433.19 124.87,433.19 
			124.87,431.23 120.96,431.23 120.96,426.18 126,426.18 126,430.09 127.96,430.09 127.96,426.18 131.87,426.18 131.87,424.23 
			127.96,424.23 127.96,420.32 126,420.32 126,424.23 120.96,424.23 120.96,419.18 124.87,419.18 124.87,417.23 120.96,417.23 
			120.96,413.32 120.06,413.32 119.09,413.32 119.09,417.23 115.18,417.23 115.18,419.18 119.09,419.18 119.09,424.23 
			114.04,424.23 114.04,420.32 112.09,420.32 112.09,424.23 108.18,424.23 		"/>
		<polygon points="105.53,423.09 107.49,423.09 107.49,419.18 111.4,419.18 111.4,417.23 107.49,417.23 107.49,413.32 
			105.53,413.32 105.53,417.23 101.62,417.23 101.62,419.18 105.53,419.18 		"/>
	</g>
</g>
<g>
</g>
<g>
</g>
<g>
</g>
<g>
</g>
<g>
</g>
<g>
</g>
<g>
</g>
<g>
</g>
<g>
</g>
<g>
</g>
<g>
</g>
<g>
</g>
<g>
</g>
<g>
</g>
<g>
</g>
</svg>
