<?xml version="1.0" encoding="utf-8"?>
<!-- Generator: Adobe Illustrator 27.2.0, SVG Export Plug-In . SVG Version: 6.00 Build 0)  -->
<svg version="1.1" id="Layer_1" xmlns="http://www.w3.org/2000/svg" xmlns:xlink="http://www.w3.org/1999/xlink" x="0px" y="0px"
	 viewBox="0 0 800 600" style="enable-background:new 0 0 800 600;" xml:space="preserve">
<g>
	<g>
		<polygon points="212.51,419.85 212.51,419.85 212.51,419.85 217.15,419.85 217.15,416.72 212.51,416.72 212.51,416.72 
			212.51,416.72 212.51,412.08 212.51,412.08 212.51,410.1 214.49,410.1 214.49,410.1 219.13,410.1 219.13,410.1 219.13,410.1 
			219.13,414.74 222.25,414.74 222.25,410.1 222.25,410.1 222.25,410.1 226.89,410.1 226.89,406.98 222.25,406.98 222.25,406.98 
			222.25,406.98 222.25,402.33 219.13,402.33 219.13,406.98 219.13,406.98 219.13,406.98 214.49,406.98 214.49,406.98 
			212.51,406.98 212.51,405 212.51,405 212.51,400.36 212.51,400.36 212.51,400.36 217.15,400.36 217.15,397.23 212.51,397.23 
			212.51,397.23 212.51,397.23 212.51,392.59 212.51,392.59 212.51,390.62 214.49,390.62 214.49,390.62 219.13,390.62 
			219.13,390.62 219.13,390.62 219.13,395.26 222.25,395.26 222.25,390.62 222.25,390.62 222.25,390.62 226.89,390.62 
			226.89,390.62 228.87,390.62 228.87,392.59 228.87,392.59 228.87,397.23 228.87,397.23 228.87,397.23 224.23,397.23 
			224.23,400.36 228.87,400.36 228.87,400.36 228.87,400.36 228.87,405 232,405 232,400.36 232,400.36 232,400.36 236.64,400.36 
			236.64,397.23 232,397.23 232,397.23 232,397.23 232,392.59 232,392.59 232,390.62 233.97,390.62 233.97,390.62 238.61,390.62 
			238.61,390.62 238.61,390.62 238.61,395.26 241.74,395.26 241.74,390.62 241.74,390.62 241.74,390.62 246.38,390.62 
			246.38,387.49 241.74,387.49 241.74,387.49 241.74,387.49 241.74,382.85 238.61,382.85 238.61,387.49 238.61,387.49 
			238.61,387.49 233.97,387.49 233.97,387.49 232,387.49 232,385.52 232,385.52 232,380.87 232,380.87 232,380.87 236.64,380.87 
			236.64,377.75 232,377.75 232,377.75 232,377.75 232,373.11 228.87,373.11 228.87,377.75 228.87,377.75 228.87,377.75 
			224.23,377.75 224.23,380.87 228.87,380.87 228.87,380.87 228.87,380.87 228.87,385.52 228.87,385.52 228.87,387.49 
			226.89,387.49 226.89,387.49 222.25,387.49 222.25,387.49 222.25,387.49 222.25,382.85 219.13,382.85 219.13,387.49 
			219.13,387.49 219.13,387.49 214.49,387.49 214.49,387.49 212.51,387.49 212.51,385.52 212.51,385.52 212.51,380.87 
			212.51,380.87 212.51,380.87 217.15,380.87 217.15,377.75 212.51,377.75 212.51,377.75 212.51,377.75 212.51,373.11 
			212.51,373.11 212.51,371.13 214.49,371.13 214.49,371.13 219.13,371.13 219.13,371.13 219.13,371.13 219.13,375.77 
			222.25,375.77 222.25,371.13 222.25,371.13 222.25,371.13 226.89,371.13 226.89,368 222.25,368 222.25,368 222.25,368 
			222.25,363.36 219.13,363.36 219.13,368 219.13,368 219.13,368 214.49,368 214.49,368 212.51,368 212.51,366.03 212.51,366.03 
			212.51,361.39 212.51,361.39 212.51,361.39 217.15,361.39 217.15,358.26 212.51,358.26 212.51,358.26 212.51,358.26 
			212.51,353.62 209.38,353.62 209.38,358.26 209.38,358.26 209.38,358.26 204.74,358.26 204.74,361.39 209.38,361.39 
			209.38,361.39 209.38,361.39 209.38,366.03 209.38,366.03 209.38,368 207.41,368 207.41,368 202.77,368 202.77,368 202.77,368 
			202.77,363.36 199.64,363.36 199.64,368 199.64,368 199.64,368 195,368 195,371.13 199.64,371.13 199.64,371.13 199.64,371.13 
			199.64,375.77 202.77,375.77 202.77,371.13 202.77,371.13 202.77,371.13 207.41,371.13 207.41,371.13 209.38,371.13 
			209.38,373.11 209.38,373.11 209.38,377.75 209.38,377.75 209.38,377.75 204.74,377.75 204.74,380.87 209.38,380.87 
			209.38,380.87 209.38,380.87 209.38,385.52 209.38,385.52 209.38,387.49 207.41,387.49 207.41,387.49 202.77,387.49 
			202.77,387.49 202.77,387.49 202.77,382.85 199.64,382.85 199.64,387.49 199.64,387.49 199.64,387.49 195,387.49 195,387.49 
			193.02,387.49 193.02,385.52 193.02,385.52 193.02,380.87 193.02,380.87 193.02,380.87 197.67,380.87 197.67,377.75 
			193.02,377.75 193.02,377.75 193.02,377.75 193.02,373.11 189.9,373.11 189.9,377.75 189.9,377.75 189.9,377.75 185.26,377.75 
			185.26,380.87 189.9,380.87 189.9,380.87 189.9,380.87 189.9,385.52 189.9,385.52 189.9,387.49 187.92,387.49 187.92,387.49 
			183.28,387.49 183.28,387.49 183.28,387.49 183.28,382.85 180.15,382.85 180.15,387.49 180.15,387.49 180.15,387.49 
			175.51,387.49 175.51,390.62 180.15,390.62 180.15,390.62 180.15,390.62 180.15,395.26 183.28,395.26 183.28,390.62 
			183.28,390.62 183.28,390.62 187.92,390.62 187.92,390.62 189.9,390.62 189.9,392.59 189.9,392.59 189.9,397.23 189.9,397.23 
			189.9,397.23 185.26,397.23 185.26,400.36 189.9,400.36 189.9,400.36 189.9,400.36 189.9,405 193.02,405 193.02,400.36 
			193.02,400.36 193.02,400.36 197.67,400.36 197.67,397.23 193.02,397.23 193.02,397.23 193.02,397.23 193.02,392.59 
			193.02,392.59 193.02,390.62 195,390.62 195,390.62 199.64,390.62 199.64,390.62 199.64,390.62 199.64,395.26 202.77,395.26 
			202.77,390.62 202.77,390.62 202.77,390.62 207.41,390.62 207.41,390.62 209.38,390.62 209.38,392.59 209.38,392.59 
			209.38,397.23 209.38,397.23 209.38,397.23 204.74,397.23 204.74,400.36 209.38,400.36 209.38,400.36 209.38,400.36 209.38,405 
			209.38,405 209.38,406.98 207.41,406.98 207.41,406.98 202.77,406.98 202.77,406.98 202.77,406.98 202.77,402.33 199.64,402.33 
			199.64,406.98 199.64,406.98 199.64,406.98 195,406.98 195,410.1 199.64,410.1 199.64,410.1 199.64,410.1 199.64,414.74 
			202.77,414.74 202.77,410.1 202.77,410.1 202.77,410.1 207.41,410.1 207.41,410.1 209.38,410.1 209.38,412.08 209.38,412.08 
			209.38,416.72 209.38,416.72 209.38,416.72 204.74,416.72 204.74,419.85 209.38,419.85 209.38,419.85 209.38,419.85 
			209.38,424.49 212.51,424.49 		"/>
		<polygon points="257.53,389.05 210.95,342.47 210.95,346.71 253.29,389.05 210.95,431.4 210.95,435.64 257.53,389.05 
			257.53,389.05 257.53,389.05 257.53,389.05 		"/>
		<polygon points="164.36,389.05 210.95,435.64 210.95,431.4 168.6,389.05 210.95,346.71 210.95,342.47 164.36,389.05 
			164.36,389.05 164.36,389.05 164.36,389.05 		"/>
		<path d="M288.42,383.31H276.9v5.75h3.88l1.88-1.88l1.88,1.88h3.88V383.31z M278.98,387.9v-2.51h2.51L278.98,387.9z M286.34,387.9
			l-2.51-2.51h2.51V387.9z"/>
		<path d="M229.84,347.77h11.53v-11.53h-11.53V347.77z M239.28,345.69h-2.51l2.51-2.51V345.69z M239.28,338.33v2.51l-2.51-2.51
			H239.28z M237.5,342.01l-1.9,1.9l-1.9-1.9l1.9-1.9L237.5,342.01z M231.93,338.33h2.51l-2.51,2.51V338.33z M231.93,343.18
			l2.51,2.51h-2.51V343.18z"/>
		<path d="M213.38,325.43l-2.43-2.43l-2.43,2.43l2.43,2.43L213.38,325.43z M210.42,325.43l0.53-0.53l0.53,0.53l-0.53,0.53
			L210.42,325.43z"/>
		<path d="M225.68,320.56h-11.53v11.53h11.53V320.56z M216.24,322.65h2.51l-2.51,2.51V322.65z M216.24,330v-2.51l2.51,2.51H216.24z
			 M218.02,326.32l1.9-1.9l1.9,1.9l-1.9,1.9L218.02,326.32z M223.6,330h-2.51l2.51-2.51V330z M223.6,325.16l-2.51-2.51h2.51V325.16z
			"/>
		<path d="M261.21,379.15h11.52v-11.53h-11.52V379.15z M270.65,377.06h-2.51l2.51-2.51V377.06z M270.65,369.71v2.51l-2.51-2.51
			H270.65z M268.87,373.38l-1.9,1.9l-1.9-1.9l1.9-1.9L268.87,373.38z M263.3,369.71h2.51l-2.51,2.51V369.71z M263.3,374.55
			l2.51,2.51h-2.51V374.55z"/>
		<path d="M245.53,363.46h11.53v-11.53h-11.53V363.46z M254.97,361.38h-2.51l2.51-2.51V361.38z M254.97,354.02v2.51l-2.51-2.51
			H254.97z M253.19,357.7l-1.9,1.9l-1.9-1.9l1.9-1.9L253.19,357.7z M247.61,354.02h2.51l-2.51,2.51V354.02z M247.61,358.87
			l2.51,2.51h-2.51V358.87z"/>
		<path d="M282.66,390.93l-1.88-1.88h-3.88v5.75h11.53v-5.75h-3.88L282.66,390.93z M278.98,392.71v-2.51l2.51,2.51H278.98z
			 M286.34,392.71h-2.51l2.51-2.51V392.71z"/>
		<path d="M229.84,441.86h11.53v-11.53h-11.53V441.86z M239.28,439.77h-2.51l2.51-2.51V439.77z M239.28,432.42v2.51l-2.51-2.51
			H239.28z M237.5,436.1l-1.9,1.9l-1.9-1.9l1.9-1.9L237.5,436.1z M231.93,432.42h2.51l-2.51,2.51V432.42z M231.93,437.26l2.51,2.51
			h-2.51V437.26z"/>
		<path d="M214.15,457.54h11.53v-11.53h-11.53V457.54z M223.6,455.46h-2.51l2.51-2.51V455.46z M223.6,448.1v2.51l-2.51-2.51H223.6z
			 M221.81,451.78l-1.9,1.9l-1.9-1.9l1.9-1.9L221.81,451.78z M216.24,448.1h2.51l-2.51,2.51V448.1z M216.24,452.95l2.51,2.51h-2.51
			V452.95z"/>
		<path d="M294.12,391.19l-2.13-2.13h-1.9l3.08,3.08l-7.42,7.42l-3.98-3.98l-0.95,0.95l-2.59,2.59l-0.12,0.12l-5.64-5.64l3.66-3.66
			l-0.88-0.88h-1.9l0.88,0.88l-3.18,3.18l-3.18,3.18l-3.03-3.03l3.18-3.18l0,0l1.03-1.03h-4.42l-45.87,45.87l-7.79,7.79l-7.79-7.79
			l-45.87-45.87h-4.42l1.03,1.03v0l3.18,3.18l-3.03,3.03l-3.18-3.18l-3.18-3.18l0.88-0.88h-1.9l-0.88,0.88l3.66,3.66l-5.64,5.64
			l-0.12-0.12l-2.59-2.59l-0.95-0.95l-3.99,3.98l-7.42-7.42l3.08-3.08h-1.9l-2.13,2.13l-2.13-2.13h-4.42l1.16,1.16l78.43,78.43l0,0
			l10.14,10.14l10.14-10.14l0,0l78.43-78.43l1.16-1.16h-4.42L294.12,391.19z M255.5,402.58l3.03,3.03l-3.18,3.18l-3.18,3.18
			l-3.03-3.03L255.5,402.58z M239.82,418.27l3.03,3.03l-3.18,3.18l-3.18,3.18l-3.03-3.03L239.82,418.27z M220.95,437.14l3.18-3.18
			l3.03,3.03l-3.18,3.18l-3.18,3.18l-3.03-3.03L220.95,437.14z M200.94,437.14l3.18,3.18l-3.03,3.03l-3.18-3.18l-3.18-3.18
			l3.03-3.03L200.94,437.14z M188.44,424.63l-3.03,3.03l-3.18-3.18l-3.18-3.18l3.03-3.03L188.44,424.63z M172.75,408.95l-3.03,3.03
			l-3.18-3.18l-3.18-3.18l3.03-3.03L172.75,408.95z M137.09,400.51l3.03-3.03l3.18,3.18l3.18,3.18l-3.03,3.03L137.09,400.51z
			 M144.41,407.82l3.98-3.98l-0.95-0.95l-2.71-2.7l5.64-5.64l3.66,3.66l3.98-3.98l7.42,7.42l-3.98,3.98l3.66,3.66l-5.64,5.64
			l-0.12-0.12l-2.59-2.59l-0.95-0.95l-3.98,3.98L144.41,407.82z M152.78,416.2l3.03-3.03l3.18,3.18l3.18,3.18l-3.03,3.03
			L152.78,416.2z M160.09,423.51l3.98-3.98l-0.95-0.95l-2.7-2.71l5.64-5.64l0.12,0.12l2.59,2.59l0.95,0.95l3.98-3.98l7.42,7.42
			l-3.98,3.98l3.66,3.66l-5.64,5.64l-0.12-0.12l-2.59-2.59l-0.95-0.95l-3.98,3.98L160.09,423.51z M168.46,431.88l3.03-3.03
			l3.18,3.18l3.18,3.18l-3.03,3.03L168.46,431.88z M175.78,439.2l3.98-3.98l-0.95-0.95l-2.7-2.7l5.64-5.64l3.66,3.66l3.98-3.98
			l7.42,7.42l-3.98,3.98l3.66,3.66l-5.64,5.64l-0.12-0.12l-3.54-3.54l-3.98,3.98L175.78,439.2z M184.15,447.57l3.03-3.03l3.18,3.18
			l3.18,3.18l-3.03,3.03L184.15,447.57z M203.02,466.44L203.02,466.44l-3.18-3.18l3.03-3.03l6.36,6.36l-3.03,3.03L203.02,466.44z
			 M207.48,462.93l3.47-3.47l3.47,3.47l-0.12,0.12l-2.59,2.59l-0.76,0.76l-0.76-0.76l-2.59-2.59L207.48,462.93z M210.95,474.36
			l-3.79-3.79l3.79-3.79l3.8,3.79L210.95,474.36z M218.88,466.44L218.88,466.44l-3.18,3.18l-3.03-3.03l6.36-6.36l3.03,3.03
			L218.88,466.44z M223.01,462.3l-3.98-3.98l-0.95,0.95l-2.59,2.59l-0.12,0.12l-4.42-4.42l-4.42,4.42l-0.12-0.12l-2.59-2.59
			l-0.95-0.95l-3.98,3.98l-7.42-7.42l3.99-3.98l-0.95-0.95l-2.71-2.7l5.64-5.64l3.66,3.66l3.98-3.98l5.87,5.87l5.87-5.87l3.99,3.98
			l3.66-3.66l5.64,5.64l-2.7,2.7l-0.95,0.95l3.99,3.98L223.01,462.3z M231.38,453.93l-3.03-3.03l3.18-3.18l3.18-3.18l3.03,3.03
			L231.38,453.93z M238.69,446.62l-3.98-3.98l-3.54,3.54l-0.12,0.12l-5.64-5.64l3.66-3.66l-3.98-3.98l7.42-7.42l3.98,3.98l3.66-3.66
			l5.64,5.64l-2.7,2.7l-0.95,0.95l3.98,3.98L238.69,446.62z M247.07,438.24l-3.03-3.03l3.18-3.18l3.18-3.18l3.03,3.03L247.07,438.24
			z M254.38,430.93l-3.98-3.98l-0.95,0.95l-2.59,2.59l-0.12,0.12l-5.64-5.64l3.66-3.66l-3.98-3.98l7.42-7.42l3.98,3.98l0.95-0.95
			l2.59-2.59l0.12-0.12l5.64,5.64l-2.71,2.71l-0.95,0.95l3.98,3.98L254.38,430.93z M262.75,422.56l-3.03-3.03l3.18-3.18l3.18-3.18
			l3.03,3.03L262.75,422.56z M270.07,415.24l-3.99-3.98l-0.95,0.95l-2.59,2.59l-0.12,0.12l-5.64-5.64l3.66-3.66l-3.99-3.98
			l7.42-7.42l3.98,3.98l3.66-3.66l5.64,5.64l-2.71,2.7l-0.95,0.95l3.98,3.98L270.07,415.24z M278.44,406.87l-3.03-3.03l3.18-3.18
			l3.18-3.18l3.03,3.03L278.44,406.87z"/>
		<path d="M261.21,410.49h11.52v-11.53h-11.52V410.49z M270.65,408.4h-2.51l2.51-2.51V408.4z M270.65,401.04v2.51l-2.51-2.51H270.65
			z M268.87,404.72l-1.9,1.9l-1.9-1.9l1.9-1.9L268.87,404.72z M263.3,401.04h2.51l-2.51,2.51V401.04z M263.3,405.89l2.51,2.51h-2.51
			V405.89z"/>
		<path d="M245.53,426.17h11.53v-11.53h-11.53V426.17z M254.97,424.09h-2.51l2.51-2.51V424.09z M254.97,416.73v2.51l-2.51-2.51
			H254.97z M253.19,420.41l-1.9,1.9l-1.9-1.9l1.9-1.9L253.19,420.41z M247.61,416.73h2.51l-2.51,2.51V416.73z M247.61,421.58
			l2.51,2.51h-2.51V421.58z"/>
		<path d="M144.99,383.31h-11.53v5.75h3.88l1.88-1.88l1.88,1.88h3.88V383.31z M135.55,387.9v-2.51h2.51L135.55,387.9z M142.91,387.9
			l-2.51-2.51h2.51V387.9z"/>
		<path d="M192.05,336.25h-11.53v11.53h11.53V336.25z M182.61,338.33h2.51l-2.51,2.51V338.33z M182.61,345.69v-2.51l2.51,2.51
			H182.61z M184.39,342.01l1.9-1.9l1.9,1.9l-1.9,1.9L184.39,342.01z M189.97,345.69h-2.51l2.51-2.51V345.69z M189.97,340.84
			l-2.51-2.51h2.51V340.84z"/>
		<path d="M207.74,320.56h-11.53v11.53h11.53V320.56z M198.3,322.65h2.51l-2.51,2.51V322.65z M198.3,330v-2.51l2.51,2.51H198.3z
			 M200.08,326.32l1.9-1.9l1.9,1.9l-1.9,1.9L200.08,326.32z M205.65,330h-2.51l2.51-2.51V330z M205.65,325.16l-2.51-2.51h2.51
			V325.16z"/>
		<path d="M127.77,386.92l2.13,2.13h1.9l-3.08-3.08l7.42-7.42l3.99,3.98l0.95-0.95l2.59-2.59l0.12-0.12l5.64,5.64l-3.66,3.66
			l0.88,0.88h1.9l-0.88-0.88l3.18-3.18l3.18-3.18l3.03,3.03l-3.18,3.18l0,0l-1.03,1.03h4.42l45.87-45.87l7.79-7.79l7.79,7.79
			l45.87,45.87h4.42l-1.03-1.03h0l-3.18-3.18l3.03-3.03l3.18,3.18l3.18,3.18l-0.88,0.88h1.9l0.88-0.88l-3.66-3.66l5.64-5.64
			l0.12,0.12l2.59,2.59l0.95,0.95l3.98-3.98l7.42,7.42l-3.08,3.08h1.9l2.13-2.13l2.13,2.13h4.42l-1.16-1.16l-78.43-78.43l0,0
			l-10.14-10.14l-10.14,10.14l0,0l-78.43,78.43l-1.16,1.16h4.42L127.77,386.92z M166.39,375.52l-3.03-3.03l3.18-3.18l3.18-3.18
			l3.03,3.03L166.39,375.52z M182.08,359.84l-3.03-3.03l3.18-3.18l3.18-3.18l3.03,3.03L182.08,359.84z M200.94,340.97l-3.18,3.18
			l-3.03-3.03l3.18-3.18l3.18-3.18l3.03,3.03L200.94,340.97z M220.95,340.97l-3.18-3.18l3.03-3.03l3.18,3.18l3.18,3.18l-3.03,3.03
			L220.95,340.97z M233.46,353.47l3.03-3.03l3.18,3.18l3.18,3.18l-3.03,3.03L233.46,353.47z M249.14,369.16l3.03-3.03l3.18,3.18
			l3.18,3.18l-3.03,3.03L249.14,369.16z M284.8,377.6l-3.03,3.03l-3.18-3.18l-3.18-3.18l3.03-3.03L284.8,377.6z M277.49,370.28
			l-3.98,3.98l0.95,0.95l2.71,2.7l-5.64,5.64l-3.66-3.66l-3.98,3.98l-7.42-7.42l3.99-3.98l-3.66-3.66l5.64-5.64l0.12,0.12l2.59,2.59
			l0.95,0.95l3.99-3.98L277.49,370.28z M269.12,361.91l-3.03,3.03l-3.18-3.18l-3.18-3.18l3.03-3.03L269.12,361.91z M261.8,354.6
			l-3.98,3.98l0.95,0.95l2.71,2.7l-5.64,5.64l-0.12-0.12l-2.59-2.59l-0.95-0.95l-3.98,3.98l-7.42-7.42l3.98-3.98l-3.66-3.66
			l5.64-5.64l0.12,0.12l2.59,2.59l0.95,0.95l3.98-3.98L261.8,354.6z M253.43,346.23l-3.03,3.03l-3.18-3.18l-3.18-3.18l3.03-3.03
			L253.43,346.23z M246.11,338.91l-3.98,3.98l0.95,0.95l2.7,2.7l-5.64,5.64l-3.66-3.66l-3.98,3.98l-7.42-7.42l3.98-3.98l-3.66-3.66
			l5.64-5.64l0.12,0.12l3.54,3.54l3.98-3.98L246.11,338.91z M237.74,330.54l-3.03,3.03l-3.18-3.18l-3.18-3.18l3.03-3.03
			L237.74,330.54z M218.88,311.67L218.88,311.67l3.18,3.18l-3.03,3.03l-6.36-6.36l3.03-3.03L218.88,311.67z M214.41,315.18
			l-3.47,3.47l-3.47-3.47l0.12-0.12l2.59-2.59l0.76-0.76l0.76,0.76l2.59,2.59L214.41,315.18z M210.95,303.74l3.8,3.79l-3.8,3.79
			l-3.79-3.79L210.95,303.74z M203.02,311.67L203.02,311.67l3.18-3.18l3.03,3.03l-6.36,6.36l-3.03-3.03L203.02,311.67z
			 M198.89,315.8l3.98,3.98l0.95-0.95l2.59-2.59l0.12-0.12l4.42,4.42l4.42-4.42l0.12,0.12l2.59,2.59l0.95,0.95l3.98-3.98l7.42,7.42
			l-3.99,3.98l0.95,0.95l2.7,2.71l-5.64,5.64l-3.66-3.66l-3.99,3.98l-5.87-5.87l-5.87,5.87l-3.98-3.98l-3.66,3.66l-5.64-5.64
			l2.71-2.71l0.95-0.95l-3.99-3.98L198.89,315.8z M190.51,324.18l3.03,3.03l-3.18,3.18l-3.18,3.18l-3.03-3.03L190.51,324.18z
			 M183.2,331.49l3.98,3.98l3.54-3.54l0.12-0.12l5.64,5.64l-3.66,3.66l3.98,3.98l-7.42,7.42l-3.98-3.98l-3.66,3.66l-5.64-5.64
			l2.7-2.7l0.95-0.95l-3.98-3.98L183.2,331.49z M174.83,339.86l3.03,3.03l-3.18,3.18l-3.18,3.18l-3.03-3.03L174.83,339.86z
			 M167.51,347.18l3.98,3.98l0.95-0.95l2.59-2.59l0.12-0.12l5.64,5.64l-3.66,3.66l3.98,3.98l-7.42,7.42l-3.98-3.98l-0.95,0.95
			l-2.59,2.59l-0.12,0.12l-5.64-5.64l2.7-2.7l0.95-0.95l-3.98-3.98L167.51,347.18z M159.14,355.55l3.03,3.03l-3.18,3.18l-3.18,3.18
			l-3.03-3.03L159.14,355.55z M151.83,362.86l3.98,3.98l0.95-0.95l2.59-2.59l0.12-0.12l5.64,5.64l-3.66,3.66l3.98,3.98l-7.42,7.42
			l-3.98-3.98l-3.66,3.66l-5.64-5.64l2.71-2.7l0.95-0.95l-3.98-3.98L151.83,362.86z M143.46,371.24l3.03,3.03l-3.18,3.18l-3.18,3.18
			l-3.03-3.03L143.46,371.24z"/>
		<path d="M160.68,367.62h-11.53v11.53h11.53V367.62z M151.24,369.71h2.51l-2.51,2.51V369.71z M151.24,377.06v-2.51l2.51,2.51
			H151.24z M153.02,373.38l1.9-1.9l1.9,1.9l-1.9,1.9L153.02,373.38z M158.6,377.06h-2.51l2.51-2.51V377.06z M158.6,372.22
			l-2.51-2.51h2.51V372.22z"/>
		<path d="M176.37,351.93h-11.53v11.53h11.53V351.93z M166.93,354.02h2.51l-2.51,2.51V354.02z M166.93,361.38v-2.51l2.51,2.51
			H166.93z M168.71,357.7l1.9-1.9l1.9,1.9l-1.9,1.9L168.71,357.7z M174.28,361.38h-2.51l2.51-2.51V361.38z M174.28,356.53
			l-2.51-2.51h2.51V356.53z"/>
		<path d="M139.23,390.93l-1.88-1.88h-3.88v5.75h11.53v-5.75h-3.88L139.23,390.93z M135.55,392.71v-2.51l2.51,2.51H135.55z
			 M142.91,392.71h-2.51l2.51-2.51V392.71z"/>
		<path d="M192.05,430.33h-11.53v11.53h11.53V430.33z M182.61,432.42h2.51l-2.51,2.51V432.42z M182.61,439.77v-2.51l2.51,2.51
			H182.61z M184.39,436.1l1.9-1.9l1.9,1.9l-1.9,1.9L184.39,436.1z M189.97,439.77h-2.51l2.51-2.51V439.77z M189.97,434.93
			l-2.51-2.51h2.51V434.93z"/>
		<path d="M208.51,452.68l2.43,2.43l2.43-2.43l-2.43-2.43L208.51,452.68z M211.48,452.68l-0.53,0.53l-0.53-0.53l0.53-0.53
			L211.48,452.68z"/>
		<path d="M196.21,457.54h11.53v-11.53h-11.53V457.54z M205.65,455.46h-2.51l2.51-2.51V455.46z M205.65,448.1v2.51l-2.51-2.51
			H205.65z M203.87,451.78l-1.9,1.9l-1.9-1.9l1.9-1.9L203.87,451.78z M198.3,448.1h2.51l-2.51,2.51V448.1z M198.3,452.95l2.51,2.51
			h-2.51V452.95z"/>
		<path d="M160.68,398.96h-11.53v11.53h11.53V398.96z M151.24,401.04h2.51l-2.51,2.51V401.04z M151.24,408.4v-2.51l2.51,2.51H151.24
			z M153.02,404.72l1.9-1.9l1.9,1.9l-1.9,1.9L153.02,404.72z M158.6,408.4h-2.51l2.51-2.51V408.4z M158.6,403.56l-2.51-2.51h2.51
			V403.56z"/>
		<path d="M176.37,414.65h-11.53v11.53h11.53V414.65z M166.93,416.73h2.51l-2.51,2.51V416.73z M166.93,424.09v-2.51l2.51,2.51
			H166.93z M168.71,420.41l1.9-1.9l1.9,1.9l-1.9,1.9L168.71,420.41z M174.28,424.09h-2.51l2.51-2.51V424.09z M174.28,419.24
			l-2.51-2.51h2.51V419.24z"/>
		<path d="M221.73,248.75l-10.78-10.78l-10.78,10.78l10.78,10.78L221.73,248.75z M210.95,242.44l6.31,6.31l-6.31,6.31l-6.31-6.31
			L210.95,242.44z"/>
		<circle cx="210.95" cy="248.75" r="2.44"/>
		<path d="M206.09,237.85c1.35,0,2.44-1.09,2.44-2.44c0-1.34-1.09-2.44-2.44-2.44c-1.34,0-2.44,1.09-2.44,2.44
			C203.66,236.76,204.75,237.85,206.09,237.85z"/>
		<path d="M210.97,237.85c1.34,0,2.44-1.09,2.44-2.44c0-1.34-1.09-2.44-2.44-2.44s-2.44,1.09-2.44,2.44
			C208.53,236.76,209.62,237.85,210.97,237.85z"/>
		<circle cx="210.97" cy="230.54" r="2.44"/>
		<path d="M215.84,237.85c1.34,0,2.44-1.09,2.44-2.44c0-1.34-1.09-2.44-2.44-2.44s-2.44,1.09-2.44,2.44
			C213.4,236.76,214.49,237.85,215.84,237.85z"/>
		<circle cx="224.26" cy="253.58" r="2.44"/>
		<path d="M226.7,248.71c0-1.34-1.09-2.44-2.44-2.44c-1.34,0-2.44,1.09-2.44,2.44c0,1.35,1.09,2.44,2.44,2.44
			C225.61,251.15,226.7,250.06,226.7,248.71z"/>
		<path d="M229.13,251.15c1.34,0,2.44-1.09,2.44-2.44c0-1.34-1.09-2.44-2.44-2.44s-2.44,1.09-2.44,2.44
			C226.7,250.06,227.79,251.15,229.13,251.15z"/>
		<circle cx="224.26" cy="243.84" r="2.44"/>
		<circle cx="197.63" cy="253.58" r="2.44"/>
		<path d="M197.63,251.15c1.34,0,2.44-1.09,2.44-2.44c0-1.34-1.09-2.44-2.44-2.44c-1.35,0-2.44,1.09-2.44,2.44
			C195.19,250.06,196.28,251.15,197.63,251.15z"/>
		<path d="M192.76,251.15c1.34,0,2.44-1.09,2.44-2.44c0-1.34-1.09-2.44-2.44-2.44s-2.44,1.09-2.44,2.44
			C190.32,250.06,191.41,251.15,192.76,251.15z"/>
		<circle cx="197.63" cy="243.84" r="2.44"/>
		<path d="M81.43,389.05l-10.78-10.78l-10.78,10.78l10.78,10.78L81.43,389.05z M70.65,382.74l6.31,6.31l-6.31,6.31l-6.31-6.31
			L70.65,382.74z"/>
		<path d="M72.37,390.78c0.95-0.95,0.95-2.49,0-3.44c-0.95-0.95-2.49-0.95-3.44,0s-0.95,2.49,0,3.44
			C69.88,391.73,71.42,391.73,72.37,390.78z"/>
		<circle cx="57.31" cy="393.91" r="2.44"/>
		<circle cx="57.31" cy="389.03" r="2.44"/>
		<circle cx="52.44" cy="389.03" r="2.44"/>
		<path d="M59.74,384.16c0-1.35-1.09-2.44-2.44-2.44c-1.35,0-2.44,1.09-2.44,2.44c0,1.34,1.09,2.44,2.44,2.44
			C58.65,386.6,59.74,385.51,59.74,384.16z"/>
		<circle cx="75.48" cy="375.74" r="2.44"/>
		<circle cx="70.6" cy="375.74" r="2.44"/>
		<path d="M73.04,370.87c0-1.35-1.09-2.44-2.44-2.44c-1.35,0-2.44,1.09-2.44,2.44c0,1.34,1.09,2.44,2.44,2.44
			C71.95,373.3,73.04,372.21,73.04,370.87z"/>
		<circle cx="65.73" cy="375.74" r="2.44"/>
		<circle cx="75.48" cy="402.37" r="2.44"/>
		<circle cx="70.6" cy="402.37" r="2.44"/>
		<circle cx="70.6" cy="407.24" r="2.44"/>
		<circle cx="65.73" cy="402.37" r="2.44"/>
		<path d="M200.17,529.35l10.78,10.78l10.78-10.78l-10.78-10.78L200.17,529.35z M210.95,535.67l-6.31-6.31l6.31-6.31l6.31,6.31
			L210.95,535.67z"/>
		<path d="M209.22,527.63c-0.95,0.95-0.95,2.49,0,3.44s2.49,0.95,3.44,0s0.95-2.49,0-3.44
			C211.72,526.68,210.18,526.68,209.22,527.63z"/>
		<circle cx="215.8" cy="542.69" r="2.44"/>
		<circle cx="210.93" cy="542.69" r="2.44"/>
		<path d="M208.49,547.56c0,1.34,1.09,2.44,2.44,2.44c1.34,0,2.44-1.09,2.44-2.44c0-1.35-1.09-2.44-2.44-2.44
			C209.58,545.13,208.49,546.22,208.49,547.56z"/>
		<circle cx="206.06" cy="542.69" r="2.44"/>
		<circle cx="197.63" cy="524.52" r="2.44"/>
		<circle cx="197.63" cy="529.4" r="2.44"/>
		<circle cx="192.76" cy="529.4" r="2.44"/>
		<path d="M195.19,534.27c0,1.34,1.09,2.44,2.44,2.44c1.34,0,2.44-1.09,2.44-2.44c0-1.35-1.09-2.44-2.44-2.44
			C196.28,531.83,195.19,532.92,195.19,534.27z"/>
		<circle cx="224.26" cy="524.52" r="2.44"/>
		<circle cx="224.26" cy="529.4" r="2.44"/>
		<circle cx="229.13" cy="529.4" r="2.44"/>
		<path d="M221.83,534.27c0,1.34,1.09,2.44,2.44,2.44c1.35,0,2.44-1.09,2.44-2.44c0-1.35-1.09-2.44-2.44-2.44
			C222.92,531.83,221.83,532.92,221.83,534.27z"/>
		<path d="M340.47,389.05l10.78,10.78l10.78-10.78l-10.78-10.78L340.47,389.05z M351.25,395.37l-6.31-6.31l6.31-6.31l6.31,6.31
			L351.25,395.37z"/>
		<path d="M349.52,390.78c0.95,0.95,2.49,0.95,3.44,0c0.95-0.95,0.95-2.49,0-3.44s-2.49-0.95-3.44,0S348.57,389.82,349.52,390.78z"
			/>
		<circle cx="364.59" cy="384.2" r="2.44"/>
		<circle cx="364.59" cy="389.07" r="2.44"/>
		<circle cx="369.46" cy="389.07" r="2.44"/>
		<circle cx="364.59" cy="393.94" r="2.44"/>
		<circle cx="346.42" cy="402.37" r="2.44"/>
		<circle cx="351.29" cy="402.37" r="2.44"/>
		<circle cx="351.29" cy="407.24" r="2.44"/>
		<circle cx="356.16" cy="402.37" r="2.44"/>
		<circle cx="346.42" cy="375.74" r="2.44"/>
		<circle cx="351.29" cy="375.74" r="2.44"/>
		<path d="M353.72,370.87c0-1.35-1.09-2.44-2.44-2.44s-2.44,1.09-2.44,2.44c0,1.34,1.09,2.44,2.44,2.44S353.72,372.21,353.72,370.87
			z"/>
		<circle cx="356.16" cy="375.74" r="2.44"/>
		<path d="M259.78,309.81v14.9h14.9v-14.9H259.78z M271.6,321.62h-8.72v-8.73h8.72V321.62z"/>
		<path d="M267.23,319.64c1.31,0,2.38-1.07,2.38-2.38c0-1.31-1.07-2.38-2.38-2.38s-2.38,1.07-2.38,2.38
			C264.85,318.58,265.92,319.64,267.23,319.64z"/>
		<path d="M274.79,306.37c0.93-0.93,0.93-2.44,0-3.37c-0.93-0.93-2.44-0.93-3.37,0s-0.93,2.44,0,3.37S273.86,307.3,274.79,306.37z"
			/>
		<path d="M274.79,309.74c0.93,0.93,2.44,0.93,3.37,0c0.93-0.93,0.93-2.44,0-3.37s-2.44-0.93-3.37,0
			C273.86,307.3,273.86,308.81,274.79,309.74z"/>
		<circle cx="279.83" cy="304.69" r="2.38"/>
		<path d="M278.15,313.1c0.93,0.93,2.44,0.93,3.37,0s0.93-2.44,0-3.37c-0.93-0.93-2.44-0.93-3.37,0
			C277.22,310.67,277.22,312.17,278.15,313.1z"/>
		<path d="M275.29,325.32v14.9h14.9v-14.9H275.29z M287.1,337.13h-8.73v-8.73h8.73V337.13z"/>
		<path d="M282.74,335.15c1.31,0,2.38-1.07,2.38-2.38c0-1.31-1.07-2.38-2.38-2.38s-2.38,1.07-2.38,2.38
			C280.36,334.08,281.42,335.15,282.74,335.15z"/>
		<path d="M290.29,321.88c0.93-0.93,0.93-2.44,0-3.37s-2.44-0.93-3.37,0c-0.93,0.93-0.93,2.44,0,3.37
			C287.85,322.81,289.36,322.81,290.29,321.88z"/>
		<path d="M290.29,325.24c0.93,0.93,2.44,0.93,3.37,0s0.93-2.44,0-3.37c-0.93-0.93-2.44-0.93-3.37,0
			C289.36,322.81,289.36,324.31,290.29,325.24z"/>
		<path d="M297.02,321.88c0.93-0.93,0.93-2.44,0-3.37s-2.44-0.93-3.37,0s-0.93,2.44,0,3.37
			C294.59,322.81,296.09,322.81,297.02,321.88z"/>
		<circle cx="295.34" cy="326.93" r="2.38"/>
		<path d="M290.79,340.82v14.9h14.9v-14.9H290.79z M302.61,352.63h-8.73v-8.73h8.73V352.63z"/>
		<path d="M298.24,350.65c1.31,0,2.38-1.07,2.38-2.38c0-1.31-1.07-2.38-2.38-2.38s-2.38,1.07-2.38,2.38
			C295.86,349.59,296.93,350.65,298.24,350.65z"/>
		<path d="M305.79,337.38c0.93-0.93,0.93-2.44,0-3.37c-0.93-0.93-2.44-0.93-3.37,0c-0.93,0.93-0.93,2.44,0,3.37
			S304.87,338.31,305.79,337.38z"/>
		<circle cx="307.48" cy="339.06" r="2.38"/>
		<path d="M312.53,337.38c0.93-0.93,0.93-2.44,0-3.37c-0.93-0.93-2.44-0.93-3.37,0c-0.93,0.93-0.93,2.44,0,3.37
			S311.6,338.31,312.53,337.38z"/>
		<path d="M309.16,344.11c0.93,0.93,2.44,0.93,3.37,0c0.93-0.93,0.93-2.44,0-3.37s-2.44-0.93-3.37,0S308.23,343.18,309.16,344.11z"
			/>
		<path d="M306.3,356.33v14.9h14.9v-14.9H306.3z M318.11,368.14h-8.73v-8.73h8.73V368.14z"/>
		<path d="M313.75,366.16c1.32,0,2.38-1.07,2.38-2.38s-1.07-2.38-2.38-2.38c-1.31,0-2.38,1.07-2.38,2.38
			S312.43,366.16,313.75,366.16z"/>
		<circle cx="319.62" cy="351.2" r="2.38"/>
		<path d="M321.3,356.25c0.93,0.93,2.44,0.93,3.37,0c0.93-0.93,0.93-2.44,0-3.37s-2.44-0.93-3.37,0S320.37,355.32,321.3,356.25z"/>
		<circle cx="326.35" cy="351.2" r="2.38"/>
		<path d="M324.67,359.62c0.93,0.93,2.44,0.93,3.37,0s0.93-2.44,0-3.37c-0.93-0.93-2.44-0.93-3.37,0
			C323.74,357.18,323.74,358.69,324.67,359.62z"/>
		<path d="M244.28,294.31v14.9h14.9v-14.9H244.28z M256.09,306.12h-8.72v-8.73h8.72V306.12z"/>
		<path d="M251.73,304.14c1.31,0,2.38-1.07,2.38-2.38c0-1.31-1.07-2.38-2.38-2.38s-2.38,1.07-2.38,2.38
			C249.35,303.07,250.42,304.14,251.73,304.14z"/>
		<path d="M262.62,297.57c0.93,0.93,2.44,0.93,3.37,0c0.93-0.93,0.93-2.44,0-3.37c-0.93-0.93-2.44-0.93-3.37,0
			S261.69,296.64,262.62,297.57z"/>
		<path d="M259.25,294.21c0.93,0.93,2.44,0.93,3.37,0s0.93-2.44,0-3.37c-0.93-0.93-2.44-0.93-3.37,0
			C258.32,291.77,258.32,293.28,259.25,294.21z"/>
		<path d="M265.99,290.84c0.93-0.93,0.93-2.44,0-3.37c-0.93-0.93-2.44-0.93-3.37,0c-0.93,0.93-0.93,2.44,0,3.37
			C263.55,291.77,265.06,291.77,265.99,290.84z"/>
		<path d="M259.25,290.84c0.93-0.93,0.93-2.44,0-3.37c-0.93-0.93-2.44-0.93-3.37,0c-0.93,0.93-0.93,2.44,0,3.37
			C256.82,291.77,258.32,291.77,259.25,290.84z"/>
		<path d="M228.77,278.8v14.9h14.9v-14.9H228.77z M240.59,290.61h-8.73v-8.73h8.73V290.61z"/>
		<path d="M236.22,288.63c1.31,0,2.38-1.07,2.38-2.38c0-1.31-1.07-2.38-2.38-2.38s-2.38,1.07-2.38,2.38
			C233.84,287.57,234.91,288.63,236.22,288.63z"/>
		<path d="M247.11,282.07c0.93,0.93,2.44,0.93,3.37,0s0.93-2.44,0-3.37c-0.93-0.93-2.44-0.93-3.37,0
			C246.18,279.63,246.18,281.14,247.11,282.07z"/>
		<path d="M243.75,278.7c0.93,0.93,2.44,0.93,3.37,0c0.93-0.93,0.93-2.44,0-3.37c-0.93-0.93-2.44-0.93-3.37,0
			C242.82,276.26,242.82,277.77,243.75,278.7z"/>
		<path d="M250.48,275.33c0.93-0.93,0.93-2.44,0-3.37s-2.44-0.93-3.37,0s-0.93,2.44,0,3.37
			C248.04,276.26,249.55,276.26,250.48,275.33z"/>
		<path d="M243.75,275.33c0.93-0.93,0.93-2.44,0-3.37s-2.44-0.93-3.37,0s-0.93,2.44,0,3.37
			C241.31,276.26,242.82,276.26,243.75,275.33z"/>
		<path d="M213.27,263.3v14.9h14.9v-14.9H213.27z M225.08,275.11h-8.73v-8.73h8.73V275.11z"/>
		<path d="M220.72,273.13c1.31,0,2.38-1.07,2.38-2.38c0-1.31-1.07-2.38-2.38-2.38c-1.32,0-2.38,1.07-2.38,2.38
			C218.34,272.06,219.4,273.13,220.72,273.13z"/>
		<path d="M231.61,266.56c0.93,0.93,2.44,0.93,3.37,0c0.93-0.93,0.93-2.44,0-3.37c-0.93-0.93-2.44-0.93-3.37,0
			C230.68,264.12,230.68,265.63,231.61,266.56z"/>
		<path d="M228.24,259.83c-0.93,0.93-0.93,2.44,0,3.37c0.93,0.93,2.44,0.93,3.37,0c0.93-0.93,0.93-2.44,0-3.37
			S229.17,258.9,228.24,259.83z"/>
		<path d="M231.61,259.83c0.93,0.93,2.44,0.93,3.37,0s0.93-2.44,0-3.37c-0.93-0.93-2.44-0.93-3.37,0
			C230.68,257.39,230.68,258.9,231.61,259.83z"/>
		<path d="M228.24,256.46c-0.93-0.93-2.44-0.93-3.37,0c-0.93,0.93-0.93,2.44,0,3.37s2.44,0.93,3.37,0S229.17,257.39,228.24,256.46z"
			/>
		<path d="M336.71,371.83h-14.9v14.9h14.9V371.83z M333.62,383.64h-8.73v-8.73h8.73V383.64z"/>
		<path d="M329.25,381.66c1.31,0,2.38-1.07,2.38-2.38s-1.07-2.38-2.38-2.38c-1.32,0-2.38,1.07-2.38,2.38
			S327.94,381.66,329.25,381.66z"/>
		<path d="M336.8,368.39c0.93-0.93,0.93-2.44,0-3.37s-2.44-0.93-3.37,0s-0.93,2.44,0,3.37C334.37,369.32,335.88,369.32,336.8,368.39
			z"/>
		<path d="M336.8,371.76c0.93,0.93,2.44,0.93,3.37,0s0.93-2.44,0-3.37c-0.93-0.93-2.44-0.93-3.37,0
			C335.88,369.32,335.88,370.83,336.8,371.76z"/>
		<path d="M343.54,368.39c0.93-0.93,0.93-2.44,0-3.37s-2.44-0.93-3.37,0s-0.93,2.44,0,3.37
			C341.1,369.32,342.61,369.32,343.54,368.39z"/>
		<circle cx="341.85" cy="373.44" r="2.38"/>
		<path d="M131.7,325.32v14.9h14.9v-14.9H131.7z M143.52,337.13h-8.73v-8.73h8.73V337.13z"/>
		<path d="M139.15,335.15c1.31,0,2.38-1.07,2.38-2.38c0-1.31-1.07-2.38-2.38-2.38s-2.38,1.07-2.38,2.38
			C136.77,334.08,137.84,335.15,139.15,335.15z"/>
		<path d="M124.9,325.22c-0.93,0.93-0.93,2.44,0,3.37c0.93,0.93,2.44,0.93,3.37,0c0.93-0.93,0.93-2.44,0-3.37
			C127.33,324.29,125.83,324.29,124.9,325.22z"/>
		<path d="M131.63,325.22c0.93-0.93,0.93-2.44,0-3.37c-0.93-0.93-2.44-0.93-3.37,0s-0.93,2.44,0,3.37
			C129.19,326.15,130.7,326.15,131.63,325.22z"/>
		<circle cx="126.58" cy="320.17" r="2.38"/>
		<path d="M135,321.85c0.93-0.93,0.93-2.44,0-3.37c-0.93-0.93-2.44-0.93-3.37,0c-0.93,0.93-0.93,2.44,0,3.37
			C132.56,322.78,134.07,322.78,135,321.85z"/>
		<path d="M147.21,309.81v14.9h14.9v-14.9H147.21z M159.02,321.62h-8.73v-8.73h8.73V321.62z"/>
		<path d="M154.66,319.64c1.31,0,2.38-1.07,2.38-2.38c0-1.31-1.07-2.38-2.38-2.38s-2.38,1.07-2.38,2.38
			C152.28,318.58,153.34,319.64,154.66,319.64z"/>
		<path d="M140.4,309.71c-0.93,0.93-0.93,2.44,0,3.37c0.93,0.93,2.44,0.93,3.37,0c0.93-0.93,0.93-2.44,0-3.37
			C142.84,308.78,141.33,308.78,140.4,309.71z"/>
		<path d="M147.14,309.71c0.93-0.93,0.93-2.44,0-3.37c-0.93-0.93-2.44-0.93-3.37,0c-0.93,0.93-0.93,2.44,0,3.37
			C144.7,310.64,146.21,310.64,147.14,309.71z"/>
		<path d="M143.77,302.98c-0.93-0.93-2.44-0.93-3.37,0c-0.93,0.93-0.93,2.44,0,3.37s2.44,0.93,3.37,0
			C144.7,305.41,144.7,303.91,143.77,302.98z"/>
		<path d="M150.5,306.34c0.93-0.93,0.93-2.44,0-3.37c-0.93-0.93-2.44-0.93-3.37,0c-0.93,0.93-0.93,2.44,0,3.37
			C148.06,307.27,149.57,307.27,150.5,306.34z"/>
		<path d="M162.71,294.31v14.9h14.9v-14.9H162.71z M174.53,306.12h-8.72v-8.73h8.72V306.12z"/>
		<path d="M170.16,304.14c1.31,0,2.38-1.07,2.38-2.38c0-1.31-1.07-2.38-2.38-2.38s-2.38,1.07-2.38,2.38
			C167.78,303.07,168.85,304.14,170.16,304.14z"/>
		<path d="M155.91,294.21c-0.93,0.93-0.93,2.44,0,3.37c0.93,0.93,2.44,0.93,3.37,0c0.93-0.93,0.93-2.44,0-3.37
			C158.34,293.28,156.84,293.28,155.91,294.21z"/>
		<path d="M162.64,294.21c0.93-0.93,0.93-2.44,0-3.37c-0.93-0.93-2.44-0.93-3.37,0c-0.93,0.93-0.93,2.44,0,3.37
			C160.2,295.14,161.71,295.14,162.64,294.21z"/>
		<path d="M159.27,287.47c-0.93-0.93-2.44-0.93-3.37,0c-0.93,0.93-0.93,2.44,0,3.37c0.93,0.93,2.44,0.93,3.37,0
			C160.2,289.91,160.2,288.4,159.27,287.47z"/>
		<path d="M166.01,290.84c0.93-0.93,0.93-2.44,0-3.37c-0.93-0.93-2.44-0.93-3.37,0c-0.93,0.93-0.93,2.44,0,3.37
			C163.57,291.77,165.08,291.77,166.01,290.84z"/>
		<path d="M178.22,278.8v14.9h14.9v-14.9H178.22z M190.03,290.61h-8.72v-8.73h8.72V290.61z"/>
		<path d="M185.67,288.63c1.31,0,2.38-1.07,2.38-2.38c0-1.31-1.07-2.38-2.38-2.38s-2.38,1.07-2.38,2.38
			C183.29,287.57,184.35,288.63,185.67,288.63z"/>
		<path d="M171.41,278.7c-0.93,0.93-0.93,2.44,0,3.37c0.93,0.93,2.44,0.93,3.37,0s0.93-2.44,0-3.37
			C173.85,277.77,172.34,277.77,171.41,278.7z"/>
		<path d="M178.15,278.7c0.93-0.93,0.93-2.44,0-3.37c-0.93-0.93-2.44-0.93-3.37,0c-0.93,0.93-0.93,2.44,0,3.37
			C175.71,279.63,177.22,279.63,178.15,278.7z"/>
		<path d="M174.78,271.97c-0.93-0.93-2.44-0.93-3.37,0c-0.93,0.93-0.93,2.44,0,3.37c0.93,0.93,2.44,0.93,3.37,0
			C175.71,274.4,175.71,272.9,174.78,271.97z"/>
		<path d="M181.51,275.33c0.93-0.93,0.93-2.44,0-3.37s-2.44-0.93-3.37,0s-0.93,2.44,0,3.37
			C179.08,276.26,180.58,276.26,181.51,275.33z"/>
		<path d="M116.2,340.82v14.9h14.9v-14.9H116.2z M128.01,352.63h-8.73v-8.73h8.73V352.63z"/>
		<path d="M123.65,350.65c1.31,0,2.38-1.07,2.38-2.38c0-1.31-1.07-2.38-2.38-2.38c-1.32,0-2.38,1.07-2.38,2.38
			C121.27,349.59,122.33,350.65,123.65,350.65z"/>
		<path d="M119.46,337.38c0.93-0.93,0.93-2.44,0-3.37c-0.93-0.93-2.44-0.93-3.37,0c-0.93,0.93-0.93,2.44,0,3.37
			S118.54,338.31,119.46,337.38z"/>
		<circle cx="114.42" cy="339.06" r="2.38"/>
		<path d="M112.73,334.01c-0.93-0.93-2.44-0.93-3.37,0c-0.93,0.93-0.93,2.44,0,3.37s2.44,0.93,3.37,0S113.66,334.94,112.73,334.01z"
			/>
		<path d="M109.37,340.75c-0.93,0.93-0.93,2.44,0,3.37c0.93,0.93,2.44,0.93,3.37,0c0.93-0.93,0.93-2.44,0-3.37
			S110.3,339.82,109.37,340.75z"/>
		<path d="M100.69,356.33v14.9h14.9v-14.9H100.69z M112.51,368.14h-8.73v-8.73h8.73V368.14z"/>
		<path d="M108.14,366.16c1.32,0,2.38-1.07,2.38-2.38s-1.07-2.38-2.38-2.38c-1.31,0-2.38,1.07-2.38,2.38
			S106.83,366.16,108.14,366.16z"/>
		<circle cx="102.28" cy="351.2" r="2.38"/>
		<path d="M100.59,356.25c0.93-0.93,0.93-2.44,0-3.37s-2.44-0.93-3.37,0s-0.93,2.44,0,3.37C98.16,357.18,99.66,357.18,100.59,356.25
			z"/>
		<circle cx="95.54" cy="351.2" r="2.38"/>
		<path d="M93.86,356.25c-0.93,0.93-0.93,2.44,0,3.37s2.44,0.93,3.37,0s0.93-2.44,0-3.37C96.3,355.32,94.79,355.32,93.86,356.25z"/>
		<path d="M100.09,371.83h-14.9v14.9h14.9V371.83z M97,383.64h-8.73v-8.73H97V383.64z"/>
		<path d="M92.64,381.66c1.31,0,2.38-1.07,2.38-2.38s-1.07-2.38-2.38-2.38s-2.38,1.07-2.38,2.38S91.32,381.66,92.64,381.66z"/>
		<path d="M88.46,368.39c0.93-0.93,0.93-2.44,0-3.37s-2.44-0.93-3.37,0s-0.93,2.44,0,3.37C86.02,369.32,87.53,369.32,88.46,368.39z"
			/>
		<path d="M85.09,371.76c0.93-0.93,0.93-2.44,0-3.37c-0.93-0.93-2.44-0.93-3.37,0c-0.93,0.93-0.93,2.44,0,3.37
			S84.16,372.69,85.09,371.76z"/>
		<path d="M81.72,365.02c-0.93-0.93-2.44-0.93-3.37,0c-0.93,0.93-0.93,2.44,0,3.37c0.93,0.93,2.44,0.93,3.37,0
			C82.65,367.46,82.65,365.95,81.72,365.02z"/>
		<path d="M78.36,371.76c-0.93,0.93-0.93,2.44,0,3.37c0.93,0.93,2.44,0.93,3.37,0s0.93-2.44,0-3.37S79.29,370.83,78.36,371.76z"/>
		<path d="M193.72,263.3v14.9h14.9v-14.9H193.72z M205.54,275.11h-8.73v-8.73h8.73V275.11z"/>
		<path d="M201.17,273.13c1.31,0,2.38-1.07,2.38-2.38c0-1.31-1.07-2.38-2.38-2.38s-2.38,1.07-2.38,2.38
			C198.79,272.06,199.86,273.13,201.17,273.13z"/>
		<path d="M186.92,263.2c-0.93,0.93-0.93,2.44,0,3.37c0.93,0.93,2.44,0.93,3.37,0c0.93-0.93,0.93-2.44,0-3.37
			C189.35,262.27,187.85,262.27,186.92,263.2z"/>
		<path d="M193.65,263.2c0.93-0.93,0.93-2.44,0-3.37s-2.44-0.93-3.37,0s-0.93,2.44,0,3.37C191.21,264.12,192.72,264.12,193.65,263.2
			z"/>
		<path d="M190.28,256.46c-0.93-0.93-2.44-0.93-3.37,0c-0.93,0.93-0.93,2.44,0,3.37s2.44,0.93,3.37,0S191.21,257.39,190.28,256.46z"
			/>
		<path d="M197.02,259.83c0.93-0.93,0.93-2.44,0-3.37c-0.93-0.93-2.44-0.93-3.37,0c-0.93,0.93-0.93,2.44,0,3.37
			S196.09,260.76,197.02,259.83z"/>
		<path d="M162.11,468.3v-14.9h-14.9v14.9H162.11z M150.3,456.48h8.73v8.73h-8.73V456.48z"/>
		<path d="M154.66,458.47c-1.31,0-2.38,1.07-2.38,2.38s1.07,2.38,2.38,2.38s2.38-1.07,2.38-2.38S155.97,458.47,154.66,458.47z"/>
		<path d="M147.11,471.74c-0.93,0.93-0.93,2.44,0,3.37s2.44,0.93,3.37,0c0.93-0.93,0.93-2.44,0-3.37
			C149.55,470.81,148.04,470.81,147.11,471.74z"/>
		<path d="M147.11,468.37c-0.93-0.93-2.44-0.93-3.37,0c-0.93,0.93-0.93,2.44,0,3.37s2.44,0.93,3.37,0S148.04,469.3,147.11,468.37z"
			/>
		<circle cx="142.06" cy="473.42" r="2.38"/>
		<path d="M143.74,465c-0.93-0.93-2.44-0.93-3.37,0s-0.93,2.44,0,3.37c0.93,0.93,2.44,0.93,3.37,0
			C144.67,467.44,144.67,465.93,143.74,465z"/>
		<path d="M146.6,452.79v-14.9h-14.9v14.9H146.6z M134.79,440.98h8.73v8.73h-8.73V440.98z"/>
		<path d="M139.15,442.96c-1.31,0-2.38,1.07-2.38,2.38c0,1.31,1.07,2.38,2.38,2.38s2.38-1.07,2.38-2.38
			C141.53,444.03,140.47,442.96,139.15,442.96z"/>
		<path d="M131.6,456.23c-0.93,0.93-0.93,2.44,0,3.37s2.44,0.93,3.37,0s0.93-2.44,0-3.37C134.04,455.3,132.53,455.3,131.6,456.23z"
			/>
		<path d="M131.6,452.86c-0.93-0.93-2.44-0.93-3.37,0s-0.93,2.44,0,3.37c0.93,0.93,2.44,0.93,3.37,0
			C132.53,455.3,132.53,453.79,131.6,452.86z"/>
		<path d="M124.87,456.23c-0.93,0.93-0.93,2.44,0,3.37s2.44,0.93,3.37,0s0.93-2.44,0-3.37C127.31,455.3,125.8,455.3,124.87,456.23z"
			/>
		<circle cx="126.55" cy="451.18" r="2.38"/>
		<path d="M131.1,437.29v-14.9h-14.9v14.9H131.1z M119.29,425.47h8.73v8.73h-8.73V425.47z"/>
		<path d="M123.65,427.46c-1.32,0-2.38,1.07-2.38,2.38c0,1.31,1.07,2.38,2.38,2.38c1.31,0,2.38-1.07,2.38-2.38
			C126.03,428.52,124.96,427.46,123.65,427.46z"/>
		<path d="M116.1,440.73c-0.93,0.93-0.93,2.44,0,3.37c0.93,0.93,2.44,0.93,3.37,0c0.93-0.93,0.93-2.44,0-3.37
			S117.03,439.8,116.1,440.73z"/>
		<circle cx="114.42" cy="439.04" r="2.38"/>
		<path d="M109.37,440.73c-0.93,0.93-0.93,2.44,0,3.37c0.93,0.93,2.44,0.93,3.37,0c0.93-0.93,0.93-2.44,0-3.37
			S110.3,439.8,109.37,440.73z"/>
		<circle cx="111.05" cy="435.68" r="2.38"/>
		<path d="M115.59,421.78v-14.9h-14.9v14.9H115.59z M103.78,409.97h8.73v8.73h-8.73V409.97z"/>
		<path d="M108.14,411.95c-1.31,0-2.38,1.07-2.38,2.38c0,1.31,1.07,2.38,2.38,2.38c1.32,0,2.38-1.07,2.38-2.38
			C110.52,413.02,109.46,411.95,108.14,411.95z"/>
		<circle cx="102.28" cy="426.9" r="2.38"/>
		<circle cx="98.91" cy="423.54" r="2.38"/>
		<circle cx="95.54" cy="426.9" r="2.38"/>
		<path d="M97.23,418.49c-0.93-0.93-2.44-0.93-3.37,0c-0.93,0.93-0.93,2.44,0,3.37s2.44,0.93,3.37,0S98.16,419.42,97.23,418.49z"/>
		<path d="M177.61,483.8v-14.9h-14.9v14.9H177.61z M165.8,471.99h8.72v8.73h-8.72V471.99z"/>
		<path d="M170.16,473.97c-1.31,0-2.38,1.07-2.38,2.38c0,1.31,1.07,2.38,2.38,2.38s2.38-1.07,2.38-2.38
			C172.54,475.04,171.48,473.97,170.16,473.97z"/>
		<path d="M159.27,480.54c-0.93-0.93-2.44-0.93-3.37,0c-0.93,0.93-0.93,2.44,0,3.37c0.93,0.93,2.44,0.93,3.37,0
			C160.2,482.97,160.2,481.46,159.27,480.54z"/>
		<path d="M162.64,483.9c-0.93-0.93-2.44-0.93-3.37,0c-0.93,0.93-0.93,2.44,0,3.37c0.93,0.93,2.44,0.93,3.37,0
			C163.57,486.34,163.57,484.83,162.64,483.9z"/>
		<path d="M155.91,487.27c-0.93,0.93-0.93,2.44,0,3.37c0.93,0.93,2.44,0.93,3.37,0c0.93-0.93,0.93-2.44,0-3.37
			C158.34,486.34,156.84,486.34,155.91,487.27z"/>
		<path d="M162.64,487.27c-0.93,0.93-0.93,2.44,0,3.37s2.44,0.93,3.37,0s0.93-2.44,0-3.37
			C165.08,486.34,163.57,486.34,162.64,487.27z"/>
		<path d="M193.12,499.31v-14.9h-14.9v14.9H193.12z M181.31,487.49h8.72v8.73h-8.72V487.49z"/>
		<path d="M185.67,489.48c-1.31,0-2.38,1.07-2.38,2.38c0,1.31,1.07,2.38,2.38,2.38s2.38-1.07,2.38-2.38
			C188.05,490.54,186.98,489.48,185.67,489.48z"/>
		<path d="M174.78,496.04c-0.93-0.93-2.44-0.93-3.37,0c-0.93,0.93-0.93,2.44,0,3.37c0.93,0.93,2.44,0.93,3.37,0
			C175.71,498.48,175.71,496.97,174.78,496.04z"/>
		<path d="M178.15,499.41c-0.93-0.93-2.44-0.93-3.37,0c-0.93,0.93-0.93,2.44,0,3.37s2.44,0.93,3.37,0S179.08,500.34,178.15,499.41z"
			/>
		<path d="M171.41,502.77c-0.93,0.93-0.93,2.44,0,3.37c0.93,0.93,2.44,0.93,3.37,0s0.93-2.44,0-3.37S172.34,501.84,171.41,502.77z"
			/>
		<circle cx="179.83" cy="504.46" r="2.38"/>
		<path d="M208.62,514.81v-14.9h-14.9v14.9H208.62z M196.81,503h8.73v8.73h-8.73V503z"/>
		<path d="M201.17,504.98c-1.31,0-2.38,1.07-2.38,2.38c0,1.31,1.07,2.38,2.38,2.38s2.38-1.07,2.38-2.38
			C203.55,506.05,202.49,504.98,201.17,504.98z"/>
		<path d="M190.28,511.55c-0.93-0.93-2.44-0.93-3.37,0c-0.93,0.93-0.93,2.44,0,3.37s2.44,0.93,3.37,0S191.21,512.47,190.28,511.55z"
			/>
		<circle cx="191.97" cy="516.59" r="2.38"/>
		<path d="M190.28,518.28c-0.93-0.93-2.44-0.93-3.37,0s-0.93,2.44,0,3.37c0.93,0.93,2.44,0.93,3.37,0
			C191.21,520.71,191.21,519.21,190.28,518.28z"/>
		<path d="M193.65,521.64c0.93,0.93,2.44,0.93,3.37,0c0.93-0.93,0.93-2.44,0-3.37s-2.44-0.93-3.37,0S192.72,520.71,193.65,521.64z"
			/>
		<path d="M85.19,406.28h14.9v-14.9h-14.9V406.28z M88.28,394.46H97v8.73h-8.73V394.46z"/>
		<path d="M92.64,396.45c-1.31,0-2.38,1.07-2.38,2.38s1.07,2.38,2.38,2.38s2.38-1.07,2.38-2.38S93.95,396.45,92.64,396.45z"/>
		<circle cx="86.77" cy="411.4" r="2.38"/>
		<path d="M85.09,406.35c-0.93-0.93-2.44-0.93-3.37,0c-0.93,0.93-0.93,2.44,0,3.37s2.44,0.93,3.37,0S86.02,407.28,85.09,406.35z"/>
		<path d="M78.36,409.72c-0.93,0.93-0.93,2.44,0,3.37c0.93,0.93,2.44,0.93,3.37,0s0.93-2.44,0-3.37S79.29,408.79,78.36,409.72z"/>
		<path d="M81.72,402.98c-0.93-0.93-2.44-0.93-3.37,0c-0.93,0.93-0.93,2.44,0,3.37c0.93,0.93,2.44,0.93,3.37,0
			C82.65,405.42,82.65,403.91,81.72,402.98z"/>
		<path d="M290.19,452.79v-14.9h-14.9v14.9H290.19z M278.38,440.98h8.73v8.73h-8.73V440.98z"/>
		<path d="M282.74,442.96c-1.31,0-2.38,1.07-2.38,2.38c0,1.31,1.07,2.38,2.38,2.38s2.38-1.07,2.38-2.38
			C285.12,444.03,284.05,442.96,282.74,442.96z"/>
		<path d="M297,452.89c0.93-0.93,0.93-2.44,0-3.37c-0.93-0.93-2.44-0.93-3.37,0c-0.93,0.93-0.93,2.44,0,3.37
			C294.56,453.82,296.07,453.82,297,452.89z"/>
		<path d="M290.26,452.89c-0.93,0.93-0.93,2.44,0,3.37c0.93,0.93,2.44,0.93,3.37,0c0.93-0.93,0.93-2.44,0-3.37
			C292.7,451.96,291.19,451.96,290.26,452.89z"/>
		<path d="M293.63,459.62c0.93,0.93,2.44,0.93,3.37,0c0.93-0.93,0.93-2.44,0-3.37s-2.44-0.93-3.37,0
			C292.7,457.19,292.7,458.69,293.63,459.62z"/>
		<path d="M286.9,456.26c-0.93,0.93-0.93,2.44,0,3.37c0.93,0.93,2.44,0.93,3.37,0c0.93-0.93,0.93-2.44,0-3.37
			C289.33,455.33,287.83,455.33,286.9,456.26z"/>
		<path d="M274.68,468.3v-14.9h-14.9v14.9H274.68z M262.87,456.48h8.72v8.73h-8.72V456.48z"/>
		<path d="M267.23,458.47c-1.31,0-2.38,1.07-2.38,2.38s1.07,2.38,2.38,2.38s2.38-1.07,2.38-2.38S268.55,458.47,267.23,458.47z"/>
		<path d="M281.49,468.4c0.93-0.93,0.93-2.44,0-3.37c-0.93-0.93-2.44-0.93-3.37,0c-0.93,0.93-0.93,2.44,0,3.37
			C279.05,469.33,280.56,469.33,281.49,468.4z"/>
		<path d="M274.76,468.4c-0.93,0.93-0.93,2.44,0,3.37c0.93,0.93,2.44,0.93,3.37,0c0.93-0.93,0.93-2.44,0-3.37
			C277.2,467.47,275.69,467.47,274.76,468.4z"/>
		<path d="M278.12,475.13c0.93,0.93,2.44,0.93,3.37,0c0.93-0.93,0.93-2.44,0-3.37c-0.93-0.93-2.44-0.93-3.37,0
			C277.2,472.69,277.2,474.2,278.12,475.13z"/>
		<path d="M271.39,471.76c-0.93,0.93-0.93,2.44,0,3.37s2.44,0.93,3.37,0s0.93-2.44,0-3.37
			C273.83,470.83,272.32,470.83,271.39,471.76z"/>
		<path d="M259.18,483.8v-14.9h-14.9v14.9H259.18z M247.37,471.99h8.72v8.73h-8.72V471.99z"/>
		<path d="M251.73,473.97c-1.31,0-2.38,1.07-2.38,2.38c0,1.31,1.07,2.38,2.38,2.38s2.38-1.07,2.38-2.38
			C254.11,475.04,253.04,473.97,251.73,473.97z"/>
		<path d="M265.99,483.9c0.93-0.93,0.93-2.44,0-3.37c-0.93-0.93-2.44-0.93-3.37,0s-0.93,2.44,0,3.37
			C263.55,484.83,265.06,484.83,265.99,483.9z"/>
		<path d="M259.25,483.9c-0.93,0.93-0.93,2.44,0,3.37c0.93,0.93,2.44,0.93,3.37,0c0.93-0.93,0.93-2.44,0-3.37
			C261.69,482.97,260.18,482.97,259.25,483.9z"/>
		<path d="M262.62,490.63c0.93,0.93,2.44,0.93,3.37,0c0.93-0.93,0.93-2.44,0-3.37c-0.93-0.93-2.44-0.93-3.37,0
			C261.69,488.2,261.69,489.7,262.62,490.63z"/>
		<path d="M255.89,487.27c-0.93,0.93-0.93,2.44,0,3.37s2.44,0.93,3.37,0s0.93-2.44,0-3.37
			C258.32,486.34,256.82,486.34,255.89,487.27z"/>
		<path d="M243.67,499.31v-14.9h-14.9v14.9H243.67z M231.86,487.49h8.73v8.73h-8.73V487.49z"/>
		<path d="M236.22,489.48c-1.31,0-2.38,1.07-2.38,2.38c0,1.31,1.07,2.38,2.38,2.38s2.38-1.07,2.38-2.38
			C238.6,490.54,237.54,489.48,236.22,489.48z"/>
		<path d="M250.48,499.41c0.93-0.93,0.93-2.44,0-3.37c-0.93-0.93-2.44-0.93-3.37,0c-0.93,0.93-0.93,2.44,0,3.37
			C248.04,500.34,249.55,500.34,250.48,499.41z"/>
		<path d="M243.75,499.41c-0.93,0.93-0.93,2.44,0,3.37s2.44,0.93,3.37,0s0.93-2.44,0-3.37
			C246.18,498.48,244.68,498.48,243.75,499.41z"/>
		<circle cx="248.8" cy="504.46" r="2.38"/>
		<circle cx="242.06" cy="504.46" r="2.38"/>
		<path d="M305.69,437.29v-14.9h-14.9v14.9H305.69z M293.88,425.47h8.73v8.73h-8.73V425.47z"/>
		<path d="M298.24,427.46c-1.31,0-2.38,1.07-2.38,2.38c0,1.31,1.07,2.38,2.38,2.38s2.38-1.07,2.38-2.38
			C300.62,428.52,299.56,427.46,298.24,427.46z"/>
		<path d="M302.43,440.73c-0.93,0.93-0.93,2.44,0,3.37c0.93,0.93,2.44,0.93,3.37,0c0.93-0.93,0.93-2.44,0-3.37
			S303.36,439.8,302.43,440.73z"/>
		<circle cx="307.48" cy="439.04" r="2.38"/>
		<path d="M309.16,444.09c0.93,0.93,2.44,0.93,3.37,0c0.93-0.93,0.93-2.44,0-3.37s-2.44-0.93-3.37,0S308.23,443.16,309.16,444.09z"
			/>
		<circle cx="310.84" cy="435.68" r="2.38"/>
		<path d="M321.2,421.78v-14.9h-14.9v14.9H321.2z M309.39,409.97h8.73v8.73h-8.73V409.97z"/>
		<path d="M313.75,411.95c-1.31,0-2.38,1.07-2.38,2.38c0,1.31,1.07,2.38,2.38,2.38c1.32,0,2.38-1.07,2.38-2.38
			C316.13,413.02,315.06,411.95,313.75,411.95z"/>
		<circle cx="319.62" cy="426.9" r="2.38"/>
		<circle cx="322.98" cy="423.54" r="2.38"/>
		<circle cx="326.35" cy="426.9" r="2.38"/>
		<path d="M328.03,421.85c0.93-0.93,0.93-2.44,0-3.37c-0.93-0.93-2.44-0.93-3.37,0c-0.93,0.93-0.93,2.44,0,3.37
			S327.1,422.78,328.03,421.85z"/>
		<path d="M336.71,391.38h-14.9v14.9h14.9V391.38z M333.62,403.19h-8.73v-8.73h8.73V403.19z"/>
		<path d="M329.25,401.21c1.31,0,2.38-1.07,2.38-2.38s-1.07-2.38-2.38-2.38c-1.32,0-2.38,1.07-2.38,2.38
			S327.94,401.21,329.25,401.21z"/>
		<circle cx="335.12" cy="411.4" r="2.38"/>
		<path d="M336.8,406.35c-0.93,0.93-0.93,2.44,0,3.37s2.44,0.93,3.37,0s0.93-2.44,0-3.37C339.24,405.42,337.73,405.42,336.8,406.35z
			"/>
		<circle cx="341.85" cy="411.4" r="2.38"/>
		<path d="M343.54,406.35c0.93-0.93,0.93-2.44,0-3.37s-2.44-0.93-3.37,0s-0.93,2.44,0,3.37
			C341.1,407.28,342.61,407.28,343.54,406.35z"/>
		<path d="M228.17,514.81v-14.9h-14.9v14.9H228.17z M216.36,503h8.73v8.73h-8.73V503z"/>
		<path d="M220.72,504.98c-1.32,0-2.38,1.07-2.38,2.38c0,1.31,1.07,2.38,2.38,2.38c1.31,0,2.38-1.07,2.38-2.38
			C223.1,506.05,222.03,504.98,220.72,504.98z"/>
		<path d="M234.98,514.91c0.93-0.93,0.93-2.44,0-3.37c-0.93-0.93-2.44-0.93-3.37,0c-0.93,0.93-0.93,2.44,0,3.37
			S234.05,515.84,234.98,514.91z"/>
		<circle cx="229.93" cy="516.59" r="2.38"/>
		<path d="M231.61,521.64c0.93,0.93,2.44,0.93,3.37,0c0.93-0.93,0.93-2.44,0-3.37s-2.44-0.93-3.37,0S230.68,520.71,231.61,521.64z"
			/>
		<path d="M224.88,518.28c-0.93,0.93-0.93,2.44,0,3.37c0.93,0.93,2.44,0.93,3.37,0c0.93-0.93,0.93-2.44,0-3.37
			S225.81,517.35,224.88,518.28z"/>
		<path d="M210.95,288.29L110.18,389.05l100.76,100.76l100.76-100.76L210.95,288.29z M114.43,389.05l96.52-96.52l96.52,96.52
			l-96.52,96.52L114.43,389.05z"/>
		<path d="M210.95,276.85l-112.2,112.2l112.2,112.2l112.2-112.2L210.95,276.85z M102.99,389.05l107.96-107.96l107.96,107.96
			L210.95,497.01L102.99,389.05z"/>
	</g>
</g>
<g>
</g>
<g>
</g>
<g>
</g>
<g>
</g>
<g>
</g>
<g>
</g>
<g>
</g>
<g>
</g>
<g>
</g>
<g>
</g>
<g>
</g>
<g>
</g>
<g>
</g>
<g>
</g>
<g>
</g>
</svg>
