<?xml version="1.0" encoding="utf-8"?>
<!-- Generator: Adobe Illustrator 27.2.0, SVG Export Plug-In . SVG Version: 6.00 Build 0)  -->
<svg version="1.1" id="Layer_1" xmlns="http://www.w3.org/2000/svg" xmlns:xlink="http://www.w3.org/1999/xlink" x="0px" y="0px"
	 viewBox="0 0 800 600" style="enable-background:new 0 0 800 600;" xml:space="preserve">
<g>
	<g>
		<path d="M130.77,459.85l-1.24,1.24l0.53,0.53l1.24-1.24l0.34,0.34l-1.24,1.24l0.53,0.53l1.24-1.24l0.03,0.03v0.03l0.01-0.01
			l0.01,0.01v-0.03l0.03-0.03l1.24,1.24l0.53-0.53l-1.24-1.24l0.34-0.34l1.24,1.24l0.53-0.53l-1.24-1.24l0.34-0.34l1.24,1.24
			l0.53-0.53l-1.24-1.24l0.34-0.34l1.24,1.24l0.53-0.53l-1.24-1.24l0.34-0.34l1.24,1.24l0.53-0.53l-1.24-1.24l0.34-0.34l1.24,1.24
			l0.53-0.53l-1.24-1.24l0.34-0.34l1.24,1.24l0.53-0.53l-1.24-1.24l0.34-0.34l1.24,1.24l0.53-0.53l-1.24-1.24l0.34-0.34l1.24,1.24
			l0.53-0.53l-1.24-1.24l0.34-0.34l1.24,1.24l0.53-0.53l-1.24-1.24l0.34-0.34l1.24,1.24l0.53-0.53l-1.24-1.24l0.34-0.34l1.24,1.24
			l0.53-0.53l-1.24-1.24l0.34-0.34l1.24,1.24l0.53-0.53l-1.24-1.24l0.34-0.34l1.24,1.24l0.53-0.53l-1.24-1.24l0.34-0.34l1.24,1.24
			l0.53-0.53l-1.24-1.24l0.34-0.34l1.24,1.24l0.53-0.53l-1.24-1.24l0.34-0.34l1.24,1.24l0.53-0.53l-1.24-1.24l0.34-0.34l1.24,1.24
			l0.53-0.53l-1.24-1.24l0.34-0.34l1.24,1.24l0.53-0.53l-1.24-1.24l0.34-0.34l1.24,1.24l0.53-0.53l-1.24-1.24l0.34-0.34l1.24,1.24
			l0.53-0.53l-1.24-1.24l0.34-0.34l1.24,1.24l0.53-0.53l-1.24-1.24l0.09-0.09l-0.09-0.09l1.24-1.24l-0.53-0.53l-1.24,1.24
			l-0.34-0.34l1.24-1.24l-0.53-0.53l-1.24,1.24l-0.34-0.34l1.24-1.24l-0.53-0.53l-1.24,1.24l-0.34-0.34l1.24-1.24l-0.53-0.53
			l-1.24,1.24l-0.34-0.34l1.24-1.24l-0.53-0.53l-1.24,1.24l-0.34-0.34l1.24-1.24l-0.53-0.53l-1.24,1.24l-0.34-0.34l1.24-1.24
			l-0.53-0.53l-1.24,1.24l-0.34-0.34l1.24-1.24l-0.53-0.53l-1.24,1.24l-0.34-0.34l1.24-1.24l-0.53-0.53l-1.24,1.24l-0.34-0.34
			l1.24-1.24l-0.53-0.53l-1.24,1.24l-0.34-0.34l1.24-1.24l-0.53-0.53l-1.24,1.24l-0.34-0.34l1.24-1.24l-0.53-0.53l-1.24,1.24
			l-0.34-0.34l1.24-1.24l-0.53-0.53l-1.24,1.24l-0.34-0.34l1.24-1.24l-0.53-0.53l-1.24,1.24l-0.34-0.34l1.24-1.24l-0.53-0.53
			l-1.24,1.24l-0.34-0.34l1.24-1.24l-0.53-0.53l-1.24,1.24l-0.34-0.34l1.24-1.24l-0.53-0.53l-1.24,1.24l-0.34-0.34l1.24-1.24
			l-0.53-0.53l-1.24,1.24l-0.34-0.34l1.24-1.24l-0.53-0.53l-1.24,1.24l-0.34-0.34l1.24-1.24l-0.53-0.53l-1.24,1.24l-0.34-0.34
			l1.24-1.24l-0.53-0.53l-1.24,1.24l-0.34-0.34l1.24-1.24l-0.53-0.53l-1.24,1.24l-0.03-0.03v-0.03l-0.01,0.01l-0.01-0.01v0.03
			l-0.03,0.03l-1.24-1.24l-0.53,0.53l1.24,1.24l-0.34,0.34l-1.24-1.24l-0.53,0.53l1.24,1.24l-0.34,0.34l-1.24-1.24l-0.53,0.53
			l1.24,1.24l-0.34,0.34l-1.24-1.24l-0.53,0.53l1.24,1.24l-0.34,0.34l-1.24-1.24l-0.53,0.53l1.24,1.24l-0.34,0.34l-1.24-1.24
			l-0.53,0.53l1.24,1.24l-0.34,0.34l-1.24-1.24l-0.53,0.53l1.24,1.24l-0.34,0.34l-1.24-1.24l-0.53,0.53l1.24,1.24l-0.34,0.34
			l-1.24-1.24l-0.53,0.53l1.24,1.24l-0.34,0.34l-1.24-1.24l-0.53,0.53l1.24,1.24l-0.34,0.34l-1.24-1.24l-0.53,0.53l1.24,1.24
			l-0.34,0.34l-1.24-1.24l-0.53,0.53l1.24,1.24l-0.34,0.34l-1.24-1.24l-0.53,0.53l1.24,1.24l-0.34,0.34l-1.24-1.24l-0.53,0.53
			l1.24,1.24l-0.34,0.34l-1.24-1.24l-0.53,0.53l1.24,1.24l-0.34,0.34l-1.24-1.24l-0.53,0.53l1.24,1.24l-0.34,0.34l-1.24-1.24
			l-0.53,0.53l1.24,1.24l-0.34,0.34l-1.24-1.24l-0.53,0.53l1.24,1.24l-0.34,0.34l-1.24-1.24l-0.53,0.53l1.24,1.24l-0.34,0.34
			l-1.24-1.24l-0.53,0.53l1.24,1.24l-0.34,0.34l-1.24-1.24l-0.53,0.53l1.24,1.24l-0.34,0.34l-1.24-1.24l-0.53,0.53l1.24,1.24
			l-0.09,0.09l0.09,0.09l-1.24,1.24l0.53,0.53l1.24-1.24l0.34,0.34l-1.24,1.24l0.53,0.53l1.24-1.24l0.34,0.34l-1.24,1.24l0.53,0.53
			l1.24-1.24l0.34,0.34l-1.24,1.24l0.53,0.53l1.24-1.24l0.34,0.34l-1.24,1.24l0.53,0.53l1.24-1.24l0.34,0.34l-1.24,1.24l0.53,0.53
			l1.24-1.24l0.34,0.34l-1.24,1.24l0.53,0.53l1.24-1.24l0.34,0.34l-1.24,1.24l0.53,0.53l1.24-1.24l0.34,0.34l-1.24,1.24l0.53,0.53
			l1.24-1.24l0.34,0.34l-1.24,1.24l0.53,0.53l1.24-1.24l0.34,0.34l-1.24,1.24l0.53,0.53l1.24-1.24l0.34,0.34l-1.24,1.24l0.53,0.53
			l1.24-1.24l0.34,0.34l-1.24,1.24l0.53,0.53l1.24-1.24l0.34,0.34l-1.24,1.24l0.53,0.53l1.24-1.24l0.34,0.34l-1.24,1.24l0.53,0.53
			l1.24-1.24l0.34,0.34l-1.24,1.24l0.53,0.53l1.24-1.24l0.34,0.34l-1.24,1.24l0.53,0.53l1.24-1.24l0.34,0.34l-1.24,1.24l0.53,0.53
			l1.24-1.24l0.34,0.34l-1.24,1.24l0.53,0.53l1.24-1.24l0.34,0.34l-1.24,1.24l0.53,0.53l1.24-1.24L130.77,459.85z M114.72,442.39
			l17.48-17.48l17.48,17.48l-17.48,17.48L114.72,442.39z"/>
		<rect x="118.08" y="342.91" width="5.67" height="5.67"/>
		<rect x="112.41" y="348.58" width="5.67" height="5.67"/>
		<rect x="118.08" y="354.25" width="5.67" height="5.67"/>
		<polygon points="132.19,348.58 132.22,348.58 134.99,348.58 134.99,342.91 132.22,342.91 132.19,342.91 129.42,342.91 
			129.42,348.58 		"/>
		<rect x="123.75" y="337.24" width="5.67" height="5.67"/>
		<rect x="118.08" y="376.92" width="5.67" height="5.67"/>
		<rect x="101.07" y="337.24" width="5.67" height="5.67"/>
		<rect x="106.74" y="342.91" width="5.67" height="5.67"/>
		<rect x="78.4" y="439.53" width="5.67" height="5.67"/>
		<rect x="112.41" y="337.24" width="5.67" height="5.67"/>
		<rect x="112.41" y="507.56" width="5.67" height="5.67"/>
		<rect x="118.08" y="501.89" width="5.67" height="5.67"/>
		<rect x="123.75" y="348.58" width="5.67" height="5.67"/>
		<rect x="84.06" y="445.2" width="5.67" height="5.67"/>
		<path d="M95.4,428.44h17.01v5.42h5.67v-5.67h-5.42v-5.42h5.42v5.42h5.67v-5.67h-5.42v-17.25h5.42v-5.67h-5.67v5.67h-11.09v-11.34
			H95.65v-11.34H84.32v-11.34H66.81v5.67h-5.67v17.51h11.34v11.34h11.34v11.34h11.34v11.09h-5.42v5.67h5.67V428.44z M89.73,416.6
			v-5.42h-5.42v-5.67h5.42v-5.67h-5.67v5.42H78.4v-5.42h-5.42v-5.67h5.42v-5.67h-5.67v5.42h-5.67v-5.42h-5.42v-5.67h5.42v-5.42h0.25
			v-0.25h5.42v-5.42h5.67v5.42h5.42v5.67H78.4v5.67h5.67v-5.42h5.67v5.42h5.42v5.67h-5.42v5.67h5.67v-5.42h5.67v5.42h5.42v5.67
			h-5.42v5.67h5.67v-5.42h5.67v5.42h5.42v5.67h-5.42v5.42h-0.25v0.25h-5.42v5.42h-5.67v-5.42h-5.42v-5.67h5.42v-5.67H95.4v5.42
			H89.73z"/>
		<rect x="84.06" y="433.86" width="5.67" height="5.67"/>
		<rect x="72.73" y="501.89" width="5.67" height="5.67"/>
		<rect x="67.06" y="496.23" width="5.67" height="5.67"/>
		<rect x="78.4" y="484.89" width="5.67" height="5.67"/>
		<rect x="78.4" y="394.18" width="5.67" height="5.67"/>
		<rect x="84.06" y="388.51" width="5.67" height="5.67"/>
		<rect x="101.07" y="416.85" width="5.67" height="5.67"/>
		<rect x="95.4" y="399.85" width="5.67" height="5.67"/>
		<rect x="106.74" y="411.19" width="5.67" height="5.67"/>
		<rect x="89.73" y="405.52" width="5.67" height="5.67"/>
		<rect x="123.75" y="484.89" width="5.67" height="5.67"/>
		<rect x="84.06" y="490.56" width="5.67" height="5.67"/>
		<path d="M118.33,479.22v-17.01h5.42v-5.67h-5.67v5.42h-5.42v-5.42h5.42v-5.67h-5.67v5.42H95.4v-5.42h-5.67v5.67h5.42v11.09H83.82
			v11.34H72.48v11.34H61.14v17.51h5.67v5.67h17.51v-11.34h11.34v-11.34h11.34v-11.34h11.09v5.42h5.67v-5.67H118.33z M117.83,473.55
			h-5.42v5.42h-5.67v-5.42h-5.67v5.67h5.42v5.67h-5.42v5.42H95.4v-5.42h-5.67v5.67h5.42v5.67h-5.42v5.42h-5.67v-5.42H78.4v5.67h5.42
			v5.67H78.4v5.42h-5.67v-5.42h-5.42v-0.25h-0.25v-5.42h-5.42v-5.67h5.42v-5.42h5.67v5.42h5.67v-5.67h-5.42v-5.67h5.42v-5.42h5.67
			v5.42h5.67v-5.67h-5.42v-5.67h5.42v-5.42h5.67v5.42h5.67v-5.67h-5.42v-5.67h5.42v-5.42h5.67v5.42h5.42v0.25h0.25v5.42h5.42V473.55
			z"/>
		<rect x="123.75" y="496.23" width="5.67" height="5.67"/>
		<rect x="95.4" y="479.22" width="5.67" height="5.67"/>
		<rect x="89.73" y="473.55" width="5.67" height="5.67"/>
		<rect x="106.74" y="467.88" width="5.67" height="5.67"/>
		<rect x="101.07" y="462.21" width="5.67" height="5.67"/>
		<rect x="106.74" y="433.86" width="5.67" height="5.67"/>
		<rect x="67.06" y="382.84" width="5.67" height="5.67"/>
		<rect x="123.75" y="416.85" width="5.67" height="5.67"/>
		<rect x="123.75" y="393.93" width="5.67" height="5.67"/>
		<rect x="123.75" y="371.25" width="5.67" height="5.67"/>
		<rect x="123.75" y="382.59" width="5.67" height="5.67"/>
		<rect x="123.75" y="405.27" width="5.67" height="5.67"/>
		<rect x="106.74" y="445.2" width="5.67" height="5.67"/>
		<rect x="101.07" y="439.53" width="5.67" height="5.67"/>
		<rect x="123.75" y="359.92" width="5.67" height="5.67"/>
		<rect x="95.4" y="445.2" width="5.67" height="5.67"/>
		<rect x="72.73" y="377.17" width="5.67" height="5.67"/>
		<rect x="95.4" y="433.86" width="5.67" height="5.67"/>
		<rect x="123.75" y="462.21" width="5.67" height="5.67"/>
		<rect x="123.75" y="473.55" width="5.67" height="5.67"/>
		<rect x="89.73" y="439.53" width="5.67" height="5.67"/>
		<polygon points="132.22,354.25 132.19,354.25 129.42,354.25 129.42,359.92 132.19,359.92 132.22,359.92 134.99,359.92 
			134.99,354.25 		"/>
		<rect x="140.66" y="342.91" width="5.67" height="5.67"/>
		<rect x="146.33" y="348.58" width="5.67" height="5.67"/>
		<rect x="140.66" y="354.25" width="5.67" height="5.67"/>
		<rect x="134.99" y="337.24" width="5.67" height="5.67"/>
		<rect x="140.66" y="376.92" width="5.67" height="5.67"/>
		<rect x="157.67" y="337.24" width="5.67" height="5.67"/>
		<rect x="152" y="342.91" width="5.67" height="5.67"/>
		<rect x="180.34" y="439.53" width="5.67" height="5.67"/>
		<rect x="146.33" y="337.24" width="5.67" height="5.67"/>
		<rect x="146.33" y="507.56" width="5.67" height="5.67"/>
		<rect x="140.66" y="501.89" width="5.67" height="5.67"/>
		<rect x="134.99" y="348.58" width="5.67" height="5.67"/>
		<rect x="174.68" y="445.2" width="5.67" height="5.67"/>
		<path d="M146.08,405.27v17.25h-5.42v5.67h5.67v-5.42h5.42v5.42h-5.42v5.67H152v-5.42h17.01v5.42h5.67v-5.67h-5.42V417.1h11.34
			v-11.34h11.34v-11.34h11.34v-17.51h-5.67v-5.67h-17.51v11.34h-11.34v11.34h-11.34v11.34h-11.09v-5.67h-5.67v5.67H146.08z
			 M146.58,411.19H152v-5.42h5.67v5.42h5.67v-5.67h-5.42v-5.67h5.42v-5.42h5.67v5.42h5.67v-5.67h-5.42v-5.67h5.42v-5.42h5.67v5.42
			h5.67v-5.67h-5.42v-5.67h5.42v-5.42h5.67v5.42h5.42v0.25h0.25v5.42h5.42v5.67h-5.42v5.42h-5.67v-5.42h-5.67v5.67h5.42v5.67h-5.42
			v5.42h-5.67v-5.42h-5.67v5.67h5.42v5.67h-5.42v5.42h-5.67v-5.42h-5.67v5.67h5.42v5.67h-5.42v5.42h-5.67v-5.42h-5.42v-0.25H152
			v-5.42h-5.42V411.19z"/>
		<rect x="174.68" y="433.86" width="5.67" height="5.67"/>
		<rect x="186.01" y="501.89" width="5.67" height="5.67"/>
		<rect x="191.68" y="496.23" width="5.67" height="5.67"/>
		<rect x="180.34" y="484.89" width="5.67" height="5.67"/>
		<rect x="180.34" y="394.18" width="5.67" height="5.67"/>
		<rect x="174.68" y="388.51" width="5.67" height="5.67"/>
		<rect x="157.67" y="416.85" width="5.67" height="5.67"/>
		<rect x="163.34" y="399.85" width="5.67" height="5.67"/>
		<rect x="152" y="411.19" width="5.67" height="5.67"/>
		<rect x="169.01" y="405.52" width="5.67" height="5.67"/>
		<rect x="134.99" y="484.89" width="5.67" height="5.67"/>
		<rect x="174.68" y="490.56" width="5.67" height="5.67"/>
		<path d="M169.01,456.29H152v-5.42h-5.67v5.67h5.42v5.42h-5.42v-5.42h-5.67v5.67h5.42v17.01h-5.42v5.67h5.67v-5.42h11.09v11.34
			h11.34v11.34h11.34v11.34h17.51v-5.67h5.67v-17.51h-11.34v-11.34h-11.34v-11.34h-11.34v-11.09h5.42v-5.67h-5.67V456.29z
			 M174.68,468.13v5.42h5.42v5.67h-5.42v5.67h5.67v-5.42h5.67v5.42h5.42v5.67h-5.42v5.67h5.67v-5.42h5.67v5.42h5.42v5.67h-5.42v5.42
			h-0.25v0.25h-5.42v5.42h-5.67v-5.42h-5.42v-5.67h5.42v-5.67h-5.67v5.42h-5.67v-5.42h-5.42v-5.67h5.42v-5.67h-5.67v5.42h-5.67
			v-5.42h-5.42v-5.67h5.42v-5.67h-5.67v5.42H152v-5.42h-5.42v-5.67H152v-5.42h0.25v-0.25h5.42v-5.42h5.67v5.42h5.42v5.67h-5.42v5.67
			h5.67v-5.42H174.68z"/>
		<polygon points="132.22,501.89 132.19,501.89 129.42,501.89 129.42,507.56 132.19,507.56 132.22,507.56 134.99,507.56 
			134.99,501.89 		"/>
		<rect x="134.99" y="496.23" width="5.67" height="5.67"/>
		<polygon points="132.22,496.23 134.99,496.23 134.99,490.56 132.22,490.56 132.19,490.56 129.42,490.56 129.42,496.23 
			132.19,496.23 		"/>
		<rect x="163.34" y="479.22" width="5.67" height="5.67"/>
		<rect x="169.01" y="473.55" width="5.67" height="5.67"/>
		<rect x="152" y="467.88" width="5.67" height="5.67"/>
		<rect x="157.67" y="462.21" width="5.67" height="5.67"/>
		<rect x="152" y="433.86" width="5.67" height="5.67"/>
		<polygon points="132.22,467.88 132.19,467.88 129.42,467.88 129.42,473.55 132.19,473.55 132.22,473.55 134.99,473.55 
			134.99,467.88 		"/>
		<polygon points="132.22,405.27 134.99,405.27 134.99,399.6 132.22,399.6 132.19,399.6 129.42,399.6 129.42,405.27 132.19,405.27 
					"/>
		<rect x="191.68" y="382.84" width="5.67" height="5.67"/>
		<rect x="134.99" y="416.85" width="5.67" height="5.67"/>
		<polygon points="132.22,411.19 132.19,411.19 129.42,411.19 129.42,416.85 132.19,416.85 132.22,416.85 134.99,416.85 
			134.99,411.19 		"/>
		<rect x="134.99" y="393.93" width="5.67" height="5.67"/>
		<polygon points="132.22,371.25 134.99,371.25 134.99,365.59 132.22,365.59 132.19,365.59 129.42,365.59 129.42,371.25 
			132.19,371.25 		"/>
		<polygon points="132.22,393.93 134.99,393.93 134.99,388.26 132.22,388.26 132.19,388.26 129.42,388.26 129.42,393.93 
			132.19,393.93 		"/>
		<rect x="134.99" y="371.25" width="5.67" height="5.67"/>
		<polygon points="132.22,376.92 132.19,376.92 129.42,376.92 129.42,382.59 132.19,382.59 132.22,382.59 134.99,382.59 
			134.99,376.92 		"/>
		<rect x="134.99" y="382.59" width="5.67" height="5.67"/>
		<rect x="134.99" y="405.27" width="5.67" height="5.67"/>
		<rect x="152" y="445.2" width="5.67" height="5.67"/>
		<rect x="157.67" y="439.53" width="5.67" height="5.67"/>
		<rect x="134.99" y="359.92" width="5.67" height="5.67"/>
		<rect x="163.34" y="445.2" width="5.67" height="5.67"/>
		<polygon points="132.22,479.22 132.19,479.22 129.42,479.22 129.42,484.89 132.19,484.89 132.22,484.89 134.99,484.89 
			134.99,479.22 		"/>
		<rect x="186.01" y="377.17" width="5.67" height="5.67"/>
		<rect x="163.34" y="433.86" width="5.67" height="5.67"/>
		<rect x="134.99" y="462.21" width="5.67" height="5.67"/>
		<rect x="134.99" y="473.55" width="5.67" height="5.67"/>
		<rect x="169.01" y="439.53" width="5.67" height="5.67"/>
		<polygon points="308.52,405.04 308.52,390.96 294.44,390.96 294.44,393.46 306.02,393.46 306.02,405.04 		"/>
		<rect x="303.31" y="351.7" width="17.01" height="5.67"/>
		<rect x="265.6" y="365.38" width="5.6" height="11.23"/>
		<rect x="303.31" y="345.94" width="5.67" height="5.67"/>
		<rect x="250.57" y="351.7" width="5.67" height="5.67"/>
		<rect x="250.57" y="340.36" width="5.67" height="5.67"/>
		<rect x="294.03" y="535.72" width="5.67" height="5.67"/>
		<rect x="244.9" y="346.03" width="5.67" height="5.67"/>
		<rect x="327.97" y="433.39" width="5.67" height="5.67"/>
		<path d="M259.93,365.3h5.67v-4.97h5.6v4.97h5.67v-4.97h3.33v-23.68h-23.6v23.68h3.33V365.3z M257.59,359.33v-21.68h21.6v21.68
			H257.59z"/>
		<rect x="280.55" y="340.36" width="5.67" height="5.67"/>
		<rect x="282.53" y="490.16" width="5.67" height="5.67"/>
		<rect x="291.88" y="340.36" width="5.67" height="5.67"/>
		<rect x="286.22" y="346.03" width="5.67" height="5.67"/>
		<rect x="254.26" y="495.83" width="5.67" height="5.67"/>
		<rect x="276.86" y="484.49" width="5.67" height="5.67"/>
		<polygon points="314.64,351.61 320.31,351.61 320.31,334.69 297.55,334.69 297.55,340.36 314.64,340.36 		"/>
		<rect x="259.93" y="501.5" width="5.67" height="5.67"/>
		<rect x="282.53" y="478.82" width="5.67" height="5.67"/>
		<rect x="310.96" y="450.4" width="5.67" height="5.67"/>
		<rect x="276.86" y="495.83" width="5.67" height="5.67"/>
		<rect x="305.29" y="456.07" width="5.67" height="5.67"/>
		<rect x="280.55" y="351.7" width="5.67" height="5.67"/>
		<path d="M200.52,517.61l-0.25-0.14l-0.25,0.14c-1.88,1.07-3.54,3.28-3.41,5.56c-1.27-0.5-2.7-0.59-4.1-0.23l-0.28,0.07l-0.08,0.28
			c-0.6,2.21,0.04,4.57,1.67,6.16c1.24,1.21,2.86,1.85,4.56,1.85c0.57,0,1.14-0.07,1.72-0.22l0.12-0.03l0.12,0.03
			c0.57,0.15,1.15,0.22,1.72,0.22c1.7,0,3.33-0.65,4.56-1.85c1.63-1.59,2.27-3.95,1.67-6.16l-0.08-0.28l-0.28-0.07
			c-1.37-0.35-2.77-0.27-4.02,0.2C204.05,520.74,202.14,518.52,200.52,517.61z M199.58,530.18c-1.85,0.38-3.71-0.15-5.04-1.45
			c-1.32-1.29-1.86-3.1-1.48-4.9c1.85-0.38,3.72,0.15,5.04,1.44C199.42,526.58,199.96,528.39,199.58,530.18z M207.41,523.84
			c0.38,1.79-0.16,3.61-1.48,4.9c-1.33,1.3-3.19,1.82-5.04,1.45c-0.39-1.79,0.16-3.61,1.48-4.9
			C203.7,523.99,205.57,523.46,207.41,523.84z M202.84,523.68c-0.41,0.25-0.81,0.54-1.17,0.89c-0.64,0.62-1.12,1.36-1.44,2.16
			c-0.32-0.8-0.8-1.54-1.44-2.16c-0.33-0.32-0.7-0.59-1.08-0.83c-0.53-2.08,1.09-4.16,2.55-5.11
			C201.69,519.55,203.32,521.63,202.84,523.68z"/>
		<rect x="271.19" y="501.5" width="5.67" height="5.67"/>
		<rect x="89.69" y="524.38" width="5.67" height="5.67"/>
		<rect x="305.29" y="467.4" width="5.67" height="5.67"/>
		<polygon points="222.14,340.36 239.23,340.36 239.23,334.69 216.47,334.69 216.47,351.61 222.14,351.61 		"/>
		<rect x="239.23" y="340.36" width="5.67" height="5.67"/>
		<polygon points="299.62,473.16 299.54,473.16 299.54,478.82 305.21,478.82 305.21,478.74 305.29,478.74 305.29,473.07 
			299.62,473.07 		"/>
		<rect x="288.36" y="541.39" width="5.67" height="5.67"/>
		<path d="M290.91,531.04l0.12-0.03l0.12,0.03c0.57,0.15,1.15,0.22,1.72,0.22c1.7,0,3.33-0.64,4.56-1.85
			c1.63-1.59,2.27-3.95,1.67-6.16l-0.08-0.28l-0.28-0.07c-1.4-0.36-2.83-0.27-4.1,0.23c0.13-2.28-1.53-4.49-3.41-5.56l-0.25-0.14
			l-0.25,0.14c-1.62,0.92-3.53,3.13-3.41,5.53c-1.25-0.47-2.64-0.56-4.02-0.2l-0.28,0.07l-0.08,0.28c-0.6,2.21,0.04,4.57,1.67,6.16
			c1.24,1.21,2.86,1.85,4.56,1.85C289.76,531.26,290.34,531.19,290.91,531.04z M298.21,523.8c0.38,1.79-0.16,3.61-1.48,4.9
			c-1.33,1.3-3.19,1.83-5.04,1.45c-0.38-1.79,0.16-3.61,1.48-4.9C294.5,523.95,296.36,523.42,298.21,523.8z M290.99,518.59
			c1.47,0.95,3.08,3.02,2.55,5.11c-0.38,0.24-0.75,0.51-1.08,0.83c-0.64,0.62-1.12,1.36-1.44,2.16c-0.32-0.8-0.8-1.54-1.44-2.16
			c-0.36-0.35-0.75-0.64-1.17-0.89C287.96,521.59,289.58,519.51,290.99,518.59z M285.33,528.7c-1.32-1.29-1.86-3.1-1.48-4.9
			c1.85-0.38,3.72,0.15,5.04,1.45c1.32,1.29,1.86,3.1,1.48,4.9C288.53,530.52,286.66,529.99,285.33,528.7z"/>
		<rect x="288.2" y="484.49" width="5.67" height="5.67"/>
		<path d="M132.33,536.19l-0.12,0.03v0l0,0l0,0l-0.12-0.03c-2.28-0.59-4.63,0.02-6.28,1.63c-1.63,1.59-2.27,3.95-1.67,6.16
			l0.08,0.28l0.28,0.07c0.57,0.15,1.15,0.22,1.72,0.22c0.82,0,1.63-0.15,2.38-0.45c-0.13,2.28,1.53,4.49,3.41,5.56l0.21,0.12l0,0
			l0.21-0.12c1.88-1.07,3.54-3.28,3.41-5.56c0.75,0.29,1.56,0.45,2.38,0.45c0.57,0,1.15-0.07,1.72-0.22l0.28-0.07l0.08-0.28
			c0.6-2.21-0.04-4.57-1.67-6.16C136.96,536.21,134.61,535.6,132.33,536.19z M125.03,543.43c-0.38-1.79,0.16-3.61,1.48-4.9
			c1.33-1.3,3.19-1.82,5.04-1.45c0.39,1.79-0.16,3.6-1.48,4.9C128.74,543.28,126.88,543.81,125.03,543.43z M132.21,548.61
			c-1.45-0.96-3.03-3-2.51-5.07c0.38-0.24,0.75-0.52,1.08-0.85c0.64-0.62,1.12-1.36,1.44-2.16l0,0v0l0,0v0l0,0
			c0.32,0.8,0.8,1.54,1.44,2.16c0.33,0.32,0.69,0.6,1.08,0.85C135.24,545.61,133.66,547.65,132.21,548.61z M139.38,543.43
			c-1.85,0.38-3.71-0.15-5.04-1.45c-1.32-1.29-1.86-3.1-1.48-4.9c1.85-0.38,3.71,0.15,5.04,1.45
			C139.23,539.83,139.77,541.64,139.38,543.43z"/>
		<path d="M223.22,536.25l-0.12,0.03l-0.12-0.03c-2.28-0.59-4.63,0.02-6.28,1.63c-1.63,1.59-2.27,3.95-1.67,6.16l0.08,0.28
			l0.28,0.07c0.57,0.15,1.15,0.22,1.72,0.22c0.79,0,1.57-0.15,2.3-0.42c-0.11,2.4,1.8,4.61,3.41,5.53l0.25,0.14l0.25-0.14
			c1.88-1.07,3.54-3.28,3.41-5.56c0.75,0.29,1.56,0.45,2.38,0.45c0.57,0,1.15-0.07,1.72-0.22l0.28-0.07l0.08-0.28
			c0.6-2.21-0.04-4.57-1.67-6.16C227.85,536.27,225.5,535.66,223.22,536.25z M215.92,543.49c-0.38-1.79,0.16-3.61,1.48-4.9
			c1.33-1.3,3.19-1.83,5.04-1.45c0.39,1.79-0.16,3.61-1.48,4.9C219.63,543.34,217.77,543.88,215.92,543.49z M223.06,548.71
			c-1.42-0.93-3.04-3-2.56-5.04c0.42-0.25,0.81-0.55,1.17-0.9c0.64-0.62,1.12-1.36,1.44-2.16c0.32,0.8,0.8,1.54,1.44,2.16
			c0.33,0.32,0.7,0.6,1.08,0.85C226.13,545.69,224.52,547.76,223.06,548.71z M230.27,543.49c-1.85,0.38-3.71-0.15-5.04-1.45
			c-1.32-1.29-1.86-3.1-1.48-4.9c1.85-0.38,3.71,0.15,5.04,1.45C230.12,539.89,230.66,541.7,230.27,543.49z"/>
		<path d="M268.4,536.25v4.62c0.32,0.7,0.75,1.34,1.31,1.89c0.36,0.35,0.75,0.65,1.17,0.9c0.46,2-1.08,4.03-2.48,4.98v1.17
			l0.16-0.09c1.61-0.92,3.53-3.13,3.41-5.53c0.73,0.27,1.51,0.42,2.3,0.42c0.57,0,1.14-0.07,1.72-0.22l0.28-0.07l0.08-0.28
			c0.6-2.21-0.04-4.57-1.67-6.16C273.02,536.27,270.68,535.67,268.4,536.25z M275.45,543.49c-1.85,0.38-3.71-0.15-5.04-1.45
			c-1.32-1.29-1.86-3.1-1.48-4.9c1.85-0.38,3.71,0.15,5.04,1.45C275.29,539.89,275.83,541.7,275.45,543.49z"/>
		<path d="M177.68,536.38l-0.12,0.03l-0.12-0.03c-2.28-0.59-4.63,0.02-6.28,1.63c-1.63,1.59-2.27,3.95-1.67,6.16l0.08,0.28
			l0.28,0.07c0.57,0.15,1.15,0.22,1.72,0.22c0.79,0,1.57-0.15,2.3-0.42c-0.11,2.4,1.8,4.61,3.41,5.53l0.25,0.14l0.25-0.14
			c1.88-1.07,3.54-3.28,3.41-5.56c0.75,0.29,1.56,0.45,2.38,0.45c0.57,0,1.15-0.07,1.72-0.22l0.28-0.07l0.08-0.28
			c0.6-2.21-0.04-4.57-1.67-6.16C182.31,536.41,179.96,535.8,177.68,536.38z M170.38,543.63c-0.38-1.79,0.16-3.6,1.48-4.9
			c1.33-1.3,3.19-1.83,5.04-1.45c0.38,1.79-0.16,3.61-1.48,4.9C174.1,543.48,172.23,544,170.38,543.63z M177.52,548.84
			c-1.42-0.93-3.04-3-2.56-5.04c0.42-0.25,0.81-0.55,1.17-0.9c0.64-0.62,1.12-1.36,1.44-2.16c0.32,0.8,0.8,1.54,1.44,2.16
			c0.33,0.32,0.69,0.6,1.08,0.85C180.59,545.82,178.98,547.89,177.52,548.84z M184.74,543.63c-1.85,0.38-3.71-0.15-5.04-1.44
			c-1.32-1.29-1.86-3.1-1.48-4.9c1.84-0.37,3.71,0.15,5.04,1.45C184.58,540.02,185.12,541.83,184.74,543.63z"/>
		<rect x="293.87" y="478.82" width="5.67" height="5.67"/>
		<polygon points="228.26,405.04 230.76,405.04 230.76,393.46 242.35,393.46 242.35,390.96 228.26,390.96 		"/>
		<path d="M62.34,531.3c0.57,0,1.14-0.07,1.72-0.22l0.12-0.03l0.12,0.03c0.57,0.15,1.15,0.22,1.72,0.22c1.7,0,3.33-0.65,4.56-1.85
			c1.63-1.59,2.27-3.95,1.67-6.16l-0.08-0.28l-0.28-0.07c-1.4-0.36-2.83-0.27-4.1,0.23c0.13-2.28-1.53-4.49-3.41-5.56l-0.25-0.14
			l-0.25,0.14c-1.61,0.92-3.53,3.13-3.41,5.53c-1.25-0.47-2.65-0.56-4.02-0.2l-0.28,0.07l-0.08,0.28c-0.6,2.21,0.04,4.57,1.67,6.16
			C59.01,530.66,60.64,531.3,62.34,531.3z M71.35,523.84c0.38,1.79-0.16,3.61-1.48,4.9c-1.33,1.3-3.19,1.82-5.04,1.45
			c-0.39-1.79,0.16-3.61,1.48-4.9C67.64,523.99,69.5,523.46,71.35,523.84z M64.13,518.63c1.47,0.95,3.08,3.02,2.55,5.11
			c-0.38,0.24-0.75,0.51-1.08,0.83c-0.64,0.62-1.12,1.36-1.44,2.16c-0.32-0.8-0.8-1.54-1.44-2.16c-0.36-0.35-0.75-0.64-1.17-0.89
			C61.09,521.63,62.72,519.55,64.13,518.63z M57,523.84c1.85-0.38,3.72,0.15,5.04,1.44c1.32,1.29,1.86,3.1,1.48,4.9
			c-1.85,0.38-3.71-0.15-5.04-1.45C57.15,527.44,56.61,525.63,57,523.84z"/>
		<rect x="322.3" y="450.4" width="5.67" height="5.67"/>
		<rect x="327.97" y="444.73" width="5.67" height="5.67"/>
		<rect x="277.02" y="530.05" width="5.67" height="5.67"/>
		<path d="M162.55,522.94c-1.37-0.35-2.77-0.27-4.02,0.2c0.12-2.4-1.79-4.62-3.41-5.53l-0.25-0.14l-0.25,0.14
			c-1.88,1.07-3.54,3.28-3.41,5.56c-1.27-0.5-2.7-0.59-4.1-0.23l-0.28,0.07l-0.08,0.28c-0.6,2.21,0.04,4.57,1.67,6.16
			c1.23,1.21,2.86,1.85,4.56,1.85c0.57,0,1.14-0.07,1.72-0.22l0.12-0.03l0.12,0.03c0.57,0.15,1.15,0.22,1.72,0.22
			c1.7,0,3.33-0.65,4.56-1.85c1.63-1.59,2.27-3.95,1.67-6.16l-0.08-0.28L162.55,522.94z M154.17,530.18
			c-1.85,0.38-3.71-0.15-5.04-1.45c-1.32-1.29-1.86-3.1-1.48-4.9c1.85-0.38,3.71,0.15,5.04,1.44
			C154.02,526.57,154.56,528.39,154.17,530.18z M154.83,526.73c-0.32-0.8-0.8-1.54-1.44-2.16c-0.33-0.32-0.69-0.59-1.08-0.83
			c-0.53-2.09,1.08-4.16,2.55-5.11c1.42,0.93,3.04,3.01,2.56,5.05c-0.41,0.25-0.81,0.54-1.17,0.89
			C155.63,525.19,155.15,525.93,154.83,526.73z M160.53,528.74c-1.33,1.3-3.19,1.82-5.04,1.45c-0.38-1.79,0.16-3.61,1.48-4.9
			c1.33-1.3,3.2-1.83,5.04-1.44C162.4,525.63,161.85,527.44,160.53,528.74z"/>
		<rect x="282.69" y="535.72" width="5.67" height="5.67"/>
		<rect x="310.96" y="461.73" width="5.67" height="5.67"/>
		<rect x="268.4" y="518.71" width="2.96" height="5.67"/>
		<rect x="227.81" y="345.94" width="5.67" height="5.67"/>
		<polygon points="271.35,524.38 271.35,524.38 271.35,530.05 277.02,530.05 277.02,524.38 		"/>
		<rect x="316.63" y="456.07" width="5.67" height="5.67"/>
		<path d="M86.97,536.38l-0.12,0.03l-0.12-0.03c-2.28-0.59-4.63,0.02-6.28,1.63c-1.63,1.59-2.27,3.95-1.67,6.16l0.08,0.28l0.28,0.07
			c0.57,0.15,1.15,0.22,1.72,0.22c0.82,0,1.63-0.15,2.38-0.45c-0.13,2.28,1.53,4.49,3.41,5.56l0.25,0.14l0.25-0.14
			c1.61-0.92,3.53-3.13,3.41-5.53c0.73,0.27,1.5,0.42,2.3,0.42c0.57,0,1.15-0.07,1.72-0.22l0.28-0.07l0.08-0.28
			c0.6-2.21-0.04-4.57-1.67-6.16C91.6,536.41,89.25,535.8,86.97,536.38z M79.67,543.63c-0.38-1.79,0.16-3.6,1.48-4.9
			c1.33-1.3,3.2-1.82,5.04-1.45c0.39,1.79-0.16,3.61-1.48,4.9C83.39,543.48,81.52,544.01,79.67,543.63z M86.89,548.84
			c-1.46-0.95-3.08-3.02-2.55-5.1c0.38-0.24,0.75-0.52,1.08-0.85c0.64-0.62,1.12-1.36,1.44-2.16c0.32,0.8,0.8,1.54,1.44,2.16
			c0.36,0.35,0.75,0.65,1.17,0.9C89.93,545.84,88.31,547.91,86.89,548.84z M94.03,543.63c-1.84,0.38-3.71-0.15-5.04-1.44
			c-1.32-1.29-1.86-3.1-1.48-4.9c1.85-0.38,3.72,0.15,5.04,1.45C93.87,540.02,94.41,541.83,94.03,543.63z"/>
		<rect x="216.47" y="351.7" width="17.01" height="5.67"/>
		<path d="M238.04,522.9l-0.28,0.07l-0.08,0.28c-0.6,2.21,0.04,4.57,1.67,6.16c1.23,1.21,2.86,1.85,4.56,1.85
			c0.57,0,1.15-0.07,1.72-0.22l0.12-0.03l0.12,0.03c0.57,0.15,1.15,0.22,1.72,0.22c1.7,0,3.33-0.64,4.56-1.85
			c1.63-1.59,2.27-3.95,1.67-6.16l-0.08-0.28l-0.28-0.07c-1.37-0.35-2.77-0.27-4.02,0.2c0.12-2.4-1.79-4.62-3.41-5.53l-0.25-0.14
			l-0.25,0.14c-1.88,1.07-3.54,3.28-3.41,5.56C240.86,522.63,239.44,522.54,238.04,522.9z M245.09,530.14
			c-1.85,0.38-3.71-0.15-5.04-1.45c-1.32-1.29-1.86-3.1-1.48-4.9c1.85-0.38,3.72,0.15,5.04,1.45
			C244.94,526.54,245.48,528.35,245.09,530.14z M252.93,523.8c0.38,1.79-0.16,3.61-1.48,4.9c-1.33,1.3-3.19,1.83-5.04,1.45
			c-0.39-1.79,0.16-3.6,1.48-4.9C249.22,523.95,251.08,523.42,252.93,523.8z M245.79,518.59c1.42,0.93,3.04,3.01,2.56,5.05
			c-0.42,0.25-0.81,0.54-1.17,0.89c-0.64,0.62-1.12,1.36-1.44,2.16c-0.32-0.8-0.8-1.54-1.44-2.16c-0.33-0.32-0.7-0.59-1.08-0.83
			C242.71,521.61,244.33,519.54,245.79,518.59z"/>
		<rect x="118.03" y="530.05" width="5.67" height="5.67"/>
		<rect x="123.7" y="524.38" width="5.67" height="5.67"/>
		<rect x="112.36" y="535.72" width="5.67" height="5.67"/>
		<rect x="95.35" y="530.05" width="5.67" height="5.67"/>
		<rect x="101.02" y="535.72" width="5.67" height="5.67"/>
		<polygon points="306.02,490.33 294.44,490.33 294.44,492.83 308.52,492.83 308.52,478.74 306.02,478.74 		"/>
		<polygon points="228.26,478.74 228.26,492.83 242.35,492.83 242.35,490.33 230.76,490.33 230.76,478.74 		"/>
		<path d="M109.46,531.08l0.12-0.03l0.12,0.03c0.57,0.15,1.15,0.22,1.72,0.22c1.7,0,3.33-0.65,4.56-1.85
			c1.63-1.59,2.27-3.95,1.67-6.16l-0.08-0.28l-0.28-0.07c-1.4-0.36-2.82-0.27-4.1,0.23c0.13-2.28-1.53-4.49-3.41-5.56l-0.25-0.14
			l-0.25,0.14c-1.61,0.92-3.52,3.13-3.41,5.53c-1.25-0.47-2.64-0.56-4.02-0.2l-0.28,0.07l-0.08,0.28c-0.6,2.21,0.04,4.57,1.67,6.16
			c1.24,1.21,2.86,1.85,4.56,1.85C108.31,531.3,108.88,531.23,109.46,531.08z M116.75,523.84c0.38,1.79-0.16,3.6-1.48,4.9
			c-1.33,1.3-3.19,1.82-5.04,1.45c-0.38-1.79,0.16-3.61,1.48-4.9C113.04,523.99,114.91,523.46,116.75,523.84z M109.54,518.63
			c1.47,0.95,3.08,3.02,2.55,5.11c-0.38,0.24-0.75,0.51-1.08,0.83c-0.64,0.62-1.12,1.36-1.44,2.16c-0.32-0.8-0.8-1.54-1.44-2.16
			c-0.36-0.35-0.75-0.64-1.17-0.89C106.5,521.63,108.12,519.55,109.54,518.63z M103.88,528.74c-1.32-1.29-1.86-3.1-1.48-4.9
			c1.85-0.38,3.71,0.15,5.04,1.44c1.32,1.29,1.86,3.1,1.48,4.9C107.07,530.56,105.2,530.03,103.88,528.74z"/>
		<rect x="197.48" y="439.06" width="5.67" height="5.67"/>
		<rect x="265.6" y="507.17" width="5.6" height="5.67"/>
		<rect x="333.64" y="439.06" width="5.67" height="5.67"/>
		<rect x="61.34" y="541.39" width="5.67" height="5.67"/>
		<rect x="152.05" y="541.39" width="5.67" height="5.67"/>
		<path d="M262.12,537.88c-1.63,1.59-2.27,3.95-1.67,6.16l0.08,0.28l0.28,0.07c0.57,0.15,1.15,0.22,1.72,0.22
			c0.79,0,1.57-0.15,2.3-0.42c-0.11,2.4,1.8,4.61,3.41,5.53l0.16,0.09v-1.17c-1.4-0.95-2.94-2.98-2.48-4.98
			c0.42-0.25,0.81-0.55,1.17-0.9c0.56-0.55,1-1.2,1.31-1.89v-4.62C266.11,535.67,263.76,536.27,262.12,537.88z M266.38,542.05
			c-1.33,1.3-3.19,1.83-5.04,1.45c-0.38-1.79,0.16-3.61,1.48-4.9c1.33-1.3,3.2-1.82,5.04-1.45
			C268.24,538.95,267.7,540.76,266.38,542.05z"/>
		<rect x="106.69" y="541.39" width="5.67" height="5.67"/>
		<rect x="242.76" y="541.39" width="5.67" height="5.67"/>
		<rect x="197.4" y="541.39" width="5.67" height="5.67"/>
		<rect x="50" y="530.05" width="5.67" height="5.67"/>
		<rect x="78.35" y="524.38" width="5.67" height="5.67"/>
		<rect x="72.68" y="530.05" width="5.67" height="5.67"/>
		<rect x="55.67" y="535.72" width="5.67" height="5.67"/>
		<rect x="84.02" y="518.71" width="5.67" height="5.67"/>
		<rect x="67.01" y="535.72" width="5.67" height="5.67"/>
		<rect x="220.16" y="427.72" width="5.67" height="5.67"/>
		<rect x="305.29" y="433.39" width="5.67" height="5.67"/>
		<rect x="316.63" y="433.39" width="5.67" height="5.67"/>
		<rect x="310.96" y="427.72" width="5.67" height="5.67"/>
		<rect x="225.83" y="456.07" width="5.67" height="5.67"/>
		<rect x="248.59" y="490.16" width="5.67" height="5.67"/>
		<rect x="305.29" y="422.05" width="5.67" height="5.67"/>
		<rect x="220.16" y="450.4" width="5.67" height="5.67"/>
		<polygon points="282.61,427.72 288.28,427.72 288.28,422.05 288.2,422.05 288.2,421.97 282.53,421.97 282.53,427.64 
			282.61,427.64 		"/>
		<polygon points="282.53,456.15 282.53,461.82 288.2,461.82 288.2,461.73 288.28,461.73 288.28,456.07 282.61,456.07 
			282.61,456.15 		"/>
		<rect x="225.83" y="422.05" width="5.67" height="5.67"/>
		<path d="M277.36,439.06v-5.67h5.25v-5.67h-0.08v-0.08h-5.67v5.25h-5.67v-27.93h-5.6v27.93h-5.67v-5.25h-5.67v0.08h-0.08v5.67h5.25
			v5.67H231.5v5.67h27.93v5.67h-5.25v5.67h0.08v0.08h5.67v-5.25h5.67v27.93h5.6V450.9h5.67v5.25h5.67v-0.08h0.08v-5.67h-5.25v-5.67
			h27.93v-5.67H277.36z M276.36,449.9h-15.93v-16.01h15.93V449.9z"/>
		<rect x="208.82" y="439.06" width="5.67" height="5.67"/>
		<rect x="225.83" y="433.39" width="5.67" height="5.67"/>
		<rect x="259.93" y="478.82" width="5.67" height="5.67"/>
		<rect x="316.63" y="422.05" width="5.67" height="5.67"/>
		<rect x="265.6" y="484.49" width="5.6" height="5.67"/>
		<rect x="310.96" y="416.38" width="5.67" height="5.67"/>
		<rect x="271.19" y="478.82" width="5.67" height="5.67"/>
		<rect x="305.29" y="410.71" width="5.67" height="5.67"/>
		<rect x="322.3" y="427.72" width="5.67" height="5.67"/>
		<rect x="271.19" y="490.16" width="5.67" height="5.67"/>
		<rect x="305.29" y="444.73" width="5.67" height="5.67"/>
		<rect x="316.63" y="444.73" width="5.67" height="5.67"/>
		<rect x="259.93" y="490.16" width="5.67" height="5.67"/>
		<rect x="322.3" y="439.06" width="5.67" height="5.67"/>
		<polygon points="242.92,416.3 242.92,410.63 237.25,410.63 237.25,410.71 237.17,410.71 237.17,416.38 242.84,416.38 
			242.84,416.3 		"/>
		<polygon points="254.26,427.64 254.26,421.97 248.59,421.97 248.59,422.05 248.51,422.05 248.51,427.72 254.18,427.72 
			254.18,427.64 		"/>
		<rect x="259.93" y="387.95" width="5.67" height="5.67"/>
		<polygon points="242.84,467.4 237.17,467.4 237.17,473.07 237.25,473.07 237.25,473.16 242.92,473.16 242.92,467.49 
			242.84,467.49 		"/>
		<rect x="271.19" y="387.95" width="5.67" height="5.67"/>
		<rect x="265.6" y="393.62" width="5.6" height="5.67"/>
		<polygon points="248.51,461.73 242.84,461.73 242.84,467.4 242.92,467.4 242.92,467.49 248.59,467.49 248.59,461.82 
			248.51,461.82 		"/>
		<polygon points="135.04,518.71 135.04,513.23 140.66,513.23 140.66,507.56 134.99,507.56 134.99,513.04 132.21,513.04 
			129.42,513.04 129.42,507.56 123.75,507.56 123.75,513.23 129.37,513.23 129.37,518.71 129.37,518.71 129.37,524.38 
			135.04,524.38 135.04,518.71 		"/>
		<rect x="271.19" y="399.29" width="5.67" height="5.67"/>
		<polygon points="288.28,422.05 293.95,422.05 293.95,416.38 293.87,416.38 293.87,416.3 288.2,416.3 288.2,421.97 288.28,421.97 
					"/>
		<polygon points="248.59,421.97 248.59,416.3 242.92,416.3 242.92,416.38 242.84,416.38 242.84,422.05 248.51,422.05 
			248.51,421.97 		"/>
		<rect x="259.93" y="399.29" width="5.67" height="5.67"/>
		<polygon points="293.95,416.38 299.62,416.38 299.62,410.71 299.54,410.71 299.54,410.63 293.87,410.63 293.87,416.3 
			293.95,416.3 		"/>
		<rect x="276.86" y="393.62" width="5.67" height="5.67"/>
		<rect x="225.83" y="444.73" width="5.67" height="5.67"/>
		<polygon points="288.2,461.82 288.2,467.49 293.87,467.49 293.87,467.4 293.95,467.4 293.95,461.73 288.28,461.73 288.28,461.82 
					"/>
		<polygon points="293.87,467.49 293.87,473.16 299.54,473.16 299.54,473.07 299.62,473.07 299.62,467.4 293.95,467.4 
			293.95,467.49 		"/>
		<rect x="214.49" y="433.39" width="5.67" height="5.67"/>
		<rect x="214.49" y="444.73" width="5.67" height="5.67"/>
		<rect x="282.53" y="399.29" width="5.67" height="5.67"/>
		<rect x="248.59" y="399.29" width="5.67" height="5.67"/>
		<polygon points="254.18,456.07 248.51,456.07 248.51,461.73 248.59,461.73 248.59,461.82 254.26,461.82 254.26,456.15 
			254.18,456.15 		"/>
		<rect x="220.16" y="439.06" width="5.67" height="5.67"/>
		<rect x="265.6" y="382.28" width="5.6" height="5.67"/>
		<rect x="254.26" y="393.62" width="5.67" height="5.67"/>
		<rect x="310.96" y="439.06" width="5.67" height="5.67"/>
		<rect x="208.82" y="450.4" width="5.67" height="5.67"/>
		<rect x="225.83" y="467.4" width="5.67" height="5.67"/>
		<rect x="231.42" y="530.05" width="5.67" height="5.67"/>
		<rect x="220.16" y="461.73" width="5.67" height="5.67"/>
		<rect x="214.49" y="456.07" width="5.67" height="5.67"/>
		<polygon points="299.62,410.63 299.62,410.71 305.29,410.71 305.29,405.04 305.21,405.04 305.21,404.96 299.54,404.96 
			299.54,410.63 		"/>
		<rect x="225.75" y="524.38" width="5.67" height="5.67"/>
		<rect x="208.82" y="427.72" width="5.67" height="5.67"/>
		<rect x="208.74" y="530.05" width="5.67" height="5.67"/>
		<rect x="220.08" y="518.71" width="5.67" height="5.67"/>
		<rect x="214.41" y="524.38" width="5.67" height="5.67"/>
		<rect x="203.15" y="433.39" width="5.67" height="5.67"/>
		<polygon points="237.17,473.16 237.17,473.07 231.5,473.07 231.5,478.74 231.58,478.74 231.58,478.82 237.25,478.82 
			237.25,473.16 		"/>
		<rect x="265.43" y="518.71" width="2.96" height="5.67"/>
		<rect x="242.92" y="484.49" width="5.67" height="5.67"/>
		<rect x="237.09" y="535.72" width="5.67" height="5.67"/>
		<rect x="248.59" y="478.82" width="5.67" height="5.67"/>
		<rect x="265.6" y="495.83" width="5.6" height="5.67"/>
		<rect x="254.26" y="484.49" width="5.67" height="5.67"/>
		<rect x="214.49" y="422.05" width="5.67" height="5.67"/>
		<rect x="248.43" y="535.72" width="5.67" height="5.67"/>
		<rect x="254.09" y="530.05" width="5.67" height="5.67"/>
		<rect x="237.25" y="478.82" width="5.67" height="5.67"/>
		<rect x="259.76" y="524.38" width="5.67" height="5.67"/>
		<rect x="203.15" y="444.73" width="5.67" height="5.67"/>
		<rect x="157.72" y="535.72" width="5.67" height="5.67"/>
		<rect x="276.86" y="382.28" width="5.67" height="5.67"/>
		<rect x="146.38" y="535.72" width="5.67" height="5.67"/>
		<rect x="271.19" y="376.61" width="5.67" height="5.67"/>
		<rect x="259.93" y="376.61" width="5.67" height="5.67"/>
		<rect x="169.06" y="524.38" width="5.67" height="5.67"/>
		<rect x="163.39" y="530.05" width="5.67" height="5.67"/>
		<rect x="293.87" y="399.29" width="5.67" height="5.67"/>
		<rect x="282.53" y="387.95" width="5.67" height="5.67"/>
		<rect x="135.04" y="524.38" width="5.67" height="5.67"/>
		<rect x="140.71" y="530.05" width="5.67" height="5.67"/>
		<rect x="288.2" y="393.62" width="5.67" height="5.67"/>
		<rect x="191.73" y="535.72" width="5.67" height="5.67"/>
		<rect x="186.06" y="530.05" width="5.67" height="5.67"/>
		<rect x="225.83" y="410.71" width="5.67" height="5.67"/>
		<polygon points="237.17,410.63 237.25,410.63 237.25,404.96 231.58,404.96 231.58,405.04 231.5,405.04 231.5,410.71 
			237.17,410.71 		"/>
		<rect x="254.26" y="382.28" width="5.67" height="5.67"/>
		<rect x="220.16" y="416.38" width="5.67" height="5.67"/>
		<rect x="203.07" y="535.72" width="5.67" height="5.67"/>
		<rect x="248.59" y="387.95" width="5.67" height="5.67"/>
		<rect x="174.72" y="518.71" width="5.67" height="5.67"/>
		<rect x="180.39" y="524.38" width="5.67" height="5.67"/>
		<rect x="242.92" y="393.62" width="5.67" height="5.67"/>
		<rect x="237.25" y="399.29" width="5.67" height="5.67"/>
	</g>
</g>
<g>
</g>
<g>
</g>
<g>
</g>
<g>
</g>
<g>
</g>
<g>
</g>
<g>
</g>
<g>
</g>
<g>
</g>
<g>
</g>
<g>
</g>
<g>
</g>
<g>
</g>
<g>
</g>
<g>
</g>
</svg>
