<?xml version="1.0" encoding="utf-8"?>
<!-- Generator: Adobe Illustrator 27.2.0, SVG Export Plug-In . SVG Version: 6.00 Build 0)  -->
<svg version="1.1" id="Layer_1" xmlns="http://www.w3.org/2000/svg" xmlns:xlink="http://www.w3.org/1999/xlink" x="0px" y="0px"
	 viewBox="0 0 800 600" style="enable-background:new 0 0 800 600;" xml:space="preserve">
<g>
	<g>
		<path d="M186.29,425.94l-13.16,13.16l13.16,13.16l13.16-13.16L186.29,425.94z M175.95,439.1l10.33-10.33l10.33,10.33l-10.33,10.33
			L175.95,439.1z"/>
		<path d="M151.27,460.95l13.16,13.16l13.16-13.16l-13.16-13.16L151.27,460.95z M164.43,471.29l-10.33-10.33l10.33-10.33
			l10.33,10.33L164.43,471.29z"/>
		<path d="M208.14,447.79l-13.16,13.16l13.16,13.16l13.16-13.16L208.14,447.79z M197.81,460.95l10.33-10.33l10.33,10.33
			l-10.33,10.33L197.81,460.95z"/>
		<polygon points="145.94,449.57 136.15,439.78 130.94,444.98 140.74,454.78 139.8,455.71 147.96,456.8 146.88,448.64 		"/>
		<polygon points="153.05,442.46 143.26,432.67 138.05,437.87 147.85,447.67 146.91,448.6 155.07,449.68 153.99,441.53 		"/>
		<polygon points="160.17,435.35 150.37,425.55 145.17,430.76 154.96,440.55 154.03,441.49 162.18,442.57 161.1,434.41 		"/>
		<polygon points="167.28,428.23 157.49,418.44 152.28,423.64 162.08,433.44 161.14,434.37 169.3,435.46 168.21,427.3 		"/>
		<polygon points="173.62,402.3 183.41,412.1 182.48,413.03 186.29,413.54 186.29,404.56 178.82,397.1 		"/>
		<polygon points="181.51,414.01 171.71,404.21 166.51,409.42 176.3,419.21 175.37,420.15 183.52,421.23 182.44,413.07 		"/>
		<polygon points="180.73,395.19 186.29,400.75 186.29,390.34 185.94,389.99 		"/>
		<polygon points="174.39,421.12 164.6,411.33 159.39,416.53 169.19,426.33 168.25,427.26 176.41,428.34 175.33,420.19 		"/>
		<polygon points="147.85,474.81 138.05,484.6 143.26,489.81 153.05,480.01 153.99,480.95 155.07,472.79 146.91,473.87 		"/>
		<polygon points="140.74,467.69 130.94,477.49 136.15,482.7 145.94,472.9 146.88,473.83 147.96,465.68 139.8,466.76 		"/>
		<rect x="114.72" y="461.15" transform="matrix(0.7069 -0.7073 0.7073 0.7069 -292.5804 216.378)" width="0.17" height="0.17"/>
		<polygon points="121.92,468.47 129.15,461.24 121.92,454 116.71,459.21 118.74,461.24 116.71,463.26 		"/>
		<polygon points="138.83,465.79 139.76,466.72 140.49,461.24 139.76,455.75 138.83,456.69 129.03,446.89 123.83,452.1 
			132.97,461.24 123.83,470.38 129.03,475.58 		"/>
		<polygon points="231.84,454.78 241.63,444.98 236.43,439.78 226.63,449.57 225.7,448.64 224.62,456.8 232.77,455.71 		"/>
		<polygon points="224.72,447.67 234.52,437.87 229.31,432.67 219.52,442.46 218.59,441.53 217.5,449.68 225.66,448.6 		"/>
		<polygon points="217.61,440.55 227.41,430.76 222.2,425.55 212.41,435.35 211.47,434.41 210.39,442.57 218.55,441.49 		"/>
		<polygon points="210.5,433.44 220.29,423.64 215.09,418.44 205.29,428.23 204.36,427.3 203.28,435.46 211.43,434.37 		"/>
		<polygon points="189.16,412.1 198.95,402.3 193.75,397.1 186.29,404.56 186.29,413.54 190.09,413.03 		"/>
		<polygon points="200.86,404.21 191.07,414.01 190.13,413.07 189.05,421.23 197.21,420.15 196.27,419.21 206.07,409.42 		"/>
		<polygon points="186.64,389.99 186.29,390.34 186.29,400.75 191.84,395.19 		"/>
		<rect x="257.68" y="461.15" transform="matrix(0.7069 -0.7073 0.7073 0.7069 -250.6822 317.4924)" width="0.17" height="0.17"/>
		<polygon points="203.39,426.33 213.18,416.53 207.98,411.33 198.18,421.12 197.25,420.19 196.16,428.34 204.32,427.26 		"/>
		<polygon points="250.65,454 243.42,461.24 250.65,468.47 255.86,463.26 253.83,461.24 255.86,459.21 		"/>
		<polygon points="225.66,473.87 217.5,472.79 218.59,480.95 219.52,480.01 229.31,489.81 234.52,484.6 224.72,474.81 		"/>
		<polygon points="232.77,466.76 224.62,465.68 225.7,473.83 226.63,472.9 236.43,482.7 241.63,477.49 231.84,467.69 		"/>
		<polygon points="248.75,470.38 239.61,461.24 248.75,452.1 243.54,446.89 233.75,456.69 232.81,455.75 232.08,461.24 
			232.81,466.72 233.75,465.79 243.54,475.58 		"/>
		<path d="M117.55,464.87l-3.41,3.41l-3.76-3.76l3.29-3.29l-3.29-3.29l3.76-3.76l3.41,3.41l1.13-1.13l-9.07-9.07l-1.13,1.13
			l3.41,3.41l-3.76,3.76l-4.36-4.36l3.41-3.41l-2.25-2.25l-3.41,3.41l-3.41-3.41l-1.13,1.13l-1.13,1.13l3.41,3.41l-3.41,3.41
			l2.25,2.25l3.41-3.41l4.36,4.36l-3.29,3.29l3.29,3.29l-4.36,4.36l-3.41-3.41l-2.25,2.25l3.41,3.41l-3.41,3.41l1.13,1.13l1.13,1.13
			l3.41-3.41l3.41,3.41l2.25-2.25l-3.41-3.41l4.36-4.36l3.76,3.76l-3.41,3.41l1.13,1.13l9.07-9.07L117.55,464.87z M108.13,462.26
			l-1.03-1.03l1.03-1.03l1.03,1.03L108.13,462.26z"/>
		<polygon points="97.58,463.04 98.71,464.17 101.65,461.23 98.71,458.3 97.58,459.42 99.39,461.23 		"/>
		<polygon points="120.15,478.8 123.91,482.56 120.5,485.96 121.63,487.09 130.7,478.02 129.57,476.89 126.17,480.3 122.41,476.54 
			125.81,473.14 123.56,470.88 120.15,474.29 116.4,470.53 119.8,467.12 118.68,466 109.61,475.07 110.73,476.19 114.14,472.79 
			117.9,476.54 113.54,480.9 110.13,477.49 107.88,479.75 111.28,483.16 107.88,486.56 109.01,487.69 110.13,488.82 113.54,485.41 
			116.95,488.82 119.2,486.56 115.79,483.16 		"/>
		<polygon points="119.8,455.34 116.4,451.93 120.15,448.18 123.56,451.58 125.81,449.33 122.41,445.92 126.17,442.16 
			129.57,445.57 130.7,444.44 121.63,435.38 120.5,436.5 123.91,439.91 120.15,443.67 115.79,439.31 119.2,435.9 116.95,433.65 
			113.54,437.05 110.13,433.65 109.01,434.77 107.88,435.9 111.28,439.31 107.88,442.72 110.13,444.97 113.54,441.56 117.9,445.92 
			114.14,449.68 110.73,446.27 109.61,447.4 118.68,456.47 		"/>
		<polygon points="182.85,372.82 186.25,369.42 186.29,369.45 186.29,364.87 186.25,364.91 182.85,361.5 181.72,362.63 
			180.59,363.76 184,367.16 180.59,370.57 		"/>
		<polygon points="97.58,463.04 99.39,461.23 97.58,459.42 96.45,460.55 97.14,461.23 96.45,461.91 		"/>
		<polygon points="146.21,408.9 149.61,405.49 153.97,409.85 150.21,413.61 146.81,410.2 145.68,411.33 154.75,420.4 155.88,419.27 
			152.47,415.86 156.23,412.1 159.63,415.51 161.89,413.26 158.48,409.85 162.24,406.09 165.65,409.5 166.77,408.37 157.7,399.3 
			156.58,400.43 159.98,403.84 156.23,407.59 151.87,403.24 155.27,399.83 153.02,397.57 149.61,400.98 146.21,397.57 
			143.95,399.83 147.36,403.24 143.95,406.64 		"/>
		<polygon points="141.6,488.92 138.19,492.33 134.43,488.57 137.84,485.16 135.58,482.91 132.18,486.31 128.42,482.56 
			131.83,479.15 130.7,478.02 121.63,487.09 122.76,488.22 126.17,484.81 129.92,488.57 125.56,492.93 122.16,489.52 119.9,491.77 
			123.31,495.18 119.9,498.59 121.03,499.72 122.16,500.84 125.56,497.44 128.97,500.84 131.23,498.59 127.82,495.18 132.18,490.82 
			135.94,494.58 132.53,497.99 133.66,499.11 142.72,490.05 		"/>
		<polygon points="179.92,395.22 176.52,391.81 180.27,388.05 183.68,391.46 185.94,389.21 182.53,385.8 186.29,382.04 
			186.29,379.79 186.29,377.53 182.88,374.13 181.75,375.25 180.63,376.38 184.03,379.79 180.27,383.55 175.92,379.19 
			179.32,375.78 177.07,373.53 173.66,376.93 170.25,373.53 169.13,374.65 168,375.78 171.41,379.19 168,382.59 170.25,384.85 
			173.66,381.44 178.02,385.8 174.26,389.56 170.86,386.15 169.73,387.28 178.8,396.35 		"/>
		<polygon points="158.23,396.87 161.64,393.47 166,397.82 162.24,401.58 158.83,398.18 157.7,399.3 166.77,408.37 167.9,407.24 
			164.49,403.84 168.25,400.08 171.66,403.49 173.91,401.23 170.51,397.82 174.26,394.07 177.67,397.47 178.8,396.35 169.73,387.28 
			168.6,388.41 172.01,391.81 168.25,395.57 163.89,391.21 167.3,387.8 165.04,385.55 161.64,388.96 158.23,385.55 155.98,387.8 
			159.38,391.21 155.98,394.62 		"/>
		<polygon points="143.85,431.29 140.44,427.89 144.2,424.13 147.61,427.53 149.86,425.28 146.46,421.87 150.21,418.12 
			153.62,421.52 154.75,420.4 145.68,411.33 144.55,412.45 147.96,415.86 144.2,419.62 139.84,415.26 143.25,411.85 141,409.6 
			137.59,413.01 134.18,409.6 133.05,410.73 131.93,411.85 135.33,415.26 131.93,418.67 134.18,420.92 137.59,417.51 141.95,421.87 
			138.19,425.63 134.78,422.22 133.66,423.35 142.72,432.42 		"/>
		<polygon points="122.16,432.95 125.56,429.54 129.92,433.9 126.17,437.66 122.76,434.25 121.63,435.38 130.7,444.44 
			131.83,443.32 128.42,439.91 132.18,436.15 135.58,439.56 137.84,437.3 134.43,433.9 138.19,430.14 141.6,433.55 142.72,432.42 
			133.66,423.35 132.53,424.48 135.94,427.89 132.18,431.64 127.82,427.28 131.23,423.88 128.97,421.62 125.56,425.03 
			122.16,421.62 121.03,422.75 119.9,423.88 123.31,427.28 119.9,430.69 		"/>
		<path d="M255.03,457.6l3.41-3.41l3.76,3.76l-3.29,3.29l3.29,3.29l-3.76,3.76l-3.41-3.41L253.9,466l9.07,9.07l1.13-1.13l-3.41-3.41
			l3.76-3.76l4.36,4.36l-3.41,3.41l2.25,2.25l3.41-3.41l3.41,3.41l1.13-1.13l1.13-1.13l-3.41-3.41l3.41-3.41l-2.25-2.25l-3.41,3.41
			l-4.36-4.36l3.29-3.29l-3.29-3.29l4.36-4.36l3.41,3.41l2.25-2.25l-3.41-3.41l3.41-3.41l-1.13-1.13l-1.13-1.13l-3.41,3.41
			l-3.41-3.41l-2.25,2.25l3.41,3.41l-4.36,4.36l-3.76-3.76l3.41-3.41l-1.13-1.13l-9.07,9.07L255.03,457.6z M264.44,460.2l1.03,1.03
			l-1.03,1.03l-1.03-1.03L264.44,460.2z"/>
		<polygon points="274.99,459.42 273.86,458.3 270.93,461.23 273.86,464.17 274.99,463.04 273.18,461.23 		"/>
		<polygon points="252.77,467.12 256.18,470.53 252.42,474.29 249.01,470.88 246.76,473.14 250.17,476.54 246.41,480.3 243,476.89 
			241.87,478.02 250.94,487.09 252.07,485.96 248.66,482.56 252.42,478.8 256.78,483.16 253.37,486.56 255.63,488.82 259.03,485.41 
			262.44,488.82 263.57,487.69 264.7,486.56 261.29,483.16 264.7,479.75 262.44,477.49 259.03,480.9 254.68,476.54 258.43,472.79 
			261.84,476.19 262.97,475.07 253.9,466 		"/>
		<polygon points="252.42,443.67 248.66,439.91 252.07,436.5 250.94,435.38 241.87,444.44 243,445.57 246.41,442.16 250.17,445.92 
			246.76,449.33 249.01,451.58 252.42,448.18 256.18,451.93 252.77,455.34 253.9,456.47 262.97,447.4 261.84,446.27 258.43,449.68 
			254.68,445.92 259.03,441.56 262.44,444.97 264.7,442.72 261.29,439.31 264.7,435.9 263.57,434.77 262.44,433.65 259.03,437.05 
			255.63,433.65 253.37,435.9 256.78,439.31 		"/>
		<polygon points="189.73,372.82 191.98,370.57 188.58,367.16 191.98,363.76 190.85,362.63 189.73,361.5 186.32,364.91 
			186.29,364.87 186.29,369.45 186.32,369.42 		"/>
		<polygon points="276.12,461.91 275.44,461.23 276.12,460.55 274.99,459.42 273.18,461.23 274.99,463.04 		"/>
		<polygon points="216.35,407.59 212.59,403.84 216,400.43 214.87,399.3 205.8,408.37 206.93,409.5 210.34,406.09 214.09,409.85 
			210.69,413.26 212.94,415.51 216.35,412.1 220.1,415.86 216.7,419.27 217.83,420.4 226.89,411.33 225.77,410.2 222.36,413.61 
			218.6,409.85 222.96,405.49 226.37,408.9 228.62,406.64 225.22,403.24 228.62,399.83 226.37,397.57 222.96,400.98 219.55,397.57 
			217.3,399.83 220.71,403.24 		"/>
		<polygon points="236.64,494.58 240.4,490.82 244.76,495.18 241.35,498.59 243.6,500.84 247.01,497.44 250.42,500.84 
			251.54,499.72 252.67,498.59 249.26,495.18 252.67,491.77 250.42,489.52 247.01,492.93 242.65,488.57 246.41,484.81 
			249.82,488.22 250.94,487.09 241.87,478.02 240.75,479.15 244.15,482.56 240.4,486.31 236.99,482.91 234.73,485.16 238.14,488.57 
			234.38,492.33 230.98,488.92 229.85,490.05 238.92,499.11 240.05,497.99 		"/>
		<polygon points="186.64,389.21 188.89,391.46 192.3,388.05 196.06,391.81 192.65,395.22 193.78,396.35 202.84,387.28 
			201.72,386.15 198.31,389.56 194.55,385.8 198.91,381.44 202.32,384.85 204.57,382.59 201.17,379.19 204.57,375.78 203.45,374.65 
			202.32,373.53 198.91,376.93 195.51,373.53 193.25,375.78 196.66,379.19 192.3,383.55 188.54,379.79 191.95,376.38 190.82,375.25 
			189.69,374.13 186.29,377.53 186.29,379.79 186.29,382.04 190.04,385.8 		"/>
		<polygon points="194.9,397.47 198.31,394.07 202.07,397.82 198.66,401.23 200.92,403.49 204.32,400.08 208.08,403.84 
			204.67,407.24 205.8,408.37 214.87,399.3 213.74,398.18 210.34,401.58 206.58,397.82 210.94,393.47 214.34,396.87 216.6,394.62 
			213.19,391.21 216.6,387.8 214.34,385.55 210.94,388.96 207.53,385.55 205.27,387.8 208.68,391.21 204.32,395.57 200.57,391.81 
			203.97,388.41 202.84,387.28 193.78,396.35 		"/>
		<polygon points="228.37,419.62 224.61,415.86 228.02,412.45 226.89,411.33 217.83,420.4 218.95,421.52 222.36,418.12 
			226.12,421.87 222.71,425.28 224.96,427.53 228.37,424.13 232.13,427.89 228.72,431.29 229.85,432.42 238.92,423.35 
			237.79,422.22 234.38,425.63 230.63,421.87 234.99,417.51 238.39,420.92 240.65,418.67 237.24,415.26 240.65,411.85 
			239.52,410.73 238.39,409.6 234.99,413.01 231.58,409.6 229.32,411.85 232.73,415.26 		"/>
		<polygon points="230.98,433.55 234.38,430.14 238.14,433.9 234.73,437.3 236.99,439.56 240.4,436.15 244.15,439.91 240.75,443.32 
			241.87,444.44 250.94,435.38 249.82,434.25 246.41,437.66 242.65,433.9 247.01,429.54 250.42,432.95 252.67,430.69 249.26,427.28 
			252.67,423.88 251.54,422.75 250.42,421.62 247.01,425.03 243.6,421.62 241.35,423.88 244.76,427.28 240.4,431.64 236.64,427.89 
			240.05,424.48 238.92,423.35 229.85,432.42 		"/>
		<polygon points="93.05,461.18 96.45,457.77 95.33,456.64 94.2,455.52 90.79,458.92 87.39,455.52 85.13,457.77 88.54,461.18 
			85.27,464.44 87.53,466.7 90.79,463.43 94.2,466.84 96.45,464.58 		"/>
		<polygon points="279.53,461.18 276.12,464.58 278.37,466.84 281.78,463.43 285.04,466.7 287.3,464.44 284.03,461.18 
			287.44,457.77 285.19,455.52 281.78,458.92 278.37,455.52 277.25,456.64 276.12,457.77 		"/>
		<rect x="144.08" y="304.52" width="5.67" height="5.67"/>
		<rect x="149.75" y="298.85" width="5.67" height="5.67"/>
		<rect x="222.83" y="304.52" width="5.67" height="5.67"/>
		<rect x="217.16" y="298.85" width="5.67" height="5.67"/>
		<rect x="200.46" y="319.45" width="5.67" height="5.67"/>
		<rect x="194.79" y="313.78" width="5.67" height="5.67"/>
		<rect x="183.45" y="336.46" width="5.67" height="5.67"/>
		<rect x="177.78" y="330.79" width="5.67" height="5.67"/>
		<rect x="172.11" y="325.12" width="5.67" height="5.67"/>
		<rect x="166.44" y="319.45" width="5.67" height="5.67"/>
		<rect x="189.12" y="330.79" width="5.67" height="5.67"/>
		<rect x="183.45" y="325.12" width="5.67" height="5.67"/>
		<rect x="177.78" y="319.45" width="5.67" height="5.67"/>
		<rect x="160.77" y="313.78" width="5.67" height="5.67"/>
		<rect x="172.11" y="313.78" width="5.67" height="5.67"/>
		<polygon points="169.28,307.36 163.42,313.21 175.13,313.21 		"/>
		<polygon points="203.29,307.36 197.44,313.21 209.15,313.21 		"/>
		<rect x="194.79" y="325.12" width="5.67" height="5.67"/>
		<rect x="189.12" y="319.45" width="5.67" height="5.67"/>
		<rect x="206.13" y="313.78" width="5.67" height="5.67"/>
		<path d="M196.26,303.42l-9.97-9.97l-9.97,9.97l9.97,9.97L196.26,303.42z M186.29,296.27l7.14,7.14l-7.14,7.14l-7.14-7.14
			L186.29,296.27z"/>
		<rect x="183.45" y="278.02" width="5.67" height="5.67"/>
		<rect x="177.78" y="272.35" width="5.67" height="5.67"/>
		<rect x="183.45" y="266.68" width="5.67" height="5.67"/>
		<rect x="189.12" y="272.35" width="5.67" height="5.67"/>
		<rect x="60.17" y="402.6" width="5.67" height="5.67"/>
		<rect x="54.5" y="396.93" width="5.67" height="5.67"/>
		<rect x="60.17" y="391.26" width="5.67" height="5.67"/>
		<rect x="65.84" y="396.93" width="5.67" height="5.67"/>
		<rect x="110.63" y="412.51" width="5.67" height="5.67"/>
		<rect x="104.96" y="406.84" width="5.67" height="5.67"/>
		<rect x="93.62" y="429.52" width="5.67" height="5.67"/>
		<rect x="87.95" y="423.85" width="5.67" height="5.67"/>
		<rect x="82.28" y="418.18" width="5.67" height="5.67"/>
		<rect x="76.61" y="412.51" width="5.67" height="5.67"/>
		<rect x="99.29" y="423.85" width="5.67" height="5.67"/>
		<rect x="93.62" y="418.18" width="5.67" height="5.67"/>
		<rect x="87.95" y="412.51" width="5.67" height="5.67"/>
		<rect x="70.94" y="406.84" width="5.67" height="5.67"/>
		<rect x="82.28" y="406.84" width="5.67" height="5.67"/>
		<polygon points="79.45,400.41 73.59,406.27 85.3,406.27 		"/>
		<polygon points="113.46,400.41 107.61,406.27 119.32,406.27 		"/>
		<rect x="104.96" y="418.18" width="5.67" height="5.67"/>
		<rect x="99.29" y="412.51" width="5.67" height="5.67"/>
		<rect x="116.3" y="406.84" width="5.67" height="5.67"/>
		<path d="M106.43,396.47l-9.97-9.97l-9.97,9.97l9.97,9.97L106.43,396.47z M96.46,389.33l7.14,7.14l-7.14,7.14l-7.14-7.14
			L96.46,389.33z"/>
		<rect x="93.62" y="371.08" width="5.67" height="5.67"/>
		<rect x="87.95" y="365.41" width="5.67" height="5.67"/>
		<rect x="93.62" y="359.74" width="5.67" height="5.67"/>
		<rect x="99.29" y="365.41" width="5.67" height="5.67"/>
		<rect x="158.87" y="350.75" width="5.67" height="5.67"/>
		<rect x="144.03" y="365.6" width="5.67" height="5.67"/>
		<rect x="129.07" y="380.56" width="5.67" height="5.67"/>
		<rect x="159.72" y="336.66" width="7.35" height="7.35"/>
		<polygon points="159.71,336.64 159.71,330.98 154.04,336.64 		"/>
		<rect x="144.75" y="351.63" width="7.35" height="7.35"/>
		<polygon points="144.73,351.62 144.73,345.95 139.06,351.62 		"/>
		<rect x="129.78" y="366.61" width="7.35" height="7.35"/>
		<polygon points="129.76,360.92 124.09,366.59 129.76,366.59 		"/>
		<rect x="114.81" y="381.58" width="7.35" height="7.35"/>
		<polygon points="114.79,375.89 109.12,381.56 114.79,381.56 		"/>
		<rect x="55.67" y="463.13" width="5.67" height="5.67"/>
		<rect x="50" y="457.46" width="5.67" height="5.67"/>
		<rect x="55.67" y="451.79" width="5.67" height="5.67"/>
		<rect x="61.34" y="457.46" width="5.67" height="5.67"/>
		<polygon points="68.47,466.38 74.55,460.3 68.47,454.21 		"/>
		<polygon points="80.22,442.46 68.92,453.76 80.22,453.76 		"/>
		<polygon points="80.2,478.4 80.2,467.1 68.9,467.1 		"/>
		<polygon points="91.59,489.79 91.59,478.48 80.28,478.48 		"/>
		<polygon points="102.97,501.17 102.97,489.87 91.67,489.87 		"/>
		<polygon points="114.35,512.55 114.35,501.25 103.05,501.25 		"/>
		<rect x="306.73" y="402.6" width="5.67" height="5.67"/>
		<rect x="312.4" y="396.93" width="5.67" height="5.67"/>
		<rect x="306.73" y="391.26" width="5.67" height="5.67"/>
		<rect x="301.06" y="396.93" width="5.67" height="5.67"/>
		<rect x="256.28" y="412.51" width="5.67" height="5.67"/>
		<rect x="261.95" y="406.84" width="5.67" height="5.67"/>
		<rect x="273.28" y="429.52" width="5.67" height="5.67"/>
		<rect x="278.95" y="423.85" width="5.67" height="5.67"/>
		<rect x="284.62" y="418.18" width="5.67" height="5.67"/>
		<rect x="290.29" y="412.51" width="5.67" height="5.67"/>
		<rect x="267.61" y="423.85" width="5.67" height="5.67"/>
		<rect x="273.28" y="418.18" width="5.67" height="5.67"/>
		<rect x="278.95" y="412.51" width="5.67" height="5.67"/>
		<rect x="295.96" y="406.84" width="5.67" height="5.67"/>
		<rect x="284.62" y="406.84" width="5.67" height="5.67"/>
		<polygon points="287.27,406.27 298.98,406.27 293.13,400.41 		"/>
		<polygon points="259.11,400.41 253.26,406.27 264.97,406.27 		"/>
		<rect x="261.95" y="418.18" width="5.67" height="5.67"/>
		<rect x="267.61" y="412.51" width="5.67" height="5.67"/>
		<rect x="250.61" y="406.84" width="5.67" height="5.67"/>
		<path d="M286.09,396.47l-9.97-9.97l-9.97,9.97l9.97,9.97L286.09,396.47z M276.12,389.33l7.14,7.14l-7.14,7.14l-7.14-7.14
			L276.12,389.33z"/>
		<rect x="273.28" y="371.08" width="5.67" height="5.67"/>
		<rect x="278.95" y="365.41" width="5.67" height="5.67"/>
		<rect x="273.28" y="359.74" width="5.67" height="5.67"/>
		<rect x="267.61" y="365.41" width="5.67" height="5.67"/>
		<rect x="208.03" y="350.75" width="5.67" height="5.67"/>
		<rect x="222.88" y="365.6" width="5.67" height="5.67"/>
		<rect x="237.83" y="380.56" width="5.67" height="5.67"/>
		<rect x="205.5" y="336.66" width="7.35" height="7.35"/>
		<polygon points="212.87,330.98 212.87,336.64 218.54,336.64 		"/>
		<rect x="220.47" y="351.63" width="7.35" height="7.35"/>
		<polygon points="227.84,345.95 227.84,351.62 233.51,351.62 		"/>
		<rect x="235.44" y="366.61" width="7.35" height="7.35"/>
		<polygon points="242.81,360.92 242.81,366.59 248.48,366.59 		"/>
		<rect x="250.42" y="381.58" width="7.35" height="7.35"/>
		<polygon points="257.78,375.89 257.78,381.56 263.45,381.56 		"/>
		<rect x="311.23" y="463.13" width="5.67" height="5.67"/>
		<rect x="316.9" y="457.46" width="5.67" height="5.67"/>
		<rect x="311.23" y="451.79" width="5.67" height="5.67"/>
		<rect x="305.57" y="457.46" width="5.67" height="5.67"/>
		<polygon points="304.11,466.38 304.11,454.21 298.02,460.3 		"/>
		<polygon points="303.65,453.76 292.35,442.46 292.35,453.76 		"/>
		<polygon points="292.37,478.4 303.67,467.1 292.37,467.1 		"/>
		<polygon points="280.99,489.79 292.29,478.48 280.99,478.48 		"/>
		<polygon points="269.6,501.17 280.91,489.87 269.6,489.87 		"/>
		<polygon points="258.22,512.55 269.52,501.25 258.22,501.25 		"/>
		<path d="M246.84,512.64v5.96l-3.6-3.6l54.67-54.67l-20.18-20.18l3.17-3.17v5.34h11.3l-8.32-8.32l24.1-24.1l-14.74-14.74
			l-0.01,0.01l-17.11-17.11l-17.11,17.11l-0.01-0.01l-8.76,8.76v-14.8h-14.91l-0.06-0.06v-14.91h-14.91l-0.06-0.06v-14.91h-14.91
			l-0.06-0.06v-14.91h-14.53l27.36-27.36l-0.97-0.97h5.65v-5.67h-5.67v5.65l-5.65-5.65h5.65v-5.67h-5.67v5.65l-8.08-8.08l-0.01,0.01
			l-17.11-17.11l-17.11,17.11l-0.01-0.01l-8.08,8.08v-5.65h-5.67v5.67h5.65l-5.65,5.65v-5.65h-5.67v5.67h5.65l-0.97,0.97
			l27.36,27.36h-14.53v14.91l-0.06,0.06h-14.91v14.91l-0.06,0.06h-14.91v14.91l-0.06,0.06h-14.91v14.8l-8.76-8.76l-0.01,0.01
			l-17.11-17.11l-17.11,17.11l-0.01-0.01l-14.74,14.74l24.1,24.1l-8.32,8.32h11.3v-5.34l3.17,3.17l-20.18,20.18l54.67,54.67
			l-3.6,3.6v-5.95h-11.3l8.63,8.63l-6.94,6.94l21.8,21.8h3.54l44.83-44.83L231.12,550h3.54l21.79-21.79l-6.94-6.94l8.63-8.63H246.84
			z M186.29,348.69L186.29,348.69L186.29,348.69l-59.58,59.58l-2.19-2.19l59.58-59.58L186.29,348.69l2.19-2.19l59.58,59.58
			l-2.19,2.19L186.29,348.69L186.29,348.69L186.29,348.69z M276.32,438.72l-29.04-29.04L259,397.97l17.12,17.12l17.12-17.12
			l11.92,11.92L276.32,438.72z M276.12,380.88l15.59,15.59l-15.59,15.59l-15.59-15.59L276.12,380.88z M186.29,287.82l15.59,15.59
			l-15.59,15.59l-15.59-15.59L186.29,287.82z M169.17,304.91l17.12,17.12l17.12-17.12l11.92,11.92l-29.04,29.04l-29.04-29.04
			L169.17,304.91z M96.46,380.88l15.59,15.59l-15.59,15.59l-15.59-15.59L96.46,380.88z M67.42,409.89l11.92-11.92l17.12,17.12v0l0,0
			v0v0l17.12-17.12l11.72,11.72l-29.04,29.04L67.42,409.89z M78.91,460.32l107.38-107.38l107.38,107.38l-52.55,52.55l-1.36-1.36
			l0.9-0.9l-3.41-3.41l3.41-3.41l-2.25-2.25l-3.41,3.41l-4.36-4.36l3.76-3.76l3.41,3.41l1.13-1.13l-9.07-9.07l-1.13,1.13l3.41,3.41
			l-3.76,3.76l-3.41-3.41l-0.9,0.9l-0.39-0.39l3.72-3.72l-9.8-9.8l0.93-0.93l-8.16-1.08l0.34,2.58l-1.68-1.68l19.55-19.55
			l-20.46-20.46l-19.55,19.55l-1.4-1.4l19.55-19.55l-20.46-20.46l-20.46,20.46l19.55,19.55l-1.4,1.4l-19.55-19.55l-20.46,20.46
			l19.55,19.55l-1.68,1.68l0.34-2.58l-8.16,1.08l0.93,0.93l-9.8,9.8l3.72,3.72l-0.39,0.39l-0.89-0.89l-3.41,3.41l-3.76-3.76
			l3.41-3.41l-1.13-1.13l-9.07,9.07l1.13,1.13l3.41-3.41l3.76,3.76l-4.36,4.36l-3.41-3.41l-2.25,2.25l3.41,3.41l-3.41,3.41
			l0.89,0.89l-1.36,1.36L78.91,460.32z M190.51,461.25l17.63-17.63l17.63,17.63l-17.63,17.63L190.51,461.25z M168.66,439.4
			l17.63-17.63l17.63,17.63l-17.63,17.63L168.66,439.4z M164.43,478.88l-17.63-17.63l17.63-17.63l17.63,17.63L164.43,478.88z
			 M232.18,548.23l-45.89-45.89l-45.89,45.89l-20.03-20.03l4.02-4.02v4.99h5.67v-5.67h-4.99l6.4-6.4v4.99h5.67v-5.67h-4.99l6.4-6.4
			v4.99h5.67v-5.67h-4.99l6.4-6.4v4.99h5.67v-5.67h-4.99l6.4-6.4v4.99h5.67v-5.67h-4.99l6.4-6.4v4.99h5.67v-5.67h-4.99l6.4-6.4v4.99
			h5.67v-5.67h-4.99l6.4-6.4v4.99h5.67v-5.67h-4.99l11.71-11.71l11.71,11.71h-4.98v5.67h5.67v-4.98l6.39,6.39h-4.98v5.67h5.67v-4.98
			l6.39,6.39h-4.98v5.67h5.67v-4.98l6.39,6.39h-4.98v5.67h5.67v-4.98l6.39,6.39h-4.98v5.67h5.67v-4.98l6.39,6.39h-4.98v5.67h5.67
			v-4.98l6.39,6.39h-4.98v5.67h5.67v-4.98l6.39,6.39h-4.98v5.67h5.67v-4.98l4.02,4.02L232.18,548.23z"/>
		<polygon points="227.08,523.39 228.02,524.33 218.22,534.12 223.43,539.33 233.22,529.53 234.16,530.47 235.24,522.31 		"/>
		<polygon points="235.09,531.4 225.3,541.2 230.5,546.4 240.3,536.61 241.23,537.54 242.31,529.38 234.16,530.47 		"/>
		<rect x="183.45" y="473.89" transform="matrix(0.7071 -0.7071 0.7071 0.7071 -282.5336 271.357)" width="5.67" height="5.67"/>
		<rect x="183.45" y="465.87" transform="matrix(0.7071 -0.7071 0.7071 0.7071 -276.8627 269.0051)" width="5.67" height="5.67"/>
		<polygon points="187.69,550 190.52,550 208.15,532.37 225.78,550 228.6,550 208.15,529.54 		"/>
		<polygon points="194.99,549.7 195.28,550 198.11,550 197.81,549.7 208.15,539.37 218.48,549.7 218.18,550 221.01,550 
			221.31,549.7 208.15,536.54 		"/>
		<polygon points="151.27,549.7 151.57,550 154.4,550 154.1,549.7 164.43,539.37 174.77,549.7 174.47,550 177.3,550 177.6,549.7 
			164.43,536.54 		"/>
		<path d="M186.29,507.69l-20.46,20.46l20.46,20.46l20.46-20.46L186.29,507.69z M168.66,528.14l17.63-17.63l17.63,17.63
			l-17.63,17.63L168.66,528.14z"/>
		<path d="M186.29,514.69l-13.16,13.16l13.16,13.16l13.16-13.16L186.29,514.69z M175.96,527.85l10.33-10.33l10.33,10.33
			l-10.33,10.33L175.96,527.85z"/>
		<polygon points="220.01,516.32 220.94,517.25 211.15,527.05 216.35,532.25 226.15,522.46 227.08,523.39 228.16,515.24 		"/>
		<polygon points="143.98,550 146.8,550 164.43,532.37 182.07,550 184.89,550 164.43,529.54 		"/>
		<polygon points="145.49,523.39 146.42,522.46 156.22,532.25 161.43,527.05 151.63,517.25 152.56,516.32 144.41,515.24 		"/>
		<polygon points="152.56,516.32 153.5,515.38 163.29,525.18 168.5,519.97 158.7,510.18 159.64,509.24 151.48,508.16 		"/>
		<polygon points="159.64,509.24 160.57,508.31 170.37,518.11 175.57,512.9 165.78,503.11 166.71,502.17 158.56,501.09 		"/>
		<polygon points="138.42,530.47 139.35,529.53 149.15,539.33 154.35,534.12 144.56,524.33 145.49,523.39 137.33,522.31 		"/>
		<polygon points="131.34,537.54 132.28,536.61 142.07,546.4 147.28,541.2 137.48,531.4 138.42,530.47 130.26,529.38 		"/>
		<polygon points="186.29,491.58 190.78,487.09 191.71,488.02 192.8,479.87 186.29,480.73 179.78,479.87 180.86,488.02 
			181.79,487.09 		"/>
		<polygon points="166.71,502.17 167.65,501.24 177.44,511.03 182.65,505.83 172.85,496.03 173.79,495.1 165.63,494.02 		"/>
		<polygon points="198.79,495.1 199.72,496.03 189.93,505.83 195.13,511.03 204.93,501.24 205.86,502.17 206.94,494.02 		"/>
		<polygon points="205.86,502.17 206.8,503.11 197,512.9 202.21,518.11 212,508.31 212.94,509.24 214.02,501.09 		"/>
		<polygon points="191.71,488.02 192.65,488.96 186.29,495.32 179.92,488.96 180.86,488.02 172.7,486.94 173.79,495.1 
			174.72,494.16 184.51,503.96 186.29,502.19 188.06,503.96 197.85,494.16 198.79,495.1 199.87,486.94 		"/>
		<polygon points="212.94,509.24 213.87,510.18 204.07,519.97 209.28,525.18 219.07,515.38 220.01,516.32 221.09,508.16 		"/>
	</g>
</g>
<g>
</g>
<g>
</g>
<g>
</g>
<g>
</g>
<g>
</g>
<g>
</g>
<g>
</g>
<g>
</g>
<g>
</g>
<g>
</g>
<g>
</g>
<g>
</g>
<g>
</g>
<g>
</g>
<g>
</g>
</svg>
