<?xml version="1.0" encoding="utf-8"?>
<!-- Generator: Adobe Illustrator 27.2.0, SVG Export Plug-In . SVG Version: 6.00 Build 0)  -->
<svg version="1.1" id="Layer_1" xmlns="http://www.w3.org/2000/svg" xmlns:xlink="http://www.w3.org/1999/xlink" x="0px" y="0px"
	 viewBox="0 0 800 600" style="enable-background:new 0 0 800 600;" xml:space="preserve">
<g>
	<g>
		<g>
			<path style="fill:none;stroke:#000000;stroke-width:2.8;stroke-miterlimit:10;" d="M70.46,491.06
				c6.14-5.41,5.49-15.36-2.08-13.53c-1.31,0.32-2.56,0.99-3.38,2.06c-0.93,1.21-1.43,3.06,1.11,5.16"/>
			<path style="fill:none;stroke:#000000;stroke-width:2.8;stroke-miterlimit:10;" d="M103.58,491.06
				c-6.14-5.41-5.49-15.36,2.08-13.53c1.31,0.32,2.56,0.99,3.38,2.06c0.93,1.21,1.43,3.06-1.11,5.16"/>
			<g>
				<g>
					<g>
						<g>
							<polygon points="82.48,520.3 85.86,516.92 83.86,514.91 80.47,518.3 80.47,518.3 78.21,516.03 75.94,513.76 79.32,510.37 
								77.31,508.37 73.93,511.75 71.66,509.48 69.39,507.21 69.39,507.21 72.77,503.83 70.77,501.82 67.39,505.21 62.85,500.67 
								66.23,497.28 64.23,495.28 60.84,498.66 57.38,495.2 55.37,497.21 56.56,498.4 58.83,500.67 55.45,504.05 57.46,506.06 
								60.84,502.68 63.11,504.95 65.38,507.22 67.39,505.21 65.38,507.21 62,510.6 64,512.6 67.38,509.22 69.65,511.49 
								71.92,513.76 68.54,517.14 70.54,519.15 73.93,515.76 78.47,520.3 78.47,520.3 80.47,522.31 82.48,520.3 80.47,522.31 
								78.47,520.3 78.47,520.3 75.08,523.69 77.09,525.69 80.47,522.31 82.74,524.58 85.01,526.85 81.63,530.23 83.63,532.24 
								87.02,528.85 87.02,528.86 87.02,524.84 87.02,524.84 							"/>
							<polygon points="69.37,494.11 71.64,491.84 73.02,490.46 71.01,488.46 69.63,489.84 67.36,492.1 69.37,494.11 67.37,496.12 
								67.37,496.12 69.37,494.11 67.37,492.11 67.36,492.1 63.98,488.72 61.98,490.73 65.36,494.11 63.09,496.38 60.82,498.65 
								57.44,495.27 55.43,497.27 58.82,500.66 60.82,502.66 60.82,502.66 58.82,500.65 56.55,502.92 58.55,504.93 60.82,502.66 
								64.21,506.04 66.21,504.04 62.83,500.66 62.83,500.66 65.1,498.39 67.37,496.12 70.75,499.5 72.76,497.5 69.37,494.11 
															"/>
						</g>
						<g>
							<polygon points="91.56,520.3 88.17,516.92 90.18,514.91 93.56,518.3 93.56,518.3 95.83,516.03 98.1,513.76 94.72,510.37 
								96.72,508.37 100.11,511.75 102.38,509.48 104.65,507.21 104.65,507.21 101.26,503.83 103.27,501.82 106.65,505.21 
								111.19,500.67 107.81,497.28 109.81,495.28 113.19,498.66 116.66,495.2 118.67,497.21 117.47,498.4 115.2,500.67 
								118.59,504.05 116.58,506.06 113.2,502.68 110.93,504.95 108.66,507.22 106.65,505.21 108.66,507.21 112.04,510.6 
								110.04,512.6 106.65,509.22 104.38,511.49 102.11,513.76 105.5,517.14 103.49,519.15 100.11,515.76 95.57,520.3 95.57,520.3 
								93.56,522.31 91.56,520.3 93.56,522.31 95.57,520.3 95.57,520.3 98.95,523.69 96.95,525.69 93.57,522.31 91.3,524.58 
								89.03,526.85 92.41,530.23 90.41,532.24 87.02,528.85 87.02,528.86 87.02,524.84 87.02,524.84 							"/>
							<polygon points="104.67,494.11 102.4,491.84 101.02,490.46 103.02,488.46 104.4,489.84 106.67,492.1 104.67,494.11 
								106.67,496.12 106.67,496.12 104.67,494.11 106.67,492.11 106.67,492.1 110.06,488.72 112.06,490.73 108.68,494.11 
								110.95,496.38 113.22,498.65 116.6,495.27 118.61,497.27 115.22,500.66 113.22,502.66 113.21,502.66 115.22,500.65 
								117.49,502.92 115.48,504.93 113.21,502.66 109.83,506.04 107.83,504.04 111.21,500.66 111.21,500.66 108.94,498.39 
								106.67,496.12 103.29,499.5 101.28,497.5 104.67,494.11 							"/>
						</g>
					</g>
					<g>
						<circle style="fill:none;stroke:#000000;stroke-width:2;stroke-miterlimit:10;" cx="87.02" cy="500.91" r="9.01"/>
						<g>
							<g>
								<g>
									<rect x="85.6" y="466.55" width="2.83" height="2.83"/>
									<rect x="85.6" y="464.93" width="2.83" height="1.62"/>
									
										<rect x="83.37" y="467.15" transform="matrix(-1.836970e-16 1 -1 -1.836970e-16 552.756 383.1751)" width="2.83" height="1.62"/>
									
										<rect x="87.83" y="467.15" transform="matrix(-1.836970e-16 1 -1 -1.836970e-16 557.2126 378.7184)" width="2.83" height="1.62"/>
									<rect x="85.6" y="469.38" width="2.83" height="1.62"/>
								</g>
								<g>
									<rect x="85.6" y="457.3" width="2.83" height="2.83"/>
									<rect x="85.6" y="452.52" width="2.83" height="4.79"/>
									<rect x="85.6" y="460.14" width="2.83" height="4.79"/>
									<rect x="88.44" y="457.3" width="4.79" height="2.83"/>
									<rect x="80.81" y="457.3" width="4.79" height="2.83"/>
								</g>
								<g>
									<rect x="76.36" y="466.55" width="2.83" height="2.83"/>
									<rect x="76.36" y="461.76" width="2.83" height="4.79"/>
									<rect x="76.36" y="469.38" width="2.83" height="4.79"/>
									<rect x="79.19" y="466.55" width="4.79" height="2.83"/>
									<rect x="71.57" y="466.55" width="4.79" height="2.83"/>
								</g>
								<g>
									<rect x="94.85" y="466.55" width="2.83" height="2.83"/>
									<rect x="94.85" y="461.76" width="2.83" height="4.79"/>
									<rect x="94.85" y="469.38" width="2.83" height="4.79"/>
									<rect x="97.68" y="466.55" width="4.79" height="2.83"/>
									<rect x="90.06" y="466.55" width="4.79" height="2.83"/>
								</g>
								<g>
									<rect x="85.6" y="475.79" width="2.83" height="2.83"/>
									<rect x="85.6" y="471" width="2.83" height="4.79"/>
									<rect x="85.6" y="478.63" width="2.83" height="4.79"/>
									<rect x="88.44" y="475.79" width="4.79" height="2.83"/>
									<rect x="80.81" y="475.79" width="4.79" height="2.83"/>
								</g>
							</g>
							<line style="stroke:#000000;stroke-width:2.8;stroke-miterlimit:10;" x1="87.02" y1="492.39" x2="87.02" y2="476.21"/>
						</g>
					</g>
				</g>
				<g>
					<g>
						<rect x="85.6" y="542.38" width="2.83" height="2.83"/>
						<rect x="85.6" y="537.59" width="2.83" height="4.79"/>
						<rect x="85.6" y="545.21" width="2.83" height="4.79"/>
						<rect x="88.44" y="542.38" width="3.21" height="2.84"/>
						<rect x="82.39" y="542.38" width="3.21" height="2.84"/>
					</g>
					<polygon points="79.18,542.38 79.18,537.59 76.35,537.59 76.35,542.38 69.93,542.38 69.93,536.01 74.71,536.01 74.71,533.17 
						69.93,533.17 69.93,528.39 67.09,528.39 67.09,533.17 62.3,533.17 62.3,536.01 67.09,536.01 67.09,542.38 60.67,542.38 
						60.67,537.59 57.84,537.59 57.84,542.38 51.42,542.38 51.42,540.88 51.42,540.88 51.42,536.09 56.2,536.09 56.2,533.25 
						51.42,533.25 51.42,528.47 51.42,528.47 51.42,526.85 57.83,526.85 57.83,531.63 60.66,531.63 60.66,526.85 65.45,526.85 
						65.45,524.01 60.66,524.01 60.66,519.22 57.83,519.22 57.83,524.01 51.42,524.01 51.42,522.39 51.42,522.39 51.42,517.6 
						56.2,517.6 56.2,514.77 51.42,514.77 51.42,509.98 50,509.98 50,536.09 51.42,536.09 51.42,536.09 50,536.09 50,550 51.42,550 
						51.42,545.22 57.84,545.22 57.84,550 60.67,550 60.67,545.22 67.09,545.22 67.09,550 69.93,550 69.93,545.22 76.35,545.22 
						76.35,550 79.18,550 79.18,545.22 82.39,545.22 82.39,542.38 					"/>
					<polygon points="94.86,542.38 94.86,537.59 97.69,537.59 97.69,542.38 104.11,542.38 104.11,536.01 99.32,536.01 99.32,533.17 
						104.11,533.17 104.11,528.39 106.95,528.39 106.95,533.17 111.73,533.17 111.73,536.01 106.95,536.01 106.95,542.38 
						113.37,542.38 113.37,537.59 116.2,537.59 116.2,542.38 122.62,542.38 122.62,540.88 122.62,540.88 122.62,536.09 
						117.83,536.09 117.83,533.25 122.62,533.25 122.62,528.47 122.62,528.47 122.62,526.85 116.21,526.85 116.21,531.63 
						113.38,531.63 113.38,526.85 108.59,526.85 108.59,524.01 113.38,524.01 113.38,519.22 116.21,519.22 116.21,524.01 
						122.62,524.01 122.62,522.39 122.62,522.39 122.62,517.6 117.83,517.6 117.83,514.77 122.62,514.77 122.62,509.98 
						124.04,509.98 124.04,536.09 122.62,536.09 122.62,536.09 124.04,536.09 124.04,550 122.62,550 122.62,545.22 116.2,545.22 
						116.2,550 113.37,550 113.37,545.22 106.95,545.22 106.95,550 104.11,550 104.11,545.22 97.69,545.22 97.69,550 94.86,550 
						94.86,545.22 91.65,545.22 91.65,542.38 					"/>
				</g>
			</g>
		</g>
		<g>
			<path style="fill:none;stroke:#000000;stroke-width:2.8;stroke-miterlimit:10;" d="M144.49,491.06
				c6.14-5.41,5.49-15.36-2.08-13.53c-1.31,0.32-2.56,0.99-3.38,2.06c-0.93,1.21-1.43,3.06,1.11,5.16"/>
			<path style="fill:none;stroke:#000000;stroke-width:2.8;stroke-miterlimit:10;" d="M177.62,491.06
				c-6.14-5.41-5.49-15.36,2.08-13.53c1.31,0.32,2.56,0.99,3.38,2.06c0.93,1.21,1.43,3.06-1.11,5.16"/>
			<g>
				<g>
					<g>
						<g>
							<polygon points="156.52,520.3 159.9,516.92 157.9,514.91 154.51,518.3 154.51,518.3 152.24,516.03 149.97,513.76 
								153.36,510.37 151.35,508.37 147.97,511.75 145.7,509.48 143.43,507.21 143.43,507.21 146.81,503.83 144.81,501.82 
								141.43,505.21 136.89,500.67 140.27,497.28 138.26,495.28 134.88,498.66 131.42,495.2 129.41,497.21 130.6,498.4 
								132.87,500.67 129.49,504.05 131.49,506.06 134.88,502.68 137.15,504.95 139.42,507.22 141.42,505.21 139.42,507.21 
								136.03,510.6 138.04,512.6 141.42,509.22 143.69,511.49 145.96,513.76 142.58,517.14 144.58,519.15 147.97,515.76 
								152.5,520.3 152.51,520.3 154.51,522.31 156.52,520.3 154.51,522.31 152.51,520.3 152.5,520.3 149.12,523.69 151.13,525.69 
								154.51,522.31 156.78,524.58 159.05,526.85 155.67,530.23 157.67,532.24 161.05,528.85 161.06,528.86 161.06,524.84 
								161.06,524.84 							"/>
							<polygon points="143.41,494.11 145.68,491.84 147.06,490.46 145.05,488.46 143.67,489.84 141.4,492.1 143.41,494.11 
								141.4,496.12 141.4,496.12 143.41,494.11 141.4,492.11 141.4,492.1 138.02,488.72 136.01,490.73 139.4,494.11 137.13,496.38 
								134.86,498.65 131.47,495.27 129.47,497.27 132.86,500.66 134.86,502.66 134.86,502.66 132.85,500.65 130.58,502.92 
								132.59,504.93 134.86,502.66 138.24,506.04 140.25,504.04 136.87,500.66 136.87,500.66 139.14,498.39 141.41,496.12 
								144.79,499.5 146.79,497.5 143.41,494.11 							"/>
						</g>
						<g>
							<polygon points="165.6,520.3 162.21,516.92 164.22,514.91 167.6,518.3 167.6,518.3 169.87,516.03 172.14,513.76 
								168.76,510.37 170.76,508.37 174.14,511.75 176.41,509.48 178.68,507.21 178.69,507.21 175.3,503.83 177.31,501.82 
								180.69,505.21 185.23,500.67 181.85,497.28 183.85,495.28 187.23,498.66 190.7,495.2 192.71,497.21 191.51,498.4 
								189.24,500.67 192.62,504.05 190.62,506.06 187.24,502.68 184.97,504.95 182.7,507.22 180.69,505.21 182.7,507.21 
								186.08,510.6 184.08,512.6 180.69,509.22 178.42,511.49 176.15,513.76 179.54,517.14 177.53,519.15 174.15,515.76 
								169.61,520.3 169.61,520.3 167.6,522.31 165.6,520.3 167.6,522.31 169.61,520.3 169.61,520.3 172.99,523.69 170.99,525.69 
								167.6,522.31 165.33,524.58 163.06,526.85 166.45,530.23 164.44,532.24 161.06,528.85 161.06,528.86 161.06,524.84 
								161.06,524.84 							"/>
							<polygon points="178.7,494.11 176.43,491.84 175.05,490.46 177.06,488.46 178.44,489.84 180.71,492.1 178.71,494.11 
								180.71,496.12 180.71,496.12 178.71,494.11 180.71,492.11 180.71,492.1 184.09,488.72 186.1,490.73 182.72,494.11 
								184.99,496.38 187.26,498.65 190.64,495.27 192.64,497.27 189.26,500.66 187.25,502.66 187.25,502.66 189.26,500.65 
								191.53,502.92 189.52,504.93 187.25,502.66 183.87,506.04 181.86,504.04 185.25,500.66 185.25,500.66 182.98,498.39 
								180.71,496.12 177.32,499.5 175.32,497.5 178.7,494.11 							"/>
						</g>
					</g>
					<g>
						<circle style="fill:none;stroke:#000000;stroke-width:2;stroke-miterlimit:10;" cx="161.06" cy="500.91" r="9.01"/>
						<g>
							<g>
								<g>
									<rect x="159.64" y="466.55" width="2.83" height="2.83"/>
									<rect x="159.64" y="464.93" width="2.83" height="1.62"/>
									
										<rect x="157.41" y="467.15" transform="matrix(-1.836970e-16 1 -1 -1.836970e-16 626.7941 309.137)" width="2.83" height="1.62"/>
									
										<rect x="161.87" y="467.15" transform="matrix(-1.836970e-16 1 -1 -1.836970e-16 631.2507 304.6803)" width="2.83" height="1.62"/>
									<rect x="159.64" y="469.38" width="2.83" height="1.62"/>
								</g>
								<g>
									<rect x="159.64" y="457.3" width="2.83" height="2.83"/>
									<rect x="159.64" y="452.52" width="2.83" height="4.79"/>
									<rect x="159.64" y="460.14" width="2.83" height="4.79"/>
									<rect x="162.47" y="457.3" width="4.79" height="2.83"/>
									<rect x="154.85" y="457.3" width="4.79" height="2.83"/>
								</g>
								<g>
									<rect x="150.4" y="466.55" width="2.83" height="2.83"/>
									<rect x="150.4" y="461.76" width="2.83" height="4.79"/>
									<rect x="150.4" y="469.38" width="2.83" height="4.79"/>
									<rect x="153.23" y="466.55" width="4.79" height="2.83"/>
									<rect x="145.61" y="466.55" width="4.79" height="2.83"/>
								</g>
								<g>
									<rect x="168.88" y="466.55" width="2.83" height="2.83"/>
									<rect x="168.88" y="461.76" width="2.83" height="4.79"/>
									<rect x="168.88" y="469.38" width="2.83" height="4.79"/>
									<rect x="171.72" y="466.55" width="4.79" height="2.83"/>
									<rect x="164.1" y="466.55" width="4.79" height="2.83"/>
								</g>
								<g>
									<rect x="159.64" y="475.79" width="2.83" height="2.83"/>
									<rect x="159.64" y="471" width="2.83" height="4.79"/>
									<rect x="159.64" y="478.63" width="2.83" height="4.79"/>
									<rect x="162.47" y="475.79" width="4.79" height="2.83"/>
									<rect x="154.85" y="475.79" width="4.79" height="2.83"/>
								</g>
							</g>
							<line style="stroke:#000000;stroke-width:2.8;stroke-miterlimit:10;" x1="161.06" y1="492.39" x2="161.06" y2="476.21"/>
						</g>
					</g>
				</g>
				<g>
					<g>
						<rect x="159.64" y="542.38" width="2.83" height="2.83"/>
						<rect x="159.64" y="537.59" width="2.83" height="4.79"/>
						<rect x="159.64" y="545.21" width="2.83" height="4.79"/>
						<rect x="162.47" y="542.38" width="3.21" height="2.84"/>
						<rect x="156.43" y="542.38" width="3.21" height="2.84"/>
					</g>
					<polygon points="153.22,542.38 153.22,537.59 150.38,537.59 150.38,542.38 143.96,542.38 143.96,536.01 148.75,536.01 
						148.75,533.17 143.96,533.17 143.96,528.39 141.13,528.39 141.13,533.17 136.34,533.17 136.34,536.01 141.13,536.01 
						141.13,542.38 134.71,542.38 134.71,537.59 131.88,537.59 131.88,542.38 125.46,542.38 125.46,540.88 125.46,540.88 
						125.46,536.09 130.24,536.09 130.24,533.25 125.46,533.25 125.46,528.47 125.46,528.47 125.46,526.85 131.86,526.85 
						131.86,531.63 134.7,531.63 134.7,526.85 139.49,526.85 139.49,524.01 134.7,524.01 134.7,519.22 131.86,519.22 131.86,524.01 
						125.46,524.01 125.46,522.39 125.46,522.39 125.46,517.6 130.24,517.6 130.24,514.77 125.46,514.77 125.46,509.98 
						124.04,509.98 124.04,536.09 125.46,536.09 125.46,536.09 124.04,536.09 124.04,550 125.46,550 125.46,545.22 131.88,545.22 
						131.88,550 134.71,550 134.71,545.22 141.13,545.22 141.13,550 143.96,550 143.96,545.22 150.38,545.22 150.38,550 153.22,550 
						153.22,545.22 156.43,545.22 156.43,542.38 					"/>
					<polygon points="168.89,542.38 168.89,537.59 171.73,537.59 171.73,542.38 178.15,542.38 178.15,536.01 173.36,536.01 
						173.36,533.17 178.15,533.17 178.15,528.39 180.98,528.39 180.98,533.17 185.77,533.17 185.77,536.01 180.98,536.01 
						180.98,542.38 187.4,542.38 187.4,537.59 190.24,537.59 190.24,542.38 196.66,542.38 196.66,540.88 196.66,540.88 
						196.66,536.09 191.87,536.09 191.87,533.25 196.66,533.25 196.66,528.47 196.66,528.47 196.66,526.85 190.25,526.85 
						190.25,531.63 187.41,531.63 187.41,526.85 182.63,526.85 182.63,524.01 187.41,524.01 187.41,519.22 190.25,519.22 
						190.25,524.01 196.66,524.01 196.66,522.39 196.66,522.39 196.66,517.6 191.87,517.6 191.87,514.77 196.66,514.77 
						196.66,509.98 198.08,509.98 198.08,536.09 196.66,536.09 196.66,536.09 198.08,536.09 198.08,550 196.66,550 196.66,545.22 
						190.24,545.22 190.24,550 187.4,550 187.4,545.22 180.98,545.22 180.98,550 178.15,550 178.15,545.22 171.73,545.22 
						171.73,550 168.89,550 168.89,545.22 165.68,545.22 165.68,542.38 					"/>
				</g>
			</g>
		</g>
		<g>
			<path style="fill:none;stroke:#000000;stroke-width:2.8;stroke-miterlimit:10;" d="M218.53,491.06
				c6.14-5.41,5.49-15.36-2.08-13.53c-1.31,0.32-2.56,0.99-3.38,2.06c-0.93,1.21-1.43,3.06,1.11,5.16"/>
			<path style="fill:none;stroke:#000000;stroke-width:2.8;stroke-miterlimit:10;" d="M251.66,491.06
				c-6.14-5.41-5.49-15.36,2.08-13.53c1.31,0.32,2.56,0.99,3.38,2.06c0.93,1.21,1.43,3.06-1.11,5.16"/>
			<g>
				<g>
					<g>
						<g>
							<polygon points="230.56,520.3 233.94,516.92 231.93,514.91 228.55,518.3 228.55,518.3 226.28,516.03 224.01,513.76 
								227.39,510.37 225.39,508.37 222.01,511.75 219.74,509.48 217.47,507.21 217.47,507.21 220.85,503.83 218.85,501.82 
								215.46,505.21 210.92,500.67 214.31,497.28 212.3,495.28 208.92,498.66 205.45,495.2 203.45,497.21 204.64,498.4 
								206.91,500.67 203.53,504.05 205.53,506.06 208.92,502.68 211.19,504.95 213.45,507.22 215.46,505.21 213.46,507.21 
								210.07,510.6 212.08,512.6 215.46,509.22 217.73,511.49 220,513.76 216.62,517.14 218.62,519.15 222,515.76 226.54,520.3 
								226.54,520.3 228.55,522.31 230.55,520.3 228.55,522.31 226.54,520.3 226.54,520.3 223.16,523.69 225.16,525.69 
								228.55,522.31 230.82,524.58 233.09,526.85 229.7,530.23 231.71,532.24 235.09,528.85 235.09,528.86 235.09,524.84 
								235.09,524.84 							"/>
							<polygon points="217.45,494.11 219.72,491.84 221.1,490.46 219.09,488.46 217.71,489.84 215.44,492.1 217.45,494.11 
								215.44,496.12 215.44,496.12 217.45,494.11 215.44,492.11 215.44,492.1 212.06,488.72 210.05,490.73 213.44,494.11 
								211.17,496.38 208.9,498.65 205.51,495.27 203.51,497.27 206.89,500.66 208.9,502.66 208.9,502.66 206.89,500.65 
								204.62,502.92 206.63,504.93 208.9,502.66 212.28,506.04 214.29,504.04 210.9,500.66 210.9,500.66 213.17,498.39 
								215.44,496.12 218.83,499.5 220.83,497.5 217.45,494.11 							"/>
						</g>
						<g>
							<polygon points="239.63,520.3 236.25,516.92 238.26,514.91 241.64,518.3 241.64,518.3 243.91,516.03 246.18,513.76 
								242.8,510.37 244.8,508.37 248.18,511.75 250.45,509.48 252.72,507.21 252.72,507.21 249.34,503.83 251.34,501.82 
								254.73,505.21 259.27,500.67 255.88,497.28 257.89,495.28 261.27,498.66 264.74,495.2 266.74,497.21 265.55,498.4 
								263.28,500.67 266.66,504.05 264.66,506.06 261.27,502.68 259,504.95 256.74,507.22 254.73,505.21 256.73,507.21 
								260.12,510.6 258.11,512.6 254.73,509.22 252.46,511.49 250.19,513.76 253.57,517.14 251.57,519.15 248.19,515.76 
								243.65,520.3 243.65,520.3 241.64,522.31 239.64,520.3 241.64,522.31 243.65,520.3 243.65,520.3 247.03,523.69 
								245.03,525.69 241.64,522.31 239.37,524.58 237.1,526.85 240.49,530.23 238.48,532.24 235.1,528.85 235.09,528.86 
								235.09,524.84 235.09,524.84 							"/>
							<polygon points="252.74,494.11 250.47,491.84 249.09,490.46 251.1,488.46 252.48,489.84 254.75,492.1 252.74,494.11 
								254.75,496.12 254.75,496.12 252.74,494.11 254.75,492.11 254.75,492.1 258.13,488.72 260.14,490.73 256.75,494.11 
								259.02,496.38 261.29,498.65 264.68,495.27 266.68,497.27 263.3,500.66 261.29,502.66 261.29,502.66 263.3,500.65 
								265.57,502.92 263.56,504.93 261.29,502.66 257.91,506.04 255.9,504.04 259.29,500.66 259.29,500.66 257.02,498.39 
								254.75,496.12 251.36,499.5 249.36,497.5 252.74,494.11 							"/>
						</g>
					</g>
					<g>
						<circle style="fill:none;stroke:#000000;stroke-width:2;stroke-miterlimit:10;" cx="235.09" cy="500.91" r="9.01"/>
						<g>
							<g>
								<g>
									<rect x="233.68" y="466.55" width="2.83" height="2.83"/>
									<rect x="233.68" y="464.93" width="2.83" height="1.62"/>
									
										<rect x="231.45" y="467.15" transform="matrix(-1.836970e-16 1 -1 -1.836970e-16 700.8322 235.0989)" width="2.83" height="1.62"/>
									
										<rect x="235.91" y="467.15" transform="matrix(-1.836970e-16 1 -1 -1.836970e-16 705.2889 230.6422)" width="2.83" height="1.62"/>
									<rect x="233.68" y="469.38" width="2.83" height="1.62"/>
								</g>
								<g>
									<rect x="233.68" y="457.3" width="2.83" height="2.83"/>
									<rect x="233.68" y="452.52" width="2.83" height="4.79"/>
									<rect x="233.68" y="460.14" width="2.83" height="4.79"/>
									<rect x="236.51" y="457.3" width="4.79" height="2.83"/>
									<rect x="228.89" y="457.3" width="4.79" height="2.83"/>
								</g>
								<g>
									<rect x="224.43" y="466.55" width="2.83" height="2.83"/>
									<rect x="224.43" y="461.76" width="2.83" height="4.79"/>
									<rect x="224.43" y="469.38" width="2.83" height="4.79"/>
									<rect x="227.27" y="466.55" width="4.79" height="2.83"/>
									<rect x="219.65" y="466.55" width="4.79" height="2.83"/>
								</g>
								<g>
									<rect x="242.92" y="466.55" width="2.83" height="2.83"/>
									<rect x="242.92" y="461.76" width="2.83" height="4.79"/>
									<rect x="242.92" y="469.38" width="2.83" height="4.79"/>
									<rect x="245.76" y="466.55" width="4.79" height="2.83"/>
									<rect x="238.13" y="466.55" width="4.79" height="2.83"/>
								</g>
								<g>
									<rect x="233.68" y="475.79" width="2.83" height="2.83"/>
									<rect x="233.68" y="471" width="2.83" height="4.79"/>
									<rect x="233.68" y="478.63" width="2.83" height="4.79"/>
									<rect x="236.51" y="475.79" width="4.79" height="2.83"/>
									<rect x="228.89" y="475.79" width="4.79" height="2.83"/>
								</g>
							</g>
							<line style="stroke:#000000;stroke-width:2.8;stroke-miterlimit:10;" x1="235.09" y1="492.39" x2="235.09" y2="476.21"/>
						</g>
					</g>
				</g>
				<g>
					<g>
						<rect x="233.68" y="542.38" width="2.83" height="2.83"/>
						<rect x="233.68" y="537.59" width="2.83" height="4.79"/>
						<rect x="233.68" y="545.21" width="2.83" height="4.79"/>
						<rect x="236.51" y="542.38" width="3.21" height="2.84"/>
						<rect x="230.47" y="542.38" width="3.21" height="2.84"/>
					</g>
					<polygon points="227.26,542.38 227.26,537.59 224.42,537.59 224.42,542.38 218,542.38 218,536.01 222.79,536.01 222.79,533.17 
						218,533.17 218,528.39 215.17,528.39 215.17,533.17 210.38,533.17 210.38,536.01 215.17,536.01 215.17,542.38 208.75,542.38 
						208.75,537.59 205.91,537.59 205.91,542.38 199.49,542.38 199.49,540.88 199.49,540.88 199.49,536.09 204.28,536.09 
						204.28,533.25 199.49,533.25 199.49,528.47 199.49,528.47 199.49,526.85 205.9,526.85 205.9,531.63 208.74,531.63 
						208.74,526.85 213.52,526.85 213.52,524.01 208.74,524.01 208.74,519.22 205.9,519.22 205.9,524.01 199.49,524.01 
						199.49,522.39 199.49,522.39 199.49,517.6 204.28,517.6 204.28,514.77 199.49,514.77 199.49,509.98 198.08,509.98 
						198.08,536.09 199.49,536.09 199.49,536.09 198.08,536.09 198.08,550 199.49,550 199.49,545.22 205.91,545.22 205.91,550 
						208.75,550 208.75,545.22 215.17,545.22 215.17,550 218,550 218,545.22 224.42,545.22 224.42,550 227.26,550 227.26,545.22 
						230.47,545.22 230.47,542.38 					"/>
					<polygon points="242.93,542.38 242.93,537.59 245.77,537.59 245.77,542.38 252.19,542.38 252.19,536.01 247.4,536.01 
						247.4,533.17 252.19,533.17 252.19,528.39 255.02,528.39 255.02,533.17 259.81,533.17 259.81,536.01 255.02,536.01 
						255.02,542.38 261.44,542.38 261.44,537.59 264.28,537.59 264.28,542.38 270.7,542.38 270.7,540.88 270.7,540.88 270.7,536.09 
						265.91,536.09 265.91,533.25 270.7,533.25 270.7,528.47 270.7,528.47 270.7,526.85 264.29,526.85 264.29,531.63 261.45,531.63 
						261.45,526.85 256.67,526.85 256.67,524.01 261.45,524.01 261.45,519.22 264.29,519.22 264.29,524.01 270.7,524.01 
						270.7,522.39 270.7,522.39 270.7,517.6 265.91,517.6 265.91,514.77 270.7,514.77 270.7,509.98 272.11,509.98 272.11,536.09 
						270.7,536.09 270.7,536.09 272.11,536.09 272.11,550 270.7,550 270.7,545.22 264.28,545.22 264.28,550 261.44,550 
						261.44,545.22 255.02,545.22 255.02,550 252.19,550 252.19,545.22 245.77,545.22 245.77,550 242.93,550 242.93,545.22 
						239.72,545.22 239.72,542.38 					"/>
				</g>
			</g>
		</g>
	</g>
</g>
<g>
</g>
<g>
</g>
<g>
</g>
<g>
</g>
<g>
</g>
<g>
</g>
<g>
</g>
<g>
</g>
<g>
</g>
<g>
</g>
<g>
</g>
<g>
</g>
<g>
</g>
<g>
</g>
<g>
</g>
</svg>
