<?xml version="1.0" encoding="utf-8"?>
<!-- Generator: Adobe Illustrator 27.2.0, SVG Export Plug-In . SVG Version: 6.00 Build 0)  -->
<svg version="1.1" id="Layer_1" xmlns="http://www.w3.org/2000/svg" xmlns:xlink="http://www.w3.org/1999/xlink" x="0px" y="0px"
	 viewBox="0 0 800 600" style="enable-background:new 0 0 800 600;" xml:space="preserve">
<g>
	<g>
		<g>
			<rect x="106.68" y="453.65" width="5.67" height="5.67"/>
			<rect x="112.35" y="459.32" width="5.67" height="5.67"/>
			<rect x="118.02" y="464.99" width="5.67" height="5.67"/>
			<rect x="123.69" y="459.32" width="5.67" height="5.67"/>
			<rect x="129.36" y="453.65" width="5.67" height="5.67"/>
			<rect x="135.03" y="447.98" width="5.67" height="5.67"/>
			<rect x="140.7" y="442.31" width="5.67" height="5.67"/>
			<rect x="146.37" y="436.64" width="5.67" height="5.67"/>
			<rect x="123.69" y="470.65" width="5.67" height="5.67"/>
			<rect x="129.36" y="476.32" width="5.67" height="5.67"/>
			<rect x="135.03" y="470.65" width="5.67" height="5.67"/>
			<rect x="140.7" y="464.99" width="5.67" height="5.67"/>
			<rect x="146.37" y="459.32" width="5.67" height="5.67"/>
			<rect x="152.03" y="453.65" width="5.67" height="5.67"/>
			<rect x="157.7" y="447.98" width="5.67" height="5.67"/>
			<rect x="135.03" y="481.99" width="5.67" height="5.67"/>
			<rect x="140.7" y="487.66" width="5.67" height="5.67"/>
			<rect x="146.37" y="481.99" width="5.67" height="5.67"/>
			<rect x="152.03" y="476.32" width="5.67" height="5.67"/>
			<rect x="157.7" y="470.65" width="5.67" height="5.67"/>
			<rect x="163.37" y="464.99" width="5.67" height="5.67"/>
			<rect x="169.04" y="459.32" width="5.67" height="5.67"/>
			<rect x="112.35" y="447.98" width="5.67" height="5.67"/>
			<rect x="118.02" y="442.31" width="5.67" height="5.67"/>
			<rect x="123.69" y="447.98" width="5.67" height="5.67"/>
			<rect x="129.36" y="453.65" width="5.67" height="5.67"/>
			<rect x="135.03" y="459.32" width="5.67" height="5.67"/>
			<rect x="140.7" y="464.99" width="5.67" height="5.67"/>
			<rect x="146.37" y="470.65" width="5.67" height="5.67"/>
			<rect x="152.03" y="476.32" width="5.67" height="5.67"/>
			<rect x="123.69" y="436.64" width="5.67" height="5.67"/>
			<rect x="129.36" y="430.97" width="5.67" height="5.67"/>
			<rect x="135.03" y="436.64" width="5.67" height="5.67"/>
			<rect x="140.7" y="442.31" width="5.67" height="5.67"/>
			<rect x="146.37" y="447.98" width="5.67" height="5.67"/>
			<rect x="152.03" y="453.65" width="5.67" height="5.67"/>
			<rect x="157.7" y="459.32" width="5.67" height="5.67"/>
			<rect x="163.37" y="464.99" width="5.67" height="5.67"/>
			<rect x="135.03" y="425.3" width="5.67" height="5.67"/>
			<rect x="140.7" y="419.63" width="5.67" height="5.67"/>
			<rect x="146.37" y="425.3" width="5.67" height="5.67"/>
			<rect x="152.03" y="430.97" width="5.67" height="5.67"/>
			<rect x="157.7" y="436.64" width="5.67" height="5.67"/>
			<rect x="163.37" y="442.31" width="5.67" height="5.67"/>
			<rect x="169.04" y="447.98" width="5.67" height="5.67"/>
			<rect x="174.71" y="453.65" width="5.67" height="5.67"/>
		</g>
		<g>
			<g>
				
					<rect x="152.03" y="408.29" transform="matrix(6.123234e-17 -1 1 6.123234e-17 -256.258 565.9968)" width="5.67" height="5.67"/>
				
					<rect x="146.37" y="413.96" transform="matrix(6.123234e-17 -1 1 6.123234e-17 -267.5966 565.9968)" width="5.67" height="5.67"/>
				
					<rect x="142.11" y="418.21" transform="matrix(6.123234e-17 -1 1 6.123234e-17 -277.5179 564.5794)" width="2.83" height="5.67"/>
				
					<rect x="142.11" y="421.05" transform="matrix(-4.588170e-11 1 -1 -4.588170e-11 567.4141 280.3525)" width="2.83" height="5.67"/>
				
					<rect x="146.37" y="402.62" transform="matrix(6.123234e-17 -1 1 6.123234e-17 -256.258 554.6582)" width="5.67" height="5.67"/>
				
					<rect x="140.7" y="408.29" transform="matrix(6.123234e-17 -1 1 6.123234e-17 -267.5966 554.6582)" width="5.67" height="5.67"/>
				
					<rect x="135.03" y="413.96" transform="matrix(6.123234e-17 -1 1 6.123234e-17 -278.9352 554.6582)" width="5.67" height="5.67"/>
				
					<rect x="142.11" y="398.37" transform="matrix(6.123234e-17 -1 1 6.123234e-17 -257.6753 544.7369)" width="2.83" height="5.67"/>
				
					<rect x="142.11" y="395.54" transform="matrix(-4.588170e-11 1 -1 -4.588170e-11 541.9023 254.8407)" width="2.83" height="5.67"/>
				
					<rect x="135.03" y="402.62" transform="matrix(6.123234e-17 -1 1 6.123234e-17 -267.5966 543.3196)" width="5.67" height="5.67"/>
				
					<rect x="129.36" y="408.29" transform="matrix(6.123234e-17 -1 1 6.123234e-17 -278.9352 543.3196)" width="5.67" height="5.67"/>
				
					<rect x="123.69" y="402.62" transform="matrix(6.123234e-17 -1 1 6.123234e-17 -278.9352 531.981)" width="5.67" height="5.67"/>
				
					<rect x="123.69" y="413.96" transform="matrix(6.123234e-17 -1 1 6.123234e-17 -290.2737 543.3196)" width="5.67" height="5.67"/>
				
					<rect x="118.02" y="408.29" transform="matrix(6.123234e-17 -1 1 6.123234e-17 -290.2737 531.981)" width="5.67" height="5.67"/>
				
					<rect x="157.7" y="402.62" transform="matrix(6.123234e-17 -1 1 6.123234e-17 -244.9194 565.9968)" width="5.67" height="5.67"/>
				<rect x="157.7" y="413.96" transform="matrix(6.123234e-17 -1 1 6.123234e-17 -256.258 577.3353)" width="5.67" height="5.67"/>
				
					<rect x="163.37" y="408.29" transform="matrix(6.123234e-17 -1 1 6.123234e-17 -244.9194 577.3353)" width="5.67" height="5.67"/>
			</g>
			<g>
				
					<rect x="152.03" y="385.62" transform="matrix(6.123234e-17 -1 1 6.123234e-17 -233.5808 543.3196)" width="5.67" height="5.67"/>
				
					<rect x="146.37" y="391.28" transform="matrix(6.123234e-17 -1 1 6.123234e-17 -244.9194 543.3196)" width="5.67" height="5.67"/>
				
					<rect x="142.11" y="395.54" transform="matrix(6.123234e-17 -1 1 6.123234e-17 -254.8407 541.9023)" width="2.83" height="5.67"/>
				
					<rect x="142.11" y="398.37" transform="matrix(-4.588170e-11 1 -1 -4.588170e-11 544.7369 257.6753)" width="2.83" height="5.67"/>
				
					<rect x="146.37" y="379.95" transform="matrix(6.123234e-17 -1 1 6.123234e-17 -233.5808 531.981)" width="5.67" height="5.67"/>
				<rect x="140.7" y="385.62" transform="matrix(6.123234e-17 -1 1 6.123234e-17 -244.9194 531.981)" width="5.67" height="5.67"/>
				<rect x="135.03" y="391.28" transform="matrix(6.123234e-17 -1 1 6.123234e-17 -256.258 531.981)" width="5.67" height="5.67"/>
				
					<rect x="142.11" y="375.69" transform="matrix(6.123234e-17 -1 1 6.123234e-17 -234.9982 522.0598)" width="2.83" height="5.67"/>
				
					<rect x="142.11" y="372.86" transform="matrix(-4.588170e-11 1 -1 -4.588170e-11 519.2251 232.1635)" width="2.83" height="5.67"/>
				
					<rect x="135.03" y="379.95" transform="matrix(6.123234e-17 -1 1 6.123234e-17 -244.9194 520.6425)" width="5.67" height="5.67"/>
				
					<rect x="129.36" y="385.62" transform="matrix(6.123234e-17 -1 1 6.123234e-17 -256.258 520.6425)" width="5.67" height="5.67"/>
				
					<rect x="123.69" y="379.95" transform="matrix(6.123234e-17 -1 1 6.123234e-17 -256.258 509.3038)" width="5.67" height="5.67"/>
				
					<rect x="123.69" y="391.28" transform="matrix(6.123234e-17 -1 1 6.123234e-17 -267.5966 520.6425)" width="5.67" height="5.67"/>
				
					<rect x="118.02" y="385.62" transform="matrix(6.123234e-17 -1 1 6.123234e-17 -267.5966 509.3038)" width="5.67" height="5.67"/>
				
					<rect x="157.7" y="379.95" transform="matrix(6.123234e-17 -1 1 6.123234e-17 -222.2422 543.3196)" width="5.67" height="5.67"/>
				
					<rect x="157.7" y="391.28" transform="matrix(6.123234e-17 -1 1 6.123234e-17 -233.5808 554.6582)" width="5.67" height="5.67"/>
				
					<rect x="163.37" y="385.62" transform="matrix(6.123234e-17 -1 1 6.123234e-17 -222.2422 554.6582)" width="5.67" height="5.67"/>
			</g>
			<g>
				
					<rect x="135.03" y="368.61" transform="matrix(6.123234e-17 -1 1 6.123234e-17 -233.5808 509.3038)" width="5.67" height="5.67"/>
				
					<rect x="140.7" y="362.94" transform="matrix(6.123234e-17 -1 1 6.123234e-17 -222.2422 509.3038)" width="5.67" height="5.67"/>
				
					<rect x="140.7" y="374.28" transform="matrix(6.123234e-17 -1 1 6.123234e-17 -233.5808 520.6425)" width="5.67" height="5.67"/>
				
					<rect x="146.37" y="368.61" transform="matrix(6.123234e-17 -1 1 6.123234e-17 -222.2422 520.6425)" width="5.67" height="5.67"/>
			</g>
		</g>
		<g>
			<g>
				<rect x="95.35" y="442.3" transform="matrix(-1 -4.588164e-11 4.588164e-11 -1 196.378 890.2612)" width="5.67" height="5.67"/>
				
					<rect x="101.02" y="447.97" transform="matrix(-1 -4.395652e-11 4.395652e-11 -1 207.7165 901.5998)" width="5.67" height="5.67"/>
				
					<rect x="106.69" y="453.63" transform="matrix(-1 -4.235247e-11 4.235247e-11 -1 216.2205 912.9384)" width="2.83" height="5.67"/>
				<rect x="109.53" y="453.63" width="2.83" height="5.67"/>
				
					<rect x="89.69" y="447.97" transform="matrix(-1 -4.748569e-11 4.748569e-11 -1 185.0394 901.5998)" width="5.67" height="5.67"/>
				
					<rect x="95.35" y="453.63" transform="matrix(-1 -4.395652e-11 4.395652e-11 -1 196.378 912.9384)" width="5.67" height="5.67"/>
				
					<rect x="101.02" y="459.3" transform="matrix(-1 -4.395652e-11 4.395652e-11 -1 207.7165 924.277)" width="5.67" height="5.67"/>
				
					<rect x="86.85" y="453.63" transform="matrix(-1 -4.235247e-11 4.235247e-11 -1 176.5354 912.9384)" width="2.83" height="5.67"/>
				<rect x="84.02" y="453.63" width="2.83" height="5.67"/>
				<rect x="89.69" y="459.3" transform="matrix(-1 -4.395652e-11 4.395652e-11 -1 185.0394 924.277)" width="5.67" height="5.67"/>
				
					<rect x="95.35" y="464.97" transform="matrix(-1 -4.588164e-11 4.588164e-11 -1 196.378 935.6155)" width="5.67" height="5.67"/>
				
					<rect x="89.69" y="470.64" transform="matrix(-1 -4.395652e-11 4.395652e-11 -1 185.0394 946.9542)" width="5.67" height="5.67"/>
				
					<rect x="101.02" y="470.64" transform="matrix(-1 -4.395652e-11 4.395652e-11 -1 207.7165 946.9542)" width="5.67" height="5.67"/>
				
					<rect x="95.35" y="476.31" transform="matrix(-1 -4.427715e-11 4.427715e-11 -1 196.378 958.2927)" width="5.67" height="5.67"/>
				
					<rect x="89.69" y="436.63" transform="matrix(-1 -4.395652e-11 4.395652e-11 -1 185.0394 878.9227)" width="5.67" height="5.67"/>
				
					<rect x="101.02" y="436.63" transform="matrix(-1 -4.235247e-11 4.235247e-11 -1 207.7165 878.9227)" width="5.67" height="5.67"/>
				<rect x="95.35" y="430.96" transform="matrix(-1 -4.235247e-11 4.235247e-11 -1 196.378 867.584)" width="5.67" height="5.67"/>
			</g>
			<g>
				
					<rect x="72.68" y="442.3" transform="matrix(-1 -4.780677e-11 4.780677e-11 -1 151.0236 890.2612)" width="5.67" height="5.67"/>
				
					<rect x="78.35" y="447.97" transform="matrix(-1 -4.588164e-11 4.588164e-11 -1 162.3622 901.5998)" width="5.67" height="5.67"/>
				
					<rect x="84.02" y="453.63" transform="matrix(-1 -4.941082e-11 4.941082e-11 -1 170.8661 912.9384)" width="2.83" height="5.67"/>
				<rect x="86.85" y="453.63" width="2.83" height="5.67"/>
				
					<rect x="67.01" y="447.97" transform="matrix(-1 -4.427715e-11 4.427715e-11 -1 139.685 901.5998)" width="5.67" height="5.67"/>
				
					<rect x="72.68" y="453.63" transform="matrix(-1 -4.780677e-11 4.780677e-11 -1 151.0236 912.9384)" width="5.67" height="5.67"/>
				<rect x="78.35" y="459.3" transform="matrix(-1 -4.588164e-11 4.588164e-11 -1 162.3622 924.277)" width="5.67" height="5.67"/>
				
					<rect x="64.17" y="453.63" transform="matrix(-1 -4.235247e-11 4.235247e-11 -1 131.1811 912.9384)" width="2.83" height="5.67"/>
				<rect x="61.34" y="453.63" width="2.83" height="5.67"/>
				<rect x="67.01" y="459.3" transform="matrix(-1 -4.235247e-11 4.235247e-11 -1 139.685 924.277)" width="5.67" height="5.67"/>
				
					<rect x="72.68" y="464.97" transform="matrix(-1 -4.780677e-11 4.780677e-11 -1 151.0236 935.6155)" width="5.67" height="5.67"/>
				
					<rect x="67.01" y="470.64" transform="matrix(-1 -4.235247e-11 4.235247e-11 -1 139.685 946.9542)" width="5.67" height="5.67"/>
				
					<rect x="78.35" y="470.64" transform="matrix(-1 -4.748569e-11 4.748569e-11 -1 162.3622 946.9542)" width="5.67" height="5.67"/>
				
					<rect x="72.68" y="476.31" transform="matrix(-1 -4.780677e-11 4.780677e-11 -1 151.0236 958.2927)" width="5.67" height="5.67"/>
				
					<rect x="67.01" y="436.63" transform="matrix(-1 -4.203139e-11 4.203139e-11 -1 139.685 878.9227)" width="5.67" height="5.67"/>
				
					<rect x="78.35" y="436.63" transform="matrix(-1 -4.395652e-11 4.395652e-11 -1 162.3622 878.9227)" width="5.67" height="5.67"/>
				
					<rect x="72.68" y="430.96" transform="matrix(-1 -4.588164e-11 4.588164e-11 -1 151.0236 867.584)" width="5.67" height="5.67"/>
			</g>
			<g>
				<rect x="55.67" y="459.3" transform="matrix(-1 -4.395652e-11 4.395652e-11 -1 117.0079 924.277)" width="5.67" height="5.67"/>
				<rect x="50" y="453.63" transform="matrix(-1 -4.780677e-11 4.780677e-11 -1 105.6693 912.9384)" width="5.67" height="5.67"/>
				
					<rect x="61.34" y="453.63" transform="matrix(-1 -4.588164e-11 4.588164e-11 -1 128.3465 912.9384)" width="5.67" height="5.67"/>
				
					<rect x="55.67" y="447.97" transform="matrix(-1 -4.748569e-11 4.748569e-11 -1 117.0079 901.5998)" width="5.67" height="5.67"/>
			</g>
		</g>
		<g>
			<g>
				
					<rect x="129.36" y="498.98" transform="matrix(-8.999841e-11 1 -1 -8.999841e-11 634.0032 369.6188)" width="5.67" height="5.67"/>
				
					<rect x="135.03" y="493.31" transform="matrix(-8.983765e-11 1 -1 -8.983765e-11 634.0032 358.2802)" width="5.67" height="5.67"/>
				
					<rect x="142.11" y="489.06" transform="matrix(-8.823360e-11 1 -1 -8.823360e-11 635.4206 348.359)" width="2.83" height="5.67"/>
				
					<rect x="142.11" y="486.22" transform="matrix(1.376446e-10 -1 1 1.376446e-10 -345.5243 632.5859)" width="2.83" height="5.67"/>
				
					<rect x="135.03" y="504.65" transform="matrix(-8.823360e-11 1 -1 -8.823360e-11 645.3418 369.6188)" width="5.67" height="5.67"/>
				
					<rect x="140.7" y="498.98" transform="matrix(-9.176322e-11 1 -1 -9.176322e-11 645.3418 358.2802)" width="5.67" height="5.67"/>
				
					<rect x="146.37" y="493.31" transform="matrix(-8.983765e-11 1 -1 -8.983765e-11 645.3418 346.9417)" width="5.67" height="5.67"/>
				
					<rect x="142.11" y="508.9" transform="matrix(-8.823360e-11 1 -1 -8.823360e-11 655.2631 368.2015)" width="2.83" height="5.67"/>
				
					<rect x="142.11" y="511.73" transform="matrix(1.305854e-10 -1 1 1.305854e-10 -371.0361 658.0977)" width="2.83" height="5.67"/>
				
					<rect x="146.37" y="504.65" transform="matrix(-8.823360e-11 1 -1 -8.823360e-11 656.6804 358.2802)" width="5.67" height="5.67"/>
				
					<rect x="152.03" y="498.98" transform="matrix(-9.176322e-11 1 -1 -9.176322e-11 656.6804 346.9417)" width="5.67" height="5.67"/>
				
					<rect x="157.7" y="504.65" transform="matrix(-8.999841e-11 1 -1 -8.999841e-11 668.019 346.9417)" width="5.67" height="5.67"/>
				
					<rect x="157.7" y="493.31" transform="matrix(-8.983765e-11 1 -1 -8.983765e-11 656.6804 335.6031)" width="5.67" height="5.67"/>
				
					<rect x="163.37" y="498.98" transform="matrix(-9.176322e-11 1 -1 -9.176322e-11 668.019 335.6031)" width="5.67" height="5.67"/>
				
					<rect x="123.69" y="504.65" transform="matrix(-8.983765e-11 1 -1 -8.983765e-11 634.0032 380.9574)" width="5.67" height="5.67"/>
				
					<rect x="123.69" y="493.31" transform="matrix(-8.823360e-11 1 -1 -8.823360e-11 622.6647 369.6188)" width="5.67" height="5.67"/>
				
					<rect x="118.02" y="498.98" transform="matrix(-8.999841e-11 1 -1 -8.999841e-11 622.6647 380.9574)" width="5.67" height="5.67"/>
			</g>
			<g>
				
					<rect x="129.36" y="521.65" transform="matrix(-9.176322e-11 1 -1 -9.176322e-11 656.6804 392.296)" width="5.67" height="5.67"/>
				
					<rect x="135.03" y="515.98" transform="matrix(-8.983765e-11 1 -1 -8.983765e-11 656.6804 380.9574)" width="5.67" height="5.67"/>
				
					<rect x="142.11" y="511.73" transform="matrix(-8.823360e-11 1 -1 -8.823360e-11 658.0977 371.0361)" width="2.83" height="5.67"/>
				
					<rect x="142.11" y="508.9" transform="matrix(1.341150e-10 -1 1 1.341150e-10 -368.2015 655.2631)" width="2.83" height="5.67"/>
				
					<rect x="135.03" y="527.32" transform="matrix(-9.176322e-11 1 -1 -9.176322e-11 668.019 392.296)" width="5.67" height="5.67"/>
				
					<rect x="140.7" y="521.65" transform="matrix(-8.999841e-11 1 -1 -8.999841e-11 668.019 380.9574)" width="5.67" height="5.67"/>
				
					<rect x="146.37" y="515.98" transform="matrix(-8.983765e-11 1 -1 -8.983765e-11 668.019 369.6188)" width="5.67" height="5.67"/>
				
					<rect x="142.11" y="531.57" transform="matrix(-9.176322e-11 1 -1 -9.176322e-11 677.9402 390.8787)" width="2.83" height="5.67"/>
				
					<rect x="142.11" y="534.41" transform="matrix(1.341150e-10 -1 1 1.341150e-10 -393.7133 680.7749)" width="2.83" height="5.67"/>
				
					<rect x="146.37" y="527.32" transform="matrix(-9.176322e-11 1 -1 -9.176322e-11 679.3575 380.9574)" width="5.67" height="5.67"/>
				
					<rect x="152.03" y="521.65" transform="matrix(-8.999841e-11 1 -1 -8.999841e-11 679.3575 369.6188)" width="5.67" height="5.67"/>
				
					<rect x="157.7" y="527.32" transform="matrix(-8.823360e-11 1 -1 -8.823360e-11 690.6962 369.6188)" width="5.67" height="5.67"/>
				
					<rect x="157.7" y="515.98" transform="matrix(-8.983765e-11 1 -1 -8.983765e-11 679.3575 358.2802)" width="5.67" height="5.67"/>
				
					<rect x="163.37" y="521.65" transform="matrix(-8.999841e-11 1 -1 -8.999841e-11 690.6962 358.2802)" width="5.67" height="5.67"/>
				
					<rect x="123.69" y="527.32" transform="matrix(-8.983765e-11 1 -1 -8.983765e-11 656.6804 403.6346)" width="5.67" height="5.67"/>
				
					<rect x="123.69" y="515.98" transform="matrix(-8.823360e-11 1 -1 -8.823360e-11 645.3418 392.296)" width="5.67" height="5.67"/>
				
					<rect x="118.02" y="521.65" transform="matrix(-8.999841e-11 1 -1 -8.999841e-11 645.3418 403.6346)" width="5.67" height="5.67"/>
			</g>
			<g>
				
					<rect x="146.37" y="538.66" transform="matrix(-8.983765e-11 1 -1 -8.983765e-11 690.6962 392.296)" width="5.67" height="5.67"/>
				
					<rect x="140.7" y="544.33" transform="matrix(-8.999841e-11 1 -1 -8.999841e-11 690.6962 403.6346)" width="5.67" height="5.67"/>
				
					<rect x="140.7" y="532.99" transform="matrix(-8.999841e-11 1 -1 -8.999841e-11 679.3575 392.296)" width="5.67" height="5.67"/>
				
					<rect x="135.03" y="538.66" transform="matrix(-9.176322e-11 1 -1 -9.176322e-11 679.3575 403.6346)" width="5.67" height="5.67"/>
			</g>
		</g>
		<g>
			<g>
				<rect x="186.04" y="464.97" width="5.67" height="5.67"/>
				<rect x="180.37" y="459.3" width="5.67" height="5.67"/>
				<rect x="177.53" y="453.63" width="2.83" height="5.67"/>
				
					<rect x="174.7" y="453.63" transform="matrix(-1 -1.835262e-10 1.835262e-10 -1 352.2334 912.9384)" width="2.83" height="5.67"/>
				<rect x="191.71" y="459.3" width="5.67" height="5.67"/>
				<rect x="186.04" y="453.63" width="5.67" height="5.67"/>
				<rect x="180.37" y="447.97" width="5.67" height="5.67"/>
				<rect x="197.38" y="453.63" width="2.83" height="5.67"/>
				
					<rect x="200.21" y="453.63" transform="matrix(-1 -1.726172e-10 1.726172e-10 -1 403.257 912.9384)" width="2.83" height="5.67"/>
				<rect x="191.71" y="447.97" width="5.67" height="5.67"/>
				<rect x="186.04" y="442.3" width="5.67" height="5.67"/>
				<rect x="191.71" y="436.63" width="5.67" height="5.67"/>
				<rect x="180.37" y="436.63" width="5.67" height="5.67"/>
				<rect x="186.04" y="430.96" width="5.67" height="5.67"/>
				<rect x="191.71" y="470.64" width="5.67" height="5.67"/>
				<rect x="180.37" y="470.64" width="5.67" height="5.67"/>
				<rect x="186.04" y="476.31" width="5.67" height="5.67"/>
			</g>
			<g>
				<rect x="208.72" y="464.97" width="5.67" height="5.67"/>
				<rect x="203.05" y="459.3" width="5.67" height="5.67"/>
				<rect x="200.21" y="453.63" width="2.83" height="5.67"/>
				
					<rect x="197.38" y="453.63" transform="matrix(-1 -1.835262e-10 1.835262e-10 -1 397.5878 912.9384)" width="2.83" height="5.67"/>
				<rect x="214.38" y="459.3" width="5.67" height="5.67"/>
				<rect x="208.72" y="453.63" width="5.67" height="5.67"/>
				<rect x="203.05" y="447.97" width="5.67" height="5.67"/>
				<rect x="220.05" y="453.63" width="2.83" height="5.67"/>
				
					<rect x="222.89" y="453.63" transform="matrix(-1 -1.803177e-10 1.803177e-10 -1 448.6114 912.9384)" width="2.83" height="5.67"/>
				<rect x="214.38" y="447.97" width="5.67" height="5.67"/>
				<rect x="208.72" y="442.3" width="5.67" height="5.67"/>
				<rect x="214.38" y="436.63" width="5.67" height="5.67"/>
				<rect x="203.05" y="436.63" width="5.67" height="5.67"/>
				<rect x="208.72" y="430.96" width="5.67" height="5.67"/>
				<rect x="214.38" y="470.64" width="5.67" height="5.67"/>
				<rect x="203.05" y="470.64" width="5.67" height="5.67"/>
				<rect x="208.72" y="476.31" width="5.67" height="5.67"/>
			</g>
			<g>
				<rect x="225.72" y="447.97" width="5.67" height="5.67"/>
				<rect x="231.39" y="453.63" width="5.67" height="5.67"/>
				<rect x="220.05" y="453.63" width="5.67" height="5.67"/>
				<rect x="225.72" y="459.3" width="5.67" height="5.67"/>
			</g>
		</g>
	</g>
</g>
<g>
</g>
<g>
</g>
<g>
</g>
<g>
</g>
<g>
</g>
<g>
</g>
<g>
</g>
<g>
</g>
<g>
</g>
<g>
</g>
<g>
</g>
<g>
</g>
<g>
</g>
<g>
</g>
<g>
</g>
</svg>
