<?xml version="1.0" encoding="utf-8"?>
<!-- Generator: Adobe Illustrator 27.2.0, SVG Export Plug-In . SVG Version: 6.00 Build 0)  -->
<svg version="1.1" id="Layer_1" xmlns="http://www.w3.org/2000/svg" xmlns:xlink="http://www.w3.org/1999/xlink" x="0px" y="0px"
	 viewBox="0 0 800 600" style="enable-background:new 0 0 800 600;" xml:space="preserve">
<g>
	<g>
		<g>
			<rect x="137.4" y="473.98" width="5.67" height="5.67"/>
			<rect x="143.07" y="479.65" width="5.67" height="5.67"/>
			<rect x="148.74" y="485.32" width="5.67" height="5.67"/>
			<rect x="154.41" y="490.99" width="5.67" height="5.67"/>
			<rect x="143.07" y="468.31" width="5.67" height="5.67"/>
			<rect x="137.4" y="462.64" width="5.67" height="5.67"/>
			<rect x="148.74" y="462.64" width="5.67" height="5.67"/>
			<rect x="143.07" y="456.97" width="5.67" height="5.67"/>
			<rect x="137.4" y="451.3" width="5.67" height="5.67"/>
			<rect x="154.41" y="456.97" width="5.67" height="5.67"/>
			<rect x="160.08" y="462.64" width="5.67" height="5.67"/>
			<rect x="165.75" y="468.31" width="5.67" height="5.67"/>
			<rect x="171.42" y="473.98" width="5.67" height="5.67"/>
			<rect x="148.74" y="451.3" width="5.67" height="5.67"/>
			<rect x="143.07" y="445.63" width="5.67" height="5.67"/>
			<rect x="137.4" y="439.97" width="5.67" height="5.67"/>
			<rect x="143.07" y="434.3" width="5.67" height="5.67"/>
			<rect x="148.74" y="428.63" width="5.67" height="5.67"/>
			<rect x="154.41" y="422.96" width="5.67" height="5.67"/>
			<rect x="160.08" y="451.3" width="5.67" height="5.67"/>
			<rect x="165.75" y="445.63" width="5.67" height="5.67"/>
			<rect x="171.42" y="439.97" width="5.67" height="5.67"/>
			<rect x="131.73" y="479.65" transform="matrix(-1 -4.556057e-11 4.556057e-11 -1 269.1354 964.97)" width="5.67" height="5.67"/>
			
				<rect x="126.06" y="485.32" transform="matrix(-1 -4.556057e-11 4.556057e-11 -1 257.7968 976.3085)" width="5.67" height="5.67"/>
			
				<rect x="120.39" y="490.99" transform="matrix(-1 -4.395652e-11 4.395652e-11 -1 246.4582 987.6471)" width="5.67" height="5.67"/>
			
				<rect x="131.73" y="468.31" transform="matrix(-1 -4.363544e-11 4.363544e-11 -1 269.1354 942.2928)" width="5.67" height="5.67"/>
			
				<rect x="126.06" y="462.64" transform="matrix(-1 -4.556057e-11 4.556057e-11 -1 257.7968 930.9542)" width="5.67" height="5.67"/>
			
				<rect x="131.73" y="456.97" transform="matrix(-1 -4.556057e-11 4.556057e-11 -1 269.1354 919.6156)" width="5.67" height="5.67"/>
			
				<rect x="120.39" y="456.97" transform="matrix(-1 -4.427715e-11 4.427715e-11 -1 246.4582 919.6156)" width="5.67" height="5.67"/>
			
				<rect x="114.73" y="462.64" transform="matrix(-1 -4.620227e-11 4.620227e-11 -1 235.1196 930.9542)" width="5.67" height="5.67"/>
			
				<rect x="109.06" y="468.31" transform="matrix(-1 -4.395652e-11 4.395652e-11 -1 223.781 942.2928)" width="5.67" height="5.67"/>
			
				<rect x="103.39" y="473.98" transform="matrix(-1 -4.427715e-11 4.427715e-11 -1 212.4425 953.6313)" width="5.67" height="5.67"/>
			<rect x="126.06" y="451.3" transform="matrix(-1 -4.427715e-11 4.427715e-11 -1 257.7968 908.277)" width="5.67" height="5.67"/>
			
				<rect x="131.73" y="445.63" transform="matrix(-1 -4.395652e-11 4.395652e-11 -1 269.1354 896.9385)" width="5.67" height="5.67"/>
			
				<rect x="131.73" y="434.3" transform="matrix(-1 -4.427715e-11 4.427715e-11 -1 269.1354 874.2613)" width="5.67" height="5.67"/>
			
				<rect x="126.06" y="428.63" transform="matrix(-1 -4.427715e-11 4.427715e-11 -1 257.7968 862.9227)" width="5.67" height="5.67"/>
			
				<rect x="120.39" y="422.96" transform="matrix(-1 -4.427715e-11 4.427715e-11 -1 246.4582 851.5841)" width="5.67" height="5.67"/>
			<rect x="114.73" y="451.3" transform="matrix(-1 -4.427715e-11 4.427715e-11 -1 235.1196 908.277)" width="5.67" height="5.67"/>
			
				<rect x="109.06" y="445.63" transform="matrix(-1 -4.427715e-11 4.427715e-11 -1 223.781 896.9385)" width="5.67" height="5.67"/>
			
				<rect x="103.39" y="439.97" transform="matrix(-1 -4.588164e-11 4.588164e-11 -1 212.4425 885.5999)" width="5.67" height="5.67"/>
		</g>
		<g>
			<g>
				<rect x="137.4" y="379.08" transform="matrix(0.7071 0.7071 -0.7071 0.7071 311.1255 12.6963)" width="5.67" height="5.67"/>
				<rect x="137.4" y="370.7" transform="matrix(0.7071 0.7071 -0.7071 0.7071 305.2035 10.2433)" width="5.67" height="5.67"/>
				<rect x="129.03" y="379.08" transform="matrix(0.7071 -0.7071 0.7071 0.7071 -231.4296 205.0993)" width="5.67" height="5.67"/>
				
					<rect x="145.78" y="379.08" transform="matrix(-0.7071 0.7071 -0.7071 -0.7071 523.7476 546.8763)" width="5.67" height="5.67"/>
			</g>
			<g>
				<rect x="116.3" y="400.17" transform="matrix(0.7071 -0.7071 0.7071 0.7071 -250.076 202.2817)" width="5.67" height="5.67"/>
				<rect x="107.93" y="400.17" transform="matrix(0.7071 -0.7071 0.7071 0.7071 -252.529 196.3596)" width="5.67" height="5.67"/>
				<rect x="116.3" y="408.55" transform="matrix(-0.7071 -0.7071 0.7071 -0.7071 -87.512 786.5198)" width="5.67" height="5.67"/>
				<rect x="116.3" y="391.8" transform="matrix(0.7071 0.7071 -0.7071 0.7071 313.9431 31.3427)" width="5.67" height="5.67"/>
			</g>
			<g>
				<rect x="137.4" y="421.27" transform="matrix(-0.7071 -0.7071 0.7071 -0.7071 -60.4906 823.1613)" width="5.67" height="5.67"/>
				<rect x="137.4" y="429.65" transform="matrix(-0.7071 -0.7071 0.7071 -0.7071 -66.4126 837.4583)" width="5.67" height="5.67"/>
				
					<rect x="145.78" y="421.27" transform="matrix(-0.7071 0.7071 -0.7071 -0.7071 553.5866 618.9142)" width="5.67" height="5.67"/>
				<rect x="129.03" y="421.27" transform="matrix(0.7071 -0.7071 0.7071 0.7071 -261.2686 217.459)" width="5.67" height="5.67"/>
			</g>
			<g>
				<rect x="158.5" y="400.17" transform="matrix(-0.7071 0.7071 -0.7071 -0.7071 560.389 573.8978)" width="5.67" height="5.67"/>
				<rect x="166.88" y="400.17" transform="matrix(-0.7071 0.7071 -0.7071 -0.7071 574.686 567.9758)" width="5.67" height="5.67"/>
				<rect x="158.5" y="391.8" transform="matrix(0.7071 0.7071 -0.7071 0.7071 326.3029 1.5036)" width="5.67" height="5.67"/>
				<rect x="158.5" y="408.55" transform="matrix(-0.7071 -0.7071 0.7071 -0.7071 -15.4742 816.3589)" width="5.67" height="5.67"/>
			</g>
			
				<rect x="130.09" y="392.86" transform="matrix(0.7071 0.7071 -0.7071 0.7071 326.045 18.8762)" style="fill:none;stroke:#000000;stroke-width:3;stroke-miterlimit:10;" width="20.29" height="20.29"/>
		</g>
		<g>
			<g>
				<rect x="59.55" y="456.93" transform="matrix(0.7071 -0.7071 0.7071 0.7071 -306.8298 178.7735)" width="5.67" height="5.67"/>
				<rect x="51.17" y="456.93" transform="matrix(0.7071 -0.7071 0.7071 0.7071 -309.2827 172.8515)" width="5.67" height="5.67"/>
				<rect x="59.55" y="465.3" transform="matrix(-0.7071 -0.7071 0.7071 -0.7071 -224.5278 843.2736)" width="5.67" height="5.67"/>
				<rect x="59.55" y="448.55" transform="matrix(0.7071 0.7071 -0.7071 0.7071 337.4513 88.0965)" width="5.67" height="5.67"/>
			</g>
			<g>
				<rect x="80.65" y="478.03" transform="matrix(-0.7071 -0.7071 0.7071 -0.7071 -197.5063 879.915)" width="5.67" height="5.67"/>
				<rect x="80.65" y="486.4" transform="matrix(-0.7071 -0.7071 0.7071 -0.7071 -203.4284 894.2121)" width="5.67" height="5.67"/>
				<rect x="89.02" y="478.03" transform="matrix(-0.7071 0.7071 -0.7071 -0.7071 496.8329 755.9299)" width="5.67" height="5.67"/>
				<rect x="72.27" y="478.03" transform="matrix(0.7071 -0.7071 0.7071 0.7071 -318.0224 193.9509)" width="5.67" height="5.67"/>
			</g>
			<g>
				
					<rect x="101.75" y="456.93" transform="matrix(-0.7071 0.7071 -0.7071 -0.7071 503.6353 710.9135)" width="5.67" height="5.67"/>
				
					<rect x="110.12" y="456.93" transform="matrix(-0.7071 0.7071 -0.7071 -0.7071 517.9323 704.9915)" width="5.67" height="5.67"/>
				<rect x="101.75" y="448.55" transform="matrix(0.7071 0.7071 -0.7071 0.7071 349.8111 58.2574)" width="5.67" height="5.67"/>
				
					<rect x="101.75" y="465.3" transform="matrix(-0.7071 -0.7071 0.7071 -0.7071 -152.4899 873.1127)" width="5.67" height="5.67"/>
			</g>
			<g>
				<rect x="80.65" y="435.83" transform="matrix(0.7071 0.7071 -0.7071 0.7071 334.6337 69.4501)" width="5.67" height="5.67"/>
				<rect x="80.65" y="427.45" transform="matrix(0.7071 0.7071 -0.7071 0.7071 328.7117 66.9971)" width="5.67" height="5.67"/>
				<rect x="72.27" y="435.83" transform="matrix(0.7071 -0.7071 0.7071 0.7071 -288.1833 181.5911)" width="5.67" height="5.67"/>
				<rect x="89.02" y="435.83" transform="matrix(-0.7071 0.7071 -0.7071 -0.7071 466.9938 683.8921)" width="5.67" height="5.67"/>
			</g>
			
				<rect x="73.34" y="449.62" transform="matrix(0.7071 -0.7071 0.7071 0.7071 -300.6499 193.693)" style="fill:none;stroke:#000000;stroke-width:3;stroke-miterlimit:10;" width="20.29" height="20.29"/>
		</g>
		<g>
			<g>
				
					<rect x="137.4" y="534.78" transform="matrix(-0.7071 -0.7071 0.7071 -0.7071 -140.7526 1016.9308)" width="5.67" height="5.67"/>
				
					<rect x="137.4" y="543.16" transform="matrix(-0.7071 -0.7071 0.7071 -0.7071 -146.6746 1031.2278)" width="5.67" height="5.67"/>
				
					<rect x="145.78" y="534.78" transform="matrix(-0.7071 0.7071 -0.7071 -0.7071 633.8486 812.6837)" width="5.67" height="5.67"/>
				<rect x="129.03" y="534.78" transform="matrix(0.7071 -0.7071 0.7071 0.7071 -341.5306 250.7046)" width="5.67" height="5.67"/>
			</g>
			<g>
				<rect x="158.5" y="513.68" transform="matrix(-0.7071 0.7071 -0.7071 -0.7071 640.6509 767.6673)" width="5.67" height="5.67"/>
				<rect x="166.88" y="513.68" transform="matrix(-0.7071 0.7071 -0.7071 -0.7071 654.948 761.7452)" width="5.67" height="5.67"/>
				<rect x="158.5" y="505.31" transform="matrix(0.7071 0.7071 -0.7071 0.7071 406.5648 34.7492)" width="5.67" height="5.67"/>
				
					<rect x="158.5" y="522.06" transform="matrix(-0.7071 -0.7071 0.7071 -0.7071 -95.7361 1010.1284)" width="5.67" height="5.67"/>
			</g>
			<g>
				<rect x="137.4" y="492.58" transform="matrix(0.7071 0.7071 -0.7071 0.7071 391.3875 45.9419)" width="5.67" height="5.67"/>
				<rect x="137.4" y="484.21" transform="matrix(0.7071 0.7071 -0.7071 0.7071 385.4654 43.4889)" width="5.67" height="5.67"/>
				<rect x="129.03" y="492.58" transform="matrix(0.7071 -0.7071 0.7071 0.7071 -311.6915 238.3449)" width="5.67" height="5.67"/>
				
					<rect x="145.78" y="492.58" transform="matrix(-0.7071 0.7071 -0.7071 -0.7071 604.0095 740.6459)" width="5.67" height="5.67"/>
			</g>
			<g>
				<rect x="116.3" y="513.68" transform="matrix(0.7071 -0.7071 0.7071 0.7071 -330.338 235.5273)" width="5.67" height="5.67"/>
				<rect x="107.93" y="513.68" transform="matrix(0.7071 -0.7071 0.7071 0.7071 -332.7909 229.6052)" width="5.67" height="5.67"/>
				<rect x="116.3" y="522.06" transform="matrix(-0.7071 -0.7071 0.7071 -0.7071 -167.774 980.2893)" width="5.67" height="5.67"/>
				<rect x="116.3" y="505.31" transform="matrix(0.7071 0.7071 -0.7071 0.7071 394.2051 64.5883)" width="5.67" height="5.67"/>
			</g>
			
				<rect x="130.09" y="506.37" transform="matrix(-0.7071 -0.7071 0.7071 -0.7071 -125.833 980.9119)" style="fill:none;stroke:#000000;stroke-width:3;stroke-miterlimit:10;" width="20.29" height="20.29"/>
		</g>
		<g>
			<g>
				
					<rect x="215.26" y="456.93" transform="matrix(-0.7071 0.7071 -0.7071 -0.7071 697.4047 630.6516)" width="5.67" height="5.67"/>
				
					<rect x="223.63" y="456.93" transform="matrix(-0.7071 0.7071 -0.7071 -0.7071 711.7018 624.7296)" width="5.67" height="5.67"/>
				<rect x="215.26" y="448.55" transform="matrix(0.7071 0.7071 -0.7071 0.7071 383.0567 -22.0045)" width="5.67" height="5.67"/>
				<rect x="215.26" y="465.3" transform="matrix(-0.7071 -0.7071 0.7071 -0.7071 41.2796 953.3746)" width="5.67" height="5.67"/>
			</g>
			<g>
				<rect x="194.16" y="435.83" transform="matrix(0.7071 0.7071 -0.7071 0.7071 367.8793 -10.8119)" width="5.67" height="5.67"/>
				<rect x="194.16" y="427.45" transform="matrix(0.7071 0.7071 -0.7071 0.7071 361.9572 -13.2649)" width="5.67" height="5.67"/>
				<rect x="185.78" y="435.83" transform="matrix(0.7071 -0.7071 0.7071 0.7071 -254.9377 261.8531)" width="5.67" height="5.67"/>
				
					<rect x="202.53" y="435.83" transform="matrix(-0.7071 0.7071 -0.7071 -0.7071 660.7633 603.6301)" width="5.67" height="5.67"/>
			</g>
			<g>
				<rect x="173.06" y="456.93" transform="matrix(0.7071 -0.7071 0.7071 0.7071 -273.5842 259.0354)" width="5.67" height="5.67"/>
				<rect x="164.68" y="456.93" transform="matrix(0.7071 -0.7071 0.7071 0.7071 -276.0371 253.1134)" width="5.67" height="5.67"/>
				<rect x="173.06" y="465.3" transform="matrix(-0.7071 -0.7071 0.7071 -0.7071 -30.7583 923.5356)" width="5.67" height="5.67"/>
				<rect x="173.06" y="448.55" transform="matrix(0.7071 0.7071 -0.7071 0.7071 370.6969 7.8345)" width="5.67" height="5.67"/>
			</g>
			<g>
				<rect x="194.16" y="478.03" transform="matrix(-0.7071 -0.7071 0.7071 -0.7071 -3.7368 960.177)" width="5.67" height="5.67"/>
				<rect x="194.16" y="486.4" transform="matrix(-0.7071 -0.7071 0.7071 -0.7071 -9.6589 974.4741)" width="5.67" height="5.67"/>
				<rect x="202.53" y="478.03" transform="matrix(-0.7071 0.7071 -0.7071 -0.7071 690.6024 675.668)" width="5.67" height="5.67"/>
				<rect x="185.78" y="478.03" transform="matrix(0.7071 -0.7071 0.7071 0.7071 -284.7768 274.2128)" width="5.67" height="5.67"/>
			</g>
			
				<rect x="186.84" y="449.62" transform="matrix(-0.7071 0.7071 -0.7071 -0.7071 661.3858 645.5711)" style="fill:none;stroke:#000000;stroke-width:3;stroke-miterlimit:10;" width="20.29" height="20.29"/>
		</g>
	</g>
</g>
<g>
</g>
<g>
</g>
<g>
</g>
<g>
</g>
<g>
</g>
<g>
</g>
<g>
</g>
<g>
</g>
<g>
</g>
<g>
</g>
<g>
</g>
<g>
</g>
<g>
</g>
<g>
</g>
<g>
</g>
</svg>
