<?xml version="1.0" encoding="utf-8"?>
<!-- Generator: Adobe Illustrator 27.2.0, SVG Export Plug-In . SVG Version: 6.00 Build 0)  -->
<svg version="1.1" id="Layer_1" xmlns="http://www.w3.org/2000/svg" xmlns:xlink="http://www.w3.org/1999/xlink" x="0px" y="0px"
	 viewBox="0 0 800 600" style="enable-background:new 0 0 800 600;" xml:space="preserve">
<g>
	<g>
		
			<rect x="149.14" y="410.73" transform="matrix(-0.7071 -0.7071 0.7071 -0.7071 -15.7729 855.0615)" style="fill:none;stroke:#000000;stroke-width:3;stroke-miterlimit:10;" width="40.13" height="40.13"/>
		<path d="M233.69,430.8L233.69,430.8l-17.1-17.09l0,0l-5.05-5.05l-15.15-15.15l-5.05-5.05l-5.05-5.05l0,0l-17.09-17.09v0l0,0l0,0v0
			l-17.09,17.09l0,0l-30.29,30.29l0,0l-17.09,17.09h0l0,0l0,0h0l17.09,17.09l0,0l5.05,5.05l5.05,5.05l20.19,20.19l0,0l17.09,17.09v0
			l0,0l0,0v0l17.09-17.09l0,0l5.05-5.05l5.05-5.05l10.1-10.1l5.05-5.05l5.05-5.05l0,0L233.69,430.8L233.69,430.8L233.69,430.8
			L233.69,430.8z M225.5,427.28l-3.52,3.52h0L225.5,427.28L225.5,427.28z M220.46,422.24l-8.55,8.55h0L220.46,422.24L220.46,422.24z
			 M215.43,417.21L203,429.64l0,0L215.43,417.21L215.43,417.21z M214.26,416.04l-12.43,12.43l-0.01-0.01L214.26,416.04
			L214.26,416.04z M213.09,414.87l-12.43,12.43l-2.72-2.72l12.43-12.43L213.09,414.87z M199.49,430.8l-5.05,5.05l-15.15,15.15
			l-5.05,5.05l-5.05,5.05l0,0l0,0l-5.05-5.05l-25.24-25.24l0,0l0,0l5.05-5.05l20.19-20.19l5.05-5.05l0,0l0,0l5.05,5.05l5.05,5.05
			l15.15,15.15L199.49,430.8L199.49,430.8L199.49,430.8z M209.21,410.99l-12.43,12.43l0,0L209.21,410.99L209.21,410.99z
			 M208.04,409.82l-12.43,12.43l-2.72-2.72l12.43-12.43L208.04,409.82z M204.16,405.94l-12.43,12.43l0,0L204.16,405.94
			L204.16,405.94z M203,404.77l-12.43,12.43l-2.72-2.72l12.43-12.43L203,404.77z M199.11,400.89l-12.43,12.43l0,0L199.11,400.89
			L199.11,400.89z M197.95,399.72l-12.43,12.43l-2.72-2.72l12.43-12.43L197.95,399.72z M194.06,395.84l-12.43,12.43l0,0
			L194.06,395.84L194.06,395.84z M192.9,394.68l-12.43,12.43l-2.72-2.72l12.43-12.43L192.9,394.68z M189.01,390.79l-12.43,12.43l0,0
			L189.01,390.79L189.01,390.79z M187.85,389.63l-12.43,12.43l-2.72-2.72l12.43-12.43L187.85,389.63z M183.97,385.75l-12.43,12.43
			l0,0l0,0l-0.01-0.01L183.97,385.75L183.97,385.75z M182.79,384.57l-12.43,12.43l0,0L182.79,384.57L182.79,384.57z M177.76,379.54
			l-8.55,8.55v0L177.76,379.54L177.76,379.54z M172.73,374.5l-3.52,3.52v0L172.73,374.5L172.73,374.5z M169.2,370.98l2.36,2.36
			l-2.36,2.36l-2.36-2.36L169.2,370.98z M169.2,378.03L169.2,378.03L169.2,378.03L169.2,378.03L169.2,378.03z M165.68,374.5
			l3.52,3.52v0L165.68,374.5L165.68,374.5z M164.52,375.67l4.68,4.68v0l0,0l0,0v0l4.68-4.68l2.71,2.71l-7.4,7.4l-7.4-7.4
			L164.52,375.67z M169.2,388.1L169.2,388.1L169.2,388.1L169.2,388.1L169.2,388.1z M160.65,379.54l8.55,8.55v0L160.65,379.54
			L160.65,379.54z M159.48,380.7l9.72,9.72v0l0,0l0,0v0l9.72-9.72l3.18,3.18l-12.9,12.9l-12.9-12.9L159.48,380.7z M155.61,384.57
			L168.04,397l0,0L155.61,384.57L155.61,384.57z M154.45,385.74l12.43,12.43l-0.01,0.01L154.45,385.74L154.45,385.74z
			 M153.27,386.91l12.43,12.43l-2.72,2.72l-12.43-12.43L153.27,386.91z M149.39,390.79l12.43,12.43l0,0L149.39,390.79L149.39,390.79
			z M148.23,391.96l12.43,12.43l-2.72,2.72l-12.43-12.43L148.23,391.96z M144.34,395.84l12.43,12.43l0,0L144.34,395.84
			L144.34,395.84z M143.18,397l12.43,12.43l-2.72,2.72l-12.43-12.43L143.18,397z M139.29,400.89l12.43,12.43l0,0L139.29,400.89
			L139.29,400.89z M138.13,402.05l12.43,12.43l-2.72,2.72l-12.43-12.43L138.13,402.05z M134.25,405.94l12.43,12.43l0,0
			L134.25,405.94L134.25,405.94z M133.08,407.1l12.43,12.43l-2.72,2.72l-12.43-12.43L133.08,407.1z M129.2,410.99l12.43,12.43l0,0
			L129.2,410.99L129.2,410.99z M128.03,412.15l12.43,12.43l-2.72,2.72l-12.43-12.43L128.03,412.15z M124.15,416.03l12.43,12.43l0,0
			l0,0l-0.01,0.01L124.15,416.03L124.15,416.03z M122.98,417.21l12.43,12.43l0,0L122.98,417.21L122.98,417.21z M117.94,422.24
			l8.55,8.55h0L117.94,422.24L117.94,422.24z M112.91,427.27l3.52,3.52h0L112.91,427.27L112.91,427.27z M109.39,430.8l2.36-2.36
			l2.36,2.36l-2.36,2.36L109.39,430.8z M112.91,434.32l3.52-3.52h0L112.91,434.32L112.91,434.32z M114.07,435.48l4.68-4.68h0l0,0
			l0,0h0l-4.68-4.68l2.71-2.71l7.4,7.4l-7.4,7.4L114.07,435.48z M116.43,430.8L116.43,430.8L116.43,430.8L116.43,430.8L116.43,430.8
			z M117.94,439.35l8.55-8.55h0L117.94,439.35L117.94,439.35z M119.11,440.52l9.72-9.72h0l0,0l0,0h0l-9.72-9.72l3.18-3.18l12.9,12.9
			l-12.9,12.9L119.11,440.52z M126.5,430.8L126.5,430.8L126.5,430.8L126.5,430.8L126.5,430.8z M122.98,444.39l12.43-12.43l0,0
			L122.98,444.39L122.98,444.39z M124.14,445.55l12.43-12.43l0.01,0.01L124.14,445.55L124.14,445.55z M125.31,446.73l12.43-12.43
			l2.72,2.72l-12.43,12.43L125.31,446.73z M129.2,450.61l12.43-12.43l0,0L129.2,450.61L129.2,450.61z M130.36,451.77l12.43-12.43
			l2.72,2.72l-12.43,12.43L130.36,451.77z M134.25,455.66l12.43-12.43l0,0L134.25,455.66L134.25,455.66z M135.41,456.82l12.43-12.43
			l2.72,2.72l-12.43,12.43L135.41,456.82z M139.29,460.71l12.43-12.43l0,0L139.29,460.71L139.29,460.71z M140.46,461.87l12.43-12.43
			l2.72,2.72l-12.43,12.43L140.46,461.87z M144.34,465.75L144.34,465.75l12.43-12.43l0,0L144.34,465.75L144.34,465.75z
			 M145.51,466.92l12.43-12.43l2.72,2.72l-12.43,12.43L145.51,466.92z M149.39,470.8l12.43-12.43l0,0L149.39,470.8L149.39,470.8z
			 M150.56,471.97l12.43-12.43l2.72,2.72l-12.43,12.43L150.56,471.97z M154.44,475.85l12.43-12.43l0,0l0,0l0.01,0.01L154.44,475.85
			L154.44,475.85z M155.61,477.02l12.43-12.43l0,0L155.61,477.02L155.61,477.02z M160.65,482.06l8.56-8.55v0L160.65,482.06
			L160.65,482.06z M165.68,487.09l3.52-3.52v0L165.68,487.09L165.68,487.09z M169.2,490.61l-2.36-2.36l2.36-2.36l2.36,2.36
			L169.2,490.61z M169.2,483.57L169.2,483.57L169.2,483.57L169.2,483.57L169.2,483.57z M172.72,487.09l-3.52-3.52v0L172.72,487.09
			L172.72,487.09z M173.89,485.93l-4.68-4.68v0l0,0l0,0v0l-4.68,4.68l-2.71-2.71l7.4-7.4l7.4,7.4L173.89,485.93z M169.2,473.5
			L169.2,473.5L169.2,473.5L169.2,473.5L169.2,473.5z M177.76,482.06l-8.55-8.55v0L177.76,482.06L177.76,482.06z M178.92,480.89
			l-9.72-9.72v0l0,0l0,0v0l-9.72,9.72l-3.18-3.18l12.9-12.9l12.9,12.9L178.92,480.89z M182.79,477.02l-12.43-12.43l0,0
			L182.79,477.02L182.79,477.02z M183.96,475.86l-12.43-12.43l0.01-0.01L183.96,475.86L183.96,475.86z M185.13,474.69l-12.43-12.43
			l2.72-2.72l12.43,12.43L185.13,474.69z M189.01,470.8l-12.43-12.43l0,0L189.01,470.8L189.01,470.8z M190.18,469.64l-12.43-12.43
			l2.72-2.72l12.43,12.43L190.18,469.64z M194.06,465.75l-12.43-12.43l0,0L194.06,465.75L194.06,465.75z M195.23,464.59
			l-12.43-12.43l2.72-2.72l12.43,12.43L195.23,464.59z M199.11,460.71l-12.43-12.43l0,0L199.11,460.71L199.11,460.71z
			 M200.28,459.54l-12.43-12.43l2.72-2.72l12.43,12.43L200.28,459.54z M204.16,455.66l-12.43-12.43l0,0L204.16,455.66L204.16,455.66
			z M205.32,454.49l-12.43-12.43l2.72-2.72l12.43,12.43L205.32,454.49z M209.21,450.61l-12.43-12.43l0,0L209.21,450.61
			L209.21,450.61z M210.37,449.44l-12.43-12.43l2.72-2.72l12.43,12.43L210.37,449.44z M214.25,445.56l-12.43-12.43l0,0l0,0
			l0.01-0.01L214.25,445.56L214.25,445.56z M215.43,444.39l-12.43-12.43l0,0L215.43,444.39L215.43,444.39z M216.12,443.69
			l-12.9-12.9l12.9-12.9l3.18,3.18l-9.72,9.72h0l0,0l0,0h0l9.72,9.72L216.12,443.69z M211.9,430.8L211.9,430.8L211.9,430.8
			L211.9,430.8L211.9,430.8z M220.46,439.35l-8.55-8.55h0L220.46,439.35L220.46,439.35z M221.62,438.19l-7.4-7.4l7.4-7.4l2.71,2.71
			l-4.68,4.68h0l0,0l0,0h0l4.68,4.68L221.62,438.19z M221.97,430.8L221.97,430.8L221.97,430.8L221.97,430.8L221.97,430.8z
			 M225.5,434.32l-3.52-3.52h0L225.5,434.32L225.5,434.32z M226.66,433.16l-2.36-2.36l2.36-2.36l2.36,2.36L226.66,433.16z"/>
		<g>
			<line style="fill:none;stroke:#000000;stroke-width:4;stroke-miterlimit:10;" x1="240.72" y1="439.96" x2="232.06" y2="431.3"/>
			<line style="fill:none;stroke:#000000;stroke-width:4;stroke-miterlimit:10;" x1="235.05" y1="445.63" x2="226.39" y2="436.97"/>
			<line style="fill:none;stroke:#000000;stroke-width:4;stroke-miterlimit:10;" x1="229.39" y1="451.29" x2="220.73" y2="442.63"/>
			<line style="fill:none;stroke:#000000;stroke-width:4;stroke-miterlimit:10;" x1="223.72" y1="456.96" x2="215.06" y2="448.3"/>
			<line style="fill:none;stroke:#000000;stroke-width:4;stroke-miterlimit:10;" x1="218.05" y1="462.62" x2="209.39" y2="453.96"/>
			<line style="fill:none;stroke:#000000;stroke-width:4;stroke-miterlimit:10;" x1="212.39" y1="468.29" x2="203.73" y2="459.63"/>
			<line style="fill:none;stroke:#000000;stroke-width:4;stroke-miterlimit:10;" x1="206.72" y1="473.95" x2="198.06" y2="465.29"/>
			<line style="fill:none;stroke:#000000;stroke-width:4;stroke-miterlimit:10;" x1="201.06" y1="479.62" x2="192.4" y2="470.96"/>
			<line style="fill:none;stroke:#000000;stroke-width:4;stroke-miterlimit:10;" x1="195.39" y1="485.29" x2="186.73" y2="476.63"/>
			<line style="fill:none;stroke:#000000;stroke-width:4;stroke-miterlimit:10;" x1="189.73" y1="490.95" x2="181.07" y2="482.29"/>
			<line style="fill:none;stroke:#000000;stroke-width:4;stroke-miterlimit:10;" x1="184.06" y1="496.62" x2="175.4" y2="487.96"/>
			<line style="fill:none;stroke:#000000;stroke-width:4;stroke-miterlimit:10;" x1="178.39" y1="502.28" x2="169.73" y2="493.62"/>
		</g>
		<g>
			<line style="fill:none;stroke:#000000;stroke-width:4;stroke-miterlimit:10;" x1="178.37" y1="359.28" x2="169.71" y2="367.94"/>
			<line style="fill:none;stroke:#000000;stroke-width:4;stroke-miterlimit:10;" x1="184.03" y1="364.95" x2="175.37" y2="373.61"/>
			<line style="fill:none;stroke:#000000;stroke-width:4;stroke-miterlimit:10;" x1="189.7" y1="370.61" x2="181.04" y2="379.27"/>
			<line style="fill:none;stroke:#000000;stroke-width:4;stroke-miterlimit:10;" x1="195.36" y1="376.28" x2="186.7" y2="384.94"/>
			<line style="fill:none;stroke:#000000;stroke-width:4;stroke-miterlimit:10;" x1="201.03" y1="381.95" x2="192.37" y2="390.61"/>
			<line style="fill:none;stroke:#000000;stroke-width:4;stroke-miterlimit:10;" x1="206.69" y1="387.61" x2="198.03" y2="396.27"/>
			<line style="fill:none;stroke:#000000;stroke-width:4;stroke-miterlimit:10;" x1="212.36" y1="393.28" x2="203.7" y2="401.94"/>
			<line style="fill:none;stroke:#000000;stroke-width:4;stroke-miterlimit:10;" x1="218.03" y1="398.94" x2="209.37" y2="407.6"/>
			<line style="fill:none;stroke:#000000;stroke-width:4;stroke-miterlimit:10;" x1="223.69" y1="404.61" x2="215.03" y2="413.27"/>
			<line style="fill:none;stroke:#000000;stroke-width:4;stroke-miterlimit:10;" x1="229.36" y1="410.27" x2="220.7" y2="418.93"/>
			<line style="fill:none;stroke:#000000;stroke-width:4;stroke-miterlimit:10;" x1="235.02" y1="415.94" x2="226.36" y2="424.6"/>
			<line style="fill:none;stroke:#000000;stroke-width:4;stroke-miterlimit:10;" x1="240.69" y1="421.61" x2="232.03" y2="430.27"/>
		</g>
		<g>
			<line style="fill:none;stroke:#000000;stroke-width:4;stroke-miterlimit:10;" x1="97.69" y1="421.63" x2="106.35" y2="430.29"/>
			<line style="fill:none;stroke:#000000;stroke-width:4;stroke-miterlimit:10;" x1="103.35" y1="415.97" x2="112.01" y2="424.63"/>
			<line style="fill:none;stroke:#000000;stroke-width:4;stroke-miterlimit:10;" x1="109.02" y1="410.3" x2="117.68" y2="418.96"/>
			<line style="fill:none;stroke:#000000;stroke-width:4;stroke-miterlimit:10;" x1="114.69" y1="404.64" x2="123.35" y2="413.3"/>
			<line style="fill:none;stroke:#000000;stroke-width:4;stroke-miterlimit:10;" x1="120.35" y1="398.97" x2="129.01" y2="407.63"/>
			<line style="fill:none;stroke:#000000;stroke-width:4;stroke-miterlimit:10;" x1="126.02" y1="393.31" x2="134.68" y2="401.97"/>
			<line style="fill:none;stroke:#000000;stroke-width:4;stroke-miterlimit:10;" x1="131.68" y1="387.64" x2="140.34" y2="396.3"/>
			<line style="fill:none;stroke:#000000;stroke-width:4;stroke-miterlimit:10;" x1="137.35" y1="381.97" x2="146.01" y2="390.63"/>
			<line style="fill:none;stroke:#000000;stroke-width:4;stroke-miterlimit:10;" x1="143.01" y1="376.31" x2="151.67" y2="384.97"/>
			<line style="fill:none;stroke:#000000;stroke-width:4;stroke-miterlimit:10;" x1="148.68" y1="370.64" x2="157.34" y2="379.3"/>
			<line style="fill:none;stroke:#000000;stroke-width:4;stroke-miterlimit:10;" x1="154.35" y1="364.98" x2="163" y2="373.64"/>
			<line style="fill:none;stroke:#000000;stroke-width:4;stroke-miterlimit:10;" x1="160.01" y1="359.31" x2="168.67" y2="367.97"/>
		</g>
		<g>
			<line style="fill:none;stroke:#000000;stroke-width:4;stroke-miterlimit:10;" x1="160.04" y1="502.31" x2="168.7" y2="493.65"/>
			<line style="fill:none;stroke:#000000;stroke-width:4;stroke-miterlimit:10;" x1="154.37" y1="496.65" x2="163.03" y2="487.99"/>
			<line style="fill:none;stroke:#000000;stroke-width:4;stroke-miterlimit:10;" x1="148.71" y1="490.98" x2="157.37" y2="482.32"/>
			<line style="fill:none;stroke:#000000;stroke-width:4;stroke-miterlimit:10;" x1="143.04" y1="485.31" x2="151.7" y2="476.65"/>
			<line style="fill:none;stroke:#000000;stroke-width:4;stroke-miterlimit:10;" x1="137.38" y1="479.65" x2="146.04" y2="470.99"/>
			<line style="fill:none;stroke:#000000;stroke-width:4;stroke-miterlimit:10;" x1="131.71" y1="473.98" x2="140.37" y2="465.32"/>
			<line style="fill:none;stroke:#000000;stroke-width:4;stroke-miterlimit:10;" x1="126.05" y1="468.32" x2="134.71" y2="459.66"/>
			<line style="fill:none;stroke:#000000;stroke-width:4;stroke-miterlimit:10;" x1="120.38" y1="462.65" x2="129.04" y2="453.99"/>
			<line style="fill:none;stroke:#000000;stroke-width:4;stroke-miterlimit:10;" x1="114.71" y1="456.99" x2="123.37" y2="448.33"/>
			<line style="fill:none;stroke:#000000;stroke-width:4;stroke-miterlimit:10;" x1="109.05" y1="451.32" x2="117.71" y2="442.66"/>
			<line style="fill:none;stroke:#000000;stroke-width:4;stroke-miterlimit:10;" x1="103.38" y1="445.65" x2="112.04" y2="437"/>
			<line style="fill:none;stroke:#000000;stroke-width:4;stroke-miterlimit:10;" x1="97.72" y1="439.99" x2="106.38" y2="431.33"/>
		</g>
		<g>
			
				<rect x="246.74" y="422.24" transform="matrix(-0.7071 0.7071 -0.7071 -0.7071 740.4498 554.8906)" style="fill:none;stroke:#000000;stroke-width:3;stroke-miterlimit:10;" width="17.12" height="17.12"/>
			<g>
				<line style="fill:none;stroke:#000000;stroke-width:3;stroke-miterlimit:10;" x1="284.41" y1="430.8" x2="268.23" y2="430.8"/>
				<path d="M285.16,434.43c-1.79,0-3.25-1.45-3.25-3.25c0-1.79,1.45-3.25,3.25-3.25c1.79,0,3.25,1.45,3.25,3.25
					C288.41,432.98,286.95,434.43,285.16,434.43z"/>
				<g>
					<line style="fill:none;stroke:#000000;stroke-width:3;stroke-miterlimit:10;" x1="277.2" y1="439.29" x2="268.81" y2="430.9"/>
					<circle cx="277.13" cy="439.22" r="3.25"/>
				</g>
				<g>
					
						<line style="fill:none;stroke:#000000;stroke-width:3;stroke-miterlimit:10;" x1="277.2" y1="422.31" x2="268.81" y2="430.69"/>
					<circle cx="277.13" cy="422.38" r="3.25"/>
				</g>
			</g>
			<g>
				<line style="fill:none;stroke:#000000;stroke-width:3;stroke-miterlimit:10;" x1="255.3" y1="401.69" x2="255.3" y2="417.87"/>
				<circle cx="255.69" cy="400.94" r="3.25"/>
				<g>
					
						<line style="fill:none;stroke:#000000;stroke-width:3;stroke-miterlimit:10;" x1="263.79" y1="408.9" x2="255.41" y2="417.29"/>
					<circle cx="263.72" cy="408.98" r="3.25"/>
				</g>
				<g>
					<line style="fill:none;stroke:#000000;stroke-width:3;stroke-miterlimit:10;" x1="246.81" y1="408.9" x2="255.2" y2="417.29"/>
					<circle cx="246.88" cy="408.98" r="3.25"/>
				</g>
			</g>
			<g>
				<line style="fill:none;stroke:#000000;stroke-width:3;stroke-miterlimit:10;" x1="255.3" y1="459.91" x2="255.3" y2="443.72"/>
				<circle cx="254.92" cy="460.65" r="3.25"/>
				<g>
					
						<line style="fill:none;stroke:#000000;stroke-width:3;stroke-miterlimit:10;" x1="246.81" y1="452.69" x2="255.2" y2="444.31"/>
					<circle cx="246.88" cy="452.62" r="3.25"/>
				</g>
				<g>
					
						<line style="fill:none;stroke:#000000;stroke-width:3;stroke-miterlimit:10;" x1="263.79" y1="452.69" x2="255.41" y2="444.31"/>
					<circle cx="263.72" cy="452.62" r="3.25"/>
				</g>
			</g>
		</g>
		<g>
			
				<rect x="160.64" y="336.14" transform="matrix(0.7071 0.7071 -0.7071 0.7071 293.2957 -18.6849)" style="fill:none;stroke:#000000;stroke-width:3;stroke-miterlimit:10;" width="17.12" height="17.12"/>
			<g>
				<line style="fill:none;stroke:#000000;stroke-width:3;stroke-miterlimit:10;" x1="169.2" y1="315.59" x2="169.2" y2="331.77"/>
				<circle cx="169.59" cy="314.84" r="3.25"/>
				<g>
					
						<line style="fill:none;stroke:#000000;stroke-width:3;stroke-miterlimit:10;" x1="177.69" y1="322.8" x2="169.31" y2="331.19"/>
					<circle cx="177.62" cy="322.87" r="3.25"/>
				</g>
				<g>
					<line style="fill:none;stroke:#000000;stroke-width:3;stroke-miterlimit:10;" x1="160.71" y1="322.8" x2="169.1" y2="331.19"/>
					<circle cx="160.78" cy="322.87" r="3.25"/>
				</g>
			</g>
			<g>
				<line style="fill:none;stroke:#000000;stroke-width:3;stroke-miterlimit:10;" x1="140.09" y1="344.7" x2="156.28" y2="344.7"/>
				<circle cx="139.35" cy="344.31" r="3.25"/>
				<g>
					
						<line style="fill:none;stroke:#000000;stroke-width:3;stroke-miterlimit:10;" x1="147.31" y1="336.21" x2="155.69" y2="344.59"/>
					<circle cx="147.38" cy="336.28" r="3.25"/>
				</g>
				<g>
					
						<line style="fill:none;stroke:#000000;stroke-width:3;stroke-miterlimit:10;" x1="147.31" y1="353.19" x2="155.69" y2="344.8"/>
					<circle cx="147.38" cy="353.12" r="3.25"/>
				</g>
			</g>
			<g>
				<line style="fill:none;stroke:#000000;stroke-width:3;stroke-miterlimit:10;" x1="198.31" y1="344.7" x2="182.13" y2="344.7"/>
				<circle cx="199.06" cy="345.08" r="3.25"/>
				<g>
					<line style="fill:none;stroke:#000000;stroke-width:3;stroke-miterlimit:10;" x1="191.1" y1="353.19" x2="182.71" y2="344.8"/>
					<circle cx="191.02" cy="353.12" r="3.25"/>
				</g>
				<g>
					
						<line style="fill:none;stroke:#000000;stroke-width:3;stroke-miterlimit:10;" x1="191.1" y1="336.21" x2="182.71" y2="344.59"/>
					<circle cx="191.02" cy="336.28" r="3.25"/>
				</g>
			</g>
		</g>
		<g>
			
				<rect x="74.54" y="422.24" transform="matrix(0.7071 -0.7071 0.7071 0.7071 -280.2798 184.9395)" style="fill:none;stroke:#000000;stroke-width:3;stroke-miterlimit:10;" width="17.12" height="17.12"/>
			<g>
				<line style="fill:none;stroke:#000000;stroke-width:3;stroke-miterlimit:10;" x1="53.99" y1="430.8" x2="70.18" y2="430.8"/>
				<circle cx="53.25" cy="430.41" r="3.25"/>
				<g>
					<line style="fill:none;stroke:#000000;stroke-width:3;stroke-miterlimit:10;" x1="61.21" y1="422.31" x2="69.59" y2="430.69"/>
					<circle cx="61.28" cy="422.38" r="3.25"/>
				</g>
				<g>
					<line style="fill:none;stroke:#000000;stroke-width:3;stroke-miterlimit:10;" x1="61.21" y1="439.29" x2="69.59" y2="430.9"/>
					<circle cx="61.28" cy="439.22" r="3.25"/>
				</g>
			</g>
			<g>
				<line style="fill:none;stroke:#000000;stroke-width:3;stroke-miterlimit:10;" x1="83.1" y1="459.91" x2="83.1" y2="443.72"/>
				<circle cx="82.72" cy="460.65" r="3.25"/>
				<g>
					<line style="fill:none;stroke:#000000;stroke-width:3;stroke-miterlimit:10;" x1="74.61" y1="452.69" x2="83" y2="444.31"/>
					<circle cx="74.68" cy="452.62" r="3.25"/>
				</g>
				<g>
					<line style="fill:none;stroke:#000000;stroke-width:3;stroke-miterlimit:10;" x1="91.59" y1="452.69" x2="83.21" y2="444.31"/>
					<circle cx="91.52" cy="452.62" r="3.25"/>
				</g>
			</g>
			<g>
				<line style="fill:none;stroke:#000000;stroke-width:3;stroke-miterlimit:10;" x1="83.1" y1="401.69" x2="83.1" y2="417.87"/>
				<circle cx="83.49" cy="400.94" r="3.25"/>
				<g>
					<line style="fill:none;stroke:#000000;stroke-width:3;stroke-miterlimit:10;" x1="91.59" y1="408.9" x2="83.21" y2="417.29"/>
					<circle cx="91.52" cy="408.98" r="3.25"/>
				</g>
				<g>
					<line style="fill:none;stroke:#000000;stroke-width:3;stroke-miterlimit:10;" x1="74.61" y1="408.9" x2="83" y2="417.29"/>
					<circle cx="74.68" cy="408.98" r="3.25"/>
				</g>
			</g>
		</g>
		<g>
			
				<rect x="160.64" y="508.34" transform="matrix(-0.7071 -0.7071 0.7071 -0.7071 -76.6554 1002.0446)" style="fill:none;stroke:#000000;stroke-width:3;stroke-miterlimit:10;" width="17.12" height="17.12"/>
			<g>
				<line style="fill:none;stroke:#000000;stroke-width:3;stroke-miterlimit:10;" x1="169.2" y1="546.01" x2="169.2" y2="529.82"/>
				<circle cx="168.82" cy="546.75" r="3.25"/>
				<g>
					
						<line style="fill:none;stroke:#000000;stroke-width:3;stroke-miterlimit:10;" x1="160.71" y1="538.79" x2="169.1" y2="530.41"/>
					<circle cx="160.78" cy="538.72" r="3.25"/>
				</g>
				<g>
					
						<line style="fill:none;stroke:#000000;stroke-width:3;stroke-miterlimit:10;" x1="177.69" y1="538.79" x2="169.31" y2="530.41"/>
					<circle cx="177.62" cy="538.72" r="3.25"/>
				</g>
			</g>
			<g>
				<line style="fill:none;stroke:#000000;stroke-width:3;stroke-miterlimit:10;" x1="198.31" y1="516.9" x2="182.13" y2="516.9"/>
				<circle cx="199.06" cy="517.28" r="3.25"/>
				<g>
					<line style="fill:none;stroke:#000000;stroke-width:3;stroke-miterlimit:10;" x1="191.1" y1="525.39" x2="182.71" y2="517"/>
					<circle cx="191.02" cy="525.32" r="3.25"/>
				</g>
				<g>
					
						<line style="fill:none;stroke:#000000;stroke-width:3;stroke-miterlimit:10;" x1="191.1" y1="508.41" x2="182.71" y2="516.79"/>
					<circle cx="191.02" cy="508.48" r="3.25"/>
				</g>
			</g>
			<g>
				<line style="fill:none;stroke:#000000;stroke-width:3;stroke-miterlimit:10;" x1="140.09" y1="516.9" x2="156.28" y2="516.9"/>
				<circle cx="139.35" cy="516.51" r="3.25"/>
				<g>
					
						<line style="fill:none;stroke:#000000;stroke-width:3;stroke-miterlimit:10;" x1="147.31" y1="508.41" x2="155.69" y2="516.79"/>
					<circle cx="147.38" cy="508.48" r="3.25"/>
				</g>
				<g>
					<line style="fill:none;stroke:#000000;stroke-width:3;stroke-miterlimit:10;" x1="147.31" y1="525.39" x2="155.69" y2="517"/>
					<circle cx="147.38" cy="525.32" r="3.25"/>
				</g>
			</g>
		</g>
		<g>
			<g>
				<line style="fill:none;stroke:#000000;stroke-width:3;stroke-miterlimit:10;" x1="206.58" y1="364.62" x2="195.38" y2="376.3"/>
				<circle cx="207.38" cy="364.35" r="3.25"/>
				<g>
					
						<line style="fill:none;stroke:#000000;stroke-width:3;stroke-miterlimit:10;" x1="207.72" y1="375.71" x2="195.86" y2="375.96"/>
					<circle cx="207.62" cy="375.71" r="3.25"/>
				</g>
				<g>
					
						<line style="fill:none;stroke:#000000;stroke-width:3;stroke-miterlimit:10;" x1="195.46" y1="363.96" x2="195.71" y2="375.81"/>
					<circle cx="195.46" cy="364.06" r="3.25"/>
				</g>
			</g>
			<g>
				<line style="fill:none;stroke:#000000;stroke-width:3;stroke-miterlimit:10;" x1="235.38" y1="393.42" x2="223.7" y2="404.62"/>
				<circle cx="235.65" cy="392.62" r="3.25"/>
				<g>
					
						<line style="fill:none;stroke:#000000;stroke-width:3;stroke-miterlimit:10;" x1="224.29" y1="392.28" x2="224.04" y2="404.14"/>
					<circle cx="224.29" cy="392.38" r="3.25"/>
				</g>
				<g>
					
						<line style="fill:none;stroke:#000000;stroke-width:3;stroke-miterlimit:10;" x1="236.04" y1="404.54" x2="224.19" y2="404.29"/>
					<circle cx="235.94" cy="404.54" r="3.25"/>
				</g>
			</g>
		</g>
		<g>
			<g>
				
					<line style="fill:none;stroke:#000000;stroke-width:3;stroke-miterlimit:10;" x1="103.03" y1="393.42" x2="114.71" y2="404.62"/>
				<circle cx="102.75" cy="392.62" r="3.25"/>
				<g>
					
						<line style="fill:none;stroke:#000000;stroke-width:3;stroke-miterlimit:10;" x1="114.11" y1="392.28" x2="114.36" y2="404.14"/>
					<circle cx="114.11" cy="392.38" r="3.25"/>
				</g>
				<g>
					
						<line style="fill:none;stroke:#000000;stroke-width:3;stroke-miterlimit:10;" x1="102.36" y1="404.54" x2="114.22" y2="404.29"/>
					<circle cx="102.46" cy="404.54" r="3.25"/>
				</g>
			</g>
			<g>
				<line style="fill:none;stroke:#000000;stroke-width:3;stroke-miterlimit:10;" x1="131.82" y1="364.62" x2="143.02" y2="376.3"/>
				<circle cx="131.03" cy="364.35" r="3.25"/>
				<g>
					
						<line style="fill:none;stroke:#000000;stroke-width:3;stroke-miterlimit:10;" x1="130.69" y1="375.71" x2="142.54" y2="375.96"/>
					<circle cx="130.79" cy="375.71" r="3.25"/>
				</g>
				<g>
					
						<line style="fill:none;stroke:#000000;stroke-width:3;stroke-miterlimit:10;" x1="142.95" y1="363.96" x2="142.7" y2="375.81"/>
					<circle cx="142.95" cy="364.06" r="3.25"/>
				</g>
			</g>
		</g>
		<g>
			<g>
				
					<line style="fill:none;stroke:#000000;stroke-width:3;stroke-miterlimit:10;" x1="131.82" y1="496.97" x2="143.02" y2="485.29"/>
				<circle cx="131.03" cy="497.25" r="3.25"/>
				<g>
					
						<line style="fill:none;stroke:#000000;stroke-width:3;stroke-miterlimit:10;" x1="130.69" y1="485.89" x2="142.54" y2="485.64"/>
					<circle cx="130.79" cy="485.89" r="3.25"/>
				</g>
				<g>
					
						<line style="fill:none;stroke:#000000;stroke-width:3;stroke-miterlimit:10;" x1="142.95" y1="497.64" x2="142.7" y2="485.78"/>
					<circle cx="142.95" cy="497.54" r="3.25"/>
				</g>
			</g>
			<g>
				
					<line style="fill:none;stroke:#000000;stroke-width:3;stroke-miterlimit:10;" x1="103.03" y1="468.18" x2="114.71" y2="456.98"/>
				<circle cx="102.75" cy="468.97" r="3.25"/>
				<g>
					
						<line style="fill:none;stroke:#000000;stroke-width:3;stroke-miterlimit:10;" x1="114.11" y1="469.31" x2="114.36" y2="457.46"/>
					<circle cx="114.11" cy="469.21" r="3.25"/>
				</g>
				<g>
					
						<line style="fill:none;stroke:#000000;stroke-width:3;stroke-miterlimit:10;" x1="102.36" y1="457.05" x2="114.22" y2="457.3"/>
					<circle cx="102.46" cy="457.05" r="3.25"/>
				</g>
			</g>
		</g>
		<g>
			<g>
				<line style="fill:none;stroke:#000000;stroke-width:3;stroke-miterlimit:10;" x1="235.38" y1="468.18" x2="223.7" y2="456.98"/>
				<circle cx="235.65" cy="468.97" r="3.25"/>
				<g>
					
						<line style="fill:none;stroke:#000000;stroke-width:3;stroke-miterlimit:10;" x1="224.29" y1="469.31" x2="224.04" y2="457.46"/>
					<circle cx="224.29" cy="469.21" r="3.25"/>
				</g>
				<g>
					
						<line style="fill:none;stroke:#000000;stroke-width:3;stroke-miterlimit:10;" x1="236.04" y1="457.05" x2="224.19" y2="457.3"/>
					<circle cx="235.94" cy="457.05" r="3.25"/>
				</g>
			</g>
			<g>
				
					<line style="fill:none;stroke:#000000;stroke-width:3;stroke-miterlimit:10;" x1="206.58" y1="496.97" x2="195.38" y2="485.29"/>
				<circle cx="207.38" cy="497.25" r="3.25"/>
				<g>
					
						<line style="fill:none;stroke:#000000;stroke-width:3;stroke-miterlimit:10;" x1="207.72" y1="485.89" x2="195.86" y2="485.64"/>
					<circle cx="207.62" cy="485.89" r="3.25"/>
				</g>
				<g>
					
						<line style="fill:none;stroke:#000000;stroke-width:3;stroke-miterlimit:10;" x1="195.46" y1="497.64" x2="195.71" y2="485.78"/>
					<circle cx="195.46" cy="497.54" r="3.25"/>
				</g>
			</g>
		</g>
		<g>
			
				<rect x="157.2" y="418.8" transform="matrix(-0.7071 -0.7071 0.7071 -0.7071 -15.7729 855.0615)" style="fill:none;stroke:#000000;stroke-width:3;stroke-miterlimit:10;" width="24" height="24"/>
			<circle cx="169.2" cy="430.8" r="3.99"/>
		</g>
	</g>
</g>
<g>
</g>
<g>
</g>
<g>
</g>
<g>
</g>
<g>
</g>
<g>
</g>
<g>
</g>
<g>
</g>
<g>
</g>
<g>
</g>
<g>
</g>
<g>
</g>
<g>
</g>
<g>
</g>
<g>
</g>
</svg>
