<?xml version="1.0" encoding="utf-8"?>
<!-- Generator: Adobe Illustrator 27.2.0, SVG Export Plug-In . SVG Version: 6.00 Build 0)  -->
<svg version="1.1" id="Layer_1" xmlns="http://www.w3.org/2000/svg" xmlns:xlink="http://www.w3.org/1999/xlink" x="0px" y="0px"
	 viewBox="0 0 800 600" style="enable-background:new 0 0 800 600;" xml:space="preserve">
<g>
	<g>
		<g>
			<g>
				<polygon points="107.48,489.17 109.33,487.32 111.65,489.63 109.33,491.95 107.48,490.1 106.78,490.79 111.88,495.89 
					112.58,495.2 110.72,493.34 113.04,491.02 114.89,492.88 116.28,491.49 114.43,489.63 116.75,487.32 118.6,489.17 119.3,488.47 
					114.2,483.38 113.5,484.07 115.36,485.93 113.04,488.24 110.72,485.93 112.58,484.07 111.19,482.68 109.33,484.54 
					107.48,482.68 106.09,484.07 107.94,485.93 106.09,487.78 				"/>
				<polygon points="114.89,481.75 116.75,479.9 119.07,482.22 116.75,484.53 114.89,482.68 114.2,483.38 119.3,488.47 
					119.99,487.78 118.14,485.93 120.46,483.61 122.31,485.46 123.7,484.07 121.85,482.22 124.16,479.9 126.02,481.75 
					126.71,481.06 121.61,475.96 120.92,476.66 122.77,478.51 120.46,480.83 118.14,478.51 119.99,476.66 118.6,475.26 
					116.75,477.12 114.89,475.26 113.5,476.66 115.36,478.51 113.5,480.36 				"/>
				<polygon points="173.36,461.13 168.26,466.23 168.96,466.92 170.81,465.07 173.13,467.38 171.28,469.24 172.67,470.63 
					174.52,468.77 176.84,471.09 174.98,472.95 175.68,473.64 180.78,468.54 180.08,467.85 178.23,469.7 175.91,467.38 
					178.23,465.07 180.08,466.92 181.47,465.53 179.62,463.68 181.47,461.82 180.08,460.43 178.23,462.29 176.37,460.43 
					174.98,461.82 176.84,463.68 174.52,465.99 172.2,463.68 174.06,461.82 				"/>
				<polygon points="70.4,526.25 72.25,524.4 74.57,526.72 72.25,529.03 70.4,527.18 69.7,527.87 74.8,532.97 75.49,532.28 
					73.64,530.42 75.96,528.11 77.81,529.96 79.2,528.57 77.35,526.72 79.67,524.4 81.52,526.25 82.21,525.56 77.12,520.46 
					76.42,521.15 78.27,523.01 75.96,525.33 73.64,523.01 75.49,521.15 74.1,519.76 72.25,521.62 70.4,519.76 69,521.15 
					70.86,523.01 69,524.86 				"/>
				<polygon points="232.69,520.46 227.59,525.56 228.29,526.25 230.14,524.4 232.46,526.72 230.61,528.57 232,529.96 
					233.85,528.11 236.17,530.42 234.31,532.28 235.01,532.97 240.11,527.87 239.41,527.18 237.56,529.03 235.24,526.72 
					237.56,524.4 239.41,526.25 240.8,524.86 238.95,523.01 240.8,521.15 239.41,519.76 237.56,521.62 235.71,519.76 234.31,521.15 
					236.17,523.01 233.85,525.33 231.53,523.01 233.39,521.15 				"/>
				<polygon points="88.94,504.93 87.08,506.78 85.23,504.93 83.84,506.32 85.69,508.18 83.84,510.03 85.23,511.42 87.08,509.57 
					89.4,511.88 87.08,514.2 85.23,512.35 84.53,513.04 89.63,518.14 90.33,517.44 88.47,515.59 90.79,513.27 92.64,515.13 
					94.03,513.74 92.18,511.88 94.5,509.57 96.35,511.42 97.05,510.72 91.95,505.63 91.25,506.32 93.11,508.18 90.79,510.49 
					88.47,508.18 90.33,506.32 				"/>
				<polygon points="100.06,496.59 101.92,494.73 104.23,497.05 101.92,499.37 100.06,497.51 99.37,498.21 104.46,503.31 
					105.16,502.61 103.31,500.76 105.62,498.44 107.48,500.29 108.87,498.9 107.01,497.05 109.33,494.73 111.19,496.59 
					111.88,495.89 106.78,490.79 106.09,491.49 107.94,493.34 105.62,495.66 103.31,493.34 105.16,491.49 103.77,490.1 
					101.92,491.95 100.06,490.1 98.67,491.49 100.52,493.34 98.67,495.2 				"/>
				<polygon points="77.81,518.84 79.67,516.98 81.98,519.3 79.67,521.62 77.81,519.76 77.12,520.46 82.22,525.56 82.91,524.86 
					81.06,523.01 83.37,520.69 85.23,522.54 86.62,521.15 84.76,519.3 87.08,516.98 88.94,518.84 89.63,518.14 84.53,513.04 
					83.84,513.74 85.69,515.59 83.37,517.91 81.06,515.59 82.91,513.74 81.52,512.35 79.67,514.2 77.81,512.35 76.42,513.74 
					78.28,515.59 76.42,517.45 				"/>
				<polygon points="92.64,504 94.5,502.15 96.82,504.47 94.5,506.78 92.64,504.93 91.95,505.63 97.05,510.72 97.74,510.03 
					95.89,508.17 98.21,505.86 100.06,507.71 101.45,506.32 99.6,504.47 101.91,502.15 103.77,504 104.46,503.31 99.37,498.21 
					98.67,498.9 100.52,500.76 98.21,503.08 95.89,500.76 97.74,498.9 96.35,497.51 94.5,499.37 92.64,497.51 91.25,498.9 
					93.11,500.76 91.25,502.61 				"/>
				<polygon points="240.11,527.88 235.01,532.97 235.71,533.67 237.56,531.82 239.88,534.13 238.02,535.99 239.41,537.38 
					241.27,535.52 243.59,537.84 241.73,539.69 242.43,540.39 247.52,535.29 246.83,534.6 244.98,536.45 242.66,534.13 
					244.98,531.82 246.83,533.67 248.22,532.28 246.37,530.42 248.22,528.57 246.83,527.18 244.98,529.03 243.12,527.18 
					241.73,528.57 243.59,530.42 241.27,532.74 238.95,530.42 240.8,528.57 				"/>
				<polygon points="122.31,474.34 124.16,472.48 126.48,474.8 124.16,477.12 122.31,475.26 121.62,475.96 126.71,481.06 
					127.41,480.36 125.56,478.51 127.87,476.19 129.73,478.05 131.12,476.65 129.26,474.8 131.58,472.48 133.43,474.34 
					134.13,473.64 129.03,468.54 128.34,469.24 130.19,471.09 127.87,473.41 125.56,471.09 127.41,469.24 126.02,467.85 
					124.16,469.7 122.31,467.85 120.92,469.24 122.77,471.09 120.92,472.95 				"/>
				<polygon points="195.61,483.38 190.51,488.47 191.21,489.17 193.06,487.32 195.38,489.63 193.52,491.49 194.91,492.88 
					196.77,491.02 199.09,493.34 197.23,495.2 197.93,495.89 203.03,490.79 202.33,490.1 200.48,491.95 198.16,489.63 
					200.48,487.32 202.33,489.17 203.72,487.78 201.87,485.93 203.72,484.07 202.33,482.68 200.48,484.54 198.62,482.68 
					197.23,484.07 199.09,485.93 196.77,488.24 194.45,485.93 196.31,484.07 				"/>
				<polygon points="188.19,475.96 183.1,481.06 183.79,481.75 185.64,479.9 187.96,482.22 186.11,484.07 187.5,485.46 
					189.35,483.61 191.67,485.93 189.82,487.78 190.51,488.47 195.61,483.38 194.91,482.68 193.06,484.53 190.74,482.22 
					193.06,479.9 194.91,481.75 196.3,480.36 194.45,478.51 196.3,476.66 194.91,475.26 193.06,477.12 191.21,475.26 189.82,476.66 
					191.67,478.51 189.35,480.83 187.03,478.51 188.89,476.66 				"/>
				<polygon points="151.98,444.67 153.83,442.82 154.71,443.7 154.71,444.09 154.9,443.89 155.08,444.07 155.08,443.71 
					155.98,442.82 157.83,444.67 159.22,443.28 157.37,441.43 159.22,439.57 157.83,438.18 155.98,440.04 155.08,439.14 
					155.08,438.78 154.9,438.96 154.71,438.77 154.71,439.16 153.83,440.04 151.98,438.18 150.59,439.57 152.44,441.43 
					150.59,443.28 				"/>
				<polygon points="203.03,490.79 197.93,495.89 198.62,496.59 200.48,494.73 202.79,497.05 200.94,498.9 202.33,500.29 
					204.19,498.44 206.5,500.76 204.65,502.61 205.34,503.31 210.44,498.21 209.75,497.51 207.89,499.37 205.58,497.05 
					207.89,494.73 209.75,496.59 211.14,495.2 209.28,493.34 211.14,491.49 209.75,490.1 207.89,491.95 206.04,490.1 204.65,491.49 
					206.5,493.34 204.19,495.66 201.87,493.34 203.72,491.49 				"/>
				<polygon points="180.78,468.54 175.68,473.64 176.37,474.34 178.23,472.48 180.55,474.8 178.69,476.65 180.08,478.05 
					181.94,476.19 184.25,478.51 182.4,480.36 183.09,481.06 188.19,475.96 187.5,475.26 185.64,477.12 183.33,474.8 185.64,472.48 
					187.5,474.34 188.89,472.95 187.03,471.09 188.89,469.24 187.5,467.85 185.64,469.7 183.79,467.85 182.4,469.24 184.25,471.09 
					181.94,473.41 179.62,471.09 181.47,469.24 				"/>
				<polygon points="165.94,453.71 160.85,458.81 161.54,459.5 163.4,457.65 165.71,459.97 163.86,461.82 165.25,463.21 
					167.1,461.36 169.42,463.68 167.57,465.53 168.26,466.22 173.36,461.13 172.66,460.43 170.81,462.29 168.49,459.97 
					170.81,457.65 172.66,459.5 174.06,458.11 172.2,456.26 174.06,454.41 172.66,453.02 170.81,454.87 168.96,453.02 
					167.57,454.41 169.42,456.26 167.1,458.58 164.79,456.26 166.64,454.41 				"/>
				<polygon points="225.28,513.04 220.18,518.14 220.87,518.84 222.73,516.98 225.04,519.3 223.19,521.15 224.58,522.54 
					226.43,520.69 228.75,523.01 226.9,524.86 227.59,525.56 232.69,520.46 232,519.76 230.14,521.62 227.83,519.3 230.14,516.98 
					232,518.84 233.39,517.45 231.53,515.59 233.39,513.74 232,512.35 230.14,514.2 228.29,512.35 226.9,513.74 228.75,515.59 
					226.43,517.91 224.12,515.59 225.97,513.74 				"/>
				<path d="M144.56,452.09l1.85-1.85l2.32,2.32l-2.32,2.32l-1.85-1.85l-0.7,0.7l5.1,5.1l0.7-0.7l-1.85-1.85l2.32-2.32l1.85,1.85
					l1.39-1.39l-1.85-1.85l2.32-2.32l0.88,0.88v0.39l0.2-0.2l0.18,0.18v-0.36l0.9-0.9l2.32,2.32l-1.85,1.85l1.39,1.39l1.85-1.85
					l2.32,2.32l-1.85,1.85l0.7,0.7l5.1-5.1l-0.7-0.7l-1.85,1.85l-2.32-2.32l2.32-2.32l1.85,1.85l1.39-1.39l-1.85-1.85l1.85-1.85
					l-1.39-1.39l-1.85,1.85l-1.85-1.85l-1.39,1.39l1.85,1.85l-2.32,2.32l-2.32-2.32l1.85-1.85l-0.7-0.7l-3.45,3.44v0l3.44-3.44
					l-0.7-0.7l-1.85,1.85l-0.9-0.9v-0.36l-0.18,0.18l-0.2-0.2l0,0.39l-0.88,0.88l-1.85-1.85l-0.7,0.7l3.43,3.43l0,0l-3.43-3.43
					l-0.7,0.7l1.85,1.85l-2.32,2.32l-2.32-2.32l1.85-1.85l-1.39-1.39l-1.85,1.85l-1.85-1.85l-1.39,1.39l1.85,1.85l-1.85,1.85
					L144.56,452.09z M154.9,449.92L154.9,449.92L154.9,449.92L154.9,449.92L154.9,449.92z"/>
				<polygon points="129.73,466.92 131.58,465.07 133.9,467.38 131.58,469.7 129.73,467.85 129.03,468.54 134.13,473.64 
					134.83,472.95 132.97,471.09 135.29,468.77 137.14,470.63 138.53,469.24 136.68,467.38 139,465.07 140.85,466.92 141.55,466.23 
					136.45,461.13 135.75,461.82 137.61,463.68 135.29,465.99 132.97,463.68 134.83,461.82 133.44,460.43 131.58,462.29 
					129.73,460.43 128.34,461.82 130.19,463.68 128.34,465.53 				"/>
				<polygon points="210.44,498.21 205.34,503.31 206.04,504 207.89,502.15 210.21,504.47 208.36,506.32 209.75,507.71 
					211.6,505.86 213.92,508.17 212.07,510.03 212.76,510.72 217.86,505.63 217.16,504.93 215.31,506.78 212.99,504.47 
					215.31,502.15 217.16,504 218.55,502.61 216.7,500.76 218.55,498.9 217.16,497.51 215.31,499.37 213.46,497.51 212.07,498.9 
					213.92,500.76 211.6,503.08 209.28,500.76 211.14,498.9 				"/>
				<polygon points="217.86,505.63 212.76,510.72 213.46,511.42 215.31,509.57 217.63,511.88 215.77,513.74 217.16,515.13 
					219.02,513.27 221.34,515.59 219.48,517.44 220.18,518.14 225.28,513.04 224.58,512.35 222.73,514.2 220.41,511.88 
					222.73,509.57 224.58,511.42 225.97,510.03 224.12,508.18 225.97,506.32 224.58,504.93 222.73,506.78 220.87,504.93 
					219.48,506.32 221.34,508.18 219.02,510.49 216.7,508.18 218.55,506.32 				"/>
				<polygon points="140.85,453.02 139,454.87 137.14,453.02 135.75,454.41 137.61,456.26 135.75,458.11 137.14,459.5 139,457.65 
					141.32,459.97 139,462.29 137.14,460.43 136.45,461.13 141.55,466.22 142.24,465.53 140.39,463.68 142.71,461.36 144.56,463.21 
					145.95,461.82 144.1,459.97 146.41,457.65 148.27,459.5 148.96,458.81 143.86,453.71 143.17,454.41 145.02,456.26 
					142.71,458.58 140.39,456.26 142.24,454.41 				"/>
				<rect x="124.48" y="380.08" transform="matrix(0.7071 -0.7071 0.7071 0.7071 -233.4705 202.176)" width="5.67" height="5.67"/>
				<path d="M179.1,396.47l-24.13-24.13l-24.13,24.13l24.13,24.13L179.1,396.47z M154.97,375.17l21.3,21.3l-21.3,21.3l-21.3-21.3
					L154.97,375.17z"/>
				<rect x="171.78" y="380.08" transform="matrix(0.7071 -0.7071 0.7071 0.7071 -219.6156 235.6248)" width="5.67" height="5.67"/>
				<rect x="179.8" y="380.08" transform="matrix(0.7071 -0.7071 0.7071 0.7071 -217.2662 241.2911)" width="5.67" height="5.67"/>
				<polygon points="158.58,370.89 162.59,366.88 158.58,362.87 154.97,366.48 151.37,362.87 147.36,366.88 151.37,370.89 
					154.97,367.28 				"/>
				<rect x="171.78" y="372.06" transform="matrix(0.7071 -0.7071 0.7071 0.7071 -213.9462 233.2765)" width="5.67" height="5.67"/>
				<polygon points="158.58,362.87 162.59,358.86 158.58,354.85 154.97,358.46 151.37,354.85 147.36,358.86 151.37,362.87 
					154.97,359.26 				"/>
				<rect x="163.76" y="372.06" transform="matrix(0.7071 -0.7071 0.7071 0.7071 -216.2945 227.6073)" width="5.67" height="5.67"/>
				<rect x="179.8" y="388.09" transform="matrix(0.7071 -0.7071 0.7071 0.7071 -222.9366 243.6424)" width="5.67" height="5.67"/>
				<rect x="163.76" y="364.04" transform="matrix(0.7071 -0.7071 0.7071 0.7071 -210.6252 225.259)" width="5.67" height="5.67"/>
				<rect x="124.48" y="388.09" transform="matrix(0.7071 -0.7071 0.7071 0.7071 -239.1398 204.5243)" width="5.67" height="5.67"/>
				<rect x="140.51" y="372.06" transform="matrix(0.7071 -0.7071 0.7071 0.7071 -223.1046 211.1663)" width="5.67" height="5.67"/>
				<polygon points="62.98,533.67 64.83,531.82 67.15,534.13 64.83,536.45 62.98,534.6 62.28,535.29 67.38,540.39 68.08,539.69 
					66.22,537.84 68.54,535.52 70.39,537.38 71.79,535.99 69.93,534.13 72.25,531.81 74.1,533.67 74.8,532.97 69.7,527.88 
					69,528.57 70.86,530.42 68.54,532.74 66.22,530.42 68.08,528.57 66.69,527.18 64.83,529.03 62.98,527.18 61.59,528.57 
					63.44,530.42 61.59,532.28 				"/>
				<rect x="140.51" y="364.04" transform="matrix(0.7071 -0.7071 0.7071 0.7071 -217.4353 208.818)" width="5.67" height="5.67"/>
				<rect x="132.5" y="372.06" transform="matrix(0.7071 -0.7071 0.7071 0.7071 -225.4529 205.497)" width="5.67" height="5.67"/>
				<path d="M247.53,535.29l-5.1,5.1l0.7,0.7l1.85-1.85l2.32,2.32l-1.85,1.85l1.39,1.39l1.85-1.85l2.32,2.32l-0.88,0.88l-0.39,0
					l0.2,0.2l-0.18,0.18h0.36l0.9,0.9l-2.32,2.32l-1.85-1.85l-1.39,1.39l0.74,0.74h5.01l1.2-1.2l1.2,1.2h1.3l0.05-0.05l-3.44-3.45h0
					l3.44,3.44l0.7-0.7l-1.85-1.85l0.9-0.9h0.36l-0.18-0.18l0.2-0.2h-0.39l-0.88-0.88l1.85-1.85l-0.7-0.7l-3.43,3.43h0l3.43-3.43
					l-0.7-0.7l-1.85,1.85l-2.32-2.32l2.32-2.32l1.85,1.85l1.39-1.39l-1.85-1.85l1.85-1.85l-1.39-1.39l-1.85,1.85l-1.85-1.85
					l-1.39,1.39l1.85,1.85l-2.32,2.32l-2.32-2.32l1.85-1.85L247.53,535.29z M251.32,546.33L251.32,546.33L251.32,546.33
					L251.32,546.33L251.32,546.33z"/>
				<rect x="132.5" y="380.08" transform="matrix(0.7071 -0.7071 0.7071 0.7071 -231.1222 207.8453)" width="5.67" height="5.67"/>
				<circle cx="194.68" cy="373.06" r="1.89"/>
				<path d="M173.04,351.42v14.22h14.22v-14.22H173.04z M185.26,363.64h-10.22v-10.22h10.22V363.64z"/>
				<path d="M158.51,336.89v14.22h14.22v-14.22H158.51z M170.73,349.11h-10.22v-10.22h10.22V349.11z"/>
				<path d="M181.49,359.87c0.74-0.74,0.74-1.93,0-2.67s-1.93-0.74-2.67,0s-0.74,1.93,0,2.67
					C179.55,360.6,180.75,360.6,181.49,359.87z"/>
				<path d="M57.42,548.8l1.2,1.2h5.01l0.74-0.74l-1.39-1.39l-1.85,1.85l-2.32-2.32l0.88-0.88l0.39,0l-0.2-0.2l0.18-0.18l-0.36,0
					l-0.9-0.9l2.32-2.32l1.85,1.85l1.39-1.39l-1.85-1.85l2.32-2.32l1.85,1.85l0.7-0.7l-5.1-5.1l-0.7,0.7l1.85,1.85l-2.32,2.32
					l-2.32-2.32l1.85-1.85l-1.39-1.39l-1.85,1.85l-1.85-1.85l-1.39,1.39l1.85,1.85l-1.85,1.85l1.39,1.39l1.85-1.85l2.32,2.32
					l-2.32,2.32l-1.85-1.85l-0.7,0.7l3.44,3.44l0,0l-3.44-3.44l-0.7,0.7l1.85,1.85l-0.9,0.9l-0.36,0l0.18,0.18l-0.2,0.2l0.39,0
					l0.88,0.88l-1.85,1.85l0.7,0.7l3.43-3.43h0l-3.43,3.43l0.05,0.05h1.3L57.42,548.8z M58.49,546.33L58.49,546.33L58.49,546.33
					L58.49,546.33L58.49,546.33z"/>
				<path d="M201.79,365.95h-14.22v14.22h14.22V365.95z M199.79,378.17h-10.22v-10.22h10.22V378.17z"/>
				<polygon points="51.85,542.01 50,543.87 50,548.8 51.2,550 52.5,550 53.24,549.26 51.39,547.4 52.27,546.53 52.66,546.53 
					52.46,546.33 52.64,546.15 52.29,546.15 51.39,545.26 53.24,543.4 				"/>
				<path d="M122.57,366.15h-14.22v14.22h14.22V366.15z M120.57,378.37h-10.22v-10.22h10.22V378.37z"/>
				<path d="M50,489.16l84.13-84.1l7.09,6.74l13.75,13.75l16.39-16.39l4.32-4.1l83.97,83.97v-2.83l-82.66-82.66l7.06-7.06l0,0
					l9.55-9.55l-38.62-38.62l-38.62,38.62l16.54,16.54L50,486.33V489.16z M119.18,386.92l35.79-35.79l35.79,35.79l-8.13,8.13
					l-27.66-27.66l-27.66,27.66L119.18,386.92z M128.73,396.47l26.25-26.25l26.25,26.25l-11.24,11.24l-15.07,14.32l-12.29-11.68
					L128.73,396.47z"/>
				<path d="M131.33,360.07c0.74-0.74,0.74-1.93,0-2.67c-0.74-0.74-1.93-0.74-2.67,0s-0.74,1.93,0,2.67
					C129.39,360.8,130.59,360.8,131.33,360.07z"/>
				<path d="M116.8,374.6c0.74-0.74,0.74-1.93,0-2.67s-1.93-0.74-2.67,0c-0.74,0.74-0.74,1.93,0,2.67
					C114.86,375.33,116.06,375.33,116.8,374.6z"/>
				<path d="M145.86,345.54c0.74-0.74,0.74-1.93,0-2.67c-0.74-0.74-1.93-0.74-2.67,0c-0.74,0.74-0.74,1.93,0,2.67
					S145.12,346.27,145.86,345.54z"/>
				<path d="M137.41,337.09v14.22h14.22v-14.22H137.41z M149.63,349.31h-10.22v-10.22h10.22V349.31z"/>
				<path d="M122.88,351.62v14.22h14.22v-14.22H122.88z M135.1,363.84h-10.22v-10.22h10.22V363.84z"/>
				<path d="M166.96,345.34c0.74-0.74,0.74-1.93,0-2.67c-0.74-0.74-1.93-0.74-2.67,0c-0.74,0.74-0.74,1.93,0,2.67
					S166.22,346.07,166.96,345.34z"/>
				<polygon points="182.51,539.53 177.74,544.3 178.39,544.95 180.13,543.21 182.3,545.38 181.35,546.33 182.3,547.28 
					180.13,549.45 178.39,547.71 177.74,548.36 179.38,550 182.18,550 183.6,548.58 185.01,550 185.64,550 186.63,549.01 
					184.9,547.28 185.85,546.33 184.9,545.38 186.63,543.65 185.33,542.35 183.6,544.08 181.43,541.91 183.16,540.18 				"/>
				<polygon points="259.65,548.96 259.65,543.71 257.95,542.01 256.56,543.4 258.42,545.26 257.54,546.14 257.15,546.14 
					257.34,546.33 257.17,546.51 257.52,546.51 258.42,547.4 256.56,549.26 257.31,550 258.6,550 				"/>
				<rect x="205.08" y="356.99" transform="matrix(0.7071 -0.7071 0.7071 0.7071 -193.5353 252.4062)" width="5.67" height="5.67"/>
				<rect x="197.06" y="356.99" transform="matrix(0.7071 -0.7071 0.7071 0.7071 -195.8844 246.74)" width="5.67" height="5.67"/>
				<path d="M154.72,434.93l-20.64-20.64L50,498.36v7.86l13.18,13.18l-0.98,0.98l0,0l-0.98,0.98L50,510.13v10.92l5.76,5.76
					l-0.98,0.98l0,0l-0.98,0.98l-3.8-3.8v10.2l4.68-0.06l0.1-7.32l7.32-0.1l0.1-7.32l7.32-0.1l0.1-7.32l7.32-0.1l0.1-7.32l7.32-0.1
					l0.1-7.32l7.32-0.1l0.1-7.32l7.32-0.1l0.1-7.32l7.32-0.1l0.1-7.32l7.32-0.1l0.1-7.32l7.32-0.1l0.1-7.32l7.32-0.1l0.1-7.32
					l7.32-0.1l0.1-7.32l7.32-0.1l0.1-7.32l7.32-0.1l0.06-4.5l3.57,3.57l3.92-3.92l0.07,4.85l7.32,0.1l0.1,7.32l7.32,0.1l0.1,7.32
					l7.32,0.1l0.1,7.32l7.32,0.1l0.1,7.32l7.32,0.1l0.1,7.32l7.32,0.1l0.1,7.32l7.32,0.1l0.1,7.32l7.32,0.1l0.1,7.32l7.32,0.1
					l0.1,7.32l7.32,0.1l0.1,7.32l7.32,0.1l0.1,7.32l7.32,0.1l0.1,7.32l7.32,0.1l0.1,7.32l4.52,0.06v-10.04l-3.64,3.64l-0.98-0.98
					l0,0l-0.98-0.98l5.6-5.6v-10.92l-11.06,11.06l-1.96-1.96l13.02-13.02v-8.15l-84.1-84.1L154.72,434.93z M69.62,512.96
					L69.62,512.96l-0.98,0.98l-15.69-15.69l1.96-1.96l15.69,15.69L69.62,512.96z M77.03,505.54L77.03,505.54l-0.98,0.98
					l-15.69-15.69l1.96-1.96l15.69,15.69L77.03,505.54z M84.45,498.12L84.45,498.12l-0.98,0.98l-15.69-15.69l1.96-1.96l15.69,15.69
					L84.45,498.12z M91.87,490.71L91.87,490.71l-0.98,0.98L75.2,476l1.96-1.96l15.69,15.69L91.87,490.71z M99.28,483.29
					L99.28,483.29l-0.98,0.98l-15.69-15.69l1.96-1.96l15.69,15.69L99.28,483.29z M105.72,476.86l-15.69-15.69l1.96-1.96l15.69,15.69
					L105.72,476.86z M113.14,469.44l-15.69-15.69l1.96-1.96l15.69,15.69L113.14,469.44z M121.53,461.04L121.53,461.04l-0.98,0.98
					l-15.69-15.69l1.96-1.96l15.69,15.69L121.53,461.04z M127.97,454.61l-15.68-15.68l1.96-1.96l15.68,15.68L127.97,454.61z
					 M136.36,446.21L136.36,446.21l-0.98,0.98l-15.68-15.68l1.96-1.96l15.68,15.68L136.36,446.21z M143.78,438.79L143.78,438.79
					l-0.98,0.98l-15.68-15.68l1.96-1.96l15.68,15.68L143.78,438.79z M256.85,498.26l-15.68,15.68l-1.96-1.96l15.68-15.68
					L256.85,498.26z M249.44,490.84l-15.68,15.68l-1.96-1.96l15.68-15.68L249.44,490.84z M242.02,483.42l-15.68,15.68l-1.96-1.96
					l15.68-15.68L242.02,483.42z M234.6,476.01l-15.68,15.68l-0.98-0.98l-0.98-0.98l15.68-15.68L234.6,476.01z M227.19,468.59
					l-15.68,15.68l-1.96-1.96l15.68-15.68L227.19,468.59z M219.77,461.17l-15.68,15.68l-0.98-0.98l0,0l-0.98-0.98l15.68-15.68
					L219.77,461.17z M212.35,453.76l-15.68,15.68l-0.98-0.98l0,0l-0.98-0.98l15.68-15.68L212.35,453.76z M204.94,446.34
					l-15.68,15.68l-0.98-0.98l0,0l-0.98-0.98l15.68-15.68L204.94,446.34z M197.52,438.92l-15.68,15.68l-0.98-0.98l0,0l-0.98-0.98
					l15.68-15.68L197.52,438.92z M190.1,431.51l-15.68,15.68l-0.98-0.98l-0.98-0.98l15.68-15.68L190.1,431.51z M182.69,424.09
					l-15.68,15.68l-1.96-1.96l15.68-15.68L182.69,424.09z"/>
				<rect x="190.55" y="350.48" transform="matrix(0.7071 -0.7071 0.7071 0.7071 -193.187 240.2279)" width="5.67" height="5.67"/>
				<rect x="182.53" y="342.46" transform="matrix(0.7071 -0.7071 0.7071 0.7071 -189.8651 232.2074)" width="5.67" height="5.67"/>
				<rect x="190.55" y="342.46" transform="matrix(0.7071 -0.7071 0.7071 0.7071 -187.5177 237.8796)" width="5.67" height="5.67"/>
				<polygon points="154.9,455.42 63.99,546.33 67.66,550 71.03,550 67.36,546.33 154.9,458.79 242.45,546.33 238.78,550 
					242.15,550 245.82,546.33 				"/>
				<polygon points="139.65,549.02 138.35,547.71 136.62,549.45 134.88,547.72 133.58,549.02 134.57,550 138.66,550 				"/>
				<rect x="176.02" y="327.93" transform="matrix(0.7071 -0.7071 0.7071 0.7071 -181.4992 223.3498)" width="5.67" height="5.67"/>
				<polygon points="202.96,550 202.96,547.89 202.96,547.89 202.96,547.89 207.6,547.89 207.6,547.89 209.57,547.89 209.57,549.87 
					209.57,549.87 209.57,550 212.7,550 212.7,549.87 212.7,549.87 212.7,547.89 214.68,547.89 214.68,547.89 219.32,547.89 
					219.32,547.89 219.32,547.89 219.32,550 222.44,550 222.44,547.89 222.44,547.89 222.44,547.89 227.09,547.89 227.09,544.77 
					222.44,544.77 222.44,544.77 222.44,544.77 222.44,540.13 219.32,540.13 219.32,544.77 219.32,544.77 219.32,544.77 
					214.68,544.77 214.68,544.77 212.7,544.77 212.7,542.79 212.7,542.79 212.7,538.15 212.7,538.15 212.7,538.15 217.34,538.15 
					217.34,535.02 212.7,535.02 212.7,535.02 212.7,535.02 212.7,530.38 209.57,530.38 209.57,535.02 209.57,535.02 209.57,535.02 
					204.93,535.02 204.93,538.15 209.57,538.15 209.57,538.15 209.57,538.15 209.57,542.79 209.57,542.79 209.57,544.77 
					207.6,544.77 207.6,544.77 202.96,544.77 202.96,544.77 202.96,544.77 202.96,540.13 199.83,540.13 199.83,544.77 
					199.83,544.77 199.83,544.77 195.19,544.77 195.19,547.89 199.83,547.89 199.83,547.89 199.83,547.89 199.83,550 				"/>
				<polygon points="175.58,532.59 170.81,537.36 171.46,538.01 173.19,536.28 175.36,538.45 173.19,540.61 171.46,538.88 
					170.16,540.18 171.89,541.91 170.16,543.65 171.46,544.95 173.19,543.21 174.93,544.95 176.23,543.65 174.49,541.91 
					176.66,539.75 178.83,541.91 177.09,543.65 177.74,544.3 182.51,539.53 181.86,538.88 180.13,540.61 177.96,538.45 
					179.69,536.71 178.39,535.41 176.66,537.15 174.49,534.98 176.23,533.24 				"/>
				<polygon points="130.43,550 131.73,550 132.72,549.02 132.06,548.37 				"/>
				<polygon points="173.19,549.45 171.46,547.71 170.16,549.02 171.14,550 175.24,550 176.23,549.02 174.93,547.72 				"/>
				<path d="M156.86,537.44l-0.09-6.84l-1.86-0.03l-1.86,0.03l-0.09,6.84l-6.84,0.09v0h0l-0.09,6.84l-6.84,0.09l-0.03,1.86
					l0.03,1.86l6.84,0.09l0.02,1.71h17.73l0.02-1.71l6.84-0.09l0.03-1.86l-0.03-1.86l-6.84-0.09l-0.09-6.84h0v0L156.86,537.44z
					 M146.93,549.2l-1.83-1.83l1.04-1.04l-1.04-1.04l0.92-0.92l0,0l0.92-0.92l2.87,2.87L146.93,549.2z M154.9,541.23l-2.87-2.87
					l0.92-0.92l0,0l0.92-0.92l1.04,1.04l1.04-1.04l1.83,1.83L154.9,541.23z M164.71,545.29l-1.04,1.04l1.04,1.04l-0.92,0.92l0,0
					l-0.92,0.92l-2.87-2.87l2.87-2.87L164.71,545.29z"/>
				<polygon points="177.74,548.37 177.09,549.02 178.08,550 179.38,550 				"/>
				<rect x="168.01" y="327.93" transform="matrix(0.7071 -0.7071 0.7071 0.7071 -183.8475 217.6805)" width="5.67" height="5.67"/>
				<rect x="121.94" y="342.66" transform="matrix(0.7071 -0.7071 0.7071 0.7071 -207.7565 189.4197)" width="5.67" height="5.67"/>
				<rect x="113.92" y="350.68" transform="matrix(0.7071 -0.7071 0.7071 0.7071 -215.774 186.0987)" width="5.67" height="5.67"/>
				<rect x="113.92" y="342.66" transform="matrix(0.7071 -0.7071 0.7071 0.7071 -210.1048 183.7504)" width="5.67" height="5.67"/>
				<rect x="128.45" y="336.15" transform="matrix(0.7071 -0.7071 0.7071 0.7071 -201.2443 192.1171)" width="5.67" height="5.67"/>
				<rect x="176.02" y="335.95" transform="matrix(0.7071 -0.7071 0.7071 0.7071 -187.1685 225.6981)" width="5.67" height="5.67"/>
				<rect x="99.39" y="365.21" transform="matrix(0.7071 -0.7071 0.7071 0.7071 -230.3038 180.0803)" width="5.67" height="5.67"/>
				<rect x="136.47" y="328.13" transform="matrix(0.7071 -0.7071 0.7071 0.7071 -193.2267 195.4381)" width="5.67" height="5.67"/>
				<rect x="99.39" y="357.19" transform="matrix(0.7071 -0.7071 0.7071 0.7071 -224.6359 177.7345)" width="5.67" height="5.67"/>
				<rect x="107.41" y="357.19" transform="matrix(0.7071 -0.7071 0.7071 0.7071 -222.2849 183.3987)" width="5.67" height="5.67"/>
				<rect x="152.14" y="308.32" width="5.67" height="5.67"/>
				<polygon points="168.64,525.66 163.87,530.43 164.52,531.08 166.26,529.34 168.42,531.51 166.26,533.68 164.52,531.94 
					163.22,533.24 164.96,534.98 163.22,536.71 163.87,537.36 164.52,538.01 166.26,536.28 167.99,538.01 169.29,536.71 
					167.56,534.98 169.72,532.81 171.89,534.98 170.16,536.71 170.81,537.36 175.58,532.59 174.93,531.94 173.19,533.68 
					171.03,531.51 172.76,529.78 172.11,529.13 171.46,528.48 169.72,530.21 167.56,528.04 169.29,526.31 				"/>
				<rect x="157.81" y="313.99" width="5.67" height="5.67"/>
				<path d="M165.03,329.87l-10.06-10.06l-10.06,10.06l10.06,10.06L165.03,329.87z M154.97,322.65l7.23,7.23l-7.23,7.23l-7.23-7.23
					L154.97,322.65z"/>
				<rect x="146.47" y="313.99" width="5.67" height="5.67"/>
				<rect x="128.45" y="328.13" transform="matrix(0.7071 -0.7071 0.7071 0.7071 -195.5739 189.7663)" width="5.67" height="5.67"/>
				<path d="M156.86,329.87c0-1.04-0.85-1.89-1.89-1.89s-1.89,0.85-1.89,1.89s0.85,1.89,1.89,1.89S156.86,330.92,156.86,329.87z"/>
				<rect x="205.08" y="365.01" transform="matrix(0.7071 -0.7071 0.7071 0.7071 -199.2054 254.7576)" width="5.67" height="5.67"/>
				<rect x="171.97" y="493.9" transform="matrix(0.7071 -0.7071 0.7071 0.7071 -299.7485 268.3889)" width="4.25" height="4.25"/>
				<rect x="165.99" y="506" transform="matrix(0.7071 -0.7071 0.7071 0.7071 -310.0617 267.701)" width="4.25" height="4.25"/>
				<rect x="172.03" y="499.96" transform="matrix(0.7071 -0.7071 0.7071 0.7071 -304.0222 270.2026)" width="4.25" height="4.25"/>
				<rect x="203.09" y="525.01" transform="matrix(0.7071 -0.7071 0.7071 0.7071 -312.6358 299.5017)" width="4.25" height="4.25"/>
				<rect x="197.02" y="524.96" transform="matrix(0.7071 -0.7071 0.7071 0.7071 -314.3753 295.1972)" width="4.25" height="4.25"/>
				<polygon points="156.47,506.05 156.47,501.4 156.47,501.4 156.47,501.4 161.11,501.4 161.11,498.28 156.47,498.28 
					156.47,498.28 156.47,498.28 156.47,493.64 156.47,493.64 156.47,491.66 158.44,491.66 158.44,491.66 163.08,491.66 
					163.08,491.66 163.08,491.66 163.08,496.3 166.21,496.3 166.21,491.66 166.21,491.66 166.21,491.66 170.85,491.66 
					170.85,488.53 166.21,488.53 166.21,488.53 166.21,488.53 166.21,483.89 163.08,483.89 163.08,488.53 163.08,488.53 
					163.08,488.53 158.44,488.53 158.44,488.53 156.47,488.53 156.47,486.56 156.47,486.56 156.47,481.92 156.47,481.92 
					156.47,481.92 161.11,481.92 161.11,478.79 156.47,478.79 156.47,478.79 156.47,478.79 156.47,474.15 153.34,474.15 
					153.34,478.79 153.34,478.79 153.34,478.79 148.7,478.79 148.7,481.92 153.34,481.92 153.34,481.92 153.34,481.92 
					153.34,486.56 153.34,486.56 153.34,488.53 151.37,488.53 151.37,488.53 146.73,488.53 146.73,488.53 146.72,488.53 
					146.72,483.89 143.6,483.89 143.6,488.53 143.6,488.53 143.6,488.53 138.96,488.53 138.96,491.66 143.6,491.66 143.6,491.66 
					143.6,491.66 143.6,496.3 146.72,496.3 146.72,491.66 146.73,491.66 146.73,491.66 151.37,491.66 151.37,491.66 153.34,491.66 
					153.34,493.64 153.34,493.64 153.34,498.28 153.34,498.28 153.34,498.28 148.7,498.28 148.7,501.4 153.34,501.4 153.34,501.4 
					153.34,501.4 153.34,506.05 				"/>
				<rect x="159.95" y="506" transform="matrix(0.7071 -0.7071 0.7071 0.7071 -311.8306 263.4305)" width="4.25" height="4.25"/>
				<rect x="165.96" y="499.96" transform="matrix(0.7071 -0.7071 0.7071 0.7071 -305.7989 265.9135)" width="4.25" height="4.25"/>
				<path d="M120.3,511.73c-3.58,3.58-3.58,9.39,0,12.97c1.73,1.73,4.04,2.69,6.49,2.69s4.75-0.95,6.49-2.69
					c1.73-1.73,2.69-4.04,2.69-6.49s-0.95-4.75-2.69-6.49c-1.73-1.73-4.04-2.69-6.49-2.69S122.03,510,120.3,511.73z M133.27,518.21
					c0,1.73-0.67,3.36-1.9,4.59c-1.22,1.22-2.85,1.9-4.58,1.9s-3.36-0.67-4.59-1.9c-2.53-2.53-2.53-6.64,0-9.17
					c1.22-1.23,2.85-1.9,4.59-1.9s3.36,0.67,4.58,1.9v0C132.6,514.85,133.27,516.48,133.27,518.21z"/>
				<rect x="139.57" y="506" transform="matrix(0.7071 -0.7071 0.7071 0.7071 -317.799 249.0214)" width="4.25" height="4.25"/>
				<rect x="197.02" y="531.02" transform="matrix(0.7071 -0.7071 0.7071 0.7071 -318.6644 296.9738)" width="4.25" height="4.25"/>
				<path d="M180.92,516.11c-1.16,1.16-1.16,3.05,0,4.21c1.16,1.16,3.05,1.16,4.21,0c1.16-1.16,1.16-3.05,0-4.21
					C183.96,514.95,182.08,514.95,180.92,516.11z"/>
				<path d="M124.68,516.11c-1.16,1.16-1.16,3.05,0,4.21c1.16,1.16,3.05,1.16,4.21,0c1.16-1.16,1.16-3.05,0-4.21
					C127.73,514.95,125.85,514.95,124.68,516.11z"/>
				<rect x="190.98" y="531" transform="matrix(0.7071 -0.7071 0.7071 0.7071 -320.4148 292.6956)" width="4.25" height="4.25"/>
				<path d="M189.51,511.73c-1.73-1.73-4.04-2.69-6.49-2.69s-4.75,0.95-6.49,2.69c-3.58,3.58-3.58,9.39,0,12.97
					c1.73,1.73,4.04,2.69,6.49,2.69s4.75-0.95,6.49-2.69c1.73-1.73,2.69-4.04,2.69-6.49S191.24,513.46,189.51,511.73z M187.61,522.8
					L187.61,522.8c-1.22,1.23-2.85,1.9-4.58,1.9s-3.36-0.67-4.59-1.9c-2.53-2.53-2.53-6.64,0-9.17c1.22-1.23,2.85-1.9,4.59-1.9
					s3.36,0.67,4.58,1.9c1.23,1.22,1.9,2.85,1.9,4.59S188.83,521.58,187.61,522.8z"/>
				<rect x="190.98" y="537.04" transform="matrix(0.7071 -0.7071 0.7071 0.7071 -324.6853 294.4645)" width="4.25" height="4.25"/>
				<polygon points="124.16,550 124.79,550 126.21,548.58 127.63,550 130.43,550 132.06,548.36 131.41,547.71 129.68,549.45 
					127.51,547.28 128.46,546.33 127.51,545.38 129.68,543.21 131.41,544.95 132.06,544.3 127.3,539.53 126.65,540.18 
					128.38,541.91 126.21,544.08 124.48,542.35 123.18,543.65 124.91,545.38 123.96,546.33 124.91,547.28 123.18,549.01 				"/>
				<polygon points="127.95,538.88 127.3,539.53 132.06,544.3 132.72,543.65 130.98,541.91 133.15,539.75 135.32,541.91 
					133.58,543.65 134.88,544.95 136.62,543.21 138.35,544.95 139.65,543.65 137.92,541.91 139.65,540.18 138.35,538.88 
					136.62,540.61 134.45,538.45 136.62,536.28 138.35,538.01 139,537.36 134.23,532.59 133.58,533.24 135.32,534.98 133.15,537.15 
					131.41,535.41 130.11,536.71 131.85,538.45 129.68,540.61 				"/>
				<polygon points="161.71,518.72 156.94,523.49 157.59,524.14 159.32,522.41 161.49,524.58 159.32,526.74 157.59,525.01 
					156.29,526.31 158.02,528.04 156.29,529.78 157.59,531.08 159.32,529.34 161.06,531.08 162.36,529.78 160.62,528.04 
					162.79,525.88 164.96,528.04 163.22,529.78 163.87,530.43 168.64,525.66 167.99,525.01 166.26,526.74 164.09,524.58 
					165.82,522.84 164.52,521.54 162.79,523.27 160.62,521.11 162.36,519.37 				"/>
				<polygon points="90.49,550 90.49,547.89 90.49,547.89 90.49,547.89 95.13,547.89 95.13,547.89 97.11,547.89 97.11,549.87 
					97.11,549.87 97.11,550 100.23,550 100.23,549.87 100.23,549.87 100.23,547.89 102.21,547.89 102.21,547.89 106.85,547.89 
					106.85,547.89 106.85,547.89 106.85,550 109.98,550 109.98,547.89 109.98,547.89 109.98,547.89 114.62,547.89 114.62,544.77 
					109.98,544.77 109.98,544.77 109.98,544.77 109.98,540.13 106.85,540.13 106.85,544.77 106.85,544.77 106.85,544.77 
					102.21,544.77 102.21,544.77 100.23,544.77 100.23,542.79 100.23,542.79 100.23,538.15 100.23,538.15 100.23,538.15 
					104.88,538.15 104.88,535.02 100.23,535.02 100.23,535.02 100.23,535.02 100.23,530.38 97.11,530.38 97.11,535.02 97.11,535.02 
					97.11,535.02 92.47,535.02 92.47,538.15 97.11,538.15 97.11,538.15 97.11,538.15 97.11,542.79 97.11,542.79 97.11,544.77 
					95.13,544.77 95.13,544.77 90.49,544.77 90.49,544.77 90.49,544.77 90.49,540.13 87.36,540.13 87.36,544.77 87.36,544.77 
					87.36,544.77 82.72,544.77 82.72,547.89 87.36,547.89 87.36,547.89 87.36,547.89 87.36,550 				"/>
				<rect x="145.61" y="506" transform="matrix(0.7071 -0.7071 0.7071 0.7071 -316.0301 253.2919)" width="4.25" height="4.25"/>
				<path d="M77.32,546.33l19.93-19.93l19.91,19.91l-0.03,0.03l0.03,0.03l-3.64,3.64h2.83l2.23-2.23l2.23,2.23h2.83l-3.64-3.64
					l0.03-0.03l-0.03-0.03l6.78-6.78l0.01,0.01l21.32-21.32l-0.01-0.01l6.78-6.78l0.03,0.03l0.03-0.03l6.78,6.78l-0.01,0.01
					l21.32,21.32l0.01-0.01l6.78,6.78l-0.03,0.03l0.03,0.03l-3.64,3.64H189l2.23-2.23l2.23,2.23h2.83l-3.64-3.64l0.03-0.03
					l-0.03-0.03l19.91-19.91l19.93,19.93l-3.67,3.67h3.43l3.67-3.67l-81.01-81.01L73.9,546.33l3.67,3.67h3.43L77.32,546.33z
					 M126.79,536.66l-18.45-18.45l18.45-18.45l18.45,18.45L126.79,536.66z M183.02,536.66l-18.45-18.45l18.45-18.45l18.45,18.45
					L183.02,536.66z M179.69,493.54l-2.48,2.48l3.01,3.01l2.48-2.48l21.99,21.99l-2.48,2.48l3.01,3.01l2.48-2.48l3.44,3.44
					l-19.91,19.91l-3.44-3.44l2.3-2.3l-3.01-3.01l-2.3,2.3l-0.34-0.34l19.89-19.89l-21.32-21.32l-19.89,19.89l-0.34-0.34l2.3-2.3
					l-3.01-3.01l-2.3,2.3l-3.44-3.44l19.91-19.91L179.69,493.54z M154.9,468.75l19.93,19.93l-19.91,19.91l-0.03-0.03l-0.03,0.03
					l-19.91-19.91L154.9,468.75z M102.11,521.54l2.48,2.48l3.01-3.01l-2.48-2.48l21.99-21.99l2.48,2.48l3.01-3.01l-2.48-2.48
					l3.44-3.44l19.91,19.91l-3.44,3.44l-2.3-2.3l-3.01,3.01l2.3,2.3l-0.34,0.34l-19.89-19.89l-21.32,21.32l19.89,19.89l-0.34,0.34
					l-2.3-2.3l-3.01,3.01l2.3,2.3l-3.44,3.44l-19.91-19.91L102.11,521.54z"/>
				<polygon points="148.75,518.07 148.1,518.72 152.87,523.49 153.52,522.84 151.79,521.11 153.95,518.94 154.9,519.89 
					155.85,518.94 158.02,521.11 156.29,522.84 156.94,523.49 161.71,518.72 161.06,518.07 159.32,519.81 157.15,517.64 
					158.89,515.91 157.59,514.61 155.85,516.34 154.9,515.39 153.95,516.34 152.22,514.61 150.92,515.91 152.65,517.64 
					150.49,519.81 				"/>
				<polygon points="134.88,531.94 134.23,532.59 139,537.36 139.65,536.71 137.92,534.98 140.08,532.81 142.25,534.98 
					140.52,536.71 141.82,538.01 143.55,536.28 145.28,538.01 146.59,536.71 144.85,534.98 146.59,533.24 145.28,531.94 
					143.55,533.68 141.38,531.51 143.55,529.34 145.28,531.08 145.94,530.43 141.17,525.66 140.52,526.31 142.25,528.04 
					140.08,530.21 138.35,528.48 137.7,529.13 137.05,529.78 138.78,531.51 136.62,533.68 				"/>
				<polygon points="141.82,525.01 141.17,525.66 145.94,530.43 146.59,529.78 144.85,528.04 147.02,525.88 149.19,528.04 
					147.45,529.78 148.75,531.08 150.49,529.34 152.22,531.08 153.52,529.78 151.79,528.04 153.52,526.31 152.22,525.01 
					150.49,526.74 148.32,524.58 150.49,522.41 152.22,524.14 152.87,523.49 148.1,518.72 147.45,519.37 149.19,521.11 
					147.02,523.27 145.29,521.54 143.99,522.84 145.72,524.58 143.55,526.74 				"/>
				<rect x="114.58" y="537.04" transform="matrix(0.7071 -0.7071 0.7071 0.7071 -347.0672 240.4419)" width="4.25" height="4.25"/>
				<rect x="133.58" y="493.9" transform="matrix(0.7071 -0.7071 0.7071 0.7071 -310.9929 241.2424)" width="4.25" height="4.25"/>
				<rect x="139.6" y="499.96" transform="matrix(0.7071 -0.7071 0.7071 0.7071 -313.5208 247.271)" width="4.25" height="4.25"/>
				<rect x="133.53" y="499.96" transform="matrix(0.7071 -0.7071 0.7071 0.7071 -315.2974 242.9819)" width="4.25" height="4.25"/>
				<rect x="114.58" y="531" transform="matrix(0.7071 -0.7071 0.7071 0.7071 -342.7936 238.6683)" width="4.25" height="4.25"/>
				<rect x="108.54" y="531.02" transform="matrix(0.7071 -0.7071 0.7071 0.7071 -344.5811 234.4054)" width="4.25" height="4.25"/>
				<rect x="108.54" y="524.96" transform="matrix(0.7071 -0.7071 0.7071 0.7071 -340.292 232.6288)" width="4.25" height="4.25"/>
				<rect x="102.47" y="525.01" transform="matrix(0.7071 -0.7071 0.7071 0.7071 -342.1057 228.3551)" width="4.25" height="4.25"/>
			</g>
			<path d="M50,420.39v4.81l1,1l-1,1v3.21l2.61-2.61l2.64,2.64l-4.85,4.85l-0.4-0.4v3.21l1.09,1.09L50,440.3v6.42l4.3-4.3l3.54,3.54
				L50,453.8v6.42l11.05-11.05l3.54,3.54L50,467.3v6.42l17.8-17.8l3.54,3.54L50,480.8v4.84l0.29,0.29L50,486.22v3.21l27.26-27.26
				l-4.03-4.03l4.85-4.85l2.45,2.45l2.41-2.41L50,420.39z M52,436.91l4.85-4.85l2.64,2.64l-4.85,4.85L52,436.91z M56.25,441.15
				l4.85-4.85l2.64,2.64l-4.85,4.85L56.25,441.15z M63.13,448.04l-2.64-2.64l4.85-4.85l2.64,2.64L63.13,448.04z M67.38,452.28
				l-2.64-2.64l4.85-4.85l2.64,2.64L67.38,452.28z M71.62,456.53l-2.64-2.64l4.85-4.85l2.64,2.64L71.62,456.53z"/>
			<path d="M226.71,453.32l2.41,2.41l2.45-2.45l4.85,4.85l-4.03,4.03l27.26,27.26v-3.21l-0.29-0.29l0.29-0.29v-4.84l-21.34-21.34
				l3.54-3.54l17.8,17.8v-6.42l-14.59-14.59l3.54-3.54l11.05,11.05v-6.42l-7.84-7.84l3.54-3.54l4.3,4.3v-6.42l-1.09-1.09l1.09-1.09
				v-3.21l-0.4,0.4l-4.85-4.85l2.64-2.64l2.61,2.61v-3.21l-1-1l1-1v-4.81L226.71,453.32z M255.01,439.55l-4.85-4.85l2.64-2.64
				l4.85,4.85L255.01,439.55z M250.76,443.79l-4.85-4.85l2.64-2.64l4.85,4.85L250.76,443.79z M241.66,443.18l2.64-2.64l4.85,4.85
				l-2.64,2.64L241.66,443.18z M237.42,447.43l2.64-2.64l4.85,4.85l-2.64,2.64L237.42,447.43z M233.17,451.68l2.64-2.64l4.85,4.85
				l-2.64,2.64L233.17,451.68z"/>
		</g>
		<g>
			<g>
				<polygon points="317.13,489.17 318.98,487.32 321.3,489.63 318.98,491.95 317.13,490.1 316.43,490.79 321.53,495.89 
					322.23,495.2 320.37,493.34 322.69,491.02 324.54,492.88 325.93,491.49 324.08,489.63 326.4,487.32 328.25,489.17 
					328.95,488.47 323.85,483.38 323.15,484.07 325.01,485.93 322.69,488.24 320.37,485.93 322.23,484.07 320.83,482.68 
					318.98,484.54 317.13,482.68 315.74,484.07 317.59,485.93 315.74,487.78 				"/>
				<polygon points="324.54,481.75 326.4,479.9 328.71,482.22 326.4,484.53 324.54,482.68 323.85,483.38 328.95,488.47 
					329.64,487.78 327.79,485.93 330.11,483.61 331.96,485.46 333.35,484.07 331.5,482.22 333.81,479.9 335.67,481.75 
					336.36,481.06 331.26,475.96 330.57,476.66 332.42,478.51 330.11,480.83 327.79,478.51 329.64,476.66 328.25,475.26 
					326.4,477.12 324.54,475.26 323.15,476.66 325.01,478.51 323.15,480.36 				"/>
				<polygon points="383.01,461.13 377.91,466.23 378.61,466.92 380.46,465.07 382.78,467.38 380.92,469.24 382.31,470.63 
					384.17,468.77 386.49,471.09 384.63,472.95 385.33,473.64 390.43,468.54 389.73,467.85 387.88,469.7 385.56,467.38 
					387.88,465.07 389.73,466.92 391.12,465.53 389.27,463.68 391.12,461.82 389.73,460.43 387.88,462.29 386.02,460.43 
					384.63,461.82 386.49,463.68 384.17,465.99 381.85,463.68 383.7,461.82 				"/>
				<polygon points="280.04,526.25 281.9,524.4 284.22,526.72 281.9,529.03 280.04,527.18 279.35,527.87 284.45,532.97 
					285.14,532.28 283.29,530.42 285.61,528.11 287.46,529.96 288.85,528.57 287,526.72 289.31,524.4 291.17,526.25 291.86,525.56 
					286.76,520.46 286.07,521.15 287.92,523.01 285.61,525.33 283.29,523.01 285.14,521.15 283.75,519.76 281.9,521.62 
					280.04,519.76 278.65,521.15 280.51,523.01 278.65,524.86 				"/>
				<polygon points="442.34,520.46 437.24,525.56 437.94,526.25 439.79,524.4 442.11,526.72 440.26,528.57 441.65,529.96 
					443.5,528.11 445.82,530.42 443.96,532.28 444.66,532.97 449.76,527.87 449.06,527.18 447.21,529.03 444.89,526.72 
					447.21,524.4 449.06,526.25 450.45,524.86 448.6,523.01 450.45,521.15 449.06,519.76 447.21,521.62 445.35,519.76 
					443.96,521.15 445.82,523.01 443.5,525.33 441.18,523.01 443.04,521.15 				"/>
				<polygon points="298.59,504.93 296.73,506.78 294.88,504.93 293.49,506.32 295.34,508.18 293.49,510.03 294.88,511.42 
					296.73,509.57 299.05,511.88 296.73,514.2 294.88,512.35 294.18,513.04 299.28,518.14 299.98,517.44 298.12,515.59 
					300.44,513.27 302.29,515.13 303.68,513.74 301.83,511.88 304.15,509.57 306,511.42 306.7,510.72 301.6,505.63 300.9,506.32 
					302.76,508.18 300.44,510.49 298.12,508.18 299.98,506.32 				"/>
				<polygon points="309.71,496.59 311.56,494.73 313.88,497.05 311.56,499.37 309.71,497.51 309.01,498.21 314.11,503.31 
					314.81,502.61 312.95,500.76 315.27,498.44 317.13,500.29 318.52,498.9 316.66,497.05 318.98,494.73 320.83,496.59 
					321.53,495.89 316.43,490.79 315.74,491.49 317.59,493.34 315.27,495.66 312.95,493.34 314.81,491.49 313.42,490.1 
					311.56,491.95 309.71,490.1 308.32,491.49 310.17,493.34 308.32,495.2 				"/>
				<polygon points="287.46,518.84 289.31,516.98 291.63,519.3 289.31,521.62 287.46,519.76 286.77,520.46 291.86,525.56 
					292.56,524.86 290.71,523.01 293.02,520.69 294.88,522.54 296.27,521.15 294.41,519.3 296.73,516.98 298.58,518.84 
					299.28,518.14 294.18,513.04 293.49,513.74 295.34,515.59 293.02,517.91 290.71,515.59 292.56,513.74 291.17,512.35 
					289.31,514.2 287.46,512.35 286.07,513.74 287.92,515.59 286.07,517.45 				"/>
				<polygon points="302.29,504 304.15,502.15 306.47,504.47 304.15,506.78 302.29,504.93 301.6,505.63 306.7,510.72 307.39,510.03 
					305.54,508.17 307.86,505.86 309.71,507.71 311.1,506.32 309.25,504.47 311.56,502.15 313.42,504 314.11,503.31 309.01,498.21 
					308.32,498.9 310.17,500.76 307.86,503.08 305.54,500.76 307.39,498.9 306,497.51 304.15,499.37 302.29,497.51 300.9,498.9 
					302.76,500.76 300.9,502.61 				"/>
				<polygon points="449.76,527.88 444.66,532.97 445.35,533.67 447.21,531.82 449.53,534.13 447.67,535.99 449.06,537.38 
					450.92,535.52 453.23,537.84 451.38,539.69 452.08,540.39 457.17,535.29 456.48,534.6 454.62,536.45 452.31,534.13 
					454.62,531.82 456.48,533.67 457.87,532.28 456.01,530.42 457.87,528.57 456.48,527.18 454.62,529.03 452.77,527.18 
					451.38,528.57 453.23,530.42 450.92,532.74 448.6,530.42 450.45,528.57 				"/>
				<polygon points="331.96,474.34 333.81,472.48 336.13,474.8 333.81,477.12 331.96,475.26 331.26,475.96 336.36,481.06 
					337.06,480.36 335.2,478.51 337.52,476.19 339.38,478.05 340.77,476.65 338.91,474.8 341.23,472.48 343.08,474.34 
					343.78,473.64 338.68,468.54 337.98,469.24 339.84,471.09 337.52,473.41 335.2,471.09 337.06,469.24 335.67,467.85 
					333.81,469.7 331.96,467.85 330.57,469.24 332.42,471.09 330.57,472.95 				"/>
				<polygon points="405.26,483.38 400.16,488.47 400.86,489.17 402.71,487.32 405.03,489.63 403.17,491.49 404.56,492.88 
					406.42,491.02 408.74,493.34 406.88,495.2 407.58,495.89 412.67,490.79 411.98,490.1 410.13,491.95 407.81,489.63 
					410.13,487.32 411.98,489.17 413.37,487.78 411.52,485.93 413.37,484.07 411.98,482.68 410.13,484.54 408.27,482.68 
					406.88,484.07 408.74,485.93 406.42,488.24 404.1,485.93 405.95,484.07 				"/>
				<polygon points="397.84,475.96 392.74,481.06 393.44,481.75 395.29,479.9 397.61,482.22 395.76,484.07 397.15,485.46 
					399,483.61 401.32,485.93 399.46,487.78 400.16,488.47 405.26,483.38 404.56,482.68 402.71,484.53 400.39,482.22 402.71,479.9 
					404.56,481.75 405.95,480.36 404.1,478.51 405.95,476.66 404.56,475.26 402.71,477.12 400.86,475.26 399.46,476.66 
					401.32,478.51 399,480.83 396.68,478.51 398.54,476.66 				"/>
				<polygon points="361.63,444.67 363.48,442.82 364.36,443.7 364.36,444.09 364.55,443.89 364.73,444.07 364.73,443.71 
					365.63,442.82 367.48,444.67 368.87,443.28 367.02,441.43 368.87,439.57 367.48,438.18 365.63,440.04 364.73,439.14 
					364.73,438.78 364.55,438.96 364.36,438.77 364.36,439.16 363.48,440.04 361.63,438.18 360.23,439.57 362.09,441.43 
					360.23,443.28 				"/>
				<polygon points="412.68,490.79 407.58,495.89 408.27,496.59 410.13,494.73 412.44,497.05 410.59,498.9 411.98,500.29 
					413.83,498.44 416.15,500.76 414.3,502.61 414.99,503.31 420.09,498.21 419.4,497.51 417.54,499.37 415.22,497.05 
					417.54,494.73 419.4,496.59 420.79,495.2 418.93,493.34 420.79,491.49 419.4,490.1 417.54,491.95 415.69,490.1 414.3,491.49 
					416.15,493.34 413.83,495.66 411.52,493.34 413.37,491.49 				"/>
				<polygon points="390.43,468.54 385.33,473.64 386.02,474.34 387.88,472.48 390.19,474.8 388.34,476.65 389.73,478.05 
					391.58,476.19 393.9,478.51 392.05,480.36 392.74,481.06 397.84,475.96 397.15,475.26 395.29,477.12 392.98,474.8 
					395.29,472.48 397.15,474.34 398.54,472.95 396.68,471.09 398.54,469.24 397.15,467.85 395.29,469.7 393.44,467.85 
					392.05,469.24 393.9,471.09 391.58,473.41 389.27,471.09 391.12,469.24 				"/>
				<polygon points="375.59,453.71 370.49,458.81 371.19,459.5 373.04,457.65 375.36,459.97 373.51,461.82 374.9,463.21 
					376.75,461.36 379.07,463.68 377.22,465.53 377.91,466.22 383.01,461.13 382.31,460.43 380.46,462.29 378.14,459.97 
					380.46,457.65 382.31,459.5 383.7,458.11 381.85,456.26 383.7,454.41 382.31,453.02 380.46,454.87 378.61,453.02 377.22,454.41 
					379.07,456.26 376.75,458.58 374.43,456.26 376.29,454.41 				"/>
				<polygon points="434.92,513.04 429.83,518.14 430.52,518.84 432.38,516.98 434.69,519.3 432.84,521.15 434.23,522.54 
					436.08,520.69 438.4,523.01 436.55,524.86 437.24,525.56 442.34,520.46 441.65,519.76 439.79,521.62 437.47,519.3 
					439.79,516.98 441.65,518.84 443.04,517.45 441.18,515.59 443.04,513.74 441.65,512.35 439.79,514.2 437.94,512.35 
					436.55,513.74 438.4,515.59 436.08,517.91 433.77,515.59 435.62,513.74 				"/>
				<path d="M354.21,452.09l1.85-1.85l2.32,2.32l-2.32,2.32l-1.85-1.85l-0.7,0.7l5.1,5.1l0.7-0.7l-1.85-1.85l2.32-2.32l1.85,1.85
					l1.39-1.39l-1.85-1.85l2.32-2.32l0.88,0.88v0.39l0.2-0.2l0.18,0.18v-0.36l0.9-0.9l2.32,2.32l-1.85,1.85l1.39,1.39l1.85-1.85
					l2.32,2.32l-1.85,1.85l0.7,0.7l5.1-5.1l-0.7-0.7l-1.85,1.85l-2.32-2.32l2.32-2.32l1.85,1.85l1.39-1.39l-1.85-1.85l1.85-1.85
					l-1.39-1.39l-1.85,1.85l-1.85-1.85l-1.39,1.39l1.85,1.85l-2.32,2.32l-2.32-2.32l1.85-1.85l-0.7-0.7l-3.45,3.44v0l3.44-3.44
					l-0.7-0.7l-1.85,1.85l-0.9-0.9v-0.36l-0.18,0.18l-0.2-0.2l0,0.39l-0.88,0.88l-1.85-1.85l-0.7,0.7l3.43,3.43l0,0l-3.43-3.43
					l-0.7,0.7l1.85,1.85l-2.32,2.32l-2.32-2.32l1.85-1.85l-1.39-1.39l-1.85,1.85l-1.85-1.85l-1.39,1.39l1.85,1.85l-1.85,1.85
					L354.21,452.09z M364.55,449.92L364.55,449.92L364.55,449.92L364.55,449.92L364.55,449.92z"/>
				<polygon points="339.38,466.92 341.23,465.07 343.55,467.38 341.23,469.7 339.38,467.85 338.68,468.54 343.78,473.64 
					344.47,472.95 342.62,471.09 344.94,468.77 346.79,470.63 348.18,469.24 346.33,467.38 348.65,465.07 350.5,466.92 
					351.2,466.23 346.1,461.13 345.4,461.82 347.26,463.68 344.94,465.99 342.62,463.68 344.47,461.82 343.08,460.43 341.23,462.29 
					339.38,460.43 337.99,461.82 339.84,463.68 337.99,465.53 				"/>
				<polygon points="420.09,498.21 414.99,503.31 415.69,504 417.54,502.15 419.86,504.47 418.01,506.32 419.4,507.71 
					421.25,505.86 423.57,508.17 421.71,510.03 422.41,510.72 427.51,505.63 426.81,504.93 424.96,506.78 422.64,504.47 
					424.96,502.15 426.81,504 428.2,502.61 426.35,500.76 428.2,498.9 426.81,497.51 424.96,499.37 423.1,497.51 421.71,498.9 
					423.57,500.76 421.25,503.08 418.93,500.76 420.79,498.9 				"/>
				<polygon points="427.51,505.63 422.41,510.72 423.11,511.42 424.96,509.57 427.28,511.88 425.42,513.74 426.81,515.13 
					428.67,513.27 430.98,515.59 429.13,517.44 429.83,518.14 434.92,513.04 434.23,512.35 432.38,514.2 430.06,511.88 
					432.38,509.57 434.23,511.42 435.62,510.03 433.77,508.18 435.62,506.32 434.23,504.93 432.38,506.78 430.52,504.93 
					429.13,506.32 430.98,508.18 428.67,510.49 426.35,508.18 428.2,506.32 				"/>
				<polygon points="350.5,453.02 348.65,454.87 346.79,453.02 345.4,454.41 347.26,456.26 345.4,458.11 346.79,459.5 
					348.65,457.65 350.96,459.97 348.65,462.29 346.79,460.43 346.1,461.13 351.2,466.22 351.89,465.53 350.04,463.68 
					352.35,461.36 354.21,463.21 355.6,461.82 353.74,459.97 356.06,457.65 357.92,459.5 358.61,458.81 353.51,453.71 
					352.82,454.41 354.67,456.26 352.35,458.58 350.04,456.26 351.89,454.41 				"/>
				<rect x="334.13" y="380.08" transform="matrix(0.7071 -0.7071 0.7071 0.7071 -172.0658 350.4201)" width="5.67" height="5.67"/>
				<path d="M388.75,396.47l-24.13-24.13l-24.13,24.13l24.13,24.13L388.75,396.47z M364.62,375.17l21.3,21.3l-21.3,21.3l-21.3-21.3
					L364.62,375.17z"/>
				<rect x="381.43" y="380.08" transform="matrix(0.7071 -0.7071 0.7071 0.7071 -158.2109 383.8689)" width="5.67" height="5.67"/>
				<rect x="389.45" y="380.08" transform="matrix(0.7071 -0.7071 0.7071 0.7071 -155.8626 389.534)" width="5.67" height="5.67"/>
				<polygon points="368.23,370.89 372.24,366.88 368.23,362.87 364.62,366.48 361.01,362.87 357.01,366.88 361.01,370.89 
					364.62,367.28 				"/>
				<rect x="381.43" y="372.06" transform="matrix(0.7071 -0.7071 0.7071 0.7071 -152.5415 381.5206)" width="5.67" height="5.67"/>
				<polygon points="368.23,362.87 372.24,358.86 368.23,354.85 364.62,358.46 361.01,354.85 357.01,358.86 361.01,362.87 
					364.62,359.26 				"/>
				<rect x="373.41" y="372.06" transform="matrix(0.7071 -0.7071 0.7071 0.7071 -154.8898 375.8513)" width="5.67" height="5.67"/>
				<rect x="389.45" y="388.09" transform="matrix(0.7071 -0.7071 0.7071 0.7071 -161.5319 391.8865)" width="5.67" height="5.67"/>
				<rect x="373.41" y="364.04" transform="matrix(0.7071 -0.7071 0.7071 0.7071 -149.2206 373.503)" width="5.67" height="5.67"/>
				<rect x="334.13" y="388.09" transform="matrix(0.7071 -0.7071 0.7071 0.7071 -177.7351 352.7684)" width="5.67" height="5.67"/>
				<rect x="350.16" y="372.06" transform="matrix(0.7071 -0.7071 0.7071 0.7071 -161.6999 359.4103)" width="5.67" height="5.67"/>
				<polygon points="272.63,533.67 274.48,531.82 276.8,534.13 274.48,536.45 272.63,534.6 271.93,535.29 277.03,540.39 
					277.73,539.69 275.87,537.84 278.19,535.52 280.04,537.38 281.43,535.99 279.58,534.13 281.9,531.81 283.75,533.67 
					284.45,532.97 279.35,527.88 278.65,528.57 280.51,530.42 278.19,532.74 275.87,530.42 277.73,528.57 276.34,527.18 
					274.48,529.03 272.63,527.18 271.24,528.57 273.09,530.42 271.24,532.28 				"/>
				<rect x="350.16" y="364.04" transform="matrix(0.7071 -0.7071 0.7071 0.7071 -156.0306 357.062)" width="5.67" height="5.67"/>
				<rect x="342.14" y="372.06" transform="matrix(0.7071 -0.7071 0.7071 0.7071 -164.0482 353.7411)" width="5.67" height="5.67"/>
				<path d="M457.17,535.29l-5.1,5.1l0.7,0.7l1.85-1.85l2.32,2.32l-1.85,1.85l1.39,1.39l1.85-1.85l2.32,2.32l-0.88,0.88l-0.39,0
					l0.2,0.2l-0.18,0.18h0.36l0.9,0.9l-2.32,2.32l-1.85-1.85l-1.39,1.39l0.74,0.74h5.01l1.2-1.2l1.2,1.2h1.3l0.05-0.05l-3.44-3.45h0
					l3.44,3.44l0.7-0.7l-1.85-1.85l0.9-0.9h0.36l-0.18-0.18l0.2-0.2h-0.39l-0.88-0.88l1.85-1.85l-0.7-0.7l-3.43,3.43h0l3.43-3.43
					l-0.7-0.7l-1.85,1.85l-2.32-2.32l2.32-2.32l1.85,1.85l1.39-1.39l-1.85-1.85l1.85-1.85l-1.39-1.39l-1.85,1.85l-1.85-1.85
					l-1.39,1.39l1.85,1.85l-2.32,2.32l-2.32-2.32l1.85-1.85L457.17,535.29z M460.97,546.33L460.97,546.33L460.97,546.33
					L460.97,546.33L460.97,546.33z"/>
				<rect x="342.14" y="380.08" transform="matrix(0.7071 -0.7071 0.7071 0.7071 -169.7175 356.0894)" width="5.67" height="5.67"/>
				<circle cx="404.33" cy="373.06" r="1.89"/>
				<path d="M382.69,351.42v14.22h14.22v-14.22H382.69z M394.91,363.64h-10.22v-10.22h10.22V363.64z"/>
				<path d="M368.16,336.89v14.22h14.22v-14.22H368.16z M380.38,349.11h-10.22v-10.22h10.22V349.11z"/>
				<path d="M391.14,359.87c0.74-0.74,0.74-1.93,0-2.67s-1.93-0.74-2.67,0s-0.74,1.93,0,2.67C389.2,360.6,390.4,360.6,391.14,359.87
					z"/>
				<path d="M267.07,548.8l1.2,1.2h5.01l0.74-0.74l-1.39-1.39l-1.85,1.85l-2.32-2.32l0.88-0.88l0.39,0l-0.2-0.2l0.18-0.18l-0.36,0
					l-0.9-0.9l2.32-2.32l1.85,1.85l1.39-1.39l-1.85-1.85l2.32-2.32l1.85,1.85l0.7-0.7l-5.1-5.1l-0.7,0.7l1.85,1.85l-2.32,2.32
					l-2.32-2.32l1.85-1.85l-1.39-1.39l-1.85,1.85l-1.85-1.85l-1.39,1.39l1.85,1.85l-1.85,1.85l1.39,1.39l1.85-1.85l2.32,2.32
					l-2.32,2.32l-1.85-1.85l-0.7,0.7l3.44,3.44l0,0l-3.44-3.44l-0.7,0.7l1.85,1.85l-0.9,0.9l-0.36,0l0.18,0.18l-0.2,0.2l0.39,0
					l0.88,0.88l-1.85,1.85l0.7,0.7l3.43-3.43h0l-3.43,3.43l0.05,0.05h1.3L267.07,548.8z M268.14,546.33L268.14,546.33L268.14,546.33
					L268.14,546.33L268.14,546.33z"/>
				<path d="M411.44,365.95h-14.22v14.22h14.22V365.95z M409.44,378.17h-10.22v-10.22h10.22V378.17z"/>
				<polygon points="261.5,542.01 259.65,543.87 259.65,548.8 260.85,550 262.15,550 262.89,549.26 261.04,547.4 261.92,546.53 
					262.31,546.53 262.11,546.33 262.29,546.15 261.93,546.15 261.04,545.26 262.89,543.4 				"/>
				<path d="M332.22,366.15H318v14.22h14.22V366.15z M330.22,378.37H320v-10.22h10.22V378.37z"/>
				<path d="M259.65,489.16l84.13-84.1l7.09,6.74l13.75,13.75l16.39-16.39l4.32-4.1l83.97,83.97v-2.83l-82.66-82.66l7.06-7.06l0,0
					l9.55-9.55l-38.62-38.62L326,386.92l16.54,16.54l-82.89,82.87V489.16z M328.83,386.92l35.79-35.79l35.79,35.79l-8.13,8.13
					l-27.66-27.66l-27.66,27.66L328.83,386.92z M338.38,396.47l26.25-26.25l26.25,26.25l-11.24,11.24l-15.07,14.32l-12.29-11.68
					L338.38,396.47z"/>
				<path d="M340.97,360.07c0.74-0.74,0.74-1.93,0-2.67c-0.74-0.74-1.93-0.74-2.67,0s-0.74,1.93,0,2.67
					C339.04,360.8,340.24,360.8,340.97,360.07z"/>
				<path d="M326.45,374.6c0.74-0.74,0.74-1.93,0-2.67s-1.93-0.74-2.67,0c-0.74,0.74-0.74,1.93,0,2.67
					C324.51,375.33,325.71,375.33,326.45,374.6z"/>
				<path d="M355.5,345.54c0.74-0.74,0.74-1.93,0-2.67c-0.74-0.74-1.93-0.74-2.67,0c-0.74,0.74-0.74,1.93,0,2.67
					S354.77,346.27,355.5,345.54z"/>
				<path d="M347.06,337.09v14.22h14.22v-14.22H347.06z M359.28,349.31h-10.22v-10.22h10.22V349.31z"/>
				<path d="M332.53,351.62v14.22h14.22v-14.22H332.53z M344.75,363.84h-10.22v-10.22h10.22V363.84z"/>
				<path d="M376.61,345.34c0.74-0.74,0.74-1.93,0-2.67c-0.74-0.74-1.93-0.74-2.67,0c-0.74,0.74-0.74,1.93,0,2.67
					S375.87,346.07,376.61,345.34z"/>
				<polygon points="392.16,539.53 387.39,544.3 388.04,544.95 389.78,543.21 391.94,545.38 390.99,546.33 391.94,547.28 
					389.78,549.45 388.04,547.71 387.39,548.36 389.03,550 391.83,550 393.24,548.58 394.66,550 395.29,550 396.28,549.01 
					394.54,547.28 395.49,546.33 394.54,545.38 396.28,543.65 394.98,542.35 393.24,544.08 391.08,541.91 392.81,540.18 				"/>
				<polygon points="469.3,548.96 469.3,543.71 467.6,542.01 466.21,543.4 468.07,545.26 467.19,546.14 466.8,546.14 466.99,546.33 
					466.81,546.51 467.17,546.51 468.07,547.4 466.21,549.26 466.95,550 468.25,550 				"/>
				<rect x="414.73" y="356.99" transform="matrix(0.7071 -0.7071 0.7071 0.7071 -132.1317 400.6492)" width="5.67" height="5.67"/>
				<rect x="406.71" y="356.99" transform="matrix(0.7071 -0.7071 0.7071 0.7071 -134.4797 394.9841)" width="5.67" height="5.67"/>
				<path d="M364.37,434.93l-20.64-20.64l-84.09,84.06v7.86l13.18,13.18l-0.98,0.98l0,0l-0.98,0.98l-11.22-11.22v10.92l5.76,5.76
					l-0.98,0.98l0,0l-0.98,0.98l-3.8-3.8v10.2l4.68-0.06l0.1-7.32l7.32-0.1l0.1-7.32l7.32-0.1l0.1-7.32l7.32-0.1l0.1-7.32l7.32-0.1
					l0.1-7.32l7.32-0.1l0.1-7.32l7.32-0.1l0.1-7.32l7.32-0.1l0.1-7.32l7.32-0.1l0.1-7.32l7.32-0.1l0.1-7.32l7.32-0.1l0.1-7.32
					l7.32-0.1l0.1-7.32l7.32-0.1l0.1-7.32l7.32-0.1l0.06-4.5l3.57,3.57l3.92-3.92l0.07,4.85l7.32,0.1l0.1,7.32l7.32,0.1l0.1,7.32
					l7.32,0.1l0.1,7.32l7.32,0.1l0.1,7.32l7.32,0.1l0.1,7.32l7.32,0.1l0.1,7.32l7.32,0.1l0.1,7.32l7.32,0.1l0.1,7.32l7.32,0.1
					l0.1,7.32l7.32,0.1l0.1,7.32l7.32,0.1l0.1,7.32l7.32,0.1l0.1,7.32l7.32,0.1l0.1,7.32l4.52,0.06v-10.04l-3.64,3.64l-0.98-0.98
					l0,0l-0.98-0.98l5.6-5.6v-10.92l-11.06,11.06l-1.96-1.96l13.02-13.02v-8.15l-84.1-84.1L364.37,434.93z M279.27,512.96
					L279.27,512.96l-0.98,0.98l-15.69-15.69l1.96-1.96l15.69,15.69L279.27,512.96z M286.68,505.54L286.68,505.54l-0.98,0.98
					l-15.69-15.69l1.96-1.96l15.69,15.69L286.68,505.54z M294.1,498.12L294.1,498.12l-0.98,0.98l-15.69-15.69l1.96-1.96l15.69,15.69
					L294.1,498.12z M301.51,490.71L301.51,490.71l-0.98,0.98L284.84,476l1.96-1.96l15.69,15.69L301.51,490.71z M308.93,483.29
					L308.93,483.29l-0.98,0.98l-15.69-15.69l1.96-1.96l15.69,15.69L308.93,483.29z M315.37,476.86l-15.69-15.69l1.96-1.96
					l15.69,15.69L315.37,476.86z M322.78,469.44l-15.69-15.69l1.96-1.96l15.69,15.69L322.78,469.44z M331.18,461.04L331.18,461.04
					l-0.98,0.98l-15.69-15.69l1.96-1.96l15.69,15.69L331.18,461.04z M337.62,454.61l-15.68-15.68l1.96-1.96l15.68,15.68
					L337.62,454.61z M346.01,446.21L346.01,446.21l-0.98,0.98l-15.68-15.68l1.96-1.96l15.68,15.68L346.01,446.21z M353.43,438.79
					L353.43,438.79l-0.98,0.98l-15.68-15.68l1.96-1.96l15.68,15.68L353.43,438.79z M466.5,498.26l-15.68,15.68l-1.96-1.96
					l15.68-15.68L466.5,498.26z M459.09,490.84l-15.68,15.68l-1.96-1.96l15.68-15.68L459.09,490.84z M451.67,483.42l-15.68,15.68
					l-1.96-1.96l15.68-15.68L451.67,483.42z M444.25,476.01l-15.68,15.68l-0.98-0.98l-0.98-0.98l15.68-15.68L444.25,476.01z
					 M436.84,468.59l-15.68,15.68l-1.96-1.96l15.68-15.68L436.84,468.59z M429.42,461.17l-15.68,15.68l-0.98-0.98l0,0l-0.98-0.98
					l15.68-15.68L429.42,461.17z M422,453.76l-15.68,15.68l-0.98-0.98l0,0l-0.98-0.98l15.68-15.68L422,453.76z M414.59,446.34
					l-15.68,15.68l-0.98-0.98l0,0l-0.98-0.98l15.68-15.68L414.59,446.34z M407.17,438.92l-15.68,15.68l-0.98-0.98l0,0l-0.98-0.98
					l15.68-15.68L407.17,438.92z M399.75,431.51l-15.68,15.68l-0.98-0.98l-0.98-0.98l15.68-15.68L399.75,431.51z M392.34,424.09
					l-15.68,15.68l-1.96-1.96l15.68-15.68L392.34,424.09z"/>
				<rect x="400.2" y="350.48" transform="matrix(0.7071 -0.7071 0.7071 0.7071 -131.7823 388.4719)" width="5.67" height="5.67"/>
				<rect x="392.18" y="342.46" transform="matrix(0.7071 -0.7071 0.7071 0.7071 -128.4615 380.4503)" width="5.67" height="5.67"/>
				<rect x="400.2" y="342.46" transform="matrix(0.7071 -0.7071 0.7071 0.7071 -126.113 386.1236)" width="5.67" height="5.67"/>
				<polygon points="364.55,455.42 273.64,546.33 277.31,550 280.68,550 277.01,546.33 364.55,458.79 452.1,546.33 448.43,550 
					451.79,550 455.46,546.33 				"/>
				<polygon points="349.3,549.02 348,547.71 346.26,549.45 344.53,547.72 343.23,549.02 344.22,550 348.31,550 				"/>
				<rect x="385.67" y="327.93" transform="matrix(0.7071 -0.7071 0.7071 0.7071 -120.0945 371.5938)" width="5.67" height="5.67"/>
				<polygon points="412.61,550 412.61,547.89 412.61,547.89 412.61,547.89 417.25,547.89 417.25,547.89 419.22,547.89 
					419.22,549.87 419.22,549.87 419.22,550 422.35,550 422.35,549.87 422.35,549.87 422.35,547.89 424.32,547.89 424.32,547.89 
					428.97,547.89 428.97,547.89 428.97,547.89 428.97,550 432.09,550 432.09,547.89 432.09,547.89 432.09,547.89 436.73,547.89 
					436.73,544.77 432.09,544.77 432.09,544.77 432.09,544.77 432.09,540.13 428.97,540.13 428.97,544.77 428.97,544.77 
					428.97,544.77 424.32,544.77 424.32,544.77 422.35,544.77 422.35,542.79 422.35,542.79 422.35,538.15 422.35,538.15 
					422.35,538.15 426.99,538.15 426.99,535.02 422.35,535.02 422.35,535.02 422.35,535.02 422.35,530.38 419.22,530.38 
					419.22,535.02 419.22,535.02 419.22,535.02 414.58,535.02 414.58,538.15 419.22,538.15 419.22,538.15 419.22,538.15 
					419.22,542.79 419.22,542.79 419.22,544.77 417.25,544.77 417.25,544.77 412.61,544.77 412.61,544.77 412.61,544.77 
					412.61,540.13 409.48,540.13 409.48,544.77 409.48,544.77 409.48,544.77 404.84,544.77 404.84,547.89 409.48,547.89 
					409.48,547.89 409.48,547.89 409.48,550 				"/>
				<polygon points="385.23,532.59 380.46,537.36 381.11,538.01 382.84,536.28 385.01,538.45 382.84,540.61 381.11,538.88 
					379.81,540.18 381.54,541.91 379.81,543.65 381.11,544.95 382.84,543.21 384.58,544.95 385.88,543.65 384.14,541.91 
					386.31,539.75 388.48,541.91 386.74,543.65 387.39,544.3 392.16,539.53 391.51,538.88 389.78,540.61 387.61,538.45 
					389.34,536.71 388.04,535.41 386.31,537.15 384.14,534.98 385.88,533.24 				"/>
				<polygon points="340.08,550 341.38,550 342.36,549.02 341.71,548.37 				"/>
				<polygon points="382.84,549.45 381.11,547.71 379.81,549.02 380.79,550 384.89,550 385.88,549.02 384.58,547.72 				"/>
				<path d="M366.51,537.44l-0.09-6.84l-1.86-0.03l-1.86,0.03l-0.09,6.84l-6.84,0.09v0h0l-0.09,6.84l-6.84,0.09l-0.03,1.86
					l0.03,1.86l6.84,0.09l0.02,1.71h17.73l0.02-1.71l6.84-0.09l0.03-1.86l-0.03-1.86l-6.84-0.09l-0.09-6.84h0v0L366.51,537.44z
					 M356.58,549.2l-1.83-1.83l1.04-1.04l-1.04-1.04l0.92-0.92l0,0l0.92-0.92l2.87,2.87L356.58,549.2z M364.55,541.23l-2.87-2.87
					l0.92-0.92l0,0l0.92-0.92l1.04,1.04l1.04-1.04l1.83,1.83L364.55,541.23z M374.36,545.29l-1.04,1.04l1.04,1.04l-0.92,0.92l0,0
					l-0.92,0.92l-2.87-2.87l2.87-2.87L374.36,545.29z"/>
				<polygon points="387.39,548.37 386.74,549.02 387.73,550 389.03,550 				"/>
				<rect x="377.65" y="327.93" transform="matrix(0.7071 -0.7071 0.7071 0.7071 -122.4428 365.9246)" width="5.67" height="5.67"/>
				<rect x="331.59" y="342.66" transform="matrix(0.7071 -0.7071 0.7071 0.7071 -146.3518 337.6637)" width="5.67" height="5.67"/>
				<rect x="323.57" y="350.68" transform="matrix(0.7071 -0.7071 0.7071 0.7071 -154.3694 334.3427)" width="5.67" height="5.67"/>
				<rect x="323.57" y="342.66" transform="matrix(0.7071 -0.7071 0.7071 0.7071 -148.7001 331.9944)" width="5.67" height="5.67"/>
				<rect x="338.1" y="336.15" transform="matrix(0.7071 -0.7071 0.7071 0.7071 -139.8396 340.3611)" width="5.67" height="5.67"/>
				<rect x="385.67" y="335.95" transform="matrix(0.7071 -0.7071 0.7071 0.7071 -125.7638 373.9421)" width="5.67" height="5.67"/>
				<rect x="309.04" y="365.21" transform="matrix(0.7071 -0.7071 0.7071 0.7071 -168.8991 328.3243)" width="5.67" height="5.67"/>
				<rect x="346.12" y="328.13" transform="matrix(0.7071 -0.7071 0.7071 0.7071 -131.822 343.6822)" width="5.67" height="5.67"/>
				<rect x="309.04" y="357.19" transform="matrix(0.7071 -0.7071 0.7071 0.7071 -163.2301 325.9796)" width="5.67" height="5.67"/>
				<rect x="317.06" y="357.19" transform="matrix(0.7071 -0.7071 0.7071 0.7071 -160.8813 331.6416)" width="5.67" height="5.67"/>
				<rect x="361.79" y="308.32" width="5.67" height="5.67"/>
				<polygon points="378.29,525.66 373.52,530.43 374.17,531.08 375.91,529.34 378.07,531.51 375.91,533.68 374.17,531.94 
					372.87,533.24 374.61,534.98 372.87,536.71 373.52,537.36 374.17,538.01 375.91,536.28 377.64,538.01 378.94,536.71 
					377.21,534.98 379.37,532.81 381.54,534.98 379.81,536.71 380.46,537.36 385.22,532.59 384.57,531.94 382.84,533.68 
					380.67,531.51 382.41,529.78 381.76,529.13 381.11,528.48 379.37,530.21 377.21,528.04 378.94,526.31 				"/>
				<rect x="367.46" y="313.99" width="5.67" height="5.67"/>
				<path d="M374.68,329.87l-10.06-10.06l-10.06,10.06l10.06,10.06L374.68,329.87z M364.62,322.65l7.23,7.23l-7.23,7.23l-7.23-7.23
					L364.62,322.65z"/>
				<rect x="356.12" y="313.99" width="5.67" height="5.67"/>
				<rect x="338.1" y="328.13" transform="matrix(0.7071 -0.7071 0.7071 0.7071 -134.1703 338.0092)" width="5.67" height="5.67"/>
				<path d="M366.51,329.87c0-1.04-0.85-1.89-1.89-1.89s-1.89,0.85-1.89,1.89s0.85,1.89,1.89,1.89S366.51,330.92,366.51,329.87z"/>
				<rect x="414.73" y="365.01" transform="matrix(0.7071 -0.7071 0.7071 0.7071 -137.8007 403.0016)" width="5.67" height="5.67"/>
				<rect x="381.62" y="493.9" transform="matrix(0.7071 -0.7071 0.7071 0.7071 -238.3438 416.6329)" width="4.25" height="4.25"/>
				<rect x="375.64" y="506" transform="matrix(0.7071 -0.7071 0.7071 0.7071 -248.657 415.945)" width="4.25" height="4.25"/>
				<rect x="381.68" y="499.96" transform="matrix(0.7071 -0.7071 0.7071 0.7071 -242.6176 418.4467)" width="4.25" height="4.25"/>
				<rect x="412.74" y="525.01" transform="matrix(0.7071 -0.7071 0.7071 0.7071 -251.2311 447.7457)" width="4.25" height="4.25"/>
				<rect x="406.67" y="524.96" transform="matrix(0.7071 -0.7071 0.7071 0.7071 -252.9706 443.4412)" width="4.25" height="4.25"/>
				<polygon points="366.12,506.05 366.12,501.4 366.12,501.4 366.12,501.4 370.76,501.4 370.76,498.28 366.12,498.28 
					366.12,498.28 366.12,498.28 366.12,493.64 366.12,493.64 366.12,491.66 368.09,491.66 368.09,491.66 372.73,491.66 
					372.73,491.66 372.73,491.66 372.73,496.3 375.86,496.3 375.86,491.66 375.86,491.66 375.86,491.66 380.5,491.66 380.5,488.53 
					375.86,488.53 375.86,488.53 375.86,488.53 375.86,483.89 372.73,483.89 372.73,488.53 372.73,488.53 372.73,488.53 
					368.09,488.53 368.09,488.53 366.12,488.53 366.12,486.56 366.12,486.56 366.12,481.92 366.12,481.92 366.12,481.92 
					370.76,481.92 370.76,478.79 366.12,478.79 366.12,478.79 366.12,478.79 366.12,474.15 362.99,474.15 362.99,478.79 
					362.99,478.79 362.99,478.79 358.35,478.79 358.35,481.92 362.99,481.92 362.99,481.92 362.99,481.92 362.99,486.56 
					362.99,486.56 362.99,488.53 361.01,488.53 361.01,488.53 356.37,488.53 356.37,488.53 356.37,488.53 356.37,483.89 
					353.25,483.89 353.25,488.53 353.25,488.53 353.25,488.53 348.61,488.53 348.61,491.66 353.25,491.66 353.25,491.66 
					353.25,491.66 353.25,496.3 356.37,496.3 356.37,491.66 356.37,491.66 356.37,491.66 361.01,491.66 361.01,491.66 
					362.99,491.66 362.99,493.64 362.99,493.64 362.99,498.28 362.99,498.28 362.99,498.28 358.35,498.28 358.35,501.4 
					362.99,501.4 362.99,501.4 362.99,501.4 362.99,506.05 				"/>
				<rect x="369.6" y="506" transform="matrix(0.7071 -0.7071 0.7071 0.7071 -250.4259 411.6745)" width="4.25" height="4.25"/>
				<rect x="375.61" y="499.96" transform="matrix(0.7071 -0.7071 0.7071 0.7071 -244.3942 414.1575)" width="4.25" height="4.25"/>
				<path d="M329.95,511.73c-3.58,3.58-3.58,9.39,0,12.97c1.73,1.73,4.04,2.69,6.49,2.69s4.75-0.95,6.49-2.69
					c1.73-1.73,2.69-4.04,2.69-6.49s-0.95-4.75-2.69-6.49c-1.73-1.73-4.04-2.69-6.49-2.69S331.68,510,329.95,511.73z M342.92,518.21
					c0,1.73-0.67,3.36-1.9,4.59c-1.22,1.22-2.85,1.9-4.58,1.9s-3.36-0.67-4.59-1.9c-2.53-2.53-2.53-6.64,0-9.17
					c1.22-1.23,2.85-1.9,4.59-1.9s3.36,0.67,4.58,1.9v0C342.25,514.85,342.92,516.48,342.92,518.21z"/>
				<rect x="349.22" y="506" transform="matrix(0.7071 -0.7071 0.7071 0.7071 -256.3943 397.2654)" width="4.25" height="4.25"/>
				<rect x="406.67" y="531.02" transform="matrix(0.7071 -0.7071 0.7071 0.7071 -257.2597 445.2178)" width="4.25" height="4.25"/>
				<path d="M390.57,516.11c-1.16,1.16-1.16,3.05,0,4.21c1.16,1.16,3.05,1.16,4.21,0c1.16-1.16,1.16-3.05,0-4.21
					C393.61,514.95,391.73,514.95,390.57,516.11z"/>
				<path d="M334.33,516.11c-1.16,1.16-1.16,3.05,0,4.21c1.16,1.16,3.05,1.16,4.21,0c1.16-1.16,1.16-3.05,0-4.21
					C337.38,514.95,335.49,514.95,334.33,516.11z"/>
				<rect x="400.63" y="531" transform="matrix(0.7071 -0.7071 0.7071 0.7071 -259.0101 440.9396)" width="4.25" height="4.25"/>
				<path d="M399.16,511.73c-1.73-1.73-4.04-2.69-6.49-2.69s-4.75,0.95-6.49,2.69c-3.58,3.58-3.58,9.39,0,12.97
					c1.73,1.73,4.04,2.69,6.49,2.69s4.75-0.95,6.49-2.69c1.73-1.73,2.69-4.04,2.69-6.49S400.89,513.46,399.16,511.73z M397.26,522.8
					L397.26,522.8c-1.22,1.23-2.85,1.9-4.58,1.9s-3.36-0.67-4.59-1.9c-2.53-2.53-2.53-6.64,0-9.17c1.22-1.23,2.85-1.9,4.59-1.9
					s3.36,0.67,4.58,1.9c1.23,1.22,1.9,2.85,1.9,4.59S398.48,521.58,397.26,522.8z"/>
				<rect x="400.63" y="537.04" transform="matrix(0.7071 -0.7071 0.7071 0.7071 -263.2806 442.7085)" width="4.25" height="4.25"/>
				<polygon points="333.81,550 334.44,550 335.86,548.58 337.28,550 340.08,550 341.71,548.36 341.06,547.71 339.33,549.45 
					337.16,547.28 338.11,546.33 337.16,545.38 339.33,543.21 341.06,544.95 341.71,544.3 336.95,539.53 336.3,540.18 
					338.03,541.91 335.86,544.08 334.13,542.35 332.83,543.65 334.56,545.38 333.61,546.33 334.56,547.28 332.83,549.01 				"/>
				<polygon points="337.6,538.88 336.95,539.53 341.71,544.3 342.36,543.65 340.63,541.91 342.8,539.75 344.96,541.91 
					343.23,543.65 344.53,544.95 346.26,543.21 348,544.95 349.3,543.65 347.56,541.91 349.3,540.18 348,538.88 346.26,540.61 
					344.1,538.45 346.26,536.28 348,538.01 348.65,537.36 343.88,532.59 343.23,533.24 344.96,534.98 342.8,537.15 341.06,535.41 
					339.76,536.71 341.5,538.45 339.33,540.61 				"/>
				<polygon points="371.35,518.72 366.59,523.49 367.24,524.14 368.97,522.41 371.14,524.58 368.97,526.74 367.24,525.01 
					365.94,526.31 367.67,528.04 365.94,529.78 367.24,531.08 368.97,529.34 370.7,531.08 372,529.78 370.27,528.04 372.44,525.88 
					374.61,528.04 372.87,529.78 373.52,530.43 378.29,525.66 377.64,525.01 375.91,526.74 373.74,524.58 375.47,522.84 
					374.17,521.54 372.44,523.27 370.27,521.11 372,519.37 				"/>
				<polygon points="300.14,550 300.14,547.89 300.14,547.89 300.14,547.89 304.78,547.89 304.78,547.89 306.76,547.89 
					306.76,549.87 306.76,549.87 306.76,550 309.88,550 309.88,549.87 309.88,549.87 309.88,547.89 311.86,547.89 311.86,547.89 
					316.5,547.89 316.5,547.89 316.5,547.89 316.5,550 319.63,550 319.63,547.89 319.63,547.89 319.63,547.89 324.27,547.89 
					324.27,544.77 319.63,544.77 319.63,544.77 319.63,544.77 319.63,540.13 316.5,540.13 316.5,544.77 316.5,544.77 316.5,544.77 
					311.86,544.77 311.86,544.77 309.88,544.77 309.88,542.79 309.88,542.79 309.88,538.15 309.88,538.15 309.88,538.15 
					314.52,538.15 314.52,535.02 309.88,535.02 309.88,535.02 309.88,535.02 309.88,530.38 306.76,530.38 306.76,535.02 
					306.76,535.02 306.76,535.02 302.12,535.02 302.12,538.15 306.76,538.15 306.76,538.15 306.76,538.15 306.76,542.79 
					306.76,542.79 306.76,544.77 304.78,544.77 304.78,544.77 300.14,544.77 300.14,544.77 300.14,544.77 300.14,540.13 
					297.01,540.13 297.01,544.77 297.01,544.77 297.01,544.77 292.37,544.77 292.37,547.89 297.01,547.89 297.01,547.89 
					297.01,547.89 297.01,550 				"/>
				<rect x="355.26" y="506" transform="matrix(0.7071 -0.7071 0.7071 0.7071 -254.6254 401.536)" width="4.25" height="4.25"/>
				<path d="M286.97,546.33l19.93-19.93l19.91,19.91l-0.03,0.03l0.03,0.03l-3.64,3.64H326l2.23-2.23l2.23,2.23h2.83l-3.64-3.64
					l0.03-0.03l-0.03-0.03l6.78-6.78l0.01,0.01l21.32-21.32l-0.01-0.01l6.78-6.78l0.03,0.03l0.03-0.03l6.78,6.78l-0.01,0.01
					l21.32,21.32l0.01-0.01l6.78,6.78l-0.03,0.03l0.03,0.03l-3.64,3.64h2.83l2.23-2.23l2.23,2.23h2.83l-3.64-3.64l0.03-0.03
					l-0.03-0.03l19.91-19.91l19.93,19.93l-3.67,3.67h3.43l3.67-3.67l-81.01-81.01l-81.01,81.01l3.67,3.67h3.43L286.97,546.33z
					 M336.44,536.66l-18.45-18.45l18.45-18.45l18.45,18.45L336.44,536.66z M392.67,536.66l-18.45-18.45l18.45-18.45l18.45,18.45
					L392.67,536.66z M389.34,493.54l-2.48,2.48l3.01,3.01l2.48-2.48l21.99,21.99l-2.48,2.48l3.01,3.01l2.48-2.48l3.44,3.44
					l-19.91,19.91l-3.44-3.44l2.3-2.3l-3.01-3.01l-2.3,2.3l-0.34-0.34l19.89-19.89l-21.32-21.32l-19.89,19.89l-0.34-0.34l2.3-2.3
					l-3.01-3.01l-2.3,2.3l-3.44-3.44l19.91-19.91L389.34,493.54z M364.55,468.75l19.93,19.93l-19.91,19.91l-0.03-0.03l-0.03,0.03
					l-19.91-19.91L364.55,468.75z M311.76,521.54l2.48,2.48l3.01-3.01l-2.48-2.48l21.99-21.99l2.48,2.48l3.01-3.01l-2.48-2.48
					l3.44-3.44l19.91,19.91l-3.44,3.44l-2.3-2.3l-3.01,3.01l2.3,2.3l-0.34,0.34l-19.89-19.89l-21.32,21.32l19.89,19.89l-0.34,0.34
					l-2.3-2.3l-3.01,3.01l2.3,2.3l-3.44,3.44l-19.91-19.91L311.76,521.54z"/>
				<polygon points="358.4,518.07 357.75,518.72 362.52,523.49 363.17,522.84 361.44,521.11 363.6,518.94 364.55,519.89 
					365.5,518.94 367.67,521.11 365.94,522.84 366.59,523.49 371.35,518.72 370.7,518.07 368.97,519.81 366.8,517.64 368.54,515.91 
					367.24,514.61 365.5,516.34 364.55,515.39 363.6,516.34 361.87,514.61 360.57,515.91 362.3,517.64 360.14,519.81 				"/>
				<polygon points="344.53,531.94 343.88,532.59 348.65,537.36 349.3,536.71 347.57,534.98 349.73,532.81 351.9,534.98 
					350.17,536.71 351.47,538.01 353.2,536.28 354.93,538.01 356.23,536.71 354.5,534.98 356.23,533.24 354.93,531.94 353.2,533.68 
					351.03,531.51 353.2,529.34 354.93,531.08 355.58,530.43 350.82,525.66 350.17,526.31 351.9,528.04 349.73,530.21 348,528.48 
					347.35,529.13 346.7,529.78 348.43,531.51 346.27,533.68 				"/>
				<polygon points="351.47,525.01 350.82,525.66 355.58,530.43 356.23,529.78 354.5,528.04 356.67,525.88 358.84,528.04 
					357.1,529.78 358.4,531.08 360.14,529.34 361.87,531.08 363.17,529.78 361.44,528.04 363.17,526.31 361.87,525.01 
					360.14,526.74 357.97,524.58 360.14,522.41 361.87,524.14 362.52,523.49 357.75,518.72 357.1,519.37 358.84,521.11 
					356.67,523.27 354.93,521.54 353.63,522.84 355.37,524.58 353.2,526.74 				"/>
				<rect x="324.22" y="537.04" transform="matrix(0.7071 -0.7071 0.7071 0.7071 -285.661 388.6875)" width="4.25" height="4.25"/>
				<rect x="343.23" y="493.9" transform="matrix(0.7071 -0.7071 0.7071 0.7071 -249.5882 389.4865)" width="4.25" height="4.25"/>
				<rect x="349.24" y="499.96" transform="matrix(0.7071 -0.7071 0.7071 0.7071 -252.1161 395.5151)" width="4.25" height="4.25"/>
				<rect x="343.18" y="499.96" transform="matrix(0.7071 -0.7071 0.7071 0.7071 -253.8927 391.226)" width="4.25" height="4.25"/>
				<rect x="324.22" y="531" transform="matrix(0.7071 -0.7071 0.7071 0.7071 -281.3889 386.9123)" width="4.25" height="4.25"/>
				<rect x="318.18" y="531.02" transform="matrix(0.7071 -0.7071 0.7071 0.7071 -283.1764 382.6495)" width="4.25" height="4.25"/>
				<rect x="318.18" y="524.96" transform="matrix(0.7071 -0.7071 0.7071 0.7071 -278.8873 380.8729)" width="4.25" height="4.25"/>
				<rect x="312.12" y="525.01" transform="matrix(0.7071 -0.7071 0.7071 0.7071 -280.701 376.5992)" width="4.25" height="4.25"/>
			</g>
			<path d="M259.65,420.39v4.81l1,1l-1,1v3.21l2.61-2.61l2.64,2.64l-4.85,4.85l-0.4-0.4v3.21l1.09,1.09l-1.09,1.09v6.42l4.3-4.3
				l3.54,3.54l-7.84,7.84v6.42l11.05-11.05l3.54,3.54l-14.59,14.59v6.42l17.8-17.8l3.54,3.54l-21.34,21.34v4.84l0.29,0.29
				l-0.29,0.29v3.21l27.26-27.26l-4.03-4.03l4.85-4.85l2.45,2.45l2.41-2.41L259.65,420.39z M261.65,436.91l4.85-4.85l2.64,2.64
				l-4.85,4.85L261.65,436.91z M265.89,441.15l4.85-4.85l2.64,2.64l-4.85,4.85L265.89,441.15z M272.78,448.04l-2.64-2.64l4.85-4.85
				l2.64,2.64L272.78,448.04z M277.03,452.28l-2.64-2.64l4.85-4.85l2.64,2.64L277.03,452.28z M281.27,456.53l-2.64-2.64l4.85-4.85
				l2.64,2.64L281.27,456.53z"/>
			<path d="M436.36,453.32l2.41,2.41l2.45-2.45l4.85,4.85l-4.03,4.03l27.26,27.26v-3.21l-0.29-0.29l0.29-0.29v-4.84l-21.34-21.34
				l3.54-3.54l17.8,17.8v-6.42l-14.59-14.59l3.54-3.54l11.05,11.05v-6.42l-7.84-7.84l3.54-3.54l4.3,4.3v-6.42l-1.09-1.09l1.09-1.09
				v-3.21l-0.4,0.4l-4.85-4.85l2.64-2.64l2.61,2.61v-3.21l-1-1l1-1v-4.81L436.36,453.32z M464.66,439.55l-4.85-4.85l2.64-2.64
				l4.85,4.85L464.66,439.55z M460.41,443.79l-4.85-4.85l2.64-2.64l4.85,4.85L460.41,443.79z M451.31,443.18l2.64-2.64l4.85,4.85
				l-2.64,2.64L451.31,443.18z M447.07,447.43l2.64-2.64l4.85,4.85l-2.64,2.64L447.07,447.43z M442.82,451.68l2.64-2.64l4.85,4.85
				l-2.64,2.64L442.82,451.68z"/>
		</g>
	</g>
</g>
<g>
</g>
<g>
</g>
<g>
</g>
<g>
</g>
<g>
</g>
<g>
</g>
<g>
</g>
<g>
</g>
<g>
</g>
<g>
</g>
<g>
</g>
<g>
</g>
<g>
</g>
<g>
</g>
<g>
</g>
</svg>
