<?xml version="1.0" encoding="utf-8"?>
<!-- Generator: Adobe Illustrator 27.2.0, SVG Export Plug-In . SVG Version: 6.00 Build 0)  -->
<svg version="1.1" id="Layer_1" xmlns="http://www.w3.org/2000/svg" xmlns:xlink="http://www.w3.org/1999/xlink" x="0px" y="0px"
	 viewBox="0 0 800 600" style="enable-background:new 0 0 800 600;" xml:space="preserve">
<g>
	<g>
		<polygon points="243.49,432.71 225.06,432.71 206.64,432.71 225.06,451.13 		"/>
		<polygon points="226.06,423.48 226.07,423.47 226.08,423.48 226.08,423.46 239.08,410.45 226.08,410.45 226.06,410.45 
			213.05,410.45 226.06,423.46 		"/>
		<polygon points="226.06,432.69 226.07,432.7 226.07,432.69 235.13,423.62 226.07,423.62 226.05,423.62 216.99,423.62 
			226.05,432.69 226.05,432.7 		"/>
		<polygon points="188.9,450.45 188.9,468.87 188.9,487.3 207.32,468.87 		"/>
		<polygon points="179.65,467.86 166.64,454.85 166.64,467.86 166.64,467.88 166.64,480.89 179.65,467.88 179.67,467.88 
			179.66,467.87 179.67,467.86 		"/>
		<polygon points="188.88,467.87 179.81,458.81 179.81,467.87 179.81,467.89 179.81,476.95 188.88,467.89 188.89,467.89 
			188.88,467.88 188.89,467.87 		"/>
		<polygon points="206.64,505.04 225.06,505.04 243.49,505.04 225.06,486.61 		"/>
		<polygon points="224.07,514.26 224.06,514.28 224.05,514.26 224.05,514.29 211.04,527.29 224.05,527.29 224.07,527.29 
			237.08,527.29 224.07,514.29 		"/>
		<polygon points="224.07,505.05 224.06,505.04 224.06,505.06 215,514.12 224.06,514.12 224.08,514.12 233.14,514.12 224.08,505.06 
			224.08,505.04 		"/>
		<polygon points="261.23,487.3 261.23,468.87 261.23,450.45 242.81,468.87 		"/>
		<polygon points="270.48,469.86 270.45,469.86 270.47,469.88 270.45,469.89 270.48,469.89 283.48,482.89 283.48,469.89 
			283.48,469.86 283.48,456.86 		"/>
		<polygon points="261.23,469.86 261.24,469.87 261.23,469.88 261.25,469.88 270.31,478.94 270.31,469.88 270.31,469.86 
			270.31,460.8 261.25,469.86 		"/>
		<path d="M233.08,460.85l-8.02-8.01l-8.01,8.01l-8.02,8.02l8.02,8.02l8.01,8.02l8.02-8.02l8.02-8.02L233.08,460.85z M227.26,471.07
			l-2.2,2.2l-2.19-2.2l-2.2-2.2l2.2-2.19l2.19-2.2l2.2,2.2l2.2,2.19L227.26,471.07z"/>
	</g>
	<g>
		<polygon points="126.84,495.41 108.42,495.41 89.99,495.41 108.42,513.83 		"/>
		<polygon points="109.41,486.18 109.42,486.17 109.43,486.18 109.43,486.16 122.44,473.16 109.43,473.16 109.41,473.16 
			96.41,473.16 109.41,486.16 		"/>
		<polygon points="109.41,495.4 109.42,495.4 109.42,495.39 118.49,486.33 109.42,486.33 109.41,486.33 100.34,486.33 
			109.41,495.39 109.41,495.4 		"/>
		<polygon points="72.25,531.57 72.25,550 90.68,531.57 72.25,513.15 		"/>
		<polygon points="63.01,531.41 50,518.4 50,531.41 50,531.43 50,544.44 63.01,531.43 63.03,531.43 63.02,531.42 63.03,531.41 		"/>
		<polygon points="72.23,531.42 63.17,522.36 63.17,531.42 63.17,531.44 63.17,540.5 72.23,531.44 72.25,531.44 72.24,531.43 
			72.25,531.42 		"/>
		<polygon points="144.59,550 144.59,531.57 144.59,513.15 126.16,531.57 		"/>
		<polygon points="153.83,532 153.81,532 153.82,532.01 153.81,532.02 153.83,532.02 166.84,545.03 166.84,532.02 166.84,532 
			166.84,518.99 		"/>
		<polygon points="144.59,532 144.6,532 144.59,532.01 144.61,532.01 153.67,541.07 153.67,532.01 153.67,532 153.67,522.93 
			144.61,532 		"/>
		<path d="M116.44,523.56l-8.02-8.02l-8.01,8.02l-8.02,8.02l8.02,8.01l8.01,8.02l8.02-8.02l8.02-8.01L116.44,523.56z M110.62,533.77
			l-2.2,2.2l-2.19-2.2l-2.2-2.19l2.2-2.2l2.19-2.2l4.4,4.4L110.62,533.77z"/>
	</g>
</g>
<g>
</g>
<g>
</g>
<g>
</g>
<g>
</g>
<g>
</g>
<g>
</g>
<g>
</g>
<g>
</g>
<g>
</g>
<g>
</g>
<g>
</g>
<g>
</g>
<g>
</g>
<g>
</g>
<g>
</g>
</svg>
