<?xml version="1.0" encoding="utf-8"?>
<!-- Generator: Adobe Illustrator 27.2.0, SVG Export Plug-In . SVG Version: 6.00 Build 0)  -->
<svg version="1.1" id="Layer_1" xmlns="http://www.w3.org/2000/svg" xmlns:xlink="http://www.w3.org/1999/xlink" x="0px" y="0px"
	 viewBox="0 0 800 600" style="enable-background:new 0 0 800 600;" xml:space="preserve">
<g>
	<g>
		<rect x="300.2" y="400.7" transform="matrix(0.9522 -0.3055 0.3055 0.9522 -108.3949 111.6881)" width="4.79" height="2.83"/>
		<rect x="280.91" y="378.5" transform="matrix(0.4795 -0.8775 0.8775 0.4795 -185.933 446.3632)" width="4.79" height="2.83"/>
		<rect x="298.71" y="404.52" transform="matrix(0.9522 -0.3055 0.3055 0.9522 -109.9738 111.1596)" width="2.83" height="4.79"/>
		<rect x="232.87" y="330.97" transform="matrix(0.1951 -0.9808 0.9808 0.1951 -136.6388 498.2711)" width="4.79" height="2.83"/>
		<path d="M243.99,350.02c-0.42-0.35-0.87-0.68-1.3-1.01l-1.71,2.27c0.38,0.3,0.78,0.59,1.15,0.9l1.07,1
			c0.37,0.32,0.7,0.68,1.02,1.06l0.97,1.1l-3.73,3c0.4,0.59,0.86,1.12,1.24,1.73l4.01-2.61c0.52,0.84,1.05,1.67,1.47,2.57
			c0.48,0.87,0.84,1.79,1.23,2.7l1.32-0.52l-1.32,0.52l-4.45,1.76c0.28,0.69,0.5,1.42,0.75,2.12l4.58-1.4
			c0.24,0.97,0.56,1.91,0.73,2.9l0.3,1.47l0.21,1.48l1.56-0.2l-1.56,0.2l-4.75,0.61c0.13,0.76,0.14,1.52,0.22,2.28l4.78-0.26
			c0.01,1,0.09,1.99,0.03,2.99l0,0l-0.05,1.18l-0.01,0.15l-0.02,0.15l-0.03,0.29l-0.06,0.59l-0.06,0.59l-0.03,0.29l-0.01,0.07
			l-0.01,0.07l-0.02,0.14l-0.2,1.16l-0.1,0.58l-0.14,0.57l-0.27,1.13l-0.35,1.1l-0.18,0.55l-0.02,0.07l-0.03,0.07l-0.06,0.13
			l-0.11,0.26l-0.02-0.01l-1.28,4.57l4.34-0.24l0-0.01l-0.11-1.41l-0.05-0.71l-0.03-0.35l-0.01-0.18l-0.01-0.09l0-0.04l0-0.03
			l0-0.01l0,0l0,0l0,0l0,0l0.22,2.83l1.21-0.1l0.6-0.05l0.6-0.02l1.35-0.03l2.37-0.13l0,0.08l0.05,0l0.08,0l0.08,0l0.3,0.02
			l0.6,0.03l2.4,0.12l0,0c1.1,0.05,2.17,0.25,3.26,0.37l-0.69,4.73c0.87,0.07,1.68,0.29,2.5,0.46l1.03-4.67l1.59,0.35l1.55,0.48
			c0.51,0.17,1.04,0.31,1.54,0.49l1.48,0.63l-1.92,4.38c0.36,0.16,0.75,0.29,1.08,0.47l1.01,0.57l2.36-4.16
			c0.96,0.47,1.8,1.13,2.68,1.74c0.45,0.29,0.84,0.65,1.23,1.01l1.19,1.06l0.06-0.06l-0.06,0.06l-3.38,3.39
			c0.47,0.57,1.01,1.07,1.45,1.66l3.78-2.94c0.61,0.87,1.27,1.7,1.76,2.65c0.25,0.47,0.55,0.91,0.76,1.4l0.65,1.46l-4.42,1.82
			c0.32,0.69,0.5,1.46,0.78,2.19l4.6-1.34l2.72-0.79l4.6-1.34c-0.04-0.11-0.08-0.23-0.11-0.34l2.26-0.72l-0.21-0.66l0.21,0.66
			l2.7-0.87l-0.87-2.7l-1.46-4.56l-2.7,0.87l1.46,4.56l-2.32,0.75c-0.06-0.14-0.11-0.28-0.17-0.42l-4.42,1.82l-0.72-1.63
			c-0.24-0.54-0.57-1.04-0.85-1.57c-0.55-1.06-1.28-2-1.98-2.98l-1.12,0.87l1.12-0.87l3.78-2.94c-0.76-1-1.64-1.9-2.48-2.83
			l-3.38,3.38l-1.33-1.19c-0.44-0.4-0.88-0.8-1.38-1.13c-0.97-0.69-1.92-1.41-2.98-1.94l-0.7,1.23l0.7-1.23l2.36-4.16l-0.42-0.23
			l1.16-2.12l4.2,2.3l1.36-2.49l-4.2-2.3l-2.49-1.36l-4.2-2.3l-1.36,2.49l4.2,2.3l-1.21,2.22c-0.1-0.04-0.19-0.08-0.29-0.12
			l-1.92,4.38l-1.63-0.69c-0.55-0.2-1.12-0.36-1.67-0.54l-1.68-0.52l-1.71-0.37l-0.23,1.05l0.23-1.05l1.03-4.68
			c-1.12-0.24-2.25-0.51-3.36-0.62l-0.7,4.74l-0.21,1.4l0.21-1.4c-1.15-0.13-2.3-0.34-3.46-0.39l0,0l-2.53-0.13l-0.63-0.03
			l-0.39-0.02l-0.08,0l-0.16,0l-1.26,0.03l-2.52,0.05l-0.63,0.02l-0.63,0.05l-1.25,0.1c0.05-0.07,0.05-0.07,0.14-0.21
			c-0.23-0.15-0.22-0.14-0.34-0.22l0,0l0.03-0.07l0.03-0.08l0.06-0.15l0.06-0.15l0.03-0.08l0.03-0.08l0.2-0.62l0.4-1.25l0.31-1.26
			l0.15-0.63l0.11-0.64l0.21-1.27l0.03-0.16l0.02-0.16l0.03-0.32l0.07-0.64l0.06-0.64l0.03-0.32l0.02-0.16l0.01-0.16l0.05-1.28
			l-1.42-0.04l1.42,0.04c0.07-1.08-0.01-2.15-0.03-3.23l-1.42,0.08l1.42-0.08l4.78-0.26c0-0.04-0.01-0.09-0.01-0.13l2.18-0.21
			l0.46,4.76l2.82-0.27l-0.46-4.76l4.76-0.46l-0.27-2.82l-4.76,0.46v0l-0.46-4.76l-2.82,0.27l0.46,4.76l-2.17,0.21
			c-0.01-0.08-0.01-0.15-0.03-0.23l-4.75,0.61l-0.23-1.6l-0.32-1.58c-0.19-1.06-0.53-2.09-0.79-3.13l-0.35,0.11l0.35-0.11l4.58-1.4
			c-0.35-1.02-0.67-2.05-1.07-3.06l-4.45,1.76c-0.42-0.99-0.82-2-1.34-2.95c-0.47-0.98-1.05-1.9-1.62-2.82l-1.19,0.77l1.19-0.77
			l4.01-2.61c-0.04-0.07-0.09-0.13-0.14-0.2l1.67-1.16l-1.62-2.33l-1.71,1.19c-0.06-0.08-0.12-0.15-0.17-0.23l-3.73,3l-1.08-1.23
			c-0.35-0.42-0.73-0.82-1.14-1.18L243.99,350.02z M268.84,390.94L268.84,390.94c-0.47-0.1-0.94-0.21-1.41-0.3
			C267.9,390.74,268.37,390.84,268.84,390.94z"/>
		<path d="M110.38,420.27c0-8.26-6.72-14.98-14.98-14.98s-14.98,6.72-14.98,14.98v0l2.91,0v0c0-6.65,5.41-12.07,12.07-12.07
			s12.07,5.41,12.07,12.07v0L110.38,420.27L110.38,420.27z"/>
		<polygon points="259.69,354.26 256.96,350.32 260.9,347.6 259.28,345.27 255.35,347.99 252.62,344.06 250.29,345.68 
			253.02,349.61 254.64,351.94 257.36,355.87 		"/>
		<path d="M65.61,414.62c0.05-0.54,0.07-1.08,0.15-1.62l0.25-1.6c0.07-0.54,0.2-1.06,0.33-1.58c0.13-0.52,0.24-1.05,0.39-1.56
			l-2.73-0.79c-0.16,0.57-0.28,1.14-0.43,1.72c-0.14,0.57-0.28,1.15-0.36,1.73l-0.27,1.74c-0.08,0.58-0.1,1.17-0.16,1.75l-4.77-0.37
			c-0.12,1.17-0.12,2.32-0.13,3.47l4.78-0.01c-0.03,0.93,0.04,1.85,0.1,2.77h2.84c-0.05-0.93-0.14-1.85-0.1-2.78l-1.42,0l1.42,0
			l4.79-0.01c0.01-0.84,0-1.68,0.09-2.49L65.61,414.62z"/>
		<path d="M177.65,351.59c8.26,0,14.98-6.72,14.98-14.98s-6.72-14.98-14.98-14.98c-8.26,0-14.98,6.72-14.98,14.98
			S169.39,351.59,177.65,351.59z M177.65,324.54c6.66,0,12.07,5.41,12.07,12.07s-5.42,12.07-12.07,12.07
			c-6.66,0-12.07-5.41-12.07-12.07S171,324.54,177.65,324.54z"/>
		<path d="M130.88,386.85c8.26,0,14.98-6.72,14.98-14.98s-6.72-14.98-14.98-14.98s-14.98,6.72-14.98,14.98
			S122.62,386.85,130.88,386.85z M130.88,359.8c6.66,0,12.07,5.41,12.07,12.07s-5.41,12.07-12.07,12.07s-12.07-5.41-12.07-12.07
			S124.22,359.8,130.88,359.8z"/>
		<path d="M224.43,356.88c-8.26,0-14.98,6.72-14.98,14.98s6.72,14.98,14.98,14.98s14.98-6.72,14.98-14.98
			S232.69,356.88,224.43,356.88z M224.43,383.93c-6.66,0-12.07-5.41-12.07-12.07s5.42-12.07,12.07-12.07s12.07,5.41,12.07,12.07
			S231.08,383.93,224.43,383.93z"/>
		<path d="M297.3,414.03l-4.77,0.37c-0.05-0.58-0.08-1.17-0.16-1.75l-0.27-1.74c-0.07-0.58-0.22-1.16-0.36-1.73
			c-0.14-0.57-0.27-1.15-0.43-1.72l-2.73,0.79c0.15,0.52,0.26,1.04,0.39,1.56c0.13,0.52,0.26,1.04,0.33,1.58l0.25,1.6
			c0.08,0.53,0.09,1.08,0.15,1.62l-4.77,0.37c0.1,0.82,0.09,1.66,0.09,2.49l4.79,0.01l1.42,0l-1.42,0c0.04,0.93-0.05,1.85-0.1,2.78
			h2.84c0.05-0.92,0.13-1.84,0.1-2.77l4.78,0.01C297.42,416.35,297.42,415.2,297.3,414.03z"/>
		<path d="M274.9,420.27c0-8.26-6.72-14.98-14.98-14.98s-14.98,6.72-14.98,14.98v0l2.91,0v0c0-6.65,5.42-12.07,12.07-12.07
			s12.07,5.41,12.07,12.07v0L274.9,420.27L274.9,420.27z"/>
		<path d="M114.32,351.28l2.87,3.83c0.51-0.45,1.12-0.76,1.68-1.12l-2.41-4.13c0.4-0.28,0.85-0.48,1.29-0.69l1.32-0.64
			c0.93-0.3,1.82-0.71,2.78-0.94l1.28,4.61c0.69-0.13,1.33-0.39,2.05-0.45l-0.8-4.72l-0.48-2.79l-0.8-4.72
			c-0.07,0.01-0.13,0.02-0.2,0.03l-0.46-2.3h0l4.7-0.93l-0.55-2.78l-4.7,0.93l-0.93-4.7l-2.78,0.55l0.93,4.7l0.55,2.78h0l0.47,2.37
			c-0.11,0.03-0.23,0.06-0.34,0.08l1.28,4.61l0.38,1.37l-0.38-1.37c-1.06,0.26-2.07,0.71-3.11,1.05l-1.49,0.71
			c-0.5,0.24-0.99,0.47-1.45,0.78l0.72,1.23l-0.71-1.22l-2.41-4.14c-0.98,0.61-1.99,1.19-2.88,1.92l2.87,3.83L114.32,351.28z"/>
		<rect x="95.75" y="351.68" transform="matrix(0.5698 -0.8218 0.8218 0.5698 -247.9415 232.5364)" width="4.79" height="2.83"/>
		<rect x="114.65" y="335.45" transform="matrix(0.9808 -0.1951 0.1951 0.9808 -63.4806 29.3136)" width="4.79" height="2.83"/>
		<rect x="70.59" y="377.52" transform="matrix(0.8775 -0.4795 0.4795 0.8775 -173.3512 81.0488)" width="2.83" height="4.79"/>
		<path d="M130.3,346.66l-0.15,4.78c0.76,0.06,1.51,0.03,2.28,0.15l0.5-4.76c0.99,0.14,1.99,0.25,2.97,0.42l0.25-1.4l-0.25,1.39
			l2.98,0.65l0.19,0.04l0.09,0.02l0.09,0.03l0.37,0.11l0.73,0.22l1.47,0.43l0.73,0.22l0.37,0.11l0.36,0.13l1.44,0.53l1.44,0.53
			l0.36,0.13l0.18,0.07l0.09,0.03l0.09,0.04l0.71,0.31l1.09-2.62v0l0,0l0,0l0,0l0,0.01l0,0.01l-0.01,0.02l-0.05,0.12l-0.07,0.16
			l-0.14,0.33l-0.81,1.96l-0.04,0.09l5.56,1.89l-1.44-5.74l-0.04,0.01l-0.23-0.73l-0.21-0.74l-0.21-0.74l-0.2-0.74l-0.19-0.74
			l-0.17-0.75l-0.17-0.75l-0.15-0.75l-0.15-0.75l-0.08-0.38l-0.06-0.38l-0.25-1.51l-0.19-1.51l-0.05-0.38l-0.03-0.38l-0.06-0.76l0,0
			c-0.1-0.97-0.1-1.94-0.14-2.91l-1.44,0.01l1.43-0.01c0.04-0.85,0-1.71,0.09-2.55c-0.09,0.84-0.05,1.7-0.09,2.55l4.79-0.03
			c0.04-0.73,0-1.49,0.08-2.2l-4.77-0.33l0.12-1.44l0.21-1.42c0.06-0.48,0.16-0.94,0.28-1.4c0.11-0.46,0.2-0.93,0.34-1.38l4.6,1.31
			c0.23-0.61,0.36-1.28,0.65-1.84l-4.42-1.83c-0.37,0.74-0.55,1.57-0.83,2.35l-2.73-0.78c-0.15,0.51-0.25,1.03-0.38,1.54
			c-0.13,0.51-0.24,1.03-0.31,1.55l-0.23,1.56l-0.13,1.57l-4.77-0.33c-0.1,1.06-0.07,2.08-0.11,3.12l4.78-0.03
			c0.04,1.04,0.04,2.08,0.14,3.11l1.42-0.11l-1.41,0.11l0.07,0.81l0.03,0.4l0.05,0.4l0.2,1.6l0.26,1.59l0.07,0.4l0.08,0.39
			l0.16,0.79l0.16,0.79l0.18,0.78l0.18,0.78l0.2,0.78l0.2,0.78l0.22,0.77l0.23,0.77l0.12,0.38l0.06,0.19l0.05,0.14l0.01,0.02l0,0.01
			l0,0.01l0,0c-0.1,0.03-0.1,0.02-0.29,0.07c0.02,0.13,0.02,0.13,0.03,0.2l-0.73-0.32l-0.09-0.04l-0.09-0.03l-0.19-0.07l-0.38-0.14
			l-1.5-0.55l-1.5-0.55l-0.38-0.14l-0.38-0.12l-0.77-0.23l-1.54-0.45l-0.77-0.23l-0.39-0.11l-0.1-0.03l-0.1-0.02l-0.2-0.04
			l-3.16-0.68l0,0c-1.05-0.18-2.12-0.3-3.18-0.45l0.5-4.76c-1.04-0.15-2.13-0.14-3.2-0.21l-0.15,4.78L130.3,346.66z"/>
		<path d="M123.91,344.23l0.48,2.8c0.98-0.11,1.94-0.34,2.94-0.33c0.99-0.03,1.98-0.13,2.97-0.04l0.09-2.84
			c-1.07-0.1-2.16,0.01-3.24,0.04C126.06,343.86,124.99,344.1,123.91,344.23z"/>
		<rect x="52.78" y="405.49" transform="matrix(0.3055 -0.9522 0.9522 0.3055 -349.134 335.1223)" width="4.79" height="2.83"/>
		<polygon points="57.26,405.06 58.12,402.37 59.59,397.81 56.89,396.94 55.42,401.5 55.42,401.5 50.87,400.04 50,402.74 
			54.56,404.2 		"/>
		<rect x="95.77" y="345.4" transform="matrix(0.5699 -0.8217 0.8217 0.5699 -243.9944 229.4604)" width="2.83" height="4.79"/>
		<path d="M59.51,405.79c-0.04,0.11-0.07,0.23-0.11,0.34l4.6,1.34l2.72,0.79l4.6,1.34c0.28-0.72,0.45-1.5,0.78-2.19l-4.42-1.82
			l0.65-1.46c0.21-0.49,0.51-0.93,0.76-1.4c0.48-0.95,1.15-1.78,1.76-2.65l3.78,2.94c0.44-0.59,0.98-1.09,1.45-1.66l-3.38-3.39
			l-0.06-0.06l0.06,0.06l1.19-1.06c0.39-0.35,0.78-0.72,1.23-1.01c0.87-0.61,1.71-1.26,2.68-1.74l2.36,4.16l1.01-0.57
			c0.34-0.19,0.73-0.31,1.08-0.47l-1.92-4.38l1.48-0.63c0.5-0.19,1.03-0.33,1.54-0.49l1.55-0.48l1.59-0.35l1.03,4.67
			c0.82-0.17,1.63-0.39,2.5-0.46l-0.69-4.73c1.09-0.12,2.16-0.32,3.26-0.37l0,0l2.4-0.12l0.6-0.03l0.3-0.02l0.08,0l0.08,0l0.05,0
			l0-0.08l2.37,0.13l1.35,0.03l0.6,0.02l0.6,0.05l1.21,0.1l0.22-2.83l0,0l0,0l0,0l0,0l0,0.01l0,0.03l0,0.04l-0.01,0.09l-0.01,0.18
			l-0.03,0.35l-0.05,0.71l-0.11,1.41l0,0.01l4.34,0.24l-1.28-4.57l-0.02,0.01l-0.11-0.26l-0.06-0.13l-0.03-0.07l-0.02-0.07
			l-0.18-0.55l-0.35-1.1l-0.27-1.13l-0.14-0.57l-0.1-0.58l-0.2-1.16l-0.02-0.14l-0.01-0.07l-0.01-0.07l-0.03-0.29l-0.06-0.59
			l-0.06-0.59l-0.03-0.29l-0.02-0.15l-0.01-0.15l-0.05-1.18l0,0c-0.07-0.99,0.01-1.99,0.03-2.99l4.78,0.26
			c0.08-0.76,0.09-1.53,0.22-2.28l-4.75-0.61l-1.56-0.2l1.56,0.2l0.21-1.48l0.3-1.47c0.17-0.98,0.49-1.93,0.73-2.9l4.58,1.4
			c0.25-0.71,0.47-1.43,0.75-2.12l-4.45-1.76l-1.32-0.52l1.32,0.52c0.39-0.91,0.75-1.84,1.23-2.7c0.42-0.9,0.95-1.73,1.47-2.57
			l4.01,2.61c0.37-0.62,0.84-1.15,1.24-1.73l-3.73-3l0.97-1.1c0.32-0.38,0.65-0.73,1.02-1.06l1.07-1c0.38-0.31,0.77-0.6,1.15-0.9
			l-1.71-2.27c-0.43,0.34-0.88,0.66-1.3,1.01l-1.2,1.12c-0.41,0.36-0.78,0.76-1.14,1.18l-1.08,1.23l-3.73-3
			c-0.06,0.08-0.12,0.15-0.17,0.23l-1.71-1.19l-0.66,0.95l0.66-0.95l2.73-3.93l-2.33-1.62l-2.73,3.93l-1.62,2.33l2.33,1.62
			l1.67,1.16c-0.04,0.07-0.09,0.13-0.14,0.2l4.01,2.61l1.19,0.77l-1.19-0.77c-0.57,0.92-1.16,1.84-1.62,2.82
			c-0.52,0.95-0.92,1.96-1.34,2.95l-4.45-1.76c-0.4,1.01-0.73,2.03-1.07,3.06l4.58,1.4l0.35,0.11l-0.35-0.11
			c-0.27,1.04-0.61,2.07-0.79,3.13l-0.32,1.58l-0.23,1.6l-4.75-0.61c-0.01,0.08-0.01,0.15-0.03,0.23l-2.17-0.21l0.46-4.76
			l-2.82-0.27l-0.46,4.76v0l-4.76-0.46l-0.27,2.82l4.76,0.46l-0.46,4.76l2.82,0.27l0.46-4.76l2.18,0.21c0,0.04-0.01,0.09-0.01,0.13
			l4.78,0.26l1.42,0.08l-1.42-0.08c-0.02,1.08-0.1,2.15-0.03,3.23l1.42-0.04l-1.42,0.04l0.05,1.28l0.01,0.16l0.02,0.16l0.03,0.32
			l0.06,0.64l0.07,0.64l0.03,0.32l0.02,0.16l0.03,0.16l0.21,1.27l0.11,0.64l0.15,0.63l0.31,1.26l0.4,1.25l0.2,0.62l0.03,0.08
			l0.03,0.08l0.06,0.15l0.06,0.15l0.03,0.08l0.03,0.07l0,0c-0.12,0.08-0.11,0.07-0.34,0.22c0.09,0.14,0.09,0.13,0.14,0.21l-1.25-0.1
			l-0.63-0.05l-0.63-0.02l-2.52-0.05l-1.26-0.03l-0.16,0l-0.08,0l-0.39,0.02l-0.63,0.03l-2.53,0.13l0,0
			c-1.15,0.05-2.3,0.26-3.46,0.39l0.21,1.4l-0.21-1.4l-0.7-4.74c-1.11,0.11-2.24,0.38-3.36,0.62l1.03,4.68l0.23,1.05l-0.23-1.05
			l-1.71,0.37l-1.68,0.52c-0.56,0.18-1.12,0.34-1.67,0.54l-1.63,0.69l-1.92-4.38c-0.1,0.04-0.19,0.08-0.29,0.12l-1.21-2.22h0
			l4.2-2.3l-1.36-2.49l-4.2,2.3l-2.49,1.36l-4.2,2.3l1.36,2.49l4.2-2.3l1.16,2.12l-0.42,0.23l2.36,4.16l0.7,1.23l-0.7-1.23
			c-1.06,0.53-2.01,1.25-2.98,1.94c-0.5,0.32-0.94,0.73-1.38,1.13l-1.33,1.19l-3.38-3.38c-0.83,0.93-1.72,1.83-2.48,2.83l3.78,2.94
			l1.12,0.87l-1.12-0.87c-0.69,0.97-1.43,1.92-1.98,2.98c-0.28,0.52-0.62,1.02-0.85,1.57l-0.72,1.63l-4.42-1.82
			c-0.06,0.14-0.11,0.28-0.17,0.42l-2.32-0.75l-0.87,2.7L59.51,405.79z M86.47,390.94c0.47-0.1,0.94-0.21,1.41-0.3
			C87.41,390.74,86.94,390.84,86.47,390.94L86.47,390.94z"/>
		<path d="M140.48,320.75l2.41,0.89c-0.03,0.09-0.06,0.18-0.09,0.28l4.6,1.32l2.73,0.78c0.28-0.78,0.46-1.61,0.83-2.35l0,0
			l0.56-1.29l0.69-1.22c0.21-0.42,0.48-0.8,0.76-1.17c0.28-0.37,0.53-0.77,0.83-1.13l-1.1-0.9l1.1,0.9l3.7,3.04
			c0.44-0.42,0.78-0.93,1.26-1.32l-3.26-3.51l-0.96-1.04l0.97,1.04c0.71-0.61,1.39-1.25,2.2-1.74l1.17-0.79l1.26-0.66l-0.65-1.26
			l0.65,1.26l2.19,4.26c0.3-0.15,0.57-0.33,0.89-0.46l0.97-0.38l-1.76-4.45c0.45-0.17,0.88-0.36,1.34-0.52l1.39-0.4l1.39-0.4
			l1.43-0.28l0.94,4.69c0.75-0.12,1.45-0.33,2.24-0.39l-0.65-4.74l-0.38-2.81l-0.65-4.74c-0.98,0.08-2,0.34-3,0.51l0.94,4.69
			l-1.53,0.3l-1.51,0.43l-1.51,0.43c-0.5,0.17-0.98,0.38-1.47,0.57l0.52,1.32l-0.52-1.32l-1.76-4.45l-0.15,0.06l-0.83-1.84L163,300
			l-1.17-2.58l-4.36,1.97l-1.97-4.36l-2.58,1.17l1.97,4.36l-4.36,1.97l1.17,2.58l4.36-1.97l0.83,1.83
			c-0.08,0.04-0.16,0.09-0.24,0.13l2.19,4.25l-1.41,0.74c-0.45,0.29-0.89,0.59-1.33,0.89c-0.91,0.56-1.7,1.3-2.52,2l-3.26-3.5
			c-0.87,0.76-1.61,1.68-2.41,2.53l3.7,3.04c-0.34,0.42-0.64,0.87-0.96,1.3c-0.32,0.43-0.63,0.87-0.88,1.35l-0.79,1.4l-0.64,1.47
			l1.31,0.54l-1.31-0.54l-4.42-1.83c-0.04,0.07-0.06,0.15-0.09,0.22l-2.37-0.87l1.66-4.49l-2.66-0.98l-1.66,4.49l-0.98,2.66
			L140.48,320.75z M161.26,311.31l1.18-0.46L161.26,311.31c-0.19,0.08-0.38,0.18-0.57,0.27
			C160.87,311.48,161.06,311.39,161.26,311.31z"/>
		<rect x="197.72" y="296.38" transform="matrix(0.4118 -0.9113 0.9113 0.4118 -153.6681 357.5006)" width="4.79" height="2.83"/>
		<path d="M222.08,344.01c-1.06,0.15-2.13,0.27-3.18,0.45l0,0l-3.16,0.68l-0.2,0.04l-0.1,0.02l-0.1,0.03l-0.39,0.11l-0.77,0.23
			l-1.54,0.45l-0.77,0.23l-0.38,0.12l-0.38,0.14l-1.5,0.55l-1.5,0.55l-0.38,0.14l-0.19,0.07l-0.09,0.03l-0.09,0.04l-0.73,0.32
			c0.01-0.07,0.01-0.07,0.03-0.2c-0.19-0.05-0.18-0.05-0.29-0.07l0,0l0-0.01l0-0.01l0.01-0.02l0.05-0.14l0.06-0.19l0.12-0.38
			l0.23-0.77l0.22-0.77l0.2-0.78l0.2-0.78l0.18-0.78l0.18-0.78l0.16-0.79l0.16-0.79l0.08-0.39l0.07-0.4l0.26-1.59l0.2-1.6l0.05-0.4
			l0.03-0.4l0.07-0.81l-1.41-0.11l1.42,0.11c0.11-1.03,0.11-2.07,0.14-3.11l4.78,0.03c-0.03-1.04-0.01-2.07-0.11-3.12l-4.77,0.33
			l-0.13-1.57l-0.23-1.56c-0.07-0.52-0.18-1.04-0.31-1.55c-0.13-0.51-0.22-1.03-0.38-1.54l-2.73,0.78
			c-0.28-0.78-0.46-1.61-0.83-2.35l-4.42,1.83c0.29,0.56,0.42,1.23,0.65,1.84l4.6-1.31c0.14,0.45,0.22,0.92,0.34,1.38
			c0.12,0.46,0.22,0.93,0.28,1.4l0.21,1.42l0.12,1.44l-4.77,0.33c0.08,0.71,0.04,1.47,0.08,2.2l4.79,0.03
			c-0.02-0.43-0.02-0.85-0.02-1.28c0.01,0.43,0.01,0.85,0.02,1.28l1.43,0.01l-1.44-0.01c-0.04,0.97-0.03,1.94-0.14,2.91l0,0
			l-0.06,0.76l-0.03,0.38l-0.05,0.38l-0.19,1.51l-0.25,1.51l-0.06,0.38l-0.08,0.38l-0.15,0.75l-0.15,0.75l-0.17,0.75l-0.17,0.75
			l-0.19,0.74l-0.2,0.74l-0.21,0.74l-0.21,0.74l-0.23,0.73l-0.04-0.01l-1.44,5.74l5.56-1.89l-0.04-0.09l-0.81-1.96l-0.14-0.33
			l-0.07-0.16l-0.05-0.12l-0.01-0.02l0-0.01l0-0.01l0,0l0,0l0,0v0l1.09,2.62l0.71-0.31l0.09-0.04l0.09-0.03l0.18-0.07l0.36-0.13
			l1.44-0.53l1.44-0.53l0.36-0.13l0.37-0.11l0.73-0.22l1.47-0.43l0.73-0.22l0.37-0.11l0.09-0.03l0.09-0.02l0.19-0.04l2.98-0.65
			l-0.25-1.39l0.25,1.4c0.99-0.17,1.98-0.28,2.97-0.42l0.5,4.76c0.77-0.12,1.52-0.09,2.28-0.15l-0.15-4.78l-0.09-2.83l-0.15-4.78
			c-1.06,0.07-2.16,0.06-3.2,0.21L222.08,344.01z"/>
		<path d="M227.98,346.7c1-0.01,1.96,0.22,2.94,0.33l0.48-2.8c-1.08-0.13-2.15-0.37-3.24-0.36c-1.08-0.03-2.17-0.14-3.24-0.04
			l0.09,2.84C226.01,346.57,226.99,346.67,227.98,346.7z"/>
		<rect x="134.65" y="315.22" transform="matrix(0.3461 -0.9382 0.9382 0.3461 -209.0135 335.3377)" width="2.83" height="4.79"/>
		<path d="M232.4,339.54c-0.07-0.01-0.13-0.02-0.2-0.03l-0.8,4.72l-0.48,2.79l-0.8,4.72c0.72,0.07,1.36,0.32,2.05,0.45l1.28-4.61
			c0.95,0.23,1.85,0.63,2.78,0.94l1.32,0.64c0.44,0.21,0.88,0.41,1.29,0.69l-2.41,4.13c0.56,0.37,1.17,0.67,1.68,1.12l2.87-3.83
			l1.7-2.27l2.87-3.83c-0.89-0.73-1.9-1.31-2.88-1.92l-2.41,4.14l-0.71,1.22l0.72-1.23c-0.46-0.31-0.96-0.54-1.45-0.78l-1.49-0.71
			c-1.04-0.35-2.05-0.8-3.11-1.05l-0.38,1.37l0.38-1.37l1.28-4.61c-0.11-0.03-0.23-0.06-0.34-0.08l0.47-2.37l0.55-2.78l-2.78-0.55
			l-4.7-0.93l-0.55,2.78l4.7,0.93L232.4,339.54z"/>
		<rect x="135.93" y="321.09" transform="matrix(0.3461 -0.9382 0.9382 0.3461 -212.13 340.6547)" width="4.79" height="2.83"/>
		<rect x="236.84" y="334.47" transform="matrix(0.1951 -0.9808 0.9808 0.1951 -138.6246 504.8134)" width="2.83" height="4.79"/>
		<path d="M170.12,306.01l0.38,2.81l2.91-0.32l2.94-0.12l-0.04-1.42l0.04,1.42l0.12,4.79c0.39-0.03,0.78-0.04,1.17-0.03
			c0.4,0,0.79,0.01,1.17,0.03l0.12-4.79l0.04-1.42l-0.04,1.42l2.94,0.12l2.91,0.32l0.38-2.81l-3.08-0.34l-3.08-0.13l0.07-2.6l0.1,0
			l-0.04-2.17l0-0.02h0l-0.05-2.6l4.79-0.09l-0.05-2.83l-4.79,0.09l-0.09-4.79l-2.83,0.05l0.09,4.79l-4.79,0.09l0.05,2.83l4.79-0.09
			l0.05,2.54c-0.05,0-0.1,0-0.16,0l0.12,4.78l-3.08,0.13L170.12,306.01z"/>
		<path d="M184.8,308.82l-0.65,4.74c0.79,0.05,1.49,0.26,2.24,0.39l0.94-4.69l1.43,0.28l1.39,0.4l1.39,0.4
			c0.45,0.16,0.89,0.35,1.34,0.52l-1.76,4.45l0.97,0.38c0.32,0.13,0.59,0.31,0.89,0.46l2.19-4.26l0.65-1.26l-0.65,1.26l1.26,0.66
			l1.17,0.79c0.81,0.49,1.49,1.14,2.2,1.74l0.97-1.04l-0.96,1.04l-3.26,3.51c0.48,0.39,0.82,0.9,1.26,1.32l3.7-3.04l1.1-0.9
			l-1.1,0.9c0.29,0.36,0.55,0.75,0.83,1.13c0.28,0.37,0.55,0.75,0.76,1.17l0.69,1.22l0.56,1.29l0,0c0.37,0.74,0.55,1.57,0.83,2.35
			l2.73-0.78l4.6-1.32c-0.03-0.09-0.06-0.18-0.09-0.28l2.41-0.89l1.66,4.49l2.66-0.98l-1.66-4.49l4.49-1.66l-0.98-2.66l-4.49,1.66
			l-1.66-4.49l-2.66,0.98l1.66,4.49l-2.37,0.87c-0.03-0.07-0.06-0.15-0.09-0.22l-4.42,1.83l-1.31,0.54l1.31-0.54l-0.64-1.47
			l-0.79-1.4c-0.25-0.48-0.56-0.92-0.88-1.35c-0.32-0.43-0.62-0.88-0.96-1.3l3.7-3.04c-0.79-0.85-1.53-1.77-2.41-2.53l-3.26,3.5
			c-0.81-0.7-1.6-1.44-2.52-2c-0.44-0.3-0.88-0.61-1.33-0.89l-1.41-0.74l2.19-4.25c-0.08-0.04-0.16-0.08-0.24-0.13l0.83-1.83
			l4.36,1.97l1.17-2.58l-4.36-1.97l-2.58-1.17l-4.36-1.97L192.3,300l4.36,1.97l-0.83,1.84l-0.15-0.06l-1.76,4.45l-0.52,1.32
			l0.52-1.32c-0.49-0.19-0.98-0.4-1.47-0.57l-1.51-0.43l-1.51-0.43l-1.53-0.3l0.94-4.69c-1-0.17-2.02-0.44-3-0.51l-0.65,4.74
			L184.8,308.82z M194.05,311.31c0.19,0.08,0.38,0.18,0.57,0.27C194.43,311.48,194.25,311.39,194.05,311.31l-1.18-0.46
			L194.05,311.31z"/>
		<rect x="203.6" y="381.21" transform="matrix(0.556 -0.8312 0.8312 0.556 -227.8193 340.7347)" width="2.83" height="4.79"/>
		<rect x="156.85" y="377.34" transform="matrix(0.8635 -0.5043 0.5043 0.8635 -169.2809 132.0061)" width="4.79" height="2.83"/>
		<path d="M163.44,420.27L163.44,420.27L163.44,420.27c0,8.26,6.72,14.98,14.98,14.98c8.26,0,14.98-6.72,14.98-14.98v0v0v0
			c0-8.26-6.72-14.98-14.98-14.98C170.16,405.28,163.44,412.01,163.44,420.27L163.44,420.27z M166.35,420.27
			c0-6.65,5.41-12.07,12.07-12.07c6.66,0,12.07,5.41,12.07,12.07v0v0v0c0,6.65-5.42,12.07-12.07,12.07
			C171.77,432.33,166.35,426.92,166.35,420.27L166.35,420.27L166.35,420.27L166.35,420.27z"/>
		<path d="M157.31,400.17c0.52-0.59,1.1-1.13,1.64-1.7l-3.33-3.44c-0.63,0.67-1.31,1.3-1.91,1.99L157.31,400.17z"/>
		<rect x="301.18" y="436.02" transform="matrix(0.3055 -0.9522 0.9522 0.3055 -207.3096 592.5832)" width="2.83" height="4.79"/>
		<rect x="281.89" y="458.22" transform="matrix(0.8775 -0.4795 0.4795 0.8775 -186.1704 192.2476)" width="2.83" height="4.79"/>
		<rect x="297.74" y="432.2" transform="matrix(0.3055 -0.9522 0.9522 0.3055 -204.4552 586.9143)" width="4.79" height="2.83"/>
		<rect x="233.85" y="505.75" transform="matrix(0.9808 -0.1951 0.1951 0.9808 -94.6379 55.6798)" width="2.83" height="4.79"/>
		<path d="M297.84,436.12l0.21-0.66l-2.26-0.72c0.04-0.11,0.07-0.23,0.11-0.34l-4.6-1.34l-2.72-0.79l-4.6-1.34
			c-0.28,0.72-0.45,1.5-0.78,2.19l4.42,1.82l-0.65,1.46c-0.21,0.49-0.51,0.93-0.76,1.4c-0.48,0.95-1.15,1.78-1.76,2.65l-3.78-2.94
			c-0.44,0.59-0.98,1.09-1.45,1.66l3.38,3.39l0.06,0.06l-0.06-0.06l-1.19,1.06c-0.39,0.35-0.78,0.72-1.23,1.01
			c-0.87,0.61-1.71,1.26-2.68,1.74l-2.36-4.16l-1.01,0.57c-0.34,0.19-0.73,0.31-1.08,0.47l1.92,4.38l-1.48,0.63
			c-0.5,0.19-1.03,0.33-1.54,0.49l-1.55,0.48l-1.59,0.35l-1.03-4.67c-0.82,0.17-1.63,0.39-2.5,0.46l0.69,4.73
			c-1.09,0.12-2.16,0.32-3.26,0.37l0,0l-2.4,0.12l-0.6,0.03l-0.3,0.02l-0.08,0l-0.08,0l-0.05,0l0,0.08l-2.37-0.13l-1.35-0.03
			l-0.6-0.02l-0.6-0.05l-1.21-0.1l-0.22,2.83l0,0l0,0l0,0l0,0l0-0.01l0-0.03l0-0.04l0.01-0.09l0.01-0.18l0.03-0.35l0.05-0.71
			l0.11-1.41l0-0.01l-4.34-0.24l1.28,4.57l0.02-0.01l0.11,0.26l0.06,0.13l0.03,0.07l0.02,0.07l0.18,0.55l0.35,1.1l0.27,1.13
			l0.14,0.57l0.1,0.58l0.2,1.16l0.02,0.14l0.01,0.07l0.01,0.07l0.03,0.29l0.06,0.59l0.06,0.59l0.03,0.29l0.02,0.15l0.01,0.15
			l0.05,1.18l0,0c0.07,0.99-0.01,1.99-0.03,2.99l-4.78-0.26c-0.08,0.76-0.09,1.53-0.22,2.28l4.75,0.61l1.56,0.2l-1.56-0.2
			l-0.21,1.48l-0.3,1.47c-0.17,0.98-0.49,1.93-0.73,2.9l-4.58-1.4c-0.25,0.71-0.47,1.43-0.75,2.12l4.45,1.76l1.32,0.52l-1.32-0.52
			c-0.39,0.91-0.75,1.84-1.23,2.7c-0.42,0.9-0.95,1.73-1.47,2.57l-4.01-2.61c-0.37,0.62-0.84,1.15-1.24,1.73l3.73,3l-0.97,1.1
			c-0.32,0.38-0.65,0.73-1.02,1.06l-1.07,1c-0.38,0.31-0.77,0.6-1.15,0.9l1.71,2.27c0.43-0.34,0.88-0.66,1.3-1.01l1.2-1.12
			c0.41-0.36,0.78-0.76,1.14-1.18l1.08-1.23l3.73,3c0.06-0.08,0.12-0.15,0.17-0.23l1.71,1.19l1.62-2.33l-1.67-1.16
			c0.04-0.07,0.09-0.13,0.14-0.2l-4.01-2.61l-1.19-0.77l1.19,0.77c0.57-0.92,1.16-1.84,1.62-2.82c0.52-0.95,0.92-1.96,1.34-2.95
			l4.45,1.76c0.4-1.01,0.73-2.03,1.07-3.06l-4.58-1.4l-0.35-0.11l0.35,0.11c0.27-1.04,0.61-2.07,0.79-3.13l0.32-1.58l0.23-1.6
			l4.75,0.61c0.01-0.08,0.01-0.15,0.03-0.23l2.17,0.21l-0.46,4.76l2.82,0.27l0.46-4.76v0l4.76,0.46l0.27-2.82l-4.76-0.46l0.46-4.76
			l-2.82-0.27l-0.46,4.76l-2.18-0.21c0-0.04,0.01-0.09,0.01-0.13l-4.78-0.26l-1.42-0.08l1.42,0.08c0.02-1.08,0.1-2.15,0.03-3.23
			l-1.42,0.04l1.42-0.04l-0.05-1.28l-0.01-0.16l-0.02-0.16l-0.03-0.32l-0.06-0.64l-0.07-0.64l-0.03-0.32l-0.02-0.16l-0.03-0.16
			l-0.21-1.27l-0.11-0.64l-0.15-0.63l-0.31-1.26l-0.4-1.25l-0.2-0.62l-0.03-0.08l-0.03-0.08l-0.06-0.15l-0.06-0.15l-0.03-0.08
			l-0.03-0.07l0,0c0.12-0.08,0.11-0.07,0.34-0.22c-0.09-0.14-0.09-0.13-0.14-0.21l1.25,0.1l0.63,0.05l0.63,0.02l2.52,0.05l1.26,0.03
			l0.16,0l0.08,0l0.39-0.02l0.63-0.03l2.53-0.13l0,0c1.15-0.05,2.3-0.26,3.46-0.39l-0.21-1.4l0.21,1.4l0.7,4.74
			c1.11-0.11,2.24-0.38,3.36-0.62l-1.03-4.68l-0.23-1.05l0.23,1.05l1.71-0.37l1.68-0.52c0.56-0.18,1.12-0.34,1.67-0.54l1.63-0.69
			l1.92,4.38c0.1-0.04,0.19-0.08,0.29-0.12l1.21,2.22l-4.2,2.3l1.36,2.49l4.2-2.3l2.49-1.36l4.2-2.3l-1.36-2.49l-4.2,2.3l-1.16-2.12
			l0.42-0.23l-2.36-4.16l-0.7-1.23l0.7,1.23c1.06-0.53,2.01-1.25,2.98-1.94c0.5-0.32,0.94-0.73,1.38-1.13l1.33-1.19l3.38,3.38
			c0.83-0.93,1.72-1.83,2.48-2.83l-3.78-2.94l-1.12-0.87l1.12,0.87c0.69-0.97,1.43-1.92,1.98-2.98c0.28-0.52,0.62-1.02,0.85-1.57
			l0.72-1.63l4.42,1.82c0.06-0.14,0.11-0.28,0.17-0.42l2.32,0.75l-1.46,4.56l2.7,0.87l1.46-4.56l0.87-2.7l-2.7-0.87L297.84,436.12z
			 M268.84,449.59c-0.47,0.1-0.94,0.21-1.41,0.3C267.9,449.8,268.37,449.69,268.84,449.59L268.84,449.59z"/>
		<path d="M80.41,420.27L80.41,420.27c0,8.26,6.72,14.98,14.98,14.98s14.98-6.72,14.98-14.98v0h-2.91v0
			c0,6.65-5.41,12.07-12.07,12.07s-12.07-5.41-12.07-12.07v0H80.41z"/>
		<polygon points="250.29,494.86 252.62,496.47 255.35,492.54 259.28,495.27 260.9,492.94 256.96,490.21 259.69,486.27 
			257.36,484.66 254.64,488.59 253.02,490.92 		"/>
		<path d="M70.29,423.05l-4.79-0.01l-1.42,0l1.42,0c-0.04-0.93,0.05-1.85,0.1-2.78h-2.84c-0.05,0.92-0.13,1.84-0.1,2.77l-4.78-0.01
			c0.01,1.15,0.01,2.3,0.13,3.47l4.77-0.37c0.05,0.58,0.08,1.17,0.16,1.75l0.27,1.74c0.07,0.58,0.22,1.16,0.36,1.73
			c0.14,0.57,0.27,1.15,0.43,1.72l2.73-0.79c-0.15-0.52-0.26-1.04-0.39-1.56c-0.13-0.52-0.26-1.04-0.33-1.58l-0.25-1.6
			c-0.08-0.53-0.09-1.08-0.15-1.62l4.77-0.37C70.29,424.73,70.3,423.89,70.29,423.05z"/>
		<path d="M177.65,518.91c8.26,0,14.98-6.72,14.98-14.98s-6.72-14.98-14.98-14.98c-8.26,0-14.98,6.72-14.98,14.98
			S169.39,518.91,177.65,518.91z M177.65,491.86c6.66,0,12.07,5.41,12.07,12.07s-5.42,12.07-12.07,12.07
			c-6.66,0-12.07-5.41-12.07-12.07S171,491.86,177.65,491.86z"/>
		<path d="M130.88,483.65c8.26,0,14.98-6.72,14.98-14.98s-6.72-14.98-14.98-14.98s-14.98,6.72-14.98,14.98
			S122.62,483.65,130.88,483.65z M130.88,456.6c6.66,0,12.07,5.41,12.07,12.07s-5.41,12.07-12.07,12.07s-12.07-5.41-12.07-12.07
			S124.22,456.6,130.88,456.6z"/>
		<path d="M224.43,483.65c8.26,0,14.98-6.72,14.98-14.98s-6.72-14.98-14.98-14.98s-14.98,6.72-14.98,14.98
			S216.17,483.65,224.43,483.65z M224.43,456.6c6.66,0,12.07,5.41,12.07,12.07s-5.42,12.07-12.07,12.07s-12.07-5.41-12.07-12.07
			S217.77,456.6,224.43,456.6z"/>
		<path d="M289.3,429.13c-0.07,0.54-0.2,1.06-0.33,1.58c-0.13,0.52-0.24,1.05-0.39,1.56l2.73,0.79c0.16-0.57,0.28-1.14,0.43-1.72
			c0.14-0.57,0.28-1.15,0.36-1.73l0.27-1.74c0.08-0.58,0.1-1.17,0.16-1.75l4.77,0.37c0.12-1.17,0.12-2.32,0.13-3.47l-4.78,0.01
			c0.03-0.93-0.04-1.85-0.1-2.77h-2.84c0.05,0.93,0.14,1.85,0.1,2.78l1.42,0l-1.42,0l-4.79,0.01c-0.01,0.84,0,1.68-0.09,2.49
			l4.77,0.37c-0.05,0.54-0.07,1.08-0.15,1.62L289.3,429.13z"/>
		<path d="M244.93,420.27L244.93,420.27c0,8.26,6.72,14.98,14.98,14.98s14.98-6.72,14.98-14.98v0h-2.91v0
			c0,6.65-5.42,12.07-12.07,12.07s-12.07-5.41-12.07-12.07v0H244.93z"/>
		<path d="M122.45,503.29l0.46-2.3c0.07,0.01,0.13,0.02,0.2,0.03l0.8-4.72l0.48-2.79l0.8-4.72c-0.72-0.07-1.36-0.32-2.05-0.45
			l-1.28,4.61c-0.95-0.23-1.85-0.63-2.78-0.94l-1.32-0.64c-0.44-0.21-0.88-0.41-1.29-0.69l2.41-4.13c-0.56-0.37-1.17-0.67-1.68-1.12
			l-2.87,3.83l-1.7,2.27l-2.87,3.83c0.89,0.73,1.9,1.31,2.88,1.92l2.41-4.14l0.71-1.22l-0.72,1.23c0.46,0.31,0.96,0.54,1.45,0.78
			l1.49,0.71c1.04,0.35,2.05,0.8,3.11,1.05l0.38-1.37l-0.38,1.37l-1.28,4.61c0.11,0.03,0.23,0.06,0.34,0.08l-0.47,2.37h0l-0.55,2.78
			l-0.93,4.7l2.78,0.55l0.93-4.7l4.7,0.93l0.55-2.78L122.45,503.29L122.45,503.29z"/>
		<rect x="96.73" y="485.04" transform="matrix(0.8218 -0.5698 0.5698 0.8218 -260.2686 142.8119)" width="2.83" height="4.79"/>
		<rect x="115.63" y="501.27" transform="matrix(0.1951 -0.9808 0.9808 0.1951 -399.7738 520.186)" width="2.83" height="4.79"/>
		<rect x="69.61" y="459.2" transform="matrix(0.4795 -0.8775 0.8775 0.4795 -366.7319 302.9419)" width="4.79" height="2.83"/>
		<path d="M133.23,496.52c1.06-0.15,2.13-0.27,3.18-0.45l0,0l3.16-0.68l0.2-0.04l0.1-0.02l0.1-0.03l0.39-0.11l0.77-0.23l1.54-0.45
			l0.77-0.23l0.38-0.12l0.38-0.14l1.5-0.55l1.5-0.55l0.38-0.14l0.19-0.07l0.09-0.03l0.09-0.04l0.73-0.32
			c-0.01,0.07-0.01,0.07-0.03,0.2c0.19,0.05,0.18,0.05,0.29,0.07l0,0l0,0.01l0,0.01l-0.01,0.02l-0.05,0.14l-0.06,0.19l-0.12,0.38
			l-0.23,0.77l-0.22,0.77l-0.2,0.78l-0.2,0.78l-0.18,0.78l-0.18,0.78l-0.16,0.79l-0.16,0.79l-0.08,0.39l-0.07,0.4l-0.26,1.59
			l-0.2,1.6l-0.05,0.4l-0.03,0.4l-0.07,0.81l1.41,0.11l-1.42-0.11c-0.11,1.03-0.11,2.07-0.14,3.11l-4.78-0.03
			c0.03,1.04,0.01,2.07,0.11,3.12l4.77-0.33l0.13,1.57l0.23,1.56c0.07,0.52,0.18,1.04,0.31,1.55c0.13,0.51,0.22,1.03,0.38,1.54
			l2.73-0.78c0.28,0.78,0.46,1.61,0.83,2.35l4.42-1.83c-0.29-0.56-0.42-1.23-0.65-1.84l-4.6,1.31c-0.14-0.45-0.22-0.92-0.34-1.38
			c-0.12-0.46-0.22-0.93-0.28-1.4l-0.21-1.42l-0.12-1.44l4.77-0.33c-0.08-0.71-0.04-1.47-0.08-2.2l-4.79-0.03
			c0.03,0.85,0,1.71,0.09,2.55c-0.09-0.84-0.05-1.7-0.09-2.55l-1.43-0.01l1.44,0.01c0.04-0.97,0.03-1.94,0.14-2.91l0,0l0.06-0.76
			l0.03-0.38l0.05-0.38l0.19-1.51l0.25-1.51l0.06-0.38l0.08-0.38l0.15-0.75l0.15-0.75l0.17-0.75l0.17-0.75l0.19-0.74l0.2-0.74
			l0.21-0.74l0.21-0.74l0.23-0.73l0.04,0.01l1.44-5.74l-5.56,1.89l0.04,0.09l0.81,1.96l0.14,0.33l0.07,0.16l0.05,0.12l0.01,0.02
			l0,0.01l0,0.01l0,0l0,0l0,0v0l-1.09-2.62l-0.71,0.31l-0.09,0.04l-0.09,0.03l-0.18,0.07l-0.36,0.13l-1.44,0.53l-1.44,0.53
			l-0.36,0.13l-0.37,0.11l-0.73,0.22l-1.47,0.43l-0.73,0.22l-0.37,0.11l-0.09,0.03l-0.09,0.02l-0.19,0.04l-2.98,0.65l0.25,1.39
			l-0.25-1.4c-0.99,0.17-1.98,0.28-2.97,0.42l-0.5-4.76c-0.77,0.12-1.52,0.09-2.28,0.15l0.15,4.78l0.09,2.83l0.15,4.78
			c1.06-0.07,2.16-0.06,3.2-0.21L133.23,496.52z"/>
		<path d="M127.32,493.83c-1,0.01-1.96-0.22-2.94-0.33l-0.48,2.8c1.08,0.13,2.15,0.37,3.24,0.36c1.08,0.03,2.17,0.14,3.24,0.04
			l-0.09-2.84C129.3,493.97,128.31,493.86,127.32,493.83z"/>
		<rect x="53.76" y="431.23" transform="matrix(0.9522 -0.3055 0.3055 0.9522 -129.8487 37.5941)" width="2.83" height="4.79"/>
		<polygon points="54.56,436.33 50,437.8 50.87,440.5 55.42,439.03 55.42,439.03 56.89,443.59 59.59,442.73 58.12,438.17 
			57.26,435.47 		"/>
		<rect x="94.79" y="491.32" transform="matrix(0.8217 -0.5699 0.5699 0.8217 -263.4679 143.2166)" width="4.79" height="2.83"/>
		<path d="M111.32,490.51c0.42,0.35,0.87,0.68,1.3,1.01l1.71-2.27c-0.38-0.3-0.78-0.59-1.15-0.9l-1.07-1
			c-0.37-0.32-0.7-0.68-1.02-1.06l-0.97-1.1l3.73-3c-0.4-0.59-0.86-1.12-1.24-1.73l-4.01,2.61c-0.52-0.84-1.05-1.67-1.47-2.57
			c-0.48-0.87-0.84-1.79-1.23-2.7l-1.32,0.52l1.32-0.52l4.45-1.76c-0.28-0.69-0.5-1.42-0.75-2.12l-4.58,1.4
			c-0.24-0.97-0.56-1.91-0.73-2.9l-0.3-1.47l-0.21-1.48l-1.56,0.2l1.56-0.2l4.75-0.61c-0.13-0.76-0.14-1.52-0.22-2.28l-4.78,0.26
			c-0.01-1-0.09-1.99-0.03-2.99l0,0l0.05-1.18l0.01-0.15l0.02-0.15l0.03-0.29l0.06-0.59l0.06-0.59l0.03-0.29l0.01-0.07l0.01-0.07
			l0.02-0.14l0.2-1.16l0.1-0.58l0.14-0.57l0.27-1.13l0.35-1.1l0.18-0.55l0.02-0.07l0.03-0.07l0.06-0.13l0.11-0.26l0.02,0.01
			l1.28-4.57l-4.34,0.24l0,0.01l0.11,1.41l0.05,0.71l0.03,0.35l0.01,0.18l0.01,0.09l0,0.04l0,0.03l0,0.01l0,0l0,0l0,0l0,0
			l-0.22-2.83l-1.21,0.1l-0.6,0.05l-0.6,0.02l-1.35,0.03l-2.37,0.13l0-0.08l-0.05,0l-0.08,0l-0.08,0l-0.3-0.02l-0.6-0.03l-2.4-0.12
			l0,0c-1.1-0.05-2.17-0.25-3.26-0.37l0.69-4.73c-0.87-0.07-1.68-0.29-2.5-0.46l-1.03,4.67l-1.59-0.35l-1.55-0.48
			c-0.51-0.17-1.04-0.31-1.54-0.49l-1.48-0.63l1.92-4.38c-0.36-0.16-0.75-0.29-1.08-0.47l-1.01-0.57l-2.36,4.16
			c-0.96-0.47-1.8-1.13-2.68-1.74c-0.45-0.29-0.84-0.65-1.23-1.01l-1.19-1.06l-0.06,0.06l0.06-0.06l3.38-3.39
			c-0.47-0.57-1.01-1.07-1.45-1.66l-3.78,2.94c-0.61-0.87-1.27-1.7-1.76-2.65c-0.25-0.47-0.55-0.91-0.76-1.4l-0.65-1.46l4.42-1.82
			c-0.32-0.69-0.5-1.46-0.78-2.19l-4.6,1.34L64,433.07l-4.6,1.34c0.04,0.11,0.08,0.23,0.11,0.34l-2.26,0.72l0.87,2.7l2.32-0.75
			c0.06,0.14,0.11,0.28,0.17,0.42l4.42-1.82l0.72,1.63c0.24,0.54,0.57,1.04,0.85,1.57c0.55,1.06,1.28,2,1.98,2.98l1.12-0.87
			l-1.12,0.87l-3.78,2.94c0.76,1,1.64,1.9,2.48,2.83l3.38-3.38l1.33,1.19c0.44,0.4,0.88,0.8,1.38,1.13
			c0.97,0.69,1.92,1.41,2.98,1.94l0.7-1.23l-0.7,1.23L74.01,453l0.42,0.23l-1.16,2.12l-4.2-2.3l-1.36,2.49l4.2,2.3l2.49,1.36
			l4.2,2.3l1.36-2.49l-4.2-2.3h0l1.21-2.22c0.1,0.04,0.19,0.08,0.29,0.12l1.92-4.38l1.63,0.69c0.55,0.2,1.12,0.36,1.67,0.54
			l1.68,0.52l1.71,0.37l0.23-1.05l-0.23,1.05l-1.03,4.68c1.12,0.24,2.25,0.51,3.36,0.62l0.7-4.74l0.21-1.4l-0.21,1.4
			c1.15,0.13,2.3,0.34,3.46,0.39l0,0l2.53,0.13l0.63,0.03l0.39,0.02l0.08,0l0.16,0l1.26-0.03l2.52-0.05l0.63-0.02l0.63-0.05
			l1.25-0.1c-0.05,0.07-0.05,0.07-0.14,0.21c0.23,0.15,0.22,0.14,0.34,0.22l0,0l-0.03,0.07l-0.03,0.08l-0.06,0.15l-0.06,0.15
			l-0.03,0.08l-0.03,0.08l-0.2,0.62l-0.4,1.25l-0.31,1.26l-0.15,0.63l-0.11,0.64l-0.21,1.27l-0.03,0.16l-0.02,0.16l-0.03,0.32
			l-0.07,0.64l-0.06,0.64l-0.03,0.32l-0.02,0.16l-0.01,0.16l-0.05,1.28l1.42,0.04l-1.42-0.04c-0.07,1.08,0.01,2.15,0.03,3.23
			l1.42-0.08l-1.42,0.08l-4.78,0.26c0,0.04,0.01,0.09,0.01,0.13l-2.18,0.21l-0.46-4.76l-2.82,0.27l0.46,4.76l-4.76,0.46l0.27,2.82
			l4.76-0.46v0l0.46,4.76l2.82-0.27l-0.46-4.76l2.17-0.21c0.01,0.08,0.01,0.15,0.03,0.23l4.75-0.61l0.23,1.6l0.32,1.58
			c0.19,1.06,0.53,2.09,0.79,3.13l0.35-0.11l-0.35,0.11l-4.58,1.4c0.35,1.02,0.67,2.05,1.07,3.06l4.45-1.76
			c0.42,0.99,0.82,2,1.34,2.95c0.47,0.98,1.05,1.9,1.62,2.82l1.19-0.77l-1.19,0.77l-4.01,2.61c0.04,0.07,0.09,0.13,0.14,0.2
			l-1.67,1.16l-2.33,1.62l1.62,2.33l2.73,3.93l2.33-1.62l-2.73-3.93l-0.66-0.95l0.66,0.95l1.71-1.19c0.06,0.08,0.12,0.15,0.17,0.23
			l3.73-3l1.08,1.23c0.35,0.42,0.73,0.82,1.14,1.18L111.32,490.51z M86.47,449.59L86.47,449.59c0.47,0.1,0.94,0.21,1.41,0.3
			C87.41,449.8,86.94,449.69,86.47,449.59z"/>
		<path d="M170.5,531.72l0.65-4.74c-0.79-0.05-1.49-0.26-2.24-0.39l-0.94,4.69l-1.43-0.28l-1.39-0.4l-1.39-0.4
			c-0.45-0.16-0.89-0.35-1.34-0.52l1.76-4.45l-0.97-0.38c-0.32-0.13-0.59-0.31-0.89-0.46l-2.19,4.26l-0.65,1.26l0.65-1.26
			l-1.26-0.66l-1.17-0.79c-0.81-0.49-1.49-1.14-2.2-1.74l-0.97,1.04l0.96-1.04l3.26-3.51c-0.48-0.39-0.82-0.9-1.26-1.32l-3.7,3.04
			l-1.1,0.9l1.1-0.9c-0.29-0.36-0.55-0.75-0.83-1.13c-0.28-0.37-0.55-0.75-0.76-1.17l-0.69-1.22l-0.56-1.29l0,0
			c-0.37-0.74-0.55-1.57-0.83-2.35l-2.73,0.78l-4.6,1.32c0.03,0.09,0.06,0.18,0.09,0.28l-2.41,0.89l-2.66,0.98l0.98,2.66l1.66,4.49
			l2.66-0.98l-1.66-4.49l2.37-0.87c0.03,0.07,0.06,0.15,0.09,0.22l4.42-1.83l1.31-0.54l-1.31,0.54l0.64,1.47l0.79,1.4
			c0.25,0.48,0.56,0.92,0.88,1.35c0.32,0.43,0.62,0.88,0.96,1.3l-3.7,3.04c0.79,0.85,1.53,1.77,2.41,2.53l3.26-3.5
			c0.81,0.7,1.6,1.44,2.52,2c0.44,0.3,0.88,0.61,1.33,0.89l1.41,0.74l-2.19,4.25c0.08,0.04,0.16,0.08,0.24,0.13l-0.83,1.83
			l-4.36-1.97l-1.17,2.58l4.36,1.97l-1.97,4.36l2.58,1.17l1.97-4.36l4.36,1.97l1.17-2.58l-4.36-1.97l0.83-1.84l0.15,0.06l1.76-4.45
			l0.52-1.32l-0.52,1.32c0.49,0.19,0.98,0.4,1.47,0.57l1.51,0.43l1.51,0.43l1.53,0.3l-0.94,4.69c1,0.17,2.02,0.44,3,0.51l0.65-4.74
			L170.5,531.72z M161.26,529.22c-0.19-0.08-0.38-0.18-0.57-0.27C160.87,529.05,161.06,529.14,161.26,529.22l1.18,0.46
			L161.26,529.22z"/>
		<rect x="198.69" y="540.35" transform="matrix(0.9113 -0.4118 0.4118 0.9113 -205.7642 130.5796)" width="2.83" height="4.79"/>
		<path d="M225.01,493.88l0.15-4.78c-0.76-0.06-1.51-0.03-2.28-0.15l-0.5,4.76c-0.99-0.14-1.99-0.25-2.97-0.42l-0.25,1.4l0.25-1.39
			l-2.98-0.65l-0.19-0.04l-0.09-0.02l-0.09-0.03l-0.37-0.11l-0.73-0.22l-1.47-0.43l-0.73-0.22l-0.37-0.11l-0.36-0.13l-1.44-0.53
			l-1.44-0.53l-0.36-0.13l-0.18-0.07l-0.09-0.03l-0.09-0.04l-0.71-0.31l-1.09,2.62v0l0,0l0,0l0,0l0-0.01l0-0.01l0.01-0.02l0.05-0.12
			l0.07-0.16l0.14-0.33l0.81-1.96l0.04-0.09l-5.56-1.89l1.44,5.74l0.04-0.01l0.23,0.73l0.21,0.74l0.21,0.74l0.2,0.74l0.19,0.74
			l0.17,0.75l0.17,0.75l0.15,0.75l0.15,0.75l0.08,0.38l0.06,0.38l0.25,1.51l0.19,1.51l0.05,0.38l0.03,0.38l0.06,0.76l0,0
			c0.1,0.97,0.1,1.94,0.14,2.91l1.44-0.01l-1.43,0.01c-0.02,0.43-0.02,0.85-0.02,1.28c0.01-0.43,0.01-0.85,0.02-1.28l-4.79,0.03
			c-0.04,0.73,0,1.49-0.08,2.2l4.77,0.33l-0.12,1.44l-0.21,1.42c-0.06,0.48-0.16,0.94-0.28,1.4c-0.11,0.46-0.2,0.93-0.34,1.38
			l-4.6-1.31c-0.23,0.61-0.36,1.28-0.65,1.84l4.42,1.83c0.37-0.74,0.55-1.57,0.83-2.35l2.73,0.78c0.15-0.51,0.25-1.03,0.38-1.54
			c0.13-0.51,0.24-1.03,0.31-1.55l0.23-1.56l0.13-1.57l4.77,0.33c0.1-1.06,0.07-2.08,0.11-3.12l-4.78,0.03
			c-0.04-1.04-0.04-2.08-0.14-3.11l-1.42,0.11l1.41-0.11l-0.07-0.81l-0.03-0.4l-0.05-0.4l-0.2-1.6l-0.26-1.59l-0.07-0.4l-0.08-0.39
			l-0.16-0.79l-0.16-0.79l-0.18-0.78l-0.18-0.78l-0.2-0.78l-0.2-0.78l-0.22-0.77l-0.23-0.77l-0.12-0.38l-0.06-0.19l-0.05-0.14
			l-0.01-0.02l0-0.01l0-0.01l0,0c0.1-0.03,0.1-0.02,0.29-0.07c-0.02-0.13-0.02-0.13-0.03-0.2l0.73,0.32l0.09,0.04l0.09,0.03
			l0.19,0.07l0.38,0.14l1.5,0.55l1.5,0.55l0.38,0.14l0.38,0.12l0.77,0.23l1.54,0.45l0.77,0.23l0.39,0.11l0.1,0.03l0.1,0.02l0.2,0.04
			l3.16,0.68l0,0c1.05,0.18,2.12,0.3,3.18,0.45l-0.5,4.76c1.04,0.15,2.13,0.14,3.2,0.21l0.15-4.78L225.01,493.88z"/>
		<path d="M231.4,496.31l-0.48-2.8c-0.98,0.11-1.94,0.34-2.94,0.33c-0.99,0.03-1.98,0.13-2.97,0.04l-0.09,2.84
			c1.07,0.1,2.16-0.01,3.24-0.04C229.25,496.67,230.32,496.43,231.4,496.31z"/>
		<rect x="133.67" y="521.5" transform="matrix(0.9382 -0.3461 0.3461 0.9382 -172.5844 79.4178)" width="4.79" height="2.83"/>
		<path d="M240.99,489.25l-2.87-3.83c-0.51,0.45-1.12,0.76-1.68,1.12l2.41,4.13c-0.4,0.28-0.85,0.48-1.29,0.69l-1.32,0.64
			c-0.93,0.3-1.82,0.71-2.78,0.94l-1.28-4.61c-0.69,0.13-1.33,0.39-2.05,0.45l0.8,4.72l0.48,2.79l0.8,4.72
			c0.07-0.01,0.13-0.02,0.2-0.03l0.46,2.3l-4.7,0.93l0.55,2.78l4.7-0.93l2.78-0.55l-0.55-2.78l-0.47-2.37
			c0.11-0.03,0.23-0.06,0.34-0.08l-1.28-4.61l-0.38-1.37l0.38,1.37c1.06-0.26,2.07-0.71,3.11-1.05l1.49-0.71
			c0.5-0.24,0.99-0.47,1.45-0.78l-0.72-1.23l0.71,1.22l2.41,4.14c0.98-0.61,1.99-1.19,2.88-1.92l-2.87-3.83L240.99,489.25z"/>
		<rect x="136.9" y="515.63" transform="matrix(0.9382 -0.3461 0.3461 0.9382 -170.7475 79.894)" width="2.83" height="4.79"/>
		<rect x="235.87" y="502.25" transform="matrix(0.9808 -0.1951 0.1951 0.9808 -93.7059 56.1779)" width="4.79" height="2.83"/>
		<path d="M185.19,534.53l-0.38-2.81l-2.91,0.32l-2.94,0.12l0.04,1.42l-0.04-1.42l-0.12-4.79c-0.39,0.03-0.78,0.04-1.17,0.03
			c-0.4,0-0.79-0.01-1.17-0.03l-0.12,4.79l-0.04,1.42l0.04-1.42l-2.94-0.12l-2.91-0.32l-0.38,2.81l3.08,0.34l3.08,0.13l-0.12,4.78
			c0.05,0,0.1,0,0.16,0l-0.05,2.54l-4.79-0.09l-0.05,2.83l4.79,0.09l-0.09,4.79l2.83,0.05l0.09-4.79l4.79,0.09l0.05-2.83l-4.79-0.09
			l0.05-2.6h0l0-0.02l0.04-2.17l-0.1,0l-0.07-2.6l3.08-0.13L185.19,534.53z"/>
		<path d="M219.15,516.27l-2.66-0.98l-1.66,4.49l-2.41-0.89c0.03-0.09,0.06-0.18,0.09-0.28l-4.6-1.32l-2.73-0.78
			c-0.28,0.78-0.46,1.61-0.83,2.35l0,0l-0.56,1.29l-0.69,1.22c-0.21,0.42-0.48,0.8-0.76,1.17c-0.28,0.37-0.53,0.77-0.83,1.13
			l1.1,0.9l-1.1-0.9l-3.7-3.04c-0.44,0.42-0.78,0.93-1.26,1.32l3.26,3.51l0.96,1.04l-0.97-1.04c-0.71,0.61-1.39,1.25-2.2,1.74
			l-1.17,0.79l-1.26,0.66l0.65,1.26l-0.65-1.26l-2.19-4.26c-0.3,0.15-0.57,0.33-0.89,0.46l-0.97,0.38l1.76,4.45
			c-0.45,0.17-0.88,0.36-1.34,0.52l-1.39,0.4l-1.39,0.4l-1.43,0.28l-0.94-4.69c-0.75,0.12-1.45,0.33-2.24,0.39l0.65,4.74l0.38,2.81
			l0.65,4.74c0.98-0.08,2-0.34,3-0.51l-0.94-4.69l1.53-0.3l1.51-0.43l1.51-0.43c0.5-0.17,0.98-0.38,1.47-0.57l-0.52-1.32l0.52,1.32
			l1.76,4.45l0.15-0.06l0.83,1.84l-4.36,1.97l1.17,2.58l4.36-1.97l2.58-1.17l4.36-1.97l-1.17-2.58l-4.36,1.97l-0.83-1.83
			c0.08-0.04,0.16-0.09,0.24-0.13l-2.19-4.25l1.41-0.74c0.45-0.29,0.89-0.59,1.33-0.89c0.91-0.56,1.7-1.3,2.52-2l3.26,3.5
			c0.87-0.76,1.61-1.68,2.41-2.53l-3.7-3.04c0.34-0.42,0.64-0.87,0.96-1.3c0.32-0.43,0.63-0.87,0.88-1.35l0.79-1.4l0.64-1.47
			l-1.31-0.54l1.31,0.54l4.42,1.83c0.04-0.07,0.06-0.15,0.09-0.22l2.37,0.87l-1.66,4.49l2.66,0.98l1.66-4.49l4.49,1.66l0.98-2.66
			l-4.49-1.66L219.15,516.27z M194.05,529.22l-1.18,0.46L194.05,529.22c0.19-0.08,0.38-0.18,0.57-0.27
			C194.43,529.05,194.25,529.14,194.05,529.22z"/>
		<rect x="202.62" y="455.51" transform="matrix(0.8312 -0.556 0.556 0.8312 -219.4347 191.1135)" width="4.79" height="2.83"/>
		<rect x="157.83" y="459.38" transform="matrix(0.5043 -0.8635 0.8635 0.5043 -319.8135 366.4044)" width="2.83" height="4.79"/>
		<path d="M203.87,447.03l3.39,3.38c0.4-0.4,0.82-0.78,1.19-1.21l1.1-1.29l-3.66-3.08l1.09-1.3l0.97-1.39l0.96-1.4
			c0.29-0.49,0.55-0.99,0.83-1.48l-2.29-1.28l2.29,1.28l4.18,2.34c0.04-0.08,0.08-0.15,0.12-0.23l2.2,1.06l-2.08,4.31l2.55,1.23
			l2.08-4.31l4.31,2.08l1.23-2.55l-4.31-2.08l2.08-4.31l-2.55-1.23l-2.08,4.31l-2.15-1.03c0.04-0.09,0.09-0.18,0.13-0.27l-4.36-1.98
			l-2.06-0.94l2.07,0.94c0.43-1.04,0.96-2.05,1.25-3.15l0.52-1.62l0.26-0.81l0.18-0.83l4.65,1.12c0.23-1.11,0.5-2.21,0.67-3.33
			l-4.73-0.72l-1.4-0.21l1.4,0.21l0.09-0.78h0.12v-1.1l0.16-1.49l0.02-2.2h1.57h3.03h1.75v4.79h2.83v-4.79h4.79v-2.83h-4.79v-4.79
			h-2.83v4.79h-1.75h-3.03h-1.57l-0.02-2.2l-0.16-1.49v-1.1h-0.12l-0.09-0.78l-1.4,0.21l1.4-0.21l4.73-0.72
			c-0.17-1.12-0.44-2.22-0.67-3.33l-4.65,1.12l-0.18-0.83l-0.26-0.81l-0.52-1.62c-0.3-1.09-0.82-2.1-1.25-3.15l-2.07,0.94l2.06-0.94
			l4.36-1.98c-0.04-0.09-0.09-0.18-0.13-0.27l2.15-1.03l2.08,4.31l2.55-1.23l-2.08-4.31l4.31-2.08l-1.23-2.55l-4.31,2.08l-2.08-4.31
			l-2.55,1.23l2.08,4.31l-2.2,1.06c-0.04-0.07-0.08-0.15-0.12-0.23l-4.18,2.34l-2.29,1.28l2.29-1.28c-0.28-0.49-0.54-0.99-0.83-1.48
			l-0.96-1.4l-0.97-1.39l-1.09-1.3l3.66-3.08l-1.1-1.29c-0.37-0.43-0.79-0.8-1.19-1.21l-3.39,3.38c-0.81-0.79-1.59-1.61-2.5-2.29
			c-0.88-0.7-1.74-1.45-2.71-2.04l2.7-3.95l-0.21-0.14l1.09-1.63l1.58-2.36l2.66-3.98l-2.36-1.58l-2.66,3.98l-3.98-2.66l-1.58,2.36
			l3.98,2.66l-1.13,1.69l-0.27-0.15l-2.36,4.16l-1.5-0.8c-0.5-0.27-0.99-0.54-1.53-0.74c-1.05-0.41-2.07-0.91-3.16-1.24l1.53-4.53
			c-1.08-0.33-2.17-0.67-3.26-0.97l-1.14,4.65l-3.33-0.65l-3.38-0.32l0.24-4.78c-0.11-0.01-0.23,0-0.34-0.01l0-2.09l4.79-0.01
			l0-2.83l-4.79,0.01l-0.01-4.79l-2.83,0l0.01,4.79l-4.79,0.01l0,2.83l4.79-0.01l0,2.08c-0.07,0-0.14,0-0.21,0l0.15,4.78
			c-1.13-0.04-2.25,0.18-3.38,0.27c-1.13,0.08-2.23,0.35-3.34,0.58l-1.04-4.67c-0.55,0.12-1.11,0.23-1.66,0.37l-1.62,0.51l1.43,4.57
			l0.85,2.7l1.31-0.42l1.35-0.29v0l-1.35,0.29l-1.31,0.42l1.43,4.57l1.12-0.37l1.15-0.24l-1.04-4.67c1.02-0.21,2.03-0.47,3.07-0.54
			c1.04-0.08,2.07-0.3,3.11-0.25l0.15,4.78c0.79,0.01,1.58-0.04,2.36,0l0.24-4.78l3.11,0.3l3.06,0.6l0.34-1.38l-0.34,1.38
			l-1.14,4.65l2.25,0.68l1.53-4.54l0.45-1.34l-0.45,1.35c1,0.29,1.93,0.77,2.91,1.14c0.49,0.18,0.95,0.43,1.4,0.68l1.38,0.73
			l-2.36,4.16l0.52,0.27l0.49,0.33l0.98,0.65l2.7-3.95c0.9,0.54,1.68,1.23,2.49,1.88c0.84,0.62,1.56,1.38,2.3,2.11l-3.39,3.38
			c0.27,0.28,0.58,0.53,0.83,0.83l0.76,0.91l3.66-3.08l1.01,1.19l0.89,1.29l0.89,1.28l0.76,1.36l-4.17,2.34
			c0.38,0.69,0.79,1.36,1.07,2.1l4.36-1.98c0.39,0.96,0.88,1.89,1.15,2.9l0.48,1.49l0.24,0.74l0.16,0.76l-4.65,1.12
			c0.15,0.77,0.35,1.53,0.47,2.31l4.73-0.72l0.18,1.63v3.51h-4.79v2.83h4.79v3.51l-0.18,1.63l-4.73-0.72
			c-0.12,0.78-0.33,1.54-0.47,2.31l4.65,1.12l-0.16,0.76l-0.24,0.74l-0.48,1.49c-0.27,1.01-0.76,1.94-1.15,2.9l-4.36-1.98
			c-0.27,0.74-0.68,1.41-1.07,2.1l4.17,2.34l-0.76,1.36l-0.89,1.28l-0.89,1.29l-1.01,1.19l-3.66-3.08l-0.76,0.91
			c-0.25,0.3-0.56,0.55-0.83,0.83l3.39,3.38c-0.75,0.73-1.46,1.48-2.3,2.11c-0.81,0.65-1.6,1.34-2.49,1.88l-2.7-3.95l-0.98,0.65
			l-0.49,0.33l-0.52,0.27l2.36,4.16l-1.38,0.73c-0.46,0.25-0.91,0.5-1.4,0.68c-0.97,0.37-1.91,0.84-2.91,1.14l0.45,1.35l-0.45-1.34
			l-1.53-4.54l-2.25,0.68l1.14,4.65l0.34,1.38l-0.34-1.38l-3.06,0.6l-3.11,0.3l-0.24-4.78c-0.79,0.04-1.58-0.01-2.36,0l-0.15,4.78
			c-1.04,0.05-2.07-0.17-3.11-0.25c-1.04-0.07-2.05-0.33-3.07-0.54l1.04-4.67l-1.15-0.24l-1.12-0.37l-1.43,4.57l1.31,0.42l1.35,0.29
			v0l-1.35-0.29l-1.31-0.42l-0.85,2.7l-1.43,4.57l1.62,0.51c0.55,0.14,1.1,0.25,1.66,0.37l1.04-4.67c1.11,0.23,2.21,0.51,3.34,0.58
			c1.13,0.1,2.24,0.31,3.38,0.27l-0.15,4.78c0.07,0,0.14,0,0.21,0l0,2.08l-4.79-0.01l0,2.83l4.79,0.01l-0.01,4.79l2.83,0l0.01-4.79
			l4.79,0.01l0-2.83l-4.79-0.01l0-2.09c0.11,0,0.23,0,0.34-0.01l-0.24-4.78l3.38-0.32l3.33-0.65l1.14,4.65
			c1.09-0.3,2.17-0.64,3.26-0.97l-1.53-4.53c1.08-0.32,2.1-0.83,3.16-1.24c0.53-0.2,1.03-0.47,1.53-0.74l1.5-0.8l2.36,4.16
			l0.27-0.15l1.13,1.69l-3.98,2.66l1.58,2.36l3.98-2.66l2.66,3.98l2.36-1.58l-2.66-3.98l-1.58-2.36l-1.09-1.63l0.21-0.14l-2.7-3.95
			c0.97-0.59,1.82-1.34,2.71-2.04C202.27,448.64,203.06,447.82,203.87,447.03z M195.33,390.37l-0.61-0.32l0.7-1.23l-0.7,1.23
			L195.33,390.37l0.57,0.38L195.33,390.37z M203.72,397.53l-0.89-1.06c-0.3-0.35-0.65-0.65-0.97-0.98c0.32,0.33,0.67,0.63,0.97,0.98
			L203.72,397.53L203.72,397.53z M208.51,405.11L208.51,405.11c-0.16-0.43-0.36-0.84-0.58-1.25
			C208.15,404.27,208.35,404.68,208.51,405.11L208.51,405.11z M211.09,413.71c-0.07-0.45-0.16-0.9-0.26-1.35
			C210.93,412.8,211.02,413.25,211.09,413.71L211.09,413.71z M211.09,426.82L211.09,426.82c-0.07,0.45-0.16,0.9-0.26,1.35
			C210.93,427.73,211.02,427.28,211.09,426.82z M208.51,435.42L208.51,435.42L208.51,435.42c-0.16,0.43-0.37,0.84-0.58,1.25
			C208.15,436.26,208.35,435.85,208.51,435.42z M202.83,444.05l0.89-1.06l0,0L202.83,444.05c-0.3,0.35-0.65,0.65-0.97,0.98
			C202.18,444.7,202.53,444.4,202.83,444.05z M195.42,451.72l-0.7-1.23l0.61-0.32l0.57-0.38l-0.57,0.38l-0.61,0.32L195.42,451.72z"
			/>
		<path d="M158.95,442.06c-0.54-0.57-1.12-1.11-1.64-1.7l-3.6,3.16c0.61,0.69,1.28,1.32,1.91,1.99L158.95,442.06z"/>
		<path d="M159.25,457.5l2.27-4.21c0.97,0.59,2.02,1.02,3.06,1.46c0.52,0.21,1.03,0.47,1.57,0.65l1.62,0.52l0.85-2.71l-1.49-0.47
			c-0.5-0.16-0.96-0.4-1.44-0.6c-0.96-0.41-1.92-0.8-2.81-1.35l2.27-4.21c-0.67-0.4-1.41-0.71-2.03-1.2l-2.62,4.01l-1.29-0.89
			c-0.44-0.29-0.86-0.59-1.24-0.94l-1.19-1.01c-0.4-0.33-0.8-0.67-1.15-1.05l-0.99,1.02l0.98-1.02c-0.63-0.67-1.31-1.3-1.91-1.99
			l-1.07,0.93l1.07-0.94c-0.65-0.82-1.32-1.61-1.95-2.44c-0.57-0.87-1.16-1.73-1.71-2.61l4.13-2.42l-1.1-2.08l-4.31,2.07
			c-0.44-0.94-0.8-1.92-1.21-2.88c-0.36-0.97-0.62-1.99-0.93-2.98l-2.68,0.7l2.68-0.7l4.63-1.22c-0.23-0.75-0.31-1.54-0.49-2.3
			l-4.71,0.82c-0.25-1.01-0.26-2.06-0.38-3.1c0-0.03,0-0.05-0.01-0.08v-2.61h4.79v-2.83h-4.79v-2.61c0-0.03,0-0.05,0.01-0.08
			c0.12-1.03,0.13-2.08,0.38-3.1l4.71,0.82c0.17-0.76,0.26-1.55,0.49-2.3l-4.63-1.22l-2.68-0.7l2.68,0.7c0.32-0.99,0.57-2,0.93-2.98
			c0.41-0.96,0.77-1.94,1.21-2.88l4.31,2.07l1.1-2.08l-4.13-2.42c0.55-0.88,1.14-1.74,1.71-2.61c0.62-0.83,1.3-1.63,1.95-2.44
			l-1.07-0.94l1.07,0.93c0.61-0.69,1.28-1.32,1.91-1.99l-0.98-1.02l0.99,1.02c0.35-0.39,0.75-0.72,1.15-1.05l1.19-1.01
			c0.39-0.35,0.81-0.65,1.24-0.94l1.29-0.89l2.62,4.01c0.62-0.49,1.35-0.79,2.03-1.2l-2.27-4.21c0.89-0.55,1.86-0.94,2.81-1.35
			c0.48-0.2,0.95-0.44,1.44-0.6l1.49-0.47l-0.85-2.71l-1.62,0.52c-0.54,0.17-1.04,0.43-1.57,0.65c-1.04,0.45-2.09,0.88-3.06,1.46
			l-2.27-4.21c-0.07,0.04-0.14,0.08-0.21,0.12l-1.14-1.96l-1.43-2.45h0l-2.41-4.13l-2.45,1.43l2.41,4.13l-4.13,2.41l1.43,2.45
			l4.13-2.41l1.15,1.96c-0.09,0.06-0.18,0.11-0.26,0.18l2.62,4.01l-1.4,0.96c-0.47,0.31-0.93,0.64-1.35,1.02l-1.3,1.09
			c-0.44,0.36-0.87,0.73-1.25,1.14l-3.32-3.44c-0.79,0.81-1.6,1.6-2.35,2.45l3.6,3.15c-0.7,0.88-1.44,1.75-2.11,2.65
			c-0.62,0.95-1.26,1.88-1.86,2.84l1.22,0.72l-1.22-0.72l-4.13-2.42l-0.1,0.18l-1.73-0.99l2.37-4.16l-2.46-1.4L139.2,396l-4.16-2.37
			l-1.4,2.46l4.16,2.37l-2.37,4.16l2.46,1.4l2.37-4.16l1.8,1.03l-0.17,0.32l4.31,2.07c-0.48,1.02-0.88,2.08-1.32,3.13
			c-0.39,1.06-0.67,2.16-1.01,3.24l-4.63-1.21c-0.32,1.09-0.47,2.22-0.71,3.32l4.71,0.82c-0.12,0.49-0.19,0.99-0.24,1.49h-0.19v1.99
			c-0.11,0.93-0.1,1.86-0.09,2.8h-2.69h-2.01h-2.57l-0.21-3.69v-1.1h-2.83v1.14l0,0l0,0.03v3.61h-4.79v2.83h4.79v3.61l0,0.03l0,0
			v1.14h2.83v-1.1l0.21-3.69h2.57h2.01h2.69c-0.01,0.93-0.02,1.87,0.09,2.8v1.99h0.19c0.05,0.5,0.12,1,0.24,1.49l-4.71,0.82
			c0.23,1.11,0.39,2.24,0.71,3.32l4.63-1.21c0.34,1.08,0.62,2.18,1.01,3.24c0.44,1.04,0.84,2.1,1.32,3.13l-4.31,2.07l0.17,0.32
			l-1.8,1.03l-2.37-4.16l-2.46,1.4l2.37,4.16l-4.16,2.37l1.4,2.46l4.16-2.37l2.37,4.16l2.46-1.4l-2.37-4.16l1.73-0.99l0.1,0.18
			l4.13-2.42l1.22-0.72l-1.22,0.72c0.59,0.96,1.24,1.89,1.86,2.84c0.67,0.91,1.41,1.77,2.11,2.65l-3.6,3.15
			c0.75,0.85,1.56,1.63,2.35,2.45l3.32-3.44c0.38,0.42,0.81,0.78,1.25,1.14l1.3,1.09c0.42,0.38,0.88,0.71,1.35,1.02l1.4,0.96
			l-2.62,4.01c0.08,0.06,0.18,0.12,0.26,0.18l-1.15,1.96l-4.13-2.41l-1.43,2.45l4.13,2.41l-2.41,4.13l2.45,1.43l2.41-4.13h0
			l1.43-2.45l1.14-1.96C159.11,457.42,159.18,457.46,159.25,457.5z M160.5,449.39c0.18,0.14,0.37,0.27,0.57,0.39
			C160.87,449.66,160.68,449.54,160.5,449.39l-0.49,0.75L160.5,449.39z M160.5,391.14c0.18-0.14,0.37-0.27,0.57-0.39
			C160.87,390.87,160.68,391,160.5,391.14l-0.49-0.75L160.5,391.14z"/>
	</g>
</g>
<g>
</g>
<g>
</g>
<g>
</g>
<g>
</g>
<g>
</g>
<g>
</g>
<g>
</g>
<g>
</g>
<g>
</g>
<g>
</g>
<g>
</g>
<g>
</g>
<g>
</g>
<g>
</g>
<g>
</g>
</svg>
