<?xml version="1.0" encoding="utf-8"?>
<!-- Generator: Adobe Illustrator 27.2.0, SVG Export Plug-In . SVG Version: 6.00 Build 0)  -->
<svg version="1.1" id="Layer_1" xmlns="http://www.w3.org/2000/svg" xmlns:xlink="http://www.w3.org/1999/xlink" x="0px" y="0px"
	 viewBox="0 0 800 600" style="enable-background:new 0 0 800 600;" xml:space="preserve">
<g>
	<g>
		<g>
			<polygon points="136.42,549.98 178.38,508.03 220.33,549.98 220.31,550 224.56,550 224.57,549.98 178.38,503.79 132.18,549.98 
				132.2,550 136.44,550 			"/>
			
				<rect x="227.09" y="523.65" transform="matrix(0.7115 -0.7027 0.7027 0.7115 -302.7361 322.6529)" width="29.01" height="12.76"/>
			<polygon points="238.74,547.79 240.92,550 240.92,550 254.67,550 254.66,550 268.35,536.48 259.39,527.4 			"/>
			<polygon points="271.34,539.51 260.71,550 260.72,550 278.87,550 278.87,550 280.3,548.58 			"/>
			<polygon points="160.48,464.25 178.38,481.92 178.38,481.91 196.27,464.25 187.3,455.17 178.38,463.99 169.45,455.17 			"/>
			<polygon points="74.29,549.98 178.38,445.9 282.47,549.98 282.45,550 286.69,550 286.71,549.98 178.38,441.65 70.04,549.98 
				70.06,550 74.3,550 			"/>
			<polygon points="96.03,550 96.04,550 85.42,539.51 76.45,548.58 77.88,550 77.88,550 			"/>
			<polygon points="178.38,446.28 178.38,446.28 178.38,446.28 172.51,452.22 178.38,458.01 178.38,458.01 178.38,458.01 
				178.38,458.01 184.24,452.22 178.38,446.28 178.38,446.28 			"/>
			
				<rect x="215.06" y="511.63" transform="matrix(0.7115 -0.7026 0.7026 0.7115 -297.7542 310.7316)" width="29.01" height="12.76"/>
			<polygon points="120.39,549.98 178.38,492 236.36,549.98 236.35,550 240.59,550 240.61,549.98 178.38,487.75 116.15,549.98 
				116.16,550 120.4,550 			"/>
			
				<rect x="108.78" y="515.53" transform="matrix(0.7027 -0.7115 0.7115 0.7027 -342.8937 239.5387)" width="12.76" height="29.01"/>
			<rect x="120.8" y="503.5" transform="matrix(0.7027 -0.7115 0.7115 0.7027 -330.761 244.5205)" width="12.76" height="29.01"/>
			<polygon points="88.4,536.48 102.09,550 102.08,550 115.83,550 115.83,550 118.01,547.79 97.37,527.41 			"/>
			<rect x="132.83" y="491.48" transform="matrix(0.7027 -0.7115 0.7115 0.7027 -318.6275 249.501)" width="12.76" height="29.01"/>
			<polygon points="54.26,550 54.24,549.98 178.38,425.85 302.51,549.98 302.5,550 306.74,550 306.75,549.98 178.38,421.61 
				50,549.98 50.02,550 			"/>
			<rect x="203.04" y="499.6" transform="matrix(0.7115 -0.7027 0.7027 0.7115 -292.7745 298.8156)" width="29.01" height="12.76"/>
			
				<rect x="144.86" y="479.45" transform="matrix(0.7027 -0.7115 0.7115 0.7027 -306.4941 254.4815)" width="12.76" height="29.01"/>
			<rect x="191.01" y="487.58" transform="matrix(0.7115 -0.7027 0.7027 0.7115 -287.7933 286.896)" width="29.01" height="12.76"/>
			
				<rect x="178.98" y="475.55" transform="matrix(0.7115 -0.7027 0.7027 0.7115 -282.8115 274.9748)" width="29.01" height="12.76"/>
			
				<rect x="156.88" y="467.42" transform="matrix(0.7027 -0.7115 0.7115 0.7027 -294.3614 259.4633)" width="12.76" height="29.01"/>
		</g>
		<g>
			<g>
				<rect x="177.27" y="543.2" width="2.2" height="2.2"/>
				<rect x="179.48" y="543.2" width="2.2" height="2.2"/>
				<rect x="181.68" y="543.2" width="2.2" height="2.2"/>
				<rect x="183.89" y="543.2" width="2.2" height="2.2"/>
				<rect x="186.09" y="543.2" width="2.2" height="2.2"/>
				<rect x="186.09" y="545.4" width="2.2" height="2.2"/>
				<rect x="186.09" y="547.6" width="2.2" height="2.2"/>
				<rect x="186.09" y="540.99" width="2.2" height="2.2"/>
				<rect x="186.09" y="538.79" width="2.2" height="2.2"/>
				<rect x="188.3" y="543.2" width="2.2" height="2.2"/>
				<rect x="190.5" y="543.2" width="2.2" height="2.2"/>
				<rect x="177.27" y="545.4" width="2.2" height="2.2"/>
				<rect x="177.27" y="547.6" width="2.2" height="2.2"/>
				<rect x="175.07" y="543.2" width="2.2" height="2.2"/>
				<rect x="172.87" y="543.2" width="2.2" height="2.2"/>
				<rect x="170.66" y="543.2" width="2.2" height="2.2"/>
				<rect x="168.46" y="543.2" width="2.2" height="2.2"/>
				<rect x="168.46" y="545.4" width="2.2" height="2.2"/>
				<rect x="168.46" y="547.6" width="2.2" height="2.2"/>
				<rect x="168.46" y="540.99" width="2.2" height="2.2"/>
				<rect x="168.46" y="538.79" width="2.2" height="2.2"/>
				<rect x="166.25" y="543.2" width="2.2" height="2.2"/>
				<rect x="164.05" y="543.2" width="2.2" height="2.2"/>
				<rect x="177.27" y="540.99" width="2.2" height="2.2"/>
				<rect x="177.27" y="538.79" width="2.2" height="2.2"/>
				<rect x="177.27" y="536.58" width="2.2" height="2.2"/>
				<rect x="177.27" y="534.38" width="2.2" height="2.2"/>
				<rect x="175.07" y="534.38" width="2.2" height="2.2"/>
				<rect x="172.87" y="534.38" width="2.2" height="2.2"/>
				<rect x="179.48" y="534.38" width="2.2" height="2.2"/>
				<rect x="181.68" y="534.38" width="2.2" height="2.2"/>
				<rect x="177.27" y="532.17" width="2.2" height="2.2"/>
				<rect x="177.27" y="529.97" width="2.2" height="2.2"/>
			</g>
			<g>
				<rect x="194.91" y="543.2" width="2.2" height="2.2"/>
				<rect x="197.11" y="543.2" width="2.2" height="2.2"/>
				<rect x="199.32" y="543.2" width="2.2" height="2.2"/>
				<rect x="201.52" y="543.2" width="2.2" height="2.2"/>
				<rect x="203.72" y="543.2" width="2.2" height="2.2"/>
				<rect x="203.72" y="545.4" width="2.2" height="2.2"/>
				<rect x="203.72" y="547.6" width="2.2" height="2.2"/>
				<rect x="203.72" y="540.99" width="2.2" height="2.2"/>
				<rect x="203.72" y="538.79" width="2.2" height="2.2"/>
				<rect x="205.93" y="543.2" width="2.2" height="2.2"/>
				<rect x="208.13" y="543.2" width="2.2" height="2.2"/>
				<rect x="194.91" y="545.4" width="2.2" height="2.2"/>
				<rect x="194.91" y="547.6" width="2.2" height="2.2"/>
				<rect x="192.7" y="543.2" width="2.2" height="2.2"/>
				<rect x="190.5" y="543.2" width="2.2" height="2.2"/>
				<rect x="188.3" y="543.2" width="2.2" height="2.2"/>
				<rect x="186.09" y="543.2" width="2.2" height="2.2"/>
				<rect x="186.09" y="545.4" width="2.2" height="2.2"/>
				<rect x="186.09" y="547.6" width="2.2" height="2.2"/>
				<rect x="186.09" y="540.99" width="2.2" height="2.2"/>
				<rect x="186.09" y="538.79" width="2.2" height="2.2"/>
				<rect x="183.89" y="543.2" width="2.2" height="2.2"/>
				<rect x="181.68" y="543.2" width="2.2" height="2.2"/>
				<rect x="194.91" y="540.99" width="2.2" height="2.2"/>
				<rect x="194.91" y="538.79" width="2.2" height="2.2"/>
				<rect x="194.91" y="536.58" width="2.2" height="2.2"/>
				<rect x="194.91" y="534.38" width="2.2" height="2.2"/>
				<rect x="192.7" y="534.38" width="2.2" height="2.2"/>
				<rect x="190.5" y="534.38" width="2.2" height="2.2"/>
				<rect x="197.11" y="534.38" width="2.2" height="2.2"/>
				<rect x="199.32" y="534.38" width="2.2" height="2.2"/>
				<rect x="194.91" y="532.17" width="2.2" height="2.2"/>
				<rect x="194.91" y="529.97" width="2.2" height="2.2"/>
			</g>
			<g>
				<rect x="159.64" y="543.2" width="2.2" height="2.2"/>
				<rect x="161.84" y="543.2" width="2.2" height="2.2"/>
				<rect x="164.05" y="543.2" width="2.2" height="2.2"/>
				<rect x="166.25" y="543.2" width="2.2" height="2.2"/>
				<rect x="168.46" y="543.2" width="2.2" height="2.2"/>
				<rect x="168.46" y="545.4" width="2.2" height="2.2"/>
				<rect x="168.46" y="547.6" width="2.2" height="2.2"/>
				<rect x="168.46" y="540.99" width="2.2" height="2.2"/>
				<rect x="168.46" y="538.79" width="2.2" height="2.2"/>
				<rect x="170.66" y="543.2" width="2.2" height="2.2"/>
				<rect x="172.87" y="543.2" width="2.2" height="2.2"/>
				<rect x="159.64" y="545.4" width="2.2" height="2.2"/>
				<rect x="159.64" y="547.6" width="2.2" height="2.2"/>
				<rect x="157.44" y="543.2" width="2.2" height="2.2"/>
				<rect x="155.23" y="543.2" width="2.2" height="2.2"/>
				<rect x="153.03" y="543.2" width="2.2" height="2.2"/>
				<rect x="150.82" y="543.2" width="2.2" height="2.2"/>
				<rect x="150.82" y="545.4" width="2.2" height="2.2"/>
				<rect x="150.82" y="547.6" width="2.2" height="2.2"/>
				<rect x="150.82" y="540.99" width="2.2" height="2.2"/>
				<rect x="150.82" y="538.79" width="2.2" height="2.2"/>
				<rect x="148.62" y="543.2" width="2.2" height="2.2"/>
				<rect x="146.41" y="543.2" width="2.2" height="2.2"/>
				<rect x="159.64" y="540.99" width="2.2" height="2.2"/>
				<rect x="159.64" y="538.79" width="2.2" height="2.2"/>
				<rect x="159.64" y="536.58" width="2.2" height="2.2"/>
				<rect x="159.64" y="534.38" width="2.2" height="2.2"/>
				<rect x="157.44" y="534.38" width="2.2" height="2.2"/>
				<rect x="155.23" y="534.38" width="2.2" height="2.2"/>
				<rect x="161.84" y="534.38" width="2.2" height="2.2"/>
				<rect x="164.05" y="534.38" width="2.2" height="2.2"/>
				<rect x="159.64" y="532.17" width="2.2" height="2.2"/>
				<rect x="159.64" y="529.97" width="2.2" height="2.2"/>
			</g>
			<g>
				<rect x="177.27" y="547.6" width="2.2" height="2.2"/>
			</g>
			<g>
				<rect x="177.27" y="525.56" width="2.2" height="2.2"/>
				<rect x="179.48" y="525.56" width="2.2" height="2.2"/>
				<rect x="181.68" y="525.56" width="2.2" height="2.2"/>
				<rect x="183.89" y="525.56" width="2.2" height="2.2"/>
				<rect x="186.09" y="525.56" width="2.2" height="2.2"/>
				<rect x="186.09" y="527.77" width="2.2" height="2.2"/>
				<rect x="186.09" y="529.97" width="2.2" height="2.2"/>
				<rect x="186.09" y="523.36" width="2.2" height="2.2"/>
				<rect x="186.09" y="521.15" width="2.2" height="2.2"/>
				<rect x="188.3" y="525.56" width="2.2" height="2.2"/>
				<rect x="190.5" y="525.56" width="2.2" height="2.2"/>
				<rect x="177.27" y="527.77" width="2.2" height="2.2"/>
				<rect x="177.27" y="529.97" width="2.2" height="2.2"/>
				<rect x="177.27" y="532.17" width="2.2" height="2.2"/>
				<rect x="177.27" y="534.38" width="2.2" height="2.2"/>
				<rect x="179.48" y="534.38" width="2.2" height="2.2"/>
				<rect x="181.68" y="534.38" width="2.2" height="2.2"/>
				<rect x="175.07" y="534.38" width="2.2" height="2.2"/>
				<rect x="172.87" y="534.38" width="2.2" height="2.2"/>
				<rect x="177.27" y="536.58" width="2.2" height="2.2"/>
				<rect x="177.27" y="538.79" width="2.2" height="2.2"/>
				<rect x="175.07" y="525.56" width="2.2" height="2.2"/>
				<rect x="172.87" y="525.56" width="2.2" height="2.2"/>
				<rect x="170.66" y="525.56" width="2.2" height="2.2"/>
				<rect x="168.46" y="525.56" width="2.2" height="2.2"/>
				<rect x="168.46" y="527.77" width="2.2" height="2.2"/>
				<rect x="168.46" y="529.97" width="2.2" height="2.2"/>
				<rect x="168.46" y="523.36" width="2.2" height="2.2"/>
				<rect x="168.46" y="521.15" width="2.2" height="2.2"/>
				<rect x="166.25" y="525.56" width="2.2" height="2.2"/>
				<rect x="164.05" y="525.56" width="2.2" height="2.2"/>
				<rect x="177.27" y="523.36" width="2.2" height="2.2"/>
				<rect x="177.27" y="521.15" width="2.2" height="2.2"/>
				<rect x="177.27" y="518.95" width="2.2" height="2.2"/>
				<rect x="177.27" y="516.75" width="2.2" height="2.2"/>
				<rect x="175.07" y="516.75" width="2.2" height="2.2"/>
				<rect x="172.87" y="516.75" width="2.2" height="2.2"/>
				<rect x="179.48" y="516.75" width="2.2" height="2.2"/>
				<rect x="181.68" y="516.75" width="2.2" height="2.2"/>
				<rect x="177.27" y="514.54" width="2.2" height="2.2"/>
				<rect x="177.27" y="512.34" width="2.2" height="2.2"/>
			</g>
		</g>
	</g>
</g>
<g>
</g>
<g>
</g>
<g>
</g>
<g>
</g>
<g>
</g>
<g>
</g>
<g>
</g>
<g>
</g>
<g>
</g>
<g>
</g>
<g>
</g>
<g>
</g>
<g>
</g>
<g>
</g>
<g>
</g>
</svg>
