<?xml version="1.0" encoding="utf-8"?>
<!-- Generator: Adobe Illustrator 27.2.0, SVG Export Plug-In . SVG Version: 6.00 Build 0)  -->
<svg version="1.1" id="Layer_1" xmlns="http://www.w3.org/2000/svg" xmlns:xlink="http://www.w3.org/1999/xlink" x="0px" y="0px"
	 viewBox="0 0 800 600" style="enable-background:new 0 0 800 600;" xml:space="preserve">
<g>
	<g>
		<g>
			<circle cx="91.24" cy="483.16" r="1.9"/>
			<circle cx="95.24" cy="487.16" r="1.9"/>
			<circle cx="95.24" cy="483.16" r="1.9"/>
			<path d="M129.19,481.03c-1.17-1.18-3.07-1.18-4.24,0s-1.17,3.09,0,4.27c1.17,1.18,3.07,1.18,4.24,0
				C130.36,484.12,130.36,482.21,129.19,481.03z"/>
			<circle cx="103.72" cy="470.97" r="1.9"/>
			<path d="M107.72,472.87c1.05,0,1.9-0.85,1.9-1.9s-0.85-1.9-1.9-1.9c-1.05,0-1.9,0.85-1.9,1.9S106.67,472.87,107.72,472.87z"/>
			<path d="M95.24,481.07c1.05,0,1.9-0.85,1.9-1.9c0-1.05-0.85-1.9-1.9-1.9c-1.05,0-1.9,0.85-1.9,1.9
				C93.34,480.21,94.19,481.07,95.24,481.07z"/>
			<path d="M109.84,485.29c1.17-1.18,1.17-3.09,0-4.27s-3.07-1.18-4.24,0s-1.17,3.09,0,4.27
				C106.77,486.47,108.67,486.47,109.84,485.29z"/>
			<path d="M117.39,483.62l9.68,9.74l9.67-9.74l9.68,9.74l10.13-10.2l-10.13-10.2l-9.68,9.74l-9.67-9.74l-9.68,9.74l-9.67-9.74
				l-10.13,10.2l10.13,10.2L117.39,483.62z M146.42,476.83l6.28,6.33l-6.28,6.33l-6.29-6.33L146.42,476.83z M127.07,476.83
				l6.28,6.33l-6.28,6.33l-6.29-6.33L127.07,476.83z M107.72,476.83l6.28,6.33l-6.28,6.33l-6.29-6.33L107.72,476.83z"/>
			<path d="M148.54,481.03c-1.17-1.18-3.07-1.18-4.24,0c-1.17,1.18-1.17,3.09,0,4.27c1.17,1.18,3.07,1.18,4.24,0
				C149.71,484.12,149.71,482.21,148.54,481.03z"/>
			<path d="M107.72,468.87c1.05,0,1.9-0.85,1.9-1.9c0-1.05-0.85-1.9-1.9-1.9c-1.05,0-1.9,0.85-1.9,1.9
				C105.82,468.02,106.67,468.87,107.72,468.87z"/>
			<circle cx="158.69" cy="483.16" r="1.9"/>
			<circle cx="158.69" cy="487.16" r="1.9"/>
			<circle cx="162.68" cy="483.16" r="1.9"/>
			<path d="M158.69,481.07c1.05,0,1.9-0.85,1.9-1.9c0-1.05-0.85-1.9-1.9-1.9s-1.9,0.85-1.9,1.9
				C156.78,480.21,157.63,481.07,158.69,481.07z"/>
			<circle cx="150.28" cy="470.97" r="1.9"/>
			<circle cx="146.29" cy="466.97" r="1.9"/>
			<path d="M137.2,461.71l-10.13-10.2l-10.13,10.2l10.13,10.2L137.2,461.71z M127.07,455.39l6.28,6.33l-6.28,6.33l-6.29-6.33
				L127.07,455.39z"/>
			<circle cx="114.6" cy="457.72" r="1.9"/>
			<path d="M129.19,459.58c-1.17-1.18-3.07-1.18-4.24,0s-1.17,3.09,0,4.27c1.17,1.18,3.07,1.18,4.24,0
				C130.36,462.67,130.36,460.76,129.19,459.58z"/>
			<circle cx="111.72" cy="470.97" r="1.9"/>
			<circle cx="114.6" cy="461.71" r="1.9"/>
			<path d="M123.07,451c1.05,0,1.9-0.85,1.9-1.9c0-1.05-0.85-1.9-1.9-1.9c-1.05,0-1.9,0.85-1.9,1.9
				C121.17,450.15,122.02,451,123.07,451z"/>
			<circle cx="110.6" cy="461.71" r="1.9"/>
			<circle cx="114.6" cy="465.71" r="1.9"/>
			<circle cx="142.29" cy="470.97" r="1.9"/>
			<circle cx="143.25" cy="461.71" r="1.9"/>
			<circle cx="139.25" cy="457.72" r="1.9"/>
			<circle cx="146.29" cy="470.97" r="1.9"/>
			<circle cx="131.07" cy="449.09" r="1.9"/>
			<circle cx="127.07" cy="445.1" r="1.9"/>
			<circle cx="127.07" cy="449.09" r="1.9"/>
			<circle cx="139.25" cy="461.71" r="1.9"/>
			<circle cx="139.25" cy="465.71" r="1.9"/>
		</g>
		<path d="M127.07,518.19c1.43,0,2.58-1.16,2.58-2.58s-1.16-2.58-2.58-2.58c-1.43,0-2.58,1.16-2.58,2.58
			S125.64,518.19,127.07,518.19z"/>
		<path d="M132.23,507.87c0,1.43,1.16,2.58,2.58,2.58s2.58-1.16,2.58-2.58s-1.16-2.58-2.58-2.58S132.23,506.45,132.23,507.87z"/>
		<path d="M128.36,511.74c0,1.43,1.16,2.58,2.58,2.58s2.58-1.16,2.58-2.58s-1.16-2.58-2.58-2.58S128.36,510.32,128.36,511.74z"/>
		<path d="M138.68,501.42c-1.43,0-2.58,1.16-2.58,2.58s1.16,2.58,2.58,2.58s2.58-1.16,2.58-2.58S140.1,501.42,138.68,501.42z"/>
		<path d="M127.07,505.29c-1.43,0-2.58,1.16-2.58,2.58s1.16,2.58,2.58,2.58c1.43,0,2.58-1.16,2.58-2.58S128.49,505.29,127.07,505.29
			z"/>
		<path d="M120.62,511.74c0,1.43,1.16,2.58,2.58,2.58s2.58-1.16,2.58-2.58s-1.16-2.58-2.58-2.58S120.62,510.32,120.62,511.74z"/>
		<path d="M115.46,501.42c-1.43,0-2.58,1.16-2.58,2.58s1.16,2.58,2.58,2.58s2.58-1.16,2.58-2.58S116.88,501.42,115.46,501.42z"/>
		<path d="M119.33,505.29c-1.43,0-2.58,1.16-2.58,2.58s1.16,2.58,2.58,2.58c1.43,0,2.58-1.16,2.58-2.58S120.75,505.29,119.33,505.29
			z"/>
		<path d="M132.23,500.13c0,1.43,1.16,2.58,2.58,2.58s2.58-1.16,2.58-2.58s-1.16-2.58-2.58-2.58S132.23,498.71,132.23,500.13z"/>
		<path d="M128.08,495.98c0,1.43,1.16,2.58,2.58,2.58s2.58-1.16,2.58-2.58s-1.16-2.58-2.58-2.58S128.08,494.56,128.08,495.98z"/>
		<path d="M120.62,504c0,1.43,1.16,2.58,2.58,2.58s2.58-1.16,2.58-2.58s-1.16-2.58-2.58-2.58S120.62,502.58,120.62,504z"/>
		<path d="M119.33,497.55c-1.43,0-2.58,1.16-2.58,2.58s1.16,2.58,2.58,2.58c1.43,0,2.58-1.16,2.58-2.58S120.75,497.55,119.33,497.55
			z"/>
		<path d="M123.52,493.36c-1.43,0-2.58,1.16-2.58,2.58s1.16,2.58,2.58,2.58c1.43,0,2.58-1.16,2.58-2.58S124.94,493.36,123.52,493.36
			z"/>
		<path d="M128.36,504c0,1.43,1.16,2.58,2.58,2.58s2.58-1.16,2.58-2.58s-1.16-2.58-2.58-2.58S128.36,502.58,128.36,504z"/>
		<path d="M127.07,497.55c-1.43,0-2.58,1.16-2.58,2.58s1.16,2.58,2.58,2.58c1.43,0,2.58-1.16,2.58-2.58S128.49,497.55,127.07,497.55
			z"/>
		<path d="M115.46,493.68c-1.43,0-2.58,1.16-2.58,2.58c0,1.43,1.16,2.58,2.58,2.58s2.58-1.16,2.58-2.58
			C118.04,494.84,116.88,493.68,115.46,493.68z"/>
		<path d="M107.72,493.68c-1.43,0-2.58,1.16-2.58,2.58c0,1.43,1.16,2.58,2.58,2.58c1.43,0,2.58-1.16,2.58-2.58
			C110.3,494.84,109.14,493.68,107.72,493.68z"/>
		<path d="M109.01,500.13c0,1.43,1.16,2.58,2.58,2.58s2.58-1.16,2.58-2.58s-1.16-2.58-2.58-2.58S109.01,498.71,109.01,500.13z"/>
		<path d="M138.68,493.68c-1.43,0-2.58,1.16-2.58,2.58c0,1.43,1.16,2.58,2.58,2.58s2.58-1.16,2.58-2.58
			C141.26,494.84,140.1,493.68,138.68,493.68z"/>
		<path d="M139.97,500.13c0,1.43,1.16,2.58,2.58,2.58s2.58-1.16,2.58-2.58s-1.16-2.58-2.58-2.58S139.97,498.71,139.97,500.13z"/>
		<path d="M146.42,493.68c-1.43,0-2.58,1.16-2.58,2.58c0,1.43,1.16,2.58,2.58,2.58s2.58-1.16,2.58-2.58
			C149,494.84,147.84,493.68,146.42,493.68z"/>
	</g>
	<g>
		<g>
			<circle cx="179.64" cy="483.16" r="1.9"/>
			<circle cx="183.64" cy="487.16" r="1.9"/>
			<circle cx="183.64" cy="483.16" r="1.9"/>
			<path d="M217.59,481.03c-1.17-1.18-3.07-1.18-4.24,0s-1.17,3.09,0,4.27c1.17,1.18,3.07,1.18,4.24,0
				C218.76,484.12,218.76,482.21,217.59,481.03z"/>
			<circle cx="192.12" cy="470.97" r="1.9"/>
			<path d="M196.12,472.87c1.05,0,1.9-0.85,1.9-1.9s-0.85-1.9-1.9-1.9c-1.05,0-1.9,0.85-1.9,1.9S195.07,472.87,196.12,472.87z"/>
			<path d="M183.64,481.07c1.05,0,1.9-0.85,1.9-1.9c0-1.05-0.85-1.9-1.9-1.9c-1.05,0-1.9,0.85-1.9,1.9
				C181.74,480.21,182.59,481.07,183.64,481.07z"/>
			<path d="M198.24,485.29c1.17-1.18,1.17-3.09,0-4.27s-3.07-1.18-4.24,0s-1.17,3.09,0,4.27
				C195.17,486.47,197.07,486.47,198.24,485.29z"/>
			<path d="M205.79,483.62l9.68,9.74l9.67-9.74l9.68,9.74l10.13-10.2l-10.13-10.2l-9.68,9.74l-9.67-9.74l-9.68,9.74l-9.67-9.74
				l-10.13,10.2l10.13,10.2L205.79,483.62z M234.82,476.83l6.28,6.33l-6.28,6.33l-6.29-6.33L234.82,476.83z M215.47,476.83
				l6.28,6.33l-6.28,6.33l-6.29-6.33L215.47,476.83z M196.12,476.83l6.28,6.33l-6.28,6.33l-6.29-6.33L196.12,476.83z"/>
			<path d="M236.94,481.03c-1.17-1.18-3.07-1.18-4.24,0c-1.17,1.18-1.17,3.09,0,4.27c1.17,1.18,3.07,1.18,4.24,0
				C238.11,484.12,238.11,482.21,236.94,481.03z"/>
			<path d="M196.12,468.87c1.05,0,1.9-0.85,1.9-1.9c0-1.05-0.85-1.9-1.9-1.9c-1.05,0-1.9,0.85-1.9,1.9
				C194.21,468.02,195.07,468.87,196.12,468.87z"/>
			<circle cx="247.09" cy="483.16" r="1.9"/>
			<circle cx="247.09" cy="487.16" r="1.9"/>
			<circle cx="251.08" cy="483.16" r="1.9"/>
			<path d="M247.09,481.07c1.05,0,1.9-0.85,1.9-1.9c0-1.05-0.85-1.9-1.9-1.9s-1.9,0.85-1.9,1.9
				C245.18,480.21,246.03,481.07,247.09,481.07z"/>
			<circle cx="238.68" cy="470.97" r="1.9"/>
			<circle cx="234.69" cy="466.97" r="1.9"/>
			<path d="M225.6,461.71l-10.13-10.2l-10.13,10.2l10.13,10.2L225.6,461.71z M215.47,455.39l6.28,6.33l-6.28,6.33l-6.29-6.33
				L215.47,455.39z"/>
			<circle cx="203" cy="457.72" r="1.9"/>
			<path d="M217.59,459.58c-1.17-1.18-3.07-1.18-4.24,0s-1.17,3.09,0,4.27c1.17,1.18,3.07,1.18,4.24,0
				C218.76,462.67,218.76,460.76,217.59,459.58z"/>
			<circle cx="200.12" cy="470.97" r="1.9"/>
			<circle cx="203" cy="461.71" r="1.9"/>
			<path d="M211.47,451c1.05,0,1.9-0.85,1.9-1.9c0-1.05-0.85-1.9-1.9-1.9c-1.05,0-1.9,0.85-1.9,1.9
				C209.57,450.15,210.42,451,211.47,451z"/>
			<circle cx="199" cy="461.71" r="1.9"/>
			<circle cx="203" cy="465.71" r="1.9"/>
			<circle cx="230.69" cy="470.97" r="1.9"/>
			<circle cx="231.64" cy="461.71" r="1.9"/>
			<circle cx="227.65" cy="457.72" r="1.9"/>
			<circle cx="234.69" cy="470.97" r="1.9"/>
			<circle cx="219.47" cy="449.09" r="1.9"/>
			<circle cx="215.47" cy="445.1" r="1.9"/>
			<circle cx="215.47" cy="449.09" r="1.9"/>
			<circle cx="227.65" cy="461.71" r="1.9"/>
			<circle cx="227.65" cy="465.71" r="1.9"/>
		</g>
		<path d="M215.47,518.19c1.43,0,2.58-1.16,2.58-2.58s-1.16-2.58-2.58-2.58s-2.58,1.16-2.58,2.58S214.04,518.19,215.47,518.19z"/>
		<path d="M220.63,507.87c0,1.43,1.16,2.58,2.58,2.58s2.58-1.16,2.58-2.58s-1.16-2.58-2.58-2.58S220.63,506.45,220.63,507.87z"/>
		<path d="M216.76,511.74c0,1.43,1.16,2.58,2.58,2.58s2.58-1.16,2.58-2.58s-1.16-2.58-2.58-2.58S216.76,510.32,216.76,511.74z"/>
		<path d="M227.08,501.42c-1.43,0-2.58,1.16-2.58,2.58s1.16,2.58,2.58,2.58s2.58-1.16,2.58-2.58S228.5,501.42,227.08,501.42z"/>
		<path d="M215.47,505.29c-1.43,0-2.58,1.16-2.58,2.58s1.16,2.58,2.58,2.58s2.58-1.16,2.58-2.58S216.89,505.29,215.47,505.29z"/>
		<path d="M209.02,511.74c0,1.43,1.16,2.58,2.58,2.58s2.58-1.16,2.58-2.58s-1.16-2.58-2.58-2.58S209.02,510.32,209.02,511.74z"/>
		<path d="M203.86,501.42c-1.43,0-2.58,1.16-2.58,2.58s1.16,2.58,2.58,2.58s2.58-1.16,2.58-2.58S205.28,501.42,203.86,501.42z"/>
		<path d="M207.73,505.29c-1.43,0-2.58,1.16-2.58,2.58s1.16,2.58,2.58,2.58c1.43,0,2.58-1.16,2.58-2.58S209.15,505.29,207.73,505.29
			z"/>
		<path d="M220.63,500.13c0,1.43,1.16,2.58,2.58,2.58s2.58-1.16,2.58-2.58s-1.16-2.58-2.58-2.58S220.63,498.71,220.63,500.13z"/>
		<path d="M216.48,495.98c0,1.43,1.16,2.58,2.58,2.58s2.58-1.16,2.58-2.58s-1.16-2.58-2.58-2.58S216.48,494.56,216.48,495.98z"/>
		<path d="M209.02,504c0,1.43,1.16,2.58,2.58,2.58s2.58-1.16,2.58-2.58s-1.16-2.58-2.58-2.58S209.02,502.58,209.02,504z"/>
		<path d="M207.73,497.55c-1.43,0-2.58,1.16-2.58,2.58s1.16,2.58,2.58,2.58c1.43,0,2.58-1.16,2.58-2.58S209.15,497.55,207.73,497.55
			z"/>
		<path d="M211.92,493.36c-1.43,0-2.58,1.16-2.58,2.58s1.16,2.58,2.58,2.58c1.43,0,2.58-1.16,2.58-2.58S213.34,493.36,211.92,493.36
			z"/>
		<path d="M216.76,504c0,1.43,1.16,2.58,2.58,2.58s2.58-1.16,2.58-2.58s-1.16-2.58-2.58-2.58S216.76,502.58,216.76,504z"/>
		<path d="M215.47,497.55c-1.43,0-2.58,1.16-2.58,2.58s1.16,2.58,2.58,2.58s2.58-1.16,2.58-2.58S216.89,497.55,215.47,497.55z"/>
		<path d="M203.86,493.68c-1.43,0-2.58,1.16-2.58,2.58c0,1.43,1.16,2.58,2.58,2.58s2.58-1.16,2.58-2.58
			C206.44,494.84,205.28,493.68,203.86,493.68z"/>
		<path d="M196.12,493.68c-1.43,0-2.58,1.16-2.58,2.58c0,1.43,1.16,2.58,2.58,2.58c1.43,0,2.58-1.16,2.58-2.58
			C198.7,494.84,197.54,493.68,196.12,493.68z"/>
		<path d="M197.41,500.13c0,1.43,1.16,2.58,2.58,2.58s2.58-1.16,2.58-2.58s-1.16-2.58-2.58-2.58S197.41,498.71,197.41,500.13z"/>
		<path d="M227.08,493.68c-1.43,0-2.58,1.16-2.58,2.58c0,1.43,1.16,2.58,2.58,2.58s2.58-1.16,2.58-2.58
			C229.66,494.84,228.5,493.68,227.08,493.68z"/>
		<path d="M228.37,500.13c0,1.43,1.16,2.58,2.58,2.58s2.58-1.16,2.58-2.58s-1.16-2.58-2.58-2.58S228.37,498.71,228.37,500.13z"/>
		<path d="M234.82,493.68c-1.43,0-2.58,1.16-2.58,2.58c0,1.43,1.16,2.58,2.58,2.58s2.58-1.16,2.58-2.58
			C237.4,494.84,236.24,493.68,234.82,493.68z"/>
	</g>
	<g>
		<path d="M50,539.37L60.63,550l10.63-10.63l-10.63-10.63L50,539.37z M60.63,545.45l-6.08-6.08l6.08-6.08l6.08,6.08L60.63,545.45z"
			/>
		<path d="M58.35,539.37c0,1.26,1.02,2.28,2.28,2.28c1.26,0,2.28-1.02,2.28-2.28c0-1.26-1.02-2.28-2.28-2.28
			C59.37,537.09,58.35,538.11,58.35,539.37z"/>
		<path d="M60.63,528.3c1.26,0,2.28-1.02,2.28-2.28c0-1.26-1.02-2.28-2.28-2.28c-1.26,0-2.28,1.02-2.28,2.28
			C58.35,527.28,59.37,528.3,60.63,528.3z"/>
		<path d="M65.19,528.3c1.26,0,2.28-1.02,2.28-2.28c0-1.26-1.02-2.28-2.28-2.28c-1.26,0-2.28,1.02-2.28,2.28
			C62.91,527.28,63.93,528.3,65.19,528.3z"/>
		<path d="M56.07,528.3c1.26,0,2.28-1.02,2.28-2.28c0-1.26-1.02-2.28-2.28-2.28c-1.26,0-2.28,1.02-2.28,2.28
			C53.79,527.28,54.81,528.3,56.07,528.3z"/>
		<path d="M62.91,521.47c0-1.26-1.02-2.28-2.28-2.28c-1.26,0-2.28,1.02-2.28,2.28s1.02,2.28,2.28,2.28
			C61.89,523.74,62.91,522.72,62.91,521.47z"/>
		<path d="M72.11,539.37L82.74,550l10.63-10.63l-10.63-10.63L72.11,539.37z M82.74,545.45l-6.08-6.08l6.08-6.08l6.08,6.08
			L82.74,545.45z"/>
		<path d="M80.46,539.37c0,1.26,1.02,2.28,2.28,2.28c1.26,0,2.28-1.02,2.28-2.28c0-1.26-1.02-2.28-2.28-2.28
			C81.48,537.09,80.46,538.11,80.46,539.37z"/>
		<path d="M82.74,528.3c1.26,0,2.28-1.02,2.28-2.28c0-1.26-1.02-2.28-2.28-2.28c-1.26,0-2.28,1.02-2.28,2.28
			C80.46,527.28,81.48,528.3,82.74,528.3z"/>
		<path d="M87.3,528.3c1.26,0,2.28-1.02,2.28-2.28c0-1.26-1.02-2.28-2.28-2.28c-1.26,0-2.28,1.02-2.28,2.28
			C85.02,527.28,86.04,528.3,87.3,528.3z"/>
		<path d="M78.18,528.3c1.26,0,2.28-1.02,2.28-2.28c0-1.26-1.02-2.28-2.28-2.28s-2.28,1.02-2.28,2.28
			C75.9,527.28,76.92,528.3,78.18,528.3z"/>
		<path d="M85.02,521.47c0-1.26-1.02-2.28-2.28-2.28c-1.26,0-2.28,1.02-2.28,2.28s1.02,2.28,2.28,2.28
			C84,523.74,85.02,522.72,85.02,521.47z"/>
		<path d="M94.22,539.37L104.85,550l10.63-10.63l-10.63-10.63L94.22,539.37z M104.85,545.45l-6.08-6.08l6.08-6.08l6.08,6.08
			L104.85,545.45z"/>
		<path d="M102.57,539.37c0,1.26,1.02,2.28,2.28,2.28c1.26,0,2.28-1.02,2.28-2.28c0-1.26-1.02-2.28-2.28-2.28
			C103.59,537.09,102.57,538.11,102.57,539.37z"/>
		<path d="M102.57,526.02c0,1.26,1.02,2.28,2.28,2.28c1.26,0,2.28-1.02,2.28-2.28c0-1.26-1.02-2.28-2.28-2.28
			C103.59,523.74,102.57,524.77,102.57,526.02z"/>
		<path d="M109.41,528.3c1.26,0,2.28-1.02,2.28-2.28c0-1.26-1.02-2.28-2.28-2.28c-1.26,0-2.28,1.02-2.28,2.28
			C107.13,527.28,108.15,528.3,109.41,528.3z"/>
		<path d="M100.29,523.74c-1.26,0-2.28,1.02-2.28,2.28c0,1.26,1.02,2.28,2.28,2.28s2.28-1.02,2.28-2.28
			C102.57,524.77,101.55,523.74,100.29,523.74z"/>
		<path d="M107.13,521.47c0-1.26-1.02-2.28-2.28-2.28c-1.26,0-2.28,1.02-2.28,2.28s1.02,2.28,2.28,2.28
			C106.11,523.74,107.13,522.72,107.13,521.47z"/>
		<path d="M116.34,539.37L126.96,550l10.63-10.63l-10.63-10.63L116.34,539.37z M126.96,545.45l-6.08-6.08l6.08-6.08l6.08,6.08
			L126.96,545.45z"/>
		<path d="M124.68,539.37c0,1.26,1.02,2.28,2.28,2.28c1.26,0,2.28-1.02,2.28-2.28c0-1.26-1.02-2.28-2.28-2.28
			C125.71,537.09,124.68,538.11,124.68,539.37z"/>
		<path d="M124.68,526.02c0,1.26,1.02,2.28,2.28,2.28c1.26,0,2.28-1.02,2.28-2.28c0-1.26-1.02-2.28-2.28-2.28
			C125.71,523.74,124.68,524.77,124.68,526.02z"/>
		<path d="M131.52,528.3c1.26,0,2.28-1.02,2.28-2.28c0-1.26-1.02-2.28-2.28-2.28c-1.26,0-2.28,1.02-2.28,2.28
			C129.24,527.28,130.26,528.3,131.52,528.3z"/>
		<path d="M122.41,523.74c-1.26,0-2.28,1.02-2.28,2.28c0,1.26,1.02,2.28,2.28,2.28c1.26,0,2.28-1.02,2.28-2.28
			C124.68,524.77,123.66,523.74,122.41,523.74z"/>
		<path d="M129.24,521.47c0-1.26-1.02-2.28-2.28-2.28c-1.26,0-2.28,1.02-2.28,2.28s1.02,2.28,2.28,2.28
			C128.22,523.74,129.24,522.72,129.24,521.47z"/>
		<path d="M138.45,539.37L149.08,550l10.63-10.63l-10.63-10.63L138.45,539.37z M149.08,545.45l-6.08-6.08l6.08-6.08l6.08,6.08
			L149.08,545.45z"/>
		<path d="M146.8,539.37c0,1.26,1.02,2.28,2.28,2.28c1.26,0,2.28-1.02,2.28-2.28c0-1.26-1.02-2.28-2.28-2.28
			C147.82,537.09,146.8,538.11,146.8,539.37z"/>
		<path d="M146.8,526.02c0,1.26,1.02,2.28,2.28,2.28c1.26,0,2.28-1.02,2.28-2.28c0-1.26-1.02-2.28-2.28-2.28
			C147.82,523.74,146.8,524.77,146.8,526.02z"/>
		<path d="M153.63,528.3c1.26,0,2.28-1.02,2.28-2.28c0-1.26-1.02-2.28-2.28-2.28c-1.26,0-2.28,1.02-2.28,2.28
			C151.35,527.28,152.38,528.3,153.63,528.3z"/>
		<path d="M144.52,523.74c-1.26,0-2.28,1.02-2.28,2.28c0,1.26,1.02,2.28,2.28,2.28s2.28-1.02,2.28-2.28
			C146.8,524.77,145.78,523.74,144.52,523.74z"/>
		<path d="M151.35,521.47c0-1.26-1.02-2.28-2.28-2.28c-1.26,0-2.28,1.02-2.28,2.28s1.02,2.28,2.28,2.28
			C150.33,523.74,151.35,522.72,151.35,521.47z"/>
		<path d="M160.56,539.37L171.19,550l10.63-10.63l-10.63-10.63L160.56,539.37z M171.19,545.45l-6.08-6.08l6.08-6.08l6.08,6.08
			L171.19,545.45z"/>
		<path d="M168.91,539.37c0,1.26,1.02,2.28,2.28,2.28c1.26,0,2.28-1.02,2.28-2.28c0-1.26-1.02-2.28-2.28-2.28
			C169.93,537.09,168.91,538.11,168.91,539.37z"/>
		<path d="M168.91,526.02c0,1.26,1.02,2.28,2.28,2.28c1.26,0,2.28-1.02,2.28-2.28c0-1.26-1.02-2.28-2.28-2.28
			C169.93,523.74,168.91,524.77,168.91,526.02z"/>
		<path d="M175.75,528.3c1.26,0,2.28-1.02,2.28-2.28c0-1.26-1.02-2.28-2.28-2.28c-1.26,0-2.28,1.02-2.28,2.28
			C173.47,527.28,174.49,528.3,175.75,528.3z"/>
		<path d="M166.63,523.74c-1.26,0-2.28,1.02-2.28,2.28c0,1.26,1.02,2.28,2.28,2.28c1.26,0,2.28-1.02,2.28-2.28
			C168.91,524.77,167.89,523.74,166.63,523.74z"/>
		<path d="M173.47,521.47c0-1.26-1.02-2.28-2.28-2.28c-1.26,0-2.28,1.02-2.28,2.28s1.02,2.28,2.28,2.28
			C172.45,523.74,173.47,522.72,173.47,521.47z"/>
		<path d="M193.3,528.74l-10.63,10.63L193.3,550l10.63-10.63L193.3,528.74z M187.22,539.37l6.08-6.08l6.08,6.08l-6.08,6.08
			L187.22,539.37z"/>
		<path d="M193.3,537.09c-1.26,0-2.28,1.02-2.28,2.28c0,1.26,1.02,2.28,2.28,2.28c1.26,0,2.28-1.02,2.28-2.28
			C195.58,538.11,194.56,537.09,193.3,537.09z"/>
		<path d="M193.3,528.3c1.26,0,2.28-1.02,2.28-2.28c0-1.26-1.02-2.28-2.28-2.28c-1.26,0-2.28,1.02-2.28,2.28
			C191.02,527.28,192.04,528.3,193.3,528.3z"/>
		<path d="M197.86,528.3c1.26,0,2.28-1.02,2.28-2.28c0-1.26-1.02-2.28-2.28-2.28c-1.26,0-2.28,1.02-2.28,2.28
			C195.58,527.28,196.6,528.3,197.86,528.3z"/>
		<path d="M188.74,528.3c1.26,0,2.28-1.02,2.28-2.28c0-1.26-1.02-2.28-2.28-2.28c-1.26,0-2.28,1.02-2.28,2.28
			C186.46,527.28,187.48,528.3,188.74,528.3z"/>
		<path d="M195.58,521.47c0-1.26-1.02-2.28-2.28-2.28c-1.26,0-2.28,1.02-2.28,2.28s1.02,2.28,2.28,2.28
			C194.56,523.74,195.58,522.72,195.58,521.47z"/>
	</g>
	<g>
		<path d="M204.73,539.37L215.36,550l10.63-10.63l-10.63-10.63L204.73,539.37z M215.36,545.45l-6.08-6.08l6.08-6.08l6.08,6.08
			L215.36,545.45z"/>
		<path d="M213.08,539.37c0,1.26,1.02,2.28,2.28,2.28c1.26,0,2.28-1.02,2.28-2.28c0-1.26-1.02-2.28-2.28-2.28
			C214.1,537.09,213.08,538.11,213.08,539.37z"/>
		<path d="M215.36,528.3c1.26,0,2.28-1.02,2.28-2.28c0-1.26-1.02-2.28-2.28-2.28c-1.26,0-2.28,1.02-2.28,2.28
			C213.08,527.28,214.1,528.3,215.36,528.3z"/>
		<path d="M219.92,528.3c1.26,0,2.28-1.02,2.28-2.28c0-1.26-1.02-2.28-2.28-2.28c-1.26,0-2.28,1.02-2.28,2.28
			C217.64,527.28,218.66,528.3,219.92,528.3z"/>
		<path d="M210.8,528.3c1.26,0,2.28-1.02,2.28-2.28c0-1.26-1.02-2.28-2.28-2.28c-1.26,0-2.28,1.02-2.28,2.28
			C208.52,527.28,209.55,528.3,210.8,528.3z"/>
		<path d="M217.64,521.47c0-1.26-1.02-2.28-2.28-2.28c-1.26,0-2.28,1.02-2.28,2.28s1.02,2.28,2.28,2.28
			C216.62,523.74,217.64,522.72,217.64,521.47z"/>
		<path d="M226.85,539.37L237.47,550l10.63-10.63l-10.63-10.63L226.85,539.37z M237.47,545.45l-6.08-6.08l6.08-6.08l6.08,6.08
			L237.47,545.45z"/>
		<path d="M235.2,539.37c0,1.26,1.02,2.28,2.28,2.28c1.26,0,2.28-1.02,2.28-2.28c0-1.26-1.02-2.28-2.28-2.28
			C236.22,537.09,235.2,538.11,235.2,539.37z"/>
		<path d="M237.47,528.3c1.26,0,2.28-1.02,2.28-2.28c0-1.26-1.02-2.28-2.28-2.28c-1.26,0-2.28,1.02-2.28,2.28
			C235.2,527.28,236.22,528.3,237.47,528.3z"/>
		<path d="M242.03,528.3c1.26,0,2.28-1.02,2.28-2.28c0-1.26-1.02-2.28-2.28-2.28c-1.26,0-2.28,1.02-2.28,2.28
			C239.75,527.28,240.77,528.3,242.03,528.3z"/>
		<path d="M232.92,528.3c1.26,0,2.28-1.02,2.28-2.28c0-1.26-1.02-2.28-2.28-2.28c-1.26,0-2.28,1.02-2.28,2.28
			C230.64,527.28,231.66,528.3,232.92,528.3z"/>
		<path d="M239.75,521.47c0-1.26-1.02-2.28-2.28-2.28c-1.26,0-2.28,1.02-2.28,2.28s1.02,2.28,2.28,2.28
			C238.73,523.74,239.75,522.72,239.75,521.47z"/>
		<path d="M248.96,539.37L259.59,550l10.63-10.63l-10.63-10.63L248.96,539.37z M259.59,545.45l-6.08-6.08l6.08-6.08l6.08,6.08
			L259.59,545.45z"/>
		<path d="M257.31,539.37c0,1.26,1.02,2.28,2.28,2.28c1.26,0,2.28-1.02,2.28-2.28c0-1.26-1.02-2.28-2.28-2.28
			C258.33,537.09,257.31,538.11,257.31,539.37z"/>
		<path d="M257.31,526.02c0,1.26,1.02,2.28,2.28,2.28c1.26,0,2.28-1.02,2.28-2.28c0-1.26-1.02-2.28-2.28-2.28
			C258.33,523.74,257.31,524.77,257.31,526.02z"/>
		<path d="M264.14,528.3c1.26,0,2.28-1.02,2.28-2.28c0-1.26-1.02-2.28-2.28-2.28c-1.26,0-2.28,1.02-2.28,2.28
			C261.87,527.28,262.89,528.3,264.14,528.3z"/>
		<path d="M255.03,523.74c-1.26,0-2.28,1.02-2.28,2.28c0,1.26,1.02,2.28,2.28,2.28c1.26,0,2.28-1.02,2.28-2.28
			C257.31,524.77,256.29,523.74,255.03,523.74z"/>
		<path d="M261.87,521.47c0-1.26-1.02-2.28-2.28-2.28c-1.26,0-2.28,1.02-2.28,2.28s1.02,2.28,2.28,2.28
			C260.85,523.74,261.87,522.72,261.87,521.47z"/>
		<path d="M271.07,539.37L281.7,550l10.63-10.63l-10.63-10.63L271.07,539.37z M281.7,545.45l-6.08-6.08l6.08-6.08l6.08,6.08
			L281.7,545.45z"/>
		<path d="M279.42,539.37c0,1.26,1.02,2.28,2.28,2.28c1.26,0,2.28-1.02,2.28-2.28c0-1.26-1.02-2.28-2.28-2.28
			C280.44,537.09,279.42,538.11,279.42,539.37z"/>
		<path d="M279.42,526.02c0,1.26,1.02,2.28,2.28,2.28c1.26,0,2.28-1.02,2.28-2.28c0-1.26-1.02-2.28-2.28-2.28
			C280.44,523.74,279.42,524.77,279.42,526.02z"/>
		<path d="M286.26,528.3c1.26,0,2.28-1.02,2.28-2.28c0-1.26-1.02-2.28-2.28-2.28c-1.26,0-2.28,1.02-2.28,2.28
			C283.98,527.28,285,528.3,286.26,528.3z"/>
		<path d="M277.14,523.74c-1.26,0-2.28,1.02-2.28,2.28c0,1.26,1.02,2.28,2.28,2.28c1.26,0,2.28-1.02,2.28-2.28
			C279.42,524.77,278.4,523.74,277.14,523.74z"/>
		<path d="M283.98,521.47c0-1.26-1.02-2.28-2.28-2.28c-1.26,0-2.28,1.02-2.28,2.28s1.02,2.28,2.28,2.28
			C282.96,523.74,283.98,522.72,283.98,521.47z"/>
	</g>
</g>
<g>
</g>
<g>
</g>
<g>
</g>
<g>
</g>
<g>
</g>
<g>
</g>
<g>
</g>
<g>
</g>
<g>
</g>
<g>
</g>
<g>
</g>
<g>
</g>
<g>
</g>
<g>
</g>
<g>
</g>
</svg>
