<?xml version="1.0" encoding="utf-8"?>
<!-- Generator: Adobe Illustrator 27.2.0, SVG Export Plug-In . SVG Version: 6.00 Build 0)  -->
<svg version="1.1" id="Layer_1" xmlns="http://www.w3.org/2000/svg" xmlns:xlink="http://www.w3.org/1999/xlink" x="0px" y="0px"
	 viewBox="0 0 800 600" style="enable-background:new 0 0 800 600;" xml:space="preserve">
<g>
	<g>
		<polygon points="166.98,542.95 162.43,542.95 162.43,538.4 160.16,538.4 160.16,542.95 153.35,542.95 153.35,536.13 
			157.89,536.13 157.89,533.86 153.35,533.86 153.35,529.32 151.07,529.32 151.07,533.86 146.53,533.86 146.53,536.13 
			151.07,536.13 151.07,542.95 144.26,542.95 144.26,538.4 141.99,538.4 141.99,542.95 135.17,542.95 135.17,536.13 139.72,536.13 
			139.72,533.86 135.17,533.86 135.17,527.05 141.99,527.05 141.99,531.59 144.26,531.59 144.26,527.05 148.8,527.05 148.8,524.77 
			144.26,524.77 144.26,520.23 141.99,520.23 141.99,524.77 135.17,524.77 135.17,517.96 139.72,517.96 139.72,515.69 
			135.17,515.69 135.17,511.14 132.9,511.14 132.9,515.69 128.36,515.69 128.36,517.96 132.9,517.96 132.9,524.77 126.09,524.77 
			126.09,520.23 123.82,520.23 123.82,524.77 119.27,524.77 119.27,527.05 123.82,527.05 123.82,531.59 126.09,531.59 
			126.09,527.05 132.9,527.05 132.9,533.86 128.36,533.86 128.36,536.13 132.9,536.13 132.9,542.95 126.09,542.95 126.09,538.4 
			123.81,538.4 123.81,542.95 117,542.95 117,536.13 121.54,536.13 121.54,533.86 117,533.86 117,529.32 114.73,529.32 
			114.73,533.86 110.18,533.86 110.18,536.13 114.73,536.13 114.73,542.95 107.91,542.95 107.91,538.4 105.64,538.4 105.64,542.95 
			101.1,542.95 101.1,545.22 105.64,545.22 105.64,549.76 107.91,549.76 107.91,545.22 114.73,545.22 114.73,550 117,550 
			117,545.22 123.81,545.22 123.81,549.76 126.09,549.76 126.09,545.22 132.9,545.22 132.9,550 135.17,550 135.17,545.22 
			141.99,545.22 141.99,549.76 144.26,549.76 144.26,545.22 151.07,545.22 151.07,550 153.35,550 153.35,545.22 160.16,545.22 
			160.16,549.76 162.43,549.76 162.43,545.22 166.98,545.22 		"/>
		<path d="M50,544.08l5.92,5.92h21.15l13.28-3.22L87.13,550h14.83l-0.97-4.68l-5.97-1.24l5.97-1.24l1.37-6.59l6.59-1.37l1.37-6.59
			l6.59-1.37l1.37-6.59l6.59-1.37l1.37-6.59l6.59-1.37l1.24-5.97l1.24,5.97l6.59,1.37l1.37,6.59l6.59,1.37l1.37,6.59l6.59,1.37
			l1.37,6.59l6.59,1.37l1.37,6.59l5.97,1.24l-5.97,1.24l-0.97,4.68h14.83l-3.22-3.22L191,550h21.15l5.92-5.92l-84.04-84.04
			L50,544.08z M62.32,534.59l10.62-10.62l17.41,17.41L62.32,534.59z M101.25,534.37L81.9,515.01l7.06-7.06l19.35,19.35
			L101.25,534.37z M117.26,518.35L97.91,499l7.06-7.06l19.35,19.35L117.26,518.35z M113.93,482.98l10.62-10.62l6.79,28.03
			L113.93,482.98z M205.76,534.59l-28.03,6.79l17.41-17.41L205.76,534.59z M186.18,515.01l-19.35,19.35l-7.06-7.06l19.35-19.35
			L186.18,515.01z M170.16,499l-19.35,19.35l-7.06-7.06l19.35-19.35L170.16,499z M143.53,472.36l10.62,10.62l-17.41,17.41
			L143.53,472.36z"/>
		<polygon points="132.83,459 135.24,459 135.24,456.59 135.24,454.18 137.65,454.18 140.06,454.18 140.06,451.77 137.65,451.77 
			135.24,451.77 135.24,449.36 135.24,446.95 132.83,446.95 132.83,449.36 132.83,451.77 130.42,451.77 128.01,451.77 
			128.01,454.18 130.42,454.18 132.83,454.18 132.83,456.59 		"/>
		<polygon points="132.83,443.56 135.24,443.56 135.24,441.15 135.24,438.74 137.65,438.74 140.06,438.74 140.06,436.33 
			137.65,436.33 135.24,436.33 135.24,433.92 135.24,431.51 132.83,431.51 132.83,433.92 132.83,436.33 130.42,436.33 
			128.01,436.33 128.01,438.74 130.42,438.74 132.83,438.74 132.83,441.15 		"/>
		<polygon points="135.24,416.07 132.83,416.07 132.83,418.48 132.83,420.89 130.42,420.89 128.01,420.89 128.01,423.3 
			130.42,423.3 132.83,423.3 132.83,425.71 132.83,428.12 135.24,428.12 135.24,425.71 135.24,423.3 137.65,423.3 140.06,423.3 
			140.06,420.89 137.65,420.89 135.24,420.89 135.24,418.48 		"/>
		<polygon points="128.01,407.85 130.42,407.85 132.83,407.85 132.83,410.26 132.83,412.67 135.24,412.67 135.24,410.26 
			135.24,407.85 137.65,407.85 140.06,407.85 140.06,405.45 137.65,405.45 135.24,405.45 135.24,403.04 135.24,400.63 
			132.83,400.63 132.83,403.04 132.83,405.45 130.42,405.45 128.01,405.45 		"/>
		<polygon points="143.14,408.17 140.73,408.17 140.73,410.58 140.73,412.99 138.32,412.99 135.91,412.99 135.91,415.4 
			138.32,415.4 140.73,415.4 140.73,417.81 140.73,420.22 143.14,420.22 143.14,417.81 143.14,415.4 145.55,415.4 147.96,415.4 
			147.96,412.99 145.55,412.99 143.14,412.99 143.14,410.58 		"/>
		<polygon points="151.03,405.1 151.03,402.69 151.03,400.28 148.62,400.28 148.62,402.69 148.62,405.1 146.21,405.1 143.81,405.1 
			143.81,407.51 146.21,407.51 148.62,407.51 148.62,409.92 148.62,412.33 151.03,412.33 151.03,409.92 151.03,407.51 
			153.44,407.51 155.85,407.51 155.85,405.1 153.44,405.1 		"/>
		<polygon points="140.66,435.73 143.07,435.73 143.07,433.32 143.07,430.91 145.48,430.91 147.89,430.91 147.89,428.5 
			145.48,428.5 143.07,428.5 143.07,426.09 143.07,423.68 140.66,423.68 140.66,426.09 140.66,428.5 138.25,428.5 135.84,428.5 
			135.84,430.91 138.25,430.91 140.66,430.91 140.66,433.32 		"/>
		<polygon points="150.9,415.85 148.49,415.85 148.49,418.26 148.49,420.67 146.08,420.67 143.67,420.67 143.67,423.08 
			146.08,423.08 148.49,423.08 148.49,425.49 148.49,427.9 150.9,427.9 150.9,425.49 150.9,423.08 153.31,423.08 155.72,423.08 
			155.72,420.67 153.31,420.67 150.9,420.67 150.9,418.26 		"/>
		<polygon points="151.51,412.84 151.51,415.25 153.91,415.25 156.32,415.25 156.32,417.66 156.32,420.07 158.73,420.07 
			158.73,417.66 158.73,415.25 161.14,415.25 163.55,415.25 163.55,412.84 161.14,412.84 158.73,412.84 158.73,410.43 
			158.73,408.02 156.32,408.02 156.32,410.43 156.32,412.84 153.91,412.84 		"/>
		<polygon points="164.15,407.42 164.15,409.83 164.15,412.24 166.56,412.24 166.56,409.83 166.56,407.42 168.97,407.42 
			171.38,407.42 171.38,405.01 168.97,405.01 166.56,405.01 166.56,402.6 166.56,400.19 164.15,400.19 164.15,402.6 164.15,405.01 
			161.74,405.01 159.34,405.01 159.34,407.42 161.74,407.42 		"/>
		<polygon points="140.53,451.3 142.94,451.3 142.94,448.89 142.94,446.48 145.35,446.48 147.76,446.48 147.76,444.07 
			145.35,444.07 142.94,444.07 142.94,441.66 142.94,439.25 140.53,439.25 140.53,441.66 140.53,444.07 138.12,444.07 
			135.71,444.07 135.71,446.48 138.12,446.48 140.53,446.48 140.53,448.89 		"/>
		<polygon points="148.38,443.45 150.79,443.45 150.79,441.04 150.79,438.63 153.2,438.63 155.61,438.63 155.61,436.22 
			153.2,436.22 150.79,436.22 150.79,433.81 150.79,431.4 148.38,431.4 148.38,433.81 148.38,436.22 145.98,436.22 143.57,436.22 
			143.57,438.63 145.98,438.63 148.38,438.63 148.38,441.04 		"/>
		<polygon points="156.24,435.6 158.65,435.6 158.65,433.19 158.65,430.78 161.05,430.78 163.46,430.78 163.46,428.37 
			161.05,428.37 158.65,428.37 158.65,425.96 158.65,423.55 156.24,423.55 156.24,425.96 156.24,428.37 153.83,428.37 
			151.42,428.37 151.42,430.78 153.83,430.78 156.24,430.78 156.24,433.19 		"/>
		<polygon points="164.09,427.75 166.5,427.75 166.5,425.34 166.5,422.93 168.91,422.93 171.32,422.93 171.32,420.52 168.91,420.52 
			166.5,420.52 166.5,418.11 166.5,415.7 164.09,415.7 164.09,418.11 164.09,420.52 161.68,420.52 159.27,420.52 159.27,422.93 
			161.68,422.93 164.09,422.93 164.09,425.34 		"/>
		<polygon points="167.12,412.67 167.12,415.08 169.53,415.08 171.94,415.08 171.94,417.49 171.94,419.89 174.35,419.89 
			174.35,417.49 174.35,415.08 176.76,415.08 179.17,415.08 179.17,412.67 176.76,412.67 174.35,412.67 174.35,410.26 
			174.35,407.85 171.94,407.85 171.94,410.26 171.94,412.67 169.53,412.67 		"/>
		<polygon points="179.79,407.22 179.79,409.63 179.79,412.04 182.2,412.04 182.2,409.63 182.2,407.22 184.61,407.22 187.02,407.22 
			187.02,404.82 184.61,404.82 182.2,404.82 182.2,402.41 182.2,400 179.79,400 179.79,402.41 179.79,404.82 177.38,404.82 
			174.97,404.82 174.97,407.22 177.38,407.22 		"/>
		<polygon points="127.35,408.17 124.94,408.17 124.94,410.58 124.94,412.99 122.53,412.99 120.12,412.99 120.12,415.4 
			122.53,415.4 124.94,415.4 124.94,417.81 124.94,420.22 127.35,420.22 127.35,417.81 127.35,415.4 129.76,415.4 132.17,415.4 
			132.17,412.99 129.76,412.99 127.35,412.99 127.35,410.58 		"/>
		<polygon points="117.04,407.51 117.04,409.92 117.04,412.33 119.45,412.33 119.45,409.92 119.45,407.51 121.86,407.51 
			124.27,407.51 124.27,405.1 121.86,405.1 119.45,405.1 119.45,402.69 119.45,400.28 117.04,400.28 117.04,402.69 117.04,405.1 
			114.63,405.1 112.22,405.1 112.22,407.51 114.63,407.51 		"/>
		<polygon points="125,435.73 127.41,435.73 127.41,433.32 127.41,430.91 129.82,430.91 132.23,430.91 132.23,428.5 129.82,428.5 
			127.41,428.5 127.41,426.09 127.41,423.68 125,423.68 125,426.09 125,428.5 122.59,428.5 120.18,428.5 120.18,430.91 
			122.59,430.91 125,430.91 125,433.32 		"/>
		<polygon points="119.58,415.85 117.17,415.85 117.17,418.26 117.17,420.67 114.76,420.67 112.35,420.67 112.35,423.08 
			114.76,423.08 117.17,423.08 117.17,425.49 117.17,427.9 119.58,427.9 119.58,425.49 119.58,423.08 121.99,423.08 124.4,423.08 
			124.4,420.67 121.99,420.67 119.58,420.67 119.58,418.26 		"/>
		<polygon points="104.52,412.84 104.52,415.25 106.93,415.25 109.34,415.25 109.34,417.66 109.34,420.07 111.75,420.07 
			111.75,417.66 111.75,415.25 114.16,415.25 116.57,415.25 116.57,412.84 114.16,412.84 111.75,412.84 111.75,410.43 
			111.75,408.02 109.34,408.02 109.34,410.43 109.34,412.84 106.93,412.84 		"/>
		<polygon points="101.51,407.42 101.51,409.83 101.51,412.24 103.92,412.24 103.92,409.83 103.92,407.42 106.33,407.42 
			108.74,407.42 108.74,405.01 106.33,405.01 103.92,405.01 103.92,402.6 103.92,400.19 101.51,400.19 101.51,402.6 101.51,405.01 
			99.1,405.01 96.69,405.01 96.69,407.42 99.1,407.42 		"/>
		<polygon points="125.13,451.3 127.54,451.3 127.54,448.89 127.54,446.48 129.95,446.48 132.36,446.48 132.36,444.07 
			129.95,444.07 127.54,444.07 127.54,441.66 127.54,439.25 125.13,439.25 125.13,441.66 125.13,444.07 122.72,444.07 
			120.31,444.07 120.31,446.48 122.72,446.48 125.13,446.48 125.13,448.89 		"/>
		<polygon points="117.28,443.45 119.69,443.45 119.69,441.04 119.69,438.63 122.1,438.63 124.51,438.63 124.51,436.22 
			122.1,436.22 119.69,436.22 119.69,433.81 119.69,431.4 117.28,431.4 117.28,433.81 117.28,436.22 114.87,436.22 112.46,436.22 
			112.46,438.63 114.87,438.63 117.28,438.63 117.28,441.04 		"/>
		<polygon points="109.43,435.6 111.84,435.6 111.84,433.19 111.84,430.78 114.25,430.78 116.66,430.78 116.66,428.37 
			114.25,428.37 111.84,428.37 111.84,425.96 111.84,423.55 109.43,423.55 109.43,425.96 109.43,428.37 107.02,428.37 
			104.61,428.37 104.61,430.78 107.02,430.78 109.43,430.78 109.43,433.19 		"/>
		<polygon points="101.58,427.75 103.99,427.75 103.99,425.34 103.99,422.93 106.4,422.93 108.81,422.93 108.81,420.52 
			106.4,420.52 103.99,420.52 103.99,418.11 103.99,415.7 101.58,415.7 101.58,418.11 101.58,420.52 99.17,420.52 96.76,420.52 
			96.76,422.93 99.17,422.93 101.58,422.93 101.58,425.34 		"/>
		<polygon points="88.91,412.67 88.91,415.08 91.32,415.08 93.73,415.08 93.73,417.49 93.73,419.89 96.14,419.89 96.14,417.49 
			96.14,415.08 98.55,415.08 100.95,415.08 100.95,412.67 98.55,412.67 96.14,412.67 96.14,410.26 96.14,407.85 93.73,407.85 
			93.73,410.26 93.73,412.67 91.32,412.67 		"/>
		<polygon points="85.88,407.22 85.88,409.63 85.88,412.04 88.28,412.04 88.28,409.63 88.28,407.22 90.69,407.22 93.1,407.22 
			93.1,404.82 90.69,404.82 88.28,404.82 88.28,402.41 88.28,400 85.88,400 85.88,402.41 85.88,404.82 83.47,404.82 81.06,404.82 
			81.06,407.22 83.47,407.22 		"/>
		<polygon points="164.15,392.04 164.15,394.45 164.15,396.86 166.56,396.86 166.56,394.45 166.56,392.04 168.97,392.04 
			171.38,392.04 171.38,389.63 168.97,389.63 166.56,389.63 166.56,387.22 166.56,384.81 164.15,384.81 164.15,387.22 
			164.15,389.63 161.74,389.63 159.34,389.63 159.34,392.04 161.74,392.04 		"/>
		<polygon points="101.51,392.04 101.51,394.45 101.51,396.86 103.92,396.86 103.92,394.45 103.92,392.04 106.33,392.04 
			108.74,392.04 108.74,389.63 106.33,389.63 103.92,389.63 103.92,387.22 103.92,384.81 101.51,384.81 101.51,387.22 
			101.51,389.63 99.1,389.63 96.69,389.63 96.69,392.04 99.1,392.04 		"/>
		<polygon points="135.24,386.02 132.83,386.02 132.83,388.42 132.83,390.83 130.42,390.83 128.01,390.83 128.01,393.24 
			130.42,393.24 132.83,393.24 132.83,395.65 132.83,398.06 135.24,398.06 135.24,395.65 135.24,393.24 137.65,393.24 
			140.06,393.24 140.06,390.83 137.65,390.83 135.24,390.83 135.24,388.42 		"/>
		<polygon points="132.83,377.8 132.83,380.21 132.83,382.62 135.24,382.62 135.24,380.21 135.24,377.8 137.65,377.8 140.06,377.8 
			140.06,375.39 137.65,375.39 135.24,375.39 135.24,372.98 135.24,370.57 132.83,370.57 132.83,372.98 132.83,375.39 
			130.42,375.39 128.01,375.39 128.01,377.8 130.42,377.8 		"/>
		<polygon points="132.83,363.15 132.83,365.56 132.83,367.96 135.24,367.96 135.24,365.56 135.24,363.15 137.65,363.15 
			140.06,363.15 140.06,360.74 137.65,360.74 135.24,360.74 135.24,358.33 135.24,355.92 132.83,355.92 132.83,358.33 
			132.83,360.74 130.42,360.74 128.01,360.74 128.01,363.15 130.42,363.15 		"/>
		<polygon points="135.71,383.13 135.71,385.54 138.12,385.54 140.53,385.54 140.53,387.95 140.53,390.36 142.94,390.36 
			142.94,387.95 142.94,385.54 145.35,385.54 147.76,385.54 147.76,383.13 145.35,383.13 142.94,383.13 142.94,380.72 
			142.94,378.31 140.53,378.31 140.53,380.72 140.53,383.13 138.12,383.13 		"/>
		<polygon points="148.38,377.69 148.38,380.1 148.38,382.51 150.79,382.51 150.79,380.1 150.79,377.69 153.2,377.69 155.61,377.69 
			155.61,375.28 153.2,375.28 150.79,375.28 150.79,372.87 150.79,370.46 148.38,370.46 148.38,372.87 148.38,375.28 145.98,375.28 
			143.57,375.28 143.57,377.69 145.98,377.69 		"/>
		<polygon points="120.31,383.13 120.31,385.54 122.72,385.54 125.13,385.54 125.13,387.95 125.13,390.36 127.54,390.36 
			127.54,387.95 127.54,385.54 129.95,385.54 132.36,385.54 132.36,383.13 129.95,383.13 127.54,383.13 127.54,380.72 
			127.54,378.31 125.13,378.31 125.13,380.72 125.13,383.13 122.72,383.13 		"/>
		<polygon points="117.28,377.69 117.28,380.1 117.28,382.51 119.69,382.51 119.69,380.1 119.69,377.69 122.1,377.69 124.51,377.69 
			124.51,375.28 122.1,375.28 119.69,375.28 119.69,372.87 119.69,370.46 117.28,370.46 117.28,372.87 117.28,375.28 114.87,375.28 
			112.46,375.28 112.46,377.69 114.87,377.69 		"/>
		<path d="M225.75,536.57c5.92-0.05,10.73-4.88,10.73-10.82c0-5.94-4.81-10.77-10.73-10.82l0,0h0c0,0,0,0,0,0l0,0
			c-5.92,0.05-10.73,4.88-10.73,10.82C215.02,531.69,219.83,536.52,225.75,536.57L225.75,536.57
			C225.75,536.57,225.75,536.57,225.75,536.57L225.75,536.57L225.75,536.57z M217.02,525.76c0-4.83,3.91-8.77,8.73-8.82
			c4.82,0.05,8.73,3.98,8.73,8.82c0,4.83-3.91,8.77-8.73,8.82C220.93,534.52,217.02,530.59,217.02,525.76z"/>
		<polygon points="224.78,487.99 225.75,487.99 225.75,487.99 226.72,487.99 226.72,484.08 230.63,484.08 230.63,482.12 
			226.72,482.12 226.72,478.21 225.75,478.21 225.75,478.21 224.78,478.21 224.78,482.12 220.87,482.12 220.87,484.08 
			224.78,484.08 		"/>
		<polygon points="213.87,502.75 217.78,502.75 217.78,506.67 219.73,506.67 219.73,502.75 224.78,502.75 224.78,507.8 
			220.87,507.8 220.87,509.76 224.78,509.76 224.78,513.67 225.75,513.67 225.75,513.67 226.72,513.67 226.72,509.76 230.63,509.76 
			230.63,507.8 226.72,507.8 226.72,502.75 231.77,502.75 231.77,506.67 233.72,506.67 233.72,502.75 237.63,502.75 237.63,500.8 
			233.72,500.8 233.72,496.89 231.77,496.89 231.77,500.8 226.72,500.8 226.72,495.75 230.63,495.75 230.63,493.8 226.72,493.8 
			226.72,489.89 225.75,489.89 225.75,489.89 224.78,489.89 224.78,493.8 220.87,493.8 220.87,495.75 224.78,495.75 224.78,500.8 
			219.73,500.8 219.73,496.89 217.78,496.89 217.78,500.8 213.87,500.8 		"/>
		<polygon points="211.22,499.67 213.18,499.67 213.18,495.75 217.09,495.75 217.09,493.8 213.18,493.8 213.18,489.89 
			211.22,489.89 211.22,493.8 207.31,493.8 207.31,495.75 211.22,495.75 		"/>
		<polygon points="349.87,542.95 345.32,542.95 345.32,538.4 343.05,538.4 343.05,542.95 336.24,542.95 336.24,536.13 
			340.78,536.13 340.78,533.86 336.24,533.86 336.24,529.32 333.97,529.32 333.97,533.86 329.42,533.86 329.42,536.13 
			333.97,536.13 333.97,542.95 327.15,542.95 327.15,538.4 324.88,538.4 324.88,542.95 318.06,542.95 318.06,536.13 322.61,536.13 
			322.61,533.86 318.06,533.86 318.06,527.05 324.88,527.05 324.88,531.59 327.15,531.59 327.15,527.05 331.69,527.05 
			331.69,524.77 327.15,524.77 327.15,520.23 324.88,520.23 324.88,524.77 318.06,524.77 318.06,517.96 322.61,517.96 
			322.61,515.69 318.06,515.69 318.06,511.14 315.79,511.14 315.79,515.69 311.25,515.69 311.25,517.96 315.79,517.96 
			315.79,524.77 308.98,524.77 308.98,520.23 306.71,520.23 306.71,524.77 302.16,524.77 302.16,527.05 306.71,527.05 
			306.71,531.59 308.98,531.59 308.98,527.05 315.79,527.05 315.79,533.86 311.25,533.86 311.25,536.13 315.79,536.13 
			315.79,542.95 308.98,542.95 308.98,538.4 306.71,538.4 306.71,542.95 299.89,542.95 299.89,536.13 304.44,536.13 304.44,533.86 
			299.89,533.86 299.89,529.32 297.62,529.32 297.62,533.86 293.08,533.86 293.08,536.13 297.62,536.13 297.62,542.95 
			290.81,542.95 290.81,538.4 288.53,538.4 288.53,542.95 283.99,542.95 283.99,545.22 288.53,545.22 288.53,549.76 290.81,549.76 
			290.81,545.22 297.62,545.22 297.62,550 299.89,550 299.89,545.22 306.71,545.22 306.71,549.76 308.98,549.76 308.98,545.22 
			315.79,545.22 315.79,550 318.06,550 318.06,545.22 324.88,545.22 324.88,549.76 327.15,549.76 327.15,545.22 333.97,545.22 
			333.97,550 336.24,550 336.24,545.22 343.05,545.22 343.05,549.76 345.32,549.76 345.32,545.22 349.87,545.22 		"/>
		<path d="M316.93,460.04l-84.04,84.04l5.92,5.92h21.15l13.28-3.22l-3.22,3.22h14.83l-0.97-4.68l-5.97-1.24l5.97-1.24l1.37-6.59
			l6.59-1.37l1.37-6.59l6.59-1.37l1.37-6.59l6.59-1.37l1.37-6.59l6.59-1.37l1.24-5.97l1.24,5.97l6.59,1.37l1.37,6.59l6.59,1.37
			l1.37,6.59l6.59,1.37l1.37,6.59l6.59,1.37l1.37,6.59l5.97,1.24l-5.97,1.24L349,550h14.83l-3.22-3.22L373.9,550h21.15l5.92-5.92
			L316.93,460.04z M245.21,534.59l10.62-10.62l17.41,17.41L245.21,534.59z M284.14,534.37l-19.35-19.35l7.06-7.06l19.35,19.35
			L284.14,534.37z M300.15,518.35L280.8,499l7.06-7.06l19.35,19.35L300.15,518.35z M296.82,482.98l10.62-10.62l6.79,28.03
			L296.82,482.98z M319.63,500.4l6.79-28.03l10.62,10.62L319.63,500.4z M333.7,518.35l-7.06-7.06L346,491.94l7.06,7.06L333.7,518.35
			z M349.72,534.37l-7.06-7.06l19.35-19.35l7.06,7.06L349.72,534.37z M360.61,541.38l17.41-17.41l10.62,10.62L360.61,541.38z"/>
		<polygon points="315.72,459 318.13,459 318.13,456.59 318.13,454.18 320.54,454.18 322.95,454.18 322.95,451.77 320.54,451.77 
			318.13,451.77 318.13,449.36 318.13,446.95 315.72,446.95 315.72,449.36 315.72,451.77 313.31,451.77 310.91,451.77 
			310.91,454.18 313.31,454.18 315.72,454.18 315.72,456.59 		"/>
		<polygon points="315.72,443.56 318.13,443.56 318.13,441.15 318.13,438.74 320.54,438.74 322.95,438.74 322.95,436.33 
			320.54,436.33 318.13,436.33 318.13,433.92 318.13,431.51 315.72,431.51 315.72,433.92 315.72,436.33 313.31,436.33 
			310.91,436.33 310.91,438.74 313.31,438.74 315.72,438.74 315.72,441.15 		"/>
		<polygon points="318.13,416.07 315.72,416.07 315.72,418.48 315.72,420.89 313.31,420.89 310.91,420.89 310.91,423.3 
			313.31,423.3 315.72,423.3 315.72,425.71 315.72,428.12 318.13,428.12 318.13,425.71 318.13,423.3 320.54,423.3 322.95,423.3 
			322.95,420.89 320.54,420.89 318.13,420.89 318.13,418.48 		"/>
		<polygon points="310.91,407.85 313.31,407.85 315.72,407.85 315.72,410.26 315.72,412.67 318.13,412.67 318.13,410.26 
			318.13,407.85 320.54,407.85 322.95,407.85 322.95,405.45 320.54,405.45 318.13,405.45 318.13,403.04 318.13,400.63 
			315.72,400.63 315.72,403.04 315.72,405.45 313.31,405.45 310.91,405.45 		"/>
		<polygon points="326.03,408.17 323.62,408.17 323.62,410.58 323.62,412.99 321.21,412.99 318.8,412.99 318.8,415.4 321.21,415.4 
			323.62,415.4 323.62,417.81 323.62,420.22 326.03,420.22 326.03,417.81 326.03,415.4 328.44,415.4 330.85,415.4 330.85,412.99 
			328.44,412.99 326.03,412.99 326.03,410.58 		"/>
		<polygon points="333.92,405.1 333.92,402.69 333.92,400.28 331.52,400.28 331.52,402.69 331.52,405.1 329.11,405.1 326.7,405.1 
			326.7,407.51 329.11,407.51 331.52,407.51 331.52,409.92 331.52,412.33 333.92,412.33 333.92,409.92 333.92,407.51 336.33,407.51 
			338.74,407.51 338.74,405.1 336.33,405.1 		"/>
		<polygon points="323.55,435.73 325.96,435.73 325.96,433.32 325.96,430.91 328.37,430.91 330.78,430.91 330.78,428.5 
			328.37,428.5 325.96,428.5 325.96,426.09 325.96,423.68 323.55,423.68 323.55,426.09 323.55,428.5 321.15,428.5 318.74,428.5 
			318.74,430.91 321.15,430.91 323.55,430.91 323.55,433.32 		"/>
		<polygon points="333.79,415.85 331.38,415.85 331.38,418.26 331.38,420.67 328.98,420.67 326.57,420.67 326.57,423.08 
			328.98,423.08 331.38,423.08 331.38,425.49 331.38,427.9 333.79,427.9 333.79,425.49 333.79,423.08 336.2,423.08 338.61,423.08 
			338.61,420.67 336.2,420.67 333.79,420.67 333.79,418.26 		"/>
		<polygon points="334.4,412.84 334.4,415.25 336.81,415.25 339.22,415.25 339.22,417.66 339.22,420.07 341.62,420.07 
			341.62,417.66 341.62,415.25 344.03,415.25 346.44,415.25 346.44,412.84 344.03,412.84 341.62,412.84 341.62,410.43 
			341.62,408.02 339.22,408.02 339.22,410.43 339.22,412.84 336.81,412.84 		"/>
		<polygon points="347.05,407.42 347.05,409.83 347.05,412.24 349.45,412.24 349.45,409.83 349.45,407.42 351.86,407.42 
			354.27,407.42 354.27,405.01 351.86,405.01 349.45,405.01 349.45,402.6 349.45,400.19 347.05,400.19 347.05,402.6 347.05,405.01 
			344.64,405.01 342.23,405.01 342.23,407.42 344.64,407.42 		"/>
		<polygon points="323.42,451.3 325.83,451.3 325.83,448.89 325.83,446.48 328.24,446.48 330.65,446.48 330.65,444.07 
			328.24,444.07 325.83,444.07 325.83,441.66 325.83,439.25 323.42,439.25 323.42,441.66 323.42,444.07 321.02,444.07 
			318.61,444.07 318.61,446.48 321.02,446.48 323.42,446.48 323.42,448.89 		"/>
		<polygon points="331.28,443.45 333.69,443.45 333.69,441.04 333.69,438.63 336.09,438.63 338.5,438.63 338.5,436.22 
			336.09,436.22 333.69,436.22 333.69,433.81 333.69,431.4 331.28,431.4 331.28,433.81 331.28,436.22 328.87,436.22 326.46,436.22 
			326.46,438.63 328.87,438.63 331.28,438.63 331.28,441.04 		"/>
		<polygon points="339.13,435.6 341.54,435.6 341.54,433.19 341.54,430.78 343.95,430.78 346.36,430.78 346.36,428.37 
			343.95,428.37 341.54,428.37 341.54,425.96 341.54,423.55 339.13,423.55 339.13,425.96 339.13,428.37 336.72,428.37 
			334.31,428.37 334.31,430.78 336.72,430.78 339.13,430.78 339.13,433.19 		"/>
		<polygon points="346.98,427.75 349.39,427.75 349.39,425.34 349.39,422.93 351.8,422.93 354.21,422.93 354.21,420.52 
			351.8,420.52 349.39,420.52 349.39,418.11 349.39,415.7 346.98,415.7 346.98,418.11 346.98,420.52 344.57,420.52 342.16,420.52 
			342.16,422.93 344.57,422.93 346.98,422.93 346.98,425.34 		"/>
		<polygon points="350.01,412.67 350.01,415.08 352.42,415.08 354.83,415.08 354.83,417.49 354.83,419.89 357.24,419.89 
			357.24,417.49 357.24,415.08 359.65,415.08 362.06,415.08 362.06,412.67 359.65,412.67 357.24,412.67 357.24,410.26 
			357.24,407.85 354.83,407.85 354.83,410.26 354.83,412.67 352.42,412.67 		"/>
		<polygon points="362.68,407.22 362.68,409.63 362.68,412.04 365.09,412.04 365.09,409.63 365.09,407.22 367.5,407.22 
			369.91,407.22 369.91,404.82 367.5,404.82 365.09,404.82 365.09,402.41 365.09,400 362.68,400 362.68,402.41 362.68,404.82 
			360.27,404.82 357.86,404.82 357.86,407.22 360.27,407.22 		"/>
		<polygon points="310.24,408.17 307.83,408.17 307.83,410.58 307.83,412.99 305.42,412.99 303.01,412.99 303.01,415.4 
			305.42,415.4 307.83,415.4 307.83,417.81 307.83,420.22 310.24,420.22 310.24,417.81 310.24,415.4 312.65,415.4 315.06,415.4 
			315.06,412.99 312.65,412.99 310.24,412.99 310.24,410.58 		"/>
		<polygon points="299.93,407.51 299.93,409.92 299.93,412.33 302.34,412.33 302.34,409.92 302.34,407.51 304.75,407.51 
			307.16,407.51 307.16,405.1 304.75,405.1 302.34,405.1 302.34,402.69 302.34,400.28 299.93,400.28 299.93,402.69 299.93,405.1 
			297.52,405.1 295.11,405.1 295.11,407.51 297.52,407.51 		"/>
		<polygon points="307.89,435.73 310.3,435.73 310.3,433.32 310.3,430.91 312.71,430.91 315.12,430.91 315.12,428.5 312.71,428.5 
			310.3,428.5 310.3,426.09 310.3,423.68 307.89,423.68 307.89,426.09 307.89,428.5 305.48,428.5 303.08,428.5 303.08,430.91 
			305.48,430.91 307.89,430.91 307.89,433.32 		"/>
		<polygon points="302.47,415.85 300.06,415.85 300.06,418.26 300.06,420.67 297.65,420.67 295.25,420.67 295.25,423.08 
			297.65,423.08 300.06,423.08 300.06,425.49 300.06,427.9 302.47,427.9 302.47,425.49 302.47,423.08 304.88,423.08 307.29,423.08 
			307.29,420.67 304.88,420.67 302.47,420.67 302.47,418.26 		"/>
		<polygon points="287.42,412.84 287.42,415.25 289.82,415.25 292.23,415.25 292.23,417.66 292.23,420.07 294.64,420.07 
			294.64,417.66 294.64,415.25 297.05,415.25 299.46,415.25 299.46,412.84 297.05,412.84 294.64,412.84 294.64,410.43 
			294.64,408.02 292.23,408.02 292.23,410.43 292.23,412.84 289.82,412.84 		"/>
		<polygon points="284.4,407.42 284.4,409.83 284.4,412.24 286.81,412.24 286.81,409.83 286.81,407.42 289.22,407.42 291.63,407.42 
			291.63,405.01 289.22,405.01 286.81,405.01 286.81,402.6 286.81,400.19 284.4,400.19 284.4,402.6 284.4,405.01 281.99,405.01 
			279.58,405.01 279.58,407.42 281.99,407.42 		"/>
		<polygon points="308.02,451.3 310.43,451.3 310.43,448.89 310.43,446.48 312.84,446.48 315.25,446.48 315.25,444.07 
			312.84,444.07 310.43,444.07 310.43,441.66 310.43,439.25 308.02,439.25 308.02,441.66 308.02,444.07 305.61,444.07 
			303.21,444.07 303.21,446.48 305.61,446.48 308.02,446.48 308.02,448.89 		"/>
		<polygon points="300.17,443.45 302.58,443.45 302.58,441.04 302.58,438.63 304.99,438.63 307.4,438.63 307.4,436.22 
			304.99,436.22 302.58,436.22 302.58,433.81 302.58,431.4 300.17,431.4 300.17,433.81 300.17,436.22 297.76,436.22 295.35,436.22 
			295.35,438.63 297.76,438.63 300.17,438.63 300.17,441.04 		"/>
		<polygon points="292.32,435.6 294.73,435.6 294.73,433.19 294.73,430.78 297.14,430.78 299.55,430.78 299.55,428.37 
			297.14,428.37 294.73,428.37 294.73,425.96 294.73,423.55 292.32,423.55 292.32,425.96 292.32,428.37 289.91,428.37 287.5,428.37 
			287.5,430.78 289.91,430.78 292.32,430.78 292.32,433.19 		"/>
		<polygon points="284.47,427.75 286.88,427.75 286.88,425.34 286.88,422.93 289.29,422.93 291.7,422.93 291.7,420.52 
			289.29,420.52 286.88,420.52 286.88,418.11 286.88,415.7 284.47,415.7 284.47,418.11 284.47,420.52 282.06,420.52 279.65,420.52 
			279.65,422.93 282.06,422.93 284.47,422.93 284.47,425.34 		"/>
		<polygon points="271.8,412.67 271.8,415.08 274.21,415.08 276.62,415.08 276.62,417.49 276.62,419.89 279.03,419.89 
			279.03,417.49 279.03,415.08 281.44,415.08 283.85,415.08 283.85,412.67 281.44,412.67 279.03,412.67 279.03,410.26 
			279.03,407.85 276.62,407.85 276.62,410.26 276.62,412.67 274.21,412.67 		"/>
		<polygon points="268.77,407.22 268.77,409.63 268.77,412.04 271.18,412.04 271.18,409.63 271.18,407.22 273.58,407.22 
			275.99,407.22 275.99,404.82 273.58,404.82 271.18,404.82 271.18,402.41 271.18,400 268.77,400 268.77,402.41 268.77,404.82 
			266.36,404.82 263.95,404.82 263.95,407.22 266.36,407.22 		"/>
		<polygon points="347.05,392.04 347.05,394.45 347.05,396.86 349.45,396.86 349.45,394.45 349.45,392.04 351.86,392.04 
			354.27,392.04 354.27,389.63 351.86,389.63 349.45,389.63 349.45,387.22 349.45,384.81 347.05,384.81 347.05,387.22 
			347.05,389.63 344.64,389.63 342.23,389.63 342.23,392.04 344.64,392.04 		"/>
		<polygon points="284.4,392.04 284.4,394.45 284.4,396.86 286.81,396.86 286.81,394.45 286.81,392.04 289.22,392.04 291.63,392.04 
			291.63,389.63 289.22,389.63 286.81,389.63 286.81,387.22 286.81,384.81 284.4,384.81 284.4,387.22 284.4,389.63 281.99,389.63 
			279.58,389.63 279.58,392.04 281.99,392.04 		"/>
		<polygon points="318.13,386.02 315.72,386.02 315.72,388.42 315.72,390.83 313.31,390.83 310.91,390.83 310.91,393.24 
			313.31,393.24 315.72,393.24 315.72,395.65 315.72,398.06 318.13,398.06 318.13,395.65 318.13,393.24 320.54,393.24 
			322.95,393.24 322.95,390.83 320.54,390.83 318.13,390.83 318.13,388.42 		"/>
		<polygon points="315.72,377.8 315.72,380.21 315.72,382.62 318.13,382.62 318.13,380.21 318.13,377.8 320.54,377.8 322.95,377.8 
			322.95,375.39 320.54,375.39 318.13,375.39 318.13,372.98 318.13,370.57 315.72,370.57 315.72,372.98 315.72,375.39 
			313.31,375.39 310.91,375.39 310.91,377.8 313.31,377.8 		"/>
		<polygon points="315.72,363.15 315.72,365.56 315.72,367.96 318.13,367.96 318.13,365.56 318.13,363.15 320.54,363.15 
			322.95,363.15 322.95,360.74 320.54,360.74 318.13,360.74 318.13,358.33 318.13,355.92 315.72,355.92 315.72,358.33 
			315.72,360.74 313.31,360.74 310.91,360.74 310.91,363.15 313.31,363.15 		"/>
		<polygon points="318.61,383.13 318.61,385.54 321.02,385.54 323.42,385.54 323.42,387.95 323.42,390.36 325.83,390.36 
			325.83,387.95 325.83,385.54 328.24,385.54 330.65,385.54 330.65,383.13 328.24,383.13 325.83,383.13 325.83,380.72 
			325.83,378.31 323.42,378.31 323.42,380.72 323.42,383.13 321.02,383.13 		"/>
		<polygon points="331.28,377.69 331.28,380.1 331.28,382.51 333.69,382.51 333.69,380.1 333.69,377.69 336.09,377.69 338.5,377.69 
			338.5,375.28 336.09,375.28 333.69,375.28 333.69,372.87 333.69,370.46 331.28,370.46 331.28,372.87 331.28,375.28 328.87,375.28 
			326.46,375.28 326.46,377.69 328.87,377.69 		"/>
		<polygon points="303.21,383.13 303.21,385.54 305.61,385.54 308.02,385.54 308.02,387.95 308.02,390.36 310.43,390.36 
			310.43,387.95 310.43,385.54 312.84,385.54 315.25,385.54 315.25,383.13 312.84,383.13 310.43,383.13 310.43,380.72 
			310.43,378.31 308.02,378.31 308.02,380.72 308.02,383.13 305.61,383.13 		"/>
		<polygon points="300.17,377.69 300.17,380.1 300.17,382.51 302.58,382.51 302.58,380.1 302.58,377.69 304.99,377.69 307.4,377.69 
			307.4,375.28 304.99,375.28 302.58,375.28 302.58,372.87 302.58,370.46 300.17,370.46 300.17,372.87 300.17,375.28 297.76,375.28 
			295.35,375.28 295.35,377.69 297.76,377.69 		"/>
		<path d="M225.75,528.58C225.75,528.58,225.75,528.58,225.75,528.58L225.75,528.58L225.75,528.58c1.52-0.05,2.74-1.29,2.74-2.83
			s-1.22-2.78-2.74-2.83l0,0h0c0,0,0,0,0,0l0,0c-1.52,0.05-2.74,1.29-2.74,2.83S224.23,528.53,225.75,528.58L225.75,528.58z"/>
		<polygon points="238.32,499.67 240.28,499.67 240.28,495.75 244.19,495.75 244.19,493.8 240.28,493.8 240.28,489.89 
			238.32,489.89 238.32,493.8 234.41,493.8 234.41,495.75 238.32,495.75 		"/>
	</g>
</g>
<g>
</g>
<g>
</g>
<g>
</g>
<g>
</g>
<g>
</g>
<g>
</g>
<g>
</g>
<g>
</g>
<g>
</g>
<g>
</g>
<g>
</g>
<g>
</g>
<g>
</g>
<g>
</g>
<g>
</g>
</svg>
