<?xml version="1.0" encoding="utf-8"?>
<!-- Generator: Adobe Illustrator 27.2.0, SVG Export Plug-In . SVG Version: 6.00 Build 0)  -->
<svg version="1.1" id="Layer_1" xmlns="http://www.w3.org/2000/svg" xmlns:xlink="http://www.w3.org/1999/xlink" x="0px" y="0px"
	 viewBox="0 0 800 600" style="enable-background:new 0 0 800 600;" xml:space="preserve">
<g>
	<g>
		<g>
			<g>
				<rect x="161.16" y="436.01" width="2.83" height="2.83"/>
				<rect x="161.16" y="434.39" width="2.83" height="1.62"/>
				
					<rect x="158.93" y="436.62" transform="matrix(-1.836970e-16 1 -1 -1.836970e-16 597.7717 277.0816)" width="2.83" height="1.62"/>
				
					<rect x="163.38" y="436.62" transform="matrix(-1.836970e-16 1 -1 -1.836970e-16 602.2283 272.6249)" width="2.83" height="1.62"/>
				<rect x="161.16" y="438.84" width="2.83" height="1.62"/>
			</g>
			<g>
				<rect x="161.16" y="426.77" width="2.83" height="2.83"/>
				<rect x="161.16" y="421.98" width="2.83" height="4.79"/>
				<rect x="161.16" y="429.6" width="2.83" height="4.79"/>
				<rect x="163.99" y="426.77" width="4.79" height="2.83"/>
				<rect x="156.37" y="426.77" width="4.79" height="2.83"/>
			</g>
			<g>
				<rect x="151.91" y="436.01" width="2.83" height="2.83"/>
				<rect x="151.91" y="431.22" width="2.83" height="4.79"/>
				<rect x="151.91" y="438.84" width="2.83" height="4.79"/>
				<rect x="154.75" y="436.01" width="4.79" height="2.83"/>
				<rect x="147.12" y="436.01" width="4.79" height="2.83"/>
			</g>
			<g>
				<rect x="170.4" y="436.01" width="2.83" height="2.83"/>
				<rect x="170.4" y="431.22" width="2.83" height="4.79"/>
				<rect x="170.4" y="438.84" width="2.83" height="4.79"/>
				<rect x="173.23" y="436.01" width="4.79" height="2.83"/>
				<rect x="165.61" y="436.01" width="4.79" height="2.83"/>
			</g>
			<g>
				<rect x="161.16" y="445.25" width="2.83" height="2.83"/>
				<rect x="161.16" y="440.47" width="2.83" height="4.79"/>
				<rect x="161.16" y="448.09" width="2.83" height="4.79"/>
				<rect x="163.99" y="445.25" width="4.79" height="2.83"/>
				<rect x="156.37" y="445.25" width="4.79" height="2.83"/>
			</g>
		</g>
		<g>
			<g>
				<rect x="161.16" y="403.63" width="2.83" height="2.83"/>
				<rect x="161.16" y="402.01" width="2.83" height="1.62"/>
				
					<rect x="158.93" y="404.24" transform="matrix(-1.836970e-16 1 -1 -1.836970e-16 565.3967 244.7066)" width="2.83" height="1.62"/>
				
					<rect x="163.38" y="404.24" transform="matrix(-1.836970e-16 1 -1 -1.836970e-16 569.8533 240.2499)" width="2.83" height="1.62"/>
				<rect x="161.16" y="406.47" width="2.83" height="1.62"/>
			</g>
			<g>
				<rect x="161.16" y="394.39" width="2.83" height="2.83"/>
				<rect x="161.16" y="389.6" width="2.83" height="4.79"/>
				<rect x="161.16" y="397.23" width="2.83" height="4.79"/>
				<rect x="163.99" y="394.39" width="4.79" height="2.83"/>
				<rect x="156.37" y="394.39" width="4.79" height="2.83"/>
			</g>
			<g>
				<rect x="151.91" y="403.63" width="2.83" height="2.83"/>
				<rect x="151.91" y="398.85" width="2.83" height="4.79"/>
				<rect x="151.91" y="406.47" width="2.83" height="4.79"/>
				<rect x="154.75" y="403.63" width="4.79" height="2.83"/>
				<rect x="147.12" y="403.63" width="4.79" height="2.83"/>
			</g>
			<g>
				<rect x="170.4" y="403.63" width="2.83" height="2.83"/>
				<rect x="170.4" y="398.85" width="2.83" height="4.79"/>
				<rect x="170.4" y="406.47" width="2.83" height="4.79"/>
				<rect x="173.23" y="403.63" width="4.79" height="2.83"/>
				<rect x="165.61" y="403.63" width="4.79" height="2.83"/>
			</g>
			<g>
				<rect x="161.16" y="412.88" width="2.83" height="2.83"/>
				<rect x="161.16" y="408.09" width="2.83" height="4.79"/>
				<rect x="161.16" y="415.71" width="2.83" height="4.79"/>
				<rect x="163.99" y="412.88" width="4.79" height="2.83"/>
				<rect x="156.37" y="412.88" width="4.79" height="2.83"/>
			</g>
		</g>
		<g>
			<g>
				<rect x="161.16" y="371.26" width="2.83" height="2.83"/>
				<rect x="161.16" y="369.64" width="2.83" height="1.62"/>
				
					<rect x="158.93" y="371.87" transform="matrix(-1.836970e-16 1 -1 -1.836970e-16 533.0217 212.3316)" width="2.83" height="1.62"/>
				
					<rect x="163.38" y="371.87" transform="matrix(-1.836970e-16 1 -1 -1.836970e-16 537.4783 207.8749)" width="2.83" height="1.62"/>
				<rect x="161.16" y="374.09" width="2.83" height="1.62"/>
			</g>
			<g>
				<rect x="161.16" y="362.02" width="2.83" height="2.83"/>
				<rect x="161.16" y="357.23" width="2.83" height="4.79"/>
				<rect x="161.16" y="364.85" width="2.83" height="4.79"/>
				<rect x="163.99" y="362.02" width="4.79" height="2.83"/>
				<rect x="156.37" y="362.02" width="4.79" height="2.83"/>
			</g>
			<g>
				<rect x="151.91" y="371.26" width="2.83" height="2.83"/>
				<rect x="151.91" y="366.47" width="2.83" height="4.79"/>
				<rect x="151.91" y="374.09" width="2.83" height="4.79"/>
				<rect x="154.75" y="371.26" width="4.79" height="2.83"/>
				<rect x="147.12" y="371.26" width="4.79" height="2.83"/>
			</g>
			<g>
				<rect x="170.4" y="371.26" width="2.83" height="2.83"/>
				<rect x="170.4" y="366.47" width="2.83" height="4.79"/>
				<rect x="170.4" y="374.09" width="2.83" height="4.79"/>
				<rect x="173.23" y="371.26" width="4.79" height="2.83"/>
				<rect x="165.61" y="371.26" width="4.79" height="2.83"/>
			</g>
			<g>
				<rect x="161.16" y="380.5" width="2.83" height="2.83"/>
				<rect x="161.16" y="375.72" width="2.83" height="4.79"/>
				<rect x="161.16" y="383.34" width="2.83" height="4.79"/>
				<rect x="163.99" y="380.5" width="4.79" height="2.83"/>
				<rect x="156.37" y="380.5" width="4.79" height="2.83"/>
			</g>
		</g>
		<g>
			<g>
				<rect x="161.16" y="338.88" width="2.83" height="2.83"/>
				<rect x="161.16" y="337.26" width="2.83" height="1.62"/>
				
					<rect x="158.93" y="339.49" transform="matrix(-1.836970e-16 1 -1 -1.836970e-16 500.6467 179.9566)" width="2.83" height="1.62"/>
				
					<rect x="163.38" y="339.49" transform="matrix(-1.836970e-16 1 -1 -1.836970e-16 505.1033 175.4999)" width="2.83" height="1.62"/>
				<rect x="161.16" y="341.72" width="2.83" height="1.62"/>
			</g>
			<g>
				<rect x="161.16" y="329.64" width="2.83" height="2.83"/>
				<rect x="161.16" y="324.85" width="2.83" height="4.79"/>
				<rect x="161.16" y="332.48" width="2.83" height="4.79"/>
				<rect x="163.99" y="329.64" width="4.79" height="2.83"/>
				<rect x="156.37" y="329.64" width="4.79" height="2.83"/>
			</g>
			<g>
				<rect x="151.91" y="338.88" width="2.83" height="2.83"/>
				<rect x="151.91" y="334.1" width="2.83" height="4.79"/>
				<rect x="151.91" y="341.72" width="2.83" height="4.79"/>
				<rect x="154.75" y="338.88" width="4.79" height="2.83"/>
				<rect x="147.12" y="338.88" width="4.79" height="2.83"/>
			</g>
			<g>
				<rect x="170.4" y="338.88" width="2.83" height="2.83"/>
				<rect x="170.4" y="334.1" width="2.83" height="4.79"/>
				<rect x="170.4" y="341.72" width="2.83" height="4.79"/>
				<rect x="173.23" y="338.88" width="4.79" height="2.83"/>
				<rect x="165.61" y="338.88" width="4.79" height="2.83"/>
			</g>
			<g>
				<rect x="161.16" y="348.13" width="2.83" height="2.83"/>
				<rect x="161.16" y="343.34" width="2.83" height="4.79"/>
				<rect x="161.16" y="350.96" width="2.83" height="4.79"/>
				<rect x="163.99" y="348.13" width="4.79" height="2.83"/>
				<rect x="156.37" y="348.13" width="4.79" height="2.83"/>
			</g>
		</g>
		<g>
			<g>
				<rect x="64.03" y="436.01" transform="matrix(3.850260e-11 -1 1 3.850260e-11 -371.9783 502.875)" width="2.83" height="2.83"/>
				<rect x="61.8" y="436.62" transform="matrix(3.850260e-11 -1 1 3.850260e-11 -374.2066 500.6466)" width="2.83" height="1.62"/>
				<rect x="64.03" y="438.84" width="2.83" height="1.62"/>
				<rect x="64.03" y="434.39" width="2.83" height="1.62"/>
				
					<rect x="66.26" y="436.62" transform="matrix(3.529361e-11 -1 1 3.529361e-11 -369.7499 505.1033)" width="2.83" height="1.62"/>
			</g>
			<g>
				
					<rect x="54.79" y="436.01" transform="matrix(3.850260e-11 -1 1 3.850260e-11 -381.2221 493.6311)" width="2.83" height="2.83"/>
				<rect x="50" y="436.01" width="4.79" height="2.83"/>
				<rect x="57.62" y="436.01" width="4.79" height="2.83"/>
				<rect x="54.79" y="431.22" width="2.83" height="4.79"/>
				<rect x="54.79" y="438.84" width="2.83" height="4.79"/>
			</g>
			<g>
				
					<rect x="64.03" y="445.25" transform="matrix(3.850260e-11 -1 1 3.850260e-11 -381.2221 512.1188)" width="2.83" height="2.83"/>
				<rect x="59.24" y="445.25" width="4.79" height="2.83"/>
				<rect x="66.87" y="445.25" width="4.79" height="2.83"/>
				<rect x="64.03" y="440.47" width="2.83" height="4.79"/>
				<rect x="64.03" y="448.09" width="2.83" height="4.79"/>
			</g>
			<g>
				
					<rect x="64.03" y="426.77" transform="matrix(3.850260e-11 -1 1 3.850260e-11 -362.7344 493.6311)" width="2.83" height="2.83"/>
				<rect x="59.24" y="426.77" width="4.79" height="2.83"/>
				<rect x="66.87" y="426.77" width="4.79" height="2.83"/>
				<rect x="64.03" y="421.98" width="2.83" height="4.79"/>
				<rect x="64.03" y="429.6" width="2.83" height="4.79"/>
			</g>
			<g>
				
					<rect x="73.27" y="436.01" transform="matrix(3.208462e-11 -1 1 3.208462e-11 -362.7344 512.1188)" width="2.83" height="2.83"/>
				<rect x="68.49" y="436.01" width="4.79" height="2.83"/>
				<rect x="76.11" y="436.01" width="4.79" height="2.83"/>
				<rect x="73.27" y="431.22" width="2.83" height="4.79"/>
				<rect x="73.27" y="438.84" width="2.83" height="4.79"/>
			</g>
		</g>
		<g>
			<g>
				
					<rect x="161.16" y="533.13" transform="matrix(-1 -8.791291e-11 8.791291e-11 -1 325.1467 1069.1033)" width="2.83" height="2.83"/>
				
					<rect x="161.16" y="535.97" transform="matrix(-1 -8.855462e-11 8.855462e-11 -1 325.1467 1073.5599)" width="2.83" height="1.62"/>
				
					<rect x="163.38" y="533.74" transform="matrix(7.058715e-11 -1 1 7.058715e-11 -369.7499 699.3533)" width="2.83" height="1.62"/>
				
					<rect x="158.93" y="533.74" transform="matrix(1.058807e-10 -1 1 1.058807e-10 -374.2066 694.8967)" width="2.83" height="1.62"/>
				
					<rect x="161.16" y="531.51" transform="matrix(-1 -8.855462e-11 8.855462e-11 -1 325.1467 1064.6466)" width="2.83" height="1.62"/>
			</g>
			<g>
				
					<rect x="161.16" y="542.38" transform="matrix(-1 -9.176317e-11 9.176317e-11 -1 325.1467 1087.5909)" width="2.83" height="2.83"/>
				<rect x="161.16" y="545.21" width="2.83" height="4.79"/>
				<rect x="161.16" y="537.59" width="2.83" height="4.79"/>
				<rect x="156.37" y="542.38" width="4.79" height="2.83"/>
				<rect x="163.99" y="542.38" width="4.79" height="2.83"/>
			</g>
			<g>
				
					<rect x="170.4" y="533.13" transform="matrix(-1 -8.855462e-11 8.855462e-11 -1 343.6344 1069.1033)" width="2.83" height="2.83"/>
				<rect x="170.4" y="535.97" width="2.83" height="4.79"/>
				<rect x="170.4" y="528.35" width="2.83" height="4.79"/>
				<rect x="165.61" y="533.13" width="4.79" height="2.83"/>
				<rect x="173.23" y="533.13" width="4.79" height="2.83"/>
			</g>
			<g>
				
					<rect x="151.91" y="533.13" transform="matrix(-1 -8.855462e-11 8.855462e-11 -1 306.659 1069.1033)" width="2.83" height="2.83"/>
				<rect x="151.91" y="535.97" width="2.83" height="4.79"/>
				<rect x="151.91" y="528.35" width="2.83" height="4.79"/>
				<rect x="147.12" y="533.13" width="4.79" height="2.83"/>
				<rect x="154.75" y="533.13" width="4.79" height="2.83"/>
			</g>
			<g>
				
					<rect x="161.16" y="523.89" transform="matrix(-1 -9.176317e-11 9.176317e-11 -1 325.1467 1050.6155)" width="2.83" height="2.83"/>
				<rect x="161.16" y="526.73" width="2.83" height="4.79"/>
				<rect x="161.16" y="519.1" width="2.83" height="4.79"/>
				<rect x="156.37" y="523.89" width="4.79" height="2.83"/>
				<rect x="163.99" y="523.89" width="4.79" height="2.83"/>
			</g>
		</g>
		<g>
			<g>
				
					<rect x="258.28" y="436.01" transform="matrix(-1.411744e-10 1 -1 -1.411744e-10 697.125 177.7283)" width="2.83" height="2.83"/>
				
					<rect x="260.51" y="436.62" transform="matrix(-1.411744e-10 1 -1 -1.411744e-10 699.3533 175.4999)" width="2.83" height="1.62"/>
				
					<rect x="258.28" y="434.39" transform="matrix(-1 -1.347568e-10 1.347568e-10 -1 519.3967 870.3966)" width="2.83" height="1.62"/>
				
					<rect x="258.28" y="438.84" transform="matrix(-1 -1.309065e-10 1.309065e-10 -1 519.3967 879.3099)" width="2.83" height="1.62"/>
				
					<rect x="256.05" y="436.62" transform="matrix(-1.408528e-10 1 -1 -1.408528e-10 694.8967 179.9566)" width="2.83" height="1.62"/>
			</g>
			<g>
				
					<rect x="267.52" y="436.01" transform="matrix(-1.411744e-10 1 -1 -1.411744e-10 706.3689 168.4844)" width="2.83" height="2.83"/>
				<rect x="270.36" y="436.01" width="4.79" height="2.83"/>
				<rect x="262.74" y="436.01" width="4.79" height="2.83"/>
				<rect x="267.52" y="438.84" width="2.83" height="4.79"/>
				<rect x="267.52" y="431.22" width="2.83" height="4.79"/>
			</g>
			<g>
				
					<rect x="258.28" y="426.77" transform="matrix(-1.058799e-10 1 -1 -1.058799e-10 687.8812 168.4844)" width="2.83" height="2.83"/>
				<rect x="261.12" y="426.77" width="4.79" height="2.83"/>
				<rect x="253.49" y="426.77" width="4.79" height="2.83"/>
				<rect x="258.28" y="429.6" width="2.83" height="4.79"/>
				<rect x="258.28" y="421.98" width="2.83" height="4.79"/>
			</g>
			<g>
				
					<rect x="258.28" y="445.25" transform="matrix(-1.058799e-10 1 -1 -1.058799e-10 706.3689 186.9721)" width="2.83" height="2.83"/>
				<rect x="261.12" y="445.25" width="4.79" height="2.83"/>
				<rect x="253.49" y="445.25" width="4.79" height="2.83"/>
				<rect x="258.28" y="448.09" width="2.83" height="4.79"/>
				<rect x="258.28" y="440.47" width="2.83" height="4.79"/>
			</g>
			<g>
				
					<rect x="249.04" y="436.01" transform="matrix(-1.411744e-10 1 -1 -1.411744e-10 687.8812 186.9722)" width="2.83" height="2.83"/>
				<rect x="251.87" y="436.01" width="4.79" height="2.83"/>
				<rect x="244.25" y="436.01" width="4.79" height="2.83"/>
				<rect x="249.04" y="438.84" width="2.83" height="4.79"/>
				<rect x="249.04" y="431.22" width="2.83" height="4.79"/>
			</g>
		</g>
		<g>
			<g>
				<rect x="128.78" y="371.26" width="2.83" height="2.83"/>
				<rect x="128.78" y="369.64" width="2.83" height="1.62"/>
				
					<rect x="126.55" y="371.87" transform="matrix(-1.836970e-16 1 -1 -1.836970e-16 500.6467 244.7066)" width="2.83" height="1.62"/>
				
					<rect x="131.01" y="371.87" transform="matrix(-1.836970e-16 1 -1 -1.836970e-16 505.1034 240.2499)" width="2.83" height="1.62"/>
				<rect x="128.78" y="374.09" width="2.83" height="1.62"/>
			</g>
			<g>
				<rect x="128.78" y="362.02" width="2.83" height="2.83"/>
				<rect x="128.78" y="357.23" width="2.83" height="4.79"/>
				<rect x="128.78" y="364.85" width="2.83" height="4.79"/>
				<rect x="131.62" y="362.02" width="4.79" height="2.83"/>
				<rect x="123.99" y="362.02" width="4.79" height="2.83"/>
			</g>
			<g>
				<rect x="119.54" y="371.26" width="2.83" height="2.83"/>
				<rect x="119.54" y="366.47" width="2.83" height="4.79"/>
				<rect x="119.54" y="374.09" width="2.83" height="4.79"/>
				<rect x="122.37" y="371.26" width="4.79" height="2.83"/>
				<rect x="114.75" y="371.26" width="4.79" height="2.83"/>
			</g>
			<g>
				<rect x="138.02" y="371.26" width="2.83" height="2.83"/>
				<rect x="138.02" y="366.47" width="2.83" height="4.79"/>
				<rect x="138.02" y="374.09" width="2.83" height="4.79"/>
				<rect x="140.86" y="371.26" width="4.79" height="2.83"/>
				<rect x="133.24" y="371.26" width="4.79" height="2.83"/>
			</g>
			<g>
				<rect x="128.78" y="380.5" width="2.83" height="2.83"/>
				<rect x="128.78" y="375.72" width="2.83" height="4.79"/>
				<rect x="128.78" y="383.34" width="2.83" height="4.79"/>
				<rect x="131.62" y="380.5" width="4.79" height="2.83"/>
				<rect x="123.99" y="380.5" width="4.79" height="2.83"/>
			</g>
		</g>
		<g>
			<g>
				<rect x="96.41" y="468.38" transform="matrix(7.058715e-11 -1 1 7.058715e-11 -371.9782 567.625)" width="2.83" height="2.83"/>
				
					<rect x="94.18" y="468.99" transform="matrix(7.058715e-11 -1 1 7.058715e-11 -374.2066 565.3966)" width="2.83" height="1.62"/>
				<rect x="96.41" y="471.22" width="2.83" height="1.62"/>
				<rect x="96.41" y="466.76" width="2.83" height="1.62"/>
				
					<rect x="98.63" y="468.99" transform="matrix(6.705753e-11 -1 1 6.705753e-11 -369.7499 569.8533)" width="2.83" height="1.62"/>
			</g>
			<g>
				
					<rect x="87.16" y="468.38" transform="matrix(7.058715e-11 -1 1 7.058715e-11 -381.2221 558.3811)" width="2.83" height="2.83"/>
				<rect x="82.38" y="468.38" width="4.79" height="2.83"/>
				<rect x="90" y="468.38" width="4.79" height="2.83"/>
				<rect x="87.16" y="463.6" width="2.83" height="4.79"/>
				<rect x="87.16" y="471.22" width="2.83" height="4.79"/>
			</g>
			<g>
				
					<rect x="96.41" y="477.63" transform="matrix(3.529361e-11 -1 1 3.529361e-11 -381.2221 576.8688)" width="2.83" height="2.83"/>
				<rect x="91.62" y="477.63" width="4.79" height="2.83"/>
				<rect x="99.24" y="477.63" width="4.79" height="2.83"/>
				<rect x="96.41" y="472.84" width="2.83" height="4.79"/>
				<rect x="96.41" y="480.46" width="2.83" height="4.79"/>
			</g>
			<g>
				
					<rect x="96.41" y="459.14" transform="matrix(7.058715e-11 -1 1 7.058715e-11 -362.7344 558.3811)" width="2.83" height="2.83"/>
				<rect x="91.62" y="459.14" width="4.79" height="2.83"/>
				<rect x="99.24" y="459.14" width="4.79" height="2.83"/>
				<rect x="96.41" y="454.35" width="2.83" height="4.79"/>
				<rect x="96.41" y="461.98" width="2.83" height="4.79"/>
			</g>
			<g>
				
					<rect x="105.65" y="468.38" transform="matrix(7.058715e-11 -1 1 7.058715e-11 -362.7344 576.8688)" width="2.83" height="2.83"/>
				<rect x="100.86" y="468.38" width="4.79" height="2.83"/>
				<rect x="108.48" y="468.38" width="4.79" height="2.83"/>
				<rect x="105.65" y="463.6" width="2.83" height="4.79"/>
				<rect x="105.65" y="471.22" width="2.83" height="4.79"/>
			</g>
		</g>
		<g>
			<g>
				
					<rect x="193.53" y="500.76" transform="matrix(-1 -9.176317e-11 9.176317e-11 -1 389.8967 1004.3533)" width="2.83" height="2.83"/>
				
					<rect x="193.53" y="503.59" transform="matrix(-1 -9.240488e-11 9.240488e-11 -1 389.8967 1008.8099)" width="2.83" height="1.62"/>
				
					<rect x="195.76" y="501.37" transform="matrix(1.058807e-10 -1 1 1.058807e-10 -304.9999 699.3533)" width="2.83" height="1.62"/>
				
					<rect x="191.3" y="501.37" transform="matrix(1.055601e-10 -1 1 1.055601e-10 -309.4566 694.8966)" width="2.83" height="1.62"/>
				
					<rect x="193.53" y="499.14" transform="matrix(-1 -8.855462e-11 8.855462e-11 -1 389.8967 999.8965)" width="2.83" height="1.62"/>
			</g>
			<g>
				<rect x="193.53" y="510" transform="matrix(-1 -8.791291e-11 8.791291e-11 -1 389.8967 1022.841)" width="2.83" height="2.83"/>
				<rect x="193.53" y="512.84" width="2.83" height="4.79"/>
				<rect x="193.53" y="505.22" width="2.83" height="4.79"/>
				<rect x="188.74" y="510" width="4.79" height="2.83"/>
				<rect x="196.37" y="510" width="4.79" height="2.83"/>
			</g>
			<g>
				
					<rect x="202.77" y="500.76" transform="matrix(-1 -8.791291e-11 8.791291e-11 -1 408.3844 1004.3533)" width="2.83" height="2.83"/>
				<rect x="202.77" y="503.59" width="2.83" height="4.79"/>
				<rect x="202.77" y="495.97" width="2.83" height="4.79"/>
				<rect x="197.99" y="500.76" width="4.79" height="2.83"/>
				<rect x="205.61" y="500.76" width="4.79" height="2.83"/>
			</g>
			<g>
				
					<rect x="184.29" y="500.76" transform="matrix(-1 -9.112146e-11 9.112146e-11 -1 371.4089 1004.3533)" width="2.83" height="2.83"/>
				<rect x="184.29" y="503.59" width="2.83" height="4.79"/>
				<rect x="184.29" y="495.97" width="2.83" height="4.79"/>
				<rect x="179.5" y="500.76" width="4.79" height="2.83"/>
				<rect x="187.12" y="500.76" width="4.79" height="2.83"/>
			</g>
			<g>
				
					<rect x="193.53" y="491.52" transform="matrix(-1 -9.176317e-11 9.176317e-11 -1 389.8967 985.8655)" width="2.83" height="2.83"/>
				<rect x="193.53" y="494.35" width="2.83" height="4.79"/>
				<rect x="193.53" y="486.73" width="2.83" height="4.79"/>
				<rect x="188.74" y="491.52" width="4.79" height="2.83"/>
				<rect x="196.37" y="491.52" width="4.79" height="2.83"/>
			</g>
		</g>
		<g>
			<g>
				
					<rect x="225.91" y="403.63" transform="matrix(-1.411744e-10 1 -1 -1.411744e-10 632.375 177.7283)" width="2.83" height="2.83"/>
				
					<rect x="228.13" y="404.24" transform="matrix(-1.058799e-10 1 -1 -1.058799e-10 634.6034 175.4999)" width="2.83" height="1.62"/>
				
					<rect x="225.91" y="402.01" transform="matrix(-1 -1.341151e-10 1.341151e-10 -1 454.6467 805.6466)" width="2.83" height="1.62"/>
				
					<rect x="225.91" y="406.47" transform="matrix(-1 -1.347568e-10 1.347568e-10 -1 454.6467 814.56)" width="2.83" height="1.62"/>
				
					<rect x="223.68" y="404.24" transform="matrix(-1.055593e-10 1 -1 -1.055593e-10 630.1467 179.9566)" width="2.83" height="1.62"/>
			</g>
			<g>
				
					<rect x="235.15" y="403.63" transform="matrix(-1.411744e-10 1 -1 -1.411744e-10 641.6189 168.4844)" width="2.83" height="2.83"/>
				<rect x="237.98" y="403.63" width="4.79" height="2.83"/>
				<rect x="230.36" y="403.63" width="4.79" height="2.83"/>
				<rect x="235.15" y="406.47" width="2.83" height="4.79"/>
				<rect x="235.15" y="398.85" width="2.83" height="4.79"/>
			</g>
			<g>
				
					<rect x="225.91" y="394.39" transform="matrix(-1.411744e-10 1 -1 -1.411744e-10 623.1312 168.4844)" width="2.83" height="2.83"/>
				<rect x="228.74" y="394.39" width="4.79" height="2.83"/>
				<rect x="221.12" y="394.39" width="4.79" height="2.83"/>
				<rect x="225.91" y="397.23" width="2.83" height="4.79"/>
				<rect x="225.91" y="389.6" width="2.83" height="4.79"/>
			</g>
			<g>
				
					<rect x="225.91" y="412.88" transform="matrix(-1.411744e-10 1 -1 -1.411744e-10 641.6189 186.9722)" width="2.83" height="2.83"/>
				<rect x="228.74" y="412.88" width="4.79" height="2.83"/>
				<rect x="221.12" y="412.88" width="4.79" height="2.83"/>
				<rect x="225.91" y="415.71" width="2.83" height="4.79"/>
				<rect x="225.91" y="408.09" width="2.83" height="4.79"/>
			</g>
			<g>
				
					<rect x="216.66" y="403.63" transform="matrix(-1.411744e-10 1 -1 -1.411744e-10 623.1312 186.9722)" width="2.83" height="2.83"/>
				<rect x="219.5" y="403.63" width="4.79" height="2.83"/>
				<rect x="211.87" y="403.63" width="4.79" height="2.83"/>
				<rect x="216.66" y="406.47" width="2.83" height="4.79"/>
				<rect x="216.66" y="398.85" width="2.83" height="4.79"/>
			</g>
		</g>
		<g>
			<g>
				<rect x="96.41" y="436.01" transform="matrix(3.850260e-11 -1 1 3.850260e-11 -339.6033 535.25)" width="2.83" height="2.83"/>
				
					<rect x="94.18" y="436.62" transform="matrix(3.850260e-11 -1 1 3.850260e-11 -341.8316 533.0217)" width="2.83" height="1.62"/>
				<rect x="96.41" y="438.84" width="2.83" height="1.62"/>
				<rect x="96.41" y="434.39" width="2.83" height="1.62"/>
				
					<rect x="98.63" y="436.62" transform="matrix(3.529361e-11 -1 1 3.529361e-11 -337.3749 537.4783)" width="2.83" height="1.62"/>
			</g>
			<g>
				
					<rect x="87.16" y="436.01" transform="matrix(3.850260e-11 -1 1 3.850260e-11 -348.8471 526.0061)" width="2.83" height="2.83"/>
				<rect x="82.38" y="436.01" width="4.79" height="2.83"/>
				<rect x="90" y="436.01" width="4.79" height="2.83"/>
				<rect x="87.16" y="431.22" width="2.83" height="4.79"/>
				<rect x="87.16" y="438.84" width="2.83" height="4.79"/>
			</g>
			<g>
				
					<rect x="96.41" y="445.25" transform="matrix(3.850260e-11 -1 1 3.850260e-11 -348.8471 544.4938)" width="2.83" height="2.83"/>
				<rect x="91.62" y="445.25" width="4.79" height="2.83"/>
				<rect x="99.24" y="445.25" width="4.79" height="2.83"/>
				<rect x="96.41" y="440.47" width="2.83" height="4.79"/>
				<rect x="96.41" y="448.09" width="2.83" height="4.79"/>
			</g>
			<g>
				
					<rect x="96.41" y="426.77" transform="matrix(3.850260e-11 -1 1 3.850260e-11 -330.3594 526.0061)" width="2.83" height="2.83"/>
				<rect x="91.62" y="426.77" width="4.79" height="2.83"/>
				<rect x="99.24" y="426.77" width="4.79" height="2.83"/>
				<rect x="96.41" y="421.98" width="2.83" height="4.79"/>
				<rect x="96.41" y="429.6" width="2.83" height="4.79"/>
			</g>
			<g>
				
					<rect x="105.65" y="436.01" transform="matrix(3.529361e-11 -1 1 3.529361e-11 -330.3594 544.4938)" width="2.83" height="2.83"/>
				<rect x="100.86" y="436.01" width="4.79" height="2.83"/>
				<rect x="108.48" y="436.01" width="4.79" height="2.83"/>
				<rect x="105.65" y="431.22" width="2.83" height="4.79"/>
				<rect x="105.65" y="438.84" width="2.83" height="4.79"/>
			</g>
		</g>
		<g>
			<g>
				
					<rect x="161.16" y="500.76" transform="matrix(-1 -8.791291e-11 8.791291e-11 -1 325.1467 1004.3533)" width="2.83" height="2.83"/>
				
					<rect x="161.16" y="503.59" transform="matrix(-1 -8.855462e-11 8.855462e-11 -1 325.1467 1008.8099)" width="2.83" height="1.62"/>
				
					<rect x="163.38" y="501.37" transform="matrix(7.058715e-11 -1 1 7.058715e-11 -337.3749 666.9783)" width="2.83" height="1.62"/>
				
					<rect x="158.93" y="501.37" transform="matrix(1.058807e-10 -1 1 1.058807e-10 -341.8316 662.5217)" width="2.83" height="1.62"/>
				
					<rect x="161.16" y="499.14" transform="matrix(-1 -8.855462e-11 8.855462e-11 -1 325.1467 999.8965)" width="2.83" height="1.62"/>
			</g>
			<g>
				<rect x="161.16" y="510" transform="matrix(-1 -9.176317e-11 9.176317e-11 -1 325.1467 1022.841)" width="2.83" height="2.83"/>
				<rect x="161.16" y="512.84" width="2.83" height="4.79"/>
				<rect x="161.16" y="505.22" width="2.83" height="4.79"/>
				<rect x="156.37" y="510" width="4.79" height="2.83"/>
				<rect x="163.99" y="510" width="4.79" height="2.83"/>
			</g>
			<g>
				
					<rect x="170.4" y="500.76" transform="matrix(-1 -8.855462e-11 8.855462e-11 -1 343.6344 1004.3533)" width="2.83" height="2.83"/>
				<rect x="170.4" y="503.59" width="2.83" height="4.79"/>
				<rect x="170.4" y="495.97" width="2.83" height="4.79"/>
				<rect x="165.61" y="500.76" width="4.79" height="2.83"/>
				<rect x="173.23" y="500.76" width="4.79" height="2.83"/>
			</g>
			<g>
				
					<rect x="151.91" y="500.76" transform="matrix(-1 -8.855462e-11 8.855462e-11 -1 306.659 1004.3533)" width="2.83" height="2.83"/>
				<rect x="151.91" y="503.59" width="2.83" height="4.79"/>
				<rect x="151.91" y="495.97" width="2.83" height="4.79"/>
				<rect x="147.12" y="500.76" width="4.79" height="2.83"/>
				<rect x="154.75" y="500.76" width="4.79" height="2.83"/>
			</g>
			<g>
				
					<rect x="161.16" y="491.52" transform="matrix(-1 -9.176317e-11 9.176317e-11 -1 325.1467 985.8655)" width="2.83" height="2.83"/>
				<rect x="161.16" y="494.35" width="2.83" height="4.79"/>
				<rect x="161.16" y="486.73" width="2.83" height="4.79"/>
				<rect x="156.37" y="491.52" width="4.79" height="2.83"/>
				<rect x="163.99" y="491.52" width="4.79" height="2.83"/>
			</g>
		</g>
		<g>
			<g>
				
					<rect x="225.91" y="436.01" transform="matrix(-1.411744e-10 1 -1 -1.411744e-10 664.75 210.1033)" width="2.83" height="2.83"/>
				
					<rect x="228.13" y="436.62" transform="matrix(-1.411744e-10 1 -1 -1.411744e-10 666.9783 207.8749)" width="2.83" height="1.62"/>
				
					<rect x="225.91" y="434.39" transform="matrix(-1 -1.334734e-10 1.334734e-10 -1 454.6467 870.3966)" width="2.83" height="1.62"/>
				
					<rect x="225.91" y="438.84" transform="matrix(-1 -1.302648e-10 1.302648e-10 -1 454.6467 879.3099)" width="2.83" height="1.62"/>
				
					<rect x="223.68" y="436.62" transform="matrix(-1.408528e-10 1 -1 -1.408528e-10 662.5217 212.3316)" width="2.83" height="1.62"/>
			</g>
			<g>
				
					<rect x="235.15" y="436.01" transform="matrix(-1.411744e-10 1 -1 -1.411744e-10 673.9939 200.8594)" width="2.83" height="2.83"/>
				<rect x="237.98" y="436.01" width="4.79" height="2.83"/>
				<rect x="230.36" y="436.01" width="4.79" height="2.83"/>
				<rect x="235.15" y="438.84" width="2.83" height="4.79"/>
				<rect x="235.15" y="431.22" width="2.83" height="4.79"/>
			</g>
			<g>
				
					<rect x="225.91" y="426.77" transform="matrix(-1.058799e-10 1 -1 -1.058799e-10 655.5062 200.8594)" width="2.83" height="2.83"/>
				<rect x="228.74" y="426.77" width="4.79" height="2.83"/>
				<rect x="221.12" y="426.77" width="4.79" height="2.83"/>
				<rect x="225.91" y="429.6" width="2.83" height="4.79"/>
				<rect x="225.91" y="421.98" width="2.83" height="4.79"/>
			</g>
			<g>
				
					<rect x="225.91" y="445.25" transform="matrix(-1.058799e-10 1 -1 -1.058799e-10 673.9939 219.3471)" width="2.83" height="2.83"/>
				<rect x="228.74" y="445.25" width="4.79" height="2.83"/>
				<rect x="221.12" y="445.25" width="4.79" height="2.83"/>
				<rect x="225.91" y="448.09" width="2.83" height="4.79"/>
				<rect x="225.91" y="440.47" width="2.83" height="4.79"/>
			</g>
			<g>
				
					<rect x="216.66" y="436.01" transform="matrix(-1.411744e-10 1 -1 -1.411744e-10 655.5062 219.3472)" width="2.83" height="2.83"/>
				<rect x="219.5" y="436.01" width="4.79" height="2.83"/>
				<rect x="211.87" y="436.01" width="4.79" height="2.83"/>
				<rect x="216.66" y="438.84" width="2.83" height="4.79"/>
				<rect x="216.66" y="431.22" width="2.83" height="4.79"/>
			</g>
		</g>
		<g>
			<g>
				<rect x="128.78" y="403.63" width="2.83" height="2.83"/>
				<rect x="128.78" y="402.01" width="2.83" height="1.62"/>
				
					<rect x="126.55" y="404.24" transform="matrix(-1.836970e-16 1 -1 -1.836970e-16 533.0217 277.0816)" width="2.83" height="1.62"/>
				
					<rect x="131.01" y="404.24" transform="matrix(-1.836970e-16 1 -1 -1.836970e-16 537.4783 272.6249)" width="2.83" height="1.62"/>
				<rect x="128.78" y="406.47" width="2.83" height="1.62"/>
			</g>
			<g>
				<rect x="128.78" y="394.39" width="2.83" height="2.83"/>
				<rect x="128.78" y="389.6" width="2.83" height="4.79"/>
				<rect x="128.78" y="397.23" width="2.83" height="4.79"/>
				<rect x="131.62" y="394.39" width="4.79" height="2.83"/>
				<rect x="123.99" y="394.39" width="4.79" height="2.83"/>
			</g>
			<g>
				<rect x="119.54" y="403.63" width="2.83" height="2.83"/>
				<rect x="119.54" y="398.85" width="2.83" height="4.79"/>
				<rect x="119.54" y="406.47" width="2.83" height="4.79"/>
				<rect x="122.37" y="403.63" width="4.79" height="2.83"/>
				<rect x="114.75" y="403.63" width="4.79" height="2.83"/>
			</g>
			<g>
				<rect x="138.02" y="403.63" width="2.83" height="2.83"/>
				<rect x="138.02" y="398.85" width="2.83" height="4.79"/>
				<rect x="138.02" y="406.47" width="2.83" height="4.79"/>
				<rect x="140.86" y="403.63" width="4.79" height="2.83"/>
				<rect x="133.24" y="403.63" width="4.79" height="2.83"/>
			</g>
			<g>
				<rect x="128.78" y="412.88" width="2.83" height="2.83"/>
				<rect x="128.78" y="408.09" width="2.83" height="4.79"/>
				<rect x="128.78" y="415.71" width="2.83" height="4.79"/>
				<rect x="131.62" y="412.88" width="4.79" height="2.83"/>
				<rect x="123.99" y="412.88" width="4.79" height="2.83"/>
			</g>
		</g>
		<g>
			<g>
				<rect x="96.41" y="403.63" width="2.83" height="2.83"/>
				<rect x="96.41" y="402.01" width="2.83" height="1.62"/>
				
					<rect x="94.18" y="404.24" transform="matrix(-1.836970e-16 1 -1 -1.836970e-16 500.6467 309.4566)" width="2.83" height="1.62"/>
				
					<rect x="98.63" y="404.24" transform="matrix(-1.836970e-16 1 -1 -1.836970e-16 505.1034 304.9999)" width="2.83" height="1.62"/>
				<rect x="96.41" y="406.47" width="2.83" height="1.62"/>
			</g>
			<g>
				<rect x="96.41" y="394.39" width="2.83" height="2.83"/>
				<rect x="96.41" y="389.6" width="2.83" height="4.79"/>
				<rect x="96.41" y="397.23" width="2.83" height="4.79"/>
				<rect x="99.24" y="394.39" width="4.79" height="2.83"/>
				<rect x="91.62" y="394.39" width="4.79" height="2.83"/>
			</g>
			<g>
				<rect x="87.16" y="403.63" width="2.83" height="2.83"/>
				<rect x="87.16" y="398.85" width="2.83" height="4.79"/>
				<rect x="87.16" y="406.47" width="2.83" height="4.79"/>
				<rect x="90" y="403.63" width="4.79" height="2.83"/>
				<rect x="82.38" y="403.63" width="4.79" height="2.83"/>
			</g>
			<g>
				<rect x="105.65" y="403.63" width="2.83" height="2.83"/>
				<rect x="105.65" y="398.85" width="2.83" height="4.79"/>
				<rect x="105.65" y="406.47" width="2.83" height="4.79"/>
				<rect x="108.48" y="403.63" width="4.79" height="2.83"/>
				<rect x="100.86" y="403.63" width="4.79" height="2.83"/>
			</g>
			<g>
				<rect x="96.41" y="412.88" width="2.83" height="2.83"/>
				<rect x="96.41" y="408.09" width="2.83" height="4.79"/>
				<rect x="96.41" y="415.71" width="2.83" height="4.79"/>
				<rect x="99.24" y="412.88" width="4.79" height="2.83"/>
				<rect x="91.62" y="412.88" width="4.79" height="2.83"/>
			</g>
		</g>
		<g>
			<g>
				
					<rect x="128.78" y="500.76" transform="matrix(3.529361e-11 -1 1 3.529361e-11 -371.9782 632.375)" width="2.83" height="2.83"/>
				
					<rect x="126.55" y="501.37" transform="matrix(3.529361e-11 -1 1 3.529361e-11 -374.2066 630.1467)" width="2.83" height="1.62"/>
				<rect x="128.78" y="503.59" width="2.83" height="1.62"/>
				<rect x="128.78" y="499.14" width="2.83" height="1.62"/>
				
					<rect x="131.01" y="501.37" transform="matrix(3.497298e-11 -1 1 3.497298e-11 -369.7499 634.6033)" width="2.83" height="1.62"/>
			</g>
			<g>
				
					<rect x="119.54" y="500.76" transform="matrix(3.529361e-11 -1 1 3.529361e-11 -381.2221 623.1311)" width="2.83" height="2.83"/>
				<rect x="114.75" y="500.76" width="4.79" height="2.83"/>
				<rect x="122.37" y="500.76" width="4.79" height="2.83"/>
				<rect x="119.54" y="495.97" width="2.83" height="4.79"/>
				<rect x="119.54" y="503.59" width="2.83" height="4.79"/>
			</g>
			<g>
				<rect x="128.78" y="510" transform="matrix(3.529361e-11 -1 1 3.529361e-11 -381.2221 641.6188)" width="2.83" height="2.83"/>
				<rect x="123.99" y="510" width="4.79" height="2.83"/>
				<rect x="131.62" y="510" width="4.79" height="2.83"/>
				<rect x="128.78" y="505.22" width="2.83" height="4.79"/>
				<rect x="128.78" y="512.84" width="2.83" height="4.79"/>
			</g>
			<g>
				
					<rect x="128.78" y="491.52" transform="matrix(3.529361e-11 -1 1 3.529361e-11 -362.7344 623.1311)" width="2.83" height="2.83"/>
				<rect x="123.99" y="491.52" width="4.79" height="2.83"/>
				<rect x="131.62" y="491.52" width="4.79" height="2.83"/>
				<rect x="128.78" y="486.73" width="2.83" height="4.79"/>
				<rect x="128.78" y="494.35" width="2.83" height="4.79"/>
			</g>
			<g>
				
					<rect x="138.02" y="500.76" transform="matrix(3.529361e-11 -1 1 3.529361e-11 -362.7344 641.6188)" width="2.83" height="2.83"/>
				<rect x="133.24" y="500.76" width="4.79" height="2.83"/>
				<rect x="140.86" y="500.76" width="4.79" height="2.83"/>
				<rect x="138.02" y="495.97" width="2.83" height="4.79"/>
				<rect x="138.02" y="503.59" width="2.83" height="4.79"/>
			</g>
		</g>
		<g>
			<g>
				
					<rect x="225.91" y="468.38" transform="matrix(-1 -8.791291e-11 8.791291e-11 -1 454.6467 939.6033)" width="2.83" height="2.83"/>
				
					<rect x="225.91" y="471.22" transform="matrix(-1 -8.855462e-11 8.855462e-11 -1 454.6467 944.0599)" width="2.83" height="1.62"/>
				
					<rect x="228.13" y="468.99" transform="matrix(1.058807e-10 -1 1 1.058807e-10 -240.2499 699.3533)" width="2.83" height="1.62"/>
				
					<rect x="223.68" y="468.99" transform="matrix(7.058715e-11 -1 1 7.058715e-11 -244.7066 694.8967)" width="2.83" height="1.62"/>
				
					<rect x="225.91" y="466.76" transform="matrix(-1 -9.176317e-11 9.176317e-11 -1 454.6467 935.1465)" width="2.83" height="1.62"/>
			</g>
			<g>
				
					<rect x="225.91" y="477.63" transform="matrix(-1 -9.176317e-11 9.176317e-11 -1 454.6467 958.091)" width="2.83" height="2.83"/>
				<rect x="225.91" y="480.46" width="2.83" height="4.79"/>
				<rect x="225.91" y="472.84" width="2.83" height="4.79"/>
				<rect x="221.12" y="477.63" width="4.79" height="2.83"/>
				<rect x="228.74" y="477.63" width="4.79" height="2.83"/>
			</g>
			<g>
				
					<rect x="235.15" y="468.38" transform="matrix(-1 -8.855462e-11 8.855462e-11 -1 473.1344 939.6033)" width="2.83" height="2.83"/>
				<rect x="235.15" y="471.22" width="2.83" height="4.79"/>
				<rect x="235.15" y="463.6" width="2.83" height="4.79"/>
				<rect x="230.36" y="468.38" width="4.79" height="2.83"/>
				<rect x="237.98" y="468.38" width="4.79" height="2.83"/>
			</g>
			<g>
				
					<rect x="216.66" y="468.38" transform="matrix(-1 -9.112146e-11 9.112146e-11 -1 436.159 939.6033)" width="2.83" height="2.83"/>
				<rect x="216.66" y="471.22" width="2.83" height="4.79"/>
				<rect x="216.66" y="463.6" width="2.83" height="4.79"/>
				<rect x="211.87" y="468.38" width="4.79" height="2.83"/>
				<rect x="219.5" y="468.38" width="4.79" height="2.83"/>
			</g>
			<g>
				
					<rect x="225.91" y="459.14" transform="matrix(-1 -8.791291e-11 8.791291e-11 -1 454.6467 921.1155)" width="2.83" height="2.83"/>
				<rect x="225.91" y="461.98" width="2.83" height="4.79"/>
				<rect x="225.91" y="454.35" width="2.83" height="4.79"/>
				<rect x="221.12" y="459.14" width="4.79" height="2.83"/>
				<rect x="228.74" y="459.14" width="4.79" height="2.83"/>
			</g>
		</g>
		<g>
			<g>
				
					<rect x="193.53" y="371.26" transform="matrix(-1.411744e-10 1 -1 -1.411744e-10 567.625 177.7283)" width="2.83" height="2.83"/>
				
					<rect x="195.76" y="371.87" transform="matrix(-1.411744e-10 1 -1 -1.411744e-10 569.8533 175.4999)" width="2.83" height="1.62"/>
				
					<rect x="193.53" y="369.64" transform="matrix(-1 -1.341151e-10 1.341151e-10 -1 389.8967 740.8966)" width="2.83" height="1.62"/>
				
					<rect x="193.53" y="374.09" transform="matrix(-1 -1.341151e-10 1.341151e-10 -1 389.8967 749.81)" width="2.83" height="1.62"/>
				
					<rect x="191.3" y="371.87" transform="matrix(-1.411744e-10 1 -1 -1.411744e-10 565.3967 179.9566)" width="2.83" height="1.62"/>
			</g>
			<g>
				
					<rect x="202.77" y="371.26" transform="matrix(-1.408528e-10 1 -1 -1.408528e-10 576.8689 168.4844)" width="2.83" height="2.83"/>
				<rect x="205.61" y="371.26" width="4.79" height="2.83"/>
				<rect x="197.99" y="371.26" width="4.79" height="2.83"/>
				<rect x="202.77" y="374.09" width="2.83" height="4.79"/>
				<rect x="202.77" y="366.47" width="2.83" height="4.79"/>
			</g>
			<g>
				
					<rect x="193.53" y="362.02" transform="matrix(-1.408528e-10 1 -1 -1.408528e-10 558.3812 168.4844)" width="2.83" height="2.83"/>
				<rect x="196.37" y="362.02" width="4.79" height="2.83"/>
				<rect x="188.74" y="362.02" width="4.79" height="2.83"/>
				<rect x="193.53" y="364.85" width="2.83" height="4.79"/>
				<rect x="193.53" y="357.23" width="2.83" height="4.79"/>
			</g>
			<g>
				
					<rect x="193.53" y="380.5" transform="matrix(-1.411744e-10 1 -1 -1.411744e-10 576.8689 186.9722)" width="2.83" height="2.83"/>
				<rect x="196.37" y="380.5" width="4.79" height="2.83"/>
				<rect x="188.74" y="380.5" width="4.79" height="2.83"/>
				<rect x="193.53" y="383.34" width="2.83" height="4.79"/>
				<rect x="193.53" y="375.72" width="2.83" height="4.79"/>
			</g>
			<g>
				
					<rect x="184.29" y="371.26" transform="matrix(-1.411744e-10 1 -1 -1.411744e-10 558.3812 186.9722)" width="2.83" height="2.83"/>
				<rect x="187.12" y="371.26" width="4.79" height="2.83"/>
				<rect x="179.5" y="371.26" width="4.79" height="2.83"/>
				<rect x="184.29" y="374.09" width="2.83" height="4.79"/>
				<rect x="184.29" y="366.47" width="2.83" height="4.79"/>
			</g>
		</g>
		<g>
			<g>
				<rect x="128.78" y="468.38" transform="matrix(7.058715e-11 -1 1 7.058715e-11 -339.6033 600)" width="2.83" height="2.83"/>
				
					<rect x="126.55" y="468.99" transform="matrix(7.058715e-11 -1 1 7.058715e-11 -341.8316 597.7717)" width="2.83" height="1.62"/>
				<rect x="128.78" y="471.22" width="2.83" height="1.62"/>
				<rect x="128.78" y="466.76" width="2.83" height="1.62"/>
				
					<rect x="131.01" y="468.99" transform="matrix(7.058715e-11 -1 1 7.058715e-11 -337.3749 602.2283)" width="2.83" height="1.62"/>
			</g>
			<g>
				
					<rect x="119.54" y="468.38" transform="matrix(7.058715e-11 -1 1 7.058715e-11 -348.8471 590.7561)" width="2.83" height="2.83"/>
				<rect x="114.75" y="468.38" width="4.79" height="2.83"/>
				<rect x="122.37" y="468.38" width="4.79" height="2.83"/>
				<rect x="119.54" y="463.6" width="2.83" height="4.79"/>
				<rect x="119.54" y="471.22" width="2.83" height="4.79"/>
			</g>
			<g>
				
					<rect x="128.78" y="477.63" transform="matrix(3.529361e-11 -1 1 3.529361e-11 -348.8471 609.2438)" width="2.83" height="2.83"/>
				<rect x="123.99" y="477.63" width="4.79" height="2.83"/>
				<rect x="131.62" y="477.63" width="4.79" height="2.83"/>
				<rect x="128.78" y="472.84" width="2.83" height="4.79"/>
				<rect x="128.78" y="480.46" width="2.83" height="4.79"/>
			</g>
			<g>
				
					<rect x="128.78" y="459.14" transform="matrix(7.058715e-11 -1 1 7.058715e-11 -330.3594 590.7561)" width="2.83" height="2.83"/>
				<rect x="123.99" y="459.14" width="4.79" height="2.83"/>
				<rect x="131.62" y="459.14" width="4.79" height="2.83"/>
				<rect x="128.78" y="454.35" width="2.83" height="4.79"/>
				<rect x="128.78" y="461.98" width="2.83" height="4.79"/>
			</g>
			<g>
				
					<rect x="138.02" y="468.38" transform="matrix(7.058715e-11 -1 1 7.058715e-11 -330.3594 609.2439)" width="2.83" height="2.83"/>
				<rect x="133.24" y="468.38" width="4.79" height="2.83"/>
				<rect x="140.86" y="468.38" width="4.79" height="2.83"/>
				<rect x="138.02" y="463.6" width="2.83" height="4.79"/>
				<rect x="138.02" y="471.22" width="2.83" height="4.79"/>
			</g>
		</g>
		<g>
			<g>
				
					<rect x="193.53" y="468.38" transform="matrix(-1 -9.176317e-11 9.176317e-11 -1 389.8967 939.6033)" width="2.83" height="2.83"/>
				
					<rect x="193.53" y="471.22" transform="matrix(-1 -9.240488e-11 9.240488e-11 -1 389.8967 944.0599)" width="2.83" height="1.62"/>
				
					<rect x="195.76" y="468.99" transform="matrix(1.058807e-10 -1 1 1.058807e-10 -272.6249 666.9783)" width="2.83" height="1.62"/>
				
					<rect x="191.3" y="468.99" transform="matrix(7.058715e-11 -1 1 7.058715e-11 -277.0816 662.5217)" width="2.83" height="1.62"/>
				
					<rect x="193.53" y="466.76" transform="matrix(-1 -8.855462e-11 8.855462e-11 -1 389.8967 935.1465)" width="2.83" height="1.62"/>
			</g>
			<g>
				
					<rect x="193.53" y="477.63" transform="matrix(-1 -8.791291e-11 8.791291e-11 -1 389.8967 958.091)" width="2.83" height="2.83"/>
				<rect x="193.53" y="480.46" width="2.83" height="4.79"/>
				<rect x="193.53" y="472.84" width="2.83" height="4.79"/>
				<rect x="188.74" y="477.63" width="4.79" height="2.83"/>
				<rect x="196.37" y="477.63" width="4.79" height="2.83"/>
			</g>
			<g>
				
					<rect x="202.77" y="468.38" transform="matrix(-1 -8.791291e-11 8.791291e-11 -1 408.3845 939.6033)" width="2.83" height="2.83"/>
				<rect x="202.77" y="471.22" width="2.83" height="4.79"/>
				<rect x="202.77" y="463.6" width="2.83" height="4.79"/>
				<rect x="197.99" y="468.38" width="4.79" height="2.83"/>
				<rect x="205.61" y="468.38" width="4.79" height="2.83"/>
			</g>
			<g>
				
					<rect x="184.29" y="468.38" transform="matrix(-1 -9.112146e-11 9.112146e-11 -1 371.409 939.6033)" width="2.83" height="2.83"/>
				<rect x="184.29" y="471.22" width="2.83" height="4.79"/>
				<rect x="184.29" y="463.6" width="2.83" height="4.79"/>
				<rect x="179.5" y="468.38" width="4.79" height="2.83"/>
				<rect x="187.12" y="468.38" width="4.79" height="2.83"/>
			</g>
			<g>
				
					<rect x="193.53" y="459.14" transform="matrix(-1 -9.176317e-11 9.176317e-11 -1 389.8967 921.1155)" width="2.83" height="2.83"/>
				<rect x="193.53" y="461.98" width="2.83" height="4.79"/>
				<rect x="193.53" y="454.35" width="2.83" height="4.79"/>
				<rect x="188.74" y="459.14" width="4.79" height="2.83"/>
				<rect x="196.37" y="459.14" width="4.79" height="2.83"/>
			</g>
		</g>
		<g>
			<g>
				<rect x="193.53" y="403.63" transform="matrix(-1.411744e-10 1 -1 -1.411744e-10 600 210.1033)" width="2.83" height="2.83"/>
				
					<rect x="195.76" y="404.24" transform="matrix(-1.058799e-10 1 -1 -1.058799e-10 602.2283 207.8749)" width="2.83" height="1.62"/>
				
					<rect x="193.53" y="402.01" transform="matrix(-1 -1.334734e-10 1.334734e-10 -1 389.8967 805.6466)" width="2.83" height="1.62"/>
				
					<rect x="193.53" y="406.47" transform="matrix(-1 -1.341151e-10 1.341151e-10 -1 389.8967 814.5599)" width="2.83" height="1.62"/>
				
					<rect x="191.3" y="404.24" transform="matrix(-1.055593e-10 1 -1 -1.055593e-10 597.7717 212.3316)" width="2.83" height="1.62"/>
			</g>
			<g>
				
					<rect x="202.77" y="403.63" transform="matrix(-1.411744e-10 1 -1 -1.411744e-10 609.2439 200.8594)" width="2.83" height="2.83"/>
				<rect x="205.61" y="403.63" width="4.79" height="2.83"/>
				<rect x="197.99" y="403.63" width="4.79" height="2.83"/>
				<rect x="202.77" y="406.47" width="2.83" height="4.79"/>
				<rect x="202.77" y="398.85" width="2.83" height="4.79"/>
			</g>
			<g>
				
					<rect x="193.53" y="394.39" transform="matrix(-1.411744e-10 1 -1 -1.411744e-10 590.7562 200.8594)" width="2.83" height="2.83"/>
				<rect x="196.37" y="394.39" width="4.79" height="2.83"/>
				<rect x="188.74" y="394.39" width="4.79" height="2.83"/>
				<rect x="193.53" y="397.23" width="2.83" height="4.79"/>
				<rect x="193.53" y="389.6" width="2.83" height="4.79"/>
			</g>
			<g>
				
					<rect x="193.53" y="412.88" transform="matrix(-1.411744e-10 1 -1 -1.411744e-10 609.2439 219.3471)" width="2.83" height="2.83"/>
				<rect x="196.37" y="412.88" width="4.79" height="2.83"/>
				<rect x="188.74" y="412.88" width="4.79" height="2.83"/>
				<rect x="193.53" y="415.71" width="2.83" height="4.79"/>
				<rect x="193.53" y="408.09" width="2.83" height="4.79"/>
			</g>
			<g>
				
					<rect x="184.29" y="403.63" transform="matrix(-1.411744e-10 1 -1 -1.411744e-10 590.7561 219.3472)" width="2.83" height="2.83"/>
				<rect x="187.12" y="403.63" width="4.79" height="2.83"/>
				<rect x="179.5" y="403.63" width="4.79" height="2.83"/>
				<rect x="184.29" y="406.47" width="2.83" height="4.79"/>
				<rect x="184.29" y="398.85" width="2.83" height="4.79"/>
			</g>
		</g>
		<g>
			<g>
				
					<rect x="128.78" y="436.01" transform="matrix(3.529361e-11 -1 1 3.529361e-11 -307.2283 567.625)" width="2.83" height="2.83"/>
				
					<rect x="126.55" y="436.62" transform="matrix(3.529361e-11 -1 1 3.529361e-11 -309.4566 565.3967)" width="2.83" height="1.62"/>
				<rect x="128.78" y="438.84" width="2.83" height="1.62"/>
				<rect x="128.78" y="434.39" width="2.83" height="1.62"/>
				
					<rect x="131.01" y="436.62" transform="matrix(3.529361e-11 -1 1 3.529361e-11 -304.9999 569.8533)" width="2.83" height="1.62"/>
			</g>
			<g>
				
					<rect x="119.54" y="436.01" transform="matrix(3.529361e-11 -1 1 3.529361e-11 -316.4721 558.3811)" width="2.83" height="2.83"/>
				<rect x="114.75" y="436.01" width="4.79" height="2.83"/>
				<rect x="122.37" y="436.01" width="4.79" height="2.83"/>
				<rect x="119.54" y="431.22" width="2.83" height="4.79"/>
				<rect x="119.54" y="438.84" width="2.83" height="4.79"/>
			</g>
			<g>
				
					<rect x="128.78" y="445.25" transform="matrix(3.529361e-11 -1 1 3.529361e-11 -316.4721 576.8688)" width="2.83" height="2.83"/>
				<rect x="123.99" y="445.25" width="4.79" height="2.83"/>
				<rect x="131.62" y="445.25" width="4.79" height="2.83"/>
				<rect x="128.78" y="440.47" width="2.83" height="4.79"/>
				<rect x="128.78" y="448.09" width="2.83" height="4.79"/>
			</g>
			<g>
				
					<rect x="128.78" y="426.77" transform="matrix(3.529361e-11 -1 1 3.529361e-11 -297.9844 558.3811)" width="2.83" height="2.83"/>
				<rect x="123.99" y="426.77" width="4.79" height="2.83"/>
				<rect x="131.62" y="426.77" width="4.79" height="2.83"/>
				<rect x="128.78" y="421.98" width="2.83" height="4.79"/>
				<rect x="128.78" y="429.6" width="2.83" height="4.79"/>
			</g>
			<g>
				
					<rect x="138.02" y="436.01" transform="matrix(3.529361e-11 -1 1 3.529361e-11 -297.9844 576.8688)" width="2.83" height="2.83"/>
				<rect x="133.24" y="436.01" width="4.79" height="2.83"/>
				<rect x="140.86" y="436.01" width="4.79" height="2.83"/>
				<rect x="138.02" y="431.22" width="2.83" height="4.79"/>
				<rect x="138.02" y="438.84" width="2.83" height="4.79"/>
			</g>
		</g>
		<g>
			<g>
				
					<rect x="161.16" y="468.38" transform="matrix(-1 -8.791291e-11 8.791291e-11 -1 325.1467 939.6033)" width="2.83" height="2.83"/>
				
					<rect x="161.16" y="471.22" transform="matrix(-1 -8.855462e-11 8.855462e-11 -1 325.1467 944.0599)" width="2.83" height="1.62"/>
				
					<rect x="163.38" y="468.99" transform="matrix(7.026563e-11 -1 1 7.026563e-11 -304.9999 634.6033)" width="2.83" height="1.62"/>
				
					<rect x="158.93" y="468.99" transform="matrix(1.058807e-10 -1 1 1.058807e-10 -309.4566 630.1467)" width="2.83" height="1.62"/>
				
					<rect x="161.16" y="466.76" transform="matrix(-1 -8.855462e-11 8.855462e-11 -1 325.1467 935.1465)" width="2.83" height="1.62"/>
			</g>
			<g>
				
					<rect x="161.16" y="477.63" transform="matrix(-1 -9.176317e-11 9.176317e-11 -1 325.1467 958.091)" width="2.83" height="2.83"/>
				<rect x="161.16" y="480.46" width="2.83" height="4.79"/>
				<rect x="161.16" y="472.84" width="2.83" height="4.79"/>
				<rect x="156.37" y="477.63" width="4.79" height="2.83"/>
				<rect x="163.99" y="477.63" width="4.79" height="2.83"/>
			</g>
			<g>
				
					<rect x="170.4" y="468.38" transform="matrix(-1 -8.855462e-11 8.855462e-11 -1 343.6344 939.6033)" width="2.83" height="2.83"/>
				<rect x="170.4" y="471.22" width="2.83" height="4.79"/>
				<rect x="170.4" y="463.6" width="2.83" height="4.79"/>
				<rect x="165.61" y="468.38" width="4.79" height="2.83"/>
				<rect x="173.23" y="468.38" width="4.79" height="2.83"/>
			</g>
			<g>
				
					<rect x="151.91" y="468.38" transform="matrix(-1 -8.855462e-11 8.855462e-11 -1 306.659 939.6033)" width="2.83" height="2.83"/>
				<rect x="151.91" y="471.22" width="2.83" height="4.79"/>
				<rect x="151.91" y="463.6" width="2.83" height="4.79"/>
				<rect x="147.12" y="468.38" width="4.79" height="2.83"/>
				<rect x="154.75" y="468.38" width="4.79" height="2.83"/>
			</g>
			<g>
				
					<rect x="161.16" y="459.14" transform="matrix(-1 -9.176317e-11 9.176317e-11 -1 325.1467 921.1155)" width="2.83" height="2.83"/>
				<rect x="161.16" y="461.98" width="2.83" height="4.79"/>
				<rect x="161.16" y="454.35" width="2.83" height="4.79"/>
				<rect x="156.37" y="459.14" width="4.79" height="2.83"/>
				<rect x="163.99" y="459.14" width="4.79" height="2.83"/>
			</g>
		</g>
		<g>
			<g>
				
					<rect x="193.53" y="436.01" transform="matrix(-1.411744e-10 1 -1 -1.411744e-10 632.375 242.4783)" width="2.83" height="2.83"/>
				
					<rect x="195.76" y="436.62" transform="matrix(-1.411744e-10 1 -1 -1.411744e-10 634.6033 240.2499)" width="2.83" height="1.62"/>
				
					<rect x="193.53" y="434.39" transform="matrix(-1 -1.309065e-10 1.309065e-10 -1 389.8967 870.3966)" width="2.83" height="1.62"/>
				
					<rect x="193.53" y="438.84" transform="matrix(-1 -1.347568e-10 1.347568e-10 -1 389.8967 879.3099)" width="2.83" height="1.62"/>
				
					<rect x="191.3" y="436.62" transform="matrix(-1.408528e-10 1 -1 -1.408528e-10 630.1467 244.7066)" width="2.83" height="1.62"/>
			</g>
			<g>
				
					<rect x="202.77" y="436.01" transform="matrix(-1.411744e-10 1 -1 -1.411744e-10 641.6189 233.2344)" width="2.83" height="2.83"/>
				<rect x="205.61" y="436.01" width="4.79" height="2.83"/>
				<rect x="197.99" y="436.01" width="4.79" height="2.83"/>
				<rect x="202.77" y="438.84" width="2.83" height="4.79"/>
				<rect x="202.77" y="431.22" width="2.83" height="4.79"/>
			</g>
			<g>
				
					<rect x="193.53" y="426.77" transform="matrix(-1.058799e-10 1 -1 -1.058799e-10 623.1312 233.2344)" width="2.83" height="2.83"/>
				<rect x="196.37" y="426.77" width="4.79" height="2.83"/>
				<rect x="188.74" y="426.77" width="4.79" height="2.83"/>
				<rect x="193.53" y="429.6" width="2.83" height="4.79"/>
				<rect x="193.53" y="421.98" width="2.83" height="4.79"/>
			</g>
			<g>
				
					<rect x="193.53" y="445.25" transform="matrix(-1.058799e-10 1 -1 -1.058799e-10 641.6189 251.7221)" width="2.83" height="2.83"/>
				<rect x="196.37" y="445.25" width="4.79" height="2.83"/>
				<rect x="188.74" y="445.25" width="4.79" height="2.83"/>
				<rect x="193.53" y="448.09" width="2.83" height="4.79"/>
				<rect x="193.53" y="440.47" width="2.83" height="4.79"/>
			</g>
			<g>
				
					<rect x="184.29" y="436.01" transform="matrix(-1.411744e-10 1 -1 -1.411744e-10 623.1312 251.7222)" width="2.83" height="2.83"/>
				<rect x="187.12" y="436.01" width="4.79" height="2.83"/>
				<rect x="179.5" y="436.01" width="4.79" height="2.83"/>
				<rect x="184.29" y="438.84" width="2.83" height="4.79"/>
				<rect x="184.29" y="431.22" width="2.83" height="4.79"/>
			</g>
		</g>
	</g>
</g>
<g>
</g>
<g>
</g>
<g>
</g>
<g>
</g>
<g>
</g>
<g>
</g>
<g>
</g>
<g>
</g>
<g>
</g>
<g>
</g>
<g>
</g>
<g>
</g>
<g>
</g>
<g>
</g>
<g>
</g>
</svg>
