<?xml version="1.0" encoding="utf-8"?>
<!-- Generator: Adobe Illustrator 27.2.0, SVG Export Plug-In . SVG Version: 6.00 Build 0)  -->
<svg version="1.1" id="Layer_1" xmlns="http://www.w3.org/2000/svg" xmlns:xlink="http://www.w3.org/1999/xlink" x="0px" y="0px"
	 viewBox="0 0 800 600" style="enable-background:new 0 0 800 600;" xml:space="preserve">
<g>
	<g>
		<g>
			<g>
				<g>
					<g>
						<path style="fill:none;stroke:#000000;stroke-width:2;stroke-miterlimit:10;" d="M266.68,340.92c0,4.2-3.4,7.6-7.6,7.6
							s-7.6-3.4-7.6-7.6s3.4-7.6,7.6-7.6S266.68,336.72,266.68,340.92z"/>
						<circle cx="259.08" cy="340.92" r="2.6"/>
						
							<rect x="244.81" y="326.65" transform="matrix(0.7071 -0.7071 0.7071 0.7071 -165.1859 283.0496)" style="fill:none;stroke:#000000;stroke-width:2;stroke-miterlimit:10;" width="28.54" height="28.54"/>
					</g>
					<g>
						<g>
							<g>
								<g>
									
										<rect x="235.91" y="378.18" transform="matrix(0.7071 -0.7071 0.7071 0.7071 -195.8062 285.9352)" width="22.68" height="2.3"/>
									
										<rect x="230.49" y="372.75" transform="matrix(0.7071 -0.7071 0.7071 0.7071 -193.5589 280.5077)" width="22.68" height="2.3"/>
									
										<rect x="232.9" y="381.14" transform="matrix(0.7071 -0.7071 0.7071 0.7071 -204.1951 279.281)" width="4.25" height="9.97"/>
									
										<rect x="251.92" y="362.12" transform="matrix(0.7071 -0.7071 0.7071 0.7071 -185.17 287.1627)" width="4.25" height="9.97"/>
								</g>
								<g>
									
										<rect x="228.86" y="371.13" transform="matrix(0.7071 -0.7071 0.7071 0.7071 -192.8851 278.8811)" width="22.68" height="2.3"/>
									
										<rect x="223.44" y="365.7" transform="matrix(0.7071 -0.7071 0.7071 0.7071 -190.6395 273.4616)" width="22.68" height="2.3"/>
									
										<rect x="225.85" y="374.09" transform="matrix(0.7071 -0.7071 0.7071 0.7071 -201.2749 272.2309)" width="4.25" height="9.97"/>
									
										<rect x="244.87" y="355.07" transform="matrix(0.7071 -0.7071 0.7071 0.7071 -182.2495 280.1115)" width="4.25" height="9.97"/>
								</g>
								<g>
									
										<rect x="221.81" y="364.07" transform="matrix(0.7071 -0.7071 0.7071 0.7071 -189.9657 271.835)" width="22.68" height="2.3"/>
									
										<rect x="216.39" y="358.65" transform="matrix(0.7071 -0.7071 0.7071 0.7071 -187.7184 266.4076)" width="22.68" height="2.3"/>
									
										<rect x="218.8" y="367.04" transform="matrix(0.7071 -0.7071 0.7071 0.7071 -198.3547 265.1808)" width="4.25" height="9.97"/>
									
										<rect x="237.82" y="348.02" transform="matrix(0.7071 -0.7071 0.7071 0.7071 -179.3293 273.0614)" width="4.25" height="9.97"/>
								</g>
								<g>
									
										<rect x="214.76" y="357.02" transform="matrix(0.7071 -0.7071 0.7071 0.7071 -187.0446 264.781)" width="22.68" height="2.3"/>
									
										<rect x="209.34" y="351.6" transform="matrix(0.7071 -0.7071 0.7071 0.7071 -184.799 259.3614)" width="22.68" height="2.3"/>
									
										<rect x="211.75" y="359.99" transform="matrix(0.7071 -0.7071 0.7071 0.7071 -195.4344 258.1308)" width="4.25" height="9.97"/>
									
										<rect x="230.77" y="340.97" transform="matrix(0.7071 -0.7071 0.7071 0.7071 -176.4091 266.0113)" width="4.25" height="9.97"/>
								</g>
								<g>
									
										<rect x="219.53" y="317.75" transform="matrix(0.7071 -0.7071 0.7071 0.7071 -168.0702 252.4334)" width="2.3" height="22.68"/>
									
										<rect x="224.95" y="312.33" transform="matrix(0.7071 -0.7071 0.7071 0.7071 -162.6457 254.6744)" width="2.3" height="22.68"/>
									
										<rect x="208.89" y="314.74" transform="matrix(0.7071 -0.7071 0.7071 0.7071 -161.4173 244.0404)" width="9.97" height="4.25"/>
									
										<rect x="227.91" y="333.77" transform="matrix(0.7071 -0.7071 0.7071 0.7071 -169.2981 263.0668)" width="9.97" height="4.25"/>
								</g>
								<g>
									
										<rect x="226.58" y="310.7" transform="matrix(0.7071 -0.7071 0.7071 0.7071 -161.0191 255.3482)" width="2.3" height="22.68"/>
									
										<rect x="232" y="305.28" transform="matrix(0.7071 -0.7071 0.7071 0.7071 -155.596 257.5965)" width="2.3" height="22.68"/>
									
										<rect x="215.94" y="307.69" transform="matrix(0.7071 -0.7071 0.7071 0.7071 -154.3671 246.9597)" width="9.97" height="4.25"/>
									
										<rect x="234.96" y="326.72" transform="matrix(0.7071 -0.7071 0.7071 0.7071 -162.2478 265.986)" width="9.97" height="4.25"/>
								</g>
								<g>
									
										<rect x="233.63" y="303.65" transform="matrix(0.7071 -0.7071 0.7071 0.7071 -153.9694 258.2703)" width="2.3" height="22.68"/>
									
										<rect x="239.05" y="298.23" transform="matrix(0.7071 -0.7071 0.7071 0.7071 -148.5462 260.5185)" width="2.3" height="22.68"/>
									
										<rect x="222.99" y="300.64" transform="matrix(0.7071 -0.7071 0.7071 0.7071 -147.3172 249.8809)" width="9.97" height="4.25"/>
									
										<rect x="242.01" y="319.67" transform="matrix(0.7071 -0.7071 0.7071 0.7071 -155.1979 268.9073)" width="9.97" height="4.25"/>
								</g>
								<g>
									
										<rect x="240.68" y="296.6" transform="matrix(0.7071 -0.7071 0.7071 0.7071 -146.9191 261.1887)" width="2.3" height="22.68"/>
									
										<rect x="246.1" y="291.18" transform="matrix(0.7071 -0.7071 0.7071 0.7071 -141.4958 263.437)" width="2.3" height="22.68"/>
									
										<rect x="230.04" y="293.59" transform="matrix(0.7071 -0.7071 0.7071 0.7071 -140.267 252.8002)" width="9.97" height="4.25"/>
									
										<rect x="249.06" y="312.62" transform="matrix(0.7071 -0.7071 0.7071 0.7071 -148.1475 271.8245)" width="9.97" height="4.25"/>
								</g>
								<g>
									
										<rect x="259.57" y="301.37" transform="matrix(0.7071 -0.7071 0.7071 0.7071 -134.5661 280.166)" width="22.68" height="2.3"/>
									
										<rect x="264.99" y="306.79" transform="matrix(0.7071 -0.7071 0.7071 0.7071 -136.8126 285.5895)" width="22.68" height="2.3"/>
									
										<rect x="281.01" y="290.73" transform="matrix(0.7071 -0.7071 0.7071 0.7071 -126.1767 286.8162)" width="4.25" height="9.97"/>
									
										<rect x="261.98" y="309.76" transform="matrix(0.7071 -0.7071 0.7071 0.7071 -145.2021 278.9377)" width="4.25" height="9.97"/>
								</g>
								<g>
									
										<rect x="266.62" y="308.42" transform="matrix(0.7071 -0.7071 0.7071 0.7071 -137.4864 287.2161)" width="22.68" height="2.3"/>
									
										<rect x="272.04" y="313.84" transform="matrix(0.7071 -0.7071 0.7071 0.7071 -139.7326 292.6356)" width="22.68" height="2.3"/>
									
										<rect x="288.06" y="297.78" transform="matrix(0.7071 -0.7071 0.7071 0.7071 -129.097 293.8683)" width="4.25" height="9.97"/>
									
										<rect x="269.03" y="316.81" transform="matrix(0.7071 -0.7071 0.7071 0.7071 -148.1225 285.9899)" width="4.25" height="9.97"/>
								</g>
								<g>
									
										<rect x="273.67" y="315.47" transform="matrix(0.7071 -0.7071 0.7071 0.7071 -140.4066 294.2662)" width="22.68" height="2.3"/>
									
										<rect x="279.09" y="320.89" transform="matrix(0.7071 -0.7071 0.7071 0.7071 -142.6533 299.6937)" width="22.68" height="2.3"/>
									
										<rect x="295.11" y="304.83" transform="matrix(0.7071 -0.7071 0.7071 0.7071 -132.0172 300.9184)" width="4.25" height="9.97"/>
									
										<rect x="276.08" y="323.86" transform="matrix(0.7071 -0.7071 0.7071 0.7071 -151.0426 293.0378)" width="4.25" height="9.97"/>
								</g>
								<g>
									
										<rect x="280.72" y="322.52" transform="matrix(0.7071 -0.7071 0.7071 0.7071 -143.3268 301.3163)" width="22.68" height="2.3"/>
									
										<rect x="286.14" y="327.94" transform="matrix(0.7071 -0.7071 0.7071 0.7071 -145.5733 306.7397)" width="22.68" height="2.3"/>
									
										<rect x="302.16" y="311.88" transform="matrix(0.7071 -0.7071 0.7071 0.7071 -134.9375 307.9684)" width="4.25" height="9.97"/>
									
										<rect x="283.13" y="330.91" transform="matrix(0.7071 -0.7071 0.7071 0.7071 -153.9627 300.0856)" width="4.25" height="9.97"/>
								</g>
								<g>
									
										<rect x="296.33" y="341.41" transform="matrix(0.7071 -0.7071 0.7071 0.7071 -162.3022 313.6673)" width="2.3" height="22.68"/>
									
										<rect x="290.91" y="346.84" transform="matrix(0.7071 -0.7071 0.7071 0.7071 -167.7258 311.423)" width="2.3" height="22.68"/>
									
										<rect x="299.3" y="362.85" transform="matrix(0.7071 -0.7071 0.7071 0.7071 -168.9544 322.0564)" width="9.97" height="4.25"/>
									
										<rect x="280.27" y="343.82" transform="matrix(0.7071 -0.7071 0.7071 0.7071 -161.074 303.0334)" width="9.97" height="4.25"/>
								</g>
								<g>
									
										<rect x="289.28" y="348.46" transform="matrix(0.7071 -0.7071 0.7071 0.7071 -169.3524 310.7492)" width="2.3" height="22.68"/>
									
										<rect x="283.86" y="353.89" transform="matrix(0.7071 -0.7071 0.7071 0.7071 -174.7756 308.5006)" width="2.3" height="22.68"/>
									
										<rect x="292.25" y="369.9" transform="matrix(0.7071 -0.7071 0.7071 0.7071 -176.0048 319.1398)" width="9.97" height="4.25"/>
									
										<rect x="273.22" y="350.87" transform="matrix(0.7071 -0.7071 0.7071 0.7071 -168.1243 300.1154)" width="9.97" height="4.25"/>
								</g>
								<g>
									
										<rect x="282.23" y="355.51" transform="matrix(0.7071 -0.7071 0.7071 0.7071 -176.4028 307.8311)" width="2.3" height="22.68"/>
									
										<rect x="276.81" y="360.94" transform="matrix(0.7071 -0.7071 0.7071 0.7071 -181.826 305.5825)" width="2.3" height="22.68"/>
									
										<rect x="285.2" y="376.95" transform="matrix(0.7071 -0.7071 0.7071 0.7071 -183.0547 316.2183)" width="9.97" height="4.25"/>
									
										<rect x="266.17" y="357.92" transform="matrix(0.7071 -0.7071 0.7071 0.7071 -175.174 297.1918)" width="9.97" height="4.25"/>
								</g>
								<g>
									
										<rect x="275.18" y="362.56" transform="matrix(0.7071 -0.7071 0.7071 0.7071 -183.4526 304.9087)" width="2.3" height="22.68"/>
									
										<rect x="269.76" y="367.99" transform="matrix(0.7071 -0.7071 0.7071 0.7071 -188.8764 302.6644)" width="2.3" height="22.68"/>
									
										<rect x="278.15" y="384" transform="matrix(0.7071 -0.7071 0.7071 0.7071 -190.105 313.2993)" width="9.97" height="4.25"/>
									
										<rect x="259.12" y="364.97" transform="matrix(0.7071 -0.7071 0.7071 0.7071 -182.2242 294.2727)" width="9.97" height="4.25"/>
								</g>
								<g>
									<path d="M211.84,321.91l16.02,16.02l0.01-0.01l3.01,3.01l-3.01,3.01l-0.01-0.01l-16.02,16.02l0.01,0.01l-3.01,3.01
										l-22.03-22.03h-0.01l0,0l0,0h0.01l22.03-22.03l3.01,3.01L211.84,321.91z M214.88,340.92L214.88,340.92l-11.02-11.02l0,0
										L214.88,340.92z M214.88,340.92L214.88,340.92L214.88,340.92L214.88,340.92L214.88,340.92z M201.91,340.92L201.91,340.92
										l-4.54-4.54l0,0L201.91,340.92z M201.91,340.92L201.91,340.92L201.91,340.92L201.91,340.92L201.91,340.92z M195.87,343.96
										l3.04-3.04l-3.04-3.04l-3.04,3.04L195.87,343.96z M197.37,345.46l4.54-4.54h0L197.37,345.46L197.37,345.46z M202.36,350.45
										l9.53-9.53l-9.53-9.53l-3.49,3.49l6.03,6.03h0.01l0,0l0,0h-0.01l-6.03,6.03L202.36,350.45z M203.86,351.95l11.02-11.02h0
										L203.86,351.95L203.86,351.95z M226.36,342.42l-16.02,16.02l0,0L226.36,342.42L226.36,342.42z M209.45,324.3l-4.1,4.1
										l12.52,12.52h0.01l0,0l0,0h-0.01l-12.52,12.52l4.1,4.1l16.62-16.62L209.45,324.3z M210.35,323.41L210.35,323.41
										l16.02,16.02l0,0L210.35,323.41z"/>
								</g>
								<g>
									<path d="M278.09,293.69l-16.02,16.02l0.01,0.01l-3.01,3.01l-3.01-3.01l0.01-0.01l-16.02-16.02l-0.01,0.01l-3.01-3.01
										l22.03-22.03v-0.01l0,0l0,0v0.01l22.03,22.03l-3.01,3.01L278.09,293.69z M259.08,296.73L259.08,296.73l11.02-11.02l0,0
										L259.08,296.73z M259.08,296.73L259.08,296.73L259.08,296.73L259.08,296.73L259.08,296.73z M259.08,283.75L259.08,283.75
										l4.54-4.54l0,0L259.08,283.75z M259.08,283.75L259.08,283.75L259.08,283.75L259.08,283.75L259.08,283.75z M256.04,277.72
										l3.04,3.04l3.04-3.04l-3.04-3.04L256.04,277.72z M254.54,279.21l4.54,4.54v0L254.54,279.21L254.54,279.21z M249.55,284.2
										l9.53,9.53l9.53-9.53l-3.49-3.49l-6.03,6.03v0.01l0,0l0,0v-0.01l-6.03-6.03L249.55,284.2z M248.05,285.7l11.02,11.02v0
										L248.05,285.7L248.05,285.7z M257.58,308.21l-16.02-16.02l0,0L257.58,308.21L257.58,308.21z M275.7,291.29l-4.1-4.1
										l-12.52,12.52v0.01l0,0l0,0v-0.01l-12.52-12.52l-4.1,4.1l16.62,16.62L275.7,291.29z M276.59,292.19L276.59,292.19
										l-16.02,16.02l0,0L276.59,292.19z"/>
								</g>
								<g>
									<path d="M306.31,359.93l-16.02-16.02l-0.01,0.01l-3.01-3.01l3.01-3.01l0.01,0.01l16.02-16.02l-0.01-0.01l3.01-3.01
										l22.03,22.03h0.01l0,0l0,0h-0.01l-22.03,22.03l-3.01-3.01L306.31,359.93z M303.27,340.92L303.27,340.92l11.02,11.02l0,0
										L303.27,340.92z M303.27,340.92L303.27,340.92L303.27,340.92L303.27,340.92L303.27,340.92z M316.25,340.92L316.25,340.92
										l4.54,4.54l0,0L316.25,340.92z M316.25,340.92L316.25,340.92L316.25,340.92L316.25,340.92L316.25,340.92z M322.28,337.88
										l-3.04,3.04l3.04,3.04l3.04-3.04L322.28,337.88z M320.79,336.38l-4.54,4.54h0L320.79,336.38L320.79,336.38z M315.8,331.39
										l-9.53,9.53l9.53,9.53l3.49-3.49l-6.03-6.03h-0.01l0,0l0,0h0.01l6.03-6.03L315.8,331.39z M314.3,329.89l-11.02,11.02h0
										L314.3,329.89L314.3,329.89z M291.79,339.43l16.02-16.02l0,0L291.79,339.43L291.79,339.43z M308.71,357.54l4.1-4.1
										l-12.52-12.52h-0.01l0,0l0,0h0.01l12.52-12.52l-4.1-4.1l-16.62,16.62L308.71,357.54z M307.81,358.44L307.81,358.44
										l-16.02-16.02l0,0L307.81,358.44z"/>
								</g>
								<g>
									<path d="M240.07,388.16l16.02-16.02l-0.01-0.01l3.01-3.01l3.01,3.01l-0.01,0.01l16.02,16.02l0.01-0.01l3.01,3.01
										l-22.03,22.03v0.01l0,0l0,0v-0.01l-22.03-22.03l3.01-3.01L240.07,388.16z M259.08,385.12L259.08,385.12l-11.02,11.02l0,0
										L259.08,385.12z M259.08,385.12L259.08,385.12L259.08,385.12L259.08,385.12L259.08,385.12z M259.08,398.09L259.08,398.09
										l-4.54,4.54l0,0L259.08,398.09z M259.08,398.09L259.08,398.09L259.08,398.09L259.08,398.09L259.08,398.09z M262.12,404.13
										l-3.04-3.04l-3.04,3.04l3.04,3.04L262.12,404.13z M263.62,402.63l-4.54-4.54v0L263.62,402.63L263.62,402.63z
										 M268.61,397.64l-9.53-9.53l-9.53,9.53l3.49,3.49l6.03-6.03v-0.01l0,0l0,0v0.01l6.03,6.03L268.61,397.64z M270.11,396.14
										l-11.02-11.02v0L270.11,396.14L270.11,396.14z M260.57,373.64l16.02,16.02l0,0L260.57,373.64L260.57,373.64z
										 M242.46,390.55l4.1,4.1l12.52-12.52v-0.01l0,0l0,0v0.01l12.52,12.52l4.1-4.1l-16.62-16.62L242.46,390.55z M241.56,389.65
										L241.56,389.65l16.02-16.02l0,0L241.56,389.65z"/>
								</g>
							</g>
						</g>
					</g>
				</g>
				<g>
					<g>
						
							<rect x="204.49" y="292.35" transform="matrix(0.7071 -0.7071 0.7071 0.7071 -147.7083 232.3508)" width="4.25" height="4.25"/>
						
							<rect x="192.59" y="304.25" transform="matrix(0.7071 -0.7071 0.7071 0.7071 -159.6084 227.4216)" width="4.25" height="4.25"/>
						
							<rect x="222.41" y="274.44" transform="matrix(0.7071 -0.7071 0.7071 0.7071 -129.7949 239.7708)" width="4.25" height="4.25"/>
						
							<rect x="210.51" y="286.34" transform="matrix(0.7071 -0.7071 0.7071 0.7071 -141.6951 234.8416)" width="4.25" height="4.25"/>
						
							<rect x="246.33" y="250.51" transform="matrix(0.7071 -0.7071 0.7071 0.7071 -105.8683 249.6815)" width="4.25" height="4.25"/>
						<polygon points="172.4,340.93 170.79,339.32 169.18,340.93 						"/>
						<polygon points="160.63,340.93 158.89,339.2 157.16,340.93 						"/>
						<polygon points="166.64,340.93 164.9,339.2 163.17,340.93 						"/>
						
							<rect x="168.67" y="334.19" transform="matrix(0.7071 -0.7071 0.7071 0.7071 -187.787 219.2721)" width="4.25" height="4.25"/>
						
							<rect x="168.67" y="328.18" transform="matrix(0.7071 -0.7071 0.7071 0.7071 -183.535 217.5109)" width="4.25" height="4.25"/>
						
							<rect x="252.35" y="250.51" transform="matrix(0.7071 -0.7071 0.7071 0.7071 -104.1071 253.9335)" width="4.25" height="4.25"/>
						<polygon points="259.09,251.03 257.48,252.64 259.09,254.24 						"/>
						
							<rect x="228.42" y="268.42" transform="matrix(0.7071 -0.7071 0.7071 0.7071 -123.7817 242.2615)" width="4.25" height="4.25"/>
						
							<rect x="186.58" y="310.26" transform="matrix(0.7071 -0.7071 0.7071 0.7071 -165.6216 224.9309)" width="4.25" height="4.25"/>
						
							<rect x="180.69" y="322.16" transform="matrix(0.7071 -0.7071 0.7071 0.7071 -175.7606 224.2536)" width="4.25" height="4.25"/>
						
							<rect x="174.68" y="322.16" transform="matrix(0.7071 -0.7071 0.7071 0.7071 -177.5218 220.0016)" width="4.25" height="4.25"/>
						<polygon points="185.7,306.38 188.7,309.38 191.71,306.38 188.71,303.37 203.61,288.47 206.62,291.47 209.62,288.46 
							206.62,285.46 221.53,270.55 224.53,273.56 227.54,270.55 224.53,267.55 239.44,252.64 242.44,255.64 245.45,252.64 
							242.45,249.63 257.36,234.73 259.09,236.46 259.09,227.34 145.49,340.93 154.61,340.93 152.88,339.2 167.79,324.29 
							170.79,327.3 173.8,324.29 170.79,321.29 						"/>
						
							<rect x="240.32" y="256.52" transform="matrix(0.7071 -0.7071 0.7071 0.7071 -111.8815 247.1908)" width="4.25" height="4.25"/>
						
							<rect x="186.58" y="316.28" transform="matrix(0.7071 -0.7071 0.7071 0.7071 -169.8736 226.6921)" width="4.25" height="4.25"/>
						<polygon points="245.45,270.67 242.44,267.67 239.56,270.55 242.57,273.55 227.53,288.58 224.53,285.58 221.65,288.46 
							224.65,291.46 209.62,306.5 206.62,303.49 203.74,306.38 206.74,309.38 191.71,324.41 188.7,321.41 185.82,324.29 
							188.83,327.29 175.19,340.93 180.85,340.93 259.09,262.69 259.09,257.03 						"/>
						<polygon points="259.09,242.47 259.09,239 257.35,240.73 						"/>
						<polygon points="259.09,248.48 259.09,245.01 257.35,246.75 						"/>
						
							<rect x="240.32" y="262.54" transform="matrix(0.7071 -0.7071 0.7071 0.7071 -116.1335 248.952)" width="4.25" height="4.25"/>
						
							<rect x="216.52" y="286.34" transform="matrix(0.7071 -0.7071 0.7071 0.7071 -139.9339 239.0935)" width="4.25" height="4.25"/>
						
							<rect x="198.61" y="304.25" transform="matrix(0.7071 -0.7071 0.7071 0.7071 -157.8472 231.6736)" width="4.25" height="4.25"/>
						
							<rect x="204.49" y="298.36" transform="matrix(0.7071 -0.7071 0.7071 0.7071 -151.9603 234.112)" width="4.25" height="4.25"/>
						
							<rect x="222.41" y="280.45" transform="matrix(0.7071 -0.7071 0.7071 0.7071 -134.0469 241.532)" width="4.25" height="4.25"/>
						
							<rect x="234.43" y="268.42" transform="matrix(0.7071 -0.7071 0.7071 0.7071 -122.0205 246.5135)" width="4.25" height="4.25"/>
					</g>
					<g>
						
							<rect x="210.51" y="391.26" transform="matrix(0.7071 -0.7071 0.7071 0.7071 -215.8847 265.5719)" width="4.25" height="4.25"/>
						
							<rect x="222.41" y="403.16" transform="matrix(0.7071 -0.7071 0.7071 0.7071 -220.8139 277.4721)" width="4.25" height="4.25"/>
						
							<rect x="192.59" y="373.34" transform="matrix(0.7071 -0.7071 0.7071 0.7071 -208.4648 247.6586)" width="4.25" height="4.25"/>
						
							<rect x="204.49" y="385.24" transform="matrix(0.7071 -0.7071 0.7071 0.7071 -213.394 259.5587)" width="4.25" height="4.25"/>
						<rect x="168.67" y="349.42" transform="matrix(0.7071 -0.7071 0.7071 0.7071 -198.554 223.732)" width="4.25" height="4.25"/>
						<polygon points="259.09,427.6 257.48,429.21 259.09,430.82 						"/>
						<polygon points="259.09,439.37 257.35,441.11 259.09,442.84 						"/>
						<polygon points="259.09,433.36 257.35,435.1 259.09,436.83 						"/>
						
							<rect x="252.35" y="427.08" transform="matrix(0.7071 -0.7071 0.7071 0.7071 -228.9634 305.6506)" width="4.25" height="4.25"/>
						
							<rect x="246.33" y="427.08" transform="matrix(0.7071 -0.7071 0.7071 0.7071 -230.7246 301.3987)" width="4.25" height="4.25"/>
						
							<rect x="168.67" y="343.4" transform="matrix(0.7071 -0.7071 0.7071 0.7071 -194.3021 221.9708)" width="4.25" height="4.25"/>
						<polygon points="169.18,340.91 170.79,342.52 172.4,340.91 						"/>
						
							<rect x="186.58" y="367.33" transform="matrix(0.7071 -0.7071 0.7071 0.7071 -205.974 241.6454)" width="4.25" height="4.25"/>
						
							<rect x="228.42" y="409.17" transform="matrix(0.7071 -0.7071 0.7071 0.7071 -223.3047 283.4853)" width="4.25" height="4.25"/>
						
							<rect x="240.32" y="415.06" transform="matrix(0.7071 -0.7071 0.7071 0.7071 -223.9819 293.6243)" width="4.25" height="4.25"/>
						
							<rect x="240.32" y="421.07" transform="matrix(0.7071 -0.7071 0.7071 0.7071 -228.2339 295.3855)" width="4.25" height="4.25"/>
						<polygon points="224.53,414.3 227.54,411.3 224.53,408.29 221.53,411.29 206.62,396.39 209.62,393.38 206.62,390.38 
							203.61,393.38 188.71,378.47 191.71,375.47 188.7,372.46 185.7,375.47 170.79,360.56 173.8,357.56 170.79,354.55 
							167.79,357.55 152.88,342.64 154.61,340.91 145.49,340.91 259.09,454.51 259.09,445.39 257.35,447.12 242.45,432.21 
							245.45,429.21 242.44,426.2 239.44,429.21 						"/>
						
							<rect x="174.68" y="355.43" transform="matrix(0.7071 -0.7071 0.7071 0.7071 -201.0448 229.7452)" width="4.25" height="4.25"/>
						
							<rect x="234.43" y="409.17" transform="matrix(0.7071 -0.7071 0.7071 0.7071 -221.5435 287.7373)" width="4.25" height="4.25"/>
						<polygon points="188.83,354.55 185.82,357.56 188.7,360.44 191.71,357.43 206.74,372.47 203.74,375.47 206.62,378.35 
							209.62,375.35 224.65,390.38 221.65,393.38 224.53,396.26 227.53,393.26 242.57,408.29 239.56,411.3 242.44,414.18 
							245.45,411.17 259.09,424.81 259.09,419.15 180.85,340.91 175.19,340.91 						"/>
						<polygon points="160.63,340.91 157.16,340.91 158.89,342.65 						"/>
						<polygon points="166.64,340.91 163.17,340.91 164.9,342.65 						"/>
						
							<rect x="180.69" y="355.43" transform="matrix(0.7071 -0.7071 0.7071 0.7071 -199.2836 233.9971)" width="4.25" height="4.25"/>
						
							<rect x="204.49" y="379.23" transform="matrix(0.7071 -0.7071 0.7071 0.7071 -209.142 257.7975)" width="4.25" height="4.25"/>
						
							<rect x="222.41" y="397.14" transform="matrix(0.7071 -0.7071 0.7071 0.7071 -216.562 275.7109)" width="4.25" height="4.25"/>
						
							<rect x="216.52" y="391.26" transform="matrix(0.7071 -0.7071 0.7071 0.7071 -214.1235 269.8239)" width="4.25" height="4.25"/>
						
							<rect x="198.61" y="373.34" transform="matrix(0.7071 -0.7071 0.7071 0.7071 -206.7035 251.9105)" width="4.25" height="4.25"/>
						
							<rect x="186.58" y="361.32" transform="matrix(0.7071 -0.7071 0.7071 0.7071 -201.722 239.8841)" width="4.25" height="4.25"/>
					</g>
					<g>
						
							<rect x="309.41" y="385.24" transform="matrix(0.7071 -0.7071 0.7071 0.7071 -182.6636 333.7484)" width="4.25" height="4.25"/>
						
							<rect x="321.31" y="373.34" transform="matrix(0.7071 -0.7071 0.7071 0.7071 -170.7635 338.6776)" width="4.25" height="4.25"/>
						<rect x="291.5" y="403.16" transform="matrix(0.7071 -0.7071 0.7071 0.7071 -200.577 326.3284)" width="4.25" height="4.25"/>
						
							<rect x="303.4" y="391.26" transform="matrix(0.7071 -0.7071 0.7071 0.7071 -188.6768 331.2576)" width="4.25" height="4.25"/>
						
							<rect x="267.57" y="427.08" transform="matrix(0.7071 -0.7071 0.7071 0.7071 -224.5036 316.4177)" width="4.25" height="4.25"/>
						<polygon points="345.76,340.91 347.36,342.52 348.97,340.91 						"/>
						<polygon points="357.53,340.91 359.27,342.65 361,340.91 						"/>
						<polygon points="351.52,340.91 353.25,342.65 354.99,340.91 						"/>
						
							<rect x="345.24" y="343.4" transform="matrix(0.7071 -0.7071 0.7071 0.7071 -142.5849 346.8271)" width="4.25" height="4.25"/>
						
							<rect x="345.24" y="349.42" transform="matrix(0.7071 -0.7071 0.7071 0.7071 -146.8369 348.5883)" width="4.25" height="4.25"/>
						
							<rect x="261.56" y="427.08" transform="matrix(0.7071 -0.7071 0.7071 0.7071 -226.2648 312.1657)" width="4.25" height="4.25"/>
						<polygon points="259.07,430.82 260.68,429.21 259.07,427.6 						"/>
						
							<rect x="285.49" y="409.17" transform="matrix(0.7071 -0.7071 0.7071 0.7071 -206.5902 323.8377)" width="4.25" height="4.25"/>
						
							<rect x="327.33" y="367.33" transform="matrix(0.7071 -0.7071 0.7071 0.7071 -164.7502 341.1683)" width="4.25" height="4.25"/>
						
							<rect x="333.21" y="355.43" transform="matrix(0.7071 -0.7071 0.7071 0.7071 -154.6113 341.8456)" width="4.25" height="4.25"/>
						
							<rect x="339.23" y="355.43" transform="matrix(0.7071 -0.7071 0.7071 0.7071 -152.8501 346.0976)" width="4.25" height="4.25"/>
						<polygon points="332.45,375.47 329.45,372.46 326.44,375.47 329.45,378.47 314.54,393.38 311.54,390.38 308.53,393.38 
							311.53,396.39 296.63,411.29 293.62,408.29 290.62,411.3 293.62,414.3 278.71,429.21 275.71,426.2 272.7,429.21 
							275.71,432.21 260.8,447.12 259.07,445.39 259.07,454.51 372.66,340.91 363.54,340.91 365.27,342.65 350.37,357.55 
							347.36,354.55 344.36,357.56 347.36,360.56 						"/>
						
							<rect x="273.59" y="421.07" transform="matrix(0.7071 -0.7071 0.7071 0.7071 -218.4904 318.9084)" width="4.25" height="4.25"/>
						
							<rect x="327.33" y="361.32" transform="matrix(0.7071 -0.7071 0.7071 0.7071 -160.4983 339.4071)" width="4.25" height="4.25"/>
						<polygon points="272.71,411.17 275.71,414.18 278.59,411.3 275.59,408.29 290.62,393.26 293.62,396.26 296.51,393.38 
							293.5,390.38 308.54,375.35 311.54,378.35 314.42,375.47 311.42,372.47 326.45,357.43 329.45,360.44 332.33,357.56 
							329.33,354.55 342.97,340.91 337.31,340.91 259.07,419.15 259.07,424.81 						"/>
						<polygon points="259.07,439.37 259.07,442.84 260.8,441.11 						"/>
						<polygon points="259.07,433.36 259.07,436.83 260.8,435.1 						"/>
						
							<rect x="273.59" y="415.06" transform="matrix(0.7071 -0.7071 0.7071 0.7071 -214.2384 317.1472)" width="4.25" height="4.25"/>
						
							<rect x="297.39" y="391.26" transform="matrix(0.7071 -0.7071 0.7071 0.7071 -190.438 327.0057)" width="4.25" height="4.25"/>
						
							<rect x="315.3" y="373.34" transform="matrix(0.7071 -0.7071 0.7071 0.7071 -172.5247 334.4256)" width="4.25" height="4.25"/>
						
							<rect x="309.41" y="379.23" transform="matrix(0.7071 -0.7071 0.7071 0.7071 -178.4116 331.9872)" width="4.25" height="4.25"/>
						<rect x="291.5" y="397.14" transform="matrix(0.7071 -0.7071 0.7071 0.7071 -196.325 324.5672)" width="4.25" height="4.25"/>
						
							<rect x="279.47" y="409.17" transform="matrix(0.7071 -0.7071 0.7071 0.7071 -208.3514 319.5857)" width="4.25" height="4.25"/>
					</g>
					<g>
						
							<rect x="303.4" y="286.34" transform="matrix(0.7071 -0.7071 0.7071 0.7071 -114.4872 300.5273)" width="4.25" height="4.25"/>
						<rect x="291.5" y="274.44" transform="matrix(0.7071 -0.7071 0.7071 0.7071 -109.558 288.6271)" width="4.25" height="4.25"/>
						
							<rect x="321.31" y="304.25" transform="matrix(0.7071 -0.7071 0.7071 0.7071 -121.9071 318.4406)" width="4.25" height="4.25"/>
						
							<rect x="309.41" y="292.35" transform="matrix(0.7071 -0.7071 0.7071 0.7071 -116.9779 306.5405)" width="4.25" height="4.25"/>
						
							<rect x="345.24" y="328.18" transform="matrix(0.7071 -0.7071 0.7071 0.7071 -131.8178 342.3672)" width="4.25" height="4.25"/>
						<polygon points="259.07,254.24 260.68,252.64 259.07,251.03 						"/>
						<polygon points="259.07,242.47 260.8,240.73 259.07,239 						"/>
						<polygon points="259.07,248.48 260.8,246.75 259.07,245.01 						"/>
						
							<rect x="261.56" y="250.51" transform="matrix(0.7071 -0.7071 0.7071 0.7071 -101.4085 260.4486)" width="4.25" height="4.25"/>
						
							<rect x="267.57" y="250.51" transform="matrix(0.7071 -0.7071 0.7071 0.7071 -99.6473 264.7005)" width="4.25" height="4.25"/>
						
							<rect x="345.24" y="334.19" transform="matrix(0.7071 -0.7071 0.7071 0.7071 -136.0698 344.1284)" width="4.25" height="4.25"/>
						<polygon points="348.97,340.93 347.36,339.32 345.76,340.93 						"/>
						
							<rect x="327.33" y="310.26" transform="matrix(0.7071 -0.7071 0.7071 0.7071 -124.3979 324.4538)" width="4.25" height="4.25"/>
						
							<rect x="285.49" y="268.42" transform="matrix(0.7071 -0.7071 0.7071 0.7071 -107.0672 282.6139)" width="4.25" height="4.25"/>
						<rect x="273.59" y="262.54" transform="matrix(0.7071 -0.7071 0.7071 0.7071 -106.39 272.4749)" width="4.25" height="4.25"/>
						
							<rect x="273.59" y="256.52" transform="matrix(0.7071 -0.7071 0.7071 0.7071 -102.138 270.7137)" width="4.25" height="4.25"/>
						<polygon points="293.62,267.55 290.62,270.55 293.62,273.56 296.63,270.55 311.53,285.46 308.53,288.46 311.54,291.47 
							314.54,288.47 329.45,303.37 326.44,306.38 329.45,309.38 332.45,306.38 347.36,321.29 344.36,324.29 347.36,327.3 
							350.37,324.29 365.27,339.2 363.54,340.93 372.66,340.93 259.07,227.34 259.07,236.46 260.8,234.73 275.71,249.63 
							272.7,252.64 275.71,255.64 278.71,252.64 						"/>
						
							<rect x="339.23" y="322.16" transform="matrix(0.7071 -0.7071 0.7071 0.7071 -129.3271 336.354)" width="4.25" height="4.25"/>
						
							<rect x="279.47" y="268.42" transform="matrix(0.7071 -0.7071 0.7071 0.7071 -108.8284 278.3619)" width="4.25" height="4.25"/>
						<polygon points="329.33,327.29 332.33,324.29 329.45,321.41 326.45,324.41 311.42,309.38 314.42,306.38 311.54,303.49 
							308.54,306.5 293.5,291.46 296.51,288.46 293.62,285.58 290.62,288.58 275.59,273.55 278.59,270.55 275.71,267.67 
							272.71,270.67 259.07,257.03 259.07,262.69 337.31,340.93 342.97,340.93 						"/>
						<polygon points="357.53,340.93 361,340.93 359.27,339.2 						"/>
						<polygon points="351.52,340.93 354.99,340.93 353.25,339.2 						"/>
						
							<rect x="333.21" y="322.16" transform="matrix(0.7071 -0.7071 0.7071 0.7071 -131.0883 332.1021)" width="4.25" height="4.25"/>
						
							<rect x="309.41" y="298.36" transform="matrix(0.7071 -0.7071 0.7071 0.7071 -121.2299 308.3017)" width="4.25" height="4.25"/>
						
							<rect x="291.5" y="280.45" transform="matrix(0.7071 -0.7071 0.7071 0.7071 -113.8099 290.3883)" width="4.25" height="4.25"/>
						
							<rect x="297.39" y="286.34" transform="matrix(0.7071 -0.7071 0.7071 0.7071 -116.2484 296.2753)" width="4.25" height="4.25"/>
						
							<rect x="315.3" y="304.25" transform="matrix(0.7071 -0.7071 0.7071 0.7071 -123.6683 314.1887)" width="4.25" height="4.25"/>
						
							<rect x="327.33" y="316.28" transform="matrix(0.7071 -0.7071 0.7071 0.7071 -128.6498 326.2151)" width="4.25" height="4.25"/>
					</g>
				</g>
			</g>
			<g>
				<g>
					<path d="M155.49,289.1c-7.15-7.15-18.79-7.15-25.95,0c-7.15,7.15-7.15,18.79,0,25.95c7.15,7.15,18.79,7.15,25.95,0
						C162.65,307.89,162.65,296.25,155.49,289.1z M131.34,313.25c-6.16-6.16-6.16-16.19,0-22.35s16.19-6.16,22.35,0
						c6.16,6.16,6.16,16.19,0,22.35C147.53,319.41,137.51,319.41,131.34,313.25z"/>
					<polygon points="259.08,215.35 133.5,340.92 139.16,340.92 259.08,221 					"/>
					<path d="M90.69,327.95c-3.58,3.58-5.36,8.27-5.36,12.97l2.54,0c0-4.05,1.54-8.1,4.62-11.18c6.16-6.16,16.19-6.16,22.35,0
						c3.08,3.08,4.62,7.13,4.62,11.18h2.54c0-4.7-1.79-9.4-5.36-12.97C109.49,320.8,97.85,320.8,90.69,327.95z"/>
					<path d="M194.35,250.24c-7.15-7.15-18.79-7.15-25.95,0c-7.15,7.15-7.15,18.79,0,25.95c7.15,7.15,18.79,7.15,25.95,0
						C201.5,269.04,201.5,257.4,194.35,250.24z M170.2,274.39c-6.16-6.16-6.16-16.19,0-22.35c6.16-6.16,16.19-6.16,22.35,0
						c6.16,6.16,6.16,16.19,0,22.35C186.39,280.56,176.36,280.56,170.2,274.39z"/>
					<path d="M247.9,196.69c-6.16-6.16-6.16-16.19,0-22.35c3.08-3.08,7.13-4.62,11.18-4.62v-2.54c-4.7,0-9.4,1.79-12.97,5.36
						c-7.15,7.15-7.15,18.79,0,25.95c3.58,3.58,8.27,5.36,12.97,5.36v-2.54C255.03,201.31,250.98,199.77,247.9,196.69z"/>
					<polygon points="73.83,340.92 259.08,155.68 259.08,150.02 68.17,340.92 					"/>
					<path d="M233.2,211.39c-7.15-7.15-18.79-7.15-25.95,0c-7.15,7.15-7.15,18.79,0,25.95c7.15,7.15,18.79,7.15,25.95,0
						C240.35,230.18,240.35,218.54,233.2,211.39z M209.05,235.54c-6.16-6.16-6.16-16.19,0-22.35c6.16-6.16,16.19-6.16,22.35,0
						c6.16,6.16,6.16,16.19,0,22.35C225.24,241.7,215.21,241.7,209.05,235.54z"/>
				</g>
				<g>
					<path d="M207.25,444.51c-7.15,7.15-7.15,18.79,0,25.95s18.79,7.15,25.95,0c7.15-7.15,7.15-18.79,0-25.95
						C226.05,437.35,214.41,437.35,207.25,444.51z M231.4,468.66c-6.16,6.16-16.19,6.16-22.35,0c-6.16-6.16-6.16-16.19,0-22.35
						c6.16-6.16,16.19-6.16,22.35,0C237.57,452.47,237.57,462.49,231.4,468.66z"/>
					<polygon points="133.5,340.92 259.08,466.5 259.08,460.84 139.16,340.92 					"/>
					<path d="M246.11,509.31c3.58,3.58,8.27,5.36,12.97,5.36l0-2.54c-4.05,0-8.1-1.54-11.18-4.62c-6.16-6.16-6.16-16.19,0-22.35
						c3.08-3.08,7.13-4.62,11.18-4.62v-2.54c-4.7,0-9.4,1.79-12.97,5.36C238.95,490.51,238.95,502.15,246.11,509.31z"/>
					<path d="M168.4,405.65c-7.15,7.15-7.15,18.79,0,25.95c7.15,7.15,18.79,7.15,25.95,0c7.15-7.15,7.15-18.79,0-25.95
						C187.19,398.5,175.55,398.5,168.4,405.65z M192.55,429.8c-6.16,6.16-16.19,6.16-22.35,0c-6.16-6.16-6.16-16.19,0-22.35
						c6.16-6.16,16.19-6.16,22.35,0C198.71,413.61,198.71,423.64,192.55,429.8z"/>
					<path d="M114.84,352.1c-6.16,6.16-16.19,6.16-22.35,0c-3.08-3.08-4.62-7.13-4.62-11.18h-2.54c0,4.7,1.79,9.4,5.36,12.97
						c7.15,7.15,18.79,7.15,25.95,0c3.58-3.58,5.36-8.27,5.36-12.97h-2.54C119.47,344.97,117.93,349.02,114.84,352.1z"/>
					<polygon points="259.08,526.17 73.83,340.92 68.17,340.92 259.08,531.83 					"/>
					<path d="M129.55,366.8c-7.15,7.15-7.15,18.79,0,25.95c7.15,7.15,18.79,7.15,25.95,0c7.15-7.15,7.15-18.79,0-25.95
						C148.34,359.65,136.7,359.65,129.55,366.8z M153.7,390.95c-6.16,6.16-16.19,6.16-22.35,0c-6.16-6.16-6.16-16.19,0-22.35
						c6.16-6.16,16.19-6.16,22.35,0C159.86,374.76,159.86,384.79,153.7,390.95z"/>
				</g>
				<g>
					<path d="M362.66,392.75c7.15,7.15,18.79,7.15,25.95,0c7.15-7.15,7.15-18.79,0-25.95c-7.15-7.15-18.79-7.15-25.95,0
						C355.51,373.95,355.51,385.59,362.66,392.75z M386.81,368.6c6.16,6.16,6.16,16.19,0,22.35c-6.16,6.16-16.19,6.16-22.35,0
						c-6.16-6.16-6.16-16.19,0-22.35C370.62,362.43,380.65,362.43,386.81,368.6z"/>
					<polygon points="259.08,466.5 384.65,340.92 379,340.92 259.08,460.84 					"/>
					<path d="M427.46,353.89c3.58-3.58,5.36-8.27,5.36-12.97l-2.54,0c0,4.05-1.54,8.1-4.62,11.18c-6.16,6.16-16.19,6.16-22.35,0
						c-3.08-3.08-4.62-7.13-4.62-11.18h-2.54c0,4.7,1.79,9.4,5.36,12.97C408.67,361.05,420.31,361.05,427.46,353.89z"/>
					<path d="M323.81,431.6c7.15,7.15,18.79,7.15,25.95,0c7.15-7.15,7.15-18.79,0-25.95c-7.15-7.15-18.79-7.15-25.95,0
						C316.66,412.81,316.66,424.45,323.81,431.6z M347.96,407.45c6.16,6.16,6.16,16.19,0,22.35c-6.16,6.16-16.19,6.16-22.35,0
						c-6.16-6.16-6.16-16.19,0-22.35C331.77,401.29,341.8,401.29,347.96,407.45z"/>
					<path d="M270.26,485.16c6.16,6.16,6.16,16.19,0,22.35c-3.08,3.08-7.13,4.62-11.18,4.62v2.54c4.7,0,9.4-1.79,12.97-5.36
						c7.15-7.15,7.15-18.79,0-25.95c-3.58-3.58-8.27-5.36-12.97-5.36v2.54C263.13,480.53,267.17,482.07,270.26,485.16z"/>
					<polygon points="444.32,340.92 259.08,526.17 259.08,531.83 449.98,340.92 					"/>
					<path d="M284.96,470.45c7.15,7.15,18.79,7.15,25.95,0s7.15-18.79,0-25.95c-7.15-7.15-18.79-7.15-25.95,0
						C277.8,451.66,277.8,463.3,284.96,470.45z M309.11,446.3c6.16,6.16,6.16,16.19,0,22.35c-6.16,6.16-16.19,6.16-22.35,0
						c-6.16-6.16-6.16-16.19,0-22.35C292.92,440.14,302.94,440.14,309.11,446.3z"/>
				</g>
				<g>
					<path d="M310.9,237.34c7.15-7.15,7.15-18.79,0-25.95c-7.15-7.15-18.79-7.15-25.95,0c-7.15,7.15-7.15,18.79,0,25.95
						C292.11,244.49,303.75,244.49,310.9,237.34z M286.75,213.19c6.16-6.16,16.19-6.16,22.35,0s6.16,16.19,0,22.35
						c-6.16,6.16-16.19,6.16-22.35,0C280.59,229.38,280.59,219.35,286.75,213.19z"/>
					<polygon points="384.65,340.92 259.08,215.35 259.08,221 379,340.92 					"/>
					<path d="M272.05,172.54c-3.58-3.58-8.27-5.36-12.97-5.36l0,2.54c4.05,0,8.1,1.54,11.18,4.62c6.16,6.16,6.16,16.19,0,22.35
						c-3.08,3.08-7.13,4.62-11.18,4.62v2.54c4.7,0,9.4-1.79,12.97-5.36C279.2,191.33,279.2,179.69,272.05,172.54z"/>
					<path d="M349.76,276.19c7.15-7.15,7.15-18.79,0-25.95c-7.15-7.15-18.79-7.15-25.95,0c-7.15,7.15-7.15,18.79,0,25.95
						C330.96,283.34,342.6,283.34,349.76,276.19z M325.61,252.04c6.16-6.16,16.19-6.16,22.35,0c6.16,6.16,6.16,16.19,0,22.35
						c-6.16,6.16-16.19,6.16-22.35,0C319.44,268.23,319.44,258.2,325.61,252.04z"/>
					<path d="M403.31,329.74c6.16-6.16,16.19-6.16,22.35,0c3.08,3.08,4.62,7.13,4.62,11.18h2.54c0-4.7-1.79-9.4-5.36-12.97
						c-7.15-7.15-18.79-7.15-25.95,0c-3.58,3.58-5.36,8.27-5.36,12.97h2.54C398.69,336.87,400.23,332.83,403.31,329.74z"/>
					<polygon points="259.08,155.68 444.32,340.92 449.98,340.92 259.08,150.02 					"/>
					<path d="M388.61,315.04c7.15-7.15,7.15-18.79,0-25.95s-18.79-7.15-25.95,0c-7.15,7.15-7.15,18.79,0,25.95
						C369.82,322.2,381.46,322.2,388.61,315.04z M364.46,290.89c6.16-6.16,16.19-6.16,22.35,0c6.16,6.16,6.16,16.19,0,22.35
						c-6.16,6.16-16.19,6.16-22.35,0C358.3,307.08,358.3,297.06,364.46,290.89z"/>
				</g>
			</g>
		</g>
		<g>
			<g>
				<rect x="219.25" y="168.8" transform="matrix(0.7071 -0.7071 0.7071 0.7071 -56.0259 206.6005)" width="4.25" height="4.25"/>
				<rect x="225.26" y="168.8" transform="matrix(0.7071 -0.7071 0.7071 0.7071 -54.2647 210.8525)" width="4.25" height="4.25"/>
				<polygon points="216.87,190.47 218.37,188.97 215.36,185.96 213.86,187.47 212.36,188.97 215.36,191.98 				"/>
				<rect x="213.24" y="180.83" transform="matrix(0.7071 -0.7071 0.7071 0.7071 -66.291 205.871)" width="4.25" height="4.25"/>
				<rect x="213.24" y="174.82" transform="matrix(0.7071 -0.7071 0.7071 0.7071 -62.0391 204.1098)" width="4.25" height="4.25"/>
				<rect x="231.28" y="156.78" transform="matrix(0.7071 -0.7071 0.7071 0.7071 -43.9995 211.582)" width="4.25" height="4.25"/>
				<rect x="231.28" y="162.79" transform="matrix(0.7071 -0.7071 0.7071 0.7071 -48.2515 213.3432)" width="4.25" height="4.25"/>
				<rect x="237.29" y="150.76" transform="matrix(0.7071 -0.7071 0.7071 0.7071 -37.9863 214.0728)" width="4.25" height="4.25"/>
				<polygon points="234.91,172.43 236.41,170.93 233.4,167.92 231.9,169.43 230.4,170.93 233.4,173.94 				"/>
				<rect x="207.22" y="186.84" transform="matrix(0.7071 -0.7071 0.7071 0.7071 -72.3042 203.3802)" width="4.25" height="4.25"/>
				<rect x="189.18" y="204.88" transform="matrix(0.7071 -0.7071 0.7071 0.7071 -90.3438 195.908)" width="4.25" height="4.25"/>
				<rect x="177.16" y="216.91" transform="matrix(0.7071 -0.7071 0.7071 0.7071 -102.3702 190.9265)" width="4.25" height="4.25"/>
				<polygon points="198.83,208.51 200.33,207.01 197.32,204 195.82,205.51 194.32,207.01 197.32,210.02 				"/>
				<rect x="201.21" y="186.84" transform="matrix(0.7071 -0.7071 0.7071 0.7071 -74.0655 199.1283)" width="4.25" height="4.25"/>
				<rect x="195.2" y="192.86" transform="matrix(0.7071 -0.7071 0.7071 0.7071 -80.0787 196.6375)" width="4.25" height="4.25"/>
				<rect x="195.2" y="198.87" transform="matrix(0.7071 -0.7071 0.7071 0.7071 -84.3306 198.3988)" width="4.25" height="4.25"/>
				<rect x="183.17" y="204.88" transform="matrix(0.7071 -0.7071 0.7071 0.7071 -92.105 191.6561)" width="4.25" height="4.25"/>
				<rect x="123.04" y="259" transform="matrix(0.7071 -0.7071 0.7071 0.7071 -147.985 164.9874)" width="4.25" height="4.25"/>
				<rect x="141.08" y="240.96" transform="matrix(0.7071 -0.7071 0.7071 0.7071 -129.9454 172.4596)" width="4.25" height="4.25"/>
				<rect x="105" y="277.04" transform="matrix(0.7071 -0.7071 0.7071 0.7071 -166.0246 157.5152)" width="4.25" height="4.25"/>
				<rect x="159.12" y="222.92" transform="matrix(0.7071 -0.7071 0.7071 0.7071 -111.9058 179.9319)" width="4.25" height="4.25"/>
				<rect x="243.3" y="150.76" transform="matrix(0.7071 -0.7071 0.7071 0.7071 -36.2251 218.3247)" width="4.25" height="4.25"/>
				<rect x="50.88" y="331.16" transform="matrix(0.7071 -0.7071 0.7071 0.7071 -220.1433 135.0984)" width="4.25" height="4.25"/>
				<rect x="177.16" y="204.88" transform="matrix(0.7071 -0.7071 0.7071 0.7071 -93.8663 187.4041)" width="4.25" height="4.25"/>
				<rect x="68.92" y="313.12" transform="matrix(0.7071 -0.7071 0.7071 0.7071 -202.1037 142.5707)" width="4.25" height="4.25"/>
				<rect x="86.96" y="295.08" transform="matrix(0.7071 -0.7071 0.7071 0.7071 -184.0641 150.0429)" width="4.25" height="4.25"/>
				<rect x="195.2" y="186.84" transform="matrix(0.7071 -0.7071 0.7071 0.7071 -75.8267 194.8763)" width="4.25" height="4.25"/>
				<rect x="249.32" y="144.75" transform="matrix(0.7071 -0.7071 0.7071 0.7071 -30.2119 220.8155)" width="4.25" height="4.25"/>
				<polygon points="259.08,136.23 259.08,133.47 257.46,131.84 254.45,134.85 257.46,137.86 				"/>
				<polygon points="252.95,154.39 254.45,152.89 251.44,149.88 249.94,151.39 248.44,152.89 251.44,155.9 				"/>
				<rect x="249.32" y="138.74" transform="matrix(0.7071 -0.7071 0.7071 0.7071 -25.9599 219.0543)" width="4.25" height="4.25"/>
				<rect x="213.24" y="168.8" transform="matrix(0.7071 -0.7071 0.7071 0.7071 -57.7871 202.3486)" width="4.25" height="4.25"/>
				<rect x="231.28" y="150.76" transform="matrix(0.7071 -0.7071 0.7071 0.7071 -39.7475 209.8208)" width="4.25" height="4.25"/>
				<rect x="249.32" y="132.72" transform="matrix(0.7071 -0.7071 0.7071 0.7071 -21.708 217.293)" width="4.25" height="4.25"/>
				<rect x="177.16" y="210.9" transform="matrix(0.7071 -0.7071 0.7071 0.7071 -98.1182 189.1653)" width="4.25" height="4.25"/>
				<rect x="98.99" y="295.08" transform="matrix(0.7071 -0.7071 0.7071 0.7071 -180.5417 158.5468)" width="4.25" height="4.25"/>
				<rect x="92.97" y="295.08" transform="matrix(0.7071 -0.7071 0.7071 0.7071 -182.3029 154.2949)" width="4.25" height="4.25"/>
				<rect x="86.96" y="301.09" transform="matrix(0.7071 -0.7071 0.7071 0.7071 -188.3161 151.8041)" width="4.25" height="4.25"/>
				<rect x="86.96" y="307.11" transform="matrix(0.7071 -0.7071 0.7071 0.7071 -192.5681 153.5653)" width="4.25" height="4.25"/>
				<rect x="111.01" y="277.04" transform="matrix(0.7071 -0.7071 0.7071 0.7071 -164.2633 161.7671)" width="4.25" height="4.25"/>
				<polygon points="90.59,316.75 92.09,315.25 89.09,312.24 87.58,313.74 86.08,315.25 89.09,318.25 				"/>
				<rect x="105" y="289.07" transform="matrix(0.7071 -0.7071 0.7071 0.7071 -174.5285 161.0376)" width="4.25" height="4.25"/>
				<polygon points="108.63,298.71 110.13,297.21 107.13,294.2 105.62,295.7 104.12,297.21 107.13,300.21 				"/>
				<rect x="105" y="283.05" transform="matrix(0.7071 -0.7071 0.7071 0.7071 -170.2765 159.2764)" width="4.25" height="4.25"/>
				<rect x="56.89" y="331.16" transform="matrix(0.7071 -0.7071 0.7071 0.7071 -218.382 139.3504)" width="4.25" height="4.25"/>
				<rect x="62.91" y="331.16" transform="matrix(0.7071 -0.7071 0.7071 0.7071 -216.6208 143.6024)" width="4.25" height="4.25"/>
				<polygon points="54.39,340.92 56.01,339.3 53.01,336.29 50,339.3 51.62,340.92 				"/>
				<polygon points="180.79,226.55 182.29,225.05 179.28,222.04 177.78,223.54 176.28,225.05 179.28,228.05 				"/>
				<rect x="68.92" y="325.15" transform="matrix(0.7071 -0.7071 0.7071 0.7071 -210.6076 146.0931)" width="4.25" height="4.25"/>
				<rect x="80.95" y="313.12" transform="matrix(0.7071 -0.7071 0.7071 0.7071 -198.5813 151.0746)" width="4.25" height="4.25"/>
				<rect x="74.93" y="313.12" transform="matrix(0.7071 -0.7071 0.7071 0.7071 -200.3425 146.8226)" width="4.25" height="4.25"/>
				<rect x="68.92" y="319.13" transform="matrix(0.7071 -0.7071 0.7071 0.7071 -206.3557 144.3319)" width="4.25" height="4.25"/>
				<polygon points="72.55,334.79 74.05,333.29 71.05,330.28 69.54,331.78 68.04,333.29 71.05,336.29 				"/>
				<rect x="117.03" y="277.04" transform="matrix(0.7071 -0.7071 0.7071 0.7071 -162.5021 166.0191)" width="4.25" height="4.25"/>
				<rect x="141.08" y="246.97" transform="matrix(0.7071 -0.7071 0.7071 0.7071 -134.1974 174.2208)" width="4.25" height="4.25"/>
				<rect x="147.09" y="240.96" transform="matrix(0.7071 -0.7071 0.7071 0.7071 -128.1842 176.7116)" width="4.25" height="4.25"/>
				<rect x="159.12" y="234.95" transform="matrix(0.7071 -0.7071 0.7071 0.7071 -120.4098 183.4543)" width="4.25" height="4.25"/>
				<rect x="153.1" y="240.96" transform="matrix(0.7071 -0.7071 0.7071 0.7071 -126.423 180.9635)" width="4.25" height="4.25"/>
				<rect x="171.14" y="222.92" transform="matrix(0.7071 -0.7071 0.7071 0.7071 -108.3834 188.4358)" width="4.25" height="4.25"/>
				<rect x="159.12" y="228.94" transform="matrix(0.7071 -0.7071 0.7071 0.7071 -116.1578 181.6931)" width="4.25" height="4.25"/>
				<rect x="165.13" y="222.92" transform="matrix(0.7071 -0.7071 0.7071 0.7071 -110.1446 184.1838)" width="4.25" height="4.25"/>
				<polygon points="162.75,244.59 164.25,243.09 161.24,240.08 159.74,241.58 158.24,243.09 161.24,246.09 				"/>
				<rect x="123.04" y="271.03" transform="matrix(0.7071 -0.7071 0.7071 0.7071 -156.4889 168.5098)" width="4.25" height="4.25"/>
				<rect x="123.04" y="265.01" transform="matrix(0.7071 -0.7071 0.7071 0.7071 -152.237 166.7486)" width="4.25" height="4.25"/>
				<polygon points="126.67,280.67 128.17,279.17 125.16,276.16 123.66,277.66 122.16,279.17 125.16,282.17 				"/>
				<rect x="129.05" y="259" transform="matrix(0.7071 -0.7071 0.7071 0.7071 -146.2238 169.2393)" width="4.25" height="4.25"/>
				<polygon points="144.71,262.63 146.21,261.13 143.2,258.12 141.7,259.62 140.2,261.13 143.2,264.13 				"/>
				<rect x="135.07" y="259" transform="matrix(0.7071 -0.7071 0.7071 0.7071 -144.4625 173.4913)" width="4.25" height="4.25"/>
				<rect x="141.08" y="252.99" transform="matrix(0.7071 -0.7071 0.7071 0.7071 -138.4493 175.9821)" width="4.25" height="4.25"/>
			</g>
			<g>
				<rect x="86.96" y="376.5" transform="matrix(0.7071 -0.7071 0.7071 0.7071 -241.635 173.8896)" width="4.25" height="4.25"/>
				<rect x="86.96" y="370.48" transform="matrix(0.7071 -0.7071 0.7071 0.7071 -237.3831 172.1283)" width="4.25" height="4.25"/>
				<polygon points="108.63,383.13 107.13,381.63 104.12,384.64 105.62,386.14 107.13,387.64 110.13,384.64 				"/>
				<rect x="98.99" y="382.51" transform="matrix(0.7071 -0.7071 0.7071 0.7071 -242.3645 184.1547)" width="4.25" height="4.25"/>
				<rect x="92.97" y="382.51" transform="matrix(0.7071 -0.7071 0.7071 0.7071 -244.1258 179.9027)" width="4.25" height="4.25"/>
				<rect x="74.93" y="364.47" transform="matrix(0.7071 -0.7071 0.7071 0.7071 -236.6535 161.8632)" width="4.25" height="4.25"/>
				<rect x="80.95" y="364.47" transform="matrix(0.7071 -0.7071 0.7071 0.7071 -234.8923 166.1151)" width="4.25" height="4.25"/>
				<rect x="68.92" y="358.46" transform="matrix(0.7071 -0.7071 0.7071 0.7071 -234.1628 155.85)" width="4.25" height="4.25"/>
				<polygon points="90.59,365.09 89.09,363.59 86.08,366.6 87.58,368.1 89.09,369.6 92.09,366.6 				"/>
				<rect x="105" y="388.52" transform="matrix(0.7071 -0.7071 0.7071 0.7071 -244.8553 190.1679)" width="4.25" height="4.25"/>
				<rect x="123.04" y="406.56" transform="matrix(0.7071 -0.7071 0.7071 0.7071 -252.3275 208.2075)" width="4.25" height="4.25"/>
				<rect x="135.07" y="418.59" transform="matrix(0.7071 -0.7071 0.7071 0.7071 -257.309 220.2339)" width="4.25" height="4.25"/>
				<polygon points="126.67,401.17 125.16,399.67 122.16,402.68 123.66,404.18 125.16,405.68 128.17,402.68 				"/>
				<rect x="105" y="394.54" transform="matrix(0.7071 -0.7071 0.7071 0.7071 -249.1073 191.9291)" width="4.25" height="4.25"/>
				<rect x="111.01" y="400.55" transform="matrix(0.7071 -0.7071 0.7071 0.7071 -251.598 197.9423)" width="4.25" height="4.25"/>
				<rect x="117.03" y="400.55" transform="matrix(0.7071 -0.7071 0.7071 0.7071 -249.8368 202.1943)" width="4.25" height="4.25"/>
				<rect x="123.04" y="412.58" transform="matrix(0.7071 -0.7071 0.7071 0.7071 -256.5795 209.9687)" width="4.25" height="4.25"/>
				<rect x="177.16" y="472.71" transform="matrix(0.7071 -0.7071 0.7071 0.7071 -283.2482 265.8486)" width="4.25" height="4.25"/>
				<rect x="159.12" y="454.67" transform="matrix(0.7071 -0.7071 0.7071 0.7071 -275.7759 247.8091)" width="4.25" height="4.25"/>
				<rect x="195.2" y="490.75" transform="matrix(0.7071 -0.7071 0.7071 0.7071 -290.7204 283.8882)" width="4.25" height="4.25"/>
				<rect x="141.08" y="436.63" transform="matrix(0.7071 -0.7071 0.7071 0.7071 -268.3037 229.7695)" width="4.25" height="4.25"/>
				<rect x="68.92" y="352.45" transform="matrix(0.7071 -0.7071 0.7071 0.7071 -229.9108 154.0887)" width="4.25" height="4.25"/>
				<rect x="249.32" y="544.87" transform="matrix(0.7071 -0.7071 0.7071 0.7071 -313.1371 338.0069)" width="4.25" height="4.25"/>
				<rect x="123.04" y="418.59" transform="matrix(0.7071 -0.7071 0.7071 0.7071 -260.8315 211.7299)" width="4.25" height="4.25"/>
				<rect x="231.28" y="526.83" transform="matrix(0.7071 -0.7071 0.7071 0.7071 -305.6649 319.9674)" width="4.25" height="4.25"/>
				<rect x="213.24" y="508.79" transform="matrix(0.7071 -0.7071 0.7071 0.7071 -298.1926 301.9278)" width="4.25" height="4.25"/>
				<rect x="105" y="400.55" transform="matrix(0.7071 -0.7071 0.7071 0.7071 -253.3592 193.6904)" width="4.25" height="4.25"/>
				<rect x="62.91" y="346.43" transform="matrix(0.7071 -0.7071 0.7071 0.7071 -227.4201 148.0756)" width="4.25" height="4.25"/>
				<polygon points="54.39,340.92 51.62,340.92 50,342.54 53.01,345.55 56.01,342.54 				"/>
				<polygon points="72.55,347.05 71.05,345.55 68.04,348.56 69.54,350.06 71.05,351.56 74.05,348.56 				"/>
				<rect x="56.89" y="346.43" transform="matrix(0.7071 -0.7071 0.7071 0.7071 -229.1813 143.8236)" width="4.25" height="4.25"/>
				<rect x="86.96" y="382.51" transform="matrix(0.7071 -0.7071 0.7071 0.7071 -245.887 175.6508)" width="4.25" height="4.25"/>
				<rect x="68.92" y="364.47" transform="matrix(0.7071 -0.7071 0.7071 0.7071 -238.4147 157.6112)" width="4.25" height="4.25"/>
				<rect x="50.88" y="346.43" transform="matrix(0.7071 -0.7071 0.7071 0.7071 -230.9425 139.5716)" width="4.25" height="4.25"/>
				<rect x="129.05" y="418.59" transform="matrix(0.7071 -0.7071 0.7071 0.7071 -259.0702 215.9819)" width="4.25" height="4.25"/>
				<rect x="213.24" y="496.76" transform="matrix(0.7071 -0.7071 0.7071 0.7071 -289.6887 298.4053)" width="4.25" height="4.25"/>
				<rect x="213.24" y="502.78" transform="matrix(0.7071 -0.7071 0.7071 0.7071 -293.9407 300.1666)" width="4.25" height="4.25"/>
				<rect x="219.25" y="508.79" transform="matrix(0.7071 -0.7071 0.7071 0.7071 -296.4314 306.1798)" width="4.25" height="4.25"/>
				<rect x="225.26" y="508.79" transform="matrix(0.7071 -0.7071 0.7071 0.7071 -294.6702 310.4317)" width="4.25" height="4.25"/>
				<rect x="195.2" y="484.74" transform="matrix(0.7071 -0.7071 0.7071 0.7071 -286.4684 282.127)" width="4.25" height="4.25"/>
				<polygon points="234.91,509.41 233.4,507.91 230.4,510.91 231.9,512.42 233.4,513.92 236.41,510.91 				"/>
				<rect x="207.22" y="490.75" transform="matrix(0.7071 -0.7071 0.7071 0.7071 -287.198 292.3922)" width="4.25" height="4.25"/>
				<polygon points="216.87,491.37 215.36,489.87 212.36,492.87 213.86,494.38 215.36,495.88 218.37,492.87 				"/>
				<rect x="201.21" y="490.75" transform="matrix(0.7071 -0.7071 0.7071 0.7071 -288.9592 288.1402)" width="4.25" height="4.25"/>
				<rect x="249.32" y="538.85" transform="matrix(0.7071 -0.7071 0.7071 0.7071 -308.8851 336.2457)" width="4.25" height="4.25"/>
				<rect x="249.32" y="532.84" transform="matrix(0.7071 -0.7071 0.7071 0.7071 -304.6332 334.4845)" width="4.25" height="4.25"/>
				<polygon points="259.08,545.61 257.46,543.99 254.45,546.99 257.46,550 259.08,548.38 				"/>
				<polygon points="144.71,419.21 143.2,417.71 140.2,420.72 141.7,422.22 143.2,423.72 146.21,420.72 				"/>
				<rect x="243.3" y="526.83" transform="matrix(0.7071 -0.7071 0.7071 0.7071 -302.1425 328.4713)" width="4.25" height="4.25"/>
				<rect x="231.28" y="514.8" transform="matrix(0.7071 -0.7071 0.7071 0.7071 -297.1609 316.4449)" width="4.25" height="4.25"/>
				<rect x="231.28" y="520.81" transform="matrix(0.7071 -0.7071 0.7071 0.7071 -301.4129 318.2061)" width="4.25" height="4.25"/>
				<rect x="237.29" y="526.83" transform="matrix(0.7071 -0.7071 0.7071 0.7071 -303.9037 324.2193)" width="4.25" height="4.25"/>
				<polygon points="252.95,527.45 251.44,525.95 248.44,528.95 249.94,530.46 251.44,531.96 254.45,528.95 				"/>
				<rect x="195.2" y="478.72" transform="matrix(0.7071 -0.7071 0.7071 0.7071 -282.2165 280.3658)" width="4.25" height="4.25"/>
				<rect x="165.13" y="454.67" transform="matrix(0.7071 -0.7071 0.7071 0.7071 -274.0147 252.061)" width="4.25" height="4.25"/>
				<rect x="159.12" y="448.66" transform="matrix(0.7071 -0.7071 0.7071 0.7071 -271.524 246.0479)" width="4.25" height="4.25"/>
				<rect x="153.1" y="436.63" transform="matrix(0.7071 -0.7071 0.7071 0.7071 -264.7812 238.2734)" width="4.25" height="4.25"/>
				<rect x="159.12" y="442.64" transform="matrix(0.7071 -0.7071 0.7071 0.7071 -267.272 244.2866)" width="4.25" height="4.25"/>
				<rect x="141.08" y="424.6" transform="matrix(0.7071 -0.7071 0.7071 0.7071 -259.7998 226.247)" width="4.25" height="4.25"/>
				<rect x="147.09" y="436.63" transform="matrix(0.7071 -0.7071 0.7071 0.7071 -266.5425 234.0215)" width="4.25" height="4.25"/>
				<rect x="141.08" y="430.62" transform="matrix(0.7071 -0.7071 0.7071 0.7071 -264.0517 228.0083)" width="4.25" height="4.25"/>
				<polygon points="162.75,437.25 161.24,435.75 158.24,438.76 159.74,440.26 161.24,441.76 164.25,438.76 				"/>
				<rect x="189.18" y="472.71" transform="matrix(0.7071 -0.7071 0.7071 0.7071 -279.7257 274.3526)" width="4.25" height="4.25"/>
				<rect x="183.17" y="472.71" transform="matrix(0.7071 -0.7071 0.7071 0.7071 -281.4869 270.1006)" width="4.25" height="4.25"/>
				<polygon points="198.83,473.33 197.32,471.83 194.32,474.84 195.82,476.34 197.32,477.84 200.33,474.84 				"/>
				<rect x="177.16" y="466.7" transform="matrix(0.7071 -0.7071 0.7071 0.7071 -278.9962 264.0874)" width="4.25" height="4.25"/>
				<polygon points="180.79,455.29 179.28,453.79 176.28,456.8 177.78,458.3 179.28,459.8 182.29,456.8 				"/>
				<rect x="177.16" y="460.68" transform="matrix(0.7071 -0.7071 0.7071 0.7071 -274.7442 262.3262)" width="4.25" height="4.25"/>
				<rect x="171.14" y="454.67" transform="matrix(0.7071 -0.7071 0.7071 0.7071 -272.2535 256.313)" width="4.25" height="4.25"/>
			</g>
			<g>
				<rect x="294.65" y="508.79" transform="matrix(0.7071 -0.7071 0.7071 0.7071 -274.346 359.4987)" width="4.25" height="4.25"/>
				<rect x="288.64" y="508.79" transform="matrix(0.7071 -0.7071 0.7071 0.7071 -276.1072 355.2467)" width="4.25" height="4.25"/>
				<polygon points="301.29,491.37 299.79,492.87 302.79,495.88 304.3,494.38 305.8,492.87 302.79,489.87 				"/>
				<rect x="300.67" y="496.76" transform="matrix(0.7071 -0.7071 0.7071 0.7071 -264.0808 360.2282)" width="4.25" height="4.25"/>
				<rect x="300.67" y="502.78" transform="matrix(0.7071 -0.7071 0.7071 0.7071 -268.3328 361.9894)" width="4.25" height="4.25"/>
				<rect x="282.63" y="520.81" transform="matrix(0.7071 -0.7071 0.7071 0.7071 -286.3724 354.5172)" width="4.25" height="4.25"/>
				<rect x="282.63" y="514.8" transform="matrix(0.7071 -0.7071 0.7071 0.7071 -282.1204 352.756)" width="4.25" height="4.25"/>
				<rect x="276.61" y="526.83" transform="matrix(0.7071 -0.7071 0.7071 0.7071 -292.3856 352.0264)" width="4.25" height="4.25"/>
				<polygon points="283.25,509.41 281.75,510.91 284.75,513.92 286.26,512.42 287.76,510.91 284.75,507.91 				"/>
				<rect x="306.68" y="490.75" transform="matrix(0.7071 -0.7071 0.7071 0.7071 -258.0677 362.719)" width="4.25" height="4.25"/>
				<rect x="324.72" y="472.71" transform="matrix(0.7071 -0.7071 0.7071 0.7071 -240.0281 370.1912)" width="4.25" height="4.25"/>
				<rect x="336.75" y="460.68" transform="matrix(0.7071 -0.7071 0.7071 0.7071 -228.0017 375.1727)" width="4.25" height="4.25"/>
				<polygon points="319.33,473.33 317.83,474.84 320.83,477.84 322.34,476.34 323.84,474.84 320.83,471.83 				"/>
				<rect x="312.69" y="490.75" transform="matrix(0.7071 -0.7071 0.7071 0.7071 -256.3064 366.9709)" width="4.25" height="4.25"/>
				<rect x="318.71" y="484.74" transform="matrix(0.7071 -0.7071 0.7071 0.7071 -250.2932 369.4617)" width="4.25" height="4.25"/>
				<rect x="318.71" y="478.72" transform="matrix(0.7071 -0.7071 0.7071 0.7071 -246.0413 367.7004)" width="4.25" height="4.25"/>
				<rect x="330.73" y="472.71" transform="matrix(0.7071 -0.7071 0.7071 0.7071 -238.2668 374.4431)" width="4.25" height="4.25"/>
				<rect x="390.87" y="418.59" transform="matrix(0.7071 -0.7071 0.7071 0.7071 -182.3869 401.1118)" width="4.25" height="4.25"/>
				<rect x="372.83" y="436.63" transform="matrix(0.7071 -0.7071 0.7071 0.7071 -200.4265 393.6396)" width="4.25" height="4.25"/>
				<rect x="408.9" y="400.55" transform="matrix(0.7071 -0.7071 0.7071 0.7071 -164.3473 408.584)" width="4.25" height="4.25"/>
				<rect x="354.79" y="454.67" transform="matrix(0.7071 -0.7071 0.7071 0.7071 -218.466 386.1674)" width="4.25" height="4.25"/>
				<rect x="270.6" y="526.83" transform="matrix(0.7071 -0.7071 0.7071 0.7071 -294.1468 347.7745)" width="4.25" height="4.25"/>
				<rect x="463.02" y="346.43" transform="matrix(0.7071 -0.7071 0.7071 0.7071 -110.2286 431.0008)" width="4.25" height="4.25"/>
				<rect x="336.75" y="472.71" transform="matrix(0.7071 -0.7071 0.7071 0.7071 -236.5056 378.6951)" width="4.25" height="4.25"/>
				<rect x="444.98" y="364.47" transform="matrix(0.7071 -0.7071 0.7071 0.7071 -128.2682 423.5285)" width="4.25" height="4.25"/>
				<rect x="426.94" y="382.51" transform="matrix(0.7071 -0.7071 0.7071 0.7071 -146.3078 416.0563)" width="4.25" height="4.25"/>
				<rect x="318.71" y="490.75" transform="matrix(0.7071 -0.7071 0.7071 0.7071 -254.5452 371.2229)" width="4.25" height="4.25"/>
				<rect x="264.59" y="532.84" transform="matrix(0.7071 -0.7071 0.7071 0.7071 -300.16 345.2838)" width="4.25" height="4.25"/>
				<polygon points="259.08,545.61 259.08,548.38 260.7,550 263.71,546.99 260.7,543.99 				"/>
				<polygon points="265.21,527.45 263.71,528.95 266.71,531.96 268.22,530.46 269.72,528.95 266.71,525.95 				"/>
				<rect x="264.59" y="538.85" transform="matrix(0.7071 -0.7071 0.7071 0.7071 -304.412 347.045)" width="4.25" height="4.25"/>
				<rect x="300.67" y="508.79" transform="matrix(0.7071 -0.7071 0.7071 0.7071 -272.5848 363.7506)" width="4.25" height="4.25"/>
				<rect x="282.63" y="526.83" transform="matrix(0.7071 -0.7071 0.7071 0.7071 -290.6244 356.2784)" width="4.25" height="4.25"/>
				<rect x="264.59" y="544.87" transform="matrix(0.7071 -0.7071 0.7071 0.7071 -308.6639 348.8062)" width="4.25" height="4.25"/>
				<rect x="336.75" y="466.7" transform="matrix(0.7071 -0.7071 0.7071 0.7071 -232.2537 376.9339)" width="4.25" height="4.25"/>
				<rect x="414.92" y="382.51" transform="matrix(0.7071 -0.7071 0.7071 0.7071 -149.8302 407.5524)" width="4.25" height="4.25"/>
				<rect x="420.93" y="382.51" transform="matrix(0.7071 -0.7071 0.7071 0.7071 -148.069 411.8043)" width="4.25" height="4.25"/>
				<rect x="426.94" y="376.5" transform="matrix(0.7071 -0.7071 0.7071 0.7071 -142.0558 414.2951)" width="4.25" height="4.25"/>
				<rect x="426.94" y="370.48" transform="matrix(0.7071 -0.7071 0.7071 0.7071 -137.8038 412.5339)" width="4.25" height="4.25"/>
				<rect x="402.89" y="400.55" transform="matrix(0.7071 -0.7071 0.7071 0.7071 -166.1086 404.3321)" width="4.25" height="4.25"/>
				<polygon points="427.57,365.09 426.06,366.6 429.07,369.6 430.57,368.1 432.08,366.6 429.07,363.59 				"/>
				<rect x="408.9" y="388.52" transform="matrix(0.7071 -0.7071 0.7071 0.7071 -155.8434 405.0616)" width="4.25" height="4.25"/>
				<polygon points="409.53,383.13 408.02,384.64 411.03,387.64 412.53,386.14 414.04,384.64 411.03,381.63 				"/>
				<rect x="408.9" y="394.54" transform="matrix(0.7071 -0.7071 0.7071 0.7071 -160.0954 406.8228)" width="4.25" height="4.25"/>
				<rect x="457.01" y="346.43" transform="matrix(0.7071 -0.7071 0.7071 0.7071 -111.9898 426.7488)" width="4.25" height="4.25"/>
				<rect x="451" y="346.43" transform="matrix(0.7071 -0.7071 0.7071 0.7071 -113.7511 422.4969)" width="4.25" height="4.25"/>
				<polygon points="463.77,340.92 462.14,342.54 465.15,345.55 468.16,342.54 466.53,340.92 				"/>
				<polygon points="337.37,455.29 335.87,456.8 338.87,459.8 340.38,458.3 341.88,456.8 338.87,453.79 				"/>
				<rect x="444.98" y="352.45" transform="matrix(0.7071 -0.7071 0.7071 0.7071 -119.7643 420.0061)" width="4.25" height="4.25"/>
				<rect x="432.96" y="364.47" transform="matrix(0.7071 -0.7071 0.7071 0.7071 -131.7906 415.0246)" width="4.25" height="4.25"/>
				<rect x="438.97" y="364.47" transform="matrix(0.7071 -0.7071 0.7071 0.7071 -130.0294 419.2766)" width="4.25" height="4.25"/>
				<rect x="444.98" y="358.46" transform="matrix(0.7071 -0.7071 0.7071 0.7071 -124.0162 421.7673)" width="4.25" height="4.25"/>
				<polygon points="445.61,347.05 444.1,348.56 447.11,351.56 448.61,350.06 450.12,348.56 447.11,345.55 				"/>
				<rect x="396.88" y="400.55" transform="matrix(0.7071 -0.7071 0.7071 0.7071 -167.8698 400.0801)" width="4.25" height="4.25"/>
				<rect x="372.83" y="430.62" transform="matrix(0.7071 -0.7071 0.7071 0.7071 -196.1745 391.8784)" width="4.25" height="4.25"/>
				<rect x="366.81" y="436.63" transform="matrix(0.7071 -0.7071 0.7071 0.7071 -202.1877 389.3876)" width="4.25" height="4.25"/>
				<rect x="354.79" y="442.64" transform="matrix(0.7071 -0.7071 0.7071 0.7071 -209.9621 382.6449)" width="4.25" height="4.25"/>
				<rect x="360.8" y="436.63" transform="matrix(0.7071 -0.7071 0.7071 0.7071 -203.9489 385.1357)" width="4.25" height="4.25"/>
				<rect x="342.76" y="454.67" transform="matrix(0.7071 -0.7071 0.7071 0.7071 -221.9885 377.6634)" width="4.25" height="4.25"/>
				<rect x="354.79" y="448.66" transform="matrix(0.7071 -0.7071 0.7071 0.7071 -214.2141 384.4061)" width="4.25" height="4.25"/>
				<rect x="348.77" y="454.67" transform="matrix(0.7071 -0.7071 0.7071 0.7071 -220.2273 381.9154)" width="4.25" height="4.25"/>
				<polygon points="355.41,437.25 353.91,438.76 356.91,441.76 358.42,440.26 359.92,438.76 356.91,435.75 				"/>
				<rect x="390.87" y="406.56" transform="matrix(0.7071 -0.7071 0.7071 0.7071 -173.883 397.5894)" width="4.25" height="4.25"/>
				<rect x="390.87" y="412.58" transform="matrix(0.7071 -0.7071 0.7071 0.7071 -178.1349 399.3506)" width="4.25" height="4.25"/>
				<polygon points="391.49,401.17 389.98,402.68 392.99,405.68 394.49,404.18 396,402.68 392.99,399.67 				"/>
				<rect x="384.85" y="418.59" transform="matrix(0.7071 -0.7071 0.7071 0.7071 -184.1481 396.8599)" width="4.25" height="4.25"/>
				<polygon points="373.45,419.21 371.95,420.72 374.95,423.72 376.46,422.22 377.96,420.72 374.95,417.71 				"/>
				<rect x="378.84" y="418.59" transform="matrix(0.7071 -0.7071 0.7071 0.7071 -185.9094 392.6079)" width="4.25" height="4.25"/>
				<rect x="372.83" y="424.6" transform="matrix(0.7071 -0.7071 0.7071 0.7071 -191.9225 390.1172)" width="4.25" height="4.25"/>
			</g>
			<g>
				<rect x="426.94" y="301.09" transform="matrix(0.7071 -0.7071 0.7071 0.7071 -88.7369 392.2097)" width="4.25" height="4.25"/>
				<rect x="426.94" y="307.11" transform="matrix(0.7071 -0.7071 0.7071 0.7071 -92.9888 393.9709)" width="4.25" height="4.25"/>
				<polygon points="409.53,298.71 411.03,300.21 414.04,297.21 412.53,295.7 411.03,294.2 408.02,297.21 				"/>
				<rect x="414.92" y="295.08" transform="matrix(0.7071 -0.7071 0.7071 0.7071 -88.0073 381.9445)" width="4.25" height="4.25"/>
				<rect x="420.93" y="295.08" transform="matrix(0.7071 -0.7071 0.7071 0.7071 -86.2461 386.1965)" width="4.25" height="4.25"/>
				<rect x="438.97" y="313.12" transform="matrix(0.7071 -0.7071 0.7071 0.7071 -93.7184 404.236)" width="4.25" height="4.25"/>
				<rect x="432.96" y="313.12" transform="matrix(0.7071 -0.7071 0.7071 0.7071 -95.4796 399.9841)" width="4.25" height="4.25"/>
				<rect x="444.98" y="319.13" transform="matrix(0.7071 -0.7071 0.7071 0.7071 -96.2091 410.2492)" width="4.25" height="4.25"/>
				<polygon points="427.57,316.75 429.07,318.25 432.08,315.25 430.57,313.74 429.07,312.24 426.06,315.25 				"/>
				<rect x="408.9" y="289.07" transform="matrix(0.7071 -0.7071 0.7071 0.7071 -85.5166 375.9313)" width="4.25" height="4.25"/>
				<rect x="390.87" y="271.03" transform="matrix(0.7071 -0.7071 0.7071 0.7071 -78.0443 357.8918)" width="4.25" height="4.25"/>
				<rect x="378.84" y="259" transform="matrix(0.7071 -0.7071 0.7071 0.7071 -73.0629 345.8654)" width="4.25" height="4.25"/>
				<polygon points="391.49,280.67 392.99,282.17 396,279.17 394.49,277.66 392.99,276.16 389.98,279.17 				"/>
				<rect x="408.9" y="283.05" transform="matrix(0.7071 -0.7071 0.7071 0.7071 -81.2646 374.1701)" width="4.25" height="4.25"/>
				<rect x="402.89" y="277.04" transform="matrix(0.7071 -0.7071 0.7071 0.7071 -78.7739 368.1569)" width="4.25" height="4.25"/>
				<rect x="396.88" y="277.04" transform="matrix(0.7071 -0.7071 0.7071 0.7071 -80.5351 363.9049)" width="4.25" height="4.25"/>
				<rect x="390.87" y="265.01" transform="matrix(0.7071 -0.7071 0.7071 0.7071 -73.7924 356.1305)" width="4.25" height="4.25"/>
				<rect x="336.75" y="204.88" transform="matrix(0.7071 -0.7071 0.7071 0.7071 -47.1237 300.2505)" width="4.25" height="4.25"/>
				<rect x="354.79" y="222.92" transform="matrix(0.7071 -0.7071 0.7071 0.7071 -54.596 318.2901)" width="4.25" height="4.25"/>
				<rect x="318.71" y="186.84" transform="matrix(0.7071 -0.7071 0.7071 0.7071 -39.6515 282.211)" width="4.25" height="4.25"/>
				<rect x="372.83" y="240.96" transform="matrix(0.7071 -0.7071 0.7071 0.7071 -62.0682 336.3297)" width="4.25" height="4.25"/>
				<rect x="444.98" y="325.15" transform="matrix(0.7071 -0.7071 0.7071 0.7071 -100.4611 412.0105)" width="4.25" height="4.25"/>
				<rect x="264.59" y="132.72" transform="matrix(0.7071 -0.7071 0.7071 0.7071 -17.2348 228.0923)" width="4.25" height="4.25"/>
				<rect x="390.87" y="259" transform="matrix(0.7071 -0.7071 0.7071 0.7071 -69.5404 354.3693)" width="4.25" height="4.25"/>
				<rect x="282.63" y="150.76" transform="matrix(0.7071 -0.7071 0.7071 0.7071 -24.707 246.1318)" width="4.25" height="4.25"/>
				<rect x="300.67" y="168.8" transform="matrix(0.7071 -0.7071 0.7071 0.7071 -32.1793 264.1714)" width="4.25" height="4.25"/>
				<rect x="408.9" y="277.04" transform="matrix(0.7071 -0.7071 0.7071 0.7071 -77.0127 372.4088)" width="4.25" height="4.25"/>
				<rect x="451" y="331.16" transform="matrix(0.7071 -0.7071 0.7071 0.7071 -102.9518 418.0237)" width="4.25" height="4.25"/>
				<polygon points="463.77,340.92 466.53,340.92 468.16,339.3 465.15,336.29 462.14,339.3 				"/>
				<polygon points="445.61,334.79 447.11,336.29 450.12,333.29 448.61,331.78 447.11,330.28 444.1,333.29 				"/>
				<rect x="457.01" y="331.16" transform="matrix(0.7071 -0.7071 0.7071 0.7071 -101.1906 422.2756)" width="4.25" height="4.25"/>
				<rect x="426.94" y="295.08" transform="matrix(0.7071 -0.7071 0.7071 0.7071 -84.4849 390.4484)" width="4.25" height="4.25"/>
				<rect x="444.98" y="313.12" transform="matrix(0.7071 -0.7071 0.7071 0.7071 -91.9571 408.488)" width="4.25" height="4.25"/>
				<rect x="463.02" y="331.16" transform="matrix(0.7071 -0.7071 0.7071 0.7071 -99.4294 426.5276)" width="4.25" height="4.25"/>
				<rect x="384.85" y="259" transform="matrix(0.7071 -0.7071 0.7071 0.7071 -71.3017 350.1173)" width="4.25" height="4.25"/>
				<rect x="300.67" y="180.83" transform="matrix(0.7071 -0.7071 0.7071 0.7071 -40.6832 267.6939)" width="4.25" height="4.25"/>
				<rect x="300.67" y="174.82" transform="matrix(0.7071 -0.7071 0.7071 0.7071 -36.4312 265.9326)" width="4.25" height="4.25"/>
				<rect x="294.65" y="168.8" transform="matrix(0.7071 -0.7071 0.7071 0.7071 -33.9405 259.9194)" width="4.25" height="4.25"/>
				<rect x="288.64" y="168.8" transform="matrix(0.7071 -0.7071 0.7071 0.7071 -35.7017 255.6675)" width="4.25" height="4.25"/>
				<rect x="318.71" y="192.86" transform="matrix(0.7071 -0.7071 0.7071 0.7071 -43.9034 283.9722)" width="4.25" height="4.25"/>
				<polygon points="283.25,172.43 284.75,173.94 287.76,170.93 286.26,169.43 284.75,167.92 281.75,170.93 				"/>
				<rect x="306.68" y="186.84" transform="matrix(0.7071 -0.7071 0.7071 0.7071 -43.1739 273.7071)" width="4.25" height="4.25"/>
				<polygon points="301.29,190.47 302.79,191.98 305.8,188.97 304.3,187.47 302.79,185.96 299.79,188.97 				"/>
				<rect x="312.69" y="186.84" transform="matrix(0.7071 -0.7071 0.7071 0.7071 -41.4127 277.959)" width="4.25" height="4.25"/>
				<rect x="264.59" y="138.74" transform="matrix(0.7071 -0.7071 0.7071 0.7071 -21.4867 229.8535)" width="4.25" height="4.25"/>
				<rect x="264.59" y="144.75" transform="matrix(0.7071 -0.7071 0.7071 0.7071 -25.7387 231.6147)" width="4.25" height="4.25"/>
				<polygon points="259.08,136.23 260.7,137.86 263.71,134.85 260.7,131.84 259.08,133.47 				"/>
				<polygon points="373.45,262.63 374.95,264.13 377.96,261.13 376.46,259.62 374.95,258.12 371.95,261.13 				"/>
				<rect x="270.6" y="150.76" transform="matrix(0.7071 -0.7071 0.7071 0.7071 -28.2294 237.6279)" width="4.25" height="4.25"/>
				<rect x="282.63" y="162.79" transform="matrix(0.7071 -0.7071 0.7071 0.7071 -33.2109 249.6543)" width="4.25" height="4.25"/>
				<rect x="282.63" y="156.78" transform="matrix(0.7071 -0.7071 0.7071 0.7071 -28.959 247.8931)" width="4.25" height="4.25"/>
				<rect x="276.61" y="150.76" transform="matrix(0.7071 -0.7071 0.7071 0.7071 -26.4682 241.8799)" width="4.25" height="4.25"/>
				<polygon points="265.21,154.39 266.71,155.9 269.72,152.89 268.22,151.39 266.71,149.88 263.71,152.89 				"/>
				<rect x="318.71" y="198.87" transform="matrix(0.7071 -0.7071 0.7071 0.7071 -48.1554 285.7334)" width="4.25" height="4.25"/>
				<rect x="348.77" y="222.92" transform="matrix(0.7071 -0.7071 0.7071 0.7071 -56.3572 314.0382)" width="4.25" height="4.25"/>
				<rect x="354.79" y="228.94" transform="matrix(0.7071 -0.7071 0.7071 0.7071 -58.8479 320.0514)" width="4.25" height="4.25"/>
				<rect x="360.8" y="240.96" transform="matrix(0.7071 -0.7071 0.7071 0.7071 -65.5906 327.8258)" width="4.25" height="4.25"/>
				<rect x="354.79" y="234.95" transform="matrix(0.7071 -0.7071 0.7071 0.7071 -63.0999 321.8126)" width="4.25" height="4.25"/>
				<rect x="372.83" y="252.99" transform="matrix(0.7071 -0.7071 0.7071 0.7071 -70.5721 339.8522)" width="4.25" height="4.25"/>
				<rect x="366.81" y="240.96" transform="matrix(0.7071 -0.7071 0.7071 0.7071 -63.8294 332.0777)" width="4.25" height="4.25"/>
				<rect x="372.83" y="246.98" transform="matrix(0.7071 -0.7071 0.7071 0.7071 -66.3202 338.0909)" width="4.25" height="4.25"/>
				<polygon points="355.41,244.59 356.91,246.09 359.92,243.09 358.42,241.58 356.91,240.08 353.91,243.09 				"/>
				<rect x="324.72" y="204.88" transform="matrix(0.7071 -0.7071 0.7071 0.7071 -50.6462 291.7466)" width="4.25" height="4.25"/>
				<rect x="330.73" y="204.88" transform="matrix(0.7071 -0.7071 0.7071 0.7071 -48.8849 295.9986)" width="4.25" height="4.25"/>
				<polygon points="319.33,208.51 320.83,210.02 323.84,207.01 322.34,205.51 320.83,204 317.83,207.01 				"/>
				<rect x="336.75" y="210.9" transform="matrix(0.7071 -0.7071 0.7071 0.7071 -51.3757 302.0118)" width="4.25" height="4.25"/>
				<polygon points="337.37,226.55 338.87,228.05 341.88,225.05 340.38,223.54 338.87,222.04 335.87,225.05 				"/>
				<rect x="336.75" y="216.91" transform="matrix(0.7071 -0.7071 0.7071 0.7071 -55.6276 303.773)" width="4.25" height="4.25"/>
				<rect x="342.76" y="222.92" transform="matrix(0.7071 -0.7071 0.7071 0.7071 -58.1184 309.7862)" width="4.25" height="4.25"/>
			</g>
		</g>
	</g>
</g>
<g>
</g>
<g>
</g>
<g>
</g>
<g>
</g>
<g>
</g>
<g>
</g>
<g>
</g>
<g>
</g>
<g>
</g>
<g>
</g>
<g>
</g>
<g>
</g>
<g>
</g>
<g>
</g>
<g>
</g>
</svg>
