<?xml version="1.0" encoding="utf-8"?>
<!-- Generator: Adobe Illustrator 27.2.0, SVG Export Plug-In . SVG Version: 6.00 Build 0)  -->
<svg version="1.1" id="Layer_1" xmlns="http://www.w3.org/2000/svg" xmlns:xlink="http://www.w3.org/1999/xlink" x="0px" y="0px"
	 viewBox="0 0 800 600" style="enable-background:new 0 0 800 600;" xml:space="preserve">
<g>
	<path d="M50,445.81v8.49l5.33-8.49H50z M51.03,441.74l10.69-10.69l-10.99-10.98l8.09-12.88H50v2h5.21l-5.21,8.3v4.68l8.9,8.89
		l-8.9,8.89v3.8h9.39L50,458.7v3.76l13.01-20.72H51.03z M169.58,392.22l13.01-20.72h-11.98l10.69-10.69l-10.99-10.99l8.09-12.88
		h-17.65l8.09,12.88l-10.99,10.99l10.69,10.69h-11.98L169.58,392.22z M164.37,338.94h10.42l-5.21,8.3L164.37,338.94z M160.68,360.81
		l8.9-8.9l8.9,8.9l-8.9,8.9L160.68,360.81z M178.97,373.5l-9.39,14.96l-9.39-14.96H178.97z M84.44,410.34l-6.68-6.68l-1.41,1.41
		l6.68,6.68L84.44,410.34z M53.22,431.05c0-1.78-1.44-3.22-3.22-3.22v6.44C51.78,434.27,53.22,432.83,53.22,431.05z M50.85,497.05
		l21.5-34.25H50v2h18.73L50,494.63v5.39c12.95,0,23.49,10.54,23.49,23.49S62.95,547,50,547v3c14.61,0,26.49-11.88,26.49-26.49
		C76.49,509.19,65.06,497.5,50.85,497.05z M69.98,523.51c0-11.02-8.96-19.98-19.98-19.98v3c9.36,0,16.98,7.62,16.98,16.98
		c0,9.36-7.62,16.98-16.98,16.98v3C61.02,543.49,69.98,534.53,69.98,523.51z M59.62,523.51c0-5.31-4.31-9.62-9.62-9.62v19.24
		C55.31,533.13,59.62,528.82,59.62,523.51z M50,467.78v19.63l12.33-19.63H50z M76.38,418.4l-3.6-3.6l-1.41,1.41l3.6,3.6L76.38,418.4
		z M169.58,384.06l5.33-8.49h-10.66L169.58,384.06z M230.4,453.76l-3.07,4.13c-1.07,1.33-2.1,2.7-3.2,4.01
		c3.28,0.49,6.56,0.85,9.93,1.15C232.91,459.9,231.67,456.79,230.4,453.76z M157.25,397.55l12.33,19.63l12.33-19.63H157.25z
		 M262.81,405.07l-1.41-1.41l-6.68,6.68l1.41,1.41L262.81,405.07z M169.58,473.25c11.02,0,19.98-8.96,19.98-19.98
		s-8.96-19.98-19.98-19.98c-11.02,0-19.98,8.96-19.98,19.98S158.56,473.25,169.58,473.25z M169.58,436.3
		c9.36,0,16.98,7.62,16.98,16.98s-7.62,16.98-16.98,16.98c-9.36,0-16.98-7.62-16.98-16.98S160.22,436.3,169.58,436.3z
		 M169.58,462.89c5.31,0,9.62-4.31,9.62-9.62c0-5.31-4.31-9.62-9.62-9.62s-9.62,4.31-9.62,9.62
		C159.96,458.59,164.26,462.89,169.58,462.89z M143.09,453.27c0,14.61,11.88,26.49,26.49,26.49s26.49-11.88,26.49-26.49
		c0-14.32-11.43-26.02-25.64-26.47l21.5-34.25h-44.7l21.5,34.25C154.52,427.26,143.09,438.95,143.09,453.27z M150.84,394.56h37.47
		l-18.73,29.84L150.84,394.56z M169.58,429.79c12.95,0,23.49,10.54,23.49,23.49s-10.54,23.49-23.49,23.49s-23.49-10.54-23.49-23.49
		S156.63,429.79,169.58,429.79z M264.19,419.81l3.6-3.6l-1.41-1.41l-3.6,3.6L264.19,419.81z M172.8,360.81
		c0-1.78-1.44-3.22-3.22-3.22c-1.78,0-3.22,1.44-3.22,3.22c0,1.78,1.44,3.22,3.22,3.22C171.36,364.03,172.8,362.59,172.8,360.81z
		 M269.18,523.51c0,11.02,8.96,19.98,19.98,19.98v-3c-9.36,0-16.98-7.62-16.98-16.98c0-9.36,7.62-16.98,16.98-16.98v-3
		C278.14,503.53,269.18,512.5,269.18,523.51z M248.07,403.69l3.6-3.6l-1.41-1.41l-3.6,3.6L248.07,403.69z M279.53,523.51
		c0,5.31,4.31,9.62,9.62,9.62v-19.24C283.84,513.89,279.53,518.2,279.53,523.51z M88.9,398.67l-1.41,1.41l3.6,3.6l1.41-1.41
		L88.9,398.67z M246.32,387.27h-7.27l3.64,5.79L246.32,387.27z M100.11,387.27h-7.27l3.64,5.79L100.11,387.27z M256.17,435.98
		l6.65-6.65l3.54,3.54l1.41-1.41l-3.54-3.54l3.68-3.68l3.14,2.07v-4.81l-3.14,2.07l-24.76-24.76l8.98-14.29h-18.9l8.98,14.29
		l-3.54,3.54l-3.39-3.39l-1.41,1.41l3.39,3.39l-6.65,6.65l-6.47-6.47l-1.41,1.41l6.47,6.47l-6.65,6.65l-3.39-3.39l-1.41,1.41
		l3.39,3.39l-3.68,3.68l-3.14-2.07v4.81l3.14-2.07l3.68,3.68l-3.49,3.49l1.41,1.41l3.49-3.49l6.65,6.65l-6.57,6.57l1.41,1.41
		l6.57-6.57l6.65,6.65l-3.49,3.49l1.41,1.41l3.49-3.49l2.65,2.65l-0.2,0.64c-9.84,31.42-38.58,52.53-71.54,52.53
		c-27.56,0-52.17-14.78-65.25-37.99c3.27-0.13,6.45-0.54,9.57-1.07c-1.08-1.27-2.12-2.57-3.07-3.88c-0.48-0.65-0.91-1.3-1.3-1.92
		c-0.18-0.3-0.36-0.6-0.47-0.83c-0.07-0.13-0.07-0.16-0.11-0.22c0.03,0.06,0.05,0.12,0.06,0.19c0.01,0.04-0.01-0.03,0.03,0.12
		c0.03,0.11,0.04,0.23,0.05,0.35c0.02,0.23,0.01,0.47-0.02,0.7c-0.05-0.24-0.13-0.47-0.24-0.68c-0.11-0.21-0.26-0.44-0.33-0.37
		c-0.18,0-0.35,0.02-0.53,0.07c-0.28,0.22-0.57,0.47-0.8,0.79c-0.47,0.63-0.87,1.36-1.25,2.1c-0.67,1.36-1.26,2.81-1.8,4.26
		c-2.46-4.43-4.5-9.16-6.07-14.15l-0.2-0.64l2.65-2.65l3.49,3.49l1.41-1.41l-3.49-3.49l6.65-6.65l6.57,6.57l1.41-1.41l-6.57-6.57
		l6.65-6.65l3.49,3.49l1.41-1.41l-3.49-3.49l3.68-3.68l3.14,2.07v-4.81l-3.14,2.07l-3.68-3.68l3.39-3.39l-1.41-1.41l-3.39,3.39
		l-6.65-6.65l6.47-6.47l-1.41-1.41l-6.47,6.47l-6.65-6.65l3.39-3.39l-1.41-1.41l-3.39,3.39l-3.54-3.54l8.98-14.29h-18.9l8.98,14.29
		l-24.76,24.76l-3.14-2.07v4.81l3.14-2.07l3.68,3.68l-3.54,3.54l1.41,1.41l3.54-3.54l6.65,6.65l-6.61,6.62l1.41,1.41l6.61-6.62
		l6.65,6.65l-3.54,3.54l1.41,1.41l3.54-3.54l2.86,2.86l-0.13,0.43c-2.36,7.52-3.55,15.37-3.55,23.31
		c0,42.98,34.97,77.95,77.95,77.95c42.98,0,77.95-34.97,77.95-77.95c0-7.94-1.19-15.79-3.55-23.31l-0.13-0.43l2.86-2.86l3.54,3.54
		l1.41-1.41l-3.54-3.54l6.65-6.65l6.62,6.62l1.41-1.41L256.17,435.98z M90.64,386.51h11.67l-5.83,9.29L90.64,386.51z M75.14,423.9
		l21.33-21.33l21.33,21.33l-20.97,20.97l-0.22-0.7l-0.29,0.91L75.14,423.9z M100.3,500.63c-3.65-8.81-5.67-18.46-5.67-28.57
		c0-6.04,0.72-12.02,2.14-17.84c1.04,2.73,2.22,5.37,3.54,7.92V500.63z M116.77,525.18c-3.26-3.24-6.22-6.79-8.84-10.58v-40.48
		c2.68,3.47,5.64,6.7,8.84,9.64V525.18z M133.23,537.57c-3.09-1.72-6.04-3.65-8.84-5.77v-41.86c2.82,2,5.77,3.81,8.84,5.43V537.57z
		 M149.69,544.3c-3.03-0.83-5.98-1.84-8.84-3.03v-42.42c2.87,1.13,5.82,2.09,8.84,2.87V544.3z M166.16,546.91
		c-3-0.14-5.94-0.45-8.84-0.93v-42.66c2.9,0.45,5.85,0.75,8.84,0.88V546.91z M182.62,545.84c-2.9,0.51-5.84,0.87-8.84,1.04v-42.73
		c2.99-0.16,5.94-0.48,8.84-0.97V545.84z M199.09,540.94c-2.86,1.23-5.81,2.27-8.84,3.14v-42.55c3.02-0.82,5.97-1.83,8.84-2.99
		V540.94z M215.55,531.18c-2.8,2.18-5.75,4.16-8.84,5.93v-42.17c3.07-1.66,6.02-3.53,8.84-5.58V531.18z M236.85,386.51h11.67
		l-5.83,9.29L236.85,386.51z M232.01,513.45c-2.6,3.91-5.57,7.57-8.84,10.92v-41.33c3.21-3.04,6.17-6.37,8.84-9.95V513.45z
		 M244.53,472.05c0,9.36-1.74,18.32-4.89,26.59v-38.09c1-2.06,1.92-4.16,2.75-6.33C243.81,460.03,244.53,466.01,244.53,472.05z
		 M242.83,445.08l-0.29-0.91l-0.22,0.7l-20.97-20.97l21.33-21.33l21.33,21.33L242.83,445.08z M289.15,407.18h-8.83l8.09,12.88
		l-10.99,10.98l10.69,10.69h-11.98l13.01,20.72v-3.76l-9.39-14.96h9.39v-3.8l-8.9-8.89l8.9-8.89v-4.68l-5.21-8.3h5.21V407.18z
		 M285.93,431.05c0,1.78,1.44,3.22,3.22,3.22v-6.44C287.37,427.83,285.93,429.27,285.93,431.05z M289.15,454.29v-8.49h-5.33
		L289.15,454.29z M288.31,497.05c-14.21,0.45-25.64,12.14-25.64,26.47c0,14.61,11.88,26.49,26.49,26.49v-3
		c-12.95,0-23.49-10.54-23.49-23.49s10.54-23.49,23.49-23.49v-5.39l-18.73-29.84h18.73v-2H266.8L288.31,497.05z M289.15,487.42
		v-19.63h-12.33L289.15,487.42z M128.54,476.12c-2.67-2.07-5.24-4.27-7.69-6.6c-0.73,3.22-1.31,6.49-1.77,9.84
		C122.32,478.4,125.47,477.33,128.54,476.12z M192.58,492.17c0.27-1.66,0.48-3.3,0.65-4.92c-2.98,1.39-6.09,2.48-9.24,3.32
		c2.3,2.34,4.83,4.49,7.56,6.53C191.95,495.44,192.29,493.8,192.58,492.17z M174.37,492.19c-3.24,0.24-6.51,0.17-9.76-0.2
		c1.31,3,2.87,5.95,4.7,8.81C171.26,498.02,172.95,495.14,174.37,492.19z M201.9,482.45c-2.8,1.8-5.69,3.42-8.68,4.8
		c2.66,1.86,5.54,3.63,8.53,5.17C202.03,489.08,202.03,485.69,201.9,482.45z M180.62,499.98c0.35-0.78,0.68-1.55,1-2.32
		c0.31-0.79,0.61-1.58,0.89-2.36c0.56-1.57,1.06-3.12,1.48-4.72c-3.15,0.83-6.37,1.38-9.62,1.61c0.92,1.38,1.89,2.68,2.93,3.98
		C178.35,497.49,179.45,498.75,180.62,499.98z M217.33,469.52c-2.34,2.46-4.84,4.74-7.39,6.93c3.09,1.06,6.31,2.03,9.58,2.83
		C218.9,475.95,218.2,472.72,217.33,469.52z M120.86,469.52c-2.45-2.32-4.79-4.77-6.96-7.32c-1.07,3.1-1.99,6.32-2.77,9.6
		C114.44,471.17,117.68,470.41,120.86,469.52z M209.94,476.44c-2.58,2.16-5.26,4.16-8.04,6.01c2.92,1.42,6.02,2.78,9.17,3.91
		C210.88,483.02,210.46,479.67,209.94,476.44z M224.13,461.9c-2.19,2.62-4.42,5.2-6.8,7.61c3.23,0.77,6.48,1.39,9.81,1.92
		C226.27,468.22,225.2,465,224.13,461.9z M136.83,481.89c-2.86-1.76-5.62-3.7-8.29-5.76c-0.41,3.28-0.66,6.59-0.77,9.97
		C130.89,484.82,133.92,483.41,136.83,481.89z M151.28,493.36c1.28-1.05,2.51-2.16,3.7-3.3c-3.17-0.91-6.28-2.08-9.31-3.46
		c0.34,3.27,0.88,6.57,1.64,9.86C148.67,495.47,150,494.44,151.28,493.36z M164.61,492c-3.25-0.36-6.47-1.02-9.64-1.93
		c0.8,3.18,1.83,6.35,3.11,9.49C160.49,497.16,162.67,494.63,164.61,492z M137.18,491.87c2.97-1.63,5.8-3.37,8.49-5.26
		c-3.03-1.38-5.98-2.96-8.84-4.72C136.78,485.17,136.88,488.51,137.18,491.87z"/>
</g>
<g>
</g>
<g>
</g>
<g>
</g>
<g>
</g>
<g>
</g>
<g>
</g>
<g>
</g>
<g>
</g>
<g>
</g>
<g>
</g>
<g>
</g>
<g>
</g>
<g>
</g>
<g>
</g>
<g>
</g>
</svg>
