<?xml version="1.0" encoding="utf-8"?>
<!-- Generator: Adobe Illustrator 27.2.0, SVG Export Plug-In . SVG Version: 6.00 Build 0)  -->
<svg version="1.1" id="Layer_1" xmlns="http://www.w3.org/2000/svg" xmlns:xlink="http://www.w3.org/1999/xlink" x="0px" y="0px"
	 viewBox="0 0 800 600" style="enable-background:new 0 0 800 600;" xml:space="preserve">
<g>
	<g>
		<g>
			
				<rect x="228.24" y="362.25" transform="matrix(0.7071 -0.7071 0.7071 0.7071 -196.0234 283.7236)" style="fill:none;stroke:#000000;stroke-width:3;stroke-miterlimit:10;" width="32.46" height="32.46"/>
			
				<rect x="205.28" y="385.21" transform="matrix(0.7071 -0.7071 0.7071 0.7071 -218.9793 274.2149)" style="fill:none;stroke:#000000;stroke-width:3;stroke-miterlimit:10;" width="32.46" height="32.46"/>
			
				<rect x="205.28" y="339.29" transform="matrix(0.7071 -0.7071 0.7071 0.7071 -186.5147 260.7677)" style="fill:none;stroke:#000000;stroke-width:3;stroke-miterlimit:10;" width="32.46" height="32.46"/>
			
				<rect x="182.33" y="362.25" transform="matrix(0.7071 -0.7071 0.7071 0.7071 -209.4706 251.259)" style="fill:none;stroke:#000000;stroke-width:3;stroke-miterlimit:10;" width="32.46" height="32.46"/>
			
				<rect x="236.6" y="370.61" transform="matrix(-0.7071 0.7071 -0.7071 -0.7071 684.9693 473.2423)" width="15.75" height="15.75"/>
			<rect x="190.69" y="370.61" transform="matrix(0.7071 -0.7071 0.7071 0.7071 -209.4706 251.259)" width="15.75" height="15.75"/>
			<g>
				<circle style="fill:none;stroke:#000000;stroke-width:3;stroke-miterlimit:10;" cx="221.52" cy="401.44" r="8.38"/>
				<circle cx="221.52" cy="401.44" r="2.23"/>
			</g>
			<g>
				<circle style="fill:none;stroke:#000000;stroke-width:3;stroke-miterlimit:10;" cx="221.52" cy="355.53" r="8.38"/>
				<circle cx="221.52" cy="355.53" r="2.23"/>
			</g>
		</g>
		
			<rect x="178.76" y="335.73" transform="matrix(-0.7071 0.7071 -0.7071 -0.7071 645.7811 489.4746)" style="fill:none;stroke:#000000;stroke-width:3;stroke-miterlimit:10;" width="85.51" height="85.51"/>
		<g>
			<g>
				<g>
					<path d="M158.77,387.8l-5.94-5.94l-16.28,16.28l5.94,5.94L158.77,387.8z M152.87,383.68l4.07,4.07l-14.5,14.5l-4.07-4.07
						L152.87,383.68z"/>
				</g>
				<polygon points="155.8,384.83 152.83,381.86 159.18,381.45 158.77,387.8 				"/>
			</g>
			<g>
				<g>
					<path d="M164.71,393.73l-5.94-5.94l-16.28,16.28l5.94,5.94L164.71,393.73z M158.81,389.62l4.07,4.07l-14.5,14.5l-4.07-4.07
						L158.81,389.62z"/>
				</g>
				<polygon points="161.74,390.76 158.77,387.8 165.11,387.39 164.71,393.73 				"/>
			</g>
			<g>
				<g>
					<path d="M170.64,399.67l-5.94-5.94l-16.28,16.28l5.94,5.94L170.64,399.67z M164.75,395.56l4.07,4.07l-14.5,14.5l-4.07-4.07
						L164.75,395.56z"/>
				</g>
				<polygon points="167.68,396.7 164.71,393.73 171.05,393.33 170.64,399.67 				"/>
			</g>
			<g>
				<g>
					<path d="M176.58,405.61l-5.94-5.94l-16.28,16.28l5.94,5.94L176.58,405.61z M170.68,401.49l4.07,4.07l-14.5,14.5l-4.07-4.07
						L170.68,401.49z"/>
				</g>
				<polygon points="173.61,402.64 170.64,399.67 176.99,399.26 176.58,405.61 				"/>
			</g>
			<g>
				<g>
					<path d="M182.52,411.54l-5.94-5.94l-16.28,16.28l5.94,5.94L182.52,411.54z M176.62,407.43l4.07,4.07L166.2,426l-4.07-4.07
						L176.62,407.43z"/>
				</g>
				<polygon points="179.55,408.58 176.58,405.61 182.93,405.2 182.52,411.54 				"/>
			</g>
			<g>
				<g>
					<path d="M188.46,417.48l-5.94-5.94l-16.28,16.28l5.94,5.94L188.46,417.48z M182.56,413.37l4.07,4.07l-14.5,14.5l-4.07-4.07
						L182.56,413.37z"/>
				</g>
				<polygon points="185.49,414.51 182.52,411.54 188.86,411.14 188.46,417.48 				"/>
			</g>
			<g>
				<g>
					<path d="M194.39,423.42l-5.94-5.94l-16.28,16.28l5.94,5.94L194.39,423.42z M188.49,419.3l4.07,4.07l-14.5,14.5L174,433.8
						L188.49,419.3z"/>
				</g>
				<polygon points="191.42,420.45 188.46,417.48 194.8,417.07 194.39,423.42 				"/>
			</g>
			<g>
				<g>
					<path d="M200.33,429.36l-5.94-5.94l-16.28,16.28l5.94,5.94L200.33,429.36z M194.43,425.24l4.07,4.07l-14.5,14.5l-4.07-4.07
						L194.43,425.24z"/>
				</g>
				<polygon points="197.36,426.39 194.39,423.42 200.74,423.01 200.33,429.36 				"/>
			</g>
			<g>
				<g>
					<path d="M206.27,435.29l-5.94-5.94l-16.28,16.28l5.94,5.94L206.27,435.29z M200.37,431.18l4.07,4.07l-14.5,14.5l-4.07-4.07
						L200.37,431.18z"/>
				</g>
				<polygon points="203.3,432.32 200.33,429.36 206.67,428.95 206.27,435.29 				"/>
			</g>
			<g>
				<g>
					<path d="M212.2,441.23l-5.94-5.94l-16.28,16.28l5.94,5.94L212.2,441.23z M206.31,437.12l4.07,4.07l-14.5,14.5l-4.07-4.07
						L206.31,437.12z"/>
				</g>
				<polygon points="209.24,438.26 206.27,435.29 212.61,434.89 212.2,441.23 				"/>
			</g>
			<g>
				<g>
					<path d="M218.14,447.17l-5.94-5.94l-16.28,16.28l5.94,5.94L218.14,447.17z M212.24,443.05l4.07,4.07l-14.5,14.5l-4.07-4.07
						L212.24,443.05z"/>
				</g>
				<polygon points="215.17,444.2 212.2,441.23 218.55,440.82 218.14,447.17 				"/>
			</g>
			<g>
				<g>
					<path d="M230.83,441.23l-5.94,5.94l16.28,16.28l5.94-5.94L230.83,441.23z M226.72,447.13l4.07-4.07l14.5,14.5l-4.07,4.07
						L226.72,447.13z"/>
				</g>
				<polygon points="227.86,444.2 224.89,447.17 224.49,440.82 230.83,441.23 				"/>
			</g>
			<g>
				<g>
					<path d="M236.77,435.29l-5.94,5.94l16.28,16.28l5.94-5.94L236.77,435.29z M232.65,441.19l4.07-4.07l14.5,14.5l-4.07,4.07
						L232.65,441.19z"/>
				</g>
				<polygon points="233.8,438.26 230.83,441.23 230.42,434.89 236.77,435.29 				"/>
			</g>
			<g>
				<g>
					<path d="M242.7,429.36l-5.94,5.94l16.28,16.28l5.94-5.94L242.7,429.36z M238.59,435.25l4.07-4.07l14.5,14.5l-4.07,4.07
						L238.59,435.25z"/>
				</g>
				<polygon points="239.74,432.32 236.77,435.29 236.36,428.95 242.7,429.36 				"/>
			</g>
			<g>
				<g>
					<path d="M248.64,423.42l-5.94,5.94l16.28,16.28l5.94-5.94L248.64,423.42z M244.53,429.32l4.07-4.07l14.5,14.5l-4.07,4.07
						L244.53,429.32z"/>
				</g>
				<polygon points="245.67,426.39 242.7,429.36 242.3,423.01 248.64,423.42 				"/>
			</g>
			<g>
				<g>
					<path d="M254.58,417.48l-5.94,5.94l16.28,16.28l5.94-5.94L254.58,417.48z M250.46,423.38l4.07-4.07l14.5,14.5l-4.07,4.07
						L250.46,423.38z"/>
				</g>
				<polygon points="251.61,420.45 248.64,423.42 248.23,417.07 254.58,417.48 				"/>
			</g>
			<g>
				<g>
					<path d="M260.52,411.54l-5.94,5.94l16.28,16.28l5.94-5.94L260.52,411.54z M256.4,417.44l4.07-4.07l14.5,14.5l-4.07,4.07
						L256.4,417.44z"/>
				</g>
				<polygon points="257.55,414.51 254.58,417.48 254.17,411.14 260.52,411.54 				"/>
			</g>
			<g>
				<g>
					<path d="M266.45,405.61l-5.94,5.94l16.28,16.28l5.94-5.94L266.45,405.61z M262.34,411.51l4.07-4.07l14.5,14.5l-4.07,4.07
						L262.34,411.51z"/>
				</g>
				<polygon points="263.48,408.58 260.52,411.54 260.11,405.2 266.45,405.61 				"/>
			</g>
			<g>
				<g>
					<path d="M272.39,399.67l-5.94,5.94l16.28,16.28l5.94-5.94L272.39,399.67z M268.28,405.57l4.07-4.07l14.5,14.5l-4.07,4.07
						L268.28,405.57z"/>
				</g>
				<polygon points="269.42,402.64 266.45,405.61 266.05,399.26 272.39,399.67 				"/>
			</g>
			<g>
				<g>
					<path d="M278.33,393.73l-5.94,5.94l16.28,16.28l5.94-5.94L278.33,393.73z M274.21,399.63l4.07-4.07l14.5,14.5l-4.07,4.07
						L274.21,399.63z"/>
				</g>
				<polygon points="275.36,396.7 272.39,399.67 271.98,393.33 278.33,393.73 				"/>
			</g>
			<g>
				<g>
					<path d="M284.26,387.8l-5.94,5.94l16.28,16.28l5.94-5.94L284.26,387.8z M280.15,393.69l4.07-4.07l14.5,14.5l-4.07,4.07
						L280.15,393.69z"/>
				</g>
				<polygon points="281.3,390.76 278.33,393.73 277.92,387.39 284.26,387.8 				"/>
			</g>
			<g>
				<g>
					<path d="M290.2,381.86l-5.94,5.94l16.28,16.28l5.94-5.94L290.2,381.86z M286.09,387.76l4.07-4.07l14.5,14.5l-4.07,4.07
						L286.09,387.76z"/>
				</g>
				<polygon points="287.23,384.83 284.26,387.8 283.86,381.45 290.2,381.86 				"/>
			</g>
			<g>
				<g>
					<path d="M284.26,369.17l5.94,5.94l16.28-16.28l-5.94-5.94L284.26,369.17z M290.16,373.28l-4.07-4.07l14.5-14.5l4.07,4.07
						L290.16,373.28z"/>
				</g>
				<polygon points="287.23,372.14 290.2,375.11 283.86,375.51 284.26,369.17 				"/>
			</g>
			<g>
				<g>
					<path d="M278.33,363.23l5.94,5.94l16.28-16.28l-5.94-5.94L278.33,363.23z M284.22,367.35l-4.07-4.07l14.5-14.5l4.07,4.07
						L284.22,367.35z"/>
				</g>
				<polygon points="281.3,366.2 284.26,369.17 277.92,369.58 278.33,363.23 				"/>
			</g>
			<g>
				<g>
					<path d="M272.39,357.3l5.94,5.94l16.28-16.28l-5.94-5.94L272.39,357.3z M278.29,361.41l-4.07-4.07l14.5-14.5l4.07,4.07
						L278.29,361.41z"/>
				</g>
				<polygon points="275.36,360.26 278.33,363.23 271.98,363.64 272.39,357.3 				"/>
			</g>
			<g>
				<g>
					<path d="M266.45,351.36l5.94,5.94l16.28-16.28l-5.94-5.94L266.45,351.36z M272.35,355.47l-4.07-4.07l14.5-14.5l4.07,4.07
						L272.35,355.47z"/>
				</g>
				<polygon points="269.42,354.33 272.39,357.3 266.05,357.7 266.45,351.36 				"/>
			</g>
			<g>
				<g>
					<path d="M260.52,345.42l5.94,5.94l16.28-16.28l-5.94-5.94L260.52,345.42z M266.41,349.54l-4.07-4.07l14.5-14.5l4.07,4.07
						L266.41,349.54z"/>
				</g>
				<polygon points="263.48,348.39 266.45,351.36 260.11,351.77 260.52,345.42 				"/>
			</g>
			<g>
				<g>
					<path d="M254.58,339.48l5.94,5.94l16.28-16.28l-5.94-5.94L254.58,339.48z M260.48,343.6l-4.07-4.07l14.5-14.5l4.07,4.07
						L260.48,343.6z"/>
				</g>
				<polygon points="257.55,342.45 260.52,345.42 254.17,345.83 254.58,339.48 				"/>
			</g>
			<g>
				<g>
					<path d="M248.64,333.55l5.94,5.94l16.28-16.28l-5.94-5.94L248.64,333.55z M254.54,337.66l-4.07-4.07l14.5-14.5l4.07,4.07
						L254.54,337.66z"/>
				</g>
				<polygon points="251.61,336.52 254.58,339.48 248.23,339.89 248.64,333.55 				"/>
			</g>
			<g>
				<g>
					<path d="M242.7,327.61l5.94,5.94l16.28-16.28l-5.94-5.94L242.7,327.61z M248.6,331.72l-4.07-4.07l14.5-14.5l4.07,4.07
						L248.6,331.72z"/>
				</g>
				<polygon points="245.67,330.58 248.64,333.55 242.3,333.95 242.7,327.61 				"/>
			</g>
			<g>
				<g>
					<path d="M236.77,321.67l5.94,5.94l16.28-16.28l-5.94-5.94L236.77,321.67z M242.67,325.79l-4.07-4.07l14.5-14.5l4.07,4.07
						L242.67,325.79z"/>
				</g>
				<polygon points="239.74,324.64 242.7,327.61 236.36,328.02 236.77,321.67 				"/>
			</g>
			<g>
				<g>
					<path d="M230.83,315.74l5.94,5.94l16.28-16.28l-5.94-5.94L230.83,315.74z M236.73,319.85l-4.07-4.07l14.5-14.5l4.07,4.07
						L236.73,319.85z"/>
				</g>
				<polygon points="233.8,318.7 236.77,321.67 230.42,322.08 230.83,315.74 				"/>
			</g>
			<g>
				<g>
					<path d="M224.89,309.8l5.94,5.94l16.28-16.28l-5.94-5.94L224.89,309.8z M230.79,313.91l-4.07-4.07l14.5-14.5l4.07,4.07
						L230.79,313.91z"/>
				</g>
				<polygon points="227.86,312.77 230.83,315.74 224.49,316.14 224.89,309.8 				"/>
			</g>
			<g>
				<g>
					<path d="M212.2,315.74l5.94-5.94l-16.28-16.28l-5.94,5.94L212.2,315.74z M216.32,309.84l-4.07,4.07l-14.5-14.5l4.07-4.07
						L216.32,309.84z"/>
				</g>
				<polygon points="215.17,312.77 218.14,309.8 218.55,316.14 212.2,315.74 				"/>
			</g>
			<g>
				<g>
					<path d="M206.27,321.67l5.94-5.94l-16.28-16.28l-5.94,5.94L206.27,321.67z M210.38,315.78l-4.07,4.07l-14.5-14.5l4.07-4.07
						L210.38,315.78z"/>
				</g>
				<polygon points="209.24,318.7 212.2,315.74 212.61,322.08 206.27,321.67 				"/>
			</g>
			<g>
				<g>
					<path d="M200.33,327.61l5.94-5.94l-16.28-16.28l-5.94,5.94L200.33,327.61z M204.44,321.71l-4.07,4.07l-14.5-14.5l4.07-4.07
						L204.44,321.71z"/>
				</g>
				<polygon points="203.3,324.64 206.27,321.67 206.67,328.02 200.33,327.61 				"/>
			</g>
			<g>
				<g>
					<path d="M194.39,333.55l5.94-5.94l-16.28-16.28l-5.94,5.94L194.39,333.55z M198.51,327.65l-4.07,4.07l-14.5-14.5l4.07-4.07
						L198.51,327.65z"/>
				</g>
				<polygon points="197.36,330.58 200.33,327.61 200.74,333.95 194.39,333.55 				"/>
			</g>
			<g>
				<g>
					<path d="M188.46,339.48l5.94-5.94l-16.28-16.28l-5.94,5.94L188.46,339.48z M192.57,333.59l-4.07,4.07l-14.5-14.5l4.07-4.07
						L192.57,333.59z"/>
				</g>
				<polygon points="191.42,336.52 194.39,333.55 194.8,339.89 188.46,339.48 				"/>
			</g>
			<g>
				<g>
					<path d="M182.52,345.42l5.94-5.94l-16.28-16.28l-5.94,5.94L182.52,345.42z M186.63,339.52l-4.07,4.07l-14.5-14.5l4.07-4.07
						L186.63,339.52z"/>
				</g>
				<polygon points="185.49,342.45 188.46,339.48 188.86,345.83 182.52,345.42 				"/>
			</g>
			<g>
				<g>
					<path d="M176.58,351.36l5.94-5.94l-16.28-16.28l-5.94,5.94L176.58,351.36z M180.7,345.46l-4.07,4.07l-14.5-14.5l4.07-4.07
						L180.7,345.46z"/>
				</g>
				<polygon points="179.55,348.39 182.52,345.42 182.93,351.77 176.58,351.36 				"/>
			</g>
			<g>
				<g>
					<path d="M170.64,357.3l5.94-5.94l-16.28-16.28l-5.94,5.94L170.64,357.3z M174.76,351.4l-4.07,4.07l-14.5-14.5l4.07-4.07
						L174.76,351.4z"/>
				</g>
				<polygon points="173.61,354.33 176.58,351.36 176.99,357.7 170.64,357.3 				"/>
			</g>
			<g>
				<g>
					<path d="M164.71,363.23l5.94-5.94l-16.28-16.28l-5.94,5.94L164.71,363.23z M168.82,357.33l-4.07,4.07l-14.5-14.5l4.07-4.07
						L168.82,357.33z"/>
				</g>
				<polygon points="167.68,360.26 170.64,357.3 171.05,363.64 164.71,363.23 				"/>
			</g>
			<g>
				<g>
					<path d="M158.77,369.17l5.94-5.94l-16.28-16.28l-5.94,5.94L158.77,369.17z M162.88,363.27l-4.07,4.07l-14.5-14.5l4.07-4.07
						L162.88,363.27z"/>
				</g>
				<polygon points="161.74,366.2 164.71,363.23 165.11,369.58 158.77,369.17 				"/>
			</g>
			<g>
				<g>
					<path d="M152.83,375.11l5.94-5.94l-16.28-16.28l-5.94,5.94L152.83,375.11z M156.95,369.21l-4.07,4.07l-14.5-14.5l4.07-4.07
						L156.95,369.21z"/>
				</g>
				<polygon points="155.8,372.14 158.77,369.17 159.18,375.51 152.83,375.11 				"/>
			</g>
		</g>
		
			<rect x="209.25" y="281.15" transform="matrix(0.7071 0.7071 -0.7071 0.7071 272.3601 -70.6955)" style="fill:none;stroke:#000000;stroke-width:3;stroke-miterlimit:10;" width="24.54" height="24.54"/>
		
			<rect x="124.18" y="366.21" transform="matrix(0.7071 -0.7071 0.7071 0.7071 -227.6614 207.3427)" style="fill:none;stroke:#000000;stroke-width:3;stroke-miterlimit:10;" width="24.54" height="24.54"/>
		
			<rect x="209.25" y="451.28" transform="matrix(-0.7071 -0.7071 0.7071 -0.7071 50.3768 947.9586)" style="fill:none;stroke:#000000;stroke-width:3;stroke-miterlimit:10;" width="24.54" height="24.54"/>
		
			<rect x="294.31" y="366.21" transform="matrix(-0.7071 0.7071 -0.7071 -0.7071 790.9927 429.326)" style="fill:none;stroke:#000000;stroke-width:3;stroke-miterlimit:10;" width="24.54" height="24.54"/>
		<g>
			<g>
				<rect x="218.68" y="264.44" width="5.67" height="5.67"/>
				<rect x="224.35" y="258.77" width="5.67" height="5.67"/>
				<rect x="230.02" y="253.1" width="5.67" height="5.67"/>
				<rect x="235.69" y="247.43" width="5.67" height="5.67"/>
				<rect x="241.36" y="241.76" width="5.67" height="5.67"/>
				
					<rect x="213.01" y="258.77" transform="matrix(-1 -4.427715e-11 4.427715e-11 -1 431.6955 523.2021)" width="5.67" height="5.67"/>
				
					<rect x="207.34" y="253.1" transform="matrix(-1 -4.427715e-11 4.427715e-11 -1 420.357 511.8635)" width="5.67" height="5.67"/>
				
					<rect x="201.67" y="247.43" transform="matrix(-1 -4.588164e-11 4.588164e-11 -1 409.0184 500.5249)" width="5.67" height="5.67"/>
				
					<rect x="196.01" y="241.76" transform="matrix(-1 -4.556057e-11 4.556057e-11 -1 397.6798 489.1863)" width="5.67" height="5.67"/>
				<g>
					
						<rect x="215.29" y="224.56" transform="matrix(0.7071 0.7071 -0.7071 0.7071 228.0689 -89.0415)" style="fill:none;stroke:#000000;stroke-width:4;stroke-miterlimit:10;" width="12.45" height="12.45"/>
					<circle cx="221.52" cy="230.78" r="2.83"/>
					<g>
						<circle cx="221.52" cy="215.77" r="2.83"/>
						<circle cx="221.52" cy="209.8" r="2.83"/>
						<circle cx="215.55" cy="215.77" r="2.83"/>
						<circle cx="227.48" cy="215.77" r="2.83"/>
					</g>
					<g>
						<circle cx="206.5" cy="230.78" r="2.83"/>
						<circle cx="200.53" cy="230.78" r="2.83"/>
						<circle cx="206.5" cy="236.75" r="2.83"/>
						<circle cx="206.5" cy="224.82" r="2.83"/>
					</g>
					<g>
						<circle cx="221.52" cy="245.8" r="2.83"/>
						<circle cx="221.52" cy="251.77" r="2.83"/>
						<circle cx="227.48" cy="245.8" r="2.83"/>
						<circle cx="215.55" cy="245.8" r="2.83"/>
					</g>
					<g>
						<circle cx="236.53" cy="230.78" r="2.83"/>
						<circle cx="242.5" cy="230.78" r="2.83"/>
						<circle cx="236.53" cy="224.82" r="2.83"/>
						<circle cx="236.53" cy="236.75" r="2.83"/>
					</g>
				</g>
			</g>
			<g>
				<rect x="224.35" y="270.1" width="5.67" height="5.67"/>
				<rect x="230.02" y="275.77" width="5.67" height="5.67"/>
				<g>
					
						<rect x="235.69" y="281.45" transform="matrix(-1.836970e-16 1 -1 -1.836970e-16 522.8075 45.7607)" width="5.67" height="5.67"/>
					
						<rect x="241.36" y="287.12" transform="matrix(-1.836970e-16 1 -1 -1.836970e-16 534.1461 45.7607)" width="5.67" height="5.67"/>
					
						<rect x="247.03" y="292.79" transform="matrix(-1.836970e-16 1 -1 -1.836970e-16 545.4847 45.7607)" width="5.67" height="5.67"/>
					
						<rect x="252.7" y="298.46" transform="matrix(-1.836970e-16 1 -1 -1.836970e-16 556.8232 45.7607)" width="5.67" height="5.67"/>
					
						<rect x="258.37" y="304.13" transform="matrix(-1.836970e-16 1 -1 -1.836970e-16 568.1619 45.7607)" width="5.67" height="5.67"/>
					
						<rect x="241.36" y="275.78" transform="matrix(4.572171e-11 -1 1 4.572171e-11 -34.4221 522.8075)" width="5.67" height="5.67"/>
					
						<rect x="247.03" y="270.11" transform="matrix(4.411677e-11 -1 1 4.411677e-11 -23.0836 522.8075)" width="5.67" height="5.67"/>
					<rect x="252.7" y="264.44" transform="matrix(4.235196e-11 -1 1 4.235196e-11 -11.745 522.8075)" width="5.67" height="5.67"/>
					
						<rect x="258.37" y="258.77" transform="matrix(4.395601e-11 -1 1 4.395601e-11 -0.4064 522.8075)" width="5.67" height="5.67"/>
					<g>
						
							<rect x="268.79" y="278.06" transform="matrix(-0.7071 0.7071 -0.7071 -0.7071 670.4922 290.8412)" style="fill:none;stroke:#000000;stroke-width:4;stroke-miterlimit:10;" width="12.45" height="12.45"/>
						<circle cx="275.01" cy="284.28" r="2.83"/>
						<g>
							<circle cx="290.03" cy="284.28" r="2.83"/>
							<circle cx="295.99" cy="284.28" r="2.83"/>
							<circle cx="290.03" cy="278.32" r="2.83"/>
							<circle cx="290.03" cy="290.25" r="2.83"/>
						</g>
						<g>
							<circle cx="275.01" cy="269.27" r="2.83"/>
							<circle cx="275.01" cy="263.3" r="2.83"/>
							<circle cx="269.04" cy="269.27" r="2.83"/>
							<circle cx="280.98" cy="269.27" r="2.83"/>
						</g>
						<g>
							<circle cx="260" cy="284.28" r="2.83"/>
							<circle cx="254.03" cy="284.28" r="2.83"/>
							<circle cx="260" cy="290.25" r="2.83"/>
							<circle cx="260" cy="278.32" r="2.83"/>
						</g>
						<g>
							<circle cx="275.01" cy="299.3" r="2.83"/>
							<circle cx="275.01" cy="305.27" r="2.83"/>
							<circle cx="280.98" cy="299.3" r="2.83"/>
							<circle cx="269.04" cy="299.3" r="2.83"/>
						</g>
					</g>
				</g>
			</g>
			<g>
				
					<rect x="213.01" y="270.1" transform="matrix(-1 -4.427715e-11 4.427715e-11 -1 431.6955 545.8793)" width="5.67" height="5.67"/>
				
					<rect x="207.34" y="275.77" transform="matrix(-1 -4.235247e-11 4.235247e-11 -1 420.357 557.2178)" width="5.67" height="5.67"/>
				<g>
					
						<rect x="201.68" y="281.45" transform="matrix(-4.411689e-11 1 -1 -4.411689e-11 488.7949 79.7734)" width="5.67" height="5.67"/>
					
						<rect x="196.01" y="287.12" transform="matrix(-4.395613e-11 1 -1 -4.395613e-11 488.7949 91.112)" width="5.67" height="5.67"/>
					
						<rect x="190.34" y="292.79" transform="matrix(-4.235208e-11 1 -1 -4.235208e-11 488.7949 102.4506)" width="5.67" height="5.67"/>
					
						<rect x="184.67" y="298.46" transform="matrix(-4.411689e-11 1 -1 -4.411689e-11 488.7949 113.7891)" width="5.67" height="5.67"/>
					
						<rect x="179" y="304.13" transform="matrix(-4.572094e-11 1 -1 -4.572094e-11 488.7949 125.1277)" width="5.67" height="5.67"/>
					
						<rect x="196.01" y="275.78" transform="matrix(6.123234e-17 -1 1 6.123234e-17 -79.7734 477.4563)" width="5.67" height="5.67"/>
					
						<rect x="190.34" y="270.11" transform="matrix(6.123234e-17 -1 1 6.123234e-17 -79.7734 466.1177)" width="5.67" height="5.67"/>
					
						<rect x="184.67" y="264.44" transform="matrix(6.123234e-17 -1 1 6.123234e-17 -79.7734 454.7791)" width="5.67" height="5.67"/>
					<rect x="179" y="258.77" transform="matrix(6.123234e-17 -1 1 6.123234e-17 -79.7734 443.4405)" width="5.67" height="5.67"/>
					<g>
						
							<rect x="161.8" y="278.06" transform="matrix(0.7071 0.7071 -0.7071 0.7071 250.2321 -35.5454)" style="fill:none;stroke:#000000;stroke-width:4;stroke-miterlimit:10;" width="12.45" height="12.45"/>
						<circle cx="168.02" cy="284.28" r="2.83"/>
						<g>
							<circle cx="153.01" cy="284.28" r="2.83"/>
							<circle cx="147.04" cy="284.28" r="2.83"/>
							<circle cx="153.01" cy="278.32" r="2.83"/>
							<circle cx="153.01" cy="290.25" r="2.83"/>
						</g>
						<g>
							<circle cx="168.02" cy="269.27" r="2.83"/>
							<circle cx="168.02" cy="263.3" r="2.83"/>
							<circle cx="173.99" cy="269.27" r="2.83"/>
							<circle cx="162.06" cy="269.27" r="2.83"/>
						</g>
						<g>
							<circle cx="183.04" cy="284.28" r="2.83"/>
							<circle cx="189.01" cy="284.28" r="2.83"/>
							<circle cx="183.04" cy="290.25" r="2.83"/>
							<circle cx="183.04" cy="278.32" r="2.83"/>
						</g>
						<g>
							<circle cx="168.02" cy="299.3" r="2.83"/>
							<circle cx="168.02" cy="305.27" r="2.83"/>
							<circle cx="162.06" cy="299.3" r="2.83"/>
							<circle cx="173.99" cy="299.3" r="2.83"/>
						</g>
					</g>
				</g>
			</g>
		</g>
		<g>
			<g>
				
					<rect x="107.47" y="375.65" transform="matrix(4.764639e-11 -1 1 4.764639e-11 -268.1785 488.7874)" width="5.67" height="5.67"/>
				
					<rect x="101.8" y="369.98" transform="matrix(4.411677e-11 -1 1 4.411677e-11 -268.1785 477.4488)" width="5.67" height="5.67"/>
				
					<rect x="96.13" y="364.31" transform="matrix(4.395601e-11 -1 1 4.395601e-11 -268.1785 466.1102)" width="5.67" height="5.67"/>
				
					<rect x="90.46" y="358.64" transform="matrix(4.588158e-11 -1 1 4.588158e-11 -268.1785 454.7717)" width="5.67" height="5.67"/>
				
					<rect x="84.79" y="352.97" transform="matrix(4.764639e-11 -1 1 4.764639e-11 -268.1785 443.4331)" width="5.67" height="5.67"/>
				
					<rect x="101.8" y="381.32" transform="matrix(-8.983765e-11 1 -1 -8.983765e-11 488.7874 279.5171)" width="5.67" height="5.67"/>
				
					<rect x="96.13" y="386.99" transform="matrix(-8.999841e-11 1 -1 -8.999841e-11 488.7874 290.8557)" width="5.67" height="5.67"/>
				
					<rect x="90.46" y="392.66" transform="matrix(-8.999841e-11 1 -1 -8.999841e-11 488.7874 302.1942)" width="5.67" height="5.67"/>
				
					<rect x="84.79" y="398.33" transform="matrix(-8.999841e-11 1 -1 -8.999841e-11 488.7874 313.5328)" width="5.67" height="5.67"/>
				<g>
					
						<rect x="67.59" y="372.26" transform="matrix(0.7071 -0.7071 0.7071 0.7071 -246.0074 163.0515)" style="fill:none;stroke:#000000;stroke-width:4;stroke-miterlimit:10;" width="12.45" height="12.45"/>
					<circle cx="73.82" cy="378.48" r="2.83"/>
					<g>
						<circle cx="58.8" cy="378.48" r="2.83"/>
						<circle cx="52.83" cy="378.48" r="2.83"/>
						<circle cx="58.8" cy="384.45" r="2.83"/>
						<circle cx="58.8" cy="372.52" r="2.83"/>
					</g>
					<g>
						<circle cx="73.82" cy="393.5" r="2.83"/>
						<circle cx="73.82" cy="399.47" r="2.83"/>
						<circle cx="79.78" cy="393.5" r="2.83"/>
						<circle cx="67.85" cy="393.5" r="2.83"/>
					</g>
					<g>
						<circle cx="88.83" cy="378.48" r="2.83"/>
						<circle cx="94.8" cy="378.48" r="2.83"/>
						<circle cx="88.83" cy="372.52" r="2.83"/>
						<circle cx="88.83" cy="384.45" r="2.83"/>
					</g>
					<g>
						<circle cx="73.82" cy="363.47" r="2.83"/>
						<circle cx="73.82" cy="357.5" r="2.83"/>
						<circle cx="67.85" cy="363.47" r="2.83"/>
						<circle cx="79.78" cy="363.47" r="2.83"/>
					</g>
				</g>
			</g>
			<g>
				
					<rect x="113.14" y="369.98" transform="matrix(4.411677e-11 -1 1 4.411677e-11 -256.8399 488.7874)" width="5.67" height="5.67"/>
				
					<rect x="118.81" y="364.31" transform="matrix(4.588158e-11 -1 1 4.588158e-11 -245.5013 488.7874)" width="5.67" height="5.67"/>
				<g>
					<rect x="124.48" y="358.64" width="5.67" height="5.67"/>
					<rect x="130.15" y="352.97" width="5.67" height="5.67"/>
					<rect x="135.82" y="347.3" width="5.67" height="5.67"/>
					<rect x="141.49" y="341.63" width="5.67" height="5.67"/>
					<rect x="147.16" y="335.96" width="5.67" height="5.67"/>
					
						<rect x="118.81" y="352.97" transform="matrix(-1 -9.176317e-11 9.176317e-11 -1 243.2979 711.6146)" width="5.67" height="5.67"/>
					
						<rect x="113.15" y="347.3" transform="matrix(-1 -8.855462e-11 8.855462e-11 -1 231.9593 700.2761)" width="5.67" height="5.67"/>
					
						<rect x="107.48" y="341.63" transform="matrix(-1 -8.983804e-11 8.983804e-11 -1 220.6207 688.9374)" width="5.67" height="5.67"/>
					
						<rect x="101.81" y="335.96" transform="matrix(-1 -9.176317e-11 9.176317e-11 -1 209.2822 677.5989)" width="5.67" height="5.67"/>
					<g>
						
							<rect x="121.09" y="318.77" transform="matrix(0.7071 0.7071 -0.7071 0.7071 267.0926 5.1595)" style="fill:none;stroke:#000000;stroke-width:4;stroke-miterlimit:10;" width="12.45" height="12.45"/>
						<circle cx="127.32" cy="324.99" r="2.83"/>
						<g>
							<circle cx="127.32" cy="309.97" r="2.83"/>
							<circle cx="127.32" cy="304.01" r="2.83"/>
							<circle cx="121.35" cy="309.97" r="2.83"/>
							<circle cx="133.28" cy="309.97" r="2.83"/>
						</g>
						<g>
							<circle cx="112.3" cy="324.99" r="2.83"/>
							<circle cx="106.34" cy="324.99" r="2.83"/>
							<circle cx="112.3" cy="330.96" r="2.83"/>
							<circle cx="112.3" cy="319.02" r="2.83"/>
						</g>
						<g>
							<circle cx="127.32" cy="340" r="2.83"/>
							<circle cx="127.32" cy="345.97" r="2.83"/>
							<circle cx="133.28" cy="340" r="2.83"/>
							<circle cx="121.35" cy="340" r="2.83"/>
						</g>
						<g>
							<circle cx="142.33" cy="324.99" r="2.83"/>
							<circle cx="148.3" cy="324.99" r="2.83"/>
							<circle cx="142.33" cy="319.02" r="2.83"/>
							<circle cx="142.33" cy="330.96" r="2.83"/>
						</g>
					</g>
				</g>
			</g>
			<g>
				
					<rect x="113.14" y="381.32" transform="matrix(-8.983765e-11 1 -1 -8.983765e-11 500.126 268.1785)" width="5.67" height="5.67"/>
				
					<rect x="118.81" y="386.99" transform="matrix(-8.999841e-11 1 -1 -8.999841e-11 511.4646 268.1785)" width="5.67" height="5.67"/>
				<g>
					<rect x="124.48" y="392.65" width="5.67" height="5.67"/>
					<rect x="130.15" y="398.32" width="5.67" height="5.67"/>
					<rect x="135.82" y="403.99" width="5.67" height="5.67"/>
					<rect x="141.49" y="409.66" width="5.67" height="5.67"/>
					<rect x="147.16" y="415.33" width="5.67" height="5.67"/>
					
						<rect x="118.81" y="398.32" transform="matrix(-1 -4.556057e-11 4.556057e-11 -1 243.2979 802.3171)" width="5.67" height="5.67"/>
					
						<rect x="113.15" y="403.99" transform="matrix(-1 -4.556057e-11 4.556057e-11 -1 231.9593 813.6557)" width="5.67" height="5.67"/>
					
						<rect x="107.48" y="409.66" transform="matrix(-1 -4.748569e-11 4.748569e-11 -1 220.6207 824.9943)" width="5.67" height="5.67"/>
					
						<rect x="101.81" y="415.33" transform="matrix(-1 -4.556057e-11 4.556057e-11 -1 209.2822 836.3329)" width="5.67" height="5.67"/>
					<g>
						
							<rect x="121.09" y="425.75" transform="matrix(0.7071 -0.7071 0.7071 0.7071 -268.1631 216.5507)" style="fill:none;stroke:#000000;stroke-width:4;stroke-miterlimit:10;" width="12.45" height="12.45"/>
						<circle cx="127.32" cy="431.98" r="2.83"/>
						<g>
							<circle cx="127.32" cy="446.99" r="2.83"/>
							<circle cx="127.32" cy="452.96" r="2.83"/>
							<circle cx="121.35" cy="446.99" r="2.83"/>
							<circle cx="133.28" cy="446.99" r="2.83"/>
						</g>
						<g>
							<circle cx="112.3" cy="431.98" r="2.83"/>
							<circle cx="106.34" cy="431.98" r="2.83"/>
							<circle cx="112.3" cy="426.01" r="2.83"/>
							<circle cx="112.3" cy="437.94" r="2.83"/>
						</g>
						<g>
							<circle cx="127.32" cy="416.96" r="2.83"/>
							<circle cx="127.32" cy="410.99" r="2.83"/>
							<circle cx="133.28" cy="416.96" r="2.83"/>
							<circle cx="121.35" cy="416.96" r="2.83"/>
						</g>
						<g>
							<circle cx="142.33" cy="431.98" r="2.83"/>
							<circle cx="148.3" cy="431.98" r="2.83"/>
							<circle cx="142.33" cy="437.94" r="2.83"/>
							<circle cx="142.33" cy="426.01" r="2.83"/>
						</g>
					</g>
				</g>
			</g>
		</g>
		<g>
			<g>
				
					<rect x="218.68" y="486.86" transform="matrix(-1 -8.823355e-11 8.823355e-11 -1 443.0341 979.3911)" width="5.67" height="5.67"/>
				
					<rect x="213.01" y="492.53" transform="matrix(-1 -8.983804e-11 8.983804e-11 -1 431.6955 990.7297)" width="5.67" height="5.67"/>
				
					<rect x="207.34" y="498.2" transform="matrix(-1 -9.176317e-11 9.176317e-11 -1 420.357 1002.0682)" width="5.67" height="5.67"/>
				
					<rect x="201.67" y="503.87" transform="matrix(-1 -8.823355e-11 8.823355e-11 -1 409.0184 1013.4068)" width="5.67" height="5.67"/>
				
					<rect x="196.01" y="509.54" transform="matrix(-1 -9.176317e-11 9.176317e-11 -1 397.6798 1024.7454)" width="5.67" height="5.67"/>
				<rect x="224.35" y="492.53" width="5.67" height="5.67"/>
				<rect x="230.02" y="498.2" width="5.67" height="5.67"/>
				<rect x="235.69" y="503.87" width="5.67" height="5.67"/>
				<rect x="241.36" y="509.54" width="5.67" height="5.67"/>
				<g>
					
						<rect x="215.29" y="519.96" transform="matrix(-0.7071 -0.7071 0.7071 -0.7071 6.0857 1054.887)" style="fill:none;stroke:#000000;stroke-width:4;stroke-miterlimit:10;" width="12.45" height="12.45"/>
					<circle cx="221.52" cy="526.18" r="2.83"/>
					<g>
						<circle cx="221.52" cy="541.2" r="2.83"/>
						<circle cx="221.52" cy="547.17" r="2.83"/>
						<circle cx="227.48" cy="541.2" r="2.83"/>
						<circle cx="215.55" cy="541.2" r="2.83"/>
					</g>
					<g>
						<circle cx="236.53" cy="526.18" r="2.83"/>
						<circle cx="242.5" cy="526.18" r="2.83"/>
						<circle cx="236.53" cy="520.22" r="2.83"/>
						<circle cx="236.53" cy="532.15" r="2.83"/>
					</g>
					<g>
						<circle cx="221.52" cy="511.17" r="2.83"/>
						<circle cx="221.52" cy="505.2" r="2.83"/>
						<circle cx="215.55" cy="511.17" r="2.83"/>
						<circle cx="227.48" cy="511.17" r="2.83"/>
					</g>
					<g>
						<circle cx="206.5" cy="526.18" r="2.83"/>
						<circle cx="200.53" cy="526.18" r="2.83"/>
						<circle cx="206.5" cy="532.15" r="2.83"/>
						<circle cx="206.5" cy="520.22" r="2.83"/>
					</g>
				</g>
			</g>
			<g>
				
					<rect x="213.01" y="481.19" transform="matrix(-1 -9.015867e-11 9.015867e-11 -1 431.6955 968.0525)" width="5.67" height="5.67"/>
				
					<rect x="207.34" y="475.52" transform="matrix(-1 -8.791291e-11 8.791291e-11 -1 420.357 956.7139)" width="5.67" height="5.67"/>
				<g>
					
						<rect x="201.68" y="469.85" transform="matrix(9.176310e-11 -1 1 9.176310e-11 -268.171 677.1925)" width="5.67" height="5.67"/>
					
						<rect x="196.01" y="464.18" transform="matrix(8.983753e-11 -1 1 8.983753e-11 -268.171 665.8539)" width="5.67" height="5.67"/>
					
						<rect x="190.34" y="458.51" transform="matrix(8.999829e-11 -1 1 8.999829e-11 -268.171 654.5153)" width="5.67" height="5.67"/>
					
						<rect x="184.67" y="452.84" transform="matrix(8.999829e-11 -1 1 8.999829e-11 -268.171 643.1768)" width="5.67" height="5.67"/>
					<rect x="179" y="447.17" transform="matrix(8.807361e-11 -1 1 8.807361e-11 -268.171 631.8381)" width="5.67" height="5.67"/>
					
						<rect x="196.01" y="475.52" transform="matrix(-1.358799e-10 1 -1 -1.358799e-10 677.1925 279.5096)" width="5.67" height="5.67"/>
					
						<rect x="190.34" y="481.19" transform="matrix(-1.341151e-10 1 -1 -1.341151e-10 677.1925 290.8482)" width="5.67" height="5.67"/>
					
						<rect x="184.67" y="486.85" transform="matrix(-1.341151e-10 1 -1 -1.341151e-10 677.1925 302.1868)" width="5.67" height="5.67"/>
					
						<rect x="179" y="492.52" transform="matrix(-1.323503e-10 1 -1 -1.323503e-10 677.1925 313.5254)" width="5.67" height="5.67"/>
					<g>
						
							<rect x="161.8" y="466.46" transform="matrix(0.7071 -0.7071 0.7071 0.7071 -285.0236 257.2556)" style="fill:none;stroke:#000000;stroke-width:4;stroke-miterlimit:10;" width="12.45" height="12.45"/>
						<circle cx="168.02" cy="472.68" r="2.83"/>
						<g>
							<circle cx="153.01" cy="472.68" r="2.83"/>
							<circle cx="147.04" cy="472.68" r="2.83"/>
							<circle cx="153.01" cy="478.65" r="2.83"/>
							<circle cx="153.01" cy="466.72" r="2.83"/>
						</g>
						<g>
							<circle cx="168.02" cy="487.7" r="2.83"/>
							<circle cx="168.02" cy="493.66" r="2.83"/>
							<circle cx="173.99" cy="487.7" r="2.83"/>
							<circle cx="162.06" cy="487.7" r="2.83"/>
						</g>
						<g>
							<circle cx="183.04" cy="472.68" r="2.83"/>
							<circle cx="189.01" cy="472.68" r="2.83"/>
							<circle cx="183.04" cy="466.72" r="2.83"/>
							<circle cx="183.04" cy="478.65" r="2.83"/>
						</g>
						<g>
							<circle cx="168.02" cy="457.67" r="2.83"/>
							<circle cx="168.02" cy="451.7" r="2.83"/>
							<circle cx="162.06" cy="457.67" r="2.83"/>
							<circle cx="173.99" cy="457.67" r="2.83"/>
						</g>
					</g>
				</g>
			</g>
			<g>
				<rect x="224.35" y="481.19" width="5.67" height="5.67"/>
				<rect x="230.02" y="475.52" width="5.67" height="5.67"/>
				<g>
					
						<rect x="235.69" y="469.85" transform="matrix(1.339551e-10 -1 1 1.339551e-10 -234.1584 711.2051)" width="5.67" height="5.67"/>
					
						<rect x="241.36" y="464.18" transform="matrix(1.357190e-10 -1 1 1.357190e-10 -222.8198 711.2051)" width="5.67" height="5.67"/>
					
						<rect x="247.03" y="458.51" transform="matrix(1.358798e-10 -1 1 1.358798e-10 -211.4812 711.2051)" width="5.67" height="5.67"/>
					
						<rect x="252.7" y="452.84" transform="matrix(1.323511e-10 -1 1 1.323511e-10 -200.1426 711.2051)" width="5.67" height="5.67"/>
					
						<rect x="258.37" y="447.17" transform="matrix(1.358798e-10 -1 1 1.358798e-10 -188.804 711.2051)" width="5.67" height="5.67"/>
					
						<rect x="241.36" y="475.52" transform="matrix(-9.176322e-11 1 -1 -9.176322e-11 722.5438 234.1584)" width="5.67" height="5.67"/>
					
						<rect x="247.03" y="481.19" transform="matrix(-8.999841e-11 1 -1 -8.999841e-11 733.8823 234.1584)" width="5.67" height="5.67"/>
					
						<rect x="252.7" y="486.85" transform="matrix(-8.999841e-11 1 -1 -8.999841e-11 745.2209 234.1584)" width="5.67" height="5.67"/>
					
						<rect x="258.37" y="492.52" transform="matrix(-9.160246e-11 1 -1 -9.160246e-11 756.5595 234.1584)" width="5.67" height="5.67"/>
					<g>
						
							<rect x="268.79" y="466.46" transform="matrix(-0.7071 -0.7071 0.7071 -0.7071 135.2365 1001.3803)" style="fill:none;stroke:#000000;stroke-width:4;stroke-miterlimit:10;" width="12.45" height="12.45"/>
						<circle cx="275.01" cy="472.68" r="2.83"/>
						<g>
							<circle cx="290.03" cy="472.68" r="2.83"/>
							<circle cx="295.99" cy="472.68" r="2.83"/>
							<circle cx="290.03" cy="478.65" r="2.83"/>
							<circle cx="290.03" cy="466.72" r="2.83"/>
						</g>
						<g>
							<circle cx="275.01" cy="487.7" r="2.83"/>
							<circle cx="275.01" cy="493.66" r="2.83"/>
							<circle cx="269.04" cy="487.7" r="2.83"/>
							<circle cx="280.98" cy="487.7" r="2.83"/>
						</g>
						<g>
							<circle cx="260" cy="472.68" r="2.83"/>
							<circle cx="254.03" cy="472.68" r="2.83"/>
							<circle cx="260" cy="466.72" r="2.83"/>
							<circle cx="260" cy="478.65" r="2.83"/>
						</g>
						<g>
							<circle cx="275.01" cy="457.67" r="2.83"/>
							<circle cx="275.01" cy="451.7" r="2.83"/>
							<circle cx="280.98" cy="457.67" r="2.83"/>
							<circle cx="269.04" cy="457.67" r="2.83"/>
						</g>
					</g>
				</g>
			</g>
		</g>
		<g>
			<g>
				
					<rect x="329.9" y="375.65" transform="matrix(-1.374840e-10 1 -1 -1.374840e-10 711.2126 45.7533)" width="5.67" height="5.67"/>
				
					<rect x="335.56" y="381.32" transform="matrix(-1.357192e-10 1 -1 -1.357192e-10 722.5512 45.7533)" width="5.67" height="5.67"/>
				
					<rect x="341.23" y="386.99" transform="matrix(-1.341151e-10 1 -1 -1.341151e-10 733.8898 45.7533)" width="5.67" height="5.67"/>
				
					<rect x="346.9" y="392.66" transform="matrix(-1.323503e-10 1 -1 -1.323503e-10 745.2283 45.7533)" width="5.67" height="5.67"/>
				
					<rect x="352.57" y="398.33" transform="matrix(-1.235271e-10 1 -1 -1.235271e-10 756.567 45.7533)" width="5.67" height="5.67"/>
				
					<rect x="335.56" y="369.98" transform="matrix(1.816006e-10 -1 1 1.816006e-10 -34.4147 711.2126)" width="5.67" height="5.67"/>
				
					<rect x="341.23" y="364.31" transform="matrix(1.798366e-10 -1 1 1.798366e-10 -23.0761 711.2126)" width="5.67" height="5.67"/>
				<rect x="346.9" y="358.64" transform="matrix(1.798366e-10 -1 1 1.798366e-10 -11.7375 711.2126)" width="5.67" height="5.67"/>
				<rect x="352.57" y="352.97" transform="matrix(1.763070e-10 -1 1 1.763070e-10 -0.399 711.2126)" width="5.67" height="5.67"/>
				<g>
					
						<rect x="362.99" y="372.26" transform="matrix(-0.7071 0.7071 -0.7071 -0.7071 897.921 385.0348)" style="fill:none;stroke:#000000;stroke-width:4;stroke-miterlimit:10;" width="12.45" height="12.45"/>
					<circle cx="369.22" cy="378.48" r="2.83"/>
					<g>
						<circle cx="384.23" cy="378.48" r="2.83"/>
						<circle cx="390.2" cy="378.48" r="2.83"/>
						<circle cx="384.23" cy="372.52" r="2.83"/>
						<circle cx="384.23" cy="384.45" r="2.83"/>
					</g>
					<g>
						<circle cx="369.22" cy="363.47" r="2.83"/>
						<circle cx="369.22" cy="357.5" r="2.83"/>
						<circle cx="363.25" cy="363.47" r="2.83"/>
						<circle cx="375.18" cy="363.47" r="2.83"/>
					</g>
					<g>
						<circle cx="354.2" cy="378.48" r="2.83"/>
						<circle cx="348.23" cy="378.48" r="2.83"/>
						<circle cx="354.2" cy="384.45" r="2.83"/>
						<circle cx="354.2" cy="372.52" r="2.83"/>
					</g>
					<g>
						<circle cx="369.22" cy="393.5" r="2.83"/>
						<circle cx="369.22" cy="399.47" r="2.83"/>
						<circle cx="375.18" cy="393.5" r="2.83"/>
						<circle cx="363.25" cy="393.5" r="2.83"/>
					</g>
				</g>
			</g>
			<g>
				
					<rect x="324.23" y="381.32" transform="matrix(-1.339552e-10 1 -1 -1.339552e-10 711.2126 57.0919)" width="5.67" height="5.67"/>
				
					<rect x="318.56" y="386.99" transform="matrix(-1.357192e-10 1 -1 -1.357192e-10 711.2126 68.4304)" width="5.67" height="5.67"/>
				<g>
					
						<rect x="312.88" y="392.65" transform="matrix(-1 -1.341151e-10 1.341151e-10 -1 631.4318 790.9786)" width="5.67" height="5.67"/>
					
						<rect x="307.21" y="398.32" transform="matrix(-1 -1.337944e-10 1.337944e-10 -1 620.0932 802.3171)" width="5.67" height="5.67"/>
					
						<rect x="301.54" y="403.99" transform="matrix(-1 -1.373236e-10 1.373236e-10 -1 608.7546 813.6557)" width="5.67" height="5.67"/>
					
						<rect x="295.87" y="409.66" transform="matrix(-1 -1.360402e-10 1.360402e-10 -1 597.416 824.9943)" width="5.67" height="5.67"/>
					
						<rect x="290.2" y="415.33" transform="matrix(-1 -1.360402e-10 1.360402e-10 -1 586.0775 836.3329)" width="5.67" height="5.67"/>
					<rect x="318.55" y="398.32" width="5.67" height="5.67"/>
					<rect x="324.22" y="403.99" width="5.67" height="5.67"/>
					<rect x="329.89" y="409.66" width="5.67" height="5.67"/>
					<rect x="335.56" y="415.33" width="5.67" height="5.67"/>
					<g>
						
							<rect x="309.49" y="425.75" transform="matrix(-0.7071 -0.7071 0.7071 -0.7071 233.507 960.6754)" style="fill:none;stroke:#000000;stroke-width:4;stroke-miterlimit:10;" width="12.45" height="12.45"/>
						<circle cx="315.72" cy="431.98" r="2.83"/>
						<g>
							<circle cx="315.72" cy="446.99" r="2.83"/>
							<circle cx="315.72" cy="452.96" r="2.83"/>
							<circle cx="321.68" cy="446.99" r="2.83"/>
							<circle cx="309.75" cy="446.99" r="2.83"/>
						</g>
						<g>
							<circle cx="330.73" cy="431.98" r="2.83"/>
							<circle cx="336.7" cy="431.98" r="2.83"/>
							<circle cx="330.73" cy="426.01" r="2.83"/>
							<circle cx="330.73" cy="437.94" r="2.83"/>
						</g>
						<g>
							<circle cx="315.72" cy="416.96" r="2.83"/>
							<circle cx="315.72" cy="410.99" r="2.83"/>
							<circle cx="309.75" cy="416.96" r="2.83"/>
							<circle cx="321.68" cy="416.96" r="2.83"/>
						</g>
						<g>
							<circle cx="300.7" cy="431.98" r="2.83"/>
							<circle cx="294.73" cy="431.98" r="2.83"/>
							<circle cx="300.7" cy="437.94" r="2.83"/>
							<circle cx="300.7" cy="426.01" r="2.83"/>
						</g>
					</g>
				</g>
			</g>
			<g>
				<rect x="324.23" y="369.98" transform="matrix(1.816006e-10 -1 1 1.816006e-10 -45.7533 699.874)" width="5.67" height="5.67"/>
				
					<rect x="318.56" y="364.31" transform="matrix(1.816006e-10 -1 1 1.816006e-10 -45.7533 688.5355)" width="5.67" height="5.67"/>
				<g>
					
						<rect x="312.88" y="358.64" transform="matrix(-1 -1.816011e-10 1.816011e-10 -1 631.4318 722.9532)" width="5.67" height="5.67"/>
					
						<rect x="307.21" y="352.97" transform="matrix(-1 -1.816011e-10 1.816011e-10 -1 620.0932 711.6146)" width="5.67" height="5.67"/>
					
						<rect x="301.54" y="347.3" transform="matrix(-1 -1.799966e-10 1.799966e-10 -1 608.7546 700.2761)" width="5.67" height="5.67"/>
					
						<rect x="295.87" y="341.63" transform="matrix(-1 -1.799966e-10 1.799966e-10 -1 597.416 688.9374)" width="5.67" height="5.67"/>
					
						<rect x="290.2" y="335.96" transform="matrix(-1 -1.799966e-10 1.799966e-10 -1 586.0775 677.5989)" width="5.67" height="5.67"/>
					<rect x="318.55" y="352.97" width="5.67" height="5.67"/>
					<rect x="324.22" y="347.3" width="5.67" height="5.67"/>
					<rect x="329.89" y="341.63" width="5.67" height="5.67"/>
					<rect x="335.56" y="335.96" width="5.67" height="5.67"/>
					<g>
						
							<rect x="309.49" y="318.77" transform="matrix(-0.7071 0.7071 -0.7071 -0.7071 768.7627 331.5462)" style="fill:none;stroke:#000000;stroke-width:4;stroke-miterlimit:10;" width="12.45" height="12.45"/>
						<circle cx="315.72" cy="324.99" r="2.83"/>
						<g>
							<circle cx="315.72" cy="309.97" r="2.83"/>
							<circle cx="315.72" cy="304.01" r="2.83"/>
							<circle cx="321.68" cy="309.97" r="2.83"/>
							<circle cx="309.75" cy="309.97" r="2.83"/>
						</g>
						<g>
							<circle cx="330.73" cy="324.99" r="2.83"/>
							<circle cx="336.7" cy="324.99" r="2.83"/>
							<circle cx="330.73" cy="330.96" r="2.83"/>
							<circle cx="330.73" cy="319.02" r="2.83"/>
						</g>
						<g>
							<circle cx="315.72" cy="340" r="2.83"/>
							<circle cx="315.72" cy="345.97" r="2.83"/>
							<circle cx="309.75" cy="340" r="2.83"/>
							<circle cx="321.68" cy="340" r="2.83"/>
						</g>
						<g>
							<circle cx="300.7" cy="324.99" r="2.83"/>
							<circle cx="294.73" cy="324.99" r="2.83"/>
							<circle cx="300.7" cy="319.02" r="2.83"/>
							<circle cx="300.7" cy="330.96" r="2.83"/>
						</g>
					</g>
				</g>
			</g>
		</g>
	</g>
</g>
<g>
</g>
<g>
</g>
<g>
</g>
<g>
</g>
<g>
</g>
<g>
</g>
<g>
</g>
<g>
</g>
<g>
</g>
<g>
</g>
<g>
</g>
<g>
</g>
<g>
</g>
<g>
</g>
<g>
</g>
</svg>
