<?xml version="1.0" encoding="utf-8"?>
<!-- Generator: Adobe Illustrator 27.2.0, SVG Export Plug-In . SVG Version: 6.00 Build 0)  -->
<svg version="1.1" id="Layer_1" xmlns="http://www.w3.org/2000/svg" xmlns:xlink="http://www.w3.org/1999/xlink" x="0px" y="0px"
	 viewBox="0 0 800 600" style="enable-background:new 0 0 800 600;" xml:space="preserve">
<g>
	<g>
		<polygon style="fill:none;stroke:#000000;stroke-width:3;stroke-miterlimit:10;" points="118.08,441.69 89.64,413.24 
			118.08,384.8 118.08,344.57 158.31,344.57 186.76,316.12 215.2,344.57 255.43,344.57 255.43,384.8 283.88,413.24 255.43,441.69 
			255.43,481.92 215.2,481.92 186.76,510.36 158.31,481.92 118.08,481.92 		"/>
		<path style="stroke:#000000;stroke-width:3;stroke-miterlimit:10;" d="M274.38,376.95l0-51.33h-51.33l-36.29-36.29l-36.29,36.29
			H99.14v51.33l-36.29,36.29l36.29,36.29l0,51.33h51.32l36.29,36.29l36.29-36.29h51.33v-51.33l36.29-36.29L274.38,376.95z
			 M255.43,441.69l0,40.23l-40.23,0l-28.45,28.45l-28.45-28.45l-40.23,0l0-40.23l-28.45-28.45l28.45-28.45l0-40.23h40.23
			l28.45-28.45l28.45,28.45h40.23l0,40.23l28.45,28.45L255.43,441.69z"/>
		
			<rect x="169.17" y="332.15" transform="matrix(0.7071 0.7071 -0.7071 0.7071 302.0041 -29.6215)" style="fill:none;stroke:#000000;stroke-width:3;stroke-miterlimit:10;" width="35.17" height="35.17"/>
		<g>
			<g>
				
					<rect x="173.59" y="336.57" transform="matrix(0.7071 0.7071 -0.7071 0.7071 302.0041 -29.6215)" style="fill:none;stroke:#000000;stroke-width:3;stroke-miterlimit:10;" width="26.34" height="26.34"/>
				<circle style="fill:none;stroke:#000000;stroke-width:3;stroke-miterlimit:10;" cx="186.76" cy="349.74" r="8.1"/>
			</g>
			<circle cx="186.76" cy="349.74" r="2"/>
		</g>
		<g>
			<g>
				
					<rect x="173.59" y="400.07" transform="matrix(0.7071 0.7071 -0.7071 0.7071 346.9062 -11.0226)" style="fill:none;stroke:#000000;stroke-width:3;stroke-miterlimit:10;" width="26.34" height="26.34"/>
				<circle style="fill:none;stroke:#000000;stroke-width:3;stroke-miterlimit:10;" cx="186.76" cy="413.24" r="8.1"/>
			</g>
			<circle cx="186.76" cy="413.24" r="2"/>
		</g>
		<g>
			
				<rect x="124.27" y="350.75" style="fill:none;stroke:#000000;stroke-width:3;stroke-miterlimit:10;" width="35.17" height="35.17"/>
			
				<rect x="128.68" y="355.17" style="fill:none;stroke:#000000;stroke-width:3;stroke-miterlimit:10;" width="26.34" height="26.34"/>
			<circle style="fill:none;stroke:#000000;stroke-width:3;stroke-miterlimit:10;" cx="141.86" cy="368.34" r="8.1"/>
			<circle cx="141.86" cy="368.34" r="2"/>
		</g>
		<g>
			
				<rect x="105.67" y="395.65" transform="matrix(0.7071 -0.7071 0.7071 0.7071 -256.1047 208.1917)" style="fill:none;stroke:#000000;stroke-width:3;stroke-miterlimit:10;" width="35.17" height="35.17"/>
			
				<rect x="110.09" y="400.07" transform="matrix(0.7071 -0.7071 0.7071 0.7071 -256.1047 208.1917)" style="fill:none;stroke:#000000;stroke-width:3;stroke-miterlimit:10;" width="26.34" height="26.34"/>
			<circle style="fill:none;stroke:#000000;stroke-width:3;stroke-miterlimit:10;" cx="123.26" cy="413.24" r="8.1"/>
			<circle cx="123.26" cy="413.24" r="2"/>
		</g>
		<g>
			
				<rect x="124.27" y="440.56" transform="matrix(8.982821e-11 -1 1 8.982821e-11 -316.2873 599.9999)" style="fill:none;stroke:#000000;stroke-width:3;stroke-miterlimit:10;" width="35.17" height="35.17"/>
			
				<rect x="128.68" y="444.97" transform="matrix(8.996787e-11 -1 1 8.996787e-11 -316.2873 599.9999)" style="fill:none;stroke:#000000;stroke-width:3;stroke-miterlimit:10;" width="26.34" height="26.34"/>
			<circle style="fill:none;stroke:#000000;stroke-width:3;stroke-miterlimit:10;" cx="141.86" cy="458.14" r="8.1"/>
			<circle cx="141.86" cy="458.14" r="2"/>
		</g>
		<g>
			
				<rect x="169.17" y="459.16" transform="matrix(-0.7071 -0.7071 0.7071 -0.7071 -18.2915 945.9088)" style="fill:none;stroke:#000000;stroke-width:3;stroke-miterlimit:10;" width="35.17" height="35.17"/>
			
				<rect x="173.59" y="463.57" transform="matrix(-0.7071 -0.7071 0.7071 -0.7071 -18.2915 945.9088)" style="fill:none;stroke:#000000;stroke-width:3;stroke-miterlimit:10;" width="26.34" height="26.34"/>
			<circle style="fill:none;stroke:#000000;stroke-width:3;stroke-miterlimit:10;" cx="186.76" cy="476.74" r="8.1"/>
			<circle cx="186.76" cy="476.74" r="2"/>
		</g>
		<g>
			
				<rect x="214.07" y="440.56" transform="matrix(-1 -1.347168e-10 1.347168e-10 -1 463.3208 916.2872)" style="fill:none;stroke:#000000;stroke-width:3;stroke-miterlimit:10;" width="35.17" height="35.17"/>
			
				<rect x="218.49" y="444.97" transform="matrix(-1 -1.347101e-10 1.347101e-10 -1 463.3208 916.2872)" style="fill:none;stroke:#000000;stroke-width:3;stroke-miterlimit:10;" width="26.34" height="26.34"/>
			<circle style="fill:none;stroke:#000000;stroke-width:3;stroke-miterlimit:10;" cx="231.66" cy="458.14" r="8.1"/>
			<circle cx="231.66" cy="458.14" r="2"/>
		</g>
		<g>
			
				<rect x="232.67" y="395.65" transform="matrix(-0.7071 0.7071 -0.7071 -0.7071 719.4255 528.4873)" style="fill:none;stroke:#000000;stroke-width:3;stroke-miterlimit:10;" width="35.17" height="35.17"/>
			
				<rect x="237.09" y="400.07" transform="matrix(-0.7071 0.7071 -0.7071 -0.7071 719.4255 528.4873)" style="fill:none;stroke:#000000;stroke-width:3;stroke-miterlimit:10;" width="26.34" height="26.34"/>
			<circle style="fill:none;stroke:#000000;stroke-width:3;stroke-miterlimit:10;" cx="250.26" cy="413.24" r="8.1"/>
			<circle cx="250.26" cy="413.24" r="2"/>
		</g>
		<g>
			
				<rect x="214.07" y="350.75" transform="matrix(-1.796822e-10 1 -1 -1.796822e-10 599.9999 136.6791)" style="fill:none;stroke:#000000;stroke-width:3;stroke-miterlimit:10;" width="35.17" height="35.17"/>
			
				<rect x="218.49" y="355.17" transform="matrix(-1.791422e-10 1 -1 -1.791422e-10 599.9999 136.6791)" style="fill:none;stroke:#000000;stroke-width:3;stroke-miterlimit:10;" width="26.34" height="26.34"/>
			<circle style="fill:none;stroke:#000000;stroke-width:3;stroke-miterlimit:10;" cx="231.66" cy="368.34" r="8.1"/>
			<circle cx="231.66" cy="368.34" r="2"/>
		</g>
		<g>
			<g>
				<polygon points="225.29,321.28 242.64,321.28 233.96,312.6 				"/>
				<polygon points="243.32,321.28 260.67,321.28 252,312.6 				"/>
				<polygon points="261.36,321.28 278.71,321.28 270.03,312.6 				"/>
			</g>
			<g>
				<polygon points="278.71,374.7 278.71,357.35 287.38,366.02 				"/>
				<polygon points="278.71,356.66 278.71,339.31 287.38,347.99 				"/>
				<polygon points="278.71,338.63 278.71,321.28 287.38,329.95 				"/>
			</g>
		</g>
		<g>
			<g>
				<polygon points="148.97,320.97 161.24,308.7 148.97,308.7 				"/>
				<polygon points="161.73,308.22 173.99,295.95 161.73,295.95 				"/>
				<polygon points="174.48,295.46 186.75,283.2 174.48,283.2 				"/>
			</g>
			<g>
				<polygon points="224.52,320.97 212.25,308.7 224.52,308.7 				"/>
				<polygon points="211.77,308.22 199.5,295.95 211.77,295.95 				"/>
				<polygon points="199.01,295.46 186.75,283.2 199.01,283.2 				"/>
			</g>
		</g>
		<g>
			<g>
				<polygon points="94.79,374.71 94.79,357.36 86.12,366.04 				"/>
				<polygon points="94.79,356.68 94.79,339.33 86.12,348 				"/>
				<polygon points="94.79,338.64 94.79,321.29 86.12,329.97 				"/>
			</g>
			<g>
				<polygon points="148.21,321.29 130.86,321.29 139.54,312.62 				"/>
				<polygon points="130.18,321.29 112.83,321.29 121.5,312.62 				"/>
				<polygon points="112.14,321.29 94.79,321.29 103.47,312.62 				"/>
			</g>
		</g>
		<g>
			<g>
				<polygon points="94.49,451.03 82.22,438.76 82.22,451.03 				"/>
				<polygon points="81.73,438.27 69.47,426.01 69.47,438.27 				"/>
				<polygon points="68.98,425.52 56.71,413.25 56.71,425.52 				"/>
			</g>
			<g>
				<polygon points="94.49,375.48 82.22,387.75 82.22,375.48 				"/>
				<polygon points="81.73,388.23 69.47,400.5 69.47,388.23 				"/>
				<polygon points="68.98,400.99 56.71,413.25 56.71,400.99 				"/>
			</g>
		</g>
		<g>
			<g>
				<polygon points="148.23,505.21 130.88,505.21 139.56,513.88 				"/>
				<polygon points="130.2,505.21 112.85,505.21 121.52,513.88 				"/>
				<polygon points="112.16,505.21 94.81,505.21 103.49,513.88 				"/>
			</g>
			<g>
				<polygon points="94.81,451.79 94.81,469.14 86.14,460.46 				"/>
				<polygon points="94.81,469.82 94.81,487.17 86.14,478.5 				"/>
				<polygon points="94.81,487.86 94.81,505.21 86.14,496.53 				"/>
			</g>
		</g>
		<g>
			<g>
				<polygon points="224.54,505.51 212.28,517.78 224.54,517.78 				"/>
				<polygon points="211.79,518.27 199.52,530.53 211.79,530.53 				"/>
				<polygon points="199.04,531.02 186.77,543.29 199.04,543.29 				"/>
			</g>
			<g>
				<polygon points="149,505.51 161.26,517.78 149,517.78 				"/>
				<polygon points="161.75,518.27 174.02,530.53 161.75,530.53 				"/>
				<polygon points="174.5,531.02 186.77,543.29 174.5,543.29 				"/>
			</g>
		</g>
		<g>
			<g>
				<polygon points="278.72,451.77 278.72,469.12 287.4,460.44 				"/>
				<polygon points="278.72,469.8 278.72,487.15 287.4,478.48 				"/>
				<polygon points="278.72,487.84 278.72,505.19 287.4,496.51 				"/>
			</g>
			<g>
				<polygon points="225.3,505.19 242.65,505.19 233.98,513.86 				"/>
				<polygon points="243.34,505.19 260.69,505.19 252.01,513.86 				"/>
				<polygon points="261.37,505.19 278.72,505.19 270.05,513.86 				"/>
			</g>
		</g>
		<g>
			<g>
				<polygon points="279.03,375.46 291.3,387.72 291.3,375.46 				"/>
				<polygon points="291.78,388.21 304.05,400.48 304.05,388.21 				"/>
				<polygon points="304.54,400.96 316.8,413.23 316.8,400.96 				"/>
			</g>
			<g>
				<polygon points="279.03,451 291.3,438.74 291.3,451 				"/>
				<polygon points="291.78,438.25 304.05,425.98 304.05,438.25 				"/>
				<polygon points="304.54,425.5 316.8,413.23 316.8,425.5 				"/>
			</g>
		</g>
		<polygon points="186.76,276.48 180.1,283.14 193.42,283.14 		"/>
		<polygon points="90.06,316.54 90.06,325.95 99.47,316.54 		"/>
		<polygon points="50,413.24 56.66,419.9 56.66,406.58 		"/>
		<polygon points="90.06,509.94 99.47,509.94 90.06,500.53 		"/>
		<polygon points="186.76,550 193.42,543.34 180.1,543.34 		"/>
		<polygon points="283.46,509.94 283.46,500.53 274.05,509.94 		"/>
		<polygon points="323.52,413.24 316.86,406.58 316.86,419.9 		"/>
		<polygon points="283.46,316.54 274.05,316.54 283.46,325.95 		"/>
		<path d="M212.33,413.24l21.68-19.57l-29.17,1.49l1.49-29.17l-19.57,21.68l-19.57-21.68l1.49,29.17l-29.17-1.49l21.68,19.57
			l-21.68,19.57l29.17-1.49l-1.49,29.17l19.57-21.68l19.57,21.68l-1.49-29.17l29.17,1.49L212.33,413.24z M186.76,435.92
			l-22.67-22.67l22.67-22.67l22.67,22.67L186.76,435.92z"/>
	</g>
</g>
<g>
</g>
<g>
</g>
<g>
</g>
<g>
</g>
<g>
</g>
<g>
</g>
<g>
</g>
<g>
</g>
<g>
</g>
<g>
</g>
<g>
</g>
<g>
</g>
<g>
</g>
<g>
</g>
<g>
</g>
</svg>
