<?xml version="1.0" encoding="utf-8"?>
<!-- Generator: Adobe Illustrator 27.2.0, SVG Export Plug-In . SVG Version: 6.00 Build 0)  -->
<svg version="1.1" id="Layer_1" xmlns="http://www.w3.org/2000/svg" xmlns:xlink="http://www.w3.org/1999/xlink" x="0px" y="0px"
	 viewBox="0 0 800 600" style="enable-background:new 0 0 800 600;" xml:space="preserve">
<g>
	<g>
		<circle style="fill:none;stroke:#000000;stroke-width:3;stroke-miterlimit:10;" cx="161.78" cy="438.22" r="18.03"/>
		<circle cx="161.78" cy="438.22" r="4.77"/>
		<circle style="fill:none;stroke:#000000;stroke-width:3;stroke-miterlimit:10;" cx="161.78" cy="438.22" r="26.22"/>
		<g>
			<g>
				<g>
					<path d="M161.78,339.93v2.25c7.79,9.22,19.85,28.76,16.66,45.65c-1.66,8.79-7.27,15.72-16.66,20.62v1.67
						c10.23-5.13,16.32-12.54,18.11-22.01C183.34,369.83,169.64,348.71,161.78,339.93z"/>
					<path d="M161.78,339.93v2.25c-7.79,9.22-19.85,28.76-16.66,45.65c1.66,8.79,7.27,15.72,16.66,20.62v1.67
						c-10.23-5.13-16.32-12.54-18.11-22.01C140.21,369.83,153.92,348.71,161.78,339.93z"/>
				</g>
				<g>
					<polygon style="stroke:#000000;stroke-width:0.5;stroke-miterlimit:10;" points="158.42,334.74 162.34,340.02 162.13,340.19 
						158.09,335 					"/>
					<path style="stroke:#000000;stroke-width:0.5;stroke-miterlimit:10;" d="M155.82,337.05l0.27-0.27l4.64,4.66l-0.21,0.21
						c-0.07,0.07-0.14,0.14-0.2,0.21l-4.76-4.54C155.64,337.23,155.73,337.14,155.82,337.05z"/>
					<polygon style="stroke:#000000;stroke-width:0.5;stroke-miterlimit:10;" points="153.66,339.48 153.89,339.2 158.96,343.4 
						158.76,343.63 158.57,343.88 153.43,339.77 					"/>
					<polygon style="stroke:#000000;stroke-width:0.5;stroke-miterlimit:10;" points="151.74,342 151.95,341.71 157.28,345.57 
						157.1,345.82 156.92,346.08 151.54,342.3 					"/>
					<polygon style="stroke:#000000;stroke-width:0.5;stroke-miterlimit:10;" points="150,344.59 150.19,344.29 155.71,347.87 
						155.54,348.14 155.37,348.41 149.81,344.89 					"/>
					<polygon style="stroke:#000000;stroke-width:0.5;stroke-miterlimit:10;" points="148.39,347.24 148.56,346.93 154.23,350.26 
						154.07,350.54 153.91,350.82 148.21,347.54 					"/>
					<polygon style="stroke:#000000;stroke-width:0.5;stroke-miterlimit:10;" points="146.89,349.93 147.05,349.62 152.85,352.73 
						152.7,353.02 152.55,353.3 146.72,350.24 					"/>
					<polygon style="stroke:#000000;stroke-width:0.5;stroke-miterlimit:10;" points="151.41,355.55 151.27,355.84 145.34,352.98 
						145.49,352.67 145.65,352.35 151.55,355.26 					"/>
					<polygon style="stroke:#000000;stroke-width:0.5;stroke-miterlimit:10;" points="150.21,358.13 150.08,358.42 144.06,355.77 
						144.2,355.45 144.34,355.13 150.34,357.83 					"/>
					<polygon style="stroke:#000000;stroke-width:0.5;stroke-miterlimit:10;" points="149.09,360.75 148.97,361.05 142.87,358.59 
						143,358.27 143.13,357.95 149.21,360.45 					"/>
					<polygon style="stroke:#000000;stroke-width:0.5;stroke-miterlimit:10;" points="148.06,363.4 147.95,363.7 141.77,361.46 
						141.89,361.13 142.01,360.8 148.18,363.1 					"/>
					<polygon style="stroke:#000000;stroke-width:0.5;stroke-miterlimit:10;" points="147.13,366.08 147.03,366.39 140.77,364.37 
						140.88,364.03 140.99,363.7 147.23,365.78 					"/>
					<polygon style="stroke:#000000;stroke-width:0.5;stroke-miterlimit:10;" points="146.3,368.79 146.21,369.1 139.88,367.31 
						139.97,366.97 140.07,366.64 146.39,368.48 					"/>
					<polygon style="stroke:#000000;stroke-width:0.5;stroke-miterlimit:10;" points="145.56,371.53 145.49,371.84 139.09,370.3 
						139.18,369.95 139.26,369.61 145.64,371.21 					"/>
					<polygon style="stroke:#000000;stroke-width:0.5;stroke-miterlimit:10;" points="144.95,374.27 144.89,374.59 138.43,373.32 
						138.5,372.98 138.57,372.63 145.01,373.96 					"/>
					<polygon style="stroke:#000000;stroke-width:0.5;stroke-miterlimit:10;" points="144.46,377.03 144.42,377.35 137.91,376.39 
						137.96,376.04 138.01,375.69 144.51,376.72 					"/>
					<polygon style="stroke:#000000;stroke-width:0.5;stroke-miterlimit:10;" points="144.11,379.79 144.08,380.11 137.53,379.5 
						137.57,379.15 137.6,378.79 144.15,379.48 					"/>
					<polygon style="stroke:#000000;stroke-width:0.5;stroke-miterlimit:10;" points="143.92,382.55 143.91,382.86 137.33,382.65 
						137.35,382.29 137.36,381.93 143.94,382.24 					"/>
					<polygon style="stroke:#000000;stroke-width:0.5;stroke-miterlimit:10;" points="143.9,384.97 143.9,385.28 143.91,385.59 
						137.34,385.83 137.33,385.47 137.32,385.11 					"/>
					<polygon style="stroke:#000000;stroke-width:0.5;stroke-miterlimit:10;" points="144.09,387.97 144.12,388.27 137.59,389.05 
						137.55,388.68 137.51,388.31 144.05,387.67 					"/>
					<path style="stroke:#000000;stroke-width:0.5;stroke-miterlimit:10;" d="M144.49,390.59c0.02,0.1,0.04,0.2,0.06,0.29
						l-6.43,1.38c-0.03-0.12-0.05-0.24-0.08-0.37l-0.07-0.37l6.46-1.23L144.49,390.59z"/>
					<polygon style="stroke:#000000;stroke-width:0.5;stroke-miterlimit:10;" points="145.14,393.11 145.23,393.39 138.98,395.46 
						138.87,395.1 138.75,394.74 145.05,392.83 					"/>
					<path style="stroke:#000000;stroke-width:0.5;stroke-miterlimit:10;" d="M146.05,395.49c0.04,0.09,0.08,0.17,0.12,0.26
						l-5.94,2.83c-0.06-0.12-0.12-0.23-0.16-0.35l-0.15-0.35l6.02-2.66L146.05,395.49z"/>
					<polygon style="stroke:#000000;stroke-width:0.5;stroke-miterlimit:10;" points="147.25,397.69 147.4,397.93 141.92,401.56 
						141.7,401.23 141.49,400.9 147.09,397.45 					"/>
				</g>
				<g>
					<polygon style="stroke:#000000;stroke-width:0.5;stroke-miterlimit:10;" points="165.14,334.74 161.21,340.02 161.42,340.19 
						165.46,335 					"/>
					<path style="stroke:#000000;stroke-width:0.5;stroke-miterlimit:10;" d="M167.73,337.05l-0.27-0.27l-4.64,4.66l0.21,0.21
						c0.07,0.07,0.14,0.14,0.2,0.21l4.76-4.54C167.91,337.23,167.82,337.14,167.73,337.05z"/>
					<polygon style="stroke:#000000;stroke-width:0.5;stroke-miterlimit:10;" points="169.89,339.48 169.66,339.2 164.6,343.4 
						164.79,343.63 164.99,343.88 170.12,339.77 					"/>
					<polygon style="stroke:#000000;stroke-width:0.5;stroke-miterlimit:10;" points="171.81,342 171.6,341.71 166.27,345.57 
						166.45,345.82 166.63,346.08 172.01,342.3 					"/>
					<polygon style="stroke:#000000;stroke-width:0.5;stroke-miterlimit:10;" points="173.55,344.59 173.36,344.29 167.84,347.87 
						168.01,348.14 168.19,348.41 173.75,344.89 					"/>
					<polygon style="stroke:#000000;stroke-width:0.5;stroke-miterlimit:10;" points="175.17,347.24 174.99,346.93 169.32,350.26 
						169.48,350.54 169.64,350.82 175.34,347.54 					"/>
					<polygon style="stroke:#000000;stroke-width:0.5;stroke-miterlimit:10;" points="176.66,349.93 176.5,349.62 170.7,352.73 
						170.85,353.02 171.01,353.3 176.83,350.24 					"/>
					<polygon style="stroke:#000000;stroke-width:0.5;stroke-miterlimit:10;" points="172.14,355.55 172.29,355.84 178.21,352.98 
						178.06,352.67 177.9,352.35 172,355.26 					"/>
					<polygon style="stroke:#000000;stroke-width:0.5;stroke-miterlimit:10;" points="173.35,358.13 173.48,358.42 179.49,355.77 
						179.35,355.45 179.21,355.13 173.21,357.83 					"/>
					<polygon style="stroke:#000000;stroke-width:0.5;stroke-miterlimit:10;" points="174.46,360.75 174.58,361.05 180.69,358.59 
						180.56,358.27 180.42,357.95 174.34,360.45 					"/>
					<polygon style="stroke:#000000;stroke-width:0.5;stroke-miterlimit:10;" points="175.49,363.4 175.6,363.7 181.78,361.46 
						181.66,361.13 181.54,360.8 175.38,363.1 					"/>
					<polygon style="stroke:#000000;stroke-width:0.5;stroke-miterlimit:10;" points="176.42,366.08 176.52,366.39 182.78,364.37 
						182.67,364.03 182.56,363.7 176.32,365.78 					"/>
					<polygon style="stroke:#000000;stroke-width:0.5;stroke-miterlimit:10;" points="177.26,368.79 177.35,369.1 183.68,367.31 
						183.58,366.97 183.48,366.64 177.17,368.48 					"/>
					<polygon style="stroke:#000000;stroke-width:0.5;stroke-miterlimit:10;" points="177.99,371.53 178.06,371.84 184.46,370.3 
						184.38,369.95 184.29,369.61 177.91,371.21 					"/>
					<polygon style="stroke:#000000;stroke-width:0.5;stroke-miterlimit:10;" points="178.6,374.27 178.66,374.59 185.12,373.32 
						185.05,372.98 184.98,372.63 178.54,373.96 					"/>
					<polygon style="stroke:#000000;stroke-width:0.5;stroke-miterlimit:10;" points="179.09,377.03 179.14,377.35 185.64,376.39 
						185.59,376.04 185.54,375.69 179.04,376.72 					"/>
					<polygon style="stroke:#000000;stroke-width:0.5;stroke-miterlimit:10;" points="179.44,379.79 179.47,380.11 186.02,379.5 
						185.98,379.15 185.95,378.79 179.41,379.48 					"/>
					<polygon style="stroke:#000000;stroke-width:0.5;stroke-miterlimit:10;" points="179.63,382.55 179.65,382.86 186.22,382.65 
						186.2,382.29 186.19,381.93 179.62,382.24 					"/>
					<polygon style="stroke:#000000;stroke-width:0.5;stroke-miterlimit:10;" points="179.66,384.97 179.65,385.28 179.64,385.59 
						186.21,385.83 186.23,385.47 186.23,385.11 					"/>
					<polygon style="stroke:#000000;stroke-width:0.5;stroke-miterlimit:10;" points="179.47,387.97 179.43,388.27 185.96,389.05 
						186.01,388.68 186.05,388.31 179.5,387.67 					"/>
					<path style="stroke:#000000;stroke-width:0.5;stroke-miterlimit:10;" d="M179.07,390.59c-0.02,0.1-0.04,0.2-0.06,0.29
						l6.43,1.38c0.03-0.12,0.05-0.24,0.08-0.37l0.07-0.37l-6.46-1.23L179.07,390.59z"/>
					<polygon style="stroke:#000000;stroke-width:0.5;stroke-miterlimit:10;" points="178.41,393.11 178.32,393.39 184.57,395.46 
						184.68,395.1 184.8,394.74 178.51,392.83 					"/>
					<path style="stroke:#000000;stroke-width:0.5;stroke-miterlimit:10;" d="M177.5,395.49c-0.04,0.09-0.08,0.17-0.12,0.26
						l5.94,2.83c0.06-0.12,0.12-0.23,0.16-0.35l0.15-0.35l-6.02-2.66L177.5,395.49z"/>
					<polygon style="stroke:#000000;stroke-width:0.5;stroke-miterlimit:10;" points="176.3,397.69 176.15,397.93 181.64,401.56 
						181.85,401.23 182.06,400.9 176.46,397.45 					"/>
				</g>
			</g>
			<g>
				<line style="fill:none;stroke:#000000;stroke-width:2;stroke-miterlimit:10;" x1="161.78" y1="329.99" x2="161.78" y2="340.9"/>
				
					<line style="fill:none;stroke:#000000;stroke-width:2;stroke-miterlimit:10;" x1="166.32" y1="333.78" x2="161.69" y2="340.28"/>
				
					<line style="fill:none;stroke:#000000;stroke-width:2;stroke-miterlimit:10;" x1="157.24" y1="333.78" x2="161.87" y2="340.28"/>
				<circle cx="161.78" cy="328.28" r="1.84"/>
				<circle cx="166.52" cy="333.47" r="1.84"/>
				<circle cx="156.99" cy="333.47" r="1.84"/>
			</g>
		</g>
		<g>
			<g>
				<g>
					<path d="M63.48,438.22h2.25c9.22-7.79,28.76-19.85,45.65-16.66c8.79,1.66,15.72,7.27,20.62,16.66h1.67
						c-5.13-10.23-12.54-16.32-22.01-18.11C93.38,416.66,72.26,430.36,63.48,438.22z"/>
					<path d="M63.48,438.22h2.25c9.22,7.79,28.76,19.85,45.65,16.66c8.79-1.66,15.72-7.27,20.62-16.66h1.67
						c-5.13,10.23-12.54,16.32-22.01,18.11C93.38,459.79,72.26,446.08,63.48,438.22z"/>
				</g>
				<g>
					<polygon style="stroke:#000000;stroke-width:0.5;stroke-miterlimit:10;" points="58.3,441.58 63.58,437.66 63.74,437.87 
						58.55,441.91 					"/>
					<path style="stroke:#000000;stroke-width:0.5;stroke-miterlimit:10;" d="M60.6,444.18l-0.27-0.27l4.66-4.64l0.21,0.21
						c0.07,0.07,0.14,0.14,0.21,0.2l-4.54,4.76C60.78,444.36,60.69,444.27,60.6,444.18z"/>
					<polygon style="stroke:#000000;stroke-width:0.5;stroke-miterlimit:10;" points="63.03,446.34 62.75,446.11 66.95,441.04 
						67.19,441.24 67.43,441.43 63.32,446.57 					"/>
					<polygon style="stroke:#000000;stroke-width:0.5;stroke-miterlimit:10;" points="65.56,448.26 65.27,448.05 69.12,442.72 
						69.37,442.9 69.63,443.08 65.85,448.46 					"/>
					<polygon style="stroke:#000000;stroke-width:0.5;stroke-miterlimit:10;" points="68.14,450 67.85,449.81 71.42,444.29 
						71.69,444.46 71.96,444.63 68.44,450.19 					"/>
					<polygon style="stroke:#000000;stroke-width:0.5;stroke-miterlimit:10;" points="70.79,451.61 70.48,451.44 73.82,445.77 
						74.09,445.93 74.37,446.09 71.09,451.79 					"/>
					<polygon style="stroke:#000000;stroke-width:0.5;stroke-miterlimit:10;" points="73.48,453.11 73.17,452.95 76.28,447.15 
						76.57,447.3 76.85,447.45 73.79,453.28 					"/>
					<polygon style="stroke:#000000;stroke-width:0.5;stroke-miterlimit:10;" points="79.1,448.59 79.39,448.73 76.53,454.66 
						76.22,454.51 75.91,454.35 78.81,448.45 					"/>
					<polygon style="stroke:#000000;stroke-width:0.5;stroke-miterlimit:10;" points="81.68,449.79 81.98,449.92 79.32,455.94 
						79,455.8 78.68,455.66 81.38,449.66 					"/>
					<polygon style="stroke:#000000;stroke-width:0.5;stroke-miterlimit:10;" points="84.3,450.91 84.6,451.03 82.15,457.13 
						81.82,457 81.5,456.87 84,450.79 					"/>
					<polygon style="stroke:#000000;stroke-width:0.5;stroke-miterlimit:10;" points="86.95,451.94 87.26,452.05 85.01,458.23 
						84.68,458.11 84.36,457.99 86.65,451.82 					"/>
					<polygon style="stroke:#000000;stroke-width:0.5;stroke-miterlimit:10;" points="89.64,452.87 89.94,452.97 87.92,459.23 
						87.58,459.12 87.25,459.01 89.33,452.77 					"/>
					<polygon style="stroke:#000000;stroke-width:0.5;stroke-miterlimit:10;" points="92.35,453.7 92.66,453.79 90.86,460.12 
						90.53,460.03 90.19,459.93 92.04,453.61 					"/>
					<polygon style="stroke:#000000;stroke-width:0.5;stroke-miterlimit:10;" points="95.08,454.44 95.39,454.51 93.85,460.91 
						93.51,460.82 93.17,460.74 94.77,454.36 					"/>
					<polygon style="stroke:#000000;stroke-width:0.5;stroke-miterlimit:10;" points="97.83,455.05 98.14,455.11 96.88,461.57 
						96.53,461.5 96.18,461.43 97.51,454.99 					"/>
					<polygon style="stroke:#000000;stroke-width:0.5;stroke-miterlimit:10;" points="100.58,455.54 100.9,455.58 99.94,462.09 
						99.59,462.04 99.24,461.99 100.27,455.49 					"/>
					<polygon style="stroke:#000000;stroke-width:0.5;stroke-miterlimit:10;" points="103.35,455.89 103.66,455.92 103.05,462.47 
						102.7,462.43 102.34,462.4 103.03,455.85 					"/>
					<polygon style="stroke:#000000;stroke-width:0.5;stroke-miterlimit:10;" points="106.1,456.08 106.41,456.09 106.2,462.67 
						105.84,462.65 105.48,462.64 105.79,456.06 					"/>
					<polygon style="stroke:#000000;stroke-width:0.5;stroke-miterlimit:10;" points="108.52,456.1 108.83,456.1 109.14,456.09 
						109.39,462.66 109.02,462.67 108.66,462.68 					"/>
					<polygon style="stroke:#000000;stroke-width:0.5;stroke-miterlimit:10;" points="111.52,455.91 111.82,455.88 112.6,462.41 
						112.23,462.45 111.86,462.49 111.22,455.95 					"/>
					<path style="stroke:#000000;stroke-width:0.5;stroke-miterlimit:10;" d="M114.15,455.51c0.1-0.02,0.2-0.04,0.29-0.06l1.38,6.43
						c-0.12,0.03-0.24,0.05-0.37,0.08l-0.37,0.07l-1.23-6.46L114.15,455.51z"/>
					<polygon style="stroke:#000000;stroke-width:0.5;stroke-miterlimit:10;" points="116.66,454.86 116.94,454.77 119.02,461.02 
						118.65,461.13 118.29,461.25 116.39,454.95 					"/>
					<path style="stroke:#000000;stroke-width:0.5;stroke-miterlimit:10;" d="M119.05,453.95c0.09-0.04,0.17-0.08,0.26-0.12
						l2.83,5.94c-0.12,0.06-0.23,0.12-0.35,0.16l-0.35,0.15l-2.66-6.02L119.05,453.95z"/>
					<polygon style="stroke:#000000;stroke-width:0.5;stroke-miterlimit:10;" points="121.24,452.75 121.48,452.6 125.11,458.08 
						124.78,458.3 124.45,458.51 121,452.91 					"/>
				</g>
				<g>
					<polygon style="stroke:#000000;stroke-width:0.5;stroke-miterlimit:10;" points="58.3,434.86 63.58,438.79 63.74,438.58 
						58.55,434.54 					"/>
					<path style="stroke:#000000;stroke-width:0.5;stroke-miterlimit:10;" d="M60.6,432.27l-0.27,0.27l4.66,4.64l0.21-0.21
						c0.07-0.07,0.14-0.14,0.21-0.2l-4.54-4.76C60.78,432.09,60.69,432.18,60.6,432.27z"/>
					<polygon style="stroke:#000000;stroke-width:0.5;stroke-miterlimit:10;" points="63.03,430.11 62.75,430.34 66.95,435.4 
						67.19,435.21 67.43,435.01 63.32,429.88 					"/>
					<polygon style="stroke:#000000;stroke-width:0.5;stroke-miterlimit:10;" points="65.56,428.19 65.27,428.4 69.12,433.73 
						69.37,433.55 69.63,433.37 65.85,427.99 					"/>
					<polygon style="stroke:#000000;stroke-width:0.5;stroke-miterlimit:10;" points="68.14,426.45 67.85,426.64 71.42,432.16 
						71.69,431.99 71.96,431.81 68.44,426.25 					"/>
					<polygon style="stroke:#000000;stroke-width:0.5;stroke-miterlimit:10;" points="70.79,424.83 70.48,425.01 73.82,430.68 
						74.09,430.52 74.37,430.36 71.09,424.66 					"/>
					<polygon style="stroke:#000000;stroke-width:0.5;stroke-miterlimit:10;" points="73.48,423.34 73.17,423.5 76.28,429.3 
						76.57,429.15 76.85,428.99 73.79,423.17 					"/>
					<polygon style="stroke:#000000;stroke-width:0.5;stroke-miterlimit:10;" points="79.1,427.86 79.39,427.71 76.53,421.79 
						76.22,421.94 75.91,422.1 78.81,428 					"/>
					<polygon style="stroke:#000000;stroke-width:0.5;stroke-miterlimit:10;" points="81.68,426.65 81.98,426.52 79.32,420.51 
						79,420.65 78.68,420.79 81.38,426.79 					"/>
					<polygon style="stroke:#000000;stroke-width:0.5;stroke-miterlimit:10;" points="84.3,425.54 84.6,425.42 82.15,419.31 
						81.82,419.44 81.5,419.58 84,425.66 					"/>
					<polygon style="stroke:#000000;stroke-width:0.5;stroke-miterlimit:10;" points="86.95,424.51 87.26,424.4 85.01,418.22 
						84.68,418.34 84.36,418.46 86.65,424.62 					"/>
					<polygon style="stroke:#000000;stroke-width:0.5;stroke-miterlimit:10;" points="89.64,423.58 89.94,423.48 87.92,417.22 
						87.58,417.33 87.25,417.44 89.33,423.68 					"/>
					<polygon style="stroke:#000000;stroke-width:0.5;stroke-miterlimit:10;" points="92.35,422.74 92.66,422.65 90.86,416.32 
						90.53,416.42 90.19,416.52 92.04,422.83 					"/>
					<polygon style="stroke:#000000;stroke-width:0.5;stroke-miterlimit:10;" points="95.08,422.01 95.39,421.94 93.85,415.54 
						93.51,415.62 93.17,415.71 94.77,422.09 					"/>
					<polygon style="stroke:#000000;stroke-width:0.5;stroke-miterlimit:10;" points="97.83,421.4 98.14,421.34 96.88,414.88 
						96.53,414.95 96.18,415.02 97.51,421.46 					"/>
					<polygon style="stroke:#000000;stroke-width:0.5;stroke-miterlimit:10;" points="100.58,420.91 100.9,420.86 99.94,414.36 
						99.59,414.41 99.24,414.46 100.27,420.96 					"/>
					<polygon style="stroke:#000000;stroke-width:0.5;stroke-miterlimit:10;" points="103.35,420.56 103.66,420.53 103.05,413.98 
						102.7,414.02 102.34,414.05 103.03,420.59 					"/>
					<polygon style="stroke:#000000;stroke-width:0.5;stroke-miterlimit:10;" points="106.1,420.37 106.41,420.35 106.2,413.78 
						105.84,413.8 105.48,413.81 105.79,420.38 					"/>
					<polygon style="stroke:#000000;stroke-width:0.5;stroke-miterlimit:10;" points="108.52,420.34 108.83,420.35 109.14,420.36 
						109.39,413.79 109.02,413.77 108.66,413.77 					"/>
					<polygon style="stroke:#000000;stroke-width:0.5;stroke-miterlimit:10;" points="111.52,420.53 111.82,420.57 112.6,414.04 
						112.23,413.99 111.86,413.95 111.22,420.5 					"/>
					<path style="stroke:#000000;stroke-width:0.5;stroke-miterlimit:10;" d="M114.15,420.93c0.1,0.02,0.2,0.04,0.29,0.06l1.38-6.43
						c-0.12-0.03-0.24-0.05-0.37-0.08l-0.37-0.07l-1.23,6.46L114.15,420.93z"/>
					<polygon style="stroke:#000000;stroke-width:0.5;stroke-miterlimit:10;" points="116.66,421.59 116.94,421.68 119.02,415.43 
						118.65,415.32 118.29,415.2 116.39,421.49 					"/>
					<path style="stroke:#000000;stroke-width:0.5;stroke-miterlimit:10;" d="M119.05,422.5c0.09,0.04,0.17,0.08,0.26,0.12
						l2.83-5.94c-0.12-0.06-0.23-0.12-0.35-0.16l-0.35-0.15l-2.66,6.02L119.05,422.5z"/>
					<polygon style="stroke:#000000;stroke-width:0.5;stroke-miterlimit:10;" points="121.24,423.7 121.48,423.85 125.11,418.36 
						124.78,418.15 124.45,417.94 121,423.54 					"/>
				</g>
			</g>
			<g>
				<line style="fill:none;stroke:#000000;stroke-width:2;stroke-miterlimit:10;" x1="53.54" y1="438.22" x2="64.45" y2="438.22"/>
				<line style="fill:none;stroke:#000000;stroke-width:2;stroke-miterlimit:10;" x1="57.33" y1="433.68" x2="63.84" y2="438.31"/>
				<line style="fill:none;stroke:#000000;stroke-width:2;stroke-miterlimit:10;" x1="57.33" y1="442.76" x2="63.84" y2="438.13"/>
				<circle cx="51.84" cy="438.22" r="1.84"/>
				<circle cx="57.02" cy="433.48" r="1.84"/>
				<circle cx="57.02" cy="443.01" r="1.84"/>
			</g>
		</g>
		<g>
			<g>
				<g>
					<path d="M161.78,536.52v-2.25c-7.79-9.22-19.85-28.76-16.66-45.65c1.66-8.79,7.27-15.72,16.66-20.62v-1.67
						c-10.23,5.13-16.32,12.54-18.11,22.01C140.21,506.62,153.92,527.74,161.78,536.52z"/>
					<path d="M161.78,536.52v-2.25c7.79-9.22,19.85-28.76,16.66-45.65c-1.66-8.79-7.27-15.72-16.66-20.62v-1.67
						c10.23,5.13,16.32,12.54,18.11,22.01C183.34,506.62,169.64,527.74,161.78,536.52z"/>
				</g>
				<g>
					<polygon style="stroke:#000000;stroke-width:0.5;stroke-miterlimit:10;" points="165.14,541.7 161.21,536.42 161.42,536.26 
						165.46,541.45 					"/>
					<path style="stroke:#000000;stroke-width:0.5;stroke-miterlimit:10;" d="M167.73,539.4l-0.27,0.27l-4.64-4.66l0.21-0.21
						c0.07-0.07,0.14-0.14,0.2-0.21l4.76,4.54C167.91,539.22,167.82,539.31,167.73,539.4z"/>
					<polygon style="stroke:#000000;stroke-width:0.5;stroke-miterlimit:10;" points="169.89,536.97 169.66,537.25 164.6,533.05 
						164.79,532.81 164.99,532.57 170.12,536.68 					"/>
					<polygon style="stroke:#000000;stroke-width:0.5;stroke-miterlimit:10;" points="171.81,534.44 171.6,534.73 166.27,530.88 
						166.45,530.63 166.63,530.37 172.01,534.15 					"/>
					<polygon style="stroke:#000000;stroke-width:0.5;stroke-miterlimit:10;" points="173.55,531.86 173.36,532.15 167.84,528.58 
						168.01,528.31 168.19,528.04 173.75,531.56 					"/>
					<polygon style="stroke:#000000;stroke-width:0.5;stroke-miterlimit:10;" points="175.17,529.21 174.99,529.52 169.32,526.18 
						169.48,525.91 169.64,525.63 175.34,528.91 					"/>
					<polygon style="stroke:#000000;stroke-width:0.5;stroke-miterlimit:10;" points="176.66,526.52 176.5,526.83 170.7,523.72 
						170.85,523.43 171.01,523.15 176.83,526.21 					"/>
					<polygon style="stroke:#000000;stroke-width:0.5;stroke-miterlimit:10;" points="172.14,520.9 172.29,520.61 178.21,523.47 
						178.06,523.78 177.9,524.09 172,521.19 					"/>
					<polygon style="stroke:#000000;stroke-width:0.5;stroke-miterlimit:10;" points="173.35,518.32 173.48,518.02 179.49,520.68 
						179.35,521 179.21,521.32 173.21,518.62 					"/>
					<polygon style="stroke:#000000;stroke-width:0.5;stroke-miterlimit:10;" points="174.46,515.7 174.58,515.4 180.69,517.85 
						180.56,518.18 180.42,518.5 174.34,516 					"/>
					<polygon style="stroke:#000000;stroke-width:0.5;stroke-miterlimit:10;" points="175.49,513.05 175.6,512.74 181.78,514.99 
						181.66,515.32 181.54,515.64 175.38,513.35 					"/>
					<polygon style="stroke:#000000;stroke-width:0.5;stroke-miterlimit:10;" points="176.42,510.36 176.52,510.06 182.78,512.08 
						182.67,512.42 182.56,512.75 176.32,510.67 					"/>
					<polygon style="stroke:#000000;stroke-width:0.5;stroke-miterlimit:10;" points="177.26,507.65 177.35,507.34 183.68,509.14 
						183.58,509.47 183.48,509.81 177.17,507.96 					"/>
					<polygon style="stroke:#000000;stroke-width:0.5;stroke-miterlimit:10;" points="177.99,504.92 178.06,504.61 184.46,506.15 
						184.38,506.49 184.29,506.83 177.91,505.23 					"/>
					<polygon style="stroke:#000000;stroke-width:0.5;stroke-miterlimit:10;" points="178.6,502.17 178.66,501.86 185.12,503.12 
						185.05,503.47 184.98,503.82 178.54,502.49 					"/>
					<polygon style="stroke:#000000;stroke-width:0.5;stroke-miterlimit:10;" points="179.09,499.42 179.14,499.1 185.64,500.06 
						185.59,500.41 185.54,500.76 179.04,499.73 					"/>
					<polygon style="stroke:#000000;stroke-width:0.5;stroke-miterlimit:10;" points="179.44,496.65 179.47,496.34 186.02,496.95 
						185.98,497.3 185.95,497.66 179.41,496.97 					"/>
					<polygon style="stroke:#000000;stroke-width:0.5;stroke-miterlimit:10;" points="179.63,493.9 179.65,493.59 186.22,493.8 
						186.2,494.16 186.19,494.52 179.62,494.21 					"/>
					<polygon style="stroke:#000000;stroke-width:0.5;stroke-miterlimit:10;" points="179.66,491.48 179.65,491.17 179.64,490.86 
						186.21,490.61 186.23,490.98 186.23,491.34 					"/>
					<polygon style="stroke:#000000;stroke-width:0.5;stroke-miterlimit:10;" points="179.47,488.48 179.43,488.18 185.96,487.4 
						186.01,487.77 186.05,488.14 179.5,488.78 					"/>
					<path style="stroke:#000000;stroke-width:0.5;stroke-miterlimit:10;" d="M179.07,485.85c-0.02-0.1-0.04-0.2-0.06-0.29
						l6.43-1.38c0.03,0.12,0.05,0.24,0.08,0.37l0.07,0.37l-6.46,1.23L179.07,485.85z"/>
					<polygon style="stroke:#000000;stroke-width:0.5;stroke-miterlimit:10;" points="178.41,483.34 178.32,483.06 184.57,480.98 
						184.68,481.35 184.8,481.71 178.51,483.61 					"/>
					<path style="stroke:#000000;stroke-width:0.5;stroke-miterlimit:10;" d="M177.5,480.95c-0.04-0.09-0.08-0.17-0.12-0.26
						l5.94-2.83c0.06,0.12,0.12,0.23,0.16,0.35l0.15,0.35l-6.02,2.66L177.5,480.95z"/>
					<polygon style="stroke:#000000;stroke-width:0.5;stroke-miterlimit:10;" points="176.3,478.76 176.15,478.52 181.64,474.89 
						181.85,475.22 182.06,475.55 176.46,479 					"/>
				</g>
				<g>
					<polygon style="stroke:#000000;stroke-width:0.5;stroke-miterlimit:10;" points="158.42,541.7 162.34,536.42 162.13,536.26 
						158.09,541.45 					"/>
					<path style="stroke:#000000;stroke-width:0.5;stroke-miterlimit:10;" d="M155.82,539.4l0.27,0.27l4.64-4.66l-0.21-0.21
						c-0.07-0.07-0.14-0.14-0.2-0.21l-4.76,4.54C155.64,539.22,155.73,539.31,155.82,539.4z"/>
					<polygon style="stroke:#000000;stroke-width:0.5;stroke-miterlimit:10;" points="153.66,536.97 153.89,537.25 158.96,533.05 
						158.76,532.81 158.57,532.57 153.43,536.68 					"/>
					<polygon style="stroke:#000000;stroke-width:0.5;stroke-miterlimit:10;" points="151.74,534.44 151.95,534.73 157.28,530.88 
						157.1,530.63 156.92,530.37 151.54,534.15 					"/>
					<polygon style="stroke:#000000;stroke-width:0.5;stroke-miterlimit:10;" points="150,531.86 150.19,532.15 155.71,528.58 
						155.54,528.31 155.37,528.04 149.81,531.56 					"/>
					<polygon style="stroke:#000000;stroke-width:0.5;stroke-miterlimit:10;" points="148.39,529.21 148.56,529.52 154.23,526.18 
						154.07,525.91 153.91,525.63 148.21,528.91 					"/>
					<polygon style="stroke:#000000;stroke-width:0.5;stroke-miterlimit:10;" points="146.89,526.52 147.05,526.83 152.85,523.72 
						152.7,523.43 152.55,523.15 146.72,526.21 					"/>
					<polygon style="stroke:#000000;stroke-width:0.5;stroke-miterlimit:10;" points="151.41,520.9 151.27,520.61 145.34,523.47 
						145.49,523.78 145.65,524.09 151.55,521.19 					"/>
					<polygon style="stroke:#000000;stroke-width:0.5;stroke-miterlimit:10;" points="150.21,518.32 150.08,518.02 144.06,520.68 
						144.2,521 144.34,521.32 150.34,518.62 					"/>
					<polygon style="stroke:#000000;stroke-width:0.5;stroke-miterlimit:10;" points="149.09,515.7 148.97,515.4 142.87,517.85 
						143,518.18 143.13,518.5 149.21,516 					"/>
					<polygon style="stroke:#000000;stroke-width:0.5;stroke-miterlimit:10;" points="148.06,513.05 147.95,512.74 141.77,514.99 
						141.89,515.32 142.01,515.64 148.18,513.35 					"/>
					<polygon style="stroke:#000000;stroke-width:0.5;stroke-miterlimit:10;" points="147.13,510.36 147.03,510.06 140.77,512.08 
						140.88,512.42 140.99,512.75 147.23,510.67 					"/>
					<polygon style="stroke:#000000;stroke-width:0.5;stroke-miterlimit:10;" points="146.3,507.65 146.21,507.34 139.88,509.14 
						139.97,509.47 140.07,509.81 146.39,507.96 					"/>
					<polygon style="stroke:#000000;stroke-width:0.5;stroke-miterlimit:10;" points="145.56,504.92 145.49,504.61 139.09,506.15 
						139.18,506.49 139.26,506.83 145.64,505.23 					"/>
					<polygon style="stroke:#000000;stroke-width:0.5;stroke-miterlimit:10;" points="144.95,502.17 144.89,501.86 138.43,503.12 
						138.5,503.47 138.57,503.82 145.01,502.49 					"/>
					<polygon style="stroke:#000000;stroke-width:0.5;stroke-miterlimit:10;" points="144.46,499.42 144.42,499.1 137.91,500.06 
						137.96,500.41 138.01,500.76 144.51,499.73 					"/>
					<polygon style="stroke:#000000;stroke-width:0.5;stroke-miterlimit:10;" points="144.11,496.65 144.08,496.34 137.53,496.95 
						137.57,497.3 137.6,497.66 144.15,496.97 					"/>
					<polygon style="stroke:#000000;stroke-width:0.5;stroke-miterlimit:10;" points="143.92,493.9 143.91,493.59 137.33,493.8 
						137.35,494.16 137.36,494.52 143.94,494.21 					"/>
					<polygon style="stroke:#000000;stroke-width:0.5;stroke-miterlimit:10;" points="143.9,491.48 143.9,491.17 143.91,490.86 
						137.34,490.61 137.33,490.98 137.32,491.34 					"/>
					<polygon style="stroke:#000000;stroke-width:0.5;stroke-miterlimit:10;" points="144.09,488.48 144.12,488.18 137.59,487.4 
						137.55,487.77 137.51,488.14 144.05,488.78 					"/>
					<path style="stroke:#000000;stroke-width:0.5;stroke-miterlimit:10;" d="M144.49,485.85c0.02-0.1,0.04-0.2,0.06-0.29
						l-6.43-1.38c-0.03,0.12-0.05,0.24-0.08,0.37l-0.07,0.37l6.46,1.23L144.49,485.85z"/>
					<polygon style="stroke:#000000;stroke-width:0.5;stroke-miterlimit:10;" points="145.14,483.34 145.23,483.06 138.98,480.98 
						138.87,481.35 138.75,481.71 145.05,483.61 					"/>
					<path style="stroke:#000000;stroke-width:0.5;stroke-miterlimit:10;" d="M146.05,480.95c0.04-0.09,0.08-0.17,0.12-0.26
						l-5.94-2.83c-0.06,0.12-0.12,0.23-0.16,0.35l-0.15,0.35l6.02,2.66L146.05,480.95z"/>
					<polygon style="stroke:#000000;stroke-width:0.5;stroke-miterlimit:10;" points="147.25,478.76 147.4,478.52 141.92,474.89 
						141.7,475.22 141.49,475.55 147.09,479 					"/>
				</g>
			</g>
			<g>
				
					<line style="fill:none;stroke:#000000;stroke-width:2;stroke-miterlimit:10;" x1="161.78" y1="546.46" x2="161.78" y2="535.55"/>
				
					<line style="fill:none;stroke:#000000;stroke-width:2;stroke-miterlimit:10;" x1="157.24" y1="542.67" x2="161.87" y2="536.16"/>
				
					<line style="fill:none;stroke:#000000;stroke-width:2;stroke-miterlimit:10;" x1="166.32" y1="542.67" x2="161.69" y2="536.16"/>
				<circle cx="161.78" cy="548.16" r="1.84"/>
				<circle cx="157.03" cy="542.98" r="1.84"/>
				<circle cx="166.57" cy="542.98" r="1.84"/>
			</g>
		</g>
		<g>
			<g>
				<g>
					<path d="M260.07,438.22h-2.25c-9.22,7.79-28.76,19.85-45.65,16.66c-8.79-1.66-15.72-7.27-20.62-16.66h-1.67
						c5.13,10.23,12.54,16.32,22.01,18.11C230.17,459.79,251.29,446.08,260.07,438.22z"/>
					<path d="M260.07,438.22h-2.25c-9.22-7.79-28.76-19.85-45.65-16.66c-8.79,1.66-15.72,7.27-20.62,16.66h-1.67
						c5.13-10.23,12.54-16.32,22.01-18.11C230.17,416.66,251.29,430.36,260.07,438.22z"/>
				</g>
				<g>
					<polygon style="stroke:#000000;stroke-width:0.5;stroke-miterlimit:10;" points="265.26,434.86 259.98,438.79 259.81,438.58 
						265,434.54 					"/>
					<path style="stroke:#000000;stroke-width:0.5;stroke-miterlimit:10;" d="M262.95,432.27l0.27,0.27l-4.66,4.64l-0.21-0.21
						c-0.07-0.07-0.14-0.14-0.21-0.2l4.54-4.76C262.77,432.09,262.86,432.18,262.95,432.27z"/>
					<polygon style="stroke:#000000;stroke-width:0.5;stroke-miterlimit:10;" points="260.52,430.11 260.8,430.34 256.6,435.4 
						256.37,435.21 256.12,435.01 260.23,429.88 					"/>
					<polygon style="stroke:#000000;stroke-width:0.5;stroke-miterlimit:10;" points="258,428.19 258.29,428.4 254.43,433.73 
						254.18,433.55 253.92,433.37 257.7,427.99 					"/>
					<polygon style="stroke:#000000;stroke-width:0.5;stroke-miterlimit:10;" points="255.41,426.45 255.71,426.64 252.13,432.16 
						251.86,431.99 251.59,431.81 255.11,426.25 					"/>
					<polygon style="stroke:#000000;stroke-width:0.5;stroke-miterlimit:10;" points="252.76,424.83 253.07,425.01 249.74,430.68 
						249.46,430.52 249.18,430.36 252.46,424.66 					"/>
					<polygon style="stroke:#000000;stroke-width:0.5;stroke-miterlimit:10;" points="250.07,423.34 250.38,423.5 247.27,429.3 
						246.98,429.15 246.7,428.99 249.76,423.17 					"/>
					<polygon style="stroke:#000000;stroke-width:0.5;stroke-miterlimit:10;" points="244.45,427.86 244.16,427.71 247.02,421.79 
						247.33,421.94 247.65,422.1 244.74,428 					"/>
					<polygon style="stroke:#000000;stroke-width:0.5;stroke-miterlimit:10;" points="241.87,426.65 241.58,426.52 244.23,420.51 
						244.55,420.65 244.87,420.79 242.17,426.79 					"/>
					<polygon style="stroke:#000000;stroke-width:0.5;stroke-miterlimit:10;" points="239.25,425.54 238.95,425.42 241.41,419.31 
						241.73,419.44 242.05,419.58 239.55,425.66 					"/>
					<polygon style="stroke:#000000;stroke-width:0.5;stroke-miterlimit:10;" points="236.6,424.51 236.3,424.4 238.54,418.22 
						238.87,418.34 239.2,418.46 236.9,424.62 					"/>
					<polygon style="stroke:#000000;stroke-width:0.5;stroke-miterlimit:10;" points="233.92,423.58 233.61,423.48 235.63,417.22 
						235.97,417.33 236.3,417.44 234.22,423.68 					"/>
					<polygon style="stroke:#000000;stroke-width:0.5;stroke-miterlimit:10;" points="231.21,422.74 230.9,422.65 232.69,416.32 
						233.03,416.42 233.36,416.52 231.52,422.83 					"/>
					<polygon style="stroke:#000000;stroke-width:0.5;stroke-miterlimit:10;" points="228.47,422.01 228.16,421.94 229.7,415.54 
						230.05,415.62 230.39,415.71 228.79,422.09 					"/>
					<polygon style="stroke:#000000;stroke-width:0.5;stroke-miterlimit:10;" points="225.73,421.4 225.41,421.34 226.68,414.88 
						227.02,414.95 227.37,415.02 226.04,421.46 					"/>
					<polygon style="stroke:#000000;stroke-width:0.5;stroke-miterlimit:10;" points="222.97,420.91 222.65,420.86 223.61,414.36 
						223.96,414.41 224.31,414.46 223.28,420.96 					"/>
					<polygon style="stroke:#000000;stroke-width:0.5;stroke-miterlimit:10;" points="220.21,420.56 219.89,420.53 220.5,413.98 
						220.85,414.02 221.21,414.05 220.52,420.59 					"/>
					<polygon style="stroke:#000000;stroke-width:0.5;stroke-miterlimit:10;" points="217.45,420.37 217.14,420.35 217.35,413.78 
						217.71,413.8 218.07,413.81 217.76,420.38 					"/>
					<polygon style="stroke:#000000;stroke-width:0.5;stroke-miterlimit:10;" points="215.03,420.34 214.72,420.35 214.41,420.36 
						214.17,413.79 214.53,413.77 214.89,413.77 					"/>
					<polygon style="stroke:#000000;stroke-width:0.5;stroke-miterlimit:10;" points="212.03,420.53 211.73,420.57 210.95,414.04 
						211.32,413.99 211.69,413.95 212.33,420.5 					"/>
					<path style="stroke:#000000;stroke-width:0.5;stroke-miterlimit:10;" d="M209.41,420.93c-0.1,0.02-0.2,0.04-0.29,0.06
						l-1.38-6.43c0.12-0.03,0.24-0.05,0.37-0.08l0.37-0.07l1.23,6.46L209.41,420.93z"/>
					<polygon style="stroke:#000000;stroke-width:0.5;stroke-miterlimit:10;" points="206.89,421.59 206.61,421.68 204.54,415.43 
						204.9,415.32 205.26,415.2 207.17,421.49 					"/>
					<path style="stroke:#000000;stroke-width:0.5;stroke-miterlimit:10;" d="M204.51,422.5c-0.09,0.04-0.17,0.08-0.26,0.12
						l-2.83-5.94c0.12-0.06,0.23-0.12,0.35-0.16l0.35-0.15l2.66,6.02L204.51,422.5z"/>
					<polygon style="stroke:#000000;stroke-width:0.5;stroke-miterlimit:10;" points="202.31,423.7 202.07,423.85 198.44,418.36 
						198.77,418.15 199.1,417.94 202.55,423.54 					"/>
				</g>
				<g>
					<polygon style="stroke:#000000;stroke-width:0.5;stroke-miterlimit:10;" points="265.26,441.58 259.98,437.66 259.81,437.87 
						265,441.91 					"/>
					<path style="stroke:#000000;stroke-width:0.5;stroke-miterlimit:10;" d="M262.95,444.18l0.27-0.27l-4.66-4.64l-0.21,0.21
						c-0.07,0.07-0.14,0.14-0.21,0.2l4.54,4.76C262.77,444.36,262.86,444.27,262.95,444.18z"/>
					<polygon style="stroke:#000000;stroke-width:0.5;stroke-miterlimit:10;" points="260.52,446.34 260.8,446.11 256.6,441.04 
						256.37,441.24 256.12,441.43 260.23,446.57 					"/>
					<polygon style="stroke:#000000;stroke-width:0.5;stroke-miterlimit:10;" points="258,448.26 258.29,448.05 254.43,442.72 
						254.18,442.9 253.92,443.08 257.7,448.46 					"/>
					<polygon style="stroke:#000000;stroke-width:0.5;stroke-miterlimit:10;" points="255.41,450 255.71,449.81 252.13,444.29 
						251.86,444.46 251.59,444.63 255.11,450.19 					"/>
					<polygon style="stroke:#000000;stroke-width:0.5;stroke-miterlimit:10;" points="252.76,451.61 253.07,451.44 249.74,445.77 
						249.46,445.93 249.18,446.09 252.46,451.79 					"/>
					<polygon style="stroke:#000000;stroke-width:0.5;stroke-miterlimit:10;" points="250.07,453.11 250.38,452.95 247.27,447.15 
						246.98,447.3 246.7,447.45 249.76,453.28 					"/>
					<polygon style="stroke:#000000;stroke-width:0.5;stroke-miterlimit:10;" points="244.45,448.59 244.16,448.73 247.02,454.66 
						247.33,454.51 247.65,454.35 244.74,448.45 					"/>
					<polygon style="stroke:#000000;stroke-width:0.5;stroke-miterlimit:10;" points="241.87,449.79 241.58,449.92 244.23,455.94 
						244.55,455.8 244.87,455.66 242.17,449.66 					"/>
					<polygon style="stroke:#000000;stroke-width:0.5;stroke-miterlimit:10;" points="239.25,450.91 238.95,451.03 241.41,457.13 
						241.73,457 242.05,456.87 239.55,450.79 					"/>
					<polygon style="stroke:#000000;stroke-width:0.5;stroke-miterlimit:10;" points="236.6,451.94 236.3,452.05 238.54,458.23 
						238.87,458.11 239.2,457.99 236.9,451.82 					"/>
					<polygon style="stroke:#000000;stroke-width:0.5;stroke-miterlimit:10;" points="233.92,452.87 233.61,452.97 235.63,459.23 
						235.97,459.12 236.3,459.01 234.22,452.77 					"/>
					<polygon style="stroke:#000000;stroke-width:0.5;stroke-miterlimit:10;" points="231.21,453.7 230.9,453.79 232.69,460.12 
						233.03,460.03 233.36,459.93 231.52,453.61 					"/>
					<polygon style="stroke:#000000;stroke-width:0.5;stroke-miterlimit:10;" points="228.47,454.44 228.16,454.51 229.7,460.91 
						230.05,460.82 230.39,460.74 228.79,454.36 					"/>
					<polygon style="stroke:#000000;stroke-width:0.5;stroke-miterlimit:10;" points="225.73,455.05 225.41,455.11 226.68,461.57 
						227.02,461.5 227.37,461.43 226.04,454.99 					"/>
					<polygon style="stroke:#000000;stroke-width:0.5;stroke-miterlimit:10;" points="222.97,455.54 222.65,455.58 223.61,462.09 
						223.96,462.04 224.31,461.99 223.28,455.49 					"/>
					<polygon style="stroke:#000000;stroke-width:0.5;stroke-miterlimit:10;" points="220.21,455.89 219.89,455.92 220.5,462.47 
						220.85,462.43 221.21,462.4 220.52,455.85 					"/>
					<polygon style="stroke:#000000;stroke-width:0.5;stroke-miterlimit:10;" points="217.45,456.08 217.14,456.09 217.35,462.67 
						217.71,462.65 218.07,462.64 217.76,456.06 					"/>
					<polygon style="stroke:#000000;stroke-width:0.5;stroke-miterlimit:10;" points="215.03,456.1 214.72,456.1 214.41,456.09 
						214.17,462.66 214.53,462.67 214.89,462.68 					"/>
					<polygon style="stroke:#000000;stroke-width:0.5;stroke-miterlimit:10;" points="212.03,455.91 211.73,455.88 210.95,462.41 
						211.32,462.45 211.69,462.49 212.33,455.95 					"/>
					<path style="stroke:#000000;stroke-width:0.5;stroke-miterlimit:10;" d="M209.41,455.51c-0.1-0.02-0.2-0.04-0.29-0.06
						l-1.38,6.43c0.12,0.03,0.24,0.05,0.37,0.08l0.37,0.07l1.23-6.46L209.41,455.51z"/>
					<polygon style="stroke:#000000;stroke-width:0.5;stroke-miterlimit:10;" points="206.89,454.86 206.61,454.77 204.54,461.02 
						204.9,461.13 205.26,461.25 207.17,454.95 					"/>
					<path style="stroke:#000000;stroke-width:0.5;stroke-miterlimit:10;" d="M204.51,453.95c-0.09-0.04-0.17-0.08-0.26-0.12
						l-2.83,5.94c0.12,0.06,0.23,0.12,0.35,0.16l0.35,0.15l2.66-6.02L204.51,453.95z"/>
					<polygon style="stroke:#000000;stroke-width:0.5;stroke-miterlimit:10;" points="202.31,452.75 202.07,452.6 198.44,458.08 
						198.77,458.3 199.1,458.51 202.55,452.91 					"/>
				</g>
			</g>
			<g>
				<line style="fill:none;stroke:#000000;stroke-width:2;stroke-miterlimit:10;" x1="270.01" y1="438.22" x2="259.1" y2="438.22"/>
				
					<line style="fill:none;stroke:#000000;stroke-width:2;stroke-miterlimit:10;" x1="266.22" y1="442.76" x2="259.72" y2="438.13"/>
				
					<line style="fill:none;stroke:#000000;stroke-width:2;stroke-miterlimit:10;" x1="266.22" y1="433.68" x2="259.72" y2="438.31"/>
				<circle cx="271.72" cy="438.22" r="1.84"/>
				<circle cx="266.53" cy="442.97" r="1.84"/>
				<circle cx="266.53" cy="433.43" r="1.84"/>
			</g>
		</g>
		<g>
			<g>
				
					<line style="fill:none;stroke:#000000;stroke-width:2;stroke-miterlimit:10;" x1="203.78" y1="396.25" x2="196.07" y2="403.96"/>
				
					<line style="fill:none;stroke:#000000;stroke-width:2;stroke-miterlimit:10;" x1="204.31" y1="402.14" x2="196.44" y2="403.47"/>
				
					<line style="fill:none;stroke:#000000;stroke-width:2;stroke-miterlimit:10;" x1="197.89" y1="395.72" x2="196.56" y2="403.59"/>
				<circle cx="204.99" cy="395.04" r="1.84"/>
				<circle cx="204.68" cy="402.07" r="1.84"/>
				<circle cx="197.93" cy="395.32" r="1.84"/>
			</g>
			<g>
				<path style="fill:none;stroke:#000000;stroke-width:3;stroke-miterlimit:10;" d="M195.38,404.59c-2.75,0.01-5.49,1.06-7.59,3.16
					c-2.1,2.1-3.15,4.84-3.16,7.59c2.75-0.01,5.49-1.06,7.59-3.16C194.32,410.08,195.37,407.34,195.38,404.59z"/>
				<path style="fill:none;stroke:#000000;stroke-width:3;stroke-miterlimit:10;" d="M189.95,414.58c-2.97,0-5.65,1.2-7.6,3.14
					c1.95,1.94,4.64,3.14,7.6,3.14c2.97,0,5.65-1.2,7.6-3.14C195.6,415.78,192.91,414.58,189.95,414.58z"/>
				<path style="fill:none;stroke:#000000;stroke-width:3;stroke-miterlimit:10;" d="M182.2,402.36c-1.94,1.95-3.14,4.64-3.14,7.6
					c0,2.97,1.2,5.65,3.14,7.6c1.94-1.95,3.14-4.64,3.14-7.6C185.33,407,184.13,404.31,182.2,402.36z"/>
			</g>
		</g>
		<g>
			<g>
				<line style="fill:none;stroke:#000000;stroke-width:2;stroke-miterlimit:10;" x1="119.8" y1="396.22" x2="127.52" y2="403.93"/>
				
					<line style="fill:none;stroke:#000000;stroke-width:2;stroke-miterlimit:10;" x1="125.69" y1="395.69" x2="127.02" y2="403.56"/>
				
					<line style="fill:none;stroke:#000000;stroke-width:2;stroke-miterlimit:10;" x1="119.27" y1="402.11" x2="127.14" y2="403.44"/>
				<circle cx="118.6" cy="395.01" r="1.84"/>
				<circle cx="125.62" cy="395.32" r="1.84"/>
				<circle cx="118.87" cy="402.07" r="1.84"/>
			</g>
			<g>
				<path style="fill:none;stroke:#000000;stroke-width:3;stroke-miterlimit:10;" d="M128.14,404.62c0.01,2.75,1.06,5.49,3.16,7.59
					c2.1,2.1,4.84,3.15,7.59,3.16c-0.01-2.75-1.06-5.49-3.16-7.59C133.63,405.68,130.89,404.63,128.14,404.62z"/>
				<path style="fill:none;stroke:#000000;stroke-width:3;stroke-miterlimit:10;" d="M138.13,410.05c0,2.97,1.2,5.65,3.14,7.6
					c1.94-1.95,3.14-4.64,3.14-7.6c0-2.97-1.2-5.65-3.14-7.6C139.33,404.4,138.13,407.09,138.13,410.05z"/>
				<path style="fill:none;stroke:#000000;stroke-width:3;stroke-miterlimit:10;" d="M125.91,417.8c1.95,1.94,4.64,3.14,7.6,3.14
					c2.97,0,5.65-1.2,7.6-3.14c-1.95-1.94-4.64-3.14-7.6-3.14S127.86,415.87,125.91,417.8z"/>
			</g>
		</g>
		<g>
			<g>
				<line style="fill:none;stroke:#000000;stroke-width:2;stroke-miterlimit:10;" x1="119.77" y1="480.2" x2="127.49" y2="472.48"/>
				
					<line style="fill:none;stroke:#000000;stroke-width:2;stroke-miterlimit:10;" x1="119.24" y1="474.31" x2="127.11" y2="472.98"/>
				
					<line style="fill:none;stroke:#000000;stroke-width:2;stroke-miterlimit:10;" x1="125.66" y1="480.73" x2="126.99" y2="472.86"/>
				<circle cx="118.57" cy="481.4" r="1.84"/>
				<circle cx="118.87" cy="474.38" r="1.84"/>
				<circle cx="125.62" cy="481.13" r="1.84"/>
			</g>
			<g>
				<path style="fill:none;stroke:#000000;stroke-width:3;stroke-miterlimit:10;" d="M128.17,471.86c2.75-0.01,5.49-1.06,7.59-3.16
					c2.1-2.1,3.15-4.84,3.16-7.59c-2.75,0.01-5.49,1.06-7.59,3.16C129.23,466.37,128.18,469.11,128.17,471.86z"/>
				<path style="fill:none;stroke:#000000;stroke-width:3;stroke-miterlimit:10;" d="M133.6,461.87c2.97,0,5.65-1.2,7.6-3.14
					c-1.95-1.94-4.64-3.14-7.6-3.14c-2.97,0-5.65,1.2-7.6,3.14C127.95,460.67,130.64,461.87,133.6,461.87z"/>
				<path style="fill:none;stroke:#000000;stroke-width:3;stroke-miterlimit:10;" d="M141.36,474.09c1.94-1.95,3.14-4.64,3.14-7.6
					c0-2.97-1.2-5.65-3.14-7.6c-1.94,1.95-3.14,4.64-3.14,7.6C138.22,469.45,139.42,472.14,141.36,474.09z"/>
			</g>
		</g>
		<g>
			<g>
				
					<line style="fill:none;stroke:#000000;stroke-width:2;stroke-miterlimit:10;" x1="203.75" y1="480.23" x2="196.04" y2="472.52"/>
				
					<line style="fill:none;stroke:#000000;stroke-width:2;stroke-miterlimit:10;" x1="197.86" y1="480.76" x2="196.53" y2="472.89"/>
				
					<line style="fill:none;stroke:#000000;stroke-width:2;stroke-miterlimit:10;" x1="204.28" y1="474.34" x2="196.41" y2="473.01"/>
				<circle cx="204.96" cy="481.43" r="1.84"/>
				<circle cx="197.93" cy="481.13" r="1.84"/>
				<circle cx="204.68" cy="474.38" r="1.84"/>
			</g>
			<g>
				<path style="fill:none;stroke:#000000;stroke-width:3;stroke-miterlimit:10;" d="M195.41,471.83c-0.01-2.75-1.06-5.49-3.16-7.59
					c-2.1-2.1-4.84-3.15-7.59-3.16c0.01,2.75,1.06,5.49,3.16,7.59C189.92,470.77,192.66,471.82,195.41,471.83z"/>
				<path style="fill:none;stroke:#000000;stroke-width:3;stroke-miterlimit:10;" d="M185.42,466.4c0-2.97-1.2-5.65-3.14-7.6
					c-1.94,1.95-3.14,4.64-3.14,7.6s1.2,5.65,3.14,7.6C184.22,472.05,185.42,469.36,185.42,466.4z"/>
				<path style="fill:none;stroke:#000000;stroke-width:3;stroke-miterlimit:10;" d="M197.64,458.64c-1.95-1.94-4.64-3.14-7.6-3.14
					c-2.97,0-5.65,1.2-7.6,3.14c1.95,1.94,4.64,3.14,7.6,3.14C193,461.78,195.69,460.58,197.64,458.64z"/>
			</g>
		</g>
	</g>
</g>
<g>
</g>
<g>
</g>
<g>
</g>
<g>
</g>
<g>
</g>
<g>
</g>
<g>
</g>
<g>
</g>
<g>
</g>
<g>
</g>
<g>
</g>
<g>
</g>
<g>
</g>
<g>
</g>
<g>
</g>
</svg>
