<?xml version="1.0" encoding="utf-8"?>
<!-- Generator: Adobe Illustrator 27.2.0, SVG Export Plug-In . SVG Version: 6.00 Build 0)  -->
<svg version="1.1" id="Layer_1" xmlns="http://www.w3.org/2000/svg" xmlns:xlink="http://www.w3.org/1999/xlink" x="0px" y="0px"
	 viewBox="0 0 800 600" style="enable-background:new 0 0 800 600;" xml:space="preserve">
<g>
	<g>
		<g>
			<g>
				<g>
					<polygon points="163.4,416.86 153.19,406.65 165.69,404.36 					"/>
					<polygon points="173.49,427.05 163.27,416.83 175.78,414.54 					"/>
					<polygon points="183.63,437.18 173.41,426.97 185.92,424.68 					"/>
					<polygon points="193.71,447.37 183.5,437.16 196,434.87 					"/>
				</g>
				<g>
					<g>
						<rect x="165.41" y="401.24" transform="matrix(0.7071 0.7071 -0.7071 0.7071 333.8661 -0.1482)" width="3.4" height="3.4"/>
						<rect x="165.41" y="396.43" transform="matrix(0.7071 0.7071 -0.7071 0.7071 330.4645 -1.5572)" width="3.4" height="3.4"/>
						<rect x="170.22" y="396.43" transform="matrix(0.7071 0.7071 -0.7071 0.7071 331.8735 -4.9588)" width="3.4" height="3.4"/>
						<rect x="170.22" y="401.24" transform="matrix(0.7071 0.7071 -0.7071 0.7071 335.2751 -3.5498)" width="3.4" height="3.4"/>
					</g>
					<g>
						<rect x="175.55" y="411.37" transform="matrix(0.7071 0.7071 -0.7071 0.7071 344.0026 -4.3469)" width="3.4" height="3.4"/>
						<rect x="175.55" y="406.56" transform="matrix(0.7071 0.7071 -0.7071 0.7071 340.601 -5.7559)" width="3.4" height="3.4"/>
						<rect x="180.36" y="406.56" transform="matrix(0.7071 0.7071 -0.7071 0.7071 342.01 -9.1575)" width="3.4" height="3.4"/>
						<rect x="180.36" y="411.37" transform="matrix(0.7071 0.7071 -0.7071 0.7071 345.4116 -7.7485)" width="3.4" height="3.4"/>
					</g>
					<g>
						<rect x="185.68" y="421.51" transform="matrix(0.7071 0.7071 -0.7071 0.7071 354.1391 -8.5456)" width="3.4" height="3.4"/>
						<rect x="185.68" y="416.7" transform="matrix(0.7071 0.7071 -0.7071 0.7071 350.7375 -9.9546)" width="3.4" height="3.4"/>
						<rect x="190.49" y="416.7" transform="matrix(0.7071 0.7071 -0.7071 0.7071 352.1465 -13.3561)" width="3.4" height="3.4"/>
						<rect x="190.49" y="421.51" transform="matrix(0.7071 0.7071 -0.7071 0.7071 355.5481 -11.9472)" width="3.4" height="3.4"/>
					</g>
					<g>
						<rect x="195.82" y="431.65" transform="matrix(0.7071 0.7071 -0.7071 0.7071 364.2756 -12.7443)" width="3.4" height="3.4"/>
						<rect x="195.82" y="426.84" transform="matrix(0.7071 0.7071 -0.7071 0.7071 360.874 -14.1532)" width="3.4" height="3.4"/>
						<rect x="200.63" y="426.84" transform="matrix(0.7071 0.7071 -0.7071 0.7071 362.283 -17.5548)" width="3.4" height="3.4"/>
						<rect x="200.63" y="431.65" transform="matrix(0.7071 0.7071 -0.7071 0.7071 365.6846 -16.1458)" width="3.4" height="3.4"/>
					</g>
				</g>
			</g>
			<g>
				<g>
					<polygon points="119.18,436.7 108.96,446.91 106.67,434.41 					"/>
					<polygon points="129.36,426.61 119.15,436.82 116.86,424.32 					"/>
					<polygon points="139.5,416.47 129.28,426.68 126.99,414.18 					"/>
					<polygon points="149.68,406.38 139.47,416.6 137.18,404.09 					"/>
				</g>
				<g>
					<g>
						<rect x="103.55" y="431.28" transform="matrix(0.7071 -0.7071 0.7071 0.7071 -275.3386 201.2422)" width="3.4" height="3.4"/>
						<rect x="98.74" y="431.28" transform="matrix(0.7071 -0.7071 0.7071 0.7071 -276.7476 197.8406)" width="3.4" height="3.4"/>
						<rect x="98.74" y="426.47" transform="matrix(0.7071 -0.7071 0.7071 0.7071 -273.346 196.4316)" width="3.4" height="3.4"/>
						<rect x="103.55" y="426.47" transform="matrix(0.7071 -0.7071 0.7071 0.7071 -271.937 199.8332)" width="3.4" height="3.4"/>
					</g>
					<g>
						<rect x="113.69" y="421.15" transform="matrix(0.7071 -0.7071 0.7071 0.7071 -265.2021 205.4408)" width="3.4" height="3.4"/>
						<rect x="108.88" y="421.15" transform="matrix(0.7071 -0.7071 0.7071 0.7071 -266.6111 202.0393)" width="3.4" height="3.4"/>
						<rect x="108.88" y="416.34" transform="matrix(0.7071 -0.7071 0.7071 0.7071 -263.2095 200.6303)" width="3.4" height="3.4"/>
						<rect x="113.69" y="416.34" transform="matrix(0.7071 -0.7071 0.7071 0.7071 -261.8005 204.0319)" width="3.4" height="3.4"/>
					</g>
					<g>
						<rect x="123.82" y="411.01" transform="matrix(0.7071 -0.7071 0.7071 0.7071 -255.0656 209.6395)" width="3.4" height="3.4"/>
						<rect x="119.01" y="411.01" transform="matrix(0.7071 -0.7071 0.7071 0.7071 -256.4745 206.2379)" width="3.4" height="3.4"/>
						<rect x="119.01" y="406.2" transform="matrix(0.7071 -0.7071 0.7071 0.7071 -253.073 204.829)" width="3.4" height="3.4"/>
						<rect x="123.82" y="406.2" transform="matrix(0.7071 -0.7071 0.7071 0.7071 -251.664 208.2305)" width="3.4" height="3.4"/>
					</g>
					<g>
						<rect x="133.96" y="400.87" transform="matrix(0.7071 -0.7071 0.7071 0.7071 -244.929 213.8382)" width="3.4" height="3.4"/>
						<rect x="129.15" y="400.87" transform="matrix(0.7071 -0.7071 0.7071 0.7071 -246.338 210.4366)" width="3.4" height="3.4"/>
						<rect x="129.15" y="396.06" transform="matrix(0.7071 -0.7071 0.7071 0.7071 -242.9364 209.0276)" width="3.4" height="3.4"/>
						<rect x="133.96" y="396.06" transform="matrix(0.7071 -0.7071 0.7071 0.7071 -241.5275 212.4292)" width="3.4" height="3.4"/>
					</g>
				</g>
			</g>
			<g>
				<g>
					<polygon points="138.64,480.92 148.85,491.13 136.35,493.42 					"/>
					<polygon points="128.55,470.73 138.76,480.95 126.26,483.24 					"/>
					<polygon points="118.41,460.6 128.62,470.81 116.12,473.1 					"/>
					<polygon points="108.32,450.41 118.54,460.63 106.03,462.92 					"/>
				</g>
				<g>
					<g>
						<rect x="133.22" y="493.14" transform="matrix(-0.7071 -0.7071 0.7071 -0.7071 -119.579 940.158)" width="3.4" height="3.4"/>
						
							<rect x="133.22" y="497.95" transform="matrix(-0.7071 -0.7071 0.7071 -0.7071 -122.9806 948.3701)" width="3.4" height="3.4"/>
						
							<rect x="128.41" y="497.95" transform="matrix(-0.7071 -0.7071 0.7071 -0.7071 -131.1927 944.9685)" width="3.4" height="3.4"/>
						
							<rect x="128.41" y="493.14" transform="matrix(-0.7071 -0.7071 0.7071 -0.7071 -127.7912 936.7564)" width="3.4" height="3.4"/>
					</g>
					<g>
						
							<rect x="123.09" y="483.01" transform="matrix(-0.7071 -0.7071 0.7071 -0.7071 -129.7155 915.6863)" width="3.4" height="3.4"/>
						
							<rect x="123.09" y="487.82" transform="matrix(-0.7071 -0.7071 0.7071 -0.7071 -133.1171 923.8984)" width="3.4" height="3.4"/>
						
							<rect x="118.28" y="487.82" transform="matrix(-0.7071 -0.7071 0.7071 -0.7071 -141.3292 920.4968)" width="3.4" height="3.4"/>
						
							<rect x="118.28" y="483.01" transform="matrix(-0.7071 -0.7071 0.7071 -0.7071 -137.9277 912.2847)" width="3.4" height="3.4"/>
					</g>
					<g>
						
							<rect x="112.95" y="472.87" transform="matrix(-0.7071 -0.7071 0.7071 -0.7071 -139.8521 891.2146)" width="3.4" height="3.4"/>
						
							<rect x="112.95" y="477.68" transform="matrix(-0.7071 -0.7071 0.7071 -0.7071 -143.2536 899.4267)" width="3.4" height="3.4"/>
						
							<rect x="108.14" y="477.68" transform="matrix(-0.7071 -0.7071 0.7071 -0.7071 -151.4657 896.0251)" width="3.4" height="3.4"/>
						
							<rect x="108.14" y="472.87" transform="matrix(-0.7071 -0.7071 0.7071 -0.7071 -148.0642 887.813)" width="3.4" height="3.4"/>
					</g>
					<g>
						
							<rect x="102.81" y="462.73" transform="matrix(-0.7071 -0.7071 0.7071 -0.7071 -149.9886 866.7429)" width="3.4" height="3.4"/>
						
							<rect x="102.81" y="467.54" transform="matrix(-0.7071 -0.7071 0.7071 -0.7071 -153.3901 874.955)" width="3.4" height="3.4"/>
						<rect x="98" y="467.54" transform="matrix(-0.7071 -0.7071 0.7071 -0.7071 -161.6023 871.5534)" width="3.4" height="3.4"/>
						<rect x="98" y="462.73" transform="matrix(-0.7071 -0.7071 0.7071 -0.7071 -158.2007 863.3413)" width="3.4" height="3.4"/>
					</g>
				</g>
			</g>
			<g>
				<g>
					<polygon points="183.06,461.32 193.28,451.11 195.57,463.61 					"/>
					<polygon points="172.88,471.41 183.09,461.2 185.38,473.7 					"/>
					<polygon points="162.74,481.55 172.96,471.34 175.25,483.84 					"/>
					<polygon points="152.56,491.64 162.77,481.42 165.06,493.93 					"/>
				</g>
				<g>
					<g>
						
							<rect x="195.29" y="463.34" transform="matrix(-0.7071 0.7071 -0.7071 -0.7071 665.1102 654.5753)" width="3.4" height="3.4"/>
						<rect x="200.1" y="463.34" transform="matrix(-0.7071 0.7071 -0.7071 -0.7071 673.3223 651.1737)" width="3.4" height="3.4"/>
						<rect x="200.1" y="468.15" transform="matrix(-0.7071 0.7071 -0.7071 -0.7071 676.7239 659.3858)" width="3.4" height="3.4"/>
						
							<rect x="195.29" y="468.15" transform="matrix(-0.7071 0.7071 -0.7071 -0.7071 668.5118 662.7874)" width="3.4" height="3.4"/>
					</g>
					<g>
						
							<rect x="185.15" y="473.47" transform="matrix(-0.7071 0.7071 -0.7071 -0.7071 654.9737 679.0469)" width="3.4" height="3.4"/>
						
							<rect x="189.96" y="473.47" transform="matrix(-0.7071 0.7071 -0.7071 -0.7071 663.1859 675.6454)" width="3.4" height="3.4"/>
						
							<rect x="189.96" y="478.28" transform="matrix(-0.7071 0.7071 -0.7071 -0.7071 666.5874 683.8575)" width="3.4" height="3.4"/>
						
							<rect x="185.15" y="478.28" transform="matrix(-0.7071 0.7071 -0.7071 -0.7071 658.3753 687.2591)" width="3.4" height="3.4"/>
					</g>
					<g>
						
							<rect x="175.01" y="483.61" transform="matrix(-0.7071 0.7071 -0.7071 -0.7071 644.8372 703.5187)" width="3.4" height="3.4"/>
						
							<rect x="179.82" y="483.61" transform="matrix(-0.7071 0.7071 -0.7071 -0.7071 653.0493 700.1171)" width="3.4" height="3.4"/>
						
							<rect x="179.82" y="488.42" transform="matrix(-0.7071 0.7071 -0.7071 -0.7071 656.4509 708.3292)" width="3.4" height="3.4"/>
						
							<rect x="175.01" y="488.42" transform="matrix(-0.7071 0.7071 -0.7071 -0.7071 648.2388 711.7308)" width="3.4" height="3.4"/>
					</g>
					<g>
						
							<rect x="164.88" y="493.75" transform="matrix(-0.7071 0.7071 -0.7071 -0.7071 634.7007 727.9904)" width="3.4" height="3.4"/>
						
							<rect x="169.69" y="493.75" transform="matrix(-0.7071 0.7071 -0.7071 -0.7071 642.9128 724.5888)" width="3.4" height="3.4"/>
						
							<rect x="169.69" y="498.56" transform="matrix(-0.7071 0.7071 -0.7071 -0.7071 646.3144 732.8009)" width="3.4" height="3.4"/>
						
							<rect x="164.88" y="498.56" transform="matrix(-0.7071 0.7071 -0.7071 -0.7071 638.1022 736.2025)" width="3.4" height="3.4"/>
					</g>
				</g>
			</g>
		</g>
		<g>
			<g>
				<g>
					<g>
						
							<rect x="140.87" y="378.37" transform="matrix(0.7071 -0.7071 0.7071 0.7071 -230.5662 220.7741)" style="fill:none;stroke:#000000;stroke-width:2;stroke-miterlimit:10;" width="20.68" height="20.68"/>
						<g>
							<g>
								<polygon points="140.54,377.87 130.35,388.11 128.03,375.61 								"/>
								<polygon points="150.7,367.76 140.51,378 138.19,365.5 								"/>
								<g>
									
										<rect x="124.9" y="372.49" transform="matrix(0.7055 -0.7087 0.7087 0.7055 -227.9138 199.9362)" width="3.4" height="3.4"/>
									
										<rect x="120.09" y="372.5" transform="matrix(0.7055 -0.7087 0.7087 0.7055 -229.3385 196.5301)" width="3.4" height="3.4"/>
									
										<rect x="120.08" y="367.69" transform="matrix(0.7055 -0.7087 0.7087 0.7055 -225.9324 195.1054)" width="3.4" height="3.4"/>
									
										<rect x="124.89" y="367.68" transform="matrix(0.7055 -0.7087 0.7087 0.7055 -224.5077 198.5115)" width="3.4" height="3.4"/>
								</g>
								<g>
									
										<rect x="135.02" y="362.33" transform="matrix(0.7055 -0.7087 0.7087 0.7055 -217.7346 204.1114)" width="3.4" height="3.4"/>
									
										<rect x="130.21" y="362.34" transform="matrix(0.7055 -0.7087 0.7087 0.7055 -219.1593 200.7053)" width="3.4" height="3.4"/>
									
										<rect x="130.19" y="357.53" transform="matrix(0.7055 -0.7087 0.7087 0.7055 -215.7532 199.2806)" width="3.4" height="3.4"/>
									<rect x="135" y="357.52" transform="matrix(0.7055 -0.7087 0.7087 0.7055 -214.3285 202.6867)" width="3.4" height="3.4"/>
								</g>
							</g>
							<g>
								<polygon points="161.89,377.87 172.08,388.11 174.4,375.61 								"/>
								<polygon points="151.73,367.76 161.92,378 164.24,365.5 								"/>
								<g>
									<g>
										
											<rect x="174.13" y="372.49" transform="matrix(-0.7055 -0.7087 0.7087 -0.7055 34.6673 762.7874)" width="3.4" height="3.4"/>
										
											<rect x="178.94" y="372.5" transform="matrix(-0.7055 -0.7087 0.7087 -0.7055 42.8637 766.2156)" width="3.4" height="3.4"/>
										
											<rect x="178.95" y="367.69" transform="matrix(-0.7055 -0.7087 0.7087 -0.7055 46.292 758.0193)" width="3.4" height="3.4"/>
										
											<rect x="174.14" y="367.68" transform="matrix(-0.7055 -0.7087 0.7087 -0.7055 38.0956 754.5909)" width="3.4" height="3.4"/>
									</g>
									<g>
										
											<rect x="164.01" y="362.33" transform="matrix(-0.7055 -0.7087 0.7087 -0.7055 24.6202 738.2925)" width="3.4" height="3.4"/>
										
											<rect x="168.82" y="362.34" transform="matrix(-0.7055 -0.7087 0.7087 -0.7055 32.8166 741.7208)" width="3.4" height="3.4"/>
										
											<rect x="168.83" y="357.53" transform="matrix(-0.7055 -0.7087 0.7087 -0.7055 36.2449 733.5244)" width="3.4" height="3.4"/>
										
											<rect x="164.02" y="357.52" transform="matrix(-0.7055 -0.7087 0.7087 -0.7055 28.0485 730.0961)" width="3.4" height="3.4"/>
									</g>
								</g>
							</g>
							<polyline style="fill:none;stroke:#000000;stroke-width:2;stroke-miterlimit:10;" points="136.97,388.71 131.29,388.71 
								151.21,368.78 171.14,388.71 164.95,388.71 							"/>
						</g>
					</g>
					<g>
						<g>
							
								<rect x="146.11" y="351.54" transform="matrix(2.304061e-03 -1 1 2.304061e-03 -205.7674 500.2401)" width="3.4" height="3.4"/>
							
								<rect x="149.51" y="354.95" transform="matrix(2.304061e-03 -1 1 2.304061e-03 -205.7909 507.0353)" width="3.4" height="3.4"/>
							
								<rect x="152.92" y="351.56" transform="matrix(2.304061e-03 -1 1 2.304061e-03 -198.9957 507.0588)" width="3.4" height="3.4"/>
							
								<rect x="149.52" y="348.15" transform="matrix(2.304061e-03 -1 1 2.304061e-03 -198.9722 500.2635)" width="3.4" height="3.4"/>
						</g>
						<polygon points="153.65,362.83 151.24,367.02 148.77,362.88 151.24,358.4 						"/>
					</g>
				</g>
				<g>
					<circle style="fill:none;stroke:#000000;stroke-width:2;stroke-miterlimit:10;" cx="151.22" cy="388.5" r="5.38"/>
					<circle cx="151.22" cy="388.5" r="1.67"/>
				</g>
			</g>
			<g>
				<g>
					<g>
						
							<rect x="140.87" y="499.1" transform="matrix(0.7071 0.7071 -0.7071 0.7071 404.5165 42.2858)" style="fill:none;stroke:#000000;stroke-width:2;stroke-miterlimit:10;" width="20.68" height="20.68"/>
						<g>
							<g>
								<polygon points="140.54,520.27 130.35,510.04 128.03,522.53 								"/>
								<polygon points="150.7,530.38 140.51,520.15 138.19,532.65 								"/>
								<g>
									<rect x="124.9" y="522.25" transform="matrix(0.7055 0.7087 -0.7087 0.7055 408.6305 64.5887)" width="3.4" height="3.4"/>
									
										<rect x="120.09" y="522.24" transform="matrix(0.7055 0.7087 -0.7087 0.7055 407.2058 67.9948)" width="3.4" height="3.4"/>
									<rect x="120.08" y="527.05" transform="matrix(0.7055 0.7087 -0.7087 0.7055 410.612 69.4195)" width="3.4" height="3.4"/>
									
										<rect x="124.89" y="527.06" transform="matrix(0.7055 0.7087 -0.7087 0.7055 412.0367 66.0133)" width="3.4" height="3.4"/>
								</g>
								<g>
									
										<rect x="135.02" y="532.41" transform="matrix(0.7055 0.7087 -0.7087 0.7055 418.8097 60.4135)" width="3.4" height="3.4"/>
									<rect x="130.21" y="532.4" transform="matrix(0.7055 0.7087 -0.7087 0.7055 417.385 63.8196)" width="3.4" height="3.4"/>
									
										<rect x="130.19" y="537.21" transform="matrix(0.7055 0.7087 -0.7087 0.7055 420.7912 65.2443)" width="3.4" height="3.4"/>
									<rect x="135" y="537.22" transform="matrix(0.7055 0.7087 -0.7087 0.7055 422.2159 61.8381)" width="3.4" height="3.4"/>
								</g>
							</g>
							<g>
								<polygon points="161.89,520.27 172.08,510.04 174.4,522.53 								"/>
								<polygon points="151.73,530.38 161.92,520.15 164.24,532.65 								"/>
								<g>
									<g>
										
											<rect x="174.13" y="522.25" transform="matrix(-0.7055 0.7087 -0.7087 -0.7055 671.2117 768.9731)" width="3.4" height="3.4"/>
										
											<rect x="178.94" y="522.24" transform="matrix(-0.7055 0.7087 -0.7087 -0.7055 679.408 765.5448)" width="3.4" height="3.4"/>
										
											<rect x="178.95" y="527.05" transform="matrix(-0.7055 0.7087 -0.7087 -0.7055 682.8364 773.7411)" width="3.4" height="3.4"/>
										
											<rect x="174.14" y="527.06" transform="matrix(-0.7055 0.7087 -0.7087 -0.7055 674.64 777.1695)" width="3.4" height="3.4"/>
									</g>
									<g>
										
											<rect x="164.01" y="532.41" transform="matrix(-0.7055 0.7087 -0.7087 -0.7055 661.1646 793.468)" width="3.4" height="3.4"/>
										
											<rect x="168.82" y="532.4" transform="matrix(-0.7055 0.7087 -0.7087 -0.7055 669.361 790.0397)" width="3.4" height="3.4"/>
										
											<rect x="168.83" y="537.21" transform="matrix(-0.7055 0.7087 -0.7087 -0.7055 672.7892 798.236)" width="3.4" height="3.4"/>
										
											<rect x="164.02" y="537.22" transform="matrix(-0.7055 0.7087 -0.7087 -0.7055 664.5929 801.6644)" width="3.4" height="3.4"/>
									</g>
								</g>
							</g>
							<polyline style="fill:none;stroke:#000000;stroke-width:2;stroke-miterlimit:10;" points="136.97,509.44 131.29,509.44 
								151.21,529.36 171.14,509.44 164.95,509.44 							"/>
						</g>
					</g>
					<g>
						<g>
							
								<rect x="146.11" y="543.2" transform="matrix(2.304061e-03 1 -1 2.304061e-03 692.3728 395.8332)" width="3.4" height="3.4"/>
							
								<rect x="149.51" y="539.79" transform="matrix(2.304061e-03 1 -1 2.304061e-03 692.3494 389.0379)" width="3.4" height="3.4"/>
							
								<rect x="152.92" y="543.19" transform="matrix(2.304061e-03 1 -1 2.304061e-03 699.1446 389.0144)" width="3.4" height="3.4"/>
							
								<rect x="149.52" y="546.59" transform="matrix(2.304061e-03 1 -1 2.304061e-03 699.1681 395.8097)" width="3.4" height="3.4"/>
						</g>
						<polygon points="153.65,535.31 151.24,531.12 148.77,535.26 151.24,539.74 						"/>
					</g>
				</g>
				<g>
					<circle style="fill:none;stroke:#000000;stroke-width:2;stroke-miterlimit:10;" cx="151.22" cy="509.64" r="5.38"/>
					<circle cx="151.22" cy="509.64" r="1.67"/>
				</g>
			</g>
			<g>
				<g>
					<g>
						
							<rect x="201.53" y="438.73" transform="matrix(0.7071 0.7071 -0.7071 0.7071 379.5959 -18.2828)" style="fill:none;stroke:#000000;stroke-width:2;stroke-miterlimit:10;" width="20.68" height="20.68"/>
						<g>
							<g>
								<polygon points="222.7,438.39 212.46,428.2 224.96,425.88 								"/>
								<polygon points="232.81,448.56 222.58,438.36 235.08,436.05 								"/>
								<g>
									
										<rect x="224.68" y="422.76" transform="matrix(0.7087 0.7055 -0.7055 0.7087 365.3833 -36.0763)" width="3.4" height="3.4"/>
									
										<rect x="224.67" y="417.95" transform="matrix(0.7087 0.7055 -0.7055 0.7087 361.9864 -37.4696)" width="3.4" height="3.4"/>
									
										<rect x="229.48" y="417.94" transform="matrix(0.7087 0.7055 -0.7055 0.7087 363.3797 -40.8666)" width="3.4" height="3.4"/>
									
										<rect x="229.49" y="422.75" transform="matrix(0.7087 0.7055 -0.7055 0.7087 366.7766 -39.4732)" width="3.4" height="3.4"/>
								</g>
								<g>
									
										<rect x="234.84" y="432.87" transform="matrix(0.7087 0.7055 -0.7055 0.7087 375.4771 -40.2982)" width="3.4" height="3.4"/>
									
										<rect x="234.83" y="428.06" transform="matrix(0.7087 0.7055 -0.7055 0.7087 372.0801 -41.6915)" width="3.4" height="3.4"/>
									
										<rect x="239.64" y="428.05" transform="matrix(0.7087 0.7055 -0.7055 0.7087 373.4734 -45.0885)" width="3.4" height="3.4"/>
									
										<rect x="239.65" y="432.86" transform="matrix(0.7087 0.7055 -0.7055 0.7087 376.8704 -43.6951)" width="3.4" height="3.4"/>
								</g>
							</g>
							<g>
								<polygon points="222.7,459.75 212.46,469.94 224.96,472.26 								"/>
								<polygon points="232.81,449.59 222.58,459.78 235.08,462.1 								"/>
								<g>
									<g>
										
											<rect x="224.68" y="471.98" transform="matrix(0.7087 -0.7055 0.7055 0.7087 -268.2349 297.6748)" width="3.4" height="3.4"/>
										
											<rect x="224.67" y="476.79" transform="matrix(0.7087 -0.7055 0.7055 0.7087 -271.6319 299.0681)" width="3.4" height="3.4"/>
										
											<rect x="229.48" y="476.8" transform="matrix(0.7087 -0.7055 0.7055 0.7087 -270.2386 302.4651)" width="3.4" height="3.4"/>
										
											<rect x="229.49" y="471.99" transform="matrix(0.7087 -0.7055 0.7055 0.7087 -266.8416 301.0717)" width="3.4" height="3.4"/>
									</g>
									<g>
										
											<rect x="234.84" y="461.87" transform="matrix(0.7087 -0.7055 0.7055 0.7087 -258.1411 301.8967)" width="3.4" height="3.4"/>
										
											<rect x="234.83" y="466.68" transform="matrix(0.7087 -0.7055 0.7055 0.7087 -261.5381 303.29)" width="3.4" height="3.4"/>
										
											<rect x="239.64" y="466.69" transform="matrix(0.7087 -0.7055 0.7055 0.7087 -260.1448 306.687)" width="3.4" height="3.4"/>
										
											<rect x="239.65" y="461.88" transform="matrix(0.7087 -0.7055 0.7055 0.7087 -256.7478 305.2936)" width="3.4" height="3.4"/>
									</g>
								</g>
							</g>
							<polyline style="fill:none;stroke:#000000;stroke-width:2;stroke-miterlimit:10;" points="211.87,434.83 211.87,429.15 
								231.79,449.07 211.87,468.99 211.87,462.8 							"/>
						</g>
					</g>
					<g>
						<g>
							<rect x="245.63" y="443.97" transform="matrix(1 2.304062e-03 -2.304062e-03 1 1.0275 -0.5687)" width="3.4" height="3.4"/>
							<rect x="242.22" y="447.36" transform="matrix(1 2.304062e-03 -2.304062e-03 1 1.0353 -0.5608)" width="3.4" height="3.4"/>
							<rect x="245.61" y="450.77" transform="matrix(1 2.304062e-03 -2.304062e-03 1 1.0432 -0.5686)" width="3.4" height="3.4"/>
							<rect x="249.02" y="447.38" transform="matrix(1 2.304062e-03 -2.304062e-03 1 1.0354 -0.5765)" width="3.4" height="3.4"/>
						</g>
						<polygon points="237.74,451.51 233.55,449.1 237.69,446.63 242.17,449.1 						"/>
					</g>
				</g>
				<g>
					<circle style="fill:none;stroke:#000000;stroke-width:2;stroke-miterlimit:10;" cx="212.07" cy="449.07" r="5.38"/>
					<circle cx="212.07" cy="449.07" r="1.67"/>
				</g>
			</g>
			<g>
				<g>
					<g>
						
							<rect x="80.22" y="438.73" transform="matrix(-0.7071 0.7071 -0.7071 -0.7071 472.1412 702.5753)" style="fill:none;stroke:#000000;stroke-width:2;stroke-miterlimit:10;" width="20.68" height="20.68"/>
						<g>
							<g>
								<polygon points="79.73,438.39 89.96,428.2 77.47,425.88 								"/>
								<polygon points="69.62,448.56 79.85,438.36 67.35,436.05 								"/>
								<g>
									
										<rect x="74.35" y="422.76" transform="matrix(-0.7087 0.7055 -0.7055 -0.7087 429.3914 671.6389)" width="3.4" height="3.4"/>
									
										<rect x="74.36" y="417.95" transform="matrix(-0.7087 0.7055 -0.7055 -0.7087 426.0167 663.4111)" width="3.4" height="3.4"/>
									
										<rect x="69.55" y="417.94" transform="matrix(-0.7087 0.7055 -0.7055 -0.7087 417.7889 666.7859)" width="3.4" height="3.4"/>
									
										<rect x="69.54" y="422.75" transform="matrix(-0.7087 0.7055 -0.7055 -0.7087 421.1637 675.0137)" width="3.4" height="3.4"/>
								</g>
								<g>
									
										<rect x="64.19" y="432.87" transform="matrix(-0.7087 0.7055 -0.7055 -0.7087 419.1656 696.087)" width="3.4" height="3.4"/>
									
										<rect x="64.2" y="428.06" transform="matrix(-0.7087 0.7055 -0.7055 -0.7087 415.7908 687.8593)" width="3.4" height="3.4"/>
									
										<rect x="59.39" y="428.05" transform="matrix(-0.7087 0.7055 -0.7055 -0.7087 407.563 691.2341)" width="3.4" height="3.4"/>
									
										<rect x="59.38" y="432.86" transform="matrix(-0.7087 0.7055 -0.7055 -0.7087 410.9378 699.4618)" width="3.4" height="3.4"/>
								</g>
							</g>
							<g>
								<polygon points="79.73,459.75 89.96,469.94 77.47,472.26 								"/>
								<polygon points="69.62,449.59 79.85,459.78 67.35,462.1 								"/>
								<g>
									<g>
										
											<rect x="74.35" y="471.98" transform="matrix(-0.7087 -0.7055 0.7055 -0.7087 -204.2268 863.0491)" width="3.4" height="3.4"/>
										
											<rect x="74.36" y="476.79" transform="matrix(-0.7087 -0.7055 0.7055 -0.7087 -207.6015 871.2769)" width="3.4" height="3.4"/>
										
											<rect x="69.55" y="476.8" transform="matrix(-0.7087 -0.7055 0.7055 -0.7087 -215.8293 867.9022)" width="3.4" height="3.4"/>
										
											<rect x="69.54" y="471.99" transform="matrix(-0.7087 -0.7055 0.7055 -0.7087 -212.4545 859.6744)" width="3.4" height="3.4"/>
									</g>
									<g>
										
											<rect x="64.19" y="461.87" transform="matrix(-0.7087 -0.7055 0.7055 -0.7087 -214.4527 838.601)" width="3.4" height="3.4"/>
										
											<rect x="64.2" y="466.68" transform="matrix(-0.7087 -0.7055 0.7055 -0.7087 -217.8275 846.8287)" width="3.4" height="3.4"/>
										
											<rect x="59.39" y="466.69" transform="matrix(-0.7087 -0.7055 0.7055 -0.7087 -226.0552 843.454)" width="3.4" height="3.4"/>
										
											<rect x="59.38" y="461.88" transform="matrix(-0.7087 -0.7055 0.7055 -0.7087 -222.6804 835.2262)" width="3.4" height="3.4"/>
									</g>
								</g>
							</g>
							<polyline style="fill:none;stroke:#000000;stroke-width:2;stroke-miterlimit:10;" points="90.56,434.83 90.56,429.15 
								70.64,449.07 90.56,468.99 90.56,462.8 							"/>
						</g>
					</g>
					<g>
						<g>
							
								<rect x="53.4" y="443.97" transform="matrix(-1 2.304061e-03 -2.304061e-03 -1 111.2236 891.2114)" width="3.4" height="3.4"/>
							
								<rect x="56.81" y="447.36" transform="matrix(-1 2.304061e-03 -2.304061e-03 -1 118.0502 897.991)" width="3.4" height="3.4"/>
							
								<rect x="53.41" y="450.77" transform="matrix(-1 2.304061e-03 -2.304061e-03 -1 111.2706 904.8176)" width="3.4" height="3.4"/>
							<rect x="50" y="447.38" transform="matrix(-1 2.304061e-03 -2.304061e-03 -1 104.444 898.038)" width="3.4" height="3.4"/>
						</g>
						<polygon points="64.69,451.51 68.88,449.1 64.74,446.63 60.26,449.1 						"/>
					</g>
				</g>
				<g>
					<circle style="fill:none;stroke:#000000;stroke-width:2;stroke-miterlimit:10;" cx="90.36" cy="449.07" r="5.38"/>
					<circle cx="90.36" cy="449.07" r="1.67"/>
				</g>
			</g>
		</g>
		<g>
			<g>
				<g>
					<g>
						
							<line style="fill:none;stroke:#000000;stroke-width:4;stroke-miterlimit:10;" x1="141.87" y1="481.47" x2="130.34" y2="469.95"/>
						
							<line style="fill:none;stroke:#000000;stroke-width:4;stroke-miterlimit:10;" x1="147.88" y1="475.46" x2="136.35" y2="463.93"/>
					</g>
					<g>
						
							<line style="fill:none;stroke:#000000;stroke-width:4;stroke-miterlimit:10;" x1="130.34" y1="469.95" x2="118.81" y2="458.42"/>
						
							<line style="fill:none;stroke:#000000;stroke-width:4;stroke-miterlimit:10;" x1="136.35" y1="463.93" x2="124.83" y2="452.41"/>
					</g>
					<g>
						<polyline style="fill:none;stroke:#000000;stroke-width:4;stroke-miterlimit:10;" points="118.81,458.42 109.46,449.07 
							118.81,439.72 						"/>
						<polyline style="fill:none;stroke:#000000;stroke-width:4;stroke-miterlimit:10;" points="124.83,452.41 121.49,449.07 
							124.83,445.73 						"/>
					</g>
					<g>
						
							<line style="fill:none;stroke:#000000;stroke-width:4;stroke-miterlimit:10;" x1="118.81" y1="439.72" x2="130.34" y2="428.2"/>
						
							<line style="fill:none;stroke:#000000;stroke-width:4;stroke-miterlimit:10;" x1="124.83" y1="445.73" x2="136.35" y2="434.21"/>
					</g>
					<g>
						
							<line style="fill:none;stroke:#000000;stroke-width:4;stroke-miterlimit:10;" x1="130.34" y1="428.2" x2="141.87" y2="416.67"/>
						
							<line style="fill:none;stroke:#000000;stroke-width:4;stroke-miterlimit:10;" x1="136.35" y1="434.21" x2="147.88" y2="422.68"/>
					</g>
					<g>
						<polyline style="fill:none;stroke:#000000;stroke-width:4;stroke-miterlimit:10;" points="141.87,416.67 151.21,407.32 
							160.56,416.67 						"/>
						<polyline style="fill:none;stroke:#000000;stroke-width:4;stroke-miterlimit:10;" points="147.88,422.68 151.21,419.35 
							154.55,422.68 						"/>
					</g>
					<g>
						
							<line style="fill:none;stroke:#000000;stroke-width:4;stroke-miterlimit:10;" x1="160.56" y1="416.67" x2="172.09" y2="428.2"/>
						
							<line style="fill:none;stroke:#000000;stroke-width:4;stroke-miterlimit:10;" x1="154.55" y1="422.68" x2="166.08" y2="434.21"/>
					</g>
					<g>
						
							<line style="fill:none;stroke:#000000;stroke-width:4;stroke-miterlimit:10;" x1="172.09" y1="428.2" x2="183.62" y2="439.72"/>
						
							<line style="fill:none;stroke:#000000;stroke-width:4;stroke-miterlimit:10;" x1="166.08" y1="434.21" x2="177.6" y2="445.73"/>
					</g>
					<g>
						<polyline style="fill:none;stroke:#000000;stroke-width:4;stroke-miterlimit:10;" points="183.62,439.72 192.97,449.07 
							183.62,458.42 						"/>
						<polyline style="fill:none;stroke:#000000;stroke-width:4;stroke-miterlimit:10;" points="177.6,445.73 180.94,449.07 
							177.6,452.41 						"/>
					</g>
					<g>
						
							<line style="fill:none;stroke:#000000;stroke-width:4;stroke-miterlimit:10;" x1="183.62" y1="458.42" x2="172.09" y2="469.95"/>
						
							<line style="fill:none;stroke:#000000;stroke-width:4;stroke-miterlimit:10;" x1="177.6" y1="452.41" x2="166.08" y2="463.93"/>
					</g>
					<g>
						
							<line style="fill:none;stroke:#000000;stroke-width:4;stroke-miterlimit:10;" x1="172.09" y1="469.95" x2="160.56" y2="481.47"/>
						
							<line style="fill:none;stroke:#000000;stroke-width:4;stroke-miterlimit:10;" x1="166.08" y1="463.93" x2="154.55" y2="475.46"/>
					</g>
					<g>
						<polyline style="fill:none;stroke:#000000;stroke-width:4;stroke-miterlimit:10;" points="160.56,481.47 151.21,490.82 
							141.87,481.47 						"/>
						<polyline style="fill:none;stroke:#000000;stroke-width:4;stroke-miterlimit:10;" points="154.55,475.46 151.21,478.8 
							147.88,475.46 						"/>
					</g>
				</g>
			</g>
		</g>
		
			<rect x="138.29" y="436.15" transform="matrix(0.7071 -0.7071 0.7071 0.7071 -273.2516 238.455)" style="fill:none;stroke:#000000;stroke-width:2;stroke-miterlimit:10;" width="25.84" height="25.84"/>
	</g>
</g>
<g>
</g>
<g>
</g>
<g>
</g>
<g>
</g>
<g>
</g>
<g>
</g>
<g>
</g>
<g>
</g>
<g>
</g>
<g>
</g>
<g>
</g>
<g>
</g>
<g>
</g>
<g>
</g>
<g>
</g>
</svg>
