<?xml version="1.0" encoding="utf-8"?>
<!-- Generator: Adobe Illustrator 27.2.0, SVG Export Plug-In . SVG Version: 6.00 Build 0)  -->
<svg version="1.1" id="Layer_1" xmlns="http://www.w3.org/2000/svg" xmlns:xlink="http://www.w3.org/1999/xlink" x="0px" y="0px"
	 viewBox="0 0 800 600" style="enable-background:new 0 0 800 600;" xml:space="preserve">
<g>
	<g>
		<g>
			<rect x="107.06" y="490.1" transform="matrix(0.7071 -0.7071 0.7071 0.7071 -315.7818 220.6708)" width="2.83" height="2.83"/>
			<rect x="109.76" y="491.82" transform="matrix(0.7071 -0.7071 0.7071 0.7071 -316.898 223.3655)" width="2.83" height="4.79"/>
			<rect x="104.37" y="486.43" transform="matrix(0.7071 -0.7071 0.7071 0.7071 -314.6656 217.976)" width="2.83" height="4.79"/>
			<rect x="108.78" y="487.41" transform="matrix(0.7071 -0.7071 0.7071 0.7071 -313.0871 221.787)" width="4.79" height="2.83"/>
			<rect x="103.39" y="492.8" transform="matrix(0.7071 -0.7071 0.7071 0.7071 -318.4765 219.5546)" width="4.79" height="2.83"/>
		</g>
		<g>
			<rect x="101.68" y="495.49" transform="matrix(0.7071 -0.7071 0.7071 0.7071 -321.1712 218.4384)" width="2.83" height="2.83"/>
			<rect x="104.37" y="497.21" transform="matrix(0.7071 -0.7071 0.7071 0.7071 -322.2874 221.1331)" width="2.83" height="4.79"/>
			<rect x="98.98" y="491.82" transform="matrix(0.7071 -0.7071 0.7071 0.7071 -320.0551 215.7437)" width="2.83" height="4.79"/>
			<rect x="103.39" y="492.8" transform="matrix(0.7071 -0.7071 0.7071 0.7071 -318.4765 219.5546)" width="4.79" height="2.83"/>
			<rect x="98" y="498.18" transform="matrix(0.7071 -0.7071 0.7071 0.7071 -323.866 217.3222)" width="4.79" height="2.83"/>
		</g>
		<g>
			<rect x="130.92" y="490.1" transform="matrix(-0.7071 -0.7071 0.7071 -0.7071 -121.6474 932.6475)" width="2.83" height="2.83"/>
			<rect x="127.25" y="492.8" transform="matrix(0.7071 -0.7071 0.7071 0.7071 -311.4905 236.4202)" width="4.79" height="2.83"/>
			<rect x="132.64" y="487.41" transform="matrix(0.7071 -0.7071 0.7071 0.7071 -306.1011 238.6526)" width="4.79" height="2.83"/>
			<rect x="128.22" y="486.43" transform="matrix(0.7071 -0.7071 0.7071 0.7071 -307.6796 234.8417)" width="2.83" height="4.79"/>
			<rect x="133.61" y="491.82" transform="matrix(0.7071 -0.7071 0.7071 0.7071 -309.912 240.2312)" width="2.83" height="4.79"/>
		</g>
		<g>
			
				<rect x="136.31" y="495.49" transform="matrix(-0.7071 -0.7071 0.7071 -0.7071 -116.2579 945.6588)" width="2.83" height="2.83"/>
			<rect x="132.64" y="498.18" transform="matrix(0.7071 -0.7071 0.7071 0.7071 -313.7229 241.8097)" width="4.79" height="2.83"/>
			<rect x="138.02" y="492.8" transform="matrix(0.7071 -0.7071 0.7071 0.7071 -308.3335 244.0421)" width="4.79" height="2.83"/>
			<rect x="133.61" y="491.82" transform="matrix(0.7071 -0.7071 0.7071 0.7071 -309.912 240.2312)" width="2.83" height="4.79"/>
			<rect x="139" y="497.21" transform="matrix(0.7071 -0.7071 0.7071 0.7071 -312.1444 245.6206)" width="2.83" height="4.79"/>
		</g>
		<g>
			<g>
				<g>
					<rect x="118.99" y="478.17" transform="matrix(0.7071 0.7071 -0.7071 0.7071 374.3894 55.3278)" width="2.83" height="2.83"/>
					<rect x="120.57" y="477.21" transform="matrix(0.7071 0.7071 -0.7071 0.7071 373.7367 53.7521)" width="2.83" height="1.62"/>
					
						<rect x="117.42" y="477.21" transform="matrix(-0.7071 0.7071 -0.7071 -0.7071 540.8682 731.9975)" width="2.83" height="1.62"/>
					
						<rect x="120.57" y="480.36" transform="matrix(-0.7071 0.7071 -0.7071 -0.7071 548.4762 735.1489)" width="2.83" height="1.62"/>
					<rect x="117.42" y="480.36" transform="matrix(0.7071 0.7071 -0.7071 0.7071 375.0421 56.9035)" width="2.83" height="1.62"/>
				</g>
				<g>
					<rect x="125.53" y="471.64" transform="matrix(0.7071 0.7071 -0.7071 0.7071 371.6819 48.7914)" width="2.83" height="2.83"/>
					
						<rect x="127.25" y="468.94" transform="matrix(0.7071 -0.7071 0.7071 0.7071 -294.6248 229.4343)" width="4.79" height="2.83"/>
					
						<rect x="121.86" y="474.33" transform="matrix(0.7071 -0.7071 0.7071 0.7071 -300.0143 227.2019)" width="4.79" height="2.83"/>
					
						<rect x="128.22" y="473.36" transform="matrix(0.7071 -0.7071 0.7071 0.7071 -298.4358 231.0128)" width="2.83" height="4.79"/>
					
						<rect x="122.83" y="467.97" transform="matrix(0.7071 -0.7071 0.7071 0.7071 -296.2034 225.6233)" width="2.83" height="4.79"/>
				</g>
				<g>
					<rect x="112.45" y="471.64" transform="matrix(0.7071 0.7071 -0.7071 0.7071 367.853 58.0353)" width="2.83" height="2.83"/>
					
						<rect x="114.17" y="468.94" transform="matrix(0.7071 -0.7071 0.7071 0.7071 -298.4538 220.1904)" width="4.79" height="2.83"/>
					<rect x="108.78" y="474.33" transform="matrix(0.7071 -0.7071 0.7071 0.7071 -303.8432 217.958)" width="4.79" height="2.83"/>
					
						<rect x="115.15" y="473.36" transform="matrix(0.7071 -0.7071 0.7071 0.7071 -302.2647 221.7689)" width="2.83" height="4.79"/>
					
						<rect x="109.76" y="467.97" transform="matrix(0.7071 -0.7071 0.7071 0.7071 -300.0323 216.3795)" width="2.83" height="4.79"/>
				</g>
				<g>
					<rect x="125.53" y="484.71" transform="matrix(0.7071 0.7071 -0.7071 0.7071 380.9258 52.6204)" width="2.83" height="2.83"/>
					
						<rect x="127.25" y="482.02" transform="matrix(0.7071 -0.7071 0.7071 0.7071 -303.8687 233.2632)" width="4.79" height="2.83"/>
					
						<rect x="121.86" y="487.41" transform="matrix(0.7071 -0.7071 0.7071 0.7071 -309.2581 231.0308)" width="4.79" height="2.83"/>
					
						<rect x="128.22" y="486.43" transform="matrix(0.7071 -0.7071 0.7071 0.7071 -307.6796 234.8417)" width="2.83" height="4.79"/>
					
						<rect x="122.83" y="481.04" transform="matrix(0.7071 -0.7071 0.7071 0.7071 -305.4472 229.4523)" width="2.83" height="4.79"/>
				</g>
				<g>
					<rect x="112.45" y="484.71" transform="matrix(0.7071 0.7071 -0.7071 0.7071 377.0969 61.8642)" width="2.83" height="2.83"/>
					
						<rect x="114.17" y="482.02" transform="matrix(0.7071 -0.7071 0.7071 0.7071 -307.6976 224.0193)" width="4.79" height="2.83"/>
					
						<rect x="108.78" y="487.41" transform="matrix(0.7071 -0.7071 0.7071 0.7071 -313.0871 221.7869)" width="4.79" height="2.83"/>
					
						<rect x="115.15" y="486.43" transform="matrix(0.7071 -0.7071 0.7071 0.7071 -311.5086 225.5979)" width="2.83" height="4.79"/>
					
						<rect x="109.76" y="481.04" transform="matrix(0.7071 -0.7071 0.7071 0.7071 -309.2762 220.2084)" width="2.83" height="4.79"/>
				</g>
			</g>
			<g>
				<g>
					<rect x="89.75" y="448.93" transform="matrix(0.7071 0.7071 -0.7071 0.7071 345.1483 67.4399)" width="2.83" height="2.83"/>
					<rect x="91.33" y="447.96" transform="matrix(0.7071 0.7071 -0.7071 0.7071 344.4956 65.8642)" width="2.83" height="1.62"/>
					
						<rect x="88.17" y="447.96" transform="matrix(-0.7071 0.7071 -0.7071 -0.7071 470.2738 702.7563)" width="2.83" height="1.62"/>
					
						<rect x="91.33" y="451.12" transform="matrix(-0.7071 0.7071 -0.7071 -0.7071 477.8818 705.9077)" width="2.83" height="1.62"/>
					<rect x="88.17" y="451.12" transform="matrix(0.7071 0.7071 -0.7071 0.7071 345.8009 69.0156)" width="2.83" height="1.62"/>
				</g>
				<g>
					<rect x="96.29" y="442.4" transform="matrix(0.7071 0.7071 -0.7071 0.7071 342.4408 60.9035)" width="2.83" height="2.83"/>
					<rect x="98" y="439.7" transform="matrix(0.7071 -0.7071 0.7071 0.7071 -282.5128 200.1931)" width="4.79" height="2.83"/>
					<rect x="92.62" y="445.09" transform="matrix(0.7071 -0.7071 0.7071 0.7071 -287.9022 197.9607)" width="4.79" height="2.83"/>
					<rect x="98.98" y="444.12" transform="matrix(0.7071 -0.7071 0.7071 0.7071 -286.3237 201.7717)" width="2.83" height="4.79"/>
					<rect x="93.59" y="438.73" transform="matrix(0.7071 -0.7071 0.7071 0.7071 -284.0913 196.3822)" width="2.83" height="4.79"/>
				</g>
				<g>
					<rect x="83.21" y="442.4" transform="matrix(0.7071 0.7071 -0.7071 0.7071 338.6119 70.1474)" width="2.83" height="2.83"/>
					<rect x="84.93" y="439.7" transform="matrix(0.7071 -0.7071 0.7071 0.7071 -286.3417 190.9493)" width="4.79" height="2.83"/>
					<rect x="79.54" y="445.09" transform="matrix(0.7071 -0.7071 0.7071 0.7071 -291.7311 188.7169)" width="4.79" height="2.83"/>
					<rect x="85.91" y="444.12" transform="matrix(0.7071 -0.7071 0.7071 0.7071 -290.1526 192.5278)" width="2.83" height="4.79"/>
					<rect x="80.52" y="438.73" transform="matrix(0.7071 -0.7071 0.7071 0.7071 -287.9202 187.1383)" width="2.83" height="4.79"/>
				</g>
				<g>
					<rect x="96.29" y="455.47" transform="matrix(0.7071 0.7071 -0.7071 0.7071 351.6847 64.7324)" width="2.83" height="2.83"/>
					<rect x="98" y="452.78" transform="matrix(0.7071 -0.7071 0.7071 0.7071 -291.7566 204.0221)" width="4.79" height="2.83"/>
					<rect x="92.62" y="458.16" transform="matrix(0.7071 -0.7071 0.7071 0.7071 -297.1461 201.7897)" width="4.79" height="2.83"/>
					<rect x="98.98" y="457.19" transform="matrix(0.7071 -0.7071 0.7071 0.7071 -295.5675 205.6006)" width="2.83" height="4.79"/>
					<rect x="93.59" y="451.8" transform="matrix(0.7071 -0.7071 0.7071 0.7071 -293.3352 200.2111)" width="2.83" height="4.79"/>
				</g>
				<g>
					<rect x="83.21" y="455.47" transform="matrix(0.7071 0.7071 -0.7071 0.7071 347.8557 73.9763)" width="2.83" height="2.83"/>
					<rect x="84.93" y="452.78" transform="matrix(0.7071 -0.7071 0.7071 0.7071 -295.5856 194.7782)" width="4.79" height="2.83"/>
					<rect x="79.54" y="458.16" transform="matrix(0.7071 -0.7071 0.7071 0.7071 -300.975 192.5458)" width="4.79" height="2.83"/>
					<rect x="85.91" y="457.19" transform="matrix(0.7071 -0.7071 0.7071 0.7071 -299.3965 196.3567)" width="2.83" height="4.79"/>
					<rect x="80.52" y="451.8" transform="matrix(0.7071 -0.7071 0.7071 0.7071 -297.1641 190.9673)" width="2.83" height="4.79"/>
				</g>
			</g>
			<g>
				<rect x="107.06" y="466.25" transform="matrix(0.7071 0.7071 -0.7071 0.7071 362.4636 60.2677)" width="2.83" height="2.83"/>
				<rect x="108.78" y="463.55" transform="matrix(0.7071 -0.7071 0.7071 0.7071 -296.2214 214.801)" width="4.79" height="2.83"/>
				<rect x="103.39" y="468.94" transform="matrix(0.7071 -0.7071 0.7071 0.7071 -301.6108 212.5686)" width="4.79" height="2.83"/>
				<rect x="109.76" y="467.97" transform="matrix(0.7071 -0.7071 0.7071 0.7071 -300.0323 216.3795)" width="2.83" height="4.79"/>
				<rect x="104.37" y="462.58" transform="matrix(0.7071 -0.7071 0.7071 0.7071 -297.7999 210.99)" width="2.83" height="4.79"/>
			</g>
			<g>
				<rect x="101.68" y="460.86" transform="matrix(0.7071 0.7071 -0.7071 0.7071 357.0741 62.5)" width="2.83" height="2.83"/>
				<rect x="103.39" y="458.16" transform="matrix(0.7071 -0.7071 0.7071 0.7071 -293.989 209.4115)" width="4.79" height="2.83"/>
				<rect x="98" y="463.55" transform="matrix(0.7071 -0.7071 0.7071 0.7071 -299.3784 207.1791)" width="4.79" height="2.83"/>
				<rect x="104.37" y="462.58" transform="matrix(0.7071 -0.7071 0.7071 0.7071 -297.7999 210.9901)" width="2.83" height="4.79"/>
				<rect x="98.98" y="457.19" transform="matrix(0.7071 -0.7071 0.7071 0.7071 -295.5675 205.6006)" width="2.83" height="4.79"/>
			</g>
			<g>
				<rect x="130.92" y="466.25" transform="matrix(-0.7071 0.7071 -0.7071 -0.7071 556.598 704.7817)" width="2.83" height="2.83"/>
				<rect x="128.22" y="462.58" transform="matrix(0.7071 -0.7071 0.7071 0.7071 -290.8139 227.8557)" width="2.83" height="4.79"/>
				<rect x="133.61" y="467.97" transform="matrix(0.7071 -0.7071 0.7071 0.7071 -293.0463 233.2452)" width="2.83" height="4.79"/>
				<rect x="127.25" y="468.94" transform="matrix(0.7071 -0.7071 0.7071 0.7071 -294.6248 229.4342)" width="4.79" height="2.83"/>
				<rect x="132.64" y="463.55" transform="matrix(0.7071 -0.7071 0.7071 0.7071 -289.2354 231.6666)" width="4.79" height="2.83"/>
			</g>
			<g>
				
					<rect x="136.31" y="460.86" transform="matrix(-0.7071 0.7071 -0.7071 -0.7071 561.9874 691.7704)" width="2.83" height="2.83"/>
				<rect x="133.61" y="457.19" transform="matrix(0.7071 -0.7071 0.7071 0.7071 -285.4245 230.0881)" width="2.83" height="4.79"/>
				<rect x="139" y="462.58" transform="matrix(0.7071 -0.7071 0.7071 0.7071 -287.6569 235.4775)" width="2.83" height="4.79"/>
				<rect x="132.64" y="463.55" transform="matrix(0.7071 -0.7071 0.7071 0.7071 -289.2354 231.6666)" width="4.79" height="2.83"/>
				<rect x="138.02" y="458.16" transform="matrix(0.7071 -0.7071 0.7071 0.7071 -283.846 233.899)" width="4.79" height="2.83"/>
			</g>
			<g>
				<g>
					
						<rect x="148.23" y="448.93" transform="matrix(-0.7071 0.7071 -0.7071 -0.7071 573.9133 662.9788)" width="2.83" height="2.83"/>
					
						<rect x="146.66" y="447.96" transform="matrix(-0.7071 0.7071 -0.7071 -0.7071 570.1093 661.4031)" width="2.83" height="1.62"/>
					<rect x="149.81" y="447.96" transform="matrix(0.7071 0.7071 -0.7071 0.7071 361.6247 24.511)" width="2.83" height="1.62"/>
					<rect x="146.66" y="451.12" transform="matrix(0.7071 0.7071 -0.7071 0.7071 362.93 27.6624)" width="2.83" height="1.62"/>
					
						<rect x="149.81" y="451.12" transform="matrix(-0.7071 0.7071 -0.7071 -0.7071 577.7173 664.5545)" width="2.83" height="1.62"/>
				</g>
				<g>
					<rect x="141.7" y="442.4" transform="matrix(-0.7071 0.7071 -0.7071 -0.7071 558.1331 656.4424)" width="2.83" height="2.83"/>
					<rect x="139" y="438.73" transform="matrix(0.7071 -0.7071 0.7071 0.7071 -270.7912 228.4915)" width="2.83" height="4.79"/>
					<rect x="144.39" y="444.12" transform="matrix(0.7071 -0.7071 0.7071 0.7071 -273.0236 233.881)" width="2.83" height="4.79"/>
					
						<rect x="138.02" y="445.09" transform="matrix(0.7071 -0.7071 0.7071 0.7071 -274.6021 230.0701)" width="4.79" height="2.83"/>
					<rect x="143.41" y="439.7" transform="matrix(0.7071 -0.7071 0.7071 0.7071 -269.2126 232.3025)" width="4.79" height="2.83"/>
				</g>
				<g>
					
						<rect x="154.77" y="442.4" transform="matrix(-0.7071 0.7071 -0.7071 -0.7071 580.4497 647.1986)" width="2.83" height="2.83"/>
					
						<rect x="152.07" y="438.73" transform="matrix(0.7071 -0.7071 0.7071 0.7071 -266.9622 237.7354)" width="2.83" height="4.79"/>
					
						<rect x="157.46" y="444.12" transform="matrix(0.7071 -0.7071 0.7071 0.7071 -269.1946 243.1249)" width="2.83" height="4.79"/>
					<rect x="151.1" y="445.09" transform="matrix(0.7071 -0.7071 0.7071 0.7071 -270.7732 239.3139)" width="4.79" height="2.83"/>
					<rect x="156.49" y="439.7" transform="matrix(0.7071 -0.7071 0.7071 0.7071 -265.3837 241.5463)" width="4.79" height="2.83"/>
				</g>
				<g>
					
						<rect x="141.7" y="455.47" transform="matrix(-0.7071 0.7071 -0.7071 -0.7071 567.3769 678.7591)" width="2.83" height="2.83"/>
					<rect x="139" y="451.8" transform="matrix(0.7071 -0.7071 0.7071 0.7071 -280.035 232.3205)" width="2.83" height="4.79"/>
					
						<rect x="144.39" y="457.19" transform="matrix(0.7071 -0.7071 0.7071 0.7071 -282.2674 237.7099)" width="2.83" height="4.79"/>
					<rect x="138.02" y="458.16" transform="matrix(0.7071 -0.7071 0.7071 0.7071 -283.8459 233.899)" width="4.79" height="2.83"/>
					
						<rect x="143.41" y="452.78" transform="matrix(0.7071 -0.7071 0.7071 0.7071 -278.4565 236.1314)" width="4.79" height="2.83"/>
				</g>
				<g>
					
						<rect x="154.77" y="455.47" transform="matrix(-0.7071 0.7071 -0.7071 -0.7071 589.6936 669.5153)" width="2.83" height="2.83"/>
					<rect x="152.07" y="451.8" transform="matrix(0.7071 -0.7071 0.7071 0.7071 -276.2061 241.5644)" width="2.83" height="4.79"/>
					
						<rect x="157.46" y="457.19" transform="matrix(0.7071 -0.7071 0.7071 0.7071 -278.4385 246.9538)" width="2.83" height="4.79"/>
					<rect x="151.1" y="458.16" transform="matrix(0.7071 -0.7071 0.7071 0.7071 -280.017 243.1429)" width="4.79" height="2.83"/>
					
						<rect x="156.49" y="452.78" transform="matrix(0.7071 -0.7071 0.7071 0.7071 -274.6276 245.3753)" width="4.79" height="2.83"/>
				</g>
			</g>
			<g>
				<g>
					<rect x="118.99" y="419.69" transform="matrix(0.7071 0.7071 -0.7071 0.7071 333.0362 38.1988)" width="2.83" height="2.83"/>
					<rect x="120.57" y="418.72" transform="matrix(0.7071 0.7071 -0.7071 0.7071 332.3835 36.6231)" width="2.83" height="1.62"/>
					<rect x="117.42" y="418.72" transform="matrix(-0.7071 0.7071 -0.7071 -0.7071 499.515 632.162)" width="2.83" height="1.62"/>
					
						<rect x="120.57" y="421.87" transform="matrix(-0.7071 0.7071 -0.7071 -0.7071 507.123 635.3134)" width="2.83" height="1.62"/>
					<rect x="117.42" y="421.87" transform="matrix(0.7071 0.7071 -0.7071 0.7071 333.6888 39.7744)" width="2.83" height="1.62"/>
				</g>
				<g>
					<rect x="125.53" y="413.16" transform="matrix(0.7071 0.7071 -0.7071 0.7071 330.3287 31.6624)" width="2.83" height="2.83"/>
					
						<rect x="127.25" y="410.46" transform="matrix(0.7071 -0.7071 0.7071 0.7071 -253.2716 212.3052)" width="4.79" height="2.83"/>
					
						<rect x="121.86" y="415.85" transform="matrix(0.7071 -0.7071 0.7071 0.7071 -258.6611 210.0728)" width="4.79" height="2.83"/>
					
						<rect x="128.22" y="414.87" transform="matrix(0.7071 -0.7071 0.7071 0.7071 -257.0826 213.8837)" width="2.83" height="4.79"/>
					
						<rect x="122.83" y="409.48" transform="matrix(0.7071 -0.7071 0.7071 0.7071 -254.8502 208.4943)" width="2.83" height="4.79"/>
				</g>
				<g>
					<rect x="112.45" y="413.16" transform="matrix(0.7071 0.7071 -0.7071 0.7071 326.4998 40.9062)" width="2.83" height="2.83"/>
					
						<rect x="114.17" y="410.46" transform="matrix(0.7071 -0.7071 0.7071 0.7071 -257.1006 203.0613)" width="4.79" height="2.83"/>
					<rect x="108.78" y="415.85" transform="matrix(0.7071 -0.7071 0.7071 0.7071 -262.49 200.829)" width="4.79" height="2.83"/>
					
						<rect x="115.15" y="414.87" transform="matrix(0.7071 -0.7071 0.7071 0.7071 -260.9115 204.6399)" width="2.83" height="4.79"/>
					
						<rect x="109.76" y="409.48" transform="matrix(0.7071 -0.7071 0.7071 0.7071 -258.6791 199.2504)" width="2.83" height="4.79"/>
				</g>
				<g>
					<rect x="125.53" y="426.23" transform="matrix(0.7071 0.7071 -0.7071 0.7071 339.5726 35.4913)" width="2.83" height="2.83"/>
					
						<rect x="127.25" y="423.53" transform="matrix(0.7071 -0.7071 0.7071 0.7071 -262.5155 216.1341)" width="4.79" height="2.83"/>
					
						<rect x="121.86" y="428.92" transform="matrix(0.7071 -0.7071 0.7071 0.7071 -267.9049 213.9017)" width="4.79" height="2.83"/>
					
						<rect x="128.22" y="427.95" transform="matrix(0.7071 -0.7071 0.7071 0.7071 -266.3264 217.7127)" width="2.83" height="4.79"/>
					<rect x="122.83" y="422.56" transform="matrix(0.7071 -0.7071 0.7071 0.7071 -264.094 212.3232)" width="2.83" height="4.79"/>
				</g>
				<g>
					<rect x="112.45" y="426.23" transform="matrix(0.7071 0.7071 -0.7071 0.7071 335.7437 44.7352)" width="2.83" height="2.83"/>
					
						<rect x="114.17" y="423.53" transform="matrix(0.7071 -0.7071 0.7071 0.7071 -266.3444 206.8903)" width="4.79" height="2.83"/>
					
						<rect x="108.78" y="428.92" transform="matrix(0.7071 -0.7071 0.7071 0.7071 -271.7339 204.6579)" width="4.79" height="2.83"/>
					
						<rect x="115.15" y="427.95" transform="matrix(0.7071 -0.7071 0.7071 0.7071 -270.1554 208.4688)" width="2.83" height="4.79"/>
					<rect x="109.76" y="422.56" transform="matrix(0.7071 -0.7071 0.7071 0.7071 -267.923 203.0793)" width="2.83" height="4.79"/>
				</g>
			</g>
			<g>
				<rect x="101.68" y="437.01" transform="matrix(0.7071 0.7071 -0.7071 0.7071 340.2084 55.5141)" width="2.83" height="2.83"/>
				<rect x="103.39" y="434.31" transform="matrix(0.7071 -0.7071 0.7071 0.7071 -277.1233 202.4255)" width="4.79" height="2.83"/>
				<rect x="98" y="439.7" transform="matrix(0.7071 -0.7071 0.7071 0.7071 -282.5128 200.1931)" width="4.79" height="2.83"/>
				<rect x="104.37" y="438.73" transform="matrix(0.7071 -0.7071 0.7071 0.7071 -280.9342 204.004)" width="2.83" height="4.79"/>
				<rect x="98.98" y="433.34" transform="matrix(0.7071 -0.7071 0.7071 0.7071 -278.7019 198.6146)" width="2.83" height="4.79"/>
			</g>
			<g>
				<rect x="107.06" y="431.62" transform="matrix(0.7071 0.7071 -0.7071 0.7071 337.976 50.1246)" width="2.83" height="2.83"/>
				<rect x="108.78" y="428.92" transform="matrix(0.7071 -0.7071 0.7071 0.7071 -271.7339 204.6579)" width="4.79" height="2.83"/>
				<rect x="103.39" y="434.31" transform="matrix(0.7071 -0.7071 0.7071 0.7071 -277.1234 202.4255)" width="4.79" height="2.83"/>
				<rect x="109.76" y="433.34" transform="matrix(0.7071 -0.7071 0.7071 0.7071 -275.5448 206.2364)" width="2.83" height="4.79"/>
				<rect x="104.37" y="427.95" transform="matrix(0.7071 -0.7071 0.7071 0.7071 -273.3124 200.847)" width="2.83" height="4.79"/>
			</g>
			<g>
				<rect x="136.31" y="437.01" transform="matrix(-0.7071 0.7071 -0.7071 -0.7071 545.1218 651.053)" width="2.83" height="2.83"/>
				<rect x="133.61" y="433.34" transform="matrix(0.7071 -0.7071 0.7071 0.7071 -268.5588 223.1021)" width="2.83" height="4.79"/>
				<rect x="139" y="438.73" transform="matrix(0.7071 -0.7071 0.7071 0.7071 -270.7912 228.4916)" width="2.83" height="4.79"/>
				<rect x="132.64" y="439.7" transform="matrix(0.7071 -0.7071 0.7071 0.7071 -272.3697 224.6807)" width="4.79" height="2.83"/>
				<rect x="138.02" y="434.31" transform="matrix(0.7071 -0.7071 0.7071 0.7071 -266.9803 226.913)" width="4.79" height="2.83"/>
			</g>
			<g>
				
					<rect x="130.92" y="431.62" transform="matrix(-0.7071 0.7071 -0.7071 -0.7071 532.1106 645.6636)" width="2.83" height="2.83"/>
				<rect x="128.22" y="427.95" transform="matrix(0.7071 -0.7071 0.7071 0.7071 -266.3264 217.7127)" width="2.83" height="4.79"/>
				<rect x="133.61" y="433.34" transform="matrix(0.7071 -0.7071 0.7071 0.7071 -268.5588 223.1021)" width="2.83" height="4.79"/>
				<rect x="127.25" y="434.31" transform="matrix(0.7071 -0.7071 0.7071 0.7071 -270.1373 219.2912)" width="4.79" height="2.83"/>
				<rect x="132.64" y="428.92" transform="matrix(0.7071 -0.7071 0.7071 0.7071 -264.7479 221.5236)" width="4.79" height="2.83"/>
			</g>
		</g>
		<g>
			<g>
				<g>
					<g>
						<rect x="60.51" y="478.17" transform="matrix(0.7071 -0.7071 0.7071 0.7071 -320.985 184.2574)" width="2.83" height="2.83"/>
						
							<rect x="58.93" y="477.21" transform="matrix(0.7071 -0.7071 0.7071 0.7071 -320.3323 182.6817)" width="2.83" height="1.62"/>
						<rect x="58.93" y="480.36" transform="matrix(0.7071 0.7071 -0.7071 0.7071 357.913 98.2567)" width="2.83" height="1.62"/>
						<rect x="62.08" y="477.21" transform="matrix(0.7071 0.7071 -0.7071 0.7071 356.6077 95.1054)" width="2.83" height="1.62"/>
						
							<rect x="62.08" y="480.36" transform="matrix(0.7071 -0.7071 0.7071 0.7071 -321.6377 185.8331)" width="2.83" height="1.62"/>
					</g>
					<g>
						<rect x="53.97" y="471.64" transform="matrix(0.7071 -0.7071 0.7071 0.7071 -318.2776 177.721)" width="2.83" height="2.83"/>
						
							<rect x="51.28" y="467.97" transform="matrix(0.7071 -0.7071 0.7071 0.7071 -317.1613 175.0263)" width="2.83" height="4.79"/>
						
							<rect x="56.67" y="473.36" transform="matrix(0.7071 -0.7071 0.7071 0.7071 -319.3937 180.4157)" width="2.83" height="4.79"/>
						
							<rect x="55.69" y="468.94" transform="matrix(0.7071 -0.7071 0.7071 0.7071 -315.5828 178.8372)" width="4.79" height="2.83"/>
						<rect x="50.3" y="474.33" transform="matrix(0.7071 -0.7071 0.7071 0.7071 -320.9723 176.6048)" width="4.79" height="2.83"/>
					</g>
					<g>
						
							<rect x="53.97" y="484.71" transform="matrix(0.7071 -0.7071 0.7071 0.7071 -327.5214 181.5499)" width="2.83" height="2.83"/>
						
							<rect x="51.28" y="481.04" transform="matrix(0.7071 -0.7071 0.7071 0.7071 -326.4052 178.8552)" width="2.83" height="4.79"/>
						
							<rect x="56.67" y="486.43" transform="matrix(0.7071 -0.7071 0.7071 0.7071 -328.6376 184.2447)" width="2.83" height="4.79"/>
						
							<rect x="55.69" y="482.02" transform="matrix(0.7071 -0.7071 0.7071 0.7071 -324.8267 182.6661)" width="4.79" height="2.83"/>
						<rect x="50.3" y="487.41" transform="matrix(0.7071 -0.7071 0.7071 0.7071 -330.2162 180.4337)" width="4.79" height="2.83"/>
					</g>
					<g>
						
							<rect x="67.04" y="471.64" transform="matrix(0.7071 -0.7071 0.7071 0.7071 -314.4486 186.9649)" width="2.83" height="2.83"/>
						
							<rect x="64.35" y="467.97" transform="matrix(0.7071 -0.7071 0.7071 0.7071 -313.3324 184.2701)" width="2.83" height="4.79"/>
						
							<rect x="69.74" y="473.36" transform="matrix(0.7071 -0.7071 0.7071 0.7071 -315.5648 189.6596)" width="2.83" height="4.79"/>
						
							<rect x="68.76" y="468.94" transform="matrix(0.7071 -0.7071 0.7071 0.7071 -311.7539 188.0811)" width="4.79" height="2.83"/>
						
							<rect x="63.37" y="474.33" transform="matrix(0.7071 -0.7071 0.7071 0.7071 -317.1433 185.8487)" width="4.79" height="2.83"/>
					</g>
					<g>
						
							<rect x="67.04" y="484.71" transform="matrix(0.7071 -0.7071 0.7071 0.7071 -323.6925 190.7938)" width="2.83" height="2.83"/>
						
							<rect x="64.35" y="481.04" transform="matrix(0.7071 -0.7071 0.7071 0.7071 -322.5763 188.0991)" width="2.83" height="4.79"/>
						
							<rect x="69.74" y="486.43" transform="matrix(0.7071 -0.7071 0.7071 0.7071 -324.8087 193.4885)" width="2.83" height="4.79"/>
						<rect x="68.76" y="482.02" transform="matrix(0.7071 -0.7071 0.7071 0.7071 -320.9978 191.91)" width="4.79" height="2.83"/>
						
							<rect x="63.37" y="487.41" transform="matrix(0.7071 -0.7071 0.7071 0.7071 -326.3872 189.6776)" width="4.79" height="2.83"/>
					</g>
				</g>
				<g>
					<rect x="77.82" y="495.49" transform="matrix(0.7071 -0.7071 0.7071 0.7071 -328.1573 201.5727)" width="2.83" height="2.83"/>
					<rect x="75.13" y="491.82" transform="matrix(0.7071 -0.7071 0.7071 0.7071 -327.0411 198.878)" width="2.83" height="4.79"/>
					<rect x="80.52" y="497.21" transform="matrix(0.7071 -0.7071 0.7071 0.7071 -329.2734 204.2674)" width="2.83" height="4.79"/>
					<rect x="79.54" y="492.8" transform="matrix(0.7071 -0.7071 0.7071 0.7071 -325.4626 202.6889)" width="4.79" height="2.83"/>
					<rect x="74.15" y="498.18" transform="matrix(0.7071 -0.7071 0.7071 0.7071 -330.852 200.4565)" width="4.79" height="2.83"/>
				</g>
				<g>
					<rect x="72.43" y="490.1" transform="matrix(0.7071 -0.7071 0.7071 0.7071 -325.9249 196.1833)" width="2.83" height="2.83"/>
					<rect x="69.74" y="486.43" transform="matrix(0.7071 -0.7071 0.7071 0.7071 -324.8087 193.4885)" width="2.83" height="4.79"/>
					<rect x="75.13" y="491.82" transform="matrix(0.7071 -0.7071 0.7071 0.7071 -327.0411 198.878)" width="2.83" height="4.79"/>
					<rect x="74.15" y="487.41" transform="matrix(0.7071 -0.7071 0.7071 0.7071 -323.2302 197.2995)" width="4.79" height="2.83"/>
					<rect x="68.76" y="492.8" transform="matrix(0.7071 -0.7071 0.7071 0.7071 -328.6196 195.0671)" width="4.79" height="2.83"/>
				</g>
			</g>
			<g>
				<rect x="77.82" y="460.86" transform="matrix(0.7071 0.7071 -0.7071 0.7071 350.0881 79.3657)" width="2.83" height="2.83"/>
				<rect x="74.15" y="463.55" transform="matrix(0.7071 -0.7071 0.7071 0.7071 -306.3644 190.3134)" width="4.79" height="2.83"/>
				<rect x="79.54" y="458.16" transform="matrix(0.7071 -0.7071 0.7071 0.7071 -300.975 192.5458)" width="4.79" height="2.83"/>
				<rect x="80.52" y="462.58" transform="matrix(0.7071 -0.7071 0.7071 0.7071 -304.7859 194.1243)" width="2.83" height="4.79"/>
				<rect x="75.13" y="457.19" transform="matrix(0.7071 -0.7071 0.7071 0.7071 -302.5535 188.7349)" width="2.83" height="4.79"/>
			</g>
			<g>
				<rect x="72.43" y="466.25" transform="matrix(0.7071 0.7071 -0.7071 0.7071 352.3205 84.7552)" width="2.83" height="2.83"/>
				<rect x="68.76" y="468.94" transform="matrix(0.7071 -0.7071 0.7071 0.7071 -311.7539 188.0811)" width="4.79" height="2.83"/>
				<rect x="74.15" y="463.55" transform="matrix(0.7071 -0.7071 0.7071 0.7071 -306.3644 190.3134)" width="4.79" height="2.83"/>
				<rect x="75.13" y="467.97" transform="matrix(0.7071 -0.7071 0.7071 0.7071 -310.1753 191.892)" width="2.83" height="4.79"/>
				<rect x="69.74" y="462.58" transform="matrix(0.7071 -0.7071 0.7071 0.7071 -307.9429 186.5025)" width="2.83" height="4.79"/>
			</g>
		</g>
		<g>
			<g>
				<g>
					<rect x="89.75" y="507.42" transform="matrix(0.7071 -0.7071 0.7071 0.7071 -333.0971 213.4985)" width="2.83" height="2.83"/>
					<rect x="91.33" y="509.6" transform="matrix(0.7071 -0.7071 0.7071 0.7071 -333.7498 215.0742)" width="2.83" height="1.62"/>
					
						<rect x="88.17" y="509.6" transform="matrix(-0.7071 -0.7071 0.7071 -0.7071 -207.9715 934.6728)" width="2.83" height="1.62"/>
					
						<rect x="91.33" y="506.45" transform="matrix(-0.7071 -0.7071 0.7071 -0.7071 -200.3635 931.5214)" width="2.83" height="1.62"/>
					<rect x="88.17" y="506.45" transform="matrix(0.7071 -0.7071 0.7071 0.7071 -332.4444 211.9229)" width="2.83" height="1.62"/>
				</g>
				<g>
					<rect x="96.29" y="513.95" transform="matrix(0.7071 -0.7071 0.7071 0.7071 -335.8046 220.0349)" width="2.83" height="2.83"/>
					<rect x="98.98" y="515.67" transform="matrix(0.7071 -0.7071 0.7071 0.7071 -336.9207 222.7297)" width="2.83" height="4.79"/>
					<rect x="93.59" y="510.28" transform="matrix(0.7071 -0.7071 0.7071 0.7071 -334.6884 217.3402)" width="2.83" height="4.79"/>
					<rect x="98" y="511.26" transform="matrix(0.7071 -0.7071 0.7071 0.7071 -333.1098 221.1511)" width="4.79" height="2.83"/>
					<rect x="92.62" y="516.65" transform="matrix(0.7071 -0.7071 0.7071 0.7071 -338.4993 218.9187)" width="4.79" height="2.83"/>
				</g>
				<g>
					<rect x="83.21" y="513.95" transform="matrix(0.7071 -0.7071 0.7071 0.7071 -339.6335 210.7911)" width="2.83" height="2.83"/>
					<rect x="85.91" y="515.67" transform="matrix(0.7071 -0.7071 0.7071 0.7071 -340.7497 213.4858)" width="2.83" height="4.79"/>
					<rect x="80.52" y="510.28" transform="matrix(0.7071 -0.7071 0.7071 0.7071 -338.5173 208.0963)" width="2.83" height="4.79"/>
					<rect x="84.93" y="511.26" transform="matrix(0.7071 -0.7071 0.7071 0.7071 -336.9388 211.9073)" width="4.79" height="2.83"/>
					<rect x="79.54" y="516.65" transform="matrix(0.7071 -0.7071 0.7071 0.7071 -342.3282 209.6749)" width="4.79" height="2.83"/>
				</g>
				<g>
					<rect x="96.29" y="500.88" transform="matrix(0.7071 -0.7071 0.7071 0.7071 -326.5607 216.206)" width="2.83" height="2.83"/>
					<rect x="98.98" y="502.6" transform="matrix(0.7071 -0.7071 0.7071 0.7071 -327.6769 218.9007)" width="2.83" height="4.79"/>
					<rect x="93.59" y="497.21" transform="matrix(0.7071 -0.7071 0.7071 0.7071 -325.4445 213.5113)" width="2.83" height="4.79"/>
					<rect x="98" y="498.18" transform="matrix(0.7071 -0.7071 0.7071 0.7071 -323.866 217.3222)" width="4.79" height="2.83"/>
					<rect x="92.62" y="503.57" transform="matrix(0.7071 -0.7071 0.7071 0.7071 -329.2554 215.0898)" width="4.79" height="2.83"/>
				</g>
				<g>
					<rect x="83.21" y="500.88" transform="matrix(0.7071 -0.7071 0.7071 0.7071 -330.3896 206.9621)" width="2.83" height="2.83"/>
					<rect x="85.91" y="502.6" transform="matrix(0.7071 -0.7071 0.7071 0.7071 -331.5058 209.6568)" width="2.83" height="4.79"/>
					<rect x="80.52" y="497.21" transform="matrix(0.7071 -0.7071 0.7071 0.7071 -329.2734 204.2674)" width="2.83" height="4.79"/>
					<rect x="84.93" y="498.18" transform="matrix(0.7071 -0.7071 0.7071 0.7071 -327.6949 208.0783)" width="4.79" height="2.83"/>
					<rect x="79.54" y="503.57" transform="matrix(0.7071 -0.7071 0.7071 0.7071 -333.0844 205.8459)" width="4.79" height="2.83"/>
				</g>
			</g>
			<g>
				<g>
					<g>
						<g>
							
								<rect x="118.99" y="536.66" transform="matrix(-0.7071 -0.7071 0.7071 -0.7071 -174.9264 1003.6915)" width="2.83" height="2.83"/>
							
								<rect x="117.42" y="538.84" transform="matrix(-0.7071 -0.7071 0.7071 -0.7071 -178.7304 1005.2671)" width="2.83" height="1.62"/>
							
								<rect x="120.57" y="538.84" transform="matrix(0.7071 -0.7071 0.7071 0.7071 -345.8618 244.3153)" width="2.83" height="1.62"/>
							
								<rect x="117.42" y="535.69" transform="matrix(0.7071 -0.7071 0.7071 0.7071 -344.5565 241.164)" width="2.83" height="1.62"/>
							
								<rect x="120.57" y="535.69" transform="matrix(-0.7071 -0.7071 0.7071 -0.7071 -171.1223 1002.1158)" width="2.83" height="1.62"/>
						</g>
						<g>
							
								<rect x="112.45" y="543.19" transform="matrix(-0.7071 -0.7071 0.7071 -0.7071 -190.7066 1010.2278)" width="2.83" height="2.83"/>
							
								<rect x="108.78" y="545.89" transform="matrix(0.7071 -0.7071 0.7071 0.7071 -354.4403 238.916)" width="4.79" height="2.83"/>
							
								<rect x="114.17" y="540.5" transform="matrix(0.7071 -0.7071 0.7071 0.7071 -349.0508 241.1484)" width="4.79" height="2.83"/>
							
								<rect x="109.76" y="539.52" transform="matrix(0.7071 -0.7071 0.7071 0.7071 -350.6294 237.3375)" width="2.83" height="4.79"/>
							
								<rect x="115.15" y="544.91" transform="matrix(0.7071 -0.7071 0.7071 0.7071 -352.8618 242.7269)" width="2.83" height="4.79"/>
						</g>
						<g>
							
								<rect x="125.53" y="543.19" transform="matrix(-0.7071 -0.7071 0.7071 -0.7071 -168.39 1019.4717)" width="2.83" height="2.83"/>
							
								<rect x="121.86" y="545.89" transform="matrix(0.7071 -0.7071 0.7071 0.7071 -350.6114 248.1599)" width="4.79" height="2.83"/>
							
								<rect x="127.25" y="540.5" transform="matrix(0.7071 -0.7071 0.7071 0.7071 -345.2219 250.3922)" width="4.79" height="2.83"/>
							
								<rect x="122.83" y="539.52" transform="matrix(0.7071 -0.7071 0.7071 0.7071 -346.8004 246.5813)" width="2.83" height="4.79"/>
							
								<rect x="128.22" y="544.91" transform="matrix(0.7071 -0.7071 0.7071 0.7071 -349.0328 251.9708)" width="2.83" height="4.79"/>
						</g>
						<g>
							
								<rect x="112.45" y="530.12" transform="matrix(-0.7071 -0.7071 0.7071 -0.7071 -181.4628 987.9112)" width="2.83" height="2.83"/>
							
								<rect x="108.78" y="532.82" transform="matrix(0.7071 -0.7071 0.7071 0.7071 -345.1964 235.0871)" width="4.79" height="2.83"/>
							
								<rect x="114.17" y="527.43" transform="matrix(0.7071 -0.7071 0.7071 0.7071 -339.807 237.3195)" width="4.79" height="2.83"/>
							
								<rect x="109.76" y="526.45" transform="matrix(0.7071 -0.7071 0.7071 0.7071 -341.3855 233.5085)" width="2.83" height="4.79"/>
							
								<rect x="115.15" y="531.84" transform="matrix(0.7071 -0.7071 0.7071 0.7071 -343.6179 238.898)" width="2.83" height="4.79"/>
						</g>
						<g>
							
								<rect x="125.53" y="530.12" transform="matrix(-0.7071 -0.7071 0.7071 -0.7071 -159.1461 997.155)" width="2.83" height="2.83"/>
							
								<rect x="121.86" y="532.82" transform="matrix(0.7071 -0.7071 0.7071 0.7071 -341.3675 244.3309)" width="4.79" height="2.83"/>
							
								<rect x="127.25" y="527.43" transform="matrix(0.7071 -0.7071 0.7071 0.7071 -335.978 246.5633)" width="4.79" height="2.83"/>
							
								<rect x="122.83" y="526.45" transform="matrix(0.7071 -0.7071 0.7071 0.7071 -337.5565 242.7524)" width="2.83" height="4.79"/>
							
								<rect x="128.22" y="531.84" transform="matrix(0.7071 -0.7071 0.7071 0.7071 -339.7889 248.1419)" width="2.83" height="4.79"/>
						</g>
					</g>
					<g>
						
							<rect x="136.31" y="519.34" transform="matrix(-0.7071 -0.7071 0.7071 -0.7071 -133.1236 986.3762)" width="2.83" height="2.83"/>
						
							<rect x="132.64" y="522.04" transform="matrix(0.7071 -0.7071 0.7071 0.7071 -330.5886 248.7957)" width="4.79" height="2.83"/>
						
							<rect x="138.02" y="516.65" transform="matrix(0.7071 -0.7071 0.7071 0.7071 -325.1992 251.0281)" width="4.79" height="2.83"/>
						
							<rect x="133.61" y="515.67" transform="matrix(0.7071 -0.7071 0.7071 0.7071 -326.7777 247.2172)" width="2.83" height="4.79"/>
						<rect x="139" y="521.06" transform="matrix(0.7071 -0.7071 0.7071 0.7071 -329.01 252.6066)" width="2.83" height="4.79"/>
					</g>
					<g>
						
							<rect x="130.92" y="524.73" transform="matrix(-0.7071 -0.7071 0.7071 -0.7071 -146.1348 991.7656)" width="2.83" height="2.83"/>
						
							<rect x="127.25" y="527.43" transform="matrix(0.7071 -0.7071 0.7071 0.7071 -335.978 246.5633)" width="4.79" height="2.83"/>
						
							<rect x="132.64" y="522.04" transform="matrix(0.7071 -0.7071 0.7071 0.7071 -330.5886 248.7957)" width="4.79" height="2.83"/>
						
							<rect x="128.22" y="521.06" transform="matrix(0.7071 -0.7071 0.7071 0.7071 -332.1671 244.9848)" width="2.83" height="4.79"/>
						
							<rect x="133.61" y="526.45" transform="matrix(0.7071 -0.7071 0.7071 0.7071 -334.3995 250.3743)" width="2.83" height="4.79"/>
					</g>
				</g>
				<g>
					
						<rect x="101.68" y="519.34" transform="matrix(0.7071 -0.7071 0.7071 0.7071 -338.0369 225.4244)" width="2.83" height="2.83"/>
					
						<rect x="104.37" y="521.06" transform="matrix(0.7071 -0.7071 0.7071 0.7071 -339.1531 228.1191)" width="2.83" height="4.79"/>
					<rect x="98.98" y="515.67" transform="matrix(0.7071 -0.7071 0.7071 0.7071 -336.9207 222.7296)" width="2.83" height="4.79"/>
					
						<rect x="103.39" y="516.65" transform="matrix(0.7071 -0.7071 0.7071 0.7071 -335.3422 226.5405)" width="4.79" height="2.83"/>
					<rect x="98" y="522.04" transform="matrix(0.7071 -0.7071 0.7071 0.7071 -340.7317 224.3082)" width="4.79" height="2.83"/>
				</g>
				<g>
					
						<rect x="107.06" y="524.73" transform="matrix(0.7071 -0.7071 0.7071 0.7071 -340.2693 230.8138)" width="2.83" height="2.83"/>
					
						<rect x="109.76" y="526.45" transform="matrix(0.7071 -0.7071 0.7071 0.7071 -341.3855 233.5085)" width="2.83" height="4.79"/>
					
						<rect x="104.37" y="521.06" transform="matrix(0.7071 -0.7071 0.7071 0.7071 -339.1531 228.1191)" width="2.83" height="4.79"/>
					<rect x="108.78" y="522.04" transform="matrix(0.7071 -0.7071 0.7071 0.7071 -337.5746 231.93)" width="4.79" height="2.83"/>
					
						<rect x="103.39" y="527.43" transform="matrix(0.7071 -0.7071 0.7071 0.7071 -342.9641 229.6976)" width="4.79" height="2.83"/>
				</g>
			</g>
		</g>
		<g>
			<g>
				
					<rect x="148.23" y="507.42" transform="matrix(-0.7071 -0.7071 0.7071 -0.7071 -104.332 974.4503)" width="2.83" height="2.83"/>
				
					<rect x="149.81" y="506.45" transform="matrix(-0.7071 -0.7071 0.7071 -0.7071 -100.528 972.8746)" width="2.83" height="1.62"/>
				<rect x="149.81" y="509.6" transform="matrix(-0.7071 0.7071 -0.7071 -0.7071 619.0706 764.39)" width="2.83" height="1.62"/>
				
					<rect x="146.66" y="506.45" transform="matrix(-0.7071 0.7071 -0.7071 -0.7071 611.4625 761.2386)" width="2.83" height="1.62"/>
				<rect x="146.66" y="509.6" transform="matrix(-0.7071 -0.7071 0.7071 -0.7071 -108.1361 976.026)" width="2.83" height="1.62"/>
			</g>
			<g>
				
					<rect x="154.77" y="500.88" transform="matrix(-0.7071 -0.7071 0.7071 -0.7071 -88.5518 967.9139)" width="2.83" height="2.83"/>
				<rect x="156.49" y="498.18" transform="matrix(0.7071 -0.7071 0.7071 0.7071 -306.7369 258.6754)" width="4.79" height="2.83"/>
				<rect x="151.1" y="503.57" transform="matrix(0.7071 -0.7071 0.7071 0.7071 -312.1263 256.443)" width="4.79" height="2.83"/>
				<rect x="152.07" y="497.21" transform="matrix(0.7071 -0.7071 0.7071 0.7071 -308.3155 254.8645)" width="2.83" height="4.79"/>
				<rect x="157.46" y="502.6" transform="matrix(0.7071 -0.7071 0.7071 0.7071 -310.5478 260.2539)" width="2.83" height="4.79"/>
			</g>
			<g>
				
					<rect x="154.77" y="513.95" transform="matrix(-0.7071 -0.7071 0.7071 -0.7071 -97.7956 990.2305)" width="2.83" height="2.83"/>
				<rect x="156.49" y="511.26" transform="matrix(0.7071 -0.7071 0.7071 0.7071 -315.9808 262.5043)" width="4.79" height="2.83"/>
				<rect x="151.1" y="516.65" transform="matrix(0.7071 -0.7071 0.7071 0.7071 -321.3702 260.2719)" width="4.79" height="2.83"/>
				<rect x="152.07" y="510.28" transform="matrix(0.7071 -0.7071 0.7071 0.7071 -317.5593 258.6934)" width="2.83" height="4.79"/>
				<rect x="157.46" y="515.67" transform="matrix(0.7071 -0.7071 0.7071 0.7071 -319.7917 264.0829)" width="2.83" height="4.79"/>
			</g>
			<g>
				<rect x="141.7" y="500.88" transform="matrix(-0.7071 -0.7071 0.7071 -0.7071 -110.8684 958.67)" width="2.83" height="2.83"/>
				<rect x="143.41" y="498.18" transform="matrix(0.7071 -0.7071 0.7071 0.7071 -310.5658 249.4315)" width="4.79" height="2.83"/>
				<rect x="138.02" y="503.57" transform="matrix(0.7071 -0.7071 0.7071 0.7071 -315.9553 247.1991)" width="4.79" height="2.83"/>
				<rect x="139" y="497.21" transform="matrix(0.7071 -0.7071 0.7071 0.7071 -312.1444 245.6206)" width="2.83" height="4.79"/>
				<rect x="144.39" y="502.6" transform="matrix(0.7071 -0.7071 0.7071 0.7071 -314.3768 251.0101)" width="2.83" height="4.79"/>
			</g>
			<g>
				
					<rect x="141.7" y="513.95" transform="matrix(-0.7071 -0.7071 0.7071 -0.7071 -120.1123 980.9867)" width="2.83" height="2.83"/>
				<rect x="143.41" y="511.26" transform="matrix(0.7071 -0.7071 0.7071 0.7071 -319.8097 253.2605)" width="4.79" height="2.83"/>
				<rect x="138.02" y="516.65" transform="matrix(0.7071 -0.7071 0.7071 0.7071 -325.1992 251.0281)" width="4.79" height="2.83"/>
				<rect x="139" y="510.28" transform="matrix(0.7071 -0.7071 0.7071 0.7071 -321.3882 249.4495)" width="2.83" height="4.79"/>
				<rect x="144.39" y="515.67" transform="matrix(0.7071 -0.7071 0.7071 0.7071 -323.6206 254.839)" width="2.83" height="4.79"/>
			</g>
		</g>
		<g>
			<g>
				<g>
					<g>
						
							<rect x="177.47" y="478.17" transform="matrix(-0.7071 0.7071 -0.7071 -0.7071 644.5077 692.22)" width="2.83" height="2.83"/>
						
							<rect x="179.05" y="480.36" transform="matrix(-0.7071 0.7071 -0.7071 -0.7071 648.3117 693.7957)" width="2.83" height="1.62"/>
						
							<rect x="179.05" y="477.21" transform="matrix(-0.7071 -0.7071 0.7071 -0.7071 -29.9337 943.6335)" width="2.83" height="1.62"/>
						
							<rect x="175.9" y="480.36" transform="matrix(-0.7071 -0.7071 0.7071 -0.7071 -37.5417 946.7849)" width="2.83" height="1.62"/>
						
							<rect x="175.9" y="477.21" transform="matrix(-0.7071 0.7071 -0.7071 -0.7071 640.7036 690.6443)" width="2.83" height="1.62"/>
					</g>
					<g>
						
							<rect x="184.01" y="484.71" transform="matrix(-0.7071 0.7071 -0.7071 -0.7071 660.2879 698.7563)" width="2.83" height="2.83"/>
						
							<rect x="186.7" y="486.43" transform="matrix(0.7071 -0.7071 0.7071 0.7071 -290.5506 276.1949)" width="2.83" height="4.79"/>
						
							<rect x="181.31" y="481.04" transform="matrix(0.7071 -0.7071 0.7071 0.7071 -288.3182 270.8055)" width="2.83" height="4.79"/>
						
							<rect x="180.34" y="487.41" transform="matrix(0.7071 -0.7071 0.7071 0.7071 -292.1291 272.384)" width="4.79" height="2.83"/>
						
							<rect x="185.73" y="482.02" transform="matrix(0.7071 -0.7071 0.7071 0.7071 -286.7396 274.6164)" width="4.79" height="2.83"/>
					</g>
					<g>
						
							<rect x="184.01" y="471.64" transform="matrix(-0.7071 0.7071 -0.7071 -0.7071 651.0441 676.4397)" width="2.83" height="2.83"/>
						<rect x="186.7" y="473.36" transform="matrix(0.7071 -0.7071 0.7071 0.7071 -281.3067 272.366)" width="2.83" height="4.79"/>
						
							<rect x="181.31" y="467.97" transform="matrix(0.7071 -0.7071 0.7071 0.7071 -279.0743 266.9766)" width="2.83" height="4.79"/>
						
							<rect x="180.34" y="474.33" transform="matrix(0.7071 -0.7071 0.7071 0.7071 -282.8852 268.5551)" width="4.79" height="2.83"/>
						
							<rect x="185.73" y="468.94" transform="matrix(0.7071 -0.7071 0.7071 0.7071 -277.4958 270.7875)" width="4.79" height="2.83"/>
					</g>
					<g>
						
							<rect x="170.94" y="484.71" transform="matrix(-0.7071 0.7071 -0.7071 -0.7071 637.9713 708.0002)" width="2.83" height="2.83"/>
						
							<rect x="173.63" y="486.43" transform="matrix(0.7071 -0.7071 0.7071 0.7071 -294.3795 266.9511)" width="2.83" height="4.79"/>
						
							<rect x="168.24" y="481.04" transform="matrix(0.7071 -0.7071 0.7071 0.7071 -292.1471 261.5616)" width="2.83" height="4.79"/>
						
							<rect x="167.27" y="487.41" transform="matrix(0.7071 -0.7071 0.7071 0.7071 -295.958 263.1402)" width="4.79" height="2.83"/>
						
							<rect x="172.66" y="482.02" transform="matrix(0.7071 -0.7071 0.7071 0.7071 -290.5686 265.3725)" width="4.79" height="2.83"/>
					</g>
					<g>
						
							<rect x="170.94" y="471.64" transform="matrix(-0.7071 0.7071 -0.7071 -0.7071 628.7274 685.6836)" width="2.83" height="2.83"/>
						
							<rect x="173.63" y="473.36" transform="matrix(0.7071 -0.7071 0.7071 0.7071 -285.1356 263.1221)" width="2.83" height="4.79"/>
						
							<rect x="168.24" y="467.97" transform="matrix(0.7071 -0.7071 0.7071 0.7071 -282.9032 257.7327)" width="2.83" height="4.79"/>
						
							<rect x="167.27" y="474.33" transform="matrix(0.7071 -0.7071 0.7071 0.7071 -286.7141 259.3112)" width="4.79" height="2.83"/>
						
							<rect x="172.66" y="468.94" transform="matrix(0.7071 -0.7071 0.7071 0.7071 -281.3247 261.5436)" width="4.79" height="2.83"/>
					</g>
				</g>
				<g>
					
						<rect x="160.16" y="460.86" transform="matrix(-0.7071 0.7071 -0.7071 -0.7071 602.7048 674.9047)" width="2.83" height="2.83"/>
					
						<rect x="162.85" y="462.58" transform="matrix(0.7071 -0.7071 0.7071 0.7071 -280.6708 252.3432)" width="2.83" height="4.79"/>
					
						<rect x="157.46" y="457.19" transform="matrix(0.7071 -0.7071 0.7071 0.7071 -278.4385 246.9538)" width="2.83" height="4.79"/>
					
						<rect x="156.49" y="463.55" transform="matrix(0.7071 -0.7071 0.7071 0.7071 -282.2494 248.5323)" width="4.79" height="2.83"/>
					
						<rect x="161.88" y="458.16" transform="matrix(0.7071 -0.7071 0.7071 0.7071 -276.8599 250.7647)" width="4.79" height="2.83"/>
				</g>
				<g>
					
						<rect x="165.55" y="466.25" transform="matrix(-0.7071 0.7071 -0.7071 -0.7071 615.7161 680.2941)" width="2.83" height="2.83"/>
					
						<rect x="168.24" y="467.97" transform="matrix(0.7071 -0.7071 0.7071 0.7071 -282.9032 257.7327)" width="2.83" height="4.79"/>
					
						<rect x="162.85" y="462.58" transform="matrix(0.7071 -0.7071 0.7071 0.7071 -280.6708 252.3432)" width="2.83" height="4.79"/>
					
						<rect x="161.88" y="468.94" transform="matrix(0.7071 -0.7071 0.7071 0.7071 -284.4818 253.9218)" width="4.79" height="2.83"/>
					
						<rect x="167.27" y="463.55" transform="matrix(0.7071 -0.7071 0.7071 0.7071 -279.0923 256.1541)" width="4.79" height="2.83"/>
				</g>
			</g>
			<g>
				
					<rect x="160.16" y="495.49" transform="matrix(-0.7071 -0.7071 0.7071 -0.7071 -75.5405 962.5245)" width="2.83" height="2.83"/>
				<rect x="161.88" y="492.8" transform="matrix(0.7071 -0.7071 0.7071 0.7071 -301.3475 260.9078)" width="4.79" height="2.83"/>
				<rect x="156.49" y="498.18" transform="matrix(0.7071 -0.7071 0.7071 0.7071 -306.7369 258.6754)" width="4.79" height="2.83"/>
				<rect x="157.46" y="491.82" transform="matrix(0.7071 -0.7071 0.7071 0.7071 -302.926 257.0969)" width="2.83" height="4.79"/>
				<rect x="162.85" y="497.21" transform="matrix(0.7071 -0.7071 0.7071 0.7071 -305.1584 262.4863)" width="2.83" height="4.79"/>
			</g>
			<g>
				<rect x="165.55" y="490.1" transform="matrix(-0.7071 -0.7071 0.7071 -0.7071 -62.5293 957.135)" width="2.83" height="2.83"/>
				<rect x="167.27" y="487.41" transform="matrix(0.7071 -0.7071 0.7071 0.7071 -295.958 263.1401)" width="4.79" height="2.83"/>
				<rect x="161.88" y="492.8" transform="matrix(0.7071 -0.7071 0.7071 0.7071 -301.3475 260.9078)" width="4.79" height="2.83"/>
				<rect x="162.85" y="486.43" transform="matrix(0.7071 -0.7071 0.7071 0.7071 -297.5366 259.3292)" width="2.83" height="4.79"/>
				<rect x="168.24" y="491.82" transform="matrix(0.7071 -0.7071 0.7071 0.7071 -299.769 264.7187)" width="2.83" height="4.79"/>
			</g>
		</g>
		
			<rect x="108.7" y="438.64" transform="matrix(0.7071 -0.7071 0.7071 0.7071 -283.1794 217.0461)" style="fill:none;stroke:#000000;stroke-width:2;stroke-miterlimit:10;" width="23.41" height="23.41"/>
		
			<rect x="79.46" y="467.88" transform="matrix(-0.7071 -0.7071 0.7071 -0.7071 -183.4909 883.1794)" style="fill:none;stroke:#000000;stroke-width:2;stroke-miterlimit:10;" width="23.41" height="23.41"/>
		
			<rect x="108.7" y="497.13" transform="matrix(-0.7071 0.7071 -0.7071 -0.7071 565.3488 783.4909)" style="fill:none;stroke:#000000;stroke-width:2;stroke-miterlimit:10;" width="23.41" height="23.41"/>
		
			<rect x="137.94" y="467.88" transform="matrix(0.7071 0.7071 -0.7071 0.7071 382.9539 34.6512)" style="fill:none;stroke:#000000;stroke-width:2;stroke-miterlimit:10;" width="23.41" height="23.41"/>
	</g>
</g>
<g>
</g>
<g>
</g>
<g>
</g>
<g>
</g>
<g>
</g>
<g>
</g>
<g>
</g>
<g>
</g>
<g>
</g>
<g>
</g>
<g>
</g>
<g>
</g>
<g>
</g>
<g>
</g>
<g>
</g>
</svg>
